<?xml version="1.0" encoding="UTF-8" standalone="no"?>
<!DOCTYPE svg PUBLIC "-//W3C//DTD SVG 1.1//EN"
 "http://www.w3.org/Graphics/SVG/1.1/DTD/svg11.dtd">
<!-- Generated by graphviz version 2.36.0 (20140111.2315)
 -->
<!-- Title: /home/travis/build/AliceO2Group/AliceO2/DataFormats/Detectors/ITSMFT/MFT/include/DataFormatsMFT/TrackMFT.h Pages: 1 -->
<!--zoomable 480 -->
<svg id="main" version="1.1" xmlns="http://www.w3.org/2000/svg" xmlns:xlink="http://www.w3.org/1999/xlink" xml:space="preserve" onload="init(evt)">
<style type="text/css"><![CDATA[
.edge:hover path { stroke: red; }
.edge:hover polygon { stroke: red; fill: red; }
]]></style>
<script type="text/javascript"><![CDATA[
var edges = document.getElementsByTagName('g');
if (edges && edges.length) {
  for (var i=0;i<edges.length;i++) {
    if (edges[i].id.substr(0,4)=='edge') {
      edges[i].setAttribute('class','edge');
    }
  }
}
]]></script>
        <defs>
                <circle id="rim" cx="0" cy="0" r="7"/>
                <circle id="rim2" cx="0" cy="0" r="3.5"/>
                <g id="zoomPlus">
                        <use xlink:href="#rim" fill="#404040">
                                <set attributeName="fill" to="#808080" begin="zoomplus.mouseover" end="zoomplus.mouseout"/>
                        </use>
                        <path d="M-4,0h8M0,-4v8" fill="none" stroke="white" stroke-width="1.5" pointer-events="none"/>
                </g>
                <g id="zoomMin">
                        <use xlink:href="#rim" fill="#404040">
                                <set attributeName="fill" to="#808080" begin="zoomminus.mouseover" end="zoomminus.mouseout"/>
                        </use>
                        <path d="M-4,0h8" fill="none" stroke="white" stroke-width="1.5" pointer-events="none"/>
                </g>
                <g id="dirArrow">
                        <path fill="none" stroke="white" stroke-width="1.5" d="M0,-3.0v7 M-2.5,-0.5L0,-3.0L2.5,-0.5"/>
                </g>
               <g id="resetDef">
                       <use xlink:href="#rim2" fill="#404040">
                               <set attributeName="fill" to="#808080" begin="reset.mouseover" end="reset.mouseout"/>
                       </use>
               </g>
        </defs>

<script type="text/javascript">
var viewWidth = 1965;
var viewHeight = 480;
var sectionId = 'dynsection-0';
</script>
<script xlink:href="../../svgpan.js"/>
<svg id="graph" class="graph">
<g id="viewport">
<title>/home/travis/build/AliceO2Group/AliceO2/DataFormats/Detectors/ITSMFT/MFT/include/DataFormatsMFT/TrackMFT.h</title>
<!-- Node1 -->
<g id="node1" class="node"><title>Node1</title>
<polygon fill="#bfbfbf" stroke="black" points="1027.5,-408.5 1027.5,-471.5 1200.5,-471.5 1200.5,-408.5 1027.5,-408.5"/>
<text text-anchor="start" x="1035.5" y="-459.5" font-family="Helvetica,sans-Serif" font-size="10.00">/home/travis/build</text>
<text text-anchor="start" x="1035.5" y="-448.5" font-family="Helvetica,sans-Serif" font-size="10.00">/AliceO2Group/AliceO2</text>
<text text-anchor="start" x="1035.5" y="-437.5" font-family="Helvetica,sans-Serif" font-size="10.00">/DataFormats/Detectors</text>
<text text-anchor="start" x="1035.5" y="-426.5" font-family="Helvetica,sans-Serif" font-size="10.00">/ITSMFT/MFT/include/DataFormats</text>
<text text-anchor="middle" x="1114" y="-415.5" font-family="Helvetica,sans-Serif" font-size="10.00">MFT/TrackMFT.h</text>
</g>
<!-- Node2 -->
<g id="node2" class="node"><title>Node2</title>
<polygon fill="none" stroke="#bfbfbf" points="804,-142.5 804,-161.5 848,-161.5 848,-142.5 804,-142.5"/>
<text text-anchor="middle" x="826" y="-149.5" font-family="Helvetica,sans-Serif" font-size="10.00">vector</text>
</g>
<!-- Node1&#45;&gt;Node2 -->
<g id="edge1" class="edge"><title>Node1&#45;&gt;Node2</title>
<path fill="none" stroke="midnightblue" d="M1083.18,-408.393C1022.26,-347.9 888.348,-214.915 842.091,-168.98"/>
<polygon fill="midnightblue" stroke="midnightblue" points="844.304,-166.244 834.742,-161.681 839.371,-171.211 844.304,-166.244"/>
</g>
<!-- Node3 -->
<g id="node3" class="node"><title>Node3</title>
<g id="a_node3"><a xlink:href="../../d7/d8b/DataFormats_2Reconstruction_2include_2ReconstructionDataFormats_2Track_8h.html" target="_top" xlink:title="ReconstructionDataFormats\l/Track.h">
<polygon fill="none" stroke="black" points="1359,-341 1359,-371 1499,-371 1499,-341 1359,-341"/>
<text text-anchor="start" x="1367" y="-359" font-family="Helvetica,sans-Serif" font-size="10.00">ReconstructionDataFormats</text>
<text text-anchor="middle" x="1429" y="-348" font-family="Helvetica,sans-Serif" font-size="10.00">/Track.h</text>
</a>
</g>
</g>
<!-- Node1&#45;&gt;Node3 -->
<g id="edge2" class="edge"><title>Node1&#45;&gt;Node3</title>
<path fill="none" stroke="midnightblue" d="M1200.91,-416.376C1252.93,-402.833 1317.91,-385.918 1365.19,-373.61"/>
<polygon fill="midnightblue" stroke="midnightblue" points="1366.21,-376.963 1375,-371.056 1364.44,-370.188 1366.21,-376.963"/>
</g>
<!-- Node4 -->
<g id="node4" class="node"><title>Node4</title>
<polygon fill="none" stroke="#bfbfbf" points="1236,-74.5 1236,-93.5 1292,-93.5 1292,-74.5 1236,-74.5"/>
<text text-anchor="middle" x="1264" y="-81.5" font-family="Helvetica,sans-Serif" font-size="10.00">Rtypes.h</text>
</g>
<!-- Node3&#45;&gt;Node4 -->
<g id="edge3" class="edge"><title>Node3&#45;&gt;Node4</title>
<path fill="none" stroke="midnightblue" d="M1358.99,-347.777C1291.29,-339.705 1194.45,-324.958 1163,-304 1132.84,-283.903 1128.44,-270.703 1118,-236 1112.07,-216.308 1115.55,-144.485 1122,-136 1151.84,-96.7154 1180.79,-117.274 1227,-100 1229.25,-99.1604 1231.56,-98.2738 1233.88,-97.3683"/>
<polygon fill="midnightblue" stroke="midnightblue" points="1235.34,-100.558 1243.34,-93.6107 1232.75,-94.053 1235.34,-100.558"/>
</g>
<!-- Node5 -->
<g id="node5" class="node"><title>Node5</title>
<polygon fill="none" stroke="#bfbfbf" points="1368,-278.5 1368,-297.5 1424,-297.5 1424,-278.5 1368,-278.5"/>
<text text-anchor="middle" x="1396" y="-285.5" font-family="Helvetica,sans-Serif" font-size="10.00">algorithm</text>
</g>
<!-- Node3&#45;&gt;Node5 -->
<g id="edge4" class="edge"><title>Node3&#45;&gt;Node5</title>
<path fill="none" stroke="midnightblue" d="M1421.84,-340.679C1416.9,-330.796 1410.29,-317.579 1404.99,-306.986"/>
<polygon fill="midnightblue" stroke="midnightblue" points="1408.02,-305.207 1400.41,-297.828 1401.76,-308.338 1408.02,-305.207"/>
</g>
<!-- Node6 -->
<g id="node6" class="node"><title>Node6</title>
<polygon fill="none" stroke="#bfbfbf" points="1494,-6.5 1494,-25.5 1532,-25.5 1532,-6.5 1494,-6.5"/>
<text text-anchor="middle" x="1513" y="-13.5" font-family="Helvetica,sans-Serif" font-size="10.00">array</text>
</g>
<!-- Node3&#45;&gt;Node6 -->
<g id="edge5" class="edge"><title>Node3&#45;&gt;Node6</title>
<path fill="none" stroke="midnightblue" d="M1402.73,-340.979C1375.29,-324.539 1338.85,-296.428 1359,-272 1412.58,-207.05 1468.47,-271.11 1545,-236 1589.29,-215.682 1604.57,-208.935 1631,-168 1647.9,-141.83 1644.19,-130.919 1648,-100 1649.74,-85.8843 1656.09,-79.6995 1648,-68 1624.32,-33.7439 1574.48,-22.4716 1542.43,-18.7784"/>
<polygon fill="midnightblue" stroke="midnightblue" points="1542.6,-15.2784 1532.31,-17.7942 1541.93,-22.2455 1542.6,-15.2784"/>
</g>
<!-- Node7 -->
<g id="node7" class="node"><title>Node7</title>
<polygon fill="none" stroke="#bfbfbf" points="1442.5,-278.5 1442.5,-297.5 1483.5,-297.5 1483.5,-278.5 1442.5,-278.5"/>
<text text-anchor="middle" x="1463" y="-285.5" font-family="Helvetica,sans-Serif" font-size="10.00">cfloat</text>
</g>
<!-- Node3&#45;&gt;Node7 -->
<g id="edge6" class="edge"><title>Node3&#45;&gt;Node7</title>
<path fill="none" stroke="midnightblue" d="M1436.38,-340.679C1441.47,-330.796 1448.28,-317.579 1453.73,-306.986"/>
<polygon fill="midnightblue" stroke="midnightblue" points="1456.98,-308.321 1458.45,-297.828 1450.76,-305.115 1456.98,-308.321"/>
</g>
<!-- Node8 -->
<g id="node8" class="node"><title>Node8</title>
<polygon fill="none" stroke="#bfbfbf" points="1716,-6.5 1716,-25.5 1760,-25.5 1760,-6.5 1716,-6.5"/>
<text text-anchor="middle" x="1738" y="-13.5" font-family="Helvetica,sans-Serif" font-size="10.00">cmath</text>
</g>
<!-- Node3&#45;&gt;Node8 -->
<g id="edge7" class="edge"><title>Node3&#45;&gt;Node8</title>
<path fill="none" stroke="midnightblue" d="M1499.01,-352.961C1589.53,-348.994 1740.68,-337.426 1784,-304 1815.7,-279.542 1819,-261.035 1819,-221 1819,-221 1819,-221 1819,-151 1819,-112.6 1815.44,-100.51 1795,-68 1785.9,-53.5259 1771.54,-40.7108 1759.51,-31.5471"/>
<polygon fill="midnightblue" stroke="midnightblue" points="1761.41,-28.6042 1751.27,-25.5483 1757.29,-34.2635 1761.41,-28.6042"/>
</g>
<!-- Node9 -->
<g id="node9" class="node"><title>Node9</title>
<polygon fill="none" stroke="#bfbfbf" points="1502,-278.5 1502,-297.5 1548,-297.5 1548,-278.5 1502,-278.5"/>
<text text-anchor="middle" x="1525" y="-285.5" font-family="Helvetica,sans-Serif" font-size="10.00">cstring</text>
</g>
<!-- Node3&#45;&gt;Node9 -->
<g id="edge8" class="edge"><title>Node3&#45;&gt;Node9</title>
<path fill="none" stroke="midnightblue" d="M1449.83,-340.679C1465.78,-329.713 1487.7,-314.645 1503.75,-303.609"/>
<polygon fill="midnightblue" stroke="midnightblue" points="1506.18,-306.187 1512.44,-297.638 1502.21,-300.419 1506.18,-306.187"/>
</g>
<!-- Node10 -->
<g id="node10" class="node"><title>Node10</title>
<polygon fill="none" stroke="#bfbfbf" points="53.5,-74.5 53.5,-93.5 98.5,-93.5 98.5,-74.5 53.5,-74.5"/>
<text text-anchor="middle" x="76" y="-81.5" font-family="Helvetica,sans-Serif" font-size="10.00">iosfwd</text>
</g>
<!-- Node3&#45;&gt;Node10 -->
<g id="edge9" class="edge"><title>Node3&#45;&gt;Node10</title>
<path fill="none" stroke="midnightblue" d="M1358.76,-348.542C1275.8,-340.417 1133.8,-324.952 1013,-304 606.323,-233.467 496.658,-236.115 107,-100 105.095,-99.3346 103.154,-98.5839 101.218,-97.782"/>
<polygon fill="midnightblue" stroke="midnightblue" points="102.344,-94.4494 91.7916,-93.5033 99.4509,-100.824 102.344,-94.4494"/>
</g>
<!-- Node11 -->
<g id="node11" class="node"><title>Node11</title>
<polygon fill="none" stroke="#bfbfbf" points="1566.5,-278.5 1566.5,-297.5 1649.5,-297.5 1649.5,-278.5 1566.5,-278.5"/>
<text text-anchor="middle" x="1608" y="-285.5" font-family="Helvetica,sans-Serif" font-size="10.00">Math/SMatrix.h</text>
</g>
<!-- Node3&#45;&gt;Node11 -->
<g id="edge10" class="edge"><title>Node3&#45;&gt;Node11</title>
<path fill="none" stroke="midnightblue" d="M1467.4,-340.841C1499.43,-329.033 1544.58,-312.384 1575,-301.168"/>
<polygon fill="midnightblue" stroke="midnightblue" points="1576.54,-304.33 1584.71,-297.587 1574.12,-297.762 1576.54,-304.33"/>
</g>
<!-- Node12 -->
<g id="node12" class="node"><title>Node12</title>
<polygon fill="none" stroke="#bfbfbf" points="1667.5,-278.5 1667.5,-297.5 1752.5,-297.5 1752.5,-278.5 1667.5,-278.5"/>
<text text-anchor="middle" x="1710" y="-285.5" font-family="Helvetica,sans-Serif" font-size="10.00">Math/SVector.h</text>
</g>
<!-- Node3&#45;&gt;Node12 -->
<g id="edge11" class="edge"><title>Node3&#45;&gt;Node12</title>
<path fill="none" stroke="midnightblue" d="M1497.15,-340.974C1542.83,-331.291 1604.23,-317.729 1658,-304 1662.42,-302.871 1667.04,-301.631 1671.61,-300.362"/>
<polygon fill="midnightblue" stroke="midnightblue" points="1672.81,-303.661 1681.48,-297.571 1670.9,-296.925 1672.81,-303.661"/>
</g>
<!-- Node13 -->
<g id="node13" class="node"><title>Node13</title>
<g id="a_node13"><a xlink:href="../../d6/d84/MathConstants_8h.html" target="_top" xlink:title="useful math constants ">
<polygon fill="none" stroke="black" points="1778.5,-6.5 1778.5,-25.5 1957.5,-25.5 1957.5,-6.5 1778.5,-6.5"/>
<text text-anchor="middle" x="1868" y="-13.5" font-family="Helvetica,sans-Serif" font-size="10.00">CommonConstants/MathConstants.h</text>
</a>
</g>
</g>
<!-- Node3&#45;&gt;Node13 -->
<g id="edge12" class="edge"><title>Node3&#45;&gt;Node13</title>
<path fill="none" stroke="midnightblue" d="M1499.13,-352.596C1595.14,-348.148 1761.38,-335.963 1812,-304 1849.21,-280.504 1866,-265.009 1866,-221 1866,-221 1866,-221 1866,-151 1866,-110.042 1866.95,-62.0496 1867.54,-36.065"/>
<polygon fill="midnightblue" stroke="midnightblue" points="1871.04,-35.8586 1867.78,-25.7791 1864.04,-35.6941 1871.04,-35.8586"/>
</g>
<!-- Node14 -->
<g id="node14" class="node"><title>Node14</title>
<g id="a_node14"><a xlink:href="../../dd/d76/Cartesian3D_8h.html" target="_top" xlink:title="MathUtils/Cartesian3D.h">
<polygon fill="none" stroke="black" points="904.5,-142.5 904.5,-161.5 1029.5,-161.5 1029.5,-142.5 904.5,-142.5"/>
<text text-anchor="middle" x="967" y="-149.5" font-family="Helvetica,sans-Serif" font-size="10.00">MathUtils/Cartesian3D.h</text>
</a>
</g>
</g>
<!-- Node3&#45;&gt;Node14 -->
<g id="edge13" class="edge"><title>Node3&#45;&gt;Node14</title>
<path fill="none" stroke="midnightblue" d="M1358.64,-353.189C1262.39,-349.453 1096.01,-338.119 1047,-304 1000.83,-271.855 979.161,-204.472 971.032,-171.699"/>
<polygon fill="midnightblue" stroke="midnightblue" points="974.373,-170.614 968.703,-161.664 967.554,-172.196 974.373,-170.614"/>
</g>
<!-- Node24 -->
<g id="node24" class="node"><title>Node24</title>
<g id="a_node24"><a xlink:href="../../d9/d52/Common_2MathUtils_2include_2MathUtils_2Utils_8h.html" target="_top" xlink:title="MathUtils/Utils.h">
<polygon fill="none" stroke="black" points="1696,-74.5 1696,-93.5 1786,-93.5 1786,-74.5 1696,-74.5"/>
<text text-anchor="middle" x="1741" y="-81.5" font-family="Helvetica,sans-Serif" font-size="10.00">MathUtils/Utils.h</text>
</a>
</g>
</g>
<!-- Node3&#45;&gt;Node24 -->
<g id="edge25" class="edge"><title>Node3&#45;&gt;Node24</title>
<path fill="none" stroke="midnightblue" d="M1499.2,-354.505C1586.46,-352.226 1727.96,-342.502 1761,-304 1810.97,-245.772 1770.16,-144.001 1750.3,-102.937"/>
<polygon fill="midnightblue" stroke="midnightblue" points="1753.37,-101.252 1745.77,-93.8685 1747.11,-104.379 1753.37,-101.252"/>
</g>
<!-- Node25 -->
<g id="node25" class="node"><title>Node25</title>
<g id="a_node25"><a xlink:href="../../d4/de2/BaseCluster_8h.html" target="_top" xlink:title="ReconstructionDataFormats\l/BaseCluster.h">
<polygon fill="none" stroke="black" points="1172,-273 1172,-303 1312,-303 1312,-273 1172,-273"/>
<text text-anchor="start" x="1180" y="-291" font-family="Helvetica,sans-Serif" font-size="10.00">ReconstructionDataFormats</text>
<text text-anchor="middle" x="1242" y="-280" font-family="Helvetica,sans-Serif" font-size="10.00">/BaseCluster.h</text>
</a>
</g>
</g>
<!-- Node3&#45;&gt;Node25 -->
<g id="edge29" class="edge"><title>Node3&#45;&gt;Node25</title>
<path fill="none" stroke="midnightblue" d="M1388.88,-340.841C1360.32,-330.759 1321.75,-317.147 1291.31,-306.402"/>
<polygon fill="midnightblue" stroke="midnightblue" points="1292.32,-303.05 1281.73,-303.022 1289.99,-309.651 1292.32,-303.05"/>
</g>
<!-- Node14&#45;&gt;Node4 -->
<g id="edge19" class="edge"><title>Node14&#45;&gt;Node4</title>
<path fill="none" stroke="midnightblue" d="M1011.52,-142.496C1083.07,-128.798 1216.71,-103.065 1227,-100 1229.65,-99.2112 1232.37,-98.3042 1235.08,-97.3349"/>
<polygon fill="midnightblue" stroke="midnightblue" points="1236.58,-100.506 1244.66,-93.652 1234.07,-93.9713 1236.58,-100.506"/>
</g>
<!-- Node14&#45;&gt;Node10 -->
<g id="edge21" class="edge"><title>Node14&#45;&gt;Node10</title>
<path fill="none" stroke="midnightblue" d="M929.185,-142.489C916.762,-140 902.847,-137.538 890,-136 717.052,-115.292 275.842,-142.807 107,-100 104.653,-99.4049 102.272,-98.6227 99.9281,-97.7274"/>
<polygon fill="midnightblue" stroke="midnightblue" points="101.23,-94.4759 90.6715,-93.6009 98.3799,-100.869 101.23,-94.4759"/>
</g>
<!-- Node15 -->
<g id="node15" class="node"><title>Node15</title>
<polygon fill="none" stroke="#bfbfbf" points="706.5,-69 706.5,-99 857.5,-99 857.5,-69 706.5,-69"/>
<text text-anchor="start" x="714.5" y="-87" font-family="Helvetica,sans-Serif" font-size="10.00">Math/GenVector/Displacement</text>
<text text-anchor="middle" x="782" y="-76" font-family="Helvetica,sans-Serif" font-size="10.00">Vector3D.h</text>
</g>
<!-- Node14&#45;&gt;Node15 -->
<g id="edge14" class="edge"><title>Node14&#45;&gt;Node15</title>
<path fill="none" stroke="midnightblue" d="M942.814,-142.372C914.614,-132.311 867.273,-115.422 831.239,-102.566"/>
<polygon fill="midnightblue" stroke="midnightblue" points="831.995,-99.1199 821.4,-99.0562 829.643,-105.713 831.995,-99.1199"/>
</g>
<!-- Node16 -->
<g id="node16" class="node"><title>Node16</title>
<polygon fill="none" stroke="#bfbfbf" points="876,-74.5 876,-93.5 1052,-93.5 1052,-74.5 876,-74.5"/>
<text text-anchor="middle" x="964" y="-81.5" font-family="Helvetica,sans-Serif" font-size="10.00">Math/GenVector/PositionVector3D.h</text>
</g>
<!-- Node14&#45;&gt;Node16 -->
<g id="edge15" class="edge"><title>Node14&#45;&gt;Node16</title>
<path fill="none" stroke="midnightblue" d="M966.608,-142.372C966.166,-132.643 965.433,-116.528 964.857,-103.85"/>
<polygon fill="midnightblue" stroke="midnightblue" points="968.352,-103.672 964.402,-93.8411 961.36,-103.99 968.352,-103.672"/>
</g>
<!-- Node17 -->
<g id="node17" class="node"><title>Node17</title>
<polygon fill="none" stroke="#bfbfbf" points="1069.5,-74.5 1069.5,-93.5 1218.5,-93.5 1218.5,-74.5 1069.5,-74.5"/>
<text text-anchor="middle" x="1144" y="-81.5" font-family="Helvetica,sans-Serif" font-size="10.00">Math/GenVector/Rotation3D.h</text>
</g>
<!-- Node14&#45;&gt;Node17 -->
<g id="edge16" class="edge"><title>Node14&#45;&gt;Node17</title>
<path fill="none" stroke="midnightblue" d="M990.14,-142.372C1021.1,-130.827 1076.17,-110.293 1111.34,-97.1772"/>
<polygon fill="midnightblue" stroke="midnightblue" points="1112.99,-100.299 1121.14,-93.5259 1110.54,-93.7403 1112.99,-100.299"/>
</g>
<!-- Node18 -->
<g id="node18" class="node"><title>Node18</title>
<polygon fill="none" stroke="#bfbfbf" points="260,-74.5 260,-93.5 416,-93.5 416,-74.5 260,-74.5"/>
<text text-anchor="middle" x="338" y="-81.5" font-family="Helvetica,sans-Serif" font-size="10.00">Math/GenVector/Transform3D.h</text>
</g>
<!-- Node14&#45;&gt;Node18 -->
<g id="edge17" class="edge"><title>Node14&#45;&gt;Node18</title>
<path fill="none" stroke="midnightblue" d="M927.973,-142.493C915.853,-140.095 902.416,-137.684 890,-136 684.596,-108.136 630.694,-125.638 425,-100 414.511,-98.6927 403.361,-97.0013 392.665,-95.2275"/>
<polygon fill="midnightblue" stroke="midnightblue" points="393.033,-91.7398 382.587,-93.5115 391.858,-98.6404 393.033,-91.7398"/>
</g>
<!-- Node19 -->
<g id="node19" class="node"><title>Node19</title>
<polygon fill="none" stroke="#bfbfbf" points="434,-74.5 434,-93.5 594,-93.5 594,-74.5 434,-74.5"/>
<text text-anchor="middle" x="514" y="-81.5" font-family="Helvetica,sans-Serif" font-size="10.00">Math/GenVector/Translation3D.h</text>
</g>
<!-- Node14&#45;&gt;Node19 -->
<g id="edge18" class="edge"><title>Node14&#45;&gt;Node19</title>
<path fill="none" stroke="midnightblue" d="M925.932,-142.466C914.341,-140.203 901.7,-137.871 890,-136 763.058,-115.698 730.19,-118.687 603,-100 593.117,-98.548 582.637,-96.8889 572.47,-95.216"/>
<polygon fill="midnightblue" stroke="midnightblue" points="572.881,-91.7363 562.442,-93.5456 571.731,-98.6412 572.881,-91.7363"/>
</g>
<!-- Node20 -->
<g id="node20" class="node"><title>Node20</title>
<polygon fill="none" stroke="#bfbfbf" points="612,-74.5 612,-93.5 688,-93.5 688,-74.5 612,-74.5"/>
<text text-anchor="middle" x="650" y="-81.5" font-family="Helvetica,sans-Serif" font-size="10.00">TGeoMatrix.h</text>
</g>
<!-- Node14&#45;&gt;Node20 -->
<g id="edge20" class="edge"><title>Node14&#45;&gt;Node20</title>
<path fill="none" stroke="midnightblue" d="M923.44,-142.451C912.524,-140.326 900.836,-138.066 890,-136 804.287,-119.658 781.616,-121.306 697,-100 692.889,-98.9647 688.61,-97.769 684.382,-96.5136"/>
<polygon fill="midnightblue" stroke="midnightblue" points="685.301,-93.1343 674.714,-93.5233 683.233,-99.8218 685.301,-93.1343"/>
</g>
<!-- Node21 -->
<g id="node21" class="node"><title>Node21</title>
<g id="a_node21"><a xlink:href="../../d2/dd0/Cartesian2D_8h.html" target="_top" xlink:title="MathUtils/Cartesian2D.h">
<polygon fill="none" stroke="black" points="116.5,-74.5 116.5,-93.5 241.5,-93.5 241.5,-74.5 116.5,-74.5"/>
<text text-anchor="middle" x="179" y="-81.5" font-family="Helvetica,sans-Serif" font-size="10.00">MathUtils/Cartesian2D.h</text>
</a>
</g>
</g>
<!-- Node14&#45;&gt;Node21 -->
<g id="edge22" class="edge"><title>Node14&#45;&gt;Node21</title>
<path fill="none" stroke="midnightblue" d="M928.782,-142.489C916.459,-140.032 902.703,-137.588 890,-136 607.746,-100.723 533.019,-137.111 251,-100 242.447,-98.8745 233.394,-97.2983 224.7,-95.5877"/>
<polygon fill="midnightblue" stroke="midnightblue" points="225.21,-92.1196 214.711,-93.5368 223.802,-98.9766 225.21,-92.1196"/>
</g>
<!-- Node22 -->
<g id="node22" class="node"><title>Node22</title>
<polygon fill="none" stroke="#bfbfbf" points="194.5,-1 194.5,-31 345.5,-31 345.5,-1 194.5,-1"/>
<text text-anchor="start" x="202.5" y="-19" font-family="Helvetica,sans-Serif" font-size="10.00">Math/GenVector/Displacement</text>
<text text-anchor="middle" x="270" y="-8" font-family="Helvetica,sans-Serif" font-size="10.00">Vector2D.h</text>
</g>
<!-- Node21&#45;&gt;Node22 -->
<g id="edge23" class="edge"><title>Node21&#45;&gt;Node22</title>
<path fill="none" stroke="midnightblue" d="M190.897,-74.3717C203.779,-65.0286 224.78,-49.7966 241.907,-37.375"/>
<polygon fill="midnightblue" stroke="midnightblue" points="244.407,-39.8859 250.447,-31.1815 240.297,-34.2194 244.407,-39.8859"/>
</g>
<!-- Node23 -->
<g id="node23" class="node"><title>Node23</title>
<polygon fill="none" stroke="#bfbfbf" points="0,-6.5 0,-25.5 176,-25.5 176,-6.5 0,-6.5"/>
<text text-anchor="middle" x="88" y="-13.5" font-family="Helvetica,sans-Serif" font-size="10.00">Math/GenVector/PositionVector2D.h</text>
</g>
<!-- Node21&#45;&gt;Node23 -->
<g id="edge24" class="edge"><title>Node21&#45;&gt;Node23</title>
<path fill="none" stroke="midnightblue" d="M167.103,-74.3717C152.116,-63.5015 126.138,-44.6602 108.058,-31.5474"/>
<polygon fill="midnightblue" stroke="midnightblue" points="110.05,-28.6684 99.8996,-25.6305 105.94,-34.3349 110.05,-28.6684"/>
</g>
<!-- Node24&#45;&gt;Node6 -->
<g id="edge26" class="edge"><title>Node24&#45;&gt;Node6</title>
<path fill="none" stroke="midnightblue" d="M1711.19,-74.3717C1667.16,-61.6264 1585.28,-37.9227 1541.82,-25.3432"/>
<polygon fill="midnightblue" stroke="midnightblue" points="1542.73,-21.9623 1532.15,-22.5437 1540.78,-28.6863 1542.73,-21.9623"/>
</g>
<!-- Node24&#45;&gt;Node8 -->
<g id="edge27" class="edge"><title>Node24&#45;&gt;Node8</title>
<path fill="none" stroke="midnightblue" d="M1740.61,-74.3717C1740.17,-64.6426 1739.43,-48.528 1738.86,-35.8504"/>
<polygon fill="midnightblue" stroke="midnightblue" points="1742.35,-35.6718 1738.4,-25.8411 1735.36,-35.9898 1742.35,-35.6718"/>
</g>
<!-- Node24&#45;&gt;Node13 -->
<g id="edge28" class="edge"><title>Node24&#45;&gt;Node13</title>
<path fill="none" stroke="midnightblue" d="M1757.6,-74.3717C1779.19,-63.1557 1817.1,-43.4532 1842.38,-30.3136"/>
<polygon fill="midnightblue" stroke="midnightblue" points="1844.13,-33.3475 1851.39,-25.6305 1840.91,-27.1362 1844.13,-33.3475"/>
</g>
<!-- Node25&#45;&gt;Node10 -->
<g id="edge34" class="edge"><title>Node25&#45;&gt;Node10</title>
<path fill="none" stroke="midnightblue" d="M1174.74,-272.942C1102.02,-255.754 984.539,-222.085 895,-168 875.808,-156.407 876.924,-144.057 856,-136 700.495,-76.1185 268.483,-141.121 107,-100 104.653,-99.4025 102.273,-98.6186 99.9294,-97.7222"/>
<polygon fill="midnightblue" stroke="midnightblue" points="101.232,-94.4708 90.6732,-93.5941 98.3804,-100.864 101.232,-94.4708"/>
</g>
<!-- Node25&#45;&gt;Node14 -->
<g id="edge49" class="edge"><title>Node25&#45;&gt;Node14</title>
<path fill="none" stroke="midnightblue" d="M1204.63,-272.897C1179.77,-263.206 1146.56,-249.667 1118,-236 1071.5,-213.742 1019.17,-183.834 989.936,-166.666"/>
<polygon fill="midnightblue" stroke="midnightblue" points="991.684,-163.633 981.293,-161.565 988.126,-169.662 991.684,-163.633"/>
</g>
<!-- Node26 -->
<g id="node26" class="node"><title>Node26</title>
<polygon fill="none" stroke="#bfbfbf" points="1301.5,-210.5 1301.5,-229.5 1360.5,-229.5 1360.5,-210.5 1301.5,-210.5"/>
<text text-anchor="middle" x="1331" y="-217.5" font-family="Helvetica,sans-Serif" font-size="10.00">TObject.h</text>
</g>
<!-- Node25&#45;&gt;Node26 -->
<g id="edge30" class="edge"><title>Node25&#45;&gt;Node26</title>
<path fill="none" stroke="midnightblue" d="M1261.31,-272.679C1276.1,-261.713 1296.42,-246.645 1311.3,-235.609"/>
<polygon fill="midnightblue" stroke="midnightblue" points="1313.4,-238.406 1319.35,-229.638 1309.23,-232.783 1313.4,-238.406"/>
</g>
<!-- Node27 -->
<g id="node27" class="node"><title>Node27</title>
<polygon fill="none" stroke="#bfbfbf" points="1598.5,-74.5 1598.5,-93.5 1639.5,-93.5 1639.5,-74.5 1598.5,-74.5"/>
<text text-anchor="middle" x="1619" y="-81.5" font-family="Helvetica,sans-Serif" font-size="10.00">bitset</text>
</g>
<!-- Node25&#45;&gt;Node27 -->
<g id="edge31" class="edge"><title>Node25&#45;&gt;Node27</title>
<path fill="none" stroke="midnightblue" d="M1312.06,-273.364C1377.93,-260.367 1468.81,-241.927 1485,-236 1544.76,-214.127 1575.81,-221.018 1611,-168 1623.67,-148.913 1623.73,-121.707 1621.93,-103.714"/>
<polygon fill="midnightblue" stroke="midnightblue" points="1625.38,-103.097 1620.63,-93.6267 1618.44,-103.992 1625.38,-103.097"/>
</g>
<!-- Node28 -->
<g id="node28" class="node"><title>Node28</title>
<polygon fill="none" stroke="#bfbfbf" points="1379,-210.5 1379,-229.5 1429,-229.5 1429,-210.5 1379,-210.5"/>
<text text-anchor="middle" x="1404" y="-217.5" font-family="Helvetica,sans-Serif" font-size="10.00">iomanip</text>
</g>
<!-- Node25&#45;&gt;Node28 -->
<g id="edge32" class="edge"><title>Node25&#45;&gt;Node28</title>
<path fill="none" stroke="midnightblue" d="M1277.67,-272.929C1303.17,-262.808 1338.28,-248.75 1369,-236 1370.83,-235.24 1372.71,-234.452 1374.61,-233.653"/>
<polygon fill="midnightblue" stroke="midnightblue" points="1376.21,-236.778 1384.04,-229.646 1373.47,-230.335 1376.21,-236.778"/>
</g>
<!-- Node29 -->
<g id="node29" class="node"><title>Node29</title>
<polygon fill="none" stroke="#bfbfbf" points="1447.5,-210.5 1447.5,-229.5 1476.5,-229.5 1476.5,-210.5 1447.5,-210.5"/>
<text text-anchor="middle" x="1462" y="-217.5" font-family="Helvetica,sans-Serif" font-size="10.00">ios</text>
</g>
<!-- Node25&#45;&gt;Node29 -->
<g id="edge33" class="edge"><title>Node25&#45;&gt;Node29</title>
<path fill="none" stroke="midnightblue" d="M1312.19,-274.158C1350.34,-265.847 1397.79,-253.312 1438,-236 1438.87,-235.626 1439.74,-235.223 1440.62,-234.799"/>
<polygon fill="midnightblue" stroke="midnightblue" points="1442.69,-237.647 1449.69,-229.692 1439.26,-231.547 1442.69,-237.647"/>
</g>
<!-- Node30 -->
<g id="node30" class="node"><title>Node30</title>
<g id="a_node30"><a xlink:href="../../d4/d20/DetMatrixCache_8h.html" target="_top" xlink:title="DetectorsCommonDataFormats\l/DetMatrixCache.h">
<polygon fill="none" stroke="black" points="1127,-205 1127,-235 1283,-235 1283,-205 1127,-205"/>
<text text-anchor="start" x="1135" y="-223" font-family="Helvetica,sans-Serif" font-size="10.00">DetectorsCommonDataFormats</text>
<text text-anchor="middle" x="1205" y="-212" font-family="Helvetica,sans-Serif" font-size="10.00">/DetMatrixCache.h</text>
</a>
</g>
</g>
<!-- Node25&#45;&gt;Node30 -->
<g id="edge35" class="edge"><title>Node25&#45;&gt;Node30</title>
<path fill="none" stroke="midnightblue" d="M1233.97,-272.679C1229.32,-264.376 1223.34,-253.721 1218.03,-244.245"/>
<polygon fill="midnightblue" stroke="midnightblue" points="1220.96,-242.304 1213.01,-235.293 1214.85,-245.727 1220.96,-242.304"/>
</g>
<!-- Node30&#45;&gt;Node2 -->
<g id="edge39" class="edge"><title>Node30&#45;&gt;Node2</title>
<path fill="none" stroke="midnightblue" d="M1126.77,-207.26C1063.97,-197.564 973.623,-183.003 895,-168 882.799,-165.672 869.448,-162.837 857.768,-160.261"/>
<polygon fill="midnightblue" stroke="midnightblue" points="858.527,-156.844 848.004,-158.083 857.003,-163.676 858.527,-156.844"/>
</g>
<!-- Node30&#45;&gt;Node6 -->
<g id="edge38" class="edge"><title>Node30&#45;&gt;Node6</title>
<path fill="none" stroke="midnightblue" d="M1171.52,-204.938C1156.23,-196.613 1139.63,-184.437 1131,-168 1124.39,-155.409 1122.05,-147.055 1131,-136 1179.32,-76.3074 1227.52,-125.376 1300,-100 1330.02,-89.4916 1334.67,-80.2879 1364,-68 1404.83,-50.8951 1453.61,-35.0262 1483.96,-25.6719"/>
<polygon fill="midnightblue" stroke="midnightblue" points="1485.34,-28.9106 1493.88,-22.6436 1483.29,-22.2156 1485.34,-28.9106"/>
</g>
<!-- Node30&#45;&gt;Node14 -->
<g id="edge48" class="edge"><title>Node30&#45;&gt;Node14</title>
<path fill="none" stroke="midnightblue" d="M1154.23,-204.922C1110.44,-192.777 1048.02,-175.466 1007.5,-164.232"/>
<polygon fill="midnightblue" stroke="midnightblue" points="1008.27,-160.813 997.701,-161.514 1006.4,-167.559 1008.27,-160.813"/>
</g>
<!-- Node31 -->
<g id="node31" class="node"><title>Node31</title>
<polygon fill="none" stroke="#bfbfbf" points="1140,-142.5 1140,-161.5 1282,-161.5 1282,-142.5 1140,-142.5"/>
<text text-anchor="middle" x="1211" y="-149.5" font-family="Helvetica,sans-Serif" font-size="10.00">AliTPCCommonFairLogger.h</text>
</g>
<!-- Node30&#45;&gt;Node31 -->
<g id="edge36" class="edge"><title>Node30&#45;&gt;Node31</title>
<path fill="none" stroke="midnightblue" d="M1206.3,-204.679C1207.17,-195.101 1208.33,-182.394 1209.27,-171.977"/>
<polygon fill="midnightblue" stroke="midnightblue" points="1212.78,-172.104 1210.2,-161.828 1205.81,-171.47 1212.78,-172.104"/>
</g>
<!-- Node32 -->
<g id="node32" class="node"><title>Node32</title>
<polygon fill="none" stroke="#bfbfbf" points="1474,-142.5 1474,-161.5 1602,-161.5 1602,-142.5 1474,-142.5"/>
<text text-anchor="middle" x="1538" y="-149.5" font-family="Helvetica,sans-Serif" font-size="10.00">AliTPCCommonRtypes.h</text>
</g>
<!-- Node30&#45;&gt;Node32 -->
<g id="edge37" class="edge"><title>Node30&#45;&gt;Node32</title>
<path fill="none" stroke="midnightblue" d="M1277.32,-204.994C1329.51,-194.843 1401.64,-180.724 1465,-168 1472.06,-166.581 1479.51,-165.07 1486.84,-163.574"/>
<polygon fill="midnightblue" stroke="midnightblue" points="1487.61,-166.988 1496.7,-161.553 1486.21,-160.13 1487.61,-166.988"/>
</g>
<!-- Node33 -->
<g id="node33" class="node"><title>Node33</title>
<g id="a_node33"><a xlink:href="../../d6/d31/DetID_8h.html" target="_top" xlink:title="DetectorsCommonDataFormats\l/DetID.h">
<polygon fill="none" stroke="black" points="1300,-137 1300,-167 1456,-167 1456,-137 1300,-137"/>
<text text-anchor="start" x="1308" y="-155" font-family="Helvetica,sans-Serif" font-size="10.00">DetectorsCommonDataFormats</text>
<text text-anchor="middle" x="1378" y="-144" font-family="Helvetica,sans-Serif" font-size="10.00">/DetID.h</text>
</a>
</g>
</g>
<!-- Node30&#45;&gt;Node33 -->
<g id="edge40" class="edge"><title>Node30&#45;&gt;Node33</title>
<path fill="none" stroke="midnightblue" d="M1242.11,-204.841C1268.31,-194.846 1303.6,-181.383 1331.65,-170.682"/>
<polygon fill="midnightblue" stroke="midnightblue" points="1333.15,-173.856 1341.25,-167.022 1330.66,-167.316 1333.15,-173.856"/>
</g>
<!-- Node33&#45;&gt;Node4 -->
<g id="edge41" class="edge"><title>Node33&#45;&gt;Node4</title>
<path fill="none" stroke="midnightblue" d="M1353.54,-136.841C1334.09,-125.579 1307.03,-109.913 1287.76,-98.7572"/>
<polygon fill="midnightblue" stroke="midnightblue" points="1289.4,-95.6633 1279,-93.6819 1285.9,-101.721 1289.4,-95.6633"/>
</g>
<!-- Node33&#45;&gt;Node6 -->
<g id="edge42" class="edge"><title>Node33&#45;&gt;Node6</title>
<path fill="none" stroke="midnightblue" d="M1373.27,-136.945C1368.25,-119.192 1362.8,-88.4911 1377,-68 1400.87,-33.5507 1451.08,-22.3361 1483.36,-18.7071"/>
<polygon fill="midnightblue" stroke="midnightblue" points="1483.92,-22.169 1493.55,-17.7446 1483.27,-15.2 1483.92,-22.169"/>
</g>
<!-- Node33&#45;&gt;Node24 -->
<g id="edge47" class="edge"><title>Node33&#45;&gt;Node24</title>
<path fill="none" stroke="midnightblue" d="M1455.43,-136.922C1524.76,-124.317 1624.69,-106.148 1686.1,-94.9824"/>
<polygon fill="midnightblue" stroke="midnightblue" points="1686.77,-98.4174 1695.98,-93.1849 1685.52,-91.5303 1686.77,-98.4174"/>
</g>
<!-- Node33&#45;&gt;Node27 -->
<g id="edge43" class="edge"><title>Node33&#45;&gt;Node27</title>
<path fill="none" stroke="midnightblue" d="M1453.93,-136.996C1494.64,-128.408 1545.29,-115.977 1589,-100 1590.65,-99.3953 1592.34,-98.7241 1594.02,-98.0105"/>
<polygon fill="midnightblue" stroke="midnightblue" points="1595.83,-101.026 1603.42,-93.6285 1592.87,-94.6821 1595.83,-101.026"/>
</g>
<!-- Node34 -->
<g id="node34" class="node"><title>Node34</title>
<polygon fill="none" stroke="#bfbfbf" points="1466.5,-74.5 1466.5,-93.5 1515.5,-93.5 1515.5,-74.5 1466.5,-74.5"/>
<text text-anchor="middle" x="1491" y="-81.5" font-family="Helvetica,sans-Serif" font-size="10.00">cassert</text>
</g>
<!-- Node33&#45;&gt;Node34 -->
<g id="edge44" class="edge"><title>Node33&#45;&gt;Node34</title>
<path fill="none" stroke="midnightblue" d="M1402.24,-136.841C1421.52,-125.579 1448.35,-109.913 1467.45,-98.7572"/>
<polygon fill="midnightblue" stroke="midnightblue" points="1469.27,-101.748 1476.14,-93.6819 1465.74,-95.7031 1469.27,-101.748"/>
</g>
<!-- Node35 -->
<g id="node35" class="node"><title>Node35</title>
<polygon fill="none" stroke="#bfbfbf" points="1534,-74.5 1534,-93.5 1580,-93.5 1580,-74.5 1534,-74.5"/>
<text text-anchor="middle" x="1557" y="-81.5" font-family="Helvetica,sans-Serif" font-size="10.00">cstdint</text>
</g>
<!-- Node33&#45;&gt;Node35 -->
<g id="edge45" class="edge"><title>Node33&#45;&gt;Node35</title>
<path fill="none" stroke="midnightblue" d="M1421.5,-136.953C1450.73,-127.234 1489.98,-113.64 1524,-100 1525.84,-99.2622 1527.73,-98.4789 1529.62,-97.6724"/>
<polygon fill="midnightblue" stroke="midnightblue" points="1531.23,-100.787 1538.97,-93.5505 1528.41,-94.3814 1531.23,-100.787"/>
</g>
<!-- Node36 -->
<g id="node36" class="node"><title>Node36</title>
<polygon fill="none" stroke="#bfbfbf" points="1386,-74.5 1386,-93.5 1448,-93.5 1448,-74.5 1386,-74.5"/>
<text text-anchor="middle" x="1417" y="-81.5" font-family="Helvetica,sans-Serif" font-size="10.00">type_traits</text>
</g>
<!-- Node33&#45;&gt;Node36 -->
<g id="edge46" class="edge"><title>Node33&#45;&gt;Node36</title>
<path fill="none" stroke="midnightblue" d="M1386.46,-136.679C1392.36,-126.694 1400.27,-113.307 1406.56,-102.66"/>
<polygon fill="midnightblue" stroke="midnightblue" points="1409.71,-104.218 1411.78,-93.8283 1403.68,-100.657 1409.71,-104.218"/>
</g>
</g>
</svg>
        <g id="navigator" transform="translate(0 0)" fill="#404254">
                <rect fill="#f2f5e9" fill-opacity="0.5" stroke="#606060" stroke-width=".5" x="0" y="0" width="60" height="60"/>
                <use id="zoomplus" xlink:href="#zoomPlus" x="17" y="9" onmousedown="handleZoom(evt,'in')"/>
                <use id="zoomminus" xlink:href="#zoomMin" x="42" y="9" onmousedown="handleZoom(evt,'out')"/>
                <use id="reset" xlink:href="#resetDef" x="30" y="36" onmousedown="handleReset()"/>
                <g id="arrowUp" xlink:href="#dirArrow" transform="translate(30 24)" onmousedown="handlePan(0,-1)">
                  <use xlink:href="#rim" fill="#404040">
                        <set attributeName="fill" to="#808080" begin="arrowUp.mouseover" end="arrowUp.mouseout"/>
                  </use>
                  <path fill="none" stroke="white" stroke-width="1.5" d="M0,-3.0v7 M-2.5,-0.5L0,-3.0L2.5,-0.5"/>
                </g>
                <g id="arrowRight" xlink:href="#dirArrow" transform="rotate(90) translate(36 -43)" onmousedown="handlePan(1,0)">
                  <use xlink:href="#rim" fill="#404040">
                        <set attributeName="fill" to="#808080" begin="arrowRight.mouseover" end="arrowRight.mouseout"/>
                  </use>
                  <path fill="none" stroke="white" stroke-width="1.5" d="M0,-3.0v7 M-2.5,-0.5L0,-3.0L2.5,-0.5"/>
                </g>
                <g id="arrowDown" xlink:href="#dirArrow" transform="rotate(180) translate(-30 -48)" onmousedown="handlePan(0,1)">
                  <use xlink:href="#rim" fill="#404040">
                        <set attributeName="fill" to="#808080" begin="arrowDown.mouseover" end="arrowDown.mouseout"/>
                  </use>
                  <path fill="none" stroke="white" stroke-width="1.5" d="M0,-3.0v7 M-2.5,-0.5L0,-3.0L2.5,-0.5"/>
                </g>
                <g id="arrowLeft" xlink:href="#dirArrow" transform="rotate(270) translate(-36 17)" onmousedown="handlePan(-1,0)">
                  <use xlink:href="#rim" fill="#404040">
                        <set attributeName="fill" to="#808080" begin="arrowLeft.mouseover" end="arrowLeft.mouseout"/>
                  </use>
                  <path fill="none" stroke="white" stroke-width="1.5" d="M0,-3.0v7 M-2.5,-0.5L0,-3.0L2.5,-0.5"/>
                </g>
        </g>
        <svg viewBox="0 0 15 15" width="100%" height="30px" preserveAspectRatio="xMaxYMin meet">
         <g id="arrow_out" transform="scale(0.3 0.3)">
          <a xlink:href="TrackMFT_8h__incl_org.svg" target="_base">
           <rect id="button" ry="5" rx="5" y="6" x="6" height="38" width="38"
                fill="#f2f5e9" fill-opacity="0.5" stroke="#606060" stroke-width="1.0"/>
           <path id="arrow"
             d="M 11.500037,31.436501 C 11.940474,20.09759 22.043105,11.32322 32.158766,21.979434 L 37.068811,17.246167 C 37.068811,17.246167 37.088388,32 37.088388,32 L 22.160133,31.978069 C 22.160133,31.978069 26.997745,27.140456 26.997745,27.140456 C 18.528582,18.264221 13.291696,25.230495 11.500037,31.436501 z"
             style="fill:#404040;"/>
          </a>
         </g>
        </svg>
</svg>
