<?xml version="1.0" encoding="UTF-8" standalone="no"?>
<!DOCTYPE svg PUBLIC "-//W3C//DTD SVG 1.1//EN"
 "http://www.w3.org/Graphics/SVG/1.1/DTD/svg11.dtd">
<!-- Generated by graphviz version 2.36.0 (20140111.2315)
 -->
<!-- Title: o2::framework::has_root_dictionary&lt; T, std::conditional_t&lt; false, class_member_checker&lt; decltype(std::declval&lt; T &gt;().Class())&gt;, void &gt; &gt; Pages: 1 -->
<svg width="156pt" height="216pt"
 viewBox="0.00 0.00 156.00 216.00" xmlns="http://www.w3.org/2000/svg" xmlns:xlink="http://www.w3.org/1999/xlink">
<g id="graph0" class="graph" transform="scale(1 1) rotate(0) translate(4 212)">
<title>o2::framework::has_root_dictionary&lt; T, std::conditional_t&lt; false, class_member_checker&lt; decltype(std::declval&lt; T &gt;().Class())&gt;, void &gt; &gt;</title>
<!-- Node1 -->
<g id="node1" class="node"><title>Node1</title>
<polygon fill="#bfbfbf" stroke="black" points="-1,-1 -1,-113 149,-113 149,-1 -1,-1"/>
<text text-anchor="start" x="7" y="-101" font-family="Helvetica,sans-Serif" font-size="10.00">o2::framework::has</text>
<text text-anchor="start" x="7" y="-90" font-family="Helvetica,sans-Serif" font-size="10.00">_root_dictionary&lt; T,</text>
<text text-anchor="start" x="7" y="-79" font-family="Helvetica,sans-Serif" font-size="10.00"> std::conditional_t&lt;</text>
<text text-anchor="start" x="7" y="-68" font-family="Helvetica,sans-Serif" font-size="10.00"> false, class_member_checker</text>
<text text-anchor="start" x="7" y="-57" font-family="Helvetica,sans-Serif" font-size="10.00">&lt; decltype(std::declval&lt; T</text>
<text text-anchor="middle" x="74" y="-46" font-family="Helvetica,sans-Serif" font-size="10.00"> &gt;().Class())&gt;, void &gt; &gt;</text>
<polyline fill="none" stroke="black" points="-1,-39 149,-39 "/>
<text text-anchor="middle" x="74" y="-27" font-family="Helvetica,sans-Serif" font-size="10.00"> </text>
<polyline fill="none" stroke="black" points="-1,-20 149,-20 "/>
<text text-anchor="middle" x="74" y="-8" font-family="Helvetica,sans-Serif" font-size="10.00"> </text>
</g>
<!-- Node2 -->
<g id="node2" class="node"><title>Node2</title>
<polygon fill="none" stroke="#bfbfbf" points="45.5,-150.5 45.5,-207.5 102.5,-207.5 102.5,-150.5 45.5,-150.5"/>
<text text-anchor="middle" x="74" y="-195.5" font-family="Helvetica,sans-Serif" font-size="10.00">true_type</text>
<polyline fill="none" stroke="#bfbfbf" points="45.5,-188.5 102.5,-188.5 "/>
<text text-anchor="middle" x="74" y="-176.5" font-family="Helvetica,sans-Serif" font-size="10.00"> </text>
<polyline fill="none" stroke="#bfbfbf" points="45.5,-169.5 102.5,-169.5 "/>
<text text-anchor="middle" x="74" y="-157.5" font-family="Helvetica,sans-Serif" font-size="10.00"> </text>
</g>
<!-- Node2&#45;&gt;Node1 -->
<g id="edge1" class="edge"><title>Node2&#45;&gt;Node1</title>
<path fill="none" stroke="midnightblue" d="M74,-140.398C74,-131.802 74,-122.49 74,-113.324"/>
<polygon fill="none" stroke="midnightblue" points="70.5001,-140.47 74,-150.47 77.5001,-140.47 70.5001,-140.47"/>
</g>
</g>
</svg>
