<?xml version="1.0" encoding="UTF-8" standalone="no"?>
<!DOCTYPE svg PUBLIC "-//W3C//DTD SVG 1.1//EN"
 "http://www.w3.org/Graphics/SVG/1.1/DTD/svg11.dtd">
<!-- Generated by graphviz version 2.36.0 (20140111.2315)
 -->
<!-- Title: /home/travis/build/AliceO2Group/AliceO2/Common/Field/include/Field/MagFieldFast.h Pages: 1 -->
<svg width="5626pt" height="320pt"
 viewBox="0.00 0.00 5626.00 320.00" xmlns="http://www.w3.org/2000/svg" xmlns:xlink="http://www.w3.org/1999/xlink">
<g id="graph0" class="graph" transform="scale(1 1) rotate(0) translate(4 316)">
<title>/home/travis/build/AliceO2Group/AliceO2/Common/Field/include/Field/MagFieldFast.h</title>
<!-- Node1 -->
<g id="node1" class="node"><title>Node1</title>
<polygon fill="#bfbfbf" stroke="black" points="439,-259 439,-311 557,-311 557,-259 439,-259"/>
<text text-anchor="start" x="447" y="-299" font-family="Helvetica,sans-Serif" font-size="10.00">/home/travis/build</text>
<text text-anchor="start" x="447" y="-288" font-family="Helvetica,sans-Serif" font-size="10.00">/AliceO2Group/AliceO2</text>
<text text-anchor="start" x="447" y="-277" font-family="Helvetica,sans-Serif" font-size="10.00">/Common/Field/include</text>
<text text-anchor="middle" x="498" y="-266" font-family="Helvetica,sans-Serif" font-size="10.00">/Field/MagFieldFast.h</text>
</g>
<!-- Node2 -->
<g id="node2" class="node"><title>Node2</title>
<g id="a_node2"><a xlink:href="../../db/d4b/MagneticField_8h.html" target="_top" xlink:title="Definition of the MagF class. ">
<polygon fill="none" stroke="black" points="2559,-169 2559,-221 2677,-221 2677,-169 2559,-169"/>
<text text-anchor="start" x="2567" y="-209" font-family="Helvetica,sans-Serif" font-size="10.00">/home/travis/build</text>
<text text-anchor="start" x="2567" y="-198" font-family="Helvetica,sans-Serif" font-size="10.00">/AliceO2Group/AliceO2</text>
<text text-anchor="start" x="2567" y="-187" font-family="Helvetica,sans-Serif" font-size="10.00">/Common/Field/include</text>
<text text-anchor="middle" x="2618" y="-176" font-family="Helvetica,sans-Serif" font-size="10.00">/Field/MagneticField.h</text>
</a>
</g>
</g>
<!-- Node1&#45;&gt;Node2 -->
<g id="edge1" class="edge"><title>Node1&#45;&gt;Node2</title>
<path fill="none" stroke="midnightblue" d="M567.396,-281.119C891.996,-267.645 2257.37,-210.97 2558.9,-198.453"/>
<polygon fill="midnightblue" stroke="midnightblue" points="567.039,-277.631 557.192,-281.543 567.329,-284.625 567.039,-277.631"/>
</g>
<!-- Node7 -->
<g id="node7" class="node"><title>Node7</title>
<g id="a_node7"><a xlink:href="../../d6/dda/testMagneticField_8cxx.html" target="_top" xlink:title="/home/travis/build\l/AliceO2Group/AliceO2\l/Common/Field/test/testMagnetic\lField.cxx">
<polygon fill="none" stroke="black" points="0,-79 0,-131 162,-131 162,-79 0,-79"/>
<text text-anchor="start" x="8" y="-119" font-family="Helvetica,sans-Serif" font-size="10.00">/home/travis/build</text>
<text text-anchor="start" x="8" y="-108" font-family="Helvetica,sans-Serif" font-size="10.00">/AliceO2Group/AliceO2</text>
<text text-anchor="start" x="8" y="-97" font-family="Helvetica,sans-Serif" font-size="10.00">/Common/Field/test/testMagnetic</text>
<text text-anchor="middle" x="81" y="-86" font-family="Helvetica,sans-Serif" font-size="10.00">Field.cxx</text>
</a>
</g>
</g>
<!-- Node1&#45;&gt;Node7 -->
<g id="edge41" class="edge"><title>Node1&#45;&gt;Node7</title>
<path fill="none" stroke="midnightblue" d="M429.656,-257.041C402.866,-246.328 371.913,-233.771 344,-222 271.923,-191.605 189.509,-154.942 136.439,-131.082"/>
<polygon fill="midnightblue" stroke="midnightblue" points="428.362,-260.293 438.947,-260.749 430.957,-253.791 428.362,-260.293"/>
</g>
<!-- Node9 -->
<g id="node9" class="node"><title>Node9</title>
<g id="a_node9"><a xlink:href="../../d8/dee/Propagator_8cxx.html" target="_top" xlink:title="/home/travis/build\l/AliceO2Group/AliceO2\l/Detectors/Base/src/Propagator.cxx">
<polygon fill="none" stroke="black" points="180.5,-84.5 180.5,-125.5 353.5,-125.5 353.5,-84.5 180.5,-84.5"/>
<text text-anchor="start" x="188.5" y="-113.5" font-family="Helvetica,sans-Serif" font-size="10.00">/home/travis/build</text>
<text text-anchor="start" x="188.5" y="-102.5" font-family="Helvetica,sans-Serif" font-size="10.00">/AliceO2Group/AliceO2</text>
<text text-anchor="middle" x="267" y="-91.5" font-family="Helvetica,sans-Serif" font-size="10.00">/Detectors/Base/src/Propagator.cxx</text>
</a>
</g>
</g>
<!-- Node1&#45;&gt;Node9 -->
<g id="edge42" class="edge"><title>Node1&#45;&gt;Node9</title>
<path fill="none" stroke="midnightblue" d="M457.435,-252.742C409.773,-216.016 332.156,-156.207 292.332,-125.52"/>
<polygon fill="midnightblue" stroke="midnightblue" points="455.336,-255.543 465.393,-258.874 459.608,-249.998 455.336,-255.543"/>
</g>
<!-- Node11 -->
<g id="node11" class="node"><title>Node11</title>
<g id="a_node11"><a xlink:href="../../db/d6a/MatchTOF_8cxx.html" target="_top" xlink:title="/home/travis/build\l/AliceO2Group/AliceO2\l/Detectors/GlobalTracking\l/src/MatchTOF.cxx">
<polygon fill="none" stroke="black" points="371.5,-79 371.5,-131 502.5,-131 502.5,-79 371.5,-79"/>
<text text-anchor="start" x="379.5" y="-119" font-family="Helvetica,sans-Serif" font-size="10.00">/home/travis/build</text>
<text text-anchor="start" x="379.5" y="-108" font-family="Helvetica,sans-Serif" font-size="10.00">/AliceO2Group/AliceO2</text>
<text text-anchor="start" x="379.5" y="-97" font-family="Helvetica,sans-Serif" font-size="10.00">/Detectors/GlobalTracking</text>
<text text-anchor="middle" x="437" y="-86" font-family="Helvetica,sans-Serif" font-size="10.00">/src/MatchTOF.cxx</text>
</a>
</g>
</g>
<!-- Node1&#45;&gt;Node11 -->
<g id="edge43" class="edge"><title>Node1&#45;&gt;Node11</title>
<path fill="none" stroke="midnightblue" d="M486.062,-249.164C474.183,-214.501 456.242,-162.149 445.665,-131.285"/>
<polygon fill="midnightblue" stroke="midnightblue" points="482.837,-250.549 489.39,-258.874 489.459,-248.28 482.837,-250.549"/>
</g>
<!-- Node12 -->
<g id="node12" class="node"><title>Node12</title>
<g id="a_node12"><a xlink:href="../../dc/d59/MatchTPCITS_8cxx.html" target="_top" xlink:title="/home/travis/build\l/AliceO2Group/AliceO2\l/Detectors/GlobalTracking\l/src/MatchTPCITS.cxx">
<polygon fill="none" stroke="black" points="520.5,-79 520.5,-131 651.5,-131 651.5,-79 520.5,-79"/>
<text text-anchor="start" x="528.5" y="-119" font-family="Helvetica,sans-Serif" font-size="10.00">/home/travis/build</text>
<text text-anchor="start" x="528.5" y="-108" font-family="Helvetica,sans-Serif" font-size="10.00">/AliceO2Group/AliceO2</text>
<text text-anchor="start" x="528.5" y="-97" font-family="Helvetica,sans-Serif" font-size="10.00">/Detectors/GlobalTracking</text>
<text text-anchor="middle" x="586" y="-86" font-family="Helvetica,sans-Serif" font-size="10.00">/src/MatchTPCITS.cxx</text>
</a>
</g>
</g>
<!-- Node1&#45;&gt;Node12 -->
<g id="edge44" class="edge"><title>Node1&#45;&gt;Node12</title>
<path fill="none" stroke="midnightblue" d="M515.002,-249.609C532.137,-214.951 558.175,-162.281 573.499,-131.285"/>
<polygon fill="midnightblue" stroke="midnightblue" points="511.716,-248.359 510.422,-258.874 517.991,-251.461 511.716,-248.359"/>
</g>
<!-- Node40 -->
<g id="node40" class="node"><title>Node40</title>
<g id="a_node40"><a xlink:href="../../d7/dd5/MagFieldFast_8cxx.html" target="_top" xlink:title="Implementation of the fast magnetic field parametrization MagFieldFast. ">
<polygon fill="none" stroke="black" points="2695.5,-174.5 2695.5,-215.5 2876.5,-215.5 2876.5,-174.5 2695.5,-174.5"/>
<text text-anchor="start" x="2703.5" y="-203.5" font-family="Helvetica,sans-Serif" font-size="10.00">/home/travis/build</text>
<text text-anchor="start" x="2703.5" y="-192.5" font-family="Helvetica,sans-Serif" font-size="10.00">/AliceO2Group/AliceO2</text>
<text text-anchor="middle" x="2786" y="-181.5" font-family="Helvetica,sans-Serif" font-size="10.00">/Common/Field/src/MagFieldFast.cxx</text>
</a>
</g>
</g>
<!-- Node1&#45;&gt;Node40 -->
<g id="edge40" class="edge"><title>Node1&#45;&gt;Node40</title>
<path fill="none" stroke="midnightblue" d="M567.352,-284.142C891.879,-284.482 2262.53,-282.259 2686,-222 2696.92,-220.446 2708.37,-218.138 2719.45,-215.528"/>
<polygon fill="midnightblue" stroke="midnightblue" points="567.156,-280.642 557.152,-284.13 567.148,-287.642 567.156,-280.642"/>
</g>
<!-- Node3 -->
<g id="node3" class="node"><title>Node3</title>
<g id="a_node3"><a xlink:href="../../da/d34/MagFieldFact_8h.html" target="_top" xlink:title="Definition of the MagFieldFact: factory for ALIDE mag. field from MagFieldParam. ">
<polygon fill="none" stroke="black" points="3674,-79 3674,-131 3792,-131 3792,-79 3674,-79"/>
<text text-anchor="start" x="3682" y="-119" font-family="Helvetica,sans-Serif" font-size="10.00">/home/travis/build</text>
<text text-anchor="start" x="3682" y="-108" font-family="Helvetica,sans-Serif" font-size="10.00">/AliceO2Group/AliceO2</text>
<text text-anchor="start" x="3682" y="-97" font-family="Helvetica,sans-Serif" font-size="10.00">/Common/Field/include</text>
<text text-anchor="middle" x="3733" y="-86" font-family="Helvetica,sans-Serif" font-size="10.00">/Field/MagFieldFact.h</text>
</a>
</g>
</g>
<!-- Node2&#45;&gt;Node3 -->
<g id="edge2" class="edge"><title>Node2&#45;&gt;Node3</title>
<path fill="none" stroke="midnightblue" d="M2686.69,-168.062C2686.8,-168.041 2686.9,-168.021 2687,-168 3111.23,-82.5919 3235.01,-213.544 3660,-132 3664.49,-131.138 3669.08,-130.046 3673.66,-128.801"/>
<polygon fill="midnightblue" stroke="midnightblue" points="2686.03,-164.623 2677.11,-170.341 2687.65,-171.433 2686.03,-164.623"/>
</g>
<!-- Node4 -->
<g id="node4" class="node"><title>Node4</title>
<g id="a_node4"><a xlink:href="../../d0/dec/MagFieldFact_8cxx.html" target="_top" xlink:title="/home/travis/build\l/AliceO2Group/AliceO2\l/Common/Field/src/MagFieldFact.cxx">
<polygon fill="none" stroke="black" points="3598.5,-0.5 3598.5,-41.5 3779.5,-41.5 3779.5,-0.5 3598.5,-0.5"/>
<text text-anchor="start" x="3606.5" y="-29.5" font-family="Helvetica,sans-Serif" font-size="10.00">/home/travis/build</text>
<text text-anchor="start" x="3606.5" y="-18.5" font-family="Helvetica,sans-Serif" font-size="10.00">/AliceO2Group/AliceO2</text>
<text text-anchor="middle" x="3689" y="-7.5" font-family="Helvetica,sans-Serif" font-size="10.00">/Common/Field/src/MagFieldFact.cxx</text>
</a>
</g>
</g>
<!-- Node2&#45;&gt;Node4 -->
<g id="edge4" class="edge"><title>Node2&#45;&gt;Node4</title>
<path fill="none" stroke="midnightblue" d="M2686.69,-168.062C2686.8,-168.041 2686.9,-168.021 2687,-168 2789.34,-147.325 3536.69,-186.083 3626,-132 3643.13,-121.626 3667.75,-70.4052 3680.55,-41.6598"/>
<polygon fill="midnightblue" stroke="midnightblue" points="2686.03,-164.623 2677.11,-170.346 2687.65,-171.433 2686.03,-164.623"/>
</g>
<!-- Node5 -->
<g id="node5" class="node"><title>Node5</title>
<g id="a_node5"><a xlink:href="../../df/d54/MagFieldParam_8cxx.html" target="_top" xlink:title="Implementation of the MagFieldParam class. ">
<polygon fill="none" stroke="black" points="3810,-84.5 3810,-125.5 4000,-125.5 4000,-84.5 3810,-84.5"/>
<text text-anchor="start" x="3818" y="-113.5" font-family="Helvetica,sans-Serif" font-size="10.00">/home/travis/build</text>
<text text-anchor="start" x="3818" y="-102.5" font-family="Helvetica,sans-Serif" font-size="10.00">/AliceO2Group/AliceO2</text>
<text text-anchor="middle" x="3905" y="-91.5" font-family="Helvetica,sans-Serif" font-size="10.00">/Common/Field/src/MagFieldParam.cxx</text>
</a>
</g>
</g>
<!-- Node2&#45;&gt;Node5 -->
<g id="edge5" class="edge"><title>Node2&#45;&gt;Node5</title>
<path fill="none" stroke="midnightblue" d="M2686.69,-168.061C2686.8,-168.041 2686.9,-168.02 2687,-168 2929.93,-119.684 3555.69,-166.23 3801,-132 3812.24,-130.431 3824.03,-128.134 3835.47,-125.544"/>
<polygon fill="midnightblue" stroke="midnightblue" points="2686.03,-164.621 2677.1,-170.322 2687.64,-171.434 2686.03,-164.621"/>
</g>
<!-- Node6 -->
<g id="node6" class="node"><title>Node6</title>
<g id="a_node6"><a xlink:href="../../d2/d78/MagneticField_8cxx.html" target="_top" xlink:title="/home/travis/build\l/AliceO2Group/AliceO2\l/Common/Field/src/MagneticField.cxx">
<polygon fill="none" stroke="black" points="4018,-84.5 4018,-125.5 4200,-125.5 4200,-84.5 4018,-84.5"/>
<text text-anchor="start" x="4026" y="-113.5" font-family="Helvetica,sans-Serif" font-size="10.00">/home/travis/build</text>
<text text-anchor="start" x="4026" y="-102.5" font-family="Helvetica,sans-Serif" font-size="10.00">/AliceO2Group/AliceO2</text>
<text text-anchor="middle" x="4109" y="-91.5" font-family="Helvetica,sans-Serif" font-size="10.00">/Common/Field/src/MagneticField.cxx</text>
</a>
</g>
</g>
<!-- Node2&#45;&gt;Node6 -->
<g id="edge6" class="edge"><title>Node2&#45;&gt;Node6</title>
<path fill="none" stroke="midnightblue" d="M2686.69,-168.06C2686.8,-168.04 2686.9,-168.02 2687,-168 2975.39,-111.403 3718.02,-173.242 4009,-132 4019.92,-130.452 4031.37,-128.147 4042.46,-125.538"/>
<polygon fill="midnightblue" stroke="midnightblue" points="2686.04,-164.618 2677.1,-170.302 2687.63,-171.435 2686.04,-164.618"/>
</g>
<!-- Node2&#45;&gt;Node7 -->
<g id="edge7" class="edge"><title>Node2&#45;&gt;Node7</title>
<path fill="none" stroke="midnightblue" d="M2548.81,-193.302C2175.65,-189.4 411.158,-169.103 171,-132 168.107,-131.553 165.176,-131.04 162.226,-130.473"/>
<polygon fill="midnightblue" stroke="midnightblue" points="2548.88,-196.803 2558.92,-193.408 2548.96,-189.804 2548.88,-196.803"/>
</g>
<!-- Node8 -->
<g id="node8" class="node"><title>Node8</title>
<g id="a_node8"><a xlink:href="../../d3/dee/Base_2src_2Detector_8cxx.html" target="_top" xlink:title="/home/travis/build\l/AliceO2Group/AliceO2\l/Detectors/Base/src/Detector.cxx">
<polygon fill="none" stroke="black" points="4218,-84.5 4218,-125.5 4382,-125.5 4382,-84.5 4218,-84.5"/>
<text text-anchor="start" x="4226" y="-113.5" font-family="Helvetica,sans-Serif" font-size="10.00">/home/travis/build</text>
<text text-anchor="start" x="4226" y="-102.5" font-family="Helvetica,sans-Serif" font-size="10.00">/AliceO2Group/AliceO2</text>
<text text-anchor="middle" x="4300" y="-91.5" font-family="Helvetica,sans-Serif" font-size="10.00">/Detectors/Base/src/Detector.cxx</text>
</a>
</g>
</g>
<!-- Node2&#45;&gt;Node8 -->
<g id="edge8" class="edge"><title>Node2&#45;&gt;Node8</title>
<path fill="none" stroke="midnightblue" d="M2686.69,-168.06C2686.8,-168.04 2686.9,-168.02 2687,-168 3019.1,-103.44 3874.53,-182.883 4209,-132 4219.07,-130.468 4229.6,-128.153 4239.78,-125.524"/>
<polygon fill="midnightblue" stroke="midnightblue" points="2686.05,-164.617 2677.1,-170.288 2687.63,-171.436 2686.05,-164.617"/>
</g>
<!-- Node2&#45;&gt;Node9 -->
<g id="edge9" class="edge"><title>Node2&#45;&gt;Node9</title>
<path fill="none" stroke="midnightblue" d="M2548.43,-194.304C2217.42,-195.412 799.976,-196.25 363,-132 352.494,-130.455 341.495,-128.152 330.847,-125.544"/>
<polygon fill="midnightblue" stroke="midnightblue" points="2548.84,-197.803 2558.82,-194.268 2548.81,-190.803 2548.84,-197.803"/>
</g>
<!-- Node10 -->
<g id="node10" class="node"><title>Node10</title>
<g id="a_node10"><a xlink:href="../../d3/d85/Detectors_2EMCAL_2testsimulation_2run__sim__emcal_8C.html" target="_top" xlink:title="/home/travis/build\l/AliceO2Group/AliceO2\l/Detectors/EMCAL/testsimulation\l/run_sim_emcal.C">
<polygon fill="none" stroke="black" points="4400,-79 4400,-131 4564,-131 4564,-79 4400,-79"/>
<text text-anchor="start" x="4408" y="-119" font-family="Helvetica,sans-Serif" font-size="10.00">/home/travis/build</text>
<text text-anchor="start" x="4408" y="-108" font-family="Helvetica,sans-Serif" font-size="10.00">/AliceO2Group/AliceO2</text>
<text text-anchor="start" x="4408" y="-97" font-family="Helvetica,sans-Serif" font-size="10.00">/Detectors/EMCAL/testsimulation</text>
<text text-anchor="middle" x="4482" y="-86" font-family="Helvetica,sans-Serif" font-size="10.00">/run_sim_emcal.C</text>
</a>
</g>
</g>
<!-- Node2&#45;&gt;Node10 -->
<g id="edge10" class="edge"><title>Node2&#45;&gt;Node10</title>
<path fill="none" stroke="midnightblue" d="M2686.69,-168.06C2686.8,-168.04 2686.9,-168.02 2687,-168 3058.88,-96.194 4016.49,-188.492 4391,-132 4393.92,-131.559 4396.89,-131.051 4399.87,-130.489"/>
<polygon fill="midnightblue" stroke="midnightblue" points="2686.05,-164.616 2677.1,-170.278 2687.63,-171.436 2686.05,-164.616"/>
</g>
<!-- Node2&#45;&gt;Node11 -->
<g id="edge11" class="edge"><title>Node2&#45;&gt;Node11</title>
<path fill="none" stroke="midnightblue" d="M2548.51,-193.208C2207.11,-189.148 715.69,-169.395 512,-132 508.882,-131.428 505.72,-130.748 502.545,-129.986"/>
<polygon fill="midnightblue" stroke="midnightblue" points="2548.71,-196.71 2558.75,-193.329 2548.79,-189.711 2548.71,-196.71"/>
</g>
<!-- Node2&#45;&gt;Node12 -->
<g id="edge12" class="edge"><title>Node2&#45;&gt;Node12</title>
<path fill="none" stroke="midnightblue" d="M2548.72,-193.044C2222.72,-188.376 849.333,-166.794 661,-132 657.883,-131.424 654.721,-130.742 651.547,-129.977"/>
<polygon fill="midnightblue" stroke="midnightblue" points="2548.92,-196.547 2558.97,-193.19 2549.02,-189.547 2548.92,-196.547"/>
</g>
<!-- Node13 -->
<g id="node13" class="node"><title>Node13</title>
<g id="a_node13"><a xlink:href="../../d7/dca/CookedTracker_8cxx.html" target="_top" xlink:title="Implementation of the &quot;Cooked Matrix&quot; ITS tracker. ">
<polygon fill="none" stroke="black" points="4582,-79 4582,-131 4768,-131 4768,-79 4582,-79"/>
<text text-anchor="start" x="4590" y="-119" font-family="Helvetica,sans-Serif" font-size="10.00">/home/travis/build</text>
<text text-anchor="start" x="4590" y="-108" font-family="Helvetica,sans-Serif" font-size="10.00">/AliceO2Group/AliceO2</text>
<text text-anchor="start" x="4590" y="-97" font-family="Helvetica,sans-Serif" font-size="10.00">/Detectors/ITSMFT/ITS</text>
<text text-anchor="middle" x="4675" y="-86" font-family="Helvetica,sans-Serif" font-size="10.00">/reconstruction/src/CookedTracker.cxx</text>
</a>
</g>
</g>
<!-- Node2&#45;&gt;Node13 -->
<g id="edge13" class="edge"><title>Node2&#45;&gt;Node13</title>
<path fill="none" stroke="midnightblue" d="M2686.69,-168.059C2686.8,-168.039 2686.9,-168.02 2687,-168 3098.67,-88.9472 4157.59,-188.143 4573,-132 4575.9,-131.608 4578.83,-131.164 4581.79,-130.675"/>
<polygon fill="midnightblue" stroke="midnightblue" points="2686.05,-164.615 2677.09,-170.27 2687.62,-171.436 2686.05,-164.615"/>
</g>
<!-- Node14 -->
<g id="node14" class="node"><title>Node14</title>
<g id="a_node14"><a xlink:href="../../d6/dbc/CookedTrackerSpec_8cxx.html" target="_top" xlink:title="/home/travis/build\l/AliceO2Group/AliceO2\l/Detectors/ITSMFT/ITS\l/workflow/src/CookedTrackerSpec.cxx">
<polygon fill="none" stroke="black" points="4786,-79 4786,-131 4972,-131 4972,-79 4786,-79"/>
<text text-anchor="start" x="4794" y="-119" font-family="Helvetica,sans-Serif" font-size="10.00">/home/travis/build</text>
<text text-anchor="start" x="4794" y="-108" font-family="Helvetica,sans-Serif" font-size="10.00">/AliceO2Group/AliceO2</text>
<text text-anchor="start" x="4794" y="-97" font-family="Helvetica,sans-Serif" font-size="10.00">/Detectors/ITSMFT/ITS</text>
<text text-anchor="middle" x="4879" y="-86" font-family="Helvetica,sans-Serif" font-size="10.00">/workflow/src/CookedTrackerSpec.cxx</text>
</a>
</g>
</g>
<!-- Node2&#45;&gt;Node14 -->
<g id="edge14" class="edge"><title>Node2&#45;&gt;Node14</title>
<path fill="none" stroke="midnightblue" d="M2686.69,-168.059C2686.8,-168.039 2686.9,-168.02 2687,-168 3143.04,-80.8641 4315.76,-193.222 4776,-132 4779.29,-131.562 4782.63,-131.058 4785.99,-130.497"/>
<polygon fill="midnightblue" stroke="midnightblue" points="2686.06,-164.614 2677.09,-170.263 2687.62,-171.437 2686.06,-164.614"/>
</g>
<!-- Node15 -->
<g id="node15" class="node"><title>Node15</title>
<g id="a_node15"><a xlink:href="../../d7/da1/TrackerSpec_8cxx.html" target="_top" xlink:title="/home/travis/build\l/AliceO2Group/AliceO2\l/Detectors/ITSMFT/ITS\l/workflow/src/TrackerSpec.cxx">
<polygon fill="none" stroke="black" points="4990,-79 4990,-131 5142,-131 5142,-79 4990,-79"/>
<text text-anchor="start" x="4998" y="-119" font-family="Helvetica,sans-Serif" font-size="10.00">/home/travis/build</text>
<text text-anchor="start" x="4998" y="-108" font-family="Helvetica,sans-Serif" font-size="10.00">/AliceO2Group/AliceO2</text>
<text text-anchor="start" x="4998" y="-97" font-family="Helvetica,sans-Serif" font-size="10.00">/Detectors/ITSMFT/ITS</text>
<text text-anchor="middle" x="5066" y="-86" font-family="Helvetica,sans-Serif" font-size="10.00">/workflow/src/TrackerSpec.cxx</text>
</a>
</g>
</g>
<!-- Node2&#45;&gt;Node15 -->
<g id="edge15" class="edge"><title>Node2&#45;&gt;Node15</title>
<path fill="none" stroke="midnightblue" d="M2686.69,-168.059C2686.8,-168.039 2686.9,-168.019 2687,-168 3187.64,-72.741 4476.46,-210.496 4980,-132 4983.24,-131.495 4986.52,-130.899 4989.82,-130.228"/>
<polygon fill="midnightblue" stroke="midnightblue" points="2686.06,-164.613 2677.09,-170.257 2687.62,-171.437 2686.06,-164.613"/>
</g>
<!-- Node16 -->
<g id="node16" class="node"><title>Node16</title>
<g id="a_node16"><a xlink:href="../../d0/d6b/ITSMFT_2MFT_2simulation_2src_2Detector_8cxx.html" target="_top" xlink:title="/home/travis/build\l/AliceO2Group/AliceO2\l/Detectors/ITSMFT/MFT\l/simulation/src/Detector.cxx">
<polygon fill="none" stroke="black" points="5160,-79 5160,-131 5300,-131 5300,-79 5160,-79"/>
<text text-anchor="start" x="5168" y="-119" font-family="Helvetica,sans-Serif" font-size="10.00">/home/travis/build</text>
<text text-anchor="start" x="5168" y="-108" font-family="Helvetica,sans-Serif" font-size="10.00">/AliceO2Group/AliceO2</text>
<text text-anchor="start" x="5168" y="-97" font-family="Helvetica,sans-Serif" font-size="10.00">/Detectors/ITSMFT/MFT</text>
<text text-anchor="middle" x="5230" y="-86" font-family="Helvetica,sans-Serif" font-size="10.00">/simulation/src/Detector.cxx</text>
</a>
</g>
</g>
<!-- Node2&#45;&gt;Node16 -->
<g id="edge16" class="edge"><title>Node2&#45;&gt;Node16</title>
<path fill="none" stroke="midnightblue" d="M2686.69,-168.059C2686.8,-168.039 2686.9,-168.019 2687,-168 2956.01,-116.966 4880.97,-177.319 5151,-132 5153.85,-131.522 5156.73,-130.96 5159.63,-130.33"/>
<polygon fill="midnightblue" stroke="midnightblue" points="2686.06,-164.613 2677.09,-170.252 2687.62,-171.437 2686.06,-164.613"/>
</g>
<!-- Node17 -->
<g id="node17" class="node"><title>Node17</title>
<g id="a_node17"><a xlink:href="../../d9/d47/TrackFitter_8cxx.html" target="_top" xlink:title="Implementation of a class to fit a track to a set of clusters. ">
<polygon fill="none" stroke="black" points="5318.5,-79 5318.5,-131 5481.5,-131 5481.5,-79 5318.5,-79"/>
<text text-anchor="start" x="5326.5" y="-119" font-family="Helvetica,sans-Serif" font-size="10.00">/home/travis/build</text>
<text text-anchor="start" x="5326.5" y="-108" font-family="Helvetica,sans-Serif" font-size="10.00">/AliceO2Group/AliceO2</text>
<text text-anchor="start" x="5326.5" y="-97" font-family="Helvetica,sans-Serif" font-size="10.00">/Detectors/MUON/MCH/Tracking</text>
<text text-anchor="middle" x="5400" y="-86" font-family="Helvetica,sans-Serif" font-size="10.00">/src/TrackFitter.cxx</text>
</a>
</g>
</g>
<!-- Node2&#45;&gt;Node17 -->
<g id="edge17" class="edge"><title>Node2&#45;&gt;Node17</title>
<path fill="none" stroke="midnightblue" d="M2686.69,-168.058C2686.8,-168.039 2686.9,-168.019 2687,-168 2973.28,-113.82 5020.74,-174.392 5309,-132 5312.09,-131.546 5315.22,-131.016 5318.37,-130.424"/>
<polygon fill="midnightblue" stroke="midnightblue" points="2686.06,-164.613 2677.09,-170.249 2687.62,-171.437 2686.06,-164.613"/>
</g>
<!-- Node18 -->
<g id="node18" class="node"><title>Node18</title>
<g id="a_node18"><a xlink:href="../../de/da5/FrameStructure_8cxx.html" target="_top" xlink:title="/home/travis/build\l/AliceO2Group/AliceO2\l/Detectors/Passive/src\l/FrameStructure.cxx">
<polygon fill="none" stroke="black" points="5500,-79 5500,-131 5618,-131 5618,-79 5500,-79"/>
<text text-anchor="start" x="5508" y="-119" font-family="Helvetica,sans-Serif" font-size="10.00">/home/travis/build</text>
<text text-anchor="start" x="5508" y="-108" font-family="Helvetica,sans-Serif" font-size="10.00">/AliceO2Group/AliceO2</text>
<text text-anchor="start" x="5508" y="-97" font-family="Helvetica,sans-Serif" font-size="10.00">/Detectors/Passive/src</text>
<text text-anchor="middle" x="5559" y="-86" font-family="Helvetica,sans-Serif" font-size="10.00">/FrameStructure.cxx</text>
</a>
</g>
</g>
<!-- Node2&#45;&gt;Node18 -->
<g id="edge18" class="edge"><title>Node2&#45;&gt;Node18</title>
<path fill="none" stroke="midnightblue" d="M2686.69,-168.058C2686.8,-168.039 2686.9,-168.019 2687,-168 2993.06,-110.216 5183.94,-189.784 5490,-132 5493.27,-131.383 5496.59,-130.622 5499.91,-129.755"/>
<polygon fill="midnightblue" stroke="midnightblue" points="2686.06,-164.612 2677.09,-170.245 2687.62,-171.437 2686.06,-164.612"/>
</g>
<!-- Node19 -->
<g id="node19" class="node"><title>Node19</title>
<g id="a_node19"><a xlink:href="../../d5/d3a/run__sim__phos_8C.html" target="_top" xlink:title="/home/travis/build\l/AliceO2Group/AliceO2\l/Detectors/PHOS/testsimulation\l/run_sim_phos.C">
<polygon fill="none" stroke="black" points="670,-79 670,-131 828,-131 828,-79 670,-79"/>
<text text-anchor="start" x="678" y="-119" font-family="Helvetica,sans-Serif" font-size="10.00">/home/travis/build</text>
<text text-anchor="start" x="678" y="-108" font-family="Helvetica,sans-Serif" font-size="10.00">/AliceO2Group/AliceO2</text>
<text text-anchor="start" x="678" y="-97" font-family="Helvetica,sans-Serif" font-size="10.00">/Detectors/PHOS/testsimulation</text>
<text text-anchor="middle" x="749" y="-86" font-family="Helvetica,sans-Serif" font-size="10.00">/run_sim_phos.C</text>
</a>
</g>
</g>
<!-- Node2&#45;&gt;Node19 -->
<g id="edge19" class="edge"><title>Node2&#45;&gt;Node19</title>
<path fill="none" stroke="midnightblue" d="M2548.68,-193.891C2263.03,-193.085 1176.32,-186.431 838,-132 834.821,-131.489 831.596,-130.898 828.351,-130.245"/>
<polygon fill="midnightblue" stroke="midnightblue" points="2548.89,-197.391 2558.9,-193.918 2548.91,-190.391 2548.89,-197.391"/>
</g>
<!-- Node20 -->
<g id="node20" class="node"><title>Node20</title>
<g id="a_node20"><a xlink:href="../../da/d8e/SpaceCharge_8cxx.html" target="_top" xlink:title="Implementation of the interface for the ALICE TPC space&#45;charge distortions calculations. ">
<polygon fill="none" stroke="black" points="846.5,-79 846.5,-131 979.5,-131 979.5,-79 846.5,-79"/>
<text text-anchor="start" x="854.5" y="-119" font-family="Helvetica,sans-Serif" font-size="10.00">/home/travis/build</text>
<text text-anchor="start" x="854.5" y="-108" font-family="Helvetica,sans-Serif" font-size="10.00">/AliceO2Group/AliceO2</text>
<text text-anchor="start" x="854.5" y="-97" font-family="Helvetica,sans-Serif" font-size="10.00">/Detectors/TPC/simulation</text>
<text text-anchor="middle" x="913" y="-86" font-family="Helvetica,sans-Serif" font-size="10.00">/src/SpaceCharge.cxx</text>
</a>
</g>
</g>
<!-- Node2&#45;&gt;Node20 -->
<g id="edge20" class="edge"><title>Node2&#45;&gt;Node20</title>
<path fill="none" stroke="midnightblue" d="M2548.74,-194.043C2278.55,-193.796 1295.14,-188.921 989,-132 985.984,-131.439 982.925,-130.783 979.852,-130.051"/>
<polygon fill="midnightblue" stroke="midnightblue" points="2548.81,-197.543 2558.81,-194.05 2548.81,-190.543 2548.81,-197.543"/>
</g>
<!-- Node21 -->
<g id="node21" class="node"><title>Node21</title>
<g id="a_node21"><a xlink:href="../../dd/d2b/o2__sim__its__ALP3_8cxx.html" target="_top" xlink:title="/home/travis/build\l/AliceO2Group/AliceO2\l/Framework/TestWorkflows\l/src/o2_sim_its_ALP3.cxx">
<polygon fill="none" stroke="black" points="997.5,-79 997.5,-131 1134.5,-131 1134.5,-79 997.5,-79"/>
<text text-anchor="start" x="1005.5" y="-119" font-family="Helvetica,sans-Serif" font-size="10.00">/home/travis/build</text>
<text text-anchor="start" x="1005.5" y="-108" font-family="Helvetica,sans-Serif" font-size="10.00">/AliceO2Group/AliceO2</text>
<text text-anchor="start" x="1005.5" y="-97" font-family="Helvetica,sans-Serif" font-size="10.00">/Framework/TestWorkflows</text>
<text text-anchor="middle" x="1066" y="-86" font-family="Helvetica,sans-Serif" font-size="10.00">/src/o2_sim_its_ALP3.cxx</text>
</a>
</g>
</g>
<!-- Node2&#45;&gt;Node21 -->
<g id="edge21" class="edge"><title>Node2&#45;&gt;Node21</title>
<path fill="none" stroke="midnightblue" d="M2548.71,-193.648C2295.22,-191.961 1418.7,-182.525 1144,-132 1140.91,-131.432 1137.78,-130.769 1134.63,-130.033"/>
<polygon fill="midnightblue" stroke="midnightblue" points="2548.87,-197.149 2558.89,-193.714 2548.92,-190.149 2548.87,-197.149"/>
</g>
<!-- Node22 -->
<g id="node22" class="node"><title>Node22</title>
<g id="a_node22"><a xlink:href="../../d7/d11/o2__sim__tpc_8cxx.html" target="_top" xlink:title="/home/travis/build\l/AliceO2Group/AliceO2\l/Framework/TestWorkflows\l/src/o2_sim_tpc.cxx">
<polygon fill="none" stroke="black" points="1152.5,-79 1152.5,-131 1289.5,-131 1289.5,-79 1152.5,-79"/>
<text text-anchor="start" x="1160.5" y="-119" font-family="Helvetica,sans-Serif" font-size="10.00">/home/travis/build</text>
<text text-anchor="start" x="1160.5" y="-108" font-family="Helvetica,sans-Serif" font-size="10.00">/AliceO2Group/AliceO2</text>
<text text-anchor="start" x="1160.5" y="-97" font-family="Helvetica,sans-Serif" font-size="10.00">/Framework/TestWorkflows</text>
<text text-anchor="middle" x="1221" y="-86" font-family="Helvetica,sans-Serif" font-size="10.00">/src/o2_sim_tpc.cxx</text>
</a>
</g>
</g>
<!-- Node2&#45;&gt;Node22 -->
<g id="edge22" class="edge"><title>Node2&#45;&gt;Node22</title>
<path fill="none" stroke="midnightblue" d="M2548.6,-193.248C2312.59,-190.297 1542.16,-177.343 1299,-132 1295.91,-131.424 1292.78,-130.756 1289.63,-130.014"/>
<polygon fill="midnightblue" stroke="midnightblue" points="2548.73,-196.749 2558.77,-193.373 2548.81,-189.75 2548.73,-196.749"/>
</g>
<!-- Node23 -->
<g id="node23" class="node"><title>Node23</title>
<g id="a_node23"><a xlink:href="../../d0/d17/initSimGeomAndField_8C.html" target="_top" xlink:title="/home/travis/build\l/AliceO2Group/AliceO2\l/macro/initSimGeomAndField.C">
<polygon fill="none" stroke="black" points="1307.5,-84.5 1307.5,-125.5 1462.5,-125.5 1462.5,-84.5 1307.5,-84.5"/>
<text text-anchor="start" x="1315.5" y="-113.5" font-family="Helvetica,sans-Serif" font-size="10.00">/home/travis/build</text>
<text text-anchor="start" x="1315.5" y="-102.5" font-family="Helvetica,sans-Serif" font-size="10.00">/AliceO2Group/AliceO2</text>
<text text-anchor="middle" x="1385" y="-91.5" font-family="Helvetica,sans-Serif" font-size="10.00">/macro/initSimGeomAndField.C</text>
</a>
</g>
</g>
<!-- Node2&#45;&gt;Node23 -->
<g id="edge23" class="edge"><title>Node2&#45;&gt;Node23</title>
<path fill="none" stroke="midnightblue" d="M2548.48,-192.391C2333.38,-187.075 1680.71,-168.305 1472,-132 1462.68,-130.379 1452.95,-128.09 1443.52,-125.534"/>
<polygon fill="midnightblue" stroke="midnightblue" points="2548.61,-195.895 2558.69,-192.642 2548.78,-188.897 2548.61,-195.895"/>
</g>
<!-- Node24 -->
<g id="node24" class="node"><title>Node24</title>
<g id="a_node24"><a xlink:href="../../de/dae/run__calib__tof_8C.html" target="_top" xlink:title="/home/travis/build\l/AliceO2Group/AliceO2\l/macro/run_calib_tof.C">
<polygon fill="none" stroke="black" points="1481,-84.5 1481,-125.5 1599,-125.5 1599,-84.5 1481,-84.5"/>
<text text-anchor="start" x="1489" y="-113.5" font-family="Helvetica,sans-Serif" font-size="10.00">/home/travis/build</text>
<text text-anchor="start" x="1489" y="-102.5" font-family="Helvetica,sans-Serif" font-size="10.00">/AliceO2Group/AliceO2</text>
<text text-anchor="middle" x="1540" y="-91.5" font-family="Helvetica,sans-Serif" font-size="10.00">/macro/run_calib_tof.C</text>
</a>
</g>
</g>
<!-- Node2&#45;&gt;Node24 -->
<g id="edge24" class="edge"><title>Node2&#45;&gt;Node24</title>
<path fill="none" stroke="midnightblue" d="M2548.64,-192.478C2351.07,-187.71 1788.07,-170.993 1608,-132 1600.59,-130.395 1592.92,-128.114 1585.51,-125.562"/>
<polygon fill="midnightblue" stroke="midnightblue" points="2548.81,-195.983 2558.89,-192.723 2548.97,-188.985 2548.81,-195.983"/>
</g>
<!-- Node25 -->
<g id="node25" class="node"><title>Node25</title>
<g id="a_node25"><a xlink:href="../../dd/d7c/run__match__tof_8C.html" target="_top" xlink:title="/home/travis/build\l/AliceO2Group/AliceO2\l/macro/run_match_tof.C">
<polygon fill="none" stroke="black" points="1617,-84.5 1617,-125.5 1739,-125.5 1739,-84.5 1617,-84.5"/>
<text text-anchor="start" x="1625" y="-113.5" font-family="Helvetica,sans-Serif" font-size="10.00">/home/travis/build</text>
<text text-anchor="start" x="1625" y="-102.5" font-family="Helvetica,sans-Serif" font-size="10.00">/AliceO2Group/AliceO2</text>
<text text-anchor="middle" x="1678" y="-91.5" font-family="Helvetica,sans-Serif" font-size="10.00">/macro/run_match_tof.C</text>
</a>
</g>
</g>
<!-- Node2&#45;&gt;Node25 -->
<g id="edge25" class="edge"><title>Node2&#45;&gt;Node25</title>
<path fill="none" stroke="midnightblue" d="M2548.94,-191.565C2371.2,-184.9 1901.33,-164.648 1749,-132 1741.43,-130.377 1733.57,-128.121 1725.97,-125.61"/>
<polygon fill="midnightblue" stroke="midnightblue" points="2548.83,-195.063 2558.95,-191.938 2549.09,-188.068 2548.83,-195.063"/>
</g>
<!-- Node26 -->
<g id="node26" class="node"><title>Node26</title>
<g id="a_node26"><a xlink:href="../../d9/d84/run__match__TPCITS_8C.html" target="_top" xlink:title="/home/travis/build\l/AliceO2Group/AliceO2\l/macro/run_match_TPCITS.C">
<polygon fill="none" stroke="black" points="1757.5,-84.5 1757.5,-125.5 1904.5,-125.5 1904.5,-84.5 1757.5,-84.5"/>
<text text-anchor="start" x="1765.5" y="-113.5" font-family="Helvetica,sans-Serif" font-size="10.00">/home/travis/build</text>
<text text-anchor="start" x="1765.5" y="-102.5" font-family="Helvetica,sans-Serif" font-size="10.00">/AliceO2Group/AliceO2</text>
<text text-anchor="middle" x="1831" y="-91.5" font-family="Helvetica,sans-Serif" font-size="10.00">/macro/run_match_TPCITS.C</text>
</a>
</g>
</g>
<!-- Node2&#45;&gt;Node26 -->
<g id="edge26" class="edge"><title>Node2&#45;&gt;Node26</title>
<path fill="none" stroke="midnightblue" d="M2548.63,-192.834C2421.57,-189.609 2143.44,-177.485 1914,-132 1905.41,-130.297 1896.45,-128.031 1887.73,-125.545"/>
<polygon fill="midnightblue" stroke="midnightblue" points="2548.9,-196.342 2558.99,-193.086 2549.07,-189.344 2548.9,-196.342"/>
</g>
<!-- Node27 -->
<g id="node27" class="node"><title>Node27</title>
<g id="a_node27"><a xlink:href="../../dc/d97/run__rec__ca_8C.html" target="_top" xlink:title="/home/travis/build\l/AliceO2Group/AliceO2\l/macro/run_rec_ca.C">
<polygon fill="none" stroke="black" points="1923,-84.5 1923,-125.5 2041,-125.5 2041,-84.5 1923,-84.5"/>
<text text-anchor="start" x="1931" y="-113.5" font-family="Helvetica,sans-Serif" font-size="10.00">/home/travis/build</text>
<text text-anchor="start" x="1931" y="-102.5" font-family="Helvetica,sans-Serif" font-size="10.00">/AliceO2Group/AliceO2</text>
<text text-anchor="middle" x="1982" y="-91.5" font-family="Helvetica,sans-Serif" font-size="10.00">/macro/run_rec_ca.C</text>
</a>
</g>
</g>
<!-- Node2&#45;&gt;Node27 -->
<g id="edge27" class="edge"><title>Node2&#45;&gt;Node27</title>
<path fill="none" stroke="midnightblue" d="M2548.56,-192.136C2440.54,-187.964 2226.31,-174.58 2050,-132 2042.87,-130.279 2035.49,-128.003 2028.32,-125.513"/>
<polygon fill="midnightblue" stroke="midnightblue" points="2548.56,-195.638 2558.68,-192.512 2548.82,-188.643 2548.56,-195.638"/>
</g>
<!-- Node28 -->
<g id="node28" class="node"><title>Node28</title>
<g id="a_node28"><a xlink:href="../../d9/d71/run__sim_8C.html" target="_top" xlink:title="/home/travis/build\l/AliceO2Group/AliceO2\l/macro/run_sim.C">
<polygon fill="none" stroke="black" points="2059,-84.5 2059,-125.5 2177,-125.5 2177,-84.5 2059,-84.5"/>
<text text-anchor="start" x="2067" y="-113.5" font-family="Helvetica,sans-Serif" font-size="10.00">/home/travis/build</text>
<text text-anchor="start" x="2067" y="-102.5" font-family="Helvetica,sans-Serif" font-size="10.00">/AliceO2Group/AliceO2</text>
<text text-anchor="middle" x="2118" y="-91.5" font-family="Helvetica,sans-Serif" font-size="10.00">/macro/run_sim.C</text>
</a>
</g>
</g>
<!-- Node2&#45;&gt;Node28 -->
<g id="edge28" class="edge"><title>Node2&#45;&gt;Node28</title>
<path fill="none" stroke="midnightblue" d="M2548.66,-188.834C2462.54,-181.328 2311.62,-164.595 2186,-132 2179.15,-130.222 2172.04,-127.978 2165.12,-125.557"/>
<polygon fill="midnightblue" stroke="midnightblue" points="2548.57,-192.339 2558.84,-189.704 2549.17,-185.364 2548.57,-192.339"/>
</g>
<!-- Node29 -->
<g id="node29" class="node"><title>Node29</title>
<g id="a_node29"><a xlink:href="../../db/df3/macro_2run__sim__emcal_8C.html" target="_top" xlink:title="/home/travis/build\l/AliceO2Group/AliceO2\l/macro/run_sim_emcal.C">
<polygon fill="none" stroke="black" points="2195,-84.5 2195,-125.5 2321,-125.5 2321,-84.5 2195,-84.5"/>
<text text-anchor="start" x="2203" y="-113.5" font-family="Helvetica,sans-Serif" font-size="10.00">/home/travis/build</text>
<text text-anchor="start" x="2203" y="-102.5" font-family="Helvetica,sans-Serif" font-size="10.00">/AliceO2Group/AliceO2</text>
<text text-anchor="middle" x="2258" y="-91.5" font-family="Helvetica,sans-Serif" font-size="10.00">/macro/run_sim_emcal.C</text>
</a>
</g>
</g>
<!-- Node2&#45;&gt;Node29 -->
<g id="edge29" class="edge"><title>Node2&#45;&gt;Node29</title>
<path fill="none" stroke="midnightblue" d="M2549.05,-181.858C2490.3,-170.872 2403.9,-153.192 2330,-132 2323.36,-130.095 2316.44,-127.891 2309.64,-125.588"/>
<polygon fill="midnightblue" stroke="midnightblue" points="2548.49,-185.314 2558.96,-183.697 2549.76,-178.432 2548.49,-185.314"/>
</g>
<!-- Node30 -->
<g id="node30" class="node"><title>Node30</title>
<g id="a_node30"><a xlink:href="../../d4/d5f/run__sim__mft_8C.html" target="_top" xlink:title="/home/travis/build\l/AliceO2Group/AliceO2\l/macro/run_sim_mft.C">
<polygon fill="none" stroke="black" points="2339,-84.5 2339,-125.5 2457,-125.5 2457,-84.5 2339,-84.5"/>
<text text-anchor="start" x="2347" y="-113.5" font-family="Helvetica,sans-Serif" font-size="10.00">/home/travis/build</text>
<text text-anchor="start" x="2347" y="-102.5" font-family="Helvetica,sans-Serif" font-size="10.00">/AliceO2Group/AliceO2</text>
<text text-anchor="middle" x="2398" y="-91.5" font-family="Helvetica,sans-Serif" font-size="10.00">/macro/run_sim_mft.C</text>
</a>
</g>
</g>
<!-- Node2&#45;&gt;Node30 -->
<g id="edge30" class="edge"><title>Node2&#45;&gt;Node30</title>
<path fill="none" stroke="midnightblue" d="M2549.12,-166.449C2515.98,-153.191 2477.01,-137.604 2446.95,-125.579"/>
<polygon fill="midnightblue" stroke="midnightblue" points="2548.17,-169.838 2558.75,-170.302 2550.77,-163.338 2548.17,-169.838"/>
</g>
<!-- Node31 -->
<g id="node31" class="node"><title>Node31</title>
<g id="a_node31"><a xlink:href="../../d3/dcc/run__sim__pythia8hi_8C.html" target="_top" xlink:title="/home/travis/build\l/AliceO2Group/AliceO2\l/macro/run_sim_pythia8hi.C">
<polygon fill="none" stroke="black" points="2475.5,-84.5 2475.5,-125.5 2614.5,-125.5 2614.5,-84.5 2475.5,-84.5"/>
<text text-anchor="start" x="2483.5" y="-113.5" font-family="Helvetica,sans-Serif" font-size="10.00">/home/travis/build</text>
<text text-anchor="start" x="2483.5" y="-102.5" font-family="Helvetica,sans-Serif" font-size="10.00">/AliceO2Group/AliceO2</text>
<text text-anchor="middle" x="2545" y="-91.5" font-family="Helvetica,sans-Serif" font-size="10.00">/macro/run_sim_pythia8hi.C</text>
</a>
</g>
</g>
<!-- Node2&#45;&gt;Node31 -->
<g id="edge31" class="edge"><title>Node2&#45;&gt;Node31</title>
<path fill="none" stroke="midnightblue" d="M2590.27,-160.573C2580.45,-148.739 2569.74,-135.821 2561.2,-125.525"/>
<polygon fill="midnightblue" stroke="midnightblue" points="2587.81,-163.085 2596.89,-168.547 2593.19,-158.616 2587.81,-163.085"/>
</g>
<!-- Node32 -->
<g id="node32" class="node"><title>Node32</title>
<g id="a_node32"><a xlink:href="../../dc/d6a/run__sim__tof_8C.html" target="_top" xlink:title="/home/travis/build\l/AliceO2Group/AliceO2\l/macro/run_sim_tof.C">
<polygon fill="none" stroke="black" points="2633,-84.5 2633,-125.5 2751,-125.5 2751,-84.5 2633,-84.5"/>
<text text-anchor="start" x="2641" y="-113.5" font-family="Helvetica,sans-Serif" font-size="10.00">/home/travis/build</text>
<text text-anchor="start" x="2641" y="-102.5" font-family="Helvetica,sans-Serif" font-size="10.00">/AliceO2Group/AliceO2</text>
<text text-anchor="middle" x="2692" y="-91.5" font-family="Helvetica,sans-Serif" font-size="10.00">/macro/run_sim_tof.C</text>
</a>
</g>
</g>
<!-- Node2&#45;&gt;Node32 -->
<g id="edge32" class="edge"><title>Node2&#45;&gt;Node32</title>
<path fill="none" stroke="midnightblue" d="M2646.11,-160.573C2656.06,-148.739 2666.92,-135.821 2675.58,-125.525"/>
<polygon fill="midnightblue" stroke="midnightblue" points="2643.16,-158.64 2639.4,-168.547 2648.52,-163.146 2643.16,-158.64"/>
</g>
<!-- Node33 -->
<g id="node33" class="node"><title>Node33</title>
<g id="a_node33"><a xlink:href="../../d7/d08/run__sim__tpc_8C.html" target="_top" xlink:title="/home/travis/build\l/AliceO2Group/AliceO2\l/macro/run_sim_tpc.C">
<polygon fill="none" stroke="black" points="2769,-84.5 2769,-125.5 2887,-125.5 2887,-84.5 2769,-84.5"/>
<text text-anchor="start" x="2777" y="-113.5" font-family="Helvetica,sans-Serif" font-size="10.00">/home/travis/build</text>
<text text-anchor="start" x="2777" y="-102.5" font-family="Helvetica,sans-Serif" font-size="10.00">/AliceO2Group/AliceO2</text>
<text text-anchor="middle" x="2828" y="-91.5" font-family="Helvetica,sans-Serif" font-size="10.00">/macro/run_sim_tpc.C</text>
</a>
</g>
</g>
<!-- Node2&#45;&gt;Node33 -->
<g id="edge33" class="edge"><title>Node2&#45;&gt;Node33</title>
<path fill="none" stroke="midnightblue" d="M2686.52,-165.287C2717.57,-152.276 2753.47,-137.23 2781.35,-125.551"/>
<polygon fill="midnightblue" stroke="midnightblue" points="2684.93,-162.16 2677.06,-169.253 2687.63,-168.616 2684.93,-162.16"/>
</g>
<!-- Node35 -->
<g id="node35" class="node"><title>Node35</title>
<g id="a_node35"><a xlink:href="../../da/d77/run__test__vert__ca__its_8C.html" target="_top" xlink:title="/home/travis/build\l/AliceO2Group/AliceO2\l/macro/run_test_vert_ca_its.C">
<polygon fill="none" stroke="black" points="2905.5,-84.5 2905.5,-125.5 3054.5,-125.5 3054.5,-84.5 2905.5,-84.5"/>
<text text-anchor="start" x="2913.5" y="-113.5" font-family="Helvetica,sans-Serif" font-size="10.00">/home/travis/build</text>
<text text-anchor="start" x="2913.5" y="-102.5" font-family="Helvetica,sans-Serif" font-size="10.00">/AliceO2Group/AliceO2</text>
<text text-anchor="middle" x="2980" y="-91.5" font-family="Helvetica,sans-Serif" font-size="10.00">/macro/run_test_vert_ca_its.C</text>
</a>
</g>
</g>
<!-- Node2&#45;&gt;Node35 -->
<g id="edge35" class="edge"><title>Node2&#45;&gt;Node35</title>
<path fill="none" stroke="midnightblue" d="M2686.7,-168.082C2686.8,-168.055 2686.9,-168.027 2687,-168 2777.96,-143.271 2804.34,-153.981 2896,-132 2903.87,-130.113 2912.08,-127.893 2920.15,-125.559"/>
<polygon fill="midnightblue" stroke="midnightblue" points="2685.84,-164.687 2677.23,-170.865 2687.81,-171.403 2685.84,-164.687"/>
</g>
<!-- Node36 -->
<g id="node36" class="node"><title>Node36</title>
<g id="a_node36"><a xlink:href="../../d6/db2/run__trac__ca__its_8C.html" target="_top" xlink:title="/home/travis/build\l/AliceO2Group/AliceO2\l/macro/run_trac_ca_its.C">
<polygon fill="none" stroke="black" points="3072.5,-84.5 3072.5,-125.5 3199.5,-125.5 3199.5,-84.5 3072.5,-84.5"/>
<text text-anchor="start" x="3080.5" y="-113.5" font-family="Helvetica,sans-Serif" font-size="10.00">/home/travis/build</text>
<text text-anchor="start" x="3080.5" y="-102.5" font-family="Helvetica,sans-Serif" font-size="10.00">/AliceO2Group/AliceO2</text>
<text text-anchor="middle" x="3136" y="-91.5" font-family="Helvetica,sans-Serif" font-size="10.00">/macro/run_trac_ca_its.C</text>
</a>
</g>
</g>
<!-- Node2&#45;&gt;Node36 -->
<g id="edge36" class="edge"><title>Node2&#45;&gt;Node36</title>
<path fill="none" stroke="midnightblue" d="M2686.7,-168.071C2686.8,-168.047 2686.9,-168.024 2687,-168 2850.53,-130.071 2899.13,-168.44 3063,-132 3070.62,-130.306 3078.53,-128.045 3086.21,-125.561"/>
<polygon fill="midnightblue" stroke="midnightblue" points="2685.94,-164.65 2677.16,-170.571 2687.72,-171.421 2685.94,-164.65"/>
</g>
<!-- Node37 -->
<g id="node37" class="node"><title>Node37</title>
<g id="a_node37"><a xlink:href="../../dd/d4e/run__trac__its_8C.html" target="_top" xlink:title="/home/travis/build\l/AliceO2Group/AliceO2\l/macro/run_trac_its.C">
<polygon fill="none" stroke="black" points="3218,-84.5 3218,-125.5 3336,-125.5 3336,-84.5 3218,-84.5"/>
<text text-anchor="start" x="3226" y="-113.5" font-family="Helvetica,sans-Serif" font-size="10.00">/home/travis/build</text>
<text text-anchor="start" x="3226" y="-102.5" font-family="Helvetica,sans-Serif" font-size="10.00">/AliceO2Group/AliceO2</text>
<text text-anchor="middle" x="3277" y="-91.5" font-family="Helvetica,sans-Serif" font-size="10.00">/macro/run_trac_its.C</text>
</a>
</g>
</g>
<!-- Node2&#45;&gt;Node37 -->
<g id="edge37" class="edge"><title>Node2&#45;&gt;Node37</title>
<path fill="none" stroke="midnightblue" d="M2686.69,-168.067C2686.8,-168.044 2686.9,-168.022 2687,-168 2913.78,-118.555 2981.22,-181.445 3208,-132 3215.5,-130.364 3223.28,-128.066 3230.79,-125.507"/>
<polygon fill="midnightblue" stroke="midnightblue" points="2685.98,-164.637 2677.13,-170.467 2687.69,-171.427 2685.98,-164.637"/>
</g>
<!-- Node38 -->
<g id="node38" class="node"><title>Node38</title>
<g id="a_node38"><a xlink:href="../../d6/d3f/run__trac__mft_8C.html" target="_top" xlink:title="/home/travis/build\l/AliceO2Group/AliceO2\l/macro/run_trac_mft.C">
<polygon fill="none" stroke="black" points="3354,-84.5 3354,-125.5 3472,-125.5 3472,-84.5 3354,-84.5"/>
<text text-anchor="start" x="3362" y="-113.5" font-family="Helvetica,sans-Serif" font-size="10.00">/home/travis/build</text>
<text text-anchor="start" x="3362" y="-102.5" font-family="Helvetica,sans-Serif" font-size="10.00">/AliceO2Group/AliceO2</text>
<text text-anchor="middle" x="3413" y="-91.5" font-family="Helvetica,sans-Serif" font-size="10.00">/macro/run_trac_mft.C</text>
</a>
</g>
</g>
<!-- Node2&#45;&gt;Node38 -->
<g id="edge38" class="edge"><title>Node2&#45;&gt;Node38</title>
<path fill="none" stroke="midnightblue" d="M2686.69,-168.065C2686.8,-168.043 2686.9,-168.021 2687,-168 2973.6,-107.66 3058.55,-193.034 3345,-132 3352.42,-130.42 3360.09,-128.152 3367.5,-125.606"/>
<polygon fill="midnightblue" stroke="midnightblue" points="2686,-164.631 2677.12,-170.411 2687.67,-171.43 2686,-164.631"/>
</g>
<!-- Node39 -->
<g id="node39" class="node"><title>Node39</title>
<g id="a_node39"><a xlink:href="../../d4/da9/run__vert__ca__its_8C.html" target="_top" xlink:title="/home/travis/build\l/AliceO2Group/AliceO2\l/macro/run_vert_ca_its.C">
<polygon fill="none" stroke="black" points="3490.5,-84.5 3490.5,-125.5 3617.5,-125.5 3617.5,-84.5 3490.5,-84.5"/>
<text text-anchor="start" x="3498.5" y="-113.5" font-family="Helvetica,sans-Serif" font-size="10.00">/home/travis/build</text>
<text text-anchor="start" x="3498.5" y="-102.5" font-family="Helvetica,sans-Serif" font-size="10.00">/AliceO2Group/AliceO2</text>
<text text-anchor="middle" x="3554" y="-91.5" font-family="Helvetica,sans-Serif" font-size="10.00">/macro/run_vert_ca_its.C</text>
</a>
</g>
</g>
<!-- Node2&#45;&gt;Node39 -->
<g id="edge39" class="edge"><title>Node2&#45;&gt;Node39</title>
<path fill="none" stroke="midnightblue" d="M2686.69,-168.063C2686.8,-168.042 2686.9,-168.021 2687,-168 3033.01,-96.8391 3134.36,-200.009 3481,-132 3489.05,-130.42 3497.41,-128.117 3505.48,-125.525"/>
<polygon fill="midnightblue" stroke="midnightblue" points="2686.02,-164.627 2677.11,-170.374 2687.66,-171.431 2686.02,-164.627"/>
</g>
<!-- Node3&#45;&gt;Node4 -->
<g id="edge3" class="edge"><title>Node3&#45;&gt;Node4</title>
<path fill="none" stroke="midnightblue" d="M3714.73,-69.9541C3709.57,-60.3259 3704.12,-50.1706 3699.57,-41.6965"/>
<polygon fill="midnightblue" stroke="midnightblue" points="3711.75,-71.795 3719.56,-78.9517 3717.92,-68.4852 3711.75,-71.795"/>
</g>
<!-- Node34 -->
<g id="node34" class="node"><title>Node34</title>
<g id="a_node34"><a xlink:href="../../d3/d56/runTPC_8cxx.html" target="_top" xlink:title="/home/travis/build\l/AliceO2Group/AliceO2\l/run/runTPC.cxx">
<polygon fill="none" stroke="black" points="2769,-0.5 2769,-41.5 2887,-41.5 2887,-0.5 2769,-0.5"/>
<text text-anchor="start" x="2777" y="-29.5" font-family="Helvetica,sans-Serif" font-size="10.00">/home/travis/build</text>
<text text-anchor="start" x="2777" y="-18.5" font-family="Helvetica,sans-Serif" font-size="10.00">/AliceO2Group/AliceO2</text>
<text text-anchor="middle" x="2828" y="-7.5" font-family="Helvetica,sans-Serif" font-size="10.00">/run/runTPC.cxx</text>
</a>
</g>
</g>
<!-- Node33&#45;&gt;Node34 -->
<g id="edge34" class="edge"><title>Node33&#45;&gt;Node34</title>
<path fill="none" stroke="midnightblue" d="M2828,-73.881C2828,-63.1328 2828,-51.309 2828,-41.6671"/>
<polygon fill="midnightblue" stroke="midnightblue" points="2824.5,-74.1501 2828,-84.1501 2831.5,-74.1501 2824.5,-74.1501"/>
</g>
</g>
</svg>
