<?xml version="1.0" encoding="UTF-8" standalone="no"?>
<!DOCTYPE svg PUBLIC "-//W3C//DTD SVG 1.1//EN"
 "http://www.w3.org/Graphics/SVG/1.1/DTD/svg11.dtd">
<!-- Generated by graphviz version 2.36.0 (20140111.2315)
 -->
<!-- Title: o2::header::DataIdentifier Pages: 1 -->
<svg width="637pt" height="782pt"
 viewBox="0.00 0.00 636.78 782.00" xmlns="http://www.w3.org/2000/svg" xmlns:xlink="http://www.w3.org/1999/xlink">
<g id="graph0" class="graph" transform="scale(1 1) rotate(0) translate(4 778)">
<title>o2::header::DataIdentifier</title>
<!-- Node1 -->
<g id="node1" class="node"><title>Node1</title>
<polygon fill="#bfbfbf" stroke="black" points="185.275,-0.5 185.275,-101.5 312.275,-101.5 312.275,-0.5 185.275,-0.5"/>
<text text-anchor="middle" x="248.775" y="-89.5" font-family="Helvetica,sans-Serif" font-size="10.00">o2::header::DataIdentifier</text>
<polyline fill="none" stroke="black" points="185.275,-82.5 312.275,-82.5 "/>
<text text-anchor="middle" x="248.775" y="-70.5" font-family="Helvetica,sans-Serif" font-size="10.00"> </text>
<polyline fill="none" stroke="black" points="185.275,-63.5 312.275,-63.5 "/>
<text text-anchor="start" x="193.275" y="-51.5" font-family="Helvetica,sans-Serif" font-size="10.00">+ DataIdentifier()</text>
<text text-anchor="start" x="193.275" y="-40.5" font-family="Helvetica,sans-Serif" font-size="10.00">+ DataIdentifier()</text>
<text text-anchor="start" x="193.275" y="-29.5" font-family="Helvetica,sans-Serif" font-size="10.00">+ DataIdentifier()</text>
<text text-anchor="start" x="193.275" y="-18.5" font-family="Helvetica,sans-Serif" font-size="10.00">+ operator==()</text>
<text text-anchor="start" x="193.275" y="-7.5" font-family="Helvetica,sans-Serif" font-size="10.00">+ print()</text>
</g>
<!-- Node2 -->
<g id="node2" class="node"><title>Node2</title>
<g id="a_node2"><a xlink:href="../../d9/db3/structo2_1_1header_1_1Descriptor.html" target="_top" xlink:title="{o2::header::Descriptor\l\&lt; gSizeDataOriginString,\l printDataOrigin \&gt;\n||+ Descriptor()\l+ Descriptor()\l+ Descriptor()\l+ Descriptor()\l+ operator=()\l+ operator ItgType()\l+ runtimeInit()\l+ operator==()\l+ operator==()\l+ operator\&lt;()\l+ operator!=()\l+ operator!=()\l+ as()\l+ print()\l}">
<polygon fill="none" stroke="black" points="50.2753,-151 50.2753,-373 175.275,-373 175.275,-151 50.2753,-151"/>
<text text-anchor="start" x="58.2753" y="-361" font-family="Helvetica,sans-Serif" font-size="10.00">o2::header::Descriptor</text>
<text text-anchor="start" x="58.2753" y="-350" font-family="Helvetica,sans-Serif" font-size="10.00">&lt; gSizeDataOriginString,</text>
<text text-anchor="middle" x="112.775" y="-339" font-family="Helvetica,sans-Serif" font-size="10.00"> printDataOrigin &gt;</text>
<polyline fill="none" stroke="black" points="50.2753,-332 175.275,-332 "/>
<text text-anchor="middle" x="112.775" y="-320" font-family="Helvetica,sans-Serif" font-size="10.00"> </text>
<polyline fill="none" stroke="black" points="50.2753,-313 175.275,-313 "/>
<text text-anchor="start" x="58.2753" y="-301" font-family="Helvetica,sans-Serif" font-size="10.00">+ Descriptor()</text>
<text text-anchor="start" x="58.2753" y="-290" font-family="Helvetica,sans-Serif" font-size="10.00">+ Descriptor()</text>
<text text-anchor="start" x="58.2753" y="-279" font-family="Helvetica,sans-Serif" font-size="10.00">+ Descriptor()</text>
<text text-anchor="start" x="58.2753" y="-268" font-family="Helvetica,sans-Serif" font-size="10.00">+ Descriptor()</text>
<text text-anchor="start" x="58.2753" y="-257" font-family="Helvetica,sans-Serif" font-size="10.00">+ operator=()</text>
<text text-anchor="start" x="58.2753" y="-246" font-family="Helvetica,sans-Serif" font-size="10.00">+ operator ItgType()</text>
<text text-anchor="start" x="58.2753" y="-235" font-family="Helvetica,sans-Serif" font-size="10.00">+ runtimeInit()</text>
<text text-anchor="start" x="58.2753" y="-224" font-family="Helvetica,sans-Serif" font-size="10.00">+ operator==()</text>
<text text-anchor="start" x="58.2753" y="-213" font-family="Helvetica,sans-Serif" font-size="10.00">+ operator==()</text>
<text text-anchor="start" x="58.2753" y="-202" font-family="Helvetica,sans-Serif" font-size="10.00">+ operator&lt;()</text>
<text text-anchor="start" x="58.2753" y="-191" font-family="Helvetica,sans-Serif" font-size="10.00">+ operator!=()</text>
<text text-anchor="start" x="58.2753" y="-180" font-family="Helvetica,sans-Serif" font-size="10.00">+ operator!=()</text>
<text text-anchor="start" x="58.2753" y="-169" font-family="Helvetica,sans-Serif" font-size="10.00">+ as()</text>
<text text-anchor="start" x="58.2753" y="-158" font-family="Helvetica,sans-Serif" font-size="10.00">+ print()</text>
</a>
</g>
</g>
<!-- Node2&#45;&gt;Node1 -->
<g id="edge1" class="edge"><title>Node2&#45;&gt;Node1</title>
<path fill="none" stroke="#404040" d="M175.401,-164.758C187.179,-146.66 199.172,-128.228 209.957,-111.654"/>
<polygon fill="none" stroke="#404040" points="209.958,-111.652 209.878,-104.442 216.503,-101.594 216.584,-108.805 209.958,-111.652"/>
<text text-anchor="middle" x="228.775" y="-123.5" font-family="Helvetica,sans-Serif" font-size="10.00"> +dataOrigin</text>
</g>
<!-- Node3 -->
<g id="node3" class="node"><title>Node3</title>
<polygon fill="none" stroke="#bfbfbf" points="61.7753,-715.5 61.7753,-772.5 99.7753,-772.5 99.7753,-715.5 61.7753,-715.5"/>
<text text-anchor="middle" x="80.7753" y="-760.5" font-family="Helvetica,sans-Serif" font-size="10.00">Type</text>
<polyline fill="none" stroke="#bfbfbf" points="61.7753,-753.5 99.7753,-753.5 "/>
<text text-anchor="middle" x="80.7753" y="-741.5" font-family="Helvetica,sans-Serif" font-size="10.00"> </text>
<polyline fill="none" stroke="#bfbfbf" points="61.7753,-734.5 99.7753,-734.5 "/>
<text text-anchor="middle" x="80.7753" y="-722.5" font-family="Helvetica,sans-Serif" font-size="10.00"> </text>
</g>
<!-- Node3&#45;&gt;Node2 -->
<g id="edge2" class="edge"><title>Node3&#45;&gt;Node2</title>
<path fill="none" stroke="#404040" d="M61.7085,-720.793C46.753,-701.815 27.1187,-673.042 18.7753,-644 -7.24125,-553.441 -4.88247,-523.204 18.7753,-432 24.518,-409.861 33.8611,-387.537 44.4816,-366.694"/>
<polygon fill="none" stroke="#404040" points="44.5527,-366.559 43.8061,-359.386 50.1395,-355.938 50.8862,-363.111 44.5527,-366.559"/>
<text text-anchor="middle" x="28.7753" y="-535.5" font-family="Helvetica,sans-Serif" font-size="10.00"> +itg</text>
</g>
<!-- Node7 -->
<g id="node7" class="node"><title>Node7</title>
<g id="a_node7"><a xlink:href="../../d9/db3/structo2_1_1header_1_1Descriptor.html" target="_top" xlink:title="{o2::header::Descriptor\l\&lt; N, PrinterPolicy \&gt;\n||+ Descriptor()\l+ Descriptor()\l+ Descriptor()\l+ operator=()\l+ operator ItgType()\l+ Descriptor()\l+ runtimeInit()\l+ operator==()\l+ operator\&lt;()\l+ operator!=()\l+ operator==()\l+ operator!=()\l+ as()\l+ print()\l}">
<polygon fill="none" stroke="black" points="213.275,-432.5 213.275,-643.5 326.275,-643.5 326.275,-432.5 213.275,-432.5"/>
<text text-anchor="start" x="221.275" y="-631.5" font-family="Helvetica,sans-Serif" font-size="10.00">o2::header::Descriptor</text>
<text text-anchor="middle" x="269.775" y="-620.5" font-family="Helvetica,sans-Serif" font-size="10.00">&lt; N, PrinterPolicy &gt;</text>
<polyline fill="none" stroke="black" points="213.275,-613.5 326.275,-613.5 "/>
<text text-anchor="middle" x="269.775" y="-601.5" font-family="Helvetica,sans-Serif" font-size="10.00"> </text>
<polyline fill="none" stroke="black" points="213.275,-594.5 326.275,-594.5 "/>
<text text-anchor="start" x="221.275" y="-582.5" font-family="Helvetica,sans-Serif" font-size="10.00">+ Descriptor()</text>
<text text-anchor="start" x="221.275" y="-571.5" font-family="Helvetica,sans-Serif" font-size="10.00">+ Descriptor()</text>
<text text-anchor="start" x="221.275" y="-560.5" font-family="Helvetica,sans-Serif" font-size="10.00">+ Descriptor()</text>
<text text-anchor="start" x="221.275" y="-549.5" font-family="Helvetica,sans-Serif" font-size="10.00">+ operator=()</text>
<text text-anchor="start" x="221.275" y="-538.5" font-family="Helvetica,sans-Serif" font-size="10.00">+ operator ItgType()</text>
<text text-anchor="start" x="221.275" y="-527.5" font-family="Helvetica,sans-Serif" font-size="10.00">+ Descriptor()</text>
<text text-anchor="start" x="221.275" y="-516.5" font-family="Helvetica,sans-Serif" font-size="10.00">+ runtimeInit()</text>
<text text-anchor="start" x="221.275" y="-505.5" font-family="Helvetica,sans-Serif" font-size="10.00">+ operator==()</text>
<text text-anchor="start" x="221.275" y="-494.5" font-family="Helvetica,sans-Serif" font-size="10.00">+ operator&lt;()</text>
<text text-anchor="start" x="221.275" y="-483.5" font-family="Helvetica,sans-Serif" font-size="10.00">+ operator!=()</text>
<text text-anchor="start" x="221.275" y="-472.5" font-family="Helvetica,sans-Serif" font-size="10.00">+ operator==()</text>
<text text-anchor="start" x="221.275" y="-461.5" font-family="Helvetica,sans-Serif" font-size="10.00">+ operator!=()</text>
<text text-anchor="start" x="221.275" y="-450.5" font-family="Helvetica,sans-Serif" font-size="10.00">+ as()</text>
<text text-anchor="start" x="221.275" y="-439.5" font-family="Helvetica,sans-Serif" font-size="10.00">+ print()</text>
</a>
</g>
</g>
<!-- Node3&#45;&gt;Node7 -->
<g id="edge7" class="edge"><title>Node3&#45;&gt;Node7</title>
<path fill="none" stroke="#404040" d="M100.017,-723.571C117.46,-706.437 144.269,-681.267 169.775,-662 181.88,-652.857 187.841,-654.515 198.775,-644 200.961,-641.898 203.117,-639.718 205.241,-637.474"/>
<polygon fill="none" stroke="#404040" points="205.247,-637.467 206.278,-630.33 213.263,-628.537 212.232,-635.674 205.247,-637.467"/>
<text text-anchor="middle" x="179.775" y="-676.5" font-family="Helvetica,sans-Serif" font-size="10.00"> +itg</text>
</g>
<!-- Node8 -->
<g id="node8" class="node"><title>Node8</title>
<g id="a_node8"><a xlink:href="../../d9/db3/structo2_1_1header_1_1Descriptor.html" target="_top" xlink:title="{o2::header::Descriptor\l\&lt; gSizeDataDescriptionString,\l printDataDescription \&gt;\n||+ Descriptor()\l+ Descriptor()\l+ Descriptor()\l+ Descriptor()\l+ operator=()\l+ operator ItgType()\l+ runtimeInit()\l+ operator==()\l+ operator==()\l+ operator\&lt;()\l+ operator!=()\l+ operator!=()\l+ as()\l+ print()\l}">
<polygon fill="none" stroke="black" points="252.275,-151 252.275,-373 401.275,-373 401.275,-151 252.275,-151"/>
<text text-anchor="start" x="260.275" y="-361" font-family="Helvetica,sans-Serif" font-size="10.00">o2::header::Descriptor</text>
<text text-anchor="start" x="260.275" y="-350" font-family="Helvetica,sans-Serif" font-size="10.00">&lt; gSizeDataDescriptionString,</text>
<text text-anchor="middle" x="326.775" y="-339" font-family="Helvetica,sans-Serif" font-size="10.00"> printDataDescription &gt;</text>
<polyline fill="none" stroke="black" points="252.275,-332 401.275,-332 "/>
<text text-anchor="middle" x="326.775" y="-320" font-family="Helvetica,sans-Serif" font-size="10.00"> </text>
<polyline fill="none" stroke="black" points="252.275,-313 401.275,-313 "/>
<text text-anchor="start" x="260.275" y="-301" font-family="Helvetica,sans-Serif" font-size="10.00">+ Descriptor()</text>
<text text-anchor="start" x="260.275" y="-290" font-family="Helvetica,sans-Serif" font-size="10.00">+ Descriptor()</text>
<text text-anchor="start" x="260.275" y="-279" font-family="Helvetica,sans-Serif" font-size="10.00">+ Descriptor()</text>
<text text-anchor="start" x="260.275" y="-268" font-family="Helvetica,sans-Serif" font-size="10.00">+ Descriptor()</text>
<text text-anchor="start" x="260.275" y="-257" font-family="Helvetica,sans-Serif" font-size="10.00">+ operator=()</text>
<text text-anchor="start" x="260.275" y="-246" font-family="Helvetica,sans-Serif" font-size="10.00">+ operator ItgType()</text>
<text text-anchor="start" x="260.275" y="-235" font-family="Helvetica,sans-Serif" font-size="10.00">+ runtimeInit()</text>
<text text-anchor="start" x="260.275" y="-224" font-family="Helvetica,sans-Serif" font-size="10.00">+ operator==()</text>
<text text-anchor="start" x="260.275" y="-213" font-family="Helvetica,sans-Serif" font-size="10.00">+ operator==()</text>
<text text-anchor="start" x="260.275" y="-202" font-family="Helvetica,sans-Serif" font-size="10.00">+ operator&lt;()</text>
<text text-anchor="start" x="260.275" y="-191" font-family="Helvetica,sans-Serif" font-size="10.00">+ operator!=()</text>
<text text-anchor="start" x="260.275" y="-180" font-family="Helvetica,sans-Serif" font-size="10.00">+ operator!=()</text>
<text text-anchor="start" x="260.275" y="-169" font-family="Helvetica,sans-Serif" font-size="10.00">+ as()</text>
<text text-anchor="start" x="260.275" y="-158" font-family="Helvetica,sans-Serif" font-size="10.00">+ print()</text>
</a>
</g>
</g>
<!-- Node3&#45;&gt;Node8 -->
<g id="edge12" class="edge"><title>Node3&#45;&gt;Node8</title>
<path fill="none" stroke="#404040" d="M85.1032,-715.403C96.843,-641.233 129.06,-442.466 138.775,-432 160.044,-409.087 180.608,-431.108 206.775,-414 220.42,-405.079 233.215,-394.091 244.989,-382.143"/>
<polygon fill="none" stroke="#404040" points="245.125,-382 246.35,-374.893 253.38,-373.29 252.156,-380.397 245.125,-382"/>
<text text-anchor="middle" x="148.775" y="-535.5" font-family="Helvetica,sans-Serif" font-size="10.00"> +itg</text>
</g>
<!-- Node4 -->
<g id="node4" class="node"><title>Node4</title>
<polygon fill="none" stroke="#bfbfbf" points="156.275,-715.5 156.275,-772.5 191.275,-772.5 191.275,-715.5 156.275,-715.5"/>
<text text-anchor="middle" x="173.775" y="-760.5" font-family="Helvetica,sans-Serif" font-size="10.00">char</text>
<polyline fill="none" stroke="#bfbfbf" points="156.275,-753.5 191.275,-753.5 "/>
<text text-anchor="middle" x="173.775" y="-741.5" font-family="Helvetica,sans-Serif" font-size="10.00"> </text>
<polyline fill="none" stroke="#bfbfbf" points="156.275,-734.5 191.275,-734.5 "/>
<text text-anchor="middle" x="173.775" y="-722.5" font-family="Helvetica,sans-Serif" font-size="10.00"> </text>
</g>
<!-- Node4&#45;&gt;Node2 -->
<g id="edge3" class="edge"><title>Node4&#45;&gt;Node2</title>
<path fill="none" stroke="#404040" d="M166.741,-715.378C160.915,-697.783 150.917,-675.784 134.775,-662 113.603,-643.921 91.3943,-666.336 74.7753,-644 45.1114,-604.131 63.0591,-480.872 83.1227,-385.229"/>
<polygon fill="none" stroke="#404040" points="83.1395,-385.15 80.4781,-378.448 85.641,-373.414 88.3024,-380.116 83.1395,-385.15"/>
<text text-anchor="middle" x="85.2753" y="-535.5" font-family="Helvetica,sans-Serif" font-size="10.00"> +str</text>
</g>
<!-- Node4&#45;&gt;Node7 -->
<g id="edge8" class="edge"><title>Node4&#45;&gt;Node7</title>
<path fill="none" stroke="#404040" d="M184.795,-715.423C191.232,-699.66 199.663,-679.588 207.775,-662 208.894,-659.574 210.034,-657.126 211.189,-654.661"/>
<polygon fill="none" stroke="#404040" points="211.21,-654.617 210.166,-647.482 216.351,-643.774 217.395,-650.909 211.21,-654.617"/>
<text text-anchor="middle" x="218.275" y="-676.5" font-family="Helvetica,sans-Serif" font-size="10.00"> +str</text>
</g>
<!-- Node4&#45;&gt;Node8 -->
<g id="edge13" class="edge"><title>Node4&#45;&gt;Node8</title>
<path fill="none" stroke="#404040" d="M170.703,-715.215C163.815,-647.531 150.172,-476.414 182.775,-432 197.248,-412.285 215.734,-429.348 234.775,-414 245.885,-405.045 255.994,-394.363 265.098,-382.877"/>
<polygon fill="none" stroke="#404040" points="265.279,-382.637 265.702,-375.439 272.51,-373.06 272.087,-380.259 265.279,-382.637"/>
<text text-anchor="middle" x="193.275" y="-535.5" font-family="Helvetica,sans-Serif" font-size="10.00"> +str</text>
</g>
<!-- Node5 -->
<g id="node5" class="node"><title>Node5</title>
<g id="a_node5"><a xlink:href="../../d1/da0/classint.html" target="_top" xlink:title="{int\n||}">
<polygon fill="none" stroke="black" points="356.275,-715.5 356.275,-772.5 385.275,-772.5 385.275,-715.5 356.275,-715.5"/>
<text text-anchor="middle" x="370.775" y="-760.5" font-family="Helvetica,sans-Serif" font-size="10.00">int</text>
<polyline fill="none" stroke="black" points="356.275,-753.5 385.275,-753.5 "/>
<text text-anchor="middle" x="370.775" y="-741.5" font-family="Helvetica,sans-Serif" font-size="10.00"> </text>
<polyline fill="none" stroke="black" points="356.275,-734.5 385.275,-734.5 "/>
<text text-anchor="middle" x="370.775" y="-722.5" font-family="Helvetica,sans-Serif" font-size="10.00"> </text>
</a>
</g>
</g>
<!-- Node5&#45;&gt;Node2 -->
<g id="edge4" class="edge"><title>Node5&#45;&gt;Node2</title>
<path fill="none" stroke="#404040" d="M370.571,-715.031C369.607,-647.719 364.235,-478.805 334.775,-432 321.901,-411.546 262.238,-388.328 242.775,-374 223.352,-359.701 203.16,-343.294 184.644,-327.559"/>
<polygon fill="none" stroke="#404040" points="184.529,-327.46 177.37,-326.595 175.415,-319.654 182.574,-320.519 184.529,-327.46"/>
<text text-anchor="middle" x="394.275" y="-546.5" font-family="Helvetica,sans-Serif" font-size="10.00"> +arraySize</text>
<text text-anchor="middle" x="394.275" y="-535.5" font-family="Helvetica,sans-Serif" font-size="10.00">+size</text>
<text text-anchor="middle" x="394.275" y="-524.5" font-family="Helvetica,sans-Serif" font-size="10.00">+bitcount</text>
</g>
<!-- Node5&#45;&gt;Node7 -->
<g id="edge9" class="edge"><title>Node5&#45;&gt;Node7</title>
<path fill="none" stroke="#404040" d="M356.271,-742.233C330.135,-739.977 275.637,-731.08 251.775,-696 243.578,-683.949 239.558,-670.138 238.334,-655.817"/>
<polygon fill="none" stroke="#404040" points="238.33,-655.689 234.134,-649.824 237.934,-643.695 242.13,-649.56 238.33,-655.689"/>
<text text-anchor="middle" x="277.275" y="-687.5" font-family="Helvetica,sans-Serif" font-size="10.00"> +arraySize</text>
<text text-anchor="middle" x="277.275" y="-676.5" font-family="Helvetica,sans-Serif" font-size="10.00">+size</text>
<text text-anchor="middle" x="277.275" y="-665.5" font-family="Helvetica,sans-Serif" font-size="10.00">+bitcount</text>
</g>
<!-- Node5&#45;&gt;Node8 -->
<g id="edge14" class="edge"><title>Node5&#45;&gt;Node8</title>
<path fill="none" stroke="#404040" d="M385.479,-735.688C411.324,-721.899 464.11,-689.315 484.775,-644 523.87,-558.271 519.131,-519.735 484.775,-432 469.379,-392.683 439.985,-357.158 410.684,-328.941"/>
<polygon fill="none" stroke="#404040" points="410.359,-328.636 403.247,-327.445 401.61,-320.423 408.722,-321.613 410.359,-328.636"/>
<text text-anchor="middle" x="537.275" y="-546.5" font-family="Helvetica,sans-Serif" font-size="10.00"> +arraySize</text>
<text text-anchor="middle" x="537.275" y="-535.5" font-family="Helvetica,sans-Serif" font-size="10.00">+size</text>
<text text-anchor="middle" x="537.275" y="-524.5" font-family="Helvetica,sans-Serif" font-size="10.00">+bitcount</text>
</g>
<!-- Node6 -->
<g id="node6" class="node"><title>Node6</title>
<polygon fill="none" stroke="#bfbfbf" points="435.275,-715 435.275,-773 464.275,-773 464.275,-715 435.275,-715"/>
<polyline fill="none" stroke="#bfbfbf" points="435.275,-753 464.275,-753 "/>
<text text-anchor="middle" x="449.775" y="-741" font-family="Helvetica,sans-Serif" font-size="10.00"> </text>
<polyline fill="none" stroke="#bfbfbf" points="435.275,-734 464.275,-734 "/>
<text text-anchor="middle" x="449.775" y="-722" font-family="Helvetica,sans-Serif" font-size="10.00"> </text>
</g>
<!-- Node6&#45;&gt;Node2 -->
<g id="edge5" class="edge"><title>Node6&#45;&gt;Node2</title>
<path fill="none" stroke="#404040" d="M449.285,-714.988C447.762,-642.545 442.056,-453.171 423.775,-432 400.806,-405.4 379.449,-426.945 346.775,-414 328.632,-406.812 326.784,-399.519 308.775,-392 280.718,-380.285 269.652,-388.215 242.775,-374 222.446,-363.248 202.512,-348.835 184.597,-333.961"/>
<polygon fill="none" stroke="#404040" points="184.563,-333.933 177.401,-333.093 175.422,-326.159 182.584,-326.998 184.563,-333.933"/>
<text text-anchor="middle" x="463.275" y="-535.5" font-family="Helvetica,sans-Serif" font-size="10.00"> +@14</text>
</g>
<!-- Node6&#45;&gt;Node7 -->
<g id="edge10" class="edge"><title>Node6&#45;&gt;Node7</title>
<path fill="none" stroke="#404040" d="M434.993,-731.491C413.018,-713.979 371.076,-678.969 340.775,-644 338.479,-641.349 336.193,-638.622 333.925,-635.838"/>
<polygon fill="none" stroke="#404040" points="333.735,-635.596 326.877,-633.367 326.297,-626.179 333.155,-628.408 333.735,-635.596"/>
<text text-anchor="middle" x="408.275" y="-676.5" font-family="Helvetica,sans-Serif" font-size="10.00"> +@14</text>
</g>
<!-- Node6&#45;&gt;Node8 -->
<g id="edge15" class="edge"><title>Node6&#45;&gt;Node8</title>
<path fill="none" stroke="#404040" d="M464.438,-736.011C490.788,-722.521 545.392,-690.105 566.775,-644 606.419,-558.524 610.171,-515.634 566.775,-432 534.429,-369.662 467.357,-325.465 412.321,-297.943"/>
<polygon fill="none" stroke="#404040" points="412.274,-297.92 405.128,-298.885 401.488,-292.66 408.634,-291.695 412.274,-297.92"/>
<text text-anchor="middle" x="613.275" y="-535.5" font-family="Helvetica,sans-Serif" font-size="10.00"> +@14</text>
</g>
<!-- Node7&#45;&gt;Node2 -->
<g id="edge6" class="edge"><title>Node7&#45;&gt;Node2</title>
<path fill="none" stroke="orange" d="M205.165,-437.027C203.081,-435.271 200.951,-433.592 198.775,-432 175.961,-415.311 156.498,-435.177 137.775,-414 127.479,-402.354 120.583,-388.146 116.071,-373.154"/>
<polygon fill="orange" stroke="orange" points="203.225,-439.995 212.971,-444.15 207.944,-434.825 203.225,-439.995"/>
<text text-anchor="start" x="137.775" y="-406" font-family="Helvetica,sans-Serif" font-size="10.00"> &lt; gSizeDataOriginString,</text>
<text text-anchor="middle" x="193.775" y="-395" font-family="Helvetica,sans-Serif" font-size="10.00"> printDataOrigin &gt;</text>
</g>
<!-- Node7&#45;&gt;Node8 -->
<g id="edge16" class="edge"><title>Node7&#45;&gt;Node8</title>
<path fill="none" stroke="orange" d="M300.99,-422.162C301.605,-419.418 302.201,-416.695 302.775,-414 305.568,-400.889 308.193,-387.075 310.607,-373.345"/>
<polygon fill="orange" stroke="orange" points="297.52,-421.636 298.687,-432.166 304.341,-423.206 297.52,-421.636"/>
<text text-anchor="start" x="307.775" y="-406" font-family="Helvetica,sans-Serif" font-size="10.00"> &lt; gSizeDataDescriptionString,</text>
<text text-anchor="middle" x="375.775" y="-395" font-family="Helvetica,sans-Serif" font-size="10.00"> printDataDescription &gt;</text>
</g>
<!-- Node8&#45;&gt;Node1 -->
<g id="edge11" class="edge"><title>Node8&#45;&gt;Node1</title>
<path fill="none" stroke="#404040" d="M285.719,-150.992C280.875,-138.01 276.073,-125.143 271.613,-113.194"/>
<polygon fill="none" stroke="#404040" points="271.475,-112.822 265.629,-108.6 267.279,-101.58 273.124,-105.802 271.475,-112.822"/>
<text text-anchor="middle" x="317.775" y="-123.5" font-family="Helvetica,sans-Serif" font-size="10.00"> +dataDescription</text>
</g>
</g>
</svg>
