<?xml version="1.0" encoding="UTF-8" standalone="no"?>
<!DOCTYPE svg PUBLIC "-//W3C//DTD SVG 1.1//EN"
 "http://www.w3.org/Graphics/SVG/1.1/DTD/svg11.dtd">
<!-- Generated by graphviz version 2.36.0 (20140111.2315)
 -->
<!-- Title: /home/travis/build/AliceO2Group/AliceO2/Detectors/MUON/MCH/Mapping/Impl3/src/CathodeSegmentationImpl3.cxx Pages: 1 -->
<!--zoomable 310 -->
<svg id="main" version="1.1" xmlns="http://www.w3.org/2000/svg" xmlns:xlink="http://www.w3.org/1999/xlink" xml:space="preserve" onload="init(evt)">
<style type="text/css"><![CDATA[
.edge:hover path { stroke: red; }
.edge:hover polygon { stroke: red; fill: red; }
]]></style>
<script type="text/javascript"><![CDATA[
var edges = document.getElementsByTagName('g');
if (edges && edges.length) {
  for (var i=0;i<edges.length;i++) {
    if (edges[i].id.substr(0,4)=='edge') {
      edges[i].setAttribute('class','edge');
    }
  }
}
]]></script>
        <defs>
                <circle id="rim" cx="0" cy="0" r="7"/>
                <circle id="rim2" cx="0" cy="0" r="3.5"/>
                <g id="zoomPlus">
                        <use xlink:href="#rim" fill="#404040">
                                <set attributeName="fill" to="#808080" begin="zoomplus.mouseover" end="zoomplus.mouseout"/>
                        </use>
                        <path d="M-4,0h8M0,-4v8" fill="none" stroke="white" stroke-width="1.5" pointer-events="none"/>
                </g>
                <g id="zoomMin">
                        <use xlink:href="#rim" fill="#404040">
                                <set attributeName="fill" to="#808080" begin="zoomminus.mouseover" end="zoomminus.mouseout"/>
                        </use>
                        <path d="M-4,0h8" fill="none" stroke="white" stroke-width="1.5" pointer-events="none"/>
                </g>
                <g id="dirArrow">
                        <path fill="none" stroke="white" stroke-width="1.5" d="M0,-3.0v7 M-2.5,-0.5L0,-3.0L2.5,-0.5"/>
                </g>
               <g id="resetDef">
                       <use xlink:href="#rim2" fill="#404040">
                               <set attributeName="fill" to="#808080" begin="reset.mouseover" end="reset.mouseout"/>
                       </use>
               </g>
        </defs>

<script type="text/javascript">
var viewWidth = 1233;
var viewHeight = 310;
var sectionId = 'dynsection-0';
</script>
<script xlink:href="../../svgpan.js"/>
<svg id="graph" class="graph">
<g id="viewport">
<title>/home/travis/build/AliceO2Group/AliceO2/Detectors/MUON/MCH/Mapping/Impl3/src/CathodeSegmentationImpl3.cxx</title>
<!-- Node1 -->
<g id="node1" class="node"><title>Node1</title>
<polygon fill="#bfbfbf" stroke="black" points="593.5,-249 593.5,-301 796.5,-301 796.5,-249 593.5,-249"/>
<text text-anchor="start" x="601.5" y="-289" font-family="Helvetica,sans-Serif" font-size="10.00">/home/travis/build</text>
<text text-anchor="start" x="601.5" y="-278" font-family="Helvetica,sans-Serif" font-size="10.00">/AliceO2Group/AliceO2</text>
<text text-anchor="start" x="601.5" y="-267" font-family="Helvetica,sans-Serif" font-size="10.00">/Detectors/MUON/MCH/Mapping</text>
<text text-anchor="middle" x="695" y="-256" font-family="Helvetica,sans-Serif" font-size="10.00">/Impl3/src/CathodeSegmentationImpl3.cxx</text>
</g>
<!-- Node2 -->
<g id="node2" class="node"><title>Node2</title>
<g id="a_node2"><a xlink:href="../../d2/db3/CathodeSegmentationImpl3_8h.html" target="_top" xlink:title="CathodeSegmentationImpl3.h">
<polygon fill="none" stroke="black" points="96,-124.5 96,-143.5 242,-143.5 242,-124.5 96,-124.5"/>
<text text-anchor="middle" x="169" y="-131.5" font-family="Helvetica,sans-Serif" font-size="10.00">CathodeSegmentationImpl3.h</text>
</a>
</g>
</g>
<!-- Node1&#45;&gt;Node2 -->
<g id="edge1" class="edge"><title>Node1&#45;&gt;Node2</title>
<path fill="none" stroke="midnightblue" d="M593.23,-270.852C429.854,-264.737 123.953,-248.509 91,-212 81.4706,-201.442 83.8869,-192.316 91,-180 99.6767,-164.977 115.487,-154.523 130.617,-147.499"/>
<polygon fill="midnightblue" stroke="midnightblue" points="132.047,-150.694 139.879,-143.559 129.307,-144.253 132.047,-150.694"/>
</g>
<!-- Node3 -->
<g id="node3" class="node"><title>Node3</title>
<g id="a_node3"><a xlink:href="../../dc/d0f/PadGroup_8h.html" target="_top" xlink:title="PadGroup.h">
<polygon fill="none" stroke="black" points="0,-62.5 0,-81.5 68,-81.5 68,-62.5 0,-62.5"/>
<text text-anchor="middle" x="34" y="-69.5" font-family="Helvetica,sans-Serif" font-size="10.00">PadGroup.h</text>
</a>
</g>
</g>
<!-- Node1&#45;&gt;Node3 -->
<g id="edge13" class="edge"><title>Node1&#45;&gt;Node3</title>
<path fill="none" stroke="midnightblue" d="M593.438,-269.702C429.326,-261.881 120.15,-243.188 81,-212 43.8982,-182.443 35.9038,-122.341 34.3024,-91.7686"/>
<polygon fill="midnightblue" stroke="midnightblue" points="37.7952,-91.4965 33.9543,-81.6224 30.7993,-91.7365 37.7952,-91.4965"/>
</g>
<!-- Node6 -->
<g id="node6" class="node"><title>Node6</title>
<polygon fill="none" stroke="#bfbfbf" points="410,-0.5 410,-19.5 454,-19.5 454,-0.5 410,-0.5"/>
<text text-anchor="middle" x="432" y="-7.5" font-family="Helvetica,sans-Serif" font-size="10.00">vector</text>
</g>
<!-- Node1&#45;&gt;Node6 -->
<g id="edge31" class="edge"><title>Node1&#45;&gt;Node6</title>
<path fill="none" stroke="midnightblue" d="M711.082,-248.88C725.076,-228.46 746.862,-199.877 771,-180 801.223,-155.112 862.694,-155.168 839,-124 792.73,-63.1326 551.8,-26.4501 464.028,-14.9376"/>
<polygon fill="midnightblue" stroke="midnightblue" points="464.473,-11.4659 454.107,-13.6584 463.577,-18.4085 464.473,-11.4659"/>
</g>
<!-- Node7 -->
<g id="node7" class="node"><title>Node7</title>
<polygon fill="none" stroke="#bfbfbf" points="398,-62.5 398,-81.5 428,-81.5 428,-62.5 398,-62.5"/>
<text text-anchor="middle" x="413" y="-69.5" font-family="Helvetica,sans-Serif" font-size="10.00">set</text>
</g>
<!-- Node1&#45;&gt;Node7 -->
<g id="edge28" class="edge"><title>Node1&#45;&gt;Node7</title>
<path fill="none" stroke="midnightblue" d="M593.257,-257.109C483.54,-236.371 320.303,-197.285 289,-144 254.963,-86.0607 345.327,-104.585 383,-88 384.839,-87.1906 386.727,-86.3269 388.617,-85.4382"/>
<polygon fill="midnightblue" stroke="midnightblue" points="390.422,-88.4524 397.876,-80.9231 387.353,-82.1607 390.422,-88.4524"/>
</g>
<!-- Node9 -->
<g id="node9" class="node"><title>Node9</title>
<polygon fill="none" stroke="#bfbfbf" points="298,-124.5 298,-143.5 388,-143.5 388,-124.5 298,-124.5"/>
<text text-anchor="middle" x="343" y="-131.5" font-family="Helvetica,sans-Serif" font-size="10.00">boost/format.hpp</text>
</g>
<!-- Node1&#45;&gt;Node9 -->
<g id="edge11" class="edge"><title>Node1&#45;&gt;Node9</title>
<path fill="none" stroke="midnightblue" d="M593.349,-251.595C554.879,-241.575 511.182,-228.303 473,-212 431.962,-194.478 388.062,-166.243 363.223,-149.27"/>
<polygon fill="midnightblue" stroke="midnightblue" points="365.191,-146.375 354.975,-143.566 361.21,-152.133 365.191,-146.375"/>
</g>
<!-- Node10 -->
<g id="node10" class="node"><title>Node10</title>
<g id="a_node10"><a xlink:href="../../dc/de3/GenDetElemId2SegType_8h.html" target="_top" xlink:title="GenDetElemId2SegType.h">
<polygon fill="none" stroke="black" points="780,-186.5 780,-205.5 914,-205.5 914,-186.5 780,-186.5"/>
<text text-anchor="middle" x="847" y="-193.5" font-family="Helvetica,sans-Serif" font-size="10.00">GenDetElemId2SegType.h</text>
</a>
</g>
</g>
<!-- Node1&#45;&gt;Node10 -->
<g id="edge12" class="edge"><title>Node1&#45;&gt;Node10</title>
<path fill="none" stroke="midnightblue" d="M744.77,-248.787C770.183,-235.914 800.056,-220.781 820.924,-210.21"/>
<polygon fill="midnightblue" stroke="midnightblue" points="822.768,-213.199 830.107,-205.558 819.605,-206.955 822.768,-213.199"/>
</g>
<!-- Node11 -->
<g id="node11" class="node"><title>Node11</title>
<g id="a_node11"><a xlink:href="../../d4/dec/PadSize_8h.html" target="_top" xlink:title="PadSize.h">
<polygon fill="none" stroke="black" points="932,-186.5 932,-205.5 994,-205.5 994,-186.5 932,-186.5"/>
<text text-anchor="middle" x="963" y="-193.5" font-family="Helvetica,sans-Serif" font-size="10.00">PadSize.h</text>
</a>
</g>
</g>
<!-- Node1&#45;&gt;Node11 -->
<g id="edge14" class="edge"><title>Node1&#45;&gt;Node11</title>
<path fill="none" stroke="midnightblue" d="M794.916,-248.989C834.981,-238.4 881.424,-225.416 923,-212 925.779,-211.103 928.65,-210.127 931.518,-209.118"/>
<polygon fill="midnightblue" stroke="midnightblue" points="932.922,-212.332 941.123,-205.624 930.529,-205.754 932.922,-212.332"/>
</g>
<!-- Node12 -->
<g id="node12" class="node"><title>Node12</title>
<g id="a_node12"><a xlink:href="../../df/db6/CathodeSegmentation_8h.html" target="_top" xlink:title="MCHMappingInterface\l/CathodeSegmentation.h">
<polygon fill="none" stroke="black" points="522.5,-181 522.5,-211 647.5,-211 647.5,-181 522.5,-181"/>
<text text-anchor="start" x="530.5" y="-199" font-family="Helvetica,sans-Serif" font-size="10.00">MCHMappingInterface</text>
<text text-anchor="middle" x="585" y="-188" font-family="Helvetica,sans-Serif" font-size="10.00">/CathodeSegmentation.h</text>
</a>
</g>
</g>
<!-- Node1&#45;&gt;Node12 -->
<g id="edge15" class="edge"><title>Node1&#45;&gt;Node12</title>
<path fill="none" stroke="midnightblue" d="M658.982,-248.787C644.142,-238.399 627.2,-226.54 613.277,-216.794"/>
<polygon fill="midnightblue" stroke="midnightblue" points="615.243,-213.898 605.044,-211.031 611.229,-219.633 615.243,-213.898"/>
</g>
<!-- Node14 -->
<g id="node14" class="node"><title>Node14</title>
<polygon fill="none" stroke="#bfbfbf" points="406.5,-124.5 406.5,-143.5 465.5,-143.5 465.5,-124.5 406.5,-124.5"/>
<text text-anchor="middle" x="436" y="-131.5" font-family="Helvetica,sans-Serif" font-size="10.00">stdexcept</text>
</g>
<!-- Node1&#45;&gt;Node14 -->
<g id="edge29" class="edge"><title>Node1&#45;&gt;Node14</title>
<path fill="none" stroke="midnightblue" d="M594.478,-248.842C566.902,-239.565 537.795,-227.437 513,-212 486.897,-195.748 462.88,-169.065 448.836,-151.766"/>
<polygon fill="midnightblue" stroke="midnightblue" points="451.391,-149.354 442.443,-143.68 445.9,-153.695 451.391,-149.354"/>
</g>
<!-- Node15 -->
<g id="node15" class="node"><title>Node15</title>
<polygon fill="none" stroke="#bfbfbf" points="706,-124.5 706,-143.5 758,-143.5 758,-124.5 706,-124.5"/>
<text text-anchor="middle" x="732" y="-131.5" font-family="Helvetica,sans-Serif" font-size="10.00">memory</text>
</g>
<!-- Node1&#45;&gt;Node15 -->
<g id="edge27" class="edge"><title>Node1&#45;&gt;Node15</title>
<path fill="none" stroke="midnightblue" d="M692.603,-248.928C691.627,-229.559 692.195,-202.374 700,-180 703.617,-169.63 710.406,-159.53 716.802,-151.534"/>
<polygon fill="midnightblue" stroke="midnightblue" points="719.596,-153.652 723.421,-143.771 714.27,-149.11 719.596,-153.652"/>
</g>
<!-- Node16 -->
<g id="node16" class="node"><title>Node16</title>
<polygon fill="none" stroke="#bfbfbf" points="776,-124.5 776,-143.5 830,-143.5 830,-124.5 776,-124.5"/>
<text text-anchor="middle" x="803" y="-131.5" font-family="Helvetica,sans-Serif" font-size="10.00">iostream</text>
</g>
<!-- Node1&#45;&gt;Node16 -->
<g id="edge25" class="edge"><title>Node1&#45;&gt;Node16</title>
<path fill="none" stroke="midnightblue" d="M702.397,-248.798C709.24,-228.599 720.948,-200.363 738,-180 748.636,-167.299 763.693,-156.571 776.637,-148.779"/>
<polygon fill="midnightblue" stroke="midnightblue" points="778.664,-151.651 785.595,-143.638 775.18,-145.58 778.664,-151.651"/>
</g>
<!-- Node17 -->
<g id="node17" class="node"><title>Node17</title>
<g id="a_node17"><a xlink:href="../../d4/d1d/CathodeSegmentationCreator_8h.html" target="_top" xlink:title="CathodeSegmentationCreator.h">
<polygon fill="none" stroke="black" points="100,-186.5 100,-205.5 254,-205.5 254,-186.5 100,-186.5"/>
<text text-anchor="middle" x="177" y="-193.5" font-family="Helvetica,sans-Serif" font-size="10.00">CathodeSegmentationCreator.h</text>
</a>
</g>
</g>
<!-- Node1&#45;&gt;Node17 -->
<g id="edge22" class="edge"><title>Node1&#45;&gt;Node17</title>
<path fill="none" stroke="midnightblue" d="M593.113,-259.766C506.552,-247.539 379.038,-229.211 268,-212 258.15,-210.473 247.71,-208.802 237.549,-207.147"/>
<polygon fill="midnightblue" stroke="midnightblue" points="237.947,-203.666 227.513,-205.503 236.816,-210.574 237.947,-203.666"/>
</g>
<!-- Node18 -->
<g id="node18" class="node"><title>Node18</title>
<polygon fill="none" stroke="#bfbfbf" points="1012,-186.5 1012,-205.5 1050,-205.5 1050,-186.5 1012,-186.5"/>
<text text-anchor="middle" x="1031" y="-193.5" font-family="Helvetica,sans-Serif" font-size="10.00">array</text>
</g>
<!-- Node1&#45;&gt;Node18 -->
<g id="edge24" class="edge"><title>Node1&#45;&gt;Node18</title>
<path fill="none" stroke="midnightblue" d="M796.794,-260.72C857.495,-251.022 935.448,-235.415 1002,-212 1003.65,-211.418 1005.33,-210.758 1007,-210.046"/>
<polygon fill="midnightblue" stroke="midnightblue" points="1008.79,-213.073 1016.3,-205.606 1005.77,-206.757 1008.79,-213.073"/>
</g>
<!-- Node19 -->
<g id="node19" class="node"><title>Node19</title>
<polygon fill="none" stroke="#bfbfbf" points="1068.5,-186.5 1068.5,-205.5 1103.5,-205.5 1103.5,-186.5 1068.5,-186.5"/>
<text text-anchor="middle" x="1086" y="-193.5" font-family="Helvetica,sans-Serif" font-size="10.00">map</text>
</g>
<!-- Node1&#45;&gt;Node19 -->
<g id="edge26" class="edge"><title>Node1&#45;&gt;Node19</title>
<path fill="none" stroke="midnightblue" d="M796.561,-265.976C870.879,-257.897 973.27,-242.124 1059,-212 1060.45,-211.489 1061.92,-210.903 1063.38,-210.267"/>
<polygon fill="midnightblue" stroke="midnightblue" points="1065.34,-213.201 1072.69,-205.567 1062.18,-206.953 1065.34,-213.201"/>
</g>
<!-- Node20 -->
<g id="node20" class="node"><title>Node20</title>
<polygon fill="none" stroke="#bfbfbf" points="1121.5,-186.5 1121.5,-205.5 1162.5,-205.5 1162.5,-186.5 1121.5,-186.5"/>
<text text-anchor="middle" x="1142" y="-193.5" font-family="Helvetica,sans-Serif" font-size="10.00">string</text>
</g>
<!-- Node1&#45;&gt;Node20 -->
<g id="edge30" class="edge"><title>Node1&#45;&gt;Node20</title>
<path fill="none" stroke="midnightblue" d="M796.853,-267.868C882.547,-260.59 1007.47,-244.979 1112,-212 1113.92,-211.396 1115.86,-210.682 1117.79,-209.899"/>
<polygon fill="midnightblue" stroke="midnightblue" points="1119.51,-212.959 1127.13,-205.596 1116.58,-206.602 1119.51,-212.959"/>
</g>
<!-- Node21 -->
<g id="node21" class="node"><title>Node21</title>
<polygon fill="none" stroke="#bfbfbf" points="1180.5,-186.5 1180.5,-205.5 1225.5,-205.5 1225.5,-186.5 1180.5,-186.5"/>
<text text-anchor="middle" x="1203" y="-193.5" font-family="Helvetica,sans-Serif" font-size="10.00">gsl/gsl</text>
</g>
<!-- Node1&#45;&gt;Node21 -->
<g id="edge32" class="edge"><title>Node1&#45;&gt;Node21</title>
<path fill="none" stroke="midnightblue" d="M796.684,-269.828C894.346,-263.715 1045.2,-248.71 1171,-212 1173.29,-211.333 1175.61,-210.523 1177.92,-209.63"/>
<polygon fill="midnightblue" stroke="midnightblue" points="1179.33,-212.834 1187.1,-205.634 1176.53,-206.416 1179.33,-212.834"/>
</g>
<!-- Node2&#45;&gt;Node3 -->
<g id="edge2" class="edge"><title>Node2&#45;&gt;Node3</title>
<path fill="none" stroke="midnightblue" d="M149.658,-124.403C126.901,-114.29 88.908,-97.4036 62.7121,-85.761"/>
<polygon fill="midnightblue" stroke="midnightblue" points="63.866,-82.4437 53.3063,-81.5806 61.0229,-88.8404 63.866,-82.4437"/>
</g>
<!-- Node4 -->
<g id="node4" class="node"><title>Node4</title>
<polygon fill="none" stroke="#bfbfbf" points="70,-0.5 70,-19.5 122,-19.5 122,-0.5 70,-0.5"/>
<text text-anchor="middle" x="96" y="-7.5" font-family="Helvetica,sans-Serif" font-size="10.00">ostream</text>
</g>
<!-- Node2&#45;&gt;Node4 -->
<g id="edge9" class="edge"><title>Node2&#45;&gt;Node4</title>
<path fill="none" stroke="midnightblue" d="M153.886,-124.226C141.579,-116.301 124.708,-103.519 115,-88 103.846,-70.1691 99.2382,-46.2028 97.3358,-29.7712"/>
<polygon fill="midnightblue" stroke="midnightblue" points="100.816,-29.3993 96.4037,-19.7671 93.8466,-30.0487 100.816,-29.3993"/>
</g>
<!-- Node5 -->
<g id="node5" class="node"><title>Node5</title>
<g id="a_node5"><a xlink:href="../../dd/d31/PadGroupType_8h.html" target="_top" xlink:title="PadGroupType.h">
<polygon fill="none" stroke="black" points="124,-62.5 124,-81.5 214,-81.5 214,-62.5 124,-62.5"/>
<text text-anchor="middle" x="169" y="-69.5" font-family="Helvetica,sans-Serif" font-size="10.00">PadGroupType.h</text>
</a>
</g>
</g>
<!-- Node2&#45;&gt;Node5 -->
<g id="edge4" class="edge"><title>Node2&#45;&gt;Node5</title>
<path fill="none" stroke="midnightblue" d="M169,-124.403C169,-115.938 169,-102.728 169,-91.8199"/>
<polygon fill="midnightblue" stroke="midnightblue" points="172.5,-91.5806 169,-81.5806 165.5,-91.5806 172.5,-91.5806"/>
</g>
<!-- Node2&#45;&gt;Node6 -->
<g id="edge7" class="edge"><title>Node2&#45;&gt;Node6</title>
<path fill="none" stroke="midnightblue" d="M238.642,-124.444C273.912,-118.013 316.461,-106.924 351,-88 365.806,-79.8877 397.912,-47.2229 416.956,-27.1348"/>
<polygon fill="midnightblue" stroke="midnightblue" points="419.7,-29.3262 424.005,-19.6451 414.603,-24.5289 419.7,-29.3262"/>
</g>
<!-- Node2&#45;&gt;Node7 -->
<g id="edge8" class="edge"><title>Node2&#45;&gt;Node7</title>
<path fill="none" stroke="midnightblue" d="M231.853,-124.452C275.391,-117.424 334.239,-105.705 384,-88 385.652,-87.4122 387.329,-86.7473 388.999,-86.0327"/>
<polygon fill="midnightblue" stroke="midnightblue" points="390.786,-89.058 398.295,-81.5846 387.764,-82.7436 390.786,-89.058"/>
</g>
<!-- Node8 -->
<g id="node8" class="node"><title>Node8</title>
<polygon fill="none" stroke="#bfbfbf" points="232,-57 232,-87 342,-87 342,-57 232,-57"/>
<text text-anchor="start" x="240" y="-75" font-family="Helvetica,sans-Serif" font-size="10.00">boost/geometry/index</text>
<text text-anchor="middle" x="287" y="-64" font-family="Helvetica,sans-Serif" font-size="10.00">/rtree.hpp</text>
</g>
<!-- Node2&#45;&gt;Node8 -->
<g id="edge10" class="edge"><title>Node2&#45;&gt;Node8</title>
<path fill="none" stroke="midnightblue" d="M185.907,-124.403C202.56,-115.936 228.55,-102.72 250.007,-91.8101"/>
<polygon fill="midnightblue" stroke="midnightblue" points="251.862,-94.7932 259.19,-87.1408 248.689,-88.5535 251.862,-94.7932"/>
</g>
<!-- Node3&#45;&gt;Node4 -->
<g id="edge3" class="edge"><title>Node3&#45;&gt;Node4</title>
<path fill="none" stroke="midnightblue" d="M42.8831,-62.4035C52.4594,-53.1361 67.9111,-38.1828 79.6862,-26.7876"/>
<polygon fill="midnightblue" stroke="midnightblue" points="82.3813,-29.05 87.1334,-19.5806 77.5134,-24.0197 82.3813,-29.05"/>
</g>
<!-- Node5&#45;&gt;Node4 -->
<g id="edge6" class="edge"><title>Node5&#45;&gt;Node4</title>
<path fill="none" stroke="midnightblue" d="M158.541,-62.4035C147.049,-52.9579 128.37,-37.6056 114.413,-26.1342"/>
<polygon fill="midnightblue" stroke="midnightblue" points="116.388,-23.2264 106.44,-19.5806 111.943,-28.6342 116.388,-23.2264"/>
</g>
<!-- Node5&#45;&gt;Node6 -->
<g id="edge5" class="edge"><title>Node5&#45;&gt;Node6</title>
<path fill="none" stroke="midnightblue" d="M198.626,-62.4324C206.522,-60.2417 215.064,-57.9548 223,-56 285.328,-40.6475 358.828,-25.5007 399.96,-17.2884"/>
<polygon fill="midnightblue" stroke="midnightblue" points="400.81,-20.6879 409.936,-15.3059 399.446,-13.8221 400.81,-20.6879"/>
</g>
<!-- Node12&#45;&gt;Node6 -->
<g id="edge20" class="edge"><title>Node12&#45;&gt;Node6</title>
<path fill="none" stroke="midnightblue" d="M559.67,-180.983C544.615,-171.809 525.824,-158.801 512,-144 478.553,-108.187 452.254,-56.1377 439.827,-28.9932"/>
<polygon fill="midnightblue" stroke="midnightblue" points="442.903,-27.2978 435.627,-19.5963 436.512,-30.1541 442.903,-27.2978"/>
</g>
<!-- Node12&#45;&gt;Node9 -->
<g id="edge21" class="edge"><title>Node12&#45;&gt;Node9</title>
<path fill="none" stroke="midnightblue" d="M528.262,-180.933C485.209,-170.258 426.866,-155.793 387.236,-145.968"/>
<polygon fill="midnightblue" stroke="midnightblue" points="387.883,-142.522 377.335,-143.513 386.198,-149.316 387.883,-142.522"/>
</g>
<!-- Node13 -->
<g id="node13" class="node"><title>Node13</title>
<g id="a_node13"><a xlink:href="../../d0/dc7/CathodeSegmentationCInterface_8h.html" target="_top" xlink:title="CathodeSegmentationCInterface.h">
<polygon fill="none" stroke="black" points="521.5,-124.5 521.5,-143.5 688.5,-143.5 688.5,-124.5 521.5,-124.5"/>
<text text-anchor="middle" x="605" y="-131.5" font-family="Helvetica,sans-Serif" font-size="10.00">CathodeSegmentationCInterface.h</text>
</a>
</g>
</g>
<!-- Node12&#45;&gt;Node13 -->
<g id="edge16" class="edge"><title>Node12&#45;&gt;Node13</title>
<path fill="none" stroke="midnightblue" d="M589.74,-180.781C592.466,-172.601 595.922,-162.234 598.855,-153.434"/>
<polygon fill="midnightblue" stroke="midnightblue" points="602.248,-154.324 602.09,-143.731 595.607,-152.111 602.248,-154.324"/>
</g>
<!-- Node12&#45;&gt;Node14 -->
<g id="edge17" class="edge"><title>Node12&#45;&gt;Node14</title>
<path fill="none" stroke="midnightblue" d="M550.066,-180.933C524.816,-170.765 491.023,-157.157 466.784,-147.396"/>
<polygon fill="midnightblue" stroke="midnightblue" points="467.94,-144.089 457.357,-143.6 465.325,-150.582 467.94,-144.089"/>
</g>
<!-- Node12&#45;&gt;Node15 -->
<g id="edge18" class="edge"><title>Node12&#45;&gt;Node15</title>
<path fill="none" stroke="midnightblue" d="M619.465,-180.933C644.376,-170.765 677.715,-157.157 701.629,-147.396"/>
<polygon fill="midnightblue" stroke="midnightblue" points="702.994,-150.62 710.93,-143.6 700.349,-144.139 702.994,-150.62"/>
</g>
<!-- Node12&#45;&gt;Node16 -->
<g id="edge19" class="edge"><title>Node12&#45;&gt;Node16</title>
<path fill="none" stroke="midnightblue" d="M636.111,-180.933C675.857,-169.993 730.07,-155.073 765.778,-145.245"/>
<polygon fill="midnightblue" stroke="midnightblue" points="767.068,-148.52 775.78,-142.492 765.21,-141.771 767.068,-148.52"/>
</g>
<!-- Node17&#45;&gt;Node2 -->
<g id="edge23" class="edge"><title>Node17&#45;&gt;Node2</title>
<path fill="none" stroke="midnightblue" d="M175.854,-186.403C174.725,-177.938 172.964,-164.728 171.509,-153.82"/>
<polygon fill="midnightblue" stroke="midnightblue" points="174.935,-153.03 170.144,-143.581 167.997,-153.955 174.935,-153.03"/>
</g>
</g>
</svg>
        <g id="navigator" transform="translate(0 0)" fill="#404254">
                <rect fill="#f2f5e9" fill-opacity="0.5" stroke="#606060" stroke-width=".5" x="0" y="0" width="60" height="60"/>
                <use id="zoomplus" xlink:href="#zoomPlus" x="17" y="9" onmousedown="handleZoom(evt,'in')"/>
                <use id="zoomminus" xlink:href="#zoomMin" x="42" y="9" onmousedown="handleZoom(evt,'out')"/>
                <use id="reset" xlink:href="#resetDef" x="30" y="36" onmousedown="handleReset()"/>
                <g id="arrowUp" xlink:href="#dirArrow" transform="translate(30 24)" onmousedown="handlePan(0,-1)">
                  <use xlink:href="#rim" fill="#404040">
                        <set attributeName="fill" to="#808080" begin="arrowUp.mouseover" end="arrowUp.mouseout"/>
                  </use>
                  <path fill="none" stroke="white" stroke-width="1.5" d="M0,-3.0v7 M-2.5,-0.5L0,-3.0L2.5,-0.5"/>
                </g>
                <g id="arrowRight" xlink:href="#dirArrow" transform="rotate(90) translate(36 -43)" onmousedown="handlePan(1,0)">
                  <use xlink:href="#rim" fill="#404040">
                        <set attributeName="fill" to="#808080" begin="arrowRight.mouseover" end="arrowRight.mouseout"/>
                  </use>
                  <path fill="none" stroke="white" stroke-width="1.5" d="M0,-3.0v7 M-2.5,-0.5L0,-3.0L2.5,-0.5"/>
                </g>
                <g id="arrowDown" xlink:href="#dirArrow" transform="rotate(180) translate(-30 -48)" onmousedown="handlePan(0,1)">
                  <use xlink:href="#rim" fill="#404040">
                        <set attributeName="fill" to="#808080" begin="arrowDown.mouseover" end="arrowDown.mouseout"/>
                  </use>
                  <path fill="none" stroke="white" stroke-width="1.5" d="M0,-3.0v7 M-2.5,-0.5L0,-3.0L2.5,-0.5"/>
                </g>
                <g id="arrowLeft" xlink:href="#dirArrow" transform="rotate(270) translate(-36 17)" onmousedown="handlePan(-1,0)">
                  <use xlink:href="#rim" fill="#404040">
                        <set attributeName="fill" to="#808080" begin="arrowLeft.mouseover" end="arrowLeft.mouseout"/>
                  </use>
                  <path fill="none" stroke="white" stroke-width="1.5" d="M0,-3.0v7 M-2.5,-0.5L0,-3.0L2.5,-0.5"/>
                </g>
        </g>
        <svg viewBox="0 0 15 15" width="100%" height="30px" preserveAspectRatio="xMaxYMin meet">
         <g id="arrow_out" transform="scale(0.3 0.3)">
          <a xlink:href="CathodeSegmentationImpl3_8cxx__incl_org.svg" target="_base">
           <rect id="button" ry="5" rx="5" y="6" x="6" height="38" width="38"
                fill="#f2f5e9" fill-opacity="0.5" stroke="#606060" stroke-width="1.0"/>
           <path id="arrow"
             d="M 11.500037,31.436501 C 11.940474,20.09759 22.043105,11.32322 32.158766,21.979434 L 37.068811,17.246167 C 37.068811,17.246167 37.088388,32 37.088388,32 L 22.160133,31.978069 C 22.160133,31.978069 26.997745,27.140456 26.997745,27.140456 C 18.528582,18.264221 13.291696,25.230495 11.500037,31.436501 z"
             style="fill:#404040;"/>
          </a>
         </g>
        </svg>
</svg>
