<?xml version="1.0" encoding="UTF-8" standalone="no"?>
<!DOCTYPE svg PUBLIC "-//W3C//DTD SVG 1.1//EN"
 "http://www.w3.org/Graphics/SVG/1.1/DTD/svg11.dtd">
<!-- Generated by graphviz version 2.36.0 (20140111.2315)
 -->
<!-- Title: /home/travis/build/AliceO2Group/AliceO2/Detectors/TPC/reconstruction/src/TPCFastTransformHelperO2.cxx Pages: 1 -->
<svg width="1678pt" height="602pt"
 viewBox="0.00 0.00 1678.00 602.00" xmlns="http://www.w3.org/2000/svg" xmlns:xlink="http://www.w3.org/1999/xlink">
<g id="graph0" class="graph" transform="scale(1 1) rotate(0) translate(4 598)">
<title>/home/travis/build/AliceO2Group/AliceO2/Detectors/TPC/reconstruction/src/TPCFastTransformHelperO2.cxx</title>
<!-- Node1 -->
<g id="node1" class="node"><title>Node1</title>
<polygon fill="#bfbfbf" stroke="black" points="887,-541 887,-593 1067,-593 1067,-541 887,-541"/>
<text text-anchor="start" x="895" y="-581" font-family="Helvetica,sans-Serif" font-size="10.00">/home/travis/build</text>
<text text-anchor="start" x="895" y="-570" font-family="Helvetica,sans-Serif" font-size="10.00">/AliceO2Group/AliceO2</text>
<text text-anchor="start" x="895" y="-559" font-family="Helvetica,sans-Serif" font-size="10.00">/Detectors/TPC/reconstruction</text>
<text text-anchor="middle" x="977" y="-548" font-family="Helvetica,sans-Serif" font-size="10.00">/src/TPCFastTransformHelperO2.cxx</text>
</g>
<!-- Node2 -->
<g id="node2" class="node"><title>Node2</title>
<g id="a_node2"><a xlink:href="../../df/d4b/TPCFastTransformHelperO2_8h.html" target="_top" xlink:title="class to create TPC fast transformation ">
<polygon fill="none" stroke="black" points="66,-473 66,-503 212,-503 212,-473 66,-473"/>
<text text-anchor="start" x="74" y="-491" font-family="Helvetica,sans-Serif" font-size="10.00">TPCReconstruction/TPCFast</text>
<text text-anchor="middle" x="139" y="-480" font-family="Helvetica,sans-Serif" font-size="10.00">TransformHelperO2.h</text>
</a>
</g>
</g>
<!-- Node1&#45;&gt;Node2 -->
<g id="edge1" class="edge"><title>Node1&#45;&gt;Node2</title>
<path fill="none" stroke="midnightblue" d="M886.851,-561.139C745.594,-552.941 463.658,-534.238 226,-504 224.717,-503.837 223.424,-503.668 222.124,-503.494"/>
<polygon fill="midnightblue" stroke="midnightblue" points="222.421,-500.002 212.031,-502.073 221.445,-506.933 222.421,-500.002"/>
</g>
<!-- Node3 -->
<g id="node3" class="node"><title>Node3</title>
<polygon fill="none" stroke="#bfbfbf" points="-0.5,-416.5 -0.5,-435.5 108.5,-435.5 108.5,-416.5 -0.5,-416.5"/>
<text text-anchor="middle" x="54" y="-423.5" font-family="Helvetica,sans-Serif" font-size="10.00">TPCFastTransform.h</text>
</g>
<!-- Node1&#45;&gt;Node3 -->
<g id="edge63" class="edge"><title>Node1&#45;&gt;Node3</title>
<path fill="none" stroke="midnightblue" d="M886.805,-566.608C666.352,-567.17 114.011,-562.65 57,-504 42.3135,-488.891 44.5627,-463.228 48.4678,-445.716"/>
<polygon fill="midnightblue" stroke="midnightblue" points="51.9749,-446.137 51.1118,-435.578 45.2014,-444.371 51.9749,-446.137"/>
</g>
<!-- Node5 -->
<g id="node5" class="node"><title>Node5</title>
<g id="a_node5"><a xlink:href="../../d7/d2c/Mapper_8h.html" target="_top" xlink:title="TPCBase/Mapper.h">
<polygon fill="none" stroke="black" points="663.5,-478.5 663.5,-497.5 766.5,-497.5 766.5,-478.5 663.5,-478.5"/>
<text text-anchor="middle" x="715" y="-485.5" font-family="Helvetica,sans-Serif" font-size="10.00">TPCBase/Mapper.h</text>
</a>
</g>
</g>
<!-- Node1&#45;&gt;Node5 -->
<g id="edge4" class="edge"><title>Node1&#45;&gt;Node5</title>
<path fill="none" stroke="midnightblue" d="M891.574,-540.894C845.165,-527.255 790.039,-511.053 753.877,-500.426"/>
<polygon fill="midnightblue" stroke="midnightblue" points="754.784,-497.044 744.203,-497.583 752.811,-503.76 754.784,-497.044"/>
</g>
<!-- Node11 -->
<g id="node11" class="node"><title>Node11</title>
<g id="a_node11"><a xlink:href="../../d1/d73/Defs_8h.html" target="_top" xlink:title="Common definitions for 2D coordinates. ">
<polygon fill="none" stroke="black" points="798,-192.5 798,-211.5 924,-211.5 924,-192.5 798,-192.5"/>
<text text-anchor="middle" x="861" y="-199.5" font-family="Helvetica,sans-Serif" font-size="10.00">DataFormatsTPC/Defs.h</text>
</a>
</g>
</g>
<!-- Node1&#45;&gt;Node11 -->
<g id="edge62" class="edge"><title>Node1&#45;&gt;Node11</title>
<path fill="none" stroke="midnightblue" d="M975.832,-540.849C976.205,-520.134 979.973,-491.153 996,-472 1023.91,-438.643 1056.6,-467.107 1087,-436 1108.52,-413.975 1111,-401.795 1111,-371 1111,-371 1111,-371 1111,-313 1111,-235.104 1008.06,-211.884 934.287,-205.245"/>
<polygon fill="midnightblue" stroke="midnightblue" points="934.337,-201.737 924.086,-204.414 933.768,-208.714 934.337,-201.737"/>
</g>
<!-- Node25 -->
<g id="node25" class="node"><title>Node25</title>
<g id="a_node25"><a xlink:href="../../d3/dd6/Sector_8h.html" target="_top" xlink:title="TPCBase/Sector.h">
<polygon fill="none" stroke="black" points="324.5,-248.5 324.5,-267.5 423.5,-267.5 423.5,-248.5 324.5,-248.5"/>
<text text-anchor="middle" x="374" y="-255.5" font-family="Helvetica,sans-Serif" font-size="10.00">TPCBase/Sector.h</text>
</a>
</g>
</g>
<!-- Node1&#45;&gt;Node25 -->
<g id="edge61" class="edge"><title>Node1&#45;&gt;Node25</title>
<path fill="none" stroke="midnightblue" d="M886.772,-561.651C722.975,-551.707 386.777,-521.188 313,-436 274.312,-391.328 297.797,-354.187 329,-304 335.968,-292.793 346.229,-282.248 355.194,-274.187"/>
<polygon fill="midnightblue" stroke="midnightblue" points="357.63,-276.708 362.931,-267.535 353.067,-271.4 357.63,-276.708"/>
</g>
<!-- Node32 -->
<g id="node32" class="node"><title>Node32</title>
<g id="a_node32"><a xlink:href="../../da/d9d/PadRegionInfo_8h.html" target="_top" xlink:title="TPCBase/PadRegionInfo.h">
<polygon fill="none" stroke="black" points="871.5,-416.5 871.5,-435.5 1006.5,-435.5 1006.5,-416.5 871.5,-416.5"/>
<text text-anchor="middle" x="939" y="-423.5" font-family="Helvetica,sans-Serif" font-size="10.00">TPCBase/PadRegionInfo.h</text>
</a>
</g>
</g>
<!-- Node1&#45;&gt;Node32 -->
<g id="edge53" class="edge"><title>Node1&#45;&gt;Node32</title>
<path fill="none" stroke="midnightblue" d="M970.118,-540.828C962.588,-513.284 950.7,-469.796 944.007,-445.316"/>
<polygon fill="midnightblue" stroke="midnightblue" points="947.346,-444.255 941.333,-435.532 940.594,-446.101 947.346,-444.255"/>
</g>
<!-- Node34 -->
<g id="node34" class="node"><title>Node34</title>
<g id="a_node34"><a xlink:href="../../db/dad/ParameterDetector_8h.html" target="_top" xlink:title="Definition of the parameter class for the detector. ">
<polygon fill="none" stroke="black" points="1005.5,-478.5 1005.5,-497.5 1158.5,-497.5 1158.5,-478.5 1005.5,-478.5"/>
<text text-anchor="middle" x="1082" y="-485.5" font-family="Helvetica,sans-Serif" font-size="10.00">TPCBase/ParameterDetector.h</text>
</a>
</g>
</g>
<!-- Node1&#45;&gt;Node34 -->
<g id="edge54" class="edge"><title>Node1&#45;&gt;Node34</title>
<path fill="none" stroke="midnightblue" d="M1011.38,-540.787C1028.22,-528.438 1047.9,-514.01 1062.2,-503.523"/>
<polygon fill="midnightblue" stroke="midnightblue" points="1064.34,-506.294 1070.33,-497.558 1060.2,-500.649 1064.34,-506.294"/>
</g>
<!-- Node35 -->
<g id="node35" class="node"><title>Node35</title>
<g id="a_node35"><a xlink:href="../../d3/d47/ParameterElectronics_8h.html" target="_top" xlink:title="Definition of the parameter class for the detector electronics. ">
<polygon fill="none" stroke="black" points="1329,-478.5 1329,-497.5 1493,-497.5 1493,-478.5 1329,-478.5"/>
<text text-anchor="middle" x="1411" y="-485.5" font-family="Helvetica,sans-Serif" font-size="10.00">TPCBase/ParameterElectronics.h</text>
</a>
</g>
</g>
<!-- Node1&#45;&gt;Node35 -->
<g id="edge57" class="edge"><title>Node1&#45;&gt;Node35</title>
<path fill="none" stroke="midnightblue" d="M1067.19,-549.999C1153.05,-534.765 1279.73,-512.29 1352.95,-499.3"/>
<polygon fill="midnightblue" stroke="midnightblue" points="1353.68,-502.725 1362.91,-497.532 1352.45,-495.833 1353.68,-502.725"/>
</g>
<!-- Node36 -->
<g id="node36" class="node"><title>Node36</title>
<g id="a_node36"><a xlink:href="../../db/d5b/ParameterGas_8h.html" target="_top" xlink:title="Definition of the parameter class for the detector gas. ">
<polygon fill="none" stroke="black" points="1177,-478.5 1177,-497.5 1311,-497.5 1311,-478.5 1177,-478.5"/>
<text text-anchor="middle" x="1244" y="-485.5" font-family="Helvetica,sans-Serif" font-size="10.00">TPCBase/ParameterGas.h</text>
</a>
</g>
</g>
<!-- Node1&#45;&gt;Node36 -->
<g id="edge59" class="edge"><title>Node1&#45;&gt;Node36</title>
<path fill="none" stroke="midnightblue" d="M1064.06,-540.894C1111.35,-527.255 1167.53,-511.053 1204.38,-500.426"/>
<polygon fill="midnightblue" stroke="midnightblue" points="1205.6,-503.717 1214.24,-497.583 1203.66,-496.991 1205.6,-503.717"/>
</g>
<!-- Node37 -->
<g id="node37" class="node"><title>Node37</title>
<polygon fill="none" stroke="#bfbfbf" points="1511,-478.5 1511,-497.5 1581,-497.5 1581,-478.5 1511,-478.5"/>
<text text-anchor="middle" x="1546" y="-485.5" font-family="Helvetica,sans-Serif" font-size="10.00">Riostream.h</text>
</g>
<!-- Node1&#45;&gt;Node37 -->
<g id="edge64" class="edge"><title>Node1&#45;&gt;Node37</title>
<path fill="none" stroke="midnightblue" d="M1067.15,-561.149C1172.52,-554.15 1351.63,-538.108 1502,-504 1505.96,-503.102 1510.06,-501.977 1514.1,-500.75"/>
<polygon fill="midnightblue" stroke="midnightblue" points="1515.46,-503.988 1523.88,-497.558 1513.29,-497.334 1515.46,-503.988"/>
</g>
<!-- Node38 -->
<g id="node38" class="node"><title>Node38</title>
<polygon fill="none" stroke="#bfbfbf" points="1599.5,-478.5 1599.5,-497.5 1670.5,-497.5 1670.5,-478.5 1599.5,-478.5"/>
<text text-anchor="middle" x="1635" y="-485.5" font-family="Helvetica,sans-Serif" font-size="10.00">FairLogger.h</text>
</g>
<!-- Node1&#45;&gt;Node38 -->
<g id="edge65" class="edge"><title>Node1&#45;&gt;Node38</title>
<path fill="none" stroke="midnightblue" d="M1067.04,-563.108C1187.41,-557.835 1406.84,-543.283 1590,-504 1594.17,-503.106 1598.49,-501.961 1602.73,-500.702"/>
<polygon fill="midnightblue" stroke="midnightblue" points="1603.92,-503.998 1612.38,-497.625 1601.79,-497.329 1603.92,-503.998"/>
</g>
<!-- Node2&#45;&gt;Node3 -->
<g id="edge2" class="edge"><title>Node2&#45;&gt;Node3</title>
<path fill="none" stroke="midnightblue" d="M118.856,-472.781C105.405,-463.286 87.7782,-450.843 74.2961,-441.327"/>
<polygon fill="midnightblue" stroke="midnightblue" points="76.3087,-438.463 66.1206,-435.556 72.2719,-444.182 76.3087,-438.463"/>
</g>
<!-- Node4 -->
<g id="node4" class="node"><title>Node4</title>
<polygon fill="none" stroke="#bfbfbf" points="125,-74.5 125,-93.5 181,-93.5 181,-74.5 125,-74.5"/>
<text text-anchor="middle" x="153" y="-81.5" font-family="Helvetica,sans-Serif" font-size="10.00">Rtypes.h</text>
</g>
<!-- Node2&#45;&gt;Node4 -->
<g id="edge3" class="edge"><title>Node2&#45;&gt;Node4</title>
<path fill="none" stroke="midnightblue" d="M140.417,-472.73C142.462,-450.859 146,-407.719 146,-371 146,-371 146,-371 146,-201 146,-166.654 149.096,-126.69 151.17,-103.769"/>
<polygon fill="midnightblue" stroke="midnightblue" points="154.663,-104.004 152.113,-93.7202 147.694,-103.349 154.663,-104.004"/>
</g>
<!-- Node6 -->
<g id="node6" class="node"><title>Node6</title>
<polygon fill="none" stroke="#bfbfbf" points="337.5,-416.5 337.5,-435.5 372.5,-435.5 372.5,-416.5 337.5,-416.5"/>
<text text-anchor="middle" x="355" y="-423.5" font-family="Helvetica,sans-Serif" font-size="10.00">map</text>
</g>
<!-- Node5&#45;&gt;Node6 -->
<g id="edge5" class="edge"><title>Node5&#45;&gt;Node6</title>
<path fill="none" stroke="midnightblue" d="M663.233,-480.901C598.293,-472.804 483.715,-457.04 387,-436 385.52,-435.678 384.007,-435.327 382.483,-434.957"/>
<polygon fill="midnightblue" stroke="midnightblue" points="383.072,-431.493 372.51,-432.333 381.29,-438.263 383.072,-431.493"/>
</g>
<!-- Node7 -->
<g id="node7" class="node"><title>Node7</title>
<polygon fill="none" stroke="#bfbfbf" points="849,-360.5 849,-379.5 893,-379.5 893,-360.5 849,-360.5"/>
<text text-anchor="middle" x="871" y="-367.5" font-family="Helvetica,sans-Serif" font-size="10.00">vector</text>
</g>
<!-- Node5&#45;&gt;Node7 -->
<g id="edge6" class="edge"><title>Node5&#45;&gt;Node7</title>
<path fill="none" stroke="midnightblue" d="M731.83,-478.405C749.668,-468.983 778.336,-452.939 801,-436 821.21,-420.895 842.122,-400.786 855.763,-386.956"/>
<polygon fill="midnightblue" stroke="midnightblue" points="858.432,-389.233 862.895,-379.624 853.414,-384.352 858.432,-389.233"/>
</g>
<!-- Node8 -->
<g id="node8" class="node"><title>Node8</title>
<polygon fill="none" stroke="#bfbfbf" points="1201,-416.5 1201,-435.5 1239,-435.5 1239,-416.5 1201,-416.5"/>
<text text-anchor="middle" x="1220" y="-423.5" font-family="Helvetica,sans-Serif" font-size="10.00">array</text>
</g>
<!-- Node5&#45;&gt;Node8 -->
<g id="edge7" class="edge"><title>Node5&#45;&gt;Node8</title>
<path fill="none" stroke="midnightblue" d="M766.671,-480.861C871.911,-468.357 1108.14,-440.29 1190.78,-430.472"/>
<polygon fill="midnightblue" stroke="midnightblue" points="1191.22,-433.944 1200.74,-429.288 1190.4,-426.993 1191.22,-433.944"/>
</g>
<!-- Node9 -->
<g id="node9" class="node"><title>Node9</title>
<polygon fill="none" stroke="#bfbfbf" points="555.5,-416.5 555.5,-435.5 596.5,-435.5 596.5,-416.5 555.5,-416.5"/>
<text text-anchor="middle" x="576" y="-423.5" font-family="Helvetica,sans-Serif" font-size="10.00">string</text>
</g>
<!-- Node5&#45;&gt;Node9 -->
<g id="edge8" class="edge"><title>Node5&#45;&gt;Node9</title>
<path fill="none" stroke="midnightblue" d="M695.085,-478.403C671.551,-468.245 632.19,-451.255 605.207,-439.607"/>
<polygon fill="midnightblue" stroke="midnightblue" points="606.447,-436.33 595.878,-435.581 603.672,-442.757 606.447,-436.33"/>
</g>
<!-- Node10 -->
<g id="node10" class="node"><title>Node10</title>
<polygon fill="none" stroke="#bfbfbf" points="1016,-136.5 1016,-155.5 1060,-155.5 1060,-136.5 1016,-136.5"/>
<text text-anchor="middle" x="1038" y="-143.5" font-family="Helvetica,sans-Serif" font-size="10.00">cmath</text>
</g>
<!-- Node5&#45;&gt;Node10 -->
<g id="edge9" class="edge"><title>Node5&#45;&gt;Node10</title>
<path fill="none" stroke="midnightblue" d="M766.639,-484.277C846.263,-479.187 994.293,-465.915 1037,-436 1064.05,-417.054 1073,-404.024 1073,-371 1073,-371 1073,-371 1073,-257 1073,-223.072 1057.69,-185.911 1047.32,-164.631"/>
<polygon fill="midnightblue" stroke="midnightblue" points="1050.36,-162.882 1042.72,-155.544 1044.12,-166.046 1050.36,-162.882"/>
</g>
<!-- Node5&#45;&gt;Node11 -->
<g id="edge10" class="edge"><title>Node5&#45;&gt;Node11</title>
<path fill="none" stroke="midnightblue" d="M766.652,-484.629C842.481,-480.111 978.867,-467.713 1015,-436 1037.72,-416.062 1035,-401.225 1035,-371 1035,-371 1035,-371 1035,-313 1035,-256.377 968.352,-227.708 917.553,-214.08"/>
<polygon fill="midnightblue" stroke="midnightblue" points="918.183,-210.629 907.629,-211.551 916.455,-217.412 918.183,-210.629"/>
</g>
<!-- Node23 -->
<g id="node23" class="node"><title>Node23</title>
<g id="a_node23"><a xlink:href="../../de/d41/PadPos_8h.html" target="_top" xlink:title="TPCBase/PadPos.h">
<polygon fill="none" stroke="black" points="630.5,-304.5 630.5,-323.5 735.5,-323.5 735.5,-304.5 630.5,-304.5"/>
<text text-anchor="middle" x="683" y="-311.5" font-family="Helvetica,sans-Serif" font-size="10.00">TPCBase/PadPos.h</text>
</a>
</g>
</g>
<!-- Node5&#45;&gt;Node23 -->
<g id="edge25" class="edge"><title>Node5&#45;&gt;Node23</title>
<path fill="none" stroke="midnightblue" d="M693.906,-478.428C676.98,-470.284 654.39,-456.256 644,-436 625.957,-400.824 652.255,-355.637 669.678,-331.667"/>
<polygon fill="midnightblue" stroke="midnightblue" points="672.554,-333.667 675.81,-323.585 666.977,-329.436 672.554,-333.667"/>
</g>
<!-- Node24 -->
<g id="node24" class="node"><title>Node24</title>
<g id="a_node24"><a xlink:href="../../dd/d0b/PadSecPos_8h.html" target="_top" xlink:title="TPCBase/PadSecPos.h">
<polygon fill="none" stroke="black" points="337,-360.5 337,-379.5 459,-379.5 459,-360.5 337,-360.5"/>
<text text-anchor="middle" x="398" y="-367.5" font-family="Helvetica,sans-Serif" font-size="10.00">TPCBase/PadSecPos.h</text>
</a>
</g>
</g>
<!-- Node5&#45;&gt;Node24 -->
<g id="edge26" class="edge"><title>Node5&#45;&gt;Node24</title>
<path fill="none" stroke="midnightblue" d="M663.387,-484.328C588.776,-479.449 455.788,-466.625 420,-436 406.584,-424.519 401.328,-404.544 399.281,-389.758"/>
<polygon fill="midnightblue" stroke="midnightblue" points="402.751,-389.286 398.259,-379.69 395.787,-389.993 402.751,-389.286"/>
</g>
<!-- Node5&#45;&gt;Node25 -->
<g id="edge52" class="edge"><title>Node5&#45;&gt;Node25</title>
<path fill="none" stroke="midnightblue" d="M663.262,-483.924C562.924,-477.429 349.781,-460.84 328,-436 286.879,-389.104 335.954,-309.955 361.013,-275.667"/>
<polygon fill="midnightblue" stroke="midnightblue" points="363.863,-277.701 367.075,-267.604 358.268,-273.494 363.863,-277.701"/>
</g>
<!-- Node27 -->
<g id="node27" class="node"><title>Node27</title>
<g id="a_node27"><a xlink:href="../../da/d61/PadROCPos_8h.html" target="_top" xlink:title="TPCBase/PadROCPos.h">
<polygon fill="none" stroke="black" points="703,-360.5 703,-379.5 831,-379.5 831,-360.5 703,-360.5"/>
<text text-anchor="middle" x="767" y="-367.5" font-family="Helvetica,sans-Serif" font-size="10.00">TPCBase/PadROCPos.h</text>
</a>
</g>
</g>
<!-- Node5&#45;&gt;Node27 -->
<g id="edge31" class="edge"><title>Node5&#45;&gt;Node27</title>
<path fill="none" stroke="midnightblue" d="M735.806,-478.349C752.499,-470.157 774.774,-456.103 785,-436 792.69,-420.883 785.916,-402.064 778.583,-388.572"/>
<polygon fill="midnightblue" stroke="midnightblue" points="781.483,-386.601 773.344,-379.818 775.476,-390.196 781.483,-386.601"/>
</g>
<!-- Node29 -->
<g id="node29" class="node"><title>Node29</title>
<g id="a_node29"><a xlink:href="../../d3/d54/DigitPos_8h.html" target="_top" xlink:title="TPCBase/DigitPos.h">
<polygon fill="none" stroke="black" points="429,-416.5 429,-435.5 537,-435.5 537,-416.5 429,-416.5"/>
<text text-anchor="middle" x="483" y="-423.5" font-family="Helvetica,sans-Serif" font-size="10.00">TPCBase/DigitPos.h</text>
</a>
</g>
</g>
<!-- Node5&#45;&gt;Node29 -->
<g id="edge37" class="edge"><title>Node5&#45;&gt;Node29</title>
<path fill="none" stroke="midnightblue" d="M681.76,-478.403C640.758,-467.799 570.971,-449.751 525.946,-438.107"/>
<polygon fill="midnightblue" stroke="midnightblue" points="526.736,-434.696 516.178,-435.581 524.983,-441.473 526.736,-434.696"/>
</g>
<!-- Node31 -->
<g id="node31" class="node"><title>Node31</title>
<g id="a_node31"><a xlink:href="../../d1/d1f/FECInfo_8h.html" target="_top" xlink:title="TPCBase/FECInfo.h">
<polygon fill="none" stroke="black" points="175.5,-248.5 175.5,-267.5 282.5,-267.5 282.5,-248.5 175.5,-248.5"/>
<text text-anchor="middle" x="229" y="-255.5" font-family="Helvetica,sans-Serif" font-size="10.00">TPCBase/FECInfo.h</text>
</a>
</g>
</g>
<!-- Node5&#45;&gt;Node31 -->
<g id="edge45" class="edge"><title>Node5&#45;&gt;Node31</title>
<path fill="none" stroke="midnightblue" d="M663.19,-486.476C567.508,-484.545 367.836,-475.725 313,-436 259.329,-397.119 238.697,-314.89 231.902,-277.821"/>
<polygon fill="midnightblue" stroke="midnightblue" points="235.337,-277.14 230.216,-267.865 228.435,-278.308 235.337,-277.14"/>
</g>
<!-- Node5&#45;&gt;Node32 -->
<g id="edge47" class="edge"><title>Node5&#45;&gt;Node32</title>
<path fill="none" stroke="midnightblue" d="M747.094,-478.403C786.599,-467.822 853.779,-449.827 897.261,-438.18"/>
<polygon fill="midnightblue" stroke="midnightblue" points="898.212,-441.549 906.966,-435.581 896.401,-434.787 898.212,-441.549"/>
</g>
<!-- Node33 -->
<g id="node33" class="node"><title>Node33</title>
<g id="a_node33"><a xlink:href="../../d6/d42/PartitionInfo_8h.html" target="_top" xlink:title="TPCBase/PartitionInfo.h">
<polygon fill="none" stroke="black" points="653.5,-416.5 653.5,-435.5 776.5,-435.5 776.5,-416.5 653.5,-416.5"/>
<text text-anchor="middle" x="715" y="-423.5" font-family="Helvetica,sans-Serif" font-size="10.00">TPCBase/PartitionInfo.h</text>
</a>
</g>
</g>
<!-- Node5&#45;&gt;Node33 -->
<g id="edge51" class="edge"><title>Node5&#45;&gt;Node33</title>
<path fill="none" stroke="midnightblue" d="M715,-478.403C715,-469.938 715,-456.728 715,-445.82"/>
<polygon fill="midnightblue" stroke="midnightblue" points="718.5,-445.581 715,-435.581 711.5,-445.581 718.5,-445.581"/>
</g>
<!-- Node11&#45;&gt;Node10 -->
<g id="edge11" class="edge"><title>Node11&#45;&gt;Node10</title>
<path fill="none" stroke="midnightblue" d="M889.046,-192.444C920.937,-182.714 972.889,-166.864 1006.24,-156.688"/>
<polygon fill="midnightblue" stroke="midnightblue" points="1007.41,-159.991 1015.96,-153.725 1005.37,-153.296 1007.41,-159.991"/>
</g>
<!-- Node12 -->
<g id="node12" class="node"><title>Node12</title>
<g id="a_node12"><a xlink:href="../../d2/dd0/Cartesian2D_8h.html" target="_top" xlink:title="MathUtils/Cartesian2D.h">
<polygon fill="none" stroke="black" points="1242.5,-74.5 1242.5,-93.5 1367.5,-93.5 1367.5,-74.5 1242.5,-74.5"/>
<text text-anchor="middle" x="1305" y="-81.5" font-family="Helvetica,sans-Serif" font-size="10.00">MathUtils/Cartesian2D.h</text>
</a>
</g>
</g>
<!-- Node11&#45;&gt;Node12 -->
<g id="edge12" class="edge"><title>Node11&#45;&gt;Node12</title>
<path fill="none" stroke="midnightblue" d="M876.681,-192.37C902.871,-178.34 957.524,-150.679 1007,-136 1104.51,-107.07 1132.96,-118.377 1233,-100 1240.42,-98.6365 1248.25,-97.1031 1255.91,-95.5509"/>
<polygon fill="midnightblue" stroke="midnightblue" points="1256.74,-98.9542 1265.83,-93.5123 1255.33,-92.0976 1256.74,-98.9542"/>
</g>
<!-- Node15 -->
<g id="node15" class="node"><title>Node15</title>
<g id="a_node15"><a xlink:href="../../dd/d76/Cartesian3D_8h.html" target="_top" xlink:title="MathUtils/Cartesian3D.h">
<polygon fill="none" stroke="black" points="669.5,-136.5 669.5,-155.5 794.5,-155.5 794.5,-136.5 669.5,-136.5"/>
<text text-anchor="middle" x="732" y="-143.5" font-family="Helvetica,sans-Serif" font-size="10.00">MathUtils/Cartesian3D.h</text>
</a>
</g>
</g>
<!-- Node11&#45;&gt;Node15 -->
<g id="edge15" class="edge"><title>Node11&#45;&gt;Node15</title>
<path fill="none" stroke="midnightblue" d="M840.56,-192.444C819.33,-183.557 785.901,-169.563 761.745,-159.451"/>
<polygon fill="midnightblue" stroke="midnightblue" points="762.921,-156.149 752.345,-155.516 760.218,-162.606 762.921,-156.149"/>
</g>
<!-- Node13 -->
<g id="node13" class="node"><title>Node13</title>
<polygon fill="none" stroke="#bfbfbf" points="1138.5,-1 1138.5,-31 1289.5,-31 1289.5,-1 1138.5,-1"/>
<text text-anchor="start" x="1146.5" y="-19" font-family="Helvetica,sans-Serif" font-size="10.00">Math/GenVector/Displacement</text>
<text text-anchor="middle" x="1214" y="-8" font-family="Helvetica,sans-Serif" font-size="10.00">Vector2D.h</text>
</g>
<!-- Node12&#45;&gt;Node13 -->
<g id="edge13" class="edge"><title>Node12&#45;&gt;Node13</title>
<path fill="none" stroke="midnightblue" d="M1293.1,-74.3717C1280.22,-65.0286 1259.22,-49.7966 1242.09,-37.375"/>
<polygon fill="midnightblue" stroke="midnightblue" points="1243.7,-34.2194 1233.55,-31.1815 1239.59,-39.8859 1243.7,-34.2194"/>
</g>
<!-- Node14 -->
<g id="node14" class="node"><title>Node14</title>
<polygon fill="none" stroke="#bfbfbf" points="1308,-6.5 1308,-25.5 1484,-25.5 1484,-6.5 1308,-6.5"/>
<text text-anchor="middle" x="1396" y="-13.5" font-family="Helvetica,sans-Serif" font-size="10.00">Math/GenVector/PositionVector2D.h</text>
</g>
<!-- Node12&#45;&gt;Node14 -->
<g id="edge14" class="edge"><title>Node12&#45;&gt;Node14</title>
<path fill="none" stroke="midnightblue" d="M1316.9,-74.3717C1331.88,-63.5015 1357.86,-44.6602 1375.94,-31.5474"/>
<polygon fill="midnightblue" stroke="midnightblue" points="1378.06,-34.3349 1384.1,-25.6305 1373.95,-28.6684 1378.06,-34.3349"/>
</g>
<!-- Node15&#45;&gt;Node4 -->
<g id="edge21" class="edge"><title>Node15&#45;&gt;Node4</title>
<path fill="none" stroke="midnightblue" d="M669.319,-145.322C567.942,-144.608 362.263,-138.034 193,-100 189.493,-99.2119 185.88,-98.1845 182.327,-97.0367"/>
<polygon fill="midnightblue" stroke="midnightblue" points="183.204,-93.6342 172.61,-93.5818 180.859,-100.23 183.204,-93.6342"/>
</g>
<!-- Node15&#45;&gt;Node12 -->
<g id="edge24" class="edge"><title>Node15&#45;&gt;Node12</title>
<path fill="none" stroke="midnightblue" d="M794.76,-141.703C889.916,-136.177 1076.22,-123.293 1233,-100 1241.17,-98.7861 1249.81,-97.2277 1258.16,-95.5766"/>
<polygon fill="midnightblue" stroke="midnightblue" points="1259.05,-98.9664 1268.15,-93.5334 1257.65,-92.1083 1259.05,-98.9664"/>
</g>
<!-- Node16 -->
<g id="node16" class="node"><title>Node16</title>
<polygon fill="none" stroke="#bfbfbf" points="879.5,-69 879.5,-99 1030.5,-99 1030.5,-69 879.5,-69"/>
<text text-anchor="start" x="887.5" y="-87" font-family="Helvetica,sans-Serif" font-size="10.00">Math/GenVector/Displacement</text>
<text text-anchor="middle" x="955" y="-76" font-family="Helvetica,sans-Serif" font-size="10.00">Vector3D.h</text>
</g>
<!-- Node15&#45;&gt;Node16 -->
<g id="edge16" class="edge"><title>Node15&#45;&gt;Node16</title>
<path fill="none" stroke="midnightblue" d="M763.95,-136.403C797.51,-127.374 851.132,-112.947 893.037,-101.672"/>
<polygon fill="midnightblue" stroke="midnightblue" points="894.125,-105.003 902.873,-99.0253 892.307,-98.2438 894.125,-105.003"/>
</g>
<!-- Node17 -->
<g id="node17" class="node"><title>Node17</title>
<polygon fill="none" stroke="#bfbfbf" points="1049,-74.5 1049,-93.5 1225,-93.5 1225,-74.5 1049,-74.5"/>
<text text-anchor="middle" x="1137" y="-81.5" font-family="Helvetica,sans-Serif" font-size="10.00">Math/GenVector/PositionVector3D.h</text>
</g>
<!-- Node15&#45;&gt;Node17 -->
<g id="edge17" class="edge"><title>Node15&#45;&gt;Node17</title>
<path fill="none" stroke="midnightblue" d="M790.87,-136.484C852.682,-127.516 952.697,-112.93 1039,-100 1049.62,-98.4087 1060.89,-96.702 1071.85,-95.0306"/>
<polygon fill="midnightblue" stroke="midnightblue" points="1072.45,-98.4795 1081.81,-93.51 1071.4,-91.5597 1072.45,-98.4795"/>
</g>
<!-- Node18 -->
<g id="node18" class="node"><title>Node18</title>
<polygon fill="none" stroke="#bfbfbf" points="265.5,-74.5 265.5,-93.5 414.5,-93.5 414.5,-74.5 265.5,-74.5"/>
<text text-anchor="middle" x="340" y="-81.5" font-family="Helvetica,sans-Serif" font-size="10.00">Math/GenVector/Rotation3D.h</text>
</g>
<!-- Node15&#45;&gt;Node18 -->
<g id="edge18" class="edge"><title>Node15&#45;&gt;Node18</title>
<path fill="none" stroke="midnightblue" d="M669.675,-136.483C607.395,-127.834 508.947,-113.787 424,-100 414.98,-98.536 405.429,-96.9066 396.127,-95.2765"/>
<polygon fill="midnightblue" stroke="midnightblue" points="396.626,-91.8104 386.169,-93.5152 395.407,-98.7034 396.626,-91.8104"/>
</g>
<!-- Node19 -->
<g id="node19" class="node"><title>Node19</title>
<polygon fill="none" stroke="#bfbfbf" points="433,-74.5 433,-93.5 589,-93.5 589,-74.5 433,-74.5"/>
<text text-anchor="middle" x="511" y="-81.5" font-family="Helvetica,sans-Serif" font-size="10.00">Math/GenVector/Transform3D.h</text>
</g>
<!-- Node15&#45;&gt;Node19 -->
<g id="edge19" class="edge"><title>Node15&#45;&gt;Node19</title>
<path fill="none" stroke="midnightblue" d="M700.336,-136.403C661.442,-125.844 595.358,-107.903 552.452,-96.2538"/>
<polygon fill="midnightblue" stroke="midnightblue" points="553.173,-92.823 542.605,-93.5806 551.339,-99.5785 553.173,-92.823"/>
</g>
<!-- Node20 -->
<g id="node20" class="node"><title>Node20</title>
<polygon fill="none" stroke="#bfbfbf" points="607,-74.5 607,-93.5 767,-93.5 767,-74.5 607,-74.5"/>
<text text-anchor="middle" x="687" y="-81.5" font-family="Helvetica,sans-Serif" font-size="10.00">Math/GenVector/Translation3D.h</text>
</g>
<!-- Node15&#45;&gt;Node20 -->
<g id="edge20" class="edge"><title>Node15&#45;&gt;Node20</title>
<path fill="none" stroke="midnightblue" d="M725.553,-136.403C718.803,-127.403 708.031,-113.041 699.587,-101.782"/>
<polygon fill="midnightblue" stroke="midnightblue" points="702.235,-99.4806 693.435,-93.5806 696.635,-103.681 702.235,-99.4806"/>
</g>
<!-- Node21 -->
<g id="node21" class="node"><title>Node21</title>
<polygon fill="none" stroke="#bfbfbf" points="785,-74.5 785,-93.5 861,-93.5 861,-74.5 785,-74.5"/>
<text text-anchor="middle" x="823" y="-81.5" font-family="Helvetica,sans-Serif" font-size="10.00">TGeoMatrix.h</text>
</g>
<!-- Node15&#45;&gt;Node21 -->
<g id="edge22" class="edge"><title>Node15&#45;&gt;Node21</title>
<path fill="none" stroke="midnightblue" d="M745.038,-136.403C759.769,-126.691 783.973,-110.732 801.509,-99.1697"/>
<polygon fill="midnightblue" stroke="midnightblue" points="803.564,-102.007 809.986,-93.5806 799.711,-96.1632 803.564,-102.007"/>
</g>
<!-- Node22 -->
<g id="node22" class="node"><title>Node22</title>
<polygon fill="none" stroke="#bfbfbf" points="202.5,-74.5 202.5,-93.5 247.5,-93.5 247.5,-74.5 202.5,-74.5"/>
<text text-anchor="middle" x="225" y="-81.5" font-family="Helvetica,sans-Serif" font-size="10.00">iosfwd</text>
</g>
<!-- Node15&#45;&gt;Node22 -->
<g id="edge23" class="edge"><title>Node15&#45;&gt;Node22</title>
<path fill="none" stroke="midnightblue" d="M669.418,-141.848C558.549,-135.806 332.148,-121.276 256,-100 253.801,-99.3856 251.568,-98.6207 249.361,-97.7639"/>
<polygon fill="midnightblue" stroke="midnightblue" points="250.586,-94.4782 240.028,-93.6011 247.735,-100.871 250.586,-94.4782"/>
</g>
<!-- Node24&#45;&gt;Node23 -->
<g id="edge30" class="edge"><title>Node24&#45;&gt;Node23</title>
<path fill="none" stroke="midnightblue" d="M443.159,-360.444C493.294,-350.944 574.22,-335.611 628.006,-325.42"/>
<polygon fill="midnightblue" stroke="midnightblue" points="628.879,-328.817 638.052,-323.516 627.575,-321.939 628.879,-328.817"/>
</g>
<!-- Node24&#45;&gt;Node25 -->
<g id="edge27" class="edge"><title>Node24&#45;&gt;Node25</title>
<path fill="none" stroke="midnightblue" d="M396.117,-360.368C392.244,-342.617 383.309,-301.666 378.058,-277.597"/>
<polygon fill="midnightblue" stroke="midnightblue" points="381.426,-276.615 375.874,-267.591 374.587,-278.108 381.426,-276.615"/>
</g>
<!-- Node25&#45;&gt;Node11 -->
<g id="edge29" class="edge"><title>Node25&#45;&gt;Node11</title>
<path fill="none" stroke="midnightblue" d="M423.592,-249.858C428.458,-249.208 433.323,-248.577 438,-248 560.552,-232.869 703.464,-218.307 787.862,-210.025"/>
<polygon fill="midnightblue" stroke="midnightblue" points="788.247,-213.504 797.858,-209.046 787.565,-206.537 788.247,-213.504"/>
</g>
<!-- Node26 -->
<g id="node26" class="node"><title>Node26</title>
<g id="a_node26"><a xlink:href="../../d0/dda/DataFormats_2Detectors_2TPC_2include_2DataFormatsTPC_2Constants_8h.html" target="_top" xlink:title="DataFormatsTPC/Constants.h">
<polygon fill="none" stroke="black" points="299,-192.5 299,-211.5 449,-211.5 449,-192.5 299,-192.5"/>
<text text-anchor="middle" x="374" y="-199.5" font-family="Helvetica,sans-Serif" font-size="10.00">DataFormatsTPC/Constants.h</text>
</a>
</g>
</g>
<!-- Node25&#45;&gt;Node26 -->
<g id="edge28" class="edge"><title>Node25&#45;&gt;Node26</title>
<path fill="none" stroke="midnightblue" d="M374,-248.083C374,-241.006 374,-230.861 374,-221.986"/>
<polygon fill="midnightblue" stroke="midnightblue" points="377.5,-221.751 374,-211.751 370.5,-221.751 377.5,-221.751"/>
</g>
<!-- Node27&#45;&gt;Node11 -->
<g id="edge32" class="edge"><title>Node27&#45;&gt;Node11</title>
<path fill="none" stroke="midnightblue" d="M772.054,-360.075C786.978,-333.719 831.057,-255.878 850.999,-220.661"/>
<polygon fill="midnightblue" stroke="midnightblue" points="854.266,-221.994 856.148,-211.568 848.175,-218.545 854.266,-221.994"/>
</g>
<!-- Node27&#45;&gt;Node23 -->
<g id="edge36" class="edge"><title>Node27&#45;&gt;Node23</title>
<path fill="none" stroke="midnightblue" d="M753.504,-360.324C740.4,-351.9 720.288,-338.971 704.893,-329.074"/>
<polygon fill="midnightblue" stroke="midnightblue" points="706.767,-326.118 696.463,-323.655 702.982,-332.006 706.767,-326.118"/>
</g>
<!-- Node28 -->
<g id="node28" class="node"><title>Node28</title>
<g id="a_node28"><a xlink:href="../../dc/d14/ROC_8h.html" target="_top" xlink:title="TPCBase/ROC.h">
<polygon fill="none" stroke="black" points="480.5,-304.5 480.5,-323.5 573.5,-323.5 573.5,-304.5 480.5,-304.5"/>
<text text-anchor="middle" x="527" y="-311.5" font-family="Helvetica,sans-Serif" font-size="10.00">TPCBase/ROC.h</text>
</a>
</g>
</g>
<!-- Node27&#45;&gt;Node28 -->
<g id="edge33" class="edge"><title>Node27&#45;&gt;Node28</title>
<path fill="none" stroke="midnightblue" d="M728.971,-360.444C687.192,-351.043 620.018,-335.929 574.73,-325.739"/>
<polygon fill="midnightblue" stroke="midnightblue" points="575.375,-322.297 564.851,-323.516 573.839,-329.126 575.375,-322.297"/>
</g>
<!-- Node28&#45;&gt;Node11 -->
<g id="edge34" class="edge"><title>Node28&#45;&gt;Node11</title>
<path fill="none" stroke="midnightblue" d="M532.492,-304.118C541.911,-289.725 562.606,-261.553 588,-248 621.657,-230.037 718.654,-217.04 787.429,-209.763"/>
<polygon fill="midnightblue" stroke="midnightblue" points="788.2,-213.202 797.785,-208.687 787.477,-206.239 788.2,-213.202"/>
</g>
<!-- Node28&#45;&gt;Node25 -->
<g id="edge35" class="edge"><title>Node28&#45;&gt;Node25</title>
<path fill="none" stroke="midnightblue" d="M502.757,-304.444C477.129,-295.399 436.515,-281.064 407.762,-270.916"/>
<polygon fill="midnightblue" stroke="midnightblue" points="408.725,-267.544 398.13,-267.516 406.395,-274.145 408.725,-267.544"/>
</g>
<!-- Node29&#45;&gt;Node11 -->
<g id="edge38" class="edge"><title>Node29&#45;&gt;Node11</title>
<path fill="none" stroke="midnightblue" d="M512.679,-416.499C533.235,-409.414 560.182,-397.606 579,-380 607.181,-353.634 592.297,-329.798 621,-304 675.486,-255.029 757.164,-227.585 809.773,-214.037"/>
<polygon fill="midnightblue" stroke="midnightblue" points="810.715,-217.41 819.568,-211.589 809.017,-210.619 810.715,-217.41"/>
</g>
<!-- Node29&#45;&gt;Node23 -->
<g id="edge43" class="edge"><title>Node29&#45;&gt;Node23</title>
<path fill="none" stroke="midnightblue" d="M520.368,-416.488C547.367,-409.312 584.028,-397.399 613,-380 634.868,-366.867 655.728,-346.051 668.897,-331.525"/>
<polygon fill="midnightblue" stroke="midnightblue" points="671.718,-333.618 675.711,-323.805 666.47,-328.986 671.718,-333.618"/>
</g>
<!-- Node29&#45;&gt;Node24 -->
<g id="edge44" class="edge"><title>Node29&#45;&gt;Node24</title>
<path fill="none" stroke="midnightblue" d="M469.343,-416.324C456.084,-407.9 435.732,-394.971 420.154,-385.074"/>
<polygon fill="midnightblue" stroke="midnightblue" points="421.94,-382.063 411.623,-379.655 418.187,-387.971 421.94,-382.063"/>
</g>
<!-- Node30 -->
<g id="node30" class="node"><title>Node30</title>
<g id="a_node30"><a xlink:href="../../df/d26/CRU_8h.html" target="_top" xlink:title="TPCBase/CRU.h">
<polygon fill="none" stroke="black" points="477.5,-360.5 477.5,-379.5 570.5,-379.5 570.5,-360.5 477.5,-360.5"/>
<text text-anchor="middle" x="524" y="-367.5" font-family="Helvetica,sans-Serif" font-size="10.00">TPCBase/CRU.h</text>
</a>
</g>
</g>
<!-- Node29&#45;&gt;Node30 -->
<g id="edge39" class="edge"><title>Node29&#45;&gt;Node30</title>
<path fill="none" stroke="midnightblue" d="M489.77,-416.083C495.562,-408.455 504.058,-397.264 511.138,-387.941"/>
<polygon fill="midnightblue" stroke="midnightblue" points="514.096,-389.832 517.356,-379.751 508.521,-385.599 514.096,-389.832"/>
</g>
<!-- Node30&#45;&gt;Node11 -->
<g id="edge40" class="edge"><title>Node30&#45;&gt;Node11</title>
<path fill="none" stroke="midnightblue" d="M507.757,-360.305C488.008,-348.51 458.738,-326.337 471,-304 493.308,-263.362 515.569,-264.215 559,-248 633.797,-220.074 725.118,-209.432 787.628,-205.402"/>
<polygon fill="midnightblue" stroke="midnightblue" points="788.021,-208.885 797.792,-204.789 787.6,-201.897 788.021,-208.885"/>
</g>
<!-- Node30&#45;&gt;Node25 -->
<g id="edge41" class="edge"><title>Node30&#45;&gt;Node25</title>
<path fill="none" stroke="midnightblue" d="M503.498,-360.461C485.389,-352.424 458.716,-339.348 438,-324 418.821,-309.791 400.041,-289.783 387.839,-275.729"/>
<polygon fill="midnightblue" stroke="midnightblue" points="390.288,-273.207 381.146,-267.853 384.954,-277.74 390.288,-273.207"/>
</g>
<!-- Node30&#45;&gt;Node28 -->
<g id="edge42" class="edge"><title>Node30&#45;&gt;Node28</title>
<path fill="none" stroke="midnightblue" d="M524.495,-360.083C524.889,-353.006 525.452,-342.861 525.945,-333.986"/>
<polygon fill="midnightblue" stroke="midnightblue" points="529.454,-333.93 526.514,-323.751 522.464,-333.542 529.454,-333.93"/>
</g>
<!-- Node31&#45;&gt;Node22 -->
<g id="edge46" class="edge"><title>Node31&#45;&gt;Node22</title>
<path fill="none" stroke="midnightblue" d="M228.796,-248.234C228.176,-221.548 226.299,-140.877 225.439,-103.893"/>
<polygon fill="midnightblue" stroke="midnightblue" points="228.93,-103.46 225.199,-93.5442 221.932,-103.623 228.93,-103.46"/>
</g>
<!-- Node32&#45;&gt;Node7 -->
<g id="edge48" class="edge"><title>Node32&#45;&gt;Node7</title>
<path fill="none" stroke="midnightblue" d="M928.075,-416.324C917.825,-408.185 902.279,-395.839 889.999,-386.087"/>
<polygon fill="midnightblue" stroke="midnightblue" points="892.132,-383.312 882.124,-379.834 887.779,-388.794 892.132,-383.312"/>
</g>
<!-- Node32&#45;&gt;Node11 -->
<g id="edge49" class="edge"><title>Node32&#45;&gt;Node11</title>
<path fill="none" stroke="midnightblue" d="M937.47,-416.474C935.123,-403.944 930.244,-379.889 924,-360 907.782,-308.341 882.25,-249.663 869.23,-220.867"/>
<polygon fill="midnightblue" stroke="midnightblue" points="872.373,-219.325 865.039,-211.679 866.004,-222.23 872.373,-219.325"/>
</g>
<!-- Node32&#45;&gt;Node23 -->
<g id="edge50" class="edge"><title>Node32&#45;&gt;Node23</title>
<path fill="none" stroke="midnightblue" d="M936.46,-416.259C931.861,-402.067 920.75,-374.18 901,-360 876.545,-342.443 801.11,-329.588 745.806,-322.216"/>
<polygon fill="midnightblue" stroke="midnightblue" points="746.099,-318.724 735.731,-320.903 745.195,-325.666 746.099,-318.724"/>
</g>
<!-- Node34&#45;&gt;Node8 -->
<g id="edge55" class="edge"><title>Node34&#45;&gt;Node8</title>
<path fill="none" stroke="midnightblue" d="M1101.77,-478.403C1125.27,-468.187 1164.66,-451.061 1191.46,-439.409"/>
<polygon fill="midnightblue" stroke="midnightblue" points="1192.93,-442.584 1200.71,-435.387 1190.14,-436.165 1192.93,-442.584"/>
</g>
<!-- Node34&#45;&gt;Node11 -->
<g id="edge56" class="edge"><title>Node34&#45;&gt;Node11</title>
<path fill="none" stroke="midnightblue" d="M1091.32,-478.383C1109.73,-460.364 1149,-416.583 1149,-371 1149,-371 1149,-371 1149,-313 1149,-282.205 1148.69,-267.673 1125,-248 1096.63,-224.446 1002.08,-212.804 934.239,-207.356"/>
<polygon fill="midnightblue" stroke="midnightblue" points="934.255,-203.847 924.015,-206.565 933.715,-210.826 934.255,-203.847"/>
</g>
<!-- Node35&#45;&gt;Node8 -->
<g id="edge58" class="edge"><title>Node35&#45;&gt;Node8</title>
<path fill="none" stroke="midnightblue" d="M1383.63,-478.403C1347.81,-467.148 1285.28,-447.507 1248.77,-436.037"/>
<polygon fill="midnightblue" stroke="midnightblue" points="1249.79,-432.691 1239.2,-433.033 1247.7,-439.369 1249.79,-432.691"/>
</g>
<!-- Node36&#45;&gt;Node8 -->
<g id="edge60" class="edge"><title>Node36&#45;&gt;Node8</title>
<path fill="none" stroke="midnightblue" d="M1240.56,-478.403C1237.1,-469.76 1231.67,-456.17 1227.25,-445.134"/>
<polygon fill="midnightblue" stroke="midnightblue" points="1230.4,-443.565 1223.43,-435.581 1223.9,-446.165 1230.4,-443.565"/>
</g>
</g>
</svg>
