<?xml version="1.0" encoding="UTF-8" standalone="no"?>
<!DOCTYPE svg PUBLIC "-//W3C//DTD SVG 1.1//EN"
 "http://www.w3.org/Graphics/SVG/1.1/DTD/svg11.dtd">
<!-- Generated by graphviz version 2.36.0 (20140111.2315)
 -->
<!-- Title: /home/travis/build/AliceO2Group/AliceO2/Common/MathUtils/include/MathUtils/MathBase.h Pages: 1 -->
<svg width="757pt" height="118pt"
 viewBox="0.00 0.00 757.00 118.00" xmlns="http://www.w3.org/2000/svg" xmlns:xlink="http://www.w3.org/1999/xlink">
<g id="graph0" class="graph" transform="scale(1 1) rotate(0) translate(4 114)">
<title>/home/travis/build/AliceO2Group/AliceO2/Common/MathUtils/include/MathUtils/MathBase.h</title>
<!-- Node1 -->
<g id="node1" class="node"><title>Node1</title>
<polygon fill="#bfbfbf" stroke="black" points="250,-57 250,-109 388,-109 388,-57 250,-57"/>
<text text-anchor="start" x="258" y="-97" font-family="Helvetica,sans-Serif" font-size="10.00">/home/travis/build</text>
<text text-anchor="start" x="258" y="-86" font-family="Helvetica,sans-Serif" font-size="10.00">/AliceO2Group/AliceO2</text>
<text text-anchor="start" x="258" y="-75" font-family="Helvetica,sans-Serif" font-size="10.00">/Common/MathUtils/include</text>
<text text-anchor="middle" x="319" y="-64" font-family="Helvetica,sans-Serif" font-size="10.00">/MathUtils/MathBase.h</text>
</g>
<!-- Node2 -->
<g id="node2" class="node"><title>Node2</title>
<polygon fill="none" stroke="#bfbfbf" points="0,-0.5 0,-19.5 44,-19.5 44,-0.5 0,-0.5"/>
<text text-anchor="middle" x="22" y="-7.5" font-family="Helvetica,sans-Serif" font-size="10.00">cmath</text>
</g>
<!-- Node1&#45;&gt;Node2 -->
<g id="edge1" class="edge"><title>Node1&#45;&gt;Node2</title>
<path fill="none" stroke="midnightblue" d="M249.858,-66.9505C198.336,-55.49 126.052,-38.8955 54.0116,-20.1675"/>
<polygon fill="midnightblue" stroke="midnightblue" points="54.8716,-16.7748 44.3115,-17.6323 53.1015,-23.5473 54.8716,-16.7748"/>
</g>
<!-- Node3 -->
<g id="node3" class="node"><title>Node3</title>
<polygon fill="none" stroke="#bfbfbf" points="62.5,-0.5 62.5,-19.5 113.5,-19.5 113.5,-0.5 62.5,-0.5"/>
<text text-anchor="middle" x="88" y="-7.5" font-family="Helvetica,sans-Serif" font-size="10.00">numeric</text>
</g>
<!-- Node1&#45;&gt;Node3 -->
<g id="edge2" class="edge"><title>Node1&#45;&gt;Node3</title>
<path fill="none" stroke="midnightblue" d="M249.692,-60.6977C208.142,-47.9267 157.042,-32.2207 123.55,-21.9267"/>
<polygon fill="midnightblue" stroke="midnightblue" points="124.338,-18.5074 113.751,-18.9149 122.282,-25.1985 124.338,-18.5074"/>
</g>
<!-- Node4 -->
<g id="node4" class="node"><title>Node4</title>
<polygon fill="none" stroke="#bfbfbf" points="132,-0.5 132,-19.5 188,-19.5 188,-0.5 132,-0.5"/>
<text text-anchor="middle" x="160" y="-7.5" font-family="Helvetica,sans-Serif" font-size="10.00">algorithm</text>
</g>
<!-- Node1&#45;&gt;Node4 -->
<g id="edge3" class="edge"><title>Node1&#45;&gt;Node4</title>
<path fill="none" stroke="midnightblue" d="M262.943,-56.9681C237.78,-45.7321 209.177,-32.9597 188.519,-23.7347"/>
<polygon fill="midnightblue" stroke="midnightblue" points="189.904,-20.5205 179.346,-19.6389 187.05,-26.9122 189.904,-20.5205"/>
</g>
<!-- Node5 -->
<g id="node5" class="node"><title>Node5</title>
<polygon fill="none" stroke="#bfbfbf" points="206,-0.5 206,-19.5 250,-19.5 250,-0.5 206,-0.5"/>
<text text-anchor="middle" x="228" y="-7.5" font-family="Helvetica,sans-Serif" font-size="10.00">vector</text>
</g>
<!-- Node1&#45;&gt;Node5 -->
<g id="edge4" class="edge"><title>Node1&#45;&gt;Node5</title>
<path fill="none" stroke="midnightblue" d="M286.917,-56.9681C273.705,-46.6601 258.836,-35.0589 247.341,-26.09"/>
<polygon fill="midnightblue" stroke="midnightblue" points="249.328,-23.2015 239.291,-19.8095 245.022,-28.7205 249.328,-23.2015"/>
</g>
<!-- Node6 -->
<g id="node6" class="node"><title>Node6</title>
<polygon fill="none" stroke="#bfbfbf" points="268,-0.5 268,-19.5 306,-19.5 306,-0.5 268,-0.5"/>
<text text-anchor="middle" x="287" y="-7.5" font-family="Helvetica,sans-Serif" font-size="10.00">array</text>
</g>
<!-- Node1&#45;&gt;Node6 -->
<g id="edge5" class="edge"><title>Node1&#45;&gt;Node6</title>
<path fill="none" stroke="midnightblue" d="M307.628,-56.7681C303.49,-47.587 298.9,-37.4034 295.103,-28.9775"/>
<polygon fill="midnightblue" stroke="midnightblue" points="298.247,-27.4358 290.947,-19.7572 291.865,-30.3121 298.247,-27.4358"/>
</g>
<!-- Node7 -->
<g id="node7" class="node"><title>Node7</title>
<polygon fill="none" stroke="#bfbfbf" points="324,-0.5 324,-19.5 380,-19.5 380,-0.5 324,-0.5"/>
<text text-anchor="middle" x="352" y="-7.5" font-family="Helvetica,sans-Serif" font-size="10.00">Rtypes.h</text>
</g>
<!-- Node1&#45;&gt;Node7 -->
<g id="edge6" class="edge"><title>Node1&#45;&gt;Node7</title>
<path fill="none" stroke="midnightblue" d="M330.727,-56.7681C334.995,-47.587 339.728,-37.4034 343.644,-28.9775"/>
<polygon fill="midnightblue" stroke="midnightblue" points="346.889,-30.3007 347.93,-19.7572 340.541,-27.3503 346.889,-30.3007"/>
</g>
<!-- Node8 -->
<g id="node8" class="node"><title>Node8</title>
<polygon fill="none" stroke="#bfbfbf" points="398,-0.5 398,-19.5 478,-19.5 478,-0.5 398,-0.5"/>
<text text-anchor="middle" x="438" y="-7.5" font-family="Helvetica,sans-Serif" font-size="10.00">TLinearFitter.h</text>
</g>
<!-- Node1&#45;&gt;Node8 -->
<g id="edge7" class="edge"><title>Node1&#45;&gt;Node8</title>
<path fill="none" stroke="midnightblue" d="M360.955,-56.9681C379.02,-46.1897 399.455,-33.9975 414.738,-24.879"/>
<polygon fill="midnightblue" stroke="midnightblue" points="416.726,-27.7683 423.521,-19.6389 413.14,-21.757 416.726,-27.7683"/>
</g>
<!-- Node9 -->
<g id="node9" class="node"><title>Node9</title>
<polygon fill="none" stroke="#bfbfbf" points="496.5,-0.5 496.5,-19.5 563.5,-19.5 563.5,-0.5 496.5,-0.5"/>
<text text-anchor="middle" x="530" y="-7.5" font-family="Helvetica,sans-Serif" font-size="10.00">TVectorD.h</text>
</g>
<!-- Node1&#45;&gt;Node9 -->
<g id="edge8" class="edge"><title>Node1&#45;&gt;Node9</title>
<path fill="none" stroke="midnightblue" d="M388.089,-58.7519C423.783,-46.7411 465.816,-32.5976 494.824,-22.8366"/>
<polygon fill="midnightblue" stroke="midnightblue" points="496.148,-26.084 504.509,-19.5775 493.915,-19.4496 496.148,-26.084"/>
</g>
<!-- Node10 -->
<g id="node10" class="node"><title>Node10</title>
<polygon fill="none" stroke="#bfbfbf" points="581.5,-0.5 581.5,-19.5 634.5,-19.5 634.5,-0.5 581.5,-0.5"/>
<text text-anchor="middle" x="608" y="-7.5" font-family="Helvetica,sans-Serif" font-size="10.00">TMath.h</text>
</g>
<!-- Node1&#45;&gt;Node10 -->
<g id="edge9" class="edge"><title>Node1&#45;&gt;Node10</title>
<path fill="none" stroke="midnightblue" d="M388.014,-65.1794C436.505,-53.3393 503.173,-37.0188 571.219,-20.1849"/>
<polygon fill="midnightblue" stroke="midnightblue" points="572.401,-23.4981 581.267,-17.6979 570.719,-16.7032 572.401,-23.4981"/>
</g>
<!-- Node11 -->
<g id="node11" class="node"><title>Node11</title>
<polygon fill="none" stroke="#bfbfbf" points="652.5,-0.5 652.5,-19.5 749.5,-19.5 749.5,-0.5 652.5,-0.5"/>
<text text-anchor="middle" x="701" y="-7.5" font-family="Helvetica,sans-Serif" font-size="10.00">fairlogger/Logger.h</text>
</g>
<!-- Node1&#45;&gt;Node11 -->
<g id="edge10" class="edge"><title>Node1&#45;&gt;Node11</title>
<path fill="none" stroke="midnightblue" d="M388.177,-69.1424C461.799,-55.4588 576.866,-34.072 645.012,-21.4062"/>
<polygon fill="midnightblue" stroke="midnightblue" points="645.932,-24.7953 655.124,-19.5268 644.652,-17.9131 645.932,-24.7953"/>
</g>
</g>
</svg>
