<?xml version="1.0" encoding="UTF-8" standalone="no"?>
<!DOCTYPE svg PUBLIC "-//W3C//DTD SVG 1.1//EN"
 "http://www.w3.org/Graphics/SVG/1.1/DTD/svg11.dtd">
<!-- Generated by graphviz version 2.36.0 (20140111.2315)
 -->
<!-- Title: /home/travis/build/AliceO2Group/AliceO2/Utilities/Publishers/src/DataPublisherDevice.cxx Pages: 1 -->
<!--zoomable 422 -->
<svg id="main" version="1.1" xmlns="http://www.w3.org/2000/svg" xmlns:xlink="http://www.w3.org/1999/xlink" xml:space="preserve" onload="init(evt)">
<style type="text/css"><![CDATA[
.edge:hover path { stroke: red; }
.edge:hover polygon { stroke: red; fill: red; }
]]></style>
<script type="text/javascript"><![CDATA[
var edges = document.getElementsByTagName('g');
if (edges && edges.length) {
  for (var i=0;i<edges.length;i++) {
    if (edges[i].id.substr(0,4)=='edge') {
      edges[i].setAttribute('class','edge');
    }
  }
}
]]></script>
        <defs>
                <circle id="rim" cx="0" cy="0" r="7"/>
                <circle id="rim2" cx="0" cy="0" r="3.5"/>
                <g id="zoomPlus">
                        <use xlink:href="#rim" fill="#404040">
                                <set attributeName="fill" to="#808080" begin="zoomplus.mouseover" end="zoomplus.mouseout"/>
                        </use>
                        <path d="M-4,0h8M0,-4v8" fill="none" stroke="white" stroke-width="1.5" pointer-events="none"/>
                </g>
                <g id="zoomMin">
                        <use xlink:href="#rim" fill="#404040">
                                <set attributeName="fill" to="#808080" begin="zoomminus.mouseover" end="zoomminus.mouseout"/>
                        </use>
                        <path d="M-4,0h8" fill="none" stroke="white" stroke-width="1.5" pointer-events="none"/>
                </g>
                <g id="dirArrow">
                        <path fill="none" stroke="white" stroke-width="1.5" d="M0,-3.0v7 M-2.5,-0.5L0,-3.0L2.5,-0.5"/>
                </g>
               <g id="resetDef">
                       <use xlink:href="#rim2" fill="#404040">
                               <set attributeName="fill" to="#808080" begin="reset.mouseover" end="reset.mouseout"/>
                       </use>
               </g>
        </defs>

<script type="text/javascript">
var viewWidth = 2095;
var viewHeight = 422;
var sectionId = 'dynsection-0';
</script>
<script xlink:href="../../svgpan.js"/>
<svg id="graph" class="graph">
<g id="viewport">
<title>/home/travis/build/AliceO2Group/AliceO2/Utilities/Publishers/src/DataPublisherDevice.cxx</title>
<!-- Node1 -->
<g id="node1" class="node"><title>Node1</title>
<polygon fill="#bfbfbf" stroke="black" points="970.5,-361 970.5,-413 1117.5,-413 1117.5,-361 970.5,-361"/>
<text text-anchor="start" x="978.5" y="-401" font-family="Helvetica,sans-Serif" font-size="10.00">/home/travis/build</text>
<text text-anchor="start" x="978.5" y="-390" font-family="Helvetica,sans-Serif" font-size="10.00">/AliceO2Group/AliceO2</text>
<text text-anchor="start" x="978.5" y="-379" font-family="Helvetica,sans-Serif" font-size="10.00">/Utilities/Publishers</text>
<text text-anchor="middle" x="1044" y="-368" font-family="Helvetica,sans-Serif" font-size="10.00">/src/DataPublisherDevice.cxx</text>
</g>
<!-- Node2 -->
<g id="node2" class="node"><title>Node2</title>
<g id="a_node2"><a xlink:href="../../d8/d9b/DataPublisherDevice_8h.html" target="_top" xlink:title="Utility device for data publishing. ">
<polygon fill="none" stroke="black" points="789.5,-293 789.5,-323 916.5,-323 916.5,-293 789.5,-293"/>
<text text-anchor="start" x="797.5" y="-311" font-family="Helvetica,sans-Serif" font-size="10.00">Publishers/DataPublisher</text>
<text text-anchor="middle" x="853" y="-300" font-family="Helvetica,sans-Serif" font-size="10.00">Device.h</text>
</a>
</g>
</g>
<!-- Node1&#45;&gt;Node2 -->
<g id="edge1" class="edge"><title>Node1&#45;&gt;Node2</title>
<path fill="none" stroke="midnightblue" d="M981.724,-360.894C954.238,-349.813 922.557,-337.041 897.503,-326.941"/>
<polygon fill="midnightblue" stroke="midnightblue" points="898.485,-323.563 887.901,-323.07 895.867,-330.055 898.485,-323.563"/>
</g>
<!-- Node3 -->
<g id="node3" class="node"><title>Node3</title>
<g id="a_node3"><a xlink:href="../../dc/dcd/DataHeader_8h.html" target="_top" xlink:title="Headers/DataHeader.h">
<polygon fill="none" stroke="black" points="314.5,-68.5 314.5,-87.5 431.5,-87.5 431.5,-68.5 314.5,-68.5"/>
<text text-anchor="middle" x="373" y="-75.5" font-family="Helvetica,sans-Serif" font-size="10.00">Headers/DataHeader.h</text>
</a>
</g>
</g>
<!-- Node1&#45;&gt;Node3 -->
<g id="edge46" class="edge"><title>Node1&#45;&gt;Node3</title>
<path fill="none" stroke="midnightblue" d="M970.185,-380.84C772.853,-366.062 248,-319.905 248,-247 248,-247 248,-247 248,-189 248,-140.173 302.415,-107.892 339.441,-91.5781"/>
<polygon fill="midnightblue" stroke="midnightblue" points="341.046,-94.6995 348.899,-87.5868 338.325,-88.2502 341.046,-94.6995"/>
</g>
<!-- Node12 -->
<g id="node12" class="node"><title>Node12</title>
<g id="a_node12"><a xlink:href="../../d2/d09/HeartbeatFrame_8h.html" target="_top" xlink:title="Headers/HeartbeatFrame.h">
<polygon fill="none" stroke="black" points="1072.5,-236.5 1072.5,-255.5 1207.5,-255.5 1207.5,-236.5 1072.5,-236.5"/>
<text text-anchor="middle" x="1140" y="-243.5" font-family="Helvetica,sans-Serif" font-size="10.00">Headers/HeartbeatFrame.h</text>
</a>
</g>
</g>
<!-- Node1&#45;&gt;Node12 -->
<g id="edge47" class="edge"><title>Node1&#45;&gt;Node12</title>
<path fill="none" stroke="midnightblue" d="M1061.38,-360.828C1080.75,-332.787 1111.53,-288.223 1128.25,-264.012"/>
<polygon fill="midnightblue" stroke="midnightblue" points="1131.3,-265.75 1134.11,-255.532 1125.54,-261.772 1131.3,-265.75"/>
</g>
<!-- Node18 -->
<g id="node18" class="node"><title>Node18</title>
<polygon fill="none" stroke="#bfbfbf" points="887,-180.5 887,-199.5 1033,-199.5 1033,-180.5 887,-180.5"/>
<text text-anchor="middle" x="960" y="-187.5" font-family="Helvetica,sans-Serif" font-size="10.00">options/FairMQProgOptions.h</text>
</g>
<!-- Node1&#45;&gt;Node18 -->
<g id="edge50" class="edge"><title>Node1&#45;&gt;Node18</title>
<path fill="none" stroke="midnightblue" d="M1033.19,-360.906C1016,-321.008 982.852,-244.05 967.789,-209.081"/>
<polygon fill="midnightblue" stroke="midnightblue" points="970.903,-207.464 963.732,-199.664 964.474,-210.233 970.903,-207.464"/>
</g>
<!-- Node35 -->
<g id="node35" class="node"><title>Node35</title>
<g id="a_node35"><a xlink:href="../../d2/d1b/SubframeMetadata_8h.html" target="_top" xlink:title="Headers/SubframeMetadata.h">
<polygon fill="none" stroke="black" points="1177.5,-298.5 1177.5,-317.5 1324.5,-317.5 1324.5,-298.5 1177.5,-298.5"/>
<text text-anchor="middle" x="1251" y="-305.5" font-family="Helvetica,sans-Serif" font-size="10.00">Headers/SubframeMetadata.h</text>
</a>
</g>
</g>
<!-- Node1&#45;&gt;Node35 -->
<g id="edge48" class="edge"><title>Node1&#45;&gt;Node35</title>
<path fill="none" stroke="midnightblue" d="M1111.49,-360.894C1147.38,-347.546 1189.86,-331.745 1218.43,-321.114"/>
<polygon fill="midnightblue" stroke="midnightblue" points="1219.77,-324.35 1227.93,-317.583 1217.33,-317.789 1219.77,-324.35"/>
</g>
<!-- Node2&#45;&gt;Node3 -->
<g id="edge2" class="edge"><title>Node2&#45;&gt;Node3</title>
<path fill="none" stroke="midnightblue" d="M789.069,-303.427C667.417,-295.072 410.404,-269.417 362,-200 340.464,-169.115 354.309,-122.472 364.665,-97.0623"/>
<polygon fill="midnightblue" stroke="midnightblue" points="368.009,-98.1471 368.776,-87.5801 361.587,-95.3624 368.009,-98.1471"/>
</g>
<!-- Node7 -->
<g id="node7" class="node"><title>Node7</title>
<polygon fill="none" stroke="#bfbfbf" points="412,-6.5 412,-25.5 458,-25.5 458,-6.5 412,-6.5"/>
<text text-anchor="middle" x="435" y="-13.5" font-family="Helvetica,sans-Serif" font-size="10.00">cstring</text>
</g>
<!-- Node2&#45;&gt;Node7 -->
<g id="edge44" class="edge"><title>Node2&#45;&gt;Node7</title>
<path fill="none" stroke="midnightblue" d="M802.138,-292.963C755.95,-276.751 695,-245.107 695,-191 695,-191 695,-191 695,-133 695,-22.1692 567.849,-77.9672 467,-32 465.604,-31.3638 464.176,-30.7088 462.735,-30.0448"/>
<polygon fill="midnightblue" stroke="midnightblue" points="463.788,-26.675 453.245,-25.6343 460.838,-33.023 463.788,-26.675"/>
</g>
<!-- Node2&#45;&gt;Node12 -->
<g id="edge11" class="edge"><title>Node2&#45;&gt;Node12</title>
<path fill="none" stroke="midnightblue" d="M916.695,-293.684C968.652,-282.822 1041.07,-267.681 1089.19,-257.622"/>
<polygon fill="midnightblue" stroke="midnightblue" points="1090,-261.028 1099.08,-255.556 1088.57,-254.176 1090,-261.028"/>
</g>
<!-- Node15 -->
<g id="node15" class="node"><title>Node15</title>
<polygon fill="none" stroke="#bfbfbf" points="2043,-6.5 2043,-25.5 2087,-25.5 2087,-6.5 2043,-6.5"/>
<text text-anchor="middle" x="2065" y="-13.5" font-family="Helvetica,sans-Serif" font-size="10.00">vector</text>
</g>
<!-- Node2&#45;&gt;Node15 -->
<g id="edge45" class="edge"><title>Node2&#45;&gt;Node15</title>
<path fill="none" stroke="midnightblue" d="M877.726,-292.817C932.639,-261.396 1061.6,-188.057 1083,-180 1300.59,-98.0653 1364.06,-102.446 1594,-68 1788.04,-38.9309 1844.7,-83.6065 2034,-32 2036.2,-31.3995 2038.44,-30.6443 2040.65,-29.7941"/>
<polygon fill="midnightblue" stroke="midnightblue" points="2042.27,-32.9037 2049.98,-25.6422 2039.42,-26.5077 2042.27,-32.9037"/>
</g>
<!-- Node16 -->
<g id="node16" class="node"><title>Node16</title>
<g id="a_node16"><a xlink:href="../../d2/dee/O2Device_8h.html" target="_top" xlink:title="O2Device/O2Device.h">
<polygon fill="none" stroke="black" points="523.5,-236.5 523.5,-255.5 638.5,-255.5 638.5,-236.5 523.5,-236.5"/>
<text text-anchor="middle" x="581" y="-243.5" font-family="Helvetica,sans-Serif" font-size="10.00">O2Device/O2Device.h</text>
</a>
</g>
</g>
<!-- Node2&#45;&gt;Node16 -->
<g id="edge16" class="edge"><title>Node2&#45;&gt;Node16</title>
<path fill="none" stroke="midnightblue" d="M789.228,-292.933C740.427,-282.168 674.147,-267.547 629.589,-257.718"/>
<polygon fill="midnightblue" stroke="midnightblue" points="630.11,-254.249 619.591,-255.513 628.602,-261.085 630.11,-254.249"/>
</g>
<!-- Node4 -->
<g id="node4" class="node"><title>Node4</title>
<polygon fill="none" stroke="#bfbfbf" points="151,-6.5 151,-25.5 197,-25.5 197,-6.5 151,-6.5"/>
<text text-anchor="middle" x="174" y="-13.5" font-family="Helvetica,sans-Serif" font-size="10.00">cstdint</text>
</g>
<!-- Node3&#45;&gt;Node4 -->
<g id="edge3" class="edge"><title>Node3&#45;&gt;Node4</title>
<path fill="none" stroke="midnightblue" d="M333.593,-68.4409C299.365,-60.522 248.721,-47.6319 206,-32 204.099,-31.3042 202.156,-30.5386 200.213,-29.7327"/>
<polygon fill="midnightblue" stroke="midnightblue" points="201.264,-26.3695 190.705,-25.5041 198.42,-32.7656 201.264,-26.3695"/>
</g>
<!-- Node5 -->
<g id="node5" class="node"><title>Node5</title>
<polygon fill="none" stroke="#bfbfbf" points="215,-6.5 215,-25.5 267,-25.5 267,-6.5 215,-6.5"/>
<text text-anchor="middle" x="241" y="-13.5" font-family="Helvetica,sans-Serif" font-size="10.00">memory</text>
</g>
<!-- Node3&#45;&gt;Node5 -->
<g id="edge4" class="edge"><title>Node3&#45;&gt;Node5</title>
<path fill="none" stroke="midnightblue" d="M354.088,-68.4035C331.837,-58.2896 294.688,-41.4036 269.074,-29.761"/>
<polygon fill="midnightblue" stroke="midnightblue" points="270.429,-26.5324 259.877,-25.5806 267.533,-32.905 270.429,-26.5324"/>
</g>
<!-- Node6 -->
<g id="node6" class="node"><title>Node6</title>
<polygon fill="none" stroke="#bfbfbf" points="285.5,-6.5 285.5,-25.5 334.5,-25.5 334.5,-6.5 285.5,-6.5"/>
<text text-anchor="middle" x="310" y="-13.5" font-family="Helvetica,sans-Serif" font-size="10.00">cassert</text>
</g>
<!-- Node3&#45;&gt;Node6 -->
<g id="edge5" class="edge"><title>Node3&#45;&gt;Node6</title>
<path fill="none" stroke="midnightblue" d="M363.974,-68.4035C354.243,-59.1361 338.542,-44.1828 326.577,-32.7876"/>
<polygon fill="midnightblue" stroke="midnightblue" points="328.665,-29.9427 319.01,-25.5806 323.837,-35.0117 328.665,-29.9427"/>
</g>
<!-- Node3&#45;&gt;Node7 -->
<g id="edge6" class="edge"><title>Node3&#45;&gt;Node7</title>
<path fill="none" stroke="midnightblue" d="M381.883,-68.4035C391.459,-59.1361 406.911,-44.1828 418.686,-32.7876"/>
<polygon fill="midnightblue" stroke="midnightblue" points="421.381,-35.05 426.133,-25.5806 416.513,-30.0197 421.381,-35.05"/>
</g>
<!-- Node8 -->
<g id="node8" class="node"><title>Node8</title>
<polygon fill="none" stroke="#bfbfbf" points="77,-6.5 77,-25.5 133,-25.5 133,-6.5 77,-6.5"/>
<text text-anchor="middle" x="105" y="-13.5" font-family="Helvetica,sans-Serif" font-size="10.00">algorithm</text>
</g>
<!-- Node3&#45;&gt;Node8 -->
<g id="edge7" class="edge"><title>Node3&#45;&gt;Node8</title>
<path fill="none" stroke="midnightblue" d="M314.341,-68.7754C267.195,-61.4031 199.574,-49.1042 142,-32 139.197,-31.1673 136.313,-30.2016 133.451,-29.1695"/>
<polygon fill="midnightblue" stroke="midnightblue" points="134.542,-25.8392 123.953,-25.5008 132.02,-32.369 134.542,-25.8392"/>
</g>
<!-- Node9 -->
<g id="node9" class="node"><title>Node9</title>
<polygon fill="none" stroke="#bfbfbf" points="-0.5,-6.5 -0.5,-25.5 58.5,-25.5 58.5,-6.5 -0.5,-6.5"/>
<text text-anchor="middle" x="29" y="-13.5" font-family="Helvetica,sans-Serif" font-size="10.00">stdexcept</text>
</g>
<!-- Node3&#45;&gt;Node9 -->
<g id="edge8" class="edge"><title>Node3&#45;&gt;Node9</title>
<path fill="none" stroke="midnightblue" d="M314.477,-69.0743C232.619,-57.88 91.2961,-38.1182 68,-32 64.8426,-31.1708 61.5902,-30.1696 58.3737,-29.0825"/>
<polygon fill="midnightblue" stroke="midnightblue" points="59.5569,-25.7886 48.9629,-25.6497 57.158,-32.3647 59.5569,-25.7886"/>
</g>
<!-- Node10 -->
<g id="node10" class="node"><title>Node10</title>
<polygon fill="none" stroke="#bfbfbf" points="352.5,-6.5 352.5,-25.5 393.5,-25.5 393.5,-6.5 352.5,-6.5"/>
<text text-anchor="middle" x="373" y="-13.5" font-family="Helvetica,sans-Serif" font-size="10.00">string</text>
</g>
<!-- Node3&#45;&gt;Node10 -->
<g id="edge9" class="edge"><title>Node3&#45;&gt;Node10</title>
<path fill="none" stroke="midnightblue" d="M373,-68.4035C373,-59.9381 373,-46.7283 373,-35.8199"/>
<polygon fill="midnightblue" stroke="midnightblue" points="376.5,-35.5806 373,-25.5806 369.5,-35.5806 376.5,-35.5806"/>
</g>
<!-- Node11 -->
<g id="node11" class="node"><title>Node11</title>
<g id="a_node11"><a xlink:href="../../d7/df8/Types_8h.html" target="_top" xlink:title="MemoryResources/Types.h">
<polygon fill="none" stroke="black" points="476.5,-6.5 476.5,-25.5 613.5,-25.5 613.5,-6.5 476.5,-6.5"/>
<text text-anchor="middle" x="545" y="-13.5" font-family="Helvetica,sans-Serif" font-size="10.00">MemoryResources/Types.h</text>
</a>
</g>
</g>
<!-- Node3&#45;&gt;Node11 -->
<g id="edge10" class="edge"><title>Node3&#45;&gt;Node11</title>
<path fill="none" stroke="midnightblue" d="M397.643,-68.4035C427.275,-58.0668 477.185,-40.6564 510.602,-28.9994"/>
<polygon fill="midnightblue" stroke="midnightblue" points="512.113,-32.1791 520.402,-25.5806 509.807,-25.5697 512.113,-32.1791"/>
</g>
<!-- Node12&#45;&gt;Node3 -->
<g id="edge12" class="edge"><title>Node12&#45;&gt;Node3</title>
<path fill="none" stroke="midnightblue" d="M1072.42,-241.053C994.855,-235.618 864.154,-223.684 754,-200 621.325,-171.474 469.045,-115.931 404.516,-91.2862"/>
<polygon fill="midnightblue" stroke="midnightblue" points="405.519,-87.9224 394.929,-87.6051 403.01,-94.4572 405.519,-87.9224"/>
</g>
<!-- Node13 -->
<g id="node13" class="node"><title>Node13</title>
<polygon fill="none" stroke="#bfbfbf" points="1091.5,-180.5 1091.5,-199.5 1150.5,-199.5 1150.5,-180.5 1091.5,-180.5"/>
<text text-anchor="middle" x="1121" y="-187.5" font-family="Helvetica,sans-Serif" font-size="10.00">functional</text>
</g>
<!-- Node12&#45;&gt;Node13 -->
<g id="edge13" class="edge"><title>Node12&#45;&gt;Node13</title>
<path fill="none" stroke="midnightblue" d="M1136.86,-236.083C1134.32,-228.849 1130.64,-218.409 1127.47,-209.397"/>
<polygon fill="midnightblue" stroke="midnightblue" points="1130.7,-208.023 1124.08,-199.751 1124.1,-210.346 1130.7,-208.023"/>
</g>
<!-- Node14 -->
<g id="node14" class="node"><title>Node14</title>
<polygon fill="none" stroke="#bfbfbf" points="1168.5,-180.5 1168.5,-199.5 1203.5,-199.5 1203.5,-180.5 1168.5,-180.5"/>
<text text-anchor="middle" x="1186" y="-187.5" font-family="Helvetica,sans-Serif" font-size="10.00">map</text>
</g>
<!-- Node12&#45;&gt;Node14 -->
<g id="edge14" class="edge"><title>Node12&#45;&gt;Node14</title>
<path fill="none" stroke="midnightblue" d="M1147.6,-236.083C1154.23,-228.298 1164.02,-216.801 1172.06,-207.367"/>
<polygon fill="midnightblue" stroke="midnightblue" points="1174.73,-209.633 1178.55,-199.751 1169.4,-205.094 1174.73,-209.633"/>
</g>
<!-- Node12&#45;&gt;Node15 -->
<g id="edge15" class="edge"><title>Node12&#45;&gt;Node15</title>
<path fill="none" stroke="midnightblue" d="M1160.73,-236.432C1231.9,-207.416 1473.31,-112.215 1682,-68 1835.85,-35.4045 1882.7,-74.8988 2034,-32 2036.2,-31.3772 2038.43,-30.6064 2040.63,-29.7456"/>
<polygon fill="midnightblue" stroke="midnightblue" points="2042.26,-32.8513 2049.97,-25.5762 2039.41,-26.4603 2042.26,-32.8513"/>
</g>
<!-- Node16&#45;&gt;Node9 -->
<g id="edge43" class="edge"><title>Node16&#45;&gt;Node9</title>
<path fill="none" stroke="midnightblue" d="M523.441,-237.986C478.5,-231.372 415.002,-219.502 362,-200 236.403,-153.786 100.742,-65.8923 49.8445,-31.4019"/>
<polygon fill="midnightblue" stroke="midnightblue" points="51.5819,-28.3503 41.3488,-25.6054 47.6366,-34.1326 51.5819,-28.3503"/>
</g>
<!-- Node17 -->
<g id="node17" class="node"><title>Node17</title>
<polygon fill="none" stroke="#bfbfbf" points="371,-180.5 371,-199.5 459,-199.5 459,-180.5 371,-180.5"/>
<text text-anchor="middle" x="415" y="-187.5" font-family="Helvetica,sans-Serif" font-size="10.00">FairMQDevice.h</text>
</g>
<!-- Node16&#45;&gt;Node17 -->
<g id="edge17" class="edge"><title>Node16&#45;&gt;Node17</title>
<path fill="none" stroke="midnightblue" d="M554.697,-236.444C526.649,-227.32 482.056,-212.813 450.816,-202.651"/>
<polygon fill="midnightblue" stroke="midnightblue" points="451.772,-199.282 441.18,-199.516 449.607,-205.938 451.772,-199.282"/>
</g>
<!-- Node16&#45;&gt;Node18 -->
<g id="edge18" class="edge"><title>Node16&#45;&gt;Node18</title>
<path fill="none" stroke="midnightblue" d="M638.562,-236.799C706.102,-227.175 818.034,-211.227 890.392,-200.918"/>
<polygon fill="midnightblue" stroke="midnightblue" points="890.924,-204.377 900.33,-199.502 889.936,-197.447 890.924,-204.377"/>
</g>
<!-- Node19 -->
<g id="node19" class="node"><title>Node19</title>
<g id="a_node19"><a xlink:href="../../d7/db2/Utilities_8h.html" target="_top" xlink:title="O2Device/Utilities.h">
<polygon fill="none" stroke="black" points="763,-180.5 763,-199.5 867,-199.5 867,-180.5 763,-180.5"/>
<text text-anchor="middle" x="815" y="-187.5" font-family="Helvetica,sans-Serif" font-size="10.00">O2Device/Utilities.h</text>
</a>
</g>
</g>
<!-- Node16&#45;&gt;Node19 -->
<g id="edge19" class="edge"><title>Node16&#45;&gt;Node19</title>
<path fill="none" stroke="midnightblue" d="M618.078,-236.444C658.728,-227.063 724.032,-211.993 768.184,-201.804"/>
<polygon fill="midnightblue" stroke="midnightblue" points="769.139,-205.175 778.095,-199.516 767.565,-198.355 769.139,-205.175"/>
</g>
<!-- Node34 -->
<g id="node34" class="node"><title>Node34</title>
<polygon fill="none" stroke="#bfbfbf" points="477.5,-180.5 477.5,-199.5 628.5,-199.5 628.5,-180.5 477.5,-180.5"/>
<text text-anchor="middle" x="553" y="-187.5" font-family="Helvetica,sans-Serif" font-size="10.00">Monitoring/MonitoringFactory.h</text>
</g>
<!-- Node16&#45;&gt;Node34 -->
<g id="edge42" class="edge"><title>Node16&#45;&gt;Node34</title>
<path fill="none" stroke="midnightblue" d="M576.376,-236.083C572.544,-228.691 566.976,-217.953 562.235,-208.811"/>
<polygon fill="midnightblue" stroke="midnightblue" points="565.248,-207.018 557.538,-199.751 559.034,-210.24 565.248,-207.018"/>
</g>
<!-- Node19&#45;&gt;Node3 -->
<g id="edge36" class="edge"><title>Node19&#45;&gt;Node3</title>
<path fill="none" stroke="midnightblue" d="M794.619,-180.418C761.344,-166.703 693.029,-139.789 633,-124 569.008,-107.168 494.457,-95.0047 441.634,-87.5998"/>
<polygon fill="midnightblue" stroke="midnightblue" points="442.086,-84.1289 431.701,-86.2274 441.128,-91.0631 442.086,-84.1289"/>
</g>
<!-- Node20 -->
<g id="node20" class="node"><title>Node20</title>
<g id="a_node20"><a xlink:href="../../dc/d03/MemoryResources_8h.html" target="_top" xlink:title="MemoryResources/MemoryResources.h">
<polygon fill="none" stroke="black" points="933.5,-68.5 933.5,-87.5 1126.5,-87.5 1126.5,-68.5 933.5,-68.5"/>
<text text-anchor="middle" x="1030" y="-75.5" font-family="Helvetica,sans-Serif" font-size="10.00">MemoryResources/MemoryResources.h</text>
</a>
</g>
</g>
<!-- Node19&#45;&gt;Node20 -->
<g id="edge20" class="edge"><title>Node19&#45;&gt;Node20</title>
<path fill="none" stroke="midnightblue" d="M836.864,-180.443C858.156,-171.9 891.273,-158.051 919,-144 950.722,-127.924 985.931,-106.695 1008.01,-92.946"/>
<polygon fill="midnightblue" stroke="midnightblue" points="1010.01,-95.8248 1016.63,-87.5481 1006.29,-89.8936 1010.01,-95.8248"/>
</g>
<!-- Node26 -->
<g id="node26" class="node"><title>Node26</title>
<polygon fill="none" stroke="#bfbfbf" points="632,-6.5 632,-25.5 672,-25.5 672,-6.5 632,-6.5"/>
<text text-anchor="middle" x="652" y="-13.5" font-family="Helvetica,sans-Serif" font-size="10.00">utility</text>
</g>
<!-- Node19&#45;&gt;Node26 -->
<g id="edge40" class="edge"><title>Node19&#45;&gt;Node26</title>
<path fill="none" stroke="midnightblue" d="M837.663,-180.337C863.559,-169.066 900.478,-147.96 885,-124 831.03,-40.4561 770.537,-75.3072 681,-32 679.823,-31.4308 678.623,-30.8424 677.413,-30.2429"/>
<polygon fill="midnightblue" stroke="midnightblue" points="678.683,-26.9626 668.181,-25.564 675.519,-33.2065 678.683,-26.9626"/>
</g>
<!-- Node32 -->
<g id="node32" class="node"><title>Node32</title>
<g id="a_node32"><a xlink:href="../../d4/d00/Headers_2include_2Headers_2Stack_8h.html" target="_top" xlink:title="Headers/Stack.h">
<polygon fill="none" stroke="black" points="723,-124.5 723,-143.5 813,-143.5 813,-124.5 723,-124.5"/>
<text text-anchor="middle" x="768" y="-131.5" font-family="Helvetica,sans-Serif" font-size="10.00">Headers/Stack.h</text>
</a>
</g>
</g>
<!-- Node19&#45;&gt;Node32 -->
<g id="edge37" class="edge"><title>Node19&#45;&gt;Node32</title>
<path fill="none" stroke="midnightblue" d="M807.239,-180.083C800.463,-172.298 790.457,-160.801 782.245,-151.367"/>
<polygon fill="midnightblue" stroke="midnightblue" points="784.822,-148.996 775.617,-143.751 779.542,-153.592 784.822,-148.996"/>
</g>
<!-- Node33 -->
<g id="node33" class="node"><title>Node33</title>
<polygon fill="none" stroke="#bfbfbf" points="831.5,-124.5 831.5,-143.5 876.5,-143.5 876.5,-124.5 831.5,-124.5"/>
<text text-anchor="middle" x="854" y="-131.5" font-family="Helvetica,sans-Serif" font-size="10.00">gsl/gsl</text>
</g>
<!-- Node19&#45;&gt;Node33 -->
<g id="edge41" class="edge"><title>Node19&#45;&gt;Node33</title>
<path fill="none" stroke="midnightblue" d="M821.44,-180.083C826.949,-172.455 835.031,-161.264 841.765,-151.941"/>
<polygon fill="midnightblue" stroke="midnightblue" points="844.662,-153.907 847.68,-143.751 838.987,-149.809 844.662,-153.907"/>
</g>
<!-- Node20&#45;&gt;Node7 -->
<g id="edge25" class="edge"><title>Node20&#45;&gt;Node7</title>
<path fill="none" stroke="midnightblue" d="M933.443,-73.4458C796.327,-67.6878 552.364,-54.6217 467,-32 464.648,-31.3767 462.257,-30.5866 459.895,-29.6963"/>
<polygon fill="midnightblue" stroke="midnightblue" points="461.095,-26.402 450.527,-25.6431 458.315,-32.8264 461.095,-26.402"/>
</g>
<!-- Node20&#45;&gt;Node10 -->
<g id="edge26" class="edge"><title>Node20&#45;&gt;Node10</title>
<path fill="none" stroke="midnightblue" d="M933.312,-74.6608C782.907,-70.2463 500.092,-58.6252 403,-32 400.81,-31.3994 398.591,-30.6337 396.402,-29.7671"/>
<polygon fill="midnightblue" stroke="midnightblue" points="397.737,-26.5284 387.19,-25.5214 394.807,-32.8857 397.737,-26.5284"/>
</g>
<!-- Node20&#45;&gt;Node11 -->
<g id="edge35" class="edge"><title>Node20&#45;&gt;Node11</title>
<path fill="none" stroke="midnightblue" d="M933.092,-68.4817C850.453,-60.693 728.613,-47.9676 623,-32 614.282,-30.682 605.054,-29.0866 596.113,-27.4347"/>
<polygon fill="midnightblue" stroke="midnightblue" points="596.66,-23.9762 586.184,-25.5574 595.36,-30.8544 596.66,-23.9762"/>
</g>
<!-- Node20&#45;&gt;Node15 -->
<g id="edge29" class="edge"><title>Node20&#45;&gt;Node15</title>
<path fill="none" stroke="midnightblue" d="M1126.55,-68.9353C1131.43,-68.6013 1136.27,-68.2869 1141,-68 1339.24,-55.9723 1841.35,-80.2649 2034,-32 2036.35,-31.4115 2038.73,-30.6339 2041.08,-29.7415"/>
<polygon fill="midnightblue" stroke="midnightblue" points="2042.62,-32.8844 2050.33,-25.6193 2039.77,-26.4897 2042.62,-32.8844"/>
</g>
<!-- Node21 -->
<g id="node21" class="node"><title>Node21</title>
<polygon fill="none" stroke="#bfbfbf" points="1169,-1 1169,-31 1269,-31 1269,-1 1169,-1"/>
<text text-anchor="start" x="1177" y="-19" font-family="Helvetica,sans-Serif" font-size="10.00">boost/container/flat</text>
<text text-anchor="middle" x="1219" y="-8" font-family="Helvetica,sans-Serif" font-size="10.00">_map.hpp</text>
</g>
<!-- Node20&#45;&gt;Node21 -->
<g id="edge21" class="edge"><title>Node20&#45;&gt;Node21</title>
<path fill="none" stroke="midnightblue" d="M1057.08,-68.4035C1085.16,-59.4882 1129.82,-45.311 1165.13,-34.1014"/>
<polygon fill="midnightblue" stroke="midnightblue" points="1166.35,-37.3871 1174.82,-31.0253 1164.23,-30.7152 1166.35,-37.3871"/>
</g>
<!-- Node22 -->
<g id="node22" class="node"><title>Node22</title>
<polygon fill="none" stroke="#bfbfbf" points="1287,-1 1287,-31 1403,-31 1403,-1 1287,-1"/>
<text text-anchor="start" x="1295" y="-19" font-family="Helvetica,sans-Serif" font-size="10.00">boost/container/pmr</text>
<text text-anchor="middle" x="1345" y="-8" font-family="Helvetica,sans-Serif" font-size="10.00">/memory_resource.hpp</text>
</g>
<!-- Node20&#45;&gt;Node22 -->
<g id="edge22" class="edge"><title>Node20&#45;&gt;Node22</title>
<path fill="none" stroke="midnightblue" d="M1080.46,-68.4639C1128.5,-60.1986 1203.06,-47.0084 1276.98,-32.1629"/>
<polygon fill="midnightblue" stroke="midnightblue" points="1277.82,-35.5639 1286.93,-30.1536 1276.43,-28.7024 1277.82,-35.5639"/>
</g>
<!-- Node23 -->
<g id="node23" class="node"><title>Node23</title>
<polygon fill="none" stroke="#bfbfbf" points="1421,-1 1421,-31 1577,-31 1577,-1 1421,-1"/>
<text text-anchor="start" x="1429" y="-19" font-family="Helvetica,sans-Serif" font-size="10.00">boost/container/pmr</text>
<text text-anchor="middle" x="1499" y="-8" font-family="Helvetica,sans-Serif" font-size="10.00">/monotonic_buffer_resource.hpp</text>
</g>
<!-- Node20&#45;&gt;Node23 -->
<g id="edge23" class="edge"><title>Node20&#45;&gt;Node23</title>
<path fill="none" stroke="midnightblue" d="M1112.66,-68.4733C1187.6,-60.4586 1301.35,-47.589 1410.6,-32.0068"/>
<polygon fill="midnightblue" stroke="midnightblue" points="1411.42,-35.4255 1420.82,-30.5396 1410.43,-28.4965 1411.42,-35.4255"/>
</g>
<!-- Node24 -->
<g id="node24" class="node"><title>Node24</title>
<polygon fill="none" stroke="#bfbfbf" points="1595.5,-1 1595.5,-31 1728.5,-31 1728.5,-1 1595.5,-1"/>
<text text-anchor="start" x="1603.5" y="-19" font-family="Helvetica,sans-Serif" font-size="10.00">boost/container/pmr</text>
<text text-anchor="middle" x="1662" y="-8" font-family="Helvetica,sans-Serif" font-size="10.00">/polymorphic_allocator.hpp</text>
</g>
<!-- Node20&#45;&gt;Node24 -->
<g id="edge24" class="edge"><title>Node20&#45;&gt;Node24</title>
<path fill="none" stroke="midnightblue" d="M1126.56,-69.1696C1131.44,-68.774 1136.28,-68.3824 1141,-68 1335.49,-52.248 1387.73,-59.02 1585.22,-32.0002"/>
<polygon fill="midnightblue" stroke="midnightblue" points="1585.92,-35.4369 1595.34,-30.6026 1584.96,-28.5026 1585.92,-35.4369"/>
</g>
<!-- Node25 -->
<g id="node25" class="node"><title>Node25</title>
<polygon fill="none" stroke="#bfbfbf" points="1747,-6.5 1747,-25.5 1809,-25.5 1809,-6.5 1747,-6.5"/>
<text text-anchor="middle" x="1778" y="-13.5" font-family="Helvetica,sans-Serif" font-size="10.00">type_traits</text>
</g>
<!-- Node20&#45;&gt;Node25 -->
<g id="edge27" class="edge"><title>Node20&#45;&gt;Node25</title>
<path fill="none" stroke="midnightblue" d="M1126.55,-69.0515C1131.44,-68.6869 1136.27,-68.3342 1141,-68 1405.71,-49.2759 1477.21,-86.1583 1737,-32 1740.9,-31.1879 1744.92,-30.078 1748.85,-28.8267"/>
<polygon fill="midnightblue" stroke="midnightblue" points="1750.04,-32.1197 1758.32,-25.5137 1747.73,-25.5124 1750.04,-32.1197"/>
</g>
<!-- Node20&#45;&gt;Node26 -->
<g id="edge28" class="edge"><title>Node20&#45;&gt;Node26</title>
<path fill="none" stroke="midnightblue" d="M934.739,-68.4717C848.053,-60.0289 726.848,-46.3228 681,-32 679.093,-31.4042 677.161,-30.6881 675.248,-29.8961"/>
<polygon fill="midnightblue" stroke="midnightblue" points="676.565,-26.647 666.032,-25.5093 673.557,-32.9675 676.565,-26.647"/>
</g>
<!-- Node27 -->
<g id="node27" class="node"><title>Node27</title>
<polygon fill="none" stroke="#bfbfbf" points="1827.5,-6.5 1827.5,-25.5 1910.5,-25.5 1910.5,-6.5 1827.5,-6.5"/>
<text text-anchor="middle" x="1869" y="-13.5" font-family="Helvetica,sans-Serif" font-size="10.00">unordered_map</text>
</g>
<!-- Node20&#45;&gt;Node27 -->
<g id="edge30" class="edge"><title>Node20&#45;&gt;Node27</title>
<path fill="none" stroke="midnightblue" d="M1126.55,-69.0102C1131.44,-68.6565 1136.27,-68.3174 1141,-68 1441.19,-47.8405 1520.32,-82.0183 1817,-32 1822.5,-31.0725 1828.25,-29.7684 1833.83,-28.3122"/>
<polygon fill="midnightblue" stroke="midnightblue" points="1834.92,-31.6404 1843.61,-25.5754 1833.04,-24.8992 1834.92,-31.6404"/>
</g>
<!-- Node28 -->
<g id="node28" class="node"><title>Node28</title>
<polygon fill="none" stroke="#bfbfbf" points="1928.5,-6.5 1928.5,-25.5 2025.5,-25.5 2025.5,-6.5 1928.5,-6.5"/>
<text text-anchor="middle" x="1977" y="-13.5" font-family="Helvetica,sans-Serif" font-size="10.00">FairMQMessage.h</text>
</g>
<!-- Node20&#45;&gt;Node28 -->
<g id="edge31" class="edge"><title>Node20&#45;&gt;Node28</title>
<path fill="none" stroke="midnightblue" d="M1126.55,-68.9698C1131.43,-68.6267 1136.27,-68.3009 1141,-68 1486.45,-46.0096 1576.72,-83.6105 1919,-32 1925.48,-31.023 1932.28,-29.6185 1938.86,-28.056"/>
<polygon fill="midnightblue" stroke="midnightblue" points="1940.09,-31.3554 1948.92,-25.5093 1938.37,-24.5693 1940.09,-31.3554"/>
</g>
<!-- Node29 -->
<g id="node29" class="node"><title>Node29</title>
<polygon fill="none" stroke="#bfbfbf" points="690.5,-6.5 690.5,-25.5 821.5,-25.5 821.5,-6.5 690.5,-6.5"/>
<text text-anchor="middle" x="756" y="-13.5" font-family="Helvetica,sans-Serif" font-size="10.00">FairMQTransportFactory.h</text>
</g>
<!-- Node20&#45;&gt;Node29 -->
<g id="edge32" class="edge"><title>Node20&#45;&gt;Node29</title>
<path fill="none" stroke="midnightblue" d="M991.033,-68.4672C942.037,-57.7379 857.908,-39.3157 804.714,-27.6673"/>
<polygon fill="midnightblue" stroke="midnightblue" points="805.349,-24.2236 794.832,-25.5034 803.852,-31.0615 805.349,-24.2236"/>
</g>
<!-- Node30 -->
<g id="node30" class="node"><title>Node30</title>
<polygon fill="none" stroke="#bfbfbf" points="839.5,-6.5 839.5,-25.5 976.5,-25.5 976.5,-6.5 839.5,-6.5"/>
<text text-anchor="middle" x="908" y="-13.5" font-family="Helvetica,sans-Serif" font-size="10.00">fairmq/MemoryResources.h</text>
</g>
<!-- Node20&#45;&gt;Node30 -->
<g id="edge33" class="edge"><title>Node20&#45;&gt;Node30</title>
<path fill="none" stroke="midnightblue" d="M1012.52,-68.4035C992.137,-58.3787 958.225,-41.7006 934.575,-30.0699"/>
<polygon fill="midnightblue" stroke="midnightblue" points="935.965,-26.8531 925.447,-25.5806 932.876,-33.1346 935.965,-26.8531"/>
</g>
<!-- Node31 -->
<g id="node31" class="node"><title>Node31</title>
<polygon fill="none" stroke="#bfbfbf" points="995,-6.5 995,-25.5 1151,-25.5 1151,-6.5 995,-6.5"/>
<text text-anchor="middle" x="1073" y="-13.5" font-family="Helvetica,sans-Serif" font-size="10.00">fairmq/MemoryResourceTools.h</text>
</g>
<!-- Node20&#45;&gt;Node31 -->
<g id="edge34" class="edge"><title>Node20&#45;&gt;Node31</title>
<path fill="none" stroke="midnightblue" d="M1036.16,-68.4035C1042.61,-59.4034 1052.9,-45.0408 1060.97,-33.7824"/>
<polygon fill="midnightblue" stroke="midnightblue" points="1063.87,-35.7476 1066.85,-25.5806 1058.18,-31.6699 1063.87,-35.7476"/>
</g>
<!-- Node32&#45;&gt;Node3 -->
<g id="edge39" class="edge"><title>Node32&#45;&gt;Node3</title>
<path fill="none" stroke="midnightblue" d="M722.688,-126.806C653.798,-117.388 522.223,-99.4001 441.578,-88.3753"/>
<polygon fill="midnightblue" stroke="midnightblue" points="441.901,-84.887 431.519,-87.0001 440.953,-91.8224 441.901,-84.887"/>
</g>
<!-- Node32&#45;&gt;Node20 -->
<g id="edge38" class="edge"><title>Node32&#45;&gt;Node20</title>
<path fill="none" stroke="midnightblue" d="M809.515,-124.444C855.412,-114.984 929.38,-99.7384 978.826,-89.5472"/>
<polygon fill="midnightblue" stroke="midnightblue" points="979.592,-92.9631 988.68,-87.5164 978.179,-86.1072 979.592,-92.9631"/>
</g>
<!-- Node35&#45;&gt;Node15 -->
<g id="edge49" class="edge"><title>Node35&#45;&gt;Node15</title>
<path fill="none" stroke="midnightblue" d="M1324.73,-302.951C1451.2,-293.97 1696,-266.797 1696,-191 1696,-191 1696,-191 1696,-133 1696,23.7856 1887.85,-88.7715 2034,-32 2035.65,-31.36 2037.33,-30.6678 2039.01,-29.9439"/>
<polygon fill="midnightblue" stroke="midnightblue" points="2040.86,-32.9481 2048.49,-25.5958 2037.94,-26.5861 2040.86,-32.9481"/>
</g>
</g>
</svg>
        <g id="navigator" transform="translate(0 0)" fill="#404254">
                <rect fill="#f2f5e9" fill-opacity="0.5" stroke="#606060" stroke-width=".5" x="0" y="0" width="60" height="60"/>
                <use id="zoomplus" xlink:href="#zoomPlus" x="17" y="9" onmousedown="handleZoom(evt,'in')"/>
                <use id="zoomminus" xlink:href="#zoomMin" x="42" y="9" onmousedown="handleZoom(evt,'out')"/>
                <use id="reset" xlink:href="#resetDef" x="30" y="36" onmousedown="handleReset()"/>
                <g id="arrowUp" xlink:href="#dirArrow" transform="translate(30 24)" onmousedown="handlePan(0,-1)">
                  <use xlink:href="#rim" fill="#404040">
                        <set attributeName="fill" to="#808080" begin="arrowUp.mouseover" end="arrowUp.mouseout"/>
                  </use>
                  <path fill="none" stroke="white" stroke-width="1.5" d="M0,-3.0v7 M-2.5,-0.5L0,-3.0L2.5,-0.5"/>
                </g>
                <g id="arrowRight" xlink:href="#dirArrow" transform="rotate(90) translate(36 -43)" onmousedown="handlePan(1,0)">
                  <use xlink:href="#rim" fill="#404040">
                        <set attributeName="fill" to="#808080" begin="arrowRight.mouseover" end="arrowRight.mouseout"/>
                  </use>
                  <path fill="none" stroke="white" stroke-width="1.5" d="M0,-3.0v7 M-2.5,-0.5L0,-3.0L2.5,-0.5"/>
                </g>
                <g id="arrowDown" xlink:href="#dirArrow" transform="rotate(180) translate(-30 -48)" onmousedown="handlePan(0,1)">
                  <use xlink:href="#rim" fill="#404040">
                        <set attributeName="fill" to="#808080" begin="arrowDown.mouseover" end="arrowDown.mouseout"/>
                  </use>
                  <path fill="none" stroke="white" stroke-width="1.5" d="M0,-3.0v7 M-2.5,-0.5L0,-3.0L2.5,-0.5"/>
                </g>
                <g id="arrowLeft" xlink:href="#dirArrow" transform="rotate(270) translate(-36 17)" onmousedown="handlePan(-1,0)">
                  <use xlink:href="#rim" fill="#404040">
                        <set attributeName="fill" to="#808080" begin="arrowLeft.mouseover" end="arrowLeft.mouseout"/>
                  </use>
                  <path fill="none" stroke="white" stroke-width="1.5" d="M0,-3.0v7 M-2.5,-0.5L0,-3.0L2.5,-0.5"/>
                </g>
        </g>
        <svg viewBox="0 0 15 15" width="100%" height="30px" preserveAspectRatio="xMaxYMin meet">
         <g id="arrow_out" transform="scale(0.3 0.3)">
          <a xlink:href="DataPublisherDevice_8cxx__incl_org.svg" target="_base">
           <rect id="button" ry="5" rx="5" y="6" x="6" height="38" width="38"
                fill="#f2f5e9" fill-opacity="0.5" stroke="#606060" stroke-width="1.0"/>
           <path id="arrow"
             d="M 11.500037,31.436501 C 11.940474,20.09759 22.043105,11.32322 32.158766,21.979434 L 37.068811,17.246167 C 37.068811,17.246167 37.088388,32 37.088388,32 L 22.160133,31.978069 C 22.160133,31.978069 26.997745,27.140456 26.997745,27.140456 C 18.528582,18.264221 13.291696,25.230495 11.500037,31.436501 z"
             style="fill:#404040;"/>
          </a>
         </g>
        </svg>
</svg>
