<?xml version="1.0" encoding="UTF-8" standalone="no"?>
<!DOCTYPE svg PUBLIC "-//W3C//DTD SVG 1.1//EN"
 "http://www.w3.org/Graphics/SVG/1.1/DTD/svg11.dtd">
<!-- Generated by graphviz version 2.36.0 (20140111.2315)
 -->
<!-- Title: /home/travis/build/AliceO2Group/AliceO2/Detectors/MUON/MCH/Contour/include/MCHContour/Vertex.h Pages: 1 -->
<svg width="1461pt" height="742pt"
 viewBox="0.00 0.00 1461.00 742.00" xmlns="http://www.w3.org/2000/svg" xmlns:xlink="http://www.w3.org/1999/xlink">
<g id="graph0" class="graph" transform="scale(1 1) rotate(0) translate(4 738)">
<title>/home/travis/build/AliceO2Group/AliceO2/Detectors/MUON/MCH/Contour/include/MCHContour/Vertex.h</title>
<!-- Node1 -->
<g id="node1" class="node"><title>Node1</title>
<polygon fill="#bfbfbf" stroke="black" points="1115,-681 1115,-733 1275,-733 1275,-681 1115,-681"/>
<text text-anchor="start" x="1123" y="-721" font-family="Helvetica,sans-Serif" font-size="10.00">/home/travis/build</text>
<text text-anchor="start" x="1123" y="-710" font-family="Helvetica,sans-Serif" font-size="10.00">/AliceO2Group/AliceO2</text>
<text text-anchor="start" x="1123" y="-699" font-family="Helvetica,sans-Serif" font-size="10.00">/Detectors/MUON/MCH/Contour</text>
<text text-anchor="middle" x="1195" y="-688" font-family="Helvetica,sans-Serif" font-size="10.00">/include/MCHContour/Vertex.h</text>
</g>
<!-- Node2 -->
<g id="node2" class="node"><title>Node2</title>
<g id="a_node2"><a xlink:href="../../dc/ddd/Polygon_8h.html" target="_top" xlink:title="/home/travis/build\l/AliceO2Group/AliceO2\l/Detectors/MUON/MCH/Contour\l/include/MCHContour/Polygon.h">
<polygon fill="none" stroke="black" points="937,-591 937,-643 1097,-643 1097,-591 937,-591"/>
<text text-anchor="start" x="945" y="-631" font-family="Helvetica,sans-Serif" font-size="10.00">/home/travis/build</text>
<text text-anchor="start" x="945" y="-620" font-family="Helvetica,sans-Serif" font-size="10.00">/AliceO2Group/AliceO2</text>
<text text-anchor="start" x="945" y="-609" font-family="Helvetica,sans-Serif" font-size="10.00">/Detectors/MUON/MCH/Contour</text>
<text text-anchor="middle" x="1017" y="-598" font-family="Helvetica,sans-Serif" font-size="10.00">/include/MCHContour/Polygon.h</text>
</a>
</g>
</g>
<!-- Node1&#45;&gt;Node2 -->
<g id="edge1" class="edge"><title>Node1&#45;&gt;Node2</title>
<path fill="none" stroke="midnightblue" d="M1134.82,-676.249C1113.01,-665.468 1088.62,-653.407 1067.71,-643.069"/>
<polygon fill="midnightblue" stroke="midnightblue" points="1133.48,-679.488 1143.99,-680.783 1136.58,-673.213 1133.48,-679.488"/>
</g>
<!-- Node22 -->
<g id="node22" class="node"><title>Node22</title>
<g id="a_node22"><a xlink:href="../../d5/de0/Edge_8h.html" target="_top" xlink:title="/home/travis/build\l/AliceO2Group/AliceO2\l/Detectors/MUON/MCH/Contour\l/include/MCHContour/Edge.h">
<polygon fill="none" stroke="black" points="1115,-591 1115,-643 1275,-643 1275,-591 1115,-591"/>
<text text-anchor="start" x="1123" y="-631" font-family="Helvetica,sans-Serif" font-size="10.00">/home/travis/build</text>
<text text-anchor="start" x="1123" y="-620" font-family="Helvetica,sans-Serif" font-size="10.00">/AliceO2Group/AliceO2</text>
<text text-anchor="start" x="1123" y="-609" font-family="Helvetica,sans-Serif" font-size="10.00">/Detectors/MUON/MCH/Contour</text>
<text text-anchor="middle" x="1195" y="-598" font-family="Helvetica,sans-Serif" font-size="10.00">/include/MCHContour/Edge.h</text>
</a>
</g>
</g>
<!-- Node1&#45;&gt;Node22 -->
<g id="edge37" class="edge"><title>Node1&#45;&gt;Node22</title>
<path fill="none" stroke="midnightblue" d="M1195,-670.489C1195,-661.309 1195,-651.616 1195,-643.092"/>
<polygon fill="midnightblue" stroke="midnightblue" points="1191.5,-670.547 1195,-680.547 1198.5,-670.547 1191.5,-670.547"/>
</g>
<!-- Node24 -->
<g id="node24" class="node"><title>Node24</title>
<g id="a_node24"><a xlink:href="../../d2/db1/Detectors_2MUON_2MCH_2Contour_2test_2Vertex_8cxx.html" target="_top" xlink:title="/home/travis/build\l/AliceO2Group/AliceO2\l/Detectors/MUON/MCH/Contour\l/test/Vertex.cxx">
<polygon fill="none" stroke="black" points="1293,-591 1293,-643 1453,-643 1453,-591 1293,-591"/>
<text text-anchor="start" x="1301" y="-631" font-family="Helvetica,sans-Serif" font-size="10.00">/home/travis/build</text>
<text text-anchor="start" x="1301" y="-620" font-family="Helvetica,sans-Serif" font-size="10.00">/AliceO2Group/AliceO2</text>
<text text-anchor="start" x="1301" y="-609" font-family="Helvetica,sans-Serif" font-size="10.00">/Detectors/MUON/MCH/Contour</text>
<text text-anchor="middle" x="1373" y="-598" font-family="Helvetica,sans-Serif" font-size="10.00">/test/Vertex.cxx</text>
</a>
</g>
</g>
<!-- Node1&#45;&gt;Node24 -->
<g id="edge40" class="edge"><title>Node1&#45;&gt;Node24</title>
<path fill="none" stroke="midnightblue" d="M1255.18,-676.249C1276.99,-665.468 1301.38,-653.407 1322.29,-643.069"/>
<polygon fill="midnightblue" stroke="midnightblue" points="1253.42,-673.213 1246.01,-680.783 1256.52,-679.488 1253.42,-673.213"/>
</g>
<!-- Node3 -->
<g id="node3" class="node"><title>Node3</title>
<g id="a_node3"><a xlink:href="../../db/d08/Contour_8h.html" target="_top" xlink:title="/home/travis/build\l/AliceO2Group/AliceO2\l/Detectors/MUON/MCH/Contour\l/include/MCHContour/Contour.h">
<polygon fill="none" stroke="black" points="775,-501 775,-553 935,-553 935,-501 775,-501"/>
<text text-anchor="start" x="783" y="-541" font-family="Helvetica,sans-Serif" font-size="10.00">/home/travis/build</text>
<text text-anchor="start" x="783" y="-530" font-family="Helvetica,sans-Serif" font-size="10.00">/AliceO2Group/AliceO2</text>
<text text-anchor="start" x="783" y="-519" font-family="Helvetica,sans-Serif" font-size="10.00">/Detectors/MUON/MCH/Contour</text>
<text text-anchor="middle" x="855" y="-508" font-family="Helvetica,sans-Serif" font-size="10.00">/include/MCHContour/Contour.h</text>
</a>
</g>
</g>
<!-- Node2&#45;&gt;Node3 -->
<g id="edge2" class="edge"><title>Node2&#45;&gt;Node3</title>
<path fill="none" stroke="midnightblue" d="M961.699,-585.96C941.988,-575.253 920.011,-563.315 901.149,-553.069"/>
<polygon fill="midnightblue" stroke="midnightblue" points="960.119,-589.085 970.577,-590.783 963.461,-582.934 960.119,-589.085"/>
</g>
<!-- Node4 -->
<g id="node4" class="node"><title>Node4</title>
<g id="a_node4"><a xlink:href="../../dc/d15/ContourCreator_8inl.html" target="_top" xlink:title="/home/travis/build\l/AliceO2Group/AliceO2\l/Detectors/MUON/MCH/Contour\l/include/MCHContour/ContourCreator.inl">
<polygon fill="none" stroke="black" points="1063,-406 1063,-458 1257,-458 1257,-406 1063,-406"/>
<text text-anchor="start" x="1071" y="-446" font-family="Helvetica,sans-Serif" font-size="10.00">/home/travis/build</text>
<text text-anchor="start" x="1071" y="-435" font-family="Helvetica,sans-Serif" font-size="10.00">/AliceO2Group/AliceO2</text>
<text text-anchor="start" x="1071" y="-424" font-family="Helvetica,sans-Serif" font-size="10.00">/Detectors/MUON/MCH/Contour</text>
<text text-anchor="middle" x="1160" y="-413" font-family="Helvetica,sans-Serif" font-size="10.00">/include/MCHContour/ContourCreator.inl</text>
</a>
</g>
</g>
<!-- Node2&#45;&gt;Node4 -->
<g id="edge34" class="edge"><title>Node2&#45;&gt;Node4</title>
<path fill="none" stroke="midnightblue" d="M1085.02,-585.763C1098.76,-577.123 1112.03,-566.565 1122,-554 1144.31,-525.888 1153.62,-484.52 1157.43,-458.174"/>
<polygon fill="midnightblue" stroke="midnightblue" points="1083.22,-582.761 1076.43,-590.894 1086.81,-588.77 1083.22,-582.761"/>
</g>
<!-- Node17 -->
<g id="node17" class="node"><title>Node17</title>
<g id="a_node17"><a xlink:href="../../d2/d32/CathodeSegmentationContours_8h.html" target="_top" xlink:title="/home/travis/build\l/AliceO2Group/AliceO2\l/Detectors/MUON/MCH/Mapping\l/SegContour/include/MCHMappingSegContour\l/CathodeSegmentationContours.h">
<polygon fill="none" stroke="black" points="332,-300.5 332,-363.5 552,-363.5 552,-300.5 332,-300.5"/>
<text text-anchor="start" x="340" y="-351.5" font-family="Helvetica,sans-Serif" font-size="10.00">/home/travis/build</text>
<text text-anchor="start" x="340" y="-340.5" font-family="Helvetica,sans-Serif" font-size="10.00">/AliceO2Group/AliceO2</text>
<text text-anchor="start" x="340" y="-329.5" font-family="Helvetica,sans-Serif" font-size="10.00">/Detectors/MUON/MCH/Mapping</text>
<text text-anchor="start" x="340" y="-318.5" font-family="Helvetica,sans-Serif" font-size="10.00">/SegContour/include/MCHMappingSegContour</text>
<text text-anchor="middle" x="442" y="-307.5" font-family="Helvetica,sans-Serif" font-size="10.00">/CathodeSegmentationContours.h</text>
</a>
</g>
</g>
<!-- Node2&#45;&gt;Node17 -->
<g id="edge36" class="edge"><title>Node2&#45;&gt;Node17</title>
<path fill="none" stroke="midnightblue" d="M926.815,-613.566C812.376,-605.703 615.536,-575.533 496,-464 467.402,-437.317 453.497,-393.245 447.066,-363.678"/>
<polygon fill="midnightblue" stroke="midnightblue" points="926.743,-617.068 936.948,-614.218 927.193,-610.083 926.743,-617.068"/>
</g>
<!-- Node21 -->
<g id="node21" class="node"><title>Node21</title>
<g id="a_node21"><a xlink:href="../../d4/d33/Polygon_8cxx.html" target="_top" xlink:title="/home/travis/build\l/AliceO2Group/AliceO2\l/Detectors/MUON/MCH/Contour\l/test/Polygon.cxx">
<polygon fill="none" stroke="black" points="953,-501 953,-553 1113,-553 1113,-501 953,-501"/>
<text text-anchor="start" x="961" y="-541" font-family="Helvetica,sans-Serif" font-size="10.00">/home/travis/build</text>
<text text-anchor="start" x="961" y="-530" font-family="Helvetica,sans-Serif" font-size="10.00">/AliceO2Group/AliceO2</text>
<text text-anchor="start" x="961" y="-519" font-family="Helvetica,sans-Serif" font-size="10.00">/Detectors/MUON/MCH/Contour</text>
<text text-anchor="middle" x="1033" y="-508" font-family="Helvetica,sans-Serif" font-size="10.00">/test/Polygon.cxx</text>
</a>
</g>
</g>
<!-- Node2&#45;&gt;Node21 -->
<g id="edge35" class="edge"><title>Node2&#45;&gt;Node21</title>
<path fill="none" stroke="midnightblue" d="M1023.46,-580.489C1025.13,-571.309 1026.89,-561.616 1028.44,-553.092"/>
<polygon fill="midnightblue" stroke="midnightblue" points="1019.97,-580.082 1021.63,-590.547 1026.86,-581.334 1019.97,-580.082"/>
</g>
<!-- Node3&#45;&gt;Node4 -->
<g id="edge3" class="edge"><title>Node3&#45;&gt;Node4</title>
<path fill="none" stroke="midnightblue" d="M944.819,-498.613C986.89,-485.784 1036.67,-470.606 1077.75,-458.081"/>
<polygon fill="midnightblue" stroke="midnightblue" points="943.68,-495.301 935.135,-501.565 945.721,-501.996 943.68,-495.301"/>
</g>
<!-- Node6 -->
<g id="node6" class="node"><title>Node6</title>
<g id="a_node6"><a xlink:href="../../de/d51/SVGWriter_8h.html" target="_top" xlink:title="/home/travis/build\l/AliceO2Group/AliceO2\l/Detectors/MUON/MCH/Contour\l/include/MCHContour/SVGWriter.h">
<polygon fill="none" stroke="black" points="1105,-206 1105,-258 1275,-258 1275,-206 1105,-206"/>
<text text-anchor="start" x="1113" y="-246" font-family="Helvetica,sans-Serif" font-size="10.00">/home/travis/build</text>
<text text-anchor="start" x="1113" y="-235" font-family="Helvetica,sans-Serif" font-size="10.00">/AliceO2Group/AliceO2</text>
<text text-anchor="start" x="1113" y="-224" font-family="Helvetica,sans-Serif" font-size="10.00">/Detectors/MUON/MCH/Contour</text>
<text text-anchor="middle" x="1190" y="-213" font-family="Helvetica,sans-Serif" font-size="10.00">/include/MCHContour/SVGWriter.h</text>
</a>
</g>
</g>
<!-- Node3&#45;&gt;Node6 -->
<g id="edge20" class="edge"><title>Node3&#45;&gt;Node6</title>
<path fill="none" stroke="midnightblue" d="M938.497,-496.813C958.332,-487.893 978.729,-476.947 996,-464 1006.61,-456.049 1121.82,-316.139 1169.51,-258.008"/>
<polygon fill="midnightblue" stroke="midnightblue" points="936.896,-493.692 929.13,-500.898 939.695,-500.108 936.896,-493.692"/>
</g>
<!-- Node16 -->
<g id="node16" class="node"><title>Node16</title>
<g id="a_node16"><a xlink:href="../../d8/d3b/Contour_8cxx.html" target="_top" xlink:title="/home/travis/build\l/AliceO2Group/AliceO2\l/Detectors/MUON/MCH/Contour\l/test/Contour.cxx">
<polygon fill="none" stroke="black" points="827,-406 827,-458 987,-458 987,-406 827,-406"/>
<text text-anchor="start" x="835" y="-446" font-family="Helvetica,sans-Serif" font-size="10.00">/home/travis/build</text>
<text text-anchor="start" x="835" y="-435" font-family="Helvetica,sans-Serif" font-size="10.00">/AliceO2Group/AliceO2</text>
<text text-anchor="start" x="835" y="-424" font-family="Helvetica,sans-Serif" font-size="10.00">/Detectors/MUON/MCH/Contour</text>
<text text-anchor="middle" x="907" y="-413" font-family="Helvetica,sans-Serif" font-size="10.00">/test/Contour.cxx</text>
</a>
</g>
</g>
<!-- Node3&#45;&gt;Node16 -->
<g id="edge21" class="edge"><title>Node3&#45;&gt;Node16</title>
<path fill="none" stroke="midnightblue" d="M874.262,-491.551C880.471,-480.446 887.231,-468.355 892.988,-458.06"/>
<polygon fill="midnightblue" stroke="midnightblue" points="871.035,-490.151 869.209,-500.587 877.144,-493.567 871.035,-490.151"/>
</g>
<!-- Node3&#45;&gt;Node17 -->
<g id="edge22" class="edge"><title>Node3&#45;&gt;Node17</title>
<path fill="none" stroke="midnightblue" d="M764.688,-517.965C708.861,-510.087 637.201,-494.552 580,-464 533.233,-439.021 490.864,-393.871 465.761,-363.661"/>
<polygon fill="midnightblue" stroke="midnightblue" points="764.542,-521.477 774.921,-519.349 765.48,-514.54 764.542,-521.477"/>
</g>
<!-- Node19 -->
<g id="node19" class="node"><title>Node19</title>
<g id="a_node19"><a xlink:href="../../dd/d1c/SegmentationContours_8h.html" target="_top" xlink:title="/home/travis/build\l/AliceO2Group/AliceO2\l/Detectors/MUON/MCH/Mapping\l/SegContour/include/MCHMappingSegContour\l/SegmentationContours.h">
<polygon fill="none" stroke="black" points="589,-400.5 589,-463.5 809,-463.5 809,-400.5 589,-400.5"/>
<text text-anchor="start" x="597" y="-451.5" font-family="Helvetica,sans-Serif" font-size="10.00">/home/travis/build</text>
<text text-anchor="start" x="597" y="-440.5" font-family="Helvetica,sans-Serif" font-size="10.00">/AliceO2Group/AliceO2</text>
<text text-anchor="start" x="597" y="-429.5" font-family="Helvetica,sans-Serif" font-size="10.00">/Detectors/MUON/MCH/Mapping</text>
<text text-anchor="start" x="597" y="-418.5" font-family="Helvetica,sans-Serif" font-size="10.00">/SegContour/include/MCHMappingSegContour</text>
<text text-anchor="middle" x="699" y="-407.5" font-family="Helvetica,sans-Serif" font-size="10.00">/SegmentationContours.h</text>
</a>
</g>
</g>
<!-- Node3&#45;&gt;Node19 -->
<g id="edge31" class="edge"><title>Node3&#45;&gt;Node19</title>
<path fill="none" stroke="midnightblue" d="M804.002,-495.597C786.819,-485.354 767.643,-473.921 750.427,-463.659"/>
<polygon fill="midnightblue" stroke="midnightblue" points="802.402,-498.718 812.784,-500.833 805.987,-492.706 802.402,-498.718"/>
</g>
<!-- Node5 -->
<g id="node5" class="node"><title>Node5</title>
<g id="a_node5"><a xlink:href="../../d4/d84/ContourCreator_8h.html" target="_top" xlink:title="/home/travis/build\l/AliceO2Group/AliceO2\l/Detectors/MUON/MCH/Contour\l/include/MCHContour/ContourCreator.h">
<polygon fill="none" stroke="black" points="817.5,-306 817.5,-358 1006.5,-358 1006.5,-306 817.5,-306"/>
<text text-anchor="start" x="825.5" y="-346" font-family="Helvetica,sans-Serif" font-size="10.00">/home/travis/build</text>
<text text-anchor="start" x="825.5" y="-335" font-family="Helvetica,sans-Serif" font-size="10.00">/AliceO2Group/AliceO2</text>
<text text-anchor="start" x="825.5" y="-324" font-family="Helvetica,sans-Serif" font-size="10.00">/Detectors/MUON/MCH/Contour</text>
<text text-anchor="middle" x="912" y="-313" font-family="Helvetica,sans-Serif" font-size="10.00">/include/MCHContour/ContourCreator.h</text>
</a>
</g>
</g>
<!-- Node4&#45;&gt;Node5 -->
<g id="edge4" class="edge"><title>Node4&#45;&gt;Node5</title>
<path fill="none" stroke="midnightblue" d="M1087.13,-402.203C1051.68,-388.195 1009.47,-371.518 975.379,-358.045"/>
<polygon fill="midnightblue" stroke="midnightblue" points="1085.87,-405.47 1096.46,-405.89 1088.44,-398.96 1085.87,-405.47"/>
</g>
<!-- Node5&#45;&gt;Node6 -->
<g id="edge5" class="edge"><title>Node5&#45;&gt;Node6</title>
<path fill="none" stroke="midnightblue" d="M992.677,-302.56C1032.62,-288.48 1080.41,-271.632 1118.95,-258.045"/>
<polygon fill="midnightblue" stroke="midnightblue" points="991.498,-299.264 983.231,-305.89 993.826,-305.866 991.498,-299.264"/>
</g>
<!-- Node13 -->
<g id="node13" class="node"><title>Node13</title>
<g id="a_node13"><a xlink:href="../../d3/d4a/ContourCreator_8cxx.html" target="_top" xlink:title="/home/travis/build\l/AliceO2Group/AliceO2\l/Detectors/MUON/MCH/Contour\l/test/ContourCreator.cxx">
<polygon fill="none" stroke="black" points="927,-206 927,-258 1087,-258 1087,-206 927,-206"/>
<text text-anchor="start" x="935" y="-246" font-family="Helvetica,sans-Serif" font-size="10.00">/home/travis/build</text>
<text text-anchor="start" x="935" y="-235" font-family="Helvetica,sans-Serif" font-size="10.00">/AliceO2Group/AliceO2</text>
<text text-anchor="start" x="935" y="-224" font-family="Helvetica,sans-Serif" font-size="10.00">/Detectors/MUON/MCH/Contour</text>
<text text-anchor="middle" x="1007" y="-213" font-family="Helvetica,sans-Serif" font-size="10.00">/test/ContourCreator.cxx</text>
</a>
</g>
</g>
<!-- Node5&#45;&gt;Node13 -->
<g id="edge17" class="edge"><title>Node5&#45;&gt;Node13</title>
<path fill="none" stroke="midnightblue" d="M943.706,-298.293C956.392,-285.207 970.773,-270.371 982.618,-258.152"/>
<polygon fill="midnightblue" stroke="midnightblue" points="940.912,-296.146 936.465,-305.763 945.938,-301.019 940.912,-296.146"/>
</g>
<!-- Node14 -->
<g id="node14" class="node"><title>Node14</title>
<g id="a_node14"><a xlink:href="../../da/d65/CathodeSegmentationContours_8cxx.html" target="_top" xlink:title="/home/travis/build\l/AliceO2Group/AliceO2\l/Detectors/MUON/MCH/Mapping\l/SegContour/src/CathodeSegmentation\lContours.cxx">
<polygon fill="none" stroke="black" points="493,-200.5 493,-263.5 681,-263.5 681,-200.5 493,-200.5"/>
<text text-anchor="start" x="501" y="-251.5" font-family="Helvetica,sans-Serif" font-size="10.00">/home/travis/build</text>
<text text-anchor="start" x="501" y="-240.5" font-family="Helvetica,sans-Serif" font-size="10.00">/AliceO2Group/AliceO2</text>
<text text-anchor="start" x="501" y="-229.5" font-family="Helvetica,sans-Serif" font-size="10.00">/Detectors/MUON/MCH/Mapping</text>
<text text-anchor="start" x="501" y="-218.5" font-family="Helvetica,sans-Serif" font-size="10.00">/SegContour/src/CathodeSegmentation</text>
<text text-anchor="middle" x="587" y="-207.5" font-family="Helvetica,sans-Serif" font-size="10.00">Contours.cxx</text>
</a>
</g>
</g>
<!-- Node5&#45;&gt;Node14 -->
<g id="edge18" class="edge"><title>Node5&#45;&gt;Node14</title>
<path fill="none" stroke="midnightblue" d="M819.073,-302.979C775.882,-289.955 724.608,-274.494 681.255,-261.421"/>
<polygon fill="midnightblue" stroke="midnightblue" points="818.142,-306.354 828.726,-305.89 820.163,-299.652 818.142,-306.354"/>
</g>
<!-- Node15 -->
<g id="node15" class="node"><title>Node15</title>
<g id="a_node15"><a xlink:href="../../de/de2/SegmentationContours_8cxx.html" target="_top" xlink:title="/home/travis/build\l/AliceO2Group/AliceO2\l/Detectors/MUON/MCH/Mapping\l/SegContour/src/SegmentationContours.cxx">
<polygon fill="none" stroke="black" points="699.5,-206 699.5,-258 908.5,-258 908.5,-206 699.5,-206"/>
<text text-anchor="start" x="707.5" y="-246" font-family="Helvetica,sans-Serif" font-size="10.00">/home/travis/build</text>
<text text-anchor="start" x="707.5" y="-235" font-family="Helvetica,sans-Serif" font-size="10.00">/AliceO2Group/AliceO2</text>
<text text-anchor="start" x="707.5" y="-224" font-family="Helvetica,sans-Serif" font-size="10.00">/Detectors/MUON/MCH/Mapping</text>
<text text-anchor="middle" x="804" y="-213" font-family="Helvetica,sans-Serif" font-size="10.00">/SegContour/src/SegmentationContours.cxx</text>
</a>
</g>
</g>
<!-- Node5&#45;&gt;Node15 -->
<g id="edge19" class="edge"><title>Node5&#45;&gt;Node15</title>
<path fill="none" stroke="midnightblue" d="M876.762,-299.025C862.146,-285.762 845.436,-270.599 831.718,-258.152"/>
<polygon fill="midnightblue" stroke="midnightblue" points="874.43,-301.635 884.187,-305.763 879.134,-296.451 874.43,-301.635"/>
</g>
<!-- Node7 -->
<g id="node7" class="node"><title>Node7</title>
<g id="a_node7"><a xlink:href="../../d0/db8/CathodeSegmentationSVGWriter_8h.html" target="_top" xlink:title="/home/travis/build\l/AliceO2Group/AliceO2\l/Detectors/MUON/MCH/Mapping\l/SegContour/include/MCHMappingSegContour\l/CathodeSegmentationSVGWriter.h">
<polygon fill="none" stroke="black" points="415,-100.5 415,-163.5 635,-163.5 635,-100.5 415,-100.5"/>
<text text-anchor="start" x="423" y="-151.5" font-family="Helvetica,sans-Serif" font-size="10.00">/home/travis/build</text>
<text text-anchor="start" x="423" y="-140.5" font-family="Helvetica,sans-Serif" font-size="10.00">/AliceO2Group/AliceO2</text>
<text text-anchor="start" x="423" y="-129.5" font-family="Helvetica,sans-Serif" font-size="10.00">/Detectors/MUON/MCH/Mapping</text>
<text text-anchor="start" x="423" y="-118.5" font-family="Helvetica,sans-Serif" font-size="10.00">/SegContour/include/MCHMappingSegContour</text>
<text text-anchor="middle" x="525" y="-107.5" font-family="Helvetica,sans-Serif" font-size="10.00">/CathodeSegmentationSVGWriter.h</text>
</a>
</g>
</g>
<!-- Node6&#45;&gt;Node7 -->
<g id="edge6" class="edge"><title>Node6&#45;&gt;Node7</title>
<path fill="none" stroke="midnightblue" d="M1109.28,-203.233C1104.81,-202.055 1100.37,-200.965 1096,-200 1010.79,-181.152 775.545,-156.79 635.009,-143.242"/>
<polygon fill="midnightblue" stroke="midnightblue" points="1108.51,-206.65 1119.08,-205.94 1110.37,-199.903 1108.51,-206.65"/>
</g>
<!-- Node8 -->
<g id="node8" class="node"><title>Node8</title>
<g id="a_node8"><a xlink:href="../../de/d54/CathodeSegmentationSVGWriter_8cxx.html" target="_top" xlink:title="/home/travis/build\l/AliceO2Group/AliceO2\l/Detectors/MUON/MCH/Mapping\l/SegContour/src/CathodeSegmentation\lSVGWriter.cxx">
<polygon fill="none" stroke="black" points="210,-0.5 210,-63.5 398,-63.5 398,-0.5 210,-0.5"/>
<text text-anchor="start" x="218" y="-51.5" font-family="Helvetica,sans-Serif" font-size="10.00">/home/travis/build</text>
<text text-anchor="start" x="218" y="-40.5" font-family="Helvetica,sans-Serif" font-size="10.00">/AliceO2Group/AliceO2</text>
<text text-anchor="start" x="218" y="-29.5" font-family="Helvetica,sans-Serif" font-size="10.00">/Detectors/MUON/MCH/Mapping</text>
<text text-anchor="start" x="218" y="-18.5" font-family="Helvetica,sans-Serif" font-size="10.00">/SegContour/src/CathodeSegmentation</text>
<text text-anchor="middle" x="304" y="-7.5" font-family="Helvetica,sans-Serif" font-size="10.00">SVGWriter.cxx</text>
</a>
</g>
</g>
<!-- Node6&#45;&gt;Node8 -->
<g id="edge12" class="edge"><title>Node6&#45;&gt;Node8</title>
<path fill="none" stroke="midnightblue" d="M1111.19,-203.341C1106.08,-202.069 1100.99,-200.936 1096,-200 945.088,-171.705 542.143,-234.994 406,-164 364.341,-142.276 334.38,-95.1073 318.11,-63.7033"/>
<polygon fill="midnightblue" stroke="midnightblue" points="1110.43,-206.76 1120.99,-205.943 1112.22,-199.994 1110.43,-206.76"/>
</g>
<!-- Node9 -->
<g id="node9" class="node"><title>Node9</title>
<g id="a_node9"><a xlink:href="../../de/d56/SegmentationSVGWriter_8cxx.html" target="_top" xlink:title="/home/travis/build\l/AliceO2Group/AliceO2\l/Detectors/MUON/MCH/Mapping\l/SegContour/src/SegmentationSVGWriter.cxx">
<polygon fill="none" stroke="black" points="416.5,-6 416.5,-58 633.5,-58 633.5,-6 416.5,-6"/>
<text text-anchor="start" x="424.5" y="-46" font-family="Helvetica,sans-Serif" font-size="10.00">/home/travis/build</text>
<text text-anchor="start" x="424.5" y="-35" font-family="Helvetica,sans-Serif" font-size="10.00">/AliceO2Group/AliceO2</text>
<text text-anchor="start" x="424.5" y="-24" font-family="Helvetica,sans-Serif" font-size="10.00">/Detectors/MUON/MCH/Mapping</text>
<text text-anchor="middle" x="525" y="-13" font-family="Helvetica,sans-Serif" font-size="10.00">/SegContour/src/SegmentationSVGWriter.cxx</text>
</a>
</g>
</g>
<!-- Node6&#45;&gt;Node9 -->
<g id="edge13" class="edge"><title>Node6&#45;&gt;Node9</title>
<path fill="none" stroke="midnightblue" d="M1107.49,-203.142C1103.62,-202.039 1099.77,-200.985 1096,-200 1014.95,-178.84 991.956,-185.509 911,-164 796.267,-133.517 666.155,-86.7342 590.083,-58.1021"/>
<polygon fill="midnightblue" stroke="midnightblue" points="1106.56,-206.518 1117.14,-205.974 1108.53,-199.801 1106.56,-206.518"/>
</g>
<!-- Node10 -->
<g id="node10" class="node"><title>Node10</title>
<g id="a_node10"><a xlink:href="../../d2/d0f/SVGSegmentation_8cxx.html" target="_top" xlink:title="/home/travis/build\l/AliceO2Group/AliceO2\l/Detectors/MUON/MCH/Mapping\l/SegContour/src/SVGSegmentation.cxx">
<polygon fill="none" stroke="black" points="840.5,-6 840.5,-58 1031.5,-58 1031.5,-6 840.5,-6"/>
<text text-anchor="start" x="848.5" y="-46" font-family="Helvetica,sans-Serif" font-size="10.00">/home/travis/build</text>
<text text-anchor="start" x="848.5" y="-35" font-family="Helvetica,sans-Serif" font-size="10.00">/AliceO2Group/AliceO2</text>
<text text-anchor="start" x="848.5" y="-24" font-family="Helvetica,sans-Serif" font-size="10.00">/Detectors/MUON/MCH/Mapping</text>
<text text-anchor="middle" x="936" y="-13" font-family="Helvetica,sans-Serif" font-size="10.00">/SegContour/src/SVGSegmentation.cxx</text>
</a>
</g>
</g>
<!-- Node6&#45;&gt;Node10 -->
<g id="edge14" class="edge"><title>Node6&#45;&gt;Node10</title>
<path fill="none" stroke="midnightblue" d="M1149.77,-199.643C1099.52,-160.472 1014.54,-94.225 968.308,-58.1852"/>
<polygon fill="midnightblue" stroke="midnightblue" points="1147.79,-202.536 1157.83,-205.923 1152.1,-197.015 1147.79,-202.536"/>
</g>
<!-- Node11 -->
<g id="node11" class="node"><title>Node11</title>
<g id="a_node11"><a xlink:href="../../df/dc1/CathodeSegmentation_8cxx.html" target="_top" xlink:title="/home/travis/build\l/AliceO2Group/AliceO2\l/Detectors/MUON/MCH/Mapping\l/test/src/CathodeSegmentation.cxx">
<polygon fill="none" stroke="black" points="651.5,-6 651.5,-58 822.5,-58 822.5,-6 651.5,-6"/>
<text text-anchor="start" x="659.5" y="-46" font-family="Helvetica,sans-Serif" font-size="10.00">/home/travis/build</text>
<text text-anchor="start" x="659.5" y="-35" font-family="Helvetica,sans-Serif" font-size="10.00">/AliceO2Group/AliceO2</text>
<text text-anchor="start" x="659.5" y="-24" font-family="Helvetica,sans-Serif" font-size="10.00">/Detectors/MUON/MCH/Mapping</text>
<text text-anchor="middle" x="737" y="-13" font-family="Helvetica,sans-Serif" font-size="10.00">/test/src/CathodeSegmentation.cxx</text>
</a>
</g>
</g>
<!-- Node6&#45;&gt;Node11 -->
<g id="edge15" class="edge"><title>Node6&#45;&gt;Node11</title>
<path fill="none" stroke="midnightblue" d="M1111.27,-202.292C1082.76,-191.196 1050.56,-177.841 1022,-164 970.754,-139.166 962.393,-124.528 911,-100 878.427,-84.4541 841.22,-69.7401 809.595,-58.0825"/>
<polygon fill="midnightblue" stroke="midnightblue" points="1110.19,-205.63 1120.78,-205.966 1112.71,-199.1 1110.19,-205.63"/>
</g>
<!-- Node12 -->
<g id="node12" class="node"><title>Node12</title>
<g id="a_node12"><a xlink:href="../../d2/dba/CathodeSegmentationLong_8cxx.html" target="_top" xlink:title="/home/travis/build\l/AliceO2Group/AliceO2\l/Detectors/MUON/MCH/Mapping\l/test/src/CathodeSegmentationLong.cxx">
<polygon fill="none" stroke="black" points="0,-6 0,-58 192,-58 192,-6 0,-6"/>
<text text-anchor="start" x="8" y="-46" font-family="Helvetica,sans-Serif" font-size="10.00">/home/travis/build</text>
<text text-anchor="start" x="8" y="-35" font-family="Helvetica,sans-Serif" font-size="10.00">/AliceO2Group/AliceO2</text>
<text text-anchor="start" x="8" y="-24" font-family="Helvetica,sans-Serif" font-size="10.00">/Detectors/MUON/MCH/Mapping</text>
<text text-anchor="middle" x="96" y="-13" font-family="Helvetica,sans-Serif" font-size="10.00">/test/src/CathodeSegmentationLong.cxx</text>
</a>
</g>
</g>
<!-- Node6&#45;&gt;Node12 -->
<g id="edge16" class="edge"><title>Node6&#45;&gt;Node12</title>
<path fill="none" stroke="midnightblue" d="M1111.35,-203.353C1106.19,-202.071 1101.05,-200.934 1096,-200 930.182,-169.311 500.443,-209.274 338,-164 258.154,-141.747 175.38,-89.4855 130.323,-58.1128"/>
<polygon fill="midnightblue" stroke="midnightblue" points="1110.69,-206.799 1121.25,-205.978 1112.48,-200.033 1110.69,-206.799"/>
</g>
<!-- Node7&#45;&gt;Node8 -->
<g id="edge7" class="edge"><title>Node7&#45;&gt;Node8</title>
<path fill="none" stroke="midnightblue" d="M446.537,-96.2062C422.49,-85.5433 396.229,-73.8979 372.873,-63.541"/>
<polygon fill="midnightblue" stroke="midnightblue" points="445.423,-99.5411 455.983,-100.395 448.261,-93.142 445.423,-99.5411"/>
</g>
<!-- Node7&#45;&gt;Node9 -->
<g id="edge8" class="edge"><title>Node7&#45;&gt;Node9</title>
<path fill="none" stroke="midnightblue" d="M525,-90.0792C525,-79.2096 525,-67.7945 525,-58.0536"/>
<polygon fill="midnightblue" stroke="midnightblue" points="521.5,-90.261 525,-100.261 528.5,-90.2611 521.5,-90.261"/>
</g>
<!-- Node7&#45;&gt;Node10 -->
<g id="edge9" class="edge"><title>Node7&#45;&gt;Node10</title>
<path fill="none" stroke="midnightblue" d="M645.273,-106.743C701.858,-94.8002 770.128,-79.6287 831,-64 838.272,-62.133 845.8,-60.104 853.331,-58.0077"/>
<polygon fill="midnightblue" stroke="midnightblue" points="644.278,-103.375 635.212,-108.858 645.718,-110.226 644.278,-103.375"/>
</g>
<!-- Node7&#45;&gt;Node11 -->
<g id="edge10" class="edge"><title>Node7&#45;&gt;Node11</title>
<path fill="none" stroke="midnightblue" d="M600.3,-96.1913C627.484,-83.6252 657.616,-69.6962 682.657,-58.1206"/>
<polygon fill="midnightblue" stroke="midnightblue" points="598.815,-93.0222 591.206,-100.395 601.752,-99.3762 598.815,-93.0222"/>
</g>
<!-- Node7&#45;&gt;Node12 -->
<g id="edge11" class="edge"><title>Node7&#45;&gt;Node12</title>
<path fill="none" stroke="midnightblue" d="M404.543,-108.567C343.314,-96.5383 267.898,-80.7615 201,-64 193.625,-62.1522 185.991,-60.125 178.36,-58.0196"/>
<polygon fill="midnightblue" stroke="midnightblue" points="404.147,-112.056 414.633,-110.541 405.491,-105.186 404.147,-112.056"/>
</g>
<!-- Node17&#45;&gt;Node8 -->
<g id="edge24" class="edge"><title>Node17&#45;&gt;Node8</title>
<path fill="none" stroke="midnightblue" d="M321.736,-318.296C251.895,-308.162 173.536,-291.079 152,-264 97.9876,-196.086 196.021,-108.917 258.32,-63.5399"/>
<polygon fill="midnightblue" stroke="midnightblue" points="321.58,-321.809 331.971,-319.741 322.559,-314.877 321.58,-321.809"/>
</g>
<!-- Node17&#45;&gt;Node9 -->
<g id="edge26" class="edge"><title>Node17&#45;&gt;Node9</title>
<path fill="none" stroke="midnightblue" d="M420.997,-291.01C398.68,-242.494 371.049,-159.787 406,-100 416.649,-81.7831 434.277,-68.1347 452.744,-58.0801"/>
<polygon fill="midnightblue" stroke="midnightblue" points="417.926,-292.701 425.37,-300.24 424.252,-289.704 417.926,-292.701"/>
</g>
<!-- Node17&#45;&gt;Node10 -->
<g id="edge27" class="edge"><title>Node17&#45;&gt;Node10</title>
<path fill="none" stroke="midnightblue" d="M450.306,-290.107C458.003,-256.326 470.304,-212.039 484,-200 550.522,-141.527 596.134,-192.475 680,-164 760.367,-136.713 846.887,-87.8984 895.948,-58.1804"/>
<polygon fill="midnightblue" stroke="midnightblue" points="446.815,-289.685 448.069,-300.205 453.649,-291.199 446.815,-289.685"/>
</g>
<!-- Node17&#45;&gt;Node11 -->
<g id="edge29" class="edge"><title>Node17&#45;&gt;Node11</title>
<path fill="none" stroke="midnightblue" d="M432.926,-290.349C429.061,-261.631 429.532,-224.11 451,-200 509.026,-134.832 571.099,-211.951 644,-164 672.63,-145.168 667.191,-127.963 687,-100 696.9,-86.025 708.297,-70.6981 717.707,-58.2349"/>
<polygon fill="midnightblue" stroke="midnightblue" points="429.509,-291.152 434.515,-300.489 436.425,-290.068 429.509,-291.152"/>
</g>
<!-- Node17&#45;&gt;Node12 -->
<g id="edge30" class="edge"><title>Node17&#45;&gt;Node12</title>
<path fill="none" stroke="midnightblue" d="M321.859,-318.908C246.559,-308.778 159.004,-291.467 133,-264 79.2477,-207.224 85.4128,-105.219 91.7785,-58.1077"/>
<polygon fill="midnightblue" stroke="midnightblue" points="321.55,-322.397 331.921,-320.229 322.461,-315.457 321.55,-322.397"/>
</g>
<!-- Node17&#45;&gt;Node14 -->
<g id="edge23" class="edge"><title>Node17&#45;&gt;Node14</title>
<path fill="none" stroke="midnightblue" d="M496.155,-294.398C511.144,-284.268 527.252,-273.382 541.68,-263.63"/>
<polygon fill="midnightblue" stroke="midnightblue" points="493.806,-291.762 487.481,-300.261 497.726,-297.561 493.806,-291.762"/>
</g>
<!-- Node17&#45;&gt;Node15 -->
<g id="edge25" class="edge"><title>Node17&#45;&gt;Node15</title>
<path fill="none" stroke="midnightblue" d="M561.875,-298.657C602.551,-287.671 648.256,-275.315 690,-264 697.127,-262.068 704.503,-260.067 711.919,-258.054"/>
<polygon fill="midnightblue" stroke="midnightblue" points="560.936,-295.285 552.194,-301.271 562.761,-302.043 560.936,-295.285"/>
</g>
<!-- Node18 -->
<g id="node18" class="node"><title>Node18</title>
<g id="a_node18"><a xlink:href="../../d8/df7/BenchCathodeSegmentation_8cxx.html" target="_top" xlink:title="/home/travis/build\l/AliceO2Group/AliceO2\l/Detectors/MUON/MCH/Mapping\l/test/src/BenchCathodeSegmentation.cxx">
<polygon fill="none" stroke="black" points="161.5,-206 161.5,-258 360.5,-258 360.5,-206 161.5,-206"/>
<text text-anchor="start" x="169.5" y="-246" font-family="Helvetica,sans-Serif" font-size="10.00">/home/travis/build</text>
<text text-anchor="start" x="169.5" y="-235" font-family="Helvetica,sans-Serif" font-size="10.00">/AliceO2Group/AliceO2</text>
<text text-anchor="start" x="169.5" y="-224" font-family="Helvetica,sans-Serif" font-size="10.00">/Detectors/MUON/MCH/Mapping</text>
<text text-anchor="middle" x="261" y="-213" font-family="Helvetica,sans-Serif" font-size="10.00">/test/src/BenchCathodeSegmentation.cxx</text>
</a>
</g>
</g>
<!-- Node17&#45;&gt;Node18 -->
<g id="edge28" class="edge"><title>Node17&#45;&gt;Node18</title>
<path fill="none" stroke="midnightblue" d="M376.256,-295.404C353.386,-283.021 328.231,-269.401 307.272,-258.054"/>
<polygon fill="midnightblue" stroke="midnightblue" points="374.767,-298.578 385.227,-300.261 378.1,-292.422 374.767,-298.578"/>
</g>
<!-- Node19&#45;&gt;Node15 -->
<g id="edge32" class="edge"><title>Node19&#45;&gt;Node15</title>
<path fill="none" stroke="midnightblue" d="M746.728,-393.15C755.482,-384.363 763.798,-374.485 770,-364 789.738,-330.631 798.157,-285.857 801.648,-258.241"/>
<polygon fill="midnightblue" stroke="midnightblue" points="744.105,-390.816 739.308,-400.263 748.949,-395.869 744.105,-390.816"/>
</g>
<!-- Node20 -->
<g id="node20" class="node"><title>Node20</title>
<g id="a_node20"><a xlink:href="../../d5/d2d/MUON_2MCH_2Mapping_2test_2src_2Segmentation_8cxx.html" target="_top" xlink:title="/home/travis/build\l/AliceO2Group/AliceO2\l/Detectors/MUON/MCH/Mapping\l/test/src/Segmentation.cxx">
<polygon fill="none" stroke="black" points="599,-306 599,-358 761,-358 761,-306 599,-306"/>
<text text-anchor="start" x="607" y="-346" font-family="Helvetica,sans-Serif" font-size="10.00">/home/travis/build</text>
<text text-anchor="start" x="607" y="-335" font-family="Helvetica,sans-Serif" font-size="10.00">/AliceO2Group/AliceO2</text>
<text text-anchor="start" x="607" y="-324" font-family="Helvetica,sans-Serif" font-size="10.00">/Detectors/MUON/MCH/Mapping</text>
<text text-anchor="middle" x="680" y="-313" font-family="Helvetica,sans-Serif" font-size="10.00">/test/src/Segmentation.cxx</text>
</a>
</g>
</g>
<!-- Node19&#45;&gt;Node20 -->
<g id="edge33" class="edge"><title>Node19&#45;&gt;Node20</title>
<path fill="none" stroke="midnightblue" d="M691.132,-390.415C689.005,-379.445 686.765,-367.895 684.857,-358.054"/>
<polygon fill="midnightblue" stroke="midnightblue" points="687.701,-391.11 693.04,-400.261 694.573,-389.778 687.701,-391.11"/>
</g>
<!-- Node22&#45;&gt;Node4 -->
<g id="edge38" class="edge"><title>Node22&#45;&gt;Node4</title>
<path fill="none" stroke="midnightblue" d="M1188.28,-580.881C1181.4,-544.898 1170.87,-489.854 1164.79,-458.052"/>
<polygon fill="midnightblue" stroke="midnightblue" points="1184.89,-581.774 1190.21,-590.938 1191.77,-580.459 1184.89,-581.774"/>
</g>
<!-- Node23 -->
<g id="node23" class="node"><title>Node23</title>
<g id="a_node23"><a xlink:href="../../d6/d3f/Edge_8cxx.html" target="_top" xlink:title="/home/travis/build\l/AliceO2Group/AliceO2\l/Detectors/MUON/MCH/Contour\l/test/Edge.cxx">
<polygon fill="none" stroke="black" points="1207,-501 1207,-553 1367,-553 1367,-501 1207,-501"/>
<text text-anchor="start" x="1215" y="-541" font-family="Helvetica,sans-Serif" font-size="10.00">/home/travis/build</text>
<text text-anchor="start" x="1215" y="-530" font-family="Helvetica,sans-Serif" font-size="10.00">/AliceO2Group/AliceO2</text>
<text text-anchor="start" x="1215" y="-519" font-family="Helvetica,sans-Serif" font-size="10.00">/Detectors/MUON/MCH/Contour</text>
<text text-anchor="middle" x="1287" y="-508" font-family="Helvetica,sans-Serif" font-size="10.00">/test/Edge.cxx</text>
</a>
</g>
</g>
<!-- Node22&#45;&gt;Node23 -->
<g id="edge39" class="edge"><title>Node22&#45;&gt;Node23</title>
<path fill="none" stroke="midnightblue" d="M1229.05,-583.431C1239.53,-573.407 1250.9,-562.533 1260.77,-553.092"/>
<polygon fill="midnightblue" stroke="midnightblue" points="1226.42,-581.105 1221.61,-590.547 1231.26,-586.164 1226.42,-581.105"/>
</g>
</g>
</svg>
