<?xml version="1.0" encoding="UTF-8" standalone="no"?>
<!DOCTYPE svg PUBLIC "-//W3C//DTD SVG 1.1//EN"
 "http://www.w3.org/Graphics/SVG/1.1/DTD/svg11.dtd">
<!-- Generated by graphviz version 2.36.0 (20140111.2315)
 -->
<!-- Title: /home/travis/build/AliceO2Group/AliceO2/Examples/flp2epn&#45;distributed/src/FLPSyncSampler.cxx Pages: 1 -->
<svg width="689pt" height="186pt"
 viewBox="0.00 0.00 689.00 186.00" xmlns="http://www.w3.org/2000/svg" xmlns:xlink="http://www.w3.org/1999/xlink">
<g id="graph0" class="graph" transform="scale(1 1) rotate(0) translate(4 182)">
<title>/home/travis/build/AliceO2Group/AliceO2/Examples/flp2epn&#45;distributed/src/FLPSyncSampler.cxx</title>
<!-- Node1 -->
<g id="node1" class="node"><title>Node1</title>
<polygon fill="#bfbfbf" stroke="black" points="98,-125 98,-177 244,-177 244,-125 98,-125"/>
<text text-anchor="start" x="106" y="-165" font-family="Helvetica,sans-Serif" font-size="10.00">/home/travis/build</text>
<text text-anchor="start" x="106" y="-154" font-family="Helvetica,sans-Serif" font-size="10.00">/AliceO2Group/AliceO2</text>
<text text-anchor="start" x="106" y="-143" font-family="Helvetica,sans-Serif" font-size="10.00">/Examples/flp2epn&#45;distributed</text>
<text text-anchor="middle" x="171" y="-132" font-family="Helvetica,sans-Serif" font-size="10.00">/src/FLPSyncSampler.cxx</text>
</g>
<!-- Node2 -->
<g id="node2" class="node"><title>Node2</title>
<polygon fill="none" stroke="#bfbfbf" points="0,-62.5 0,-81.5 50,-81.5 50,-62.5 0,-62.5"/>
<text text-anchor="middle" x="25" y="-69.5" font-family="Helvetica,sans-Serif" font-size="10.00">fstream</text>
</g>
<!-- Node1&#45;&gt;Node2 -->
<g id="edge1" class="edge"><title>Node1&#45;&gt;Node2</title>
<path fill="none" stroke="midnightblue" d="M123.194,-124.787C98.8948,-111.972 70.3504,-96.9177 50.3197,-86.3535"/>
<polygon fill="midnightblue" stroke="midnightblue" points="51.7043,-83.1269 41.2263,-81.5577 48.4388,-89.3185 51.7043,-83.1269"/>
</g>
<!-- Node3 -->
<g id="node3" class="node"><title>Node3</title>
<polygon fill="none" stroke="#bfbfbf" points="68.5,-62.5 68.5,-81.5 109.5,-81.5 109.5,-62.5 68.5,-62.5"/>
<text text-anchor="middle" x="89" y="-69.5" font-family="Helvetica,sans-Serif" font-size="10.00">ctime</text>
</g>
<!-- Node1&#45;&gt;Node3 -->
<g id="edge2" class="edge"><title>Node1&#45;&gt;Node3</title>
<path fill="none" stroke="midnightblue" d="M144.15,-124.787C131.371,-112.787 116.502,-98.8246 105.425,-88.4232"/>
<polygon fill="midnightblue" stroke="midnightblue" points="107.799,-85.8516 98.1134,-81.5577 103.007,-90.9545 107.799,-85.8516"/>
</g>
<!-- Node4 -->
<g id="node4" class="node"><title>Node4</title>
<polygon fill="none" stroke="#bfbfbf" points="128,-62.5 128,-81.5 214,-81.5 214,-62.5 128,-62.5"/>
<text text-anchor="middle" x="171" y="-69.5" font-family="Helvetica,sans-Serif" font-size="10.00">FairMQLogger.h</text>
</g>
<!-- Node1&#45;&gt;Node4 -->
<g id="edge3" class="edge"><title>Node1&#45;&gt;Node4</title>
<path fill="none" stroke="midnightblue" d="M171,-124.787C171,-114.069 171,-101.785 171,-91.8708"/>
<polygon fill="midnightblue" stroke="midnightblue" points="174.5,-91.5577 171,-81.5577 167.5,-91.5577 174.5,-91.5577"/>
</g>
<!-- Node5 -->
<g id="node5" class="node"><title>Node5</title>
<polygon fill="none" stroke="#bfbfbf" points="232,-62.5 232,-81.5 378,-81.5 378,-62.5 232,-62.5"/>
<text text-anchor="middle" x="305" y="-69.5" font-family="Helvetica,sans-Serif" font-size="10.00">options/FairMQProgOptions.h</text>
</g>
<!-- Node1&#45;&gt;Node5 -->
<g id="edge4" class="edge"><title>Node1&#45;&gt;Node5</title>
<path fill="none" stroke="midnightblue" d="M214.877,-124.787C236.976,-112.088 262.901,-97.1912 281.258,-86.6428"/>
<polygon fill="midnightblue" stroke="midnightblue" points="283.181,-89.5747 290.107,-81.5577 279.693,-83.5054 283.181,-89.5747"/>
</g>
<!-- Node6 -->
<g id="node6" class="node"><title>Node6</title>
<g id="a_node6"><a xlink:href="../../d6/d0a/FLPSyncSampler_8h.html" target="_top" xlink:title="FLP2EPNex_distributed\l/FLPSyncSampler.h">
<polygon fill="none" stroke="black" points="396,-57 396,-87 518,-87 518,-57 396,-57"/>
<text text-anchor="start" x="404" y="-75" font-family="Helvetica,sans-Serif" font-size="10.00">FLP2EPNex_distributed</text>
<text text-anchor="middle" x="457" y="-64" font-family="Helvetica,sans-Serif" font-size="10.00">/FLPSyncSampler.h</text>
</a>
</g>
</g>
<!-- Node1&#45;&gt;Node6 -->
<g id="edge5" class="edge"><title>Node1&#45;&gt;Node6</title>
<path fill="none" stroke="midnightblue" d="M244.281,-130.271C290.902,-117.719 350.614,-101.642 394.899,-89.7195"/>
<polygon fill="midnightblue" stroke="midnightblue" points="395.924,-93.0683 404.67,-87.0889 394.104,-86.309 395.924,-93.0683"/>
</g>
<!-- Node7 -->
<g id="node7" class="node"><title>Node7</title>
<polygon fill="none" stroke="#bfbfbf" points="279.5,-0.5 279.5,-19.5 320.5,-19.5 320.5,-0.5 279.5,-0.5"/>
<text text-anchor="middle" x="300" y="-7.5" font-family="Helvetica,sans-Serif" font-size="10.00">string</text>
</g>
<!-- Node6&#45;&gt;Node7 -->
<g id="edge6" class="edge"><title>Node6&#45;&gt;Node7</title>
<path fill="none" stroke="midnightblue" d="M420.19,-56.9327C392.826,-46.475 355.94,-32.3785 330.278,-22.5712"/>
<polygon fill="midnightblue" stroke="midnightblue" points="331.291,-19.2115 320.7,-18.911 328.792,-25.7503 331.291,-19.2115"/>
</g>
<!-- Node8 -->
<g id="node8" class="node"><title>Node8</title>
<polygon fill="none" stroke="#bfbfbf" points="339,-0.5 339,-19.5 385,-19.5 385,-0.5 339,-0.5"/>
<text text-anchor="middle" x="362" y="-7.5" font-family="Helvetica,sans-Serif" font-size="10.00">cstdint</text>
</g>
<!-- Node6&#45;&gt;Node8 -->
<g id="edge7" class="edge"><title>Node6&#45;&gt;Node8</title>
<path fill="none" stroke="midnightblue" d="M434.486,-56.7808C419.31,-47.1958 399.376,-34.6062 384.255,-25.0555"/>
<polygon fill="midnightblue" stroke="midnightblue" points="385.87,-21.9365 375.547,-19.5557 382.132,-27.8549 385.87,-21.9365"/>
</g>
<!-- Node9 -->
<g id="node9" class="node"><title>Node9</title>
<polygon fill="none" stroke="#bfbfbf" points="403,-0.5 403,-19.5 447,-19.5 447,-0.5 403,-0.5"/>
<text text-anchor="middle" x="425" y="-7.5" font-family="Helvetica,sans-Serif" font-size="10.00">thread</text>
</g>
<!-- Node6&#45;&gt;Node9 -->
<g id="edge8" class="edge"><title>Node6&#45;&gt;Node9</title>
<path fill="none" stroke="midnightblue" d="M449.416,-56.7808C444.91,-48.3318 439.159,-37.5481 434.37,-28.5693"/>
<polygon fill="midnightblue" stroke="midnightblue" points="437.45,-26.907 429.656,-19.7305 431.274,-30.2012 437.45,-26.907"/>
</g>
<!-- Node10 -->
<g id="node10" class="node"><title>Node10</title>
<polygon fill="none" stroke="#bfbfbf" points="465,-0.5 465,-19.5 511,-19.5 511,-0.5 465,-0.5"/>
<text text-anchor="middle" x="488" y="-7.5" font-family="Helvetica,sans-Serif" font-size="10.00">atomic</text>
</g>
<!-- Node6&#45;&gt;Node10 -->
<g id="edge9" class="edge"><title>Node6&#45;&gt;Node10</title>
<path fill="none" stroke="midnightblue" d="M464.347,-56.7808C468.665,-48.4217 474.165,-37.7773 478.774,-28.8565"/>
<polygon fill="midnightblue" stroke="midnightblue" points="482.008,-30.2214 483.489,-19.7305 475.789,-27.0082 482.008,-30.2214"/>
</g>
<!-- Node11 -->
<g id="node11" class="node"><title>Node11</title>
<polygon fill="none" stroke="#bfbfbf" points="529,-0.5 529,-19.5 575,-19.5 575,-0.5 529,-0.5"/>
<text text-anchor="middle" x="552" y="-7.5" font-family="Helvetica,sans-Serif" font-size="10.00">chrono</text>
</g>
<!-- Node6&#45;&gt;Node11 -->
<g id="edge10" class="edge"><title>Node6&#45;&gt;Node11</title>
<path fill="none" stroke="midnightblue" d="M479.514,-56.7808C494.69,-47.1958 514.624,-34.6062 529.745,-25.0555"/>
<polygon fill="midnightblue" stroke="midnightblue" points="531.868,-27.8549 538.453,-19.5557 528.13,-21.9365 531.868,-27.8549"/>
</g>
<!-- Node12 -->
<g id="node12" class="node"><title>Node12</title>
<polygon fill="none" stroke="#bfbfbf" points="593,-0.5 593,-19.5 681,-19.5 681,-0.5 593,-0.5"/>
<text text-anchor="middle" x="637" y="-7.5" font-family="Helvetica,sans-Serif" font-size="10.00">FairMQDevice.h</text>
</g>
<!-- Node6&#45;&gt;Node12 -->
<g id="edge11" class="edge"><title>Node6&#45;&gt;Node12</title>
<path fill="none" stroke="midnightblue" d="M499.202,-56.9327C530.341,-46.553 572.234,-32.5887 601.625,-22.7916"/>
<polygon fill="midnightblue" stroke="midnightblue" points="603.082,-25.9954 611.462,-19.5127 600.868,-19.3546 603.082,-25.9954"/>
</g>
</g>
</svg>
