<?xml version="1.0" encoding="UTF-8" standalone="no"?>
<!DOCTYPE svg PUBLIC "-//W3C//DTD SVG 1.1//EN"
 "http://www.w3.org/Graphics/SVG/1.1/DTD/svg11.dtd">
<!-- Generated by graphviz version 2.36.0 (20140111.2315)
 -->
<!-- Title: nlohmann::detail::input_buffer_adapter Pages: 1 -->
<svg width="144pt" height="250pt"
 viewBox="0.00 0.00 144.00 250.00" xmlns="http://www.w3.org/2000/svg" xmlns:xlink="http://www.w3.org/1999/xlink">
<g id="graph0" class="graph" transform="scale(1 1) rotate(0) translate(4 246)">
<title>nlohmann::detail::input_buffer_adapter</title>
<!-- Node1 -->
<g id="node1" class="node"><title>Node1</title>
<polygon fill="#bfbfbf" stroke="black" points="8,-1 8,-113 128,-113 128,-1 8,-1"/>
<text text-anchor="start" x="16" y="-101" font-family="Helvetica,sans-Serif" font-size="10.00">nlohmann::detail::input</text>
<text text-anchor="middle" x="68" y="-90" font-family="Helvetica,sans-Serif" font-size="10.00">_buffer_adapter</text>
<polyline fill="none" stroke="black" points="8,-83 128,-83 "/>
<text text-anchor="middle" x="68" y="-71" font-family="Helvetica,sans-Serif" font-size="10.00"> </text>
<polyline fill="none" stroke="black" points="8,-64 128,-64 "/>
<text text-anchor="start" x="16" y="-52" font-family="Helvetica,sans-Serif" font-size="10.00">+ input_buffer_adapter()</text>
<text text-anchor="start" x="16" y="-41" font-family="Helvetica,sans-Serif" font-size="10.00">+ input_buffer_adapter()</text>
<text text-anchor="start" x="16" y="-30" font-family="Helvetica,sans-Serif" font-size="10.00">+ operator=()</text>
<text text-anchor="start" x="16" y="-19" font-family="Helvetica,sans-Serif" font-size="10.00">+ get_character()</text>
<text text-anchor="start" x="16" y="-8" font-family="Helvetica,sans-Serif" font-size="10.00">+ unget_character()</text>
</g>
<!-- Node2 -->
<g id="node2" class="node"><title>Node2</title>
<g id="a_node2"><a xlink:href="../../d8/d5f/structnlohmann_1_1detail_1_1input__adapter__protocol.html" target="_top" xlink:title="abstract input adapter interface ">
<polygon fill="none" stroke="black" points="0,-151 0,-241 136,-241 136,-151 0,-151"/>
<text text-anchor="start" x="8" y="-229" font-family="Helvetica,sans-Serif" font-size="10.00">nlohmann::detail::input</text>
<text text-anchor="middle" x="68" y="-218" font-family="Helvetica,sans-Serif" font-size="10.00">_adapter_protocol</text>
<polyline fill="none" stroke="black" points="0,-211 136,-211 "/>
<text text-anchor="middle" x="68" y="-199" font-family="Helvetica,sans-Serif" font-size="10.00"> </text>
<polyline fill="none" stroke="black" points="0,-192 136,-192 "/>
<text text-anchor="start" x="8" y="-180" font-family="Helvetica,sans-Serif" font-size="10.00">+ get_character()</text>
<text text-anchor="start" x="8" y="-169" font-family="Helvetica,sans-Serif" font-size="10.00">+ unget_character()</text>
<text text-anchor="start" x="8" y="-158" font-family="Helvetica,sans-Serif" font-size="10.00">+ ~input_adapter_protocol()</text>
</a>
</g>
</g>
<!-- Node2&#45;&gt;Node1 -->
<g id="edge1" class="edge"><title>Node2&#45;&gt;Node1</title>
<path fill="none" stroke="midnightblue" d="M68,-140.793C68,-131.678 68,-122.209 68,-113.072"/>
<polygon fill="none" stroke="midnightblue" points="64.5001,-140.898 68,-150.898 71.5001,-140.898 64.5001,-140.898"/>
</g>
</g>
</svg>
