<?xml version="1.0" encoding="UTF-8" standalone="no"?>
<!DOCTYPE svg PUBLIC "-//W3C//DTD SVG 1.1//EN"
 "http://www.w3.org/Graphics/SVG/1.1/DTD/svg11.dtd">
<!-- Generated by graphviz version 2.36.0 (20140111.2315)
 -->
<!-- Title: o2::ITS::HitAnalysis Pages: 1 -->
<svg width="112pt" height="216pt"
 viewBox="0.00 0.00 112.00 216.00" xmlns="http://www.w3.org/2000/svg" xmlns:xlink="http://www.w3.org/1999/xlink">
<g id="graph0" class="graph" transform="scale(1 1) rotate(0) translate(4 212)">
<title>o2::ITS::HitAnalysis</title>
<!-- Node1 -->
<g id="node1" class="node"><title>Node1</title>
<polygon fill="#bfbfbf" stroke="black" points="-0.5,-1 -0.5,-113 104.5,-113 104.5,-1 -0.5,-1"/>
<text text-anchor="middle" x="52" y="-101" font-family="Helvetica,sans-Serif" font-size="10.00">o2::ITS::HitAnalysis</text>
<polyline fill="none" stroke="black" points="-0.5,-94 104.5,-94 "/>
<text text-anchor="middle" x="52" y="-82" font-family="Helvetica,sans-Serif" font-size="10.00"> </text>
<polyline fill="none" stroke="black" points="-0.5,-75 104.5,-75 "/>
<text text-anchor="start" x="7.5" y="-63" font-family="Helvetica,sans-Serif" font-size="10.00">+ HitAnalysis()</text>
<text text-anchor="start" x="7.5" y="-52" font-family="Helvetica,sans-Serif" font-size="10.00">+ ~HitAnalysis()</text>
<text text-anchor="start" x="7.5" y="-41" font-family="Helvetica,sans-Serif" font-size="10.00">+ Init()</text>
<text text-anchor="start" x="7.5" y="-30" font-family="Helvetica,sans-Serif" font-size="10.00">+ Exec()</text>
<text text-anchor="start" x="7.5" y="-19" font-family="Helvetica,sans-Serif" font-size="10.00">+ FinishTask()</text>
<text text-anchor="start" x="7.5" y="-8" font-family="Helvetica,sans-Serif" font-size="10.00"># ProcessHits()</text>
</g>
<!-- Node2 -->
<g id="node2" class="node"><title>Node2</title>
<g id="a_node2"><a xlink:href="../../d2/d9e/classFairTask.html" target="_top" xlink:title="{FairTask\n||}">
<polygon fill="none" stroke="black" points="24.5,-150.5 24.5,-207.5 79.5,-207.5 79.5,-150.5 24.5,-150.5"/>
<text text-anchor="middle" x="52" y="-195.5" font-family="Helvetica,sans-Serif" font-size="10.00">FairTask</text>
<polyline fill="none" stroke="black" points="24.5,-188.5 79.5,-188.5 "/>
<text text-anchor="middle" x="52" y="-176.5" font-family="Helvetica,sans-Serif" font-size="10.00"> </text>
<polyline fill="none" stroke="black" points="24.5,-169.5 79.5,-169.5 "/>
<text text-anchor="middle" x="52" y="-157.5" font-family="Helvetica,sans-Serif" font-size="10.00"> </text>
</a>
</g>
</g>
<!-- Node2&#45;&gt;Node1 -->
<g id="edge1" class="edge"><title>Node2&#45;&gt;Node1</title>
<path fill="none" stroke="midnightblue" d="M52,-140.398C52,-131.802 52,-122.49 52,-113.324"/>
<polygon fill="none" stroke="midnightblue" points="48.5001,-140.47 52,-150.47 55.5001,-140.47 48.5001,-140.47"/>
</g>
</g>
</svg>
