<?xml version="1.0" encoding="UTF-8" standalone="no"?>
<!DOCTYPE svg PUBLIC "-//W3C//DTD SVG 1.1//EN"
 "http://www.w3.org/Graphics/SVG/1.1/DTD/svg11.dtd">
<!-- Generated by graphviz version 2.36.0 (20140111.2315)
 -->
<!-- Title: o2::utils::TreeStream::TreeDataElement Pages: 1 -->
<svg width="254pt" height="184pt"
 viewBox="0.00 0.00 254.00 184.00" xmlns="http://www.w3.org/2000/svg" xmlns:xlink="http://www.w3.org/1999/xlink">
<g id="graph0" class="graph" transform="scale(1 1) rotate(0) translate(4 180)">
<title>o2::utils::TreeStream::TreeDataElement</title>
<!-- Node1 -->
<g id="node1" class="node"><title>Node1</title>
<polygon fill="#bfbfbf" stroke="black" points="42,-1 42,-69 150,-69 150,-1 42,-1"/>
<text text-anchor="start" x="50" y="-57" font-family="Helvetica,sans-Serif" font-size="10.00">o2::utils::TreeStream</text>
<text text-anchor="middle" x="96" y="-46" font-family="Helvetica,sans-Serif" font-size="10.00">::TreeDataElement</text>
<polyline fill="none" stroke="black" points="42,-39 150,-39 "/>
<text text-anchor="middle" x="96" y="-27" font-family="Helvetica,sans-Serif" font-size="10.00"> </text>
<polyline fill="none" stroke="black" points="42,-20 150,-20 "/>
<text text-anchor="middle" x="96" y="-8" font-family="Helvetica,sans-Serif" font-size="10.00"> </text>
</g>
<!-- Node2 -->
<g id="node2" class="node"><title>Node2</title>
<polygon fill="none" stroke="#bfbfbf" points="-0.5,-118.5 -0.5,-175.5 34.5,-175.5 34.5,-118.5 -0.5,-118.5"/>
<text text-anchor="middle" x="17" y="-163.5" font-family="Helvetica,sans-Serif" font-size="10.00">char</text>
<polyline fill="none" stroke="#bfbfbf" points="-0.5,-156.5 34.5,-156.5 "/>
<text text-anchor="middle" x="17" y="-144.5" font-family="Helvetica,sans-Serif" font-size="10.00"> </text>
<polyline fill="none" stroke="#bfbfbf" points="-0.5,-137.5 34.5,-137.5 "/>
<text text-anchor="middle" x="17" y="-125.5" font-family="Helvetica,sans-Serif" font-size="10.00"> </text>
</g>
<!-- Node2&#45;&gt;Node1 -->
<g id="edge1" class="edge"><title>Node2&#45;&gt;Node1</title>
<path fill="none" stroke="#404040" d="M22.1977,-118.327C24.9411,-108.226 29.0224,-97.0663 35,-88 37.2908,-84.5255 39.8789,-81.1531 42.6635,-77.9064"/>
<polygon fill="none" stroke="#404040" points="42.7211,-77.8452 43.9224,-70.7348 50.9478,-69.1089 49.7465,-76.2193 42.7211,-77.8452"/>
<text text-anchor="middle" x="49" y="-91.5" font-family="Helvetica,sans-Serif" font-size="10.00"> +type</text>
</g>
<!-- Node3 -->
<g id="node3" class="node"><title>Node3</title>
<g id="a_node3"><a xlink:href="../../d1/da0/classint.html" target="_top" xlink:title="{int\n||}">
<polygon fill="none" stroke="black" points="53.5,-118.5 53.5,-175.5 82.5,-175.5 82.5,-118.5 53.5,-118.5"/>
<text text-anchor="middle" x="68" y="-163.5" font-family="Helvetica,sans-Serif" font-size="10.00">int</text>
<polyline fill="none" stroke="black" points="53.5,-156.5 82.5,-156.5 "/>
<text text-anchor="middle" x="68" y="-144.5" font-family="Helvetica,sans-Serif" font-size="10.00"> </text>
<polyline fill="none" stroke="black" points="53.5,-137.5 82.5,-137.5 "/>
<text text-anchor="middle" x="68" y="-125.5" font-family="Helvetica,sans-Serif" font-size="10.00"> </text>
</a>
</g>
</g>
<!-- Node3&#45;&gt;Node1 -->
<g id="edge2" class="edge"><title>Node3&#45;&gt;Node1</title>
<path fill="none" stroke="#404040" d="M65.9047,-118.219C65.8477,-108.529 66.5519,-97.665 69,-88 69.6244,-85.5348 70.3844,-83.0552 71.2474,-80.5875"/>
<polygon fill="none" stroke="#404040" points="71.3553,-80.3248 69.9359,-73.2548 75.9162,-69.2254 77.3356,-76.2954 71.3553,-80.3248"/>
<text text-anchor="middle" x="86" y="-91.5" font-family="Helvetica,sans-Serif" font-size="10.00"> +name</text>
</g>
<!-- Node4 -->
<g id="node4" class="node"><title>Node4</title>
<polygon fill="none" stroke="#bfbfbf" points="104.5,-118.5 104.5,-175.5 145.5,-175.5 145.5,-118.5 104.5,-118.5"/>
<text text-anchor="middle" x="125" y="-163.5" font-family="Helvetica,sans-Serif" font-size="10.00">void *</text>
<polyline fill="none" stroke="#bfbfbf" points="104.5,-156.5 145.5,-156.5 "/>
<text text-anchor="middle" x="125" y="-144.5" font-family="Helvetica,sans-Serif" font-size="10.00"> </text>
<polyline fill="none" stroke="#bfbfbf" points="104.5,-137.5 145.5,-137.5 "/>
<text text-anchor="middle" x="125" y="-125.5" font-family="Helvetica,sans-Serif" font-size="10.00"> </text>
</g>
<!-- Node4&#45;&gt;Node1 -->
<g id="edge3" class="edge"><title>Node4&#45;&gt;Node1</title>
<path fill="none" stroke="#404040" d="M117.682,-118.242C114.707,-106.956 111.191,-93.6225 107.867,-81.0134"/>
<polygon fill="none" stroke="#404040" points="107.822,-80.8403 102.424,-76.0583 104.762,-69.2368 110.16,-74.0188 107.822,-80.8403"/>
<text text-anchor="middle" x="123.5" y="-91.5" font-family="Helvetica,sans-Serif" font-size="10.00"> +ptr</text>
</g>
<!-- Node5 -->
<g id="node5" class="node"><title>Node5</title>
<polygon fill="none" stroke="#bfbfbf" points="164,-118.5 164,-175.5 246,-175.5 246,-118.5 164,-118.5"/>
<text text-anchor="middle" x="205" y="-163.5" font-family="Helvetica,sans-Serif" font-size="10.00">const TClass *</text>
<polyline fill="none" stroke="#bfbfbf" points="164,-156.5 246,-156.5 "/>
<text text-anchor="middle" x="205" y="-144.5" font-family="Helvetica,sans-Serif" font-size="10.00"> </text>
<polyline fill="none" stroke="#bfbfbf" points="164,-137.5 246,-137.5 "/>
<text text-anchor="middle" x="205" y="-125.5" font-family="Helvetica,sans-Serif" font-size="10.00"> </text>
</g>
<!-- Node5&#45;&gt;Node1 -->
<g id="edge4" class="edge"><title>Node5&#45;&gt;Node1</title>
<path fill="none" stroke="#404040" d="M177.495,-118.242C165.389,-106.025 150.905,-91.4092 137.529,-77.91"/>
<polygon fill="none" stroke="#404040" points="137.381,-77.7607 130.317,-76.3143 128.935,-69.2368 135.999,-70.6833 137.381,-77.7607"/>
<text text-anchor="middle" x="169" y="-91.5" font-family="Helvetica,sans-Serif" font-size="10.00"> +cls</text>
</g>
</g>
</svg>
