<?xml version="1.0" encoding="UTF-8" standalone="no"?>
<!DOCTYPE svg PUBLIC "-//W3C//DTD SVG 1.1//EN"
 "http://www.w3.org/Graphics/SVG/1.1/DTD/svg11.dtd">
<!-- Generated by graphviz version 2.36.0 (20140111.2315)
 -->
<!-- Title: nlohmann::detail::is_basic_json_nested_type&lt; BasicJsonType, T &gt; Pages: 1 -->
<svg width="134pt" height="194pt"
 viewBox="0.00 0.00 134.00 194.00" xmlns="http://www.w3.org/2000/svg" xmlns:xlink="http://www.w3.org/1999/xlink">
<g id="graph0" class="graph" transform="scale(1 1) rotate(0) translate(4 190)">
<title>nlohmann::detail::is_basic_json_nested_type&lt; BasicJsonType, T &gt;</title>
<!-- Node1 -->
<g id="node1" class="node"><title>Node1</title>
<polygon fill="#bfbfbf" stroke="black" points="-0.5,-0.5 -0.5,-79.5 126.5,-79.5 126.5,-0.5 -0.5,-0.5"/>
<text text-anchor="start" x="7.5" y="-67.5" font-family="Helvetica,sans-Serif" font-size="10.00">nlohmann::detail::is</text>
<text text-anchor="start" x="7.5" y="-56.5" font-family="Helvetica,sans-Serif" font-size="10.00">_basic_json_nested_type</text>
<text text-anchor="middle" x="63" y="-45.5" font-family="Helvetica,sans-Serif" font-size="10.00">&lt; BasicJsonType, T &gt;</text>
<polyline fill="none" stroke="black" points="-0.5,-38.5 126.5,-38.5 "/>
<text text-anchor="middle" x="63" y="-26.5" font-family="Helvetica,sans-Serif" font-size="10.00"> </text>
<polyline fill="none" stroke="black" points="-0.5,-19.5 126.5,-19.5 "/>
<text text-anchor="middle" x="63" y="-7.5" font-family="Helvetica,sans-Serif" font-size="10.00"> </text>
</g>
<!-- Node2 -->
<g id="node2" class="node"><title>Node2</title>
<polygon fill="none" stroke="#bfbfbf" points="9,-128.5 9,-185.5 117,-185.5 117,-128.5 9,-128.5"/>
<text text-anchor="middle" x="63" y="-173.5" font-family="Helvetica,sans-Serif" font-size="10.00">static auto constexpr</text>
<polyline fill="none" stroke="#bfbfbf" points="9,-166.5 117,-166.5 "/>
<text text-anchor="middle" x="63" y="-154.5" font-family="Helvetica,sans-Serif" font-size="10.00"> </text>
<polyline fill="none" stroke="#bfbfbf" points="9,-147.5 117,-147.5 "/>
<text text-anchor="middle" x="63" y="-135.5" font-family="Helvetica,sans-Serif" font-size="10.00"> </text>
</g>
<!-- Node2&#45;&gt;Node1 -->
<g id="edge1" class="edge"><title>Node2&#45;&gt;Node1</title>
<path fill="none" stroke="#404040" d="M63,-128.455C63,-117.491 63,-104.511 63,-91.9527"/>
<polygon fill="none" stroke="#404040" points="63.0001,-91.6258 59,-85.6258 63,-79.6258 67,-85.6257 63.0001,-91.6258"/>
<text text-anchor="middle" x="79.5" y="-101.5" font-family="Helvetica,sans-Serif" font-size="10.00"> +value</text>
</g>
</g>
</svg>
