<?xml version="1.0" encoding="UTF-8" standalone="no"?>
<!DOCTYPE svg PUBLIC "-//W3C//DTD SVG 1.1//EN"
 "http://www.w3.org/Graphics/SVG/1.1/DTD/svg11.dtd">
<!-- Generated by graphviz version 2.36.0 (20140111.2315)
 -->
<!-- Title: /home/travis/build/AliceO2Group/AliceO2/Utilities/DataFlow/include/DataFlow/FakeTimeframeBuilder.h Pages: 1 -->
<svg width="650pt" height="152pt"
 viewBox="0.00 0.00 650.00 152.00" xmlns="http://www.w3.org/2000/svg" xmlns:xlink="http://www.w3.org/1999/xlink">
<g id="graph0" class="graph" transform="scale(1 1) rotate(0) translate(4 148)">
<title>/home/travis/build/AliceO2Group/AliceO2/Utilities/DataFlow/include/DataFlow/FakeTimeframeBuilder.h</title>
<!-- Node1 -->
<g id="node1" class="node"><title>Node1</title>
<polygon fill="#bfbfbf" stroke="black" points="247.5,-91 247.5,-143 418.5,-143 418.5,-91 247.5,-91"/>
<text text-anchor="start" x="255.5" y="-131" font-family="Helvetica,sans-Serif" font-size="10.00">/home/travis/build</text>
<text text-anchor="start" x="255.5" y="-120" font-family="Helvetica,sans-Serif" font-size="10.00">/AliceO2Group/AliceO2</text>
<text text-anchor="start" x="255.5" y="-109" font-family="Helvetica,sans-Serif" font-size="10.00">/Utilities/DataFlow/include</text>
<text text-anchor="middle" x="333" y="-98" font-family="Helvetica,sans-Serif" font-size="10.00">/DataFlow/FakeTimeframeBuilder.h</text>
</g>
<!-- Node2 -->
<g id="node2" class="node"><title>Node2</title>
<g id="a_node2"><a xlink:href="../../d3/d38/FakeTimeframeBuilder_8cxx.html" target="_top" xlink:title="/home/travis/build\l/AliceO2Group/AliceO2\l/Utilities/DataFlow/src\l/FakeTimeframeBuilder.cxx">
<polygon fill="none" stroke="black" points="-0.5,-1 -0.5,-53 136.5,-53 136.5,-1 -0.5,-1"/>
<text text-anchor="start" x="7.5" y="-41" font-family="Helvetica,sans-Serif" font-size="10.00">/home/travis/build</text>
<text text-anchor="start" x="7.5" y="-30" font-family="Helvetica,sans-Serif" font-size="10.00">/AliceO2Group/AliceO2</text>
<text text-anchor="start" x="7.5" y="-19" font-family="Helvetica,sans-Serif" font-size="10.00">/Utilities/DataFlow/src</text>
<text text-anchor="middle" x="68" y="-8" font-family="Helvetica,sans-Serif" font-size="10.00">/FakeTimeframeBuilder.cxx</text>
</a>
</g>
</g>
<!-- Node1&#45;&gt;Node2 -->
<g id="edge1" class="edge"><title>Node1&#45;&gt;Node2</title>
<path fill="none" stroke="midnightblue" d="M247.724,-87.7587C215.807,-77.1802 179.238,-65.0496 146,-54 143.02,-53.0093 139.976,-51.9969 136.901,-50.9738"/>
<polygon fill="midnightblue" stroke="midnightblue" points="246.878,-91.1654 257.471,-90.989 249.08,-84.5208 246.878,-91.1654"/>
</g>
<!-- Node3 -->
<g id="node3" class="node"><title>Node3</title>
<g id="a_node3"><a xlink:href="../../d6/d3d/FakeTimeframeGeneratorDevice_8cxx.html" target="_top" xlink:title="/home/travis/build\l/AliceO2Group/AliceO2\l/Utilities/DataFlow/src\l/FakeTimeframeGeneratorDevice.cxx">
<polygon fill="none" stroke="black" points="155,-1 155,-53 335,-53 335,-1 155,-1"/>
<text text-anchor="start" x="163" y="-41" font-family="Helvetica,sans-Serif" font-size="10.00">/home/travis/build</text>
<text text-anchor="start" x="163" y="-30" font-family="Helvetica,sans-Serif" font-size="10.00">/AliceO2Group/AliceO2</text>
<text text-anchor="start" x="163" y="-19" font-family="Helvetica,sans-Serif" font-size="10.00">/Utilities/DataFlow/src</text>
<text text-anchor="middle" x="245" y="-8" font-family="Helvetica,sans-Serif" font-size="10.00">/FakeTimeframeGeneratorDevice.cxx</text>
</a>
</g>
</g>
<!-- Node1&#45;&gt;Node3 -->
<g id="edge2" class="edge"><title>Node1&#45;&gt;Node3</title>
<path fill="none" stroke="midnightblue" d="M300.431,-83.4308C290.407,-73.4069 279.533,-62.5325 270.092,-53.0921"/>
<polygon fill="midnightblue" stroke="midnightblue" points="298.001,-85.9505 307.547,-90.5468 302.951,-81.0008 298.001,-85.9505"/>
</g>
<!-- Node4 -->
<g id="node4" class="node"><title>Node4</title>
<g id="a_node4"><a xlink:href="../../d3/d05/test__PayloadMerger01_8cxx.html" target="_top" xlink:title="/home/travis/build\l/AliceO2Group/AliceO2\l/Utilities/DataFlow/test\l/test_PayloadMerger01.cxx">
<polygon fill="none" stroke="black" points="353,-1 353,-53 489,-53 489,-1 353,-1"/>
<text text-anchor="start" x="361" y="-41" font-family="Helvetica,sans-Serif" font-size="10.00">/home/travis/build</text>
<text text-anchor="start" x="361" y="-30" font-family="Helvetica,sans-Serif" font-size="10.00">/AliceO2Group/AliceO2</text>
<text text-anchor="start" x="361" y="-19" font-family="Helvetica,sans-Serif" font-size="10.00">/Utilities/DataFlow/test</text>
<text text-anchor="middle" x="421" y="-8" font-family="Helvetica,sans-Serif" font-size="10.00">/test_PayloadMerger01.cxx</text>
</a>
</g>
</g>
<!-- Node1&#45;&gt;Node4 -->
<g id="edge3" class="edge"><title>Node1&#45;&gt;Node4</title>
<path fill="none" stroke="midnightblue" d="M365.569,-83.4308C375.593,-73.4069 386.467,-62.5325 395.908,-53.0921"/>
<polygon fill="midnightblue" stroke="midnightblue" points="363.049,-81.0008 358.453,-90.5468 367.999,-85.9505 363.049,-81.0008"/>
</g>
<!-- Node5 -->
<g id="node5" class="node"><title>Node5</title>
<g id="a_node5"><a xlink:href="../../de/d34/test__TimeframeParser_8cxx.html" target="_top" xlink:title="/home/travis/build\l/AliceO2Group/AliceO2\l/Utilities/DataFlow/test\l/test_TimeframeParser.cxx">
<polygon fill="none" stroke="black" points="507.5,-1 507.5,-53 642.5,-53 642.5,-1 507.5,-1"/>
<text text-anchor="start" x="515.5" y="-41" font-family="Helvetica,sans-Serif" font-size="10.00">/home/travis/build</text>
<text text-anchor="start" x="515.5" y="-30" font-family="Helvetica,sans-Serif" font-size="10.00">/AliceO2Group/AliceO2</text>
<text text-anchor="start" x="515.5" y="-19" font-family="Helvetica,sans-Serif" font-size="10.00">/Utilities/DataFlow/test</text>
<text text-anchor="middle" x="575" y="-8" font-family="Helvetica,sans-Serif" font-size="10.00">/test_TimeframeParser.cxx</text>
</a>
</g>
</g>
<!-- Node1&#45;&gt;Node5 -->
<g id="edge4" class="edge"><title>Node1&#45;&gt;Node5</title>
<path fill="none" stroke="midnightblue" d="M411.454,-87.4715C442.31,-76.2507 477.398,-63.4918 507.139,-52.6766"/>
<polygon fill="midnightblue" stroke="midnightblue" points="410.225,-84.1937 402.024,-90.9005 412.618,-90.7723 410.225,-84.1937"/>
</g>
</g>
</svg>
