<?xml version="1.0" encoding="UTF-8" standalone="no"?>
<!DOCTYPE svg PUBLIC "-//W3C//DTD SVG 1.1//EN"
 "http://www.w3.org/Graphics/SVG/1.1/DTD/svg11.dtd">
<!-- Generated by graphviz version 2.36.0 (20140111.2315)
 -->
<!-- Title: /home/travis/build/AliceO2Group/AliceO2/Detectors/MUON/MCH/Contour/include/MCHContour/Helper.h Pages: 1 -->
<svg width="174pt" height="118pt"
 viewBox="0.00 0.00 174.00 118.00" xmlns="http://www.w3.org/2000/svg" xmlns:xlink="http://www.w3.org/1999/xlink">
<g id="graph0" class="graph" transform="scale(1 1) rotate(0) translate(4 114)">
<title>/home/travis/build/AliceO2Group/AliceO2/Detectors/MUON/MCH/Contour/include/MCHContour/Helper.h</title>
<!-- Node1 -->
<g id="node1" class="node"><title>Node1</title>
<polygon fill="#bfbfbf" stroke="black" points="2,-57 2,-109 162,-109 162,-57 2,-57"/>
<text text-anchor="start" x="10" y="-97" font-family="Helvetica,sans-Serif" font-size="10.00">/home/travis/build</text>
<text text-anchor="start" x="10" y="-86" font-family="Helvetica,sans-Serif" font-size="10.00">/AliceO2Group/AliceO2</text>
<text text-anchor="start" x="10" y="-75" font-family="Helvetica,sans-Serif" font-size="10.00">/Detectors/MUON/MCH/Contour</text>
<text text-anchor="middle" x="82" y="-64" font-family="Helvetica,sans-Serif" font-size="10.00">/include/MCHContour/Helper.h</text>
</g>
<!-- Node2 -->
<g id="node2" class="node"><title>Node2</title>
<polygon fill="none" stroke="#bfbfbf" points="0,-0.5 0,-19.5 44,-19.5 44,-0.5 0,-0.5"/>
<text text-anchor="middle" x="22" y="-7.5" font-family="Helvetica,sans-Serif" font-size="10.00">cmath</text>
</g>
<!-- Node1&#45;&gt;Node2 -->
<g id="edge1" class="edge"><title>Node1&#45;&gt;Node2</title>
<path fill="none" stroke="midnightblue" d="M60.6773,-56.7681C52.4923,-47.0826 43.3645,-36.2813 36.0324,-27.605"/>
<polygon fill="midnightblue" stroke="midnightblue" points="38.5283,-25.136 29.4004,-19.7572 33.1818,-29.6542 38.5283,-25.136"/>
</g>
<!-- Node3 -->
<g id="node3" class="node"><title>Node3</title>
<polygon fill="none" stroke="#bfbfbf" points="62,-0.5 62,-19.5 102,-19.5 102,-0.5 62,-0.5"/>
<text text-anchor="middle" x="82" y="-7.5" font-family="Helvetica,sans-Serif" font-size="10.00">limits</text>
</g>
<!-- Node1&#45;&gt;Node3 -->
<g id="edge2" class="edge"><title>Node1&#45;&gt;Node3</title>
<path fill="none" stroke="midnightblue" d="M82,-56.7681C82,-47.8897 82,-38.0737 82,-29.8165"/>
<polygon fill="midnightblue" stroke="midnightblue" points="85.5001,-29.7571 82,-19.7572 78.5001,-29.7572 85.5001,-29.7571"/>
</g>
<!-- Node4 -->
<g id="node4" class="node"><title>Node4</title>
<polygon fill="none" stroke="#bfbfbf" points="120,-0.5 120,-19.5 166,-19.5 166,-0.5 120,-0.5"/>
<text text-anchor="middle" x="143" y="-7.5" font-family="Helvetica,sans-Serif" font-size="10.00">cstdint</text>
</g>
<!-- Node1&#45;&gt;Node4 -->
<g id="edge3" class="edge"><title>Node1&#45;&gt;Node4</title>
<path fill="none" stroke="midnightblue" d="M103.678,-56.7681C111.999,-47.0826 121.279,-36.2813 128.734,-27.605"/>
<polygon fill="midnightblue" stroke="midnightblue" points="131.614,-29.6231 135.476,-19.7572 126.305,-25.0613 131.614,-29.6231"/>
</g>
</g>
</svg>
