<?xml version="1.0" encoding="UTF-8" standalone="no"?>
<!DOCTYPE svg PUBLIC "-//W3C//DTD SVG 1.1//EN"
 "http://www.w3.org/Graphics/SVG/1.1/DTD/svg11.dtd">
<!-- Generated by graphviz version 2.36.0 (20140111.2315)
 -->
<!-- Title: o2::framework::DataRelayerStats Pages: 1 -->
<svg width="204pt" height="216pt"
 viewBox="0.00 0.00 204.00 216.00" xmlns="http://www.w3.org/2000/svg" xmlns:xlink="http://www.w3.org/1999/xlink">
<g id="graph0" class="graph" transform="scale(1 1) rotate(0) translate(4 212)">
<title>o2::framework::DataRelayerStats</title>
<!-- Node1 -->
<g id="node1" class="node"><title>Node1</title>
<polygon fill="#bfbfbf" stroke="black" points="0,-1 0,-69 140,-69 140,-1 0,-1"/>
<text text-anchor="start" x="8" y="-57" font-family="Helvetica,sans-Serif" font-size="10.00">o2::framework::DataRelayer</text>
<text text-anchor="middle" x="70" y="-46" font-family="Helvetica,sans-Serif" font-size="10.00">Stats</text>
<polyline fill="none" stroke="black" points="0,-39 140,-39 "/>
<text text-anchor="middle" x="70" y="-27" font-family="Helvetica,sans-Serif" font-size="10.00"> </text>
<polyline fill="none" stroke="black" points="0,-20 140,-20 "/>
<text text-anchor="middle" x="70" y="-8" font-family="Helvetica,sans-Serif" font-size="10.00"> </text>
</g>
<!-- Node2 -->
<g id="node2" class="node"><title>Node2</title>
<polygon fill="none" stroke="#bfbfbf" points="44.5,-150.5 44.5,-207.5 95.5,-207.5 95.5,-150.5 44.5,-150.5"/>
<text text-anchor="middle" x="70" y="-195.5" font-family="Helvetica,sans-Serif" font-size="10.00">uint64_t</text>
<polyline fill="none" stroke="#bfbfbf" points="44.5,-188.5 95.5,-188.5 "/>
<text text-anchor="middle" x="70" y="-176.5" font-family="Helvetica,sans-Serif" font-size="10.00"> </text>
<polyline fill="none" stroke="#bfbfbf" points="44.5,-169.5 95.5,-169.5 "/>
<text text-anchor="middle" x="70" y="-157.5" font-family="Helvetica,sans-Serif" font-size="10.00"> </text>
</g>
<!-- Node2&#45;&gt;Node1 -->
<g id="edge1" class="edge"><title>Node2&#45;&gt;Node1</title>
<path fill="none" stroke="#404040" d="M70,-150.284C70,-130.671 70,-103.932 70,-81.2491"/>
<polygon fill="none" stroke="#404040" points="70.0001,-81.1359 66,-75.1359 70,-69.1359 74,-75.1358 70.0001,-81.1359"/>
<text text-anchor="middle" x="133" y="-124" font-family="Helvetica,sans-Serif" font-size="10.00"> +malformedInputs</text>
<text text-anchor="middle" x="133" y="-113" font-family="Helvetica,sans-Serif" font-size="10.00">+droppedIncomingMessages</text>
<text text-anchor="middle" x="133" y="-102" font-family="Helvetica,sans-Serif" font-size="10.00">+droppedComputations</text>
<text text-anchor="middle" x="133" y="-91" font-family="Helvetica,sans-Serif" font-size="10.00">+relayedMessages</text>
</g>
</g>
</svg>
