<?xml version="1.0" encoding="UTF-8" standalone="no"?>
<!DOCTYPE svg PUBLIC "-//W3C//DTD SVG 1.1//EN"
 "http://www.w3.org/Graphics/SVG/1.1/DTD/svg11.dtd">
<!-- Generated by graphviz version 2.36.0 (20140111.2315)
 -->
<!-- Title: /home/travis/build/AliceO2Group/AliceO2/CCDB/src/ConditionId.cxx Pages: 1 -->
<svg width="479pt" height="218pt"
 viewBox="0.00 0.00 479.36 218.00" xmlns="http://www.w3.org/2000/svg" xmlns:xlink="http://www.w3.org/1999/xlink">
<g id="graph0" class="graph" transform="scale(1 1) rotate(0) translate(4 214)">
<title>/home/travis/build/AliceO2Group/AliceO2/CCDB/src/ConditionId.cxx</title>
<!-- Node1 -->
<g id="node1" class="node"><title>Node1</title>
<polygon fill="#bfbfbf" stroke="black" points="234.859,-168.5 234.859,-209.5 371.859,-209.5 371.859,-168.5 234.859,-168.5"/>
<text text-anchor="start" x="242.859" y="-197.5" font-family="Helvetica,sans-Serif" font-size="10.00">/home/travis/build</text>
<text text-anchor="start" x="242.859" y="-186.5" font-family="Helvetica,sans-Serif" font-size="10.00">/AliceO2Group/AliceO2</text>
<text text-anchor="middle" x="303.359" y="-175.5" font-family="Helvetica,sans-Serif" font-size="10.00">/CCDB/src/ConditionId.cxx</text>
</g>
<!-- Node2 -->
<g id="node2" class="node"><title>Node2</title>
<g id="a_node2"><a xlink:href="../../da/d53/ConditionId_8h.html" target="_top" xlink:title="CCDB/ConditionId.h">
<polygon fill="none" stroke="black" points="99.859,-112.5 99.859,-131.5 206.859,-131.5 206.859,-112.5 99.859,-112.5"/>
<text text-anchor="middle" x="153.359" y="-119.5" font-family="Helvetica,sans-Serif" font-size="10.00">CCDB/ConditionId.h</text>
</a>
</g>
</g>
<!-- Node1&#45;&gt;Node2 -->
<g id="edge1" class="edge"><title>Node1&#45;&gt;Node2</title>
<path fill="none" stroke="midnightblue" d="M258.354,-168.498C233.808,-157.861 204.131,-145.001 182.599,-135.67"/>
<polygon fill="midnightblue" stroke="midnightblue" points="183.893,-132.417 173.326,-131.652 181.11,-138.84 183.893,-132.417"/>
</g>
<!-- Node8 -->
<g id="node8" class="node"><title>Node8</title>
<polygon fill="none" stroke="#bfbfbf" points="224.859,-112.5 224.859,-131.5 293.859,-131.5 293.859,-112.5 224.859,-112.5"/>
<text text-anchor="middle" x="259.359" y="-119.5" font-family="Helvetica,sans-Serif" font-size="10.00">TObjArray.h</text>
</g>
<!-- Node1&#45;&gt;Node8 -->
<g id="edge12" class="edge"><title>Node1&#45;&gt;Node8</title>
<path fill="none" stroke="midnightblue" d="M290.158,-168.498C284.06,-159.49 276.883,-148.888 270.992,-140.185"/>
<polygon fill="midnightblue" stroke="midnightblue" points="273.72,-137.972 265.216,-131.652 267.923,-141.896 273.72,-137.972"/>
</g>
<!-- Node9 -->
<g id="node9" class="node"><title>Node9</title>
<polygon fill="none" stroke="#bfbfbf" points="311.859,-112.5 311.859,-131.5 382.859,-131.5 382.859,-112.5 311.859,-112.5"/>
<text text-anchor="middle" x="347.359" y="-119.5" font-family="Helvetica,sans-Serif" font-size="10.00">TObjString.h</text>
</g>
<!-- Node1&#45;&gt;Node9 -->
<g id="edge13" class="edge"><title>Node1&#45;&gt;Node9</title>
<path fill="none" stroke="midnightblue" d="M316.56,-168.498C322.658,-159.49 329.835,-148.888 335.726,-140.185"/>
<polygon fill="midnightblue" stroke="midnightblue" points="338.795,-141.896 341.502,-131.652 332.998,-137.972 338.795,-141.896"/>
</g>
<!-- Node10 -->
<g id="node10" class="node"><title>Node10</title>
<polygon fill="none" stroke="#bfbfbf" points="401.359,-112.5 401.359,-131.5 471.359,-131.5 471.359,-112.5 401.359,-112.5"/>
<text text-anchor="middle" x="436.359" y="-119.5" font-family="Helvetica,sans-Serif" font-size="10.00">Riostream.h</text>
</g>
<!-- Node1&#45;&gt;Node10 -->
<g id="edge14" class="edge"><title>Node1&#45;&gt;Node10</title>
<path fill="none" stroke="midnightblue" d="M343.263,-168.498C364.733,-158.005 390.631,-145.348 409.655,-136.051"/>
<polygon fill="midnightblue" stroke="midnightblue" points="411.207,-139.188 418.655,-131.652 408.133,-132.899 411.207,-139.188"/>
</g>
<!-- Node3 -->
<g id="node3" class="node"><title>Node3</title>
<polygon fill="none" stroke="#bfbfbf" points="39.859,-0.5 39.859,-19.5 98.859,-19.5 98.859,-0.5 39.859,-0.5"/>
<text text-anchor="middle" x="69.359" y="-7.5" font-family="Helvetica,sans-Serif" font-size="10.00">TObject.h</text>
</g>
<!-- Node2&#45;&gt;Node3 -->
<g id="edge2" class="edge"><title>Node2&#45;&gt;Node3</title>
<path fill="none" stroke="midnightblue" d="M99.5406,-119.973C66.3541,-116.2 26.1078,-105.288 4.35898,-76 -10.3403,-56.2056 16.3746,-36.6298 39.8714,-24.2178"/>
<polygon fill="midnightblue" stroke="midnightblue" points="41.5795,-27.2769 48.9541,-19.6699 38.4453,-21.0177 41.5795,-27.2769"/>
</g>
<!-- Node4 -->
<g id="node4" class="node"><title>Node4</title>
<g id="a_node4"><a xlink:href="../../d4/dd1/IdPath_8h.html" target="_top" xlink:title="CCDB/IdPath.h">
<polygon fill="none" stroke="black" points="181.359,-56.5 181.359,-75.5 267.359,-75.5 267.359,-56.5 181.359,-56.5"/>
<text text-anchor="middle" x="224.359" y="-63.5" font-family="Helvetica,sans-Serif" font-size="10.00">CCDB/IdPath.h</text>
</a>
</g>
</g>
<!-- Node2&#45;&gt;Node4 -->
<g id="edge3" class="edge"><title>Node2&#45;&gt;Node4</title>
<path fill="none" stroke="midnightblue" d="M164.766,-112.324C175.468,-104.185 191.7,-91.8395 204.522,-82.0874"/>
<polygon fill="midnightblue" stroke="midnightblue" points="206.903,-84.6734 212.744,-75.8339 202.666,-79.1018 206.903,-84.6734"/>
</g>
<!-- Node5 -->
<g id="node5" class="node"><title>Node5</title>
<polygon fill="none" stroke="#bfbfbf" points="233.359,-0.5 233.359,-19.5 289.359,-19.5 289.359,-0.5 233.359,-0.5"/>
<text text-anchor="middle" x="261.359" y="-7.5" font-family="Helvetica,sans-Serif" font-size="10.00">TString.h</text>
</g>
<!-- Node2&#45;&gt;Node5 -->
<g id="edge11" class="edge"><title>Node2&#45;&gt;Node5</title>
<path fill="none" stroke="midnightblue" d="M190.039,-112.5C222.467,-104.154 266.166,-90.5835 276.359,-76 286.076,-62.0981 279.766,-42.8292 272.586,-28.8838"/>
<polygon fill="midnightblue" stroke="midnightblue" points="275.414,-26.7775 267.421,-19.8231 269.333,-30.2441 275.414,-26.7775"/>
</g>
<!-- Node6 -->
<g id="node6" class="node"><title>Node6</title>
<polygon fill="none" stroke="#bfbfbf" points="125.359,-0.5 125.359,-19.5 181.359,-19.5 181.359,-0.5 125.359,-0.5"/>
<text text-anchor="middle" x="153.359" y="-7.5" font-family="Helvetica,sans-Serif" font-size="10.00">Rtypes.h</text>
</g>
<!-- Node2&#45;&gt;Node6 -->
<g id="edge10" class="edge"><title>Node2&#45;&gt;Node6</title>
<path fill="none" stroke="midnightblue" d="M153.359,-112.368C153.359,-94.617 153.359,-53.6664 153.359,-29.5974"/>
<polygon fill="midnightblue" stroke="midnightblue" points="156.859,-29.5914 153.359,-19.5914 149.859,-29.5915 156.859,-29.5914"/>
</g>
<!-- Node7 -->
<g id="node7" class="node"><title>Node7</title>
<g id="a_node7"><a xlink:href="../../dd/d18/IdRunRange_8h.html" target="_top" xlink:title="CCDB/IdRunRange.h">
<polygon fill="none" stroke="black" points="13.359,-56.5 13.359,-75.5 125.359,-75.5 125.359,-56.5 13.359,-56.5"/>
<text text-anchor="middle" x="69.359" y="-63.5" font-family="Helvetica,sans-Serif" font-size="10.00">CCDB/IdRunRange.h</text>
</a>
</g>
</g>
<!-- Node2&#45;&gt;Node7 -->
<g id="edge7" class="edge"><title>Node2&#45;&gt;Node7</title>
<path fill="none" stroke="midnightblue" d="M139.863,-112.324C126.759,-103.9 106.647,-90.9709 91.2521,-81.0741"/>
<polygon fill="midnightblue" stroke="midnightblue" points="93.126,-78.118 82.8215,-75.6545 89.3407,-84.0063 93.126,-78.118"/>
</g>
<!-- Node4&#45;&gt;Node3 -->
<g id="edge4" class="edge"><title>Node4&#45;&gt;Node3</title>
<path fill="none" stroke="midnightblue" d="M199.799,-56.4435C173.836,-47.3986 132.691,-33.064 103.562,-22.9158"/>
<polygon fill="midnightblue" stroke="midnightblue" points="104.399,-19.5013 93.8043,-19.5164 102.096,-26.1116 104.399,-19.5013"/>
</g>
<!-- Node4&#45;&gt;Node5 -->
<g id="edge5" class="edge"><title>Node4&#45;&gt;Node5</title>
<path fill="none" stroke="midnightblue" d="M230.469,-56.083C235.641,-48.5341 243.205,-37.4948 249.553,-28.2298"/>
<polygon fill="midnightblue" stroke="midnightblue" points="252.598,-29.9787 255.363,-19.7511 246.823,-26.0221 252.598,-29.9787"/>
</g>
<!-- Node4&#45;&gt;Node6 -->
<g id="edge6" class="edge"><title>Node4&#45;&gt;Node6</title>
<path fill="none" stroke="midnightblue" d="M212.952,-56.324C202.25,-48.1849 186.018,-35.8395 173.196,-26.0874"/>
<polygon fill="midnightblue" stroke="midnightblue" points="175.052,-23.1018 164.974,-19.8339 170.815,-28.6734 175.052,-23.1018"/>
</g>
<!-- Node7&#45;&gt;Node3 -->
<g id="edge8" class="edge"><title>Node7&#45;&gt;Node3</title>
<path fill="none" stroke="midnightblue" d="M69.359,-56.083C69.359,-49.0059 69.359,-38.8611 69.359,-29.9865"/>
<polygon fill="midnightblue" stroke="midnightblue" points="72.8591,-29.751 69.359,-19.7511 65.8591,-29.7511 72.8591,-29.751"/>
</g>
<!-- Node7&#45;&gt;Node6 -->
<g id="edge9" class="edge"><title>Node7&#45;&gt;Node6</title>
<path fill="none" stroke="midnightblue" d="M82.855,-56.324C95.9586,-47.9002 116.071,-34.9709 131.466,-25.0741"/>
<polygon fill="midnightblue" stroke="midnightblue" points="133.377,-28.0063 139.896,-19.6545 129.592,-22.118 133.377,-28.0063"/>
</g>
</g>
</svg>
