<?xml version="1.0" encoding="UTF-8" standalone="no"?>
<!DOCTYPE svg PUBLIC "-//W3C//DTD SVG 1.1//EN"
 "http://www.w3.org/Graphics/SVG/1.1/DTD/svg11.dtd">
<!-- Generated by graphviz version 2.36.0 (20140111.2315)
 -->
<!-- Title: /home/travis/build/AliceO2Group/AliceO2/DataFormats/simulation/src/RunContext.cxx Pages: 1 -->
<svg width="638pt" height="254pt"
 viewBox="0.00 0.00 638.00 254.00" xmlns="http://www.w3.org/2000/svg" xmlns:xlink="http://www.w3.org/1999/xlink">
<g id="graph0" class="graph" transform="scale(1 1) rotate(0) translate(4 250)">
<title>/home/travis/build/AliceO2Group/AliceO2/DataFormats/simulation/src/RunContext.cxx</title>
<!-- Node1 -->
<g id="node1" class="node"><title>Node1</title>
<polygon fill="#bfbfbf" stroke="black" points="156,-193 156,-245 280,-245 280,-193 156,-193"/>
<text text-anchor="start" x="164" y="-233" font-family="Helvetica,sans-Serif" font-size="10.00">/home/travis/build</text>
<text text-anchor="start" x="164" y="-222" font-family="Helvetica,sans-Serif" font-size="10.00">/AliceO2Group/AliceO2</text>
<text text-anchor="start" x="164" y="-211" font-family="Helvetica,sans-Serif" font-size="10.00">/DataFormats/simulation</text>
<text text-anchor="middle" x="218" y="-200" font-family="Helvetica,sans-Serif" font-size="10.00">/src/RunContext.cxx</text>
</g>
<!-- Node2 -->
<g id="node2" class="node"><title>Node2</title>
<g id="a_node2"><a xlink:href="../../d5/d3f/RunContext_8h.html" target="_top" xlink:title="SimulationDataFormat\l/RunContext.h">
<polygon fill="none" stroke="black" points="110,-125 110,-155 224,-155 224,-125 110,-125"/>
<text text-anchor="start" x="118" y="-143" font-family="Helvetica,sans-Serif" font-size="10.00">SimulationDataFormat</text>
<text text-anchor="middle" x="167" y="-132" font-family="Helvetica,sans-Serif" font-size="10.00">/RunContext.h</text>
</a>
</g>
</g>
<!-- Node1&#45;&gt;Node2 -->
<g id="edge1" class="edge"><title>Node1&#45;&gt;Node2</title>
<path fill="none" stroke="midnightblue" d="M201.301,-192.787C195.113,-183.445 188.137,-172.913 182.1,-163.798"/>
<polygon fill="midnightblue" stroke="midnightblue" points="184.88,-161.656 176.44,-155.252 179.044,-165.522 184.88,-161.656"/>
</g>
<!-- Node14 -->
<g id="node14" class="node"><title>Node14</title>
<polygon fill="none" stroke="#bfbfbf" points="242,-130.5 242,-149.5 296,-149.5 296,-130.5 242,-130.5"/>
<text text-anchor="middle" x="269" y="-137.5" font-family="Helvetica,sans-Serif" font-size="10.00">iostream</text>
</g>
<!-- Node1&#45;&gt;Node14 -->
<g id="edge14" class="edge"><title>Node1&#45;&gt;Node14</title>
<path fill="none" stroke="midnightblue" d="M234.699,-192.787C242.261,-181.37 251.001,-168.176 257.765,-157.962"/>
<polygon fill="midnightblue" stroke="midnightblue" points="260.728,-159.828 263.332,-149.558 254.892,-155.962 260.728,-159.828"/>
</g>
<!-- Node3 -->
<g id="node3" class="node"><title>Node3</title>
<polygon fill="none" stroke="#bfbfbf" points="0,-62.5 0,-81.5 44,-81.5 44,-62.5 0,-62.5"/>
<text text-anchor="middle" x="22" y="-69.5" font-family="Helvetica,sans-Serif" font-size="10.00">vector</text>
</g>
<!-- Node2&#45;&gt;Node3 -->
<g id="edge2" class="edge"><title>Node2&#45;&gt;Node3</title>
<path fill="none" stroke="midnightblue" d="M134.943,-124.966C112.034,-114.862 80.5193,-100.81 53,-88 51.611,-87.3534 50.1895,-86.686 48.7559,-86.0084"/>
<polygon fill="midnightblue" stroke="midnightblue" points="49.867,-82.6601 39.3357,-81.5015 46.8459,-88.9746 49.867,-82.6601"/>
</g>
<!-- Node4 -->
<g id="node4" class="node"><title>Node4</title>
<polygon fill="none" stroke="#bfbfbf" points="62,-62.5 62,-81.5 118,-81.5 118,-62.5 62,-62.5"/>
<text text-anchor="middle" x="90" y="-69.5" font-family="Helvetica,sans-Serif" font-size="10.00">TChain.h</text>
</g>
<!-- Node2&#45;&gt;Node4 -->
<g id="edge3" class="edge"><title>Node2&#45;&gt;Node4</title>
<path fill="none" stroke="midnightblue" d="M150.292,-124.679C137.811,-113.981 120.773,-99.3768 107.993,-88.4223"/>
<polygon fill="midnightblue" stroke="midnightblue" points="110.17,-85.6788 100.3,-81.8283 105.614,-90.9937 110.17,-85.6788"/>
</g>
<!-- Node5 -->
<g id="node5" class="node"><title>Node5</title>
<polygon fill="none" stroke="#bfbfbf" points="136,-62.5 136,-81.5 198,-81.5 198,-62.5 136,-62.5"/>
<text text-anchor="middle" x="167" y="-69.5" font-family="Helvetica,sans-Serif" font-size="10.00">TBranch.h</text>
</g>
<!-- Node2&#45;&gt;Node5 -->
<g id="edge4" class="edge"><title>Node2&#45;&gt;Node5</title>
<path fill="none" stroke="midnightblue" d="M167,-124.679C167,-115.101 167,-102.394 167,-91.9766"/>
<polygon fill="midnightblue" stroke="midnightblue" points="170.5,-91.8283 167,-81.8283 163.5,-91.8283 170.5,-91.8283"/>
</g>
<!-- Node6 -->
<g id="node6" class="node"><title>Node6</title>
<g id="a_node6"><a xlink:href="../../d9/d80/InteractionRecord_8h.html" target="_top" xlink:title="CommonDataFormat/Interaction\lRecord.h">
<polygon fill="none" stroke="black" points="216.5,-57 216.5,-87 373.5,-87 373.5,-57 216.5,-57"/>
<text text-anchor="start" x="224.5" y="-75" font-family="Helvetica,sans-Serif" font-size="10.00">CommonDataFormat/Interaction</text>
<text text-anchor="middle" x="295" y="-64" font-family="Helvetica,sans-Serif" font-size="10.00">Record.h</text>
</a>
</g>
</g>
<!-- Node2&#45;&gt;Node6 -->
<g id="edge5" class="edge"><title>Node2&#45;&gt;Node6</title>
<path fill="none" stroke="midnightblue" d="M194.459,-124.841C213.188,-115.185 238.194,-102.29 258.583,-91.7777"/>
<polygon fill="midnightblue" stroke="midnightblue" points="260.302,-94.829 267.586,-87.1352 257.094,-88.6074 260.302,-94.829"/>
</g>
<!-- Node12 -->
<g id="node12" class="node"><title>Node12</title>
<g id="a_node12"><a xlink:href="../../d4/d5f/BunchFilling_8h.html" target="_top" xlink:title="CommonDataFormat/BunchFilling.h">
<polygon fill="none" stroke="black" points="396.5,-62.5 396.5,-81.5 569.5,-81.5 569.5,-62.5 396.5,-62.5"/>
<text text-anchor="middle" x="483" y="-69.5" font-family="Helvetica,sans-Serif" font-size="10.00">CommonDataFormat/BunchFilling.h</text>
</a>
</g>
</g>
<!-- Node2&#45;&gt;Node12 -->
<g id="edge11" class="edge"><title>Node2&#45;&gt;Node12</title>
<path fill="none" stroke="midnightblue" d="M224.22,-125.914C227.188,-125.26 230.128,-124.619 233,-124 300.653,-109.413 378.845,-93.6355 429.514,-83.5534"/>
<polygon fill="midnightblue" stroke="midnightblue" points="430.455,-86.9348 439.582,-81.553 429.091,-80.069 430.455,-86.9348"/>
</g>
<!-- Node7 -->
<g id="node7" class="node"><title>Node7</title>
<polygon fill="none" stroke="#bfbfbf" points="130,-0.5 130,-19.5 186,-19.5 186,-0.5 130,-0.5"/>
<text text-anchor="middle" x="158" y="-7.5" font-family="Helvetica,sans-Serif" font-size="10.00">Rtypes.h</text>
</g>
<!-- Node6&#45;&gt;Node7 -->
<g id="edge6" class="edge"><title>Node6&#45;&gt;Node7</title>
<path fill="none" stroke="midnightblue" d="M262.88,-56.9327C239.869,-46.8552 209.144,-33.3986 186.901,-23.6575"/>
<polygon fill="midnightblue" stroke="midnightblue" points="188.201,-20.4058 177.637,-19.6 185.393,-26.8178 188.201,-20.4058"/>
</g>
<!-- Node8 -->
<g id="node8" class="node"><title>Node8</title>
<polygon fill="none" stroke="#bfbfbf" points="204.5,-0.5 204.5,-19.5 249.5,-19.5 249.5,-0.5 204.5,-0.5"/>
<text text-anchor="middle" x="227" y="-7.5" font-family="Helvetica,sans-Serif" font-size="10.00">iosfwd</text>
</g>
<!-- Node6&#45;&gt;Node8 -->
<g id="edge7" class="edge"><title>Node6&#45;&gt;Node8</title>
<path fill="none" stroke="midnightblue" d="M278.885,-56.7808C268.596,-47.7026 255.253,-35.9291 244.674,-26.5951"/>
<polygon fill="midnightblue" stroke="midnightblue" points="246.709,-23.7223 236.895,-19.7305 242.077,-28.9712 246.709,-23.7223"/>
</g>
<!-- Node9 -->
<g id="node9" class="node"><title>Node9</title>
<polygon fill="none" stroke="#bfbfbf" points="268,-0.5 268,-19.5 312,-19.5 312,-0.5 268,-0.5"/>
<text text-anchor="middle" x="290" y="-7.5" font-family="Helvetica,sans-Serif" font-size="10.00">cmath</text>
</g>
<!-- Node6&#45;&gt;Node9 -->
<g id="edge8" class="edge"><title>Node6&#45;&gt;Node9</title>
<path fill="none" stroke="midnightblue" d="M293.815,-56.7808C293.141,-48.6913 292.288,-38.4617 291.56,-29.725"/>
<polygon fill="midnightblue" stroke="midnightblue" points="295.046,-29.4053 290.728,-19.7305 288.07,-29.9867 295.046,-29.4053"/>
</g>
<!-- Node10 -->
<g id="node10" class="node"><title>Node10</title>
<polygon fill="none" stroke="#bfbfbf" points="330,-0.5 330,-19.5 376,-19.5 376,-0.5 330,-0.5"/>
<text text-anchor="middle" x="353" y="-7.5" font-family="Helvetica,sans-Serif" font-size="10.00">cstdint</text>
</g>
<!-- Node6&#45;&gt;Node10 -->
<g id="edge9" class="edge"><title>Node6&#45;&gt;Node10</title>
<path fill="none" stroke="midnightblue" d="M308.745,-56.7808C317.347,-47.8824 328.452,-36.3943 337.386,-27.1524"/>
<polygon fill="midnightblue" stroke="midnightblue" points="340.127,-29.353 344.56,-19.7305 335.094,-24.4879 340.127,-29.353"/>
</g>
<!-- Node11 -->
<g id="node11" class="node"><title>Node11</title>
<g id="a_node11"><a xlink:href="../../d4/dc6/LHCConstants_8h.html" target="_top" xlink:title="Header to collect LHC related constants. ">
<polygon fill="none" stroke="black" points="394,-0.5 394,-19.5 572,-19.5 572,-0.5 394,-0.5"/>
<text text-anchor="middle" x="483" y="-7.5" font-family="Helvetica,sans-Serif" font-size="10.00">CommonConstants/LHCConstants.h</text>
</a>
</g>
</g>
<!-- Node6&#45;&gt;Node11 -->
<g id="edge10" class="edge"><title>Node6&#45;&gt;Node11</title>
<path fill="none" stroke="midnightblue" d="M339.078,-56.9327C371.743,-46.5077 415.738,-32.4667 446.454,-22.6635"/>
<polygon fill="midnightblue" stroke="midnightblue" points="447.864,-25.8875 456.327,-19.5127 445.736,-19.2189 447.864,-25.8875"/>
</g>
<!-- Node12&#45;&gt;Node11 -->
<g id="edge12" class="edge"><title>Node12&#45;&gt;Node11</title>
<path fill="none" stroke="midnightblue" d="M483,-62.4035C483,-53.9381 483,-40.7283 483,-29.8199"/>
<polygon fill="midnightblue" stroke="midnightblue" points="486.5,-29.5806 483,-19.5806 479.5,-29.5806 486.5,-29.5806"/>
</g>
<!-- Node13 -->
<g id="node13" class="node"><title>Node13</title>
<polygon fill="none" stroke="#bfbfbf" points="589.5,-0.5 589.5,-19.5 630.5,-19.5 630.5,-0.5 589.5,-0.5"/>
<text text-anchor="middle" x="610" y="-7.5" font-family="Helvetica,sans-Serif" font-size="10.00">bitset</text>
</g>
<!-- Node12&#45;&gt;Node13 -->
<g id="edge13" class="edge"><title>Node12&#45;&gt;Node13</title>
<path fill="none" stroke="midnightblue" d="M501.196,-62.4035C522.509,-52.3341 558.031,-35.5522 582.663,-23.9151"/>
<polygon fill="midnightblue" stroke="midnightblue" points="584.291,-27.0169 591.838,-19.5806 581.301,-20.6877 584.291,-27.0169"/>
</g>
</g>
</svg>
