<?xml version="1.0" encoding="UTF-8" standalone="no"?>
<!DOCTYPE svg PUBLIC "-//W3C//DTD SVG 1.1//EN"
 "http://www.w3.org/Graphics/SVG/1.1/DTD/svg11.dtd">
<!-- Generated by graphviz version 2.36.0 (20140111.2315)
 -->
<!-- Title: o2::trd::TRDCalSingleChamberStatus Pages: 1 -->
<svg width="183pt" height="414pt"
 viewBox="0.00 0.00 183.00 414.00" xmlns="http://www.w3.org/2000/svg" xmlns:xlink="http://www.w3.org/1999/xlink">
<g id="graph0" class="graph" transform="scale(1 1) rotate(0) translate(4 410)">
<title>o2::trd::TRDCalSingleChamberStatus</title>
<!-- Node1 -->
<g id="node1" class="node"><title>Node1</title>
<polygon fill="#bfbfbf" stroke="black" points="-0.5,-0.5 -0.5,-255.5 168.5,-255.5 168.5,-0.5 -0.5,-0.5"/>
<text text-anchor="start" x="7.5" y="-243.5" font-family="Helvetica,sans-Serif" font-size="10.00">o2::trd::TRDCalSingleChamber</text>
<text text-anchor="middle" x="84" y="-232.5" font-family="Helvetica,sans-Serif" font-size="10.00">Status</text>
<polyline fill="none" stroke="black" points="-0.5,-225.5 168.5,-225.5 "/>
<text text-anchor="middle" x="84" y="-213.5" font-family="Helvetica,sans-Serif" font-size="10.00"> </text>
<polyline fill="none" stroke="black" points="-0.5,-206.5 168.5,-206.5 "/>
<text text-anchor="start" x="7.5" y="-194.5" font-family="Helvetica,sans-Serif" font-size="10.00">+ TRDCalSingleChamberStatus()</text>
<text text-anchor="start" x="7.5" y="-183.5" font-family="Helvetica,sans-Serif" font-size="10.00">+ TRDCalSingleChamberStatus()</text>
<text text-anchor="start" x="7.5" y="-172.5" font-family="Helvetica,sans-Serif" font-size="10.00">+ TRDCalSingleChamberStatus()</text>
<text text-anchor="start" x="7.5" y="-161.5" font-family="Helvetica,sans-Serif" font-size="10.00">+ ~TRDCalSingleChamberStatus()</text>
<text text-anchor="start" x="7.5" y="-150.5" font-family="Helvetica,sans-Serif" font-size="10.00">+ operator=()</text>
<text text-anchor="start" x="7.5" y="-139.5" font-family="Helvetica,sans-Serif" font-size="10.00">+ Copy()</text>
<text text-anchor="start" x="7.5" y="-128.5" font-family="Helvetica,sans-Serif" font-size="10.00">+ isMasked()</text>
<text text-anchor="start" x="7.5" y="-117.5" font-family="Helvetica,sans-Serif" font-size="10.00">+ isBridgedLeft()</text>
<text text-anchor="start" x="7.5" y="-106.5" font-family="Helvetica,sans-Serif" font-size="10.00">+ isBridgedRight()</text>
<text text-anchor="start" x="7.5" y="-95.5" font-family="Helvetica,sans-Serif" font-size="10.00">+ isNotConnected()</text>
<text text-anchor="start" x="7.5" y="-84.5" font-family="Helvetica,sans-Serif" font-size="10.00">+ getNrows()</text>
<text text-anchor="start" x="7.5" y="-73.5" font-family="Helvetica,sans-Serif" font-size="10.00">+ getNcols()</text>
<text text-anchor="start" x="7.5" y="-62.5" font-family="Helvetica,sans-Serif" font-size="10.00">+ getChannel()</text>
<text text-anchor="start" x="7.5" y="-51.5" font-family="Helvetica,sans-Serif" font-size="10.00">+ getNchannels()</text>
<text text-anchor="start" x="7.5" y="-40.5" font-family="Helvetica,sans-Serif" font-size="10.00">+ getStatus()</text>
<text text-anchor="start" x="7.5" y="-29.5" font-family="Helvetica,sans-Serif" font-size="10.00">+ getStatus()</text>
<text text-anchor="start" x="7.5" y="-18.5" font-family="Helvetica,sans-Serif" font-size="10.00">+ setStatus()</text>
<text text-anchor="start" x="7.5" y="-7.5" font-family="Helvetica,sans-Serif" font-size="10.00">+ setStatus()</text>
</g>
<!-- Node2 -->
<g id="node2" class="node"><title>Node2</title>
<polygon fill="none" stroke="#bfbfbf" points="6,-348.5 6,-405.5 86,-405.5 86,-348.5 6,-348.5"/>
<text text-anchor="middle" x="46" y="-393.5" font-family="Helvetica,sans-Serif" font-size="10.00">vector&lt; char &gt;</text>
<polyline fill="none" stroke="#bfbfbf" points="6,-386.5 86,-386.5 "/>
<text text-anchor="middle" x="46" y="-374.5" font-family="Helvetica,sans-Serif" font-size="10.00"> </text>
<polyline fill="none" stroke="#bfbfbf" points="6,-367.5 86,-367.5 "/>
<text text-anchor="middle" x="46" y="-355.5" font-family="Helvetica,sans-Serif" font-size="10.00"> </text>
</g>
<!-- Node2&#45;&gt;Node1 -->
<g id="edge1" class="edge"><title>Node2&#45;&gt;Node1</title>
<path fill="none" stroke="#404040" d="M50.2852,-348.146C53.421,-327.763 57.9346,-298.425 62.6444,-267.811"/>
<polygon fill="none" stroke="#404040" points="62.7028,-267.431 59.6617,-260.893 64.5276,-255.571 67.5687,-262.109 62.7028,-267.431"/>
<text text-anchor="middle" x="80" y="-299.5" font-family="Helvetica,sans-Serif" font-size="10.00"> #mData</text>
</g>
<!-- Node3 -->
<g id="node3" class="node"><title>Node3</title>
<polygon fill="none" stroke="#bfbfbf" points="104,-348.5 104,-405.5 140,-405.5 140,-348.5 104,-348.5"/>
<text text-anchor="middle" x="122" y="-393.5" font-family="Helvetica,sans-Serif" font-size="10.00">Int_t</text>
<polyline fill="none" stroke="#bfbfbf" points="104,-386.5 140,-386.5 "/>
<text text-anchor="middle" x="122" y="-374.5" font-family="Helvetica,sans-Serif" font-size="10.00"> </text>
<polyline fill="none" stroke="#bfbfbf" points="104,-367.5 140,-367.5 "/>
<text text-anchor="middle" x="122" y="-355.5" font-family="Helvetica,sans-Serif" font-size="10.00"> </text>
</g>
<!-- Node3&#45;&gt;Node1 -->
<g id="edge2" class="edge"><title>Node3&#45;&gt;Node1</title>
<path fill="none" stroke="#404040" d="M117.715,-348.146C114.579,-327.763 110.065,-298.425 105.356,-267.811"/>
<polygon fill="none" stroke="#404040" points="105.297,-267.431 100.431,-262.109 103.472,-255.571 108.338,-260.893 105.297,-267.431"/>
<text text-anchor="middle" x="144.5" y="-321.5" font-family="Helvetica,sans-Serif" font-size="10.00"> #mNrows</text>
<text text-anchor="middle" x="144.5" y="-310.5" font-family="Helvetica,sans-Serif" font-size="10.00">#mCha</text>
<text text-anchor="middle" x="144.5" y="-299.5" font-family="Helvetica,sans-Serif" font-size="10.00">#mNchannels</text>
<text text-anchor="middle" x="144.5" y="-288.5" font-family="Helvetica,sans-Serif" font-size="10.00">#mNcols</text>
<text text-anchor="middle" x="144.5" y="-277.5" font-family="Helvetica,sans-Serif" font-size="10.00">#mPla</text>
</g>
</g>
</svg>
