<?xml version="1.0" encoding="UTF-8" standalone="no"?>
<!DOCTYPE svg PUBLIC "-//W3C//DTD SVG 1.1//EN"
 "http://www.w3.org/Graphics/SVG/1.1/DTD/svg11.dtd">
<!-- Generated by graphviz version 2.36.0 (20140111.2315)
 -->
<!-- Title: /home/travis/build/AliceO2Group/AliceO2/Framework/Core/src/BoostOptionsRetriever.cxx Pages: 1 -->
<!--zoomable 286 -->
<svg id="main" version="1.1" xmlns="http://www.w3.org/2000/svg" xmlns:xlink="http://www.w3.org/1999/xlink" xml:space="preserve" onload="init(evt)">
<style type="text/css"><![CDATA[
.edge:hover path { stroke: red; }
.edge:hover polygon { stroke: red; fill: red; }
]]></style>
<script type="text/javascript"><![CDATA[
var edges = document.getElementsByTagName('g');
if (edges && edges.length) {
  for (var i=0;i<edges.length;i++) {
    if (edges[i].id.substr(0,4)=='edge') {
      edges[i].setAttribute('class','edge');
    }
  }
}
]]></script>
        <defs>
                <circle id="rim" cx="0" cy="0" r="7"/>
                <circle id="rim2" cx="0" cy="0" r="3.5"/>
                <g id="zoomPlus">
                        <use xlink:href="#rim" fill="#404040">
                                <set attributeName="fill" to="#808080" begin="zoomplus.mouseover" end="zoomplus.mouseout"/>
                        </use>
                        <path d="M-4,0h8M0,-4v8" fill="none" stroke="white" stroke-width="1.5" pointer-events="none"/>
                </g>
                <g id="zoomMin">
                        <use xlink:href="#rim" fill="#404040">
                                <set attributeName="fill" to="#808080" begin="zoomminus.mouseover" end="zoomminus.mouseout"/>
                        </use>
                        <path d="M-4,0h8" fill="none" stroke="white" stroke-width="1.5" pointer-events="none"/>
                </g>
                <g id="dirArrow">
                        <path fill="none" stroke="white" stroke-width="1.5" d="M0,-3.0v7 M-2.5,-0.5L0,-3.0L2.5,-0.5"/>
                </g>
               <g id="resetDef">
                       <use xlink:href="#rim2" fill="#404040">
                               <set attributeName="fill" to="#808080" begin="reset.mouseover" end="reset.mouseout"/>
                       </use>
               </g>
        </defs>

<script type="text/javascript">
var viewWidth = 725;
var viewHeight = 286;
var sectionId = 'dynsection-0';
</script>
<script xlink:href="../../svgpan.js"/>
<svg id="graph" class="graph">
<g id="viewport">
<title>/home/travis/build/AliceO2Group/AliceO2/Framework/Core/src/BoostOptionsRetriever.cxx</title>
<!-- Node1 -->
<g id="node1" class="node"><title>Node1</title>
<polygon fill="#bfbfbf" stroke="black" points="213.5,-225 213.5,-277 384.5,-277 384.5,-225 213.5,-225"/>
<text text-anchor="start" x="221.5" y="-265" font-family="Helvetica,sans-Serif" font-size="10.00">/home/travis/build</text>
<text text-anchor="start" x="221.5" y="-254" font-family="Helvetica,sans-Serif" font-size="10.00">/AliceO2Group/AliceO2</text>
<text text-anchor="start" x="221.5" y="-243" font-family="Helvetica,sans-Serif" font-size="10.00">/Framework/Core/src/BoostOptions</text>
<text text-anchor="middle" x="299" y="-232" font-family="Helvetica,sans-Serif" font-size="10.00">Retriever.cxx</text>
</g>
<!-- Node2 -->
<g id="node2" class="node"><title>Node2</title>
<g id="a_node2"><a xlink:href="../../d3/d7e/BoostOptionsRetriever_8h.html" target="_top" xlink:title="Framework/BoostOptionsRetriever.h">
<polygon fill="none" stroke="black" points="338,-168.5 338,-187.5 514,-187.5 514,-168.5 338,-168.5"/>
<text text-anchor="middle" x="426" y="-175.5" font-family="Helvetica,sans-Serif" font-size="10.00">Framework/BoostOptionsRetriever.h</text>
</a>
</g>
</g>
<!-- Node1&#45;&gt;Node2 -->
<g id="edge1" class="edge"><title>Node1&#45;&gt;Node2</title>
<path fill="none" stroke="midnightblue" d="M343.775,-224.968C363.237,-214.088 385.275,-201.767 401.634,-192.622"/>
<polygon fill="midnightblue" stroke="midnightblue" points="403.527,-195.574 410.547,-187.639 400.111,-189.464 403.527,-195.574"/>
</g>
<!-- Node3 -->
<g id="node3" class="node"><title>Node3</title>
<g id="a_node3"><a xlink:href="../../d0/d1c/ConfigParamSpec_8h.html" target="_top" xlink:title="Framework/ConfigParamSpec.h">
<polygon fill="none" stroke="black" points="115,-112.5 115,-131.5 271,-131.5 271,-112.5 115,-112.5"/>
<text text-anchor="middle" x="193" y="-119.5" font-family="Helvetica,sans-Serif" font-size="10.00">Framework/ConfigParamSpec.h</text>
</a>
</g>
</g>
<!-- Node1&#45;&gt;Node3 -->
<g id="edge18" class="edge"><title>Node1&#45;&gt;Node3</title>
<path fill="none" stroke="midnightblue" d="M278.058,-224.909C256.952,-199.622 224.983,-161.319 206.846,-139.589"/>
<polygon fill="midnightblue" stroke="midnightblue" points="209.296,-137.062 200.201,-131.628 203.922,-141.548 209.296,-137.062"/>
</g>
<!-- Node6 -->
<g id="node6" class="node"><title>Node6</title>
<polygon fill="none" stroke="#bfbfbf" points="0,-0.5 0,-19.5 46,-19.5 46,-0.5 0,-0.5"/>
<text text-anchor="middle" x="23" y="-7.5" font-family="Helvetica,sans-Serif" font-size="10.00">cstring</text>
</g>
<!-- Node1&#45;&gt;Node6 -->
<g id="edge23" class="edge"><title>Node1&#45;&gt;Node6</title>
<path fill="none" stroke="midnightblue" d="M213.334,-227.197C186.993,-217.701 158.927,-204.862 136,-188 78.7757,-145.912 43.1999,-65.3576 29.4681,-29.2718"/>
<polygon fill="midnightblue" stroke="midnightblue" points="32.6448,-27.7694 25.908,-19.5922 26.0751,-30.1858 32.6448,-27.7694"/>
</g>
<!-- Node8 -->
<g id="node8" class="node"><title>Node8</title>
<polygon fill="none" stroke="#bfbfbf" points="64.5,-0.5 64.5,-19.5 109.5,-19.5 109.5,-0.5 64.5,-0.5"/>
<text text-anchor="middle" x="87" y="-7.5" font-family="Helvetica,sans-Serif" font-size="10.00">cstdlib</text>
</g>
<!-- Node1&#45;&gt;Node8 -->
<g id="edge22" class="edge"><title>Node1&#45;&gt;Node8</title>
<path fill="none" stroke="midnightblue" d="M229.196,-224.962C186.74,-206.041 135.231,-175.762 106,-132 85.2078,-100.872 84.0268,-55.3377 85.3175,-29.9295"/>
<polygon fill="midnightblue" stroke="midnightblue" points="88.8199,-30.0147 86.0229,-19.7958 81.8368,-29.5286 88.8199,-30.0147"/>
</g>
<!-- Node12 -->
<g id="node12" class="node"><title>Node12</title>
<polygon fill="none" stroke="#bfbfbf" points="297.5,-56.5 297.5,-75.5 338.5,-75.5 338.5,-56.5 297.5,-56.5"/>
<text text-anchor="middle" x="318" y="-63.5" font-family="Helvetica,sans-Serif" font-size="10.00">string</text>
</g>
<!-- Node1&#45;&gt;Node12 -->
<g id="edge20" class="edge"><title>Node1&#45;&gt;Node12</title>
<path fill="none" stroke="midnightblue" d="M301.602,-224.938C305.457,-187.811 312.599,-119.02 316.043,-85.8512"/>
<polygon fill="midnightblue" stroke="midnightblue" points="319.544,-86.0229 317.095,-75.7149 312.581,-85.2999 319.544,-86.0229"/>
</g>
<!-- Node14 -->
<g id="node14" class="node"><title>Node14</title>
<polygon fill="none" stroke="#bfbfbf" points="517,-56.5 517,-75.5 561,-75.5 561,-56.5 517,-56.5"/>
<text text-anchor="middle" x="539" y="-63.5" font-family="Helvetica,sans-Serif" font-size="10.00">vector</text>
</g>
<!-- Node1&#45;&gt;Node14 -->
<g id="edge21" class="edge"><title>Node1&#45;&gt;Node14</title>
<path fill="none" stroke="midnightblue" d="M384.742,-238.089C493.847,-220.911 672.681,-185.28 710,-132 745.164,-81.797 630.13,-70.3462 571.371,-67.7508"/>
<polygon fill="midnightblue" stroke="midnightblue" points="571.229,-64.243 561.103,-67.3619 570.964,-71.238 571.229,-64.243"/>
</g>
<!-- Node15 -->
<g id="node15" class="node"><title>Node15</title>
<polygon fill="none" stroke="#bfbfbf" points="567,-112.5 567,-131.5 701,-131.5 701,-112.5 567,-112.5"/>
<text text-anchor="middle" x="634" y="-119.5" font-family="Helvetica,sans-Serif" font-size="10.00">boost/program_options.hpp</text>
</g>
<!-- Node1&#45;&gt;Node15 -->
<g id="edge19" class="edge"><title>Node1&#45;&gt;Node15</title>
<path fill="none" stroke="midnightblue" d="M384.642,-231.613C426.859,-221.196 478.021,-206.517 522,-188 555.541,-173.878 591.446,-151.626 613.314,-137.172"/>
<polygon fill="midnightblue" stroke="midnightblue" points="615.419,-139.975 621.779,-131.502 611.523,-134.159 615.419,-139.975"/>
</g>
<!-- Node2&#45;&gt;Node3 -->
<g id="edge2" class="edge"><title>Node2&#45;&gt;Node3</title>
<path fill="none" stroke="midnightblue" d="M389.08,-168.444C348.605,-159.063 283.579,-143.993 239.616,-133.804"/>
<polygon fill="midnightblue" stroke="midnightblue" points="240.279,-130.365 229.747,-131.516 238.698,-137.184 240.279,-130.365"/>
</g>
<!-- Node2&#45;&gt;Node12 -->
<g id="edge16" class="edge"><title>Node2&#45;&gt;Node12</title>
<path fill="none" stroke="midnightblue" d="M407.951,-168.447C392.738,-160.575 371.096,-147.749 356,-132 342.881,-118.314 332.43,-99.2731 325.835,-85.3371"/>
<polygon fill="midnightblue" stroke="midnightblue" points="328.86,-83.53 321.563,-75.8486 322.477,-86.4039 328.86,-83.53"/>
</g>
<!-- Node13 -->
<g id="node13" class="node"><title>Node13</title>
<g id="a_node13"><a xlink:href="../../df/d72/ParamRetriever_8h.html" target="_top" xlink:title="Framework/ParamRetriever.h">
<polygon fill="none" stroke="black" points="365.5,-112.5 365.5,-131.5 510.5,-131.5 510.5,-112.5 365.5,-112.5"/>
<text text-anchor="middle" x="438" y="-119.5" font-family="Helvetica,sans-Serif" font-size="10.00">Framework/ParamRetriever.h</text>
</a>
</g>
</g>
<!-- Node2&#45;&gt;Node13 -->
<g id="edge12" class="edge"><title>Node2&#45;&gt;Node13</title>
<path fill="none" stroke="midnightblue" d="M427.982,-168.083C429.572,-160.927 431.859,-150.635 433.846,-141.691"/>
<polygon fill="midnightblue" stroke="midnightblue" points="437.303,-142.272 436.055,-131.751 430.469,-140.754 437.303,-142.272"/>
</g>
<!-- Node2&#45;&gt;Node14 -->
<g id="edge17" class="edge"><title>Node2&#45;&gt;Node14</title>
<path fill="none" stroke="midnightblue" d="M459.016,-168.354C478.967,-161.541 503.462,-150.102 519,-132 530.165,-118.992 535.099,-99.8321 537.278,-85.6817"/>
<polygon fill="midnightblue" stroke="midnightblue" points="540.769,-85.9702 538.502,-75.6207 533.82,-85.125 540.769,-85.9702"/>
</g>
<!-- Node2&#45;&gt;Node15 -->
<g id="edge15" class="edge"><title>Node2&#45;&gt;Node15</title>
<path fill="none" stroke="midnightblue" d="M458.958,-168.444C494.787,-159.142 552.163,-144.246 591.391,-134.062"/>
<polygon fill="midnightblue" stroke="midnightblue" points="592.396,-137.417 601.196,-131.516 590.637,-130.642 592.396,-137.417"/>
</g>
<!-- Node4 -->
<g id="node4" class="node"><title>Node4</title>
<g id="a_node4"><a xlink:href="../../de/d56/Variant_8h.html" target="_top" xlink:title="Framework/Variant.h">
<polygon fill="none" stroke="black" points="153.5,-56.5 153.5,-75.5 260.5,-75.5 260.5,-56.5 153.5,-56.5"/>
<text text-anchor="middle" x="207" y="-63.5" font-family="Helvetica,sans-Serif" font-size="10.00">Framework/Variant.h</text>
</a>
</g>
</g>
<!-- Node3&#45;&gt;Node4 -->
<g id="edge3" class="edge"><title>Node3&#45;&gt;Node4</title>
<path fill="none" stroke="midnightblue" d="M195.312,-112.083C197.167,-104.927 199.835,-94.6353 202.154,-85.6911"/>
<polygon fill="midnightblue" stroke="midnightblue" points="205.609,-86.3094 204.731,-75.7511 198.834,-84.5527 205.609,-86.3094"/>
</g>
<!-- Node3&#45;&gt;Node12 -->
<g id="edge11" class="edge"><title>Node3&#45;&gt;Node12</title>
<path fill="none" stroke="midnightblue" d="M212.807,-112.444C233.287,-103.596 265.483,-89.6875 288.865,-79.5865"/>
<polygon fill="midnightblue" stroke="midnightblue" points="290.494,-82.6953 298.286,-75.5164 287.718,-76.2692 290.494,-82.6953"/>
</g>
<!-- Node5 -->
<g id="node5" class="node"><title>Node5</title>
<polygon fill="none" stroke="#bfbfbf" points="424,-0.5 424,-19.5 486,-19.5 486,-0.5 424,-0.5"/>
<text text-anchor="middle" x="455" y="-7.5" font-family="Helvetica,sans-Serif" font-size="10.00">type_traits</text>
</g>
<!-- Node4&#45;&gt;Node5 -->
<g id="edge4" class="edge"><title>Node4&#45;&gt;Node5</title>
<path fill="none" stroke="midnightblue" d="M246.303,-56.4806C285.912,-47.8895 349.068,-34.1759 413.7,-20.062"/>
<polygon fill="midnightblue" stroke="midnightblue" points="414.64,-23.4394 423.662,-17.8859 413.146,-16.6006 414.64,-23.4394"/>
</g>
<!-- Node4&#45;&gt;Node6 -->
<g id="edge5" class="edge"><title>Node4&#45;&gt;Node6</title>
<path fill="none" stroke="midnightblue" d="M177.845,-56.4435C144.642,-46.6993 90.5204,-30.8158 55.8521,-20.6414"/>
<polygon fill="midnightblue" stroke="midnightblue" points="56.774,-17.2644 46.193,-17.8067 54.8027,-23.9811 56.774,-17.2644"/>
</g>
<!-- Node7 -->
<g id="node7" class="node"><title>Node7</title>
<polygon fill="none" stroke="#bfbfbf" points="128,-0.5 128,-19.5 174,-19.5 174,-0.5 128,-0.5"/>
<text text-anchor="middle" x="151" y="-7.5" font-family="Helvetica,sans-Serif" font-size="10.00">cstdint</text>
</g>
<!-- Node4&#45;&gt;Node7 -->
<g id="edge6" class="edge"><title>Node4&#45;&gt;Node7</title>
<path fill="none" stroke="midnightblue" d="M198.003,-56.324C189.806,-48.4196 177.494,-36.5482 167.528,-26.9377"/>
<polygon fill="midnightblue" stroke="midnightblue" points="169.789,-24.2558 160.161,-19.8339 164.93,-29.2947 169.789,-24.2558"/>
</g>
<!-- Node4&#45;&gt;Node8 -->
<g id="edge7" class="edge"><title>Node4&#45;&gt;Node8</title>
<path fill="none" stroke="midnightblue" d="M187.986,-56.4435C168.412,-47.6356 137.692,-33.8116 115.271,-23.722"/>
<polygon fill="midnightblue" stroke="midnightblue" points="116.481,-20.4284 105.925,-19.5164 113.608,-26.8119 116.481,-20.4284"/>
</g>
<!-- Node9 -->
<g id="node9" class="node"><title>Node9</title>
<polygon fill="none" stroke="#bfbfbf" points="192.5,-0.5 192.5,-19.5 251.5,-19.5 251.5,-0.5 192.5,-0.5"/>
<text text-anchor="middle" x="222" y="-7.5" font-family="Helvetica,sans-Serif" font-size="10.00">stdexcept</text>
</g>
<!-- Node4&#45;&gt;Node9 -->
<g id="edge8" class="edge"><title>Node4&#45;&gt;Node9</title>
<path fill="none" stroke="midnightblue" d="M209.477,-56.083C211.486,-48.8486 214.386,-38.4087 216.89,-29.3968"/>
<polygon fill="midnightblue" stroke="midnightblue" points="220.265,-30.323 219.569,-19.7511 213.52,-28.4495 220.265,-30.323"/>
</g>
<!-- Node10 -->
<g id="node10" class="node"><title>Node10</title>
<polygon fill="none" stroke="#bfbfbf" points="269.5,-0.5 269.5,-19.5 314.5,-19.5 314.5,-0.5 269.5,-0.5"/>
<text text-anchor="middle" x="292" y="-7.5" font-family="Helvetica,sans-Serif" font-size="10.00">iosfwd</text>
</g>
<!-- Node4&#45;&gt;Node10 -->
<g id="edge9" class="edge"><title>Node4&#45;&gt;Node10</title>
<path fill="none" stroke="midnightblue" d="M220.657,-56.324C233.916,-47.9002 254.268,-34.9709 269.846,-25.0741"/>
<polygon fill="midnightblue" stroke="midnightblue" points="271.813,-27.9711 278.377,-19.6545 268.06,-22.0626 271.813,-27.9711"/>
</g>
<!-- Node11 -->
<g id="node11" class="node"><title>Node11</title>
<polygon fill="none" stroke="#bfbfbf" points="332.5,-0.5 332.5,-19.5 405.5,-19.5 405.5,-0.5 332.5,-0.5"/>
<text text-anchor="middle" x="369" y="-7.5" font-family="Helvetica,sans-Serif" font-size="10.00">initializer_list</text>
</g>
<!-- Node4&#45;&gt;Node11 -->
<g id="edge10" class="edge"><title>Node4&#45;&gt;Node11</title>
<path fill="none" stroke="midnightblue" d="M232.669,-56.4435C259.923,-47.3591 303.184,-32.9388 333.651,-22.7831"/>
<polygon fill="midnightblue" stroke="midnightblue" points="335.071,-25.9992 343.451,-19.5164 332.857,-19.3584 335.071,-25.9992"/>
</g>
<!-- Node13&#45;&gt;Node12 -->
<g id="edge13" class="edge"><title>Node13&#45;&gt;Node12</title>
<path fill="none" stroke="midnightblue" d="M418.986,-112.444C399.412,-103.636 368.692,-89.8116 346.271,-79.722"/>
<polygon fill="midnightblue" stroke="midnightblue" points="347.481,-76.4284 336.925,-75.5164 344.608,-82.8119 347.481,-76.4284"/>
</g>
<!-- Node13&#45;&gt;Node14 -->
<g id="edge14" class="edge"><title>Node13&#45;&gt;Node14</title>
<path fill="none" stroke="midnightblue" d="M454.227,-112.324C470.351,-103.703 495.3,-90.3643 513.964,-80.3855"/>
<polygon fill="midnightblue" stroke="midnightblue" points="515.644,-83.456 522.813,-75.6545 512.344,-77.283 515.644,-83.456"/>
</g>
</g>
</svg>
        <g id="navigator" transform="translate(0 0)" fill="#404254">
                <rect fill="#f2f5e9" fill-opacity="0.5" stroke="#606060" stroke-width=".5" x="0" y="0" width="60" height="60"/>
                <use id="zoomplus" xlink:href="#zoomPlus" x="17" y="9" onmousedown="handleZoom(evt,'in')"/>
                <use id="zoomminus" xlink:href="#zoomMin" x="42" y="9" onmousedown="handleZoom(evt,'out')"/>
                <use id="reset" xlink:href="#resetDef" x="30" y="36" onmousedown="handleReset()"/>
                <g id="arrowUp" xlink:href="#dirArrow" transform="translate(30 24)" onmousedown="handlePan(0,-1)">
                  <use xlink:href="#rim" fill="#404040">
                        <set attributeName="fill" to="#808080" begin="arrowUp.mouseover" end="arrowUp.mouseout"/>
                  </use>
                  <path fill="none" stroke="white" stroke-width="1.5" d="M0,-3.0v7 M-2.5,-0.5L0,-3.0L2.5,-0.5"/>
                </g>
                <g id="arrowRight" xlink:href="#dirArrow" transform="rotate(90) translate(36 -43)" onmousedown="handlePan(1,0)">
                  <use xlink:href="#rim" fill="#404040">
                        <set attributeName="fill" to="#808080" begin="arrowRight.mouseover" end="arrowRight.mouseout"/>
                  </use>
                  <path fill="none" stroke="white" stroke-width="1.5" d="M0,-3.0v7 M-2.5,-0.5L0,-3.0L2.5,-0.5"/>
                </g>
                <g id="arrowDown" xlink:href="#dirArrow" transform="rotate(180) translate(-30 -48)" onmousedown="handlePan(0,1)">
                  <use xlink:href="#rim" fill="#404040">
                        <set attributeName="fill" to="#808080" begin="arrowDown.mouseover" end="arrowDown.mouseout"/>
                  </use>
                  <path fill="none" stroke="white" stroke-width="1.5" d="M0,-3.0v7 M-2.5,-0.5L0,-3.0L2.5,-0.5"/>
                </g>
                <g id="arrowLeft" xlink:href="#dirArrow" transform="rotate(270) translate(-36 17)" onmousedown="handlePan(-1,0)">
                  <use xlink:href="#rim" fill="#404040">
                        <set attributeName="fill" to="#808080" begin="arrowLeft.mouseover" end="arrowLeft.mouseout"/>
                  </use>
                  <path fill="none" stroke="white" stroke-width="1.5" d="M0,-3.0v7 M-2.5,-0.5L0,-3.0L2.5,-0.5"/>
                </g>
        </g>
        <svg viewBox="0 0 15 15" width="100%" height="30px" preserveAspectRatio="xMaxYMin meet">
         <g id="arrow_out" transform="scale(0.3 0.3)">
          <a xlink:href="BoostOptionsRetriever_8cxx__incl_org.svg" target="_base">
           <rect id="button" ry="5" rx="5" y="6" x="6" height="38" width="38"
                fill="#f2f5e9" fill-opacity="0.5" stroke="#606060" stroke-width="1.0"/>
           <path id="arrow"
             d="M 11.500037,31.436501 C 11.940474,20.09759 22.043105,11.32322 32.158766,21.979434 L 37.068811,17.246167 C 37.068811,17.246167 37.088388,32 37.088388,32 L 22.160133,31.978069 C 22.160133,31.978069 26.997745,27.140456 26.997745,27.140456 C 18.528582,18.264221 13.291696,25.230495 11.500037,31.436501 z"
             style="fill:#404040;"/>
          </a>
         </g>
        </svg>
</svg>
