<?xml version="1.0" encoding="UTF-8" standalone="no"?>
<!DOCTYPE svg PUBLIC "-//W3C//DTD SVG 1.1//EN"
 "http://www.w3.org/Graphics/SVG/1.1/DTD/svg11.dtd">
<!-- Generated by graphviz version 2.36.0 (20140111.2315)
 -->
<!-- Title: /home/travis/build/AliceO2Group/AliceO2/Utilities/aliceHLTwrapper/src/SystemInterface.cxx Pages: 1 -->
<svg width="545pt" height="174pt"
 viewBox="0.00 0.00 545.00 174.00" xmlns="http://www.w3.org/2000/svg" xmlns:xlink="http://www.w3.org/1999/xlink">
<g id="graph0" class="graph" transform="scale(1 1) rotate(0) translate(4 170)">
<title>/home/travis/build/AliceO2Group/AliceO2/Utilities/aliceHLTwrapper/src/SystemInterface.cxx</title>
<!-- Node1 -->
<g id="node1" class="node"><title>Node1</title>
<polygon fill="#bfbfbf" stroke="black" points="250.5,-113 250.5,-165 379.5,-165 379.5,-113 250.5,-113"/>
<text text-anchor="start" x="258.5" y="-153" font-family="Helvetica,sans-Serif" font-size="10.00">/home/travis/build</text>
<text text-anchor="start" x="258.5" y="-142" font-family="Helvetica,sans-Serif" font-size="10.00">/AliceO2Group/AliceO2</text>
<text text-anchor="start" x="258.5" y="-131" font-family="Helvetica,sans-Serif" font-size="10.00">/Utilities/aliceHLTwrapper</text>
<text text-anchor="middle" x="315" y="-120" font-family="Helvetica,sans-Serif" font-size="10.00">/src/SystemInterface.cxx</text>
</g>
<!-- Node2 -->
<g id="node2" class="node"><title>Node2</title>
<g id="a_node2"><a xlink:href="../../d8/d1d/SystemInterface_8h.html" target="_top" xlink:title="aliceHLTwrapper/SystemInterface.h">
<polygon fill="none" stroke="black" points="-0.5,-56.5 -0.5,-75.5 172.5,-75.5 172.5,-56.5 -0.5,-56.5"/>
<text text-anchor="middle" x="86" y="-63.5" font-family="Helvetica,sans-Serif" font-size="10.00">aliceHLTwrapper/SystemInterface.h</text>
</a>
</g>
</g>
<!-- Node1&#45;&gt;Node2 -->
<g id="edge1" class="edge"><title>Node1&#45;&gt;Node2</title>
<path fill="none" stroke="midnightblue" d="M250.296,-117.939C209.247,-105.212 157.593,-89.197 123.275,-78.5568"/>
<polygon fill="midnightblue" stroke="midnightblue" points="124.233,-75.1897 113.645,-75.5713 122.16,-81.8757 124.233,-75.1897"/>
</g>
<!-- Node3 -->
<g id="node3" class="node"><title>Node3</title>
<g id="a_node3"><a xlink:href="../../d6/d34/AliHLTDataTypes_8h.html" target="_top" xlink:title="Data type declaration for the HLT module. ">
<polygon fill="none" stroke="black" points="91.5,-0.5 91.5,-19.5 194.5,-19.5 194.5,-0.5 91.5,-0.5"/>
<text text-anchor="middle" x="143" y="-7.5" font-family="Helvetica,sans-Serif" font-size="10.00">AliHLTDataTypes.h</text>
</a>
</g>
</g>
<!-- Node1&#45;&gt;Node3 -->
<g id="edge3" class="edge"><title>Node1&#45;&gt;Node3</title>
<path fill="none" stroke="midnightblue" d="M274.533,-112.718C257.686,-101.833 238.106,-88.707 221,-76 199.509,-60.0357 176.065,-40.136 160.549,-26.5892"/>
<polygon fill="midnightblue" stroke="midnightblue" points="162.628,-23.757 152.807,-19.7821 158.006,-29.0138 162.628,-23.757"/>
</g>
<!-- Node4 -->
<g id="node4" class="node"><title>Node4</title>
<polygon fill="none" stroke="#bfbfbf" points="229.5,-56.5 229.5,-75.5 274.5,-75.5 274.5,-56.5 229.5,-56.5"/>
<text text-anchor="middle" x="252" y="-63.5" font-family="Helvetica,sans-Serif" font-size="10.00">cstdlib</text>
</g>
<!-- Node1&#45;&gt;Node4 -->
<g id="edge4" class="edge"><title>Node1&#45;&gt;Node4</title>
<path fill="none" stroke="midnightblue" d="M292.611,-112.768C283.927,-102.982 274.233,-92.0561 266.494,-83.3346"/>
<polygon fill="midnightblue" stroke="midnightblue" points="269.026,-80.9141 259.77,-75.7572 263.79,-85.5601 269.026,-80.9141"/>
</g>
<!-- Node5 -->
<g id="node5" class="node"><title>Node5</title>
<polygon fill="none" stroke="#bfbfbf" points="293,-56.5 293,-75.5 337,-75.5 337,-56.5 293,-56.5"/>
<text text-anchor="middle" x="315" y="-63.5" font-family="Helvetica,sans-Serif" font-size="10.00">cerrno</text>
</g>
<!-- Node1&#45;&gt;Node5 -->
<g id="edge5" class="edge"><title>Node1&#45;&gt;Node5</title>
<path fill="none" stroke="midnightblue" d="M315,-112.768C315,-103.89 315,-94.0737 315,-85.8165"/>
<polygon fill="midnightblue" stroke="midnightblue" points="318.5,-85.7571 315,-75.7572 311.5,-85.7572 318.5,-85.7571"/>
</g>
<!-- Node6 -->
<g id="node6" class="node"><title>Node6</title>
<polygon fill="none" stroke="#bfbfbf" points="355,-56.5 355,-75.5 401,-75.5 401,-56.5 355,-56.5"/>
<text text-anchor="middle" x="378" y="-63.5" font-family="Helvetica,sans-Serif" font-size="10.00">cstring</text>
</g>
<!-- Node1&#45;&gt;Node6 -->
<g id="edge6" class="edge"><title>Node1&#45;&gt;Node6</title>
<path fill="none" stroke="midnightblue" d="M337.389,-112.768C346.073,-102.982 355.767,-92.0561 363.506,-83.3346"/>
<polygon fill="midnightblue" stroke="midnightblue" points="366.21,-85.5601 370.23,-75.7572 360.974,-80.9141 366.21,-85.5601"/>
</g>
<!-- Node7 -->
<g id="node7" class="node"><title>Node7</title>
<polygon fill="none" stroke="#bfbfbf" points="419,-56.5 419,-75.5 473,-75.5 473,-56.5 419,-56.5"/>
<text text-anchor="middle" x="446" y="-63.5" font-family="Helvetica,sans-Serif" font-size="10.00">iostream</text>
</g>
<!-- Node1&#45;&gt;Node7 -->
<g id="edge7" class="edge"><title>Node1&#45;&gt;Node7</title>
<path fill="none" stroke="midnightblue" d="M361.186,-112.968C381.26,-102.088 403.993,-89.7673 420.867,-80.6218"/>
<polygon fill="midnightblue" stroke="midnightblue" points="422.937,-83.481 430.061,-75.6389 419.601,-77.3268 422.937,-83.481"/>
</g>
<!-- Node8 -->
<g id="node8" class="node"><title>Node8</title>
<polygon fill="none" stroke="#bfbfbf" points="491,-56.5 491,-75.5 537,-75.5 537,-56.5 491,-56.5"/>
<text text-anchor="middle" x="514" y="-63.5" font-family="Helvetica,sans-Serif" font-size="10.00">dlfcn.h</text>
</g>
<!-- Node1&#45;&gt;Node8 -->
<g id="edge8" class="edge"><title>Node1&#45;&gt;Node8</title>
<path fill="none" stroke="midnightblue" d="M379.61,-114.948C413.571,-102.831 453.743,-88.4989 481.263,-78.68"/>
<polygon fill="midnightblue" stroke="midnightblue" points="482.553,-81.9361 490.795,-75.2792 480.2,-75.3432 482.553,-81.9361"/>
</g>
<!-- Node2&#45;&gt;Node3 -->
<g id="edge2" class="edge"><title>Node2&#45;&gt;Node3</title>
<path fill="none" stroke="midnightblue" d="M95.158,-56.324C103.501,-48.4196 116.032,-36.5482 126.177,-26.9377"/>
<polygon fill="midnightblue" stroke="midnightblue" points="128.823,-29.2522 133.675,-19.8339 124.009,-24.1705 128.823,-29.2522"/>
</g>
</g>
</svg>
