<?xml version="1.0" encoding="UTF-8" standalone="no"?>
<!DOCTYPE svg PUBLIC "-//W3C//DTD SVG 1.1//EN"
 "http://www.w3.org/Graphics/SVG/1.1/DTD/svg11.dtd">
<!-- Generated by graphviz version 2.36.0 (20140111.2315)
 -->
<!-- Title: /home/travis/build/AliceO2Group/AliceO2/Detectors/MUON/MID/Base/include/MIDBase/HitFinder.h Pages: 1 -->
<svg width="503pt" height="152pt"
 viewBox="0.00 0.00 503.00 152.00" xmlns="http://www.w3.org/2000/svg" xmlns:xlink="http://www.w3.org/1999/xlink">
<g id="graph0" class="graph" transform="scale(1 1) rotate(0) translate(4 148)">
<title>/home/travis/build/AliceO2Group/AliceO2/Detectors/MUON/MID/Base/include/MIDBase/HitFinder.h</title>
<!-- Node1 -->
<g id="node1" class="node"><title>Node1</title>
<polygon fill="#bfbfbf" stroke="black" points="167,-91 167,-143 313,-143 313,-91 167,-91"/>
<text text-anchor="start" x="175" y="-131" font-family="Helvetica,sans-Serif" font-size="10.00">/home/travis/build</text>
<text text-anchor="start" x="175" y="-120" font-family="Helvetica,sans-Serif" font-size="10.00">/AliceO2Group/AliceO2</text>
<text text-anchor="start" x="175" y="-109" font-family="Helvetica,sans-Serif" font-size="10.00">/Detectors/MUON/MID/Base</text>
<text text-anchor="middle" x="240" y="-98" font-family="Helvetica,sans-Serif" font-size="10.00">/include/MIDBase/HitFinder.h</text>
</g>
<!-- Node2 -->
<g id="node2" class="node"><title>Node2</title>
<g id="a_node2"><a xlink:href="../../d4/dc0/HitFinder_8cxx.html" target="_top" xlink:title="Implementation of the hit finder for MID. ">
<polygon fill="none" stroke="black" points="-0.5,-1 -0.5,-53 142.5,-53 142.5,-1 -0.5,-1"/>
<text text-anchor="start" x="7.5" y="-41" font-family="Helvetica,sans-Serif" font-size="10.00">/home/travis/build</text>
<text text-anchor="start" x="7.5" y="-30" font-family="Helvetica,sans-Serif" font-size="10.00">/AliceO2Group/AliceO2</text>
<text text-anchor="start" x="7.5" y="-19" font-family="Helvetica,sans-Serif" font-size="10.00">/Detectors/MUON/MID/Base</text>
<text text-anchor="middle" x="71" y="-8" font-family="Helvetica,sans-Serif" font-size="10.00">/src/HitFinder.cxx</text>
</a>
</g>
</g>
<!-- Node1&#45;&gt;Node2 -->
<g id="edge1" class="edge"><title>Node1&#45;&gt;Node2</title>
<path fill="none" stroke="midnightblue" d="M182.588,-86.1047C161.953,-75.3602 138.909,-63.3607 119.143,-53.0687"/>
<polygon fill="midnightblue" stroke="midnightblue" points="181.085,-89.2686 191.571,-90.7827 184.318,-83.0598 181.085,-89.2686"/>
</g>
<!-- Node3 -->
<g id="node3" class="node"><title>Node3</title>
<g id="a_node3"><a xlink:href="../../d0/db9/bench__Tracker_8cxx.html" target="_top" xlink:title="Benchmark tracker device for MID. ">
<polygon fill="none" stroke="black" points="161,-1 161,-53 319,-53 319,-1 161,-1"/>
<text text-anchor="start" x="169" y="-41" font-family="Helvetica,sans-Serif" font-size="10.00">/home/travis/build</text>
<text text-anchor="start" x="169" y="-30" font-family="Helvetica,sans-Serif" font-size="10.00">/AliceO2Group/AliceO2</text>
<text text-anchor="start" x="169" y="-19" font-family="Helvetica,sans-Serif" font-size="10.00">/Detectors/MUON/MID/Tracking</text>
<text text-anchor="middle" x="240" y="-8" font-family="Helvetica,sans-Serif" font-size="10.00">/test/bench_Tracker.cxx</text>
</a>
</g>
</g>
<!-- Node1&#45;&gt;Node3 -->
<g id="edge2" class="edge"><title>Node1&#45;&gt;Node3</title>
<path fill="none" stroke="midnightblue" d="M240,-80.4892C240,-71.3088 240,-61.616 240,-53.0921"/>
<polygon fill="midnightblue" stroke="midnightblue" points="236.5,-80.5467 240,-90.5468 243.5,-80.5468 236.5,-80.5467"/>
</g>
<!-- Node4 -->
<g id="node4" class="node"><title>Node4</title>
<g id="a_node4"><a xlink:href="../../da/de0/testTracker_8cxx.html" target="_top" xlink:title="Test tracking device for MID. ">
<polygon fill="none" stroke="black" points="337,-1 337,-53 495,-53 495,-1 337,-1"/>
<text text-anchor="start" x="345" y="-41" font-family="Helvetica,sans-Serif" font-size="10.00">/home/travis/build</text>
<text text-anchor="start" x="345" y="-30" font-family="Helvetica,sans-Serif" font-size="10.00">/AliceO2Group/AliceO2</text>
<text text-anchor="start" x="345" y="-19" font-family="Helvetica,sans-Serif" font-size="10.00">/Detectors/MUON/MID/Tracking</text>
<text text-anchor="middle" x="416" y="-8" font-family="Helvetica,sans-Serif" font-size="10.00">/test/testTracker.cxx</text>
</a>
</g>
</g>
<!-- Node1&#45;&gt;Node4 -->
<g id="edge3" class="edge"><title>Node1&#45;&gt;Node4</title>
<path fill="none" stroke="midnightblue" d="M299.502,-86.2492C321.064,-75.4678 345.186,-63.4068 365.863,-53.0687"/>
<polygon fill="midnightblue" stroke="midnightblue" points="297.814,-83.18 290.435,-90.7827 300.944,-89.441 297.814,-83.18"/>
</g>
</g>
</svg>
