<?xml version="1.0" encoding="UTF-8" standalone="no"?>
<!DOCTYPE svg PUBLIC "-//W3C//DTD SVG 1.1//EN"
 "http://www.w3.org/Graphics/SVG/1.1/DTD/svg11.dtd">
<!-- Generated by graphviz version 2.36.0 (20140111.2315)
 -->
<!-- Title: o2::ITSMFT::AlpideCoder::HitsRecord Pages: 1 -->
<svg width="139pt" height="238pt"
 viewBox="0.00 0.00 139.00 238.00" xmlns="http://www.w3.org/2000/svg" xmlns:xlink="http://www.w3.org/1999/xlink">
<g id="graph0" class="graph" transform="scale(1 1) rotate(0) translate(4 234)">
<title>o2::ITSMFT::AlpideCoder::HitsRecord</title>
<!-- Node1 -->
<g id="node1" class="node"><title>Node1</title>
<polygon fill="#bfbfbf" stroke="black" points="0,-0.5 0,-101.5 128,-101.5 128,-0.5 0,-0.5"/>
<text text-anchor="start" x="8" y="-89.5" font-family="Helvetica,sans-Serif" font-size="10.00">o2::ITSMFT::AlpideCoder</text>
<text text-anchor="middle" x="64" y="-78.5" font-family="Helvetica,sans-Serif" font-size="10.00">::HitsRecord</text>
<polyline fill="none" stroke="black" points="0,-71.5 128,-71.5 "/>
<text text-anchor="middle" x="64" y="-59.5" font-family="Helvetica,sans-Serif" font-size="10.00"> </text>
<polyline fill="none" stroke="black" points="0,-52.5 128,-52.5 "/>
<text text-anchor="start" x="8" y="-40.5" font-family="Helvetica,sans-Serif" font-size="10.00">+ HitsRecord()</text>
<text text-anchor="start" x="8" y="-29.5" font-family="Helvetica,sans-Serif" font-size="10.00">+ ~HitsRecord()</text>
<text text-anchor="start" x="8" y="-18.5" font-family="Helvetica,sans-Serif" font-size="10.00">+ HitsRecord()</text>
<text text-anchor="start" x="8" y="-7.5" font-family="Helvetica,sans-Serif" font-size="10.00">+ ClassDefNV()</text>
</g>
<!-- Node2 -->
<g id="node2" class="node"><title>Node2</title>
<polygon fill="none" stroke="#bfbfbf" points="5.5,-172.5 5.5,-229.5 56.5,-229.5 56.5,-172.5 5.5,-172.5"/>
<text text-anchor="middle" x="31" y="-217.5" font-family="Helvetica,sans-Serif" font-size="10.00">uint16_t</text>
<polyline fill="none" stroke="#bfbfbf" points="5.5,-210.5 56.5,-210.5 "/>
<text text-anchor="middle" x="31" y="-198.5" font-family="Helvetica,sans-Serif" font-size="10.00"> </text>
<polyline fill="none" stroke="#bfbfbf" points="5.5,-191.5 56.5,-191.5 "/>
<text text-anchor="middle" x="31" y="-179.5" font-family="Helvetica,sans-Serif" font-size="10.00"> </text>
</g>
<!-- Node2&#45;&gt;Node1 -->
<g id="edge1" class="edge"><title>Node2&#45;&gt;Node1</title>
<path fill="none" stroke="#404040" d="M28.4755,-172.257C27.7718,-156.702 28.0754,-137.056 32,-120 32.5267,-117.711 33.1375,-115.408 33.818,-113.104"/>
<polygon fill="none" stroke="#404040" points="33.8558,-112.993 32.0099,-106.022 37.7345,-101.637 39.5805,-108.608 33.8558,-112.993"/>
<text text-anchor="middle" x="54" y="-134.5" font-family="Helvetica,sans-Serif" font-size="10.00"> +address</text>
</g>
<!-- Node3 -->
<g id="node3" class="node"><title>Node3</title>
<polygon fill="none" stroke="#bfbfbf" points="75,-172.5 75,-229.5 121,-229.5 121,-172.5 75,-172.5"/>
<text text-anchor="middle" x="98" y="-217.5" font-family="Helvetica,sans-Serif" font-size="10.00">uint8_t</text>
<polyline fill="none" stroke="#bfbfbf" points="75,-210.5 121,-210.5 "/>
<text text-anchor="middle" x="98" y="-198.5" font-family="Helvetica,sans-Serif" font-size="10.00"> </text>
<polyline fill="none" stroke="#bfbfbf" points="75,-191.5 121,-191.5 "/>
<text text-anchor="middle" x="98" y="-179.5" font-family="Helvetica,sans-Serif" font-size="10.00"> </text>
</g>
<!-- Node3&#45;&gt;Node1 -->
<g id="edge2" class="edge"><title>Node3&#45;&gt;Node1</title>
<path fill="none" stroke="#404040" d="M91.6049,-172.162C87.7938,-155.573 82.7989,-133.83 78.1069,-113.407"/>
<polygon fill="none" stroke="#404040" points="78.0774,-113.278 72.8356,-108.326 75.3906,-101.583 80.6325,-106.535 78.0774,-113.278"/>
<text text-anchor="middle" x="109.5" y="-145.5" font-family="Helvetica,sans-Serif" font-size="10.00"> +hitmap</text>
<text text-anchor="middle" x="109.5" y="-134.5" font-family="Helvetica,sans-Serif" font-size="10.00">+dcolumn</text>
<text text-anchor="middle" x="109.5" y="-123.5" font-family="Helvetica,sans-Serif" font-size="10.00">+region</text>
</g>
</g>
</svg>
