<?xml version="1.0" encoding="UTF-8" standalone="no"?>
<!DOCTYPE svg PUBLIC "-//W3C//DTD SVG 1.1//EN"
 "http://www.w3.org/Graphics/SVG/1.1/DTD/svg11.dtd">
<!-- Generated by graphviz version 2.36.0 (20140111.2315)
 -->
<!-- Title: o2::dataformats::MCEventHeader Pages: 1 -->
<svg width="377pt" height="260pt"
 viewBox="0.00 0.00 377.00 260.00" xmlns="http://www.w3.org/2000/svg" xmlns:xlink="http://www.w3.org/1999/xlink">
<g id="graph0" class="graph" transform="scale(1 1) rotate(0) translate(4 256)">
<title>o2::dataformats::MCEventHeader</title>
<!-- Node1 -->
<g id="node1" class="node"><title>Node1</title>
<polygon fill="#bfbfbf" stroke="black" points="66.5,-0.5 66.5,-145.5 209.5,-145.5 209.5,-0.5 66.5,-0.5"/>
<text text-anchor="start" x="74.5" y="-133.5" font-family="Helvetica,sans-Serif" font-size="10.00">o2::dataformats::MCEvent</text>
<text text-anchor="middle" x="138" y="-122.5" font-family="Helvetica,sans-Serif" font-size="10.00">Header</text>
<polyline fill="none" stroke="black" points="66.5,-115.5 209.5,-115.5 "/>
<text text-anchor="middle" x="138" y="-103.5" font-family="Helvetica,sans-Serif" font-size="10.00"> </text>
<polyline fill="none" stroke="black" points="66.5,-96.5 209.5,-96.5 "/>
<text text-anchor="start" x="74.5" y="-84.5" font-family="Helvetica,sans-Serif" font-size="10.00">+ MCEventHeader()</text>
<text text-anchor="start" x="74.5" y="-73.5" font-family="Helvetica,sans-Serif" font-size="10.00">+ MCEventHeader()</text>
<text text-anchor="start" x="74.5" y="-62.5" font-family="Helvetica,sans-Serif" font-size="10.00">+ operator=()</text>
<text text-anchor="start" x="74.5" y="-51.5" font-family="Helvetica,sans-Serif" font-size="10.00">+ ~MCEventHeader()</text>
<text text-anchor="start" x="74.5" y="-40.5" font-family="Helvetica,sans-Serif" font-size="10.00">+ setEmbeddingFileName()</text>
<text text-anchor="start" x="74.5" y="-29.5" font-family="Helvetica,sans-Serif" font-size="10.00">+ setEmbeddingEventIndex()</text>
<text text-anchor="start" x="74.5" y="-18.5" font-family="Helvetica,sans-Serif" font-size="10.00">+ Reset()</text>
<text text-anchor="start" x="74.5" y="-7.5" font-family="Helvetica,sans-Serif" font-size="10.00"># ClassDefOverride()</text>
</g>
<!-- Node2 -->
<g id="node2" class="node"><title>Node2</title>
<g id="a_node2"><a xlink:href="../../dd/d8f/classFairMCEventHeader.html" target="_top" xlink:title="{FairMCEventHeader\n||}">
<polygon fill="none" stroke="black" points="0,-194.5 0,-251.5 106,-251.5 106,-194.5 0,-194.5"/>
<text text-anchor="middle" x="53" y="-239.5" font-family="Helvetica,sans-Serif" font-size="10.00">FairMCEventHeader</text>
<polyline fill="none" stroke="black" points="0,-232.5 106,-232.5 "/>
<text text-anchor="middle" x="53" y="-220.5" font-family="Helvetica,sans-Serif" font-size="10.00"> </text>
<polyline fill="none" stroke="black" points="0,-213.5 106,-213.5 "/>
<text text-anchor="middle" x="53" y="-201.5" font-family="Helvetica,sans-Serif" font-size="10.00"> </text>
</a>
</g>
</g>
<!-- Node2&#45;&gt;Node1 -->
<g id="edge1" class="edge"><title>Node2&#45;&gt;Node1</title>
<path fill="none" stroke="midnightblue" d="M74.0593,-185.332C80.9765,-173.288 88.9203,-159.456 96.8043,-145.729"/>
<polygon fill="none" stroke="midnightblue" points="70.9331,-183.748 68.9878,-194.162 77.0033,-187.234 70.9331,-183.748"/>
</g>
<!-- Node3 -->
<g id="node3" class="node"><title>Node3</title>
<g id="a_node3"><a xlink:href="../../d1/da0/classint.html" target="_top" xlink:title="{int\n||}">
<polygon fill="none" stroke="black" points="123.5,-194.5 123.5,-251.5 152.5,-251.5 152.5,-194.5 123.5,-194.5"/>
<text text-anchor="middle" x="138" y="-239.5" font-family="Helvetica,sans-Serif" font-size="10.00">int</text>
<polyline fill="none" stroke="black" points="123.5,-232.5 152.5,-232.5 "/>
<text text-anchor="middle" x="138" y="-220.5" font-family="Helvetica,sans-Serif" font-size="10.00"> </text>
<polyline fill="none" stroke="black" points="123.5,-213.5 152.5,-213.5 "/>
<text text-anchor="middle" x="138" y="-201.5" font-family="Helvetica,sans-Serif" font-size="10.00"> </text>
</a>
</g>
</g>
<!-- Node3&#45;&gt;Node1 -->
<g id="edge2" class="edge"><title>Node3&#45;&gt;Node1</title>
<path fill="none" stroke="#404040" d="M138,-194.162C138,-183.584 138,-170.911 138,-157.82"/>
<polygon fill="none" stroke="#404040" points="138,-157.729 134,-151.729 138,-145.729 142,-151.729 138,-157.729"/>
<text text-anchor="middle" x="192" y="-167.5" font-family="Helvetica,sans-Serif" font-size="10.00"> #mEmbeddingFileName</text>
</g>
<!-- Node4 -->
<g id="node4" class="node"><title>Node4</title>
<polygon fill="none" stroke="#bfbfbf" points="251,-194.5 251,-251.5 287,-251.5 287,-194.5 251,-194.5"/>
<text text-anchor="middle" x="269" y="-239.5" font-family="Helvetica,sans-Serif" font-size="10.00">Int_t</text>
<polyline fill="none" stroke="#bfbfbf" points="251,-232.5 287,-232.5 "/>
<text text-anchor="middle" x="269" y="-220.5" font-family="Helvetica,sans-Serif" font-size="10.00"> </text>
<polyline fill="none" stroke="#bfbfbf" points="251,-213.5 287,-213.5 "/>
<text text-anchor="middle" x="269" y="-201.5" font-family="Helvetica,sans-Serif" font-size="10.00"> </text>
</g>
<!-- Node4&#45;&gt;Node1 -->
<g id="edge3" class="edge"><title>Node4&#45;&gt;Node1</title>
<path fill="none" stroke="#404040" d="M261.74,-194.275C258.282,-184.168 253.459,-173.018 247,-164 238.987,-152.813 229.254,-142.208 218.94,-132.468"/>
<polygon fill="none" stroke="#404040" points="218.644,-132.2 211.513,-131.132 209.755,-124.138 216.887,-125.206 218.644,-132.2"/>
<text text-anchor="middle" x="311.5" y="-167.5" font-family="Helvetica,sans-Serif" font-size="10.00"> #mEmbeddingEventIndex</text>
</g>
</g>
</svg>
