<?xml version="1.0" encoding="UTF-8" standalone="no"?>
<!DOCTYPE svg PUBLIC "-//W3C//DTD SVG 1.1//EN"
 "http://www.w3.org/Graphics/SVG/1.1/DTD/svg11.dtd">
<!-- Generated by graphviz version 2.36.0 (20140111.2315)
 -->
<!-- Title: /home/travis/build/AliceO2Group/AliceO2/Utilities/DataCompression/tpccluster_parameter_model.h Pages: 1 -->
<!--zoomable 254 -->
<svg id="main" version="1.1" xmlns="http://www.w3.org/2000/svg" xmlns:xlink="http://www.w3.org/1999/xlink" xml:space="preserve" onload="init(evt)">
<style type="text/css"><![CDATA[
.edge:hover path { stroke: red; }
.edge:hover polygon { stroke: red; fill: red; }
]]></style>
<script type="text/javascript"><![CDATA[
var edges = document.getElementsByTagName('g');
if (edges && edges.length) {
  for (var i=0;i<edges.length;i++) {
    if (edges[i].id.substr(0,4)=='edge') {
      edges[i].setAttribute('class','edge');
    }
  }
}
]]></script>
        <defs>
                <circle id="rim" cx="0" cy="0" r="7"/>
                <circle id="rim2" cx="0" cy="0" r="3.5"/>
                <g id="zoomPlus">
                        <use xlink:href="#rim" fill="#404040">
                                <set attributeName="fill" to="#808080" begin="zoomplus.mouseover" end="zoomplus.mouseout"/>
                        </use>
                        <path d="M-4,0h8M0,-4v8" fill="none" stroke="white" stroke-width="1.5" pointer-events="none"/>
                </g>
                <g id="zoomMin">
                        <use xlink:href="#rim" fill="#404040">
                                <set attributeName="fill" to="#808080" begin="zoomminus.mouseover" end="zoomminus.mouseout"/>
                        </use>
                        <path d="M-4,0h8" fill="none" stroke="white" stroke-width="1.5" pointer-events="none"/>
                </g>
                <g id="dirArrow">
                        <path fill="none" stroke="white" stroke-width="1.5" d="M0,-3.0v7 M-2.5,-0.5L0,-3.0L2.5,-0.5"/>
                </g>
               <g id="resetDef">
                       <use xlink:href="#rim2" fill="#404040">
                               <set attributeName="fill" to="#808080" begin="reset.mouseover" end="reset.mouseout"/>
                       </use>
               </g>
        </defs>

<script type="text/javascript">
var viewWidth = 1288;
var viewHeight = 254;
var sectionId = 'dynsection-0';
</script>
<script xlink:href="../../svgpan.js"/>
<svg id="graph" class="graph">
<g id="viewport">
<title>/home/travis/build/AliceO2Group/AliceO2/Utilities/DataCompression/tpccluster_parameter_model.h</title>
<!-- Node1 -->
<g id="node1" class="node"><title>Node1</title>
<polygon fill="#bfbfbf" stroke="black" points="1008.5,-193 1008.5,-245 1159.5,-245 1159.5,-193 1008.5,-193"/>
<text text-anchor="start" x="1016.5" y="-233" font-family="Helvetica,sans-Serif" font-size="10.00">/home/travis/build</text>
<text text-anchor="start" x="1016.5" y="-222" font-family="Helvetica,sans-Serif" font-size="10.00">/AliceO2Group/AliceO2</text>
<text text-anchor="start" x="1016.5" y="-211" font-family="Helvetica,sans-Serif" font-size="10.00">/Utilities/DataCompression</text>
<text text-anchor="middle" x="1084" y="-200" font-family="Helvetica,sans-Serif" font-size="10.00">/tpccluster_parameter_model.h</text>
</g>
<!-- Node2 -->
<g id="node2" class="node"><title>Node2</title>
<g id="a_node2"><a xlink:href="../../d8/d99/dc__primitives_8h.html" target="_top" xlink:title="Primitives for data compression. ">
<polygon fill="none" stroke="black" points="946.5,-125 946.5,-155 1055.5,-155 1055.5,-125 946.5,-125"/>
<text text-anchor="start" x="954.5" y="-143" font-family="Helvetica,sans-Serif" font-size="10.00">DataCompression/dc</text>
<text text-anchor="middle" x="1001" y="-132" font-family="Helvetica,sans-Serif" font-size="10.00">_primitives.h</text>
</a>
</g>
</g>
<!-- Node1&#45;&gt;Node2 -->
<g id="edge1" class="edge"><title>Node1&#45;&gt;Node2</title>
<path fill="none" stroke="midnightblue" d="M1056.82,-192.787C1046.12,-182.861 1033.98,-171.592 1023.75,-162.106"/>
<polygon fill="midnightblue" stroke="midnightblue" points="1026.07,-159.487 1016.36,-155.252 1021.31,-164.619 1026.07,-159.487"/>
</g>
<!-- Node6 -->
<g id="node6" class="node"><title>Node6</title>
<polygon fill="none" stroke="#bfbfbf" points="1140.5,-68.5 1140.5,-87.5 1245.5,-87.5 1245.5,-68.5 1140.5,-68.5"/>
<text text-anchor="middle" x="1193" y="-75.5" font-family="Helvetica,sans-Serif" font-size="10.00">boost/mpl/string.hpp</text>
</g>
<!-- Node1&#45;&gt;Node6 -->
<g id="edge26" class="edge"><title>Node1&#45;&gt;Node6</title>
<path fill="none" stroke="midnightblue" d="M1083.61,-192.786C1084.55,-172.31 1088.83,-143.698 1104,-124 1115.74,-108.747 1134.07,-98.2556 1151.05,-91.2661"/>
<polygon fill="midnightblue" stroke="midnightblue" points="1152.73,-94.3722 1160.84,-87.546 1150.24,-87.8294 1152.73,-94.3722"/>
</g>
<!-- Node7 -->
<g id="node7" class="node"><title>Node7</title>
<g id="a_node7"><a xlink:href="../../d1/daf/HuffmanCodec_8h.html" target="_top" xlink:title="Implementation of a Huffman codec. ">
<polygon fill="none" stroke="black" points="326.5,-130.5 326.5,-149.5 499.5,-149.5 499.5,-130.5 326.5,-130.5"/>
<text text-anchor="middle" x="413" y="-137.5" font-family="Helvetica,sans-Serif" font-size="10.00">DataCompression/HuffmanCodec.h</text>
</a>
</g>
</g>
<!-- Node1&#45;&gt;Node7 -->
<g id="edge6" class="edge"><title>Node1&#45;&gt;Node7</title>
<path fill="none" stroke="midnightblue" d="M1008.33,-209.317C881.982,-194.818 628.949,-165.781 497.161,-150.658"/>
<polygon fill="midnightblue" stroke="midnightblue" points="497.446,-147.168 487.112,-149.505 496.648,-154.122 497.446,-147.168"/>
</g>
<!-- Node24 -->
<g id="node24" class="node"><title>Node24</title>
<polygon fill="none" stroke="#bfbfbf" points="1112.5,-130.5 1112.5,-149.5 1153.5,-149.5 1153.5,-130.5 1112.5,-130.5"/>
<text text-anchor="middle" x="1133" y="-137.5" font-family="Helvetica,sans-Serif" font-size="10.00">bitset</text>
</g>
<!-- Node1&#45;&gt;Node24 -->
<g id="edge24" class="edge"><title>Node1&#45;&gt;Node24</title>
<path fill="none" stroke="midnightblue" d="M1100.04,-192.787C1107.24,-181.486 1115.54,-168.445 1122.01,-158.276"/>
<polygon fill="midnightblue" stroke="midnightblue" points="1125.14,-159.873 1127.55,-149.558 1119.23,-156.115 1125.14,-159.873"/>
</g>
<!-- Node25 -->
<g id="node25" class="node"><title>Node25</title>
<polygon fill="none" stroke="#bfbfbf" points="1172,-130.5 1172,-149.5 1280,-149.5 1280,-130.5 1172,-130.5"/>
<text text-anchor="middle" x="1226" y="-137.5" font-family="Helvetica,sans-Serif" font-size="10.00">boost/mpl/vector.hpp</text>
</g>
<!-- Node1&#45;&gt;Node25 -->
<g id="edge25" class="edge"><title>Node1&#45;&gt;Node25</title>
<path fill="none" stroke="midnightblue" d="M1130.5,-192.787C1154.13,-179.972 1181.89,-164.918 1201.37,-154.354"/>
<polygon fill="midnightblue" stroke="midnightblue" points="1203.1,-157.401 1210.22,-149.558 1199.76,-151.248 1203.1,-157.401"/>
</g>
<!-- Node3 -->
<g id="node3" class="node"><title>Node3</title>
<polygon fill="none" stroke="#bfbfbf" points="835.5,-68.5 835.5,-87.5 870.5,-87.5 870.5,-68.5 835.5,-68.5"/>
<text text-anchor="middle" x="853" y="-75.5" font-family="Helvetica,sans-Serif" font-size="10.00">map</text>
</g>
<!-- Node2&#45;&gt;Node3 -->
<g id="edge2" class="edge"><title>Node2&#45;&gt;Node3</title>
<path fill="none" stroke="midnightblue" d="M966.301,-124.933C940.018,-114.278 904.419,-99.8454 880.185,-90.0209"/>
<polygon fill="midnightblue" stroke="midnightblue" points="881.452,-86.7579 870.87,-86.2444 878.822,-93.2451 881.452,-86.7579"/>
</g>
<!-- Node4 -->
<g id="node4" class="node"><title>Node4</title>
<polygon fill="none" stroke="#bfbfbf" points="888.5,-68.5 888.5,-87.5 987.5,-87.5 987.5,-68.5 888.5,-68.5"/>
<text text-anchor="middle" x="938" y="-75.5" font-family="Helvetica,sans-Serif" font-size="10.00">boost/mpl/size.hpp</text>
</g>
<!-- Node2&#45;&gt;Node4 -->
<g id="edge3" class="edge"><title>Node2&#45;&gt;Node4</title>
<path fill="none" stroke="midnightblue" d="M986.07,-124.781C976.632,-115.792 964.42,-104.162 954.667,-94.8731"/>
<polygon fill="midnightblue" stroke="midnightblue" points="956.822,-92.0926 947.167,-87.7305 951.995,-97.1616 956.822,-92.0926"/>
</g>
<!-- Node5 -->
<g id="node5" class="node"><title>Node5</title>
<polygon fill="none" stroke="#bfbfbf" points="1006,-68.5 1006,-87.5 1122,-87.5 1122,-68.5 1006,-68.5"/>
<text text-anchor="middle" x="1064" y="-75.5" font-family="Helvetica,sans-Serif" font-size="10.00">boost/mpl/range_c.hpp</text>
</g>
<!-- Node2&#45;&gt;Node5 -->
<g id="edge4" class="edge"><title>Node2&#45;&gt;Node5</title>
<path fill="none" stroke="midnightblue" d="M1015.93,-124.781C1025.37,-115.792 1037.58,-104.162 1047.33,-94.8731"/>
<polygon fill="midnightblue" stroke="midnightblue" points="1050.01,-97.1616 1054.83,-87.7305 1045.18,-92.0926 1050.01,-97.1616"/>
</g>
<!-- Node2&#45;&gt;Node6 -->
<g id="edge5" class="edge"><title>Node2&#45;&gt;Node6</title>
<path fill="none" stroke="midnightblue" d="M1046.02,-124.933C1079.52,-114.462 1124.7,-100.345 1156.09,-90.5358"/>
<polygon fill="midnightblue" stroke="midnightblue" points="1157.26,-93.8362 1165.76,-87.5127 1155.17,-87.1548 1157.26,-93.8362"/>
</g>
<!-- Node7&#45;&gt;Node3 -->
<g id="edge10" class="edge"><title>Node7&#45;&gt;Node3</title>
<path fill="none" stroke="midnightblue" d="M499.683,-133.334C581.549,-126.836 707.708,-113.862 825.51,-87.6587"/>
<polygon fill="midnightblue" stroke="midnightblue" points="826.442,-91.0363 835.424,-85.4172 824.898,-84.2087 826.442,-91.0363"/>
</g>
<!-- Node8 -->
<g id="node8" class="node"><title>Node8</title>
<polygon fill="none" stroke="#bfbfbf" points="0,-68.5 0,-87.5 46,-87.5 46,-68.5 0,-68.5"/>
<text text-anchor="middle" x="23" y="-75.5" font-family="Helvetica,sans-Serif" font-size="10.00">cstdint</text>
</g>
<!-- Node7&#45;&gt;Node8 -->
<g id="edge7" class="edge"><title>Node7&#45;&gt;Node8</title>
<path fill="none" stroke="midnightblue" d="M331.061,-130.46C260.497,-122.388 155.841,-108.705 56.2597,-88.0357"/>
<polygon fill="midnightblue" stroke="midnightblue" points="56.8362,-84.5804 46.33,-85.9475 55.3956,-91.4306 56.8362,-84.5804"/>
</g>
<!-- Node9 -->
<g id="node9" class="node"><title>Node9</title>
<polygon fill="none" stroke="#bfbfbf" points="64,-68.5 64,-87.5 108,-87.5 108,-68.5 64,-68.5"/>
<text text-anchor="middle" x="86" y="-75.5" font-family="Helvetica,sans-Serif" font-size="10.00">cerrno</text>
</g>
<!-- Node7&#45;&gt;Node9 -->
<g id="edge8" class="edge"><title>Node7&#45;&gt;Node9</title>
<path fill="none" stroke="midnightblue" d="M351.66,-130.48C293.75,-121.974 204.349,-107.651 118.215,-88.0763"/>
<polygon fill="midnightblue" stroke="midnightblue" points="118.803,-84.6202 108.273,-85.7897 117.234,-91.4421 118.803,-84.6202"/>
</g>
<!-- Node10 -->
<g id="node10" class="node"><title>Node10</title>
<polygon fill="none" stroke="#bfbfbf" points="126,-68.5 126,-87.5 156,-87.5 156,-68.5 126,-68.5"/>
<text text-anchor="middle" x="141" y="-75.5" font-family="Helvetica,sans-Serif" font-size="10.00">set</text>
</g>
<!-- Node7&#45;&gt;Node10 -->
<g id="edge9" class="edge"><title>Node7&#45;&gt;Node10</title>
<path fill="none" stroke="midnightblue" d="M359.199,-130.432C310.741,-122.156 237.512,-108.262 165.768,-87.8626"/>
<polygon fill="midnightblue" stroke="midnightblue" points="166.694,-84.4872 156.115,-85.0756 164.752,-91.2124 166.694,-84.4872"/>
</g>
<!-- Node11 -->
<g id="node11" class="node"><title>Node11</title>
<polygon fill="none" stroke="#bfbfbf" points="174,-68.5 174,-87.5 218,-87.5 218,-68.5 174,-68.5"/>
<text text-anchor="middle" x="196" y="-75.5" font-family="Helvetica,sans-Serif" font-size="10.00">vector</text>
</g>
<!-- Node7&#45;&gt;Node11 -->
<g id="edge11" class="edge"><title>Node7&#45;&gt;Node11</title>
<path fill="none" stroke="midnightblue" d="M381.366,-130.481C346.276,-120.997 287.729,-105.073 227.988,-88.2493"/>
<polygon fill="midnightblue" stroke="midnightblue" points="228.579,-84.7792 218.004,-85.4322 226.678,-91.5162 228.579,-84.7792"/>
</g>
<!-- Node12 -->
<g id="node12" class="node"><title>Node12</title>
<polygon fill="none" stroke="#bfbfbf" points="236,-68.5 236,-87.5 288,-87.5 288,-68.5 236,-68.5"/>
<text text-anchor="middle" x="262" y="-75.5" font-family="Helvetica,sans-Serif" font-size="10.00">memory</text>
</g>
<!-- Node7&#45;&gt;Node12 -->
<g id="edge12" class="edge"><title>Node7&#45;&gt;Node12</title>
<path fill="none" stroke="midnightblue" d="M391.365,-130.403C365.576,-120.156 322.289,-102.956 292.96,-91.3021"/>
<polygon fill="midnightblue" stroke="midnightblue" points="294.18,-88.0207 283.594,-87.5806 291.595,-94.526 294.18,-88.0207"/>
</g>
<!-- Node13 -->
<g id="node13" class="node"><title>Node13</title>
<polygon fill="none" stroke="#bfbfbf" points="306.5,-68.5 306.5,-87.5 365.5,-87.5 365.5,-68.5 306.5,-68.5"/>
<text text-anchor="middle" x="336" y="-75.5" font-family="Helvetica,sans-Serif" font-size="10.00">exception</text>
</g>
<!-- Node7&#45;&gt;Node13 -->
<g id="edge13" class="edge"><title>Node7&#45;&gt;Node13</title>
<path fill="none" stroke="midnightblue" d="M401.968,-130.403C389.732,-120.869 369.771,-105.315 355.007,-93.8106"/>
<polygon fill="midnightblue" stroke="midnightblue" points="357.051,-90.9663 347.012,-87.5806 352.748,-96.4879 357.051,-90.9663"/>
</g>
<!-- Node14 -->
<g id="node14" class="node"><title>Node14</title>
<polygon fill="none" stroke="#bfbfbf" points="383.5,-68.5 383.5,-87.5 442.5,-87.5 442.5,-68.5 383.5,-68.5"/>
<text text-anchor="middle" x="413" y="-75.5" font-family="Helvetica,sans-Serif" font-size="10.00">stdexcept</text>
</g>
<!-- Node7&#45;&gt;Node14 -->
<g id="edge14" class="edge"><title>Node7&#45;&gt;Node14</title>
<path fill="none" stroke="midnightblue" d="M413,-130.403C413,-121.938 413,-108.728 413,-97.8199"/>
<polygon fill="midnightblue" stroke="midnightblue" points="416.5,-97.5806 413,-87.5806 409.5,-97.5806 416.5,-97.5806"/>
</g>
<!-- Node15 -->
<g id="node15" class="node"><title>Node15</title>
<polygon fill="none" stroke="#bfbfbf" points="461,-68.5 461,-87.5 515,-87.5 515,-68.5 461,-68.5"/>
<text text-anchor="middle" x="488" y="-75.5" font-family="Helvetica,sans-Serif" font-size="10.00">iostream</text>
</g>
<!-- Node7&#45;&gt;Node15 -->
<g id="edge15" class="edge"><title>Node7&#45;&gt;Node15</title>
<path fill="none" stroke="midnightblue" d="M423.746,-130.403C435.553,-120.958 454.743,-105.606 469.082,-94.1342"/>
<polygon fill="midnightblue" stroke="midnightblue" points="471.652,-96.5606 477.274,-87.5806 467.279,-91.0945 471.652,-96.5606"/>
</g>
<!-- Node16 -->
<g id="node16" class="node"><title>Node16</title>
<polygon fill="none" stroke="#bfbfbf" points="533,-68.5 533,-87.5 583,-87.5 583,-68.5 533,-68.5"/>
<text text-anchor="middle" x="558" y="-75.5" font-family="Helvetica,sans-Serif" font-size="10.00">iomanip</text>
</g>
<!-- Node7&#45;&gt;Node16 -->
<g id="edge16" class="edge"><title>Node7&#45;&gt;Node16</title>
<path fill="none" stroke="midnightblue" d="M433.775,-130.403C458.432,-120.2 499.745,-103.105 527.902,-91.4544"/>
<polygon fill="midnightblue" stroke="midnightblue" points="529.362,-94.6382 537.264,-87.5806 526.685,-88.1701 529.362,-94.6382"/>
</g>
<!-- Node17 -->
<g id="node17" class="node"><title>Node17</title>
<polygon fill="none" stroke="#bfbfbf" points="601,-68.5 601,-87.5 653,-87.5 653,-68.5 601,-68.5"/>
<text text-anchor="middle" x="627" y="-75.5" font-family="Helvetica,sans-Serif" font-size="10.00">sstream</text>
</g>
<!-- Node7&#45;&gt;Node17 -->
<g id="edge17" class="edge"><title>Node7&#45;&gt;Node17</title>
<path fill="none" stroke="midnightblue" d="M443.661,-130.403C482.632,-119.477 549.792,-100.647 591.109,-89.063"/>
<polygon fill="midnightblue" stroke="midnightblue" points="592.087,-92.4237 600.771,-86.3539 590.198,-85.6836 592.087,-92.4237"/>
</g>
<!-- Node18 -->
<g id="node18" class="node"><title>Node18</title>
<g id="a_node18"><a xlink:href="../../dd/ded/CompStream_8h.html" target="_top" xlink:title="Implementation of iostreams with compression filter. ">
<polygon fill="none" stroke="black" points="671,-68.5 671,-87.5 817,-87.5 817,-68.5 671,-68.5"/>
<text text-anchor="middle" x="744" y="-75.5" font-family="Helvetica,sans-Serif" font-size="10.00">CommonUtils/CompStream.h</text>
</a>
</g>
</g>
<!-- Node7&#45;&gt;Node18 -->
<g id="edge18" class="edge"><title>Node7&#45;&gt;Node18</title>
<path fill="none" stroke="midnightblue" d="M460.073,-130.467C519.878,-119.626 623.009,-100.932 687.144,-89.3062"/>
<polygon fill="midnightblue" stroke="midnightblue" points="687.874,-92.731 697.09,-87.5034 686.626,-85.8432 687.874,-92.731"/>
</g>
<!-- Node19 -->
<g id="node19" class="node"><title>Node19</title>
<polygon fill="none" stroke="#bfbfbf" points="582.5,-6.5 582.5,-25.5 631.5,-25.5 631.5,-6.5 582.5,-6.5"/>
<text text-anchor="middle" x="607" y="-13.5" font-family="Helvetica,sans-Serif" font-size="10.00">istream</text>
</g>
<!-- Node18&#45;&gt;Node19 -->
<g id="edge19" class="edge"><title>Node18&#45;&gt;Node19</title>
<path fill="none" stroke="midnightblue" d="M724.245,-68.3942C703.504,-59.3529 669.946,-44.7082 641,-32 639.228,-31.2219 637.404,-30.4202 635.565,-29.6111"/>
<polygon fill="midnightblue" stroke="midnightblue" points="636.975,-26.4079 626.413,-25.5789 634.153,-32.8137 636.975,-26.4079"/>
</g>
<!-- Node20 -->
<g id="node20" class="node"><title>Node20</title>
<polygon fill="none" stroke="#bfbfbf" points="650,-6.5 650,-25.5 700,-25.5 700,-6.5 650,-6.5"/>
<text text-anchor="middle" x="675" y="-13.5" font-family="Helvetica,sans-Serif" font-size="10.00">fstream</text>
</g>
<!-- Node18&#45;&gt;Node20 -->
<g id="edge20" class="edge"><title>Node18&#45;&gt;Node20</title>
<path fill="none" stroke="midnightblue" d="M734.114,-68.4035C723.354,-59.047 705.929,-43.8948 692.779,-32.4599"/>
<polygon fill="midnightblue" stroke="midnightblue" points="694.71,-29.5013 684.868,-25.5806 690.117,-34.7835 694.71,-29.5013"/>
</g>
<!-- Node21 -->
<g id="node21" class="node"><title>Node21</title>
<polygon fill="none" stroke="#bfbfbf" points="718,-6.5 718,-25.5 770,-25.5 770,-6.5 718,-6.5"/>
<text text-anchor="middle" x="744" y="-13.5" font-family="Helvetica,sans-Serif" font-size="10.00">ostream</text>
</g>
<!-- Node18&#45;&gt;Node21 -->
<g id="edge21" class="edge"><title>Node18&#45;&gt;Node21</title>
<path fill="none" stroke="midnightblue" d="M744,-68.4035C744,-59.9381 744,-46.7283 744,-35.8199"/>
<polygon fill="midnightblue" stroke="midnightblue" points="747.5,-35.5806 744,-25.5806 740.5,-35.5806 747.5,-35.5806"/>
</g>
<!-- Node22 -->
<g id="node22" class="node"><title>Node22</title>
<polygon fill="none" stroke="#bfbfbf" points="788.5,-6.5 788.5,-25.5 829.5,-25.5 829.5,-6.5 788.5,-6.5"/>
<text text-anchor="middle" x="809" y="-13.5" font-family="Helvetica,sans-Serif" font-size="10.00">string</text>
</g>
<!-- Node18&#45;&gt;Node22 -->
<g id="edge22" class="edge"><title>Node18&#45;&gt;Node22</title>
<path fill="none" stroke="midnightblue" d="M753.313,-68.4035C763.449,-59.047 779.864,-43.8948 792.252,-32.4599"/>
<polygon fill="midnightblue" stroke="midnightblue" points="794.73,-34.9352 799.704,-25.5806 789.982,-29.7916 794.73,-34.9352"/>
</g>
<!-- Node23 -->
<g id="node23" class="node"><title>Node23</title>
<polygon fill="none" stroke="#bfbfbf" points="847.5,-1 847.5,-31 968.5,-31 968.5,-1 847.5,-1"/>
<text text-anchor="start" x="855.5" y="-19" font-family="Helvetica,sans-Serif" font-size="10.00">boost/iostreams/filtering</text>
<text text-anchor="middle" x="908" y="-8" font-family="Helvetica,sans-Serif" font-size="10.00">_streambuf.hpp</text>
</g>
<!-- Node18&#45;&gt;Node23 -->
<g id="edge23" class="edge"><title>Node18&#45;&gt;Node23</title>
<path fill="none" stroke="midnightblue" d="M767.497,-68.4035C791.553,-59.6025 829.625,-45.6737 860.074,-34.534"/>
<polygon fill="midnightblue" stroke="midnightblue" points="861.475,-37.7481 869.664,-31.0253 859.07,-31.1743 861.475,-37.7481"/>
</g>
</g>
</svg>
        <g id="navigator" transform="translate(0 0)" fill="#404254">
                <rect fill="#f2f5e9" fill-opacity="0.5" stroke="#606060" stroke-width=".5" x="0" y="0" width="60" height="60"/>
                <use id="zoomplus" xlink:href="#zoomPlus" x="17" y="9" onmousedown="handleZoom(evt,'in')"/>
                <use id="zoomminus" xlink:href="#zoomMin" x="42" y="9" onmousedown="handleZoom(evt,'out')"/>
                <use id="reset" xlink:href="#resetDef" x="30" y="36" onmousedown="handleReset()"/>
                <g id="arrowUp" xlink:href="#dirArrow" transform="translate(30 24)" onmousedown="handlePan(0,-1)">
                  <use xlink:href="#rim" fill="#404040">
                        <set attributeName="fill" to="#808080" begin="arrowUp.mouseover" end="arrowUp.mouseout"/>
                  </use>
                  <path fill="none" stroke="white" stroke-width="1.5" d="M0,-3.0v7 M-2.5,-0.5L0,-3.0L2.5,-0.5"/>
                </g>
                <g id="arrowRight" xlink:href="#dirArrow" transform="rotate(90) translate(36 -43)" onmousedown="handlePan(1,0)">
                  <use xlink:href="#rim" fill="#404040">
                        <set attributeName="fill" to="#808080" begin="arrowRight.mouseover" end="arrowRight.mouseout"/>
                  </use>
                  <path fill="none" stroke="white" stroke-width="1.5" d="M0,-3.0v7 M-2.5,-0.5L0,-3.0L2.5,-0.5"/>
                </g>
                <g id="arrowDown" xlink:href="#dirArrow" transform="rotate(180) translate(-30 -48)" onmousedown="handlePan(0,1)">
                  <use xlink:href="#rim" fill="#404040">
                        <set attributeName="fill" to="#808080" begin="arrowDown.mouseover" end="arrowDown.mouseout"/>
                  </use>
                  <path fill="none" stroke="white" stroke-width="1.5" d="M0,-3.0v7 M-2.5,-0.5L0,-3.0L2.5,-0.5"/>
                </g>
                <g id="arrowLeft" xlink:href="#dirArrow" transform="rotate(270) translate(-36 17)" onmousedown="handlePan(-1,0)">
                  <use xlink:href="#rim" fill="#404040">
                        <set attributeName="fill" to="#808080" begin="arrowLeft.mouseover" end="arrowLeft.mouseout"/>
                  </use>
                  <path fill="none" stroke="white" stroke-width="1.5" d="M0,-3.0v7 M-2.5,-0.5L0,-3.0L2.5,-0.5"/>
                </g>
        </g>
        <svg viewBox="0 0 15 15" width="100%" height="30px" preserveAspectRatio="xMaxYMin meet">
         <g id="arrow_out" transform="scale(0.3 0.3)">
          <a xlink:href="tpccluster__parameter__model_8h__incl_org.svg" target="_base">
           <rect id="button" ry="5" rx="5" y="6" x="6" height="38" width="38"
                fill="#f2f5e9" fill-opacity="0.5" stroke="#606060" stroke-width="1.0"/>
           <path id="arrow"
             d="M 11.500037,31.436501 C 11.940474,20.09759 22.043105,11.32322 32.158766,21.979434 L 37.068811,17.246167 C 37.068811,17.246167 37.088388,32 37.088388,32 L 22.160133,31.978069 C 22.160133,31.978069 26.997745,27.140456 26.997745,27.140456 C 18.528582,18.264221 13.291696,25.230495 11.500037,31.436501 z"
             style="fill:#404040;"/>
          </a>
         </g>
        </svg>
</svg>
