<?xml version="1.0" encoding="UTF-8" standalone="no"?>
<!DOCTYPE svg PUBLIC "-//W3C//DTD SVG 1.1//EN"
 "http://www.w3.org/Graphics/SVG/1.1/DTD/svg11.dtd">
<!-- Generated by graphviz version 2.36.0 (20140111.2315)
 -->
<!-- Title: o2::framework::DeviceInfo Pages: 1 -->
<!--zoomable 344 -->
<svg id="main" version="1.1" xmlns="http://www.w3.org/2000/svg" xmlns:xlink="http://www.w3.org/1999/xlink" xml:space="preserve" onload="init(evt)">
<style type="text/css"><![CDATA[
.edge:hover path { stroke: red; }
.edge:hover polygon { stroke: red; fill: red; }
]]></style>
<script type="text/javascript"><![CDATA[
var edges = document.getElementsByTagName('g');
if (edges && edges.length) {
  for (var i=0;i<edges.length;i++) {
    if (edges[i].id.substr(0,4)=='edge') {
      edges[i].setAttribute('class','edge');
    }
  }
}
]]></script>
        <defs>
                <circle id="rim" cx="0" cy="0" r="7"/>
                <circle id="rim2" cx="0" cy="0" r="3.5"/>
                <g id="zoomPlus">
                        <use xlink:href="#rim" fill="#404040">
                                <set attributeName="fill" to="#808080" begin="zoomplus.mouseover" end="zoomplus.mouseout"/>
                        </use>
                        <path d="M-4,0h8M0,-4v8" fill="none" stroke="white" stroke-width="1.5" pointer-events="none"/>
                </g>
                <g id="zoomMin">
                        <use xlink:href="#rim" fill="#404040">
                                <set attributeName="fill" to="#808080" begin="zoomminus.mouseover" end="zoomminus.mouseout"/>
                        </use>
                        <path d="M-4,0h8" fill="none" stroke="white" stroke-width="1.5" pointer-events="none"/>
                </g>
                <g id="dirArrow">
                        <path fill="none" stroke="white" stroke-width="1.5" d="M0,-3.0v7 M-2.5,-0.5L0,-3.0L2.5,-0.5"/>
                </g>
               <g id="resetDef">
                       <use xlink:href="#rim2" fill="#404040">
                               <set attributeName="fill" to="#808080" begin="reset.mouseover" end="reset.mouseout"/>
                       </use>
               </g>
        </defs>

<script type="text/javascript">
var viewWidth = 759;
var viewHeight = 344;
var sectionId = 'dynsection-0';
</script>
<script xlink:href="../../svgpan.js"/>
<svg id="graph" class="graph">
<g id="viewport">
<title>o2::framework::DeviceInfo</title>
<!-- Node1 -->
<g id="node1" class="node"><title>Node1</title>
<polygon fill="#bfbfbf" stroke="black" points="382.819,-0.5 382.819,-57.5 514.819,-57.5 514.819,-0.5 382.819,-0.5"/>
<text text-anchor="middle" x="448.819" y="-45.5" font-family="Helvetica,sans-Serif" font-size="10.00">o2::framework::DeviceInfo</text>
<polyline fill="none" stroke="black" points="382.819,-38.5 514.819,-38.5 "/>
<text text-anchor="middle" x="448.819" y="-26.5" font-family="Helvetica,sans-Serif" font-size="10.00"> </text>
<polyline fill="none" stroke="black" points="382.819,-19.5 514.819,-19.5 "/>
<text text-anchor="middle" x="448.819" y="-7.5" font-family="Helvetica,sans-Serif" font-size="10.00"> </text>
</g>
<!-- Node2 -->
<g id="node2" class="node"><title>Node2</title>
<g id="a_node2"><a xlink:href="../../d6/d43/structo2_1_1framework_1_1Metric2DViewIndex.html" target="_top" xlink:title="{o2::framework::Metric2DView\lIndex\n||+ isComplete()\l+ getUpdater()\l}">
<polygon fill="none" stroke="black" points="74.8194,-128.5 74.8194,-207.5 220.819,-207.5 220.819,-128.5 74.8194,-128.5"/>
<text text-anchor="start" x="82.8194" y="-195.5" font-family="Helvetica,sans-Serif" font-size="10.00">o2::framework::Metric2DView</text>
<text text-anchor="middle" x="147.819" y="-184.5" font-family="Helvetica,sans-Serif" font-size="10.00">Index</text>
<polyline fill="none" stroke="black" points="74.8194,-177.5 220.819,-177.5 "/>
<text text-anchor="middle" x="147.819" y="-165.5" font-family="Helvetica,sans-Serif" font-size="10.00"> </text>
<polyline fill="none" stroke="black" points="74.8194,-158.5 220.819,-158.5 "/>
<text text-anchor="start" x="82.8194" y="-146.5" font-family="Helvetica,sans-Serif" font-size="10.00">+ isComplete()</text>
<text text-anchor="start" x="82.8194" y="-135.5" font-family="Helvetica,sans-Serif" font-size="10.00">+ getUpdater()</text>
</a>
</g>
</g>
<!-- Node2&#45;&gt;Node1 -->
<g id="edge1" class="edge"><title>Node2&#45;&gt;Node1</title>
<path fill="none" stroke="#404040" d="M163.11,-128.378C172.434,-109.739 186.187,-88.7137 204.819,-76 231.4,-57.863 309.965,-45.2355 370.84,-37.86"/>
<polygon fill="none" stroke="#404040" points="370.841,-37.8599 376.331,-33.1849 382.758,-36.4548 377.268,-41.1299 370.841,-37.8599"/>
<text text-anchor="middle" x="257.319" y="-101.5" font-family="Helvetica,sans-Serif" font-size="10.00"> +queriesViewIndex</text>
<text text-anchor="middle" x="257.319" y="-90.5" font-family="Helvetica,sans-Serif" font-size="10.00">+variablesViewIndex</text>
<text text-anchor="middle" x="257.319" y="-79.5" font-family="Helvetica,sans-Serif" font-size="10.00">+dataRelayerViewIndex</text>
</g>
<!-- Node3 -->
<g id="node3" class="node"><title>Node3</title>
<g id="a_node3"><a xlink:href="../../d1/da0/classint.html" target="_top" xlink:title="{int\n||}">
<polygon fill="none" stroke="black" points="20.3194,-278.5 20.3194,-335.5 49.3194,-335.5 49.3194,-278.5 20.3194,-278.5"/>
<text text-anchor="middle" x="34.8194" y="-323.5" font-family="Helvetica,sans-Serif" font-size="10.00">int</text>
<polyline fill="none" stroke="black" points="20.3194,-316.5 49.3194,-316.5 "/>
<text text-anchor="middle" x="34.8194" y="-304.5" font-family="Helvetica,sans-Serif" font-size="10.00"> </text>
<polyline fill="none" stroke="black" points="20.3194,-297.5 49.3194,-297.5 "/>
<text text-anchor="middle" x="34.8194" y="-285.5" font-family="Helvetica,sans-Serif" font-size="10.00"> </text>
</a>
</g>
</g>
<!-- Node3&#45;&gt;Node1 -->
<g id="edge8" class="edge"><title>Node3&#45;&gt;Node1</title>
<path fill="none" stroke="#404040" d="M21.5887,-278.378C5.66525,-240.676 -15.1951,-172.694 16.8194,-128 57.4366,-71.2966 257.382,-45.7472 370.477,-35.6711"/>
<polygon fill="none" stroke="#404040" points="370.526,-35.6669 376.158,-31.1637 382.481,-34.6306 376.849,-39.1338 370.526,-35.6669"/>
<text text-anchor="middle" x="41.3194" y="-171" font-family="Helvetica,sans-Serif" font-size="10.00"> +unprinted</text>
<text text-anchor="middle" x="41.3194" y="-160" font-family="Helvetica,sans-Serif" font-size="10.00">+lastError</text>
</g>
<!-- Node3&#45;&gt;Node2 -->
<g id="edge2" class="edge"><title>Node3&#45;&gt;Node2</title>
<path fill="none" stroke="#404040" d="M49.3609,-288.37C64.2134,-270.363 87.9281,-241.612 108.362,-216.838"/>
<polygon fill="none" stroke="#404040" points="108.372,-216.826 109.104,-209.652 116.007,-207.569 115.275,-214.743 108.372,-216.826"/>
<text text-anchor="middle" x="114.319" y="-251.5" font-family="Helvetica,sans-Serif" font-size="10.00"> +w</text>
<text text-anchor="middle" x="114.319" y="-240.5" font-family="Helvetica,sans-Serif" font-size="10.00">+h</text>
<text text-anchor="middle" x="114.319" y="-229.5" font-family="Helvetica,sans-Serif" font-size="10.00">+prefix</text>
</g>
<!-- Node4 -->
<g id="node4" class="node"><title>Node4</title>
<polygon fill="none" stroke="#bfbfbf" points="94.3194,-278.5 94.3194,-335.5 201.319,-335.5 201.319,-278.5 94.3194,-278.5"/>
<text text-anchor="middle" x="147.819" y="-323.5" font-family="Helvetica,sans-Serif" font-size="10.00">vector&lt; std::size_t &gt;</text>
<polyline fill="none" stroke="#bfbfbf" points="94.3194,-316.5 201.319,-316.5 "/>
<text text-anchor="middle" x="147.819" y="-304.5" font-family="Helvetica,sans-Serif" font-size="10.00"> </text>
<polyline fill="none" stroke="#bfbfbf" points="94.3194,-297.5 201.319,-297.5 "/>
<text text-anchor="middle" x="147.819" y="-285.5" font-family="Helvetica,sans-Serif" font-size="10.00"> </text>
</g>
<!-- Node4&#45;&gt;Node2 -->
<g id="edge3" class="edge"><title>Node4&#45;&gt;Node2</title>
<path fill="none" stroke="#404040" d="M147.819,-278.276C147.819,-261.441 147.819,-239.441 147.819,-219.596"/>
<polygon fill="none" stroke="#404040" points="147.82,-219.584 143.819,-213.584 147.819,-207.584 151.819,-213.584 147.82,-219.584"/>
<text text-anchor="middle" x="169.319" y="-240.5" font-family="Helvetica,sans-Serif" font-size="10.00"> +indexes</text>
</g>
<!-- Node5 -->
<g id="node5" class="node"><title>Node5</title>
<polygon fill="none" stroke="#bfbfbf" points="239.319,-128.5 239.319,-207.5 354.319,-207.5 354.319,-128.5 239.319,-128.5"/>
<text text-anchor="start" x="247.319" y="-195.5" font-family="Helvetica,sans-Serif" font-size="10.00">vector&lt; o2::framework</text>
<text text-anchor="start" x="247.319" y="-184.5" font-family="Helvetica,sans-Serif" font-size="10.00">::LogParsingHelpers::</text>
<text text-anchor="middle" x="296.819" y="-173.5" font-family="Helvetica,sans-Serif" font-size="10.00">LogLevel &gt;</text>
<polyline fill="none" stroke="#bfbfbf" points="239.319,-166.5 354.319,-166.5 "/>
<text text-anchor="middle" x="296.819" y="-154.5" font-family="Helvetica,sans-Serif" font-size="10.00"> </text>
<polyline fill="none" stroke="#bfbfbf" points="239.319,-147.5 354.319,-147.5 "/>
<text text-anchor="middle" x="296.819" y="-135.5" font-family="Helvetica,sans-Serif" font-size="10.00"> </text>
</g>
<!-- Node5&#45;&gt;Node1 -->
<g id="edge4" class="edge"><title>Node5&#45;&gt;Node1</title>
<path fill="none" stroke="#404040" d="M306.135,-128.111C312.09,-110.308 321.47,-90.0895 335.819,-76 345.974,-66.0295 358.582,-58.1241 371.656,-51.8865"/>
<polygon fill="none" stroke="#404040" points="371.719,-51.859 375.602,-45.7829 382.704,-47.0305 378.821,-53.1066 371.719,-51.859"/>
<text text-anchor="middle" x="366.819" y="-90.5" font-family="Helvetica,sans-Serif" font-size="10.00"> +historyLevel</text>
</g>
<!-- Node6 -->
<g id="node6" class="node"><title>Node6</title>
<polygon fill="none" stroke="#bfbfbf" points="371.819,-139.5 371.819,-196.5 427.819,-196.5 427.819,-139.5 371.819,-139.5"/>
<text text-anchor="middle" x="399.819" y="-184.5" font-family="Helvetica,sans-Serif" font-size="10.00">LogLevel</text>
<polyline fill="none" stroke="#bfbfbf" points="371.819,-177.5 427.819,-177.5 "/>
<text text-anchor="middle" x="399.819" y="-165.5" font-family="Helvetica,sans-Serif" font-size="10.00"> </text>
<polyline fill="none" stroke="#bfbfbf" points="371.819,-158.5 427.819,-158.5 "/>
<text text-anchor="middle" x="399.819" y="-146.5" font-family="Helvetica,sans-Serif" font-size="10.00"> </text>
</g>
<!-- Node6&#45;&gt;Node1 -->
<g id="edge5" class="edge"><title>Node6&#45;&gt;Node1</title>
<path fill="none" stroke="#404040" d="M398.714,-139.257C398.954,-120.657 401.213,-96.0014 409.819,-76 411.032,-73.1809 412.479,-70.4042 414.09,-67.6973"/>
<polygon fill="none" stroke="#404040" points="414.185,-67.5584 414.278,-60.3479 420.969,-57.6601 420.876,-64.8706 414.185,-67.5584"/>
<text text-anchor="middle" x="443.319" y="-90.5" font-family="Helvetica,sans-Serif" font-size="10.00"> +maxLogLevel</text>
</g>
<!-- Node7 -->
<g id="node7" class="node"><title>Node7</title>
<polygon fill="none" stroke="#bfbfbf" points="446.319,-139.5 446.319,-196.5 551.319,-196.5 551.319,-139.5 446.319,-139.5"/>
<text text-anchor="middle" x="498.819" y="-184.5" font-family="Helvetica,sans-Serif" font-size="10.00">vector&lt; std::string &gt;</text>
<polyline fill="none" stroke="#bfbfbf" points="446.319,-177.5 551.319,-177.5 "/>
<text text-anchor="middle" x="498.819" y="-165.5" font-family="Helvetica,sans-Serif" font-size="10.00"> </text>
<polyline fill="none" stroke="#bfbfbf" points="446.319,-158.5 551.319,-158.5 "/>
<text text-anchor="middle" x="498.819" y="-146.5" font-family="Helvetica,sans-Serif" font-size="10.00"> </text>
</g>
<!-- Node7&#45;&gt;Node1 -->
<g id="edge6" class="edge"><title>Node7&#45;&gt;Node1</title>
<path fill="none" stroke="#404040" d="M494.416,-139.226C490.946,-120.834 485.264,-96.4284 476.819,-76 475.804,-73.543 474.668,-71.0642 473.452,-68.5988"/>
<polygon fill="none" stroke="#404040" points="473.423,-68.5452 467.053,-65.1646 467.724,-57.9847 474.094,-61.3654 473.423,-68.5452"/>
<text text-anchor="middle" x="507.319" y="-90.5" font-family="Helvetica,sans-Serif" font-size="10.00"> +history</text>
</g>
<!-- Node8 -->
<g id="node8" class="node"><title>Node8</title>
<g id="a_node8"><a xlink:href="../../dd/de2/classsize__t.html" target="_top" xlink:title="{size_t\n||}">
<polygon fill="none" stroke="black" points="569.319,-139.5 569.319,-196.5 612.319,-196.5 612.319,-139.5 569.319,-139.5"/>
<text text-anchor="middle" x="590.819" y="-184.5" font-family="Helvetica,sans-Serif" font-size="10.00">size_t</text>
<polyline fill="none" stroke="black" points="569.319,-177.5 612.319,-177.5 "/>
<text text-anchor="middle" x="590.819" y="-165.5" font-family="Helvetica,sans-Serif" font-size="10.00"> </text>
<polyline fill="none" stroke="black" points="569.319,-158.5 612.319,-158.5 "/>
<text text-anchor="middle" x="590.819" y="-146.5" font-family="Helvetica,sans-Serif" font-size="10.00"> </text>
</a>
</g>
</g>
<!-- Node8&#45;&gt;Node1 -->
<g id="edge7" class="edge"><title>Node8&#45;&gt;Node1</title>
<path fill="none" stroke="#404040" d="M577.198,-139.413C566.569,-119.938 550.351,-94.179 530.819,-76 526.378,-71.866 521.497,-67.9628 516.399,-64.3103"/>
<polygon fill="none" stroke="#404040" points="516.354,-64.2799 509.143,-64.2636 506.384,-57.6009 513.595,-57.6172 516.354,-64.2799"/>
<text text-anchor="middle" x="586.819" y="-96" font-family="Helvetica,sans-Serif" font-size="10.00"> +historySize</text>
<text text-anchor="middle" x="586.819" y="-85" font-family="Helvetica,sans-Serif" font-size="10.00">+historyPos</text>
</g>
<!-- Node9 -->
<g id="node9" class="node"><title>Node9</title>
<polygon fill="none" stroke="#bfbfbf" points="630.819,-139.5 630.819,-196.5 668.819,-196.5 668.819,-139.5 630.819,-139.5"/>
<text text-anchor="middle" x="649.819" y="-184.5" font-family="Helvetica,sans-Serif" font-size="10.00">pid_t</text>
<polyline fill="none" stroke="#bfbfbf" points="630.819,-177.5 668.819,-177.5 "/>
<text text-anchor="middle" x="649.819" y="-165.5" font-family="Helvetica,sans-Serif" font-size="10.00"> </text>
<polyline fill="none" stroke="#bfbfbf" points="630.819,-158.5 668.819,-158.5 "/>
<text text-anchor="middle" x="649.819" y="-146.5" font-family="Helvetica,sans-Serif" font-size="10.00"> </text>
</g>
<!-- Node9&#45;&gt;Node1 -->
<g id="edge9" class="edge"><title>Node9&#45;&gt;Node1</title>
<path fill="none" stroke="#404040" d="M647.61,-139.439C644.539,-119.196 637.223,-92.4604 619.819,-76 594.964,-52.4913 559.405,-40.7287 527.145,-34.9425"/>
<polygon fill="none" stroke="#404040" points="526.823,-34.8912 520.269,-37.8986 514.972,-33.0054 521.526,-29.998 526.823,-34.8912"/>
<text text-anchor="middle" x="651.819" y="-90.5" font-family="Helvetica,sans-Serif" font-size="10.00"> +pid</text>
</g>
<!-- Node10 -->
<g id="node10" class="node"><title>Node10</title>
<polygon fill="none" stroke="#bfbfbf" points="687.319,-139.5 687.319,-196.5 722.319,-196.5 722.319,-139.5 687.319,-139.5"/>
<text text-anchor="middle" x="704.819" y="-184.5" font-family="Helvetica,sans-Serif" font-size="10.00">bool</text>
<polyline fill="none" stroke="#bfbfbf" points="687.319,-177.5 722.319,-177.5 "/>
<text text-anchor="middle" x="704.819" y="-165.5" font-family="Helvetica,sans-Serif" font-size="10.00"> </text>
<polyline fill="none" stroke="#bfbfbf" points="687.319,-158.5 722.319,-158.5 "/>
<text text-anchor="middle" x="704.819" y="-146.5" font-family="Helvetica,sans-Serif" font-size="10.00"> </text>
</g>
<!-- Node10&#45;&gt;Node1 -->
<g id="edge10" class="edge"><title>Node10&#45;&gt;Node1</title>
<path fill="none" stroke="#404040" d="M700.367,-139.441C695.592,-118.924 685.94,-91.8325 666.819,-76 645.596,-58.4264 580.473,-46.1657 526.888,-38.7474"/>
<polygon fill="none" stroke="#404040" points="526.846,-38.7418 520.367,-41.909 514.952,-37.1472 521.43,-33.98 526.846,-38.7418"/>
<text text-anchor="middle" x="720.819" y="-96" font-family="Helvetica,sans-Serif" font-size="10.00"> +active</text>
<text text-anchor="middle" x="720.819" y="-85" font-family="Helvetica,sans-Serif" font-size="10.00">+readyToQuit</text>
</g>
</g>
</svg>
        <g id="navigator" transform="translate(0 0)" fill="#404254">
                <rect fill="#f2f5e9" fill-opacity="0.5" stroke="#606060" stroke-width=".5" x="0" y="0" width="60" height="60"/>
                <use id="zoomplus" xlink:href="#zoomPlus" x="17" y="9" onmousedown="handleZoom(evt,'in')"/>
                <use id="zoomminus" xlink:href="#zoomMin" x="42" y="9" onmousedown="handleZoom(evt,'out')"/>
                <use id="reset" xlink:href="#resetDef" x="30" y="36" onmousedown="handleReset()"/>
                <g id="arrowUp" xlink:href="#dirArrow" transform="translate(30 24)" onmousedown="handlePan(0,-1)">
                  <use xlink:href="#rim" fill="#404040">
                        <set attributeName="fill" to="#808080" begin="arrowUp.mouseover" end="arrowUp.mouseout"/>
                  </use>
                  <path fill="none" stroke="white" stroke-width="1.5" d="M0,-3.0v7 M-2.5,-0.5L0,-3.0L2.5,-0.5"/>
                </g>
                <g id="arrowRight" xlink:href="#dirArrow" transform="rotate(90) translate(36 -43)" onmousedown="handlePan(1,0)">
                  <use xlink:href="#rim" fill="#404040">
                        <set attributeName="fill" to="#808080" begin="arrowRight.mouseover" end="arrowRight.mouseout"/>
                  </use>
                  <path fill="none" stroke="white" stroke-width="1.5" d="M0,-3.0v7 M-2.5,-0.5L0,-3.0L2.5,-0.5"/>
                </g>
                <g id="arrowDown" xlink:href="#dirArrow" transform="rotate(180) translate(-30 -48)" onmousedown="handlePan(0,1)">
                  <use xlink:href="#rim" fill="#404040">
                        <set attributeName="fill" to="#808080" begin="arrowDown.mouseover" end="arrowDown.mouseout"/>
                  </use>
                  <path fill="none" stroke="white" stroke-width="1.5" d="M0,-3.0v7 M-2.5,-0.5L0,-3.0L2.5,-0.5"/>
                </g>
                <g id="arrowLeft" xlink:href="#dirArrow" transform="rotate(270) translate(-36 17)" onmousedown="handlePan(-1,0)">
                  <use xlink:href="#rim" fill="#404040">
                        <set attributeName="fill" to="#808080" begin="arrowLeft.mouseover" end="arrowLeft.mouseout"/>
                  </use>
                  <path fill="none" stroke="white" stroke-width="1.5" d="M0,-3.0v7 M-2.5,-0.5L0,-3.0L2.5,-0.5"/>
                </g>
        </g>
        <svg viewBox="0 0 15 15" width="100%" height="30px" preserveAspectRatio="xMaxYMin meet">
         <g id="arrow_out" transform="scale(0.3 0.3)">
          <a xlink:href="structo2_1_1framework_1_1DeviceInfo__coll__graph_org.svg" target="_base">
           <rect id="button" ry="5" rx="5" y="6" x="6" height="38" width="38"
                fill="#f2f5e9" fill-opacity="0.5" stroke="#606060" stroke-width="1.0"/>
           <path id="arrow"
             d="M 11.500037,31.436501 C 11.940474,20.09759 22.043105,11.32322 32.158766,21.979434 L 37.068811,17.246167 C 37.068811,17.246167 37.088388,32 37.088388,32 L 22.160133,31.978069 C 22.160133,31.978069 26.997745,27.140456 26.997745,27.140456 C 18.528582,18.264221 13.291696,25.230495 11.500037,31.436501 z"
             style="fill:#404040;"/>
          </a>
         </g>
        </svg>
</svg>
