<?xml version="1.0" encoding="UTF-8" standalone="no"?>
<!DOCTYPE svg PUBLIC "-//W3C//DTD SVG 1.1//EN"
 "http://www.w3.org/Graphics/SVG/1.1/DTD/svg11.dtd">
<!-- Generated by graphviz version 2.36.0 (20140111.2315)
 -->
<!-- Title: o2::framework::RootTreeWriter::BranchDef&lt; T, KeyType, KeyExtractor &gt; Pages: 1 -->
<svg width="550pt" height="294pt"
 viewBox="0.00 0.00 550.00 294.00" xmlns="http://www.w3.org/2000/svg" xmlns:xlink="http://www.w3.org/1999/xlink">
<g id="graph0" class="graph" transform="scale(1 1) rotate(0) translate(4 290)">
<title>o2::framework::RootTreeWriter::BranchDef&lt; T, KeyType, KeyExtractor &gt;</title>
<!-- Node1 -->
<g id="node1" class="node"><title>Node1</title>
<polygon fill="#bfbfbf" stroke="black" points="224,-1 224,-157 376,-157 376,-1 224,-1"/>
<text text-anchor="start" x="232" y="-145" font-family="Helvetica,sans-Serif" font-size="10.00">o2::framework::RootTreeWriter</text>
<text text-anchor="start" x="232" y="-134" font-family="Helvetica,sans-Serif" font-size="10.00">::BranchDef&lt; T, KeyType,</text>
<text text-anchor="middle" x="300" y="-123" font-family="Helvetica,sans-Serif" font-size="10.00"> KeyExtractor &gt;</text>
<polyline fill="none" stroke="black" points="224,-116 376,-116 "/>
<text text-anchor="middle" x="300" y="-104" font-family="Helvetica,sans-Serif" font-size="10.00"> </text>
<polyline fill="none" stroke="black" points="224,-97 376,-97 "/>
<text text-anchor="start" x="232" y="-85" font-family="Helvetica,sans-Serif" font-size="10.00">+ BranchDef()</text>
<text text-anchor="start" x="232" y="-74" font-family="Helvetica,sans-Serif" font-size="10.00">+ branchName()</text>
<text text-anchor="start" x="232" y="-63" font-family="Helvetica,sans-Serif" font-size="10.00">+ BranchDef()</text>
<text text-anchor="start" x="232" y="-52" font-family="Helvetica,sans-Serif" font-size="10.00">+ branchName()</text>
<text text-anchor="start" x="232" y="-41" font-family="Helvetica,sans-Serif" font-size="10.00">+ nofBranches()</text>
<text text-anchor="start" x="232" y="-30" font-family="Helvetica,sans-Serif" font-size="10.00">+ getIndex()</text>
<text text-anchor="start" x="232" y="-19" font-family="Helvetica,sans-Serif" font-size="10.00">+ getName()</text>
<text text-anchor="start" x="232" y="-8" font-family="Helvetica,sans-Serif" font-size="10.00">+ BranchDef()</text>
</g>
<!-- Node2 -->
<g id="node2" class="node"><title>Node2</title>
<polygon fill="none" stroke="#bfbfbf" points="-0.5,-212 -0.5,-280 110.5,-280 110.5,-212 -0.5,-212"/>
<text text-anchor="start" x="7.5" y="-268" font-family="Helvetica,sans-Serif" font-size="10.00">GLsizei const GLchar</text>
<text text-anchor="middle" x="55" y="-257" font-family="Helvetica,sans-Serif" font-size="10.00"> *const *</text>
<polyline fill="none" stroke="#bfbfbf" points="-0.5,-250 110.5,-250 "/>
<text text-anchor="middle" x="55" y="-238" font-family="Helvetica,sans-Serif" font-size="10.00"> </text>
<polyline fill="none" stroke="#bfbfbf" points="-0.5,-231 110.5,-231 "/>
<text text-anchor="middle" x="55" y="-219" font-family="Helvetica,sans-Serif" font-size="10.00"> </text>
</g>
<!-- Node2&#45;&gt;Node1 -->
<g id="edge1" class="edge"><title>Node2&#45;&gt;Node1</title>
<path fill="none" stroke="#404040" d="M101.626,-211.674C117.807,-200.241 136.124,-187.447 153,-176 172.441,-162.814 193.498,-148.867 213.438,-135.812"/>
<polygon fill="none" stroke="#404040" points="213.703,-135.639 216.538,-129.009 223.748,-129.075 220.913,-135.706 213.703,-135.639"/>
<text text-anchor="middle" x="185.5" y="-179.5" font-family="Helvetica,sans-Serif" font-size="10.00"> +branchName</text>
</g>
<!-- Node3 -->
<g id="node3" class="node"><title>Node3</title>
<polygon fill="none" stroke="#bfbfbf" points="128.5,-217.5 128.5,-274.5 229.5,-274.5 229.5,-217.5 128.5,-217.5"/>
<text text-anchor="middle" x="179" y="-262.5" font-family="Helvetica,sans-Serif" font-size="10.00">vector&lt; key_type &gt;</text>
<polyline fill="none" stroke="#bfbfbf" points="128.5,-255.5 229.5,-255.5 "/>
<text text-anchor="middle" x="179" y="-243.5" font-family="Helvetica,sans-Serif" font-size="10.00"> </text>
<polyline fill="none" stroke="#bfbfbf" points="128.5,-236.5 229.5,-236.5 "/>
<text text-anchor="middle" x="179" y="-224.5" font-family="Helvetica,sans-Serif" font-size="10.00"> </text>
</g>
<!-- Node3&#45;&gt;Node1 -->
<g id="edge2" class="edge"><title>Node3&#45;&gt;Node1</title>
<path fill="none" stroke="#404040" d="M199.253,-217.383C209.575,-203.307 222.757,-185.331 236.159,-167.056"/>
<polygon fill="none" stroke="#404040" points="236.294,-166.871 236.617,-159.667 243.391,-157.194 243.068,-164.398 236.294,-166.871"/>
<text text-anchor="middle" x="244.5" y="-179.5" font-family="Helvetica,sans-Serif" font-size="10.00"> +keys</text>
</g>
<!-- Node4 -->
<g id="node4" class="node"><title>Node4</title>
<polygon fill="none" stroke="#bfbfbf" points="248,-212 248,-280 352,-280 352,-212 248,-212"/>
<text text-anchor="start" x="256" y="-268" font-family="Helvetica,sans-Serif" font-size="10.00">function&lt; std::string</text>
<text text-anchor="middle" x="300" y="-257" font-family="Helvetica,sans-Serif" font-size="10.00">(std::string, size_t)&gt;</text>
<polyline fill="none" stroke="#bfbfbf" points="248,-250 352,-250 "/>
<text text-anchor="middle" x="300" y="-238" font-family="Helvetica,sans-Serif" font-size="10.00"> </text>
<polyline fill="none" stroke="#bfbfbf" points="248,-231 352,-231 "/>
<text text-anchor="middle" x="300" y="-219" font-family="Helvetica,sans-Serif" font-size="10.00"> </text>
</g>
<!-- Node4&#45;&gt;Node1 -->
<g id="edge3" class="edge"><title>Node4&#45;&gt;Node1</title>
<path fill="none" stroke="#404040" d="M300,-211.61C300,-199.201 300,-184.462 300,-169.414"/>
<polygon fill="none" stroke="#404040" points="300,-169.318 296,-163.318 300,-157.318 304,-163.318 300,-169.318"/>
<text text-anchor="middle" x="324.5" y="-179.5" font-family="Helvetica,sans-Serif" font-size="10.00"> +getName</text>
</g>
<!-- Node5 -->
<g id="node5" class="node"><title>Node5</title>
<polygon fill="none" stroke="#bfbfbf" points="370.5,-206.5 370.5,-285.5 481.5,-285.5 481.5,-206.5 370.5,-206.5"/>
<text text-anchor="start" x="378.5" y="-273.5" font-family="Helvetica,sans-Serif" font-size="10.00">function&lt; size_t(o2</text>
<text text-anchor="start" x="378.5" y="-262.5" font-family="Helvetica,sans-Serif" font-size="10.00">::framework::DataRef</text>
<text text-anchor="middle" x="426" y="-251.5" font-family="Helvetica,sans-Serif" font-size="10.00"> const &amp;)&gt;</text>
<polyline fill="none" stroke="#bfbfbf" points="370.5,-244.5 481.5,-244.5 "/>
<text text-anchor="middle" x="426" y="-232.5" font-family="Helvetica,sans-Serif" font-size="10.00"> </text>
<polyline fill="none" stroke="#bfbfbf" points="370.5,-225.5 481.5,-225.5 "/>
<text text-anchor="middle" x="426" y="-213.5" font-family="Helvetica,sans-Serif" font-size="10.00"> </text>
</g>
<!-- Node5&#45;&gt;Node1 -->
<g id="edge4" class="edge"><title>Node5&#45;&gt;Node1</title>
<path fill="none" stroke="#404040" d="M396.459,-206.315C387.298,-194.319 376.808,-180.582 366.197,-166.687"/>
<polygon fill="none" stroke="#404040" points="366.129,-166.598 359.309,-164.257 358.846,-157.061 365.667,-159.402 366.129,-166.598"/>
<text text-anchor="middle" x="405.5" y="-179.5" font-family="Helvetica,sans-Serif" font-size="10.00"> +getIndex</text>
</g>
<!-- Node6 -->
<g id="node6" class="node"><title>Node6</title>
<polygon fill="none" stroke="#bfbfbf" points="499.5,-217.5 499.5,-274.5 542.5,-274.5 542.5,-217.5 499.5,-217.5"/>
<text text-anchor="middle" x="521" y="-262.5" font-family="Helvetica,sans-Serif" font-size="10.00">size_t</text>
<polyline fill="none" stroke="#bfbfbf" points="499.5,-255.5 542.5,-255.5 "/>
<text text-anchor="middle" x="521" y="-243.5" font-family="Helvetica,sans-Serif" font-size="10.00"> </text>
<polyline fill="none" stroke="#bfbfbf" points="499.5,-236.5 542.5,-236.5 "/>
<text text-anchor="middle" x="521" y="-224.5" font-family="Helvetica,sans-Serif" font-size="10.00"> </text>
</g>
<!-- Node6&#45;&gt;Node1 -->
<g id="edge5" class="edge"><title>Node6&#45;&gt;Node1</title>
<path fill="none" stroke="#404040" d="M500.687,-217.185C497.309,-213.248 493.697,-209.391 490,-206 458.811,-177.386 420.526,-150.691 386.514,-129.305"/>
<polygon fill="none" stroke="#404040" points="386.302,-129.174 379.095,-129.406 376.108,-122.842 383.316,-122.61 386.302,-129.174"/>
<text text-anchor="middle" x="499" y="-179.5" font-family="Helvetica,sans-Serif" font-size="10.00"> +nofBranches</text>
</g>
</g>
</svg>
