<?xml version="1.0" encoding="UTF-8" standalone="no"?>
<!DOCTYPE svg PUBLIC "-//W3C//DTD SVG 1.1//EN"
 "http://www.w3.org/Graphics/SVG/1.1/DTD/svg11.dtd">
<!-- Generated by graphviz version 2.36.0 (20140111.2315)
 -->
<!-- Title: /home/travis/build/AliceO2Group/AliceO2/Detectors/ITSMFT/ITS/tracking/include/ITStracking/TrackerTraitsCPU.h Pages: 1 -->
<!--zoomable 532 -->
<svg id="main" version="1.1" xmlns="http://www.w3.org/2000/svg" xmlns:xlink="http://www.w3.org/1999/xlink" xml:space="preserve" onload="init(evt)">
<style type="text/css"><![CDATA[
.edge:hover path { stroke: red; }
.edge:hover polygon { stroke: red; fill: red; }
]]></style>
<script type="text/javascript"><![CDATA[
var edges = document.getElementsByTagName('g');
if (edges && edges.length) {
  for (var i=0;i<edges.length;i++) {
    if (edges[i].id.substr(0,4)=='edge') {
      edges[i].setAttribute('class','edge');
    }
  }
}
]]></script>
        <defs>
                <circle id="rim" cx="0" cy="0" r="7"/>
                <circle id="rim2" cx="0" cy="0" r="3.5"/>
                <g id="zoomPlus">
                        <use xlink:href="#rim" fill="#404040">
                                <set attributeName="fill" to="#808080" begin="zoomplus.mouseover" end="zoomplus.mouseout"/>
                        </use>
                        <path d="M-4,0h8M0,-4v8" fill="none" stroke="white" stroke-width="1.5" pointer-events="none"/>
                </g>
                <g id="zoomMin">
                        <use xlink:href="#rim" fill="#404040">
                                <set attributeName="fill" to="#808080" begin="zoomminus.mouseover" end="zoomminus.mouseout"/>
                        </use>
                        <path d="M-4,0h8" fill="none" stroke="white" stroke-width="1.5" pointer-events="none"/>
                </g>
                <g id="dirArrow">
                        <path fill="none" stroke="white" stroke-width="1.5" d="M0,-3.0v7 M-2.5,-0.5L0,-3.0L2.5,-0.5"/>
                </g>
               <g id="resetDef">
                       <use xlink:href="#rim2" fill="#404040">
                               <set attributeName="fill" to="#808080" begin="reset.mouseover" end="reset.mouseout"/>
                       </use>
               </g>
        </defs>

<script type="text/javascript">
var viewWidth = 1369;
var viewHeight = 532;
var sectionId = 'dynsection-0';
</script>
<script xlink:href="../../svgpan.js"/>
<svg id="graph" class="graph">
<g id="viewport">
<title>/home/travis/build/AliceO2Group/AliceO2/Detectors/ITSMFT/ITS/tracking/include/ITStracking/TrackerTraitsCPU.h</title>
<!-- Node1 -->
<g id="node1" class="node"><title>Node1</title>
<polygon fill="#bfbfbf" stroke="black" points="885.5,-460.5 885.5,-523.5 1026.5,-523.5 1026.5,-460.5 885.5,-460.5"/>
<text text-anchor="start" x="893.5" y="-511.5" font-family="Helvetica,sans-Serif" font-size="10.00">/home/travis/build</text>
<text text-anchor="start" x="893.5" y="-500.5" font-family="Helvetica,sans-Serif" font-size="10.00">/AliceO2Group/AliceO2</text>
<text text-anchor="start" x="893.5" y="-489.5" font-family="Helvetica,sans-Serif" font-size="10.00">/Detectors/ITSMFT/ITS</text>
<text text-anchor="start" x="893.5" y="-478.5" font-family="Helvetica,sans-Serif" font-size="10.00">/tracking/include/ITStracking</text>
<text text-anchor="middle" x="956" y="-467.5" font-family="Helvetica,sans-Serif" font-size="10.00">/TrackerTraitsCPU.h</text>
</g>
<!-- Node2 -->
<g id="node2" class="node"><title>Node2</title>
<polygon fill="none" stroke="#bfbfbf" points="513,-0.5 513,-19.5 551,-19.5 551,-0.5 513,-0.5"/>
<text text-anchor="middle" x="532" y="-7.5" font-family="Helvetica,sans-Serif" font-size="10.00">array</text>
</g>
<!-- Node1&#45;&gt;Node2 -->
<g id="edge1" class="edge"><title>Node1&#45;&gt;Node2</title>
<path fill="none" stroke="midnightblue" d="M1026.59,-485.276C1119.31,-476.558 1275.76,-457.344 1322,-424 1351.2,-402.941 1361,-389.003 1361,-353 1361,-353 1361,-353 1361,-121 1361,-38.5829 708.794,-15.8297 561.373,-11.7394"/>
<polygon fill="midnightblue" stroke="midnightblue" points="561.362,-8.2379 551.272,-11.4667 561.173,-15.2354 561.362,-8.2379"/>
</g>
<!-- Node3 -->
<g id="node3" class="node"><title>Node3</title>
<polygon fill="none" stroke="#bfbfbf" points="1005,-342.5 1005,-361.5 1051,-361.5 1051,-342.5 1005,-342.5"/>
<text text-anchor="middle" x="1028" y="-349.5" font-family="Helvetica,sans-Serif" font-size="10.00">chrono</text>
</g>
<!-- Node1&#45;&gt;Node3 -->
<g id="edge2" class="edge"><title>Node1&#45;&gt;Node3</title>
<path fill="none" stroke="midnightblue" d="M971.979,-460.373C986.35,-432.829 1006.96,-393.323 1018.76,-370.706"/>
<polygon fill="midnightblue" stroke="midnightblue" points="1021.99,-372.091 1023.51,-361.606 1015.78,-368.853 1021.99,-372.091"/>
</g>
<!-- Node4 -->
<g id="node4" class="node"><title>Node4</title>
<polygon fill="none" stroke="#bfbfbf" points="832,-112.5 832,-131.5 876,-131.5 876,-112.5 832,-112.5"/>
<text text-anchor="middle" x="854" y="-119.5" font-family="Helvetica,sans-Serif" font-size="10.00">cmath</text>
</g>
<!-- Node1&#45;&gt;Node4 -->
<g id="edge3" class="edge"><title>Node1&#45;&gt;Node4</title>
<path fill="none" stroke="midnightblue" d="M1026.79,-483.901C1135.2,-469.897 1324.04,-431.343 1266,-336 1180.25,-195.136 968.011,-143.333 886.553,-128.248"/>
<polygon fill="midnightblue" stroke="midnightblue" points="886.855,-124.746 876.395,-126.433 885.623,-131.637 886.855,-124.746"/>
</g>
<!-- Node5 -->
<g id="node5" class="node"><title>Node5</title>
<polygon fill="none" stroke="#bfbfbf" points="1069,-342.5 1069,-361.5 1119,-361.5 1119,-342.5 1069,-342.5"/>
<text text-anchor="middle" x="1094" y="-349.5" font-family="Helvetica,sans-Serif" font-size="10.00">fstream</text>
</g>
<!-- Node1&#45;&gt;Node5 -->
<g id="edge4" class="edge"><title>Node1&#45;&gt;Node5</title>
<path fill="none" stroke="midnightblue" d="M986.627,-460.373C1014.92,-432.085 1055.82,-391.179 1078.09,-368.91"/>
<polygon fill="midnightblue" stroke="midnightblue" points="1080.8,-371.152 1085.39,-361.606 1075.85,-366.203 1080.8,-371.152"/>
</g>
<!-- Node6 -->
<g id="node6" class="node"><title>Node6</title>
<polygon fill="none" stroke="#bfbfbf" points="1137,-342.5 1137,-361.5 1187,-361.5 1187,-342.5 1137,-342.5"/>
<text text-anchor="middle" x="1162" y="-349.5" font-family="Helvetica,sans-Serif" font-size="10.00">iomanip</text>
</g>
<!-- Node1&#45;&gt;Node6 -->
<g id="edge5" class="edge"><title>Node1&#45;&gt;Node6</title>
<path fill="none" stroke="midnightblue" d="M1001.72,-460.373C1045.06,-431.34 1108.23,-389.017 1140.82,-367.191"/>
<polygon fill="midnightblue" stroke="midnightblue" points="1142.79,-370.08 1149.15,-361.606 1138.9,-364.264 1142.79,-370.08"/>
</g>
<!-- Node7 -->
<g id="node7" class="node"><title>Node7</title>
<polygon fill="none" stroke="#bfbfbf" points="634.5,-280.5 634.5,-299.5 679.5,-299.5 679.5,-280.5 634.5,-280.5"/>
<text text-anchor="middle" x="657" y="-287.5" font-family="Helvetica,sans-Serif" font-size="10.00">iosfwd</text>
</g>
<!-- Node1&#45;&gt;Node7 -->
<g id="edge6" class="edge"><title>Node1&#45;&gt;Node7</title>
<path fill="none" stroke="midnightblue" d="M885.497,-478.665C821.152,-463.67 728.217,-431.966 675,-368 661.446,-351.708 657.693,-327.064 656.85,-310.066"/>
<polygon fill="midnightblue" stroke="midnightblue" points="660.342,-309.646 656.646,-299.717 653.344,-309.784 660.342,-309.646"/>
</g>
<!-- Node8 -->
<g id="node8" class="node"><title>Node8</title>
<polygon fill="none" stroke="#bfbfbf" points="1205,-342.5 1205,-361.5 1257,-361.5 1257,-342.5 1205,-342.5"/>
<text text-anchor="middle" x="1231" y="-349.5" font-family="Helvetica,sans-Serif" font-size="10.00">memory</text>
</g>
<!-- Node1&#45;&gt;Node8 -->
<g id="edge7" class="edge"><title>Node1&#45;&gt;Node8</title>
<path fill="none" stroke="midnightblue" d="M1017.03,-460.373C1075.75,-430.906 1161.76,-387.748 1204.64,-366.225"/>
<polygon fill="midnightblue" stroke="midnightblue" points="1206.48,-369.22 1213.85,-361.606 1203.34,-362.963 1206.48,-369.22"/>
</g>
<!-- Node9 -->
<g id="node9" class="node"><title>Node9</title>
<polygon fill="none" stroke="#bfbfbf" points="1016,-112.5 1016,-131.5 1056,-131.5 1056,-112.5 1016,-112.5"/>
<text text-anchor="middle" x="1036" y="-119.5" font-family="Helvetica,sans-Serif" font-size="10.00">utility</text>
</g>
<!-- Node1&#45;&gt;Node9 -->
<g id="edge8" class="edge"><title>Node1&#45;&gt;Node9</title>
<path fill="none" stroke="midnightblue" d="M1026.8,-485.481C1115.09,-477.221 1259.28,-458.762 1299,-424 1324.07,-402.065 1323,-386.31 1323,-353 1323,-353 1323,-353 1323,-233 1323,-178.453 1139.96,-140.874 1066.23,-127.95"/>
<polygon fill="midnightblue" stroke="midnightblue" points="1066.63,-124.467 1056.18,-126.223 1065.44,-131.366 1066.63,-124.467"/>
</g>
<!-- Node10 -->
<g id="node10" class="node"><title>Node10</title>
<g id="a_node10"><a xlink:href="../../d2/dee/TrackerTraits_8h.html" target="_top" xlink:title="ITStracking/TrackerTraits.h">
<polygon fill="none" stroke="black" points="837,-404.5 837,-423.5 973,-423.5 973,-404.5 837,-404.5"/>
<text text-anchor="middle" x="905" y="-411.5" font-family="Helvetica,sans-Serif" font-size="10.00">ITStracking/TrackerTraits.h</text>
</a>
</g>
</g>
<!-- Node1&#45;&gt;Node10 -->
<g id="edge9" class="edge"><title>Node1&#45;&gt;Node10</title>
<path fill="none" stroke="midnightblue" d="M935.256,-460.088C928.845,-450.533 922.017,-440.359 916.473,-432.097"/>
<polygon fill="midnightblue" stroke="midnightblue" points="919.329,-430.072 910.85,-423.718 913.516,-433.972 919.329,-430.072"/>
</g>
<!-- Node11 -->
<g id="node11" class="node"><title>Node11</title>
<g id="a_node11"><a xlink:href="../../d3/d59/Configuration_8h.html" target="_top" xlink:title="ITStracking/Configuration.h">
<polygon fill="none" stroke="black" points="710,-168.5 710,-187.5 846,-187.5 846,-168.5 710,-168.5"/>
<text text-anchor="middle" x="778" y="-175.5" font-family="Helvetica,sans-Serif" font-size="10.00">ITStracking/Configuration.h</text>
</a>
</g>
</g>
<!-- Node1&#45;&gt;Node11 -->
<g id="edge61" class="edge"><title>Node1&#45;&gt;Node11</title>
<path fill="none" stroke="midnightblue" d="M885.454,-482.227C833.966,-473.428 764.025,-456.341 710,-424 680.597,-406.399 676.317,-396.305 657,-368 633.541,-333.626 605.28,-316.648 625,-280 649.644,-234.203 705.16,-205.721 742.099,-191.108"/>
<polygon fill="midnightblue" stroke="midnightblue" points="743.421,-194.35 751.521,-187.521 740.93,-187.808 743.421,-194.35"/>
</g>
<!-- Node15 -->
<g id="node15" class="node"><title>Node15</title>
<g id="a_node15"><a xlink:href="../../df/d3d/Definitions_8h.html" target="_top" xlink:title="ITStracking/Definitions.h">
<polygon fill="none" stroke="black" points="36.5,-56.5 36.5,-75.5 161.5,-75.5 161.5,-56.5 36.5,-56.5"/>
<text text-anchor="middle" x="99" y="-63.5" font-family="Helvetica,sans-Serif" font-size="10.00">ITStracking/Definitions.h</text>
</a>
</g>
</g>
<!-- Node1&#45;&gt;Node15 -->
<g id="edge62" class="edge"><title>Node1&#45;&gt;Node15</title>
<path fill="none" stroke="midnightblue" d="M885.315,-488.236C664.148,-478.659 0,-442.453 0,-353 0,-353 0,-353 0,-177 0,-133.183 43.9362,-98.9282 73.2695,-80.9413"/>
<polygon fill="midnightblue" stroke="midnightblue" points="75.3633,-83.7703 82.206,-75.6816 71.8126,-77.7377 75.3633,-83.7703"/>
</g>
<!-- Node17 -->
<g id="node17" class="node"><title>Node17</title>
<g id="a_node17"><a xlink:href="../../dc/d3e/MathUtils_8h.html" target="_top" xlink:title="ITStracking/MathUtils.h">
<polygon fill="none" stroke="black" points="534,-168.5 534,-187.5 654,-187.5 654,-168.5 534,-168.5"/>
<text text-anchor="middle" x="594" y="-175.5" font-family="Helvetica,sans-Serif" font-size="10.00">ITStracking/MathUtils.h</text>
</a>
</g>
</g>
<!-- Node1&#45;&gt;Node17 -->
<g id="edge63" class="edge"><title>Node1&#45;&gt;Node17</title>
<path fill="none" stroke="midnightblue" d="M885.177,-482.876C764.042,-466.992 530,-426.758 530,-353 530,-353 530,-353 530,-289 530,-251.327 558.392,-215.04 577.354,-195.005"/>
<polygon fill="midnightblue" stroke="midnightblue" points="580.036,-197.27 584.557,-187.689 575.047,-192.36 580.036,-197.27"/>
</g>
<!-- Node18 -->
<g id="node18" class="node"><title>Node18</title>
<g id="a_node18"><a xlink:href="../../d3/da9/PrimaryVertexContext_8h.html" target="_top" xlink:title="ITStracking/PrimaryVertex\lContext.h">
<polygon fill="none" stroke="black" points="370,-337 370,-367 502,-367 502,-337 370,-337"/>
<text text-anchor="start" x="378" y="-355" font-family="Helvetica,sans-Serif" font-size="10.00">ITStracking/PrimaryVertex</text>
<text text-anchor="middle" x="436" y="-344" font-family="Helvetica,sans-Serif" font-size="10.00">Context.h</text>
</a>
</g>
</g>
<!-- Node1&#45;&gt;Node18 -->
<g id="edge64" class="edge"><title>Node1&#45;&gt;Node18</title>
<path fill="none" stroke="midnightblue" d="M885.125,-485.125C777.887,-475.415 580.1,-454.059 516,-424 491.437,-412.482 468.855,-390.987 453.993,-374.654"/>
<polygon fill="midnightblue" stroke="midnightblue" points="456.583,-372.299 447.342,-367.117 451.334,-376.931 456.583,-372.299"/>
</g>
<!-- Node21 -->
<g id="node21" class="node"><title>Node21</title>
<g id="a_node21"><a xlink:href="../../db/d48/Road_8h.html" target="_top" xlink:title="ITStracking/Road.h">
<polygon fill="none" stroke="black" points="736.5,-280.5 736.5,-299.5 837.5,-299.5 837.5,-280.5 736.5,-280.5"/>
<text text-anchor="middle" x="787" y="-287.5" font-family="Helvetica,sans-Serif" font-size="10.00">ITStracking/Road.h</text>
</a>
</g>
</g>
<!-- Node1&#45;&gt;Node21 -->
<g id="edge65" class="edge"><title>Node1&#45;&gt;Node21</title>
<path fill="none" stroke="midnightblue" d="M885.213,-466.243C864.34,-455.975 843.077,-442.127 828,-424 800.014,-390.353 791.105,-337.74 788.288,-309.842"/>
<polygon fill="midnightblue" stroke="midnightblue" points="791.746,-309.196 787.416,-299.526 784.771,-309.786 791.746,-309.196"/>
</g>
<!-- Node10&#45;&gt;Node2 -->
<g id="edge10" class="edge"><title>Node10&#45;&gt;Node2</title>
<path fill="none" stroke="midnightblue" d="M910.446,-404.466C928.911,-374.684 988,-272.107 988,-179 988,-179 988,-179 988,-121 988,-32.8002 661.539,-15.1045 561.069,-11.747"/>
<polygon fill="midnightblue" stroke="midnightblue" points="561.117,-8.24689 551.013,-11.4344 560.9,-15.2435 561.117,-8.24689"/>
</g>
<!-- Node10&#45;&gt;Node3 -->
<g id="edge11" class="edge"><title>Node10&#45;&gt;Node3</title>
<path fill="none" stroke="midnightblue" d="M922.623,-404.403C943.174,-394.379 977.364,-377.701 1001.21,-366.07"/>
<polygon fill="midnightblue" stroke="midnightblue" points="1002.96,-369.111 1010.41,-361.581 999.888,-362.819 1002.96,-369.111"/>
</g>
<!-- Node10&#45;&gt;Node4 -->
<g id="edge12" class="edge"><title>Node10&#45;&gt;Node4</title>
<path fill="none" stroke="midnightblue" d="M903.474,-404.321C896.45,-364.38 867.157,-197.813 857.273,-141.612"/>
<polygon fill="midnightblue" stroke="midnightblue" points="860.7,-140.888 855.52,-131.645 853.805,-142.1 860.7,-140.888"/>
</g>
<!-- Node10&#45;&gt;Node5 -->
<g id="edge13" class="edge"><title>Node10&#45;&gt;Node5</title>
<path fill="none" stroke="midnightblue" d="M939.284,-404.449C970.974,-396.217 1019.19,-382.853 1060,-368 1062.12,-367.229 1064.29,-366.389 1066.47,-365.514"/>
<polygon fill="midnightblue" stroke="midnightblue" points="1067.99,-368.67 1075.83,-361.549 1065.26,-362.224 1067.99,-368.67"/>
</g>
<!-- Node10&#45;&gt;Node6 -->
<g id="edge14" class="edge"><title>Node10&#45;&gt;Node6</title>
<path fill="none" stroke="midnightblue" d="M965.049,-404.5C1010.45,-397.208 1073.98,-385.144 1128,-368 1130.42,-367.232 1132.9,-366.345 1135.37,-365.394"/>
<polygon fill="midnightblue" stroke="midnightblue" points="1136.75,-368.608 1144.63,-361.526 1134.06,-362.148 1136.75,-368.608"/>
</g>
<!-- Node10&#45;&gt;Node7 -->
<g id="edge15" class="edge"><title>Node10&#45;&gt;Node7</title>
<path fill="none" stroke="midnightblue" d="M836.608,-410.443C795.558,-405.947 744.092,-394.806 706,-368 685.202,-353.364 671.222,-326.814 663.687,-309.042"/>
<polygon fill="midnightblue" stroke="midnightblue" points="666.939,-307.747 659.991,-299.748 660.434,-310.334 666.939,-307.747"/>
</g>
<!-- Node10&#45;&gt;Node8 -->
<g id="edge16" class="edge"><title>Node10&#45;&gt;Node8</title>
<path fill="none" stroke="midnightblue" d="M973.074,-407.355C1032.72,-401.261 1121.3,-389.411 1196,-368 1198.65,-367.241 1201.36,-366.331 1204.05,-365.34"/>
<polygon fill="midnightblue" stroke="midnightblue" points="1205.55,-368.509 1213.51,-361.517 1202.93,-362.019 1205.55,-368.509"/>
</g>
<!-- Node10&#45;&gt;Node9 -->
<g id="edge17" class="edge"><title>Node10&#45;&gt;Node9</title>
<path fill="none" stroke="midnightblue" d="M917.078,-404.19C927.75,-395.878 943.111,-382.548 953,-368 1003.75,-293.333 1025.98,-184.849 1033.18,-141.707"/>
<polygon fill="midnightblue" stroke="midnightblue" points="1036.65,-142.203 1034.76,-131.777 1029.74,-141.102 1036.65,-142.203"/>
</g>
<!-- Node10&#45;&gt;Node11 -->
<g id="edge18" class="edge"><title>Node10&#45;&gt;Node11</title>
<path fill="none" stroke="midnightblue" d="M901.367,-404.278C890.614,-378.551 858.894,-303.322 846,-280 828.871,-249.018 805.051,-215.347 790.625,-195.765"/>
<polygon fill="midnightblue" stroke="midnightblue" points="793.319,-193.522 784.542,-187.588 787.703,-197.7 793.319,-193.522"/>
</g>
<!-- Node10&#45;&gt;Node15 -->
<g id="edge29" class="edge"><title>Node10&#45;&gt;Node15</title>
<path fill="none" stroke="midnightblue" d="M836.968,-410.567C632.581,-402.36 38,-371.562 38,-291 38,-291 38,-291 38,-177 38,-139.574 65.3404,-102.958 83.4135,-82.8412"/>
<polygon fill="midnightblue" stroke="midnightblue" points="85.9946,-85.2053 90.2602,-75.5071 80.8777,-80.4285 85.9946,-85.2053"/>
</g>
<!-- Node10&#45;&gt;Node17 -->
<g id="edge30" class="edge"><title>Node10&#45;&gt;Node17</title>
<path fill="none" stroke="midnightblue" d="M886.182,-404.374C868.222,-395.886 840.626,-382.171 818,-368 732.167,-314.242 644.393,-229.824 609.584,-194.921"/>
<polygon fill="midnightblue" stroke="midnightblue" points="611.784,-192.168 602.262,-187.522 606.809,-197.092 611.784,-192.168"/>
</g>
<!-- Node10&#45;&gt;Node18 -->
<g id="edge34" class="edge"><title>Node10&#45;&gt;Node18</title>
<path fill="none" stroke="midnightblue" d="M838.302,-404.467C752.133,-393.444 602.486,-374.299 512.009,-362.724"/>
<polygon fill="midnightblue" stroke="midnightblue" points="512.453,-359.252 502.09,-361.455 511.565,-366.196 512.453,-359.252"/>
</g>
<!-- Node10&#45;&gt;Node21 -->
<g id="edge60" class="edge"><title>Node10&#45;&gt;Node21</title>
<path fill="none" stroke="midnightblue" d="M892.793,-404.388C881.005,-395.805 862.941,-381.927 849,-368 829.918,-348.937 810.899,-324.261 799.057,-308.047"/>
<polygon fill="midnightblue" stroke="midnightblue" points="801.65,-305.658 792.968,-299.585 795.968,-309.747 801.65,-305.658"/>
</g>
<!-- Node11&#45;&gt;Node2 -->
<g id="edge19" class="edge"><title>Node11&#45;&gt;Node2</title>
<path fill="none" stroke="midnightblue" d="M779.976,-168.284C784.415,-146.232 792.607,-87.7251 763,-56 735.96,-27.0254 617.247,-16.123 561.329,-12.5415"/>
<polygon fill="midnightblue" stroke="midnightblue" points="561.535,-9.04761 551.342,-11.9374 561.112,-16.0348 561.535,-9.04761"/>
</g>
<!-- Node11&#45;&gt;Node4 -->
<g id="edge22" class="edge"><title>Node11&#45;&gt;Node4</title>
<path fill="none" stroke="midnightblue" d="M790.211,-168.324C801.776,-160.107 819.375,-147.602 833.161,-137.807"/>
<polygon fill="midnightblue" stroke="midnightblue" points="835.443,-140.479 841.567,-131.834 831.388,-134.773 835.443,-140.479"/>
</g>
<!-- Node12 -->
<g id="node12" class="node"><title>Node12</title>
<polygon fill="none" stroke="#bfbfbf" points="709.5,-56.5 709.5,-75.5 754.5,-75.5 754.5,-56.5 709.5,-56.5"/>
<text text-anchor="middle" x="732" y="-63.5" font-family="Helvetica,sans-Serif" font-size="10.00">climits</text>
</g>
<!-- Node11&#45;&gt;Node12 -->
<g id="edge20" class="edge"><title>Node11&#45;&gt;Node12</title>
<path fill="none" stroke="midnightblue" d="M774.39,-168.368C766.9,-150.456 749.532,-108.923 739.506,-84.9482"/>
<polygon fill="midnightblue" stroke="midnightblue" points="742.68,-83.4669 735.593,-75.5914 736.222,-86.1676 742.68,-83.4669"/>
</g>
<!-- Node13 -->
<g id="node13" class="node"><title>Node13</title>
<polygon fill="none" stroke="#bfbfbf" points="441,-56.5 441,-75.5 485,-75.5 485,-56.5 441,-56.5"/>
<text text-anchor="middle" x="463" y="-63.5" font-family="Helvetica,sans-Serif" font-size="10.00">vector</text>
</g>
<!-- Node11&#45;&gt;Node13 -->
<g id="edge21" class="edge"><title>Node11&#45;&gt;Node13</title>
<path fill="none" stroke="midnightblue" d="M759.677,-168.448C730.96,-155.246 673.42,-129.588 623,-112 579.239,-96.7353 527.407,-82.9111 494.858,-74.7286"/>
<polygon fill="midnightblue" stroke="midnightblue" points="495.552,-71.2946 485.003,-72.2756 493.861,-78.0873 495.552,-71.2946"/>
</g>
<!-- Node14 -->
<g id="node14" class="node"><title>Node14</title>
<g id="a_node14"><a xlink:href="../../d0/d86/Detectors_2ITSMFT_2ITS_2tracking_2include_2ITStracking_2Constants_8h.html" target="_top" xlink:title="ITStracking/Constants.h">
<polygon fill="none" stroke="black" points="491.5,-112.5 491.5,-131.5 614.5,-131.5 614.5,-112.5 491.5,-112.5"/>
<text text-anchor="middle" x="553" y="-119.5" font-family="Helvetica,sans-Serif" font-size="10.00">ITStracking/Constants.h</text>
</a>
</g>
</g>
<!-- Node11&#45;&gt;Node14 -->
<g id="edge23" class="edge"><title>Node11&#45;&gt;Node14</title>
<path fill="none" stroke="midnightblue" d="M742.348,-168.444C703.344,-159.083 640.734,-144.056 598.283,-133.868"/>
<polygon fill="midnightblue" stroke="midnightblue" points="599.026,-130.447 588.485,-131.516 597.392,-137.254 599.026,-130.447"/>
</g>
<!-- Node14&#45;&gt;Node12 -->
<g id="edge24" class="edge"><title>Node14&#45;&gt;Node12</title>
<path fill="none" stroke="midnightblue" d="M581.363,-112.444C613.525,-102.741 665.863,-86.952 699.605,-76.7727"/>
<polygon fill="midnightblue" stroke="midnightblue" points="700.874,-80.0458 709.437,-73.8067 698.852,-73.3441 700.874,-80.0458"/>
</g>
<!-- Node14&#45;&gt;Node13 -->
<g id="edge25" class="edge"><title>Node14&#45;&gt;Node13</title>
<path fill="none" stroke="midnightblue" d="M538.54,-112.324C524.5,-103.9 502.952,-90.9709 486.457,-81.0741"/>
<polygon fill="midnightblue" stroke="midnightblue" points="487.8,-77.7983 477.424,-75.6545 484.198,-83.8007 487.8,-77.7983"/>
</g>
<!-- Node14&#45;&gt;Node15 -->
<g id="edge26" class="edge"><title>Node14&#45;&gt;Node15</title>
<path fill="none" stroke="midnightblue" d="M491.299,-113.661C408.075,-103.762 260.106,-86.1624 171.619,-75.6374"/>
<polygon fill="midnightblue" stroke="midnightblue" points="172.003,-72.1586 161.66,-74.4529 171.176,-79.1096 172.003,-72.1586"/>
</g>
<!-- Node15&#45;&gt;Node2 -->
<g id="edge27" class="edge"><title>Node15&#45;&gt;Node2</title>
<path fill="none" stroke="midnightblue" d="M161.962,-57.1479C256.808,-45.3196 432.651,-23.39 502.391,-14.6926"/>
<polygon fill="midnightblue" stroke="midnightblue" points="503.154,-18.1246 512.644,-13.4139 502.288,-11.1784 503.154,-18.1246"/>
</g>
<!-- Node16 -->
<g id="node16" class="node"><title>Node16</title>
<polygon fill="none" stroke="#bfbfbf" points="32,-0.5 32,-19.5 166,-19.5 166,-0.5 32,-0.5"/>
<text text-anchor="middle" x="99" y="-7.5" font-family="Helvetica,sans-Serif" font-size="10.00">AliTPCCommonDefGPU.h</text>
</g>
<!-- Node15&#45;&gt;Node16 -->
<g id="edge28" class="edge"><title>Node15&#45;&gt;Node16</title>
<path fill="none" stroke="midnightblue" d="M99,-56.083C99,-49.0059 99,-38.8611 99,-29.9865"/>
<polygon fill="midnightblue" stroke="midnightblue" points="102.5,-29.751 99,-19.7511 95.5001,-29.7511 102.5,-29.751"/>
</g>
<!-- Node17&#45;&gt;Node2 -->
<g id="edge31" class="edge"><title>Node17&#45;&gt;Node2</title>
<path fill="none" stroke="midnightblue" d="M602.632,-168.293C613.785,-155.937 630.886,-132.533 623,-112 608.881,-75.2373 574.51,-43.4914 552.284,-25.8394"/>
<polygon fill="midnightblue" stroke="midnightblue" points="554.209,-22.9044 544.151,-19.5761 549.938,-28.4505 554.209,-22.9044"/>
</g>
<!-- Node17&#45;&gt;Node4 -->
<g id="edge32" class="edge"><title>Node17&#45;&gt;Node4</title>
<path fill="none" stroke="midnightblue" d="M635.198,-168.444C686.982,-157.688 774.777,-139.454 821.874,-129.672"/>
<polygon fill="midnightblue" stroke="midnightblue" points="822.749,-133.065 831.828,-127.605 821.325,-126.212 822.749,-133.065"/>
</g>
<!-- Node17&#45;&gt;Node14 -->
<g id="edge33" class="edge"><title>Node17&#45;&gt;Node14</title>
<path fill="none" stroke="midnightblue" d="M587.23,-168.083C581.438,-160.455 572.942,-149.264 565.862,-139.941"/>
<polygon fill="midnightblue" stroke="midnightblue" points="568.479,-137.599 559.644,-131.751 562.904,-141.832 568.479,-137.599"/>
</g>
<!-- Node18&#45;&gt;Node2 -->
<g id="edge36" class="edge"><title>Node18&#45;&gt;Node2</title>
<path fill="none" stroke="midnightblue" d="M403.604,-336.923C384.836,-327.899 361.365,-315.067 343,-300 270.624,-240.62 201.939,-193.502 248,-112 298.885,-21.9609 440.466,-10.748 502.379,-10.3153"/>
<polygon fill="midnightblue" stroke="midnightblue" points="502.625,-13.8158 512.633,-10.3392 502.641,-6.81582 502.625,-13.8158"/>
</g>
<!-- Node18&#45;&gt;Node7 -->
<g id="edge37" class="edge"><title>Node18&#45;&gt;Node7</title>
<path fill="none" stroke="midnightblue" d="M487.815,-336.933C530.082,-325.458 588.486,-309.601 624.447,-299.838"/>
<polygon fill="midnightblue" stroke="midnightblue" points="625.67,-303.133 634.404,-297.135 623.836,-296.377 625.67,-303.133"/>
</g>
<!-- Node18&#45;&gt;Node11 -->
<g id="edge43" class="edge"><title>Node18&#45;&gt;Node11</title>
<path fill="none" stroke="midnightblue" d="M455.803,-336.997C497.59,-307.621 593.899,-240.881 630,-224 661.881,-209.092 699.905,-197.655 729.429,-190.042"/>
<polygon fill="midnightblue" stroke="midnightblue" points="730.65,-193.344 739.493,-187.509 728.941,-186.555 730.65,-193.344"/>
</g>
<!-- Node18&#45;&gt;Node13 -->
<g id="edge38" class="edge"><title>Node18&#45;&gt;Node13</title>
<path fill="none" stroke="midnightblue" d="M421.883,-336.791C413.45,-327.262 403.525,-313.942 399,-300 396.256,-291.545 396.81,-288.615 399,-280 410.464,-234.897 434.958,-232.368 449,-188 460.022,-153.174 462.544,-110.257 463.018,-86.0225"/>
<polygon fill="midnightblue" stroke="midnightblue" points="466.521,-85.7764 463.115,-75.7439 459.521,-85.7104 466.521,-85.7764"/>
</g>
<!-- Node18&#45;&gt;Node14 -->
<g id="edge44" class="edge"><title>Node18&#45;&gt;Node14</title>
<path fill="none" stroke="midnightblue" d="M447.339,-336.856C454.95,-326.932 464.853,-313.138 472,-300 502.211,-244.467 496.414,-224.387 525,-168 529.837,-158.459 536.055,-148.304 541.402,-140.06"/>
<polygon fill="midnightblue" stroke="midnightblue" points="544.337,-141.966 546.949,-131.699 538.504,-138.097 544.337,-141.966"/>
</g>
<!-- Node18&#45;&gt;Node15 -->
<g id="edge45" class="edge"><title>Node18&#45;&gt;Node15</title>
<path fill="none" stroke="midnightblue" d="M369.655,-349.363C282.232,-345.845 134.861,-334.78 95,-300 72.3215,-280.212 76,-265.098 76,-235 76,-235 76,-235 76,-177 76,-144.12 85.9676,-106.86 92.7792,-85.2353"/>
<polygon fill="midnightblue" stroke="midnightblue" points="96.1123,-86.3032 95.8981,-75.7105 89.4599,-84.1248 96.1123,-86.3032"/>
</g>
<!-- Node19 -->
<g id="node19" class="node"><title>Node19</title>
<polygon fill="none" stroke="#bfbfbf" points="408,-280.5 408,-299.5 464,-299.5 464,-280.5 408,-280.5"/>
<text text-anchor="middle" x="436" y="-287.5" font-family="Helvetica,sans-Serif" font-size="10.00">algorithm</text>
</g>
<!-- Node18&#45;&gt;Node19 -->
<g id="edge35" class="edge"><title>Node18&#45;&gt;Node19</title>
<path fill="none" stroke="midnightblue" d="M436,-336.781C436,-328.781 436,-318.689 436,-310.017"/>
<polygon fill="midnightblue" stroke="midnightblue" points="439.5,-309.73 436,-299.731 432.5,-309.731 439.5,-309.73"/>
</g>
<!-- Node20 -->
<g id="node20" class="node"><title>Node20</title>
<g id="a_node20"><a xlink:href="../../d1/d52/ITSMFT_2ITS_2tracking_2include_2ITStracking_2Cell_8h.html" target="_top" xlink:title="ITStracking/Cell.h">
<polygon fill="none" stroke="black" points="257.5,-112.5 257.5,-131.5 352.5,-131.5 352.5,-112.5 257.5,-112.5"/>
<text text-anchor="middle" x="305" y="-119.5" font-family="Helvetica,sans-Serif" font-size="10.00">ITStracking/Cell.h</text>
</a>
</g>
</g>
<!-- Node18&#45;&gt;Node20 -->
<g id="edge39" class="edge"><title>Node18&#45;&gt;Node20</title>
<path fill="none" stroke="midnightblue" d="M412.826,-336.804C398.458,-327.378 380.116,-314.166 366,-300 322.638,-256.485 303.92,-246.445 285,-188 279.842,-172.067 286.54,-153.835 293.539,-140.743"/>
<polygon fill="midnightblue" stroke="midnightblue" points="296.712,-142.252 298.759,-131.857 290.676,-138.707 296.712,-142.252"/>
</g>
<!-- Node18&#45;&gt;Node21 -->
<g id="edge46" class="edge"><title>Node18&#45;&gt;Node21</title>
<path fill="none" stroke="midnightblue" d="M502.02,-339.714C566.732,-328.653 664.507,-311.939 727.047,-301.248"/>
<polygon fill="midnightblue" stroke="midnightblue" points="727.886,-304.656 737.153,-299.521 726.706,-297.756 727.886,-304.656"/>
</g>
<!-- Node22 -->
<g id="node22" class="node"><title>Node22</title>
<g id="a_node22"><a xlink:href="../../da/dc0/Tracklet_8h.html" target="_top" xlink:title="ITStracking/Tracklet.h">
<polygon fill="none" stroke="black" points="104.5,-280.5 104.5,-299.5 217.5,-299.5 217.5,-280.5 104.5,-280.5"/>
<text text-anchor="middle" x="161" y="-287.5" font-family="Helvetica,sans-Serif" font-size="10.00">ITStracking/Tracklet.h</text>
</a>
</g>
</g>
<!-- Node18&#45;&gt;Node22 -->
<g id="edge49" class="edge"><title>Node18&#45;&gt;Node22</title>
<path fill="none" stroke="midnightblue" d="M371.525,-336.933C322.082,-326.145 254.892,-311.486 209.841,-301.656"/>
<polygon fill="midnightblue" stroke="midnightblue" points="210.533,-298.225 200.017,-299.513 209.041,-305.064 210.533,-298.225"/>
</g>
<!-- Node20&#45;&gt;Node2 -->
<g id="edge40" class="edge"><title>Node20&#45;&gt;Node2</title>
<path fill="none" stroke="midnightblue" d="M311.171,-112.433C321.666,-98.4939 344.361,-70.9593 370,-56 412.315,-31.3106 468.777,-19.6524 502.649,-14.5506"/>
<polygon fill="midnightblue" stroke="midnightblue" points="503.393,-17.9803 512.805,-13.1164 502.414,-11.0491 503.393,-17.9803"/>
</g>
<!-- Node20&#45;&gt;Node13 -->
<g id="edge41" class="edge"><title>Node20&#45;&gt;Node13</title>
<path fill="none" stroke="midnightblue" d="M330.036,-112.444C357.476,-103.065 401.555,-88.0001 431.367,-77.8112"/>
<polygon fill="midnightblue" stroke="midnightblue" points="432.555,-81.104 440.886,-74.558 430.291,-74.4802 432.555,-81.104"/>
</g>
<!-- Node20&#45;&gt;Node15 -->
<g id="edge42" class="edge"><title>Node20&#45;&gt;Node15</title>
<path fill="none" stroke="midnightblue" d="M272.359,-112.444C236.95,-103.162 180.291,-88.3093 141.447,-78.127"/>
<polygon fill="midnightblue" stroke="midnightblue" points="142.049,-74.6666 131.489,-75.5164 140.274,-81.4378 142.049,-74.6666"/>
</g>
<!-- Node21&#45;&gt;Node2 -->
<g id="edge47" class="edge"><title>Node21&#45;&gt;Node2</title>
<path fill="none" stroke="midnightblue" d="M827.292,-280.434C875.561,-267.533 950,-238.062 950,-179 950,-179 950,-179 950,-121 950,-40.4351 655.924,-17.6322 561.095,-12.3735"/>
<polygon fill="midnightblue" stroke="midnightblue" points="561.218,-8.87518 551.047,-11.8413 560.848,-15.8654 561.218,-8.87518"/>
</g>
<!-- Node21&#45;&gt;Node14 -->
<g id="edge48" class="edge"><title>Node21&#45;&gt;Node14</title>
<path fill="none" stroke="midnightblue" d="M780.001,-280.233C762.309,-258.561 713.527,-201.784 662,-168 640.175,-153.69 613.058,-142.474 591.331,-134.818"/>
<polygon fill="midnightblue" stroke="midnightblue" points="592.361,-131.471 581.766,-131.553 590.099,-138.096 592.361,-131.471"/>
</g>
<!-- Node23 -->
<g id="node23" class="node"><title>Node23</title>
<g id="a_node23"><a xlink:href="../../da/d7f/Detectors_2ITSMFT_2ITS_2tracking_2include_2ITStracking_2Cluster_8h.html" target="_top" xlink:title="ITStracking/Cluster.h">
<polygon fill="none" stroke="black" points="108,-224.5 108,-243.5 218,-243.5 218,-224.5 108,-224.5"/>
<text text-anchor="middle" x="163" y="-231.5" font-family="Helvetica,sans-Serif" font-size="10.00">ITStracking/Cluster.h</text>
</a>
</g>
</g>
<!-- Node22&#45;&gt;Node23 -->
<g id="edge50" class="edge"><title>Node22&#45;&gt;Node23</title>
<path fill="none" stroke="midnightblue" d="M161.33,-280.083C161.592,-273.006 161.968,-262.861 162.297,-253.986"/>
<polygon fill="midnightblue" stroke="midnightblue" points="165.803,-253.874 162.676,-243.751 158.808,-253.615 165.803,-253.874"/>
</g>
<!-- Node23&#45;&gt;Node2 -->
<g id="edge51" class="edge"><title>Node23&#45;&gt;Node2</title>
<path fill="none" stroke="midnightblue" d="M162.512,-224.304C161.404,-195.291 162.102,-101.099 214,-56 256.747,-18.8534 431.875,-12.3245 502.385,-11.2121"/>
<polygon fill="midnightblue" stroke="midnightblue" points="502.813,-14.7069 512.767,-11.0762 502.722,-7.70751 502.813,-14.7069"/>
</g>
<!-- Node23&#45;&gt;Node15 -->
<g id="edge52" class="edge"><title>Node23&#45;&gt;Node15</title>
<path fill="none" stroke="midnightblue" d="M159.559,-224.075C149.441,-197.832 119.644,-120.545 105.985,-85.1165"/>
<polygon fill="midnightblue" stroke="midnightblue" points="109.166,-83.6396 102.303,-75.5681 102.635,-86.1578 109.166,-83.6396"/>
</g>
<!-- Node23&#45;&gt;Node17 -->
<g id="edge53" class="edge"><title>Node23&#45;&gt;Node17</title>
<path fill="none" stroke="midnightblue" d="M218.024,-226.106C295.876,-216.352 438.192,-198.521 523.636,-187.816"/>
<polygon fill="midnightblue" stroke="midnightblue" points="524.278,-191.263 533.766,-186.547 523.408,-184.317 524.278,-191.263"/>
</g>
<!-- Node24 -->
<g id="node24" class="node"><title>Node24</title>
<g id="a_node24"><a xlink:href="../../d2/d0c/IndexTableUtils_8h.html" target="_top" xlink:title="ITStracking/IndexTableUtils.h">
<polygon fill="none" stroke="black" points="294,-168.5 294,-187.5 440,-187.5 440,-168.5 294,-168.5"/>
<text text-anchor="middle" x="367" y="-175.5" font-family="Helvetica,sans-Serif" font-size="10.00">ITStracking/IndexTableUtils.h</text>
</a>
</g>
</g>
<!-- Node23&#45;&gt;Node24 -->
<g id="edge54" class="edge"><title>Node23&#45;&gt;Node24</title>
<path fill="none" stroke="midnightblue" d="M195.324,-224.444C230.389,-215.162 286.498,-200.309 324.965,-190.127"/>
<polygon fill="midnightblue" stroke="midnightblue" points="326.055,-193.459 334.827,-187.516 324.264,-186.692 326.055,-193.459"/>
</g>
<!-- Node24&#45;&gt;Node2 -->
<g id="edge55" class="edge"><title>Node24&#45;&gt;Node2</title>
<path fill="none" stroke="midnightblue" d="M369.454,-168.476C376.072,-146.873 396.243,-89.334 432,-56 452.196,-37.1723 481.604,-25.2345 503.305,-18.4228"/>
<polygon fill="midnightblue" stroke="midnightblue" points="504.371,-21.7574 512.968,-15.5652 502.386,-15.0448 504.371,-21.7574"/>
</g>
<!-- Node24&#45;&gt;Node9 -->
<g id="edge56" class="edge"><title>Node24&#45;&gt;Node9</title>
<path fill="none" stroke="midnightblue" d="M440.188,-171.092C585.758,-159.342 906.172,-133.479 1005.82,-125.436"/>
<polygon fill="midnightblue" stroke="midnightblue" points="1006.13,-128.923 1015.81,-124.629 1005.56,-121.945 1006.13,-128.923"/>
</g>
<!-- Node24&#45;&gt;Node13 -->
<g id="edge57" class="edge"><title>Node24&#45;&gt;Node13</title>
<path fill="none" stroke="midnightblue" d="M374.533,-168.368C390.516,-150.055 428.048,-107.049 448.72,-83.3624"/>
<polygon fill="midnightblue" stroke="midnightblue" points="451.564,-85.4271 455.502,-75.5914 446.29,-80.8243 451.564,-85.4271"/>
</g>
<!-- Node24&#45;&gt;Node14 -->
<g id="edge58" class="edge"><title>Node24&#45;&gt;Node14</title>
<path fill="none" stroke="midnightblue" d="M396.472,-168.444C428.171,-159.241 478.732,-144.562 513.775,-134.388"/>
<polygon fill="midnightblue" stroke="midnightblue" points="515.038,-137.666 523.666,-131.516 513.086,-130.943 515.038,-137.666"/>
</g>
<!-- Node24&#45;&gt;Node15 -->
<g id="edge59" class="edge"><title>Node24&#45;&gt;Node15</title>
<path fill="none" stroke="midnightblue" d="M343.157,-168.381C319.035,-159.568 280.734,-145.32 248,-132 205.49,-114.703 156.864,-93.1526 127.045,-79.7323"/>
<polygon fill="midnightblue" stroke="midnightblue" points="128.244,-76.4336 117.69,-75.5106 125.365,-82.814 128.244,-76.4336"/>
</g>
</g>
</svg>
        <g id="navigator" transform="translate(0 0)" fill="#404254">
                <rect fill="#f2f5e9" fill-opacity="0.5" stroke="#606060" stroke-width=".5" x="0" y="0" width="60" height="60"/>
                <use id="zoomplus" xlink:href="#zoomPlus" x="17" y="9" onmousedown="handleZoom(evt,'in')"/>
                <use id="zoomminus" xlink:href="#zoomMin" x="42" y="9" onmousedown="handleZoom(evt,'out')"/>
                <use id="reset" xlink:href="#resetDef" x="30" y="36" onmousedown="handleReset()"/>
                <g id="arrowUp" xlink:href="#dirArrow" transform="translate(30 24)" onmousedown="handlePan(0,-1)">
                  <use xlink:href="#rim" fill="#404040">
                        <set attributeName="fill" to="#808080" begin="arrowUp.mouseover" end="arrowUp.mouseout"/>
                  </use>
                  <path fill="none" stroke="white" stroke-width="1.5" d="M0,-3.0v7 M-2.5,-0.5L0,-3.0L2.5,-0.5"/>
                </g>
                <g id="arrowRight" xlink:href="#dirArrow" transform="rotate(90) translate(36 -43)" onmousedown="handlePan(1,0)">
                  <use xlink:href="#rim" fill="#404040">
                        <set attributeName="fill" to="#808080" begin="arrowRight.mouseover" end="arrowRight.mouseout"/>
                  </use>
                  <path fill="none" stroke="white" stroke-width="1.5" d="M0,-3.0v7 M-2.5,-0.5L0,-3.0L2.5,-0.5"/>
                </g>
                <g id="arrowDown" xlink:href="#dirArrow" transform="rotate(180) translate(-30 -48)" onmousedown="handlePan(0,1)">
                  <use xlink:href="#rim" fill="#404040">
                        <set attributeName="fill" to="#808080" begin="arrowDown.mouseover" end="arrowDown.mouseout"/>
                  </use>
                  <path fill="none" stroke="white" stroke-width="1.5" d="M0,-3.0v7 M-2.5,-0.5L0,-3.0L2.5,-0.5"/>
                </g>
                <g id="arrowLeft" xlink:href="#dirArrow" transform="rotate(270) translate(-36 17)" onmousedown="handlePan(-1,0)">
                  <use xlink:href="#rim" fill="#404040">
                        <set attributeName="fill" to="#808080" begin="arrowLeft.mouseover" end="arrowLeft.mouseout"/>
                  </use>
                  <path fill="none" stroke="white" stroke-width="1.5" d="M0,-3.0v7 M-2.5,-0.5L0,-3.0L2.5,-0.5"/>
                </g>
        </g>
        <svg viewBox="0 0 15 15" width="100%" height="30px" preserveAspectRatio="xMaxYMin meet">
         <g id="arrow_out" transform="scale(0.3 0.3)">
          <a xlink:href="TrackerTraitsCPU_8h__incl_org.svg" target="_base">
           <rect id="button" ry="5" rx="5" y="6" x="6" height="38" width="38"
                fill="#f2f5e9" fill-opacity="0.5" stroke="#606060" stroke-width="1.0"/>
           <path id="arrow"
             d="M 11.500037,31.436501 C 11.940474,20.09759 22.043105,11.32322 32.158766,21.979434 L 37.068811,17.246167 C 37.068811,17.246167 37.088388,32 37.088388,32 L 22.160133,31.978069 C 22.160133,31.978069 26.997745,27.140456 26.997745,27.140456 C 18.528582,18.264221 13.291696,25.230495 11.500037,31.436501 z"
             style="fill:#404040;"/>
          </a>
         </g>
        </svg>
</svg>
