<?xml version="1.0" encoding="UTF-8" standalone="no"?>
<!DOCTYPE svg PUBLIC "-//W3C//DTD SVG 1.1//EN"
 "http://www.w3.org/Graphics/SVG/1.1/DTD/svg11.dtd">
<!-- Generated by graphviz version 2.36.0 (20140111.2315)
 -->
<!-- Title: /home/travis/build/AliceO2Group/AliceO2/Utilities/DataFlow/src/runEPNReceiver.cxx Pages: 1 -->
<svg width="490pt" height="174pt"
 viewBox="0.00 0.00 490.00 174.00" xmlns="http://www.w3.org/2000/svg" xmlns:xlink="http://www.w3.org/1999/xlink">
<g id="graph0" class="graph" transform="scale(1 1) rotate(0) translate(4 170)">
<title>/home/travis/build/AliceO2Group/AliceO2/Utilities/DataFlow/src/runEPNReceiver.cxx</title>
<!-- Node1 -->
<g id="node1" class="node"><title>Node1</title>
<polygon fill="#bfbfbf" stroke="black" points="70,-113 70,-165 188,-165 188,-113 70,-113"/>
<text text-anchor="start" x="78" y="-153" font-family="Helvetica,sans-Serif" font-size="10.00">/home/travis/build</text>
<text text-anchor="start" x="78" y="-142" font-family="Helvetica,sans-Serif" font-size="10.00">/AliceO2Group/AliceO2</text>
<text text-anchor="start" x="78" y="-131" font-family="Helvetica,sans-Serif" font-size="10.00">/Utilities/DataFlow/src</text>
<text text-anchor="middle" x="129" y="-120" font-family="Helvetica,sans-Serif" font-size="10.00">/runEPNReceiver.cxx</text>
</g>
<!-- Node2 -->
<g id="node2" class="node"><title>Node2</title>
<polygon fill="none" stroke="#bfbfbf" points="-0.5,-56.5 -0.5,-75.5 100.5,-75.5 100.5,-56.5 -0.5,-56.5"/>
<text text-anchor="middle" x="50" y="-63.5" font-family="Helvetica,sans-Serif" font-size="10.00">runFairMQDevice.h</text>
</g>
<!-- Node1&#45;&gt;Node2 -->
<g id="edge1" class="edge"><title>Node1&#45;&gt;Node2</title>
<path fill="none" stroke="midnightblue" d="M100.925,-112.768C89.6992,-102.679 77.1262,-91.3792 67.2819,-82.5318"/>
<polygon fill="midnightblue" stroke="midnightblue" points="69.5211,-79.8385 59.7439,-75.7572 64.842,-85.0448 69.5211,-79.8385"/>
</g>
<!-- Node3 -->
<g id="node3" class="node"><title>Node3</title>
<g id="a_node3"><a xlink:href="../../d2/d37/EPNReceiverDevice_8h.html" target="_top" xlink:title="DataFlow/EPNReceiverDevice.h">
<polygon fill="none" stroke="black" points="174.5,-56.5 174.5,-75.5 335.5,-75.5 335.5,-56.5 174.5,-56.5"/>
<text text-anchor="middle" x="255" y="-63.5" font-family="Helvetica,sans-Serif" font-size="10.00">DataFlow/EPNReceiverDevice.h</text>
</a>
</g>
</g>
<!-- Node1&#45;&gt;Node3 -->
<g id="edge2" class="edge"><title>Node1&#45;&gt;Node3</title>
<path fill="none" stroke="midnightblue" d="M173.423,-112.968C192.731,-102.088 214.596,-89.7673 230.826,-80.6218"/>
<polygon fill="midnightblue" stroke="midnightblue" points="232.675,-83.5973 239.669,-75.6389 229.239,-77.4989 232.675,-83.5973"/>
</g>
<!-- Node4 -->
<g id="node4" class="node"><title>Node4</title>
<polygon fill="none" stroke="#bfbfbf" points="73.5,-0.5 73.5,-19.5 114.5,-19.5 114.5,-0.5 73.5,-0.5"/>
<text text-anchor="middle" x="94" y="-7.5" font-family="Helvetica,sans-Serif" font-size="10.00">string</text>
</g>
<!-- Node1&#45;&gt;Node4 -->
<g id="edge8" class="edge"><title>Node1&#45;&gt;Node4</title>
<path fill="none" stroke="midnightblue" d="M123.406,-112.736C119.661,-96.4507 114.436,-74.8682 109,-56 106.432,-47.0864 103.22,-37.3048 100.428,-29.1446"/>
<polygon fill="midnightblue" stroke="midnightblue" points="103.684,-27.8523 97.0882,-19.5608 97.0736,-30.1556 103.684,-27.8523"/>
</g>
<!-- Node3&#45;&gt;Node4 -->
<g id="edge3" class="edge"><title>Node3&#45;&gt;Node4</title>
<path fill="none" stroke="midnightblue" d="M229.489,-56.4435C200.97,-46.8782 154.813,-31.3969 124.433,-21.2075"/>
<polygon fill="midnightblue" stroke="midnightblue" points="125.378,-17.8327 114.784,-17.971 123.152,-24.4693 125.378,-17.8327"/>
</g>
<!-- Node5 -->
<g id="node5" class="node"><title>Node5</title>
<polygon fill="none" stroke="#bfbfbf" points="132.5,-0.5 132.5,-19.5 215.5,-19.5 215.5,-0.5 132.5,-0.5"/>
<text text-anchor="middle" x="174" y="-7.5" font-family="Helvetica,sans-Serif" font-size="10.00">unordered_map</text>
</g>
<!-- Node3&#45;&gt;Node5 -->
<g id="edge4" class="edge"><title>Node3&#45;&gt;Node5</title>
<path fill="none" stroke="midnightblue" d="M241.986,-56.324C229.468,-47.979 210.318,-35.2122 195.529,-25.3524"/>
<polygon fill="midnightblue" stroke="midnightblue" points="197.244,-22.2894 186.982,-19.6545 193.361,-28.1137 197.244,-22.2894"/>
</g>
<!-- Node6 -->
<g id="node6" class="node"><title>Node6</title>
<polygon fill="none" stroke="#bfbfbf" points="234,-0.5 234,-19.5 312,-19.5 312,-0.5 234,-0.5"/>
<text text-anchor="middle" x="273" y="-7.5" font-family="Helvetica,sans-Serif" font-size="10.00">unordered_set</text>
</g>
<!-- Node3&#45;&gt;Node6 -->
<g id="edge5" class="edge"><title>Node3&#45;&gt;Node6</title>
<path fill="none" stroke="midnightblue" d="M257.972,-56.083C260.384,-48.8486 263.864,-38.4087 266.868,-29.3968"/>
<polygon fill="midnightblue" stroke="midnightblue" points="270.241,-30.3447 270.083,-19.7511 263.6,-28.1311 270.241,-30.3447"/>
</g>
<!-- Node7 -->
<g id="node7" class="node"><title>Node7</title>
<polygon fill="none" stroke="#bfbfbf" points="330,-0.5 330,-19.5 376,-19.5 376,-0.5 330,-0.5"/>
<text text-anchor="middle" x="353" y="-7.5" font-family="Helvetica,sans-Serif" font-size="10.00">chrono</text>
</g>
<!-- Node3&#45;&gt;Node7 -->
<g id="edge6" class="edge"><title>Node3&#45;&gt;Node7</title>
<path fill="none" stroke="midnightblue" d="M270.745,-56.324C286.319,-47.7428 310.377,-34.486 328.459,-24.5224"/>
<polygon fill="midnightblue" stroke="midnightblue" points="330.224,-27.546 337.294,-19.6545 326.846,-21.4152 330.224,-27.546"/>
</g>
<!-- Node8 -->
<g id="node8" class="node"><title>Node8</title>
<polygon fill="none" stroke="#bfbfbf" points="394,-0.5 394,-19.5 482,-19.5 482,-0.5 394,-0.5"/>
<text text-anchor="middle" x="438" y="-7.5" font-family="Helvetica,sans-Serif" font-size="10.00">FairMQDevice.h</text>
</g>
<!-- Node3&#45;&gt;Node8 -->
<g id="edge7" class="edge"><title>Node3&#45;&gt;Node8</title>
<path fill="none" stroke="midnightblue" d="M283.997,-56.4435C315.185,-47.2406 364.93,-32.5617 399.408,-22.3879"/>
<polygon fill="midnightblue" stroke="midnightblue" points="400.538,-25.7036 409.139,-19.5164 398.557,-18.9898 400.538,-25.7036"/>
</g>
</g>
</svg>
