<?xml version="1.0" encoding="UTF-8" standalone="no"?>
<!DOCTYPE svg PUBLIC "-//W3C//DTD SVG 1.1//EN"
 "http://www.w3.org/Graphics/SVG/1.1/DTD/svg11.dtd">
<!-- Generated by graphviz version 2.36.0 (20140111.2315)
 -->
<!-- Title: o2::MFT::HalfDiskSegmentation Pages: 1 -->
<svg width="164pt" height="474pt"
 viewBox="0.00 0.00 164.00 474.00" xmlns="http://www.w3.org/2000/svg" xmlns:xlink="http://www.w3.org/1999/xlink">
<g id="graph0" class="graph" transform="scale(1 1) rotate(0) translate(4 470)">
<title>o2::MFT::HalfDiskSegmentation</title>
<!-- Node1 -->
<g id="node1" class="node"><title>Node1</title>
<polygon fill="#bfbfbf" stroke="black" points="-1,-0.5 -1,-189.5 157,-189.5 157,-0.5 -1,-0.5"/>
<text text-anchor="middle" x="78" y="-177.5" font-family="Helvetica,sans-Serif" font-size="10.00">o2::MFT::HalfDiskSegmentation</text>
<polyline fill="none" stroke="black" points="-1,-170.5 157,-170.5 "/>
<text text-anchor="middle" x="78" y="-158.5" font-family="Helvetica,sans-Serif" font-size="10.00"> </text>
<polyline fill="none" stroke="black" points="-1,-151.5 157,-151.5 "/>
<text text-anchor="start" x="7" y="-139.5" font-family="Helvetica,sans-Serif" font-size="10.00">+ HalfDiskSegmentation()</text>
<text text-anchor="start" x="7" y="-128.5" font-family="Helvetica,sans-Serif" font-size="10.00">+ HalfDiskSegmentation()</text>
<text text-anchor="start" x="7" y="-117.5" font-family="Helvetica,sans-Serif" font-size="10.00">+ HalfDiskSegmentation()</text>
<text text-anchor="start" x="7" y="-106.5" font-family="Helvetica,sans-Serif" font-size="10.00">+ ~HalfDiskSegmentation()</text>
<text text-anchor="start" x="7" y="-95.5" font-family="Helvetica,sans-Serif" font-size="10.00">+ Clear()</text>
<text text-anchor="start" x="7" y="-84.5" font-family="Helvetica,sans-Serif" font-size="10.00">+ print()</text>
<text text-anchor="start" x="7" y="-73.5" font-family="Helvetica,sans-Serif" font-size="10.00">+ createLadders()</text>
<text text-anchor="start" x="7" y="-62.5" font-family="Helvetica,sans-Serif" font-size="10.00">+ getNLaddersBuild()</text>
<text text-anchor="start" x="7" y="-51.5" font-family="Helvetica,sans-Serif" font-size="10.00">+ getNLadders()</text>
<text text-anchor="start" x="7" y="-40.5" font-family="Helvetica,sans-Serif" font-size="10.00">+ setNLadders()</text>
<text text-anchor="start" x="7" y="-29.5" font-family="Helvetica,sans-Serif" font-size="10.00">+ getLadder()</text>
<text text-anchor="start" x="7" y="-18.5" font-family="Helvetica,sans-Serif" font-size="10.00">+ getZ()</text>
<text text-anchor="start" x="7" y="-7.5" font-family="Helvetica,sans-Serif" font-size="10.00">+ getNChips()</text>
</g>
<!-- Node2 -->
<g id="node2" class="node"><title>Node2</title>
<g id="a_node2"><a xlink:href="../../d9/d15/classo2_1_1MFT_1_1VSegmentation.html" target="_top" xlink:title="{o2::MFT::VSegmentation\n||+ VSegmentation()\l+ VSegmentation()\l+ ~VSegmentation()\l+ setPosition()\l+ setRotationAngles()\l+ rotateX()\l+ rotateY()\l+ rotateZ()\l+ getTransformation()\l}">
<polygon fill="none" stroke="black" points="15,-226.5 15,-371.5 141,-371.5 141,-226.5 15,-226.5"/>
<text text-anchor="middle" x="78" y="-359.5" font-family="Helvetica,sans-Serif" font-size="10.00">o2::MFT::VSegmentation</text>
<polyline fill="none" stroke="black" points="15,-352.5 141,-352.5 "/>
<text text-anchor="middle" x="78" y="-340.5" font-family="Helvetica,sans-Serif" font-size="10.00"> </text>
<polyline fill="none" stroke="black" points="15,-333.5 141,-333.5 "/>
<text text-anchor="start" x="23" y="-321.5" font-family="Helvetica,sans-Serif" font-size="10.00">+ VSegmentation()</text>
<text text-anchor="start" x="23" y="-310.5" font-family="Helvetica,sans-Serif" font-size="10.00">+ VSegmentation()</text>
<text text-anchor="start" x="23" y="-299.5" font-family="Helvetica,sans-Serif" font-size="10.00">+ ~VSegmentation()</text>
<text text-anchor="start" x="23" y="-288.5" font-family="Helvetica,sans-Serif" font-size="10.00">+ setPosition()</text>
<text text-anchor="start" x="23" y="-277.5" font-family="Helvetica,sans-Serif" font-size="10.00">+ setRotationAngles()</text>
<text text-anchor="start" x="23" y="-266.5" font-family="Helvetica,sans-Serif" font-size="10.00">+ rotateX()</text>
<text text-anchor="start" x="23" y="-255.5" font-family="Helvetica,sans-Serif" font-size="10.00">+ rotateY()</text>
<text text-anchor="start" x="23" y="-244.5" font-family="Helvetica,sans-Serif" font-size="10.00">+ rotateZ()</text>
<text text-anchor="start" x="23" y="-233.5" font-family="Helvetica,sans-Serif" font-size="10.00">+ getTransformation()</text>
</a>
</g>
</g>
<!-- Node2&#45;&gt;Node1 -->
<g id="edge1" class="edge"><title>Node2&#45;&gt;Node1</title>
<path fill="none" stroke="midnightblue" d="M78,-216.317C78,-207.552 78,-198.584 78,-189.693"/>
<polygon fill="none" stroke="midnightblue" points="74.5001,-216.498 78,-226.498 81.5001,-216.498 74.5001,-216.498"/>
</g>
<!-- Node3 -->
<g id="node3" class="node"><title>Node3</title>
<polygon fill="none" stroke="#bfbfbf" points="51,-408.5 51,-465.5 105,-465.5 105,-408.5 51,-408.5"/>
<text text-anchor="middle" x="78" y="-453.5" font-family="Helvetica,sans-Serif" font-size="10.00">TNamed</text>
<polyline fill="none" stroke="#bfbfbf" points="51,-446.5 105,-446.5 "/>
<text text-anchor="middle" x="78" y="-434.5" font-family="Helvetica,sans-Serif" font-size="10.00"> </text>
<polyline fill="none" stroke="#bfbfbf" points="51,-427.5 105,-427.5 "/>
<text text-anchor="middle" x="78" y="-415.5" font-family="Helvetica,sans-Serif" font-size="10.00"> </text>
</g>
<!-- Node3&#45;&gt;Node2 -->
<g id="edge2" class="edge"><title>Node3&#45;&gt;Node2</title>
<path fill="none" stroke="midnightblue" d="M78,-398.356C78,-389.999 78,-380.872 78,-371.656"/>
<polygon fill="none" stroke="midnightblue" points="74.5001,-398.478 78,-408.478 81.5001,-398.478 74.5001,-398.478"/>
</g>
</g>
</svg>
