<?xml version="1.0" encoding="UTF-8" standalone="no"?>
<!DOCTYPE svg PUBLIC "-//W3C//DTD SVG 1.1//EN"
 "http://www.w3.org/Graphics/SVG/1.1/DTD/svg11.dtd">
<!-- Generated by graphviz version 2.36.0 (20140111.2315)
 -->
<!-- Title: o2::framework::is_specialization&lt; T, Ref &gt; Pages: 1 -->
<svg width="164pt" height="172pt"
 viewBox="0.00 0.00 164.00 172.00" xmlns="http://www.w3.org/2000/svg" xmlns:xlink="http://www.w3.org/1999/xlink">
<g id="graph0" class="graph" transform="scale(1 1) rotate(0) translate(4 168)">
<title>o2::framework::is_specialization&lt; T, Ref &gt;</title>
<!-- Node1 -->
<g id="node1" class="node"><title>Node1</title>
<polygon fill="#bfbfbf" stroke="black" points="-0.5,-1 -0.5,-69 156.5,-69 156.5,-1 -0.5,-1"/>
<text text-anchor="start" x="7.5" y="-57" font-family="Helvetica,sans-Serif" font-size="10.00">o2::framework::is_specialization</text>
<text text-anchor="middle" x="78" y="-46" font-family="Helvetica,sans-Serif" font-size="10.00">&lt; T, Ref &gt;</text>
<polyline fill="none" stroke="black" points="-0.5,-39 156.5,-39 "/>
<text text-anchor="middle" x="78" y="-27" font-family="Helvetica,sans-Serif" font-size="10.00"> </text>
<polyline fill="none" stroke="black" points="-0.5,-20 156.5,-20 "/>
<text text-anchor="middle" x="78" y="-8" font-family="Helvetica,sans-Serif" font-size="10.00"> </text>
</g>
<!-- Node2 -->
<g id="node2" class="node"><title>Node2</title>
<polygon fill="none" stroke="#bfbfbf" points="47,-106.5 47,-163.5 109,-163.5 109,-106.5 47,-106.5"/>
<text text-anchor="middle" x="78" y="-151.5" font-family="Helvetica,sans-Serif" font-size="10.00">false_type</text>
<polyline fill="none" stroke="#bfbfbf" points="47,-144.5 109,-144.5 "/>
<text text-anchor="middle" x="78" y="-132.5" font-family="Helvetica,sans-Serif" font-size="10.00"> </text>
<polyline fill="none" stroke="#bfbfbf" points="47,-125.5 109,-125.5 "/>
<text text-anchor="middle" x="78" y="-113.5" font-family="Helvetica,sans-Serif" font-size="10.00"> </text>
</g>
<!-- Node2&#45;&gt;Node1 -->
<g id="edge1" class="edge"><title>Node2&#45;&gt;Node1</title>
<path fill="none" stroke="midnightblue" d="M78,-96.3023C78,-87.3951 78,-77.9608 78,-69.2659"/>
<polygon fill="none" stroke="midnightblue" points="74.5001,-96.4407 78,-106.441 81.5001,-96.4408 74.5001,-96.4407"/>
</g>
</g>
</svg>
