<?xml version="1.0" encoding="UTF-8" standalone="no"?>
<!DOCTYPE svg PUBLIC "-//W3C//DTD SVG 1.1//EN"
 "http://www.w3.org/Graphics/SVG/1.1/DTD/svg11.dtd">
<!-- Generated by graphviz version 2.36.0 (20140111.2315)
 -->
<!-- Title: /home/travis/build/AliceO2Group/AliceO2/Detectors/ITSMFT/ITS/workflow/include Pages: 1 -->
<svg width="239pt" height="303pt"
 viewBox="0.00 0.00 238.57 303.00" xmlns="http://www.w3.org/2000/svg" xmlns:xlink="http://www.w3.org/1999/xlink">
<g id="graph0" class="graph" transform="scale(1 1) rotate(0) translate(4 299)">
<title>/home/travis/build/AliceO2Group/AliceO2/Detectors/ITSMFT/ITS/workflow/include</title>
<g id="clust1" class="cluster"><title>clusterdir_1c10308a10e2a510f98c8482fd126054</title>
<g id="a_clust1"><a xlink:href="dir_1c10308a10e2a510f98c8482fd126054.html" target="_top" xlink:title="workflow">
<polygon fill="#ddddee" stroke="black" points="44.5694,-200 44.5694,-287 222.569,-287 222.569,-200 44.5694,-200"/>
<text text-anchor="middle" x="133.569" y="-275" font-family="Helvetica,sans-Serif" font-size="10.00">workflow</text>
</a>
</g>
</g>
<g id="clust2" class="cluster"><title>clusterdir_618fe6153adfd0aa136e98ba4badcb47</title>
<g id="a_clust2"><a xlink:href="dir_618fe6153adfd0aa136e98ba4badcb47.html" target="_top">
<polygon fill="#eeeeff" stroke="black" points="52.5694,-208 52.5694,-260 214.569,-260 214.569,-208 52.5694,-208"/>
</a>
</g>
</g>
<!-- dir_618fe6153adfd0aa136e98ba4badcb47 -->
<g id="node1" class="node"><title>dir_618fe6153adfd0aa136e98ba4badcb47</title>
<text text-anchor="middle" x="179.569" y="-231.5" font-family="Helvetica,sans-Serif" font-size="10.00">include</text>
</g>
<!-- dir_2c40afba594fde3eef37ddd5abe3c060 -->
<g id="node2" class="node"><title>dir_2c40afba594fde3eef37ddd5abe3c060</title>
<g id="a_node2"><a xlink:href="dir_2c40afba594fde3eef37ddd5abe3c060.html" target="_top" xlink:title="ITSWorkflow">
<polygon fill="white" stroke="black" points="134.569,-252 60.5694,-252 60.5694,-216 134.569,-216 134.569,-252"/>
<text text-anchor="middle" x="97.5694" y="-231.5" font-family="Helvetica,sans-Serif" font-size="10.00">ITSWorkflow</text>
</a>
</g>
</g>
<!-- dir_85bf31a2e8d306e7598ffcb73f8df6bf -->
<g id="node3" class="node"><title>dir_85bf31a2e8d306e7598ffcb73f8df6bf</title>
<g id="a_node3"><a xlink:href="dir_85bf31a2e8d306e7598ffcb73f8df6bf.html" target="_top" xlink:title="common">
<polygon fill="none" stroke="red" points="76.5694,-108 22.5694,-108 22.5694,-72 76.5694,-72 76.5694,-108"/>
<text text-anchor="middle" x="49.5694" y="-87.5" font-family="Helvetica,sans-Serif" font-size="10.00">common</text>
</a>
</g>
</g>
<!-- dir_2c40afba594fde3eef37ddd5abe3c060&#45;&gt;dir_85bf31a2e8d306e7598ffcb73f8df6bf -->
<g id="edge1" class="edge"><title>dir_2c40afba594fde3eef37ddd5abe3c060&#45;&gt;dir_85bf31a2e8d306e7598ffcb73f8df6bf</title>
<path fill="none" stroke="black" d="M60.5072,-222.114C40.1347,-214.023 16.6141,-200.727 4.5694,-180 -7.83772,-158.649 7.54755,-133.463 23.6084,-115.343"/>
<polygon fill="black" stroke="black" points="26.1676,-117.731 30.4539,-108.042 21.0609,-112.943 26.1676,-117.731"/>
<g id="a_edge1&#45;headlabel"><a xlink:href="dir_000317_000224.html" target="_top" xlink:title="1">
<text text-anchor="middle" x="25.7803" y="-119.795" font-family="Helvetica,sans-Serif" font-size="10.00">1</text>
</a>
</g>
</g>
<!-- dir_5125ceb2b58f632ed0a3019fe2d5cbbc -->
<g id="node4" class="node"><title>dir_5125ceb2b58f632ed0a3019fe2d5cbbc</title>
<g id="a_node4"><a xlink:href="dir_5125ceb2b58f632ed0a3019fe2d5cbbc.html" target="_top" xlink:title="reconstruction">
<polygon fill="none" stroke="red" points="91.5694,-180 13.5694,-180 13.5694,-144 91.5694,-144 91.5694,-180"/>
<text text-anchor="middle" x="52.5694" y="-159.5" font-family="Helvetica,sans-Serif" font-size="10.00">reconstruction</text>
</a>
</g>
</g>
<!-- dir_2c40afba594fde3eef37ddd5abe3c060&#45;&gt;dir_5125ceb2b58f632ed0a3019fe2d5cbbc -->
<g id="edge2" class="edge"><title>dir_2c40afba594fde3eef37ddd5abe3c060&#45;&gt;dir_5125ceb2b58f632ed0a3019fe2d5cbbc</title>
<path fill="none" stroke="black" d="M86.4458,-215.697C81.2144,-207.559 74.8695,-197.689 69.0916,-188.701"/>
<polygon fill="black" stroke="black" points="71.9168,-186.623 63.565,-180.104 66.0285,-190.409 71.9168,-186.623"/>
<g id="a_edge2&#45;headlabel"><a xlink:href="dir_000317_000297.html" target="_top" xlink:title="1">
<text text-anchor="middle" x="76.2489" y="-185.612" font-family="Helvetica,sans-Serif" font-size="10.00">1</text>
</a>
</g>
</g>
<!-- dir_bcbb2cf9a3d3d83e5515c82071a07177 -->
<g id="node5" class="node"><title>dir_bcbb2cf9a3d3d83e5515c82071a07177</title>
<g id="a_node5"><a xlink:href="dir_bcbb2cf9a3d3d83e5515c82071a07177.html" target="_top" xlink:title="Framework">
<polygon fill="none" stroke="red" points="174.819,-180 110.319,-180 110.319,-144 174.819,-144 174.819,-180"/>
<text text-anchor="middle" x="142.569" y="-159.5" font-family="Helvetica,sans-Serif" font-size="10.00">Framework</text>
</a>
</g>
</g>
<!-- dir_2c40afba594fde3eef37ddd5abe3c060&#45;&gt;dir_bcbb2cf9a3d3d83e5515c82071a07177 -->
<g id="edge3" class="edge"><title>dir_2c40afba594fde3eef37ddd5abe3c060&#45;&gt;dir_bcbb2cf9a3d3d83e5515c82071a07177</title>
<path fill="none" stroke="black" d="M108.693,-215.697C113.924,-207.559 120.269,-197.689 126.047,-188.701"/>
<polygon fill="black" stroke="black" points="129.11,-190.409 131.574,-180.104 123.222,-186.623 129.11,-190.409"/>
<g id="a_edge3&#45;headlabel"><a xlink:href="dir_000317_000036.html" target="_top" xlink:title="12">
<text text-anchor="middle" x="129.555" y="-192.468" font-family="Helvetica,sans-Serif" font-size="10.00">12</text>
</a>
</g>
</g>
<!-- dir_2171f7ec022c5423887b07c69b2f5b48 -->
<g id="node6" class="node"><title>dir_2171f7ec022c5423887b07c69b2f5b48</title>
<g id="a_node6"><a xlink:href="dir_2171f7ec022c5423887b07c69b2f5b48.html" target="_top" xlink:title="DataFormats">
<polygon fill="none" stroke="red" points="160.569,-36 86.5694,-36 86.5694,-0 160.569,-0 160.569,-36"/>
<text text-anchor="middle" x="123.569" y="-15.5" font-family="Helvetica,sans-Serif" font-size="10.00">DataFormats</text>
</a>
</g>
</g>
<!-- dir_2c40afba594fde3eef37ddd5abe3c060&#45;&gt;dir_2171f7ec022c5423887b07c69b2f5b48 -->
<g id="edge4" class="edge"><title>dir_2c40afba594fde3eef37ddd5abe3c060&#45;&gt;dir_2171f7ec022c5423887b07c69b2f5b48</title>
<path fill="none" stroke="black" d="M120.015,-215.815C127.356,-210.491 135.659,-204.774 143.569,-200 160.587,-189.73 173.12,-196.908 183.569,-180 210.893,-135.789 173.23,-77.1799 146.384,-44.2508"/>
<polygon fill="black" stroke="black" points="148.95,-41.8632 139.838,-36.4567 143.589,-46.3652 148.95,-41.8632"/>
<g id="a_edge4&#45;headlabel"><a xlink:href="dir_000317_000055.html" target="_top" xlink:title="1">
<text text-anchor="middle" x="153.436" y="-40.2897" font-family="Helvetica,sans-Serif" font-size="10.00">1</text>
</a>
</g>
</g>
<!-- dir_85bf31a2e8d306e7598ffcb73f8df6bf&#45;&gt;dir_2171f7ec022c5423887b07c69b2f5b48 -->
<g id="edge5" class="edge"><title>dir_85bf31a2e8d306e7598ffcb73f8df6bf&#45;&gt;dir_2171f7ec022c5423887b07c69b2f5b48</title>
<path fill="none" stroke="black" d="M67.8615,-71.6966C77.002,-63.0503 88.2095,-52.4486 98.1694,-43.027"/>
<polygon fill="black" stroke="black" points="100.628,-45.519 105.488,-36.1043 95.8178,-40.4337 100.628,-45.519"/>
<g id="a_edge5&#45;headlabel"><a xlink:href="dir_000224_000055.html" target="_top" xlink:title="30">
<text text-anchor="middle" x="99.968" y="-47.5518" font-family="Helvetica,sans-Serif" font-size="10.00">30</text>
</a>
</g>
</g>
<!-- dir_5125ceb2b58f632ed0a3019fe2d5cbbc&#45;&gt;dir_85bf31a2e8d306e7598ffcb73f8df6bf -->
<g id="edge6" class="edge"><title>dir_5125ceb2b58f632ed0a3019fe2d5cbbc&#45;&gt;dir_85bf31a2e8d306e7598ffcb73f8df6bf</title>
<path fill="none" stroke="black" d="M51.8278,-143.697C51.4972,-135.983 51.0999,-126.712 50.7314,-118.112"/>
<polygon fill="black" stroke="black" points="54.2275,-117.945 50.3024,-108.104 47.2339,-118.245 54.2275,-117.945"/>
<g id="a_edge6&#45;headlabel"><a xlink:href="dir_000297_000224.html" target="_top" xlink:title="9">
<text text-anchor="middle" x="57.218" y="-118.915" font-family="Helvetica,sans-Serif" font-size="10.00">9</text>
</a>
</g>
</g>
<!-- dir_5125ceb2b58f632ed0a3019fe2d5cbbc&#45;&gt;dir_2171f7ec022c5423887b07c69b2f5b48 -->
<g id="edge7" class="edge"><title>dir_5125ceb2b58f632ed0a3019fe2d5cbbc&#45;&gt;dir_2171f7ec022c5423887b07c69b2f5b48</title>
<path fill="none" stroke="black" d="M64.2623,-143.729C70.9099,-133.555 79.1599,-120.305 85.5694,-108 96.1945,-87.6019 106.322,-63.5697 113.446,-45.6228"/>
<polygon fill="black" stroke="black" points="116.793,-46.6747 117.177,-36.0869 110.274,-44.1244 116.793,-46.6747"/>
<g id="a_edge7&#45;headlabel"><a xlink:href="dir_000297_000055.html" target="_top" xlink:title="19">
<text text-anchor="middle" x="118.128" y="-48.5567" font-family="Helvetica,sans-Serif" font-size="10.00">19</text>
</a>
</g>
</g>
<!-- dir_bcbb2cf9a3d3d83e5515c82071a07177&#45;&gt;dir_2171f7ec022c5423887b07c69b2f5b48 -->
<g id="edge8" class="edge"><title>dir_bcbb2cf9a3d3d83e5515c82071a07177&#45;&gt;dir_2171f7ec022c5423887b07c69b2f5b48</title>
<path fill="none" stroke="black" d="M140.278,-143.871C137.039,-119.67 131.091,-75.2108 127.235,-46.3932"/>
<polygon fill="black" stroke="black" points="130.665,-45.6367 125.869,-36.1893 123.727,-46.5651 130.665,-45.6367"/>
<g id="a_edge8&#45;headlabel"><a xlink:href="dir_000036_000055.html" target="_top" xlink:title="47">
<text text-anchor="middle" x="133.956" y="-46.3231" font-family="Helvetica,sans-Serif" font-size="10.00">47</text>
</a>
</g>
</g>
</g>
</svg>
