<?xml version="1.0" encoding="UTF-8" standalone="no"?>
<!DOCTYPE svg PUBLIC "-//W3C//DTD SVG 1.1//EN"
 "http://www.w3.org/Graphics/SVG/1.1/DTD/svg11.dtd">
<!-- Generated by graphviz version 2.36.0 (20140111.2315)
 -->
<!-- Title: /home/travis/build/AliceO2Group/AliceO2/Detectors/PHOS/reconstruction/include Pages: 1 -->
<svg width="239pt" height="231pt"
 viewBox="0.00 0.00 239.00 231.00" xmlns="http://www.w3.org/2000/svg" xmlns:xlink="http://www.w3.org/1999/xlink">
<g id="graph0" class="graph" transform="scale(1 1) rotate(0) translate(4 227)">
<title>/home/travis/build/AliceO2Group/AliceO2/Detectors/PHOS/reconstruction/include</title>
<g id="clust1" class="cluster"><title>clusterdir_da16e9ad2b18bb132f2d9a9746692e88</title>
<g id="a_clust1"><a xlink:href="dir_da16e9ad2b18bb132f2d9a9746692e88.html" target="_top" xlink:title="reconstruction">
<polygon fill="#ddddee" stroke="black" points="8,-128 8,-215 223,-215 223,-128 8,-128"/>
<text text-anchor="middle" x="115.5" y="-203" font-family="Helvetica,sans-Serif" font-size="10.00">reconstruction</text>
</a>
</g>
</g>
<g id="clust2" class="cluster"><title>clusterdir_31b4a6c34d54b2347b970402ffd45e26</title>
<g id="a_clust2"><a xlink:href="dir_31b4a6c34d54b2347b970402ffd45e26.html" target="_top">
<polygon fill="#eeeeff" stroke="black" points="16,-136 16,-188 215,-188 215,-136 16,-136"/>
</a>
</g>
</g>
<!-- dir_31b4a6c34d54b2347b970402ffd45e26 -->
<g id="node1" class="node"><title>dir_31b4a6c34d54b2347b970402ffd45e26</title>
<text text-anchor="middle" x="180" y="-159.5" font-family="Helvetica,sans-Serif" font-size="10.00">include</text>
</g>
<!-- dir_6eae14b033f2ceabd5b808883edf11bd -->
<g id="node2" class="node"><title>dir_6eae14b033f2ceabd5b808883edf11bd</title>
<g id="a_node2"><a xlink:href="dir_6eae14b033f2ceabd5b808883edf11bd.html" target="_top" xlink:title="PHOSReconstruction">
<polygon fill="white" stroke="black" points="134.25,-180 23.75,-180 23.75,-144 134.25,-144 134.25,-180"/>
<text text-anchor="middle" x="79" y="-159.5" font-family="Helvetica,sans-Serif" font-size="10.00">PHOSReconstruction</text>
</a>
</g>
</g>
<!-- dir_fa21b46838f21636bfdcc60e4853f0ed -->
<g id="node3" class="node"><title>dir_fa21b46838f21636bfdcc60e4853f0ed</title>
<g id="a_node3"><a xlink:href="dir_fa21b46838f21636bfdcc60e4853f0ed.html" target="_top" xlink:title="base">
<polygon fill="none" stroke="red" points="79,-108 25,-108 25,-72 79,-72 79,-108"/>
<text text-anchor="middle" x="52" y="-87.5" font-family="Helvetica,sans-Serif" font-size="10.00">base</text>
</a>
</g>
</g>
<!-- dir_6eae14b033f2ceabd5b808883edf11bd&#45;&gt;dir_fa21b46838f21636bfdcc60e4853f0ed -->
<g id="edge2" class="edge"><title>dir_6eae14b033f2ceabd5b808883edf11bd&#45;&gt;dir_fa21b46838f21636bfdcc60e4853f0ed</title>
<path fill="none" stroke="black" d="M72.3258,-143.697C69.2851,-135.813 65.6173,-126.304 62.2393,-117.546"/>
<polygon fill="black" stroke="black" points="65.4617,-116.175 58.5974,-108.104 58.9307,-118.694 65.4617,-116.175"/>
<g id="a_edge2&#45;headlabel"><a xlink:href="dir_000090_000228.html" target="_top" xlink:title="1">
<text text-anchor="middle" x="69.4043" y="-116.007" font-family="Helvetica,sans-Serif" font-size="10.00">1</text>
</a>
</g>
</g>
<!-- dir_2171f7ec022c5423887b07c69b2f5b48 -->
<g id="node4" class="node"><title>dir_2171f7ec022c5423887b07c69b2f5b48</title>
<g id="a_node4"><a xlink:href="dir_2171f7ec022c5423887b07c69b2f5b48.html" target="_top" xlink:title="DataFormats">
<polygon fill="none" stroke="red" points="116,-36 42,-36 42,-0 116,-0 116,-36"/>
<text text-anchor="middle" x="79" y="-15.5" font-family="Helvetica,sans-Serif" font-size="10.00">DataFormats</text>
</a>
</g>
</g>
<!-- dir_6eae14b033f2ceabd5b808883edf11bd&#45;&gt;dir_2171f7ec022c5423887b07c69b2f5b48 -->
<g id="edge3" class="edge"><title>dir_6eae14b033f2ceabd5b808883edf11bd&#45;&gt;dir_2171f7ec022c5423887b07c69b2f5b48</title>
<path fill="none" stroke="black" d="M82.6538,-143.908C84.6758,-133.569 86.9808,-120.09 88,-108 89.3441,-92.0566 89.3441,-87.9434 88,-72 87.2834,-63.4991 85.9311,-54.3119 84.4884,-46.0122"/>
<polygon fill="black" stroke="black" points="87.9142,-45.2892 82.6538,-36.0925 81.0309,-46.5623 87.9142,-45.2892"/>
<g id="a_edge3&#45;headlabel"><a xlink:href="dir_000090_000055.html" target="_top" xlink:title="1">
<text text-anchor="middle" x="91.3597" y="-45.8075" font-family="Helvetica,sans-Serif" font-size="10.00">1</text>
</a>
</g>
</g>
<!-- dir_fa21b46838f21636bfdcc60e4853f0ed&#45;&gt;dir_2171f7ec022c5423887b07c69b2f5b48 -->
<g id="edge1" class="edge"><title>dir_fa21b46838f21636bfdcc60e4853f0ed&#45;&gt;dir_2171f7ec022c5423887b07c69b2f5b48</title>
<path fill="none" stroke="black" d="M58.6742,-71.6966C61.7149,-63.8132 65.3827,-54.3042 68.7607,-45.5464"/>
<polygon fill="black" stroke="black" points="72.0693,-46.6939 72.4026,-36.1043 65.5383,-44.1748 72.0693,-46.6939"/>
<g id="a_edge1&#45;headlabel"><a xlink:href="dir_000228_000055.html" target="_top" xlink:title="3">
<text text-anchor="middle" x="73.4248" y="-48.5695" font-family="Helvetica,sans-Serif" font-size="10.00">3</text>
</a>
</g>
</g>
</g>
</svg>
