<?xml version="1.0" encoding="UTF-8" standalone="no"?>
<!DOCTYPE svg PUBLIC "-//W3C//DTD SVG 1.1//EN"
 "http://www.w3.org/Graphics/SVG/1.1/DTD/svg11.dtd">
<!-- Generated by graphviz version 2.36.0 (20140111.2315)
 -->
<!-- Title: /home/travis/build/AliceO2Group/AliceO2/Detectors/ITSMFT/ITS Pages: 1 -->
<!--zoomable 447 -->
<svg id="main" version="1.1" xmlns="http://www.w3.org/2000/svg" xmlns:xlink="http://www.w3.org/1999/xlink" xml:space="preserve" onload="init(evt)">
<style type="text/css"><![CDATA[
.edge:hover path { stroke: red; }
.edge:hover polygon { stroke: red; fill: red; }
]]></style>
<script type="text/javascript"><![CDATA[
var edges = document.getElementsByTagName('g');
if (edges && edges.length) {
  for (var i=0;i<edges.length;i++) {
    if (edges[i].id.substr(0,4)=='edge') {
      edges[i].setAttribute('class','edge');
    }
  }
}
]]></script>
        <defs>
                <circle id="rim" cx="0" cy="0" r="7"/>
                <circle id="rim2" cx="0" cy="0" r="3.5"/>
                <g id="zoomPlus">
                        <use xlink:href="#rim" fill="#404040">
                                <set attributeName="fill" to="#808080" begin="zoomplus.mouseover" end="zoomplus.mouseout"/>
                        </use>
                        <path d="M-4,0h8M0,-4v8" fill="none" stroke="white" stroke-width="1.5" pointer-events="none"/>
                </g>
                <g id="zoomMin">
                        <use xlink:href="#rim" fill="#404040">
                                <set attributeName="fill" to="#808080" begin="zoomminus.mouseover" end="zoomminus.mouseout"/>
                        </use>
                        <path d="M-4,0h8" fill="none" stroke="white" stroke-width="1.5" pointer-events="none"/>
                </g>
                <g id="dirArrow">
                        <path fill="none" stroke="white" stroke-width="1.5" d="M0,-3.0v7 M-2.5,-0.5L0,-3.0L2.5,-0.5"/>
                </g>
               <g id="resetDef">
                       <use xlink:href="#rim2" fill="#404040">
                               <set attributeName="fill" to="#808080" begin="reset.mouseover" end="reset.mouseout"/>
                       </use>
               </g>
        </defs>

<script type="text/javascript">
var viewWidth = 991;
var viewHeight = 447;
var sectionId = 'dynsection-0';
</script>
<script xlink:href="svgpan.js"/>
<svg id="graph" class="graph">
<g id="viewport">
<title>/home/travis/build/AliceO2Group/AliceO2/Detectors/ITSMFT/ITS</title>
<g id="clust1" class="cluster"><title>clusterdir_1306292b77b40360479b729ac9ee7efe</title>
<g id="a_clust1"><a xlink:href="dir_1306292b77b40360479b729ac9ee7efe.html" target="_top" xlink:title="ITSMFT">
<polygon fill="#ddddee" stroke="black" points="380.63,-200 380.63,-431 734.63,-431 734.63,-200 380.63,-200"/>
<text text-anchor="middle" x="557.63" y="-419" font-family="Helvetica,sans-Serif" font-size="10.00">ITSMFT</text>
</a>
</g>
</g>
<g id="clust2" class="cluster"><title>clusterdir_871aad07cbf94d6cd423c3d8d5bdf4e9</title>
<g id="a_clust2"><a xlink:href="dir_871aad07cbf94d6cd423c3d8d5bdf4e9.html" target="_top">
<polygon fill="#eeeeff" stroke="black" points="388.63,-208 388.63,-404 726.63,-404 726.63,-208 388.63,-208"/>
</a>
</g>
</g>
<!-- dir_871aad07cbf94d6cd423c3d8d5bdf4e9 -->
<g id="node1" class="node"><title>dir_871aad07cbf94d6cd423c3d8d5bdf4e9</title>
<text text-anchor="middle" x="642.63" y="-375.5" font-family="Helvetica,sans-Serif" font-size="10.00">ITS</text>
</g>
<!-- dir_eedff867f3c4e67d20b227cb6e0f96ab -->
<g id="node2" class="node"><title>dir_eedff867f3c4e67d20b227cb6e0f96ab</title>
<g id="a_node2"><a xlink:href="dir_eedff867f3c4e67d20b227cb6e0f96ab.html" target="_top" xlink:title="base">
<polygon fill="white" stroke="red" points="526.63,-252 472.63,-252 472.63,-216 526.63,-216 526.63,-252"/>
<text text-anchor="middle" x="499.63" y="-231.5" font-family="Helvetica,sans-Serif" font-size="10.00">base</text>
</a>
</g>
</g>
<!-- dir_4ab6b4cc6a7edbff49100e9123df213f -->
<g id="node8" class="node"><title>dir_4ab6b4cc6a7edbff49100e9123df213f</title>
<g id="a_node8"><a xlink:href="dir_4ab6b4cc6a7edbff49100e9123df213f.html" target="_top" xlink:title="Common">
<polygon fill="none" stroke="red" points="271.13,-180 216.13,-180 216.13,-144 271.13,-144 271.13,-180"/>
<text text-anchor="middle" x="243.63" y="-159.5" font-family="Helvetica,sans-Serif" font-size="10.00">Common</text>
</a>
</g>
</g>
<!-- dir_eedff867f3c4e67d20b227cb6e0f96ab&#45;&gt;dir_4ab6b4cc6a7edbff49100e9123df213f -->
<g id="edge1" class="edge"><title>dir_eedff867f3c4e67d20b227cb6e0f96ab&#45;&gt;dir_4ab6b4cc6a7edbff49100e9123df213f</title>
<path fill="none" stroke="black" d="M481.702,-215.716C474.695,-209.864 466.272,-203.845 457.63,-200 399.709,-174.232 325.559,-166.352 281.483,-163.978"/>
<polygon fill="black" stroke="black" points="281.373,-160.469 271.22,-163.496 281.045,-167.461 281.373,-160.469"/>
<g id="a_edge1&#45;headlabel"><a xlink:href="dir_000277_000016.html" target="_top" xlink:title="2">
<text text-anchor="middle" x="285.097" y="-155.301" font-family="Helvetica,sans-Serif" font-size="10.00">2</text>
</a>
</g>
</g>
<!-- dir_37c90836491b695b472bf98d1be8336b -->
<g id="node10" class="node"><title>dir_37c90836491b695b472bf98d1be8336b</title>
<g id="a_node10"><a xlink:href="dir_37c90836491b695b472bf98d1be8336b.html" target="_top" xlink:title="Base">
<polygon fill="none" stroke="red" points="615.63,-36 561.63,-36 561.63,-0 615.63,-0 615.63,-36"/>
<text text-anchor="middle" x="588.63" y="-15.5" font-family="Helvetica,sans-Serif" font-size="10.00">Base</text>
</a>
</g>
</g>
<!-- dir_eedff867f3c4e67d20b227cb6e0f96ab&#45;&gt;dir_37c90836491b695b472bf98d1be8336b -->
<g id="edge2" class="edge"><title>dir_eedff867f3c4e67d20b227cb6e0f96ab&#45;&gt;dir_37c90836491b695b472bf98d1be8336b</title>
<path fill="none" stroke="black" d="M526.861,-217.552C540.421,-208.409 555.772,-195.566 564.63,-180 588.594,-137.89 591.224,-79.9729 590.348,-46.3077"/>
<polygon fill="black" stroke="black" points="593.844,-46.1386 589.963,-36.2803 586.849,-46.4073 593.844,-46.1386"/>
<g id="a_edge2&#45;headlabel"><a xlink:href="dir_000277_000160.html" target="_top" xlink:title="2">
<text text-anchor="middle" x="596.819" y="-47.1216" font-family="Helvetica,sans-Serif" font-size="10.00">2</text>
</a>
</g>
</g>
<!-- dir_85bf31a2e8d306e7598ffcb73f8df6bf -->
<g id="node12" class="node"><title>dir_85bf31a2e8d306e7598ffcb73f8df6bf</title>
<g id="a_node12"><a xlink:href="dir_85bf31a2e8d306e7598ffcb73f8df6bf.html" target="_top" xlink:title="common">
<polygon fill="none" stroke="red" points="372.63,-252 318.63,-252 318.63,-216 372.63,-216 372.63,-252"/>
<text text-anchor="middle" x="345.63" y="-231.5" font-family="Helvetica,sans-Serif" font-size="10.00">common</text>
</a>
</g>
</g>
<!-- dir_eedff867f3c4e67d20b227cb6e0f96ab&#45;&gt;dir_85bf31a2e8d306e7598ffcb73f8df6bf -->
<g id="edge3" class="edge"><title>dir_eedff867f3c4e67d20b227cb6e0f96ab&#45;&gt;dir_85bf31a2e8d306e7598ffcb73f8df6bf</title>
<path fill="none" stroke="black" d="M472.36,-234C442.514,-234 412.668,-234 382.822,-234"/>
<polygon fill="black" stroke="black" points="382.701,-230.5 372.701,-234 382.701,-237.5 382.701,-230.5"/>
<g id="a_edge3&#45;headlabel"><a xlink:href="dir_000277_000224.html" target="_top" xlink:title="2">
<text text-anchor="middle" x="386.295" y="-225.161" font-family="Helvetica,sans-Serif" font-size="10.00">2</text>
</a>
</g>
</g>
<!-- dir_2171f7ec022c5423887b07c69b2f5b48 -->
<g id="node14" class="node"><title>dir_2171f7ec022c5423887b07c69b2f5b48</title>
<g id="a_node14"><a xlink:href="dir_2171f7ec022c5423887b07c69b2f5b48.html" target="_top" xlink:title="DataFormats">
<polygon fill="none" stroke="red" points="382.63,-108 308.63,-108 308.63,-72 382.63,-72 382.63,-108"/>
<text text-anchor="middle" x="345.63" y="-87.5" font-family="Helvetica,sans-Serif" font-size="10.00">DataFormats</text>
</a>
</g>
</g>
<!-- dir_eedff867f3c4e67d20b227cb6e0f96ab&#45;&gt;dir_2171f7ec022c5423887b07c69b2f5b48 -->
<g id="edge4" class="edge"><title>dir_eedff867f3c4e67d20b227cb6e0f96ab&#45;&gt;dir_2171f7ec022c5423887b07c69b2f5b48</title>
<path fill="none" stroke="black" d="M485.415,-215.685C469.73,-197.049 443.296,-166.989 417.63,-144 405.794,-133.398 391.91,-122.8 379.509,-113.898"/>
<polygon fill="black" stroke="black" points="381.39,-110.941 371.204,-108.027 377.349,-116.657 381.39,-110.941"/>
<g id="a_edge4&#45;headlabel"><a xlink:href="dir_000277_000055.html" target="_top" xlink:title="1">
<text text-anchor="middle" x="385.964" y="-108.198" font-family="Helvetica,sans-Serif" font-size="10.00">1</text>
</a>
</g>
</g>
<!-- dir_d1915fc52ae3a2d414030e7b83b60b4d -->
<g id="node3" class="node"><title>dir_d1915fc52ae3a2d414030e7b83b60b4d</title>
<g id="a_node3"><a xlink:href="dir_d1915fc52ae3a2d414030e7b83b60b4d.html" target="_top" xlink:title="macros">
<polygon fill="white" stroke="red" points="602.63,-324 548.63,-324 548.63,-288 602.63,-288 602.63,-324"/>
<text text-anchor="middle" x="575.63" y="-303.5" font-family="Helvetica,sans-Serif" font-size="10.00">macros</text>
</a>
</g>
</g>
<!-- dir_d1915fc52ae3a2d414030e7b83b60b4d&#45;&gt;dir_eedff867f3c4e67d20b227cb6e0f96ab -->
<g id="edge35" class="edge"><title>dir_d1915fc52ae3a2d414030e7b83b60b4d&#45;&gt;dir_eedff867f3c4e67d20b227cb6e0f96ab</title>
<path fill="none" stroke="black" d="M556.844,-287.697C547.456,-279.05 535.946,-268.449 525.717,-259.027"/>
<polygon fill="black" stroke="black" points="527.927,-256.305 518.201,-252.104 523.185,-261.454 527.927,-256.305"/>
<g id="a_edge35&#45;headlabel"><a xlink:href="dir_000293_000277.html" target="_top" xlink:title="6">
<text text-anchor="middle" x="532.495" y="-254.152" font-family="Helvetica,sans-Serif" font-size="10.00">6</text>
</a>
</g>
</g>
<!-- dir_d1915fc52ae3a2d414030e7b83b60b4d&#45;&gt;dir_4ab6b4cc6a7edbff49100e9123df213f -->
<g id="edge36" class="edge"><title>dir_d1915fc52ae3a2d414030e7b83b60b4d&#45;&gt;dir_4ab6b4cc6a7edbff49100e9123df213f</title>
<path fill="none" stroke="black" d="M548.478,-291.512C545.21,-290.192 541.879,-288.981 538.63,-288 440.003,-258.212 397.768,-305.351 309.63,-252 285.337,-237.295 267.115,-209.955 256.04,-189.441"/>
<polygon fill="black" stroke="black" points="259.013,-187.571 251.32,-180.286 252.791,-190.778 259.013,-187.571"/>
<g id="a_edge36&#45;headlabel"><a xlink:href="dir_000293_000016.html" target="_top" xlink:title="7">
<text text-anchor="middle" x="263.184" y="-186.965" font-family="Helvetica,sans-Serif" font-size="10.00">7</text>
</a>
</g>
</g>
<!-- dir_a597e8e061b11201a1dff411feb10d0b -->
<g id="node9" class="node"><title>dir_a597e8e061b11201a1dff411feb10d0b</title>
<g id="a_node9"><a xlink:href="dir_a597e8e061b11201a1dff411feb10d0b.html" target="_top" xlink:title="TPC">
<polygon fill="none" stroke="red" points="61.6303,-324 7.63029,-324 7.63029,-288 61.6303,-288 61.6303,-324"/>
<text text-anchor="middle" x="34.6303" y="-303.5" font-family="Helvetica,sans-Serif" font-size="10.00">TPC</text>
</a>
</g>
</g>
<!-- dir_d1915fc52ae3a2d414030e7b83b60b4d&#45;&gt;dir_a597e8e061b11201a1dff411feb10d0b -->
<g id="edge37" class="edge"><title>dir_d1915fc52ae3a2d414030e7b83b60b4d&#45;&gt;dir_a597e8e061b11201a1dff411feb10d0b</title>
<path fill="none" stroke="black" d="M558.101,-324.224C550.152,-331.206 540.176,-338.364 529.63,-342 445.055,-371.16 172.002,-329.329 71.8793,-312.488"/>
<polygon fill="black" stroke="black" points="72.3598,-309.019 61.9153,-310.798 71.1893,-315.921 72.3598,-309.019"/>
<g id="a_edge37&#45;headlabel"><a xlink:href="dir_000293_000193.html" target="_top" xlink:title="1">
<text text-anchor="middle" x="76.3785" y="-304.321" font-family="Helvetica,sans-Serif" font-size="10.00">1</text>
</a>
</g>
</g>
<!-- dir_d1915fc52ae3a2d414030e7b83b60b4d&#45;&gt;dir_37c90836491b695b472bf98d1be8336b -->
<g id="edge38" class="edge"><title>dir_d1915fc52ae3a2d414030e7b83b60b4d&#45;&gt;dir_37c90836491b695b472bf98d1be8336b</title>
<path fill="none" stroke="black" d="M602.73,-291.925C632.499,-277.433 676.424,-255.616 678.63,-252 720.294,-183.706 718.332,-141.454 678.63,-72 667.237,-52.0685 645.099,-38.8883 625.632,-30.6566"/>
<polygon fill="black" stroke="black" points="626.646,-27.2946 616.058,-26.8995 624.088,-33.8108 626.646,-27.2946"/>
<g id="a_edge38&#45;headlabel"><a xlink:href="dir_000293_000160.html" target="_top" xlink:title="1">
<text text-anchor="middle" x="631.029" y="-23.4647" font-family="Helvetica,sans-Serif" font-size="10.00">1</text>
</a>
</g>
</g>
<!-- dir_cec808b9cc531f1b0b82d26124335093 -->
<g id="node11" class="node"><title>dir_cec808b9cc531f1b0b82d26124335093</title>
<g id="a_node11"><a xlink:href="dir_cec808b9cc531f1b0b82d26124335093.html" target="_top" xlink:title="EventVisualisation">
<polygon fill="none" stroke="red" points="840.13,-252 743.13,-252 743.13,-216 840.13,-216 840.13,-252"/>
<text text-anchor="middle" x="791.63" y="-231.5" font-family="Helvetica,sans-Serif" font-size="10.00">EventVisualisation</text>
</a>
</g>
</g>
<!-- dir_d1915fc52ae3a2d414030e7b83b60b4d&#45;&gt;dir_cec808b9cc531f1b0b82d26124335093 -->
<g id="edge39" class="edge"><title>dir_d1915fc52ae3a2d414030e7b83b60b4d&#45;&gt;dir_cec808b9cc531f1b0b82d26124335093</title>
<path fill="none" stroke="black" d="M602.958,-291.56C605.859,-290.294 608.788,-289.082 611.63,-288 623.273,-283.568 685.265,-265.51 733.282,-251.692"/>
<polygon fill="black" stroke="black" points="734.342,-255.029 742.986,-248.903 732.408,-248.302 734.342,-255.029"/>
<g id="a_edge39&#45;headlabel"><a xlink:href="dir_000293_000111.html" target="_top" xlink:title="1">
<text text-anchor="middle" x="731.672" y="-256.251" font-family="Helvetica,sans-Serif" font-size="10.00">1</text>
</a>
</g>
</g>
<!-- dir_d1915fc52ae3a2d414030e7b83b60b4d&#45;&gt;dir_85bf31a2e8d306e7598ffcb73f8df6bf -->
<g id="edge40" class="edge"><title>dir_d1915fc52ae3a2d414030e7b83b60b4d&#45;&gt;dir_85bf31a2e8d306e7598ffcb73f8df6bf</title>
<path fill="none" stroke="black" d="M548.402,-291.748C545.147,-290.385 541.84,-289.1 538.63,-288 472.137,-265.212 451.344,-274.134 384.63,-252 383.772,-251.715 382.906,-251.418 382.035,-251.112"/>
<polygon fill="black" stroke="black" points="383.25,-247.83 372.66,-247.531 380.752,-254.369 383.25,-247.83"/>
<g id="a_edge40&#45;headlabel"><a xlink:href="dir_000293_000224.html" target="_top" xlink:title="17">
<text text-anchor="middle" x="387.622" y="-243.96" font-family="Helvetica,sans-Serif" font-size="10.00">17</text>
</a>
</g>
</g>
<!-- dir_d1915fc52ae3a2d414030e7b83b60b4d&#45;&gt;dir_2171f7ec022c5423887b07c69b2f5b48 -->
<g id="edge41" class="edge"><title>dir_d1915fc52ae3a2d414030e7b83b60b4d&#45;&gt;dir_2171f7ec022c5423887b07c69b2f5b48</title>
<path fill="none" stroke="black" d="M548.511,-292.366C515.942,-277.164 465.424,-253.481 463.63,-252 416.73,-213.279 378.677,-151.982 359.383,-117.261"/>
<polygon fill="black" stroke="black" points="362.309,-115.316 354.447,-108.213 356.164,-118.668 362.309,-115.316"/>
<g id="a_edge41&#45;headlabel"><a xlink:href="dir_000293_000055.html" target="_top" xlink:title="30">
<text text-anchor="middle" x="366.523" y="-114.611" font-family="Helvetica,sans-Serif" font-size="10.00">30</text>
</a>
</g>
</g>
<!-- dir_5125ceb2b58f632ed0a3019fe2d5cbbc -->
<g id="node4" class="node"><title>dir_5125ceb2b58f632ed0a3019fe2d5cbbc</title>
<g id="a_node4"><a xlink:href="dir_5125ceb2b58f632ed0a3019fe2d5cbbc.html" target="_top" xlink:title="reconstruction">
<polygon fill="white" stroke="red" points="698.63,-324 620.63,-324 620.63,-288 698.63,-288 698.63,-324"/>
<text text-anchor="middle" x="659.63" y="-303.5" font-family="Helvetica,sans-Serif" font-size="10.00">reconstruction</text>
</a>
</g>
</g>
<!-- dir_5125ceb2b58f632ed0a3019fe2d5cbbc&#45;&gt;dir_eedff867f3c4e67d20b227cb6e0f96ab -->
<g id="edge27" class="edge"><title>dir_5125ceb2b58f632ed0a3019fe2d5cbbc&#45;&gt;dir_eedff867f3c4e67d20b227cb6e0f96ab</title>
<path fill="none" stroke="black" d="M620.49,-287.876C594.731,-276.607 561.246,-261.957 536.056,-250.936"/>
<polygon fill="black" stroke="black" points="537.406,-247.707 526.841,-246.905 534.6,-254.12 537.406,-247.707"/>
<g id="a_edge27&#45;headlabel"><a xlink:href="dir_000297_000277.html" target="_top" xlink:title="3">
<text text-anchor="middle" x="541.837" y="-244.046" font-family="Helvetica,sans-Serif" font-size="10.00">3</text>
</a>
</g>
</g>
<!-- dir_5125ceb2b58f632ed0a3019fe2d5cbbc&#45;&gt;dir_4ab6b4cc6a7edbff49100e9123df213f -->
<g id="edge28" class="edge"><title>dir_5125ceb2b58f632ed0a3019fe2d5cbbc&#45;&gt;dir_4ab6b4cc6a7edbff49100e9123df213f</title>
<path fill="none" stroke="black" d="M620.444,-290.756C617.473,-289.788 614.511,-288.858 611.63,-288 546.751,-268.675 525.933,-278.479 463.63,-252 423.914,-235.12 421.147,-217.342 381.63,-200 348.96,-185.662 309.437,-175.756 281.076,-169.827"/>
<polygon fill="black" stroke="black" points="281.661,-166.375 271.165,-167.822 280.273,-173.236 281.661,-166.375"/>
<g id="a_edge28&#45;headlabel"><a xlink:href="dir_000297_000016.html" target="_top" xlink:title="9">
<text text-anchor="middle" x="285.747" y="-161.805" font-family="Helvetica,sans-Serif" font-size="10.00">9</text>
</a>
</g>
</g>
<!-- dir_5125ceb2b58f632ed0a3019fe2d5cbbc&#45;&gt;dir_37c90836491b695b472bf98d1be8336b -->
<g id="edge29" class="edge"><title>dir_5125ceb2b58f632ed0a3019fe2d5cbbc&#45;&gt;dir_37c90836491b695b472bf98d1be8336b</title>
<path fill="none" stroke="black" d="M698.753,-300.705C753.103,-293.84 847.107,-278.408 867.63,-252 881.812,-233.752 877.828,-220.74 867.63,-200 819.387,-101.881 689.851,-49.8825 625.689,-29.4613"/>
<polygon fill="black" stroke="black" points="626.563,-26.068 615.975,-26.4527 624.492,-32.7546 626.563,-26.068"/>
<g id="a_edge29&#45;headlabel"><a xlink:href="dir_000297_000160.html" target="_top" xlink:title="1">
<text text-anchor="middle" x="630.836" y="-21.9192" font-family="Helvetica,sans-Serif" font-size="10.00">1</text>
</a>
</g>
</g>
<!-- dir_5125ceb2b58f632ed0a3019fe2d5cbbc&#45;&gt;dir_85bf31a2e8d306e7598ffcb73f8df6bf -->
<g id="edge30" class="edge"><title>dir_5125ceb2b58f632ed0a3019fe2d5cbbc&#45;&gt;dir_85bf31a2e8d306e7598ffcb73f8df6bf</title>
<path fill="none" stroke="black" d="M620.518,-290.49C617.53,-289.584 614.543,-288.74 611.63,-288 512.627,-262.843 482.683,-280.639 384.63,-252 383.912,-251.79 383.19,-251.571 382.466,-251.342"/>
<polygon fill="black" stroke="black" points="383.6,-248.031 373.005,-247.961 381.244,-254.622 383.6,-248.031"/>
<g id="a_edge30&#45;headlabel"><a xlink:href="dir_000297_000224.html" target="_top" xlink:title="9">
<text text-anchor="middle" x="387.94" y="-244.067" font-family="Helvetica,sans-Serif" font-size="10.00">9</text>
</a>
</g>
</g>
<!-- dir_5125ceb2b58f632ed0a3019fe2d5cbbc&#45;&gt;dir_2171f7ec022c5423887b07c69b2f5b48 -->
<g id="edge31" class="edge"><title>dir_5125ceb2b58f632ed0a3019fe2d5cbbc&#45;&gt;dir_2171f7ec022c5423887b07c69b2f5b48</title>
<path fill="none" stroke="black" d="M699.01,-299.576C748.911,-291.803 830.616,-275.761 848.63,-252 862.593,-233.583 864.366,-216.926 848.63,-200 827.846,-177.643 604.408,-186.714 574.63,-180 507.621,-164.891 434.295,-133.57 389.118,-112.414"/>
<polygon fill="black" stroke="black" points="390.454,-109.174 379.918,-108.063 387.462,-115.502 390.454,-109.174"/>
<g id="a_edge31&#45;headlabel"><a xlink:href="dir_000297_000055.html" target="_top" xlink:title="19">
<text text-anchor="middle" x="394.917" y="-105.644" font-family="Helvetica,sans-Serif" font-size="10.00">19</text>
</a>
</g>
</g>
<!-- dir_e6f6998399f381fa585023934f76a907 -->
<g id="node5" class="node"><title>dir_e6f6998399f381fa585023934f76a907</title>
<g id="a_node5"><a xlink:href="dir_e6f6998399f381fa585023934f76a907.html" target="_top" xlink:title="simulation">
<polygon fill="white" stroke="red" points="529.88,-324 469.38,-324 469.38,-288 529.88,-288 529.88,-324"/>
<text text-anchor="middle" x="499.63" y="-303.5" font-family="Helvetica,sans-Serif" font-size="10.00">simulation</text>
</a>
</g>
</g>
<!-- dir_e6f6998399f381fa585023934f76a907&#45;&gt;dir_eedff867f3c4e67d20b227cb6e0f96ab -->
<g id="edge23" class="edge"><title>dir_e6f6998399f381fa585023934f76a907&#45;&gt;dir_eedff867f3c4e67d20b227cb6e0f96ab</title>
<path fill="none" stroke="black" d="M499.63,-287.697C499.63,-279.983 499.63,-270.712 499.63,-262.112"/>
<polygon fill="black" stroke="black" points="503.13,-262.104 499.63,-252.104 496.13,-262.104 503.13,-262.104"/>
<g id="a_edge23&#45;headlabel"><a xlink:href="dir_000174_000277.html" target="_top" xlink:title="3">
<text text-anchor="middle" x="505.97" y="-263.199" font-family="Helvetica,sans-Serif" font-size="10.00">3</text>
</a>
</g>
</g>
<!-- dir_e6f6998399f381fa585023934f76a907&#45;&gt;dir_37c90836491b695b472bf98d1be8336b -->
<g id="edge24" class="edge"><title>dir_e6f6998399f381fa585023934f76a907&#45;&gt;dir_37c90836491b695b472bf98d1be8336b</title>
<path fill="none" stroke="black" d="M514.917,-287.671C534.422,-264.659 567.873,-222.009 586.63,-180 606.442,-135.631 610.31,-120.13 603.63,-72 602.447,-63.4752 600.242,-54.3938 597.88,-46.2008"/>
<polygon fill="black" stroke="black" points="601.153,-44.9366 594.868,-36.4069 594.462,-46.9939 601.153,-44.9366"/>
<g id="a_edge24&#45;headlabel"><a xlink:href="dir_000174_000160.html" target="_top" xlink:title="2">
<text text-anchor="middle" x="604.923" y="-45.0381" font-family="Helvetica,sans-Serif" font-size="10.00">2</text>
</a>
</g>
</g>
<!-- dir_e6f6998399f381fa585023934f76a907&#45;&gt;dir_85bf31a2e8d306e7598ffcb73f8df6bf -->
<g id="edge25" class="edge"><title>dir_e6f6998399f381fa585023934f76a907&#45;&gt;dir_85bf31a2e8d306e7598ffcb73f8df6bf</title>
<path fill="none" stroke="black" d="M469.205,-291.17C444.145,-279.779 408.542,-263.596 381.983,-251.524"/>
<polygon fill="black" stroke="black" points="383.196,-248.231 372.644,-247.279 380.299,-254.603 383.196,-248.231"/>
<g id="a_edge25&#45;headlabel"><a xlink:href="dir_000174_000224.html" target="_top" xlink:title="4">
<text text-anchor="middle" x="387.643" y="-244.633" font-family="Helvetica,sans-Serif" font-size="10.00">4</text>
</a>
</g>
</g>
<!-- dir_e6f6998399f381fa585023934f76a907&#45;&gt;dir_2171f7ec022c5423887b07c69b2f5b48 -->
<g id="edge26" class="edge"><title>dir_e6f6998399f381fa585023934f76a907&#45;&gt;dir_2171f7ec022c5423887b07c69b2f5b48</title>
<path fill="none" stroke="black" d="M469.256,-291.474C466.034,-290.225 462.783,-289.04 459.63,-288 394.523,-266.517 352.077,-305.84 309.63,-252 278.376,-212.358 307.222,-150.987 328.227,-116.597"/>
<polygon fill="black" stroke="black" points="331.239,-118.383 333.622,-108.059 325.321,-114.643 331.239,-118.383"/>
<g id="a_edge26&#45;headlabel"><a xlink:href="dir_000174_000055.html" target="_top" xlink:title="3">
<text text-anchor="middle" x="331.719" y="-120.438" font-family="Helvetica,sans-Serif" font-size="10.00">3</text>
</a>
</g>
</g>
<!-- dir_beaad5fa58c175f2fa05fab7e2ac7ba4 -->
<g id="node6" class="node"><title>dir_beaad5fa58c175f2fa05fab7e2ac7ba4</title>
<g id="a_node6"><a xlink:href="dir_beaad5fa58c175f2fa05fab7e2ac7ba4.html" target="_top" xlink:title="tracking">
<polygon fill="white" stroke="red" points="450.63,-324 396.63,-324 396.63,-288 450.63,-288 450.63,-324"/>
<text text-anchor="middle" x="423.63" y="-303.5" font-family="Helvetica,sans-Serif" font-size="10.00">tracking</text>
</a>
</g>
</g>
<!-- dir_beaad5fa58c175f2fa05fab7e2ac7ba4&#45;&gt;dir_eedff867f3c4e67d20b227cb6e0f96ab -->
<g id="edge32" class="edge"><title>dir_beaad5fa58c175f2fa05fab7e2ac7ba4&#45;&gt;dir_eedff867f3c4e67d20b227cb6e0f96ab</title>
<path fill="none" stroke="black" d="M442.417,-287.697C451.804,-279.05 463.315,-268.449 473.544,-259.027"/>
<polygon fill="black" stroke="black" points="476.076,-261.454 481.06,-252.104 471.333,-256.305 476.076,-261.454"/>
<g id="a_edge32&#45;headlabel"><a xlink:href="dir_000032_000277.html" target="_top" xlink:title="1">
<text text-anchor="middle" x="475.355" y="-263.477" font-family="Helvetica,sans-Serif" font-size="10.00">1</text>
</a>
</g>
</g>
<!-- dir_beaad5fa58c175f2fa05fab7e2ac7ba4&#45;&gt;dir_4ab6b4cc6a7edbff49100e9123df213f -->
<g id="edge33" class="edge"><title>dir_beaad5fa58c175f2fa05fab7e2ac7ba4&#45;&gt;dir_4ab6b4cc6a7edbff49100e9123df213f</title>
<path fill="none" stroke="black" d="M396.523,-301.246C349.9,-294.175 257.684,-277.279 238.63,-252 225.444,-234.506 228.37,-209.145 233.621,-189.968"/>
<polygon fill="black" stroke="black" points="236.997,-190.895 236.597,-180.308 230.307,-188.834 236.997,-190.895"/>
<g id="a_edge33&#45;headlabel"><a xlink:href="dir_000032_000016.html" target="_top" xlink:title="3">
<text text-anchor="middle" x="238.652" y="-192.667" font-family="Helvetica,sans-Serif" font-size="10.00">3</text>
</a>
</g>
</g>
<!-- dir_beaad5fa58c175f2fa05fab7e2ac7ba4&#45;&gt;dir_2171f7ec022c5423887b07c69b2f5b48 -->
<g id="edge34" class="edge"><title>dir_beaad5fa58c175f2fa05fab7e2ac7ba4&#45;&gt;dir_2171f7ec022c5423887b07c69b2f5b48</title>
<path fill="none" stroke="black" d="M396.421,-305.787C353.915,-305.469 271.847,-298.381 225.63,-252 191.229,-217.477 178.98,-184.135 206.63,-144 227.123,-114.254 266.714,-101.191 298.418,-95.4606"/>
<polygon fill="black" stroke="black" points="299.087,-98.8979 308.4,-93.8459 297.969,-91.9877 299.087,-98.8979"/>
<g id="a_edge34&#45;headlabel"><a xlink:href="dir_000032_000055.html" target="_top" xlink:title="11">
<text text-anchor="middle" x="295.992" y="-99.7747" font-family="Helvetica,sans-Serif" font-size="10.00">11</text>
</a>
</g>
</g>
<!-- dir_1c10308a10e2a510f98c8482fd126054 -->
<g id="node7" class="node"><title>dir_1c10308a10e2a510f98c8482fd126054</title>
<g id="a_node7"><a xlink:href="dir_1c10308a10e2a510f98c8482fd126054.html" target="_top" xlink:title="workflow">
<polygon fill="white" stroke="red" points="549.13,-396 494.13,-396 494.13,-360 549.13,-360 549.13,-396"/>
<text text-anchor="middle" x="521.63" y="-375.5" font-family="Helvetica,sans-Serif" font-size="10.00">workflow</text>
</a>
</g>
</g>
<!-- dir_1c10308a10e2a510f98c8482fd126054&#45;&gt;dir_eedff867f3c4e67d20b227cb6e0f96ab -->
<g id="edge15" class="edge"><title>dir_1c10308a10e2a510f98c8482fd126054&#45;&gt;dir_eedff867f3c4e67d20b227cb6e0f96ab</title>
<path fill="none" stroke="black" d="M549.258,-371.045C598.669,-360.123 697.945,-336.83 707.63,-324 717.27,-311.23 717.448,-300.634 707.63,-288 686.889,-261.311 591.098,-245.833 537.036,-239.079"/>
<polygon fill="black" stroke="black" points="537.162,-235.569 526.814,-237.844 536.322,-242.519 537.162,-235.569"/>
<g id="a_edge15&#45;headlabel"><a xlink:href="dir_000315_000277.html" target="_top" xlink:title="3">
<text text-anchor="middle" x="541.071" y="-230.682" font-family="Helvetica,sans-Serif" font-size="10.00">3</text>
</a>
</g>
</g>
<!-- dir_1c10308a10e2a510f98c8482fd126054&#45;&gt;dir_5125ceb2b58f632ed0a3019fe2d5cbbc -->
<g id="edge19" class="edge"><title>dir_1c10308a10e2a510f98c8482fd126054&#45;&gt;dir_5125ceb2b58f632ed0a3019fe2d5cbbc</title>
<path fill="none" stroke="black" d="M549.225,-363.003C568.565,-353.193 594.791,-339.89 616.829,-328.711"/>
<polygon fill="black" stroke="black" points="618.651,-331.711 625.985,-324.066 615.484,-325.469 618.651,-331.711"/>
<g id="a_edge19&#45;headlabel"><a xlink:href="dir_000315_000297.html" target="_top" xlink:title="1">
<text text-anchor="middle" x="616.729" y="-333.37" font-family="Helvetica,sans-Serif" font-size="10.00">1</text>
</a>
</g>
</g>
<!-- dir_1c10308a10e2a510f98c8482fd126054&#45;&gt;dir_beaad5fa58c175f2fa05fab7e2ac7ba4 -->
<g id="edge20" class="edge"><title>dir_1c10308a10e2a510f98c8482fd126054&#45;&gt;dir_beaad5fa58c175f2fa05fab7e2ac7ba4</title>
<path fill="none" stroke="black" d="M497.657,-359.876C485.081,-350.893 469.498,-339.763 455.878,-330.034"/>
<polygon fill="black" stroke="black" points="457.868,-327.154 447.696,-324.19 453.799,-332.85 457.868,-327.154"/>
<g id="a_edge20&#45;headlabel"><a xlink:href="dir_000315_000032.html" target="_top" xlink:title="4">
<text text-anchor="middle" x="462.443" y="-324.433" font-family="Helvetica,sans-Serif" font-size="10.00">4</text>
</a>
</g>
</g>
<!-- dir_1c10308a10e2a510f98c8482fd126054&#45;&gt;dir_4ab6b4cc6a7edbff49100e9123df213f -->
<g id="edge16" class="edge"><title>dir_1c10308a10e2a510f98c8482fd126054&#45;&gt;dir_4ab6b4cc6a7edbff49100e9123df213f</title>
<path fill="none" stroke="black" d="M494.019,-375.458C432.085,-370.299 283.026,-347.996 225.63,-252 214.264,-232.989 220.797,-208.036 229.005,-189.39"/>
<polygon fill="black" stroke="black" points="232.205,-190.811 233.364,-180.28 225.891,-187.79 232.205,-190.811"/>
<g id="a_edge16&#45;headlabel"><a xlink:href="dir_000315_000016.html" target="_top" xlink:title="2">
<text text-anchor="middle" x="233.215" y="-192.779" font-family="Helvetica,sans-Serif" font-size="10.00">2</text>
</a>
</g>
</g>
<!-- dir_1c10308a10e2a510f98c8482fd126054&#45;&gt;dir_37c90836491b695b472bf98d1be8336b -->
<g id="edge17" class="edge"><title>dir_1c10308a10e2a510f98c8482fd126054&#45;&gt;dir_37c90836491b695b472bf98d1be8336b</title>
<path fill="none" stroke="black" d="M549.184,-371.444C565.815,-368.102 587.434,-363.777 606.63,-360 779.421,-326 982.63,-411.104 982.63,-235 982.63,-235 982.63,-235 982.63,-161 982.63,-85.585 723.924,-39.1509 625.78,-24.2488"/>
<polygon fill="black" stroke="black" points="626.119,-20.7607 615.712,-22.7456 625.085,-27.684 626.119,-20.7607"/>
<g id="a_edge17&#45;headlabel"><a xlink:href="dir_000315_000160.html" target="_top" xlink:title="5">
<text text-anchor="middle" x="630.093" y="-15.9833" font-family="Helvetica,sans-Serif" font-size="10.00">5</text>
</a>
</g>
</g>
<!-- dir_1c10308a10e2a510f98c8482fd126054&#45;&gt;dir_85bf31a2e8d306e7598ffcb73f8df6bf -->
<g id="edge18" class="edge"><title>dir_1c10308a10e2a510f98c8482fd126054&#45;&gt;dir_85bf31a2e8d306e7598ffcb73f8df6bf</title>
<path fill="none" stroke="black" d="M494.017,-372.316C464.42,-366.007 417.651,-352.15 387.63,-324 369.776,-307.258 358.752,-281.384 352.505,-261.841"/>
<polygon fill="black" stroke="black" points="355.787,-260.599 349.588,-252.007 349.076,-262.59 355.787,-260.599"/>
<g id="a_edge18&#45;headlabel"><a xlink:href="dir_000315_000224.html" target="_top" xlink:title="5">
<text text-anchor="middle" x="359.532" y="-260.737" font-family="Helvetica,sans-Serif" font-size="10.00">5</text>
</a>
</g>
</g>
<!-- dir_bcbb2cf9a3d3d83e5515c82071a07177 -->
<g id="node13" class="node"><title>dir_bcbb2cf9a3d3d83e5515c82071a07177</title>
<g id="a_node13"><a xlink:href="dir_bcbb2cf9a3d3d83e5515c82071a07177.html" target="_top" xlink:title="Framework">
<polygon fill="none" stroke="red" points="109.88,-252 45.3803,-252 45.3803,-216 109.88,-216 109.88,-252"/>
<text text-anchor="middle" x="77.6303" y="-231.5" font-family="Helvetica,sans-Serif" font-size="10.00">Framework</text>
</a>
</g>
</g>
<!-- dir_1c10308a10e2a510f98c8482fd126054&#45;&gt;dir_bcbb2cf9a3d3d83e5515c82071a07177 -->
<g id="edge21" class="edge"><title>dir_1c10308a10e2a510f98c8482fd126054&#45;&gt;dir_bcbb2cf9a3d3d83e5515c82071a07177</title>
<path fill="none" stroke="black" d="M494.108,-375.248C420.485,-370.202 220.684,-354.038 162.63,-324 134.071,-309.223 109.714,-281.061 94.4885,-260.359"/>
<polygon fill="black" stroke="black" points="97.1895,-258.118 88.5369,-252.004 91.4882,-262.179 97.1895,-258.118"/>
<g id="a_edge21&#45;headlabel"><a xlink:href="dir_000315_000036.html" target="_top" xlink:title="20">
<text text-anchor="middle" x="101.588" y="-256.898" font-family="Helvetica,sans-Serif" font-size="10.00">20</text>
</a>
</g>
</g>
<!-- dir_1c10308a10e2a510f98c8482fd126054&#45;&gt;dir_2171f7ec022c5423887b07c69b2f5b48 -->
<g id="edge22" class="edge"><title>dir_1c10308a10e2a510f98c8482fd126054&#45;&gt;dir_2171f7ec022c5423887b07c69b2f5b48</title>
<path fill="none" stroke="black" d="M549.276,-371.502C624.93,-355.813 832.097,-308.309 867.63,-252 879.964,-232.455 882.207,-217.935 867.63,-200 807.832,-126.426 509.58,-100.808 392.712,-93.5059"/>
<polygon fill="black" stroke="black" points="392.831,-90.0068 382.637,-92.894 392.407,-96.9939 392.831,-90.0068"/>
<g id="a_edge22&#45;headlabel"><a xlink:href="dir_000315_000055.html" target="_top" xlink:title="31">
<text text-anchor="middle" x="396.591" y="-84.8906" font-family="Helvetica,sans-Serif" font-size="10.00">31</text>
</a>
</g>
</g>
<!-- dir_4ab6b4cc6a7edbff49100e9123df213f&#45;&gt;dir_2171f7ec022c5423887b07c69b2f5b48 -->
<g id="edge5" class="edge"><title>dir_4ab6b4cc6a7edbff49100e9123df213f&#45;&gt;dir_2171f7ec022c5423887b07c69b2f5b48</title>
<path fill="none" stroke="black" d="M262.928,-143.697C275.209,-134.626 291.412,-123.404 306.264,-113.65"/>
<polygon fill="black" stroke="black" points="308.328,-116.483 314.812,-108.104 304.518,-110.611 308.328,-116.483"/>
<g id="a_edge5&#45;headlabel"><a xlink:href="dir_000016_000055.html" target="_top" xlink:title="3">
<text text-anchor="middle" x="306.858" y="-118.322" font-family="Helvetica,sans-Serif" font-size="10.00">3</text>
</a>
</g>
</g>
<!-- dir_a597e8e061b11201a1dff411feb10d0b&#45;&gt;dir_4ab6b4cc6a7edbff49100e9123df213f -->
<g id="edge6" class="edge"><title>dir_a597e8e061b11201a1dff411feb10d0b&#45;&gt;dir_4ab6b4cc6a7edbff49100e9123df213f</title>
<path fill="none" stroke="black" d="M28.7913,-287.823C22.2064,-264.939 14.9083,-224.496 35.6303,-200 57.0055,-174.732 151.612,-166.702 205.577,-164.163"/>
<polygon fill="black" stroke="black" points="205.954,-167.65 215.795,-163.725 205.654,-160.657 205.954,-167.65"/>
<g id="a_edge6&#45;headlabel"><a xlink:href="dir_000193_000016.html" target="_top" xlink:title="10">
<text text-anchor="middle" x="202.484" y="-168.141" font-family="Helvetica,sans-Serif" font-size="10.00">10</text>
</a>
</g>
</g>
<!-- dir_a597e8e061b11201a1dff411feb10d0b&#45;&gt;dir_37c90836491b695b472bf98d1be8336b -->
<g id="edge7" class="edge"><title>dir_a597e8e061b11201a1dff411feb10d0b&#45;&gt;dir_37c90836491b695b472bf98d1be8336b</title>
<path fill="none" stroke="black" d="M23.5841,-287.611C17.8937,-277.615 11.5496,-264.579 8.63029,-252 -2.38746,-204.525 -7.36179,-177.924 27.6303,-144 103.541,-70.4058 438.192,-32.9982 551.202,-22.2968"/>
<polygon fill="black" stroke="black" points="551.798,-25.7565 561.431,-21.3442 551.149,-18.7866 551.798,-25.7565"/>
<g id="a_edge7&#45;headlabel"><a xlink:href="dir_000193_000160.html" target="_top" xlink:title="1">
<text text-anchor="middle" x="548.483" y="-26.4168" font-family="Helvetica,sans-Serif" font-size="10.00">1</text>
</a>
</g>
</g>
<!-- dir_a597e8e061b11201a1dff411feb10d0b&#45;&gt;dir_bcbb2cf9a3d3d83e5515c82071a07177 -->
<g id="edge8" class="edge"><title>dir_a597e8e061b11201a1dff411feb10d0b&#45;&gt;dir_bcbb2cf9a3d3d83e5515c82071a07177</title>
<path fill="none" stroke="black" d="M39.3438,-287.697C43.5466,-279.474 49.4824,-269.483 55.4946,-260.421"/>
<polygon fill="black" stroke="black" points="58.4336,-262.324 61.2283,-252.104 52.6706,-258.351 58.4336,-262.324"/>
<g id="a_edge8&#45;headlabel"><a xlink:href="dir_000193_000036.html" target="_top" xlink:title="21">
<text text-anchor="middle" x="58.7309" y="-264.395" font-family="Helvetica,sans-Serif" font-size="10.00">21</text>
</a>
</g>
</g>
<!-- dir_a597e8e061b11201a1dff411feb10d0b&#45;&gt;dir_2171f7ec022c5423887b07c69b2f5b48 -->
<g id="edge9" class="edge"><title>dir_a597e8e061b11201a1dff411feb10d0b&#45;&gt;dir_2171f7ec022c5423887b07c69b2f5b48</title>
<path fill="none" stroke="black" d="M26.0017,-287.662C16.5249,-266.005 4.41612,-228.353 18.6303,-200 37.2742,-162.812 55.7195,-161.127 93.6303,-144 161.046,-113.543 246.593,-100.316 298.668,-94.7698"/>
<polygon fill="black" stroke="black" points="299.026,-98.2516 308.621,-93.7601 298.319,-91.2873 299.026,-98.2516"/>
<g id="a_edge9&#45;headlabel"><a xlink:href="dir_000193_000055.html" target="_top" xlink:title="121">
<text text-anchor="middle" x="295.736" y="-98.939" font-family="Helvetica,sans-Serif" font-size="10.00">121</text>
</a>
</g>
</g>
<!-- dir_37c90836491b695b472bf98d1be8336b&#45;&gt;dir_4ab6b4cc6a7edbff49100e9123df213f -->
<g id="edge10" class="edge"><title>dir_37c90836491b695b472bf98d1be8336b&#45;&gt;dir_4ab6b4cc6a7edbff49100e9123df213f</title>
<path fill="none" stroke="black" d="M561.173,-21.2235C497.564,-26.8135 342.289,-43.1106 299.63,-72 277.418,-87.043 262.254,-114.143 253.366,-134.5"/>
<polygon fill="black" stroke="black" points="250.078,-133.29 249.503,-143.87 256.55,-135.958 250.078,-133.29"/>
<g id="a_edge10&#45;headlabel"><a xlink:href="dir_000160_000016.html" target="_top" xlink:title="9">
<text text-anchor="middle" x="248.823" y="-126.385" font-family="Helvetica,sans-Serif" font-size="10.00">9</text>
</a>
</g>
</g>
<!-- dir_37c90836491b695b472bf98d1be8336b&#45;&gt;dir_2171f7ec022c5423887b07c69b2f5b48 -->
<g id="edge11" class="edge"><title>dir_37c90836491b695b472bf98d1be8336b&#45;&gt;dir_2171f7ec022c5423887b07c69b2f5b48</title>
<path fill="none" stroke="black" d="M561.361,-28.2224C520.302,-40.7706 442.465,-63.239 392.303,-77.0609"/>
<polygon fill="black" stroke="black" points="391.378,-73.6854 382.659,-79.7045 393.228,-80.4364 391.378,-73.6854"/>
<g id="a_edge11&#45;headlabel"><a xlink:href="dir_000160_000055.html" target="_top" xlink:title="6">
<text text-anchor="middle" x="394.094" y="-67.4969" font-family="Helvetica,sans-Serif" font-size="10.00">6</text>
</a>
</g>
</g>
<!-- dir_85bf31a2e8d306e7598ffcb73f8df6bf&#45;&gt;dir_4ab6b4cc6a7edbff49100e9123df213f -->
<g id="edge12" class="edge"><title>dir_85bf31a2e8d306e7598ffcb73f8df6bf&#45;&gt;dir_4ab6b4cc6a7edbff49100e9123df213f</title>
<path fill="none" stroke="black" d="M320.678,-215.876C307.589,-206.893 291.37,-195.763 277.194,-186.034"/>
<polygon fill="black" stroke="black" points="278.904,-182.962 268.678,-180.19 274.943,-188.734 278.904,-182.962"/>
<g id="a_edge12&#45;headlabel"><a xlink:href="dir_000224_000016.html" target="_top" xlink:title="7">
<text text-anchor="middle" x="283.474" y="-180.155" font-family="Helvetica,sans-Serif" font-size="10.00">7</text>
</a>
</g>
</g>
<!-- dir_85bf31a2e8d306e7598ffcb73f8df6bf&#45;&gt;dir_37c90836491b695b472bf98d1be8336b -->
<g id="edge13" class="edge"><title>dir_85bf31a2e8d306e7598ffcb73f8df6bf&#45;&gt;dir_37c90836491b695b472bf98d1be8336b</title>
<path fill="none" stroke="black" d="M365.105,-215.849C408.206,-177.893 511.755,-86.7009 561.308,-43.0612"/>
<polygon fill="black" stroke="black" points="563.871,-45.4682 569.063,-36.2325 559.245,-40.2149 563.871,-45.4682"/>
<g id="a_edge13&#45;headlabel"><a xlink:href="dir_000224_000160.html" target="_top" xlink:title="3">
<text text-anchor="middle" x="563.05" y="-47.4746" font-family="Helvetica,sans-Serif" font-size="10.00">3</text>
</a>
</g>
</g>
<!-- dir_85bf31a2e8d306e7598ffcb73f8df6bf&#45;&gt;dir_2171f7ec022c5423887b07c69b2f5b48 -->
<g id="edge14" class="edge"><title>dir_85bf31a2e8d306e7598ffcb73f8df6bf&#45;&gt;dir_2171f7ec022c5423887b07c69b2f5b48</title>
<path fill="none" stroke="black" d="M345.63,-215.871C345.63,-191.67 345.63,-147.211 345.63,-118.393"/>
<polygon fill="black" stroke="black" points="349.13,-118.189 345.63,-108.189 342.13,-118.189 349.13,-118.189"/>
<g id="a_edge14&#45;headlabel"><a xlink:href="dir_000224_000055.html" target="_top" xlink:title="30">
<text text-anchor="middle" x="351.97" y="-119.284" font-family="Helvetica,sans-Serif" font-size="10.00">30</text>
</a>
</g>
</g>
<!-- dir_bcbb2cf9a3d3d83e5515c82071a07177&#45;&gt;dir_e6f6998399f381fa585023934f76a907 -->
<g id="edge44" class="edge"><title>dir_bcbb2cf9a3d3d83e5515c82071a07177&#45;&gt;dir_e6f6998399f381fa585023934f76a907</title>
<path fill="none" stroke="black" d="M110.07,-238.387C189.817,-246.892 393.728,-269.77 459.63,-288 459.73,-288.028 459.83,-288.056 459.931,-288.084"/>
<polygon fill="black" stroke="black" points="458.76,-291.383 469.352,-291.155 460.93,-284.728 458.76,-291.383"/>
<g id="a_edge44&#45;headlabel"><a xlink:href="dir_000036_000174.html" target="_top" xlink:title="1">
<text text-anchor="middle" x="454.462" y="-290.469" font-family="Helvetica,sans-Serif" font-size="10.00">1</text>
</a>
</g>
</g>
<!-- dir_bcbb2cf9a3d3d83e5515c82071a07177&#45;&gt;dir_4ab6b4cc6a7edbff49100e9123df213f -->
<g id="edge42" class="edge"><title>dir_bcbb2cf9a3d3d83e5515c82071a07177&#45;&gt;dir_4ab6b4cc6a7edbff49100e9123df213f</title>
<path fill="none" stroke="black" d="M110.031,-219.337C137.751,-207.648 177.647,-190.824 206.619,-178.607"/>
<polygon fill="black" stroke="black" points="208.138,-181.765 215.992,-174.655 205.418,-175.315 208.138,-181.765"/>
<g id="a_edge42&#45;headlabel"><a xlink:href="dir_000036_000016.html" target="_top" xlink:title="8">
<text text-anchor="middle" x="205.929" y="-183.278" font-family="Helvetica,sans-Serif" font-size="10.00">8</text>
</a>
</g>
</g>
<!-- dir_bcbb2cf9a3d3d83e5515c82071a07177&#45;&gt;dir_a597e8e061b11201a1dff411feb10d0b -->
<g id="edge43" class="edge"><title>dir_bcbb2cf9a3d3d83e5515c82071a07177&#45;&gt;dir_a597e8e061b11201a1dff411feb10d0b</title>
<path fill="none" stroke="black" d="M73.0184,-252.104C68.8437,-260.298 62.9226,-270.282 56.9117,-279.359"/>
<polygon fill="black" stroke="black" points="53.9603,-277.474 51.1752,-287.697 59.7271,-281.442 53.9603,-277.474"/>
<g id="a_edge43&#45;headlabel"><a xlink:href="dir_000036_000193.html" target="_top" xlink:title="1">
<text text-anchor="middle" x="53.6587" y="-270.404" font-family="Helvetica,sans-Serif" font-size="10.00">1</text>
</a>
</g>
</g>
<!-- dir_bcbb2cf9a3d3d83e5515c82071a07177&#45;&gt;dir_2171f7ec022c5423887b07c69b2f5b48 -->
<g id="edge45" class="edge"><title>dir_bcbb2cf9a3d3d83e5515c82071a07177&#45;&gt;dir_2171f7ec022c5423887b07c69b2f5b48</title>
<path fill="none" stroke="black" d="M82.035,-215.784C88.1394,-195.486 101.166,-162.216 124.63,-144 175.007,-104.89 249.874,-94.0388 298.221,-91.3531"/>
<polygon fill="black" stroke="black" points="298.586,-94.8401 308.415,-90.8858 298.265,-87.8475 298.586,-94.8401"/>
<g id="a_edge45&#45;headlabel"><a xlink:href="dir_000036_000055.html" target="_top" xlink:title="47">
<text text-anchor="middle" x="295.125" y="-95.3409" font-family="Helvetica,sans-Serif" font-size="10.00">47</text>
</a>
</g>
</g>
<!-- dir_2171f7ec022c5423887b07c69b2f5b48&#45;&gt;dir_4ab6b4cc6a7edbff49100e9123df213f -->
<g id="edge46" class="edge"><title>dir_2171f7ec022c5423887b07c69b2f5b48&#45;&gt;dir_4ab6b4cc6a7edbff49100e9123df213f</title>
<path fill="none" stroke="black" d="M326.46,-108.209C313.244,-117.976 295.444,-130.26 279.677,-140.52"/>
<polygon fill="black" stroke="black" points="277.693,-137.635 271.169,-145.983 281.475,-143.525 277.693,-137.635"/>
<g id="a_edge46&#45;headlabel"><a xlink:href="dir_000055_000016.html" target="_top" xlink:title="26">
<text text-anchor="middle" x="279.183" y="-130.804" font-family="Helvetica,sans-Serif" font-size="10.00">26</text>
</a>
</g>
</g>
<!-- dir_2171f7ec022c5423887b07c69b2f5b48&#45;&gt;dir_37c90836491b695b472bf98d1be8336b -->
<g id="edge47" class="edge"><title>dir_2171f7ec022c5423887b07c69b2f5b48&#45;&gt;dir_37c90836491b695b472bf98d1be8336b</title>
<path fill="none" stroke="black" d="M382.691,-76.8069C428.471,-63.005 505.643,-40.8223 551.473,-28.3305"/>
<polygon fill="black" stroke="black" points="552.568,-31.6603 561.307,-25.6703 550.74,-24.9032 552.568,-31.6603"/>
<g id="a_edge47&#45;headlabel"><a xlink:href="dir_000055_000160.html" target="_top" xlink:title="1">
<text text-anchor="middle" x="549.839" y="-32.8397" font-family="Helvetica,sans-Serif" font-size="10.00">1</text>
</a>
</g>
</g>
</g>
</svg>
        <g id="navigator" transform="translate(0 0)" fill="#404254">
                <rect fill="#f2f5e9" fill-opacity="0.5" stroke="#606060" stroke-width=".5" x="0" y="0" width="60" height="60"/>
                <use id="zoomplus" xlink:href="#zoomPlus" x="17" y="9" onmousedown="handleZoom(evt,'in')"/>
                <use id="zoomminus" xlink:href="#zoomMin" x="42" y="9" onmousedown="handleZoom(evt,'out')"/>
                <use id="reset" xlink:href="#resetDef" x="30" y="36" onmousedown="handleReset()"/>
                <g id="arrowUp" xlink:href="#dirArrow" transform="translate(30 24)" onmousedown="handlePan(0,-1)">
                  <use xlink:href="#rim" fill="#404040">
                        <set attributeName="fill" to="#808080" begin="arrowUp.mouseover" end="arrowUp.mouseout"/>
                  </use>
                  <path fill="none" stroke="white" stroke-width="1.5" d="M0,-3.0v7 M-2.5,-0.5L0,-3.0L2.5,-0.5"/>
                </g>
                <g id="arrowRight" xlink:href="#dirArrow" transform="rotate(90) translate(36 -43)" onmousedown="handlePan(1,0)">
                  <use xlink:href="#rim" fill="#404040">
                        <set attributeName="fill" to="#808080" begin="arrowRight.mouseover" end="arrowRight.mouseout"/>
                  </use>
                  <path fill="none" stroke="white" stroke-width="1.5" d="M0,-3.0v7 M-2.5,-0.5L0,-3.0L2.5,-0.5"/>
                </g>
                <g id="arrowDown" xlink:href="#dirArrow" transform="rotate(180) translate(-30 -48)" onmousedown="handlePan(0,1)">
                  <use xlink:href="#rim" fill="#404040">
                        <set attributeName="fill" to="#808080" begin="arrowDown.mouseover" end="arrowDown.mouseout"/>
                  </use>
                  <path fill="none" stroke="white" stroke-width="1.5" d="M0,-3.0v7 M-2.5,-0.5L0,-3.0L2.5,-0.5"/>
                </g>
                <g id="arrowLeft" xlink:href="#dirArrow" transform="rotate(270) translate(-36 17)" onmousedown="handlePan(-1,0)">
                  <use xlink:href="#rim" fill="#404040">
                        <set attributeName="fill" to="#808080" begin="arrowLeft.mouseover" end="arrowLeft.mouseout"/>
                  </use>
                  <path fill="none" stroke="white" stroke-width="1.5" d="M0,-3.0v7 M-2.5,-0.5L0,-3.0L2.5,-0.5"/>
                </g>
        </g>
        <svg viewBox="0 0 15 15" width="100%" height="30px" preserveAspectRatio="xMaxYMin meet">
         <g id="arrow_out" transform="scale(0.3 0.3)">
          <a xlink:href="dir_871aad07cbf94d6cd423c3d8d5bdf4e9_dep_org.svg" target="_base">
           <rect id="button" ry="5" rx="5" y="6" x="6" height="38" width="38"
                fill="#f2f5e9" fill-opacity="0.5" stroke="#606060" stroke-width="1.0"/>
           <path id="arrow"
             d="M 11.500037,31.436501 C 11.940474,20.09759 22.043105,11.32322 32.158766,21.979434 L 37.068811,17.246167 C 37.068811,17.246167 37.088388,32 37.088388,32 L 22.160133,31.978069 C 22.160133,31.978069 26.997745,27.140456 26.997745,27.140456 C 18.528582,18.264221 13.291696,25.230495 11.500037,31.436501 z"
             style="fill:#404040;"/>
          </a>
         </g>
        </svg>
</svg>
