<?xml version="1.0" encoding="UTF-8" standalone="no"?>
<!DOCTYPE svg PUBLIC "-//W3C//DTD SVG 1.1//EN"
 "http://www.w3.org/Graphics/SVG/1.1/DTD/svg11.dtd">
<!-- Generated by graphviz version 2.36.0 (20140111.2315)
 -->
<!-- Title: /home/travis/build/AliceO2Group/AliceO2/DataFormats/Detectors/ITSMFT/MFT Pages: 1 -->
<svg width="246pt" height="303pt"
 viewBox="0.00 0.00 246.00 303.00" xmlns="http://www.w3.org/2000/svg" xmlns:xlink="http://www.w3.org/1999/xlink">
<g id="graph0" class="graph" transform="scale(1 1) rotate(0) translate(4 299)">
<title>/home/travis/build/AliceO2Group/AliceO2/DataFormats/Detectors/ITSMFT/MFT</title>
<g id="clust1" class="cluster"><title>clusterdir_ff53c4a4c37940dfaa1ef75e68c4ec2e</title>
<g id="a_clust1"><a xlink:href="dir_ff53c4a4c37940dfaa1ef75e68c4ec2e.html" target="_top" xlink:title="ITSMFT">
<polygon fill="#ddddee" stroke="black" points="8,-128 8,-287 166,-287 166,-128 8,-128"/>
<text text-anchor="middle" x="87" y="-275" font-family="Helvetica,sans-Serif" font-size="10.00">ITSMFT</text>
</a>
</g>
</g>
<g id="clust2" class="cluster"><title>clusterdir_25272d395c0fdb531d4aff346d96238f</title>
<g id="a_clust2"><a xlink:href="dir_25272d395c0fdb531d4aff346d96238f.html" target="_top">
<polygon fill="#eeeeff" stroke="black" points="16,-136 16,-260 158,-260 158,-136 16,-136"/>
</a>
</g>
</g>
<!-- dir_25272d395c0fdb531d4aff346d96238f -->
<g id="node1" class="node"><title>dir_25272d395c0fdb531d4aff346d96238f</title>
<text text-anchor="middle" x="123" y="-231.5" font-family="Helvetica,sans-Serif" font-size="10.00">MFT</text>
</g>
<!-- dir_eb970d2ac00ce12d8b982d15b47bc8a9 -->
<g id="node2" class="node"><title>dir_eb970d2ac00ce12d8b982d15b47bc8a9</title>
<g id="a_node2"><a xlink:href="dir_eb970d2ac00ce12d8b982d15b47bc8a9.html" target="_top" xlink:title="include">
<polygon fill="white" stroke="red" points="114,-180 60,-180 60,-144 114,-144 114,-180"/>
<text text-anchor="middle" x="87" y="-159.5" font-family="Helvetica,sans-Serif" font-size="10.00">include</text>
</a>
</g>
</g>
<!-- dir_d269712cc31e133b892a3b3f6424741a -->
<g id="node4" class="node"><title>dir_d269712cc31e133b892a3b3f6424741a</title>
<g id="a_node4"><a xlink:href="dir_d269712cc31e133b892a3b3f6424741a.html" target="_top" xlink:title="Reconstruction">
<polygon fill="none" stroke="red" points="227.25,-108 144.75,-108 144.75,-72 227.25,-72 227.25,-108"/>
<text text-anchor="middle" x="186" y="-87.5" font-family="Helvetica,sans-Serif" font-size="10.00">Reconstruction</text>
</a>
</g>
</g>
<!-- dir_eb970d2ac00ce12d8b982d15b47bc8a9&#45;&gt;dir_d269712cc31e133b892a3b3f6424741a -->
<g id="edge6" class="edge"><title>dir_eb970d2ac00ce12d8b982d15b47bc8a9&#45;&gt;dir_d269712cc31e133b892a3b3f6424741a</title>
<path fill="none" stroke="black" d="M111.218,-143.876C123.923,-134.893 139.664,-123.763 153.423,-114.034"/>
<polygon fill="black" stroke="black" points="155.544,-116.821 161.689,-108.19 151.503,-111.105 155.544,-116.821"/>
<g id="a_edge6&#45;headlabel"><a xlink:href="dir_000101_000108.html" target="_top" xlink:title="1">
<text text-anchor="middle" x="154.248" y="-118.714" font-family="Helvetica,sans-Serif" font-size="10.00">1</text>
</a>
</g>
</g>
<!-- dir_7c281addef852c536c8e0c04067ee355 -->
<g id="node3" class="node"><title>dir_7c281addef852c536c8e0c04067ee355</title>
<g id="a_node3"><a xlink:href="dir_7c281addef852c536c8e0c04067ee355.html" target="_top" xlink:title="src">
<polygon fill="white" stroke="black" points="78,-252 24,-252 24,-216 78,-216 78,-252"/>
<text text-anchor="middle" x="51" y="-231.5" font-family="Helvetica,sans-Serif" font-size="10.00">src</text>
</a>
</g>
</g>
<!-- dir_7c281addef852c536c8e0c04067ee355&#45;&gt;dir_eb970d2ac00ce12d8b982d15b47bc8a9 -->
<g id="edge4" class="edge"><title>dir_7c281addef852c536c8e0c04067ee355&#45;&gt;dir_eb970d2ac00ce12d8b982d15b47bc8a9</title>
<path fill="none" stroke="black" d="M59.8989,-215.697C63.9968,-207.728 68.9488,-198.1 73.4927,-189.264"/>
<polygon fill="black" stroke="black" points="76.7425,-190.598 78.2035,-180.104 70.5174,-187.396 76.7425,-190.598"/>
<g id="a_edge4&#45;headlabel"><a xlink:href="dir_000103_000101.html" target="_top" xlink:title="1">
<text text-anchor="middle" x="77.6235" y="-192.593" font-family="Helvetica,sans-Serif" font-size="10.00">1</text>
</a>
</g>
</g>
<!-- dir_4ab6b4cc6a7edbff49100e9123df213f -->
<g id="node5" class="node"><title>dir_4ab6b4cc6a7edbff49100e9123df213f</title>
<g id="a_node5"><a xlink:href="dir_4ab6b4cc6a7edbff49100e9123df213f.html" target="_top" xlink:title="Common">
<polygon fill="none" stroke="red" points="213.5,-36 158.5,-36 158.5,-0 213.5,-0 213.5,-36"/>
<text text-anchor="middle" x="186" y="-15.5" font-family="Helvetica,sans-Serif" font-size="10.00">Common</text>
</a>
</g>
</g>
<!-- dir_7c281addef852c536c8e0c04067ee355&#45;&gt;dir_4ab6b4cc6a7edbff49100e9123df213f -->
<g id="edge3" class="edge"><title>dir_7c281addef852c536c8e0c04067ee355&#45;&gt;dir_4ab6b4cc6a7edbff49100e9123df213f</title>
<path fill="none" stroke="black" d="M78.273,-219.411C81.1851,-218.174 84.1312,-217.01 87,-216 151.672,-193.242 194.553,-233.84 237,-180 238.996,-177.469 236.404,-72.99 236,-72 231.613,-61.2378 223.935,-51.374 215.893,-43.15"/>
<polygon fill="black" stroke="black" points="218.138,-40.4548 208.489,-36.0796 213.304,-45.5172 218.138,-40.4548"/>
<g id="a_edge3&#45;headlabel"><a xlink:href="dir_000103_000016.html" target="_top" xlink:title="1">
<text text-anchor="middle" x="222.699" y="-38.384" font-family="Helvetica,sans-Serif" font-size="10.00">1</text>
</a>
</g>
</g>
<!-- dir_a24d6d0829ce59989bf769e9c553cbcc -->
<g id="node6" class="node"><title>dir_a24d6d0829ce59989bf769e9c553cbcc</title>
<g id="a_node6"><a xlink:href="dir_a24d6d0829ce59989bf769e9c553cbcc.html" target="_top" xlink:title="common">
<polygon fill="none" stroke="red" points="228,-180 174,-180 174,-144 228,-144 228,-180"/>
<text text-anchor="middle" x="201" y="-159.5" font-family="Helvetica,sans-Serif" font-size="10.00">common</text>
</a>
</g>
</g>
<!-- dir_7c281addef852c536c8e0c04067ee355&#45;&gt;dir_a24d6d0829ce59989bf769e9c553cbcc -->
<g id="edge5" class="edge"><title>dir_7c281addef852c536c8e0c04067ee355&#45;&gt;dir_a24d6d0829ce59989bf769e9c553cbcc</title>
<path fill="none" stroke="black" d="M78.1186,-220.173C81.1142,-218.762 84.1209,-217.349 87,-216 112.94,-203.845 142.247,-190.223 164.65,-179.832"/>
<polygon fill="black" stroke="black" points="166.199,-182.972 173.799,-175.591 163.254,-176.621 166.199,-182.972"/>
<g id="a_edge5&#45;headlabel"><a xlink:href="dir_000103_000072.html" target="_top" xlink:title="1">
<text text-anchor="middle" x="164.132" y="-184.56" font-family="Helvetica,sans-Serif" font-size="10.00">1</text>
</a>
</g>
</g>
<!-- dir_d269712cc31e133b892a3b3f6424741a&#45;&gt;dir_4ab6b4cc6a7edbff49100e9123df213f -->
<g id="edge1" class="edge"><title>dir_d269712cc31e133b892a3b3f6424741a&#45;&gt;dir_4ab6b4cc6a7edbff49100e9123df213f</title>
<path fill="none" stroke="black" d="M180.084,-71.6966C179.289,-63.9827 179.062,-54.7125 179.405,-46.1124"/>
<polygon fill="black" stroke="black" points="182.898,-46.3243 180.105,-36.1043 175.915,-45.8356 182.898,-46.3243"/>
<g id="a_edge1&#45;headlabel"><a xlink:href="dir_000108_000016.html" target="_top" xlink:title="8">
<text text-anchor="middle" x="185.48" y="-47.6083" font-family="Helvetica,sans-Serif" font-size="10.00">8</text>
</a>
</g>
</g>
<!-- dir_4ab6b4cc6a7edbff49100e9123df213f&#45;&gt;dir_d269712cc31e133b892a3b3f6424741a -->
<g id="edge2" class="edge"><title>dir_4ab6b4cc6a7edbff49100e9123df213f&#45;&gt;dir_d269712cc31e133b892a3b3f6424741a</title>
<path fill="none" stroke="black" d="M191.895,-36.1043C192.701,-43.7913 192.937,-53.0537 192.604,-61.6651"/>
<polygon fill="black" stroke="black" points="189.109,-61.4805 191.916,-71.6966 196.092,-61.9597 189.109,-61.4805"/>
<g id="a_edge2&#45;headlabel"><a xlink:href="dir_000016_000108.html" target="_top" xlink:title="1">
<text text-anchor="middle" x="186.522" y="-55.2" font-family="Helvetica,sans-Serif" font-size="10.00">1</text>
</a>
</g>
</g>
<!-- dir_a24d6d0829ce59989bf769e9c553cbcc&#45;&gt;dir_d269712cc31e133b892a3b3f6424741a -->
<g id="edge7" class="edge"><title>dir_a24d6d0829ce59989bf769e9c553cbcc&#45;&gt;dir_d269712cc31e133b892a3b3f6424741a</title>
<path fill="none" stroke="black" d="M197.292,-143.697C195.639,-135.983 193.653,-126.712 191.81,-118.112"/>
<polygon fill="black" stroke="black" points="195.183,-117.149 189.665,-108.104 188.338,-118.616 195.183,-117.149"/>
<g id="a_edge7&#45;headlabel"><a xlink:href="dir_000072_000108.html" target="_top" xlink:title="1">
<text text-anchor="middle" x="198.712" y="-117.569" font-family="Helvetica,sans-Serif" font-size="10.00">1</text>
</a>
</g>
</g>
</g>
</svg>
