<?xml version="1.0" encoding="UTF-8" standalone="no"?>
<!DOCTYPE svg PUBLIC "-//W3C//DTD SVG 1.1//EN"
 "http://www.w3.org/Graphics/SVG/1.1/DTD/svg11.dtd">
<!-- Generated by graphviz version 2.36.0 (20140111.2315)
 -->
<!-- Title: /home/travis/build/AliceO2Group/AliceO2/Detectors/TPC/calibration/SpacePoints Pages: 1 -->
<svg width="200pt" height="303pt"
 viewBox="0.00 0.00 200.00 303.00" xmlns="http://www.w3.org/2000/svg" xmlns:xlink="http://www.w3.org/1999/xlink">
<g id="graph0" class="graph" transform="scale(1 1) rotate(0) translate(4 299)">
<title>/home/travis/build/AliceO2Group/AliceO2/Detectors/TPC/calibration/SpacePoints</title>
<g id="clust1" class="cluster"><title>clusterdir_4995562033b321477cfe3c34a14a5189</title>
<g id="a_clust1"><a xlink:href="dir_4995562033b321477cfe3c34a14a5189.html" target="_top" xlink:title="calibration">
<polygon fill="#ddddee" stroke="black" points="8,-128 8,-287 184,-287 184,-128 8,-128"/>
<text text-anchor="middle" x="96" y="-275" font-family="Helvetica,sans-Serif" font-size="10.00">calibration</text>
</a>
</g>
</g>
<g id="clust2" class="cluster"><title>clusterdir_7f0118076ec35c6eba4fbf3c8c648756</title>
<g id="a_clust2"><a xlink:href="dir_7f0118076ec35c6eba4fbf3c8c648756.html" target="_top">
<polygon fill="#eeeeff" stroke="black" points="16,-136 16,-260 176,-260 176,-136 16,-136"/>
</a>
</g>
</g>
<!-- dir_7f0118076ec35c6eba4fbf3c8c648756 -->
<g id="node1" class="node"><title>dir_7f0118076ec35c6eba4fbf3c8c648756</title>
<text text-anchor="middle" x="132" y="-231.5" font-family="Helvetica,sans-Serif" font-size="10.00">SpacePoints</text>
</g>
<!-- dir_2055e8b9f766f2ecf35205bcfa7b602c -->
<g id="node2" class="node"><title>dir_2055e8b9f766f2ecf35205bcfa7b602c</title>
<g id="a_node2"><a xlink:href="dir_2055e8b9f766f2ecf35205bcfa7b602c.html" target="_top" xlink:title="include">
<polygon fill="white" stroke="red" points="78,-180 24,-180 24,-144 78,-144 78,-180"/>
<text text-anchor="middle" x="51" y="-159.5" font-family="Helvetica,sans-Serif" font-size="10.00">include</text>
</a>
</g>
</g>
<!-- dir_2171f7ec022c5423887b07c69b2f5b48 -->
<g id="node5" class="node"><title>dir_2171f7ec022c5423887b07c69b2f5b48</title>
<g id="a_node5"><a xlink:href="dir_2171f7ec022c5423887b07c69b2f5b48.html" target="_top" xlink:title="DataFormats">
<polygon fill="none" stroke="red" points="83,-108 9,-108 9,-72 83,-72 83,-108"/>
<text text-anchor="middle" x="46" y="-87.5" font-family="Helvetica,sans-Serif" font-size="10.00">DataFormats</text>
</a>
</g>
</g>
<!-- dir_2055e8b9f766f2ecf35205bcfa7b602c&#45;&gt;dir_2171f7ec022c5423887b07c69b2f5b48 -->
<g id="edge1" class="edge"><title>dir_2055e8b9f766f2ecf35205bcfa7b602c&#45;&gt;dir_2171f7ec022c5423887b07c69b2f5b48</title>
<path fill="none" stroke="black" d="M49.764,-143.697C49.2131,-135.983 48.5509,-126.712 47.9366,-118.112"/>
<polygon fill="black" stroke="black" points="51.4254,-117.83 47.2217,-108.104 44.4432,-118.328 51.4254,-117.83"/>
<g id="a_edge1&#45;headlabel"><a xlink:href="dir_000274_000055.html" target="_top" xlink:title="2">
<text text-anchor="middle" x="54.5135" y="-118.713" font-family="Helvetica,sans-Serif" font-size="10.00">2</text>
</a>
</g>
</g>
<!-- dir_c2674d115144eca5f4f109769e5de0d0 -->
<g id="node3" class="node"><title>dir_c2674d115144eca5f4f109769e5de0d0</title>
<g id="a_node3"><a xlink:href="dir_c2674d115144eca5f4f109769e5de0d0.html" target="_top" xlink:title="src">
<polygon fill="white" stroke="black" points="78,-252 24,-252 24,-216 78,-216 78,-252"/>
<text text-anchor="middle" x="51" y="-231.5" font-family="Helvetica,sans-Serif" font-size="10.00">src</text>
</a>
</g>
</g>
<!-- dir_c2674d115144eca5f4f109769e5de0d0&#45;&gt;dir_2055e8b9f766f2ecf35205bcfa7b602c -->
<g id="edge3" class="edge"><title>dir_c2674d115144eca5f4f109769e5de0d0&#45;&gt;dir_2055e8b9f766f2ecf35205bcfa7b602c</title>
<path fill="none" stroke="black" d="M51,-215.697C51,-207.983 51,-198.712 51,-190.112"/>
<polygon fill="black" stroke="black" points="54.5001,-190.104 51,-180.104 47.5001,-190.104 54.5001,-190.104"/>
<g id="a_edge3&#45;headlabel"><a xlink:href="dir_000276_000274.html" target="_top" xlink:title="2">
<text text-anchor="middle" x="57.3393" y="-191.199" font-family="Helvetica,sans-Serif" font-size="10.00">2</text>
</a>
</g>
</g>
<!-- dir_4ab6b4cc6a7edbff49100e9123df213f -->
<g id="node4" class="node"><title>dir_4ab6b4cc6a7edbff49100e9123df213f</title>
<g id="a_node4"><a xlink:href="dir_4ab6b4cc6a7edbff49100e9123df213f.html" target="_top" xlink:title="Common">
<polygon fill="none" stroke="red" points="73.5,-36 18.5,-36 18.5,-0 73.5,-0 73.5,-36"/>
<text text-anchor="middle" x="46" y="-15.5" font-family="Helvetica,sans-Serif" font-size="10.00">Common</text>
</a>
</g>
</g>
<!-- dir_c2674d115144eca5f4f109769e5de0d0&#45;&gt;dir_4ab6b4cc6a7edbff49100e9123df213f -->
<g id="edge4" class="edge"><title>dir_c2674d115144eca5f4f109769e5de0d0&#45;&gt;dir_4ab6b4cc6a7edbff49100e9123df213f</title>
<path fill="none" stroke="black" d="M66.2474,-215.655C73.9042,-205.877 82.4914,-193.035 87,-180 102.707,-134.588 108.81,-117.015 92,-72 88.1239,-61.6206 81.1971,-51.9274 73.876,-43.7427"/>
<polygon fill="black" stroke="black" points="76.2694,-41.1816 66.8228,-36.3845 71.216,-46.0256 76.2694,-41.1816"/>
<g id="a_edge4&#45;headlabel"><a xlink:href="dir_000276_000016.html" target="_top" xlink:title="2">
<text text-anchor="middle" x="80.8065" y="-39.3118" font-family="Helvetica,sans-Serif" font-size="10.00">2</text>
</a>
</g>
</g>
<!-- dir_4ab6b4cc6a7edbff49100e9123df213f&#45;&gt;dir_2171f7ec022c5423887b07c69b2f5b48 -->
<g id="edge2" class="edge"><title>dir_4ab6b4cc6a7edbff49100e9123df213f&#45;&gt;dir_2171f7ec022c5423887b07c69b2f5b48</title>
<path fill="none" stroke="black" d="M51.895,-36.1043C52.7005,-43.7913 52.9369,-53.0537 52.604,-61.6651"/>
<polygon fill="black" stroke="black" points="49.1085,-61.4805 51.9157,-71.6966 56.0921,-61.9597 49.1085,-61.4805"/>
<g id="a_edge2&#45;headlabel"><a xlink:href="dir_000016_000055.html" target="_top" xlink:title="3">
<text text-anchor="middle" x="46.5219" y="-55.2" font-family="Helvetica,sans-Serif" font-size="10.00">3</text>
</a>
</g>
</g>
<!-- dir_2171f7ec022c5423887b07c69b2f5b48&#45;&gt;dir_4ab6b4cc6a7edbff49100e9123df213f -->
<g id="edge5" class="edge"><title>dir_2171f7ec022c5423887b07c69b2f5b48&#45;&gt;dir_4ab6b4cc6a7edbff49100e9123df213f</title>
<path fill="none" stroke="black" d="M40.0843,-71.6966C39.2886,-63.9827 39.0621,-54.7125 39.4047,-46.1124"/>
<polygon fill="black" stroke="black" points="42.8984,-46.3243 40.105,-36.1043 35.9154,-45.8356 42.8984,-46.3243"/>
<g id="a_edge5&#45;headlabel"><a xlink:href="dir_000055_000016.html" target="_top" xlink:title="26">
<text text-anchor="middle" x="45.4799" y="-47.6083" font-family="Helvetica,sans-Serif" font-size="10.00">26</text>
</a>
</g>
</g>
</g>
</svg>
