<?xml version="1.0" encoding="UTF-8" standalone="no"?>
<!DOCTYPE svg PUBLIC "-//W3C//DTD SVG 1.1//EN"
 "http://www.w3.org/Graphics/SVG/1.1/DTD/svg11.dtd">
<!-- Generated by graphviz version 2.36.0 (20140111.2315)
 -->
<!-- Title: /home/travis/build/AliceO2Group/AliceO2/Detectors/PHOS Pages: 1 -->
<svg width="341pt" height="447pt"
 viewBox="0.00 0.00 341.00 447.00" xmlns="http://www.w3.org/2000/svg" xmlns:xlink="http://www.w3.org/1999/xlink">
<g id="graph0" class="graph" transform="scale(1 1) rotate(0) translate(4 443)">
<title>/home/travis/build/AliceO2Group/AliceO2/Detectors/PHOS</title>
<g id="clust1" class="cluster"><title>clusterdir_051dca18e802f8e9474f2e30d29c04e0</title>
<g id="a_clust1"><a xlink:href="dir_051dca18e802f8e9474f2e30d29c04e0.html" target="_top" xlink:title="Detectors">
<polygon fill="#ddddee" stroke="black" points="8,-200 8,-431 218,-431 218,-200 8,-200"/>
<text text-anchor="middle" x="113" y="-419" font-family="Helvetica,sans-Serif" font-size="10.00">Detectors</text>
</a>
</g>
</g>
<g id="clust2" class="cluster"><title>clusterdir_cd3c152a7db0580c86a4c50ad0325149</title>
<g id="a_clust2"><a xlink:href="dir_cd3c152a7db0580c86a4c50ad0325149.html" target="_top">
<polygon fill="#eeeeff" stroke="black" points="16,-208 16,-404 210,-404 210,-208 16,-208"/>
</a>
</g>
</g>
<!-- dir_cd3c152a7db0580c86a4c50ad0325149 -->
<g id="node1" class="node"><title>dir_cd3c152a7db0580c86a4c50ad0325149</title>
<text text-anchor="middle" x="175" y="-375.5" font-family="Helvetica,sans-Serif" font-size="10.00">PHOS</text>
</g>
<!-- dir_fa21b46838f21636bfdcc60e4853f0ed -->
<g id="node2" class="node"><title>dir_fa21b46838f21636bfdcc60e4853f0ed</title>
<g id="a_node2"><a xlink:href="dir_fa21b46838f21636bfdcc60e4853f0ed.html" target="_top" xlink:title="base">
<polygon fill="white" stroke="red" points="185,-252 131,-252 131,-216 185,-216 185,-252"/>
<text text-anchor="middle" x="158" y="-231.5" font-family="Helvetica,sans-Serif" font-size="10.00">base</text>
</a>
</g>
</g>
<!-- dir_4ab6b4cc6a7edbff49100e9123df213f -->
<g id="node6" class="node"><title>dir_4ab6b4cc6a7edbff49100e9123df213f</title>
<g id="a_node6"><a xlink:href="dir_4ab6b4cc6a7edbff49100e9123df213f.html" target="_top" xlink:title="Common">
<polygon fill="none" stroke="red" points="236.5,-180 181.5,-180 181.5,-144 236.5,-144 236.5,-180"/>
<text text-anchor="middle" x="209" y="-159.5" font-family="Helvetica,sans-Serif" font-size="10.00">Common</text>
</a>
</g>
</g>
<!-- dir_fa21b46838f21636bfdcc60e4853f0ed&#45;&gt;dir_4ab6b4cc6a7edbff49100e9123df213f -->
<g id="edge1" class="edge"><title>dir_fa21b46838f21636bfdcc60e4853f0ed&#45;&gt;dir_4ab6b4cc6a7edbff49100e9123df213f</title>
<path fill="none" stroke="black" d="M170.607,-215.697C176.597,-207.474 183.876,-197.483 190.479,-188.421"/>
<polygon fill="black" stroke="black" points="193.478,-190.248 196.538,-180.104 187.821,-186.126 193.478,-190.248"/>
<g id="a_edge1&#45;headlabel"><a xlink:href="dir_000228_000016.html" target="_top" xlink:title="1">
<text text-anchor="middle" x="193.657" y="-192.325" font-family="Helvetica,sans-Serif" font-size="10.00">1</text>
</a>
</g>
</g>
<!-- dir_2171f7ec022c5423887b07c69b2f5b48 -->
<g id="node9" class="node"><title>dir_2171f7ec022c5423887b07c69b2f5b48</title>
<g id="a_node9"><a xlink:href="dir_2171f7ec022c5423887b07c69b2f5b48.html" target="_top" xlink:title="DataFormats">
<polygon fill="none" stroke="red" points="181,-108 107,-108 107,-72 181,-72 181,-108"/>
<text text-anchor="middle" x="144" y="-87.5" font-family="Helvetica,sans-Serif" font-size="10.00">DataFormats</text>
</a>
</g>
</g>
<!-- dir_fa21b46838f21636bfdcc60e4853f0ed&#45;&gt;dir_2171f7ec022c5423887b07c69b2f5b48 -->
<g id="edge2" class="edge"><title>dir_fa21b46838f21636bfdcc60e4853f0ed&#45;&gt;dir_2171f7ec022c5423887b07c69b2f5b48</title>
<path fill="none" stroke="black" d="M156.311,-215.871C153.925,-191.67 149.542,-147.211 146.701,-118.393"/>
<polygon fill="black" stroke="black" points="150.159,-117.798 145.695,-108.189 143.193,-118.484 150.159,-117.798"/>
<g id="a_edge2&#45;headlabel"><a xlink:href="dir_000228_000055.html" target="_top" xlink:title="3">
<text text-anchor="middle" x="153.337" y="-118.596" font-family="Helvetica,sans-Serif" font-size="10.00">3</text>
</a>
</g>
</g>
<!-- dir_da16e9ad2b18bb132f2d9a9746692e88 -->
<g id="node3" class="node"><title>dir_da16e9ad2b18bb132f2d9a9746692e88</title>
<g id="a_node3"><a xlink:href="dir_da16e9ad2b18bb132f2d9a9746692e88.html" target="_top" xlink:title="reconstruction">
<polygon fill="white" stroke="red" points="102,-324 24,-324 24,-288 102,-288 102,-324"/>
<text text-anchor="middle" x="63" y="-303.5" font-family="Helvetica,sans-Serif" font-size="10.00">reconstruction</text>
</a>
</g>
</g>
<!-- dir_da16e9ad2b18bb132f2d9a9746692e88&#45;&gt;dir_fa21b46838f21636bfdcc60e4853f0ed -->
<g id="edge16" class="edge"><title>dir_da16e9ad2b18bb132f2d9a9746692e88&#45;&gt;dir_fa21b46838f21636bfdcc60e4853f0ed</title>
<path fill="none" stroke="black" d="M86.4832,-287.697C98.5626,-278.796 113.454,-267.823 126.516,-258.199"/>
<polygon fill="black" stroke="black" points="128.813,-260.854 134.787,-252.104 124.66,-255.219 128.813,-260.854"/>
<g id="a_edge16&#45;headlabel"><a xlink:href="dir_000088_000228.html" target="_top" xlink:title="6">
<text text-anchor="middle" x="127.603" y="-262.772" font-family="Helvetica,sans-Serif" font-size="10.00">6</text>
</a>
</g>
</g>
<!-- dir_da16e9ad2b18bb132f2d9a9746692e88&#45;&gt;dir_2171f7ec022c5423887b07c69b2f5b48 -->
<g id="edge17" class="edge"><title>dir_da16e9ad2b18bb132f2d9a9746692e88&#45;&gt;dir_2171f7ec022c5423887b07c69b2f5b48</title>
<path fill="none" stroke="black" d="M67.8657,-287.774C76.4819,-257.979 95.5496,-195.107 117,-144 120.717,-135.145 125.296,-125.729 129.621,-117.328"/>
<polygon fill="black" stroke="black" points="132.781,-118.839 134.337,-108.359 126.585,-115.582 132.781,-118.839"/>
<g id="a_edge17&#45;headlabel"><a xlink:href="dir_000088_000055.html" target="_top" xlink:title="1">
<text text-anchor="middle" x="133.622" y="-120.842" font-family="Helvetica,sans-Serif" font-size="10.00">1</text>
</a>
</g>
</g>
<!-- dir_3af9af54da49e799fe4b1df79119dad7 -->
<g id="node4" class="node"><title>dir_3af9af54da49e799fe4b1df79119dad7</title>
<g id="a_node4"><a xlink:href="dir_3af9af54da49e799fe4b1df79119dad7.html" target="_top" xlink:title="simulation">
<polygon fill="white" stroke="red" points="181.25,-324 120.75,-324 120.75,-288 181.25,-288 181.25,-324"/>
<text text-anchor="middle" x="151" y="-303.5" font-family="Helvetica,sans-Serif" font-size="10.00">simulation</text>
</a>
</g>
</g>
<!-- dir_3af9af54da49e799fe4b1df79119dad7&#45;&gt;dir_fa21b46838f21636bfdcc60e4853f0ed -->
<g id="edge6" class="edge"><title>dir_3af9af54da49e799fe4b1df79119dad7&#45;&gt;dir_fa21b46838f21636bfdcc60e4853f0ed</title>
<path fill="none" stroke="black" d="M152.73,-287.697C153.502,-279.983 154.429,-270.712 155.289,-262.112"/>
<polygon fill="black" stroke="black" points="158.777,-262.403 156.29,-252.104 151.812,-261.706 158.777,-262.403"/>
<g id="a_edge6&#45;headlabel"><a xlink:href="dir_000186_000228.html" target="_top" xlink:title="9">
<text text-anchor="middle" x="161.245" y="-263.762" font-family="Helvetica,sans-Serif" font-size="10.00">9</text>
</a>
</g>
</g>
<!-- dir_3af9af54da49e799fe4b1df79119dad7&#45;&gt;dir_4ab6b4cc6a7edbff49100e9123df213f -->
<g id="edge7" class="edge"><title>dir_3af9af54da49e799fe4b1df79119dad7&#45;&gt;dir_4ab6b4cc6a7edbff49100e9123df213f</title>
<path fill="none" stroke="black" d="M168.683,-287.938C177.674,-278.243 187.951,-265.39 194,-252 202.802,-232.515 206.482,-208.516 208,-190.351"/>
<polygon fill="black" stroke="black" points="211.507,-190.358 208.679,-180.148 204.523,-189.893 211.507,-190.358"/>
<g id="a_edge7&#45;headlabel"><a xlink:href="dir_000186_000016.html" target="_top" xlink:title="1">
<text text-anchor="middle" x="214.102" y="-191.633" font-family="Helvetica,sans-Serif" font-size="10.00">1</text>
</a>
</g>
</g>
<!-- dir_37c90836491b695b472bf98d1be8336b -->
<g id="node7" class="node"><title>dir_37c90836491b695b472bf98d1be8336b</title>
<g id="a_node7"><a xlink:href="dir_37c90836491b695b472bf98d1be8336b.html" target="_top" xlink:title="Base">
<polygon fill="none" stroke="red" points="171,-36 117,-36 117,-0 171,-0 171,-36"/>
<text text-anchor="middle" x="144" y="-15.5" font-family="Helvetica,sans-Serif" font-size="10.00">Base</text>
</a>
</g>
</g>
<!-- dir_3af9af54da49e799fe4b1df79119dad7&#45;&gt;dir_37c90836491b695b472bf98d1be8336b -->
<g id="edge8" class="edge"><title>dir_3af9af54da49e799fe4b1df79119dad7&#45;&gt;dir_37c90836491b695b472bf98d1be8336b</title>
<path fill="none" stroke="black" d="M135.543,-287.645C127.737,-277.865 118.903,-265.023 114,-252 85.7026,-176.835 69.9022,-147.24 98,-72 101.876,-61.6206 108.803,-51.9274 116.124,-43.7427"/>
<polygon fill="black" stroke="black" points="118.784,-46.0256 123.177,-36.3845 113.731,-41.1816 118.784,-46.0256"/>
<g id="a_edge8&#45;headlabel"><a xlink:href="dir_000186_000160.html" target="_top" xlink:title="1">
<text text-anchor="middle" x="118.346" y="-48.0853" font-family="Helvetica,sans-Serif" font-size="10.00">1</text>
</a>
</g>
</g>
<!-- dir_3af9af54da49e799fe4b1df79119dad7&#45;&gt;dir_2171f7ec022c5423887b07c69b2f5b48 -->
<g id="edge9" class="edge"><title>dir_3af9af54da49e799fe4b1df79119dad7&#45;&gt;dir_2171f7ec022c5423887b07c69b2f5b48</title>
<path fill="none" stroke="black" d="M138.693,-287.784C132.35,-277.843 125.274,-264.804 122,-252 110.144,-205.634 123.662,-150.02 134.131,-117.775"/>
<polygon fill="black" stroke="black" points="137.492,-118.762 137.387,-108.168 130.862,-116.515 137.492,-118.762"/>
<g id="a_edge9&#45;headlabel"><a xlink:href="dir_000186_000055.html" target="_top" xlink:title="2">
<text text-anchor="middle" x="139.027" y="-120.578" font-family="Helvetica,sans-Serif" font-size="10.00">2</text>
</a>
</g>
</g>
<!-- dir_9e3d25d7c257305d9f7be6cf72d34a88 -->
<g id="node5" class="node"><title>dir_9e3d25d7c257305d9f7be6cf72d34a88</title>
<g id="a_node5"><a xlink:href="dir_9e3d25d7c257305d9f7be6cf72d34a88.html" target="_top" xlink:title="testsimulation">
<polygon fill="white" stroke="black" points="129.25,-396 52.75,-396 52.75,-360 129.25,-360 129.25,-396"/>
<text text-anchor="middle" x="91" y="-375.5" font-family="Helvetica,sans-Serif" font-size="10.00">testsimulation</text>
</a>
</g>
</g>
<!-- dir_9e3d25d7c257305d9f7be6cf72d34a88&#45;&gt;dir_fa21b46838f21636bfdcc60e4853f0ed -->
<g id="edge10" class="edge"><title>dir_9e3d25d7c257305d9f7be6cf72d34a88&#45;&gt;dir_fa21b46838f21636bfdcc60e4853f0ed</title>
<path fill="none" stroke="black" d="M129.506,-361.31C154.244,-350.356 183.013,-335.666 190,-324 201.945,-304.057 190.89,-278.951 178.622,-260.493"/>
<polygon fill="black" stroke="black" points="181.43,-258.402 172.789,-252.271 175.721,-262.452 181.43,-258.402"/>
<g id="a_edge10&#45;headlabel"><a xlink:href="dir_000369_000228.html" target="_top" xlink:title="4">
<text text-anchor="middle" x="185.825" y="-257.19" font-family="Helvetica,sans-Serif" font-size="10.00">4</text>
</a>
</g>
</g>
<!-- dir_9e3d25d7c257305d9f7be6cf72d34a88&#45;&gt;dir_da16e9ad2b18bb132f2d9a9746692e88 -->
<g id="edge13" class="edge"><title>dir_9e3d25d7c257305d9f7be6cf72d34a88&#45;&gt;dir_da16e9ad2b18bb132f2d9a9746692e88</title>
<path fill="none" stroke="black" d="M84.0786,-359.697C80.9253,-351.813 77.1217,-342.304 73.6186,-333.546"/>
<polygon fill="black" stroke="black" points="76.8054,-332.089 69.8417,-324.104 70.306,-334.689 76.8054,-332.089"/>
<g id="a_edge13&#45;headlabel"><a xlink:href="dir_000369_000088.html" target="_top" xlink:title="2">
<text text-anchor="middle" x="80.7765" y="-331.872" font-family="Helvetica,sans-Serif" font-size="10.00">2</text>
</a>
</g>
</g>
<!-- dir_9e3d25d7c257305d9f7be6cf72d34a88&#45;&gt;dir_3af9af54da49e799fe4b1df79119dad7 -->
<g id="edge12" class="edge"><title>dir_9e3d25d7c257305d9f7be6cf72d34a88&#45;&gt;dir_3af9af54da49e799fe4b1df79119dad7</title>
<path fill="none" stroke="black" d="M105.831,-359.697C113.025,-351.305 121.797,-341.07 129.69,-331.861"/>
<polygon fill="black" stroke="black" points="132.489,-333.975 136.339,-324.104 127.174,-329.419 132.489,-333.975"/>
<g id="a_edge12&#45;headlabel"><a xlink:href="dir_000369_000186.html" target="_top" xlink:title="4">
<text text-anchor="middle" x="132.305" y="-336.052" font-family="Helvetica,sans-Serif" font-size="10.00">4</text>
</a>
</g>
</g>
<!-- dir_9e3d25d7c257305d9f7be6cf72d34a88&#45;&gt;dir_4ab6b4cc6a7edbff49100e9123df213f -->
<g id="edge11" class="edge"><title>dir_9e3d25d7c257305d9f7be6cf72d34a88&#45;&gt;dir_4ab6b4cc6a7edbff49100e9123df213f</title>
<path fill="none" stroke="black" d="M129.469,-362.037C156.247,-350.889 188.747,-335.646 198,-324 228.325,-285.831 222.509,-225.17 215.671,-190.225"/>
<polygon fill="black" stroke="black" points="219.056,-189.314 213.555,-180.259 212.209,-190.768 219.056,-189.314"/>
<g id="a_edge11&#45;headlabel"><a xlink:href="dir_000369_000016.html" target="_top" xlink:title="1">
<text text-anchor="middle" x="222.58" y="-189.741" font-family="Helvetica,sans-Serif" font-size="10.00">1</text>
</a>
</g>
</g>
<!-- dir_f01815b857f9009bea48e2cb39492245 -->
<g id="node8" class="node"><title>dir_f01815b857f9009bea48e2cb39492245</title>
<g id="a_node8"><a xlink:href="dir_f01815b857f9009bea48e2cb39492245.html" target="_top" xlink:title="Passive">
<polygon fill="none" stroke="red" points="333,-252 279,-252 279,-216 333,-216 333,-252"/>
<text text-anchor="middle" x="306" y="-231.5" font-family="Helvetica,sans-Serif" font-size="10.00">Passive</text>
</a>
</g>
</g>
<!-- dir_9e3d25d7c257305d9f7be6cf72d34a88&#45;&gt;dir_f01815b857f9009bea48e2cb39492245 -->
<g id="edge14" class="edge"><title>dir_9e3d25d7c257305d9f7be6cf72d34a88&#45;&gt;dir_f01815b857f9009bea48e2cb39492245</title>
<path fill="none" stroke="black" d="M129.441,-363.149C132.666,-362.059 135.884,-360.996 139,-360 194.476,-342.27 220.783,-361.906 265,-324 283.698,-307.971 294.359,-281.61 300.095,-261.728"/>
<polygon fill="black" stroke="black" points="303.492,-262.573 302.661,-252.011 296.724,-260.786 303.492,-262.573"/>
<g id="a_edge14&#45;headlabel"><a xlink:href="dir_000369_000364.html" target="_top" xlink:title="4">
<text text-anchor="middle" x="305.319" y="-264.274" font-family="Helvetica,sans-Serif" font-size="10.00">4</text>
</a>
</g>
</g>
<!-- dir_9e3d25d7c257305d9f7be6cf72d34a88&#45;&gt;dir_2171f7ec022c5423887b07c69b2f5b48 -->
<g id="edge15" class="edge"><title>dir_9e3d25d7c257305d9f7be6cf72d34a88&#45;&gt;dir_2171f7ec022c5423887b07c69b2f5b48</title>
<path fill="none" stroke="black" d="M52.6245,-360.02C38.093,-351.461 23.111,-339.545 15,-324 7.59849,-309.815 10.7844,-303.435 15,-288 34.0461,-218.266 88.3262,-150.878 120.08,-115.864"/>
<polygon fill="black" stroke="black" points="123.048,-117.808 127.253,-108.083 117.902,-113.064 123.048,-117.808"/>
<g id="a_edge15&#45;headlabel"><a xlink:href="dir_000369_000055.html" target="_top" xlink:title="3">
<text text-anchor="middle" x="122.7" y="-119.875" font-family="Helvetica,sans-Serif" font-size="10.00">3</text>
</a>
</g>
</g>
<!-- dir_4ab6b4cc6a7edbff49100e9123df213f&#45;&gt;dir_2171f7ec022c5423887b07c69b2f5b48 -->
<g id="edge3" class="edge"><title>dir_4ab6b4cc6a7edbff49100e9123df213f&#45;&gt;dir_2171f7ec022c5423887b07c69b2f5b48</title>
<path fill="none" stroke="black" d="M187.017,-143.697C178.359,-135.305 168.664,-125.07 160.594,-115.861"/>
<polygon fill="black" stroke="black" points="163.136,-113.448 153.988,-108.104 157.807,-117.987 163.136,-113.448"/>
<g id="a_edge3&#45;headlabel"><a xlink:href="dir_000016_000055.html" target="_top" xlink:title="3">
<text text-anchor="middle" x="167.628" y="-111.844" font-family="Helvetica,sans-Serif" font-size="10.00">3</text>
</a>
</g>
</g>
<!-- dir_37c90836491b695b472bf98d1be8336b&#45;&gt;dir_4ab6b4cc6a7edbff49100e9123df213f -->
<g id="edge4" class="edge"><title>dir_37c90836491b695b472bf98d1be8336b&#45;&gt;dir_4ab6b4cc6a7edbff49100e9123df213f</title>
<path fill="none" stroke="black" d="M163.164,-36.4281C172.609,-46.0375 183.367,-58.6979 190,-72 199.666,-91.3839 204.428,-115.531 206.767,-133.78"/>
<polygon fill="black" stroke="black" points="203.293,-134.213 207.882,-143.763 210.25,-133.436 203.293,-134.213"/>
<g id="a_edge4&#45;headlabel"><a xlink:href="dir_000160_000016.html" target="_top" xlink:title="9">
<text text-anchor="middle" x="200.072" y="-128.456" font-family="Helvetica,sans-Serif" font-size="10.00">9</text>
</a>
</g>
</g>
<!-- dir_37c90836491b695b472bf98d1be8336b&#45;&gt;dir_2171f7ec022c5423887b07c69b2f5b48 -->
<g id="edge5" class="edge"><title>dir_37c90836491b695b472bf98d1be8336b&#45;&gt;dir_2171f7ec022c5423887b07c69b2f5b48</title>
<path fill="none" stroke="black" d="M149.895,-36.1043C150.701,-43.7913 150.937,-53.0537 150.604,-61.6651"/>
<polygon fill="black" stroke="black" points="147.109,-61.4805 149.916,-71.6966 154.092,-61.9597 147.109,-61.4805"/>
<g id="a_edge5&#45;headlabel"><a xlink:href="dir_000160_000055.html" target="_top" xlink:title="6">
<text text-anchor="middle" x="144.522" y="-55.2" font-family="Helvetica,sans-Serif" font-size="10.00">6</text>
</a>
</g>
</g>
<!-- dir_f01815b857f9009bea48e2cb39492245&#45;&gt;dir_4ab6b4cc6a7edbff49100e9123df213f -->
<g id="edge18" class="edge"><title>dir_f01815b857f9009bea48e2cb39492245&#45;&gt;dir_4ab6b4cc6a7edbff49100e9123df213f</title>
<path fill="none" stroke="black" d="M285.438,-215.827C278.993,-210.614 271.789,-204.958 265,-200 258.45,-195.216 251.321,-190.298 244.413,-185.673"/>
<polygon fill="black" stroke="black" points="246.112,-182.6 235.841,-180.003 242.25,-188.439 246.112,-182.6"/>
<g id="a_edge18&#45;headlabel"><a xlink:href="dir_000364_000016.html" target="_top" xlink:title="5">
<text text-anchor="middle" x="250.677" y="-179.715" font-family="Helvetica,sans-Serif" font-size="10.00">5</text>
</a>
</g>
</g>
<!-- dir_f01815b857f9009bea48e2cb39492245&#45;&gt;dir_37c90836491b695b472bf98d1be8336b -->
<g id="edge19" class="edge"><title>dir_f01815b857f9009bea48e2cb39492245&#45;&gt;dir_37c90836491b695b472bf98d1be8336b</title>
<path fill="none" stroke="black" d="M298.395,-215.68C284.231,-184.646 251.535,-118.468 211,-72 201.522,-61.1343 189.58,-50.8778 178.412,-42.3348"/>
<polygon fill="black" stroke="black" points="180.194,-39.299 170.077,-36.1542 176.025,-44.9219 180.194,-39.299"/>
<g id="a_edge19&#45;headlabel"><a xlink:href="dir_000364_000160.html" target="_top" xlink:title="16">
<text text-anchor="middle" x="184.773" y="-36.6593" font-family="Helvetica,sans-Serif" font-size="10.00">16</text>
</a>
</g>
</g>
<!-- dir_2171f7ec022c5423887b07c69b2f5b48&#45;&gt;dir_4ab6b4cc6a7edbff49100e9123df213f -->
<g id="edge20" class="edge"><title>dir_2171f7ec022c5423887b07c69b2f5b48&#45;&gt;dir_4ab6b4cc6a7edbff49100e9123df213f</title>
<path fill="none" stroke="black" d="M165.778,-108.104C174.419,-116.467 184.119,-126.694 192.214,-135.92"/>
<polygon fill="black" stroke="black" points="189.696,-138.36 198.848,-143.697 195.021,-133.817 189.696,-138.36"/>
<g id="a_edge20&#45;headlabel"><a xlink:href="dir_000055_000016.html" target="_top" xlink:title="26">
<text text-anchor="middle" x="185.203" y="-134.968" font-family="Helvetica,sans-Serif" font-size="10.00">26</text>
</a>
</g>
</g>
<!-- dir_2171f7ec022c5423887b07c69b2f5b48&#45;&gt;dir_37c90836491b695b472bf98d1be8336b -->
<g id="edge21" class="edge"><title>dir_2171f7ec022c5423887b07c69b2f5b48&#45;&gt;dir_37c90836491b695b472bf98d1be8336b</title>
<path fill="none" stroke="black" d="M138.084,-71.6966C137.289,-63.9827 137.062,-54.7125 137.405,-46.1124"/>
<polygon fill="black" stroke="black" points="140.898,-46.3243 138.105,-36.1043 133.915,-45.8356 140.898,-46.3243"/>
<g id="a_edge21&#45;headlabel"><a xlink:href="dir_000055_000160.html" target="_top" xlink:title="1">
<text text-anchor="middle" x="143.48" y="-47.6083" font-family="Helvetica,sans-Serif" font-size="10.00">1</text>
</a>
</g>
</g>
</g>
</svg>
