<?xml version="1.0" encoding="UTF-8" standalone="no"?>
<!DOCTYPE svg PUBLIC "-//W3C//DTD SVG 1.1//EN"
 "http://www.w3.org/Graphics/SVG/1.1/DTD/svg11.dtd">
<!-- Generated by graphviz version 2.36.0 (20140111.2315)
 -->
<!-- Title: /home/travis/build/AliceO2Group/AliceO2/DataFormats/simulation/src Pages: 1 -->
<svg width="193pt" height="367pt"
 viewBox="0.00 0.00 192.80 367.00" xmlns="http://www.w3.org/2000/svg" xmlns:xlink="http://www.w3.org/1999/xlink">
<g id="graph0" class="graph" transform="scale(1 1) rotate(0) translate(4 363)">
<title>/home/travis/build/AliceO2Group/AliceO2/DataFormats/simulation/src</title>
<g id="clust1" class="cluster"><title>clusterdir_047746f9f311f49446db9474b7431d0d</title>
<g id="a_clust1"><a xlink:href="dir_047746f9f311f49446db9474b7431d0d.html" target="_top" xlink:title="simulation">
<polygon fill="#ddddee" stroke="black" points="36.7977,-280 36.7977,-351 106.798,-351 106.798,-280 36.7977,-280"/>
<text text-anchor="middle" x="71.7977" y="-339" font-family="Helvetica,sans-Serif" font-size="10.00">simulation</text>
</a>
</g>
</g>
<!-- dir_38abbb9c71f32f91a25826cfc3ede3a8 -->
<g id="node1" class="node"><title>dir_38abbb9c71f32f91a25826cfc3ede3a8</title>
<g id="a_node1"><a xlink:href="dir_38abbb9c71f32f91a25826cfc3ede3a8.html" target="_top" xlink:title="src">
<polygon fill="#eeeeff" stroke="black" points="98.7977,-324 44.7977,-324 44.7977,-288 98.7977,-288 98.7977,-324"/>
<text text-anchor="middle" x="71.7977" y="-303.5" font-family="Helvetica,sans-Serif" font-size="10.00">src</text>
</a>
</g>
</g>
<!-- dir_4ab6b4cc6a7edbff49100e9123df213f -->
<g id="node2" class="node"><title>dir_4ab6b4cc6a7edbff49100e9123df213f</title>
<g id="a_node2"><a xlink:href="dir_4ab6b4cc6a7edbff49100e9123df213f.html" target="_top" xlink:title="Common">
<polygon fill="none" stroke="red" points="184.298,-180 129.298,-180 129.298,-144 184.298,-144 184.298,-180"/>
<text text-anchor="middle" x="156.798" y="-159.5" font-family="Helvetica,sans-Serif" font-size="10.00">Common</text>
</a>
</g>
</g>
<!-- dir_38abbb9c71f32f91a25826cfc3ede3a8&#45;&gt;dir_4ab6b4cc6a7edbff49100e9123df213f -->
<g id="edge1" class="edge"><title>dir_38abbb9c71f32f91a25826cfc3ede3a8&#45;&gt;dir_4ab6b4cc6a7edbff49100e9123df213f</title>
<path fill="none" stroke="black" d="M87.6541,-287.657C96.3105,-277.676 106.851,-264.639 114.798,-252 127.381,-231.985 138.633,-207.604 146.315,-189.425"/>
<polygon fill="black" stroke="black" points="149.613,-190.609 150.202,-180.031 143.145,-187.933 149.613,-190.609"/>
<g id="a_edge1&#45;headlabel"><a xlink:href="dir_000153_000016.html" target="_top" xlink:title="1">
<text text-anchor="middle" x="150.862" y="-192.516" font-family="Helvetica,sans-Serif" font-size="10.00">1</text>
</a>
</g>
</g>
<!-- dir_2801adc79bf3c286b1b479858d2cade4 -->
<g id="node3" class="node"><title>dir_2801adc79bf3c286b1b479858d2cade4</title>
<g id="a_node3"><a xlink:href="dir_2801adc79bf3c286b1b479858d2cade4.html" target="_top" xlink:title="Detectors">
<polygon fill="none" stroke="red" points="128.048,-108 69.5477,-108 69.5477,-72 128.048,-72 128.048,-108"/>
<text text-anchor="middle" x="98.7977" y="-87.5" font-family="Helvetica,sans-Serif" font-size="10.00">Detectors</text>
</a>
</g>
</g>
<!-- dir_38abbb9c71f32f91a25826cfc3ede3a8&#45;&gt;dir_2801adc79bf3c286b1b479858d2cade4 -->
<g id="edge2" class="edge"><title>dir_38abbb9c71f32f91a25826cfc3ede3a8&#45;&gt;dir_2801adc79bf3c286b1b479858d2cade4</title>
<path fill="none" stroke="black" d="M74.9638,-287.853C76.8129,-277.494 79.1074,-264.015 80.7977,-252 87.381,-205.208 93.076,-150.49 96.2132,-118.403"/>
<polygon fill="black" stroke="black" points="99.6985,-118.723 97.1767,-108.433 92.7309,-118.05 99.6985,-118.723"/>
<g id="a_edge2&#45;headlabel"><a xlink:href="dir_000153_000065.html" target="_top" xlink:title="1">
<text text-anchor="middle" x="102.179" y="-120.074" font-family="Helvetica,sans-Serif" font-size="10.00">1</text>
</a>
</g>
</g>
<!-- dir_051dca18e802f8e9474f2e30d29c04e0 -->
<g id="node4" class="node"><title>dir_051dca18e802f8e9474f2e30d29c04e0</title>
<g id="a_node4"><a xlink:href="dir_051dca18e802f8e9474f2e30d29c04e0.html" target="_top" xlink:title="Detectors">
<polygon fill="none" stroke="red" points="72.0477,-252 13.5477,-252 13.5477,-216 72.0477,-216 72.0477,-252"/>
<text text-anchor="middle" x="42.7977" y="-231.5" font-family="Helvetica,sans-Serif" font-size="10.00">Detectors</text>
</a>
</g>
</g>
<!-- dir_38abbb9c71f32f91a25826cfc3ede3a8&#45;&gt;dir_051dca18e802f8e9474f2e30d29c04e0 -->
<g id="edge3" class="edge"><title>dir_38abbb9c71f32f91a25826cfc3ede3a8&#45;&gt;dir_051dca18e802f8e9474f2e30d29c04e0</title>
<path fill="none" stroke="black" d="M64.6292,-287.697C61.3632,-279.813 57.4238,-270.304 53.7955,-261.546"/>
<polygon fill="black" stroke="black" points="56.9448,-260.003 49.8838,-252.104 50.4778,-262.683 56.9448,-260.003"/>
<g id="a_edge3&#45;headlabel"><a xlink:href="dir_000153_000029.html" target="_top" xlink:title="1">
<text text-anchor="middle" x="60.9436" y="-259.738" font-family="Helvetica,sans-Serif" font-size="10.00">1</text>
</a>
</g>
</g>
<!-- dir_e977c6a9672cee72083a88d55f0ce0c6 -->
<g id="node5" class="node"><title>dir_e977c6a9672cee72083a88d55f0ce0c6</title>
<g id="a_node5"><a xlink:href="dir_e977c6a9672cee72083a88d55f0ce0c6.html" target="_top" xlink:title="include">
<polygon fill="none" stroke="red" points="125.798,-36 71.7977,-36 71.7977,-0 125.798,-0 125.798,-36"/>
<text text-anchor="middle" x="98.7977" y="-15.5" font-family="Helvetica,sans-Serif" font-size="10.00">include</text>
</a>
</g>
</g>
<!-- dir_38abbb9c71f32f91a25826cfc3ede3a8&#45;&gt;dir_e977c6a9672cee72083a88d55f0ce0c6 -->
<g id="edge4" class="edge"><title>dir_38abbb9c71f32f91a25826cfc3ede3a8&#45;&gt;dir_e977c6a9672cee72083a88d55f0ce0c6</title>
<path fill="none" stroke="black" d="M44.4531,-291.62C29.4726,-282.672 12.2722,-269.349 3.79775,-252 -3.22456,-237.623 1.48443,-231.832 3.79775,-216 13.4548,-149.909 12.8576,-129.526 46.7977,-72 52.9785,-61.524 61.6676,-51.5701 70.1763,-43.1768"/>
<polygon fill="black" stroke="black" points="72.6685,-45.6374 77.5395,-36.2286 67.8643,-40.5462 72.6685,-45.6374"/>
<g id="a_edge4&#45;headlabel"><a xlink:href="dir_000153_000132.html" target="_top" xlink:title="8">
<text text-anchor="middle" x="72.0027" y="-47.6694" font-family="Helvetica,sans-Serif" font-size="10.00">8</text>
</a>
</g>
</g>
<!-- dir_4ab6b4cc6a7edbff49100e9123df213f&#45;&gt;dir_2801adc79bf3c286b1b479858d2cade4 -->
<g id="edge5" class="edge"><title>dir_4ab6b4cc6a7edbff49100e9123df213f&#45;&gt;dir_2801adc79bf3c286b1b479858d2cade4</title>
<path fill="none" stroke="black" d="M136.545,-143.697C128.805,-135.389 120.229,-125.277 113.123,-116.141"/>
<polygon fill="black" stroke="black" points="115.884,-113.99 107.075,-108.104 110.291,-118.199 115.884,-113.99"/>
<g id="a_edge5&#45;headlabel"><a xlink:href="dir_000016_000065.html" target="_top" xlink:title="2">
<text text-anchor="middle" x="120.315" y="-112.655" font-family="Helvetica,sans-Serif" font-size="10.00">2</text>
</a>
</g>
</g>
<!-- dir_2801adc79bf3c286b1b479858d2cade4&#45;&gt;dir_4ab6b4cc6a7edbff49100e9123df213f -->
<g id="edge6" class="edge"><title>dir_2801adc79bf3c286b1b479858d2cade4&#45;&gt;dir_4ab6b4cc6a7edbff49100e9123df213f</title>
<path fill="none" stroke="black" d="M118.865,-108.104C126.592,-116.383 135.172,-126.488 142.302,-135.64"/>
<polygon fill="black" stroke="black" points="139.562,-137.819 148.376,-143.697 145.151,-133.605 139.562,-137.819"/>
<g id="a_edge6&#45;headlabel"><a xlink:href="dir_000065_000016.html" target="_top" xlink:title="9">
<text text-anchor="middle" x="135.13" y="-134.158" font-family="Helvetica,sans-Serif" font-size="10.00">9</text>
</a>
</g>
</g>
<!-- dir_2801adc79bf3c286b1b479858d2cade4&#45;&gt;dir_e977c6a9672cee72083a88d55f0ce0c6 -->
<g id="edge7" class="edge"><title>dir_2801adc79bf3c286b1b479858d2cade4&#45;&gt;dir_e977c6a9672cee72083a88d55f0ce0c6</title>
<path fill="none" stroke="black" d="M92.882,-71.6966C92.0863,-63.9827 91.8598,-54.7125 92.2025,-46.1124"/>
<polygon fill="black" stroke="black" points="95.6961,-46.3243 92.9027,-36.1043 88.7132,-45.8356 95.6961,-46.3243"/>
<g id="a_edge7&#45;headlabel"><a xlink:href="dir_000065_000132.html" target="_top" xlink:title="4">
<text text-anchor="middle" x="98.2777" y="-47.6083" font-family="Helvetica,sans-Serif" font-size="10.00">4</text>
</a>
</g>
</g>
<!-- dir_051dca18e802f8e9474f2e30d29c04e0&#45;&gt;dir_4ab6b4cc6a7edbff49100e9123df213f -->
<g id="edge8" class="edge"><title>dir_051dca18e802f8e9474f2e30d29c04e0&#45;&gt;dir_4ab6b4cc6a7edbff49100e9123df213f</title>
<path fill="none" stroke="black" d="M70.6853,-215.876C85.702,-206.655 104.404,-195.172 120.538,-185.265"/>
<polygon fill="black" stroke="black" points="122.508,-188.162 129.198,-179.947 118.845,-182.197 122.508,-188.162"/>
<g id="a_edge8&#45;headlabel"><a xlink:href="dir_000029_000016.html" target="_top" xlink:title="106">
<text text-anchor="middle" x="120.93" y="-189.963" font-family="Helvetica,sans-Serif" font-size="10.00">106</text>
</a>
</g>
</g>
<!-- dir_051dca18e802f8e9474f2e30d29c04e0&#45;&gt;dir_2801adc79bf3c286b1b479858d2cade4 -->
<g id="edge9" class="edge"><title>dir_051dca18e802f8e9474f2e30d29c04e0&#45;&gt;dir_2801adc79bf3c286b1b479858d2cade4</title>
<path fill="none" stroke="black" d="M49.5527,-215.871C59.1809,-191.457 76.9397,-146.426 88.2937,-117.635"/>
<polygon fill="black" stroke="black" points="91.6061,-118.776 92.0189,-108.189 85.0942,-116.208 91.6061,-118.776"/>
<g id="a_edge9&#45;headlabel"><a xlink:href="dir_000029_000065.html" target="_top" xlink:title="177">
<text text-anchor="middle" x="92.9287" y="-120.662" font-family="Helvetica,sans-Serif" font-size="10.00">177</text>
</a>
</g>
</g>
<!-- dir_051dca18e802f8e9474f2e30d29c04e0&#45;&gt;dir_e977c6a9672cee72083a88d55f0ce0c6 -->
<g id="edge10" class="edge"><title>dir_051dca18e802f8e9474f2e30d29c04e0&#45;&gt;dir_e977c6a9672cee72083a88d55f0ce0c6</title>
<path fill="none" stroke="black" d="M41.7363,-215.867C40.4821,-185.681 40.5984,-121.531 59.7977,-72 63.6376,-62.0938 69.8346,-52.3905 76.1692,-44.05"/>
<polygon fill="black" stroke="black" points="78.9352,-46.1954 82.4676,-36.2068 73.4772,-41.8124 78.9352,-46.1954"/>
<g id="a_edge10&#45;headlabel"><a xlink:href="dir_000029_000132.html" target="_top" xlink:title="157">
<text text-anchor="middle" x="78.8983" y="-48.2759" font-family="Helvetica,sans-Serif" font-size="10.00">157</text>
</a>
</g>
</g>
<!-- dir_e977c6a9672cee72083a88d55f0ce0c6&#45;&gt;dir_4ab6b4cc6a7edbff49100e9123df213f -->
<g id="edge11" class="edge"><title>dir_e977c6a9672cee72083a88d55f0ce0c6&#45;&gt;dir_4ab6b4cc6a7edbff49100e9123df213f</title>
<path fill="none" stroke="black" d="M113.727,-36.0509C121.664,-45.9405 130.961,-58.983 136.798,-72 145.681,-91.8106 150.786,-115.927 153.611,-134.056"/>
<polygon fill="black" stroke="black" points="150.147,-134.554 155.023,-143.96 157.077,-133.567 150.147,-134.554"/>
<g id="a_edge11&#45;headlabel"><a xlink:href="dir_000132_000016.html" target="_top" xlink:title="3">
<text text-anchor="middle" x="146.829" y="-128.896" font-family="Helvetica,sans-Serif" font-size="10.00">3</text>
</a>
</g>
</g>
<!-- dir_e977c6a9672cee72083a88d55f0ce0c6&#45;&gt;dir_2801adc79bf3c286b1b479858d2cade4 -->
<g id="edge12" class="edge"><title>dir_e977c6a9672cee72083a88d55f0ce0c6&#45;&gt;dir_2801adc79bf3c286b1b479858d2cade4</title>
<path fill="none" stroke="black" d="M104.693,-36.1043C105.498,-43.7913 105.735,-53.0537 105.402,-61.6651"/>
<polygon fill="black" stroke="black" points="101.906,-61.4805 104.713,-71.6966 108.89,-61.9597 101.906,-61.4805"/>
<g id="a_edge12&#45;headlabel"><a xlink:href="dir_000132_000065.html" target="_top" xlink:title="2">
<text text-anchor="middle" x="99.3196" y="-55.2" font-family="Helvetica,sans-Serif" font-size="10.00">2</text>
</a>
</g>
</g>
</g>
</svg>
