<?xml version="1.0" encoding="UTF-8" standalone="no"?>
<!DOCTYPE svg PUBLIC "-//W3C//DTD SVG 1.1//EN"
 "http://www.w3.org/Graphics/SVG/1.1/DTD/svg11.dtd">
<!-- Generated by graphviz version 2.36.0 (20140111.2315)
 -->
<!-- Title: /home/travis/build/AliceO2Group/AliceO2/Detectors/MUON/MCH/Simulation/include Pages: 1 -->
<svg width="231pt" height="303pt"
 viewBox="0.00 0.00 231.00 303.00" xmlns="http://www.w3.org/2000/svg" xmlns:xlink="http://www.w3.org/1999/xlink">
<g id="graph0" class="graph" transform="scale(1 1) rotate(0) translate(4 299)">
<title>/home/travis/build/AliceO2Group/AliceO2/Detectors/MUON/MCH/Simulation/include</title>
<g id="clust1" class="cluster"><title>clusterdir_e4cb5181a3c884468a78a261ced84e7b</title>
<g id="a_clust1"><a xlink:href="dir_e4cb5181a3c884468a78a261ced84e7b.html" target="_top" xlink:title="Simulation">
<polygon fill="#ddddee" stroke="black" points="25,-200 25,-287 215,-287 215,-200 25,-200"/>
<text text-anchor="middle" x="120" y="-275" font-family="Helvetica,sans-Serif" font-size="10.00">Simulation</text>
</a>
</g>
</g>
<g id="clust2" class="cluster"><title>clusterdir_3dca47489aa3153ac3c60c079f5f624d</title>
<g id="a_clust2"><a xlink:href="dir_3dca47489aa3153ac3c60c079f5f624d.html" target="_top">
<polygon fill="#eeeeff" stroke="black" points="33,-208 33,-260 207,-260 207,-208 33,-208"/>
</a>
</g>
</g>
<!-- dir_3dca47489aa3153ac3c60c079f5f624d -->
<g id="node1" class="node"><title>dir_3dca47489aa3153ac3c60c079f5f624d</title>
<text text-anchor="middle" x="172" y="-231.5" font-family="Helvetica,sans-Serif" font-size="10.00">include</text>
</g>
<!-- dir_f643931fe0624a51e13d41070e49a954 -->
<g id="node2" class="node"><title>dir_f643931fe0624a51e13d41070e49a954</title>
<g id="a_node2"><a xlink:href="dir_f643931fe0624a51e13d41070e49a954.html" target="_top" xlink:title="MCHSimulation">
<polygon fill="white" stroke="black" points="127,-252 41,-252 41,-216 127,-216 127,-252"/>
<text text-anchor="middle" x="84" y="-231.5" font-family="Helvetica,sans-Serif" font-size="10.00">MCHSimulation</text>
</a>
</g>
</g>
<!-- dir_4ab6b4cc6a7edbff49100e9123df213f -->
<g id="node3" class="node"><title>dir_4ab6b4cc6a7edbff49100e9123df213f</title>
<g id="a_node3"><a xlink:href="dir_4ab6b4cc6a7edbff49100e9123df213f.html" target="_top" xlink:title="Common">
<polygon fill="none" stroke="red" points="55.5,-180 0.5,-180 0.5,-144 55.5,-144 55.5,-180"/>
<text text-anchor="middle" x="28" y="-159.5" font-family="Helvetica,sans-Serif" font-size="10.00">Common</text>
</a>
</g>
</g>
<!-- dir_f643931fe0624a51e13d41070e49a954&#45;&gt;dir_4ab6b4cc6a7edbff49100e9123df213f -->
<g id="edge4" class="edge"><title>dir_f643931fe0624a51e13d41070e49a954&#45;&gt;dir_4ab6b4cc6a7edbff49100e9123df213f</title>
<path fill="none" stroke="black" d="M70.1573,-215.697C63.5115,-207.389 55.4216,-197.277 48.1126,-188.141"/>
<polygon fill="black" stroke="black" points="50.6635,-185.727 41.6835,-180.104 45.1974,-190.099 50.6635,-185.727"/>
<g id="a_edge4&#45;headlabel"><a xlink:href="dir_000182_000016.html" target="_top" xlink:title="2">
<text text-anchor="middle" x="55.1261" y="-184.26" font-family="Helvetica,sans-Serif" font-size="10.00">2</text>
</a>
</g>
</g>
<!-- dir_37c90836491b695b472bf98d1be8336b -->
<g id="node4" class="node"><title>dir_37c90836491b695b472bf98d1be8336b</title>
<g id="a_node4"><a xlink:href="dir_37c90836491b695b472bf98d1be8336b.html" target="_top" xlink:title="Base">
<polygon fill="none" stroke="red" points="84,-36 30,-36 30,-0 84,-0 84,-36"/>
<text text-anchor="middle" x="57" y="-15.5" font-family="Helvetica,sans-Serif" font-size="10.00">Base</text>
</a>
</g>
</g>
<!-- dir_f643931fe0624a51e13d41070e49a954&#45;&gt;dir_37c90836491b695b472bf98d1be8336b -->
<g id="edge5" class="edge"><title>dir_f643931fe0624a51e13d41070e49a954&#45;&gt;dir_37c90836491b695b472bf98d1be8336b</title>
<path fill="none" stroke="black" d="M91.0472,-215.929C102.385,-185.839 121.61,-121.833 103,-72 99.1239,-61.6206 92.1971,-51.9274 84.876,-43.7427"/>
<polygon fill="black" stroke="black" points="87.2694,-41.1816 77.8228,-36.3845 82.216,-46.0256 87.2694,-41.1816"/>
<g id="a_edge5&#45;headlabel"><a xlink:href="dir_000182_000160.html" target="_top" xlink:title="1">
<text text-anchor="middle" x="91.8065" y="-39.3118" font-family="Helvetica,sans-Serif" font-size="10.00">1</text>
</a>
</g>
</g>
<!-- dir_2171f7ec022c5423887b07c69b2f5b48 -->
<g id="node5" class="node"><title>dir_2171f7ec022c5423887b07c69b2f5b48</title>
<g id="a_node5"><a xlink:href="dir_2171f7ec022c5423887b07c69b2f5b48.html" target="_top" xlink:title="DataFormats">
<polygon fill="none" stroke="red" points="94,-108 20,-108 20,-72 94,-72 94,-108"/>
<text text-anchor="middle" x="57" y="-87.5" font-family="Helvetica,sans-Serif" font-size="10.00">DataFormats</text>
</a>
</g>
</g>
<!-- dir_f643931fe0624a51e13d41070e49a954&#45;&gt;dir_2171f7ec022c5423887b07c69b2f5b48 -->
<g id="edge6" class="edge"><title>dir_f643931fe0624a51e13d41070e49a954&#45;&gt;dir_2171f7ec022c5423887b07c69b2f5b48</title>
<path fill="none" stroke="black" d="M80.7432,-215.871C76.1415,-191.67 67.688,-147.211 62.2086,-118.393"/>
<polygon fill="black" stroke="black" points="65.5748,-117.359 60.2684,-108.189 58.698,-118.667 65.5748,-117.359"/>
<g id="a_edge6&#45;headlabel"><a xlink:href="dir_000182_000055.html" target="_top" xlink:title="4">
<text text-anchor="middle" x="69.0355" y="-117.86" font-family="Helvetica,sans-Serif" font-size="10.00">4</text>
</a>
</g>
</g>
<!-- dir_4ab6b4cc6a7edbff49100e9123df213f&#45;&gt;dir_2171f7ec022c5423887b07c69b2f5b48 -->
<g id="edge1" class="edge"><title>dir_4ab6b4cc6a7edbff49100e9123df213f&#45;&gt;dir_2171f7ec022c5423887b07c69b2f5b48</title>
<path fill="none" stroke="black" d="M29.2528,-143.697C31.732,-135.728 35.5065,-126.1 39.5596,-117.264"/>
<polygon fill="black" stroke="black" points="42.7886,-118.628 44.0189,-108.104 36.4948,-115.563 42.7886,-118.628"/>
<g id="a_edge1&#45;headlabel"><a xlink:href="dir_000016_000055.html" target="_top" xlink:title="3">
<text text-anchor="middle" x="43.768" y="-120.602" font-family="Helvetica,sans-Serif" font-size="10.00">3</text>
</a>
</g>
</g>
<!-- dir_37c90836491b695b472bf98d1be8336b&#45;&gt;dir_4ab6b4cc6a7edbff49100e9123df213f -->
<g id="edge2" class="edge"><title>dir_37c90836491b695b472bf98d1be8336b&#45;&gt;dir_4ab6b4cc6a7edbff49100e9123df213f</title>
<path fill="none" stroke="black" d="M36.1772,-36.3845C26.542,-45.8019 16.1149,-58.3034 11,-72 3.43124,-92.2675 8.90133,-116.445 15.585,-134.482"/>
<polygon fill="black" stroke="black" points="12.36,-135.844 19.3479,-143.807 18.8514,-133.224 12.36,-135.844"/>
<g id="a_edge2&#45;headlabel"><a xlink:href="dir_000160_000016.html" target="_top" xlink:title="9">
<text text-anchor="middle" x="8.38196" y="-131.073" font-family="Helvetica,sans-Serif" font-size="10.00">9</text>
</a>
</g>
</g>
<!-- dir_37c90836491b695b472bf98d1be8336b&#45;&gt;dir_2171f7ec022c5423887b07c69b2f5b48 -->
<g id="edge3" class="edge"><title>dir_37c90836491b695b472bf98d1be8336b&#45;&gt;dir_2171f7ec022c5423887b07c69b2f5b48</title>
<path fill="none" stroke="black" d="M62.895,-36.1043C63.7005,-43.7913 63.9369,-53.0537 63.604,-61.6651"/>
<polygon fill="black" stroke="black" points="60.1085,-61.4805 62.9157,-71.6966 67.0921,-61.9597 60.1085,-61.4805"/>
<g id="a_edge3&#45;headlabel"><a xlink:href="dir_000160_000055.html" target="_top" xlink:title="6">
<text text-anchor="middle" x="57.5219" y="-55.2" font-family="Helvetica,sans-Serif" font-size="10.00">6</text>
</a>
</g>
</g>
<!-- dir_2171f7ec022c5423887b07c69b2f5b48&#45;&gt;dir_4ab6b4cc6a7edbff49100e9123df213f -->
<g id="edge7" class="edge"><title>dir_2171f7ec022c5423887b07c69b2f5b48&#45;&gt;dir_4ab6b4cc6a7edbff49100e9123df213f</title>
<path fill="none" stroke="black" d="M55.809,-108.104C53.3514,-116.045 49.5901,-125.666 45.5418,-134.515"/>
<polygon fill="black" stroke="black" points="42.3029,-133.172 41.0843,-143.697 48.6001,-136.229 42.3029,-133.172"/>
<g id="a_edge7&#45;headlabel"><a xlink:href="dir_000055_000016.html" target="_top" xlink:title="26">
<text text-anchor="middle" x="41.3185" y="-126.198" font-family="Helvetica,sans-Serif" font-size="10.00">26</text>
</a>
</g>
</g>
<!-- dir_2171f7ec022c5423887b07c69b2f5b48&#45;&gt;dir_37c90836491b695b472bf98d1be8336b -->
<g id="edge8" class="edge"><title>dir_2171f7ec022c5423887b07c69b2f5b48&#45;&gt;dir_37c90836491b695b472bf98d1be8336b</title>
<path fill="none" stroke="black" d="M51.0843,-71.6966C50.2886,-63.9827 50.0621,-54.7125 50.4047,-46.1124"/>
<polygon fill="black" stroke="black" points="53.8984,-46.3243 51.105,-36.1043 46.9154,-45.8356 53.8984,-46.3243"/>
<g id="a_edge8&#45;headlabel"><a xlink:href="dir_000055_000160.html" target="_top" xlink:title="1">
<text text-anchor="middle" x="56.4799" y="-47.6083" font-family="Helvetica,sans-Serif" font-size="10.00">1</text>
</a>
</g>
</g>
</g>
</svg>
