<?xml version="1.0" encoding="UTF-8" standalone="no"?>
<!DOCTYPE svg PUBLIC "-//W3C//DTD SVG 1.1//EN"
 "http://www.w3.org/Graphics/SVG/1.1/DTD/svg11.dtd">
<!-- Generated by graphviz version 2.36.0 (20140111.2315)
 -->
<!-- Title: /home/travis/build/AliceO2Group/AliceO2/Detectors/TPC/workflow Pages: 1 -->
<svg width="384pt" height="375pt"
 viewBox="0.00 0.00 384.18 375.00" xmlns="http://www.w3.org/2000/svg" xmlns:xlink="http://www.w3.org/1999/xlink">
<g id="graph0" class="graph" transform="scale(1 1) rotate(0) translate(4 371)">
<title>/home/travis/build/AliceO2Group/AliceO2/Detectors/TPC/workflow</title>
<g id="clust1" class="cluster"><title>clusterdir_a597e8e061b11201a1dff411feb10d0b</title>
<g id="a_clust1"><a xlink:href="dir_a597e8e061b11201a1dff411feb10d0b.html" target="_top" xlink:title="TPC">
<polygon fill="#ddddee" stroke="black" points="136.179,-200 136.179,-359 368.179,-359 368.179,-200 136.179,-200"/>
<text text-anchor="middle" x="252.179" y="-347" font-family="Helvetica,sans-Serif" font-size="10.00">TPC</text>
</a>
</g>
</g>
<g id="clust2" class="cluster"><title>clusterdir_9cc61f72f781098a662027b321784562</title>
<g id="a_clust2"><a xlink:href="dir_9cc61f72f781098a662027b321784562.html" target="_top">
<polygon fill="#eeeeff" stroke="black" points="144.179,-208 144.179,-332 360.179,-332 360.179,-208 144.179,-208"/>
</a>
</g>
</g>
<!-- dir_9cc61f72f781098a662027b321784562 -->
<g id="node1" class="node"><title>dir_9cc61f72f781098a662027b321784562</title>
<text text-anchor="middle" x="324.179" y="-303.5" font-family="Helvetica,sans-Serif" font-size="10.00">workflow</text>
</g>
<!-- dir_1ccc0e6feb2a9e42d8edde27429c6d63 -->
<g id="node2" class="node"><title>dir_1ccc0e6feb2a9e42d8edde27429c6d63</title>
<g id="a_node2"><a xlink:href="dir_1ccc0e6feb2a9e42d8edde27429c6d63.html" target="_top" xlink:title="include">
<polygon fill="white" stroke="red" points="206.179,-252 152.179,-252 152.179,-216 206.179,-216 206.179,-252"/>
<text text-anchor="middle" x="179.179" y="-231.5" font-family="Helvetica,sans-Serif" font-size="10.00">include</text>
</a>
</g>
</g>
<!-- dir_bcbb2cf9a3d3d83e5515c82071a07177 -->
<g id="node8" class="node"><title>dir_bcbb2cf9a3d3d83e5515c82071a07177</title>
<g id="a_node8"><a xlink:href="dir_bcbb2cf9a3d3d83e5515c82071a07177.html" target="_top" xlink:title="Framework">
<polygon fill="none" stroke="red" points="205.429,-180 140.929,-180 140.929,-144 205.429,-144 205.429,-180"/>
<text text-anchor="middle" x="173.179" y="-159.5" font-family="Helvetica,sans-Serif" font-size="10.00">Framework</text>
</a>
</g>
</g>
<!-- dir_1ccc0e6feb2a9e42d8edde27429c6d63&#45;&gt;dir_bcbb2cf9a3d3d83e5515c82071a07177 -->
<g id="edge7" class="edge"><title>dir_1ccc0e6feb2a9e42d8edde27429c6d63&#45;&gt;dir_bcbb2cf9a3d3d83e5515c82071a07177</title>
<path fill="none" stroke="black" d="M177.696,-215.697C177.035,-207.983 176.24,-198.712 175.503,-190.112"/>
<polygon fill="black" stroke="black" points="178.986,-189.769 174.645,-180.104 172.012,-190.367 178.986,-189.769"/>
<g id="a_edge7&#45;headlabel"><a xlink:href="dir_000320_000036.html" target="_top" xlink:title="1">
<text text-anchor="middle" x="182.122" y="-190.608" font-family="Helvetica,sans-Serif" font-size="10.00">1</text>
</a>
</g>
</g>
<!-- dir_e9646061f272132c5cb2e771d1ee355f -->
<g id="node3" class="node"><title>dir_e9646061f272132c5cb2e771d1ee355f</title>
<g id="a_node3"><a xlink:href="dir_e9646061f272132c5cb2e771d1ee355f.html" target="_top" xlink:title="src">
<polygon fill="white" stroke="black" points="206.179,-324 152.179,-324 152.179,-288 206.179,-288 206.179,-324"/>
<text text-anchor="middle" x="179.179" y="-303.5" font-family="Helvetica,sans-Serif" font-size="10.00">src</text>
</a>
</g>
</g>
<!-- dir_e9646061f272132c5cb2e771d1ee355f&#45;&gt;dir_1ccc0e6feb2a9e42d8edde27429c6d63 -->
<g id="edge1" class="edge"><title>dir_e9646061f272132c5cb2e771d1ee355f&#45;&gt;dir_1ccc0e6feb2a9e42d8edde27429c6d63</title>
<path fill="none" stroke="black" d="M179.179,-287.697C179.179,-279.983 179.179,-270.712 179.179,-262.112"/>
<polygon fill="black" stroke="black" points="182.679,-262.104 179.179,-252.104 175.679,-262.104 182.679,-262.104"/>
<g id="a_edge1&#45;headlabel"><a xlink:href="dir_000319_000320.html" target="_top" xlink:title="2">
<text text-anchor="middle" x="185.518" y="-263.199" font-family="Helvetica,sans-Serif" font-size="10.00">2</text>
</a>
</g>
</g>
<!-- dir_677b030cc750909e4cd27413873678d8 -->
<g id="node5" class="node"><title>dir_677b030cc750909e4cd27413873678d8</title>
<g id="a_node5"><a xlink:href="dir_677b030cc750909e4cd27413873678d8.html" target="_top" xlink:title="base">
<polygon fill="none" stroke="red" points="84.1791,-180 30.1791,-180 30.1791,-144 84.1791,-144 84.1791,-180"/>
<text text-anchor="middle" x="57.1791" y="-159.5" font-family="Helvetica,sans-Serif" font-size="10.00">base</text>
</a>
</g>
</g>
<!-- dir_e9646061f272132c5cb2e771d1ee355f&#45;&gt;dir_677b030cc750909e4cd27413873678d8 -->
<g id="edge2" class="edge"><title>dir_e9646061f272132c5cb2e771d1ee355f&#45;&gt;dir_677b030cc750909e4cd27413873678d8</title>
<path fill="none" stroke="black" d="M152.17,-305.618C113.197,-304.86 42.2474,-296.948 9.17908,-252 -4.51671,-233.384 -1.01986,-220.739 9.17908,-200 12.2364,-193.783 16.8963,-188.317 22.1323,-183.626"/>
<polygon fill="black" stroke="black" points="24.4351,-186.267 30.0961,-177.311 20.0858,-180.782 24.4351,-186.267"/>
<g id="a_edge2&#45;headlabel"><a xlink:href="dir_000319_000234.html" target="_top" xlink:title="5">
<text text-anchor="middle" x="23.3826" y="-188.225" font-family="Helvetica,sans-Serif" font-size="10.00">5</text>
</a>
</g>
</g>
<!-- dir_a5de047958dd458e809773c6ffaa8478 -->
<g id="node6" class="node"><title>dir_a5de047958dd458e809773c6ffaa8478</title>
<g id="a_node6"><a xlink:href="dir_a5de047958dd458e809773c6ffaa8478.html" target="_top" xlink:title="reconstruction">
<polygon fill="none" stroke="red" points="96.1791,-252 18.1791,-252 18.1791,-216 96.1791,-216 96.1791,-252"/>
<text text-anchor="middle" x="57.1791" y="-231.5" font-family="Helvetica,sans-Serif" font-size="10.00">reconstruction</text>
</a>
</g>
</g>
<!-- dir_e9646061f272132c5cb2e771d1ee355f&#45;&gt;dir_a5de047958dd458e809773c6ffaa8478 -->
<g id="edge3" class="edge"><title>dir_e9646061f272132c5cb2e771d1ee355f&#45;&gt;dir_a5de047958dd458e809773c6ffaa8478</title>
<path fill="none" stroke="black" d="M152.103,-289.465C135.574,-279.98 114.171,-267.7 95.873,-257.201"/>
<polygon fill="black" stroke="black" points="97.5905,-254.152 87.175,-252.211 94.1068,-260.223 97.5905,-254.152"/>
<g id="a_edge3&#45;headlabel"><a xlink:href="dir_000319_000287.html" target="_top" xlink:title="3">
<text text-anchor="middle" x="102.121" y="-250.978" font-family="Helvetica,sans-Serif" font-size="10.00">3</text>
</a>
</g>
</g>
<!-- dir_8ba487e25de5ee77e05e9dce7582cb98 -->
<g id="node7" class="node"><title>dir_8ba487e25de5ee77e05e9dce7582cb98</title>
<g id="a_node7"><a xlink:href="dir_8ba487e25de5ee77e05e9dce7582cb98.html" target="_top" xlink:title="Algorithm">
<polygon fill="none" stroke="red" points="218.679,-36 161.679,-36 161.679,-0 218.679,-0 218.679,-36"/>
<text text-anchor="middle" x="190.179" y="-15.5" font-family="Helvetica,sans-Serif" font-size="10.00">Algorithm</text>
</a>
</g>
</g>
<!-- dir_e9646061f272132c5cb2e771d1ee355f&#45;&gt;dir_8ba487e25de5ee77e05e9dce7582cb98 -->
<g id="edge4" class="edge"><title>dir_e9646061f272132c5cb2e771d1ee355f&#45;&gt;dir_8ba487e25de5ee77e05e9dce7582cb98</title>
<path fill="none" stroke="black" d="M204.472,-287.917C215.786,-278.74 227.958,-266.357 234.179,-252 265.989,-178.591 264.168,-146.949 236.179,-72 232.303,-61.6206 225.376,-51.9274 218.055,-43.7427"/>
<polygon fill="black" stroke="black" points="220.448,-41.1816 211.002,-36.3845 215.395,-46.0256 220.448,-41.1816"/>
<g id="a_edge4&#45;headlabel"><a xlink:href="dir_000319_000000.html" target="_top" xlink:title="3">
<text text-anchor="middle" x="224.986" y="-39.3118" font-family="Helvetica,sans-Serif" font-size="10.00">3</text>
</a>
</g>
</g>
<!-- dir_e9646061f272132c5cb2e771d1ee355f&#45;&gt;dir_bcbb2cf9a3d3d83e5515c82071a07177 -->
<g id="edge5" class="edge"><title>dir_e9646061f272132c5cb2e771d1ee355f&#45;&gt;dir_bcbb2cf9a3d3d83e5515c82071a07177</title>
<path fill="none" stroke="black" d="M163.569,-287.774C155.806,-278.03 147.233,-265.184 143.179,-252 136.386,-229.91 135.458,-221.783 143.179,-200 144.609,-195.966 146.687,-192.051 149.092,-188.372"/>
<polygon fill="black" stroke="black" points="151.964,-190.375 155.147,-180.27 146.357,-186.185 151.964,-190.375"/>
<g id="a_edge5&#45;headlabel"><a xlink:href="dir_000319_000036.html" target="_top" xlink:title="20">
<text text-anchor="middle" x="152.086" y="-192.454" font-family="Helvetica,sans-Serif" font-size="10.00">20</text>
</a>
</g>
</g>
<!-- dir_2171f7ec022c5423887b07c69b2f5b48 -->
<g id="node9" class="node"><title>dir_2171f7ec022c5423887b07c69b2f5b48</title>
<g id="a_node9"><a xlink:href="dir_2171f7ec022c5423887b07c69b2f5b48.html" target="_top" xlink:title="DataFormats">
<polygon fill="none" stroke="red" points="227.179,-108 153.179,-108 153.179,-72 227.179,-72 227.179,-108"/>
<text text-anchor="middle" x="190.179" y="-87.5" font-family="Helvetica,sans-Serif" font-size="10.00">DataFormats</text>
</a>
</g>
</g>
<!-- dir_e9646061f272132c5cb2e771d1ee355f&#45;&gt;dir_2171f7ec022c5423887b07c69b2f5b48 -->
<g id="edge6" class="edge"><title>dir_e9646061f272132c5cb2e771d1ee355f&#45;&gt;dir_2171f7ec022c5423887b07c69b2f5b48</title>
<path fill="none" stroke="black" d="M194.789,-287.774C202.552,-278.03 211.125,-265.184 215.179,-252 229.288,-206.118 224.726,-190.829 214.179,-144 212.137,-134.934 208.463,-125.54 204.594,-117.223"/>
<polygon fill="black" stroke="black" points="207.622,-115.45 200.048,-108.04 201.348,-118.555 207.622,-115.45"/>
<g id="a_edge6&#45;headlabel"><a xlink:href="dir_000319_000055.html" target="_top" xlink:title="27">
<text text-anchor="middle" x="211.761" y="-114.911" font-family="Helvetica,sans-Serif" font-size="10.00">27</text>
</a>
</g>
</g>
<!-- dir_2bafbcfa72eb0338244708ca67b646e3 -->
<g id="node4" class="node"><title>dir_2bafbcfa72eb0338244708ca67b646e3</title>
<g id="a_node4"><a xlink:href="dir_2bafbcfa72eb0338244708ca67b646e3.html" target="_top" xlink:title="test">
<polygon fill="white" stroke="black" points="278.179,-324 224.179,-324 224.179,-288 278.179,-288 278.179,-324"/>
<text text-anchor="middle" x="251.179" y="-303.5" font-family="Helvetica,sans-Serif" font-size="10.00">test</text>
</a>
</g>
</g>
<!-- dir_2bafbcfa72eb0338244708ca67b646e3&#45;&gt;dir_2171f7ec022c5423887b07c69b2f5b48 -->
<g id="edge12" class="edge"><title>dir_2bafbcfa72eb0338244708ca67b646e3&#45;&gt;dir_2171f7ec022c5423887b07c69b2f5b48</title>
<path fill="none" stroke="black" d="M252.15,-287.783C253.219,-257.467 252.59,-193.123 232.179,-144 227.946,-133.812 221.162,-123.963 214.269,-115.575"/>
<polygon fill="black" stroke="black" points="216.907,-113.275 207.708,-108.019 211.622,-117.864 216.907,-113.275"/>
<g id="a_edge12&#45;headlabel"><a xlink:href="dir_000388_000055.html" target="_top" xlink:title="2">
<text text-anchor="middle" x="221.408" y="-111.628" font-family="Helvetica,sans-Serif" font-size="10.00">2</text>
</a>
</g>
</g>
<!-- dir_677b030cc750909e4cd27413873678d8&#45;&gt;dir_2171f7ec022c5423887b07c69b2f5b48 -->
<g id="edge8" class="edge"><title>dir_677b030cc750909e4cd27413873678d8&#45;&gt;dir_2171f7ec022c5423887b07c69b2f5b48</title>
<path fill="none" stroke="black" d="M84.4146,-146.666C102.951,-136.91 127.829,-123.816 148.799,-112.779"/>
<polygon fill="black" stroke="black" points="150.6,-115.786 157.819,-108.032 147.34,-109.592 150.6,-115.786"/>
<g id="a_edge8&#45;headlabel"><a xlink:href="dir_000234_000055.html" target="_top" xlink:title="14">
<text text-anchor="middle" x="148.741" y="-117.473" font-family="Helvetica,sans-Serif" font-size="10.00">14</text>
</a>
</g>
</g>
<!-- dir_a5de047958dd458e809773c6ffaa8478&#45;&gt;dir_677b030cc750909e4cd27413873678d8 -->
<g id="edge9" class="edge"><title>dir_a5de047958dd458e809773c6ffaa8478&#45;&gt;dir_677b030cc750909e4cd27413873678d8</title>
<path fill="none" stroke="black" d="M57.1791,-215.697C57.1791,-207.983 57.1791,-198.712 57.1791,-190.112"/>
<polygon fill="black" stroke="black" points="60.6792,-190.104 57.1791,-180.104 53.6792,-190.104 60.6792,-190.104"/>
<g id="a_edge9&#45;headlabel"><a xlink:href="dir_000287_000234.html" target="_top" xlink:title="53">
<text text-anchor="middle" x="63.5184" y="-191.199" font-family="Helvetica,sans-Serif" font-size="10.00">53</text>
</a>
</g>
</g>
<!-- dir_a5de047958dd458e809773c6ffaa8478&#45;&gt;dir_2171f7ec022c5423887b07c69b2f5b48 -->
<g id="edge10" class="edge"><title>dir_a5de047958dd458e809773c6ffaa8478&#45;&gt;dir_2171f7ec022c5423887b07c69b2f5b48</title>
<path fill="none" stroke="black" d="M70.1268,-215.978C84.3838,-197.592 108.326,-167.744 131.179,-144 140.747,-134.059 151.865,-123.779 161.854,-114.949"/>
<polygon fill="black" stroke="black" points="164.339,-117.426 169.571,-108.213 159.735,-112.152 164.339,-117.426"/>
<g id="a_edge10&#45;headlabel"><a xlink:href="dir_000287_000055.html" target="_top" xlink:title="60">
<text text-anchor="middle" x="163.498" y="-119.429" font-family="Helvetica,sans-Serif" font-size="10.00">60</text>
</a>
</g>
</g>
<!-- dir_8ba487e25de5ee77e05e9dce7582cb98&#45;&gt;dir_2171f7ec022c5423887b07c69b2f5b48 -->
<g id="edge11" class="edge"><title>dir_8ba487e25de5ee77e05e9dce7582cb98&#45;&gt;dir_2171f7ec022c5423887b07c69b2f5b48</title>
<path fill="none" stroke="black" d="M196.074,-36.1043C196.88,-43.7913 197.116,-53.0537 196.783,-61.6651"/>
<polygon fill="black" stroke="black" points="193.288,-61.4805 196.095,-71.6966 200.271,-61.9597 193.288,-61.4805"/>
<g id="a_edge11&#45;headlabel"><a xlink:href="dir_000000_000055.html" target="_top" xlink:title="8">
<text text-anchor="middle" x="190.701" y="-55.2" font-family="Helvetica,sans-Serif" font-size="10.00">8</text>
</a>
</g>
</g>
<!-- dir_bcbb2cf9a3d3d83e5515c82071a07177&#45;&gt;dir_2171f7ec022c5423887b07c69b2f5b48 -->
<g id="edge13" class="edge"><title>dir_bcbb2cf9a3d3d83e5515c82071a07177&#45;&gt;dir_2171f7ec022c5423887b07c69b2f5b48</title>
<path fill="none" stroke="black" d="M177.381,-143.697C179.275,-135.898 181.556,-126.509 183.663,-117.829"/>
<polygon fill="black" stroke="black" points="187.066,-118.648 186.025,-108.104 180.264,-116.996 187.066,-118.648"/>
<g id="a_edge13&#45;headlabel"><a xlink:href="dir_000036_000055.html" target="_top" xlink:title="47">
<text text-anchor="middle" x="188.977" y="-120.311" font-family="Helvetica,sans-Serif" font-size="10.00">47</text>
</a>
</g>
</g>
<!-- dir_2171f7ec022c5423887b07c69b2f5b48&#45;&gt;dir_8ba487e25de5ee77e05e9dce7582cb98 -->
<g id="edge14" class="edge"><title>dir_2171f7ec022c5423887b07c69b2f5b48&#45;&gt;dir_8ba487e25de5ee77e05e9dce7582cb98</title>
<path fill="none" stroke="black" d="M184.263,-71.6966C183.468,-63.9827 183.241,-54.7125 183.584,-46.1124"/>
<polygon fill="black" stroke="black" points="187.077,-46.3243 184.284,-36.1043 180.095,-45.8356 187.077,-46.3243"/>
<g id="a_edge14&#45;headlabel"><a xlink:href="dir_000055_000000.html" target="_top" xlink:title="1">
<text text-anchor="middle" x="189.659" y="-47.6083" font-family="Helvetica,sans-Serif" font-size="10.00">1</text>
</a>
</g>
</g>
</g>
</svg>
