<?xml version="1.0" encoding="UTF-8" standalone="no"?>
<!DOCTYPE svg PUBLIC "-//W3C//DTD SVG 1.1//EN"
 "http://www.w3.org/Graphics/SVG/1.1/DTD/svg11.dtd">
<!-- Generated by graphviz version 2.36.0 (20140111.2315)
 -->
<!-- Title: /home/travis/build/AliceO2Group/AliceO2/Detectors/TPC/workflow/src Pages: 1 -->
<svg width="240pt" height="367pt"
 viewBox="0.00 0.00 239.63 367.00" xmlns="http://www.w3.org/2000/svg" xmlns:xlink="http://www.w3.org/1999/xlink">
<g id="graph0" class="graph" transform="scale(1 1) rotate(0) translate(4 363)">
<title>/home/travis/build/AliceO2Group/AliceO2/Detectors/TPC/workflow/src</title>
<g id="clust1" class="cluster"><title>clusterdir_9cc61f72f781098a662027b321784562</title>
<g id="a_clust1"><a xlink:href="dir_9cc61f72f781098a662027b321784562.html" target="_top" xlink:title="workflow">
<polygon fill="#ddddee" stroke="black" points="129.819,-280 129.819,-351 199.819,-351 199.819,-280 129.819,-280"/>
<text text-anchor="middle" x="164.819" y="-339" font-family="Helvetica,sans-Serif" font-size="10.00">workflow</text>
</a>
</g>
</g>
<!-- dir_e9646061f272132c5cb2e771d1ee355f -->
<g id="node1" class="node"><title>dir_e9646061f272132c5cb2e771d1ee355f</title>
<g id="a_node1"><a xlink:href="dir_e9646061f272132c5cb2e771d1ee355f.html" target="_top" xlink:title="src">
<polygon fill="#eeeeff" stroke="black" points="191.819,-324 137.819,-324 137.819,-288 191.819,-288 191.819,-324"/>
<text text-anchor="middle" x="164.819" y="-303.5" font-family="Helvetica,sans-Serif" font-size="10.00">src</text>
</a>
</g>
</g>
<!-- dir_1ccc0e6feb2a9e42d8edde27429c6d63 -->
<g id="node2" class="node"><title>dir_1ccc0e6feb2a9e42d8edde27429c6d63</title>
<g id="a_node2"><a xlink:href="dir_1ccc0e6feb2a9e42d8edde27429c6d63.html" target="_top" xlink:title="include">
<polygon fill="none" stroke="red" points="164.819,-252 110.819,-252 110.819,-216 164.819,-216 164.819,-252"/>
<text text-anchor="middle" x="137.819" y="-231.5" font-family="Helvetica,sans-Serif" font-size="10.00">include</text>
</a>
</g>
</g>
<!-- dir_e9646061f272132c5cb2e771d1ee355f&#45;&gt;dir_1ccc0e6feb2a9e42d8edde27429c6d63 -->
<g id="edge1" class="edge"><title>dir_e9646061f272132c5cb2e771d1ee355f&#45;&gt;dir_1ccc0e6feb2a9e42d8edde27429c6d63</title>
<path fill="none" stroke="black" d="M158.144,-287.697C155.104,-279.813 151.436,-270.304 148.058,-261.546"/>
<polygon fill="black" stroke="black" points="151.28,-260.175 144.416,-252.104 144.749,-262.694 151.28,-260.175"/>
<g id="a_edge1&#45;headlabel"><a xlink:href="dir_000319_000320.html" target="_top" xlink:title="2">
<text text-anchor="middle" x="155.223" y="-260.007" font-family="Helvetica,sans-Serif" font-size="10.00">2</text>
</a>
</g>
</g>
<!-- dir_677b030cc750909e4cd27413873678d8 -->
<g id="node3" class="node"><title>dir_677b030cc750909e4cd27413873678d8</title>
<g id="a_node3"><a xlink:href="dir_677b030cc750909e4cd27413873678d8.html" target="_top" xlink:title="base">
<polygon fill="none" stroke="red" points="80.8186,-180 26.8186,-180 26.8186,-144 80.8186,-144 80.8186,-180"/>
<text text-anchor="middle" x="53.8186" y="-159.5" font-family="Helvetica,sans-Serif" font-size="10.00">base</text>
</a>
</g>
</g>
<!-- dir_e9646061f272132c5cb2e771d1ee355f&#45;&gt;dir_677b030cc750909e4cd27413873678d8 -->
<g id="edge2" class="edge"><title>dir_e9646061f272132c5cb2e771d1ee355f&#45;&gt;dir_677b030cc750909e4cd27413873678d8</title>
<path fill="none" stroke="black" d="M137.655,-304.925C100.778,-303.175 36.0175,-293.899 5.81855,-252 -8.91142,-231.563 7.95451,-206.073 25.6227,-187.616"/>
<polygon fill="black" stroke="black" points="28.5024,-189.691 33.1541,-180.172 23.5815,-184.713 28.5024,-189.691"/>
<g id="a_edge2&#45;headlabel"><a xlink:href="dir_000319_000234.html" target="_top" xlink:title="5">
<text text-anchor="middle" x="27.9418" y="-191.737" font-family="Helvetica,sans-Serif" font-size="10.00">5</text>
</a>
</g>
</g>
<!-- dir_a5de047958dd458e809773c6ffaa8478 -->
<g id="node4" class="node"><title>dir_a5de047958dd458e809773c6ffaa8478</title>
<g id="a_node4"><a xlink:href="dir_a5de047958dd458e809773c6ffaa8478.html" target="_top" xlink:title="reconstruction">
<polygon fill="none" stroke="red" points="92.8186,-252 14.8186,-252 14.8186,-216 92.8186,-216 92.8186,-252"/>
<text text-anchor="middle" x="53.8186" y="-231.5" font-family="Helvetica,sans-Serif" font-size="10.00">reconstruction</text>
</a>
</g>
</g>
<!-- dir_e9646061f272132c5cb2e771d1ee355f&#45;&gt;dir_a5de047958dd458e809773c6ffaa8478 -->
<g id="edge3" class="edge"><title>dir_e9646061f272132c5cb2e771d1ee355f&#45;&gt;dir_a5de047958dd458e809773c6ffaa8478</title>
<path fill="none" stroke="black" d="M137.665,-287.876C123.286,-278.808 105.437,-267.552 89.9081,-257.759"/>
<polygon fill="black" stroke="black" points="91.4021,-254.564 81.0766,-252.19 87.6681,-260.484 91.4021,-254.564"/>
<g id="a_edge3&#45;headlabel"><a xlink:href="dir_000319_000287.html" target="_top" xlink:title="3">
<text text-anchor="middle" x="95.9571" y="-251.579" font-family="Helvetica,sans-Serif" font-size="10.00">3</text>
</a>
</g>
</g>
<!-- dir_8ba487e25de5ee77e05e9dce7582cb98 -->
<g id="node5" class="node"><title>dir_8ba487e25de5ee77e05e9dce7582cb98</title>
<g id="a_node5"><a xlink:href="dir_8ba487e25de5ee77e05e9dce7582cb98.html" target="_top" xlink:title="Algorithm">
<polygon fill="none" stroke="red" points="198.319,-36 141.319,-36 141.319,-0 198.319,-0 198.319,-36"/>
<text text-anchor="middle" x="169.819" y="-15.5" font-family="Helvetica,sans-Serif" font-size="10.00">Algorithm</text>
</a>
</g>
</g>
<!-- dir_e9646061f272132c5cb2e771d1ee355f&#45;&gt;dir_8ba487e25de5ee77e05e9dce7582cb98 -->
<g id="edge4" class="edge"><title>dir_e9646061f272132c5cb2e771d1ee355f&#45;&gt;dir_8ba487e25de5ee77e05e9dce7582cb98</title>
<path fill="none" stroke="black" d="M187.91,-287.856C198.782,-278.5 210.862,-265.98 217.819,-252 232.211,-223.076 225.591,-212.23 227.819,-180 231.148,-131.82 236.389,-115.696 215.819,-72 211.021,-61.8085 203.689,-52.0657 196.279,-43.7767"/>
<polygon fill="black" stroke="black" points="198.64,-41.1786 189.231,-36.3078 193.548,-45.9829 198.64,-41.1786"/>
<g id="a_edge4&#45;headlabel"><a xlink:href="dir_000319_000000.html" target="_top" xlink:title="3">
<text text-anchor="middle" x="203.172" y="-39.3443" font-family="Helvetica,sans-Serif" font-size="10.00">3</text>
</a>
</g>
</g>
<!-- dir_bcbb2cf9a3d3d83e5515c82071a07177 -->
<g id="node6" class="node"><title>dir_bcbb2cf9a3d3d83e5515c82071a07177</title>
<g id="a_node6"><a xlink:href="dir_bcbb2cf9a3d3d83e5515c82071a07177.html" target="_top" xlink:title="Framework">
<polygon fill="none" stroke="red" points="202.069,-180 137.569,-180 137.569,-144 202.069,-144 202.069,-180"/>
<text text-anchor="middle" x="169.819" y="-159.5" font-family="Helvetica,sans-Serif" font-size="10.00">Framework</text>
</a>
</g>
</g>
<!-- dir_e9646061f272132c5cb2e771d1ee355f&#45;&gt;dir_bcbb2cf9a3d3d83e5515c82071a07177 -->
<g id="edge5" class="edge"><title>dir_e9646061f272132c5cb2e771d1ee355f&#45;&gt;dir_bcbb2cf9a3d3d83e5515c82071a07177</title>
<path fill="none" stroke="black" d="M168.472,-287.908C170.494,-277.569 172.799,-264.09 173.819,-252 175.562,-231.323 174.379,-207.876 172.859,-190.24"/>
<polygon fill="black" stroke="black" points="176.324,-189.71 171.892,-180.087 169.356,-190.374 176.324,-189.71"/>
<g id="a_edge5&#45;headlabel"><a xlink:href="dir_000319_000036.html" target="_top" xlink:title="20">
<text text-anchor="middle" x="179.492" y="-190.52" font-family="Helvetica,sans-Serif" font-size="10.00">20</text>
</a>
</g>
</g>
<!-- dir_2171f7ec022c5423887b07c69b2f5b48 -->
<g id="node7" class="node"><title>dir_2171f7ec022c5423887b07c69b2f5b48</title>
<g id="a_node7"><a xlink:href="dir_2171f7ec022c5423887b07c69b2f5b48.html" target="_top" xlink:title="DataFormats">
<polygon fill="none" stroke="red" points="206.819,-108 132.819,-108 132.819,-72 206.819,-72 206.819,-108"/>
<text text-anchor="middle" x="169.819" y="-87.5" font-family="Helvetica,sans-Serif" font-size="10.00">DataFormats</text>
</a>
</g>
</g>
<!-- dir_e9646061f272132c5cb2e771d1ee355f&#45;&gt;dir_2171f7ec022c5423887b07c69b2f5b48 -->
<g id="edge6" class="edge"><title>dir_e9646061f272132c5cb2e771d1ee355f&#45;&gt;dir_2171f7ec022c5423887b07c69b2f5b48</title>
<path fill="none" stroke="black" d="M176.571,-287.903C195.397,-258.303 228.487,-195.716 210.819,-144 207.377,-133.927 201.158,-124.284 194.587,-116.05"/>
<polygon fill="black" stroke="black" points="197.143,-113.654 187.987,-108.323 191.82,-118.2 197.143,-113.654"/>
<g id="a_edge6&#45;headlabel"><a xlink:href="dir_000319_000055.html" target="_top" xlink:title="27">
<text text-anchor="middle" x="201.636" y="-112.044" font-family="Helvetica,sans-Serif" font-size="10.00">27</text>
</a>
</g>
</g>
<!-- dir_1ccc0e6feb2a9e42d8edde27429c6d63&#45;&gt;dir_bcbb2cf9a3d3d83e5515c82071a07177 -->
<g id="edge7" class="edge"><title>dir_1ccc0e6feb2a9e42d8edde27429c6d63&#45;&gt;dir_bcbb2cf9a3d3d83e5515c82071a07177</title>
<path fill="none" stroke="black" d="M145.729,-215.697C149.371,-207.728 153.773,-198.1 157.812,-189.264"/>
<polygon fill="black" stroke="black" points="161.025,-190.654 161.999,-180.104 154.659,-187.744 161.025,-190.654"/>
<g id="a_edge7&#45;headlabel"><a xlink:href="dir_000320_000036.html" target="_top" xlink:title="1">
<text text-anchor="middle" x="162.113" y="-192.604" font-family="Helvetica,sans-Serif" font-size="10.00">1</text>
</a>
</g>
</g>
<!-- dir_677b030cc750909e4cd27413873678d8&#45;&gt;dir_2171f7ec022c5423887b07c69b2f5b48 -->
<g id="edge8" class="edge"><title>dir_677b030cc750909e4cd27413873678d8&#45;&gt;dir_2171f7ec022c5423887b07c69b2f5b48</title>
<path fill="none" stroke="black" d="M81.0154,-144.588C96.3839,-135.314 115.817,-123.587 132.583,-113.469"/>
<polygon fill="black" stroke="black" points="134.827,-116.203 141.581,-108.04 131.211,-110.21 134.827,-116.203"/>
<g id="a_edge8&#45;headlabel"><a xlink:href="dir_000234_000055.html" target="_top" xlink:title="14">
<text text-anchor="middle" x="133.217" y="-117.991" font-family="Helvetica,sans-Serif" font-size="10.00">14</text>
</a>
</g>
</g>
<!-- dir_a5de047958dd458e809773c6ffaa8478&#45;&gt;dir_677b030cc750909e4cd27413873678d8 -->
<g id="edge9" class="edge"><title>dir_a5de047958dd458e809773c6ffaa8478&#45;&gt;dir_677b030cc750909e4cd27413873678d8</title>
<path fill="none" stroke="black" d="M53.8186,-215.697C53.8186,-207.983 53.8186,-198.712 53.8186,-190.112"/>
<polygon fill="black" stroke="black" points="57.3187,-190.104 53.8186,-180.104 50.3187,-190.104 57.3187,-190.104"/>
<g id="a_edge9&#45;headlabel"><a xlink:href="dir_000287_000234.html" target="_top" xlink:title="53">
<text text-anchor="middle" x="60.1578" y="-191.199" font-family="Helvetica,sans-Serif" font-size="10.00">53</text>
</a>
</g>
</g>
<!-- dir_a5de047958dd458e809773c6ffaa8478&#45;&gt;dir_2171f7ec022c5423887b07c69b2f5b48 -->
<g id="edge10" class="edge"><title>dir_a5de047958dd458e809773c6ffaa8478&#45;&gt;dir_2171f7ec022c5423887b07c69b2f5b48</title>
<path fill="none" stroke="black" d="M67.8109,-215.871C88.1035,-191.031 125.831,-144.846 149.28,-116.142"/>
<polygon fill="black" stroke="black" points="152.161,-118.148 155.777,-108.189 146.74,-113.719 152.161,-118.148"/>
<g id="a_edge10&#45;headlabel"><a xlink:href="dir_000287_000055.html" target="_top" xlink:title="60">
<text text-anchor="middle" x="152.085" y="-120.228" font-family="Helvetica,sans-Serif" font-size="10.00">60</text>
</a>
</g>
</g>
<!-- dir_8ba487e25de5ee77e05e9dce7582cb98&#45;&gt;dir_2171f7ec022c5423887b07c69b2f5b48 -->
<g id="edge11" class="edge"><title>dir_8ba487e25de5ee77e05e9dce7582cb98&#45;&gt;dir_2171f7ec022c5423887b07c69b2f5b48</title>
<path fill="none" stroke="black" d="M175.714,-36.1043C176.519,-43.7913 176.755,-53.0537 176.423,-61.6651"/>
<polygon fill="black" stroke="black" points="172.927,-61.4805 175.734,-71.6966 179.911,-61.9597 172.927,-61.4805"/>
<g id="a_edge11&#45;headlabel"><a xlink:href="dir_000000_000055.html" target="_top" xlink:title="8">
<text text-anchor="middle" x="170.34" y="-55.2" font-family="Helvetica,sans-Serif" font-size="10.00">8</text>
</a>
</g>
</g>
<!-- dir_bcbb2cf9a3d3d83e5515c82071a07177&#45;&gt;dir_2171f7ec022c5423887b07c69b2f5b48 -->
<g id="edge12" class="edge"><title>dir_bcbb2cf9a3d3d83e5515c82071a07177&#45;&gt;dir_2171f7ec022c5423887b07c69b2f5b48</title>
<path fill="none" stroke="black" d="M169.819,-143.697C169.819,-135.983 169.819,-126.712 169.819,-118.112"/>
<polygon fill="black" stroke="black" points="173.319,-118.104 169.819,-108.104 166.319,-118.104 173.319,-118.104"/>
<g id="a_edge12&#45;headlabel"><a xlink:href="dir_000036_000055.html" target="_top" xlink:title="47">
<text text-anchor="middle" x="176.158" y="-119.199" font-family="Helvetica,sans-Serif" font-size="10.00">47</text>
</a>
</g>
</g>
<!-- dir_2171f7ec022c5423887b07c69b2f5b48&#45;&gt;dir_8ba487e25de5ee77e05e9dce7582cb98 -->
<g id="edge13" class="edge"><title>dir_2171f7ec022c5423887b07c69b2f5b48&#45;&gt;dir_8ba487e25de5ee77e05e9dce7582cb98</title>
<path fill="none" stroke="black" d="M163.903,-71.6966C163.107,-63.9827 162.881,-54.7125 163.223,-46.1124"/>
<polygon fill="black" stroke="black" points="166.717,-46.3243 163.924,-36.1043 159.734,-45.8356 166.717,-46.3243"/>
<g id="a_edge13&#45;headlabel"><a xlink:href="dir_000055_000000.html" target="_top" xlink:title="1">
<text text-anchor="middle" x="169.298" y="-47.6083" font-family="Helvetica,sans-Serif" font-size="10.00">1</text>
</a>
</g>
</g>
</g>
</svg>
