<?xml version="1.0" encoding="UTF-8" standalone="no"?>
<!DOCTYPE svg PUBLIC "-//W3C//DTD SVG 1.1//EN"
 "http://www.w3.org/Graphics/SVG/1.1/DTD/svg11.dtd">
<!-- Generated by graphviz version 2.36.0 (20140111.2315)
 -->
<!-- Title: /home/travis/build/AliceO2Group/AliceO2/DataFormats/Parameters/include/DataFormatsParameters Pages: 1 -->
<svg width="164pt" height="223pt"
 viewBox="0.00 0.00 164.00 223.00" xmlns="http://www.w3.org/2000/svg" xmlns:xlink="http://www.w3.org/1999/xlink">
<g id="graph0" class="graph" transform="scale(1 1) rotate(0) translate(4 219)">
<title>/home/travis/build/AliceO2Group/AliceO2/DataFormats/Parameters/include/DataFormatsParameters</title>
<g id="clust1" class="cluster"><title>clusterdir_04f156109dbc2fc51b99c265fe2b4a64</title>
<g id="a_clust1"><a xlink:href="dir_04f156109dbc2fc51b99c265fe2b4a64.html" target="_top" xlink:title="include">
<polygon fill="#ddddee" stroke="black" points="8,-136 8,-207 148,-207 148,-136 8,-136"/>
<text text-anchor="middle" x="78" y="-195" font-family="Helvetica,sans-Serif" font-size="10.00">include</text>
</a>
</g>
</g>
<!-- dir_ba84ff22fb82a1ad72bd77f527e4e587 -->
<g id="node1" class="node"><title>dir_ba84ff22fb82a1ad72bd77f527e4e587</title>
<g id="a_node1"><a xlink:href="dir_ba84ff22fb82a1ad72bd77f527e4e587.html" target="_top" xlink:title="DataFormatsParameters">
<polygon fill="#eeeeff" stroke="black" points="139.5,-180 16.5,-180 16.5,-144 139.5,-144 139.5,-180"/>
<text text-anchor="middle" x="78" y="-159.5" font-family="Helvetica,sans-Serif" font-size="10.00">DataFormatsParameters</text>
</a>
</g>
</g>
<!-- dir_4ab6b4cc6a7edbff49100e9123df213f -->
<g id="node2" class="node"><title>dir_4ab6b4cc6a7edbff49100e9123df213f</title>
<g id="a_node2"><a xlink:href="dir_4ab6b4cc6a7edbff49100e9123df213f.html" target="_top" xlink:title="Common">
<polygon fill="none" stroke="red" points="77.5,-108 22.5,-108 22.5,-72 77.5,-72 77.5,-108"/>
<text text-anchor="middle" x="50" y="-87.5" font-family="Helvetica,sans-Serif" font-size="10.00">Common</text>
</a>
</g>
</g>
<!-- dir_ba84ff22fb82a1ad72bd77f527e4e587&#45;&gt;dir_4ab6b4cc6a7edbff49100e9123df213f -->
<g id="edge1" class="edge"><title>dir_ba84ff22fb82a1ad72bd77f527e4e587&#45;&gt;dir_4ab6b4cc6a7edbff49100e9123df213f</title>
<path fill="none" stroke="black" d="M71.0786,-143.697C67.9253,-135.813 64.1217,-126.304 60.6186,-117.546"/>
<polygon fill="black" stroke="black" points="63.8054,-116.089 56.8417,-108.104 57.306,-118.689 63.8054,-116.089"/>
<g id="a_edge1&#45;headlabel"><a xlink:href="dir_000146_000016.html" target="_top" xlink:title="2">
<text text-anchor="middle" x="67.7765" y="-115.872" font-family="Helvetica,sans-Serif" font-size="10.00">2</text>
</a>
</g>
</g>
<!-- dir_2801adc79bf3c286b1b479858d2cade4 -->
<g id="node3" class="node"><title>dir_2801adc79bf3c286b1b479858d2cade4</title>
<g id="a_node3"><a xlink:href="dir_2801adc79bf3c286b1b479858d2cade4.html" target="_top" xlink:title="Detectors">
<polygon fill="none" stroke="red" points="79.25,-36 20.75,-36 20.75,-0 79.25,-0 79.25,-36"/>
<text text-anchor="middle" x="50" y="-15.5" font-family="Helvetica,sans-Serif" font-size="10.00">Detectors</text>
</a>
</g>
</g>
<!-- dir_ba84ff22fb82a1ad72bd77f527e4e587&#45;&gt;dir_2801adc79bf3c286b1b479858d2cade4 -->
<g id="edge2" class="edge"><title>dir_ba84ff22fb82a1ad72bd77f527e4e587&#45;&gt;dir_2801adc79bf3c286b1b479858d2cade4</title>
<path fill="none" stroke="black" d="M83.343,-143.867C88.1569,-125.643 93.4326,-96.1703 86,-72 82.9911,-62.2153 77.493,-52.6161 71.6843,-44.3336"/>
<polygon fill="black" stroke="black" points="74.4072,-42.1306 65.6099,-36.2264 68.8052,-46.3279 74.4072,-42.1306"/>
<g id="a_edge2&#45;headlabel"><a xlink:href="dir_000146_000065.html" target="_top" xlink:title="1">
<text text-anchor="middle" x="78.8348" y="-40.8048" font-family="Helvetica,sans-Serif" font-size="10.00">1</text>
</a>
</g>
</g>
<!-- dir_4ab6b4cc6a7edbff49100e9123df213f&#45;&gt;dir_2801adc79bf3c286b1b479858d2cade4 -->
<g id="edge3" class="edge"><title>dir_4ab6b4cc6a7edbff49100e9123df213f&#45;&gt;dir_2801adc79bf3c286b1b479858d2cade4</title>
<path fill="none" stroke="black" d="M44.0843,-71.6966C43.2886,-63.9827 43.0621,-54.7125 43.4047,-46.1124"/>
<polygon fill="black" stroke="black" points="46.8984,-46.3243 44.105,-36.1043 39.9154,-45.8356 46.8984,-46.3243"/>
<g id="a_edge3&#45;headlabel"><a xlink:href="dir_000016_000065.html" target="_top" xlink:title="2">
<text text-anchor="middle" x="49.4799" y="-47.6083" font-family="Helvetica,sans-Serif" font-size="10.00">2</text>
</a>
</g>
</g>
<!-- dir_2801adc79bf3c286b1b479858d2cade4&#45;&gt;dir_4ab6b4cc6a7edbff49100e9123df213f -->
<g id="edge4" class="edge"><title>dir_2801adc79bf3c286b1b479858d2cade4&#45;&gt;dir_4ab6b4cc6a7edbff49100e9123df213f</title>
<path fill="none" stroke="black" d="M55.895,-36.1043C56.7005,-43.7913 56.9369,-53.0537 56.604,-61.6651"/>
<polygon fill="black" stroke="black" points="53.1085,-61.4805 55.9157,-71.6966 60.0921,-61.9597 53.1085,-61.4805"/>
<g id="a_edge4&#45;headlabel"><a xlink:href="dir_000065_000016.html" target="_top" xlink:title="9">
<text text-anchor="middle" x="50.5219" y="-55.2" font-family="Helvetica,sans-Serif" font-size="10.00">9</text>
</a>
</g>
</g>
</g>
</svg>
