<?xml version="1.0" encoding="UTF-8" standalone="no"?>
<!DOCTYPE svg PUBLIC "-//W3C//DTD SVG 1.1//EN"
 "http://www.w3.org/Graphics/SVG/1.1/DTD/svg11.dtd">
<!-- Generated by graphviz version 2.36.0 (20140111.2315)
 -->
<!-- Title: /home/travis/build/AliceO2Group/AliceO2/Detectors/ITSMFT/ITS/simulation Pages: 1 -->
<svg width="271pt" height="375pt"
 viewBox="0.00 0.00 270.60 375.00" xmlns="http://www.w3.org/2000/svg" xmlns:xlink="http://www.w3.org/1999/xlink">
<g id="graph0" class="graph" transform="scale(1 1) rotate(0) translate(4 371)">
<title>/home/travis/build/AliceO2Group/AliceO2/Detectors/ITSMFT/ITS/simulation</title>
<g id="clust1" class="cluster"><title>clusterdir_871aad07cbf94d6cd423c3d8d5bdf4e9</title>
<g id="a_clust1"><a xlink:href="dir_871aad07cbf94d6cd423c3d8d5bdf4e9.html" target="_top" xlink:title="ITS">
<polygon fill="#ddddee" stroke="black" points="8,-200 8,-359 174,-359 174,-200 8,-200"/>
<text text-anchor="middle" x="91" y="-347" font-family="Helvetica,sans-Serif" font-size="10.00">ITS</text>
</a>
</g>
</g>
<g id="clust2" class="cluster"><title>clusterdir_e6f6998399f381fa585023934f76a907</title>
<g id="a_clust2"><a xlink:href="dir_e6f6998399f381fa585023934f76a907.html" target="_top">
<polygon fill="#eeeeff" stroke="black" points="16,-208 16,-332 166,-332 166,-208 16,-208"/>
</a>
</g>
</g>
<!-- dir_e6f6998399f381fa585023934f76a907 -->
<g id="node1" class="node"><title>dir_e6f6998399f381fa585023934f76a907</title>
<text text-anchor="middle" x="127" y="-303.5" font-family="Helvetica,sans-Serif" font-size="10.00">simulation</text>
</g>
<!-- dir_703936e7bdda211beb61e967f1c6d8f5 -->
<g id="node2" class="node"><title>dir_703936e7bdda211beb61e967f1c6d8f5</title>
<g id="a_node2"><a xlink:href="dir_703936e7bdda211beb61e967f1c6d8f5.html" target="_top" xlink:title="include">
<polygon fill="white" stroke="red" points="81,-252 27,-252 27,-216 81,-216 81,-252"/>
<text text-anchor="middle" x="54" y="-231.5" font-family="Helvetica,sans-Serif" font-size="10.00">include</text>
</a>
</g>
</g>
<!-- dir_37c90836491b695b472bf98d1be8336b -->
<g id="node5" class="node"><title>dir_37c90836491b695b472bf98d1be8336b</title>
<g id="a_node5"><a xlink:href="dir_37c90836491b695b472bf98d1be8336b.html" target="_top" xlink:title="Base">
<polygon fill="none" stroke="red" points="153,-108 99,-108 99,-72 153,-72 153,-108"/>
<text text-anchor="middle" x="126" y="-87.5" font-family="Helvetica,sans-Serif" font-size="10.00">Base</text>
</a>
</g>
</g>
<!-- dir_703936e7bdda211beb61e967f1c6d8f5&#45;&gt;dir_37c90836491b695b472bf98d1be8336b -->
<g id="edge11" class="edge"><title>dir_703936e7bdda211beb61e967f1c6d8f5&#45;&gt;dir_37c90836491b695b472bf98d1be8336b</title>
<path fill="none" stroke="black" d="M59.734,-215.785C66.1063,-197.493 77.2016,-167.965 90,-144 94.978,-134.679 101.219,-124.977 107.1,-116.461"/>
<polygon fill="black" stroke="black" points="110.111,-118.265 113.03,-108.081 104.397,-114.222 110.111,-118.265"/>
<g id="a_edge11&#45;headlabel"><a xlink:href="dir_000175_000160.html" target="_top" xlink:title="2">
<text text-anchor="middle" x="110.352" y="-120.34" font-family="Helvetica,sans-Serif" font-size="10.00">2</text>
</a>
</g>
</g>
<!-- dir_85bf31a2e8d306e7598ffcb73f8df6bf -->
<g id="node6" class="node"><title>dir_85bf31a2e8d306e7598ffcb73f8df6bf</title>
<g id="a_node6"><a xlink:href="dir_85bf31a2e8d306e7598ffcb73f8df6bf.html" target="_top" xlink:title="common">
<polygon fill="none" stroke="red" points="153,-180 99,-180 99,-144 153,-144 153,-180"/>
<text text-anchor="middle" x="126" y="-159.5" font-family="Helvetica,sans-Serif" font-size="10.00">common</text>
</a>
</g>
</g>
<!-- dir_703936e7bdda211beb61e967f1c6d8f5&#45;&gt;dir_85bf31a2e8d306e7598ffcb73f8df6bf -->
<g id="edge12" class="edge"><title>dir_703936e7bdda211beb61e967f1c6d8f5&#45;&gt;dir_85bf31a2e8d306e7598ffcb73f8df6bf</title>
<path fill="none" stroke="black" d="M71.7978,-215.697C80.604,-207.135 91.3821,-196.656 101.001,-187.304"/>
<polygon fill="black" stroke="black" points="103.677,-189.585 108.407,-180.104 98.7972,-184.566 103.677,-189.585"/>
<g id="a_edge12&#45;headlabel"><a xlink:href="dir_000175_000224.html" target="_top" xlink:title="1">
<text text-anchor="middle" x="103.079" y="-191.626" font-family="Helvetica,sans-Serif" font-size="10.00">1</text>
</a>
</g>
</g>
<!-- dir_2171f7ec022c5423887b07c69b2f5b48 -->
<g id="node7" class="node"><title>dir_2171f7ec022c5423887b07c69b2f5b48</title>
<g id="a_node7"><a xlink:href="dir_2171f7ec022c5423887b07c69b2f5b48.html" target="_top" xlink:title="DataFormats">
<polygon fill="none" stroke="red" points="190,-36 116,-36 116,-0 190,-0 190,-36"/>
<text text-anchor="middle" x="153" y="-15.5" font-family="Helvetica,sans-Serif" font-size="10.00">DataFormats</text>
</a>
</g>
</g>
<!-- dir_703936e7bdda211beb61e967f1c6d8f5&#45;&gt;dir_2171f7ec022c5423887b07c69b2f5b48 -->
<g id="edge13" class="edge"><title>dir_703936e7bdda211beb61e967f1c6d8f5&#45;&gt;dir_2171f7ec022c5423887b07c69b2f5b48</title>
<path fill="none" stroke="black" d="M54.0783,-215.543C55.0001,-184.291 60.5801,-117.781 90,-72 97.1947,-60.8042 107.49,-50.7413 117.678,-42.4683"/>
<polygon fill="black" stroke="black" points="119.985,-45.1092 125.765,-36.2299 115.709,-39.5668 119.985,-45.1092"/>
<g id="a_edge13&#45;headlabel"><a xlink:href="dir_000175_000055.html" target="_top" xlink:title="1">
<text text-anchor="middle" x="118.873" y="-47.0529" font-family="Helvetica,sans-Serif" font-size="10.00">1</text>
</a>
</g>
</g>
<!-- dir_0355333a068ab019f0e92698f15a77e4 -->
<g id="node3" class="node"><title>dir_0355333a068ab019f0e92698f15a77e4</title>
<g id="a_node3"><a xlink:href="dir_0355333a068ab019f0e92698f15a77e4.html" target="_top" xlink:title="src">
<polygon fill="white" stroke="black" points="78,-324 24,-324 24,-288 78,-288 78,-324"/>
<text text-anchor="middle" x="51" y="-303.5" font-family="Helvetica,sans-Serif" font-size="10.00">src</text>
</a>
</g>
</g>
<!-- dir_0355333a068ab019f0e92698f15a77e4&#45;&gt;dir_703936e7bdda211beb61e967f1c6d8f5 -->
<g id="edge3" class="edge"><title>dir_0355333a068ab019f0e92698f15a77e4&#45;&gt;dir_703936e7bdda211beb61e967f1c6d8f5</title>
<path fill="none" stroke="black" d="M51.7416,-287.697C52.0722,-279.983 52.4695,-270.712 52.838,-262.112"/>
<polygon fill="black" stroke="black" points="56.3355,-262.245 53.267,-252.104 49.3419,-261.945 56.3355,-262.245"/>
<g id="a_edge3&#45;headlabel"><a xlink:href="dir_000209_000175.html" target="_top" xlink:title="7">
<text text-anchor="middle" x="59.0183" y="-263.458" font-family="Helvetica,sans-Serif" font-size="10.00">7</text>
</a>
</g>
</g>
<!-- dir_eedff867f3c4e67d20b227cb6e0f96ab -->
<g id="node4" class="node"><title>dir_eedff867f3c4e67d20b227cb6e0f96ab</title>
<g id="a_node4"><a xlink:href="dir_eedff867f3c4e67d20b227cb6e0f96ab.html" target="_top" xlink:title="base">
<polygon fill="none" stroke="red" points="236,-252 182,-252 182,-216 236,-216 236,-252"/>
<text text-anchor="middle" x="209" y="-231.5" font-family="Helvetica,sans-Serif" font-size="10.00">base</text>
</a>
</g>
</g>
<!-- dir_0355333a068ab019f0e92698f15a77e4&#45;&gt;dir_eedff867f3c4e67d20b227cb6e0f96ab -->
<g id="edge1" class="edge"><title>dir_0355333a068ab019f0e92698f15a77e4&#45;&gt;dir_eedff867f3c4e67d20b227cb6e0f96ab</title>
<path fill="none" stroke="black" d="M78.0838,-292.097C81.0859,-290.701 84.1037,-289.312 87,-288 123.629,-271.413 133.126,-268.034 170,-252 170.83,-251.639 171.669,-251.274 172.516,-250.906"/>
<polygon fill="black" stroke="black" points="173.956,-254.096 181.728,-246.895 171.162,-247.678 173.956,-254.096"/>
<g id="a_edge1&#45;headlabel"><a xlink:href="dir_000209_000277.html" target="_top" xlink:title="3">
<text text-anchor="middle" x="171.793" y="-255.634" font-family="Helvetica,sans-Serif" font-size="10.00">3</text>
</a>
</g>
</g>
<!-- dir_0355333a068ab019f0e92698f15a77e4&#45;&gt;dir_85bf31a2e8d306e7598ffcb73f8df6bf -->
<g id="edge2" class="edge"><title>dir_0355333a068ab019f0e92698f15a77e4&#45;&gt;dir_85bf31a2e8d306e7598ffcb73f8df6bf</title>
<path fill="none" stroke="black" d="M65.5268,-287.601C73.4234,-277.602 82.9808,-264.567 90,-252 101.126,-232.08 110.647,-208.014 117.099,-189.933"/>
<polygon fill="black" stroke="black" points="120.465,-190.907 120.444,-180.312 113.854,-188.608 120.465,-190.907"/>
<g id="a_edge2&#45;headlabel"><a xlink:href="dir_000209_000224.html" target="_top" xlink:title="3">
<text text-anchor="middle" x="121.967" y="-192.735" font-family="Helvetica,sans-Serif" font-size="10.00">3</text>
</a>
</g>
</g>
<!-- dir_0355333a068ab019f0e92698f15a77e4&#45;&gt;dir_2171f7ec022c5423887b07c69b2f5b48 -->
<g id="edge4" class="edge"><title>dir_0355333a068ab019f0e92698f15a77e4&#45;&gt;dir_2171f7ec022c5423887b07c69b2f5b48</title>
<path fill="none" stroke="black" d="M78.2612,-291.377C81.1756,-290.147 84.1255,-288.993 87,-288 155.075,-264.485 200.084,-308.301 245,-252 296.919,-186.921 219.752,-88.8886 177.518,-43.5736"/>
<polygon fill="black" stroke="black" points="179.994,-41.0981 170.571,-36.2549 174.917,-45.9173 179.994,-41.0981"/>
<g id="a_edge4&#45;headlabel"><a xlink:href="dir_000209_000055.html" target="_top" xlink:title="2">
<text text-anchor="middle" x="184.528" y="-39.2504" font-family="Helvetica,sans-Serif" font-size="10.00">2</text>
</a>
</g>
</g>
<!-- dir_eedff867f3c4e67d20b227cb6e0f96ab&#45;&gt;dir_37c90836491b695b472bf98d1be8336b -->
<g id="edge5" class="edge"><title>dir_eedff867f3c4e67d20b227cb6e0f96ab&#45;&gt;dir_37c90836491b695b472bf98d1be8336b</title>
<path fill="none" stroke="black" d="M200.708,-215.962C191.716,-197.817 176.674,-168.411 162,-144 156.556,-134.943 150.194,-125.31 144.347,-116.775"/>
<polygon fill="black" stroke="black" points="147.075,-114.568 138.498,-108.348 141.325,-118.559 147.075,-114.568"/>
<g id="a_edge5&#45;headlabel"><a xlink:href="dir_000277_000160.html" target="_top" xlink:title="2">
<text text-anchor="middle" x="151.457" y="-113.402" font-family="Helvetica,sans-Serif" font-size="10.00">2</text>
</a>
</g>
</g>
<!-- dir_eedff867f3c4e67d20b227cb6e0f96ab&#45;&gt;dir_85bf31a2e8d306e7598ffcb73f8df6bf -->
<g id="edge6" class="edge"><title>dir_eedff867f3c4e67d20b227cb6e0f96ab&#45;&gt;dir_85bf31a2e8d306e7598ffcb73f8df6bf</title>
<path fill="none" stroke="black" d="M188.768,-215.861C182.733,-210.754 176.102,-205.147 170,-200 164.993,-195.777 159.662,-191.287 154.502,-186.946"/>
<polygon fill="black" stroke="black" points="156.511,-184.062 146.605,-180.304 152.005,-189.419 156.511,-184.062"/>
<g id="a_edge6&#45;headlabel"><a xlink:href="dir_000277_000224.html" target="_top" xlink:title="2">
<text text-anchor="middle" x="161.089" y="-181.703" font-family="Helvetica,sans-Serif" font-size="10.00">2</text>
</a>
</g>
</g>
<!-- dir_eedff867f3c4e67d20b227cb6e0f96ab&#45;&gt;dir_2171f7ec022c5423887b07c69b2f5b48 -->
<g id="edge7" class="edge"><title>dir_eedff867f3c4e67d20b227cb6e0f96ab&#45;&gt;dir_2171f7ec022c5423887b07c69b2f5b48</title>
<path fill="none" stroke="black" d="M207.115,-215.724C203.539,-185.855 194.604,-122.873 178,-72 175.096,-63.1022 171.05,-53.7547 167.059,-45.4299"/>
<polygon fill="black" stroke="black" points="170.061,-43.6062 162.47,-36.2153 163.795,-46.7269 170.061,-43.6062"/>
<g id="a_edge7&#45;headlabel"><a xlink:href="dir_000277_000055.html" target="_top" xlink:title="1">
<text text-anchor="middle" x="174.205" y="-43.0581" font-family="Helvetica,sans-Serif" font-size="10.00">1</text>
</a>
</g>
</g>
<!-- dir_37c90836491b695b472bf98d1be8336b&#45;&gt;dir_2171f7ec022c5423887b07c69b2f5b48 -->
<g id="edge8" class="edge"><title>dir_37c90836491b695b472bf98d1be8336b&#45;&gt;dir_2171f7ec022c5423887b07c69b2f5b48</title>
<path fill="none" stroke="black" d="M126.758,-71.6966C129.01,-63.7284 132.509,-54.0995 136.31,-45.2641"/>
<polygon fill="black" stroke="black" points="139.523,-46.6534 140.508,-36.1043 133.16,-43.7371 139.523,-46.6534"/>
<g id="a_edge8&#45;headlabel"><a xlink:href="dir_000160_000055.html" target="_top" xlink:title="6">
<text text-anchor="middle" x="140.607" y="-48.604" font-family="Helvetica,sans-Serif" font-size="10.00">6</text>
</a>
</g>
</g>
<!-- dir_85bf31a2e8d306e7598ffcb73f8df6bf&#45;&gt;dir_37c90836491b695b472bf98d1be8336b -->
<g id="edge9" class="edge"><title>dir_85bf31a2e8d306e7598ffcb73f8df6bf&#45;&gt;dir_37c90836491b695b472bf98d1be8336b</title>
<path fill="none" stroke="black" d="M126,-143.697C126,-135.983 126,-126.712 126,-118.112"/>
<polygon fill="black" stroke="black" points="129.5,-118.104 126,-108.104 122.5,-118.104 129.5,-118.104"/>
<g id="a_edge9&#45;headlabel"><a xlink:href="dir_000224_000160.html" target="_top" xlink:title="3">
<text text-anchor="middle" x="132.339" y="-119.199" font-family="Helvetica,sans-Serif" font-size="10.00">3</text>
</a>
</g>
</g>
<!-- dir_85bf31a2e8d306e7598ffcb73f8df6bf&#45;&gt;dir_2171f7ec022c5423887b07c69b2f5b48 -->
<g id="edge10" class="edge"><title>dir_85bf31a2e8d306e7598ffcb73f8df6bf&#45;&gt;dir_2171f7ec022c5423887b07c69b2f5b48</title>
<path fill="none" stroke="black" d="M141.61,-143.774C149.373,-134.03 157.946,-121.184 162,-108 168.22,-87.7736 165.269,-63.865 161.147,-45.9241"/>
<polygon fill="black" stroke="black" points="164.51,-44.9471 158.646,-36.1232 157.728,-46.6782 164.51,-44.9471"/>
<g id="a_edge10&#45;headlabel"><a xlink:href="dir_000224_000055.html" target="_top" xlink:title="30">
<text text-anchor="middle" x="168.15" y="-45.228" font-family="Helvetica,sans-Serif" font-size="10.00">30</text>
</a>
</g>
</g>
<!-- dir_2171f7ec022c5423887b07c69b2f5b48&#45;&gt;dir_37c90836491b695b472bf98d1be8336b -->
<g id="edge14" class="edge"><title>dir_2171f7ec022c5423887b07c69b2f5b48&#45;&gt;dir_37c90836491b695b472bf98d1be8336b</title>
<path fill="none" stroke="black" d="M152.298,-36.1043C150.067,-44.0447 146.581,-53.6661 142.785,-62.5146"/>
<polygon fill="black" stroke="black" points="139.562,-61.1465 138.59,-71.6966 145.929,-64.0555 139.562,-61.1465"/>
<g id="a_edge14&#45;headlabel"><a xlink:href="dir_000055_000160.html" target="_top" xlink:title="1">
<text text-anchor="middle" x="138.473" y="-54.1971" font-family="Helvetica,sans-Serif" font-size="10.00">1</text>
</a>
</g>
</g>
</g>
</svg>
