<?xml version="1.0" encoding="UTF-8" standalone="no"?>
<!DOCTYPE svg PUBLIC "-//W3C//DTD SVG 1.1//EN"
 "http://www.w3.org/Graphics/SVG/1.1/DTD/svg11.dtd">
<!-- Generated by graphviz version 2.36.0 (20140111.2315)
 -->
<!-- Title: /home/travis/build/AliceO2Group/AliceO2/DataFormats/Detectors/ITSMFT/common/include/DataFormatsITSMFT Pages: 1 -->
<svg width="155pt" height="223pt"
 viewBox="0.00 0.00 155.00 223.00" xmlns="http://www.w3.org/2000/svg" xmlns:xlink="http://www.w3.org/1999/xlink">
<g id="graph0" class="graph" transform="scale(1 1) rotate(0) translate(4 219)">
<title>/home/travis/build/AliceO2Group/AliceO2/DataFormats/Detectors/ITSMFT/common/include/DataFormatsITSMFT</title>
<g id="clust1" class="cluster"><title>clusterdir_90228e13d7e50ca0627558c8e3e745e2</title>
<g id="a_clust1"><a xlink:href="dir_90228e13d7e50ca0627558c8e3e745e2.html" target="_top" xlink:title="include">
<polygon fill="#ddddee" stroke="black" points="13,-136 13,-207 139,-207 139,-136 13,-136"/>
<text text-anchor="middle" x="76" y="-195" font-family="Helvetica,sans-Serif" font-size="10.00">include</text>
</a>
</g>
</g>
<!-- dir_574ab9c39fd630a65444236d42c800d1 -->
<g id="node1" class="node"><title>dir_574ab9c39fd630a65444236d42c800d1</title>
<g id="a_node1"><a xlink:href="dir_574ab9c39fd630a65444236d42c800d1.html" target="_top" xlink:title="DataFormatsITSMFT">
<polygon fill="#eeeeff" stroke="black" points="131,-180 21,-180 21,-144 131,-144 131,-180"/>
<text text-anchor="middle" x="76" y="-159.5" font-family="Helvetica,sans-Serif" font-size="10.00">DataFormatsITSMFT</text>
</a>
</g>
</g>
<!-- dir_d269712cc31e133b892a3b3f6424741a -->
<g id="node2" class="node"><title>dir_d269712cc31e133b892a3b3f6424741a</title>
<g id="a_node2"><a xlink:href="dir_d269712cc31e133b892a3b3f6424741a.html" target="_top" xlink:title="Reconstruction">
<polygon fill="none" stroke="red" points="82.25,-108 -0.25,-108 -0.25,-72 82.25,-72 82.25,-108"/>
<text text-anchor="middle" x="41" y="-87.5" font-family="Helvetica,sans-Serif" font-size="10.00">Reconstruction</text>
</a>
</g>
</g>
<!-- dir_574ab9c39fd630a65444236d42c800d1&#45;&gt;dir_d269712cc31e133b892a3b3f6424741a -->
<g id="edge2" class="edge"><title>dir_574ab9c39fd630a65444236d42c800d1&#45;&gt;dir_d269712cc31e133b892a3b3f6424741a</title>
<path fill="none" stroke="black" d="M67.3483,-143.697C63.3642,-135.728 58.5498,-126.1 54.1321,-117.264"/>
<polygon fill="black" stroke="black" points="57.1549,-115.483 49.5522,-108.104 50.8939,-118.614 57.1549,-115.483"/>
<g id="a_edge2&#45;headlabel"><a xlink:href="dir_000074_000108.html" target="_top" xlink:title="1">
<text text-anchor="middle" x="61.3019" y="-114.929" font-family="Helvetica,sans-Serif" font-size="10.00">1</text>
</a>
</g>
</g>
<!-- dir_7924ba4398ae4560cd37376e44666c6d -->
<g id="node3" class="node"><title>dir_7924ba4398ae4560cd37376e44666c6d</title>
<g id="a_node3"><a xlink:href="dir_7924ba4398ae4560cd37376e44666c6d.html" target="_top" xlink:title="common">
<polygon fill="none" stroke="red" points="103,-36 49,-36 49,-0 103,-0 103,-36"/>
<text text-anchor="middle" x="76" y="-15.5" font-family="Helvetica,sans-Serif" font-size="10.00">common</text>
</a>
</g>
</g>
<!-- dir_574ab9c39fd630a65444236d42c800d1&#45;&gt;dir_7924ba4398ae4560cd37376e44666c6d -->
<g id="edge3" class="edge"><title>dir_574ab9c39fd630a65444236d42c800d1&#45;&gt;dir_7924ba4398ae4560cd37376e44666c6d</title>
<path fill="none" stroke="black" d="M82.238,-143.593C85.5674,-133.374 89.3174,-120.124 91,-108 93.1995,-92.1519 93.1995,-87.8481 91,-72 89.8169,-63.4752 87.6117,-54.3938 85.2493,-46.2008"/>
<polygon fill="black" stroke="black" points="88.5224,-44.9366 82.238,-36.4069 81.8316,-46.9939 88.5224,-44.9366"/>
<g id="a_edge3&#45;headlabel"><a xlink:href="dir_000074_000056.html" target="_top" xlink:title="2">
<text text-anchor="middle" x="92.2927" y="-45.0381" font-family="Helvetica,sans-Serif" font-size="10.00">2</text>
</a>
</g>
</g>
<!-- dir_d269712cc31e133b892a3b3f6424741a&#45;&gt;dir_7924ba4398ae4560cd37376e44666c6d -->
<g id="edge1" class="edge"><title>dir_d269712cc31e133b892a3b3f6424741a&#45;&gt;dir_7924ba4398ae4560cd37376e44666c6d</title>
<path fill="none" stroke="black" d="M49.6517,-71.6966C53.6358,-63.7284 58.4502,-54.0995 62.8679,-45.2641"/>
<polygon fill="black" stroke="black" points="66.1061,-46.6139 67.4478,-36.1043 59.8451,-43.4833 66.1061,-46.6139"/>
<g id="a_edge1&#45;headlabel"><a xlink:href="dir_000108_000056.html" target="_top" xlink:title="4">
<text text-anchor="middle" x="67.0382" y="-48.5987" font-family="Helvetica,sans-Serif" font-size="10.00">4</text>
</a>
</g>
</g>
</g>
</svg>
