<?xml version="1.0" encoding="UTF-8" standalone="no"?>
<!DOCTYPE svg PUBLIC "-//W3C//DTD SVG 1.1//EN"
 "http://www.w3.org/Graphics/SVG/1.1/DTD/svg11.dtd">
<!-- Generated by graphviz version 2.36.0 (20140111.2315)
 -->
<!-- Title: /home/travis/build/AliceO2Group/AliceO2/Detectors/gconfig/src Pages: 1 -->
<svg width="194pt" height="295pt"
 viewBox="0.00 0.00 194.35 295.00" xmlns="http://www.w3.org/2000/svg" xmlns:xlink="http://www.w3.org/1999/xlink">
<g id="graph0" class="graph" transform="scale(1 1) rotate(0) translate(4 291)">
<title>/home/travis/build/AliceO2Group/AliceO2/Detectors/gconfig/src</title>
<g id="clust1" class="cluster"><title>clusterdir_fda58d415f46ed5554e220ec8997f6b0</title>
<g id="a_clust1"><a xlink:href="dir_fda58d415f46ed5554e220ec8997f6b0.html" target="_top" xlink:title="gconfig">
<polygon fill="#ddddee" stroke="black" points="74,-208 74,-279 144,-279 144,-208 74,-208"/>
<text text-anchor="middle" x="109" y="-267" font-family="Helvetica,sans-Serif" font-size="10.00">gconfig</text>
</a>
</g>
</g>
<!-- dir_c0beb4acc36ff406387963d5baa86235 -->
<g id="node1" class="node"><title>dir_c0beb4acc36ff406387963d5baa86235</title>
<g id="a_node1"><a xlink:href="dir_c0beb4acc36ff406387963d5baa86235.html" target="_top" xlink:title="src">
<polygon fill="#eeeeff" stroke="black" points="136,-252 82,-252 82,-216 136,-216 136,-252"/>
<text text-anchor="middle" x="109" y="-231.5" font-family="Helvetica,sans-Serif" font-size="10.00">src</text>
</a>
</g>
</g>
<!-- dir_b37385ac8c40ffd9e301f70e181b5ea7 -->
<g id="node2" class="node"><title>dir_b37385ac8c40ffd9e301f70e181b5ea7</title>
<g id="a_node2"><a xlink:href="dir_b37385ac8c40ffd9e301f70e181b5ea7.html" target="_top" xlink:title="include">
<polygon fill="none" stroke="red" points="54,-180 0,-180 0,-144 54,-144 54,-180"/>
<text text-anchor="middle" x="27" y="-159.5" font-family="Helvetica,sans-Serif" font-size="10.00">include</text>
</a>
</g>
</g>
<!-- dir_c0beb4acc36ff406387963d5baa86235&#45;&gt;dir_b37385ac8c40ffd9e301f70e181b5ea7 -->
<g id="edge3" class="edge"><title>dir_c0beb4acc36ff406387963d5baa86235&#45;&gt;dir_b37385ac8c40ffd9e301f70e181b5ea7</title>
<path fill="none" stroke="black" d="M88.7303,-215.697C78.5024,-206.965 65.9389,-196.24 54.8218,-186.75"/>
<polygon fill="black" stroke="black" points="56.9146,-183.935 47.0365,-180.104 52.3697,-189.259 56.9146,-183.935"/>
<g id="a_edge3&#45;headlabel"><a xlink:href="dir_000267_000265.html" target="_top" xlink:title="5">
<text text-anchor="middle" x="61.4919" y="-181.609" font-family="Helvetica,sans-Serif" font-size="10.00">5</text>
</a>
</g>
</g>
<!-- dir_37c90836491b695b472bf98d1be8336b -->
<g id="node3" class="node"><title>dir_37c90836491b695b472bf98d1be8336b</title>
<g id="a_node3"><a xlink:href="dir_37c90836491b695b472bf98d1be8336b.html" target="_top" xlink:title="Base">
<polygon fill="none" stroke="red" points="164,-108 110,-108 110,-72 164,-72 164,-108"/>
<text text-anchor="middle" x="137" y="-87.5" font-family="Helvetica,sans-Serif" font-size="10.00">Base</text>
</a>
</g>
</g>
<!-- dir_c0beb4acc36ff406387963d5baa86235&#45;&gt;dir_37c90836491b695b472bf98d1be8336b -->
<g id="edge4" class="edge"><title>dir_c0beb4acc36ff406387963d5baa86235&#45;&gt;dir_37c90836491b695b472bf98d1be8336b</title>
<path fill="none" stroke="black" d="M103.657,-215.867C98.8431,-197.643 93.5674,-168.17 101,-144 104.009,-134.215 109.507,-124.616 115.316,-116.334"/>
<polygon fill="black" stroke="black" points="118.195,-118.328 121.39,-108.226 112.593,-114.131 118.195,-118.328"/>
<g id="a_edge4&#45;headlabel"><a xlink:href="dir_000267_000160.html" target="_top" xlink:title="2">
<text text-anchor="middle" x="118.312" y="-120.407" font-family="Helvetica,sans-Serif" font-size="10.00">2</text>
</a>
</g>
</g>
<!-- dir_f01815b857f9009bea48e2cb39492245 -->
<g id="node4" class="node"><title>dir_f01815b857f9009bea48e2cb39492245</title>
<g id="a_node4"><a xlink:href="dir_f01815b857f9009bea48e2cb39492245.html" target="_top" xlink:title="Passive">
<polygon fill="none" stroke="red" points="164,-180 110,-180 110,-144 164,-144 164,-180"/>
<text text-anchor="middle" x="137" y="-159.5" font-family="Helvetica,sans-Serif" font-size="10.00">Passive</text>
</a>
</g>
</g>
<!-- dir_c0beb4acc36ff406387963d5baa86235&#45;&gt;dir_f01815b857f9009bea48e2cb39492245 -->
<g id="edge5" class="edge"><title>dir_c0beb4acc36ff406387963d5baa86235&#45;&gt;dir_f01815b857f9009bea48e2cb39492245</title>
<path fill="none" stroke="black" d="M115.921,-215.697C119.075,-207.813 122.878,-198.304 126.381,-189.546"/>
<polygon fill="black" stroke="black" points="129.694,-190.689 130.158,-180.104 123.195,-188.089 129.694,-190.689"/>
<g id="a_edge5&#45;headlabel"><a xlink:href="dir_000267_000364.html" target="_top" xlink:title="2">
<text text-anchor="middle" x="130.995" y="-192.581" font-family="Helvetica,sans-Serif" font-size="10.00">2</text>
</a>
</g>
</g>
<!-- dir_2171f7ec022c5423887b07c69b2f5b48 -->
<g id="node5" class="node"><title>dir_2171f7ec022c5423887b07c69b2f5b48</title>
<g id="a_node5"><a xlink:href="dir_2171f7ec022c5423887b07c69b2f5b48.html" target="_top" xlink:title="DataFormats">
<polygon fill="none" stroke="red" points="174,-36 100,-36 100,-0 174,-0 174,-36"/>
<text text-anchor="middle" x="137" y="-15.5" font-family="Helvetica,sans-Serif" font-size="10.00">DataFormats</text>
</a>
</g>
</g>
<!-- dir_c0beb4acc36ff406387963d5baa86235&#45;&gt;dir_2171f7ec022c5423887b07c69b2f5b48 -->
<g id="edge6" class="edge"><title>dir_c0beb4acc36ff406387963d5baa86235&#45;&gt;dir_2171f7ec022c5423887b07c69b2f5b48</title>
<path fill="none" stroke="black" d="M136.096,-218.388C149.887,-209.337 165.326,-196.319 173,-180 193.426,-136.563 187.108,-117.88 173,-72 169.991,-62.2153 164.493,-52.6161 158.684,-44.3336"/>
<polygon fill="black" stroke="black" points="161.407,-42.1306 152.61,-36.2264 155.805,-46.3279 161.407,-42.1306"/>
<g id="a_edge6&#45;headlabel"><a xlink:href="dir_000267_000055.html" target="_top" xlink:title="4">
<text text-anchor="middle" x="165.835" y="-40.8048" font-family="Helvetica,sans-Serif" font-size="10.00">4</text>
</a>
</g>
</g>
<!-- dir_37c90836491b695b472bf98d1be8336b&#45;&gt;dir_2171f7ec022c5423887b07c69b2f5b48 -->
<g id="edge1" class="edge"><title>dir_37c90836491b695b472bf98d1be8336b&#45;&gt;dir_2171f7ec022c5423887b07c69b2f5b48</title>
<path fill="none" stroke="black" d="M131.084,-71.6966C130.289,-63.9827 130.062,-54.7125 130.405,-46.1124"/>
<polygon fill="black" stroke="black" points="133.898,-46.3243 131.105,-36.1043 126.915,-45.8356 133.898,-46.3243"/>
<g id="a_edge1&#45;headlabel"><a xlink:href="dir_000160_000055.html" target="_top" xlink:title="6">
<text text-anchor="middle" x="136.48" y="-47.6083" font-family="Helvetica,sans-Serif" font-size="10.00">6</text>
</a>
</g>
</g>
<!-- dir_f01815b857f9009bea48e2cb39492245&#45;&gt;dir_37c90836491b695b472bf98d1be8336b -->
<g id="edge2" class="edge"><title>dir_f01815b857f9009bea48e2cb39492245&#45;&gt;dir_37c90836491b695b472bf98d1be8336b</title>
<path fill="none" stroke="black" d="M137,-143.697C137,-135.983 137,-126.712 137,-118.112"/>
<polygon fill="black" stroke="black" points="140.5,-118.104 137,-108.104 133.5,-118.104 140.5,-118.104"/>
<g id="a_edge2&#45;headlabel"><a xlink:href="dir_000364_000160.html" target="_top" xlink:title="16">
<text text-anchor="middle" x="143.339" y="-119.199" font-family="Helvetica,sans-Serif" font-size="10.00">16</text>
</a>
</g>
</g>
<!-- dir_2171f7ec022c5423887b07c69b2f5b48&#45;&gt;dir_37c90836491b695b472bf98d1be8336b -->
<g id="edge7" class="edge"><title>dir_2171f7ec022c5423887b07c69b2f5b48&#45;&gt;dir_37c90836491b695b472bf98d1be8336b</title>
<path fill="none" stroke="black" d="M142.895,-36.1043C143.701,-43.7913 143.937,-53.0537 143.604,-61.6651"/>
<polygon fill="black" stroke="black" points="140.109,-61.4805 142.916,-71.6966 147.092,-61.9597 140.109,-61.4805"/>
<g id="a_edge7&#45;headlabel"><a xlink:href="dir_000055_000160.html" target="_top" xlink:title="1">
<text text-anchor="middle" x="137.522" y="-55.2" font-family="Helvetica,sans-Serif" font-size="10.00">1</text>
</a>
</g>
</g>
</g>
</svg>
