<?xml version="1.0" encoding="UTF-8" standalone="no"?>
<!DOCTYPE svg PUBLIC "-//W3C//DTD SVG 1.1//EN"
 "http://www.w3.org/Graphics/SVG/1.1/DTD/svg11.dtd">
<!-- Generated by graphviz version 2.36.0 (20140111.2315)
 -->
<!-- Title: /home/travis/build/AliceO2Group/AliceO2/Detectors/GlobalTracking/include/GlobalTracking Pages: 1 -->
<svg width="140pt" height="295pt"
 viewBox="0.00 0.00 140.00 295.00" xmlns="http://www.w3.org/2000/svg" xmlns:xlink="http://www.w3.org/1999/xlink">
<g id="graph0" class="graph" transform="scale(1 1) rotate(0) translate(4 291)">
<title>/home/travis/build/AliceO2Group/AliceO2/Detectors/GlobalTracking/include/GlobalTracking</title>
<g id="clust1" class="cluster"><title>clusterdir_6c932510dcafb55c77509e6f7d0d452e</title>
<g id="a_clust1"><a xlink:href="dir_6c932510dcafb55c77509e6f7d0d452e.html" target="_top" xlink:title="include">
<polygon fill="#ddddee" stroke="black" points="26,-208 26,-279 124,-279 124,-208 26,-208"/>
<text text-anchor="middle" x="75" y="-267" font-family="Helvetica,sans-Serif" font-size="10.00">include</text>
</a>
</g>
</g>
<!-- dir_2c99484774ac4ebfb966358c39bafad1 -->
<g id="node1" class="node"><title>dir_2c99484774ac4ebfb966358c39bafad1</title>
<g id="a_node1"><a xlink:href="dir_2c99484774ac4ebfb966358c39bafad1.html" target="_top" xlink:title="GlobalTracking">
<polygon fill="#eeeeff" stroke="black" points="116,-252 34,-252 34,-216 116,-216 116,-252"/>
<text text-anchor="middle" x="75" y="-231.5" font-family="Helvetica,sans-Serif" font-size="10.00">GlobalTracking</text>
</a>
</g>
</g>
<!-- dir_4ab6b4cc6a7edbff49100e9123df213f -->
<g id="node2" class="node"><title>dir_4ab6b4cc6a7edbff49100e9123df213f</title>
<g id="a_node2"><a xlink:href="dir_4ab6b4cc6a7edbff49100e9123df213f.html" target="_top" xlink:title="Common">
<polygon fill="none" stroke="red" points="55.5,-108 0.5,-108 0.5,-72 55.5,-72 55.5,-108"/>
<text text-anchor="middle" x="28" y="-87.5" font-family="Helvetica,sans-Serif" font-size="10.00">Common</text>
</a>
</g>
</g>
<!-- dir_2c99484774ac4ebfb966358c39bafad1&#45;&gt;dir_4ab6b4cc6a7edbff49100e9123df213f -->
<g id="edge4" class="edge"><title>dir_2c99484774ac4ebfb966358c39bafad1&#45;&gt;dir_4ab6b4cc6a7edbff49100e9123df213f</title>
<path fill="none" stroke="black" d="M60.0301,-215.555C52.4546,-205.748 43.8565,-192.91 39,-180 31.5654,-160.237 28.9209,-136.436 28.0777,-118.421"/>
<polygon fill="black" stroke="black" points="31.5721,-118.185 27.7626,-108.299 24.5755,-118.403 31.5721,-118.185"/>
<g id="a_edge4&#45;headlabel"><a xlink:href="dir_000270_000016.html" target="_top" xlink:title="2">
<text text-anchor="middle" x="34.5217" y="-119.19" font-family="Helvetica,sans-Serif" font-size="10.00">2</text>
</a>
</g>
</g>
<!-- dir_577c839d346a264df4e9e588ca2a45dd -->
<g id="node3" class="node"><title>dir_577c839d346a264df4e9e588ca2a45dd</title>
<g id="a_node3"><a xlink:href="dir_577c839d346a264df4e9e588ca2a45dd.html" target="_top" xlink:title="TOF">
<polygon fill="none" stroke="red" points="102,-180 48,-180 48,-144 102,-144 102,-180"/>
<text text-anchor="middle" x="75" y="-159.5" font-family="Helvetica,sans-Serif" font-size="10.00">TOF</text>
</a>
</g>
</g>
<!-- dir_2c99484774ac4ebfb966358c39bafad1&#45;&gt;dir_577c839d346a264df4e9e588ca2a45dd -->
<g id="edge5" class="edge"><title>dir_2c99484774ac4ebfb966358c39bafad1&#45;&gt;dir_577c839d346a264df4e9e588ca2a45dd</title>
<path fill="none" stroke="black" d="M75,-215.697C75,-207.983 75,-198.712 75,-190.112"/>
<polygon fill="black" stroke="black" points="78.5001,-190.104 75,-180.104 71.5001,-190.104 78.5001,-190.104"/>
<g id="a_edge5&#45;headlabel"><a xlink:href="dir_000270_000189.html" target="_top" xlink:title="3">
<text text-anchor="middle" x="81.3393" y="-191.199" font-family="Helvetica,sans-Serif" font-size="10.00">3</text>
</a>
</g>
</g>
<!-- dir_2171f7ec022c5423887b07c69b2f5b48 -->
<g id="node4" class="node"><title>dir_2171f7ec022c5423887b07c69b2f5b48</title>
<g id="a_node4"><a xlink:href="dir_2171f7ec022c5423887b07c69b2f5b48.html" target="_top" xlink:title="DataFormats">
<polygon fill="none" stroke="red" points="93,-36 19,-36 19,-0 93,-0 93,-36"/>
<text text-anchor="middle" x="56" y="-15.5" font-family="Helvetica,sans-Serif" font-size="10.00">DataFormats</text>
</a>
</g>
</g>
<!-- dir_2c99484774ac4ebfb966358c39bafad1&#45;&gt;dir_2171f7ec022c5423887b07c69b2f5b48 -->
<g id="edge6" class="edge"><title>dir_2c99484774ac4ebfb966358c39bafad1&#45;&gt;dir_2171f7ec022c5423887b07c69b2f5b48</title>
<path fill="none" stroke="black" d="M90.6099,-215.774C98.3729,-206.03 106.946,-193.184 111,-180 115.703,-164.707 114.138,-159.689 111,-144 103.775,-107.877 85.0603,-69.5566 71.4639,-45.0126"/>
<polygon fill="black" stroke="black" points="74.3342,-42.9786 66.3588,-36.004 68.2441,-46.4298 74.3342,-42.9786"/>
<g id="a_edge6&#45;headlabel"><a xlink:href="dir_000270_000055.html" target="_top" xlink:title="21">
<text text-anchor="middle" x="78.5766" y="-42.2061" font-family="Helvetica,sans-Serif" font-size="10.00">21</text>
</a>
</g>
</g>
<!-- dir_4ab6b4cc6a7edbff49100e9123df213f&#45;&gt;dir_2171f7ec022c5423887b07c69b2f5b48 -->
<g id="edge1" class="edge"><title>dir_4ab6b4cc6a7edbff49100e9123df213f&#45;&gt;dir_2171f7ec022c5423887b07c69b2f5b48</title>
<path fill="none" stroke="black" d="M29.0056,-71.6966C31.371,-63.7284 35.0079,-54.0995 38.9348,-45.2641"/>
<polygon fill="black" stroke="black" points="42.1552,-46.6411 43.2632,-36.1043 35.8262,-43.6503 42.1552,-46.6411"/>
<g id="a_edge1&#45;headlabel"><a xlink:href="dir_000016_000055.html" target="_top" xlink:title="3">
<text text-anchor="middle" x="43.1866" y="-48.6041" font-family="Helvetica,sans-Serif" font-size="10.00">3</text>
</a>
</g>
</g>
<!-- dir_577c839d346a264df4e9e588ca2a45dd&#45;&gt;dir_4ab6b4cc6a7edbff49100e9123df213f -->
<g id="edge2" class="edge"><title>dir_577c839d346a264df4e9e588ca2a45dd&#45;&gt;dir_4ab6b4cc6a7edbff49100e9123df213f</title>
<path fill="none" stroke="black" d="M63.382,-143.697C57.8612,-135.474 51.153,-125.483 45.0682,-116.421"/>
<polygon fill="black" stroke="black" points="47.9645,-114.456 39.4843,-108.104 42.1529,-118.358 47.9645,-114.456"/>
<g id="a_edge2&#45;headlabel"><a xlink:href="dir_000189_000016.html" target="_top" xlink:title="5">
<text text-anchor="middle" x="52.3254" y="-113.357" font-family="Helvetica,sans-Serif" font-size="10.00">5</text>
</a>
</g>
</g>
<!-- dir_577c839d346a264df4e9e588ca2a45dd&#45;&gt;dir_2171f7ec022c5423887b07c69b2f5b48 -->
<g id="edge3" class="edge"><title>dir_577c839d346a264df4e9e588ca2a45dd&#45;&gt;dir_2171f7ec022c5423887b07c69b2f5b48</title>
<path fill="none" stroke="black" d="M73.027,-143.92C70.9234,-125.99 67.4294,-96.9875 64,-72 62.8435,-63.5731 61.4929,-54.407 60.2343,-46.104"/>
<polygon fill="black" stroke="black" points="63.6862,-45.5229 58.7109,-36.1689 56.7671,-46.5839 63.6862,-45.5229"/>
<g id="a_edge3&#45;headlabel"><a xlink:href="dir_000189_000055.html" target="_top" xlink:title="13">
<text text-anchor="middle" x="67.0374" y="-46.1456" font-family="Helvetica,sans-Serif" font-size="10.00">13</text>
</a>
</g>
</g>
<!-- dir_2171f7ec022c5423887b07c69b2f5b48&#45;&gt;dir_4ab6b4cc6a7edbff49100e9123df213f -->
<g id="edge7" class="edge"><title>dir_2171f7ec022c5423887b07c69b2f5b48&#45;&gt;dir_4ab6b4cc6a7edbff49100e9123df213f</title>
<path fill="none" stroke="black" d="M55.0533,-36.1043C52.7092,-44.0447 49.0854,-53.6661 45.1634,-62.5146"/>
<polygon fill="black" stroke="black" points="41.9333,-61.1586 40.8371,-71.6966 48.2656,-64.1423 41.9333,-61.1586"/>
<g id="a_edge7&#45;headlabel"><a xlink:href="dir_000055_000016.html" target="_top" xlink:title="26">
<text text-anchor="middle" x="40.8969" y="-54.1967" font-family="Helvetica,sans-Serif" font-size="10.00">26</text>
</a>
</g>
</g>
</g>
</svg>
