<?xml version="1.0" encoding="UTF-8" standalone="no"?>
<!DOCTYPE svg PUBLIC "-//W3C//DTD SVG 1.1//EN"
 "http://www.w3.org/Graphics/SVG/1.1/DTD/svg11.dtd">
<!-- Generated by graphviz version 2.36.0 (20140111.2315)
 -->
<!-- Title: /home/travis/build/AliceO2Group/AliceO2/Framework/TestWorkflows/src Pages: 1 -->
<svg width="225pt" height="439pt"
 viewBox="0.00 0.00 224.91 439.00" xmlns="http://www.w3.org/2000/svg" xmlns:xlink="http://www.w3.org/1999/xlink">
<g id="graph0" class="graph" transform="scale(1 1) rotate(0) translate(4 435)">
<title>/home/travis/build/AliceO2Group/AliceO2/Framework/TestWorkflows/src</title>
<g id="clust1" class="cluster"><title>clusterdir_a8f73827fca2a0188d35dc47dc5b0ea3</title>
<g id="a_clust1"><a xlink:href="dir_a8f73827fca2a0188d35dc47dc5b0ea3.html" target="_top" xlink:title="TestWorkflows">
<polygon fill="#ddddee" stroke="black" points="57,-352 57,-423 140,-423 140,-352 57,-352"/>
<text text-anchor="middle" x="98.5" y="-411" font-family="Helvetica,sans-Serif" font-size="10.00">TestWorkflows</text>
</a>
</g>
</g>
<!-- dir_80c3b7d4c168c9aa75dd1ba81b9fa387 -->
<g id="node1" class="node"><title>dir_80c3b7d4c168c9aa75dd1ba81b9fa387</title>
<g id="a_node1"><a xlink:href="dir_80c3b7d4c168c9aa75dd1ba81b9fa387.html" target="_top" xlink:title="src">
<polygon fill="#eeeeff" stroke="black" points="125,-396 71,-396 71,-360 125,-360 125,-396"/>
<text text-anchor="middle" x="98" y="-375.5" font-family="Helvetica,sans-Serif" font-size="10.00">src</text>
</a>
</g>
</g>
<!-- dir_0b342c6c6b7d2278121a0bb9c4985063 -->
<g id="node2" class="node"><title>dir_0b342c6c6b7d2278121a0bb9c4985063</title>
<g id="a_node2"><a xlink:href="dir_0b342c6c6b7d2278121a0bb9c4985063.html" target="_top" xlink:title="Generators">
<polygon fill="none" stroke="red" points="191.25,-324 126.75,-324 126.75,-288 191.25,-288 191.25,-324"/>
<text text-anchor="middle" x="159" y="-303.5" font-family="Helvetica,sans-Serif" font-size="10.00">Generators</text>
</a>
</g>
</g>
<!-- dir_80c3b7d4c168c9aa75dd1ba81b9fa387&#45;&gt;dir_0b342c6c6b7d2278121a0bb9c4985063 -->
<g id="edge1" class="edge"><title>dir_80c3b7d4c168c9aa75dd1ba81b9fa387&#45;&gt;dir_0b342c6c6b7d2278121a0bb9c4985063</title>
<path fill="none" stroke="black" d="M113.079,-359.697C120.392,-351.305 129.31,-341.07 137.335,-331.861"/>
<polygon fill="black" stroke="black" points="140.164,-333.943 144.095,-324.104 134.886,-329.344 140.164,-333.943"/>
<g id="a_edge1&#45;headlabel"><a xlink:href="dir_000310_000442.html" target="_top" xlink:title="1">
<text text-anchor="middle" x="139.943" y="-336.018" font-family="Helvetica,sans-Serif" font-size="10.00">1</text>
</a>
</g>
</g>
<!-- dir_4ab6b4cc6a7edbff49100e9123df213f -->
<g id="node3" class="node"><title>dir_4ab6b4cc6a7edbff49100e9123df213f</title>
<g id="a_node3"><a xlink:href="dir_4ab6b4cc6a7edbff49100e9123df213f.html" target="_top" xlink:title="Common">
<polygon fill="none" stroke="red" points="130.5,-252 75.5,-252 75.5,-216 130.5,-216 130.5,-252"/>
<text text-anchor="middle" x="103" y="-231.5" font-family="Helvetica,sans-Serif" font-size="10.00">Common</text>
</a>
</g>
</g>
<!-- dir_80c3b7d4c168c9aa75dd1ba81b9fa387&#45;&gt;dir_4ab6b4cc6a7edbff49100e9123df213f -->
<g id="edge2" class="edge"><title>dir_80c3b7d4c168c9aa75dd1ba81b9fa387&#45;&gt;dir_4ab6b4cc6a7edbff49100e9123df213f</title>
<path fill="none" stroke="black" d="M98.6031,-359.871C99.4553,-335.67 101.021,-291.211 102.035,-262.393"/>
<polygon fill="black" stroke="black" points="105.541,-262.306 102.395,-252.189 98.5449,-262.06 105.541,-262.306"/>
<g id="a_edge2&#45;headlabel"><a xlink:href="dir_000310_000016.html" target="_top" xlink:title="2">
<text text-anchor="middle" x="108.252" y="-263.499" font-family="Helvetica,sans-Serif" font-size="10.00">2</text>
</a>
</g>
</g>
<!-- dir_9f165b2481dacfe69aa54d326bd5cd47 -->
<g id="node4" class="node"><title>dir_9f165b2481dacfe69aa54d326bd5cd47</title>
<g id="a_node4"><a xlink:href="dir_9f165b2481dacfe69aa54d326bd5cd47.html" target="_top" xlink:title="Core">
<polygon fill="none" stroke="red" points="90,-36 36,-36 36,-0 90,-0 90,-36"/>
<text text-anchor="middle" x="63" y="-15.5" font-family="Helvetica,sans-Serif" font-size="10.00">Core</text>
</a>
</g>
</g>
<!-- dir_80c3b7d4c168c9aa75dd1ba81b9fa387&#45;&gt;dir_9f165b2481dacfe69aa54d326bd5cd47 -->
<g id="edge3" class="edge"><title>dir_80c3b7d4c168c9aa75dd1ba81b9fa387&#45;&gt;dir_9f165b2481dacfe69aa54d326bd5cd47</title>
<path fill="none" stroke="black" d="M75.7623,-359.925C46.8482,-335.604 0,-288.018 0,-235 0,-235 0,-235 0,-161 0,-117.195 25.36,-71.8141 43.9002,-44.4906"/>
<polygon fill="black" stroke="black" points="46.7797,-46.4803 49.6393,-36.2787 41.042,-42.4704 46.7797,-46.4803"/>
<g id="a_edge3&#45;headlabel"><a xlink:href="dir_000310_000425.html" target="_top" xlink:title="80">
<text text-anchor="middle" x="47.0478" y="-48.5531" font-family="Helvetica,sans-Serif" font-size="10.00">80</text>
</a>
</g>
</g>
<!-- dir_051dca18e802f8e9474f2e30d29c04e0 -->
<g id="node5" class="node"><title>dir_051dca18e802f8e9474f2e30d29c04e0</title>
<g id="a_node5"><a xlink:href="dir_051dca18e802f8e9474f2e30d29c04e0.html" target="_top" xlink:title="Detectors">
<polygon fill="none" stroke="red" points="186.25,-108 127.75,-108 127.75,-72 186.25,-72 186.25,-108"/>
<text text-anchor="middle" x="157" y="-87.5" font-family="Helvetica,sans-Serif" font-size="10.00">Detectors</text>
</a>
</g>
</g>
<!-- dir_80c3b7d4c168c9aa75dd1ba81b9fa387&#45;&gt;dir_051dca18e802f8e9474f2e30d29c04e0 -->
<g id="edge4" class="edge"><title>dir_80c3b7d4c168c9aa75dd1ba81b9fa387&#45;&gt;dir_051dca18e802f8e9474f2e30d29c04e0</title>
<path fill="none" stroke="black" d="M125.135,-371.237C149.498,-364.469 183.84,-350.609 200,-324 240.268,-257.696 197.873,-162.637 172.752,-117.169"/>
<polygon fill="black" stroke="black" points="175.669,-115.218 167.69,-108.248 169.581,-118.673 175.669,-115.218"/>
<g id="a_edge4&#45;headlabel"><a xlink:href="dir_000310_000029.html" target="_top" xlink:title="4">
<text text-anchor="middle" x="179.913" y="-114.443" font-family="Helvetica,sans-Serif" font-size="10.00">4</text>
</a>
</g>
</g>
<!-- dir_2171f7ec022c5423887b07c69b2f5b48 -->
<g id="node6" class="node"><title>dir_2171f7ec022c5423887b07c69b2f5b48</title>
<g id="a_node6"><a xlink:href="dir_2171f7ec022c5423887b07c69b2f5b48.html" target="_top" xlink:title="DataFormats">
<polygon fill="none" stroke="red" points="140,-180 66,-180 66,-144 140,-144 140,-180"/>
<text text-anchor="middle" x="103" y="-159.5" font-family="Helvetica,sans-Serif" font-size="10.00">DataFormats</text>
</a>
</g>
</g>
<!-- dir_80c3b7d4c168c9aa75dd1ba81b9fa387&#45;&gt;dir_2171f7ec022c5423887b07c69b2f5b48 -->
<g id="edge5" class="edge"><title>dir_80c3b7d4c168c9aa75dd1ba81b9fa387&#45;&gt;dir_2171f7ec022c5423887b07c69b2f5b48</title>
<path fill="none" stroke="black" d="M89.0235,-359.774C74.7181,-329.98 49.9252,-267.108 66,-216 69.0986,-206.148 74.7512,-196.53 80.7209,-188.251"/>
<polygon fill="black" stroke="black" points="83.6293,-190.211 86.9631,-180.154 78.0855,-185.937 83.6293,-190.211"/>
<g id="a_edge5&#45;headlabel"><a xlink:href="dir_000310_000055.html" target="_top" xlink:title="2">
<text text-anchor="middle" x="83.6832" y="-192.291" font-family="Helvetica,sans-Serif" font-size="10.00">2</text>
</a>
</g>
</g>
<!-- dir_0b342c6c6b7d2278121a0bb9c4985063&#45;&gt;dir_4ab6b4cc6a7edbff49100e9123df213f -->
<g id="edge6" class="edge"><title>dir_0b342c6c6b7d2278121a0bb9c4985063&#45;&gt;dir_4ab6b4cc6a7edbff49100e9123df213f</title>
<path fill="none" stroke="black" d="M145.157,-287.697C138.511,-279.389 130.422,-269.277 123.113,-260.141"/>
<polygon fill="black" stroke="black" points="125.664,-257.727 116.683,-252.104 120.197,-262.099 125.664,-257.727"/>
<g id="a_edge6&#45;headlabel"><a xlink:href="dir_000442_000016.html" target="_top" xlink:title="3">
<text text-anchor="middle" x="130.126" y="-256.26" font-family="Helvetica,sans-Serif" font-size="10.00">3</text>
</a>
</g>
</g>
<!-- dir_0b342c6c6b7d2278121a0bb9c4985063&#45;&gt;dir_2171f7ec022c5423887b07c69b2f5b48 -->
<g id="edge7" class="edge"><title>dir_0b342c6c6b7d2278121a0bb9c4985063&#45;&gt;dir_2171f7ec022c5423887b07c69b2f5b48</title>
<path fill="none" stroke="black" d="M157.062,-287.675C154.565,-269.291 149.262,-239.686 139,-216 134.865,-206.455 128.947,-196.812 123.1,-188.415"/>
<polygon fill="black" stroke="black" points="125.821,-186.205 117.111,-180.172 120.158,-190.32 125.821,-186.205"/>
<g id="a_edge7&#45;headlabel"><a xlink:href="dir_000442_000055.html" target="_top" xlink:title="1">
<text text-anchor="middle" x="130.231" y="-184.944" font-family="Helvetica,sans-Serif" font-size="10.00">1</text>
</a>
</g>
</g>
<!-- dir_4ab6b4cc6a7edbff49100e9123df213f&#45;&gt;dir_2171f7ec022c5423887b07c69b2f5b48 -->
<g id="edge8" class="edge"><title>dir_4ab6b4cc6a7edbff49100e9123df213f&#45;&gt;dir_2171f7ec022c5423887b07c69b2f5b48</title>
<path fill="none" stroke="black" d="M97.0843,-215.697C96.2886,-207.983 96.0621,-198.712 96.4047,-190.112"/>
<polygon fill="black" stroke="black" points="99.8984,-190.324 97.105,-180.104 92.9154,-189.836 99.8984,-190.324"/>
<g id="a_edge8&#45;headlabel"><a xlink:href="dir_000016_000055.html" target="_top" xlink:title="3">
<text text-anchor="middle" x="102.48" y="-191.608" font-family="Helvetica,sans-Serif" font-size="10.00">3</text>
</a>
</g>
</g>
<!-- dir_9f165b2481dacfe69aa54d326bd5cd47&#45;&gt;dir_4ab6b4cc6a7edbff49100e9123df213f -->
<g id="edge9" class="edge"><title>dir_9f165b2481dacfe69aa54d326bd5cd47&#45;&gt;dir_4ab6b4cc6a7edbff49100e9123df213f</title>
<path fill="none" stroke="black" d="M58.1818,-36.1347C50.5897,-66.3227 38.5056,-130.476 57,-180 60.8761,-190.379 67.8029,-200.073 75.124,-208.257"/>
<polygon fill="black" stroke="black" points="72.7306,-210.818 82.1772,-215.615 77.784,-205.974 72.7306,-210.818"/>
<g id="a_edge9&#45;headlabel"><a xlink:href="dir_000425_000016.html" target="_top" xlink:title="6">
<text text-anchor="middle" x="68.1935" y="-207.688" font-family="Helvetica,sans-Serif" font-size="10.00">6</text>
</a>
</g>
</g>
<!-- dir_9f165b2481dacfe69aa54d326bd5cd47&#45;&gt;dir_2171f7ec022c5423887b07c69b2f5b48 -->
<g id="edge10" class="edge"><title>dir_9f165b2481dacfe69aa54d326bd5cd47&#45;&gt;dir_2171f7ec022c5423887b07c69b2f5b48</title>
<path fill="none" stroke="black" d="M67.842,-36.1893C74.6989,-60.5311 87.3042,-105.28 95.4109,-134.059"/>
<polygon fill="black" stroke="black" points="92.0947,-135.195 98.1751,-143.871 98.8325,-133.297 92.0947,-135.195"/>
<g id="a_edge10&#45;headlabel"><a xlink:href="dir_000425_000055.html" target="_top" xlink:title="39">
<text text-anchor="middle" x="88.3872" y="-130.005" font-family="Helvetica,sans-Serif" font-size="10.00">39</text>
</a>
</g>
</g>
<!-- dir_051dca18e802f8e9474f2e30d29c04e0&#45;&gt;dir_0b342c6c6b7d2278121a0bb9c4985063 -->
<g id="edge11" class="edge"><title>dir_051dca18e802f8e9474f2e30d29c04e0&#45;&gt;dir_0b342c6c6b7d2278121a0bb9c4985063</title>
<path fill="none" stroke="black" d="M161.464,-108.047C163.935,-118.37 166.752,-131.847 168,-144 172.804,-190.788 167.426,-245.507 163.162,-277.596"/>
<polygon fill="black" stroke="black" points="159.686,-277.179 161.774,-287.566 166.619,-278.144 159.686,-277.179"/>
<g id="a_edge11&#45;headlabel"><a xlink:href="dir_000029_000442.html" target="_top" xlink:title="1">
<text text-anchor="middle" x="157.369" y="-270.728" font-family="Helvetica,sans-Serif" font-size="10.00">1</text>
</a>
</g>
</g>
<!-- dir_051dca18e802f8e9474f2e30d29c04e0&#45;&gt;dir_4ab6b4cc6a7edbff49100e9123df213f -->
<g id="edge12" class="edge"><title>dir_051dca18e802f8e9474f2e30d29c04e0&#45;&gt;dir_4ab6b4cc6a7edbff49100e9123df213f</title>
<path fill="none" stroke="black" d="M158.502,-108.151C159.442,-126.647 158.96,-156.588 149,-180 144.59,-190.365 137.366,-200.156 129.936,-208.436"/>
<polygon fill="black" stroke="black" points="127.204,-206.229 122.833,-215.881 132.268,-211.061 127.204,-206.229"/>
<g id="a_edge12&#45;headlabel"><a xlink:href="dir_000029_000016.html" target="_top" xlink:title="106">
<text text-anchor="middle" x="127.63" y="-199.169" font-family="Helvetica,sans-Serif" font-size="10.00">106</text>
</a>
</g>
</g>
<!-- dir_051dca18e802f8e9474f2e30d29c04e0&#45;&gt;dir_9f165b2481dacfe69aa54d326bd5cd47 -->
<g id="edge13" class="edge"><title>dir_051dca18e802f8e9474f2e30d29c04e0&#45;&gt;dir_9f165b2481dacfe69aa54d326bd5cd47</title>
<path fill="none" stroke="black" d="M133.764,-71.6966C121.812,-62.796 107.077,-51.8232 94.1528,-42.1989"/>
<polygon fill="black" stroke="black" points="96.0796,-39.2699 85.9687,-36.1043 91.8987,-44.8842 96.0796,-39.2699"/>
<g id="a_edge13&#45;headlabel"><a xlink:href="dir_000029_000425.html" target="_top" xlink:title="80">
<text text-anchor="middle" x="100.658" y="-36.6396" font-family="Helvetica,sans-Serif" font-size="10.00">80</text>
</a>
</g>
</g>
<!-- dir_051dca18e802f8e9474f2e30d29c04e0&#45;&gt;dir_2171f7ec022c5423887b07c69b2f5b48 -->
<g id="edge14" class="edge"><title>dir_051dca18e802f8e9474f2e30d29c04e0&#45;&gt;dir_2171f7ec022c5423887b07c69b2f5b48</title>
<path fill="none" stroke="black" d="M149.7,-108.104C144.125,-116.467 136.438,-126.694 128.851,-135.92"/>
<polygon fill="black" stroke="black" points="126.056,-133.804 122.264,-143.697 131.398,-138.328 126.056,-133.804"/>
<g id="a_edge14&#45;headlabel"><a xlink:href="dir_000029_000055.html" target="_top" xlink:title="389">
<text text-anchor="middle" x="126.213" y="-126.726" font-family="Helvetica,sans-Serif" font-size="10.00">389</text>
</a>
</g>
</g>
<!-- dir_2171f7ec022c5423887b07c69b2f5b48&#45;&gt;dir_4ab6b4cc6a7edbff49100e9123df213f -->
<g id="edge15" class="edge"><title>dir_2171f7ec022c5423887b07c69b2f5b48&#45;&gt;dir_4ab6b4cc6a7edbff49100e9123df213f</title>
<path fill="none" stroke="black" d="M108.895,-180.104C109.701,-187.791 109.937,-197.054 109.604,-205.665"/>
<polygon fill="black" stroke="black" points="106.109,-205.48 108.916,-215.697 113.092,-205.96 106.109,-205.48"/>
<g id="a_edge15&#45;headlabel"><a xlink:href="dir_000055_000016.html" target="_top" xlink:title="26">
<text text-anchor="middle" x="103.522" y="-199.2" font-family="Helvetica,sans-Serif" font-size="10.00">26</text>
</a>
</g>
</g>
<!-- dir_2171f7ec022c5423887b07c69b2f5b48&#45;&gt;dir_051dca18e802f8e9474f2e30d29c04e0 -->
<g id="edge16" class="edge"><title>dir_2171f7ec022c5423887b07c69b2f5b48&#45;&gt;dir_051dca18e802f8e9474f2e30d29c04e0</title>
<path fill="none" stroke="black" d="M110.433,-143.697C116.041,-135.305 123.744,-125.07 131.33,-115.861"/>
<polygon fill="black" stroke="black" points="134.11,-117.994 137.91,-108.104 128.772,-113.466 134.11,-117.994"/>
<g id="a_edge16&#45;headlabel"><a xlink:href="dir_000055_000029.html" target="_top" xlink:title="1">
<text text-anchor="middle" x="133.95" y="-120.072" font-family="Helvetica,sans-Serif" font-size="10.00">1</text>
</a>
</g>
</g>
</g>
</svg>
