<?xml version="1.0" encoding="UTF-8" standalone="no"?>
<!DOCTYPE svg PUBLIC "-//W3C//DTD SVG 1.1//EN"
 "http://www.w3.org/Graphics/SVG/1.1/DTD/svg11.dtd">
<!-- Generated by graphviz version 2.36.0 (20140111.2315)
 -->
<!-- Title: /home/travis/build/AliceO2Group/AliceO2/Detectors/MUON/MID/Tracking/src Pages: 1 -->
<svg width="106pt" height="223pt"
 viewBox="0.00 0.00 106.00 223.00" xmlns="http://www.w3.org/2000/svg" xmlns:xlink="http://www.w3.org/1999/xlink">
<g id="graph0" class="graph" transform="scale(1 1) rotate(0) translate(4 219)">
<title>/home/travis/build/AliceO2Group/AliceO2/Detectors/MUON/MID/Tracking/src</title>
<g id="clust1" class="cluster"><title>clusterdir_c6781640d5720511e35c6e7f87460ee7</title>
<g id="a_clust1"><a xlink:href="dir_c6781640d5720511e35c6e7f87460ee7.html" target="_top" xlink:title="Tracking">
<polygon fill="#ddddee" stroke="black" points="8,-136 8,-207 78,-207 78,-136 8,-136"/>
<text text-anchor="middle" x="43" y="-195" font-family="Helvetica,sans-Serif" font-size="10.00">Tracking</text>
</a>
</g>
</g>
<!-- dir_ade668871a579e1e483b7ab12ac7b461 -->
<g id="node1" class="node"><title>dir_ade668871a579e1e483b7ab12ac7b461</title>
<g id="a_node1"><a xlink:href="dir_ade668871a579e1e483b7ab12ac7b461.html" target="_top" xlink:title="src">
<polygon fill="#eeeeff" stroke="black" points="70,-180 16,-180 16,-144 70,-144 70,-180"/>
<text text-anchor="middle" x="43" y="-159.5" font-family="Helvetica,sans-Serif" font-size="10.00">src</text>
</a>
</g>
</g>
<!-- dir_b5547b1068d53f0f904ee5a2a84992af -->
<g id="node2" class="node"><title>dir_b5547b1068d53f0f904ee5a2a84992af</title>
<g id="a_node2"><a xlink:href="dir_b5547b1068d53f0f904ee5a2a84992af.html" target="_top" xlink:title="Base">
<polygon fill="none" stroke="red" points="70,-36 16,-36 16,-0 70,-0 70,-36"/>
<text text-anchor="middle" x="43" y="-15.5" font-family="Helvetica,sans-Serif" font-size="10.00">Base</text>
</a>
</g>
</g>
<!-- dir_ade668871a579e1e483b7ab12ac7b461&#45;&gt;dir_b5547b1068d53f0f904ee5a2a84992af -->
<g id="edge1" class="edge"><title>dir_ade668871a579e1e483b7ab12ac7b461&#45;&gt;dir_b5547b1068d53f0f904ee5a2a84992af</title>
<path fill="none" stroke="black" d="M39.7517,-143.888C37.9542,-133.542 35.9053,-120.063 35,-108 33.8026,-92.0449 33.8026,-87.9551 35,-72 35.6366,-63.5179 36.8384,-54.3361 38.1208,-46.0356"/>
<polygon fill="black" stroke="black" points="41.5836,-46.5472 39.7517,-36.1119 34.6763,-45.412 41.5836,-46.5472"/>
<g id="a_edge1&#45;headlabel"><a xlink:href="dir_000314_000127.html" target="_top" xlink:title="1">
<text text-anchor="middle" x="43.8024" y="-48.0546" font-family="Helvetica,sans-Serif" font-size="10.00">1</text>
</a>
</g>
</g>
<!-- dir_18cf3fa9b8986f52d2a3bcd7e098843d -->
<g id="node3" class="node"><title>dir_18cf3fa9b8986f52d2a3bcd7e098843d</title>
<g id="a_node3"><a xlink:href="dir_18cf3fa9b8986f52d2a3bcd7e098843d.html" target="_top" xlink:title="include">
<polygon fill="none" stroke="red" points="98,-108 44,-108 44,-72 98,-72 98,-108"/>
<text text-anchor="middle" x="71" y="-87.5" font-family="Helvetica,sans-Serif" font-size="10.00">include</text>
</a>
</g>
</g>
<!-- dir_ade668871a579e1e483b7ab12ac7b461&#45;&gt;dir_18cf3fa9b8986f52d2a3bcd7e098843d -->
<g id="edge2" class="edge"><title>dir_ade668871a579e1e483b7ab12ac7b461&#45;&gt;dir_18cf3fa9b8986f52d2a3bcd7e098843d</title>
<path fill="none" stroke="black" d="M49.9214,-143.697C53.0747,-135.813 56.8783,-126.304 60.3814,-117.546"/>
<polygon fill="black" stroke="black" points="63.694,-118.689 64.1583,-108.104 57.1946,-116.089 63.694,-118.689"/>
<g id="a_edge2&#45;headlabel"><a xlink:href="dir_000314_000312.html" target="_top" xlink:title="1">
<text text-anchor="middle" x="64.9952" y="-120.581" font-family="Helvetica,sans-Serif" font-size="10.00">1</text>
</a>
</g>
</g>
<!-- dir_18cf3fa9b8986f52d2a3bcd7e098843d&#45;&gt;dir_b5547b1068d53f0f904ee5a2a84992af -->
<g id="edge3" class="edge"><title>dir_18cf3fa9b8986f52d2a3bcd7e098843d&#45;&gt;dir_b5547b1068d53f0f904ee5a2a84992af</title>
<path fill="none" stroke="black" d="M64.0786,-71.6966C60.9253,-63.8132 57.1217,-54.3042 53.6186,-45.5464"/>
<polygon fill="black" stroke="black" points="56.8054,-44.0892 49.8417,-36.1043 50.306,-46.689 56.8054,-44.0892"/>
<g id="a_edge3&#45;headlabel"><a xlink:href="dir_000312_000127.html" target="_top" xlink:title="1">
<text text-anchor="middle" x="60.7765" y="-43.8723" font-family="Helvetica,sans-Serif" font-size="10.00">1</text>
</a>
</g>
</g>
</g>
</svg>
