<?xml version="1.0" encoding="UTF-8" standalone="no"?>
<!DOCTYPE svg PUBLIC "-//W3C//DTD SVG 1.1//EN"
 "http://www.w3.org/Graphics/SVG/1.1/DTD/svg11.dtd">
<!-- Generated by graphviz version 2.36.0 (20140111.2315)
 -->
<!-- Title: /home/travis/build/AliceO2Group/AliceO2/EventVisualisation/View Pages: 1 -->
<svg width="241pt" height="231pt"
 viewBox="0.00 0.00 241.00 231.00" xmlns="http://www.w3.org/2000/svg" xmlns:xlink="http://www.w3.org/1999/xlink">
<g id="graph0" class="graph" transform="scale(1 1) rotate(0) translate(4 227)">
<title>/home/travis/build/AliceO2Group/AliceO2/EventVisualisation/View</title>
<g id="clust1" class="cluster"><title>clusterdir_cec808b9cc531f1b0b82d26124335093</title>
<g id="a_clust1"><a xlink:href="dir_cec808b9cc531f1b0b82d26124335093.html" target="_top" xlink:title="EventVisualisation">
<polygon fill="#ddddee" stroke="black" points="8,-56 8,-215 166,-215 166,-56 8,-56"/>
<text text-anchor="middle" x="87" y="-203" font-family="Helvetica,sans-Serif" font-size="10.00">EventVisualisation</text>
</a>
</g>
</g>
<g id="clust2" class="cluster"><title>clusterdir_a37a8fd5762406d546164f859941d1f3</title>
<g id="a_clust2"><a xlink:href="dir_a37a8fd5762406d546164f859941d1f3.html" target="_top">
<polygon fill="#eeeeff" stroke="black" points="16,-64 16,-188 158,-188 158,-64 16,-64"/>
</a>
</g>
</g>
<!-- dir_a37a8fd5762406d546164f859941d1f3 -->
<g id="node1" class="node"><title>dir_a37a8fd5762406d546164f859941d1f3</title>
<text text-anchor="middle" x="123" y="-159.5" font-family="Helvetica,sans-Serif" font-size="10.00">View</text>
</g>
<!-- dir_ecb4103f915c7a04dd46c195301b3d6c -->
<g id="node2" class="node"><title>dir_ecb4103f915c7a04dd46c195301b3d6c</title>
<g id="a_node2"><a xlink:href="dir_ecb4103f915c7a04dd46c195301b3d6c.html" target="_top" xlink:title="include">
<polygon fill="white" stroke="red" points="78,-108 24,-108 24,-72 78,-72 78,-108"/>
<text text-anchor="middle" x="51" y="-87.5" font-family="Helvetica,sans-Serif" font-size="10.00">include</text>
</a>
</g>
</g>
<!-- dir_aefce7a2bfca35990ebbcc105bbcfa2a -->
<g id="node4" class="node"><title>dir_aefce7a2bfca35990ebbcc105bbcfa2a</title>
<g id="a_node4"><a xlink:href="dir_aefce7a2bfca35990ebbcc105bbcfa2a.html" target="_top" xlink:title="Base">
<polygon fill="none" stroke="red" points="133,-36 79,-36 79,-0 133,-0 133,-36"/>
<text text-anchor="middle" x="106" y="-15.5" font-family="Helvetica,sans-Serif" font-size="10.00">Base</text>
</a>
</g>
</g>
<!-- dir_ecb4103f915c7a04dd46c195301b3d6c&#45;&gt;dir_aefce7a2bfca35990ebbcc105bbcfa2a -->
<g id="edge4" class="edge"><title>dir_ecb4103f915c7a04dd46c195301b3d6c&#45;&gt;dir_aefce7a2bfca35990ebbcc105bbcfa2a</title>
<path fill="none" stroke="black" d="M64.5955,-71.6966C71.1227,-63.3893 79.068,-53.2771 86.2466,-44.1407"/>
<polygon fill="black" stroke="black" points="89.1347,-46.1299 92.5609,-36.1043 83.6305,-41.8051 89.1347,-46.1299"/>
<g id="a_edge4&#45;headlabel"><a xlink:href="dir_000399_000112.html" target="_top" xlink:title="1">
<text text-anchor="middle" x="89.1465" y="-48.2106" font-family="Helvetica,sans-Serif" font-size="10.00">1</text>
</a>
</g>
</g>
<!-- dir_d15136afd0394abc4686330b0ff717dc -->
<g id="node3" class="node"><title>dir_d15136afd0394abc4686330b0ff717dc</title>
<g id="a_node3"><a xlink:href="dir_d15136afd0394abc4686330b0ff717dc.html" target="_top" xlink:title="src">
<polygon fill="white" stroke="black" points="78,-180 24,-180 24,-144 78,-144 78,-180"/>
<text text-anchor="middle" x="51" y="-159.5" font-family="Helvetica,sans-Serif" font-size="10.00">src</text>
</a>
</g>
</g>
<!-- dir_d15136afd0394abc4686330b0ff717dc&#45;&gt;dir_ecb4103f915c7a04dd46c195301b3d6c -->
<g id="edge2" class="edge"><title>dir_d15136afd0394abc4686330b0ff717dc&#45;&gt;dir_ecb4103f915c7a04dd46c195301b3d6c</title>
<path fill="none" stroke="black" d="M51,-143.697C51,-135.983 51,-126.712 51,-118.112"/>
<polygon fill="black" stroke="black" points="54.5001,-118.104 51,-108.104 47.5001,-118.104 54.5001,-118.104"/>
<g id="a_edge2&#45;headlabel"><a xlink:href="dir_000401_000399.html" target="_top" xlink:title="4">
<text text-anchor="middle" x="57.3393" y="-119.199" font-family="Helvetica,sans-Serif" font-size="10.00">4</text>
</a>
</g>
</g>
<!-- dir_d15136afd0394abc4686330b0ff717dc&#45;&gt;dir_aefce7a2bfca35990ebbcc105bbcfa2a -->
<g id="edge1" class="edge"><title>dir_d15136afd0394abc4686330b0ff717dc&#45;&gt;dir_aefce7a2bfca35990ebbcc105bbcfa2a</title>
<path fill="none" stroke="black" d="M65.1647,-143.851C72.6902,-133.93 81.4971,-120.89 87,-108 95.4132,-88.2932 100.245,-64.4881 102.928,-46.4579"/>
<polygon fill="black" stroke="black" points="106.427,-46.7052 104.303,-36.3255 99.4903,-45.7643 106.427,-46.7052"/>
<g id="a_edge1&#45;headlabel"><a xlink:href="dir_000401_000112.html" target="_top" xlink:title="8">
<text text-anchor="middle" x="108.757" y="-48.1489" font-family="Helvetica,sans-Serif" font-size="10.00">8</text>
</a>
</g>
</g>
<!-- dir_35dee3f7e1c059d30757a3713756b5fa -->
<g id="node5" class="node"><title>dir_35dee3f7e1c059d30757a3713756b5fa</title>
<g id="a_node5"><a xlink:href="dir_35dee3f7e1c059d30757a3713756b5fa.html" target="_top" xlink:title="Detectors">
<polygon fill="none" stroke="red" points="233.25,-108 174.75,-108 174.75,-72 233.25,-72 233.25,-108"/>
<text text-anchor="middle" x="204" y="-87.5" font-family="Helvetica,sans-Serif" font-size="10.00">Detectors</text>
</a>
</g>
</g>
<!-- dir_d15136afd0394abc4686330b0ff717dc&#45;&gt;dir_35dee3f7e1c059d30757a3713756b5fa -->
<g id="edge3" class="edge"><title>dir_d15136afd0394abc4686330b0ff717dc&#45;&gt;dir_35dee3f7e1c059d30757a3713756b5fa</title>
<path fill="none" stroke="black" d="M78.1053,-148.144C81.1034,-146.739 84.1143,-145.335 87,-144 113.032,-131.958 142.442,-118.637 165.263,-108.363"/>
<polygon fill="black" stroke="black" points="166.926,-111.452 174.611,-104.158 164.055,-105.068 166.926,-111.452"/>
<g id="a_edge3&#45;headlabel"><a xlink:href="dir_000401_000394.html" target="_top" xlink:title="1">
<text text-anchor="middle" x="164.812" y="-113.016" font-family="Helvetica,sans-Serif" font-size="10.00">1</text>
</a>
</g>
</g>
<!-- dir_35dee3f7e1c059d30757a3713756b5fa&#45;&gt;dir_aefce7a2bfca35990ebbcc105bbcfa2a -->
<g id="edge5" class="edge"><title>dir_35dee3f7e1c059d30757a3713756b5fa&#45;&gt;dir_aefce7a2bfca35990ebbcc105bbcfa2a</title>
<path fill="none" stroke="black" d="M182.893,-71.8676C176.289,-66.6568 168.919,-60.9911 162,-56 155.422,-51.2546 148.28,-46.3542 141.369,-41.734"/>
<polygon fill="black" stroke="black" points="143.068,-38.6616 132.796,-36.0643 139.206,-44.5001 143.068,-38.6616"/>
<g id="a_edge5&#45;headlabel"><a xlink:href="dir_000394_000112.html" target="_top" xlink:title="5">
<text text-anchor="middle" x="147.632" y="-35.7763" font-family="Helvetica,sans-Serif" font-size="10.00">5</text>
</a>
</g>
</g>
</g>
</svg>
