<?xml version="1.0" encoding="UTF-8" standalone="no"?>
<!DOCTYPE svg PUBLIC "-//W3C//DTD SVG 1.1//EN"
 "http://www.w3.org/Graphics/SVG/1.1/DTD/svg11.dtd">
<!-- Generated by graphviz version 2.36.0 (20140111.2315)
 -->
<!-- Title: /home/travis/build/AliceO2Group/AliceO2/Detectors/HMPID/simulation/src Pages: 1 -->
<svg width="190pt" height="295pt"
 viewBox="0.00 0.00 189.88 295.00" xmlns="http://www.w3.org/2000/svg" xmlns:xlink="http://www.w3.org/1999/xlink">
<g id="graph0" class="graph" transform="scale(1 1) rotate(0) translate(4 291)">
<title>/home/travis/build/AliceO2Group/AliceO2/Detectors/HMPID/simulation/src</title>
<g id="clust1" class="cluster"><title>clusterdir_500f0d71cadd529ffa10e3c2241cfe90</title>
<g id="a_clust1"><a xlink:href="dir_500f0d71cadd529ffa10e3c2241cfe90.html" target="_top" xlink:title="simulation">
<polygon fill="#ddddee" stroke="black" points="74,-208 74,-279 144,-279 144,-208 74,-208"/>
<text text-anchor="middle" x="109" y="-267" font-family="Helvetica,sans-Serif" font-size="10.00">simulation</text>
</a>
</g>
</g>
<!-- dir_7dc08bbd5ba5ea4e51ff8bc5a113392a -->
<g id="node1" class="node"><title>dir_7dc08bbd5ba5ea4e51ff8bc5a113392a</title>
<g id="a_node1"><a xlink:href="dir_7dc08bbd5ba5ea4e51ff8bc5a113392a.html" target="_top" xlink:title="src">
<polygon fill="#eeeeff" stroke="black" points="136,-252 82,-252 82,-216 136,-216 136,-252"/>
<text text-anchor="middle" x="109" y="-231.5" font-family="Helvetica,sans-Serif" font-size="10.00">src</text>
</a>
</g>
</g>
<!-- dir_94519519beeff5880967868b09df99b1 -->
<g id="node2" class="node"><title>dir_94519519beeff5880967868b09df99b1</title>
<g id="a_node2"><a xlink:href="dir_94519519beeff5880967868b09df99b1.html" target="_top" xlink:title="include">
<polygon fill="none" stroke="red" points="109,-180 55,-180 55,-144 109,-144 109,-180"/>
<text text-anchor="middle" x="82" y="-159.5" font-family="Helvetica,sans-Serif" font-size="10.00">include</text>
</a>
</g>
</g>
<!-- dir_7dc08bbd5ba5ea4e51ff8bc5a113392a&#45;&gt;dir_94519519beeff5880967868b09df99b1 -->
<g id="edge5" class="edge"><title>dir_7dc08bbd5ba5ea4e51ff8bc5a113392a&#45;&gt;dir_94519519beeff5880967868b09df99b1</title>
<path fill="none" stroke="black" d="M102.326,-215.697C99.2851,-207.813 95.6173,-198.304 92.2393,-189.546"/>
<polygon fill="black" stroke="black" points="95.4617,-188.175 88.5974,-180.104 88.9307,-190.694 95.4617,-188.175"/>
<g id="a_edge5&#45;headlabel"><a xlink:href="dir_000208_000172.html" target="_top" xlink:title="2">
<text text-anchor="middle" x="99.4043" y="-188.007" font-family="Helvetica,sans-Serif" font-size="10.00">2</text>
</a>
</g>
</g>
<!-- dir_37c90836491b695b472bf98d1be8336b -->
<g id="node3" class="node"><title>dir_37c90836491b695b472bf98d1be8336b</title>
<g id="a_node3"><a xlink:href="dir_37c90836491b695b472bf98d1be8336b.html" target="_top" xlink:title="Base">
<polygon fill="none" stroke="red" points="54,-108 0,-108 0,-72 54,-72 54,-108"/>
<text text-anchor="middle" x="27" y="-87.5" font-family="Helvetica,sans-Serif" font-size="10.00">Base</text>
</a>
</g>
</g>
<!-- dir_7dc08bbd5ba5ea4e51ff8bc5a113392a&#45;&gt;dir_37c90836491b695b472bf98d1be8336b -->
<g id="edge6" class="edge"><title>dir_7dc08bbd5ba5ea4e51ff8bc5a113392a&#45;&gt;dir_37c90836491b695b472bf98d1be8336b</title>
<path fill="none" stroke="black" d="M81.7074,-216.237C68.9862,-207.059 54.7574,-194.581 46,-180 34.7797,-161.318 30.1346,-136.931 28.2366,-118.41"/>
<polygon fill="black" stroke="black" points="31.7109,-117.952 27.4075,-108.271 24.7342,-118.523 31.7109,-117.952"/>
<g id="a_edge6&#45;headlabel"><a xlink:href="dir_000208_000160.html" target="_top" xlink:title="1">
<text text-anchor="middle" x="34.8335" y="-118.804" font-family="Helvetica,sans-Serif" font-size="10.00">1</text>
</a>
</g>
</g>
<!-- dir_939a9b59c9e8f57b8b7a2a3b29b6e0eb -->
<g id="node4" class="node"><title>dir_939a9b59c9e8f57b8b7a2a3b29b6e0eb</title>
<g id="a_node4"><a xlink:href="dir_939a9b59c9e8f57b8b7a2a3b29b6e0eb.html" target="_top" xlink:title="base">
<polygon fill="none" stroke="red" points="164,-108 110,-108 110,-72 164,-72 164,-108"/>
<text text-anchor="middle" x="137" y="-87.5" font-family="Helvetica,sans-Serif" font-size="10.00">base</text>
</a>
</g>
</g>
<!-- dir_7dc08bbd5ba5ea4e51ff8bc5a113392a&#45;&gt;dir_939a9b59c9e8f57b8b7a2a3b29b6e0eb -->
<g id="edge7" class="edge"><title>dir_7dc08bbd5ba5ea4e51ff8bc5a113392a&#45;&gt;dir_939a9b59c9e8f57b8b7a2a3b29b6e0eb</title>
<path fill="none" stroke="black" d="M112.377,-215.871C117.171,-191.564 125.993,-146.819 131.673,-118.013"/>
<polygon fill="black" stroke="black" points="135.11,-118.677 133.611,-108.189 128.242,-117.323 135.11,-118.677"/>
<g id="a_edge7&#45;headlabel"><a xlink:href="dir_000208_000221.html" target="_top" xlink:title="2">
<text text-anchor="middle" x="137.2" y="-120.253" font-family="Helvetica,sans-Serif" font-size="10.00">2</text>
</a>
</g>
</g>
<!-- dir_2171f7ec022c5423887b07c69b2f5b48 -->
<g id="node5" class="node"><title>dir_2171f7ec022c5423887b07c69b2f5b48</title>
<g id="a_node5"><a xlink:href="dir_2171f7ec022c5423887b07c69b2f5b48.html" target="_top" xlink:title="DataFormats">
<polygon fill="none" stroke="red" points="119,-36 45,-36 45,-0 119,-0 119,-36"/>
<text text-anchor="middle" x="82" y="-15.5" font-family="Helvetica,sans-Serif" font-size="10.00">DataFormats</text>
</a>
</g>
</g>
<!-- dir_7dc08bbd5ba5ea4e51ff8bc5a113392a&#45;&gt;dir_2171f7ec022c5423887b07c69b2f5b48 -->
<g id="edge8" class="edge"><title>dir_7dc08bbd5ba5ea4e51ff8bc5a113392a&#45;&gt;dir_2171f7ec022c5423887b07c69b2f5b48</title>
<path fill="none" stroke="black" d="M125.678,-215.816C152.946,-185.553 201.331,-121.286 173,-72 163.237,-55.015 145.703,-42.9631 128.614,-34.6904"/>
<polygon fill="black" stroke="black" points="129.775,-31.3752 119.218,-30.4759 126.91,-37.7621 129.775,-31.3752"/>
<g id="a_edge8&#45;headlabel"><a xlink:href="dir_000208_000055.html" target="_top" xlink:title="2">
<text text-anchor="middle" x="134.217" y="-27.7557" font-family="Helvetica,sans-Serif" font-size="10.00">2</text>
</a>
</g>
</g>
<!-- dir_94519519beeff5880967868b09df99b1&#45;&gt;dir_37c90836491b695b472bf98d1be8336b -->
<g id="edge1" class="edge"><title>dir_94519519beeff5880967868b09df99b1&#45;&gt;dir_37c90836491b695b472bf98d1be8336b</title>
<path fill="none" stroke="black" d="M68.4045,-143.697C61.8773,-135.389 53.932,-125.277 46.7534,-116.141"/>
<polygon fill="black" stroke="black" points="49.3695,-113.805 40.4391,-108.104 43.8653,-118.13 49.3695,-113.805"/>
<g id="a_edge1&#45;headlabel"><a xlink:href="dir_000172_000160.html" target="_top" xlink:title="1">
<text text-anchor="middle" x="53.8229" y="-112.377" font-family="Helvetica,sans-Serif" font-size="10.00">1</text>
</a>
</g>
</g>
<!-- dir_94519519beeff5880967868b09df99b1&#45;&gt;dir_939a9b59c9e8f57b8b7a2a3b29b6e0eb -->
<g id="edge2" class="edge"><title>dir_94519519beeff5880967868b09df99b1&#45;&gt;dir_939a9b59c9e8f57b8b7a2a3b29b6e0eb</title>
<path fill="none" stroke="black" d="M95.5955,-143.697C102.123,-135.389 110.068,-125.277 117.247,-116.141"/>
<polygon fill="black" stroke="black" points="120.135,-118.13 123.561,-108.104 114.631,-113.805 120.135,-118.13"/>
<g id="a_edge2&#45;headlabel"><a xlink:href="dir_000172_000221.html" target="_top" xlink:title="2">
<text text-anchor="middle" x="120.147" y="-120.211" font-family="Helvetica,sans-Serif" font-size="10.00">2</text>
</a>
</g>
</g>
<!-- dir_94519519beeff5880967868b09df99b1&#45;&gt;dir_2171f7ec022c5423887b07c69b2f5b48 -->
<g id="edge3" class="edge"><title>dir_94519519beeff5880967868b09df99b1&#45;&gt;dir_2171f7ec022c5423887b07c69b2f5b48</title>
<path fill="none" stroke="black" d="M82,-143.871C82,-119.67 82,-75.2108 82,-46.3932"/>
<polygon fill="black" stroke="black" points="85.5001,-46.1892 82,-36.1893 78.5001,-46.1893 85.5001,-46.1892"/>
<g id="a_edge3&#45;headlabel"><a xlink:href="dir_000172_000055.html" target="_top" xlink:title="2">
<text text-anchor="middle" x="88.3393" y="-47.2839" font-family="Helvetica,sans-Serif" font-size="10.00">2</text>
</a>
</g>
</g>
<!-- dir_37c90836491b695b472bf98d1be8336b&#45;&gt;dir_2171f7ec022c5423887b07c69b2f5b48 -->
<g id="edge4" class="edge"><title>dir_37c90836491b695b472bf98d1be8336b&#45;&gt;dir_2171f7ec022c5423887b07c69b2f5b48</title>
<path fill="none" stroke="black" d="M34.6798,-71.6966C40.4079,-63.3046 48.257,-53.0705 55.9744,-43.8613"/>
<polygon fill="black" stroke="black" points="58.7842,-45.9625 62.6658,-36.1043 53.4838,-41.3902 58.7842,-45.9625"/>
<g id="a_edge4&#45;headlabel"><a xlink:href="dir_000160_000055.html" target="_top" xlink:title="6">
<text text-anchor="middle" x="58.5861" y="-48.0389" font-family="Helvetica,sans-Serif" font-size="10.00">6</text>
</a>
</g>
</g>
<!-- dir_939a9b59c9e8f57b8b7a2a3b29b6e0eb&#45;&gt;dir_2171f7ec022c5423887b07c69b2f5b48 -->
<g id="edge9" class="edge"><title>dir_939a9b59c9e8f57b8b7a2a3b29b6e0eb&#45;&gt;dir_2171f7ec022c5423887b07c69b2f5b48</title>
<path fill="none" stroke="black" d="M123.404,-71.6966C116.877,-63.3893 108.932,-53.2771 101.753,-44.1407"/>
<polygon fill="black" stroke="black" points="104.369,-41.8051 95.4391,-36.1043 98.8653,-46.1299 104.369,-41.8051"/>
<g id="a_edge9&#45;headlabel"><a xlink:href="dir_000221_000055.html" target="_top" xlink:title="2">
<text text-anchor="middle" x="108.823" y="-40.3775" font-family="Helvetica,sans-Serif" font-size="10.00">2</text>
</a>
</g>
</g>
<!-- dir_2171f7ec022c5423887b07c69b2f5b48&#45;&gt;dir_37c90836491b695b472bf98d1be8336b -->
<g id="edge10" class="edge"><title>dir_2171f7ec022c5423887b07c69b2f5b48&#45;&gt;dir_37c90836491b695b472bf98d1be8336b</title>
<path fill="none" stroke="black" d="M74.4559,-36.1043C68.7615,-44.467 60.9284,-54.6945 53.209,-63.9197"/>
<polygon fill="black" stroke="black" points="50.385,-61.8353 46.5112,-71.6966 55.6891,-66.4034 50.385,-61.8353"/>
<g id="a_edge10&#45;headlabel"><a xlink:href="dir_000055_000160.html" target="_top" xlink:title="1">
<text text-anchor="middle" x="50.5793" y="-54.7588" font-family="Helvetica,sans-Serif" font-size="10.00">1</text>
</a>
</g>
</g>
</g>
</svg>
