<?xml version="1.0" encoding="UTF-8" standalone="no"?>
<!DOCTYPE svg PUBLIC "-//W3C//DTD SVG 1.1//EN"
 "http://www.w3.org/Graphics/SVG/1.1/DTD/svg11.dtd">
<!-- Generated by graphviz version 2.36.0 (20140111.2315)
 -->
<!-- Title: /home/travis/build/AliceO2Group/AliceO2/Detectors/ZDC/simulation Pages: 1 -->
<svg width="225pt" height="375pt"
 viewBox="0.00 0.00 225.18 375.00" xmlns="http://www.w3.org/2000/svg" xmlns:xlink="http://www.w3.org/1999/xlink">
<g id="graph0" class="graph" transform="scale(1 1) rotate(0) translate(4 371)">
<title>/home/travis/build/AliceO2Group/AliceO2/Detectors/ZDC/simulation</title>
<g id="clust1" class="cluster"><title>clusterdir_db9e312ee82793cf7e11be39a4401551</title>
<g id="a_clust1"><a xlink:href="dir_db9e312ee82793cf7e11be39a4401551.html" target="_top" xlink:title="ZDC">
<polygon fill="#ddddee" stroke="black" points="43.1787,-200 43.1787,-359 209.179,-359 209.179,-200 43.1787,-200"/>
<text text-anchor="middle" x="126.179" y="-347" font-family="Helvetica,sans-Serif" font-size="10.00">ZDC</text>
</a>
</g>
</g>
<g id="clust2" class="cluster"><title>clusterdir_42e3a2880e2a7a6dc7f4f0567528a1f9</title>
<g id="a_clust2"><a xlink:href="dir_42e3a2880e2a7a6dc7f4f0567528a1f9.html" target="_top">
<polygon fill="#eeeeff" stroke="black" points="51.1787,-208 51.1787,-332 201.179,-332 201.179,-208 51.1787,-208"/>
</a>
</g>
</g>
<!-- dir_42e3a2880e2a7a6dc7f4f0567528a1f9 -->
<g id="node1" class="node"><title>dir_42e3a2880e2a7a6dc7f4f0567528a1f9</title>
<text text-anchor="middle" x="162.179" y="-303.5" font-family="Helvetica,sans-Serif" font-size="10.00">simulation</text>
</g>
<!-- dir_8753232d356b54b3d5b7685c17590977 -->
<g id="node2" class="node"><title>dir_8753232d356b54b3d5b7685c17590977</title>
<g id="a_node2"><a xlink:href="dir_8753232d356b54b3d5b7685c17590977.html" target="_top" xlink:title="include">
<polygon fill="white" stroke="red" points="113.179,-252 59.1787,-252 59.1787,-216 113.179,-216 113.179,-252"/>
<text text-anchor="middle" x="86.1787" y="-231.5" font-family="Helvetica,sans-Serif" font-size="10.00">include</text>
</a>
</g>
</g>
<!-- dir_4ab6b4cc6a7edbff49100e9123df213f -->
<g id="node4" class="node"><title>dir_4ab6b4cc6a7edbff49100e9123df213f</title>
<g id="a_node4"><a xlink:href="dir_4ab6b4cc6a7edbff49100e9123df213f.html" target="_top" xlink:title="Common">
<polygon fill="none" stroke="red" points="150.679,-180 95.6787,-180 95.6787,-144 150.679,-144 150.679,-180"/>
<text text-anchor="middle" x="123.179" y="-159.5" font-family="Helvetica,sans-Serif" font-size="10.00">Common</text>
</a>
</g>
</g>
<!-- dir_8753232d356b54b3d5b7685c17590977&#45;&gt;dir_4ab6b4cc6a7edbff49100e9123df213f -->
<g id="edge1" class="edge"><title>dir_8753232d356b54b3d5b7685c17590977&#45;&gt;dir_4ab6b4cc6a7edbff49100e9123df213f</title>
<path fill="none" stroke="black" d="M95.3248,-215.697C99.5813,-207.644 104.734,-197.894 109.445,-188.982"/>
<polygon fill="black" stroke="black" points="112.559,-190.581 114.138,-180.104 106.37,-187.31 112.559,-190.581"/>
<g id="a_edge1&#45;headlabel"><a xlink:href="dir_000203_000016.html" target="_top" xlink:title="1">
<text text-anchor="middle" x="113.389" y="-192.586" font-family="Helvetica,sans-Serif" font-size="10.00">1</text>
</a>
</g>
</g>
<!-- dir_37c90836491b695b472bf98d1be8336b -->
<g id="node5" class="node"><title>dir_37c90836491b695b472bf98d1be8336b</title>
<g id="a_node5"><a xlink:href="dir_37c90836491b695b472bf98d1be8336b.html" target="_top" xlink:title="Base">
<polygon fill="none" stroke="red" points="85.1787,-36 31.1787,-36 31.1787,-0 85.1787,-0 85.1787,-36"/>
<text text-anchor="middle" x="58.1787" y="-15.5" font-family="Helvetica,sans-Serif" font-size="10.00">Base</text>
</a>
</g>
</g>
<!-- dir_8753232d356b54b3d5b7685c17590977&#45;&gt;dir_37c90836491b695b472bf98d1be8336b -->
<g id="edge2" class="edge"><title>dir_8753232d356b54b3d5b7685c17590977&#45;&gt;dir_37c90836491b695b472bf98d1be8336b</title>
<path fill="none" stroke="black" d="M59.1022,-221.008C42.8505,-212.212 23.5633,-198.561 14.1787,-180 -8.40849,-135.326 19.5273,-77.6277 40.0829,-44.8279"/>
<polygon fill="black" stroke="black" points="43.1297,-46.5623 45.6369,-36.2684 37.2576,-42.7521 43.1297,-46.5623"/>
<g id="a_edge2&#45;headlabel"><a xlink:href="dir_000203_000160.html" target="_top" xlink:title="2">
<text text-anchor="middle" x="43.5549" y="-48.6232" font-family="Helvetica,sans-Serif" font-size="10.00">2</text>
</a>
</g>
</g>
<!-- dir_9a03fde50984971e6d5cd095204aab10 -->
<g id="node6" class="node"><title>dir_9a03fde50984971e6d5cd095204aab10</title>
<g id="a_node6"><a xlink:href="dir_9a03fde50984971e6d5cd095204aab10.html" target="_top" xlink:title="base">
<polygon fill="none" stroke="red" points="77.1787,-180 23.1787,-180 23.1787,-144 77.1787,-144 77.1787,-180"/>
<text text-anchor="middle" x="50.1787" y="-159.5" font-family="Helvetica,sans-Serif" font-size="10.00">base</text>
</a>
</g>
</g>
<!-- dir_8753232d356b54b3d5b7685c17590977&#45;&gt;dir_9a03fde50984971e6d5cd095204aab10 -->
<g id="edge3" class="edge"><title>dir_8753232d356b54b3d5b7685c17590977&#45;&gt;dir_9a03fde50984971e6d5cd095204aab10</title>
<path fill="none" stroke="black" d="M77.2798,-215.697C73.1819,-207.728 68.2299,-198.1 63.686,-189.264"/>
<polygon fill="black" stroke="black" points="66.6612,-187.396 58.9752,-180.104 60.4362,-190.598 66.6612,-187.396"/>
<g id="a_edge3&#45;headlabel"><a xlink:href="dir_000203_000240.html" target="_top" xlink:title="1">
<text text-anchor="middle" x="70.8301" y="-186.795" font-family="Helvetica,sans-Serif" font-size="10.00">1</text>
</a>
</g>
</g>
<!-- dir_2171f7ec022c5423887b07c69b2f5b48 -->
<g id="node7" class="node"><title>dir_2171f7ec022c5423887b07c69b2f5b48</title>
<g id="a_node7"><a xlink:href="dir_2171f7ec022c5423887b07c69b2f5b48.html" target="_top" xlink:title="DataFormats">
<polygon fill="none" stroke="red" points="160.179,-108 86.1787,-108 86.1787,-72 160.179,-72 160.179,-108"/>
<text text-anchor="middle" x="123.179" y="-87.5" font-family="Helvetica,sans-Serif" font-size="10.00">DataFormats</text>
</a>
</g>
</g>
<!-- dir_8753232d356b54b3d5b7685c17590977&#45;&gt;dir_2171f7ec022c5423887b07c69b2f5b48 -->
<g id="edge4" class="edge"><title>dir_8753232d356b54b3d5b7685c17590977&#45;&gt;dir_2171f7ec022c5423887b07c69b2f5b48</title>
<path fill="none" stroke="black" d="M113.252,-221.296C129.801,-212.546 149.577,-198.837 159.179,-180 169.782,-159.199 158.003,-134.515 145.161,-116.425"/>
<polygon fill="black" stroke="black" points="147.695,-113.974 138.865,-108.12 142.117,-118.203 147.695,-113.974"/>
<g id="a_edge4&#45;headlabel"><a xlink:href="dir_000203_000055.html" target="_top" xlink:title="2">
<text text-anchor="middle" x="152.129" y="-112.623" font-family="Helvetica,sans-Serif" font-size="10.00">2</text>
</a>
</g>
</g>
<!-- dir_191ec3c3fa67efcf13c1b6bfa78daccb -->
<g id="node3" class="node"><title>dir_191ec3c3fa67efcf13c1b6bfa78daccb</title>
<g id="a_node3"><a xlink:href="dir_191ec3c3fa67efcf13c1b6bfa78daccb.html" target="_top" xlink:title="src">
<polygon fill="white" stroke="black" points="113.179,-324 59.1787,-324 59.1787,-288 113.179,-288 113.179,-324"/>
<text text-anchor="middle" x="86.1787" y="-303.5" font-family="Helvetica,sans-Serif" font-size="10.00">src</text>
</a>
</g>
</g>
<!-- dir_191ec3c3fa67efcf13c1b6bfa78daccb&#45;&gt;dir_8753232d356b54b3d5b7685c17590977 -->
<g id="edge8" class="edge"><title>dir_191ec3c3fa67efcf13c1b6bfa78daccb&#45;&gt;dir_8753232d356b54b3d5b7685c17590977</title>
<path fill="none" stroke="black" d="M86.1787,-287.697C86.1787,-279.983 86.1787,-270.712 86.1787,-262.112"/>
<polygon fill="black" stroke="black" points="89.6788,-262.104 86.1787,-252.104 82.6788,-262.104 89.6788,-262.104"/>
<g id="a_edge8&#45;headlabel"><a xlink:href="dir_000217_000203.html" target="_top" xlink:title="2">
<text text-anchor="middle" x="92.518" y="-263.199" font-family="Helvetica,sans-Serif" font-size="10.00">2</text>
</a>
</g>
</g>
<!-- dir_191ec3c3fa67efcf13c1b6bfa78daccb&#45;&gt;dir_37c90836491b695b472bf98d1be8336b -->
<g id="edge9" class="edge"><title>dir_191ec3c3fa67efcf13c1b6bfa78daccb&#45;&gt;dir_37c90836491b695b472bf98d1be8336b</title>
<path fill="none" stroke="black" d="M69.5482,-287.753C49.0394,-265.157 15.2865,-223.292 2.17869,-180 -4.08935,-159.298 4.92789,-79.2851 8.17869,-72 12.9541,-61.2983 20.821,-51.4013 28.9166,-43.1282"/>
<polygon fill="black" stroke="black" points="31.5419,-45.4598 36.3335,-36.0104 26.695,-40.4092 31.5419,-45.4598"/>
<g id="a_edge9&#45;headlabel"><a xlink:href="dir_000217_000160.html" target="_top" xlink:title="1">
<text text-anchor="middle" x="30.9143" y="-47.4972" font-family="Helvetica,sans-Serif" font-size="10.00">1</text>
</a>
</g>
</g>
<!-- dir_191ec3c3fa67efcf13c1b6bfa78daccb&#45;&gt;dir_2171f7ec022c5423887b07c69b2f5b48 -->
<g id="edge10" class="edge"><title>dir_191ec3c3fa67efcf13c1b6bfa78daccb&#45;&gt;dir_2171f7ec022c5423887b07c69b2f5b48</title>
<path fill="none" stroke="black" d="M103.947,-287.986C125.869,-265.635 161.977,-224.029 176.179,-180 181.09,-164.773 182.302,-158.782 176.179,-144 171.634,-133.028 163.593,-123.143 155.127,-114.964"/>
<polygon fill="black" stroke="black" points="157.427,-112.326 147.655,-108.232 152.742,-117.526 157.427,-112.326"/>
<g id="a_edge10&#45;headlabel"><a xlink:href="dir_000217_000055.html" target="_top" xlink:title="1">
<text text-anchor="middle" x="161.998" y="-110.122" font-family="Helvetica,sans-Serif" font-size="10.00">1</text>
</a>
</g>
</g>
<!-- dir_4ab6b4cc6a7edbff49100e9123df213f&#45;&gt;dir_2171f7ec022c5423887b07c69b2f5b48 -->
<g id="edge5" class="edge"><title>dir_4ab6b4cc6a7edbff49100e9123df213f&#45;&gt;dir_2171f7ec022c5423887b07c69b2f5b48</title>
<path fill="none" stroke="black" d="M117.263,-143.697C116.467,-135.983 116.241,-126.712 116.583,-118.112"/>
<polygon fill="black" stroke="black" points="120.077,-118.324 117.284,-108.104 113.094,-117.836 120.077,-118.324"/>
<g id="a_edge5&#45;headlabel"><a xlink:href="dir_000016_000055.html" target="_top" xlink:title="3">
<text text-anchor="middle" x="122.659" y="-119.608" font-family="Helvetica,sans-Serif" font-size="10.00">3</text>
</a>
</g>
</g>
<!-- dir_37c90836491b695b472bf98d1be8336b&#45;&gt;dir_4ab6b4cc6a7edbff49100e9123df213f -->
<g id="edge6" class="edge"><title>dir_37c90836491b695b472bf98d1be8336b&#45;&gt;dir_4ab6b4cc6a7edbff49100e9123df213f</title>
<path fill="none" stroke="black" d="M59.2965,-36.2372C61.0703,-54.8078 65.6159,-84.8117 77.1787,-108 82.2053,-118.08 89.6009,-127.793 96.9987,-136.087"/>
<polygon fill="black" stroke="black" points="94.6222,-138.67 104.015,-143.572 99.7291,-133.883 94.6222,-138.67"/>
<g id="a_edge6&#45;headlabel"><a xlink:href="dir_000160_000016.html" target="_top" xlink:title="9">
<text text-anchor="middle" x="90.0924" y="-135.489" font-family="Helvetica,sans-Serif" font-size="10.00">9</text>
</a>
</g>
</g>
<!-- dir_37c90836491b695b472bf98d1be8336b&#45;&gt;dir_2171f7ec022c5423887b07c69b2f5b48 -->
<g id="edge7" class="edge"><title>dir_37c90836491b695b472bf98d1be8336b&#45;&gt;dir_2171f7ec022c5423887b07c69b2f5b48</title>
<path fill="none" stroke="black" d="M79.9563,-36.1043C88.598,-44.467 98.2976,-54.6945 106.393,-63.9197"/>
<polygon fill="black" stroke="black" points="103.874,-66.3602 113.027,-71.6966 109.2,-61.8172 103.874,-66.3602"/>
<g id="a_edge7&#45;headlabel"><a xlink:href="dir_000160_000055.html" target="_top" xlink:title="6">
<text text-anchor="middle" x="99.3813" y="-62.9681" font-family="Helvetica,sans-Serif" font-size="10.00">6</text>
</a>
</g>
</g>
<!-- dir_2171f7ec022c5423887b07c69b2f5b48&#45;&gt;dir_4ab6b4cc6a7edbff49100e9123df213f -->
<g id="edge11" class="edge"><title>dir_2171f7ec022c5423887b07c69b2f5b48&#45;&gt;dir_4ab6b4cc6a7edbff49100e9123df213f</title>
<path fill="none" stroke="black" d="M129.074,-108.104C129.879,-115.791 130.116,-125.054 129.783,-133.665"/>
<polygon fill="black" stroke="black" points="126.287,-133.48 129.094,-143.697 133.271,-133.96 126.287,-133.48"/>
<g id="a_edge11&#45;headlabel"><a xlink:href="dir_000055_000016.html" target="_top" xlink:title="26">
<text text-anchor="middle" x="123.701" y="-127.2" font-family="Helvetica,sans-Serif" font-size="10.00">26</text>
</a>
</g>
</g>
<!-- dir_2171f7ec022c5423887b07c69b2f5b48&#45;&gt;dir_37c90836491b695b472bf98d1be8336b -->
<g id="edge12" class="edge"><title>dir_2171f7ec022c5423887b07c69b2f5b48&#45;&gt;dir_37c90836491b695b472bf98d1be8336b</title>
<path fill="none" stroke="black" d="M101.196,-71.6966C92.5373,-63.3046 82.8422,-53.0705 74.7725,-43.8613"/>
<polygon fill="black" stroke="black" points="77.3147,-41.4482 68.1663,-36.1043 71.9854,-45.9869 77.3147,-41.4482"/>
<g id="a_edge12&#45;headlabel"><a xlink:href="dir_000055_000160.html" target="_top" xlink:title="1">
<text text-anchor="middle" x="81.8069" y="-39.8439" font-family="Helvetica,sans-Serif" font-size="10.00">1</text>
</a>
</g>
</g>
</g>
</svg>
