<?xml version="1.0" encoding="UTF-8" standalone="no"?>
<!DOCTYPE svg PUBLIC "-//W3C//DTD SVG 1.1//EN"
 "http://www.w3.org/Graphics/SVG/1.1/DTD/svg11.dtd">
<!-- Generated by graphviz version 2.36.0 (20140111.2315)
 -->
<!-- Title: /home/travis/build/AliceO2Group/AliceO2/Detectors/TPC/monitor/macro Pages: 1 -->
<svg width="171pt" height="223pt"
 viewBox="0.00 0.00 171.32 223.00" xmlns="http://www.w3.org/2000/svg" xmlns:xlink="http://www.w3.org/1999/xlink">
<g id="graph0" class="graph" transform="scale(1 1) rotate(0) translate(4 219)">
<title>/home/travis/build/AliceO2Group/AliceO2/Detectors/TPC/monitor/macro</title>
<g id="clust1" class="cluster"><title>clusterdir_c8aedc994017b243e124cedd663b3bbb</title>
<g id="a_clust1"><a xlink:href="dir_c8aedc994017b243e124cedd663b3bbb.html" target="_top" xlink:title="monitor">
<polygon fill="#ddddee" stroke="black" points="17.3166,-136 17.3166,-207 87.3166,-207 87.3166,-136 17.3166,-136"/>
<text text-anchor="middle" x="52.3166" y="-195" font-family="Helvetica,sans-Serif" font-size="10.00">monitor</text>
</a>
</g>
</g>
<!-- dir_ab1441f83870c14eb9a1db7d196c6c0f -->
<g id="node1" class="node"><title>dir_ab1441f83870c14eb9a1db7d196c6c0f</title>
<g id="a_node1"><a xlink:href="dir_ab1441f83870c14eb9a1db7d196c6c0f.html" target="_top" xlink:title="macro">
<polygon fill="#eeeeff" stroke="black" points="79.3166,-180 25.3166,-180 25.3166,-144 79.3166,-144 79.3166,-180"/>
<text text-anchor="middle" x="52.3166" y="-159.5" font-family="Helvetica,sans-Serif" font-size="10.00">macro</text>
</a>
</g>
</g>
<!-- dir_677b030cc750909e4cd27413873678d8 -->
<g id="node2" class="node"><title>dir_677b030cc750909e4cd27413873678d8</title>
<g id="a_node2"><a xlink:href="dir_677b030cc750909e4cd27413873678d8.html" target="_top" xlink:title="base">
<polygon fill="none" stroke="red" points="79.3166,-36 25.3166,-36 25.3166,-0 79.3166,-0 79.3166,-36"/>
<text text-anchor="middle" x="52.3166" y="-15.5" font-family="Helvetica,sans-Serif" font-size="10.00">base</text>
</a>
</g>
</g>
<!-- dir_ab1441f83870c14eb9a1db7d196c6c0f&#45;&gt;dir_677b030cc750909e4cd27413873678d8 -->
<g id="edge1" class="edge"><title>dir_ab1441f83870c14eb9a1db7d196c6c0f&#45;&gt;dir_677b030cc750909e4cd27413873678d8</title>
<path fill="none" stroke="black" d="M30.6067,-143.787C20.5571,-134.414 9.67534,-121.9 4.31663,-108 -1.43888,-93.071 -1.43888,-86.929 4.31663,-72 8.41939,-61.358 15.7597,-51.5282 23.4853,-43.2982"/>
<polygon fill="black" stroke="black" points="25.9865,-45.7469 30.6067,-36.2125 21.0492,-40.7847 25.9865,-45.7469"/>
<g id="a_edge1&#45;headlabel"><a xlink:href="dir_000380_000234.html" target="_top" xlink:title="5">
<text text-anchor="middle" x="25.441" y="-47.795" font-family="Helvetica,sans-Serif" font-size="10.00">5</text>
</a>
</g>
</g>
<!-- dir_a5de047958dd458e809773c6ffaa8478 -->
<g id="node3" class="node"><title>dir_a5de047958dd458e809773c6ffaa8478</title>
<g id="a_node3"><a xlink:href="dir_a5de047958dd458e809773c6ffaa8478.html" target="_top" xlink:title="reconstruction">
<polygon fill="none" stroke="red" points="91.3166,-108 13.3166,-108 13.3166,-72 91.3166,-72 91.3166,-108"/>
<text text-anchor="middle" x="52.3166" y="-87.5" font-family="Helvetica,sans-Serif" font-size="10.00">reconstruction</text>
</a>
</g>
</g>
<!-- dir_ab1441f83870c14eb9a1db7d196c6c0f&#45;&gt;dir_a5de047958dd458e809773c6ffaa8478 -->
<g id="edge2" class="edge"><title>dir_ab1441f83870c14eb9a1db7d196c6c0f&#45;&gt;dir_a5de047958dd458e809773c6ffaa8478</title>
<path fill="none" stroke="black" d="M52.3166,-143.697C52.3166,-135.983 52.3166,-126.712 52.3166,-118.112"/>
<polygon fill="black" stroke="black" points="55.8167,-118.104 52.3166,-108.104 48.8167,-118.104 55.8167,-118.104"/>
<g id="a_edge2&#45;headlabel"><a xlink:href="dir_000380_000287.html" target="_top" xlink:title="2">
<text text-anchor="middle" x="58.6559" y="-119.199" font-family="Helvetica,sans-Serif" font-size="10.00">2</text>
</a>
</g>
</g>
<!-- dir_aa18e31672ad680cbed4898267bc1ea1 -->
<g id="node4" class="node"><title>dir_aa18e31672ad680cbed4898267bc1ea1</title>
<g id="a_node4"><a xlink:href="dir_aa18e31672ad680cbed4898267bc1ea1.html" target="_top" xlink:title="include">
<polygon fill="none" stroke="red" points="163.317,-108 109.317,-108 109.317,-72 163.317,-72 163.317,-108"/>
<text text-anchor="middle" x="136.317" y="-87.5" font-family="Helvetica,sans-Serif" font-size="10.00">include</text>
</a>
</g>
</g>
<!-- dir_ab1441f83870c14eb9a1db7d196c6c0f&#45;&gt;dir_aa18e31672ad680cbed4898267bc1ea1 -->
<g id="edge3" class="edge"><title>dir_ab1441f83870c14eb9a1db7d196c6c0f&#45;&gt;dir_aa18e31672ad680cbed4898267bc1ea1</title>
<path fill="none" stroke="black" d="M73.0807,-143.697C83.558,-134.965 96.428,-124.24 107.816,-114.75"/>
<polygon fill="black" stroke="black" points="110.35,-117.195 115.791,-108.104 105.869,-111.817 110.35,-117.195"/>
<g id="a_edge3&#45;headlabel"><a xlink:href="dir_000380_000378.html" target="_top" xlink:title="1">
<text text-anchor="middle" x="109.406" y="-119.177" font-family="Helvetica,sans-Serif" font-size="10.00">1</text>
</a>
</g>
</g>
<!-- dir_a5de047958dd458e809773c6ffaa8478&#45;&gt;dir_677b030cc750909e4cd27413873678d8 -->
<g id="edge4" class="edge"><title>dir_a5de047958dd458e809773c6ffaa8478&#45;&gt;dir_677b030cc750909e4cd27413873678d8</title>
<path fill="none" stroke="black" d="M52.3166,-71.6966C52.3166,-63.9827 52.3166,-54.7125 52.3166,-46.1124"/>
<polygon fill="black" stroke="black" points="55.8167,-46.1043 52.3166,-36.1043 48.8167,-46.1044 55.8167,-46.1043"/>
<g id="a_edge4&#45;headlabel"><a xlink:href="dir_000287_000234.html" target="_top" xlink:title="53">
<text text-anchor="middle" x="58.6559" y="-47.199" font-family="Helvetica,sans-Serif" font-size="10.00">53</text>
</a>
</g>
</g>
<!-- dir_aa18e31672ad680cbed4898267bc1ea1&#45;&gt;dir_677b030cc750909e4cd27413873678d8 -->
<g id="edge5" class="edge"><title>dir_aa18e31672ad680cbed4898267bc1ea1&#45;&gt;dir_677b030cc750909e4cd27413873678d8</title>
<path fill="none" stroke="black" d="M115.553,-71.6966C105.075,-62.9655 92.2052,-52.2405 80.817,-42.7503"/>
<polygon fill="black" stroke="black" points="82.7647,-39.8174 72.8418,-36.1043 78.2834,-45.195 82.7647,-39.8174"/>
<g id="a_edge5&#45;headlabel"><a xlink:href="dir_000378_000234.html" target="_top" xlink:title="2">
<text text-anchor="middle" x="87.3438" y="-37.4374" font-family="Helvetica,sans-Serif" font-size="10.00">2</text>
</a>
</g>
</g>
</g>
</svg>
