<?xml version="1.0" encoding="UTF-8" standalone="no"?>
<!DOCTYPE svg PUBLIC "-//W3C//DTD SVG 1.1//EN"
 "http://www.w3.org/Graphics/SVG/1.1/DTD/svg11.dtd">
<!-- Generated by graphviz version 2.36.0 (20140111.2315)
 -->
<!-- Title: /home/travis/build/AliceO2Group/AliceO2/Detectors/ITSMFT/ITS/workflow/src Pages: 1 -->
<svg width="468pt" height="511pt"
 viewBox="0.00 0.00 468.00 511.00" xmlns="http://www.w3.org/2000/svg" xmlns:xlink="http://www.w3.org/1999/xlink">
<g id="graph0" class="graph" transform="scale(1 1) rotate(0) translate(4 507)">
<title>/home/travis/build/AliceO2Group/AliceO2/Detectors/ITSMFT/ITS/workflow/src</title>
<g id="clust1" class="cluster"><title>clusterdir_1c10308a10e2a510f98c8482fd126054</title>
<g id="a_clust1"><a xlink:href="dir_1c10308a10e2a510f98c8482fd126054.html" target="_top" xlink:title="workflow">
<polygon fill="#ddddee" stroke="black" points="216,-424 216,-495 286,-495 286,-424 216,-424"/>
<text text-anchor="middle" x="251" y="-483" font-family="Helvetica,sans-Serif" font-size="10.00">workflow</text>
</a>
</g>
</g>
<!-- dir_a305436795e321b46c84ff237f418620 -->
<g id="node1" class="node"><title>dir_a305436795e321b46c84ff237f418620</title>
<g id="a_node1"><a xlink:href="dir_a305436795e321b46c84ff237f418620.html" target="_top" xlink:title="src">
<polygon fill="#eeeeff" stroke="black" points="278,-468 224,-468 224,-432 278,-432 278,-468"/>
<text text-anchor="middle" x="251" y="-447.5" font-family="Helvetica,sans-Serif" font-size="10.00">src</text>
</a>
</g>
</g>
<!-- dir_eedff867f3c4e67d20b227cb6e0f96ab -->
<g id="node2" class="node"><title>dir_eedff867f3c4e67d20b227cb6e0f96ab</title>
<g id="a_node2"><a xlink:href="dir_eedff867f3c4e67d20b227cb6e0f96ab.html" target="_top" xlink:title="base">
<polygon fill="none" stroke="red" points="191,-324 137,-324 137,-288 191,-288 191,-324"/>
<text text-anchor="middle" x="164" y="-303.5" font-family="Helvetica,sans-Serif" font-size="10.00">base</text>
</a>
</g>
</g>
<!-- dir_a305436795e321b46c84ff237f418620&#45;&gt;dir_eedff867f3c4e67d20b227cb6e0f96ab -->
<g id="edge19" class="edge"><title>dir_a305436795e321b46c84ff237f418620&#45;&gt;dir_eedff867f3c4e67d20b227cb6e0f96ab</title>
<path fill="none" stroke="black" d="M236.505,-431.916C228.257,-421.805 218.007,-408.555 210,-396 197.137,-375.832 184.819,-351.646 176.172,-333.581"/>
<polygon fill="black" stroke="black" points="179.197,-331.791 171.766,-324.239 172.866,-334.777 179.197,-331.791"/>
<g id="a_edge19&#45;headlabel"><a xlink:href="dir_000322_000277.html" target="_top" xlink:title="3">
<text text-anchor="middle" x="183.298" y="-331.331" font-family="Helvetica,sans-Serif" font-size="10.00">3</text>
</a>
</g>
</g>
<!-- dir_4ab6b4cc6a7edbff49100e9123df213f -->
<g id="node3" class="node"><title>dir_4ab6b4cc6a7edbff49100e9123df213f</title>
<g id="a_node3"><a xlink:href="dir_4ab6b4cc6a7edbff49100e9123df213f.html" target="_top" xlink:title="Common">
<polygon fill="none" stroke="red" points="243.5,-180 188.5,-180 188.5,-144 243.5,-144 243.5,-180"/>
<text text-anchor="middle" x="216" y="-159.5" font-family="Helvetica,sans-Serif" font-size="10.00">Common</text>
</a>
</g>
</g>
<!-- dir_a305436795e321b46c84ff237f418620&#45;&gt;dir_4ab6b4cc6a7edbff49100e9123df213f -->
<g id="edge20" class="edge"><title>dir_a305436795e321b46c84ff237f418620&#45;&gt;dir_4ab6b4cc6a7edbff49100e9123df213f</title>
<path fill="none" stroke="black" d="M248.256,-431.836C246.637,-421.471 244.599,-407.991 243,-396 233.099,-321.764 223.489,-233.936 218.862,-190.361"/>
<polygon fill="black" stroke="black" points="222.327,-189.848 217.796,-180.271 215.366,-190.584 222.327,-189.848"/>
<g id="a_edge20&#45;headlabel"><a xlink:href="dir_000322_000016.html" target="_top" xlink:title="2">
<text text-anchor="middle" x="225.528" y="-190.624" font-family="Helvetica,sans-Serif" font-size="10.00">2</text>
</a>
</g>
</g>
<!-- dir_37c90836491b695b472bf98d1be8336b -->
<g id="node4" class="node"><title>dir_37c90836491b695b472bf98d1be8336b</title>
<g id="a_node4"><a xlink:href="dir_37c90836491b695b472bf98d1be8336b.html" target="_top" xlink:title="Base">
<polygon fill="none" stroke="red" points="131,-36 77,-36 77,-0 131,-0 131,-36"/>
<text text-anchor="middle" x="104" y="-15.5" font-family="Helvetica,sans-Serif" font-size="10.00">Base</text>
</a>
</g>
</g>
<!-- dir_a305436795e321b46c84ff237f418620&#45;&gt;dir_37c90836491b695b472bf98d1be8336b -->
<g id="edge21" class="edge"><title>dir_a305436795e321b46c84ff237f418620&#45;&gt;dir_37c90836491b695b472bf98d1be8336b</title>
<path fill="none" stroke="black" d="M223.661,-446.388C158.607,-438.519 0,-408.885 0,-307 0,-307 0,-307 0,-161 0,-111.63 41.4223,-68.0181 71.9834,-42.5596"/>
<polygon fill="black" stroke="black" points="74.3015,-45.1863 79.8789,-36.1783 69.9014,-39.7421 74.3015,-45.1863"/>
<g id="a_edge21&#45;headlabel"><a xlink:href="dir_000322_000160.html" target="_top" xlink:title="5">
<text text-anchor="middle" x="73.2906" y="-47.154" font-family="Helvetica,sans-Serif" font-size="10.00">5</text>
</a>
</g>
</g>
<!-- dir_85bf31a2e8d306e7598ffcb73f8df6bf -->
<g id="node5" class="node"><title>dir_85bf31a2e8d306e7598ffcb73f8df6bf</title>
<g id="a_node5"><a xlink:href="dir_85bf31a2e8d306e7598ffcb73f8df6bf.html" target="_top" xlink:title="common">
<polygon fill="none" stroke="red" points="120,-252 66,-252 66,-216 120,-216 120,-252"/>
<text text-anchor="middle" x="93" y="-231.5" font-family="Helvetica,sans-Serif" font-size="10.00">common</text>
</a>
</g>
</g>
<!-- dir_a305436795e321b46c84ff237f418620&#45;&gt;dir_85bf31a2e8d306e7598ffcb73f8df6bf -->
<g id="edge22" class="edge"><title>dir_a305436795e321b46c84ff237f418620&#45;&gt;dir_85bf31a2e8d306e7598ffcb73f8df6bf</title>
<path fill="none" stroke="black" d="M227.745,-431.945C214.883,-422.054 198.934,-409.011 186,-396 157.03,-366.858 148.645,-359.528 128,-324 116.51,-304.228 107.253,-279.968 101.151,-261.774"/>
<polygon fill="black" stroke="black" points="104.428,-260.531 98.0113,-252.1 97.7694,-262.692 104.428,-260.531"/>
<g id="a_edge22&#45;headlabel"><a xlink:href="dir_000322_000224.html" target="_top" xlink:title="4">
<text text-anchor="middle" x="108.238" y="-260.573" font-family="Helvetica,sans-Serif" font-size="10.00">4</text>
</a>
</g>
</g>
<!-- dir_beaad5fa58c175f2fa05fab7e2ac7ba4 -->
<g id="node6" class="node"><title>dir_beaad5fa58c175f2fa05fab7e2ac7ba4</title>
<g id="a_node6"><a xlink:href="dir_beaad5fa58c175f2fa05fab7e2ac7ba4.html" target="_top" xlink:title="tracking">
<polygon fill="none" stroke="red" points="306,-396 252,-396 252,-360 306,-360 306,-396"/>
<text text-anchor="middle" x="279" y="-375.5" font-family="Helvetica,sans-Serif" font-size="10.00">tracking</text>
</a>
</g>
</g>
<!-- dir_a305436795e321b46c84ff237f418620&#45;&gt;dir_beaad5fa58c175f2fa05fab7e2ac7ba4 -->
<g id="edge23" class="edge"><title>dir_a305436795e321b46c84ff237f418620&#45;&gt;dir_beaad5fa58c175f2fa05fab7e2ac7ba4</title>
<path fill="none" stroke="black" d="M257.921,-431.697C261.075,-423.813 264.878,-414.304 268.381,-405.546"/>
<polygon fill="black" stroke="black" points="271.694,-406.689 272.158,-396.104 265.195,-404.089 271.694,-406.689"/>
<g id="a_edge23&#45;headlabel"><a xlink:href="dir_000322_000032.html" target="_top" xlink:title="4">
<text text-anchor="middle" x="272.995" y="-408.581" font-family="Helvetica,sans-Serif" font-size="10.00">4</text>
</a>
</g>
</g>
<!-- dir_618fe6153adfd0aa136e98ba4badcb47 -->
<g id="node7" class="node"><title>dir_618fe6153adfd0aa136e98ba4badcb47</title>
<g id="a_node7"><a xlink:href="dir_618fe6153adfd0aa136e98ba4badcb47.html" target="_top" xlink:title="include">
<polygon fill="none" stroke="red" points="382,-324 328,-324 328,-288 382,-288 382,-324"/>
<text text-anchor="middle" x="355" y="-303.5" font-family="Helvetica,sans-Serif" font-size="10.00">include</text>
</a>
</g>
</g>
<!-- dir_a305436795e321b46c84ff237f418620&#45;&gt;dir_618fe6153adfd0aa136e98ba4badcb47 -->
<g id="edge24" class="edge"><title>dir_a305436795e321b46c84ff237f418620&#45;&gt;dir_618fe6153adfd0aa136e98ba4badcb47</title>
<path fill="none" stroke="black" d="M276.8,-431.915C289.549,-422.488 304.425,-409.888 315,-396 329.287,-377.236 339.865,-352.559 346.542,-333.95"/>
<polygon fill="black" stroke="black" points="349.914,-334.907 349.849,-324.312 343.293,-332.635 349.914,-334.907"/>
<g id="a_edge24&#45;headlabel"><a xlink:href="dir_000322_000316.html" target="_top" xlink:title="14">
<text text-anchor="middle" x="351.433" y="-336.729" font-family="Helvetica,sans-Serif" font-size="10.00">14</text>
</a>
</g>
</g>
<!-- dir_bcbb2cf9a3d3d83e5515c82071a07177 -->
<g id="node8" class="node"><title>dir_bcbb2cf9a3d3d83e5515c82071a07177</title>
<g id="a_node8"><a xlink:href="dir_bcbb2cf9a3d3d83e5515c82071a07177.html" target="_top" xlink:title="Framework">
<polygon fill="none" stroke="red" points="431.25,-252 366.75,-252 366.75,-216 431.25,-216 431.25,-252"/>
<text text-anchor="middle" x="399" y="-231.5" font-family="Helvetica,sans-Serif" font-size="10.00">Framework</text>
</a>
</g>
</g>
<!-- dir_a305436795e321b46c84ff237f418620&#45;&gt;dir_bcbb2cf9a3d3d83e5515c82071a07177 -->
<g id="edge25" class="edge"><title>dir_a305436795e321b46c84ff237f418620&#45;&gt;dir_bcbb2cf9a3d3d83e5515c82071a07177</title>
<path fill="none" stroke="black" d="M278.272,-436.537C296.978,-427.13 321.638,-412.962 340,-396 368.805,-369.391 377.444,-360.797 391,-324 398.273,-304.257 400.085,-280.454 400.181,-262.434"/>
<polygon fill="black" stroke="black" points="403.68,-262.266 400.061,-252.308 396.68,-262.349 403.68,-262.266"/>
<g id="a_edge25&#45;headlabel"><a xlink:href="dir_000322_000036.html" target="_top" xlink:title="8">
<text text-anchor="middle" x="406.562" y="-263.326" font-family="Helvetica,sans-Serif" font-size="10.00">8</text>
</a>
</g>
</g>
<!-- dir_2171f7ec022c5423887b07c69b2f5b48 -->
<g id="node9" class="node"><title>dir_2171f7ec022c5423887b07c69b2f5b48</title>
<g id="a_node9"><a xlink:href="dir_2171f7ec022c5423887b07c69b2f5b48.html" target="_top" xlink:title="DataFormats">
<polygon fill="none" stroke="red" points="253,-108 179,-108 179,-72 253,-72 253,-108"/>
<text text-anchor="middle" x="216" y="-87.5" font-family="Helvetica,sans-Serif" font-size="10.00">DataFormats</text>
</a>
</g>
</g>
<!-- dir_a305436795e321b46c84ff237f418620&#45;&gt;dir_2171f7ec022c5423887b07c69b2f5b48 -->
<g id="edge26" class="edge"><title>dir_a305436795e321b46c84ff237f418620&#45;&gt;dir_2171f7ec022c5423887b07c69b2f5b48</title>
<path fill="none" stroke="black" d="M278.323,-443.811C334.975,-431.302 460,-393.857 460,-307 460,-307 460,-307 460,-233 460,-142.84 334.013,-108.932 263.1,-96.9873"/>
<polygon fill="black" stroke="black" points="263.486,-93.5046 253.058,-95.3803 262.38,-100.417 263.486,-93.5046"/>
<g id="a_edge26&#45;headlabel"><a xlink:href="dir_000322_000055.html" target="_top" xlink:title="30">
<text text-anchor="middle" x="267.484" y="-88.769" font-family="Helvetica,sans-Serif" font-size="10.00">30</text>
</a>
</g>
</g>
<!-- dir_eedff867f3c4e67d20b227cb6e0f96ab&#45;&gt;dir_4ab6b4cc6a7edbff49100e9123df213f -->
<g id="edge1" class="edge"><title>dir_eedff867f3c4e67d20b227cb6e0f96ab&#45;&gt;dir_4ab6b4cc6a7edbff49100e9123df213f</title>
<path fill="none" stroke="black" d="M170.272,-287.871C179.213,-263.457 195.703,-218.426 206.246,-189.635"/>
<polygon fill="black" stroke="black" points="209.553,-190.783 209.705,-180.189 202.98,-188.376 209.553,-190.783"/>
<g id="a_edge1&#45;headlabel"><a xlink:href="dir_000277_000016.html" target="_top" xlink:title="2">
<text text-anchor="middle" x="210.983" y="-192.635" font-family="Helvetica,sans-Serif" font-size="10.00">2</text>
</a>
</g>
</g>
<!-- dir_eedff867f3c4e67d20b227cb6e0f96ab&#45;&gt;dir_37c90836491b695b472bf98d1be8336b -->
<g id="edge2" class="edge"><title>dir_eedff867f3c4e67d20b227cb6e0f96ab&#45;&gt;dir_37c90836491b695b472bf98d1be8336b</title>
<path fill="none" stroke="black" d="M136.558,-299.881C110.982,-293.496 74.2719,-279.83 57,-252 15.8767,-185.739 61.0807,-90.3338 87.5676,-44.9219"/>
<polygon fill="black" stroke="black" points="90.6108,-46.6524 92.741,-36.2739 84.6037,-43.0588 90.6108,-46.6524"/>
<g id="a_edge2&#45;headlabel"><a xlink:href="dir_000277_000160.html" target="_top" xlink:title="2">
<text text-anchor="middle" x="91.202" y="-48.6948" font-family="Helvetica,sans-Serif" font-size="10.00">2</text>
</a>
</g>
</g>
<!-- dir_eedff867f3c4e67d20b227cb6e0f96ab&#45;&gt;dir_85bf31a2e8d306e7598ffcb73f8df6bf -->
<g id="edge3" class="edge"><title>dir_eedff867f3c4e67d20b227cb6e0f96ab&#45;&gt;dir_85bf31a2e8d306e7598ffcb73f8df6bf</title>
<path fill="none" stroke="black" d="M146.449,-287.697C137.766,-279.135 127.137,-268.656 117.652,-259.304"/>
<polygon fill="black" stroke="black" points="119.927,-256.633 110.349,-252.104 115.012,-261.617 119.927,-256.633"/>
<g id="a_edge3&#45;headlabel"><a xlink:href="dir_000277_000224.html" target="_top" xlink:title="2">
<text text-anchor="middle" x="124.48" y="-254.635" font-family="Helvetica,sans-Serif" font-size="10.00">2</text>
</a>
</g>
</g>
<!-- dir_eedff867f3c4e67d20b227cb6e0f96ab&#45;&gt;dir_2171f7ec022c5423887b07c69b2f5b48 -->
<g id="edge4" class="edge"><title>dir_eedff867f3c4e67d20b227cb6e0f96ab&#45;&gt;dir_2171f7ec022c5423887b07c69b2f5b48</title>
<path fill="none" stroke="black" d="M162.794,-287.926C161.27,-257.832 160.748,-193.819 179,-144 182.553,-134.303 188.333,-124.728 194.28,-116.441"/>
<polygon fill="black" stroke="black" points="197.187,-118.4 200.451,-108.32 191.614,-114.165 197.187,-118.4"/>
<g id="a_edge4&#45;headlabel"><a xlink:href="dir_000277_000055.html" target="_top" xlink:title="1">
<text text-anchor="middle" x="197.273" y="-120.48" font-family="Helvetica,sans-Serif" font-size="10.00">1</text>
</a>
</g>
</g>
<!-- dir_4ab6b4cc6a7edbff49100e9123df213f&#45;&gt;dir_2171f7ec022c5423887b07c69b2f5b48 -->
<g id="edge5" class="edge"><title>dir_4ab6b4cc6a7edbff49100e9123df213f&#45;&gt;dir_2171f7ec022c5423887b07c69b2f5b48</title>
<path fill="none" stroke="black" d="M210.084,-143.697C209.289,-135.983 209.062,-126.712 209.405,-118.112"/>
<polygon fill="black" stroke="black" points="212.898,-118.324 210.105,-108.104 205.915,-117.836 212.898,-118.324"/>
<g id="a_edge5&#45;headlabel"><a xlink:href="dir_000016_000055.html" target="_top" xlink:title="3">
<text text-anchor="middle" x="215.48" y="-119.608" font-family="Helvetica,sans-Serif" font-size="10.00">3</text>
</a>
</g>
</g>
<!-- dir_37c90836491b695b472bf98d1be8336b&#45;&gt;dir_4ab6b4cc6a7edbff49100e9123df213f -->
<g id="edge6" class="edge"><title>dir_37c90836491b695b472bf98d1be8336b&#45;&gt;dir_4ab6b4cc6a7edbff49100e9123df213f</title>
<path fill="none" stroke="black" d="M116.031,-36.0223C128.981,-54.1533 150.371,-83.5491 170,-108 177.475,-117.311 185.968,-127.26 193.604,-135.994"/>
<polygon fill="black" stroke="black" points="191.086,-138.431 200.322,-143.621 196.338,-133.804 191.086,-138.431"/>
<g id="a_edge6&#45;headlabel"><a xlink:href="dir_000160_000016.html" target="_top" xlink:title="9">
<text text-anchor="middle" x="186.579" y="-135.11" font-family="Helvetica,sans-Serif" font-size="10.00">9</text>
</a>
</g>
</g>
<!-- dir_37c90836491b695b472bf98d1be8336b&#45;&gt;dir_2171f7ec022c5423887b07c69b2f5b48 -->
<g id="edge7" class="edge"><title>dir_37c90836491b695b472bf98d1be8336b&#45;&gt;dir_2171f7ec022c5423887b07c69b2f5b48</title>
<path fill="none" stroke="black" d="M131.352,-32.6687C147.939,-42.2166 168.988,-55.1882 186.01,-66.277"/>
<polygon fill="black" stroke="black" points="184.224,-69.2919 194.499,-71.8761 188.078,-63.4484 184.224,-69.2919"/>
<g id="a_edge7&#45;headlabel"><a xlink:href="dir_000160_000055.html" target="_top" xlink:title="6">
<text text-anchor="middle" x="179.66" y="-67.183" font-family="Helvetica,sans-Serif" font-size="10.00">6</text>
</a>
</g>
</g>
<!-- dir_85bf31a2e8d306e7598ffcb73f8df6bf&#45;&gt;dir_4ab6b4cc6a7edbff49100e9123df213f -->
<g id="edge8" class="edge"><title>dir_85bf31a2e8d306e7598ffcb73f8df6bf&#45;&gt;dir_4ab6b4cc6a7edbff49100e9123df213f</title>
<path fill="none" stroke="black" d="M120.298,-217.465C137.772,-207.52 160.648,-194.501 179.652,-183.686"/>
<polygon fill="black" stroke="black" points="181.393,-186.722 188.353,-178.734 177.931,-180.638 181.393,-186.722"/>
<g id="a_edge8&#45;headlabel"><a xlink:href="dir_000224_000016.html" target="_top" xlink:title="7">
<text text-anchor="middle" x="179.674" y="-188.468" font-family="Helvetica,sans-Serif" font-size="10.00">7</text>
</a>
</g>
</g>
<!-- dir_85bf31a2e8d306e7598ffcb73f8df6bf&#45;&gt;dir_37c90836491b695b472bf98d1be8336b -->
<g id="edge9" class="edge"><title>dir_85bf31a2e8d306e7598ffcb73f8df6bf&#45;&gt;dir_37c90836491b695b472bf98d1be8336b</title>
<path fill="none" stroke="black" d="M93.8816,-215.849C95.7844,-178.832 100.29,-91.1809 102.592,-46.3863"/>
<polygon fill="black" stroke="black" points="106.096,-46.399 103.114,-36.2325 99.1054,-46.0396 106.096,-46.399"/>
<g id="a_edge9&#45;headlabel"><a xlink:href="dir_000224_000160.html" target="_top" xlink:title="3">
<text text-anchor="middle" x="108.747" y="-47.6346" font-family="Helvetica,sans-Serif" font-size="10.00">3</text>
</a>
</g>
</g>
<!-- dir_85bf31a2e8d306e7598ffcb73f8df6bf&#45;&gt;dir_2171f7ec022c5423887b07c69b2f5b48 -->
<g id="edge10" class="edge"><title>dir_85bf31a2e8d306e7598ffcb73f8df6bf&#45;&gt;dir_2171f7ec022c5423887b07c69b2f5b48</title>
<path fill="none" stroke="black" d="M98.7393,-215.739C105.737,-196.601 119.026,-165.588 138,-144 148.275,-132.31 161.674,-121.994 174.461,-113.643"/>
<polygon fill="black" stroke="black" points="176.556,-116.46 183.17,-108.182 172.838,-110.529 176.556,-116.46"/>
<g id="a_edge10&#45;headlabel"><a xlink:href="dir_000224_000055.html" target="_top" xlink:title="30">
<text text-anchor="middle" x="175.019" y="-118.275" font-family="Helvetica,sans-Serif" font-size="10.00">30</text>
</a>
</g>
</g>
<!-- dir_beaad5fa58c175f2fa05fab7e2ac7ba4&#45;&gt;dir_eedff867f3c4e67d20b227cb6e0f96ab -->
<g id="edge11" class="edge"><title>dir_beaad5fa58c175f2fa05fab7e2ac7ba4&#45;&gt;dir_eedff867f3c4e67d20b227cb6e0f96ab</title>
<path fill="none" stroke="black" d="M251.747,-360.411C236.279,-350.996 216.729,-339.096 200.011,-328.92"/>
<polygon fill="black" stroke="black" points="201.42,-325.68 191.058,-323.47 197.78,-331.659 201.42,-325.68"/>
<g id="a_edge11&#45;headlabel"><a xlink:href="dir_000032_000277.html" target="_top" xlink:title="1">
<text text-anchor="middle" x="205.966" y="-322.623" font-family="Helvetica,sans-Serif" font-size="10.00">1</text>
</a>
</g>
</g>
<!-- dir_beaad5fa58c175f2fa05fab7e2ac7ba4&#45;&gt;dir_4ab6b4cc6a7edbff49100e9123df213f -->
<g id="edge12" class="edge"><title>dir_beaad5fa58c175f2fa05fab7e2ac7ba4&#45;&gt;dir_4ab6b4cc6a7edbff49100e9123df213f</title>
<path fill="none" stroke="black" d="M275.484,-359.846C269.212,-330.161 255.13,-267.449 238,-216 235.105,-207.304 231.449,-198.013 227.953,-189.678"/>
<polygon fill="black" stroke="black" points="231.142,-188.232 223.979,-180.426 224.71,-190.995 231.142,-188.232"/>
<g id="a_edge12&#45;headlabel"><a xlink:href="dir_000032_000016.html" target="_top" xlink:title="3">
<text text-anchor="middle" x="235.169" y="-187.914" font-family="Helvetica,sans-Serif" font-size="10.00">3</text>
</a>
</g>
</g>
<!-- dir_beaad5fa58c175f2fa05fab7e2ac7ba4&#45;&gt;dir_2171f7ec022c5423887b07c69b2f5b48 -->
<g id="edge13" class="edge"><title>dir_beaad5fa58c175f2fa05fab7e2ac7ba4&#45;&gt;dir_2171f7ec022c5423887b07c69b2f5b48</title>
<path fill="none" stroke="black" d="M280.081,-359.85C281.939,-320.199 282.941,-219.778 252,-144 248.068,-134.37 242.205,-124.703 236.346,-116.311"/>
<polygon fill="black" stroke="black" points="239.054,-114.085 230.323,-108.083 233.405,-118.22 239.054,-114.085"/>
<g id="a_edge13&#45;headlabel"><a xlink:href="dir_000032_000055.html" target="_top" xlink:title="11">
<text text-anchor="middle" x="243.468" y="-112.809" font-family="Helvetica,sans-Serif" font-size="10.00">11</text>
</a>
</g>
</g>
<!-- dir_618fe6153adfd0aa136e98ba4badcb47&#45;&gt;dir_85bf31a2e8d306e7598ffcb73f8df6bf -->
<g id="edge14" class="edge"><title>dir_618fe6153adfd0aa136e98ba4badcb47&#45;&gt;dir_85bf31a2e8d306e7598ffcb73f8df6bf</title>
<path fill="none" stroke="black" d="M327.948,-297.772C280.783,-285.171 183.442,-259.164 130.048,-244.898"/>
<polygon fill="black" stroke="black" points="130.862,-241.493 120.297,-242.293 129.055,-248.256 130.862,-241.493"/>
<g id="a_edge14&#45;headlabel"><a xlink:href="dir_000316_000224.html" target="_top" xlink:title="1">
<text text-anchor="middle" x="135.067" y="-237.178" font-family="Helvetica,sans-Serif" font-size="10.00">1</text>
</a>
</g>
</g>
<!-- dir_618fe6153adfd0aa136e98ba4badcb47&#45;&gt;dir_bcbb2cf9a3d3d83e5515c82071a07177 -->
<g id="edge15" class="edge"><title>dir_618fe6153adfd0aa136e98ba4badcb47&#45;&gt;dir_bcbb2cf9a3d3d83e5515c82071a07177</title>
<path fill="none" stroke="black" d="M365.876,-287.697C370.992,-279.559 377.195,-269.689 382.845,-260.701"/>
<polygon fill="black" stroke="black" points="385.89,-262.433 388.249,-252.104 379.964,-258.708 385.89,-262.433"/>
<g id="a_edge15&#45;headlabel"><a xlink:href="dir_000316_000036.html" target="_top" xlink:title="12">
<text text-anchor="middle" x="386.381" y="-264.488" font-family="Helvetica,sans-Serif" font-size="10.00">12</text>
</a>
</g>
</g>
<!-- dir_618fe6153adfd0aa136e98ba4badcb47&#45;&gt;dir_2171f7ec022c5423887b07c69b2f5b48 -->
<g id="edge16" class="edge"><title>dir_618fe6153adfd0aa136e98ba4badcb47&#45;&gt;dir_2171f7ec022c5423887b07c69b2f5b48</title>
<path fill="none" stroke="black" d="M354.971,-287.785C354.056,-256.042 347.961,-187.561 314,-144 300.876,-127.166 280.855,-114.996 262.324,-106.598"/>
<polygon fill="black" stroke="black" points="263.67,-103.368 253.099,-102.66 260.922,-109.806 263.67,-103.368"/>
<g id="a_edge16&#45;headlabel"><a xlink:href="dir_000316_000055.html" target="_top" xlink:title="1">
<text text-anchor="middle" x="268.09" y="-99.6675" font-family="Helvetica,sans-Serif" font-size="10.00">1</text>
</a>
</g>
</g>
<!-- dir_bcbb2cf9a3d3d83e5515c82071a07177&#45;&gt;dir_4ab6b4cc6a7edbff49100e9123df213f -->
<g id="edge17" class="edge"><title>dir_bcbb2cf9a3d3d83e5515c82071a07177&#45;&gt;dir_4ab6b4cc6a7edbff49100e9123df213f</title>
<path fill="none" stroke="black" d="M366.705,-220.647C334.952,-208.501 286.53,-189.979 253.187,-177.225"/>
<polygon fill="black" stroke="black" points="254.375,-173.932 243.784,-173.628 251.874,-180.47 254.375,-173.932"/>
<g id="a_edge17&#45;headlabel"><a xlink:href="dir_000036_000016.html" target="_top" xlink:title="8">
<text text-anchor="middle" x="258.747" y="-170.064" font-family="Helvetica,sans-Serif" font-size="10.00">8</text>
</a>
</g>
</g>
<!-- dir_bcbb2cf9a3d3d83e5515c82071a07177&#45;&gt;dir_2171f7ec022c5423887b07c69b2f5b48 -->
<g id="edge18" class="edge"><title>dir_bcbb2cf9a3d3d83e5515c82071a07177&#45;&gt;dir_2171f7ec022c5423887b07c69b2f5b48</title>
<path fill="none" stroke="black" d="M394.041,-215.96C387.463,-196.146 374.039,-163.655 352,-144 326.962,-121.671 291.448,-108.262 262.99,-100.519"/>
<polygon fill="black" stroke="black" points="263.804,-97.1148 253.247,-98.0116 262.059,-103.894 263.804,-97.1148"/>
<g id="a_edge18&#45;headlabel"><a xlink:href="dir_000036_000055.html" target="_top" xlink:title="47">
<text text-anchor="middle" x="267.993" y="-92.7611" font-family="Helvetica,sans-Serif" font-size="10.00">47</text>
</a>
</g>
</g>
<!-- dir_2171f7ec022c5423887b07c69b2f5b48&#45;&gt;dir_4ab6b4cc6a7edbff49100e9123df213f -->
<g id="edge27" class="edge"><title>dir_2171f7ec022c5423887b07c69b2f5b48&#45;&gt;dir_4ab6b4cc6a7edbff49100e9123df213f</title>
<path fill="none" stroke="black" d="M221.895,-108.104C222.701,-115.791 222.937,-125.054 222.604,-133.665"/>
<polygon fill="black" stroke="black" points="219.109,-133.48 221.916,-143.697 226.092,-133.96 219.109,-133.48"/>
<g id="a_edge27&#45;headlabel"><a xlink:href="dir_000055_000016.html" target="_top" xlink:title="26">
<text text-anchor="middle" x="216.522" y="-127.2" font-family="Helvetica,sans-Serif" font-size="10.00">26</text>
</a>
</g>
</g>
<!-- dir_2171f7ec022c5423887b07c69b2f5b48&#45;&gt;dir_37c90836491b695b472bf98d1be8336b -->
<g id="edge28" class="edge"><title>dir_2171f7ec022c5423887b07c69b2f5b48&#45;&gt;dir_37c90836491b695b472bf98d1be8336b</title>
<path fill="none" stroke="black" d="M182.705,-71.8761C167.248,-62.8083 149.081,-51.5523 134.046,-41.7592"/>
<polygon fill="black" stroke="black" points="135.875,-38.7728 125.6,-36.1898 132.021,-44.6167 135.875,-38.7728"/>
<g id="a_edge28&#45;headlabel"><a xlink:href="dir_000055_000160.html" target="_top" xlink:title="1">
<text text-anchor="middle" x="140.439" y="-35.8812" font-family="Helvetica,sans-Serif" font-size="10.00">1</text>
</a>
</g>
</g>
</g>
</svg>
