<?xml version="1.0" encoding="UTF-8" standalone="no"?>
<!DOCTYPE svg PUBLIC "-//W3C//DTD SVG 1.1//EN"
 "http://www.w3.org/Graphics/SVG/1.1/DTD/svg11.dtd">
<!-- Generated by graphviz version 2.36.0 (20140111.2315)
 -->
<!-- Title: /home/travis/build/AliceO2Group/AliceO2/Detectors/ITSMFT/ITS/tracking Pages: 1 -->
<svg width="329pt" height="303pt"
 viewBox="0.00 0.00 328.67 303.00" xmlns="http://www.w3.org/2000/svg" xmlns:xlink="http://www.w3.org/1999/xlink">
<g id="graph0" class="graph" transform="scale(1 1) rotate(0) translate(4 299)">
<title>/home/travis/build/AliceO2Group/AliceO2/Detectors/ITSMFT/ITS/tracking</title>
<g id="clust1" class="cluster"><title>clusterdir_871aad07cbf94d6cd423c3d8d5bdf4e9</title>
<g id="a_clust1"><a xlink:href="dir_871aad07cbf94d6cd423c3d8d5bdf4e9.html" target="_top" xlink:title="ITS">
<polygon fill="#ddddee" stroke="black" points="8,-128 8,-287 238,-287 238,-128 8,-128"/>
<text text-anchor="middle" x="123" y="-275" font-family="Helvetica,sans-Serif" font-size="10.00">ITS</text>
</a>
</g>
</g>
<g id="clust2" class="cluster"><title>clusterdir_beaad5fa58c175f2fa05fab7e2ac7ba4</title>
<g id="a_clust2"><a xlink:href="dir_beaad5fa58c175f2fa05fab7e2ac7ba4.html" target="_top">
<polygon fill="#eeeeff" stroke="black" points="16,-136 16,-260 230,-260 230,-136 16,-136"/>
</a>
</g>
</g>
<!-- dir_beaad5fa58c175f2fa05fab7e2ac7ba4 -->
<g id="node1" class="node"><title>dir_beaad5fa58c175f2fa05fab7e2ac7ba4</title>
<text text-anchor="middle" x="195" y="-231.5" font-family="Helvetica,sans-Serif" font-size="10.00">tracking</text>
</g>
<!-- dir_137c8287a1d8b04d8ba0df0480706c08 -->
<g id="node2" class="node"><title>dir_137c8287a1d8b04d8ba0df0480706c08</title>
<g id="a_node2"><a xlink:href="dir_137c8287a1d8b04d8ba0df0480706c08.html" target="_top" xlink:title="cuda">
<polygon fill="white" stroke="red" points="78,-252 24,-252 24,-216 78,-216 78,-252"/>
<text text-anchor="middle" x="51" y="-231.5" font-family="Helvetica,sans-Serif" font-size="10.00">cuda</text>
</a>
</g>
</g>
<!-- dir_6ff49626c189e19df9a205eb87521670 -->
<g id="node3" class="node"><title>dir_6ff49626c189e19df9a205eb87521670</title>
<g id="a_node3"><a xlink:href="dir_6ff49626c189e19df9a205eb87521670.html" target="_top" xlink:title="include">
<polygon fill="white" stroke="red" points="150,-180 96,-180 96,-144 150,-144 150,-180"/>
<text text-anchor="middle" x="123" y="-159.5" font-family="Helvetica,sans-Serif" font-size="10.00">include</text>
</a>
</g>
</g>
<!-- dir_137c8287a1d8b04d8ba0df0480706c08&#45;&gt;dir_6ff49626c189e19df9a205eb87521670 -->
<g id="edge4" class="edge"><title>dir_137c8287a1d8b04d8ba0df0480706c08&#45;&gt;dir_6ff49626c189e19df9a205eb87521670</title>
<path fill="none" stroke="black" d="M68.7978,-215.697C77.604,-207.135 88.3821,-196.656 98.0011,-187.304"/>
<polygon fill="black" stroke="black" points="100.677,-189.585 105.407,-180.104 95.7972,-184.566 100.677,-189.585"/>
<g id="a_edge4&#45;headlabel"><a xlink:href="dir_000033_000081.html" target="_top" xlink:title="20">
<text text-anchor="middle" x="100.079" y="-191.626" font-family="Helvetica,sans-Serif" font-size="10.00">20</text>
</a>
</g>
</g>
<!-- dir_2171f7ec022c5423887b07c69b2f5b48 -->
<g id="node7" class="node"><title>dir_2171f7ec022c5423887b07c69b2f5b48</title>
<g id="a_node7"><a xlink:href="dir_2171f7ec022c5423887b07c69b2f5b48.html" target="_top" xlink:title="DataFormats">
<polygon fill="none" stroke="red" points="245,-108 171,-108 171,-72 245,-72 245,-108"/>
<text text-anchor="middle" x="208" y="-87.5" font-family="Helvetica,sans-Serif" font-size="10.00">DataFormats</text>
</a>
</g>
</g>
<!-- dir_6ff49626c189e19df9a205eb87521670&#45;&gt;dir_2171f7ec022c5423887b07c69b2f5b48 -->
<g id="edge5" class="edge"><title>dir_6ff49626c189e19df9a205eb87521670&#45;&gt;dir_2171f7ec022c5423887b07c69b2f5b48</title>
<path fill="none" stroke="black" d="M144.011,-143.697C154.716,-134.881 167.89,-124.032 179.496,-114.474"/>
<polygon fill="black" stroke="black" points="181.736,-117.163 187.23,-108.104 177.286,-111.76 181.736,-117.163"/>
<g id="a_edge5&#45;headlabel"><a xlink:href="dir_000081_000055.html" target="_top" xlink:title="6">
<text text-anchor="middle" x="180.766" y="-119.14" font-family="Helvetica,sans-Serif" font-size="10.00">6</text>
</a>
</g>
</g>
<!-- dir_3015947259d5079adc65548fafc3ce3c -->
<g id="node4" class="node"><title>dir_3015947259d5079adc65548fafc3ce3c</title>
<g id="a_node4"><a xlink:href="dir_3015947259d5079adc65548fafc3ce3c.html" target="_top" xlink:title="src">
<polygon fill="white" stroke="black" points="150,-252 96,-252 96,-216 150,-216 150,-252"/>
<text text-anchor="middle" x="123" y="-231.5" font-family="Helvetica,sans-Serif" font-size="10.00">src</text>
</a>
</g>
</g>
<!-- dir_3015947259d5079adc65548fafc3ce3c&#45;&gt;dir_6ff49626c189e19df9a205eb87521670 -->
<g id="edge8" class="edge"><title>dir_3015947259d5079adc65548fafc3ce3c&#45;&gt;dir_6ff49626c189e19df9a205eb87521670</title>
<path fill="none" stroke="black" d="M123,-215.697C123,-207.983 123,-198.712 123,-190.112"/>
<polygon fill="black" stroke="black" points="126.5,-190.104 123,-180.104 119.5,-190.104 126.5,-190.104"/>
<g id="a_edge8&#45;headlabel"><a xlink:href="dir_000094_000081.html" target="_top" xlink:title="38">
<text text-anchor="middle" x="129.339" y="-191.199" font-family="Helvetica,sans-Serif" font-size="10.00">38</text>
</a>
</g>
</g>
<!-- dir_eedff867f3c4e67d20b227cb6e0f96ab -->
<g id="node5" class="node"><title>dir_eedff867f3c4e67d20b227cb6e0f96ab</title>
<g id="a_node5"><a xlink:href="dir_eedff867f3c4e67d20b227cb6e0f96ab.html" target="_top" xlink:title="base">
<polygon fill="none" stroke="red" points="300,-180 246,-180 246,-144 300,-144 300,-180"/>
<text text-anchor="middle" x="273" y="-159.5" font-family="Helvetica,sans-Serif" font-size="10.00">base</text>
</a>
</g>
</g>
<!-- dir_3015947259d5079adc65548fafc3ce3c&#45;&gt;dir_eedff867f3c4e67d20b227cb6e0f96ab -->
<g id="edge6" class="edge"><title>dir_3015947259d5079adc65548fafc3ce3c&#45;&gt;dir_eedff867f3c4e67d20b227cb6e0f96ab</title>
<path fill="none" stroke="black" d="M150.119,-220.173C153.114,-218.762 156.121,-217.349 159,-216 184.94,-203.845 214.247,-190.223 236.65,-179.832"/>
<polygon fill="black" stroke="black" points="238.199,-182.972 245.799,-175.591 235.254,-176.621 238.199,-182.972"/>
<g id="a_edge6&#45;headlabel"><a xlink:href="dir_000094_000277.html" target="_top" xlink:title="1">
<text text-anchor="middle" x="236.132" y="-184.56" font-family="Helvetica,sans-Serif" font-size="10.00">1</text>
</a>
</g>
</g>
<!-- dir_4ab6b4cc6a7edbff49100e9123df213f -->
<g id="node6" class="node"><title>dir_4ab6b4cc6a7edbff49100e9123df213f</title>
<g id="a_node6"><a xlink:href="dir_4ab6b4cc6a7edbff49100e9123df213f.html" target="_top" xlink:title="Common">
<polygon fill="none" stroke="red" points="267.5,-36 212.5,-36 212.5,-0 267.5,-0 267.5,-36"/>
<text text-anchor="middle" x="240" y="-15.5" font-family="Helvetica,sans-Serif" font-size="10.00">Common</text>
</a>
</g>
</g>
<!-- dir_3015947259d5079adc65548fafc3ce3c&#45;&gt;dir_4ab6b4cc6a7edbff49100e9123df213f -->
<g id="edge7" class="edge"><title>dir_3015947259d5079adc65548fafc3ce3c&#45;&gt;dir_4ab6b4cc6a7edbff49100e9123df213f</title>
<path fill="none" stroke="black" d="M150.273,-219.411C153.185,-218.174 156.131,-217.01 159,-216 223.672,-193.242 266.553,-233.84 309,-180 342.292,-137.773 296.674,-77.0678 265.271,-43.5573"/>
<polygon fill="black" stroke="black" points="267.498,-40.8232 258.041,-36.0457 262.454,-45.6776 267.498,-40.8232"/>
<g id="a_edge7&#45;headlabel"><a xlink:href="dir_000094_000016.html" target="_top" xlink:title="3">
<text text-anchor="middle" x="272.036" y="-38.944" font-family="Helvetica,sans-Serif" font-size="10.00">3</text>
</a>
</g>
</g>
<!-- dir_3015947259d5079adc65548fafc3ce3c&#45;&gt;dir_2171f7ec022c5423887b07c69b2f5b48 -->
<g id="edge9" class="edge"><title>dir_3015947259d5079adc65548fafc3ce3c&#45;&gt;dir_2171f7ec022c5423887b07c69b2f5b48</title>
<path fill="none" stroke="black" d="M135.419,-215.604C142.558,-205.388 151.558,-192.138 159,-180 171.601,-159.446 184.715,-135.468 194.202,-117.582"/>
<polygon fill="black" stroke="black" points="197.51,-118.812 199.073,-108.333 191.316,-115.55 197.51,-118.812"/>
<g id="a_edge9&#45;headlabel"><a xlink:href="dir_000094_000055.html" target="_top" xlink:title="5">
<text text-anchor="middle" x="198.347" y="-120.816" font-family="Helvetica,sans-Serif" font-size="10.00">5</text>
</a>
</g>
</g>
<!-- dir_eedff867f3c4e67d20b227cb6e0f96ab&#45;&gt;dir_4ab6b4cc6a7edbff49100e9123df213f -->
<g id="edge1" class="edge"><title>dir_eedff867f3c4e67d20b227cb6e0f96ab&#45;&gt;dir_4ab6b4cc6a7edbff49100e9123df213f</title>
<path fill="none" stroke="black" d="M269.6,-143.883C265.972,-125.923 259.942,-96.896 254,-72 251.98,-63.5385 249.618,-54.3626 247.416,-46.0611"/>
<polygon fill="black" stroke="black" points="250.723,-44.8828 244.749,-36.1332 243.963,-46.6989 250.723,-44.8828"/>
<g id="a_edge1&#45;headlabel"><a xlink:href="dir_000277_000016.html" target="_top" xlink:title="2">
<text text-anchor="middle" x="254.398" y="-45.1177" font-family="Helvetica,sans-Serif" font-size="10.00">2</text>
</a>
</g>
</g>
<!-- dir_eedff867f3c4e67d20b227cb6e0f96ab&#45;&gt;dir_2171f7ec022c5423887b07c69b2f5b48 -->
<g id="edge2" class="edge"><title>dir_eedff867f3c4e67d20b227cb6e0f96ab&#45;&gt;dir_2171f7ec022c5423887b07c69b2f5b48</title>
<path fill="none" stroke="black" d="M256.933,-143.697C249.061,-135.22 239.445,-124.864 230.827,-115.583"/>
<polygon fill="black" stroke="black" points="233.252,-113.051 223.883,-108.104 228.122,-117.814 233.252,-113.051"/>
<g id="a_edge2&#45;headlabel"><a xlink:href="dir_000277_000055.html" target="_top" xlink:title="1">
<text text-anchor="middle" x="237.778" y="-111.253" font-family="Helvetica,sans-Serif" font-size="10.00">1</text>
</a>
</g>
</g>
<!-- dir_4ab6b4cc6a7edbff49100e9123df213f&#45;&gt;dir_2171f7ec022c5423887b07c69b2f5b48 -->
<g id="edge3" class="edge"><title>dir_4ab6b4cc6a7edbff49100e9123df213f&#45;&gt;dir_2171f7ec022c5423887b07c69b2f5b48</title>
<path fill="none" stroke="black" d="M238.076,-36.1043C235.248,-44.1291 231.015,-53.871 226.535,-62.7967"/>
<polygon fill="black" stroke="black" points="223.41,-61.2208 221.826,-71.6966 229.597,-64.4949 223.41,-61.2208"/>
<g id="a_edge3&#45;headlabel"><a xlink:href="dir_000016_000055.html" target="_top" xlink:title="3">
<text text-anchor="middle" x="222.581" y="-54.2157" font-family="Helvetica,sans-Serif" font-size="10.00">3</text>
</a>
</g>
</g>
<!-- dir_2171f7ec022c5423887b07c69b2f5b48&#45;&gt;dir_4ab6b4cc6a7edbff49100e9123df213f -->
<g id="edge10" class="edge"><title>dir_2171f7ec022c5423887b07c69b2f5b48&#45;&gt;dir_4ab6b4cc6a7edbff49100e9123df213f</title>
<path fill="none" stroke="black" d="M209.994,-71.6966C212.845,-63.6436 217.091,-53.8945 221.576,-44.9824"/>
<polygon fill="black" stroke="black" points="224.691,-46.5784 226.286,-36.1043 218.507,-43.2977 224.691,-46.5784"/>
<g id="a_edge10&#45;headlabel"><a xlink:href="dir_000055_000016.html" target="_top" xlink:title="26">
<text text-anchor="middle" x="225.514" y="-48.5845" font-family="Helvetica,sans-Serif" font-size="10.00">26</text>
</a>
</g>
</g>
</g>
</svg>
