<?xml version="1.0" encoding="UTF-8" standalone="no"?>
<!DOCTYPE svg PUBLIC "-//W3C//DTD SVG 1.1//EN"
 "http://www.w3.org/Graphics/SVG/1.1/DTD/svg11.dtd">
<!-- Generated by graphviz version 2.36.0 (20140111.2315)
 -->
<!-- Title: /home/travis/build/AliceO2Group/AliceO2/Detectors/MUON/MID Pages: 1 -->
<svg width="422pt" height="447pt"
 viewBox="0.00 0.00 422.00 447.00" xmlns="http://www.w3.org/2000/svg" xmlns:xlink="http://www.w3.org/1999/xlink">
<g id="graph0" class="graph" transform="scale(1 1) rotate(0) translate(4 443)">
<title>/home/travis/build/AliceO2Group/AliceO2/Detectors/MUON/MID</title>
<g id="clust1" class="cluster"><title>clusterdir_1cc233fd3b1202b9dad36810b41b97af</title>
<g id="a_clust1"><a xlink:href="dir_1cc233fd3b1202b9dad36810b41b97af.html" target="_top" xlink:title="MUON">
<polygon fill="#ddddee" stroke="black" points="126,-200 126,-431 320,-431 320,-200 126,-200"/>
<text text-anchor="middle" x="223" y="-419" font-family="Helvetica,sans-Serif" font-size="10.00">MUON</text>
</a>
</g>
</g>
<g id="clust2" class="cluster"><title>clusterdir_9e24c537087392bd208449d0b48c466c</title>
<g id="a_clust2"><a xlink:href="dir_9e24c537087392bd208449d0b48c466c.html" target="_top">
<polygon fill="#eeeeff" stroke="black" points="134,-208 134,-404 312,-404 312,-208 134,-208"/>
</a>
</g>
</g>
<!-- dir_9e24c537087392bd208449d0b48c466c -->
<g id="node1" class="node"><title>dir_9e24c537087392bd208449d0b48c466c</title>
<text text-anchor="middle" x="270" y="-375.5" font-family="Helvetica,sans-Serif" font-size="10.00">MID</text>
</g>
<!-- dir_b5547b1068d53f0f904ee5a2a84992af -->
<g id="node2" class="node"><title>dir_b5547b1068d53f0f904ee5a2a84992af</title>
<g id="a_node2"><a xlink:href="dir_b5547b1068d53f0f904ee5a2a84992af.html" target="_top" xlink:title="Base">
<polygon fill="white" stroke="red" points="304,-252 250,-252 250,-216 304,-216 304,-252"/>
<text text-anchor="middle" x="277" y="-231.5" font-family="Helvetica,sans-Serif" font-size="10.00">Base</text>
</a>
</g>
</g>
<!-- dir_4ab6b4cc6a7edbff49100e9123df213f -->
<g id="node7" class="node"><title>dir_4ab6b4cc6a7edbff49100e9123df213f</title>
<g id="a_node7"><a xlink:href="dir_4ab6b4cc6a7edbff49100e9123df213f.html" target="_top" xlink:title="Common">
<polygon fill="none" stroke="red" points="306.5,-180 251.5,-180 251.5,-144 306.5,-144 306.5,-180"/>
<text text-anchor="middle" x="279" y="-159.5" font-family="Helvetica,sans-Serif" font-size="10.00">Common</text>
</a>
</g>
</g>
<!-- dir_b5547b1068d53f0f904ee5a2a84992af&#45;&gt;dir_4ab6b4cc6a7edbff49100e9123df213f -->
<g id="edge18" class="edge"><title>dir_b5547b1068d53f0f904ee5a2a84992af&#45;&gt;dir_4ab6b4cc6a7edbff49100e9123df213f</title>
<path fill="none" stroke="black" d="M277.494,-215.697C277.715,-207.983 277.98,-198.712 278.225,-190.112"/>
<polygon fill="black" stroke="black" points="281.724,-190.2 278.511,-180.104 274.727,-190 281.724,-190.2"/>
<g id="a_edge18&#45;headlabel"><a xlink:href="dir_000127_000016.html" target="_top" xlink:title="2">
<text text-anchor="middle" x="284.46" y="-191.374" font-family="Helvetica,sans-Serif" font-size="10.00">2</text>
</a>
</g>
</g>
<!-- dir_2171f7ec022c5423887b07c69b2f5b48 -->
<g id="node10" class="node"><title>dir_2171f7ec022c5423887b07c69b2f5b48</title>
<g id="a_node10"><a xlink:href="dir_2171f7ec022c5423887b07c69b2f5b48.html" target="_top" xlink:title="DataFormats">
<polygon fill="none" stroke="red" points="229,-108 155,-108 155,-72 229,-72 229,-108"/>
<text text-anchor="middle" x="192" y="-87.5" font-family="Helvetica,sans-Serif" font-size="10.00">DataFormats</text>
</a>
</g>
</g>
<!-- dir_b5547b1068d53f0f904ee5a2a84992af&#45;&gt;dir_2171f7ec022c5423887b07c69b2f5b48 -->
<g id="edge19" class="edge"><title>dir_b5547b1068d53f0f904ee5a2a84992af&#45;&gt;dir_2171f7ec022c5423887b07c69b2f5b48</title>
<path fill="none" stroke="black" d="M265.013,-215.537C258.1,-205.299 249.35,-192.049 242,-180 229.385,-159.319 215.986,-135.35 206.238,-117.5"/>
<polygon fill="black" stroke="black" points="209.074,-115.389 201.226,-108.273 202.923,-118.73 209.074,-115.389"/>
<g id="a_edge19&#45;headlabel"><a xlink:href="dir_000127_000055.html" target="_top" xlink:title="1">
<text text-anchor="middle" x="213.285" y="-114.693" font-family="Helvetica,sans-Serif" font-size="10.00">1</text>
</a>
</g>
</g>
<!-- dir_754f2fe7806627988f6bd801b7f2fe5b -->
<g id="node3" class="node"><title>dir_754f2fe7806627988f6bd801b7f2fe5b</title>
<g id="a_node3"><a xlink:href="dir_754f2fe7806627988f6bd801b7f2fe5b.html" target="_top" xlink:title="Clustering">
<polygon fill="white" stroke="red" points="203.25,-324 142.75,-324 142.75,-288 203.25,-288 203.25,-324"/>
<text text-anchor="middle" x="173" y="-303.5" font-family="Helvetica,sans-Serif" font-size="10.00">Clustering</text>
</a>
</g>
</g>
<!-- dir_754f2fe7806627988f6bd801b7f2fe5b&#45;&gt;dir_b5547b1068d53f0f904ee5a2a84992af -->
<g id="edge2" class="edge"><title>dir_754f2fe7806627988f6bd801b7f2fe5b&#45;&gt;dir_b5547b1068d53f0f904ee5a2a84992af</title>
<path fill="none" stroke="black" d="M198.441,-287.876C211.787,-278.893 228.324,-267.763 242.778,-258.034"/>
<polygon fill="black" stroke="black" points="245.119,-260.677 251.461,-252.19 241.211,-254.87 245.119,-260.677"/>
<g id="a_edge2&#45;headlabel"><a xlink:href="dir_000353_000127.html" target="_top" xlink:title="4">
<text text-anchor="middle" x="243.723" y="-262.54" font-family="Helvetica,sans-Serif" font-size="10.00">4</text>
</a>
</g>
</g>
<!-- dir_754f2fe7806627988f6bd801b7f2fe5b&#45;&gt;dir_2171f7ec022c5423887b07c69b2f5b48 -->
<g id="edge3" class="edge"><title>dir_754f2fe7806627988f6bd801b7f2fe5b&#45;&gt;dir_2171f7ec022c5423887b07c69b2f5b48</title>
<path fill="none" stroke="black" d="M142.578,-291.48C126.786,-282.695 108.962,-269.581 100,-252 78.2012,-209.235 75.9803,-185.558 100,-144 109.962,-126.764 127.893,-114.638 145.295,-106.378"/>
<polygon fill="black" stroke="black" points="147.107,-109.405 154.855,-102.179 144.292,-102.996 147.107,-109.405"/>
<g id="a_edge3&#45;headlabel"><a xlink:href="dir_000353_000055.html" target="_top" xlink:title="5">
<text text-anchor="middle" x="144.958" y="-110.95" font-family="Helvetica,sans-Serif" font-size="10.00">5</text>
</a>
</g>
</g>
<!-- dir_2810eaf0225063d73e08d8eeeb8a37b8 -->
<g id="node4" class="node"><title>dir_2810eaf0225063d73e08d8eeeb8a37b8</title>
<g id="a_node4"><a xlink:href="dir_2810eaf0225063d73e08d8eeeb8a37b8.html" target="_top" xlink:title="Simulation">
<polygon fill="white" stroke="red" points="210.5,-396 149.5,-396 149.5,-360 210.5,-360 210.5,-396"/>
<text text-anchor="middle" x="180" y="-375.5" font-family="Helvetica,sans-Serif" font-size="10.00">Simulation</text>
</a>
</g>
</g>
<!-- dir_2810eaf0225063d73e08d8eeeb8a37b8&#45;&gt;dir_b5547b1068d53f0f904ee5a2a84992af -->
<g id="edge10" class="edge"><title>dir_2810eaf0225063d73e08d8eeeb8a37b8&#45;&gt;dir_b5547b1068d53f0f904ee5a2a84992af</title>
<path fill="none" stroke="black" d="M210.664,-365.686C238.53,-354.707 276.545,-337.738 285,-324 296.388,-305.495 292.92,-280.597 287.444,-261.842"/>
<polygon fill="black" stroke="black" points="290.705,-260.555 284.276,-252.134 284.05,-262.726 290.705,-260.555"/>
<g id="a_edge10&#45;headlabel"><a xlink:href="dir_000183_000127.html" target="_top" xlink:title="9">
<text text-anchor="middle" x="294.519" y="-260.591" font-family="Helvetica,sans-Serif" font-size="10.00">9</text>
</a>
</g>
</g>
<!-- dir_2810eaf0225063d73e08d8eeeb8a37b8&#45;&gt;dir_754f2fe7806627988f6bd801b7f2fe5b -->
<g id="edge7" class="edge"><title>dir_2810eaf0225063d73e08d8eeeb8a37b8&#45;&gt;dir_754f2fe7806627988f6bd801b7f2fe5b</title>
<path fill="none" stroke="black" d="M178.27,-359.697C177.498,-351.983 176.571,-342.712 175.711,-334.112"/>
<polygon fill="black" stroke="black" points="179.188,-333.706 174.71,-324.104 172.223,-334.403 179.188,-333.706"/>
<g id="a_edge7&#45;headlabel"><a xlink:href="dir_000183_000353.html" target="_top" xlink:title="2">
<text text-anchor="middle" x="182.371" y="-334.501" font-family="Helvetica,sans-Serif" font-size="10.00">2</text>
</a>
</g>
</g>
<!-- dir_2810eaf0225063d73e08d8eeeb8a37b8&#45;&gt;dir_4ab6b4cc6a7edbff49100e9123df213f -->
<g id="edge6" class="edge"><title>dir_2810eaf0225063d73e08d8eeeb8a37b8&#45;&gt;dir_4ab6b4cc6a7edbff49100e9123df213f</title>
<path fill="none" stroke="black" d="M210.51,-366.191C240.279,-355.072 282.689,-337.516 294,-324 329.782,-281.242 333.244,-251.949 313,-200 311.352,-195.771 308.969,-191.732 306.219,-187.981"/>
<polygon fill="black" stroke="black" points="308.859,-185.683 299.752,-180.268 303.495,-190.18 308.859,-185.683"/>
<g id="a_edge6&#45;headlabel"><a xlink:href="dir_000183_000016.html" target="_top" xlink:title="4">
<text text-anchor="middle" x="313.344" y="-184.113" font-family="Helvetica,sans-Serif" font-size="10.00">4</text>
</a>
</g>
</g>
<!-- dir_37c90836491b695b472bf98d1be8336b -->
<g id="node8" class="node"><title>dir_37c90836491b695b472bf98d1be8336b</title>
<g id="a_node8"><a xlink:href="dir_37c90836491b695b472bf98d1be8336b.html" target="_top" xlink:title="Base">
<polygon fill="none" stroke="red" points="219,-36 165,-36 165,-0 219,-0 219,-36"/>
<text text-anchor="middle" x="192" y="-15.5" font-family="Helvetica,sans-Serif" font-size="10.00">Base</text>
</a>
</g>
</g>
<!-- dir_2810eaf0225063d73e08d8eeeb8a37b8&#45;&gt;dir_37c90836491b695b472bf98d1be8336b -->
<g id="edge8" class="edge"><title>dir_2810eaf0225063d73e08d8eeeb8a37b8&#45;&gt;dir_37c90836491b695b472bf98d1be8336b</title>
<path fill="none" stroke="black" d="M149.465,-368.37C98.1107,-351.776 0,-310.229 0,-235 0,-235 0,-235 0,-161 0,-84.6963 99.2359,-44.7127 155.021,-28.2642"/>
<polygon fill="black" stroke="black" points="156.233,-31.5588 164.898,-25.4633 154.323,-24.8243 156.233,-31.5588"/>
<g id="a_edge8&#45;headlabel"><a xlink:href="dir_000183_000160.html" target="_top" xlink:title="3">
<text text-anchor="middle" x="153.549" y="-32.771" font-family="Helvetica,sans-Serif" font-size="10.00">3</text>
</a>
</g>
</g>
<!-- dir_f01815b857f9009bea48e2cb39492245 -->
<g id="node9" class="node"><title>dir_f01815b857f9009bea48e2cb39492245</title>
<g id="a_node9"><a xlink:href="dir_f01815b857f9009bea48e2cb39492245.html" target="_top" xlink:title="Passive">
<polygon fill="none" stroke="red" points="414,-252 360,-252 360,-216 414,-216 414,-252"/>
<text text-anchor="middle" x="387" y="-231.5" font-family="Helvetica,sans-Serif" font-size="10.00">Passive</text>
</a>
</g>
</g>
<!-- dir_2810eaf0225063d73e08d8eeeb8a37b8&#45;&gt;dir_f01815b857f9009bea48e2cb39492245 -->
<g id="edge9" class="edge"><title>dir_2810eaf0225063d73e08d8eeeb8a37b8&#45;&gt;dir_f01815b857f9009bea48e2cb39492245</title>
<path fill="none" stroke="black" d="M210.685,-367.287C258.478,-352.148 345.343,-324.581 346,-324 364.34,-307.782 375.017,-281.671 380.851,-261.917"/>
<polygon fill="black" stroke="black" points="384.233,-262.819 383.475,-252.251 377.477,-260.985 384.233,-262.819"/>
<g id="a_edge9&#45;headlabel"><a xlink:href="dir_000183_000364.html" target="_top" xlink:title="1">
<text text-anchor="middle" x="386.031" y="-264.532" font-family="Helvetica,sans-Serif" font-size="10.00">1</text>
</a>
</g>
</g>
<!-- dir_2810eaf0225063d73e08d8eeeb8a37b8&#45;&gt;dir_2171f7ec022c5423887b07c69b2f5b48 -->
<g id="edge11" class="edge"><title>dir_2810eaf0225063d73e08d8eeeb8a37b8&#45;&gt;dir_2171f7ec022c5423887b07c69b2f5b48</title>
<path fill="none" stroke="black" d="M158.98,-359.779C134.083,-337.829 94.087,-297.261 79,-252 63.8185,-206.455 54.6697,-184.144 81,-144 95.4499,-121.969 121.753,-108.864 145.128,-101.197"/>
<polygon fill="black" stroke="black" points="146.365,-104.48 154.924,-98.2344 144.338,-97.7794 146.365,-104.48"/>
<g id="a_edge11&#45;headlabel"><a xlink:href="dir_000183_000055.html" target="_top" xlink:title="10">
<text text-anchor="middle" x="143.746" y="-105.738" font-family="Helvetica,sans-Serif" font-size="10.00">10</text>
</a>
</g>
</g>
<!-- dir_3ffb816f6d71c6665c34f0fe3ab9978a -->
<g id="node5" class="node"><title>dir_3ffb816f6d71c6665c34f0fe3ab9978a</title>
<g id="a_node5"><a xlink:href="dir_3ffb816f6d71c6665c34f0fe3ab9978a.html" target="_top" xlink:title="TestingSimTools">
<polygon fill="white" stroke="red" points="232,-252 142,-252 142,-216 232,-216 232,-252"/>
<text text-anchor="middle" x="187" y="-231.5" font-family="Helvetica,sans-Serif" font-size="10.00">TestingSimTools</text>
</a>
</g>
</g>
<!-- dir_3ffb816f6d71c6665c34f0fe3ab9978a&#45;&gt;dir_2171f7ec022c5423887b07c69b2f5b48 -->
<g id="edge15" class="edge"><title>dir_3ffb816f6d71c6665c34f0fe3ab9978a&#45;&gt;dir_2171f7ec022c5423887b07c69b2f5b48</title>
<path fill="none" stroke="black" d="M187.603,-215.871C188.455,-191.67 190.021,-147.211 191.035,-118.393"/>
<polygon fill="black" stroke="black" points="194.541,-118.306 191.395,-108.189 187.545,-118.06 194.541,-118.306"/>
<g id="a_edge15&#45;headlabel"><a xlink:href="dir_000359_000055.html" target="_top" xlink:title="1">
<text text-anchor="middle" x="197.252" y="-119.499" font-family="Helvetica,sans-Serif" font-size="10.00">1</text>
</a>
</g>
</g>
<!-- dir_c6781640d5720511e35c6e7f87460ee7 -->
<g id="node6" class="node"><title>dir_c6781640d5720511e35c6e7f87460ee7</title>
<g id="a_node6"><a xlink:href="dir_c6781640d5720511e35c6e7f87460ee7.html" target="_top" xlink:title="Tracking">
<polygon fill="white" stroke="red" points="276,-324 222,-324 222,-288 276,-288 276,-324"/>
<text text-anchor="middle" x="249" y="-303.5" font-family="Helvetica,sans-Serif" font-size="10.00">Tracking</text>
</a>
</g>
</g>
<!-- dir_c6781640d5720511e35c6e7f87460ee7&#45;&gt;dir_b5547b1068d53f0f904ee5a2a84992af -->
<g id="edge13" class="edge"><title>dir_c6781640d5720511e35c6e7f87460ee7&#45;&gt;dir_b5547b1068d53f0f904ee5a2a84992af</title>
<path fill="none" stroke="black" d="M255.921,-287.697C259.075,-279.813 262.878,-270.304 266.381,-261.546"/>
<polygon fill="black" stroke="black" points="269.694,-262.689 270.158,-252.104 263.195,-260.089 269.694,-262.689"/>
<g id="a_edge13&#45;headlabel"><a xlink:href="dir_000311_000127.html" target="_top" xlink:title="8">
<text text-anchor="middle" x="270.995" y="-264.581" font-family="Helvetica,sans-Serif" font-size="10.00">8</text>
</a>
</g>
</g>
<!-- dir_c6781640d5720511e35c6e7f87460ee7&#45;&gt;dir_3ffb816f6d71c6665c34f0fe3ab9978a -->
<g id="edge12" class="edge"><title>dir_c6781640d5720511e35c6e7f87460ee7&#45;&gt;dir_3ffb816f6d71c6665c34f0fe3ab9978a</title>
<path fill="none" stroke="black" d="M233.674,-287.697C226.241,-279.305 217.177,-269.07 209.02,-259.861"/>
<polygon fill="black" stroke="black" points="211.4,-257.27 202.15,-252.104 206.16,-261.911 211.4,-257.27"/>
<g id="a_edge12&#45;headlabel"><a xlink:href="dir_000311_000359.html" target="_top" xlink:title="2">
<text text-anchor="middle" x="215.909" y="-255.578" font-family="Helvetica,sans-Serif" font-size="10.00">2</text>
</a>
</g>
</g>
<!-- dir_c6781640d5720511e35c6e7f87460ee7&#45;&gt;dir_2171f7ec022c5423887b07c69b2f5b48 -->
<g id="edge14" class="edge"><title>dir_c6781640d5720511e35c6e7f87460ee7&#45;&gt;dir_2171f7ec022c5423887b07c69b2f5b48</title>
<path fill="none" stroke="black" d="M221.927,-292.549C218.584,-291.015 215.214,-289.471 212,-288 176.914,-271.945 153.874,-284.451 133,-252 104.792,-208.147 142.804,-148.933 169.625,-115.907"/>
<polygon fill="black" stroke="black" points="172.424,-118.016 176.156,-108.1 167.055,-113.525 172.424,-118.016"/>
<g id="a_edge14&#45;headlabel"><a xlink:href="dir_000311_000055.html" target="_top" xlink:title="7">
<text text-anchor="middle" x="172.295" y="-120.095" font-family="Helvetica,sans-Serif" font-size="10.00">7</text>
</a>
</g>
</g>
<!-- dir_4ab6b4cc6a7edbff49100e9123df213f&#45;&gt;dir_2171f7ec022c5423887b07c69b2f5b48 -->
<g id="edge1" class="edge"><title>dir_4ab6b4cc6a7edbff49100e9123df213f&#45;&gt;dir_2171f7ec022c5423887b07c69b2f5b48</title>
<path fill="none" stroke="black" d="M251.579,-143.697C239.826,-134.965 226.325,-124.24 215.088,-114.75"/>
<polygon fill="black" stroke="black" points="217.227,-111.973 207.363,-108.104 212.661,-117.279 217.227,-111.973"/>
<g id="a_edge1&#45;headlabel"><a xlink:href="dir_000016_000055.html" target="_top" xlink:title="3">
<text text-anchor="middle" x="221.803" y="-109.665" font-family="Helvetica,sans-Serif" font-size="10.00">3</text>
</a>
</g>
</g>
<!-- dir_37c90836491b695b472bf98d1be8336b&#45;&gt;dir_4ab6b4cc6a7edbff49100e9123df213f -->
<g id="edge4" class="edge"><title>dir_37c90836491b695b472bf98d1be8336b&#45;&gt;dir_4ab6b4cc6a7edbff49100e9123df213f</title>
<path fill="none" stroke="black" d="M209.098,-36.1433C218.4,-46.0619 229.674,-59.1026 238,-72 250.768,-91.7774 261.712,-116.177 269.073,-134.424"/>
<polygon fill="black" stroke="black" points="265.867,-135.834 272.783,-143.86 272.381,-133.273 265.867,-135.834"/>
<g id="a_edge4&#45;headlabel"><a xlink:href="dir_000160_000016.html" target="_top" xlink:title="9">
<text text-anchor="middle" x="261.909" y="-131.028" font-family="Helvetica,sans-Serif" font-size="10.00">9</text>
</a>
</g>
</g>
<!-- dir_37c90836491b695b472bf98d1be8336b&#45;&gt;dir_2171f7ec022c5423887b07c69b2f5b48 -->
<g id="edge5" class="edge"><title>dir_37c90836491b695b472bf98d1be8336b&#45;&gt;dir_2171f7ec022c5423887b07c69b2f5b48</title>
<path fill="none" stroke="black" d="M197.895,-36.1043C198.701,-43.7913 198.937,-53.0537 198.604,-61.6651"/>
<polygon fill="black" stroke="black" points="195.109,-61.4805 197.916,-71.6966 202.092,-61.9597 195.109,-61.4805"/>
<g id="a_edge5&#45;headlabel"><a xlink:href="dir_000160_000055.html" target="_top" xlink:title="6">
<text text-anchor="middle" x="192.522" y="-55.2" font-family="Helvetica,sans-Serif" font-size="10.00">6</text>
</a>
</g>
</g>
<!-- dir_f01815b857f9009bea48e2cb39492245&#45;&gt;dir_4ab6b4cc6a7edbff49100e9123df213f -->
<g id="edge16" class="edge"><title>dir_f01815b857f9009bea48e2cb39492245&#45;&gt;dir_4ab6b4cc6a7edbff49100e9123df213f</title>
<path fill="none" stroke="black" d="M367.092,-215.831C360.554,-210.507 353.132,-204.787 346,-200 336.455,-193.593 325.709,-187.291 315.664,-181.754"/>
<polygon fill="black" stroke="black" points="317.153,-178.58 306.691,-176.904 313.824,-184.738 317.153,-178.58"/>
<g id="a_edge16&#45;headlabel"><a xlink:href="dir_000364_000016.html" target="_top" xlink:title="5">
<text text-anchor="middle" x="321.665" y="-175.292" font-family="Helvetica,sans-Serif" font-size="10.00">5</text>
</a>
</g>
</g>
<!-- dir_f01815b857f9009bea48e2cb39492245&#45;&gt;dir_37c90836491b695b472bf98d1be8336b -->
<g id="edge17" class="edge"><title>dir_f01815b857f9009bea48e2cb39492245&#45;&gt;dir_37c90836491b695b472bf98d1be8336b</title>
<path fill="none" stroke="black" d="M375.896,-215.837C355.517,-185.051 309.83,-119.253 262,-72 251.18,-61.3104 238.16,-50.902 226.299,-42.1795"/>
<polygon fill="black" stroke="black" points="228.076,-39.1465 217.915,-36.1462 223.988,-44.8282 228.076,-39.1465"/>
<g id="a_edge17&#45;headlabel"><a xlink:href="dir_000364_000160.html" target="_top" xlink:title="16">
<text text-anchor="middle" x="232.653" y="-36.4415" font-family="Helvetica,sans-Serif" font-size="10.00">16</text>
</a>
</g>
</g>
<!-- dir_2171f7ec022c5423887b07c69b2f5b48&#45;&gt;dir_4ab6b4cc6a7edbff49100e9123df213f -->
<g id="edge20" class="edge"><title>dir_2171f7ec022c5423887b07c69b2f5b48&#45;&gt;dir_4ab6b4cc6a7edbff49100e9123df213f</title>
<path fill="none" stroke="black" d="M219.153,-108.104C230.879,-116.805 244.383,-127.524 255.655,-137.033"/>
<polygon fill="black" stroke="black" points="253.544,-139.834 263.41,-143.697 258.106,-134.525 253.544,-139.834"/>
<g id="a_edge20&#45;headlabel"><a xlink:href="dir_000055_000016.html" target="_top" xlink:title="26">
<text text-anchor="middle" x="248.968" y="-137.145" font-family="Helvetica,sans-Serif" font-size="10.00">26</text>
</a>
</g>
</g>
<!-- dir_2171f7ec022c5423887b07c69b2f5b48&#45;&gt;dir_37c90836491b695b472bf98d1be8336b -->
<g id="edge21" class="edge"><title>dir_2171f7ec022c5423887b07c69b2f5b48&#45;&gt;dir_37c90836491b695b472bf98d1be8336b</title>
<path fill="none" stroke="black" d="M186.084,-71.6966C185.289,-63.9827 185.062,-54.7125 185.405,-46.1124"/>
<polygon fill="black" stroke="black" points="188.898,-46.3243 186.105,-36.1043 181.915,-45.8356 188.898,-46.3243"/>
<g id="a_edge21&#45;headlabel"><a xlink:href="dir_000055_000160.html" target="_top" xlink:title="1">
<text text-anchor="middle" x="191.48" y="-47.6083" font-family="Helvetica,sans-Serif" font-size="10.00">1</text>
</a>
</g>
</g>
</g>
</svg>
