<?xml version="1.0" encoding="UTF-8" standalone="no"?>
<!DOCTYPE svg PUBLIC "-//W3C//DTD SVG 1.1//EN"
 "http://www.w3.org/Graphics/SVG/1.1/DTD/svg11.dtd">
<!-- Generated by graphviz version 2.36.0 (20140111.2315)
 -->
<!-- Title: Graphical Class Hierarchy Pages: 1 -->
<svg width="256pt" height="142pt"
 viewBox="0.00 0.00 256.00 142.00" xmlns="http://www.w3.org/2000/svg" xmlns:xlink="http://www.w3.org/1999/xlink">
<g id="graph0" class="graph" transform="scale(1 1) rotate(0) translate(4 138)">
<title>Graphical Class Hierarchy</title>
<!-- Node1 -->
<g id="node1" class="node"><title>Node1</title>
<g id="a_node1"><a xlink:href="de/def/classo2_1_1MCCompLabel.html" target="_top" xlink:title="o2::MCCompLabel">
<polygon fill="none" stroke="black" points="0,-57.5 0,-76.5 98,-76.5 98,-57.5 0,-57.5"/>
<text text-anchor="middle" x="49" y="-64.5" font-family="Helvetica,sans-Serif" font-size="10.00">o2::MCCompLabel</text>
</a>
</g>
</g>
<!-- Node2 -->
<g id="node2" class="node"><title>Node2</title>
<g id="a_node2"><a xlink:href="d1/d2d/classo2_1_1EMCAL_1_1MCLabel.html" target="_top" xlink:title="o2::EMCAL::MCLabel">
<polygon fill="none" stroke="black" points="134.5,-114.5 134.5,-133.5 247.5,-133.5 247.5,-114.5 134.5,-114.5"/>
<text text-anchor="middle" x="191" y="-121.5" font-family="Helvetica,sans-Serif" font-size="10.00">o2::EMCAL::MCLabel</text>
</a>
</g>
</g>
<!-- Node1&#45;&gt;Node2 -->
<g id="edge1" class="edge"><title>Node1&#45;&gt;Node2</title>
<path fill="none" stroke="midnightblue" d="M79.1585,-81.0382C95.1822,-88.537 115.506,-97.6997 134,-105 142.404,-108.317 151.647,-111.599 160.16,-114.478"/>
<polygon fill="midnightblue" stroke="midnightblue" points="80.3291,-77.7204 69.792,-76.6156 77.3403,-84.0503 80.3291,-77.7204"/>
</g>
<!-- Node3 -->
<g id="node3" class="node"><title>Node3</title>
<g id="a_node3"><a xlink:href="da/d99/classo2_1_1fit_1_1MCLabel.html" target="_top" xlink:title="o2::fit::MCLabel">
<polygon fill="none" stroke="black" points="148,-76.5 148,-95.5 234,-95.5 234,-76.5 148,-76.5"/>
<text text-anchor="middle" x="191" y="-83.5" font-family="Helvetica,sans-Serif" font-size="10.00">o2::fit::MCLabel</text>
</a>
</g>
</g>
<!-- Node1&#45;&gt;Node3 -->
<g id="edge2" class="edge"><title>Node1&#45;&gt;Node3</title>
<path fill="none" stroke="midnightblue" d="M108.192,-74.8975C121.478,-76.7005 135.347,-78.5828 147.811,-80.2744"/>
<polygon fill="midnightblue" stroke="midnightblue" points="108.56,-71.4154 98.1801,-73.5387 107.619,-78.3518 108.56,-71.4154"/>
</g>
<!-- Node4 -->
<g id="node4" class="node"><title>Node4</title>
<g id="a_node4"><a xlink:href="db/d36/classo2_1_1mid_1_1MCLabel.html" target="_top" xlink:title="o2::mid::MCLabel">
<polygon fill="none" stroke="black" points="144,-38.5 144,-57.5 238,-57.5 238,-38.5 144,-38.5"/>
<text text-anchor="middle" x="191" y="-45.5" font-family="Helvetica,sans-Serif" font-size="10.00">o2::mid::MCLabel</text>
</a>
</g>
</g>
<!-- Node1&#45;&gt;Node4 -->
<g id="edge3" class="edge"><title>Node1&#45;&gt;Node4</title>
<path fill="none" stroke="midnightblue" d="M108.365,-59.0791C120.126,-57.4829 132.338,-55.8256 143.622,-54.2942"/>
<polygon fill="midnightblue" stroke="midnightblue" points="107.619,-55.6482 98.1801,-60.4613 108.56,-62.5846 107.619,-55.6482"/>
</g>
<!-- Node5 -->
<g id="node5" class="node"><title>Node5</title>
<g id="a_node5"><a xlink:href="d7/d53/classo2_1_1tof_1_1MCLabel.html" target="_top" xlink:title="o2::tof::MCLabel">
<polygon fill="none" stroke="black" points="146.5,-0.5 146.5,-19.5 235.5,-19.5 235.5,-0.5 146.5,-0.5"/>
<text text-anchor="middle" x="191" y="-7.5" font-family="Helvetica,sans-Serif" font-size="10.00">o2::tof::MCLabel</text>
</a>
</g>
</g>
<!-- Node1&#45;&gt;Node5 -->
<g id="edge4" class="edge"><title>Node1&#45;&gt;Node5</title>
<path fill="none" stroke="midnightblue" d="M79.1585,-52.9618C95.1822,-45.463 115.506,-36.3003 134,-29 142.404,-25.6828 151.647,-22.401 160.16,-19.5223"/>
<polygon fill="midnightblue" stroke="midnightblue" points="77.3403,-49.9497 69.792,-57.3844 80.3291,-56.2796 77.3403,-49.9497"/>
</g>
</g>
</svg>
