<?xml version="1.0" encoding="UTF-8" standalone="no"?>
<!DOCTYPE svg PUBLIC "-//W3C//DTD SVG 1.1//EN"
 "http://www.w3.org/Graphics/SVG/1.1/DTD/svg11.dtd">
<!-- Generated by graphviz version 2.36.0 (20140111.2315)
 -->
<!-- Title: Graphical Class Hierarchy Pages: 1 -->
<svg width="444pt" height="674pt"
 viewBox="0.00 0.00 444.00 674.00" xmlns="http://www.w3.org/2000/svg" xmlns:xlink="http://www.w3.org/1999/xlink">
<g id="graph0" class="graph" transform="scale(1 1) rotate(0) translate(4 670)">
<title>Graphical Class Hierarchy</title>
<!-- Node1 -->
<g id="node1" class="node"><title>Node1</title>
<g id="a_node1"><a xlink:href="d5/d0f/classTObject.html" target="_top" xlink:title="TObject">
<polygon fill="none" stroke="black" points="0.5,-323.5 0.5,-342.5 51.5,-342.5 51.5,-323.5 0.5,-323.5"/>
<text text-anchor="middle" x="26" y="-330.5" font-family="Helvetica,sans-Serif" font-size="10.00">TObject</text>
</a>
</g>
</g>
<!-- Node2 -->
<g id="node2" class="node"><title>Node2</title>
<g id="a_node2"><a xlink:href="d2/da4/classo2_1_1Base_1_1GeometryManager.html" target="_top" xlink:title="o2::Base::GeometryManager">
<polygon fill="none" stroke="black" points="89,-646.5 89,-665.5 231,-665.5 231,-646.5 89,-646.5"/>
<text text-anchor="middle" x="160" y="-653.5" font-family="Helvetica,sans-Serif" font-size="10.00">o2::Base::GeometryManager</text>
</a>
</g>
</g>
<!-- Node1&#45;&gt;Node2 -->
<g id="edge1" class="edge"><title>Node1&#45;&gt;Node2</title>
<path fill="none" stroke="midnightblue" d="M28.3064,-352.895C32.696,-413.676 48.8946,-595.331 88,-637 91.5801,-640.815 95.8347,-643.895 100.456,-646.378"/>
<polygon fill="midnightblue" stroke="midnightblue" points="31.7843,-352.453 27.6019,-342.719 24.801,-352.936 31.7843,-352.453"/>
</g>
<!-- Node3 -->
<g id="node3" class="node"><title>Node3</title>
<g id="a_node3"><a xlink:href="dc/d54/classo2_1_1ccdb_1_1Condition.html" target="_top" xlink:title="o2::ccdb::Condition">
<polygon fill="none" stroke="black" points="109.5,-608.5 109.5,-627.5 210.5,-627.5 210.5,-608.5 109.5,-608.5"/>
<text text-anchor="middle" x="160" y="-615.5" font-family="Helvetica,sans-Serif" font-size="10.00">o2::ccdb::Condition</text>
</a>
</g>
</g>
<!-- Node1&#45;&gt;Node3 -->
<g id="edge2" class="edge"><title>Node1&#45;&gt;Node3</title>
<path fill="none" stroke="midnightblue" d="M28.9272,-352.903C34.6984,-408.436 53.6064,-563.343 88,-599 93.8467,-605.061 101.398,-609.26 109.386,-612.154"/>
<polygon fill="midnightblue" stroke="midnightblue" points="32.3781,-352.239 27.8942,-342.639 25.4133,-352.94 32.3781,-352.239"/>
</g>
<!-- Node4 -->
<g id="node4" class="node"><title>Node4</title>
<g id="a_node4"><a xlink:href="da/d0f/classo2_1_1ccdb_1_1ConditionId.html" target="_top" xlink:title="o2::ccdb::ConditionId">
<polygon fill="none" stroke="black" points="105,-570.5 105,-589.5 215,-589.5 215,-570.5 105,-570.5"/>
<text text-anchor="middle" x="160" y="-577.5" font-family="Helvetica,sans-Serif" font-size="10.00">o2::ccdb::ConditionId</text>
</a>
</g>
</g>
<!-- Node1&#45;&gt;Node4 -->
<g id="edge3" class="edge"><title>Node1&#45;&gt;Node4</title>
<path fill="none" stroke="midnightblue" d="M26.1572,-352.887C25.4346,-396.888 30.1627,-503.159 88,-561 92.7819,-565.782 98.627,-569.399 104.89,-572.127"/>
<polygon fill="midnightblue" stroke="midnightblue" points="29.6559,-352.979 26.4383,-342.885 22.6586,-352.782 29.6559,-352.979"/>
</g>
<!-- Node5 -->
<g id="node5" class="node"><title>Node5</title>
<g id="a_node5"><a xlink:href="d0/d58/classo2_1_1ccdb_1_1ConditionMetaData.html" target="_top" xlink:title="o2::ccdb::ConditionMetaData">
<polygon fill="none" stroke="black" points="88,-532.5 88,-551.5 232,-551.5 232,-532.5 88,-532.5"/>
<text text-anchor="middle" x="160" y="-539.5" font-family="Helvetica,sans-Serif" font-size="10.00">o2::ccdb::ConditionMetaData</text>
</a>
</g>
</g>
<!-- Node1&#45;&gt;Node5 -->
<g id="edge4" class="edge"><title>Node1&#45;&gt;Node5</title>
<path fill="none" stroke="midnightblue" d="M27.4369,-352.918C29.3965,-391.495 39.3368,-476.673 88,-523 92.0664,-526.871 96.8324,-529.973 101.937,-532.455"/>
<polygon fill="midnightblue" stroke="midnightblue" points="30.9201,-352.399 27.0509,-342.536 23.925,-352.66 30.9201,-352.399"/>
</g>
<!-- Node6 -->
<g id="node6" class="node"><title>Node6</title>
<g id="a_node6"><a xlink:href="d5/dd3/classo2_1_1ccdb_1_1IdPath.html" target="_top" xlink:title="o2::ccdb::IdPath">
<polygon fill="none" stroke="black" points="115.5,-494.5 115.5,-513.5 204.5,-513.5 204.5,-494.5 115.5,-494.5"/>
<text text-anchor="middle" x="160" y="-501.5" font-family="Helvetica,sans-Serif" font-size="10.00">o2::ccdb::IdPath</text>
</a>
</g>
</g>
<!-- Node1&#45;&gt;Node6 -->
<g id="edge5" class="edge"><title>Node1&#45;&gt;Node6</title>
<path fill="none" stroke="midnightblue" d="M29.2373,-352.509C34.0093,-384.91 48.2206,-449.735 88,-485 95.6386,-491.772 105.437,-496.167 115.299,-499.009"/>
<polygon fill="midnightblue" stroke="midnightblue" points="32.695,-351.959 27.9166,-342.503 25.7552,-352.875 32.695,-351.959"/>
</g>
<!-- Node7 -->
<g id="node7" class="node"><title>Node7</title>
<g id="a_node7"><a xlink:href="dd/d6f/classo2_1_1ccdb_1_1IdRunRange.html" target="_top" xlink:title="o2::ccdb::IdRunRange">
<polygon fill="none" stroke="black" points="102.5,-456.5 102.5,-475.5 217.5,-475.5 217.5,-456.5 102.5,-456.5"/>
<text text-anchor="middle" x="160" y="-463.5" font-family="Helvetica,sans-Serif" font-size="10.00">o2::ccdb::IdRunRange</text>
</a>
</g>
</g>
<!-- Node1&#45;&gt;Node7 -->
<g id="edge6" class="edge"><title>Node1&#45;&gt;Node7</title>
<path fill="none" stroke="midnightblue" d="M32.0958,-352.303C39.8459,-377.838 57.0676,-422.47 88,-447 92.899,-450.885 98.5237,-453.979 104.417,-456.442"/>
<polygon fill="midnightblue" stroke="midnightblue" points="35.4494,-351.3 29.3418,-342.643 28.7176,-353.219 35.4494,-351.3"/>
</g>
<!-- Node8 -->
<g id="node8" class="node"><title>Node8</title>
<g id="a_node8"><a xlink:href="d5/ddf/classo2_1_1ccdb_1_1Manager.html" target="_top" xlink:title="o2::ccdb::Manager">
<polygon fill="none" stroke="black" points="111,-418.5 111,-437.5 209,-437.5 209,-418.5 111,-418.5"/>
<text text-anchor="middle" x="160" y="-425.5" font-family="Helvetica,sans-Serif" font-size="10.00">o2::ccdb::Manager</text>
</a>
</g>
</g>
<!-- Node1&#45;&gt;Node8 -->
<g id="edge7" class="edge"><title>Node1&#45;&gt;Node8</title>
<path fill="none" stroke="midnightblue" d="M37.0061,-351.259C47.4794,-368.667 65.5215,-394.338 88,-409 94.84,-413.462 102.698,-416.88 110.636,-419.498"/>
<polygon fill="midnightblue" stroke="midnightblue" points="40.0161,-349.472 31.9863,-342.56 33.9532,-352.971 40.0161,-349.472"/>
</g>
<!-- Node9 -->
<g id="node9" class="node"><title>Node9</title>
<g id="a_node9"><a xlink:href="d6/dbd/classo2_1_1ccdb_1_1Storage.html" target="_top" xlink:title="o2::ccdb::Storage">
<polygon fill="none" stroke="black" points="113,-380.5 113,-399.5 207,-399.5 207,-380.5 113,-380.5"/>
<text text-anchor="middle" x="160" y="-387.5" font-family="Helvetica,sans-Serif" font-size="10.00">o2::ccdb::Storage</text>
</a>
</g>
</g>
<!-- Node1&#45;&gt;Node9 -->
<g id="edge8" class="edge"><title>Node1&#45;&gt;Node9</title>
<path fill="none" stroke="midnightblue" d="M48.3,-348.447C59.6421,-356.099 74.0908,-364.966 88,-371 96.5455,-374.707 105.991,-377.845 115.128,-380.437"/>
<polygon fill="midnightblue" stroke="midnightblue" points="50.1514,-345.472 39.9396,-342.649 46.1621,-351.224 50.1514,-345.472"/>
</g>
<!-- Node13 -->
<g id="node13" class="node"><title>Node13</title>
<g id="a_node13"><a xlink:href="d1/db1/classo2_1_1ccdb_1_1StorageFactory.html" target="_top" xlink:title="o2::ccdb::StorageFactory">
<polygon fill="none" stroke="black" points="96.5,-342.5 96.5,-361.5 223.5,-361.5 223.5,-342.5 96.5,-342.5"/>
<text text-anchor="middle" x="160" y="-349.5" font-family="Helvetica,sans-Serif" font-size="10.00">o2::ccdb::StorageFactory</text>
</a>
</g>
</g>
<!-- Node1&#45;&gt;Node13 -->
<g id="edge12" class="edge"><title>Node1&#45;&gt;Node13</title>
<path fill="none" stroke="midnightblue" d="M61.6735,-337.991C72.3625,-339.529 84.4787,-341.273 96.4436,-342.996"/>
<polygon fill="midnightblue" stroke="midnightblue" points="61.9155,-334.49 51.5188,-336.529 60.9181,-341.418 61.9155,-334.49"/>
</g>
<!-- Node17 -->
<g id="node17" class="node"><title>Node17</title>
<g id="a_node17"><a xlink:href="d8/daa/classo2_1_1ccdb_1_1StorageParameters.html" target="_top" xlink:title="o2::ccdb::StorageParameters">
<polygon fill="none" stroke="black" points="88,-304.5 88,-323.5 232,-323.5 232,-304.5 88,-304.5"/>
<text text-anchor="middle" x="160" y="-311.5" font-family="Helvetica,sans-Serif" font-size="10.00">o2::ccdb::StorageParameters</text>
</a>
</g>
</g>
<!-- Node1&#45;&gt;Node17 -->
<g id="edge16" class="edge"><title>Node1&#45;&gt;Node17</title>
<path fill="none" stroke="midnightblue" d="M61.4783,-328.037C71.1331,-326.648 81.9641,-325.089 92.8021,-323.528"/>
<polygon fill="midnightblue" stroke="midnightblue" points="60.9181,-324.582 51.5188,-329.471 61.9155,-331.51 60.9181,-324.582"/>
</g>
<!-- Node21 -->
<g id="node21" class="node"><title>Node21</title>
<g id="a_node21"><a xlink:href="d9/d17/classo2_1_1ccdb_1_1XmlHandler.html" target="_top" xlink:title="o2::ccdb::XmlHandler">
<polygon fill="none" stroke="black" points="104.5,-266.5 104.5,-285.5 215.5,-285.5 215.5,-266.5 104.5,-266.5"/>
<text text-anchor="middle" x="160" y="-273.5" font-family="Helvetica,sans-Serif" font-size="10.00">o2::ccdb::XmlHandler</text>
</a>
</g>
</g>
<!-- Node1&#45;&gt;Node21 -->
<g id="edge20" class="edge"><title>Node1&#45;&gt;Node21</title>
<path fill="none" stroke="midnightblue" d="M48.3,-317.553C59.6421,-309.901 74.0908,-301.034 88,-295 96.5455,-291.293 105.991,-288.155 115.128,-285.563"/>
<polygon fill="midnightblue" stroke="midnightblue" points="46.1621,-314.776 39.9396,-323.351 50.1514,-320.528 46.1621,-314.776"/>
</g>
<!-- Node22 -->
<g id="node22" class="node"><title>Node22</title>
<g id="a_node22"><a xlink:href="d6/d00/classo2_1_1EMCAL_1_1Digitizer.html" target="_top" xlink:title="o2::EMCAL::Digitizer">
<polygon fill="none" stroke="black" points="105,-228.5 105,-247.5 215,-247.5 215,-228.5 105,-228.5"/>
<text text-anchor="middle" x="160" y="-235.5" font-family="Helvetica,sans-Serif" font-size="10.00">o2::EMCAL::Digitizer</text>
</a>
</g>
</g>
<!-- Node1&#45;&gt;Node22 -->
<g id="edge21" class="edge"><title>Node1&#45;&gt;Node22</title>
<path fill="none" stroke="midnightblue" d="M37.0061,-314.741C47.4794,-297.333 65.5215,-271.662 88,-257 93.985,-253.096 100.749,-249.991 107.665,-247.522"/>
<polygon fill="midnightblue" stroke="midnightblue" points="33.9532,-313.029 31.9863,-323.44 40.0161,-316.528 33.9532,-313.029"/>
</g>
<!-- Node23 -->
<g id="node23" class="node"><title>Node23</title>
<g id="a_node23"><a xlink:href="d6/d5b/classo2_1_1ITS_1_1V11Geometry.html" target="_top" xlink:title="o2::ITS::V11Geometry">
<polygon fill="none" stroke="black" points="102.5,-190.5 102.5,-209.5 217.5,-209.5 217.5,-190.5 102.5,-190.5"/>
<text text-anchor="middle" x="160" y="-197.5" font-family="Helvetica,sans-Serif" font-size="10.00">o2::ITS::V11Geometry</text>
</a>
</g>
</g>
<!-- Node1&#45;&gt;Node23 -->
<g id="edge22" class="edge"><title>Node1&#45;&gt;Node23</title>
<path fill="none" stroke="midnightblue" d="M32.0958,-313.697C39.8459,-288.162 57.0676,-243.53 88,-219 92.899,-215.115 98.5237,-212.021 104.417,-209.558"/>
<polygon fill="midnightblue" stroke="midnightblue" points="28.7176,-312.781 29.3418,-323.357 35.4494,-314.7 28.7176,-312.781"/>
</g>
<!-- Node26 -->
<g id="node26" class="node"><title>Node26</title>
<g id="a_node26"><a xlink:href="d9/d42/classo2_1_1ITSMFT_1_1ClusterShape.html" target="_top" xlink:title="o2::ITSMFT::ClusterShape">
<polygon fill="none" stroke="black" points="93,-152.5 93,-171.5 227,-171.5 227,-152.5 93,-152.5"/>
<text text-anchor="middle" x="160" y="-159.5" font-family="Helvetica,sans-Serif" font-size="10.00">o2::ITSMFT::ClusterShape</text>
</a>
</g>
</g>
<!-- Node1&#45;&gt;Node26 -->
<g id="edge25" class="edge"><title>Node1&#45;&gt;Node26</title>
<path fill="none" stroke="midnightblue" d="M29.2373,-313.491C34.0093,-281.09 48.2206,-216.265 88,-181 92.3922,-177.106 97.4984,-173.998 102.92,-171.52"/>
<polygon fill="midnightblue" stroke="midnightblue" points="25.7552,-313.125 27.9166,-323.497 32.695,-314.041 25.7552,-313.125"/>
</g>
<!-- Node27 -->
<g id="node27" class="node"><title>Node27</title>
<g id="a_node27"><a xlink:href="d8/d92/classo2_1_1ITSMFT_1_1Digitizer.html" target="_top" xlink:title="o2::ITSMFT::Digitizer">
<polygon fill="none" stroke="black" points="104.5,-114.5 104.5,-133.5 215.5,-133.5 215.5,-114.5 104.5,-114.5"/>
<text text-anchor="middle" x="160" y="-121.5" font-family="Helvetica,sans-Serif" font-size="10.00">o2::ITSMFT::Digitizer</text>
</a>
</g>
</g>
<!-- Node1&#45;&gt;Node27 -->
<g id="edge26" class="edge"><title>Node1&#45;&gt;Node27</title>
<path fill="none" stroke="midnightblue" d="M27.4369,-313.082C29.3965,-274.505 39.3368,-189.327 88,-143 92.7134,-138.513 98.3666,-135.06 104.398,-132.406"/>
<polygon fill="midnightblue" stroke="midnightblue" points="23.925,-313.34 27.0509,-323.464 30.9201,-313.601 23.925,-313.34"/>
</g>
<!-- Node28 -->
<g id="node28" class="node"><title>Node28</title>
<g id="a_node28"><a xlink:href="dc/ddc/classo2_1_1ITSMFT_1_1SDigit.html" target="_top" xlink:title="o2::ITSMFT::SDigit">
<polygon fill="none" stroke="black" points="109,-76.5 109,-95.5 211,-95.5 211,-76.5 109,-76.5"/>
<text text-anchor="middle" x="160" y="-83.5" font-family="Helvetica,sans-Serif" font-size="10.00">o2::ITSMFT::SDigit</text>
</a>
</g>
</g>
<!-- Node1&#45;&gt;Node28 -->
<g id="edge27" class="edge"><title>Node1&#45;&gt;Node28</title>
<path fill="none" stroke="midnightblue" d="M26.1572,-313.113C25.4346,-269.112 30.1627,-162.841 88,-105 93.7744,-99.2253 101.099,-95.1504 108.838,-92.2864"/>
<polygon fill="midnightblue" stroke="midnightblue" points="22.6586,-313.218 26.4383,-323.115 29.6559,-313.021 22.6586,-313.218"/>
</g>
<!-- Node29 -->
<g id="node29" class="node"><title>Node29</title>
<g id="a_node29"><a xlink:href="db/d73/classo2_1_1phos_1_1Digitizer.html" target="_top" xlink:title="o2::phos::Digitizer">
<polygon fill="none" stroke="black" points="112,-38.5 112,-57.5 208,-57.5 208,-38.5 112,-38.5"/>
<text text-anchor="middle" x="160" y="-45.5" font-family="Helvetica,sans-Serif" font-size="10.00">o2::phos::Digitizer</text>
</a>
</g>
</g>
<!-- Node1&#45;&gt;Node29 -->
<g id="edge28" class="edge"><title>Node1&#45;&gt;Node29</title>
<path fill="none" stroke="midnightblue" d="M28.9272,-313.097C34.6984,-257.564 53.6064,-102.657 88,-67 94.4668,-60.2957 103.019,-55.87 111.941,-52.9685"/>
<polygon fill="midnightblue" stroke="midnightblue" points="25.4133,-313.06 27.8942,-323.361 32.3781,-313.761 25.4133,-313.06"/>
</g>
<!-- Node30 -->
<g id="node30" class="node"><title>Node30</title>
<g id="a_node30"><a xlink:href="d7/d2d/classo2_1_1TObjectWrapper.html" target="_top" xlink:title="o2::TObjectWrapper\&lt; T \&gt;">
<polygon fill="none" stroke="black" points="96,-0.5 96,-19.5 224,-19.5 224,-0.5 96,-0.5"/>
<text text-anchor="middle" x="160" y="-7.5" font-family="Helvetica,sans-Serif" font-size="10.00">o2::TObjectWrapper&lt; T &gt;</text>
</a>
</g>
</g>
<!-- Node1&#45;&gt;Node30 -->
<g id="edge29" class="edge"><title>Node1&#45;&gt;Node30</title>
<path fill="none" stroke="midnightblue" d="M28.3064,-313.105C32.696,-252.324 48.8946,-70.6688 88,-29 91.5801,-25.1852 95.8347,-22.1049 100.456,-19.6219"/>
<polygon fill="midnightblue" stroke="midnightblue" points="24.801,-313.064 27.6019,-323.281 31.7843,-313.547 24.801,-313.064"/>
</g>
<!-- Node10 -->
<g id="node10" class="node"><title>Node10</title>
<g id="a_node10"><a xlink:href="da/d4b/classo2_1_1ccdb_1_1FileStorage.html" target="_top" xlink:title="o2::ccdb::FileStorage">
<polygon fill="none" stroke="black" points="297,-532.5 297,-551.5 407,-551.5 407,-532.5 297,-532.5"/>
<text text-anchor="middle" x="352" y="-539.5" font-family="Helvetica,sans-Serif" font-size="10.00">o2::ccdb::FileStorage</text>
</a>
</g>
</g>
<!-- Node9&#45;&gt;Node10 -->
<g id="edge9" class="edge"><title>Node9&#45;&gt;Node10</title>
<path fill="none" stroke="midnightblue" d="M216.891,-398.958C222.442,-401.534 227.629,-404.819 232,-409 270.395,-445.727 228.942,-486.978 268,-523 276.041,-530.416 286.369,-535.132 296.989,-538.09"/>
<polygon fill="midnightblue" stroke="midnightblue" points="217.876,-395.587 207.286,-395.258 215.359,-402.119 217.876,-395.587"/>
</g>
<!-- Node11 -->
<g id="node11" class="node"><title>Node11</title>
<g id="a_node11"><a xlink:href="dd/d22/classo2_1_1ccdb_1_1GridStorage.html" target="_top" xlink:title="o2::ccdb::GridStorage">
<polygon fill="none" stroke="black" points="296,-494.5 296,-513.5 408,-513.5 408,-494.5 296,-494.5"/>
<text text-anchor="middle" x="352" y="-501.5" font-family="Helvetica,sans-Serif" font-size="10.00">o2::ccdb::GridStorage</text>
</a>
</g>
</g>
<!-- Node9&#45;&gt;Node11 -->
<g id="edge10" class="edge"><title>Node9&#45;&gt;Node11</title>
<path fill="none" stroke="midnightblue" d="M216.572,-399.672C222.138,-402.12 227.417,-405.179 232,-409 260.708,-432.933 238.861,-461.594 268,-485 276.067,-491.48 285.929,-495.837 296,-498.747"/>
<polygon fill="midnightblue" stroke="midnightblue" points="217.597,-396.319 207.005,-396.102 215.15,-402.877 217.597,-396.319"/>
</g>
<!-- Node12 -->
<g id="node12" class="node"><title>Node12</title>
<g id="a_node12"><a xlink:href="d4/d9c/classo2_1_1ccdb_1_1LocalStorage.html" target="_top" xlink:title="o2::ccdb::LocalStorage">
<polygon fill="none" stroke="black" points="293.5,-456.5 293.5,-475.5 410.5,-475.5 410.5,-456.5 293.5,-456.5"/>
<text text-anchor="middle" x="352" y="-463.5" font-family="Helvetica,sans-Serif" font-size="10.00">o2::ccdb::LocalStorage</text>
</a>
</g>
</g>
<!-- Node9&#45;&gt;Node12 -->
<g id="edge11" class="edge"><title>Node9&#45;&gt;Node12</title>
<path fill="none" stroke="midnightblue" d="M216.826,-401.725C222.121,-403.78 227.272,-406.185 232,-409 251.991,-420.9 247.796,-435.466 268,-447 275.703,-451.397 284.354,-454.777 293.086,-457.375"/>
<polygon fill="midnightblue" stroke="midnightblue" points="217.791,-398.356 207.196,-398.394 215.502,-404.971 217.791,-398.356"/>
</g>
<!-- Node14 -->
<g id="node14" class="node"><title>Node14</title>
<g id="a_node14"><a xlink:href="d4/d72/classo2_1_1ccdb_1_1FileStorageFactory.html" target="_top" xlink:title="o2::ccdb::FileStorageFactory">
<polygon fill="none" stroke="black" points="280.5,-418.5 280.5,-437.5 423.5,-437.5 423.5,-418.5 280.5,-418.5"/>
<text text-anchor="middle" x="352" y="-425.5" font-family="Helvetica,sans-Serif" font-size="10.00">o2::ccdb::FileStorageFactory</text>
</a>
</g>
</g>
<!-- Node13&#45;&gt;Node14 -->
<g id="edge13" class="edge"><title>Node13&#45;&gt;Node14</title>
<path fill="none" stroke="midnightblue" d="M220.46,-365.202C224.473,-366.91 228.361,-368.834 232,-371 251.991,-382.9 247.796,-397.466 268,-409 274.804,-412.884 282.348,-415.975 290.035,-418.433"/>
<polygon fill="midnightblue" stroke="midnightblue" points="221.524,-361.862 210.932,-361.596 219.046,-368.409 221.524,-361.862"/>
</g>
<!-- Node15 -->
<g id="node15" class="node"><title>Node15</title>
<g id="a_node15"><a xlink:href="db/da9/classo2_1_1ccdb_1_1GridStorageFactory.html" target="_top" xlink:title="o2::ccdb::GridStorageFactory">
<polygon fill="none" stroke="black" points="279.5,-380.5 279.5,-399.5 424.5,-399.5 424.5,-380.5 279.5,-380.5"/>
<text text-anchor="middle" x="352" y="-387.5" font-family="Helvetica,sans-Serif" font-size="10.00">o2::ccdb::GridStorageFactory</text>
</a>
</g>
</g>
<!-- Node13&#45;&gt;Node15 -->
<g id="edge14" class="edge"><title>Node13&#45;&gt;Node15</title>
<path fill="none" stroke="midnightblue" d="M219.048,-363.61C246.07,-369.014 277.818,-375.364 303.4,-380.48"/>
<polygon fill="midnightblue" stroke="midnightblue" points="219.437,-360.118 208.945,-361.589 218.064,-366.982 219.437,-360.118"/>
</g>
<!-- Node16 -->
<g id="node16" class="node"><title>Node16</title>
<g id="a_node16"><a xlink:href="df/d0a/classo2_1_1ccdb_1_1LocalStorageFactory.html" target="_top" xlink:title="o2::ccdb::LocalStorageFactory">
<polygon fill="none" stroke="black" points="277,-342.5 277,-361.5 427,-361.5 427,-342.5 277,-342.5"/>
<text text-anchor="middle" x="352" y="-349.5" font-family="Helvetica,sans-Serif" font-size="10.00">o2::ccdb::LocalStorageFactory</text>
</a>
</g>
</g>
<!-- Node13&#45;&gt;Node16 -->
<g id="edge15" class="edge"><title>Node13&#45;&gt;Node16</title>
<path fill="none" stroke="midnightblue" d="M233.843,-352C247.91,-352 262.664,-352 276.775,-352"/>
<polygon fill="midnightblue" stroke="midnightblue" points="233.74,-348.5 223.74,-352 233.74,-355.5 233.74,-348.5"/>
</g>
<!-- Node18 -->
<g id="node18" class="node"><title>Node18</title>
<g id="a_node18"><a xlink:href="df/d4d/classo2_1_1ccdb_1_1FileStorageParameters.html" target="_top" xlink:title="o2::ccdb::FileStorageParameters">
<polygon fill="none" stroke="black" points="272,-304.5 272,-323.5 432,-323.5 432,-304.5 272,-304.5"/>
<text text-anchor="middle" x="352" y="-311.5" font-family="Helvetica,sans-Serif" font-size="10.00">o2::ccdb::FileStorageParameters</text>
</a>
</g>
</g>
<!-- Node17&#45;&gt;Node18 -->
<g id="edge17" class="edge"><title>Node17&#45;&gt;Node18</title>
<path fill="none" stroke="midnightblue" d="M242.156,-314C251.97,-314 261.985,-314 271.771,-314"/>
<polygon fill="midnightblue" stroke="midnightblue" points="242.019,-310.5 232.019,-314 242.019,-317.5 242.019,-310.5"/>
</g>
<!-- Node19 -->
<g id="node19" class="node"><title>Node19</title>
<g id="a_node19"><a xlink:href="d7/d66/classo2_1_1ccdb_1_1GridStorageParameters.html" target="_top" xlink:title="o2::ccdb::GridStorageParameters">
<polygon fill="none" stroke="black" points="271,-266.5 271,-285.5 433,-285.5 433,-266.5 271,-266.5"/>
<text text-anchor="middle" x="352" y="-273.5" font-family="Helvetica,sans-Serif" font-size="10.00">o2::ccdb::GridStorageParameters</text>
</a>
</g>
</g>
<!-- Node17&#45;&gt;Node19 -->
<g id="edge18" class="edge"><title>Node17&#45;&gt;Node19</title>
<path fill="none" stroke="midnightblue" d="M219.048,-302.39C246.07,-296.986 277.818,-290.636 303.4,-285.52"/>
<polygon fill="midnightblue" stroke="midnightblue" points="218.064,-299.018 208.945,-304.411 219.437,-305.882 218.064,-299.018"/>
</g>
<!-- Node20 -->
<g id="node20" class="node"><title>Node20</title>
<g id="a_node20"><a xlink:href="d1/da8/classo2_1_1ccdb_1_1LocalStorageParameters.html" target="_top" xlink:title="o2::ccdb::LocalStorageParameters">
<polygon fill="none" stroke="black" points="268.5,-228.5 268.5,-247.5 435.5,-247.5 435.5,-228.5 268.5,-228.5"/>
<text text-anchor="middle" x="352" y="-235.5" font-family="Helvetica,sans-Serif" font-size="10.00">o2::ccdb::LocalStorageParameters</text>
</a>
</g>
</g>
<!-- Node17&#45;&gt;Node20 -->
<g id="edge19" class="edge"><title>Node17&#45;&gt;Node20</title>
<path fill="none" stroke="midnightblue" d="M220.46,-300.798C224.473,-299.09 228.361,-297.166 232,-295 251.991,-283.1 247.796,-268.534 268,-257 274.804,-253.116 282.348,-250.025 290.035,-247.567"/>
<polygon fill="midnightblue" stroke="midnightblue" points="219.046,-297.591 210.932,-304.404 221.524,-304.138 219.046,-297.591"/>
</g>
<!-- Node24 -->
<g id="node24" class="node"><title>Node24</title>
<g id="a_node24"><a xlink:href="df/daf/classo2_1_1ITS_1_1V1Layer.html" target="_top" xlink:title="o2::ITS::V1Layer">
<polygon fill="none" stroke="black" points="306.5,-190.5 306.5,-209.5 397.5,-209.5 397.5,-190.5 306.5,-190.5"/>
<text text-anchor="middle" x="352" y="-197.5" font-family="Helvetica,sans-Serif" font-size="10.00">o2::ITS::V1Layer</text>
</a>
</g>
</g>
<!-- Node23&#45;&gt;Node24 -->
<g id="edge23" class="edge"><title>Node23&#45;&gt;Node24</title>
<path fill="none" stroke="midnightblue" d="M227.909,-200C253.884,-200 282.937,-200 306.292,-200"/>
<polygon fill="midnightblue" stroke="midnightblue" points="227.749,-196.5 217.749,-200 227.749,-203.5 227.749,-196.5"/>
</g>
<!-- Node25 -->
<g id="node25" class="node"><title>Node25</title>
<g id="a_node25"><a xlink:href="d5/de4/classo2_1_1ITS_1_1V3Layer.html" target="_top" xlink:title="o2::ITS::V3Layer">
<polygon fill="none" stroke="black" points="306.5,-152.5 306.5,-171.5 397.5,-171.5 397.5,-152.5 306.5,-152.5"/>
<text text-anchor="middle" x="352" y="-159.5" font-family="Helvetica,sans-Serif" font-size="10.00">o2::ITS::V3Layer</text>
</a>
</g>
</g>
<!-- Node23&#45;&gt;Node25 -->
<g id="edge24" class="edge"><title>Node23&#45;&gt;Node25</title>
<path fill="none" stroke="midnightblue" d="M219.033,-188.393C247.101,-182.78 280.27,-176.146 306.333,-170.933"/>
<polygon fill="midnightblue" stroke="midnightblue" points="218.064,-185.018 208.945,-190.411 219.437,-191.882 218.064,-185.018"/>
</g>
</g>
</svg>
