<?xml version="1.0" encoding="UTF-8" standalone="no"?>
<!DOCTYPE svg PUBLIC "-//W3C//DTD SVG 1.1//EN"
 "http://www.w3.org/Graphics/SVG/1.1/DTD/svg11.dtd">
<!-- Generated by graphviz version 2.36.0 (20140111.2315)
 -->
<!-- Title: Graphical Class Hierarchy Pages: 1 -->
<svg width="260pt" height="109pt"
 viewBox="0.00 0.00 260.00 109.00" xmlns="http://www.w3.org/2000/svg" xmlns:xlink="http://www.w3.org/1999/xlink">
<g id="graph0" class="graph" transform="scale(1 1) rotate(0) translate(4 105)">
<title>Graphical Class Hierarchy</title>
<!-- Node1 -->
<g id="node1" class="node"><title>Node1</title>
<g id="a_node1"><a xlink:href="d8/dcb/classbaseclass.html" target="_top" xlink:title="baseclass">
<polygon fill="none" stroke="black" points="0.5,-35.5 0.5,-54.5 61.5,-54.5 61.5,-35.5 0.5,-35.5"/>
<text text-anchor="middle" x="31" y="-42.5" font-family="Helvetica,sans-Serif" font-size="10.00">baseclass</text>
</a>
</g>
</g>
<!-- Node2 -->
<g id="node2" class="node"><title>Node2</title>
<g id="a_node2"><a xlink:href="d5/d13/classpcg__detail_1_1extended.html" target="_top" xlink:title="pcg_detail::extended\l\&lt; table_pow2, advance\l_pow2, baseclass, extvalclass,\l kdd \&gt;">
<polygon fill="none" stroke="black" points="98,-49 98,-101 252,-101 252,-49 98,-49"/>
<text text-anchor="start" x="106" y="-89" font-family="Helvetica,sans-Serif" font-size="10.00">pcg_detail::extended</text>
<text text-anchor="start" x="106" y="-78" font-family="Helvetica,sans-Serif" font-size="10.00">&lt; table_pow2, advance</text>
<text text-anchor="start" x="106" y="-67" font-family="Helvetica,sans-Serif" font-size="10.00">_pow2, baseclass, extvalclass,</text>
<text text-anchor="middle" x="175" y="-56" font-family="Helvetica,sans-Serif" font-size="10.00"> kdd &gt;</text>
</a>
</g>
</g>
<!-- Node1&#45;&gt;Node2 -->
<g id="edge1" class="edge"><title>Node1&#45;&gt;Node2</title>
<path fill="none" stroke="midnightblue" d="M71.7139,-53.3903C79.8927,-55.1182 88.764,-56.9924 97.748,-58.8904"/>
<polygon fill="midnightblue" stroke="midnightblue" points="72.2754,-49.9317 61.7679,-51.289 70.8284,-56.7805 72.2754,-49.9317"/>
</g>
<!-- Node3 -->
<g id="node3" class="node"><title>Node3</title>
<g id="a_node3"><a xlink:href="d4/d5e/structpcg__detail_1_1inside__out.html" target="_top" xlink:title="pcg_detail::inside\l_out\&lt; baseclass \&gt;">
<polygon fill="none" stroke="black" points="126,-0 126,-30 224,-30 224,-0 126,-0"/>
<text text-anchor="start" x="134" y="-18" font-family="Helvetica,sans-Serif" font-size="10.00">pcg_detail::inside</text>
<text text-anchor="middle" x="175" y="-7" font-family="Helvetica,sans-Serif" font-size="10.00">_out&lt; baseclass &gt;</text>
</a>
</g>
</g>
<!-- Node1&#45;&gt;Node3 -->
<g id="edge2" class="edge"><title>Node1&#45;&gt;Node3</title>
<path fill="none" stroke="#8b1a1a" d="M71.793,-36.593C88.5678,-33.0491 108.244,-28.8921 125.829,-25.1769"/>
<polygon fill="#8b1a1a" stroke="#8b1a1a" points="70.8284,-33.2195 61.7679,-38.711 72.2754,-40.0683 70.8284,-33.2195"/>
</g>
</g>
</svg>
