<?xml version="1.0" encoding="UTF-8" standalone="no"?>
<!DOCTYPE svg PUBLIC "-//W3C//DTD SVG 1.1//EN"
 "http://www.w3.org/Graphics/SVG/1.1/DTD/svg11.dtd">
<!-- Generated by graphviz version 2.36.0 (20140111.2315)
 -->
<!-- Title: Graphical Class Hierarchy Pages: 1 -->
<svg width="280pt" height="66pt"
 viewBox="0.00 0.00 280.00 66.00" xmlns="http://www.w3.org/2000/svg" xmlns:xlink="http://www.w3.org/1999/xlink">
<g id="graph0" class="graph" transform="scale(1 1) rotate(0) translate(4 62)">
<title>Graphical Class Hierarchy</title>
<!-- Node1 -->
<g id="node1" class="node"><title>Node1</title>
<g id="a_node1"><a xlink:href="db/d08/classo2_1_1ITS_1_1VertexerBase.html" target="_top" xlink:title="o2::ITS::VertexerBase">
<polygon fill="none" stroke="black" points="0,-19.5 0,-38.5 114,-38.5 114,-19.5 0,-19.5"/>
<text text-anchor="middle" x="57" y="-26.5" font-family="Helvetica,sans-Serif" font-size="10.00">o2::ITS::VertexerBase</text>
</a>
</g>
</g>
<!-- Node2 -->
<g id="node2" class="node"><title>Node2</title>
<g id="a_node2"><a xlink:href="df/dab/classo2_1_1ITS_1_1VertexerCPU.html" target="_top" xlink:title="o2::ITS::VertexerCPU">
<polygon fill="none" stroke="black" points="154.5,-38.5 154.5,-57.5 267.5,-57.5 267.5,-38.5 154.5,-38.5"/>
<text text-anchor="middle" x="211" y="-45.5" font-family="Helvetica,sans-Serif" font-size="10.00">o2::ITS::VertexerCPU</text>
</a>
</g>
</g>
<!-- Node1&#45;&gt;Node2 -->
<g id="edge1" class="edge"><title>Node1&#45;&gt;Node2</title>
<path fill="none" stroke="midnightblue" d="M124.13,-37.2663C134.198,-38.5248 144.502,-39.8127 154.317,-41.0396"/>
<polygon fill="midnightblue" stroke="midnightblue" points="124.524,-33.7884 114.167,-36.0209 123.656,-40.7343 124.524,-33.7884"/>
</g>
<!-- Node3 -->
<g id="node3" class="node"><title>Node3</title>
<g id="a_node3"><a xlink:href="db/df1/classo2_1_1ITS_1_1VertexerCUDA.html" target="_top" xlink:title="o2::ITS::VertexerCUDA">
<polygon fill="none" stroke="black" points="150.5,-0.5 150.5,-19.5 271.5,-19.5 271.5,-0.5 150.5,-0.5"/>
<text text-anchor="middle" x="211" y="-7.5" font-family="Helvetica,sans-Serif" font-size="10.00">o2::ITS::VertexerCUDA</text>
</a>
</g>
</g>
<!-- Node1&#45;&gt;Node3 -->
<g id="edge2" class="edge"><title>Node1&#45;&gt;Node3</title>
<path fill="none" stroke="midnightblue" d="M124.293,-20.7134C133.01,-19.6238 141.9,-18.5125 150.495,-17.4382"/>
<polygon fill="midnightblue" stroke="midnightblue" points="123.656,-17.2657 114.167,-21.9791 124.524,-24.2116 123.656,-17.2657"/>
</g>
</g>
</svg>
