<?xml version="1.0" encoding="UTF-8" standalone="no"?>
<!DOCTYPE svg PUBLIC "-//W3C//DTD SVG 1.1//EN"
 "http://www.w3.org/Graphics/SVG/1.1/DTD/svg11.dtd">
<!-- Generated by graphviz version 2.36.0 (20140111.2315)
 -->
<!-- Title: Graphical Class Hierarchy Pages: 1 -->
<svg width="510pt" height="121pt"
 viewBox="0.00 0.00 510.00 121.00" xmlns="http://www.w3.org/2000/svg" xmlns:xlink="http://www.w3.org/1999/xlink">
<g id="graph0" class="graph" transform="scale(1 1) rotate(0) translate(4 117)">
<title>Graphical Class Hierarchy</title>
<!-- Node1 -->
<g id="node1" class="node"><title>Node1</title>
<g id="a_node1"><a xlink:href="d2/d25/classo2_1_1data__compression_1_1ContiguousAlphabet.html" target="_top" xlink:title="o2::data_compression\l::ContiguousAlphabet\l\&lt; T, 0, _max, NameT \&gt;">
<polygon fill="none" stroke="black" points="0,-38.5 0,-79.5 120,-79.5 120,-38.5 0,-38.5"/>
<text text-anchor="start" x="8" y="-67.5" font-family="Helvetica,sans-Serif" font-size="10.00">o2::data_compression</text>
<text text-anchor="start" x="8" y="-56.5" font-family="Helvetica,sans-Serif" font-size="10.00">::ContiguousAlphabet</text>
<text text-anchor="middle" x="60" y="-45.5" font-family="Helvetica,sans-Serif" font-size="10.00">&lt; T, 0, _max, NameT &gt;</text>
</a>
</g>
</g>
<!-- Node2 -->
<g id="node2" class="node"><title>Node2</title>
<g id="a_node2"><a xlink:href="d4/d34/classo2_1_1data__compression_1_1ZeroBoundContiguousAlphabet.html" target="_top" xlink:title="o2::data_compression\l::ZeroBoundContiguousAlphabet\l\&lt; T, _max, NameT \&gt;">
<polygon fill="none" stroke="black" points="156,-71.5 156,-112.5 314,-112.5 314,-71.5 156,-71.5"/>
<text text-anchor="start" x="164" y="-100.5" font-family="Helvetica,sans-Serif" font-size="10.00">o2::data_compression</text>
<text text-anchor="start" x="164" y="-89.5" font-family="Helvetica,sans-Serif" font-size="10.00">::ZeroBoundContiguousAlphabet</text>
<text text-anchor="middle" x="235" y="-78.5" font-family="Helvetica,sans-Serif" font-size="10.00">&lt; T, _max, NameT &gt;</text>
</a>
</g>
</g>
<!-- Node1&#45;&gt;Node2 -->
<g id="edge1" class="edge"><title>Node1&#45;&gt;Node2</title>
<path fill="none" stroke="midnightblue" d="M129.95,-72.1524C138.493,-73.7818 147.273,-75.4568 155.94,-77.1099"/>
<polygon fill="midnightblue" stroke="midnightblue" points="130.532,-68.7002 120.053,-70.2644 129.22,-75.5763 130.532,-68.7002"/>
</g>
<!-- Node3 -->
<g id="node3" class="node"><title>Node3</title>
<g id="a_node3"><a xlink:href="d4/d34/classo2_1_1data__compression_1_1ZeroBoundContiguousAlphabet.html" target="_top" xlink:title="o2::data_compression\l::ZeroBoundContiguousAlphabet\l\&lt; T, getmax\&lt; T, _nbits \&gt;::\lvalue, NameT \&gt;">
<polygon fill="none" stroke="black" points="156,-0 156,-52 314,-52 314,-0 156,-0"/>
<text text-anchor="start" x="164" y="-40" font-family="Helvetica,sans-Serif" font-size="10.00">o2::data_compression</text>
<text text-anchor="start" x="164" y="-29" font-family="Helvetica,sans-Serif" font-size="10.00">::ZeroBoundContiguousAlphabet</text>
<text text-anchor="start" x="164" y="-18" font-family="Helvetica,sans-Serif" font-size="10.00">&lt; T, getmax&lt; T, _nbits &gt;::</text>
<text text-anchor="middle" x="235" y="-7" font-family="Helvetica,sans-Serif" font-size="10.00">value, NameT &gt;</text>
</a>
</g>
</g>
<!-- Node1&#45;&gt;Node3 -->
<g id="edge2" class="edge"><title>Node1&#45;&gt;Node3</title>
<path fill="none" stroke="midnightblue" d="M129.95,-45.8476C138.493,-44.2182 147.273,-42.5432 155.94,-40.8901"/>
<polygon fill="midnightblue" stroke="midnightblue" points="129.22,-42.4237 120.053,-47.7356 130.532,-49.2998 129.22,-42.4237"/>
</g>
<!-- Node4 -->
<g id="node4" class="node"><title>Node4</title>
<g id="a_node4"><a xlink:href="df/dd8/classo2_1_1data__compression_1_1BitRangeContiguousAlphabet.html" target="_top" xlink:title="o2::data_compression\l::BitRangeContiguousAlphabet\l\&lt; T, _nbits, NameT \&gt;">
<polygon fill="none" stroke="black" points="350.5,-5.5 350.5,-46.5 501.5,-46.5 501.5,-5.5 350.5,-5.5"/>
<text text-anchor="start" x="358.5" y="-34.5" font-family="Helvetica,sans-Serif" font-size="10.00">o2::data_compression</text>
<text text-anchor="start" x="358.5" y="-23.5" font-family="Helvetica,sans-Serif" font-size="10.00">::BitRangeContiguousAlphabet</text>
<text text-anchor="middle" x="426" y="-12.5" font-family="Helvetica,sans-Serif" font-size="10.00">&lt; T, _nbits, NameT &gt;</text>
</a>
</g>
</g>
<!-- Node3&#45;&gt;Node4 -->
<g id="edge3" class="edge"><title>Node3&#45;&gt;Node4</title>
<path fill="none" stroke="midnightblue" d="M324.416,-26C333.129,-26 341.911,-26 350.464,-26"/>
<polygon fill="midnightblue" stroke="midnightblue" points="324.238,-22.5001 314.238,-26 324.238,-29.5001 324.238,-22.5001"/>
</g>
</g>
</svg>
