<?xml version="1.0" encoding="UTF-8" standalone="no"?>
<!DOCTYPE svg PUBLIC "-//W3C//DTD SVG 1.1//EN"
 "http://www.w3.org/Graphics/SVG/1.1/DTD/svg11.dtd">
<!-- Generated by graphviz version 2.36.0 (20140111.2315)
 -->
<!-- Title: Graphical Class Hierarchy Pages: 1 -->
<svg width="502pt" height="446pt"
 viewBox="0.00 0.00 502.00 446.00" xmlns="http://www.w3.org/2000/svg" xmlns:xlink="http://www.w3.org/1999/xlink">
<g id="graph0" class="graph" transform="scale(1 1) rotate(0) translate(4 442)">
<title>Graphical Class Hierarchy</title>
<!-- Node1 -->
<g id="node1" class="node"><title>Node1</title>
<g id="a_node1"><a xlink:href="d6/d0c/classFairDetector.html" target="_top" xlink:title="FairDetector">
<polygon fill="none" stroke="black" points="0.5,-166.5 0.5,-185.5 71.5,-185.5 71.5,-166.5 0.5,-166.5"/>
<text text-anchor="middle" x="36" y="-173.5" font-family="Helvetica,sans-Serif" font-size="10.00">FairDetector</text>
</a>
</g>
</g>
<!-- Node2 -->
<g id="node2" class="node"><title>Node2</title>
<g id="a_node2"><a xlink:href="d7/d02/classo2_1_1Base_1_1Detector.html" target="_top" xlink:title="o2::Base::Detector">
<polygon fill="none" stroke="black" points="108.5,-185.5 108.5,-204.5 207.5,-204.5 207.5,-185.5 108.5,-185.5"/>
<text text-anchor="middle" x="158" y="-192.5" font-family="Helvetica,sans-Serif" font-size="10.00">o2::Base::Detector</text>
</a>
</g>
</g>
<!-- Node1&#45;&gt;Node2 -->
<g id="edge1" class="edge"><title>Node1&#45;&gt;Node2</title>
<path fill="none" stroke="midnightblue" d="M81.5911,-183.06C90.2281,-184.428 99.322,-185.868 108.089,-187.256"/>
<polygon fill="midnightblue" stroke="midnightblue" points="82.1333,-179.603 71.709,-181.496 81.0386,-186.516 82.1333,-179.603"/>
</g>
<!-- Node17 -->
<g id="node17" class="node"><title>Node17</title>
<g id="a_node17"><a xlink:href="db/df6/classo2_1_1Passive_1_1Cave.html" target="_top" xlink:title="o2::Passive::Cave">
<polygon fill="none" stroke="black" points="109,-147.5 109,-166.5 207,-166.5 207,-147.5 109,-147.5"/>
<text text-anchor="middle" x="158" y="-154.5" font-family="Helvetica,sans-Serif" font-size="10.00">o2::Passive::Cave</text>
</a>
</g>
</g>
<!-- Node1&#45;&gt;Node17 -->
<g id="edge16" class="edge"><title>Node1&#45;&gt;Node17</title>
<path fill="none" stroke="midnightblue" d="M81.8385,-168.901C90.695,-167.498 100.023,-166.021 108.98,-164.603"/>
<polygon fill="midnightblue" stroke="midnightblue" points="81.0386,-165.484 71.709,-170.504 82.1333,-172.397 81.0386,-165.484"/>
</g>
<!-- Node3 -->
<g id="node3" class="node"><title>Node3</title>
<g id="a_node3"><a xlink:href="d4/d8a/classo2_1_1Base_1_1DetImpl.html" target="_top" xlink:title="o2::Base::DetImpl\&lt;\l Detector \&gt;">
<polygon fill="none" stroke="black" points="244,-204 244,-234 346,-234 346,-204 244,-204"/>
<text text-anchor="start" x="252" y="-222" font-family="Helvetica,sans-Serif" font-size="10.00">o2::Base::DetImpl&lt;</text>
<text text-anchor="middle" x="295" y="-211" font-family="Helvetica,sans-Serif" font-size="10.00"> Detector &gt;</text>
</a>
</g>
</g>
<!-- Node2&#45;&gt;Node3 -->
<g id="edge2" class="edge"><title>Node2&#45;&gt;Node3</title>
<path fill="none" stroke="midnightblue" d="M217.84,-205.46C226.553,-207.009 235.461,-208.593 243.971,-210.106"/>
<polygon fill="midnightblue" stroke="midnightblue" points="218.196,-201.969 207.738,-203.665 216.971,-208.861 218.196,-201.969"/>
</g>
<!-- Node16 -->
<g id="node16" class="node"><title>Node16</title>
<g id="a_node16"><a xlink:href="d4/d8a/classo2_1_1Base_1_1DetImpl.html" target="_top" xlink:title="o2::Base::DetImpl\&lt;\l Det \&gt;">
<polygon fill="none" stroke="black" points="244,-155 244,-185 346,-185 346,-155 244,-155"/>
<text text-anchor="start" x="252" y="-173" font-family="Helvetica,sans-Serif" font-size="10.00">o2::Base::DetImpl&lt;</text>
<text text-anchor="middle" x="295" y="-162" font-family="Helvetica,sans-Serif" font-size="10.00"> Det &gt;</text>
</a>
</g>
</g>
<!-- Node2&#45;&gt;Node16 -->
<g id="edge15" class="edge"><title>Node2&#45;&gt;Node16</title>
<path fill="none" stroke="midnightblue" d="M217.84,-184.104C226.553,-182.49 235.461,-180.841 243.971,-179.265"/>
<polygon fill="midnightblue" stroke="midnightblue" points="216.934,-180.712 207.738,-185.974 218.208,-187.595 216.934,-180.712"/>
</g>
<!-- Node4 -->
<g id="node4" class="node"><title>Node4</title>
<g id="a_node4"><a xlink:href="df/d30/classo2_1_1EMCAL_1_1Detector.html" target="_top" xlink:title="o2::EMCAL::Detector">
<polygon fill="none" stroke="black" points="382.5,-418.5 382.5,-437.5 493.5,-437.5 493.5,-418.5 382.5,-418.5"/>
<text text-anchor="middle" x="438" y="-425.5" font-family="Helvetica,sans-Serif" font-size="10.00">o2::EMCAL::Detector</text>
</a>
</g>
</g>
<!-- Node3&#45;&gt;Node4 -->
<g id="edge3" class="edge"><title>Node3&#45;&gt;Node4</title>
<path fill="none" stroke="midnightblue" d="M300.691,-244.043C309.524,-284.377 332.382,-363.769 382,-409 386.255,-412.879 391.343,-415.973 396.68,-418.439"/>
<polygon fill="midnightblue" stroke="midnightblue" points="304.111,-243.297 298.65,-234.218 297.257,-244.721 304.111,-243.297"/>
</g>
<!-- Node5 -->
<g id="node5" class="node"><title>Node5</title>
<g id="a_node5"><a xlink:href="d2/d64/classo2_1_1fit_1_1Detector.html" target="_top" xlink:title="o2::fit::Detector">
<polygon fill="none" stroke="black" points="395.5,-380.5 395.5,-399.5 480.5,-399.5 480.5,-380.5 395.5,-380.5"/>
<text text-anchor="middle" x="438" y="-387.5" font-family="Helvetica,sans-Serif" font-size="10.00">o2::fit::Detector</text>
</a>
</g>
</g>
<!-- Node3&#45;&gt;Node5 -->
<g id="edge4" class="edge"><title>Node3&#45;&gt;Node5</title>
<path fill="none" stroke="midnightblue" d="M303.788,-243.841C315.514,-277.334 340.822,-336.718 382,-371 386.658,-374.878 392.154,-377.982 397.839,-380.462"/>
<polygon fill="midnightblue" stroke="midnightblue" points="307.094,-242.692 300.582,-234.334 300.461,-244.929 307.094,-242.692"/>
</g>
<!-- Node6 -->
<g id="node6" class="node"><title>Node6</title>
<g id="a_node6"><a xlink:href="dc/daf/classo2_1_1hmpid_1_1Detector.html" target="_top" xlink:title="o2::hmpid::Detector">
<polygon fill="none" stroke="black" points="386.5,-342.5 386.5,-361.5 489.5,-361.5 489.5,-342.5 386.5,-342.5"/>
<text text-anchor="middle" x="438" y="-349.5" font-family="Helvetica,sans-Serif" font-size="10.00">o2::hmpid::Detector</text>
</a>
</g>
</g>
<!-- Node3&#45;&gt;Node6 -->
<g id="edge5" class="edge"><title>Node3&#45;&gt;Node6</title>
<path fill="none" stroke="midnightblue" d="M308.584,-243.304C323.054,-269.011 349.104,-309.087 382,-333 387.23,-336.802 393.282,-339.89 399.419,-342.384"/>
<polygon fill="midnightblue" stroke="midnightblue" points="311.484,-241.314 303.615,-234.22 305.343,-244.673 311.484,-241.314"/>
</g>
<!-- Node7 -->
<g id="node7" class="node"><title>Node7</title>
<g id="a_node7"><a xlink:href="d6/dd3/classo2_1_1ITS_1_1Detector.html" target="_top" xlink:title="o2::ITS::Detector">
<polygon fill="none" stroke="black" points="392,-304.5 392,-323.5 484,-323.5 484,-304.5 392,-304.5"/>
<text text-anchor="middle" x="438" y="-311.5" font-family="Helvetica,sans-Serif" font-size="10.00">o2::ITS::Detector</text>
</a>
</g>
</g>
<!-- Node3&#45;&gt;Node7 -->
<g id="edge6" class="edge"><title>Node3&#45;&gt;Node7</title>
<path fill="none" stroke="midnightblue" d="M316.47,-241.324C332.83,-258.047 357.077,-280.458 382,-295 388.37,-298.717 395.579,-301.859 402.631,-304.451"/>
<polygon fill="midnightblue" stroke="midnightblue" points="318.982,-238.886 309.535,-234.09 313.929,-243.73 318.982,-238.886"/>
</g>
<!-- Node8 -->
<g id="node8" class="node"><title>Node8</title>
<g id="a_node8"><a xlink:href="d5/d10/classo2_1_1mch_1_1Detector.html" target="_top" xlink:title="o2::mch::Detector">
<polygon fill="none" stroke="black" points="390.5,-266.5 390.5,-285.5 485.5,-285.5 485.5,-266.5 390.5,-266.5"/>
<text text-anchor="middle" x="438" y="-273.5" font-family="Helvetica,sans-Serif" font-size="10.00">o2::mch::Detector</text>
</a>
</g>
</g>
<!-- Node3&#45;&gt;Node8 -->
<g id="edge7" class="edge"><title>Node3&#45;&gt;Node8</title>
<path fill="none" stroke="midnightblue" d="M337.752,-238.286C351.716,-244.511 367.434,-251.277 382,-257 390.368,-260.288 399.566,-263.586 408.004,-266.49"/>
<polygon fill="midnightblue" stroke="midnightblue" points="338.956,-234.99 328.4,-234.082 336.086,-241.375 338.956,-234.99"/>
</g>
<!-- Node9 -->
<g id="node9" class="node"><title>Node9</title>
<g id="a_node9"><a xlink:href="dd/d98/classo2_1_1MFT_1_1Detector.html" target="_top" xlink:title="o2::MFT::Detector">
<polygon fill="none" stroke="black" points="389.5,-228.5 389.5,-247.5 486.5,-247.5 486.5,-228.5 389.5,-228.5"/>
<text text-anchor="middle" x="438" y="-235.5" font-family="Helvetica,sans-Serif" font-size="10.00">o2::MFT::Detector</text>
</a>
</g>
</g>
<!-- Node3&#45;&gt;Node9 -->
<g id="edge8" class="edge"><title>Node3&#45;&gt;Node9</title>
<path fill="none" stroke="midnightblue" d="M356.178,-227.109C367.286,-228.606 378.743,-230.15 389.414,-231.588"/>
<polygon fill="midnightblue" stroke="midnightblue" points="356.486,-223.619 346.108,-225.752 355.551,-230.556 356.486,-223.619"/>
</g>
<!-- Node10 -->
<g id="node10" class="node"><title>Node10</title>
<g id="a_node10"><a xlink:href="d2/d45/classo2_1_1mid_1_1Detector.html" target="_top" xlink:title="o2::mid::Detector">
<polygon fill="none" stroke="black" points="392,-190.5 392,-209.5 484,-209.5 484,-190.5 392,-190.5"/>
<text text-anchor="middle" x="438" y="-197.5" font-family="Helvetica,sans-Serif" font-size="10.00">o2::mid::Detector</text>
</a>
</g>
</g>
<!-- Node3&#45;&gt;Node10 -->
<g id="edge9" class="edge"><title>Node3&#45;&gt;Node10</title>
<path fill="none" stroke="midnightblue" d="M356.033,-210.91C368.001,-209.298 380.38,-207.63 391.75,-206.097"/>
<polygon fill="midnightblue" stroke="midnightblue" points="355.551,-207.444 346.108,-212.248 356.486,-214.381 355.551,-207.444"/>
</g>
<!-- Node11 -->
<g id="node11" class="node"><title>Node11</title>
<g id="a_node11"><a xlink:href="d0/d35/classo2_1_1phos_1_1Detector.html" target="_top" xlink:title="Detector class for the PHOS detector. ">
<polygon fill="none" stroke="black" points="389,-152.5 389,-171.5 487,-171.5 487,-152.5 389,-152.5"/>
<text text-anchor="middle" x="438" y="-159.5" font-family="Helvetica,sans-Serif" font-size="10.00">o2::phos::Detector</text>
</a>
</g>
</g>
<!-- Node3&#45;&gt;Node11 -->
<g id="edge10" class="edge"><title>Node3&#45;&gt;Node11</title>
<path fill="none" stroke="midnightblue" d="M337.752,-199.714C351.716,-193.489 367.434,-186.723 382,-181 390.368,-177.712 399.566,-174.414 408.004,-171.51"/>
<polygon fill="midnightblue" stroke="midnightblue" points="336.086,-196.625 328.4,-203.918 338.956,-203.01 336.086,-196.625"/>
</g>
<!-- Node12 -->
<g id="node12" class="node"><title>Node12</title>
<g id="a_node12"><a xlink:href="db/d30/classo2_1_1tof_1_1Detector.html" target="_top" xlink:title="o2::tof::Detector">
<polygon fill="none" stroke="black" points="394,-114.5 394,-133.5 482,-133.5 482,-114.5 394,-114.5"/>
<text text-anchor="middle" x="438" y="-121.5" font-family="Helvetica,sans-Serif" font-size="10.00">o2::tof::Detector</text>
</a>
</g>
</g>
<!-- Node3&#45;&gt;Node12 -->
<g id="edge11" class="edge"><title>Node3&#45;&gt;Node12</title>
<path fill="none" stroke="midnightblue" d="M340.518,-198.282C342.427,-196.918 344.266,-195.49 346,-194 367.043,-175.917 359.819,-159.666 382,-143 387.088,-139.177 393.003,-136.085 399.029,-133.595"/>
<polygon fill="midnightblue" stroke="midnightblue" points="338.344,-195.518 331.802,-203.852 342.113,-201.417 338.344,-195.518"/>
</g>
<!-- Node13 -->
<g id="node13" class="node"><title>Node13</title>
<g id="a_node13"><a xlink:href="d3/dcb/classo2_1_1TPC_1_1Detector.html" target="_top" xlink:title="o2::TPC::Detector">
<polygon fill="none" stroke="black" points="389.5,-76.5 389.5,-95.5 486.5,-95.5 486.5,-76.5 389.5,-76.5"/>
<text text-anchor="middle" x="438" y="-83.5" font-family="Helvetica,sans-Serif" font-size="10.00">o2::TPC::Detector</text>
</a>
</g>
</g>
<!-- Node3&#45;&gt;Node13 -->
<g id="edge12" class="edge"><title>Node3&#45;&gt;Node13</title>
<path fill="none" stroke="midnightblue" d="M342.171,-197.723C343.518,-196.539 344.8,-195.299 346,-194 374.952,-162.657 351.058,-134.381 382,-105 386.102,-101.105 391.042,-98.0042 396.256,-95.5374"/>
<polygon fill="midnightblue" stroke="midnightblue" points="339.807,-195.12 333.874,-203.899 343.986,-200.736 339.807,-195.12"/>
</g>
<!-- Node14 -->
<g id="node14" class="node"><title>Node14</title>
<g id="a_node14"><a xlink:href="d5/da6/classo2_1_1trd_1_1Detector.html" target="_top" xlink:title="o2::trd::Detector">
<polygon fill="none" stroke="black" points="394,-38.5 394,-57.5 482,-57.5 482,-38.5 394,-38.5"/>
<text text-anchor="middle" x="438" y="-45.5" font-family="Helvetica,sans-Serif" font-size="10.00">o2::trd::Detector</text>
</a>
</g>
</g>
<!-- Node3&#45;&gt;Node14 -->
<g id="edge13" class="edge"><title>Node3&#45;&gt;Node14</title>
<path fill="none" stroke="midnightblue" d="M342.906,-197.357C343.997,-196.286 345.033,-195.168 346,-194 383.421,-148.815 341.701,-109.638 382,-67 385.678,-63.1087 390.19,-60.0143 395.034,-57.5536"/>
<polygon fill="midnightblue" stroke="midnightblue" points="340.581,-194.736 335.01,-203.748 344.985,-200.177 340.581,-194.736"/>
</g>
<!-- Node15 -->
<g id="node15" class="node"><title>Node15</title>
<g id="a_node15"><a xlink:href="d4/da3/classo2_1_1zdc_1_1Detector.html" target="_top" xlink:title="o2::zdc::Detector">
<polygon fill="none" stroke="black" points="392,-0.5 392,-19.5 484,-19.5 484,-0.5 392,-0.5"/>
<text text-anchor="middle" x="438" y="-7.5" font-family="Helvetica,sans-Serif" font-size="10.00">o2::zdc::Detector</text>
</a>
</g>
</g>
<!-- Node3&#45;&gt;Node15 -->
<g id="edge14" class="edge"><title>Node3&#45;&gt;Node15</title>
<path fill="none" stroke="midnightblue" d="M343.002,-197.434C344.066,-196.341 345.069,-195.197 346,-194 392.078,-134.75 332.142,-85.1067 382,-29 385.422,-25.1487 389.664,-22.0778 394.263,-19.6293"/>
<polygon fill="midnightblue" stroke="midnightblue" points="340.661,-194.829 335.236,-203.93 345.152,-200.198 340.661,-194.829"/>
</g>
</g>
</svg>
