<?xml version="1.0" encoding="UTF-8" standalone="no"?>
<!DOCTYPE svg PUBLIC "-//W3C//DTD SVG 1.1//EN"
 "http://www.w3.org/Graphics/SVG/1.1/DTD/svg11.dtd">
<!-- Generated by graphviz version 2.36.0 (20140111.2315)
 -->
<!-- Title: o2::framework::gui::WorkspaceGUIState Pages: 1 -->
<!--zoomable 218 -->
<svg id="main" version="1.1" xmlns="http://www.w3.org/2000/svg" xmlns:xlink="http://www.w3.org/1999/xlink" xml:space="preserve" onload="init(evt)">
<style type="text/css"><![CDATA[
.edge:hover path { stroke: red; }
.edge:hover polygon { stroke: red; fill: red; }
]]></style>
<script type="text/javascript"><![CDATA[
var edges = document.getElementsByTagName('g');
if (edges && edges.length) {
  for (var i=0;i<edges.length;i++) {
    if (edges[i].id.substr(0,4)=='edge') {
      edges[i].setAttribute('class','edge');
    }
  }
}
]]></script>
        <defs>
                <circle id="rim" cx="0" cy="0" r="7"/>
                <circle id="rim2" cx="0" cy="0" r="3.5"/>
                <g id="zoomPlus">
                        <use xlink:href="#rim" fill="#404040">
                                <set attributeName="fill" to="#808080" begin="zoomplus.mouseover" end="zoomplus.mouseout"/>
                        </use>
                        <path d="M-4,0h8M0,-4v8" fill="none" stroke="white" stroke-width="1.5" pointer-events="none"/>
                </g>
                <g id="zoomMin">
                        <use xlink:href="#rim" fill="#404040">
                                <set attributeName="fill" to="#808080" begin="zoomminus.mouseover" end="zoomminus.mouseout"/>
                        </use>
                        <path d="M-4,0h8" fill="none" stroke="white" stroke-width="1.5" pointer-events="none"/>
                </g>
                <g id="dirArrow">
                        <path fill="none" stroke="white" stroke-width="1.5" d="M0,-3.0v7 M-2.5,-0.5L0,-3.0L2.5,-0.5"/>
                </g>
               <g id="resetDef">
                       <use xlink:href="#rim2" fill="#404040">
                               <set attributeName="fill" to="#808080" begin="reset.mouseover" end="reset.mouseout"/>
                       </use>
               </g>
        </defs>

<script type="text/javascript">
var viewWidth = 502;
var viewHeight = 218;
var sectionId = 'dynsection-0';
</script>
<script xlink:href="../../svgpan.js"/>
<svg id="graph" class="graph">
<g id="viewport">
<title>o2::framework::gui::WorkspaceGUIState</title>
<!-- Node1 -->
<g id="node1" class="node"><title>Node1</title>
<polygon fill="#bfbfbf" stroke="black" points="166.5,-1 166.5,-69 279.5,-69 279.5,-1 166.5,-1"/>
<text text-anchor="start" x="174.5" y="-57" font-family="Helvetica,sans-Serif" font-size="10.00">o2::framework::gui</text>
<text text-anchor="middle" x="223" y="-46" font-family="Helvetica,sans-Serif" font-size="10.00">::WorkspaceGUIState</text>
<polyline fill="none" stroke="black" points="166.5,-39 279.5,-39 "/>
<text text-anchor="middle" x="223" y="-27" font-family="Helvetica,sans-Serif" font-size="10.00"> </text>
<polyline fill="none" stroke="black" points="166.5,-20 279.5,-20 "/>
<text text-anchor="middle" x="223" y="-8" font-family="Helvetica,sans-Serif" font-size="10.00"> </text>
</g>
<!-- Node2 -->
<g id="node2" class="node"><title>Node2</title>
<g id="a_node2"><a xlink:href="../../d4/dc3/classfloat.html" target="_top" xlink:title="{float\n||}">
<polygon fill="none" stroke="black" points="-0.5,-146.5 -0.5,-203.5 34.5,-203.5 34.5,-146.5 -0.5,-146.5"/>
<text text-anchor="middle" x="17" y="-191.5" font-family="Helvetica,sans-Serif" font-size="10.00">float</text>
<polyline fill="none" stroke="black" points="-0.5,-184.5 34.5,-184.5 "/>
<text text-anchor="middle" x="17" y="-172.5" font-family="Helvetica,sans-Serif" font-size="10.00"> </text>
<polyline fill="none" stroke="black" points="-0.5,-165.5 34.5,-165.5 "/>
<text text-anchor="middle" x="17" y="-153.5" font-family="Helvetica,sans-Serif" font-size="10.00"> </text>
</a>
</g>
</g>
<!-- Node2&#45;&gt;Node1 -->
<g id="edge1" class="edge"><title>Node2&#45;&gt;Node1</title>
<path fill="none" stroke="#404040" d="M17.9392,-146.106C20.041,-127.323 25.8113,-103.282 41,-88 70.682,-58.1347 116.246,-45.1387 154.357,-39.607"/>
<polygon fill="none" stroke="#404040" points="154.536,-39.5842 159.98,-34.8551 166.439,-38.0614 160.995,-42.7905 154.536,-39.5842"/>
<text text-anchor="middle" x="80.5" y="-113.5" font-family="Helvetica,sans-Serif" font-size="10.00"> +rightPaneSize</text>
<text text-anchor="middle" x="80.5" y="-102.5" font-family="Helvetica,sans-Serif" font-size="10.00">+bottomPaneSize</text>
<text text-anchor="middle" x="80.5" y="-91.5" font-family="Helvetica,sans-Serif" font-size="10.00">+leftPaneSize</text>
</g>
<!-- Node3 -->
<g id="node3" class="node"><title>Node3</title>
<g id="a_node3"><a xlink:href="../../dd/de2/classsize__t.html" target="_top" xlink:title="{size_t\n||}">
<polygon fill="none" stroke="black" points="97.5,-146.5 97.5,-203.5 140.5,-203.5 140.5,-146.5 97.5,-146.5"/>
<text text-anchor="middle" x="119" y="-191.5" font-family="Helvetica,sans-Serif" font-size="10.00">size_t</text>
<polyline fill="none" stroke="black" points="97.5,-184.5 140.5,-184.5 "/>
<text text-anchor="middle" x="119" y="-172.5" font-family="Helvetica,sans-Serif" font-size="10.00"> </text>
<polyline fill="none" stroke="black" points="97.5,-165.5 140.5,-165.5 "/>
<text text-anchor="middle" x="119" y="-153.5" font-family="Helvetica,sans-Serif" font-size="10.00"> </text>
</a>
</g>
</g>
<!-- Node3&#45;&gt;Node1 -->
<g id="edge2" class="edge"><title>Node3&#45;&gt;Node1</title>
<path fill="none" stroke="#404040" d="M119.65,-146.186C121.316,-128.143 125.924,-104.93 138,-88 143.111,-80.835 149.547,-74.4641 156.581,-68.8547"/>
<polygon fill="none" stroke="#404040" points="156.762,-68.7234 159.268,-61.9617 166.473,-61.6744 163.967,-68.4361 156.762,-68.7234"/>
<text text-anchor="middle" x="178.5" y="-108" font-family="Helvetica,sans-Serif" font-size="10.00"> +metricMinRange</text>
<text text-anchor="middle" x="178.5" y="-97" font-family="Helvetica,sans-Serif" font-size="10.00">+metricMaxRange</text>
</g>
<!-- Node4 -->
<g id="node4" class="node"><title>Node4</title>
<g id="a_node4"><a xlink:href="../../d1/da0/classint.html" target="_top" xlink:title="{int\n||}">
<polygon fill="none" stroke="black" points="208.5,-146.5 208.5,-203.5 237.5,-203.5 237.5,-146.5 208.5,-146.5"/>
<text text-anchor="middle" x="223" y="-191.5" font-family="Helvetica,sans-Serif" font-size="10.00">int</text>
<polyline fill="none" stroke="black" points="208.5,-184.5 237.5,-184.5 "/>
<text text-anchor="middle" x="223" y="-172.5" font-family="Helvetica,sans-Serif" font-size="10.00"> </text>
<polyline fill="none" stroke="black" points="208.5,-165.5 237.5,-165.5 "/>
<text text-anchor="middle" x="223" y="-153.5" font-family="Helvetica,sans-Serif" font-size="10.00"> </text>
</a>
</g>
</g>
<!-- Node4&#45;&gt;Node1 -->
<g id="edge3" class="edge"><title>Node4&#45;&gt;Node1</title>
<path fill="none" stroke="#404040" d="M223,-146.405C223,-127.798 223,-102.815 223,-81.3206"/>
<polygon fill="none" stroke="#404040" points="223,-81.1429 219,-75.1429 223,-69.1429 227,-75.1429 223,-81.1429"/>
<text text-anchor="middle" x="259.5" y="-102.5" font-family="Helvetica,sans-Serif" font-size="10.00"> +selectedMetric</text>
</g>
<!-- Node5 -->
<g id="node5" class="node"><title>Node5</title>
<polygon fill="none" stroke="#bfbfbf" points="301.5,-146.5 301.5,-203.5 336.5,-203.5 336.5,-146.5 301.5,-146.5"/>
<text text-anchor="middle" x="319" y="-191.5" font-family="Helvetica,sans-Serif" font-size="10.00">bool</text>
<polyline fill="none" stroke="#bfbfbf" points="301.5,-184.5 336.5,-184.5 "/>
<text text-anchor="middle" x="319" y="-172.5" font-family="Helvetica,sans-Serif" font-size="10.00"> </text>
<polyline fill="none" stroke="#bfbfbf" points="301.5,-165.5 336.5,-165.5 "/>
<text text-anchor="middle" x="319" y="-153.5" font-family="Helvetica,sans-Serif" font-size="10.00"> </text>
</g>
<!-- Node5&#45;&gt;Node1 -->
<g id="edge4" class="edge"><title>Node5&#45;&gt;Node1</title>
<path fill="none" stroke="#404040" d="M316.881,-146.395C314.374,-128.44 308.91,-105.247 297,-88 294.44,-84.2934 291.525,-80.7645 288.366,-77.4201"/>
<polygon fill="none" stroke="#404040" points="288.209,-77.2706 281.104,-76.0356 279.512,-69.0026 286.616,-70.2375 288.209,-77.2706"/>
<text text-anchor="middle" x="357.5" y="-113.5" font-family="Helvetica,sans-Serif" font-size="10.00"> +bottomPaneVisible</text>
<text text-anchor="middle" x="357.5" y="-102.5" font-family="Helvetica,sans-Serif" font-size="10.00">+rightPaneVisible</text>
<text text-anchor="middle" x="357.5" y="-91.5" font-family="Helvetica,sans-Serif" font-size="10.00">+leftPaneVisible</text>
</g>
<!-- Node6 -->
<g id="node6" class="node"><title>Node6</title>
<polygon fill="none" stroke="#bfbfbf" points="372,-141 372,-209 494,-209 494,-141 372,-141"/>
<text text-anchor="start" x="380" y="-197" font-family="Helvetica,sans-Serif" font-size="10.00">vector&lt; o2::framework</text>
<text text-anchor="middle" x="433" y="-186" font-family="Helvetica,sans-Serif" font-size="10.00">::gui::DeviceGUIState &gt;</text>
<polyline fill="none" stroke="#bfbfbf" points="372,-179 494,-179 "/>
<text text-anchor="middle" x="433" y="-167" font-family="Helvetica,sans-Serif" font-size="10.00"> </text>
<polyline fill="none" stroke="#bfbfbf" points="372,-160 494,-160 "/>
<text text-anchor="middle" x="433" y="-148" font-family="Helvetica,sans-Serif" font-size="10.00"> </text>
</g>
<!-- Node6&#45;&gt;Node1 -->
<g id="edge5" class="edge"><title>Node6&#45;&gt;Node1</title>
<path fill="none" stroke="#404040" d="M430.544,-140.645C427.54,-122.819 421.023,-101.77 407,-88 376.479,-58.0283 330.063,-45.0545 291.487,-39.5603"/>
<polygon fill="none" stroke="#404040" points="291.437,-39.5542 284.985,-42.7738 279.531,-38.056 285.983,-34.8364 291.437,-39.5542"/>
<text text-anchor="middle" x="447.5" y="-102.5" font-family="Helvetica,sans-Serif" font-size="10.00"> +devices</text>
</g>
</g>
</svg>
        <g id="navigator" transform="translate(0 0)" fill="#404254">
                <rect fill="#f2f5e9" fill-opacity="0.5" stroke="#606060" stroke-width=".5" x="0" y="0" width="60" height="60"/>
                <use id="zoomplus" xlink:href="#zoomPlus" x="17" y="9" onmousedown="handleZoom(evt,'in')"/>
                <use id="zoomminus" xlink:href="#zoomMin" x="42" y="9" onmousedown="handleZoom(evt,'out')"/>
                <use id="reset" xlink:href="#resetDef" x="30" y="36" onmousedown="handleReset()"/>
                <g id="arrowUp" xlink:href="#dirArrow" transform="translate(30 24)" onmousedown="handlePan(0,-1)">
                  <use xlink:href="#rim" fill="#404040">
                        <set attributeName="fill" to="#808080" begin="arrowUp.mouseover" end="arrowUp.mouseout"/>
                  </use>
                  <path fill="none" stroke="white" stroke-width="1.5" d="M0,-3.0v7 M-2.5,-0.5L0,-3.0L2.5,-0.5"/>
                </g>
                <g id="arrowRight" xlink:href="#dirArrow" transform="rotate(90) translate(36 -43)" onmousedown="handlePan(1,0)">
                  <use xlink:href="#rim" fill="#404040">
                        <set attributeName="fill" to="#808080" begin="arrowRight.mouseover" end="arrowRight.mouseout"/>
                  </use>
                  <path fill="none" stroke="white" stroke-width="1.5" d="M0,-3.0v7 M-2.5,-0.5L0,-3.0L2.5,-0.5"/>
                </g>
                <g id="arrowDown" xlink:href="#dirArrow" transform="rotate(180) translate(-30 -48)" onmousedown="handlePan(0,1)">
                  <use xlink:href="#rim" fill="#404040">
                        <set attributeName="fill" to="#808080" begin="arrowDown.mouseover" end="arrowDown.mouseout"/>
                  </use>
                  <path fill="none" stroke="white" stroke-width="1.5" d="M0,-3.0v7 M-2.5,-0.5L0,-3.0L2.5,-0.5"/>
                </g>
                <g id="arrowLeft" xlink:href="#dirArrow" transform="rotate(270) translate(-36 17)" onmousedown="handlePan(-1,0)">
                  <use xlink:href="#rim" fill="#404040">
                        <set attributeName="fill" to="#808080" begin="arrowLeft.mouseover" end="arrowLeft.mouseout"/>
                  </use>
                  <path fill="none" stroke="white" stroke-width="1.5" d="M0,-3.0v7 M-2.5,-0.5L0,-3.0L2.5,-0.5"/>
                </g>
        </g>
        <svg viewBox="0 0 15 15" width="100%" height="30px" preserveAspectRatio="xMaxYMin meet">
         <g id="arrow_out" transform="scale(0.3 0.3)">
          <a xlink:href="structo2_1_1framework_1_1gui_1_1WorkspaceGUIState__coll__graph_org.svg" target="_base">
           <rect id="button" ry="5" rx="5" y="6" x="6" height="38" width="38"
                fill="#f2f5e9" fill-opacity="0.5" stroke="#606060" stroke-width="1.0"/>
           <path id="arrow"
             d="M 11.500037,31.436501 C 11.940474,20.09759 22.043105,11.32322 32.158766,21.979434 L 37.068811,17.246167 C 37.068811,17.246167 37.088388,32 37.088388,32 L 22.160133,31.978069 C 22.160133,31.978069 26.997745,27.140456 26.997745,27.140456 C 18.528582,18.264221 13.291696,25.230495 11.500037,31.436501 z"
             style="fill:#404040;"/>
          </a>
         </g>
        </svg>
</svg>
