<?xml version="1.0" encoding="UTF-8" standalone="no"?>
<!DOCTYPE svg PUBLIC "-//W3C//DTD SVG 1.1//EN"
 "http://www.w3.org/Graphics/SVG/1.1/DTD/svg11.dtd">
<!-- Generated by graphviz version 2.36.0 (20140111.2315)
 -->
<!-- Title: /home/travis/build/AliceO2Group/AliceO2/Detectors/PHOS/simulation/src/Digitizer.cxx Pages: 1 -->
<!--zoomable 502 -->
<svg id="main" version="1.1" xmlns="http://www.w3.org/2000/svg" xmlns:xlink="http://www.w3.org/1999/xlink" xml:space="preserve" onload="init(evt)">
<style type="text/css"><![CDATA[
.edge:hover path { stroke: red; }
.edge:hover polygon { stroke: red; fill: red; }
]]></style>
<script type="text/javascript"><![CDATA[
var edges = document.getElementsByTagName('g');
if (edges && edges.length) {
  for (var i=0;i<edges.length;i++) {
    if (edges[i].id.substr(0,4)=='edge') {
      edges[i].setAttribute('class','edge');
    }
  }
}
]]></script>
        <defs>
                <circle id="rim" cx="0" cy="0" r="7"/>
                <circle id="rim2" cx="0" cy="0" r="3.5"/>
                <g id="zoomPlus">
                        <use xlink:href="#rim" fill="#404040">
                                <set attributeName="fill" to="#808080" begin="zoomplus.mouseover" end="zoomplus.mouseout"/>
                        </use>
                        <path d="M-4,0h8M0,-4v8" fill="none" stroke="white" stroke-width="1.5" pointer-events="none"/>
                </g>
                <g id="zoomMin">
                        <use xlink:href="#rim" fill="#404040">
                                <set attributeName="fill" to="#808080" begin="zoomminus.mouseover" end="zoomminus.mouseout"/>
                        </use>
                        <path d="M-4,0h8" fill="none" stroke="white" stroke-width="1.5" pointer-events="none"/>
                </g>
                <g id="dirArrow">
                        <path fill="none" stroke="white" stroke-width="1.5" d="M0,-3.0v7 M-2.5,-0.5L0,-3.0L2.5,-0.5"/>
                </g>
               <g id="resetDef">
                       <use xlink:href="#rim2" fill="#404040">
                               <set attributeName="fill" to="#808080" begin="reset.mouseover" end="reset.mouseout"/>
                       </use>
               </g>
        </defs>

<script type="text/javascript">
var viewWidth = 1664;
var viewHeight = 502;
var sectionId = 'dynsection-0';
</script>
<script xlink:href="../../svgpan.js"/>
<svg id="graph" class="graph">
<g id="viewport">
<title>/home/travis/build/AliceO2Group/AliceO2/Detectors/PHOS/simulation/src/Digitizer.cxx</title>
<!-- Node1 -->
<g id="node1" class="node"><title>Node1</title>
<polygon fill="#bfbfbf" stroke="black" points="759.5,-441 759.5,-493 900.5,-493 900.5,-441 759.5,-441"/>
<text text-anchor="start" x="767.5" y="-481" font-family="Helvetica,sans-Serif" font-size="10.00">/home/travis/build</text>
<text text-anchor="start" x="767.5" y="-470" font-family="Helvetica,sans-Serif" font-size="10.00">/AliceO2Group/AliceO2</text>
<text text-anchor="start" x="767.5" y="-459" font-family="Helvetica,sans-Serif" font-size="10.00">/Detectors/PHOS/simulation</text>
<text text-anchor="middle" x="830" y="-448" font-family="Helvetica,sans-Serif" font-size="10.00">/src/Digitizer.cxx</text>
</g>
<!-- Node2 -->
<g id="node2" class="node"><title>Node2</title>
<g id="a_node2"><a xlink:href="../../d6/d4b/PHOS_2simulation_2include_2PHOSSimulation_2Digitizer_8h.html" target="_top" xlink:title="PHOSSimulation/Digitizer.h">
<polygon fill="none" stroke="black" points="599,-384.5 599,-403.5 737,-403.5 737,-384.5 599,-384.5"/>
<text text-anchor="middle" x="668" y="-391.5" font-family="Helvetica,sans-Serif" font-size="10.00">PHOSSimulation/Digitizer.h</text>
</a>
</g>
</g>
<!-- Node1&#45;&gt;Node2 -->
<g id="edge1" class="edge"><title>Node1&#45;&gt;Node2</title>
<path fill="none" stroke="midnightblue" d="M772.885,-440.968C747.248,-429.732 718.105,-416.96 697.057,-407.735"/>
<polygon fill="midnightblue" stroke="midnightblue" points="698.275,-404.447 687.711,-403.639 695.465,-410.859 698.275,-404.447"/>
</g>
<!-- Node6 -->
<g id="node6" class="node"><title>Node6</title>
<g id="a_node6"><a xlink:href="../../d7/dcd/MCCompLabel_8h.html" target="_top" xlink:title="SimulationDataFormat\l/MCCompLabel.h">
<polygon fill="none" stroke="black" points="759,-261 759,-291 873,-291 873,-261 759,-261"/>
<text text-anchor="start" x="767" y="-279" font-family="Helvetica,sans-Serif" font-size="10.00">SimulationDataFormat</text>
<text text-anchor="middle" x="816" y="-268" font-family="Helvetica,sans-Serif" font-size="10.00">/MCCompLabel.h</text>
</a>
</g>
</g>
<!-- Node1&#45;&gt;Node6 -->
<g id="edge33" class="edge"><title>Node1&#45;&gt;Node6</title>
<path fill="none" stroke="midnightblue" d="M824.085,-440.811C821.724,-429.608 819.268,-416.214 818,-404 814.31,-368.463 814.49,-327.037 815.119,-301.411"/>
<polygon fill="midnightblue" stroke="midnightblue" points="818.625,-301.24 815.417,-291.143 811.628,-301.037 818.625,-301.24"/>
</g>
<!-- Node32 -->
<g id="node32" class="node"><title>Node32</title>
<polygon fill="none" stroke="#bfbfbf" points="827,-384.5 827,-403.5 895,-403.5 895,-384.5 827,-384.5"/>
<text text-anchor="middle" x="861" y="-391.5" font-family="Helvetica,sans-Serif" font-size="10.00">TRandom.h</text>
</g>
<!-- Node1&#45;&gt;Node32 -->
<g id="edge34" class="edge"><title>Node1&#45;&gt;Node32</title>
<path fill="none" stroke="midnightblue" d="M841.017,-440.768C845.025,-431.587 849.472,-421.403 853.151,-412.978"/>
<polygon fill="midnightblue" stroke="midnightblue" points="856.383,-414.322 857.176,-403.757 849.967,-411.521 856.383,-414.322"/>
</g>
<!-- Node33 -->
<g id="node33" class="node"><title>Node33</title>
<polygon fill="none" stroke="#bfbfbf" points="913.5,-384.5 913.5,-403.5 984.5,-403.5 984.5,-384.5 913.5,-384.5"/>
<text text-anchor="middle" x="949" y="-391.5" font-family="Helvetica,sans-Serif" font-size="10.00">FairLogger.h</text>
</g>
<!-- Node1&#45;&gt;Node33 -->
<g id="edge35" class="edge"><title>Node1&#45;&gt;Node33</title>
<path fill="none" stroke="midnightblue" d="M871.955,-440.968C890.02,-430.19 910.455,-417.997 925.738,-408.879"/>
<polygon fill="midnightblue" stroke="midnightblue" points="927.726,-411.768 934.521,-403.639 924.14,-405.757 927.726,-411.768"/>
</g>
<!-- Node3 -->
<g id="node3" class="node"><title>Node3</title>
<g id="a_node3"><a xlink:href="../../d8/de9/PHOS_2base_2include_2PHOSBase_2Digit_8h.html" target="_top" xlink:title="PHOSBase/Digit.h">
<polygon fill="none" stroke="black" points="662.5,-328.5 662.5,-347.5 761.5,-347.5 761.5,-328.5 662.5,-328.5"/>
<text text-anchor="middle" x="712" y="-335.5" font-family="Helvetica,sans-Serif" font-size="10.00">PHOSBase/Digit.h</text>
</a>
</g>
</g>
<!-- Node2&#45;&gt;Node3 -->
<g id="edge2" class="edge"><title>Node2&#45;&gt;Node3</title>
<path fill="none" stroke="midnightblue" d="M675.266,-384.083C681.545,-376.377 690.788,-365.033 698.431,-355.653"/>
<polygon fill="midnightblue" stroke="midnightblue" points="701.266,-357.714 704.869,-347.751 695.839,-353.293 701.266,-357.714"/>
</g>
<!-- Node8 -->
<g id="node8" class="node"><title>Node8</title>
<g id="a_node8"><a xlink:href="../../d1/def/PHOS_2base_2include_2PHOSBase_2Hit_8h.html" target="_top" xlink:title="PHOSBase/Hit.h">
<polygon fill="none" stroke="black" points="649,-266.5 649,-285.5 741,-285.5 741,-266.5 649,-266.5"/>
<text text-anchor="middle" x="695" y="-273.5" font-family="Helvetica,sans-Serif" font-size="10.00">PHOSBase/Hit.h</text>
</a>
</g>
</g>
<!-- Node2&#45;&gt;Node8 -->
<g id="edge32" class="edge"><title>Node2&#45;&gt;Node8</title>
<path fill="none" stroke="midnightblue" d="M662.958,-384.403C656.236,-371.785 645.96,-347.622 653,-328 657.902,-314.336 668.223,-301.717 677.406,-292.45"/>
<polygon fill="midnightblue" stroke="midnightblue" points="679.875,-294.932 684.708,-285.504 675.05,-289.86 679.875,-294.932"/>
</g>
<!-- Node28 -->
<g id="node28" class="node"><title>Node28</title>
<g id="a_node28"><a xlink:href="../../d7/d7f/PHOS_2base_2include_2PHOSBase_2Geometry_8h.html" target="_top" xlink:title="PHOSBase/Geometry.h">
<polygon fill="none" stroke="black" points="474,-328.5 474,-347.5 596,-347.5 596,-328.5 474,-328.5"/>
<text text-anchor="middle" x="535" y="-335.5" font-family="Helvetica,sans-Serif" font-size="10.00">PHOSBase/Geometry.h</text>
</a>
</g>
</g>
<!-- Node2&#45;&gt;Node28 -->
<g id="edge28" class="edge"><title>Node2&#45;&gt;Node28</title>
<path fill="none" stroke="midnightblue" d="M646.926,-384.444C624.94,-375.517 590.266,-361.439 565.336,-351.317"/>
<polygon fill="midnightblue" stroke="midnightblue" points="566.558,-348.035 555.976,-347.516 563.924,-354.521 566.558,-348.035"/>
</g>
<!-- Node4 -->
<g id="node4" class="node"><title>Node4</title>
<g id="a_node4"><a xlink:href="../../df/d5d/common_2include_2CommonDataFormat_2TimeStamp_8h.html" target="_top" xlink:title="CommonDataFormat/TimeStamp.h">
<polygon fill="none" stroke="black" points="360,-198.5 360,-217.5 530,-217.5 530,-198.5 360,-198.5"/>
<text text-anchor="middle" x="445" y="-205.5" font-family="Helvetica,sans-Serif" font-size="10.00">CommonDataFormat/TimeStamp.h</text>
</a>
</g>
</g>
<!-- Node3&#45;&gt;Node4 -->
<g id="edge3" class="edge"><title>Node3&#45;&gt;Node4</title>
<path fill="none" stroke="midnightblue" d="M697.022,-328.403C682.2,-319.72 659.036,-305.673 640,-292 621.789,-278.92 620.66,-270.78 601,-260 567.296,-241.519 525.794,-228.354 494.072,-220.034"/>
<polygon fill="midnightblue" stroke="midnightblue" points="494.694,-216.58 484.139,-217.502 492.965,-223.363 494.694,-216.58"/>
</g>
<!-- Node3&#45;&gt;Node6 -->
<g id="edge5" class="edge"><title>Node3&#45;&gt;Node6</title>
<path fill="none" stroke="midnightblue" d="M726.901,-328.403C741.381,-320.049 763.87,-307.075 782.63,-296.252"/>
<polygon fill="midnightblue" stroke="midnightblue" points="784.576,-299.17 791.489,-291.141 781.078,-293.106 784.576,-299.17"/>
</g>
<!-- Node3&#45;&gt;Node8 -->
<g id="edge7" class="edge"><title>Node3&#45;&gt;Node8</title>
<path fill="none" stroke="midnightblue" d="M709.564,-328.403C707.141,-319.849 703.344,-306.45 700.235,-295.476"/>
<polygon fill="midnightblue" stroke="midnightblue" points="703.525,-294.248 697.431,-285.581 696.79,-296.156 703.525,-294.248"/>
</g>
<!-- Node5 -->
<g id="node5" class="node"><title>Node5</title>
<polygon fill="none" stroke="#bfbfbf" points="417,-74.5 417,-93.5 473,-93.5 473,-74.5 417,-74.5"/>
<text text-anchor="middle" x="445" y="-81.5" font-family="Helvetica,sans-Serif" font-size="10.00">Rtypes.h</text>
</g>
<!-- Node4&#45;&gt;Node5 -->
<g id="edge4" class="edge"><title>Node4&#45;&gt;Node5</title>
<path fill="none" stroke="midnightblue" d="M445,-198.226C445,-178.53 445,-130.437 445,-103.7"/>
<polygon fill="midnightblue" stroke="midnightblue" points="448.5,-103.694 445,-93.6944 441.5,-103.694 448.5,-103.694"/>
</g>
<!-- Node7 -->
<g id="node7" class="node"><title>Node7</title>
<polygon fill="none" stroke="#bfbfbf" points="844,-198.5 844,-217.5 972,-217.5 972,-198.5 844,-198.5"/>
<text text-anchor="middle" x="908" y="-205.5" font-family="Helvetica,sans-Serif" font-size="10.00">AliTPCCommonRtypes.h</text>
</g>
<!-- Node6&#45;&gt;Node7 -->
<g id="edge6" class="edge"><title>Node6&#45;&gt;Node7</title>
<path fill="none" stroke="midnightblue" d="M835.963,-260.679C851.248,-249.713 872.252,-234.645 887.637,-223.609"/>
<polygon fill="midnightblue" stroke="midnightblue" points="889.874,-226.311 895.959,-217.638 885.794,-220.623 889.874,-226.311"/>
</g>
<!-- Node9 -->
<g id="node9" class="node"><title>Node9</title>
<g id="a_node9"><a xlink:href="../../d4/d25/BaseHits_8h.html" target="_top" xlink:title="SimulationDataFormat\l/BaseHits.h">
<polygon fill="none" stroke="black" points="712,-193 712,-223 826,-223 826,-193 712,-193"/>
<text text-anchor="start" x="720" y="-211" font-family="Helvetica,sans-Serif" font-size="10.00">SimulationDataFormat</text>
<text text-anchor="middle" x="769" y="-200" font-family="Helvetica,sans-Serif" font-size="10.00">/BaseHits.h</text>
</a>
</g>
</g>
<!-- Node8&#45;&gt;Node9 -->
<g id="edge8" class="edge"><title>Node8&#45;&gt;Node9</title>
<path fill="none" stroke="midnightblue" d="M704.674,-266.372C714.958,-257.2 731.604,-242.354 745.386,-230.062"/>
<polygon fill="midnightblue" stroke="midnightblue" points="747.966,-232.45 753.1,-223.181 743.307,-227.226 747.966,-232.45"/>
</g>
<!-- Node21 -->
<g id="node21" class="node"><title>Node21</title>
<g id="a_node21"><a xlink:href="../../d0/d91/ShmAllocator_8h.html" target="_top" xlink:title="CommonUtils/ShmAllocator.h">
<polygon fill="none" stroke="black" points="548,-198.5 548,-217.5 694,-217.5 694,-198.5 548,-198.5"/>
<text text-anchor="middle" x="621" y="-205.5" font-family="Helvetica,sans-Serif" font-size="10.00">CommonUtils/ShmAllocator.h</text>
</a>
</g>
</g>
<!-- Node8&#45;&gt;Node21 -->
<g id="edge21" class="edge"><title>Node8&#45;&gt;Node21</title>
<path fill="none" stroke="midnightblue" d="M685.326,-266.372C673.536,-255.856 653.383,-237.882 638.771,-224.85"/>
<polygon fill="midnightblue" stroke="midnightblue" points="640.705,-221.885 630.913,-217.841 636.046,-227.109 640.705,-221.885"/>
</g>
<!-- Node10 -->
<g id="node10" class="node"><title>Node10</title>
<g id="a_node10"><a xlink:href="../../dd/d76/Cartesian3D_8h.html" target="_top" xlink:title="MathUtils/Cartesian3D.h">
<polygon fill="none" stroke="black" points="955.5,-136.5 955.5,-155.5 1080.5,-155.5 1080.5,-136.5 955.5,-136.5"/>
<text text-anchor="middle" x="1018" y="-143.5" font-family="Helvetica,sans-Serif" font-size="10.00">MathUtils/Cartesian3D.h</text>
</a>
</g>
</g>
<!-- Node9&#45;&gt;Node10 -->
<g id="edge9" class="edge"><title>Node9&#45;&gt;Node10</title>
<path fill="none" stroke="midnightblue" d="M826.126,-193.235C870.694,-182.495 931.746,-167.784 972.914,-157.864"/>
<polygon fill="midnightblue" stroke="midnightblue" points="973.769,-161.258 982.671,-155.513 972.13,-154.453 973.769,-161.258"/>
</g>
<!-- Node10&#45;&gt;Node5 -->
<g id="edge15" class="edge"><title>Node10&#45;&gt;Node5</title>
<path fill="none" stroke="midnightblue" d="M955.137,-145.797C854.013,-145.732 649.578,-140.026 482,-100 478.93,-99.2668 475.782,-98.3199 472.681,-97.2586"/>
<polygon fill="midnightblue" stroke="midnightblue" points="473.675,-93.8921 463.084,-93.5996 471.181,-100.433 473.675,-93.8921"/>
</g>
<!-- Node11 -->
<g id="node11" class="node"><title>Node11</title>
<polygon fill="none" stroke="#bfbfbf" points="1504.5,-69 1504.5,-99 1655.5,-99 1655.5,-69 1504.5,-69"/>
<text text-anchor="start" x="1512.5" y="-87" font-family="Helvetica,sans-Serif" font-size="10.00">Math/GenVector/Displacement</text>
<text text-anchor="middle" x="1580" y="-76" font-family="Helvetica,sans-Serif" font-size="10.00">Vector3D.h</text>
</g>
<!-- Node10&#45;&gt;Node11 -->
<g id="edge10" class="edge"><title>Node10&#45;&gt;Node11</title>
<path fill="none" stroke="midnightblue" d="M1080.69,-140.705C1170.09,-134.22 1339.56,-120.603 1493.9,-100.078"/>
<polygon fill="midnightblue" stroke="midnightblue" points="1494.6,-103.516 1504.05,-98.716 1493.67,-96.578 1494.6,-103.516"/>
</g>
<!-- Node12 -->
<g id="node12" class="node"><title>Node12</title>
<polygon fill="none" stroke="#bfbfbf" points="491,-74.5 491,-93.5 667,-93.5 667,-74.5 491,-74.5"/>
<text text-anchor="middle" x="579" y="-81.5" font-family="Helvetica,sans-Serif" font-size="10.00">Math/GenVector/PositionVector3D.h</text>
</g>
<!-- Node10&#45;&gt;Node12 -->
<g id="edge11" class="edge"><title>Node10&#45;&gt;Node12</title>
<path fill="none" stroke="midnightblue" d="M955.347,-137.249C886.533,-128.626 772.792,-114.053 675,-100 664.325,-98.4661 652.995,-96.7628 642.003,-95.0705"/>
<polygon fill="midnightblue" stroke="midnightblue" points="642.45,-91.598 632.032,-93.5245 641.377,-98.5153 642.45,-91.598"/>
</g>
<!-- Node13 -->
<g id="node13" class="node"><title>Node13</title>
<polygon fill="none" stroke="#bfbfbf" points="684.5,-74.5 684.5,-93.5 833.5,-93.5 833.5,-74.5 684.5,-74.5"/>
<text text-anchor="middle" x="759" y="-81.5" font-family="Helvetica,sans-Serif" font-size="10.00">Math/GenVector/Rotation3D.h</text>
</g>
<!-- Node10&#45;&gt;Node13 -->
<g id="edge12" class="edge"><title>Node10&#45;&gt;Node13</title>
<path fill="none" stroke="midnightblue" d="M981.167,-136.467C935.045,-125.783 855.99,-107.469 805.676,-95.8129"/>
<polygon fill="midnightblue" stroke="midnightblue" points="806.238,-92.3506 795.706,-93.5034 804.658,-99.17 806.238,-92.3506"/>
</g>
<!-- Node14 -->
<g id="node14" class="node"><title>Node14</title>
<polygon fill="none" stroke="#bfbfbf" points="852,-74.5 852,-93.5 1008,-93.5 1008,-74.5 852,-74.5"/>
<text text-anchor="middle" x="930" y="-81.5" font-family="Helvetica,sans-Serif" font-size="10.00">Math/GenVector/Transform3D.h</text>
</g>
<!-- Node10&#45;&gt;Node14 -->
<g id="edge13" class="edge"><title>Node10&#45;&gt;Node14</title>
<path fill="none" stroke="midnightblue" d="M1005.39,-136.403C991.277,-126.78 968.169,-111.024 951.251,-99.4891"/>
<polygon fill="midnightblue" stroke="midnightblue" points="952.819,-96.3222 942.585,-93.5806 948.875,-102.106 952.819,-96.3222"/>
</g>
<!-- Node15 -->
<g id="node15" class="node"><title>Node15</title>
<polygon fill="none" stroke="#bfbfbf" points="1026,-74.5 1026,-93.5 1186,-93.5 1186,-74.5 1026,-74.5"/>
<text text-anchor="middle" x="1106" y="-81.5" font-family="Helvetica,sans-Serif" font-size="10.00">Math/GenVector/Translation3D.h</text>
</g>
<!-- Node10&#45;&gt;Node15 -->
<g id="edge14" class="edge"><title>Node10&#45;&gt;Node15</title>
<path fill="none" stroke="midnightblue" d="M1030.61,-136.403C1044.72,-126.78 1067.83,-111.024 1084.75,-99.4891"/>
<polygon fill="midnightblue" stroke="midnightblue" points="1087.12,-102.106 1093.42,-93.5806 1083.18,-96.3222 1087.12,-102.106"/>
</g>
<!-- Node16 -->
<g id="node16" class="node"><title>Node16</title>
<polygon fill="none" stroke="#bfbfbf" points="1204,-74.5 1204,-93.5 1280,-93.5 1280,-74.5 1204,-74.5"/>
<text text-anchor="middle" x="1242" y="-81.5" font-family="Helvetica,sans-Serif" font-size="10.00">TGeoMatrix.h</text>
</g>
<!-- Node10&#45;&gt;Node16 -->
<g id="edge16" class="edge"><title>Node10&#45;&gt;Node16</title>
<path fill="none" stroke="midnightblue" d="M1054.1,-136.493C1089.99,-127.878 1146.53,-113.881 1195,-100 1198.78,-98.9166 1202.72,-97.7391 1206.64,-96.536"/>
<polygon fill="midnightblue" stroke="midnightblue" points="1207.73,-99.8614 1216.23,-93.5321 1205.64,-93.1815 1207.73,-99.8614"/>
</g>
<!-- Node17 -->
<g id="node17" class="node"><title>Node17</title>
<polygon fill="none" stroke="#bfbfbf" points="1298.5,-74.5 1298.5,-93.5 1343.5,-93.5 1343.5,-74.5 1298.5,-74.5"/>
<text text-anchor="middle" x="1321" y="-81.5" font-family="Helvetica,sans-Serif" font-size="10.00">iosfwd</text>
</g>
<!-- Node10&#45;&gt;Node17 -->
<g id="edge17" class="edge"><title>Node10&#45;&gt;Node17</title>
<path fill="none" stroke="midnightblue" d="M1080.74,-139.5C1136.4,-133.468 1219.43,-121.629 1289,-100 1291.27,-99.293 1293.59,-98.4555 1295.89,-97.5435"/>
<polygon fill="midnightblue" stroke="midnightblue" points="1297.32,-100.742 1305.06,-93.5172 1294.5,-94.3326 1297.32,-100.742"/>
</g>
<!-- Node18 -->
<g id="node18" class="node"><title>Node18</title>
<g id="a_node18"><a xlink:href="../../d2/dd0/Cartesian2D_8h.html" target="_top" xlink:title="MathUtils/Cartesian2D.h">
<polygon fill="none" stroke="black" points="1361.5,-74.5 1361.5,-93.5 1486.5,-93.5 1486.5,-74.5 1361.5,-74.5"/>
<text text-anchor="middle" x="1424" y="-81.5" font-family="Helvetica,sans-Serif" font-size="10.00">MathUtils/Cartesian2D.h</text>
</a>
</g>
</g>
<!-- Node10&#45;&gt;Node18 -->
<g id="edge18" class="edge"><title>Node10&#45;&gt;Node18</title>
<path fill="none" stroke="midnightblue" d="M1080.68,-137.911C1147.96,-129.986 1257.85,-116.128 1352,-100 1359.7,-98.6812 1367.83,-97.1362 1375.75,-95.5484"/>
<polygon fill="midnightblue" stroke="midnightblue" points="1376.52,-98.9634 1385.61,-93.528 1375.11,-92.1058 1376.52,-98.9634"/>
</g>
<!-- Node19 -->
<g id="node19" class="node"><title>Node19</title>
<polygon fill="none" stroke="#bfbfbf" points="1257.5,-1 1257.5,-31 1408.5,-31 1408.5,-1 1257.5,-1"/>
<text text-anchor="start" x="1265.5" y="-19" font-family="Helvetica,sans-Serif" font-size="10.00">Math/GenVector/Displacement</text>
<text text-anchor="middle" x="1333" y="-8" font-family="Helvetica,sans-Serif" font-size="10.00">Vector2D.h</text>
</g>
<!-- Node18&#45;&gt;Node19 -->
<g id="edge19" class="edge"><title>Node18&#45;&gt;Node19</title>
<path fill="none" stroke="midnightblue" d="M1412.1,-74.3717C1399.22,-65.0286 1378.22,-49.7966 1361.09,-37.375"/>
<polygon fill="midnightblue" stroke="midnightblue" points="1362.7,-34.2194 1352.55,-31.1815 1358.59,-39.8859 1362.7,-34.2194"/>
</g>
<!-- Node20 -->
<g id="node20" class="node"><title>Node20</title>
<polygon fill="none" stroke="#bfbfbf" points="1427,-6.5 1427,-25.5 1603,-25.5 1603,-6.5 1427,-6.5"/>
<text text-anchor="middle" x="1515" y="-13.5" font-family="Helvetica,sans-Serif" font-size="10.00">Math/GenVector/PositionVector2D.h</text>
</g>
<!-- Node18&#45;&gt;Node20 -->
<g id="edge20" class="edge"><title>Node18&#45;&gt;Node20</title>
<path fill="none" stroke="midnightblue" d="M1435.9,-74.3717C1450.88,-63.5015 1476.86,-44.6602 1494.94,-31.5474"/>
<polygon fill="midnightblue" stroke="midnightblue" points="1497.06,-34.3349 1503.1,-25.6305 1492.95,-28.6684 1497.06,-34.3349"/>
</g>
<!-- Node22 -->
<g id="node22" class="node"><title>Node22</title>
<g id="a_node22"><a xlink:href="../../de/d61/ShmManager_8h.html" target="_top" xlink:title="CommonUtils/ShmManager.h">
<polygon fill="none" stroke="black" points="220,-136.5 220,-155.5 366,-155.5 366,-136.5 220,-136.5"/>
<text text-anchor="middle" x="293" y="-143.5" font-family="Helvetica,sans-Serif" font-size="10.00">CommonUtils/ShmManager.h</text>
</a>
</g>
</g>
<!-- Node21&#45;&gt;Node22 -->
<g id="edge22" class="edge"><title>Node21&#45;&gt;Node22</title>
<path fill="none" stroke="midnightblue" d="M574.354,-198.467C515.091,-187.626 412.894,-168.932 349.341,-157.306"/>
<polygon fill="midnightblue" stroke="midnightblue" points="349.952,-153.86 339.485,-155.503 348.692,-160.746 349.952,-153.86"/>
</g>
<!-- Node27 -->
<g id="node27" class="node"><title>Node27</title>
<polygon fill="none" stroke="#bfbfbf" points="596.5,-136.5 596.5,-155.5 645.5,-155.5 645.5,-136.5 596.5,-136.5"/>
<text text-anchor="middle" x="621" y="-143.5" font-family="Helvetica,sans-Serif" font-size="10.00">cassert</text>
</g>
<!-- Node21&#45;&gt;Node27 -->
<g id="edge27" class="edge"><title>Node21&#45;&gt;Node27</title>
<path fill="none" stroke="midnightblue" d="M621,-198.403C621,-189.938 621,-176.728 621,-165.82"/>
<polygon fill="midnightblue" stroke="midnightblue" points="624.5,-165.581 621,-155.581 617.5,-165.581 624.5,-165.581"/>
</g>
<!-- Node23 -->
<g id="node23" class="node"><title>Node23</title>
<polygon fill="none" stroke="#bfbfbf" points="370.5,-74.5 370.5,-93.5 399.5,-93.5 399.5,-74.5 370.5,-74.5"/>
<text text-anchor="middle" x="385" y="-81.5" font-family="Helvetica,sans-Serif" font-size="10.00">list</text>
</g>
<!-- Node22&#45;&gt;Node23 -->
<g id="edge23" class="edge"><title>Node22&#45;&gt;Node23</title>
<path fill="none" stroke="midnightblue" d="M306.181,-136.403C321.074,-126.691 345.544,-110.732 363.273,-99.1697"/>
<polygon fill="midnightblue" stroke="midnightblue" points="365.379,-101.975 371.843,-93.5806 361.555,-96.1117 365.379,-101.975"/>
</g>
<!-- Node24 -->
<g id="node24" class="node"><title>Node24</title>
<polygon fill="none" stroke="#bfbfbf" points="-0.5,-74.5 -0.5,-93.5 48.5,-93.5 48.5,-74.5 -0.5,-74.5"/>
<text text-anchor="middle" x="24" y="-81.5" font-family="Helvetica,sans-Serif" font-size="10.00">cstddef</text>
</g>
<!-- Node22&#45;&gt;Node24 -->
<g id="edge24" class="edge"><title>Node22&#45;&gt;Node24</title>
<path fill="none" stroke="midnightblue" d="M227.189,-136.474C179.525,-129.32 113.914,-117.44 58,-100 55.5749,-99.2436 53.0914,-98.365 50.6249,-97.4197"/>
<polygon fill="midnightblue" stroke="midnightblue" points="51.9328,-94.1731 41.3557,-93.5608 49.2424,-100.635 51.9328,-94.1731"/>
</g>
<!-- Node25 -->
<g id="node25" class="node"><title>Node25</title>
<polygon fill="none" stroke="#bfbfbf" points="67,-69 67,-99 215,-99 215,-69 67,-69"/>
<text text-anchor="start" x="75" y="-87" font-family="Helvetica,sans-Serif" font-size="10.00">boost/interprocess</text>
<text text-anchor="middle" x="141" y="-76" font-family="Helvetica,sans-Serif" font-size="10.00">/managed_external_buffer.hpp</text>
</g>
<!-- Node22&#45;&gt;Node25 -->
<g id="edge25" class="edge"><title>Node22&#45;&gt;Node25</title>
<path fill="none" stroke="midnightblue" d="M271.222,-136.403C249.119,-127.679 214.25,-113.914 186.154,-102.824"/>
<polygon fill="midnightblue" stroke="midnightblue" points="187.117,-99.4415 176.531,-99.0253 184.547,-105.953 187.117,-99.4415"/>
</g>
<!-- Node26 -->
<g id="node26" class="node"><title>Node26</title>
<polygon fill="none" stroke="#bfbfbf" points="233,-69 233,-99 353,-99 353,-69 233,-69"/>
<text text-anchor="start" x="241" y="-87" font-family="Helvetica,sans-Serif" font-size="10.00">boost/interprocess</text>
<text text-anchor="middle" x="293" y="-76" font-family="Helvetica,sans-Serif" font-size="10.00">/allocators/allocator.hpp</text>
</g>
<!-- Node22&#45;&gt;Node26 -->
<g id="edge26" class="edge"><title>Node22&#45;&gt;Node26</title>
<path fill="none" stroke="midnightblue" d="M293,-136.403C293,-129.341 293,-118.975 293,-109.399"/>
<polygon fill="midnightblue" stroke="midnightblue" points="296.5,-109.141 293,-99.1408 289.5,-109.141 296.5,-109.141"/>
</g>
<!-- Node29 -->
<g id="node29" class="node"><title>Node29</title>
<polygon fill="none" stroke="#bfbfbf" points="551.5,-266.5 551.5,-285.5 592.5,-285.5 592.5,-266.5 551.5,-266.5"/>
<text text-anchor="middle" x="572" y="-273.5" font-family="Helvetica,sans-Serif" font-size="10.00">string</text>
</g>
<!-- Node28&#45;&gt;Node29 -->
<g id="edge29" class="edge"><title>Node28&#45;&gt;Node29</title>
<path fill="none" stroke="midnightblue" d="M540.301,-328.403C545.796,-319.493 554.533,-305.325 561.444,-294.118"/>
<polygon fill="midnightblue" stroke="midnightblue" points="564.439,-295.929 566.709,-285.581 558.481,-292.255 564.439,-295.929"/>
</g>
<!-- Node30 -->
<g id="node30" class="node"><title>Node30</title>
<polygon fill="none" stroke="#bfbfbf" points="382,-266.5 382,-285.5 462,-285.5 462,-266.5 382,-266.5"/>
<text text-anchor="middle" x="422" y="-273.5" font-family="Helvetica,sans-Serif" font-size="10.00">RStringView.h</text>
</g>
<!-- Node28&#45;&gt;Node30 -->
<g id="edge30" class="edge"><title>Node28&#45;&gt;Node30</title>
<path fill="none" stroke="midnightblue" d="M518.81,-328.403C500.098,-318.468 469.077,-301.997 447.201,-290.381"/>
<polygon fill="midnightblue" stroke="midnightblue" points="448.634,-287.179 438.16,-285.581 445.351,-293.362 448.634,-287.179"/>
</g>
<!-- Node31 -->
<g id="node31" class="node"><title>Node31</title>
<polygon fill="none" stroke="#bfbfbf" points="480.5,-266.5 480.5,-285.5 533.5,-285.5 533.5,-266.5 480.5,-266.5"/>
<text text-anchor="middle" x="507" y="-273.5" font-family="Helvetica,sans-Serif" font-size="10.00">TMath.h</text>
</g>
<!-- Node28&#45;&gt;Node31 -->
<g id="edge31" class="edge"><title>Node28&#45;&gt;Node31</title>
<path fill="none" stroke="midnightblue" d="M530.988,-328.403C526.913,-319.671 520.482,-305.889 515.304,-294.794"/>
<polygon fill="midnightblue" stroke="midnightblue" points="518.405,-293.162 511.004,-285.581 512.062,-296.123 518.405,-293.162"/>
</g>
</g>
</svg>
        <g id="navigator" transform="translate(0 0)" fill="#404254">
                <rect fill="#f2f5e9" fill-opacity="0.5" stroke="#606060" stroke-width=".5" x="0" y="0" width="60" height="60"/>
                <use id="zoomplus" xlink:href="#zoomPlus" x="17" y="9" onmousedown="handleZoom(evt,'in')"/>
                <use id="zoomminus" xlink:href="#zoomMin" x="42" y="9" onmousedown="handleZoom(evt,'out')"/>
                <use id="reset" xlink:href="#resetDef" x="30" y="36" onmousedown="handleReset()"/>
                <g id="arrowUp" xlink:href="#dirArrow" transform="translate(30 24)" onmousedown="handlePan(0,-1)">
                  <use xlink:href="#rim" fill="#404040">
                        <set attributeName="fill" to="#808080" begin="arrowUp.mouseover" end="arrowUp.mouseout"/>
                  </use>
                  <path fill="none" stroke="white" stroke-width="1.5" d="M0,-3.0v7 M-2.5,-0.5L0,-3.0L2.5,-0.5"/>
                </g>
                <g id="arrowRight" xlink:href="#dirArrow" transform="rotate(90) translate(36 -43)" onmousedown="handlePan(1,0)">
                  <use xlink:href="#rim" fill="#404040">
                        <set attributeName="fill" to="#808080" begin="arrowRight.mouseover" end="arrowRight.mouseout"/>
                  </use>
                  <path fill="none" stroke="white" stroke-width="1.5" d="M0,-3.0v7 M-2.5,-0.5L0,-3.0L2.5,-0.5"/>
                </g>
                <g id="arrowDown" xlink:href="#dirArrow" transform="rotate(180) translate(-30 -48)" onmousedown="handlePan(0,1)">
                  <use xlink:href="#rim" fill="#404040">
                        <set attributeName="fill" to="#808080" begin="arrowDown.mouseover" end="arrowDown.mouseout"/>
                  </use>
                  <path fill="none" stroke="white" stroke-width="1.5" d="M0,-3.0v7 M-2.5,-0.5L0,-3.0L2.5,-0.5"/>
                </g>
                <g id="arrowLeft" xlink:href="#dirArrow" transform="rotate(270) translate(-36 17)" onmousedown="handlePan(-1,0)">
                  <use xlink:href="#rim" fill="#404040">
                        <set attributeName="fill" to="#808080" begin="arrowLeft.mouseover" end="arrowLeft.mouseout"/>
                  </use>
                  <path fill="none" stroke="white" stroke-width="1.5" d="M0,-3.0v7 M-2.5,-0.5L0,-3.0L2.5,-0.5"/>
                </g>
        </g>
        <svg viewBox="0 0 15 15" width="100%" height="30px" preserveAspectRatio="xMaxYMin meet">
         <g id="arrow_out" transform="scale(0.3 0.3)">
          <a xlink:href="PHOS_2simulation_2src_2Digitizer_8cxx__incl_org.svg" target="_base">
           <rect id="button" ry="5" rx="5" y="6" x="6" height="38" width="38"
                fill="#f2f5e9" fill-opacity="0.5" stroke="#606060" stroke-width="1.0"/>
           <path id="arrow"
             d="M 11.500037,31.436501 C 11.940474,20.09759 22.043105,11.32322 32.158766,21.979434 L 37.068811,17.246167 C 37.068811,17.246167 37.088388,32 37.088388,32 L 22.160133,31.978069 C 22.160133,31.978069 26.997745,27.140456 26.997745,27.140456 C 18.528582,18.264221 13.291696,25.230495 11.500037,31.436501 z"
             style="fill:#404040;"/>
          </a>
         </g>
        </svg>
</svg>
