<?xml version="1.0" encoding="UTF-8" standalone="no"?>
<!DOCTYPE svg PUBLIC "-//W3C//DTD SVG 1.1//EN"
 "http://www.w3.org/Graphics/SVG/1.1/DTD/svg11.dtd">
<!-- Generated by graphviz version 2.36.0 (20140111.2315)
 -->
<!-- Title: /home/travis/build/AliceO2Group/AliceO2/Detectors/MUON/MCH/Tracking/src/Cluster.h Pages: 1 -->
<svg width="201pt" height="174pt"
 viewBox="0.00 0.00 201.00 174.00" xmlns="http://www.w3.org/2000/svg" xmlns:xlink="http://www.w3.org/1999/xlink">
<g id="graph0" class="graph" transform="scale(1 1) rotate(0) translate(4 170)">
<title>/home/travis/build/AliceO2Group/AliceO2/Detectors/MUON/MCH/Tracking/src/Cluster.h</title>
<!-- Node1 -->
<g id="node1" class="node"><title>Node1</title>
<polygon fill="#bfbfbf" stroke="black" points="-0.5,-113 -0.5,-165 162.5,-165 162.5,-113 -0.5,-113"/>
<text text-anchor="start" x="7.5" y="-153" font-family="Helvetica,sans-Serif" font-size="10.00">/home/travis/build</text>
<text text-anchor="start" x="7.5" y="-142" font-family="Helvetica,sans-Serif" font-size="10.00">/AliceO2Group/AliceO2</text>
<text text-anchor="start" x="7.5" y="-131" font-family="Helvetica,sans-Serif" font-size="10.00">/Detectors/MUON/MCH/Tracking</text>
<text text-anchor="middle" x="81" y="-120" font-family="Helvetica,sans-Serif" font-size="10.00">/src/Cluster.h</text>
</g>
<!-- Node2 -->
<g id="node2" class="node"><title>Node2</title>
<polygon fill="none" stroke="#bfbfbf" points="54,-0.5 54,-19.5 108,-19.5 108,-0.5 54,-0.5"/>
<text text-anchor="middle" x="81" y="-7.5" font-family="Helvetica,sans-Serif" font-size="10.00">iostream</text>
</g>
<!-- Node1&#45;&gt;Node2 -->
<g id="edge1" class="edge"><title>Node1&#45;&gt;Node2</title>
<path fill="none" stroke="midnightblue" d="M64.6055,-112.706C56.1744,-96.5931 48.6789,-75.2107 54,-56 56.7919,-45.9205 62.5091,-35.832 67.9668,-27.7694"/>
<polygon fill="midnightblue" stroke="midnightblue" points="70.8249,-29.7899 73.8485,-19.6357 65.1526,-25.6881 70.8249,-29.7899"/>
</g>
<!-- Node3 -->
<g id="node3" class="node"><title>Node3</title>
<g id="a_node3"><a xlink:href="../../d3/db8/ClusterBlock_8h.html" target="_top" xlink:title="Definition of the MCH cluster minimal structure. ">
<polygon fill="none" stroke="black" points="63,-56.5 63,-75.5 193,-75.5 193,-56.5 63,-56.5"/>
<text text-anchor="middle" x="128" y="-63.5" font-family="Helvetica,sans-Serif" font-size="10.00">MCHBase/ClusterBlock.h</text>
</a>
</g>
</g>
<!-- Node1&#45;&gt;Node3 -->
<g id="edge2" class="edge"><title>Node1&#45;&gt;Node3</title>
<path fill="none" stroke="midnightblue" d="M97.7028,-112.768C103.981,-103.284 110.967,-92.7308 116.647,-84.15"/>
<polygon fill="midnightblue" stroke="midnightblue" points="119.602,-86.0277 122.203,-75.7572 113.765,-82.1637 119.602,-86.0277"/>
</g>
<!-- Node3&#45;&gt;Node2 -->
<g id="edge3" class="edge"><title>Node3&#45;&gt;Node2</title>
<path fill="none" stroke="midnightblue" d="M120.239,-56.083C113.463,-48.2982 103.457,-36.8015 95.2449,-27.3665"/>
<polygon fill="midnightblue" stroke="midnightblue" points="97.822,-24.9963 88.6167,-19.7511 92.5419,-29.592 97.822,-24.9963"/>
</g>
</g>
</svg>
