<?xml version="1.0" encoding="UTF-8" standalone="no"?>
<!DOCTYPE svg PUBLIC "-//W3C//DTD SVG 1.1//EN"
 "http://www.w3.org/Graphics/SVG/1.1/DTD/svg11.dtd">
<!-- Generated by graphviz version 2.36.0 (20140111.2315)
 -->
<!-- Title: /home/travis/build/AliceO2Group/AliceO2/Utilities/Publishers/include/Publishers/DataPublisherDevice.h Pages: 1 -->
<!--zoomable 364 -->
<svg id="main" version="1.1" xmlns="http://www.w3.org/2000/svg" xmlns:xlink="http://www.w3.org/1999/xlink" xml:space="preserve" onload="init(evt)">
<style type="text/css"><![CDATA[
.edge:hover path { stroke: red; }
.edge:hover polygon { stroke: red; fill: red; }
]]></style>
<script type="text/javascript"><![CDATA[
var edges = document.getElementsByTagName('g');
if (edges && edges.length) {
  for (var i=0;i<edges.length;i++) {
    if (edges[i].id.substr(0,4)=='edge') {
      edges[i].setAttribute('class','edge');
    }
  }
}
]]></script>
        <defs>
                <circle id="rim" cx="0" cy="0" r="7"/>
                <circle id="rim2" cx="0" cy="0" r="3.5"/>
                <g id="zoomPlus">
                        <use xlink:href="#rim" fill="#404040">
                                <set attributeName="fill" to="#808080" begin="zoomplus.mouseover" end="zoomplus.mouseout"/>
                        </use>
                        <path d="M-4,0h8M0,-4v8" fill="none" stroke="white" stroke-width="1.5" pointer-events="none"/>
                </g>
                <g id="zoomMin">
                        <use xlink:href="#rim" fill="#404040">
                                <set attributeName="fill" to="#808080" begin="zoomminus.mouseover" end="zoomminus.mouseout"/>
                        </use>
                        <path d="M-4,0h8" fill="none" stroke="white" stroke-width="1.5" pointer-events="none"/>
                </g>
                <g id="dirArrow">
                        <path fill="none" stroke="white" stroke-width="1.5" d="M0,-3.0v7 M-2.5,-0.5L0,-3.0L2.5,-0.5"/>
                </g>
               <g id="resetDef">
                       <use xlink:href="#rim2" fill="#404040">
                               <set attributeName="fill" to="#808080" begin="reset.mouseover" end="reset.mouseout"/>
                       </use>
               </g>
        </defs>

<script type="text/javascript">
var viewWidth = 2096;
var viewHeight = 364;
var sectionId = 'dynsection-0';
</script>
<script xlink:href="../../svgpan.js"/>
<svg id="graph" class="graph">
<g id="viewport">
<title>/home/travis/build/AliceO2Group/AliceO2/Utilities/Publishers/include/Publishers/DataPublisherDevice.h</title>
<!-- Node1 -->
<g id="node1" class="node"><title>Node1</title>
<polygon fill="#bfbfbf" stroke="black" points="270,-292.5 270,-355.5 434,-355.5 434,-292.5 270,-292.5"/>
<text text-anchor="start" x="278" y="-343.5" font-family="Helvetica,sans-Serif" font-size="10.00">/home/travis/build</text>
<text text-anchor="start" x="278" y="-332.5" font-family="Helvetica,sans-Serif" font-size="10.00">/AliceO2Group/AliceO2</text>
<text text-anchor="start" x="278" y="-321.5" font-family="Helvetica,sans-Serif" font-size="10.00">/Utilities/Publishers</text>
<text text-anchor="start" x="278" y="-310.5" font-family="Helvetica,sans-Serif" font-size="10.00">/include/Publishers/DataPublisher</text>
<text text-anchor="middle" x="352" y="-299.5" font-family="Helvetica,sans-Serif" font-size="10.00">Device.h</text>
</g>
<!-- Node2 -->
<g id="node2" class="node"><title>Node2</title>
<g id="a_node2"><a xlink:href="../../dc/dcd/DataHeader_8h.html" target="_top" xlink:title="Headers/DataHeader.h">
<polygon fill="none" stroke="black" points="293.5,-68.5 293.5,-87.5 410.5,-87.5 410.5,-68.5 293.5,-68.5"/>
<text text-anchor="middle" x="352" y="-75.5" font-family="Helvetica,sans-Serif" font-size="10.00">Headers/DataHeader.h</text>
</a>
</g>
</g>
<!-- Node1&#45;&gt;Node2 -->
<g id="edge1" class="edge"><title>Node1&#45;&gt;Node2</title>
<path fill="none" stroke="midnightblue" d="M352,-292.097C352,-240.757 352,-139.41 352,-97.6537"/>
<polygon fill="midnightblue" stroke="midnightblue" points="355.5,-97.5477 352,-87.5477 348.5,-97.5477 355.5,-97.5477"/>
</g>
<!-- Node6 -->
<g id="node6" class="node"><title>Node6</title>
<polygon fill="none" stroke="#bfbfbf" points="416,-6.5 416,-25.5 462,-25.5 462,-6.5 416,-6.5"/>
<text text-anchor="middle" x="439" y="-13.5" font-family="Helvetica,sans-Serif" font-size="10.00">cstring</text>
</g>
<!-- Node1&#45;&gt;Node6 -->
<g id="edge43" class="edge"><title>Node1&#45;&gt;Node6</title>
<path fill="none" stroke="midnightblue" d="M387.135,-292.262C411.281,-267.604 439,-230.66 439,-191 439,-191 439,-191 439,-133 439,-98.7159 439,-58.7321 439,-35.7902"/>
<polygon fill="midnightblue" stroke="midnightblue" points="442.5,-35.731 439,-25.731 435.5,-35.7311 442.5,-35.731"/>
</g>
<!-- Node11 -->
<g id="node11" class="node"><title>Node11</title>
<g id="a_node11"><a xlink:href="../../d2/d09/HeartbeatFrame_8h.html" target="_top" xlink:title="Headers/HeartbeatFrame.h">
<polygon fill="none" stroke="black" points="101.5,-124.5 101.5,-143.5 236.5,-143.5 236.5,-124.5 101.5,-124.5"/>
<text text-anchor="middle" x="169" y="-131.5" font-family="Helvetica,sans-Serif" font-size="10.00">Headers/HeartbeatFrame.h</text>
</a>
</g>
</g>
<!-- Node1&#45;&gt;Node11 -->
<g id="edge10" class="edge"><title>Node1&#45;&gt;Node11</title>
<path fill="none" stroke="midnightblue" d="M322.191,-292.376C282.957,-252.07 215.397,-182.665 184.835,-151.267"/>
<polygon fill="midnightblue" stroke="midnightblue" points="187.058,-148.533 177.574,-143.809 182.042,-153.416 187.058,-148.533"/>
</g>
<!-- Node14 -->
<g id="node14" class="node"><title>Node14</title>
<polygon fill="none" stroke="#bfbfbf" points="0,-6.5 0,-25.5 44,-25.5 44,-6.5 0,-6.5"/>
<text text-anchor="middle" x="22" y="-13.5" font-family="Helvetica,sans-Serif" font-size="10.00">vector</text>
</g>
<!-- Node1&#45;&gt;Node14 -->
<g id="edge44" class="edge"><title>Node1&#45;&gt;Node14</title>
<path fill="none" stroke="midnightblue" d="M269.989,-306.607C173.71,-284.957 27,-243.374 27,-191 27,-191 27,-191 27,-133 27,-98.6841 24.7889,-58.7108 23.3075,-35.7794"/>
<polygon fill="midnightblue" stroke="midnightblue" points="26.7946,-35.4689 22.6333,-25.7255 19.8103,-35.9373 26.7946,-35.4689"/>
</g>
<!-- Node15 -->
<g id="node15" class="node"><title>Node15</title>
<g id="a_node15"><a xlink:href="../../d2/dee/O2Device_8h.html" target="_top" xlink:title="O2Device/O2Device.h">
<polygon fill="none" stroke="black" points="554.5,-236.5 554.5,-255.5 669.5,-255.5 669.5,-236.5 554.5,-236.5"/>
<text text-anchor="middle" x="612" y="-243.5" font-family="Helvetica,sans-Serif" font-size="10.00">O2Device/O2Device.h</text>
</a>
</g>
</g>
<!-- Node1&#45;&gt;Node15 -->
<g id="edge15" class="edge"><title>Node1&#45;&gt;Node15</title>
<path fill="none" stroke="midnightblue" d="M434.266,-298.953C480.638,-285.398 536.42,-269.093 572.968,-258.409"/>
<polygon fill="midnightblue" stroke="midnightblue" points="574.127,-261.717 582.743,-255.552 572.163,-254.998 574.127,-261.717"/>
</g>
<!-- Node3 -->
<g id="node3" class="node"><title>Node3</title>
<polygon fill="none" stroke="#bfbfbf" points="140,-6.5 140,-25.5 186,-25.5 186,-6.5 140,-6.5"/>
<text text-anchor="middle" x="163" y="-13.5" font-family="Helvetica,sans-Serif" font-size="10.00">cstdint</text>
</g>
<!-- Node2&#45;&gt;Node3 -->
<g id="edge2" class="edge"><title>Node2&#45;&gt;Node3</title>
<path fill="none" stroke="midnightblue" d="M316.248,-68.4839C284.081,-60.4157 235.753,-47.281 195,-32 193.147,-31.3053 191.253,-30.5475 189.358,-29.7537"/>
<polygon fill="midnightblue" stroke="midnightblue" points="190.615,-26.4819 180.056,-25.6081 187.765,-32.8757 190.615,-26.4819"/>
</g>
<!-- Node4 -->
<g id="node4" class="node"><title>Node4</title>
<polygon fill="none" stroke="#bfbfbf" points="204,-6.5 204,-25.5 256,-25.5 256,-6.5 204,-6.5"/>
<text text-anchor="middle" x="230" y="-13.5" font-family="Helvetica,sans-Serif" font-size="10.00">memory</text>
</g>
<!-- Node2&#45;&gt;Node4 -->
<g id="edge3" class="edge"><title>Node2&#45;&gt;Node4</title>
<path fill="none" stroke="midnightblue" d="M334.52,-68.4035C314.137,-58.3787 280.225,-41.7006 256.575,-30.0699"/>
<polygon fill="midnightblue" stroke="midnightblue" points="257.965,-26.8531 247.447,-25.5806 254.876,-33.1346 257.965,-26.8531"/>
</g>
<!-- Node5 -->
<g id="node5" class="node"><title>Node5</title>
<polygon fill="none" stroke="#bfbfbf" points="274.5,-6.5 274.5,-25.5 323.5,-25.5 323.5,-6.5 274.5,-6.5"/>
<text text-anchor="middle" x="299" y="-13.5" font-family="Helvetica,sans-Serif" font-size="10.00">cassert</text>
</g>
<!-- Node2&#45;&gt;Node5 -->
<g id="edge4" class="edge"><title>Node2&#45;&gt;Node5</title>
<path fill="none" stroke="midnightblue" d="M344.406,-68.4035C336.299,-59.2252 323.265,-44.4699 313.237,-33.1173"/>
<polygon fill="midnightblue" stroke="midnightblue" points="315.823,-30.7582 306.58,-25.5806 310.577,-35.3925 315.823,-30.7582"/>
</g>
<!-- Node2&#45;&gt;Node6 -->
<g id="edge5" class="edge"><title>Node2&#45;&gt;Node6</title>
<path fill="none" stroke="midnightblue" d="M364.465,-68.4035C378.419,-58.7797 401.265,-43.0242 417.991,-31.4891"/>
<polygon fill="midnightblue" stroke="midnightblue" points="420.313,-34.1392 426.558,-25.5806 416.339,-28.3767 420.313,-34.1392"/>
</g>
<!-- Node7 -->
<g id="node7" class="node"><title>Node7</title>
<polygon fill="none" stroke="#bfbfbf" points="342,-6.5 342,-25.5 398,-25.5 398,-6.5 342,-6.5"/>
<text text-anchor="middle" x="370" y="-13.5" font-family="Helvetica,sans-Serif" font-size="10.00">algorithm</text>
</g>
<!-- Node2&#45;&gt;Node7 -->
<g id="edge6" class="edge"><title>Node2&#45;&gt;Node7</title>
<path fill="none" stroke="midnightblue" d="M354.579,-68.4035C357.145,-59.849 361.165,-46.4497 364.457,-35.4762"/>
<polygon fill="midnightblue" stroke="midnightblue" points="367.905,-36.1646 367.426,-25.5806 361.2,-34.1531 367.905,-36.1646"/>
</g>
<!-- Node8 -->
<g id="node8" class="node"><title>Node8</title>
<polygon fill="none" stroke="#bfbfbf" points="62.5,-6.5 62.5,-25.5 121.5,-25.5 121.5,-6.5 62.5,-6.5"/>
<text text-anchor="middle" x="92" y="-13.5" font-family="Helvetica,sans-Serif" font-size="10.00">stdexcept</text>
</g>
<!-- Node2&#45;&gt;Node8 -->
<g id="edge7" class="edge"><title>Node2&#45;&gt;Node8</title>
<path fill="none" stroke="midnightblue" d="M297.346,-68.4784C252.241,-60.8262 186.816,-48.2936 131,-32 128.032,-31.1335 124.971,-30.1397 121.93,-29.085"/>
<polygon fill="midnightblue" stroke="midnightblue" points="123.019,-25.7564 112.426,-25.59 120.603,-32.3263 123.019,-25.7564"/>
</g>
<!-- Node9 -->
<g id="node9" class="node"><title>Node9</title>
<polygon fill="none" stroke="#bfbfbf" points="480.5,-6.5 480.5,-25.5 521.5,-25.5 521.5,-6.5 480.5,-6.5"/>
<text text-anchor="middle" x="501" y="-13.5" font-family="Helvetica,sans-Serif" font-size="10.00">string</text>
</g>
<!-- Node2&#45;&gt;Node9 -->
<g id="edge8" class="edge"><title>Node2&#45;&gt;Node9</title>
<path fill="none" stroke="midnightblue" d="M376.91,-68.4174C401.194,-59.8553 439.03,-45.9936 471,-32 472.4,-31.3871 473.829,-30.7421 475.265,-30.0782"/>
<polygon fill="midnightblue" stroke="midnightblue" points="477.151,-33.0545 484.639,-25.5587 474.111,-26.7492 477.151,-33.0545"/>
</g>
<!-- Node10 -->
<g id="node10" class="node"><title>Node10</title>
<g id="a_node10"><a xlink:href="../../d7/df8/Types_8h.html" target="_top" xlink:title="MemoryResources/Types.h">
<polygon fill="none" stroke="black" points="539.5,-6.5 539.5,-25.5 676.5,-25.5 676.5,-6.5 539.5,-6.5"/>
<text text-anchor="middle" x="608" y="-13.5" font-family="Helvetica,sans-Serif" font-size="10.00">MemoryResources/Types.h</text>
</a>
</g>
</g>
<!-- Node2&#45;&gt;Node10 -->
<g id="edge9" class="edge"><title>Node2&#45;&gt;Node10</title>
<path fill="none" stroke="midnightblue" d="M388.407,-68.4672C433.994,-57.7825 512.133,-39.4687 561.865,-27.8129"/>
<polygon fill="midnightblue" stroke="midnightblue" points="562.781,-31.193 571.719,-25.5034 561.184,-24.3777 562.781,-31.193"/>
</g>
<!-- Node11&#45;&gt;Node2 -->
<g id="edge11" class="edge"><title>Node11&#45;&gt;Node2</title>
<path fill="none" stroke="midnightblue" d="M197.997,-124.444C229.185,-115.241 278.93,-100.562 313.408,-90.3879"/>
<polygon fill="midnightblue" stroke="midnightblue" points="314.538,-93.7036 323.139,-87.5164 312.557,-86.9898 314.538,-93.7036"/>
</g>
<!-- Node12 -->
<g id="node12" class="node"><title>Node12</title>
<polygon fill="none" stroke="#bfbfbf" points="173.5,-68.5 173.5,-87.5 232.5,-87.5 232.5,-68.5 173.5,-68.5"/>
<text text-anchor="middle" x="203" y="-75.5" font-family="Helvetica,sans-Serif" font-size="10.00">functional</text>
</g>
<!-- Node11&#45;&gt;Node12 -->
<g id="edge12" class="edge"><title>Node11&#45;&gt;Node12</title>
<path fill="none" stroke="midnightblue" d="M174.614,-124.083C179.367,-116.534 186.318,-105.495 192.152,-96.2298"/>
<polygon fill="midnightblue" stroke="midnightblue" points="195.124,-98.0783 197.49,-87.7511 189.2,-94.3486 195.124,-98.0783"/>
</g>
<!-- Node13 -->
<g id="node13" class="node"><title>Node13</title>
<polygon fill="none" stroke="#bfbfbf" points="120.5,-68.5 120.5,-87.5 155.5,-87.5 155.5,-68.5 120.5,-68.5"/>
<text text-anchor="middle" x="138" y="-75.5" font-family="Helvetica,sans-Serif" font-size="10.00">map</text>
</g>
<!-- Node11&#45;&gt;Node13 -->
<g id="edge13" class="edge"><title>Node11&#45;&gt;Node13</title>
<path fill="none" stroke="midnightblue" d="M163.881,-124.083C159.592,-116.613 153.342,-105.724 148.058,-96.5199"/>
<polygon fill="midnightblue" stroke="midnightblue" points="151.038,-94.6811 143.024,-87.7511 144.967,-98.1662 151.038,-94.6811"/>
</g>
<!-- Node11&#45;&gt;Node14 -->
<g id="edge14" class="edge"><title>Node11&#45;&gt;Node14</title>
<path fill="none" stroke="midnightblue" d="M157.846,-124.418C146.143,-115.396 127.227,-100.766 111,-88 86.5698,-68.7795 58.5679,-46.3795 40.6024,-31.9601"/>
<polygon fill="midnightblue" stroke="midnightblue" points="42.637,-29.1051 32.6488,-25.5714 38.2533,-34.5625 42.637,-29.1051"/>
</g>
<!-- Node15&#45;&gt;Node8 -->
<g id="edge42" class="edge"><title>Node15&#45;&gt;Node8</title>
<path fill="none" stroke="midnightblue" d="M572.394,-236.46C540.68,-228.909 495.463,-216.524 458,-200 354.714,-154.445 343.544,-115.202 241,-68 194.272,-46.4909 179.466,-49.2386 131,-32 128.46,-31.0967 125.836,-30.1396 123.206,-29.1634"/>
<polygon fill="midnightblue" stroke="midnightblue" points="124.383,-25.8667 113.792,-25.6061 121.909,-32.4149 124.383,-25.8667"/>
</g>
<!-- Node16 -->
<g id="node16" class="node"><title>Node16</title>
<polygon fill="none" stroke="#bfbfbf" points="637,-180.5 637,-199.5 725,-199.5 725,-180.5 637,-180.5"/>
<text text-anchor="middle" x="681" y="-187.5" font-family="Helvetica,sans-Serif" font-size="10.00">FairMQDevice.h</text>
</g>
<!-- Node15&#45;&gt;Node16 -->
<g id="edge16" class="edge"><title>Node15&#45;&gt;Node16</title>
<path fill="none" stroke="midnightblue" d="M623.086,-236.324C633.486,-228.185 649.261,-215.839 661.722,-206.087"/>
<polygon fill="midnightblue" stroke="midnightblue" points="663.994,-208.753 669.712,-199.834 659.68,-203.241 663.994,-208.753"/>
</g>
<!-- Node17 -->
<g id="node17" class="node"><title>Node17</title>
<polygon fill="none" stroke="#bfbfbf" points="743,-180.5 743,-199.5 889,-199.5 889,-180.5 743,-180.5"/>
<text text-anchor="middle" x="816" y="-187.5" font-family="Helvetica,sans-Serif" font-size="10.00">options/FairMQProgOptions.h</text>
</g>
<!-- Node15&#45;&gt;Node17 -->
<g id="edge17" class="edge"><title>Node15&#45;&gt;Node17</title>
<path fill="none" stroke="midnightblue" d="M644.324,-236.444C679.389,-227.162 735.498,-212.309 773.965,-202.127"/>
<polygon fill="midnightblue" stroke="midnightblue" points="775.055,-205.459 783.827,-199.516 773.264,-198.692 775.055,-205.459"/>
</g>
<!-- Node18 -->
<g id="node18" class="node"><title>Node18</title>
<g id="a_node18"><a xlink:href="../../d7/db2/Utilities_8h.html" target="_top" xlink:title="O2Device/Utilities.h">
<polygon fill="none" stroke="black" points="940,-180.5 940,-199.5 1044,-199.5 1044,-180.5 940,-180.5"/>
<text text-anchor="middle" x="992" y="-187.5" font-family="Helvetica,sans-Serif" font-size="10.00">O2Device/Utilities.h</text>
</a>
</g>
</g>
<!-- Node15&#45;&gt;Node18 -->
<g id="edge18" class="edge"><title>Node15&#45;&gt;Node18</title>
<path fill="none" stroke="midnightblue" d="M669.714,-236.799C739.768,-226.844 857.452,-210.12 929.568,-199.872"/>
<polygon fill="midnightblue" stroke="midnightblue" points="930.458,-203.281 939.866,-198.408 929.473,-196.35 930.458,-203.281"/>
</g>
<!-- Node33 -->
<g id="node33" class="node"><title>Node33</title>
<polygon fill="none" stroke="#bfbfbf" points="467.5,-180.5 467.5,-199.5 618.5,-199.5 618.5,-180.5 467.5,-180.5"/>
<text text-anchor="middle" x="543" y="-187.5" font-family="Helvetica,sans-Serif" font-size="10.00">Monitoring/MonitoringFactory.h</text>
</g>
<!-- Node15&#45;&gt;Node33 -->
<g id="edge41" class="edge"><title>Node15&#45;&gt;Node33</title>
<path fill="none" stroke="midnightblue" d="M600.914,-236.324C590.514,-228.185 574.739,-215.839 562.278,-206.087"/>
<polygon fill="midnightblue" stroke="midnightblue" points="564.32,-203.241 554.288,-199.834 560.006,-208.753 564.32,-203.241"/>
</g>
<!-- Node18&#45;&gt;Node2 -->
<g id="edge35" class="edge"><title>Node18&#45;&gt;Node2</title>
<path fill="none" stroke="midnightblue" d="M942.313,-180.46C826.191,-160.502 537.384,-110.863 411.848,-89.2864"/>
<polygon fill="midnightblue" stroke="midnightblue" points="412.104,-85.7791 401.656,-87.5345 410.918,-92.678 412.104,-85.7791"/>
</g>
<!-- Node19 -->
<g id="node19" class="node"><title>Node19</title>
<g id="a_node19"><a xlink:href="../../dc/d03/MemoryResources_8h.html" target="_top" xlink:title="MemoryResources/MemoryResources.h">
<polygon fill="none" stroke="black" points="928.5,-68.5 928.5,-87.5 1121.5,-87.5 1121.5,-68.5 928.5,-68.5"/>
<text text-anchor="middle" x="1025" y="-75.5" font-family="Helvetica,sans-Serif" font-size="10.00">MemoryResources/MemoryResources.h</text>
</a>
</g>
</g>
<!-- Node18&#45;&gt;Node19 -->
<g id="edge19" class="edge"><title>Node18&#45;&gt;Node19</title>
<path fill="none" stroke="midnightblue" d="M994.728,-180.387C997.582,-171.339 1002.17,-156.69 1006,-144 1010.72,-128.347 1015.92,-110.52 1019.68,-97.4992"/>
<polygon fill="midnightblue" stroke="midnightblue" points="1023.06,-98.4239 1022.47,-87.8457 1016.33,-96.4852 1023.06,-98.4239"/>
</g>
<!-- Node25 -->
<g id="node25" class="node"><title>Node25</title>
<polygon fill="none" stroke="#bfbfbf" points="2048,-6.5 2048,-25.5 2088,-25.5 2088,-6.5 2048,-6.5"/>
<text text-anchor="middle" x="2068" y="-13.5" font-family="Helvetica,sans-Serif" font-size="10.00">utility</text>
</g>
<!-- Node18&#45;&gt;Node25 -->
<g id="edge39" class="edge"><title>Node18&#45;&gt;Node25</title>
<path fill="none" stroke="midnightblue" d="M1010.76,-180.407C1042.72,-166.172 1110.07,-137.893 1170,-124 1548.35,-36.2902 1666.99,-143.583 2039,-32 2040.91,-31.4259 2042.85,-30.7256 2044.77,-29.9446"/>
<polygon fill="midnightblue" stroke="midnightblue" points="2046.45,-33.021 2053.99,-25.5789 2043.45,-26.6941 2046.45,-33.021"/>
</g>
<!-- Node31 -->
<g id="node31" class="node"><title>Node31</title>
<g id="a_node31"><a xlink:href="../../d4/d00/Headers_2include_2Headers_2Stack_8h.html" target="_top" xlink:title="Headers/Stack.h">
<polygon fill="none" stroke="black" points="907,-124.5 907,-143.5 997,-143.5 997,-124.5 907,-124.5"/>
<text text-anchor="middle" x="952" y="-131.5" font-family="Helvetica,sans-Serif" font-size="10.00">Headers/Stack.h</text>
</a>
</g>
</g>
<!-- Node18&#45;&gt;Node31 -->
<g id="edge36" class="edge"><title>Node18&#45;&gt;Node31</title>
<path fill="none" stroke="midnightblue" d="M985.395,-180.083C979.745,-172.455 971.455,-161.264 964.549,-151.941"/>
<polygon fill="midnightblue" stroke="midnightblue" points="967.247,-149.703 958.482,-143.751 961.622,-153.87 967.247,-149.703"/>
</g>
<!-- Node32 -->
<g id="node32" class="node"><title>Node32</title>
<polygon fill="none" stroke="#bfbfbf" points="1178.5,-124.5 1178.5,-143.5 1223.5,-143.5 1223.5,-124.5 1178.5,-124.5"/>
<text text-anchor="middle" x="1201" y="-131.5" font-family="Helvetica,sans-Serif" font-size="10.00">gsl/gsl</text>
</g>
<!-- Node18&#45;&gt;Node32 -->
<g id="edge40" class="edge"><title>Node18&#45;&gt;Node32</title>
<path fill="none" stroke="midnightblue" d="M1025.12,-180.444C1064.42,-170.288 1129.54,-153.464 1168.55,-143.385"/>
<polygon fill="midnightblue" stroke="midnightblue" points="1169.54,-146.744 1178.34,-140.854 1167.79,-139.966 1169.54,-146.744"/>
</g>
<!-- Node19&#45;&gt;Node6 -->
<g id="edge24" class="edge"><title>Node19&#45;&gt;Node6</title>
<path fill="none" stroke="midnightblue" d="M928.294,-73.2918C793.063,-67.3969 554.644,-54.2236 471,-32 468.648,-31.3752 466.258,-30.584 463.896,-29.693"/>
<polygon fill="midnightblue" stroke="midnightblue" points="465.096,-26.3988 454.529,-25.6388 462.316,-32.8229 465.096,-26.3988"/>
</g>
<!-- Node19&#45;&gt;Node9 -->
<g id="edge25" class="edge"><title>Node19&#45;&gt;Node9</title>
<path fill="none" stroke="midnightblue" d="M928.411,-72.6358C806.012,-66.3409 602.274,-53.0962 530,-32 528.082,-31.4401 526.142,-30.7501 524.223,-29.9762"/>
<polygon fill="midnightblue" stroke="midnightblue" points="525.534,-26.7248 514.997,-25.6244 522.548,-33.056 525.534,-26.7248"/>
</g>
<!-- Node19&#45;&gt;Node10 -->
<g id="edge34" class="edge"><title>Node19&#45;&gt;Node10</title>
<path fill="none" stroke="midnightblue" d="M951.417,-68.4812C882.627,-60.2218 777.127,-46.7977 686,-32 677.586,-30.6338 668.688,-29.0528 660.03,-27.4404"/>
<polygon fill="midnightblue" stroke="midnightblue" points="660.497,-23.9666 650.02,-25.5442 659.194,-30.8443 660.497,-23.9666"/>
</g>
<!-- Node19&#45;&gt;Node14 -->
<g id="edge28" class="edge"><title>Node19&#45;&gt;Node14</title>
<path fill="none" stroke="midnightblue" d="M928.374,-74.7337C699.294,-69.0452 136.151,-53.0957 53,-32 50.6529,-31.4045 48.2726,-30.6221 45.9283,-29.7266"/>
<polygon fill="midnightblue" stroke="midnightblue" points="47.2303,-26.4751 36.6717,-25.5998 44.38,-32.8685 47.2303,-26.4751"/>
</g>
<!-- Node20 -->
<g id="node20" class="node"><title>Node20</title>
<polygon fill="none" stroke="#bfbfbf" points="695,-1 695,-31 795,-31 795,-1 695,-1"/>
<text text-anchor="start" x="703" y="-19" font-family="Helvetica,sans-Serif" font-size="10.00">boost/container/flat</text>
<text text-anchor="middle" x="745" y="-8" font-family="Helvetica,sans-Serif" font-size="10.00">_map.hpp</text>
</g>
<!-- Node19&#45;&gt;Node20 -->
<g id="edge20" class="edge"><title>Node19&#45;&gt;Node20</title>
<path fill="none" stroke="midnightblue" d="M979.997,-68.4944C937.341,-60.285 871.247,-47.1853 804.952,-32.1607"/>
<polygon fill="midnightblue" stroke="midnightblue" points="805.7,-28.7415 795.172,-29.9304 804.144,-35.5663 805.7,-28.7415"/>
</g>
<!-- Node21 -->
<g id="node21" class="node"><title>Node21</title>
<polygon fill="none" stroke="#bfbfbf" points="813,-1 813,-31 929,-31 929,-1 813,-1"/>
<text text-anchor="start" x="821" y="-19" font-family="Helvetica,sans-Serif" font-size="10.00">boost/container/pmr</text>
<text text-anchor="middle" x="871" y="-8" font-family="Helvetica,sans-Serif" font-size="10.00">/memory_resource.hpp</text>
</g>
<!-- Node19&#45;&gt;Node21 -->
<g id="edge21" class="edge"><title>Node19&#45;&gt;Node21</title>
<path fill="none" stroke="midnightblue" d="M1002.94,-68.4035C980.444,-59.6406 944.905,-45.7942 916.376,-34.6789"/>
<polygon fill="midnightblue" stroke="midnightblue" points="917.587,-31.3945 906.998,-31.0253 915.045,-37.9169 917.587,-31.3945"/>
</g>
<!-- Node22 -->
<g id="node22" class="node"><title>Node22</title>
<polygon fill="none" stroke="#bfbfbf" points="947,-1 947,-31 1103,-31 1103,-1 947,-1"/>
<text text-anchor="start" x="955" y="-19" font-family="Helvetica,sans-Serif" font-size="10.00">boost/container/pmr</text>
<text text-anchor="middle" x="1025" y="-8" font-family="Helvetica,sans-Serif" font-size="10.00">/monotonic_buffer_resource.hpp</text>
</g>
<!-- Node19&#45;&gt;Node22 -->
<g id="edge22" class="edge"><title>Node19&#45;&gt;Node22</title>
<path fill="none" stroke="midnightblue" d="M1025,-68.4035C1025,-61.3405 1025,-50.975 1025,-41.399"/>
<polygon fill="midnightblue" stroke="midnightblue" points="1028.5,-41.1408 1025,-31.1408 1021.5,-41.1408 1028.5,-41.1408"/>
</g>
<!-- Node23 -->
<g id="node23" class="node"><title>Node23</title>
<polygon fill="none" stroke="#bfbfbf" points="1121.5,-1 1121.5,-31 1254.5,-31 1254.5,-1 1121.5,-1"/>
<text text-anchor="start" x="1129.5" y="-19" font-family="Helvetica,sans-Serif" font-size="10.00">boost/container/pmr</text>
<text text-anchor="middle" x="1188" y="-8" font-family="Helvetica,sans-Serif" font-size="10.00">/polymorphic_allocator.hpp</text>
</g>
<!-- Node19&#45;&gt;Node23 -->
<g id="edge23" class="edge"><title>Node19&#45;&gt;Node23</title>
<path fill="none" stroke="midnightblue" d="M1048.35,-68.4035C1072.26,-59.6025 1110.1,-45.6737 1140.37,-34.534"/>
<polygon fill="midnightblue" stroke="midnightblue" points="1141.72,-37.7643 1149.9,-31.0253 1139.3,-31.1952 1141.72,-37.7643"/>
</g>
<!-- Node24 -->
<g id="node24" class="node"><title>Node24</title>
<polygon fill="none" stroke="#bfbfbf" points="1273,-6.5 1273,-25.5 1335,-25.5 1335,-6.5 1273,-6.5"/>
<text text-anchor="middle" x="1304" y="-13.5" font-family="Helvetica,sans-Serif" font-size="10.00">type_traits</text>
</g>
<!-- Node19&#45;&gt;Node24 -->
<g id="edge26" class="edge"><title>Node19&#45;&gt;Node24</title>
<path fill="none" stroke="midnightblue" d="M1084.79,-68.4787C1133.3,-60.9018 1203.2,-48.4725 1263,-32 1266.22,-31.1143 1269.54,-30.09 1272.83,-29.0008"/>
<polygon fill="midnightblue" stroke="midnightblue" points="1274.23,-32.22 1282.51,-25.6126 1271.92,-25.6131 1274.23,-32.22"/>
</g>
<!-- Node19&#45;&gt;Node25 -->
<g id="edge27" class="edge"><title>Node19&#45;&gt;Node25</title>
<path fill="none" stroke="midnightblue" d="M1121.55,-68.9327C1126.43,-68.5994 1131.27,-68.2858 1136,-68 1336.46,-55.8825 1844.85,-83.3559 2039,-32 2040.97,-31.4782 2042.96,-30.8065 2044.93,-30.0374"/>
<polygon fill="midnightblue" stroke="midnightblue" points="2046.77,-33.0386 2054.34,-25.6232 2043.8,-26.7012 2046.77,-33.0386"/>
</g>
<!-- Node26 -->
<g id="node26" class="node"><title>Node26</title>
<polygon fill="none" stroke="#bfbfbf" points="1353.5,-6.5 1353.5,-25.5 1436.5,-25.5 1436.5,-6.5 1353.5,-6.5"/>
<text text-anchor="middle" x="1395" y="-13.5" font-family="Helvetica,sans-Serif" font-size="10.00">unordered_map</text>
</g>
<!-- Node19&#45;&gt;Node26 -->
<g id="edge29" class="edge"><title>Node19&#45;&gt;Node26</title>
<path fill="none" stroke="midnightblue" d="M1107.92,-68.4934C1172.42,-61.1007 1263.94,-48.9098 1343,-32 1348.04,-30.9222 1353.31,-29.6178 1358.47,-28.2333"/>
<polygon fill="midnightblue" stroke="midnightblue" points="1359.51,-31.5778 1368.19,-25.5107 1357.62,-24.8372 1359.51,-31.5778"/>
</g>
<!-- Node27 -->
<g id="node27" class="node"><title>Node27</title>
<polygon fill="none" stroke="#bfbfbf" points="1454.5,-6.5 1454.5,-25.5 1551.5,-25.5 1551.5,-6.5 1454.5,-6.5"/>
<text text-anchor="middle" x="1503" y="-13.5" font-family="Helvetica,sans-Serif" font-size="10.00">FairMQMessage.h</text>
</g>
<!-- Node19&#45;&gt;Node27 -->
<g id="edge30" class="edge"><title>Node19&#45;&gt;Node27</title>
<path fill="none" stroke="midnightblue" d="M1119.68,-68.4813C1223.9,-58.8157 1384.66,-42.9734 1445,-32 1450.97,-30.9151 1457.22,-29.5464 1463.33,-28.0795"/>
<polygon fill="midnightblue" stroke="midnightblue" points="1464.54,-31.3842 1473.38,-25.5507 1462.83,-24.5957 1464.54,-31.3842"/>
</g>
<!-- Node28 -->
<g id="node28" class="node"><title>Node28</title>
<polygon fill="none" stroke="#bfbfbf" points="1569.5,-6.5 1569.5,-25.5 1700.5,-25.5 1700.5,-6.5 1569.5,-6.5"/>
<text text-anchor="middle" x="1635" y="-13.5" font-family="Helvetica,sans-Serif" font-size="10.00">FairMQTransportFactory.h</text>
</g>
<!-- Node19&#45;&gt;Node28 -->
<g id="edge31" class="edge"><title>Node19&#45;&gt;Node28</title>
<path fill="none" stroke="midnightblue" d="M1121.61,-69.1597C1269.86,-57.0869 1538.7,-35.0157 1560,-32 1568.69,-30.7692 1577.9,-29.1736 1586.77,-27.4837"/>
<polygon fill="midnightblue" stroke="midnightblue" points="1587.47,-30.9141 1596.6,-25.5502 1586.12,-24.0456 1587.47,-30.9141"/>
</g>
<!-- Node29 -->
<g id="node29" class="node"><title>Node29</title>
<polygon fill="none" stroke="#bfbfbf" points="1718.5,-6.5 1718.5,-25.5 1855.5,-25.5 1855.5,-6.5 1718.5,-6.5"/>
<text text-anchor="middle" x="1787" y="-13.5" font-family="Helvetica,sans-Serif" font-size="10.00">fairmq/MemoryResources.h</text>
</g>
<!-- Node19&#45;&gt;Node29 -->
<g id="edge32" class="edge"><title>Node19&#45;&gt;Node29</title>
<path fill="none" stroke="midnightblue" d="M1121.55,-69.0655C1126.44,-68.6972 1131.28,-68.3399 1136,-68 1390.51,-49.6884 1455.87,-64.159 1709,-32 1718.34,-30.813 1728.25,-29.1918 1737.76,-27.4525"/>
<polygon fill="midnightblue" stroke="midnightblue" points="1738.7,-30.8362 1747.88,-25.5337 1737.4,-23.9589 1738.7,-30.8362"/>
</g>
<!-- Node30 -->
<g id="node30" class="node"><title>Node30</title>
<polygon fill="none" stroke="#bfbfbf" points="1874,-6.5 1874,-25.5 2030,-25.5 2030,-6.5 1874,-6.5"/>
<text text-anchor="middle" x="1952" y="-13.5" font-family="Helvetica,sans-Serif" font-size="10.00">fairmq/MemoryResourceTools.h</text>
</g>
<!-- Node19&#45;&gt;Node30 -->
<g id="edge33" class="edge"><title>Node19&#45;&gt;Node30</title>
<path fill="none" stroke="midnightblue" d="M1121.55,-68.9882C1126.43,-68.6402 1131.27,-68.3084 1136,-68 1459.26,-46.9072 1541.98,-67.2798 1864,-32 1875.09,-30.7853 1886.9,-29.0681 1898.14,-27.2269"/>
<polygon fill="midnightblue" stroke="midnightblue" points="1899,-30.6313 1908.28,-25.512 1897.83,-23.7294 1899,-30.6313"/>
</g>
<!-- Node31&#45;&gt;Node2 -->
<g id="edge38" class="edge"><title>Node31&#45;&gt;Node2</title>
<path fill="none" stroke="midnightblue" d="M906.902,-128.941C802.726,-119.565 544.803,-96.3523 420.772,-85.1895"/>
<polygon fill="midnightblue" stroke="midnightblue" points="420.909,-81.6878 410.636,-84.2772 420.282,-88.6596 420.909,-81.6878"/>
</g>
<!-- Node31&#45;&gt;Node19 -->
<g id="edge37" class="edge"><title>Node31&#45;&gt;Node19</title>
<path fill="none" stroke="midnightblue" d="M963.729,-124.324C974.837,-116.107 991.742,-103.602 1004.98,-93.8069"/>
<polygon fill="midnightblue" stroke="midnightblue" points="1007.1,-96.5948 1013.06,-87.8339 1002.94,-90.9671 1007.1,-96.5948"/>
</g>
</g>
</svg>
        <g id="navigator" transform="translate(0 0)" fill="#404254">
                <rect fill="#f2f5e9" fill-opacity="0.5" stroke="#606060" stroke-width=".5" x="0" y="0" width="60" height="60"/>
                <use id="zoomplus" xlink:href="#zoomPlus" x="17" y="9" onmousedown="handleZoom(evt,'in')"/>
                <use id="zoomminus" xlink:href="#zoomMin" x="42" y="9" onmousedown="handleZoom(evt,'out')"/>
                <use id="reset" xlink:href="#resetDef" x="30" y="36" onmousedown="handleReset()"/>
                <g id="arrowUp" xlink:href="#dirArrow" transform="translate(30 24)" onmousedown="handlePan(0,-1)">
                  <use xlink:href="#rim" fill="#404040">
                        <set attributeName="fill" to="#808080" begin="arrowUp.mouseover" end="arrowUp.mouseout"/>
                  </use>
                  <path fill="none" stroke="white" stroke-width="1.5" d="M0,-3.0v7 M-2.5,-0.5L0,-3.0L2.5,-0.5"/>
                </g>
                <g id="arrowRight" xlink:href="#dirArrow" transform="rotate(90) translate(36 -43)" onmousedown="handlePan(1,0)">
                  <use xlink:href="#rim" fill="#404040">
                        <set attributeName="fill" to="#808080" begin="arrowRight.mouseover" end="arrowRight.mouseout"/>
                  </use>
                  <path fill="none" stroke="white" stroke-width="1.5" d="M0,-3.0v7 M-2.5,-0.5L0,-3.0L2.5,-0.5"/>
                </g>
                <g id="arrowDown" xlink:href="#dirArrow" transform="rotate(180) translate(-30 -48)" onmousedown="handlePan(0,1)">
                  <use xlink:href="#rim" fill="#404040">
                        <set attributeName="fill" to="#808080" begin="arrowDown.mouseover" end="arrowDown.mouseout"/>
                  </use>
                  <path fill="none" stroke="white" stroke-width="1.5" d="M0,-3.0v7 M-2.5,-0.5L0,-3.0L2.5,-0.5"/>
                </g>
                <g id="arrowLeft" xlink:href="#dirArrow" transform="rotate(270) translate(-36 17)" onmousedown="handlePan(-1,0)">
                  <use xlink:href="#rim" fill="#404040">
                        <set attributeName="fill" to="#808080" begin="arrowLeft.mouseover" end="arrowLeft.mouseout"/>
                  </use>
                  <path fill="none" stroke="white" stroke-width="1.5" d="M0,-3.0v7 M-2.5,-0.5L0,-3.0L2.5,-0.5"/>
                </g>
        </g>
        <svg viewBox="0 0 15 15" width="100%" height="30px" preserveAspectRatio="xMaxYMin meet">
         <g id="arrow_out" transform="scale(0.3 0.3)">
          <a xlink:href="DataPublisherDevice_8h__incl_org.svg" target="_base">
           <rect id="button" ry="5" rx="5" y="6" x="6" height="38" width="38"
                fill="#f2f5e9" fill-opacity="0.5" stroke="#606060" stroke-width="1.0"/>
           <path id="arrow"
             d="M 11.500037,31.436501 C 11.940474,20.09759 22.043105,11.32322 32.158766,21.979434 L 37.068811,17.246167 C 37.068811,17.246167 37.088388,32 37.088388,32 L 22.160133,31.978069 C 22.160133,31.978069 26.997745,27.140456 26.997745,27.140456 C 18.528582,18.264221 13.291696,25.230495 11.500037,31.436501 z"
             style="fill:#404040;"/>
          </a>
         </g>
        </svg>
</svg>
