<?xml version="1.0" encoding="UTF-8" standalone="no"?>
<!DOCTYPE svg PUBLIC "-//W3C//DTD SVG 1.1//EN"
 "http://www.w3.org/Graphics/SVG/1.1/DTD/svg11.dtd">
<!-- Generated by graphviz version 2.36.0 (20140111.2315)
 -->
<!-- Title: /home/travis/build/AliceO2Group/AliceO2/Framework/Core/src/SimpleResourceManager.h Pages: 1 -->
<svg width="205pt" height="230pt"
 viewBox="0.00 0.00 205.00 230.00" xmlns="http://www.w3.org/2000/svg" xmlns:xlink="http://www.w3.org/1999/xlink">
<g id="graph0" class="graph" transform="scale(1 1) rotate(0) translate(4 226)">
<title>/home/travis/build/AliceO2Group/AliceO2/Framework/Core/src/SimpleResourceManager.h</title>
<!-- Node1 -->
<g id="node1" class="node"><title>Node1</title>
<polygon fill="#bfbfbf" stroke="black" points="13,-169 13,-221 197,-221 197,-169 13,-169"/>
<text text-anchor="start" x="21" y="-209" font-family="Helvetica,sans-Serif" font-size="10.00">/home/travis/build</text>
<text text-anchor="start" x="21" y="-198" font-family="Helvetica,sans-Serif" font-size="10.00">/AliceO2Group/AliceO2</text>
<text text-anchor="start" x="21" y="-187" font-family="Helvetica,sans-Serif" font-size="10.00">/Framework/Core/src/SimpleResource</text>
<text text-anchor="middle" x="105" y="-176" font-family="Helvetica,sans-Serif" font-size="10.00">Manager.h</text>
</g>
<!-- Node2 -->
<g id="node2" class="node"><title>Node2</title>
<g id="a_node2"><a xlink:href="../../de/d51/ResourceManager_8h.html" target="_top" xlink:title="ResourceManager.h">
<polygon fill="none" stroke="black" points="53,-112.5 53,-131.5 157,-131.5 157,-112.5 53,-112.5"/>
<text text-anchor="middle" x="105" y="-119.5" font-family="Helvetica,sans-Serif" font-size="10.00">ResourceManager.h</text>
</a>
</g>
</g>
<!-- Node1&#45;&gt;Node2 -->
<g id="edge1" class="edge"><title>Node1&#45;&gt;Node2</title>
<path fill="none" stroke="midnightblue" d="M105,-168.768C105,-159.89 105,-150.074 105,-141.816"/>
<polygon fill="midnightblue" stroke="midnightblue" points="108.5,-141.757 105,-131.757 101.5,-141.757 108.5,-141.757"/>
</g>
<!-- Node3 -->
<g id="node3" class="node"><title>Node3</title>
<g id="a_node3"><a xlink:href="../../d8/d62/ComputingResource_8h.html" target="_top" xlink:title="ComputingResource.h">
<polygon fill="none" stroke="black" points="0,-56.5 0,-75.5 114,-75.5 114,-56.5 0,-56.5"/>
<text text-anchor="middle" x="57" y="-63.5" font-family="Helvetica,sans-Serif" font-size="10.00">ComputingResource.h</text>
</a>
</g>
</g>
<!-- Node2&#45;&gt;Node3 -->
<g id="edge2" class="edge"><title>Node2&#45;&gt;Node3</title>
<path fill="none" stroke="midnightblue" d="M97.0738,-112.083C90.1539,-104.298 79.9346,-92.8015 71.548,-83.3665"/>
<polygon fill="midnightblue" stroke="midnightblue" points="74.0383,-80.8999 64.7787,-75.7511 68.8065,-85.5505 74.0383,-80.8999"/>
</g>
<!-- Node5 -->
<g id="node5" class="node"><title>Node5</title>
<polygon fill="none" stroke="#bfbfbf" points="132,-56.5 132,-75.5 176,-75.5 176,-56.5 132,-56.5"/>
<text text-anchor="middle" x="154" y="-63.5" font-family="Helvetica,sans-Serif" font-size="10.00">vector</text>
</g>
<!-- Node2&#45;&gt;Node5 -->
<g id="edge4" class="edge"><title>Node2&#45;&gt;Node5</title>
<path fill="none" stroke="midnightblue" d="M113.091,-112.083C120.155,-104.298 130.588,-92.8015 139.149,-83.3665"/>
<polygon fill="midnightblue" stroke="midnightblue" points="141.931,-85.5087 146.059,-75.7511 136.747,-80.8047 141.931,-85.5087"/>
</g>
<!-- Node4 -->
<g id="node4" class="node"><title>Node4</title>
<polygon fill="none" stroke="#bfbfbf" points="36.5,-0.5 36.5,-19.5 77.5,-19.5 77.5,-0.5 36.5,-0.5"/>
<text text-anchor="middle" x="57" y="-7.5" font-family="Helvetica,sans-Serif" font-size="10.00">string</text>
</g>
<!-- Node3&#45;&gt;Node4 -->
<g id="edge3" class="edge"><title>Node3&#45;&gt;Node4</title>
<path fill="none" stroke="midnightblue" d="M57,-56.083C57,-49.0059 57,-38.8611 57,-29.9865"/>
<polygon fill="midnightblue" stroke="midnightblue" points="60.5001,-29.751 57,-19.7511 53.5001,-29.7511 60.5001,-29.751"/>
</g>
</g>
</svg>
