<?xml version="1.0" encoding="UTF-8" standalone="no"?>
<!DOCTYPE svg PUBLIC "-//W3C//DTD SVG 1.1//EN"
 "http://www.w3.org/Graphics/SVG/1.1/DTD/svg11.dtd">
<!-- Generated by graphviz version 2.36.0 (20140111.2315)
 -->
<!-- Title: o2::mch::Mapping::MpPad Pages: 1 -->
<svg width="280pt" height="182pt"
 viewBox="0.00 0.00 280.00 182.00" xmlns="http://www.w3.org/2000/svg" xmlns:xlink="http://www.w3.org/1999/xlink">
<g id="graph0" class="graph" transform="scale(1 1) rotate(0) translate(4 178)">
<title>o2::mch::Mapping::MpPad</title>
<!-- Node1 -->
<g id="node1" class="node"><title>Node1</title>
<polygon fill="#bfbfbf" stroke="black" points="66.5,-0.5 66.5,-57.5 197.5,-57.5 197.5,-0.5 66.5,-0.5"/>
<text text-anchor="middle" x="132" y="-45.5" font-family="Helvetica,sans-Serif" font-size="10.00">o2::mch::Mapping::MpPad</text>
<polyline fill="none" stroke="black" points="66.5,-38.5 197.5,-38.5 "/>
<text text-anchor="middle" x="132" y="-26.5" font-family="Helvetica,sans-Serif" font-size="10.00"> </text>
<polyline fill="none" stroke="black" points="66.5,-19.5 197.5,-19.5 "/>
<text text-anchor="middle" x="132" y="-7.5" font-family="Helvetica,sans-Serif" font-size="10.00"> </text>
</g>
<!-- Node2 -->
<g id="node2" class="node"><title>Node2</title>
<polygon fill="none" stroke="#bfbfbf" points="-0.5,-116.5 -0.5,-173.5 50.5,-173.5 50.5,-116.5 -0.5,-116.5"/>
<text text-anchor="middle" x="25" y="-161.5" font-family="Helvetica,sans-Serif" font-size="10.00">uint16_t</text>
<polyline fill="none" stroke="#bfbfbf" points="-0.5,-154.5 50.5,-154.5 "/>
<text text-anchor="middle" x="25" y="-142.5" font-family="Helvetica,sans-Serif" font-size="10.00"> </text>
<polyline fill="none" stroke="#bfbfbf" points="-0.5,-135.5 50.5,-135.5 "/>
<text text-anchor="middle" x="25" y="-123.5" font-family="Helvetica,sans-Serif" font-size="10.00"> </text>
</g>
<!-- Node2&#45;&gt;Node1 -->
<g id="edge1" class="edge"><title>Node2&#45;&gt;Node1</title>
<path fill="none" stroke="#404040" d="M28.0239,-116.497C30.6762,-103.089 35.6548,-87.4334 45,-76 48.4381,-71.7937 52.3643,-67.9226 56.6043,-64.3684"/>
<polygon fill="none" stroke="#404040" points="56.7177,-64.2834 59.1199,-57.4842 66.3201,-57.0866 63.9178,-63.8858 56.7177,-64.2834"/>
<text text-anchor="middle" x="73.5" y="-90" font-family="Helvetica,sans-Serif" font-size="10.00"> +neighbours</text>
<text text-anchor="middle" x="73.5" y="-79" font-family="Helvetica,sans-Serif" font-size="10.00">+iDigit</text>
</g>
<!-- Node3 -->
<g id="node3" class="node"><title>Node3</title>
<g id="a_node3"><a xlink:href="../../d4/dc3/classfloat.html" target="_top" xlink:title="{float\n||}">
<polygon fill="none" stroke="black" points="85.5,-116.5 85.5,-173.5 120.5,-173.5 120.5,-116.5 85.5,-116.5"/>
<text text-anchor="middle" x="103" y="-161.5" font-family="Helvetica,sans-Serif" font-size="10.00">float</text>
<polyline fill="none" stroke="black" points="85.5,-154.5 120.5,-154.5 "/>
<text text-anchor="middle" x="103" y="-142.5" font-family="Helvetica,sans-Serif" font-size="10.00"> </text>
<polyline fill="none" stroke="black" points="85.5,-135.5 120.5,-135.5 "/>
<text text-anchor="middle" x="103" y="-123.5" font-family="Helvetica,sans-Serif" font-size="10.00"> </text>
</a>
</g>
</g>
<!-- Node3&#45;&gt;Node1 -->
<g id="edge2" class="edge"><title>Node3&#45;&gt;Node1</title>
<path fill="none" stroke="#404040" d="M103.689,-116.465C104.546,-103.933 106.335,-89.0235 110,-76 110.675,-73.6034 111.466,-71.1781 112.342,-68.7594"/>
<polygon fill="none" stroke="#404040" points="112.357,-68.7216 110.938,-61.6515 116.918,-57.622 118.337,-64.6921 112.357,-68.7216"/>
<text text-anchor="middle" x="124" y="-84.5" font-family="Helvetica,sans-Serif" font-size="10.00"> +area</text>
</g>
<!-- Node4 -->
<g id="node4" class="node"><title>Node4</title>
<polygon fill="none" stroke="#bfbfbf" points="139,-116.5 139,-173.5 185,-173.5 185,-116.5 139,-116.5"/>
<text text-anchor="middle" x="162" y="-161.5" font-family="Helvetica,sans-Serif" font-size="10.00">uint8_t</text>
<polyline fill="none" stroke="#bfbfbf" points="139,-154.5 185,-154.5 "/>
<text text-anchor="middle" x="162" y="-142.5" font-family="Helvetica,sans-Serif" font-size="10.00"> </text>
<polyline fill="none" stroke="#bfbfbf" points="139,-135.5 185,-135.5 "/>
<text text-anchor="middle" x="162" y="-123.5" font-family="Helvetica,sans-Serif" font-size="10.00"> </text>
</g>
<!-- Node4&#45;&gt;Node1 -->
<g id="edge3" class="edge"><title>Node4&#45;&gt;Node1</title>
<path fill="none" stroke="#404040" d="M154.738,-116.404C151.043,-102.365 146.487,-85.049 142.425,-69.614"/>
<polygon fill="none" stroke="#404040" points="142.353,-69.3421 136.958,-64.5577 139.299,-57.7372 144.695,-62.5217 142.353,-69.3421"/>
<text text-anchor="middle" x="182" y="-84.5" font-family="Helvetica,sans-Serif" font-size="10.00"> +nNeighbours</text>
</g>
<!-- Node5 -->
<g id="node5" class="node"><title>Node5</title>
<polygon fill="none" stroke="#bfbfbf" points="229.5,-116.5 229.5,-173.5 264.5,-173.5 264.5,-116.5 229.5,-116.5"/>
<text text-anchor="middle" x="247" y="-161.5" font-family="Helvetica,sans-Serif" font-size="10.00">bool</text>
<polyline fill="none" stroke="#bfbfbf" points="229.5,-154.5 264.5,-154.5 "/>
<text text-anchor="middle" x="247" y="-142.5" font-family="Helvetica,sans-Serif" font-size="10.00"> </text>
<polyline fill="none" stroke="#bfbfbf" points="229.5,-135.5 264.5,-135.5 "/>
<text text-anchor="middle" x="247" y="-123.5" font-family="Helvetica,sans-Serif" font-size="10.00"> </text>
</g>
<!-- Node5&#45;&gt;Node1 -->
<g id="edge4" class="edge"><title>Node5&#45;&gt;Node1</title>
<path fill="none" stroke="#404040" d="M239.948,-116.434C235.423,-103.01 228.4,-87.359 218,-76 214.298,-71.9569 210.157,-68.2008 205.747,-64.7237"/>
<polygon fill="none" stroke="#404040" points="205.488,-64.5383 198.281,-64.299 195.73,-57.5542 202.937,-57.7935 205.488,-64.5383"/>
<text text-anchor="middle" x="252.5" y="-84.5" font-family="Helvetica,sans-Serif" font-size="10.00"> +useMe</text>
</g>
</g>
</svg>
