<?xml version="1.0" encoding="UTF-8" standalone="no"?>
<!DOCTYPE svg PUBLIC "-//W3C//DTD SVG 1.1//EN"
 "http://www.w3.org/Graphics/SVG/1.1/DTD/svg11.dtd">
<!-- Generated by graphviz version 2.36.0 (20140111.2315)
 -->
<!-- Title: o2::ITSMFT::AlpideChip Pages: 1 -->
<svg width="156pt" height="206pt"
 viewBox="0.00 0.00 156.00 206.00" xmlns="http://www.w3.org/2000/svg" xmlns:xlink="http://www.w3.org/1999/xlink">
<g id="graph0" class="graph" transform="scale(1 1) rotate(0) translate(4 202)">
<title>o2::ITSMFT::AlpideChip</title>
<!-- Node1 -->
<g id="node1" class="node"><title>Node1</title>
<polygon fill="#bfbfbf" stroke="black" points="0,-1 0,-91 122,-91 122,-1 0,-1"/>
<text text-anchor="middle" x="61" y="-79" font-family="Helvetica,sans-Serif" font-size="10.00">o2::ITSMFT::AlpideChip</text>
<polyline fill="none" stroke="black" points="0,-72 122,-72 "/>
<text text-anchor="middle" x="61" y="-60" font-family="Helvetica,sans-Serif" font-size="10.00"> </text>
<polyline fill="none" stroke="black" points="0,-53 122,-53 "/>
<text text-anchor="start" x="8" y="-41" font-family="Helvetica,sans-Serif" font-size="10.00">+ AlpideChip()</text>
<text text-anchor="start" x="8" y="-30" font-family="Helvetica,sans-Serif" font-size="10.00">+ ~AlpideChip()</text>
<text text-anchor="start" x="8" y="-19" font-family="Helvetica,sans-Serif" font-size="10.00">+ createChip()</text>
<text text-anchor="start" x="8" y="-8" font-family="Helvetica,sans-Serif" font-size="10.00">+ createMaterials()</text>
</g>
<!-- Node2 -->
<g id="node2" class="node"><title>Node2</title>
<polygon fill="none" stroke="#bfbfbf" points="33,-140.5 33,-197.5 89,-197.5 89,-140.5 33,-140.5"/>
<text text-anchor="middle" x="61" y="-185.5" font-family="Helvetica,sans-Serif" font-size="10.00">Double_t</text>
<polyline fill="none" stroke="#bfbfbf" points="33,-178.5 89,-178.5 "/>
<text text-anchor="middle" x="61" y="-166.5" font-family="Helvetica,sans-Serif" font-size="10.00"> </text>
<polyline fill="none" stroke="#bfbfbf" points="33,-159.5 89,-159.5 "/>
<text text-anchor="middle" x="61" y="-147.5" font-family="Helvetica,sans-Serif" font-size="10.00"> </text>
</g>
<!-- Node2&#45;&gt;Node1 -->
<g id="edge1" class="edge"><title>Node2&#45;&gt;Node1</title>
<path fill="none" stroke="#404040" d="M61,-140.24C61,-129.242 61,-116.179 61,-103.364"/>
<polygon fill="none" stroke="#404040" points="61.0001,-103.23 57,-97.2296 61,-91.2295 65,-97.2295 61.0001,-103.23"/>
<text text-anchor="middle" x="104.5" y="-113.5" font-family="Helvetica,sans-Serif" font-size="10.00"> +sMetalLayerThick</text>
</g>
</g>
</svg>
