<?xml version="1.0" encoding="UTF-8" standalone="no"?>
<!DOCTYPE svg PUBLIC "-//W3C//DTD SVG 1.1//EN"
 "http://www.w3.org/Graphics/SVG/1.1/DTD/svg11.dtd">
<!-- Generated by graphviz version 2.36.0 (20140111.2315)
 -->
<!-- Title: /home/travis/build/AliceO2Group/AliceO2/Framework/Core/src/FairMQResizableBuffer.h Pages: 1 -->
<svg width="779pt" height="152pt"
 viewBox="0.00 0.00 779.00 152.00" xmlns="http://www.w3.org/2000/svg" xmlns:xlink="http://www.w3.org/1999/xlink">
<g id="graph0" class="graph" transform="scale(1 1) rotate(0) translate(4 148)">
<title>/home/travis/build/AliceO2Group/AliceO2/Framework/Core/src/FairMQResizableBuffer.h</title>
<!-- Node1 -->
<g id="node1" class="node"><title>Node1</title>
<polygon fill="#bfbfbf" stroke="black" points="317,-91 317,-143 505,-143 505,-91 317,-91"/>
<text text-anchor="start" x="325" y="-131" font-family="Helvetica,sans-Serif" font-size="10.00">/home/travis/build</text>
<text text-anchor="start" x="325" y="-120" font-family="Helvetica,sans-Serif" font-size="10.00">/AliceO2Group/AliceO2</text>
<text text-anchor="start" x="325" y="-109" font-family="Helvetica,sans-Serif" font-size="10.00">/Framework/Core/src/FairMQResizable</text>
<text text-anchor="middle" x="411" y="-98" font-family="Helvetica,sans-Serif" font-size="10.00">Buffer.h</text>
</g>
<!-- Node2 -->
<g id="node2" class="node"><title>Node2</title>
<g id="a_node2"><a xlink:href="../../db/d9d/DataAllocator_8cxx.html" target="_top" xlink:title="/home/travis/build\l/AliceO2Group/AliceO2\l/Framework/Core/src/DataAllocator.cxx">
<polygon fill="none" stroke="black" points="0,-6.5 0,-47.5 190,-47.5 190,-6.5 0,-6.5"/>
<text text-anchor="start" x="8" y="-35.5" font-family="Helvetica,sans-Serif" font-size="10.00">/home/travis/build</text>
<text text-anchor="start" x="8" y="-24.5" font-family="Helvetica,sans-Serif" font-size="10.00">/AliceO2Group/AliceO2</text>
<text text-anchor="middle" x="95" y="-13.5" font-family="Helvetica,sans-Serif" font-size="10.00">/Framework/Core/src/DataAllocator.cxx</text>
</a>
</g>
</g>
<!-- Node1&#45;&gt;Node2 -->
<g id="edge1" class="edge"><title>Node1&#45;&gt;Node2</title>
<path fill="none" stroke="midnightblue" d="M311.181,-88.2024C263.71,-74.9825 208.093,-59.4944 165.161,-47.5384"/>
<polygon fill="midnightblue" stroke="midnightblue" points="310.298,-91.5894 320.87,-90.9005 312.176,-84.846 310.298,-91.5894"/>
</g>
<!-- Node3 -->
<g id="node3" class="node"><title>Node3</title>
<g id="a_node3"><a xlink:href="../../dd/dd9/DataProcessor_8cxx.html" target="_top" xlink:title="/home/travis/build\l/AliceO2Group/AliceO2\l/Framework/Core/src/DataProcessor.cxx">
<polygon fill="none" stroke="black" points="208,-6.5 208,-47.5 404,-47.5 404,-6.5 208,-6.5"/>
<text text-anchor="start" x="216" y="-35.5" font-family="Helvetica,sans-Serif" font-size="10.00">/home/travis/build</text>
<text text-anchor="start" x="216" y="-24.5" font-family="Helvetica,sans-Serif" font-size="10.00">/AliceO2Group/AliceO2</text>
<text text-anchor="middle" x="306" y="-13.5" font-family="Helvetica,sans-Serif" font-size="10.00">/Framework/Core/src/DataProcessor.cxx</text>
</a>
</g>
</g>
<!-- Node1&#45;&gt;Node3 -->
<g id="edge2" class="edge"><title>Node1&#45;&gt;Node3</title>
<path fill="none" stroke="midnightblue" d="M373.011,-84.1619C358.435,-71.9452 342.238,-58.371 329.42,-47.6283"/>
<polygon fill="midnightblue" stroke="midnightblue" points="370.999,-87.0418 380.911,-90.7827 375.495,-81.6768 370.999,-87.0418"/>
</g>
<!-- Node4 -->
<g id="node4" class="node"><title>Node4</title>
<g id="a_node4"><a xlink:href="../../d4/d75/FairMQResizableBuffer_8cxx.html" target="_top" xlink:title="/home/travis/build\l/AliceO2Group/AliceO2\l/Framework/Core/src/FairMQResizable\lBuffer.cxx">
<polygon fill="none" stroke="black" points="422,-1 422,-53 610,-53 610,-1 422,-1"/>
<text text-anchor="start" x="430" y="-41" font-family="Helvetica,sans-Serif" font-size="10.00">/home/travis/build</text>
<text text-anchor="start" x="430" y="-30" font-family="Helvetica,sans-Serif" font-size="10.00">/AliceO2Group/AliceO2</text>
<text text-anchor="start" x="430" y="-19" font-family="Helvetica,sans-Serif" font-size="10.00">/Framework/Core/src/FairMQResizable</text>
<text text-anchor="middle" x="516" y="-8" font-family="Helvetica,sans-Serif" font-size="10.00">Buffer.cxx</text>
</a>
</g>
</g>
<!-- Node1&#45;&gt;Node4 -->
<g id="edge3" class="edge"><title>Node1&#45;&gt;Node4</title>
<path fill="none" stroke="midnightblue" d="M448.893,-84.2423C461.064,-74.0416 474.373,-62.8871 485.907,-53.221"/>
<polygon fill="midnightblue" stroke="midnightblue" points="446.505,-81.6768 441.089,-90.7827 451.001,-87.0418 446.505,-81.6768"/>
</g>
<!-- Node5 -->
<g id="node5" class="node"><title>Node5</title>
<g id="a_node5"><a xlink:href="../../df/d01/test__FairMQResizableBuffer_8cxx.html" target="_top" xlink:title="/home/travis/build\l/AliceO2Group/AliceO2\l/Framework/Core/test/test\l_FairMQResizableBuffer.cxx">
<polygon fill="none" stroke="black" points="628.5,-1 628.5,-53 771.5,-53 771.5,-1 628.5,-1"/>
<text text-anchor="start" x="636.5" y="-41" font-family="Helvetica,sans-Serif" font-size="10.00">/home/travis/build</text>
<text text-anchor="start" x="636.5" y="-30" font-family="Helvetica,sans-Serif" font-size="10.00">/AliceO2Group/AliceO2</text>
<text text-anchor="start" x="636.5" y="-19" font-family="Helvetica,sans-Serif" font-size="10.00">/Framework/Core/test/test</text>
<text text-anchor="middle" x="700" y="-8" font-family="Helvetica,sans-Serif" font-size="10.00">_FairMQResizableBuffer.cxx</text>
</a>
</g>
</g>
<!-- Node1&#45;&gt;Node5 -->
<g id="edge4" class="edge"><title>Node1&#45;&gt;Node5</title>
<path fill="none" stroke="midnightblue" d="M506.238,-88.0665C541.689,-77.5494 582.231,-65.3799 619,-54 622.104,-53.0393 625.273,-52.0518 628.472,-51.049"/>
<polygon fill="midnightblue" stroke="midnightblue" points="504.976,-84.7902 496.382,-90.9871 506.964,-91.5018 504.976,-84.7902"/>
</g>
</g>
</svg>
