<?xml version="1.0" encoding="UTF-8" standalone="no"?>
<!DOCTYPE svg PUBLIC "-//W3C//DTD SVG 1.1//EN"
 "http://www.w3.org/Graphics/SVG/1.1/DTD/svg11.dtd">
<!-- Generated by graphviz version 2.36.0 (20140111.2315)
 -->
<!-- Title: o2::framework::LogicalChannelDomain Pages: 1 -->
<svg width="160pt" height="300pt"
 viewBox="0.00 0.00 160.00 300.00" xmlns="http://www.w3.org/2000/svg" xmlns:xlink="http://www.w3.org/1999/xlink">
<g id="graph0" class="graph" transform="scale(1 1) rotate(0) translate(4 296)">
<title>o2::framework::LogicalChannelDomain</title>
<!-- Node1 -->
<g id="node1" class="node"><title>Node1</title>
<polygon fill="#bfbfbf" stroke="black" points="0,-0.5 0,-79.5 152,-79.5 152,-0.5 0,-0.5"/>
<text text-anchor="start" x="8" y="-67.5" font-family="Helvetica,sans-Serif" font-size="10.00">o2::framework::LogicalChannel</text>
<text text-anchor="middle" x="76" y="-56.5" font-family="Helvetica,sans-Serif" font-size="10.00">Domain</text>
<polyline fill="none" stroke="black" points="0,-49.5 152,-49.5 "/>
<text text-anchor="middle" x="76" y="-37.5" font-family="Helvetica,sans-Serif" font-size="10.00"> </text>
<polyline fill="none" stroke="black" points="0,-30.5 152,-30.5 "/>
<text text-anchor="start" x="8" y="-18.5" font-family="Helvetica,sans-Serif" font-size="10.00">+ LogicalChannelDomain()</text>
<text text-anchor="start" x="8" y="-7.5" font-family="Helvetica,sans-Serif" font-size="10.00">+ operator&lt;()</text>
</g>
<!-- Node2 -->
<g id="node2" class="node"><title>Node2</title>
<g id="a_node2"><a xlink:href="../../de/df1/structo2_1_1framework_1_1DomainId.html" target="_top" xlink:title="{o2::framework::DomainId\n||}">
<polygon fill="none" stroke="black" points="12.5,-128.5 12.5,-185.5 139.5,-185.5 139.5,-128.5 12.5,-128.5"/>
<text text-anchor="middle" x="76" y="-173.5" font-family="Helvetica,sans-Serif" font-size="10.00">o2::framework::DomainId</text>
<polyline fill="none" stroke="black" points="12.5,-166.5 139.5,-166.5 "/>
<text text-anchor="middle" x="76" y="-154.5" font-family="Helvetica,sans-Serif" font-size="10.00"> </text>
<polyline fill="none" stroke="black" points="12.5,-147.5 139.5,-147.5 "/>
<text text-anchor="middle" x="76" y="-135.5" font-family="Helvetica,sans-Serif" font-size="10.00"> </text>
</a>
</g>
</g>
<!-- Node2&#45;&gt;Node1 -->
<g id="edge1" class="edge"><title>Node2&#45;&gt;Node1</title>
<path fill="none" stroke="#404040" d="M76,-128.455C76,-117.491 76,-104.511 76,-91.9527"/>
<polygon fill="none" stroke="#404040" points="76.0001,-91.6258 72,-85.6258 76,-79.6258 80,-85.6257 76.0001,-91.6258"/>
<text text-anchor="middle" x="93" y="-101.5" font-family="Helvetica,sans-Serif" font-size="10.00"> +name</text>
</g>
<!-- Node3 -->
<g id="node3" class="node"><title>Node3</title>
<g id="a_node3"><a xlink:href="../../d1/da0/classint.html" target="_top" xlink:title="{int\n||}">
<polygon fill="none" stroke="black" points="61.5,-234.5 61.5,-291.5 90.5,-291.5 90.5,-234.5 61.5,-234.5"/>
<text text-anchor="middle" x="76" y="-279.5" font-family="Helvetica,sans-Serif" font-size="10.00">int</text>
<polyline fill="none" stroke="black" points="61.5,-272.5 90.5,-272.5 "/>
<text text-anchor="middle" x="76" y="-260.5" font-family="Helvetica,sans-Serif" font-size="10.00"> </text>
<polyline fill="none" stroke="black" points="61.5,-253.5 90.5,-253.5 "/>
<text text-anchor="middle" x="76" y="-241.5" font-family="Helvetica,sans-Serif" font-size="10.00"> </text>
</a>
</g>
</g>
<!-- Node3&#45;&gt;Node2 -->
<g id="edge2" class="edge"><title>Node3&#45;&gt;Node2</title>
<path fill="none" stroke="#404040" d="M76,-234.403C76,-223.237 76,-210.13 76,-197.956"/>
<polygon fill="none" stroke="#404040" points="76.0001,-197.726 72,-191.726 76,-185.726 80,-191.726 76.0001,-197.726"/>
<text text-anchor="middle" x="92.5" y="-207.5" font-family="Helvetica,sans-Serif" font-size="10.00"> +value</text>
</g>
</g>
</svg>
