<?xml version="1.0" encoding="UTF-8" standalone="no"?>
<!DOCTYPE svg PUBLIC "-//W3C//DTD SVG 1.1//EN"
 "http://www.w3.org/Graphics/SVG/1.1/DTD/svg11.dtd">
<!-- Generated by graphviz version 2.36.0 (20140111.2315)
 -->
<!-- Title: o2::framework::DataSamplingConditionRandom Pages: 1 -->
<svg width="184pt" height="248pt"
 viewBox="0.00 0.00 184.00 248.00" xmlns="http://www.w3.org/2000/svg" xmlns:xlink="http://www.w3.org/1999/xlink">
<g id="graph0" class="graph" transform="scale(1 1) rotate(0) translate(4 244)">
<title>o2::framework::DataSamplingConditionRandom</title>
<!-- Node1 -->
<g id="node1" class="node"><title>Node1</title>
<polygon fill="#bfbfbf" stroke="black" points="-0.5,-0.5 -0.5,-101.5 176.5,-101.5 176.5,-0.5 -0.5,-0.5"/>
<text text-anchor="start" x="7.5" y="-89.5" font-family="Helvetica,sans-Serif" font-size="10.00">o2::framework::DataSampling</text>
<text text-anchor="middle" x="88" y="-78.5" font-family="Helvetica,sans-Serif" font-size="10.00">ConditionRandom</text>
<polyline fill="none" stroke="black" points="-0.5,-71.5 176.5,-71.5 "/>
<text text-anchor="middle" x="88" y="-59.5" font-family="Helvetica,sans-Serif" font-size="10.00"> </text>
<polyline fill="none" stroke="black" points="-0.5,-52.5 176.5,-52.5 "/>
<text text-anchor="start" x="7.5" y="-40.5" font-family="Helvetica,sans-Serif" font-size="10.00">+ DataSamplingConditionRandom()</text>
<text text-anchor="start" x="7.5" y="-29.5" font-family="Helvetica,sans-Serif" font-size="10.00">+ ~DataSamplingConditionRandom()</text>
<text text-anchor="start" x="7.5" y="-18.5" font-family="Helvetica,sans-Serif" font-size="10.00">+ configure()</text>
<text text-anchor="start" x="7.5" y="-7.5" font-family="Helvetica,sans-Serif" font-size="10.00">+ decide()</text>
</g>
<!-- Node2 -->
<g id="node2" class="node"><title>Node2</title>
<g id="a_node2"><a xlink:href="../../de/d05/classo2_1_1framework_1_1DataSamplingCondition.html" target="_top" xlink:title="A standarised data sampling condition, to decide if given data sample should be passed forward...">
<polygon fill="none" stroke="black" points="15,-138.5 15,-239.5 161,-239.5 161,-138.5 15,-138.5"/>
<text text-anchor="start" x="23" y="-227.5" font-family="Helvetica,sans-Serif" font-size="10.00">o2::framework::DataSampling</text>
<text text-anchor="middle" x="88" y="-216.5" font-family="Helvetica,sans-Serif" font-size="10.00">Condition</text>
<polyline fill="none" stroke="black" points="15,-209.5 161,-209.5 "/>
<text text-anchor="middle" x="88" y="-197.5" font-family="Helvetica,sans-Serif" font-size="10.00"> </text>
<polyline fill="none" stroke="black" points="15,-190.5 161,-190.5 "/>
<text text-anchor="start" x="23" y="-178.5" font-family="Helvetica,sans-Serif" font-size="10.00">+ DataSamplingCondition()</text>
<text text-anchor="start" x="23" y="-167.5" font-family="Helvetica,sans-Serif" font-size="10.00">+ ~DataSamplingCondition()</text>
<text text-anchor="start" x="23" y="-156.5" font-family="Helvetica,sans-Serif" font-size="10.00">+ configure()</text>
<text text-anchor="start" x="23" y="-145.5" font-family="Helvetica,sans-Serif" font-size="10.00">+ decide()</text>
</a>
</g>
</g>
<!-- Node2&#45;&gt;Node1 -->
<g id="edge1" class="edge"><title>Node2&#45;&gt;Node1</title>
<path fill="none" stroke="midnightblue" d="M88,-128C88,-119.271 88,-110.363 88,-101.863"/>
<polygon fill="none" stroke="midnightblue" points="84.5001,-128.131 88,-138.131 91.5001,-128.131 84.5001,-128.131"/>
</g>
</g>
</svg>
