<?xml version="1.0" encoding="UTF-8" standalone="no"?>
<!DOCTYPE svg PUBLIC "-//W3C//DTD SVG 1.1//EN"
 "http://www.w3.org/Graphics/SVG/1.1/DTD/svg11.dtd">
<!-- Generated by graphviz version 2.36.0 (20140111.2315)
 -->
<!-- Title: o2::TPC::Point Pages: 1 -->
<svg width="221pt" height="808pt"
 viewBox="0.00 0.00 221.00 808.00" xmlns="http://www.w3.org/2000/svg" xmlns:xlink="http://www.w3.org/1999/xlink">
<g id="graph0" class="graph" transform="scale(1 1) rotate(0) translate(4 804)">
<title>o2::TPC::Point</title>
<!-- Node1 -->
<g id="node1" class="node"><title>Node1</title>
<polygon fill="#bfbfbf" stroke="black" points="26,-1 26,-91 108,-91 108,-1 26,-1"/>
<text text-anchor="middle" x="67" y="-79" font-family="Helvetica,sans-Serif" font-size="10.00">o2::TPC::Point</text>
<polyline fill="none" stroke="black" points="26,-72 108,-72 "/>
<text text-anchor="middle" x="67" y="-60" font-family="Helvetica,sans-Serif" font-size="10.00"> </text>
<polyline fill="none" stroke="black" points="26,-53 108,-53 "/>
<text text-anchor="start" x="34" y="-41" font-family="Helvetica,sans-Serif" font-size="10.00">+ Point()</text>
<text text-anchor="start" x="34" y="-30" font-family="Helvetica,sans-Serif" font-size="10.00">+ Point()</text>
<text text-anchor="start" x="34" y="-19" font-family="Helvetica,sans-Serif" font-size="10.00">+ ~Point()</text>
<text text-anchor="start" x="34" y="-8" font-family="Helvetica,sans-Serif" font-size="10.00">+ Print()</text>
</g>
<!-- Node2 -->
<g id="node2" class="node"><title>Node2</title>
<g id="a_node2"><a xlink:href="../../de/d90/classo2_1_1BasicXYZEHit.html" target="_top" xlink:title="{o2::BasicXYZEHit\&lt; float \&gt;\n||+ BasicXYZEHit()\l+ BasicXYZEHit()\l+ GetX()\l+ GetY()\l+ GetZ()\l+ GetPos()\l+ GetEnergyLoss()\l+ GetTime()\l+ GetDetectorID()\l+ SetTime()\l+ SetEnergyLoss()\l+ SetDetectorID()\l+ SetX()\l+ SetY()\l+ SetZ()\l+ SetXYZ()\l+ SetPos()\l+ ClassDefNV()\l}">
<polygon fill="none" stroke="black" points="0,-131 0,-375 134,-375 134,-131 0,-131"/>
<text text-anchor="middle" x="67" y="-363" font-family="Helvetica,sans-Serif" font-size="10.00">o2::BasicXYZEHit&lt; float &gt;</text>
<polyline fill="none" stroke="black" points="0,-356 134,-356 "/>
<text text-anchor="middle" x="67" y="-344" font-family="Helvetica,sans-Serif" font-size="10.00"> </text>
<polyline fill="none" stroke="black" points="0,-337 134,-337 "/>
<text text-anchor="start" x="8" y="-325" font-family="Helvetica,sans-Serif" font-size="10.00">+ BasicXYZEHit()</text>
<text text-anchor="start" x="8" y="-314" font-family="Helvetica,sans-Serif" font-size="10.00">+ BasicXYZEHit()</text>
<text text-anchor="start" x="8" y="-303" font-family="Helvetica,sans-Serif" font-size="10.00">+ GetX()</text>
<text text-anchor="start" x="8" y="-292" font-family="Helvetica,sans-Serif" font-size="10.00">+ GetY()</text>
<text text-anchor="start" x="8" y="-281" font-family="Helvetica,sans-Serif" font-size="10.00">+ GetZ()</text>
<text text-anchor="start" x="8" y="-270" font-family="Helvetica,sans-Serif" font-size="10.00">+ GetPos()</text>
<text text-anchor="start" x="8" y="-259" font-family="Helvetica,sans-Serif" font-size="10.00">+ GetEnergyLoss()</text>
<text text-anchor="start" x="8" y="-248" font-family="Helvetica,sans-Serif" font-size="10.00">+ GetTime()</text>
<text text-anchor="start" x="8" y="-237" font-family="Helvetica,sans-Serif" font-size="10.00">+ GetDetectorID()</text>
<text text-anchor="start" x="8" y="-226" font-family="Helvetica,sans-Serif" font-size="10.00">+ SetTime()</text>
<text text-anchor="start" x="8" y="-215" font-family="Helvetica,sans-Serif" font-size="10.00">+ SetEnergyLoss()</text>
<text text-anchor="start" x="8" y="-204" font-family="Helvetica,sans-Serif" font-size="10.00">+ SetDetectorID()</text>
<text text-anchor="start" x="8" y="-193" font-family="Helvetica,sans-Serif" font-size="10.00">+ SetX()</text>
<text text-anchor="start" x="8" y="-182" font-family="Helvetica,sans-Serif" font-size="10.00">+ SetY()</text>
<text text-anchor="start" x="8" y="-171" font-family="Helvetica,sans-Serif" font-size="10.00">+ SetZ()</text>
<text text-anchor="start" x="8" y="-160" font-family="Helvetica,sans-Serif" font-size="10.00">+ SetXYZ()</text>
<text text-anchor="start" x="8" y="-149" font-family="Helvetica,sans-Serif" font-size="10.00">+ SetPos()</text>
<text text-anchor="start" x="8" y="-138" font-family="Helvetica,sans-Serif" font-size="10.00">+ ClassDefNV()</text>
</a>
</g>
</g>
<!-- Node2&#45;&gt;Node1 -->
<g id="edge1" class="edge"><title>Node2&#45;&gt;Node1</title>
<path fill="none" stroke="midnightblue" d="M67,-120.87C67,-110.453 67,-100.465 67,-91.3853"/>
<polygon fill="none" stroke="midnightblue" points="63.5001,-120.973 67,-130.973 70.5001,-120.973 63.5001,-120.973"/>
</g>
<!-- Node3 -->
<g id="node3" class="node"><title>Node3</title>
<g id="a_node3"><a xlink:href="../../db/dfe/classo2_1_1BaseHit.html" target="_top" xlink:title="{o2::BaseHit\n||+ BaseHit()\l+ BaseHit()\l+ GetTrackID()\l+ SetTrackID()\l}">
<polygon fill="none" stroke="black" points="39.5,-709 39.5,-799 122.5,-799 122.5,-709 39.5,-709"/>
<text text-anchor="middle" x="81" y="-787" font-family="Helvetica,sans-Serif" font-size="10.00">o2::BaseHit</text>
<polyline fill="none" stroke="black" points="39.5,-780 122.5,-780 "/>
<text text-anchor="middle" x="81" y="-768" font-family="Helvetica,sans-Serif" font-size="10.00"> </text>
<polyline fill="none" stroke="black" points="39.5,-761 122.5,-761 "/>
<text text-anchor="start" x="47.5" y="-749" font-family="Helvetica,sans-Serif" font-size="10.00">+ BaseHit()</text>
<text text-anchor="start" x="47.5" y="-738" font-family="Helvetica,sans-Serif" font-size="10.00">+ BaseHit()</text>
<text text-anchor="start" x="47.5" y="-727" font-family="Helvetica,sans-Serif" font-size="10.00">+ GetTrackID()</text>
<text text-anchor="start" x="47.5" y="-716" font-family="Helvetica,sans-Serif" font-size="10.00">+ SetTrackID()</text>
</a>
</g>
</g>
<!-- Node3&#45;&gt;Node2 -->
<g id="edge2" class="edge"><title>Node3&#45;&gt;Node2</title>
<path fill="none" stroke="midnightblue" d="M72.8028,-698.581C71.6529,-689.075 70.6448,-679.265 70,-670 63.1049,-570.932 62.7512,-458.274 63.9011,-375.205"/>
<polygon fill="none" stroke="midnightblue" points="69.3608,-699.258 74.0957,-708.736 76.3047,-698.374 69.3608,-699.258"/>
</g>
<!-- Node4 -->
<g id="node4" class="node"><title>Node4</title>
<g id="a_node4"><a xlink:href="../../de/d90/classo2_1_1BasicXYZEHit.html" target="_top" xlink:title="{o2::BasicXYZEHit\&lt; T, E \&gt;\n||+ BasicXYZEHit()\l+ BasicXYZEHit()\l+ GetX()\l+ GetY()\l+ GetZ()\l+ GetPos()\l+ GetEnergyLoss()\l+ GetTime()\l+ GetDetectorID()\l+ SetTime()\l+ SetEnergyLoss()\l+ SetDetectorID()\l+ SetX()\l+ SetY()\l+ SetZ()\l+ SetXYZ()\l+ SetPos()\l+ ClassDefNV()\l}">
<polygon fill="none" stroke="black" points="79,-425 79,-669 213,-669 213,-425 79,-425"/>
<text text-anchor="middle" x="146" y="-657" font-family="Helvetica,sans-Serif" font-size="10.00">o2::BasicXYZEHit&lt; T, E &gt;</text>
<polyline fill="none" stroke="black" points="79,-650 213,-650 "/>
<text text-anchor="middle" x="146" y="-638" font-family="Helvetica,sans-Serif" font-size="10.00"> </text>
<polyline fill="none" stroke="black" points="79,-631 213,-631 "/>
<text text-anchor="start" x="87" y="-619" font-family="Helvetica,sans-Serif" font-size="10.00">+ BasicXYZEHit()</text>
<text text-anchor="start" x="87" y="-608" font-family="Helvetica,sans-Serif" font-size="10.00">+ BasicXYZEHit()</text>
<text text-anchor="start" x="87" y="-597" font-family="Helvetica,sans-Serif" font-size="10.00">+ GetX()</text>
<text text-anchor="start" x="87" y="-586" font-family="Helvetica,sans-Serif" font-size="10.00">+ GetY()</text>
<text text-anchor="start" x="87" y="-575" font-family="Helvetica,sans-Serif" font-size="10.00">+ GetZ()</text>
<text text-anchor="start" x="87" y="-564" font-family="Helvetica,sans-Serif" font-size="10.00">+ GetPos()</text>
<text text-anchor="start" x="87" y="-553" font-family="Helvetica,sans-Serif" font-size="10.00">+ GetEnergyLoss()</text>
<text text-anchor="start" x="87" y="-542" font-family="Helvetica,sans-Serif" font-size="10.00">+ GetTime()</text>
<text text-anchor="start" x="87" y="-531" font-family="Helvetica,sans-Serif" font-size="10.00">+ GetDetectorID()</text>
<text text-anchor="start" x="87" y="-520" font-family="Helvetica,sans-Serif" font-size="10.00">+ SetTime()</text>
<text text-anchor="start" x="87" y="-509" font-family="Helvetica,sans-Serif" font-size="10.00">+ SetEnergyLoss()</text>
<text text-anchor="start" x="87" y="-498" font-family="Helvetica,sans-Serif" font-size="10.00">+ SetDetectorID()</text>
<text text-anchor="start" x="87" y="-487" font-family="Helvetica,sans-Serif" font-size="10.00">+ SetX()</text>
<text text-anchor="start" x="87" y="-476" font-family="Helvetica,sans-Serif" font-size="10.00">+ SetY()</text>
<text text-anchor="start" x="87" y="-465" font-family="Helvetica,sans-Serif" font-size="10.00">+ SetZ()</text>
<text text-anchor="start" x="87" y="-454" font-family="Helvetica,sans-Serif" font-size="10.00">+ SetXYZ()</text>
<text text-anchor="start" x="87" y="-443" font-family="Helvetica,sans-Serif" font-size="10.00">+ SetPos()</text>
<text text-anchor="start" x="87" y="-432" font-family="Helvetica,sans-Serif" font-size="10.00">+ ClassDefNV()</text>
</a>
</g>
</g>
<!-- Node3&#45;&gt;Node4 -->
<g id="edge4" class="edge"><title>Node3&#45;&gt;Node4</title>
<path fill="none" stroke="midnightblue" d="M98.0632,-699.185C101.065,-689.718 104.295,-679.53 107.611,-669.075"/>
<polygon fill="none" stroke="midnightblue" points="94.7102,-698.18 95.024,-708.77 101.383,-700.296 94.7102,-698.18"/>
</g>
<!-- Node4&#45;&gt;Node2 -->
<g id="edge3" class="edge"><title>Node4&#45;&gt;Node2</title>
<path fill="none" stroke="orange" d="M110.484,-414.727C106.941,-401.632 103.355,-388.377 99.8418,-375.39"/>
<polygon fill="orange" stroke="orange" points="107.193,-415.964 113.183,-424.702 113.95,-414.135 107.193,-415.964"/>
<text text-anchor="middle" x="126" y="-397.5" font-family="Helvetica,sans-Serif" font-size="10.00"> &lt; float &gt;</text>
</g>
</g>
</svg>
