<?xml version="1.0" encoding="UTF-8" standalone="no"?>
<!DOCTYPE svg PUBLIC "-//W3C//DTD SVG 1.1//EN"
 "http://www.w3.org/Graphics/SVG/1.1/DTD/svg11.dtd">
<!-- Generated by graphviz version 2.36.0 (20140111.2315)
 -->
<!-- Title: o2::ccdb::Backend Pages: 1 -->
<svg width="273pt" height="228pt"
 viewBox="0.00 0.00 273.00 228.00" xmlns="http://www.w3.org/2000/svg" xmlns:xlink="http://www.w3.org/1999/xlink">
<g id="graph0" class="graph" transform="scale(1 1) rotate(0) translate(4 224)">
<title>o2::ccdb::Backend</title>
<!-- Node1 -->
<g id="node1" class="node"><title>Node1</title>
<polygon fill="#bfbfbf" stroke="black" points="86,-129 86,-219 184,-219 184,-129 86,-129"/>
<text text-anchor="middle" x="135" y="-207" font-family="Helvetica,sans-Serif" font-size="10.00">o2::ccdb::Backend</text>
<polyline fill="none" stroke="black" points="86,-200 184,-200 "/>
<text text-anchor="middle" x="135" y="-188" font-family="Helvetica,sans-Serif" font-size="10.00"> </text>
<polyline fill="none" stroke="black" points="86,-181 184,-181 "/>
<text text-anchor="start" x="94" y="-169" font-family="Helvetica,sans-Serif" font-size="10.00">+ ~Backend()</text>
<text text-anchor="start" x="94" y="-158" font-family="Helvetica,sans-Serif" font-size="10.00">+ Pack()</text>
<text text-anchor="start" x="94" y="-147" font-family="Helvetica,sans-Serif" font-size="10.00">+ UnPack()</text>
<text text-anchor="start" x="94" y="-136" font-family="Helvetica,sans-Serif" font-size="10.00">+ Serialize()</text>
</g>
<!-- Node2 -->
<g id="node2" class="node"><title>Node2</title>
<g id="a_node2"><a xlink:href="../../d7/ddb/classo2_1_1ccdb_1_1BackendOCDB.html" target="_top" xlink:title="{o2::ccdb::BackendOCDB\n||+ BackendOCDB()\l+ ~BackendOCDB()\l+ Pack()\l+ UnPack()\l}">
<polygon fill="none" stroke="black" points="0,-1 0,-91 128,-91 128,-1 0,-1"/>
<text text-anchor="middle" x="64" y="-79" font-family="Helvetica,sans-Serif" font-size="10.00">o2::ccdb::BackendOCDB</text>
<polyline fill="none" stroke="black" points="0,-72 128,-72 "/>
<text text-anchor="middle" x="64" y="-60" font-family="Helvetica,sans-Serif" font-size="10.00"> </text>
<polyline fill="none" stroke="black" points="0,-53 128,-53 "/>
<text text-anchor="start" x="8" y="-41" font-family="Helvetica,sans-Serif" font-size="10.00">+ BackendOCDB()</text>
<text text-anchor="start" x="8" y="-30" font-family="Helvetica,sans-Serif" font-size="10.00">+ ~BackendOCDB()</text>
<text text-anchor="start" x="8" y="-19" font-family="Helvetica,sans-Serif" font-size="10.00">+ Pack()</text>
<text text-anchor="start" x="8" y="-8" font-family="Helvetica,sans-Serif" font-size="10.00">+ UnPack()</text>
</a>
</g>
</g>
<!-- Node1&#45;&gt;Node2 -->
<g id="edge1" class="edge"><title>Node1&#45;&gt;Node2</title>
<path fill="none" stroke="midnightblue" d="M105.25,-120.203C99.8214,-110.57 94.209,-100.61 88.9383,-91.2568"/>
<polygon fill="none" stroke="midnightblue" points="102.209,-121.937 110.168,-128.931 108.308,-118.501 102.209,-121.937"/>
</g>
<!-- Node3 -->
<g id="node3" class="node"><title>Node3</title>
<g id="a_node3"><a xlink:href="../../d5/dd6/classo2_1_1ccdb_1_1BackendRiak.html" target="_top" xlink:title="{o2::ccdb::BackendRiak\n||+ BackendRiak()\l+ ~BackendRiak()\l+ Pack()\l+ UnPack()\l}">
<polygon fill="none" stroke="black" points="146.5,-1 146.5,-91 265.5,-91 265.5,-1 146.5,-1"/>
<text text-anchor="middle" x="206" y="-79" font-family="Helvetica,sans-Serif" font-size="10.00">o2::ccdb::BackendRiak</text>
<polyline fill="none" stroke="black" points="146.5,-72 265.5,-72 "/>
<text text-anchor="middle" x="206" y="-60" font-family="Helvetica,sans-Serif" font-size="10.00"> </text>
<polyline fill="none" stroke="black" points="146.5,-53 265.5,-53 "/>
<text text-anchor="start" x="154.5" y="-41" font-family="Helvetica,sans-Serif" font-size="10.00">+ BackendRiak()</text>
<text text-anchor="start" x="154.5" y="-30" font-family="Helvetica,sans-Serif" font-size="10.00">+ ~BackendRiak()</text>
<text text-anchor="start" x="154.5" y="-19" font-family="Helvetica,sans-Serif" font-size="10.00">+ Pack()</text>
<text text-anchor="start" x="154.5" y="-8" font-family="Helvetica,sans-Serif" font-size="10.00">+ UnPack()</text>
</a>
</g>
</g>
<!-- Node1&#45;&gt;Node3 -->
<g id="edge2" class="edge"><title>Node1&#45;&gt;Node3</title>
<path fill="none" stroke="midnightblue" d="M164.75,-120.203C170.179,-110.57 175.791,-100.61 181.062,-91.2568"/>
<polygon fill="none" stroke="midnightblue" points="161.692,-118.501 159.832,-128.931 167.791,-121.937 161.692,-118.501"/>
</g>
</g>
</svg>
