<?xml version="1.0" encoding="UTF-8" standalone="no"?>
<!DOCTYPE svg PUBLIC "-//W3C//DTD SVG 1.1//EN"
 "http://www.w3.org/Graphics/SVG/1.1/DTD/svg11.dtd">
<!-- Generated by graphviz version 2.36.0 (20140111.2315)
 -->
<!-- Title: /home/travis/build/AliceO2Group/AliceO2/Framework/Core/include/Framework/ServiceRegistry.h Pages: 1 -->
<svg width="453pt" height="118pt"
 viewBox="0.00 0.00 453.00 118.00" xmlns="http://www.w3.org/2000/svg" xmlns:xlink="http://www.w3.org/1999/xlink">
<g id="graph0" class="graph" transform="scale(1 1) rotate(0) translate(4 114)">
<title>/home/travis/build/AliceO2Group/AliceO2/Framework/Core/include/Framework/ServiceRegistry.h</title>
<!-- Node1 -->
<g id="node1" class="node"><title>Node1</title>
<polygon fill="#bfbfbf" stroke="black" points="134.5,-57 134.5,-109 283.5,-109 283.5,-57 134.5,-57"/>
<text text-anchor="start" x="142.5" y="-97" font-family="Helvetica,sans-Serif" font-size="10.00">/home/travis/build</text>
<text text-anchor="start" x="142.5" y="-86" font-family="Helvetica,sans-Serif" font-size="10.00">/AliceO2Group/AliceO2</text>
<text text-anchor="start" x="142.5" y="-75" font-family="Helvetica,sans-Serif" font-size="10.00">/Framework/Core/include</text>
<text text-anchor="middle" x="209" y="-64" font-family="Helvetica,sans-Serif" font-size="10.00">/Framework/ServiceRegistry.h</text>
</g>
<!-- Node2 -->
<g id="node2" class="node"><title>Node2</title>
<polygon fill="none" stroke="#bfbfbf" points="-0.5,-0.5 -0.5,-19.5 58.5,-19.5 58.5,-0.5 -0.5,-0.5"/>
<text text-anchor="middle" x="29" y="-7.5" font-family="Helvetica,sans-Serif" font-size="10.00">exception</text>
</g>
<!-- Node1&#45;&gt;Node2 -->
<g id="edge1" class="edge"><title>Node1&#45;&gt;Node2</title>
<path fill="none" stroke="midnightblue" d="M145.539,-56.9681C116.667,-45.5796 83.7927,-32.6127 60.3377,-23.361"/>
<polygon fill="midnightblue" stroke="midnightblue" points="61.4882,-20.0524 50.9014,-19.6389 58.9196,-26.5641 61.4882,-20.0524"/>
</g>
<!-- Node3 -->
<g id="node3" class="node"><title>Node3</title>
<polygon fill="none" stroke="#bfbfbf" points="76.5,-0.5 76.5,-19.5 135.5,-19.5 135.5,-0.5 76.5,-0.5"/>
<text text-anchor="middle" x="106" y="-7.5" font-family="Helvetica,sans-Serif" font-size="10.00">functional</text>
</g>
<!-- Node1&#45;&gt;Node3 -->
<g id="edge2" class="edge"><title>Node1&#45;&gt;Node3</title>
<path fill="none" stroke="midnightblue" d="M172.686,-56.9681C157.439,-46.4579 140.242,-34.6034 127.13,-25.5655"/>
<polygon fill="midnightblue" stroke="midnightblue" points="129,-22.6033 118.78,-19.8095 125.027,-28.3668 129,-22.6033"/>
</g>
<!-- Node4 -->
<g id="node4" class="node"><title>Node4</title>
<polygon fill="none" stroke="#bfbfbf" points="153.5,-0.5 153.5,-19.5 194.5,-19.5 194.5,-0.5 153.5,-0.5"/>
<text text-anchor="middle" x="174" y="-7.5" font-family="Helvetica,sans-Serif" font-size="10.00">string</text>
</g>
<!-- Node1&#45;&gt;Node4 -->
<g id="edge3" class="edge"><title>Node1&#45;&gt;Node4</title>
<path fill="none" stroke="midnightblue" d="M196.562,-56.7681C192.036,-47.587 187.016,-37.4034 182.862,-28.9775"/>
<polygon fill="midnightblue" stroke="midnightblue" points="185.878,-27.179 178.317,-19.7572 179.599,-30.2741 185.878,-27.179"/>
</g>
<!-- Node5 -->
<g id="node5" class="node"><title>Node5</title>
<polygon fill="none" stroke="#bfbfbf" points="213,-0.5 213,-19.5 275,-19.5 275,-0.5 213,-0.5"/>
<text text-anchor="middle" x="244" y="-7.5" font-family="Helvetica,sans-Serif" font-size="10.00">type_traits</text>
</g>
<!-- Node1&#45;&gt;Node5 -->
<g id="edge4" class="edge"><title>Node1&#45;&gt;Node5</title>
<path fill="none" stroke="midnightblue" d="M221.438,-56.7681C225.964,-47.587 230.984,-37.4034 235.138,-28.9775"/>
<polygon fill="midnightblue" stroke="midnightblue" points="238.401,-30.2741 239.683,-19.7572 232.122,-27.179 238.401,-30.2741"/>
</g>
<!-- Node6 -->
<g id="node6" class="node"><title>Node6</title>
<polygon fill="none" stroke="#bfbfbf" points="293.5,-0.5 293.5,-19.5 344.5,-19.5 344.5,-0.5 293.5,-0.5"/>
<text text-anchor="middle" x="319" y="-7.5" font-family="Helvetica,sans-Serif" font-size="10.00">typeinfo</text>
</g>
<!-- Node1&#45;&gt;Node6 -->
<g id="edge5" class="edge"><title>Node1&#45;&gt;Node6</title>
<path fill="none" stroke="midnightblue" d="M247.782,-56.9681C264.323,-46.2914 283.014,-34.2274 297.096,-25.1379"/>
<polygon fill="midnightblue" stroke="midnightblue" points="299.112,-28.0026 305.616,-19.6389 295.316,-22.1213 299.112,-28.0026"/>
</g>
<!-- Node7 -->
<g id="node7" class="node"><title>Node7</title>
<polygon fill="none" stroke="#bfbfbf" points="362.5,-0.5 362.5,-19.5 445.5,-19.5 445.5,-0.5 362.5,-0.5"/>
<text text-anchor="middle" x="404" y="-7.5" font-family="Helvetica,sans-Serif" font-size="10.00">unordered_map</text>
</g>
<!-- Node1&#45;&gt;Node7 -->
<g id="edge6" class="edge"><title>Node1&#45;&gt;Node7</title>
<path fill="none" stroke="midnightblue" d="M277.75,-56.9681C309.307,-45.4779 345.278,-32.381 370.729,-23.1141"/>
<polygon fill="midnightblue" stroke="midnightblue" points="372.074,-26.349 380.273,-19.6389 369.679,-19.7715 372.074,-26.349"/>
</g>
</g>
</svg>
