<?xml version="1.0" encoding="UTF-8" standalone="no"?>
<!DOCTYPE svg PUBLIC "-//W3C//DTD SVG 1.1//EN"
 "http://www.w3.org/Graphics/SVG/1.1/DTD/svg11.dtd">
<!-- Generated by graphviz version 2.36.0 (20140111.2315)
 -->
<!-- Title: /home/travis/build/AliceO2Group/AliceO2/Detectors/PHOS/reconstruction/include/PHOSReconstruction/Cluster.h Pages: 1 -->
<!--zoomable 456 -->
<svg id="main" version="1.1" xmlns="http://www.w3.org/2000/svg" xmlns:xlink="http://www.w3.org/1999/xlink" xml:space="preserve" onload="init(evt)">
<style type="text/css"><![CDATA[
.edge:hover path { stroke: red; }
.edge:hover polygon { stroke: red; fill: red; }
]]></style>
<script type="text/javascript"><![CDATA[
var edges = document.getElementsByTagName('g');
if (edges && edges.length) {
  for (var i=0;i<edges.length;i++) {
    if (edges[i].id.substr(0,4)=='edge') {
      edges[i].setAttribute('class','edge');
    }
  }
}
]]></script>
        <defs>
                <circle id="rim" cx="0" cy="0" r="7"/>
                <circle id="rim2" cx="0" cy="0" r="3.5"/>
                <g id="zoomPlus">
                        <use xlink:href="#rim" fill="#404040">
                                <set attributeName="fill" to="#808080" begin="zoomplus.mouseover" end="zoomplus.mouseout"/>
                        </use>
                        <path d="M-4,0h8M0,-4v8" fill="none" stroke="white" stroke-width="1.5" pointer-events="none"/>
                </g>
                <g id="zoomMin">
                        <use xlink:href="#rim" fill="#404040">
                                <set attributeName="fill" to="#808080" begin="zoomminus.mouseover" end="zoomminus.mouseout"/>
                        </use>
                        <path d="M-4,0h8" fill="none" stroke="white" stroke-width="1.5" pointer-events="none"/>
                </g>
                <g id="dirArrow">
                        <path fill="none" stroke="white" stroke-width="1.5" d="M0,-3.0v7 M-2.5,-0.5L0,-3.0L2.5,-0.5"/>
                </g>
               <g id="resetDef">
                       <use xlink:href="#rim2" fill="#404040">
                               <set attributeName="fill" to="#808080" begin="reset.mouseover" end="reset.mouseout"/>
                       </use>
               </g>
        </defs>

<script type="text/javascript">
var viewWidth = 1666;
var viewHeight = 456;
var sectionId = 'dynsection-0';
</script>
<script xlink:href="../../svgpan.js"/>
<svg id="graph" class="graph">
<g id="viewport">
<title>/home/travis/build/AliceO2Group/AliceO2/Detectors/PHOS/reconstruction/include/PHOSReconstruction/Cluster.h</title>
<!-- Node1 -->
<g id="node1" class="node"><title>Node1</title>
<polygon fill="#bfbfbf" stroke="black" points="846,-384.5 846,-447.5 1004,-447.5 1004,-384.5 846,-384.5"/>
<text text-anchor="start" x="854" y="-435.5" font-family="Helvetica,sans-Serif" font-size="10.00">/home/travis/build</text>
<text text-anchor="start" x="854" y="-424.5" font-family="Helvetica,sans-Serif" font-size="10.00">/AliceO2Group/AliceO2</text>
<text text-anchor="start" x="854" y="-413.5" font-family="Helvetica,sans-Serif" font-size="10.00">/Detectors/PHOS/reconstruction</text>
<text text-anchor="start" x="854" y="-402.5" font-family="Helvetica,sans-Serif" font-size="10.00">/include/PHOSReconstruction</text>
<text text-anchor="middle" x="925" y="-391.5" font-family="Helvetica,sans-Serif" font-size="10.00">/Cluster.h</text>
</g>
<!-- Node2 -->
<g id="node2" class="node"><title>Node2</title>
<g id="a_node2"><a xlink:href="../../d8/de9/PHOS_2base_2include_2PHOSBase_2Digit_8h.html" target="_top" xlink:title="PHOSBase/Digit.h">
<polygon fill="none" stroke="black" points="826.5,-328.5 826.5,-347.5 925.5,-347.5 925.5,-328.5 826.5,-328.5"/>
<text text-anchor="middle" x="876" y="-335.5" font-family="Helvetica,sans-Serif" font-size="10.00">PHOSBase/Digit.h</text>
</a>
</g>
</g>
<!-- Node1&#45;&gt;Node2 -->
<g id="edge1" class="edge"><title>Node1&#45;&gt;Node2</title>
<path fill="none" stroke="midnightblue" d="M905.07,-384.088C898.976,-374.636 892.491,-364.577 887.196,-356.364"/>
<polygon fill="midnightblue" stroke="midnightblue" points="889.981,-354.226 881.621,-347.718 884.098,-358.019 889.981,-354.226"/>
</g>
<!-- Node5 -->
<g id="node5" class="node"><title>Node5</title>
<g id="a_node5"><a xlink:href="../../d7/dcd/MCCompLabel_8h.html" target="_top" xlink:title="SimulationDataFormat\l/MCCompLabel.h">
<polygon fill="none" stroke="black" points="929,-261 929,-291 1043,-291 1043,-261 929,-261"/>
<text text-anchor="start" x="937" y="-279" font-family="Helvetica,sans-Serif" font-size="10.00">SimulationDataFormat</text>
<text text-anchor="middle" x="986" y="-268" font-family="Helvetica,sans-Serif" font-size="10.00">/MCCompLabel.h</text>
</a>
</g>
</g>
<!-- Node1&#45;&gt;Node5 -->
<g id="edge27" class="edge"><title>Node1&#45;&gt;Node5</title>
<path fill="none" stroke="midnightblue" d="M938.538,-384.373C949.728,-359.057 965.386,-323.635 975.608,-300.51"/>
<polygon fill="midnightblue" stroke="midnightblue" points="978.915,-301.685 979.757,-291.124 972.513,-298.855 978.915,-301.685"/>
</g>
<!-- Node3 -->
<g id="node3" class="node"><title>Node3</title>
<g id="a_node3"><a xlink:href="../../df/d5d/common_2include_2CommonDataFormat_2TimeStamp_8h.html" target="_top" xlink:title="CommonDataFormat/TimeStamp.h">
<polygon fill="none" stroke="black" points="586,-266.5 586,-285.5 756,-285.5 756,-266.5 586,-266.5"/>
<text text-anchor="middle" x="671" y="-273.5" font-family="Helvetica,sans-Serif" font-size="10.00">CommonDataFormat/TimeStamp.h</text>
</a>
</g>
</g>
<!-- Node2&#45;&gt;Node3 -->
<g id="edge2" class="edge"><title>Node2&#45;&gt;Node3</title>
<path fill="none" stroke="midnightblue" d="M846.628,-328.403C810.703,-317.889 749.768,-300.054 709.956,-288.402"/>
<polygon fill="midnightblue" stroke="midnightblue" points="710.898,-285.031 700.317,-285.581 708.931,-291.749 710.898,-285.031"/>
</g>
<!-- Node2&#45;&gt;Node5 -->
<g id="edge4" class="edge"><title>Node2&#45;&gt;Node5</title>
<path fill="none" stroke="midnightblue" d="M891.76,-328.403C907.215,-319.974 931.295,-306.839 951.245,-295.957"/>
<polygon fill="midnightblue" stroke="midnightblue" points="952.972,-299.002 960.075,-291.141 949.62,-292.857 952.972,-299.002"/>
</g>
<!-- Node7 -->
<g id="node7" class="node"><title>Node7</title>
<g id="a_node7"><a xlink:href="../../d1/def/PHOS_2base_2include_2PHOSBase_2Hit_8h.html" target="_top" xlink:title="PHOSBase/Hit.h">
<polygon fill="none" stroke="black" points="819,-266.5 819,-285.5 911,-285.5 911,-266.5 819,-266.5"/>
<text text-anchor="middle" x="865" y="-273.5" font-family="Helvetica,sans-Serif" font-size="10.00">PHOSBase/Hit.h</text>
</a>
</g>
</g>
<!-- Node2&#45;&gt;Node7 -->
<g id="edge6" class="edge"><title>Node2&#45;&gt;Node7</title>
<path fill="none" stroke="midnightblue" d="M874.424,-328.403C872.856,-319.849 870.399,-306.45 868.387,-295.476"/>
<polygon fill="midnightblue" stroke="midnightblue" points="871.819,-294.785 866.573,-285.581 864.934,-296.048 871.819,-294.785"/>
</g>
<!-- Node4 -->
<g id="node4" class="node"><title>Node4</title>
<polygon fill="none" stroke="#bfbfbf" points="0,-74.5 0,-93.5 56,-93.5 56,-74.5 0,-74.5"/>
<text text-anchor="middle" x="28" y="-81.5" font-family="Helvetica,sans-Serif" font-size="10.00">Rtypes.h</text>
</g>
<!-- Node3&#45;&gt;Node4 -->
<g id="edge3" class="edge"><title>Node3&#45;&gt;Node4</title>
<path fill="none" stroke="midnightblue" d="M636.776,-266.453C543.86,-242.962 279.476,-174.218 65,-100 62.5928,-99.167 60.1142,-98.264 57.6343,-97.3284"/>
<polygon fill="midnightblue" stroke="midnightblue" points="58.7996,-94.0259 48.2119,-93.6364 56.2458,-100.543 58.7996,-94.0259"/>
</g>
<!-- Node6 -->
<g id="node6" class="node"><title>Node6</title>
<polygon fill="none" stroke="#bfbfbf" points="1292,-198.5 1292,-217.5 1420,-217.5 1420,-198.5 1292,-198.5"/>
<text text-anchor="middle" x="1356" y="-205.5" font-family="Helvetica,sans-Serif" font-size="10.00">AliTPCCommonRtypes.h</text>
</g>
<!-- Node5&#45;&gt;Node6 -->
<g id="edge5" class="edge"><title>Node5&#45;&gt;Node6</title>
<path fill="none" stroke="midnightblue" d="M1043.04,-265.773C1102.9,-255.955 1199.71,-239.703 1283,-224 1290.34,-222.617 1298.08,-221.095 1305.66,-219.567"/>
<polygon fill="midnightblue" stroke="midnightblue" points="1306.4,-222.989 1315.5,-217.566 1305.01,-216.129 1306.4,-222.989"/>
</g>
<!-- Node8 -->
<g id="node8" class="node"><title>Node8</title>
<g id="a_node8"><a xlink:href="../../d4/d25/BaseHits_8h.html" target="_top" xlink:title="SimulationDataFormat\l/BaseHits.h">
<polygon fill="none" stroke="black" points="776,-193 776,-223 890,-223 890,-193 776,-193"/>
<text text-anchor="start" x="784" y="-211" font-family="Helvetica,sans-Serif" font-size="10.00">SimulationDataFormat</text>
<text text-anchor="middle" x="833" y="-200" font-family="Helvetica,sans-Serif" font-size="10.00">/BaseHits.h</text>
</a>
</g>
</g>
<!-- Node7&#45;&gt;Node8 -->
<g id="edge7" class="edge"><title>Node7&#45;&gt;Node8</title>
<path fill="none" stroke="midnightblue" d="M860.817,-266.372C856.661,-257.8 850.102,-244.272 844.396,-232.504"/>
<polygon fill="midnightblue" stroke="midnightblue" points="847.388,-230.653 839.876,-223.181 841.089,-233.707 847.388,-230.653"/>
</g>
<!-- Node20 -->
<g id="node20" class="node"><title>Node20</title>
<g id="a_node20"><a xlink:href="../../d0/d91/ShmAllocator_8h.html" target="_top" xlink:title="CommonUtils/ShmAllocator.h">
<polygon fill="none" stroke="black" points="1128,-198.5 1128,-217.5 1274,-217.5 1274,-198.5 1128,-198.5"/>
<text text-anchor="middle" x="1201" y="-205.5" font-family="Helvetica,sans-Serif" font-size="10.00">CommonUtils/ShmAllocator.h</text>
</a>
</g>
</g>
<!-- Node7&#45;&gt;Node20 -->
<g id="edge20" class="edge"><title>Node7&#45;&gt;Node20</title>
<path fill="none" stroke="midnightblue" d="M894.567,-266.43C902.768,-264.192 911.699,-261.882 920,-260 993.556,-243.328 1078.91,-228.462 1136.08,-219.142"/>
<polygon fill="midnightblue" stroke="midnightblue" points="1136.75,-222.579 1146.06,-217.524 1135.63,-215.669 1136.75,-222.579"/>
</g>
<!-- Node9 -->
<g id="node9" class="node"><title>Node9</title>
<g id="a_node9"><a xlink:href="../../dd/d76/Cartesian3D_8h.html" target="_top" xlink:title="MathUtils/Cartesian3D.h">
<polygon fill="none" stroke="black" points="708.5,-136.5 708.5,-155.5 833.5,-155.5 833.5,-136.5 708.5,-136.5"/>
<text text-anchor="middle" x="771" y="-143.5" font-family="Helvetica,sans-Serif" font-size="10.00">MathUtils/Cartesian3D.h</text>
</a>
</g>
</g>
<!-- Node8&#45;&gt;Node9 -->
<g id="edge8" class="edge"><title>Node8&#45;&gt;Node9</title>
<path fill="none" stroke="midnightblue" d="M818.307,-192.781C809.019,-183.792 797.001,-172.162 787.402,-162.873"/>
<polygon fill="midnightblue" stroke="midnightblue" points="789.642,-160.17 780.022,-155.731 784.774,-165.2 789.642,-160.17"/>
</g>
<!-- Node9&#45;&gt;Node4 -->
<g id="edge14" class="edge"><title>Node9&#45;&gt;Node4</title>
<path fill="none" stroke="midnightblue" d="M708.484,-139.544C693.584,-138.312 677.732,-137.057 663,-136 397.424,-116.943 324.687,-158.792 65,-100 61.755,-99.2654 58.4262,-98.2789 55.1589,-97.1608"/>
<polygon fill="midnightblue" stroke="midnightblue" points="56.2779,-93.8415 45.6876,-93.5321 53.7735,-100.378 56.2779,-93.8415"/>
</g>
<!-- Node10 -->
<g id="node10" class="node"><title>Node10</title>
<polygon fill="none" stroke="#bfbfbf" points="74.5,-69 74.5,-99 225.5,-99 225.5,-69 74.5,-69"/>
<text text-anchor="start" x="82.5" y="-87" font-family="Helvetica,sans-Serif" font-size="10.00">Math/GenVector/Displacement</text>
<text text-anchor="middle" x="150" y="-76" font-family="Helvetica,sans-Serif" font-size="10.00">Vector3D.h</text>
</g>
<!-- Node9&#45;&gt;Node10 -->
<g id="edge9" class="edge"><title>Node9&#45;&gt;Node10</title>
<path fill="none" stroke="midnightblue" d="M708.476,-139.788C580.104,-129.081 294.511,-105.239 236.014,-99.7712"/>
<polygon fill="midnightblue" stroke="midnightblue" points="236.248,-96.2772 225.947,-98.7551 235.545,-103.242 236.248,-96.2772"/>
</g>
<!-- Node11 -->
<g id="node11" class="node"><title>Node11</title>
<polygon fill="none" stroke="#bfbfbf" points="244,-74.5 244,-93.5 420,-93.5 420,-74.5 244,-74.5"/>
<text text-anchor="middle" x="332" y="-81.5" font-family="Helvetica,sans-Serif" font-size="10.00">Math/GenVector/PositionVector3D.h</text>
</g>
<!-- Node9&#45;&gt;Node11 -->
<g id="edge10" class="edge"><title>Node9&#45;&gt;Node11</title>
<path fill="none" stroke="midnightblue" d="M708.347,-137.249C639.533,-128.626 525.792,-114.053 428,-100 417.325,-98.4661 405.995,-96.7628 395.003,-95.0705"/>
<polygon fill="midnightblue" stroke="midnightblue" points="395.45,-91.598 385.032,-93.5245 394.377,-98.5153 395.45,-91.598"/>
</g>
<!-- Node12 -->
<g id="node12" class="node"><title>Node12</title>
<polygon fill="none" stroke="#bfbfbf" points="437.5,-74.5 437.5,-93.5 586.5,-93.5 586.5,-74.5 437.5,-74.5"/>
<text text-anchor="middle" x="512" y="-81.5" font-family="Helvetica,sans-Serif" font-size="10.00">Math/GenVector/Rotation3D.h</text>
</g>
<!-- Node9&#45;&gt;Node12 -->
<g id="edge11" class="edge"><title>Node9&#45;&gt;Node12</title>
<path fill="none" stroke="midnightblue" d="M734.167,-136.467C688.045,-125.783 608.99,-107.469 558.676,-95.8129"/>
<polygon fill="midnightblue" stroke="midnightblue" points="559.238,-92.3506 548.706,-93.5034 557.658,-99.17 559.238,-92.3506"/>
</g>
<!-- Node13 -->
<g id="node13" class="node"><title>Node13</title>
<polygon fill="none" stroke="#bfbfbf" points="605,-74.5 605,-93.5 761,-93.5 761,-74.5 605,-74.5"/>
<text text-anchor="middle" x="683" y="-81.5" font-family="Helvetica,sans-Serif" font-size="10.00">Math/GenVector/Transform3D.h</text>
</g>
<!-- Node9&#45;&gt;Node13 -->
<g id="edge12" class="edge"><title>Node9&#45;&gt;Node13</title>
<path fill="none" stroke="midnightblue" d="M758.392,-136.403C744.277,-126.78 721.169,-111.024 704.251,-99.4891"/>
<polygon fill="midnightblue" stroke="midnightblue" points="705.819,-96.3222 695.585,-93.5806 701.875,-102.106 705.819,-96.3222"/>
</g>
<!-- Node14 -->
<g id="node14" class="node"><title>Node14</title>
<polygon fill="none" stroke="#bfbfbf" points="779,-74.5 779,-93.5 939,-93.5 939,-74.5 779,-74.5"/>
<text text-anchor="middle" x="859" y="-81.5" font-family="Helvetica,sans-Serif" font-size="10.00">Math/GenVector/Translation3D.h</text>
</g>
<!-- Node9&#45;&gt;Node14 -->
<g id="edge13" class="edge"><title>Node9&#45;&gt;Node14</title>
<path fill="none" stroke="midnightblue" d="M783.608,-136.403C797.723,-126.78 820.831,-111.024 837.749,-99.4891"/>
<polygon fill="midnightblue" stroke="midnightblue" points="840.125,-102.106 846.415,-93.5806 836.181,-96.3222 840.125,-102.106"/>
</g>
<!-- Node15 -->
<g id="node15" class="node"><title>Node15</title>
<polygon fill="none" stroke="#bfbfbf" points="957,-74.5 957,-93.5 1033,-93.5 1033,-74.5 957,-74.5"/>
<text text-anchor="middle" x="995" y="-81.5" font-family="Helvetica,sans-Serif" font-size="10.00">TGeoMatrix.h</text>
</g>
<!-- Node9&#45;&gt;Node15 -->
<g id="edge15" class="edge"><title>Node9&#45;&gt;Node15</title>
<path fill="none" stroke="midnightblue" d="M807.104,-136.493C842.994,-127.878 899.535,-113.881 948,-100 951.783,-98.9166 955.721,-97.7391 959.638,-96.536"/>
<polygon fill="midnightblue" stroke="midnightblue" points="960.731,-99.8614 969.227,-93.5321 958.638,-93.1815 960.731,-99.8614"/>
</g>
<!-- Node16 -->
<g id="node16" class="node"><title>Node16</title>
<polygon fill="none" stroke="#bfbfbf" points="1051.5,-74.5 1051.5,-93.5 1096.5,-93.5 1096.5,-74.5 1051.5,-74.5"/>
<text text-anchor="middle" x="1074" y="-81.5" font-family="Helvetica,sans-Serif" font-size="10.00">iosfwd</text>
</g>
<!-- Node9&#45;&gt;Node16 -->
<g id="edge16" class="edge"><title>Node9&#45;&gt;Node16</title>
<path fill="none" stroke="midnightblue" d="M833.741,-139.5C889.402,-133.468 972.434,-121.629 1042,-100 1044.27,-99.293 1046.59,-98.4555 1048.89,-97.5435"/>
<polygon fill="midnightblue" stroke="midnightblue" points="1050.32,-100.742 1058.06,-93.5172 1047.5,-94.3326 1050.32,-100.742"/>
</g>
<!-- Node17 -->
<g id="node17" class="node"><title>Node17</title>
<g id="a_node17"><a xlink:href="../../d2/dd0/Cartesian2D_8h.html" target="_top" xlink:title="MathUtils/Cartesian2D.h">
<polygon fill="none" stroke="black" points="1114.5,-74.5 1114.5,-93.5 1239.5,-93.5 1239.5,-74.5 1114.5,-74.5"/>
<text text-anchor="middle" x="1177" y="-81.5" font-family="Helvetica,sans-Serif" font-size="10.00">MathUtils/Cartesian2D.h</text>
</a>
</g>
</g>
<!-- Node9&#45;&gt;Node17 -->
<g id="edge17" class="edge"><title>Node9&#45;&gt;Node17</title>
<path fill="none" stroke="midnightblue" d="M833.684,-137.911C900.958,-129.986 1010.85,-116.128 1105,-100 1112.7,-98.6812 1120.83,-97.1362 1128.75,-95.5484"/>
<polygon fill="midnightblue" stroke="midnightblue" points="1129.52,-98.9634 1138.61,-93.528 1128.11,-92.1058 1129.52,-98.9634"/>
</g>
<!-- Node18 -->
<g id="node18" class="node"><title>Node18</title>
<polygon fill="none" stroke="#bfbfbf" points="1010.5,-1 1010.5,-31 1161.5,-31 1161.5,-1 1010.5,-1"/>
<text text-anchor="start" x="1018.5" y="-19" font-family="Helvetica,sans-Serif" font-size="10.00">Math/GenVector/Displacement</text>
<text text-anchor="middle" x="1086" y="-8" font-family="Helvetica,sans-Serif" font-size="10.00">Vector2D.h</text>
</g>
<!-- Node17&#45;&gt;Node18 -->
<g id="edge18" class="edge"><title>Node17&#45;&gt;Node18</title>
<path fill="none" stroke="midnightblue" d="M1165.1,-74.3717C1152.22,-65.0286 1131.22,-49.7966 1114.09,-37.375"/>
<polygon fill="midnightblue" stroke="midnightblue" points="1115.7,-34.2194 1105.55,-31.1815 1111.59,-39.8859 1115.7,-34.2194"/>
</g>
<!-- Node19 -->
<g id="node19" class="node"><title>Node19</title>
<polygon fill="none" stroke="#bfbfbf" points="1180,-6.5 1180,-25.5 1356,-25.5 1356,-6.5 1180,-6.5"/>
<text text-anchor="middle" x="1268" y="-13.5" font-family="Helvetica,sans-Serif" font-size="10.00">Math/GenVector/PositionVector2D.h</text>
</g>
<!-- Node17&#45;&gt;Node19 -->
<g id="edge19" class="edge"><title>Node17&#45;&gt;Node19</title>
<path fill="none" stroke="midnightblue" d="M1188.9,-74.3717C1203.88,-63.5015 1229.86,-44.6602 1247.94,-31.5474"/>
<polygon fill="midnightblue" stroke="midnightblue" points="1250.06,-34.3349 1256.1,-25.6305 1245.95,-28.6684 1250.06,-34.3349"/>
</g>
<!-- Node21 -->
<g id="node21" class="node"><title>Node21</title>
<g id="a_node21"><a xlink:href="../../de/d61/ShmManager_8h.html" target="_top" xlink:title="CommonUtils/ShmManager.h">
<polygon fill="none" stroke="black" points="1227,-136.5 1227,-155.5 1373,-155.5 1373,-136.5 1227,-136.5"/>
<text text-anchor="middle" x="1300" y="-143.5" font-family="Helvetica,sans-Serif" font-size="10.00">CommonUtils/ShmManager.h</text>
</a>
</g>
</g>
<!-- Node20&#45;&gt;Node21 -->
<g id="edge21" class="edge"><title>Node20&#45;&gt;Node21</title>
<path fill="none" stroke="midnightblue" d="M1215.18,-198.403C1231.36,-188.601 1258.03,-172.439 1277.14,-160.853"/>
<polygon fill="midnightblue" stroke="midnightblue" points="1279.1,-163.757 1285.84,-155.581 1275.48,-157.77 1279.1,-163.757"/>
</g>
<!-- Node26 -->
<g id="node26" class="node"><title>Node26</title>
<polygon fill="none" stroke="#bfbfbf" points="1391.5,-136.5 1391.5,-155.5 1440.5,-155.5 1440.5,-136.5 1391.5,-136.5"/>
<text text-anchor="middle" x="1416" y="-143.5" font-family="Helvetica,sans-Serif" font-size="10.00">cassert</text>
</g>
<!-- Node20&#45;&gt;Node26 -->
<g id="edge26" class="edge"><title>Node20&#45;&gt;Node26</title>
<path fill="none" stroke="midnightblue" d="M1231.8,-198.403C1271.49,-187.327 1340.29,-168.13 1381.63,-156.591"/>
<polygon fill="midnightblue" stroke="midnightblue" points="1382.58,-159.961 1391.27,-153.902 1380.7,-153.219 1382.58,-159.961"/>
</g>
<!-- Node22 -->
<g id="node22" class="node"><title>Node22</title>
<polygon fill="none" stroke="#bfbfbf" points="1257.5,-74.5 1257.5,-93.5 1286.5,-93.5 1286.5,-74.5 1257.5,-74.5"/>
<text text-anchor="middle" x="1272" y="-81.5" font-family="Helvetica,sans-Serif" font-size="10.00">list</text>
</g>
<!-- Node21&#45;&gt;Node22 -->
<g id="edge22" class="edge"><title>Node21&#45;&gt;Node22</title>
<path fill="none" stroke="midnightblue" d="M1295.99,-136.403C1291.91,-127.671 1285.48,-113.889 1280.3,-102.794"/>
<polygon fill="midnightblue" stroke="midnightblue" points="1283.4,-101.162 1276,-93.5806 1277.06,-104.123 1283.4,-101.162"/>
</g>
<!-- Node23 -->
<g id="node23" class="node"><title>Node23</title>
<polygon fill="none" stroke="#bfbfbf" points="1304.5,-74.5 1304.5,-93.5 1353.5,-93.5 1353.5,-74.5 1304.5,-74.5"/>
<text text-anchor="middle" x="1329" y="-81.5" font-family="Helvetica,sans-Serif" font-size="10.00">cstddef</text>
</g>
<!-- Node21&#45;&gt;Node23 -->
<g id="edge23" class="edge"><title>Node21&#45;&gt;Node23</title>
<path fill="none" stroke="midnightblue" d="M1304.15,-136.403C1308.38,-127.671 1315.04,-113.889 1320.4,-102.794"/>
<polygon fill="midnightblue" stroke="midnightblue" points="1323.65,-104.107 1324.85,-93.5806 1317.35,-101.061 1323.65,-104.107"/>
</g>
<!-- Node24 -->
<g id="node24" class="node"><title>Node24</title>
<polygon fill="none" stroke="#bfbfbf" points="1372,-69 1372,-99 1520,-99 1520,-69 1372,-69"/>
<text text-anchor="start" x="1380" y="-87" font-family="Helvetica,sans-Serif" font-size="10.00">boost/interprocess</text>
<text text-anchor="middle" x="1446" y="-76" font-family="Helvetica,sans-Serif" font-size="10.00">/managed_external_buffer.hpp</text>
</g>
<!-- Node21&#45;&gt;Node24 -->
<g id="edge24" class="edge"><title>Node21&#45;&gt;Node24</title>
<path fill="none" stroke="midnightblue" d="M1320.92,-136.403C1342.06,-127.717 1375.35,-114.035 1402.27,-102.969"/>
<polygon fill="midnightblue" stroke="midnightblue" points="1403.95,-106.064 1411.87,-99.0253 1401.29,-99.5892 1403.95,-106.064"/>
</g>
<!-- Node25 -->
<g id="node25" class="node"><title>Node25</title>
<polygon fill="none" stroke="#bfbfbf" points="1538,-69 1538,-99 1658,-99 1658,-69 1538,-69"/>
<text text-anchor="start" x="1546" y="-87" font-family="Helvetica,sans-Serif" font-size="10.00">boost/interprocess</text>
<text text-anchor="middle" x="1598" y="-76" font-family="Helvetica,sans-Serif" font-size="10.00">/allocators/allocator.hpp</text>
</g>
<!-- Node21&#45;&gt;Node25 -->
<g id="edge25" class="edge"><title>Node21&#45;&gt;Node25</title>
<path fill="none" stroke="midnightblue" d="M1344.81,-136.469C1388.94,-128.007 1458.52,-114.5 1528,-100.185"/>
<polygon fill="midnightblue" stroke="midnightblue" points="1528.72,-103.611 1537.8,-98.1603 1527.3,-96.7559 1528.72,-103.611"/>
</g>
</g>
</svg>
        <g id="navigator" transform="translate(0 0)" fill="#404254">
                <rect fill="#f2f5e9" fill-opacity="0.5" stroke="#606060" stroke-width=".5" x="0" y="0" width="60" height="60"/>
                <use id="zoomplus" xlink:href="#zoomPlus" x="17" y="9" onmousedown="handleZoom(evt,'in')"/>
                <use id="zoomminus" xlink:href="#zoomMin" x="42" y="9" onmousedown="handleZoom(evt,'out')"/>
                <use id="reset" xlink:href="#resetDef" x="30" y="36" onmousedown="handleReset()"/>
                <g id="arrowUp" xlink:href="#dirArrow" transform="translate(30 24)" onmousedown="handlePan(0,-1)">
                  <use xlink:href="#rim" fill="#404040">
                        <set attributeName="fill" to="#808080" begin="arrowUp.mouseover" end="arrowUp.mouseout"/>
                  </use>
                  <path fill="none" stroke="white" stroke-width="1.5" d="M0,-3.0v7 M-2.5,-0.5L0,-3.0L2.5,-0.5"/>
                </g>
                <g id="arrowRight" xlink:href="#dirArrow" transform="rotate(90) translate(36 -43)" onmousedown="handlePan(1,0)">
                  <use xlink:href="#rim" fill="#404040">
                        <set attributeName="fill" to="#808080" begin="arrowRight.mouseover" end="arrowRight.mouseout"/>
                  </use>
                  <path fill="none" stroke="white" stroke-width="1.5" d="M0,-3.0v7 M-2.5,-0.5L0,-3.0L2.5,-0.5"/>
                </g>
                <g id="arrowDown" xlink:href="#dirArrow" transform="rotate(180) translate(-30 -48)" onmousedown="handlePan(0,1)">
                  <use xlink:href="#rim" fill="#404040">
                        <set attributeName="fill" to="#808080" begin="arrowDown.mouseover" end="arrowDown.mouseout"/>
                  </use>
                  <path fill="none" stroke="white" stroke-width="1.5" d="M0,-3.0v7 M-2.5,-0.5L0,-3.0L2.5,-0.5"/>
                </g>
                <g id="arrowLeft" xlink:href="#dirArrow" transform="rotate(270) translate(-36 17)" onmousedown="handlePan(-1,0)">
                  <use xlink:href="#rim" fill="#404040">
                        <set attributeName="fill" to="#808080" begin="arrowLeft.mouseover" end="arrowLeft.mouseout"/>
                  </use>
                  <path fill="none" stroke="white" stroke-width="1.5" d="M0,-3.0v7 M-2.5,-0.5L0,-3.0L2.5,-0.5"/>
                </g>
        </g>
        <svg viewBox="0 0 15 15" width="100%" height="30px" preserveAspectRatio="xMaxYMin meet">
         <g id="arrow_out" transform="scale(0.3 0.3)">
          <a xlink:href="Detectors_2PHOS_2reconstruction_2include_2PHOSReconstruction_2Cluster_8h__incl_org.svg" target="_base">
           <rect id="button" ry="5" rx="5" y="6" x="6" height="38" width="38"
                fill="#f2f5e9" fill-opacity="0.5" stroke="#606060" stroke-width="1.0"/>
           <path id="arrow"
             d="M 11.500037,31.436501 C 11.940474,20.09759 22.043105,11.32322 32.158766,21.979434 L 37.068811,17.246167 C 37.068811,17.246167 37.088388,32 37.088388,32 L 22.160133,31.978069 C 22.160133,31.978069 26.997745,27.140456 26.997745,27.140456 C 18.528582,18.264221 13.291696,25.230495 11.500037,31.436501 z"
             style="fill:#404040;"/>
          </a>
         </g>
        </svg>
</svg>
