<?xml version="1.0" encoding="UTF-8" standalone="no"?>
<!DOCTYPE svg PUBLIC "-//W3C//DTD SVG 1.1//EN"
 "http://www.w3.org/Graphics/SVG/1.1/DTD/svg11.dtd">
<!-- Generated by graphviz version 2.36.0 (20140111.2315)
 -->
<!-- Title: nlohmann::detail::static_const&lt; T &gt; Pages: 1 -->
<svg width="126pt" height="184pt"
 viewBox="0.00 0.00 126.00 184.00" xmlns="http://www.w3.org/2000/svg" xmlns:xlink="http://www.w3.org/1999/xlink">
<g id="graph0" class="graph" transform="scale(1 1) rotate(0) translate(4 180)">
<title>nlohmann::detail::static_const&lt; T &gt;</title>
<!-- Node1 -->
<g id="node1" class="node"><title>Node1</title>
<polygon fill="#bfbfbf" stroke="black" points="0,-1 0,-69 118,-69 118,-1 0,-1"/>
<text text-anchor="start" x="8" y="-57" font-family="Helvetica,sans-Serif" font-size="10.00">nlohmann::detail::static</text>
<text text-anchor="middle" x="59" y="-46" font-family="Helvetica,sans-Serif" font-size="10.00">_const&lt; T &gt;</text>
<polyline fill="none" stroke="black" points="0,-39 118,-39 "/>
<text text-anchor="middle" x="59" y="-27" font-family="Helvetica,sans-Serif" font-size="10.00"> </text>
<polyline fill="none" stroke="black" points="0,-20 118,-20 "/>
<text text-anchor="middle" x="59" y="-8" font-family="Helvetica,sans-Serif" font-size="10.00"> </text>
</g>
<!-- Node2 -->
<g id="node2" class="node"><title>Node2</title>
<polygon fill="none" stroke="#bfbfbf" points="44.5,-118.5 44.5,-175.5 73.5,-175.5 73.5,-118.5 44.5,-118.5"/>
<text text-anchor="middle" x="59" y="-163.5" font-family="Helvetica,sans-Serif" font-size="10.00">T</text>
<polyline fill="none" stroke="#bfbfbf" points="44.5,-156.5 73.5,-156.5 "/>
<text text-anchor="middle" x="59" y="-144.5" font-family="Helvetica,sans-Serif" font-size="10.00"> </text>
<polyline fill="none" stroke="#bfbfbf" points="44.5,-137.5 73.5,-137.5 "/>
<text text-anchor="middle" x="59" y="-125.5" font-family="Helvetica,sans-Serif" font-size="10.00"> </text>
</g>
<!-- Node2&#45;&gt;Node1 -->
<g id="edge1" class="edge"><title>Node2&#45;&gt;Node1</title>
<path fill="none" stroke="#404040" d="M59,-118.242C59,-107.073 59,-93.8972 59,-81.4036"/>
<polygon fill="none" stroke="#404040" points="59.0001,-81.2368 55,-75.2368 59,-69.2368 63,-75.2367 59.0001,-81.2368"/>
<text text-anchor="middle" x="75.5" y="-91.5" font-family="Helvetica,sans-Serif" font-size="10.00"> +value</text>
</g>
</g>
</svg>
