<?xml version="1.0" encoding="UTF-8" standalone="no"?>
<!DOCTYPE svg PUBLIC "-//W3C//DTD SVG 1.1//EN"
 "http://www.w3.org/Graphics/SVG/1.1/DTD/svg11.dtd">
<!-- Generated by graphviz version 2.36.0 (20140111.2315)
 -->
<!-- Title: /home/travis/build/AliceO2Group/AliceO2/Detectors/MUON/MCH/Contour/test/SegmentTree.cxx Pages: 1 -->
<svg width="507pt" height="298pt"
 viewBox="0.00 0.00 507.00 298.00" xmlns="http://www.w3.org/2000/svg" xmlns:xlink="http://www.w3.org/1999/xlink">
<g id="graph0" class="graph" transform="scale(1 1) rotate(0) translate(4 294)">
<title>/home/travis/build/AliceO2Group/AliceO2/Detectors/MUON/MCH/Contour/test/SegmentTree.cxx</title>
<!-- Node1 -->
<g id="node1" class="node"><title>Node1</title>
<polygon fill="#bfbfbf" stroke="black" points="155,-237 155,-289 315,-289 315,-237 155,-237"/>
<text text-anchor="start" x="163" y="-277" font-family="Helvetica,sans-Serif" font-size="10.00">/home/travis/build</text>
<text text-anchor="start" x="163" y="-266" font-family="Helvetica,sans-Serif" font-size="10.00">/AliceO2Group/AliceO2</text>
<text text-anchor="start" x="163" y="-255" font-family="Helvetica,sans-Serif" font-size="10.00">/Detectors/MUON/MCH/Contour</text>
<text text-anchor="middle" x="235" y="-244" font-family="Helvetica,sans-Serif" font-size="10.00">/test/SegmentTree.cxx</text>
</g>
<!-- Node2 -->
<g id="node2" class="node"><title>Node2</title>
<polygon fill="none" stroke="#bfbfbf" points="-0.5,-174.5 -0.5,-193.5 118.5,-193.5 118.5,-174.5 -0.5,-174.5"/>
<text text-anchor="middle" x="59" y="-181.5" font-family="Helvetica,sans-Serif" font-size="10.00">boost/test/unit_test.hpp</text>
</g>
<!-- Node1&#45;&gt;Node2 -->
<g id="edge1" class="edge"><title>Node1&#45;&gt;Node2</title>
<path fill="none" stroke="midnightblue" d="M177.371,-236.787C147.413,-223.681 112.102,-208.232 87.8921,-197.64"/>
<polygon fill="midnightblue" stroke="midnightblue" points="89.1249,-194.359 78.5605,-193.558 86.3192,-200.773 89.1249,-194.359"/>
</g>
<!-- Node3 -->
<g id="node3" class="node"><title>Node3</title>
<polygon fill="none" stroke="#bfbfbf" points="136.5,-169 136.5,-199 237.5,-199 237.5,-169 136.5,-169"/>
<text text-anchor="start" x="144.5" y="-187" font-family="Helvetica,sans-Serif" font-size="10.00">boost/test/data/test</text>
<text text-anchor="middle" x="187" y="-176" font-family="Helvetica,sans-Serif" font-size="10.00">_case.hpp</text>
</g>
<!-- Node1&#45;&gt;Node3 -->
<g id="edge2" class="edge"><title>Node1&#45;&gt;Node3</title>
<path fill="none" stroke="midnightblue" d="M219.283,-236.787C213.459,-227.445 206.894,-216.913 201.212,-207.798"/>
<polygon fill="midnightblue" stroke="midnightblue" points="204.145,-205.887 195.884,-199.252 198.204,-209.59 204.145,-205.887"/>
</g>
<!-- Node4 -->
<g id="node4" class="node"><title>Node4</title>
<polygon fill="none" stroke="#bfbfbf" points="256,-174.5 256,-193.5 310,-193.5 310,-174.5 256,-174.5"/>
<text text-anchor="middle" x="283" y="-181.5" font-family="Helvetica,sans-Serif" font-size="10.00">iostream</text>
</g>
<!-- Node1&#45;&gt;Node4 -->
<g id="edge3" class="edge"><title>Node1&#45;&gt;Node4</title>
<path fill="none" stroke="midnightblue" d="M250.717,-236.787C257.762,-225.486 265.892,-212.445 272.231,-202.276"/>
<polygon fill="midnightblue" stroke="midnightblue" points="275.345,-203.895 277.665,-193.558 269.405,-200.192 275.345,-203.895"/>
</g>
<!-- Node5 -->
<g id="node5" class="node"><title>Node5</title>
<g id="a_node5"><a xlink:href="../../dc/ded/SegmentTree_8h.html" target="_top" xlink:title="../include/MCHContour\l/SegmentTree.h">
<polygon fill="none" stroke="black" points="328.5,-169 328.5,-199 445.5,-199 445.5,-169 328.5,-169"/>
<text text-anchor="start" x="336.5" y="-187" font-family="Helvetica,sans-Serif" font-size="10.00">../include/MCHContour</text>
<text text-anchor="middle" x="387" y="-176" font-family="Helvetica,sans-Serif" font-size="10.00">/SegmentTree.h</text>
</a>
</g>
</g>
<!-- Node1&#45;&gt;Node5 -->
<g id="edge4" class="edge"><title>Node1&#45;&gt;Node5</title>
<path fill="none" stroke="midnightblue" d="M284.77,-236.787C306.147,-225.958 330.68,-213.531 350.353,-203.564"/>
<polygon fill="midnightblue" stroke="midnightblue" points="351.964,-206.672 359.303,-199.031 348.801,-200.427 351.964,-206.672"/>
</g>
<!-- Node6 -->
<g id="node6" class="node"><title>Node6</title>
<polygon fill="none" stroke="#bfbfbf" points="269,-56.5 269,-75.5 313,-75.5 313,-56.5 269,-56.5"/>
<text text-anchor="middle" x="291" y="-63.5" font-family="Helvetica,sans-Serif" font-size="10.00">vector</text>
</g>
<!-- Node5&#45;&gt;Node6 -->
<g id="edge5" class="edge"><title>Node5&#45;&gt;Node6</title>
<path fill="none" stroke="midnightblue" d="M363.297,-168.798C349.566,-159.646 332.729,-146.724 321,-132 309.879,-118.039 301.794,-99.2868 296.839,-85.512"/>
<polygon fill="midnightblue" stroke="midnightblue" points="300.049,-84.0767 293.538,-75.7186 293.416,-86.3128 300.049,-84.0767"/>
</g>
<!-- Node7 -->
<g id="node7" class="node"><title>Node7</title>
<polygon fill="none" stroke="#bfbfbf" points="403,-56.5 403,-75.5 455,-75.5 455,-56.5 403,-56.5"/>
<text text-anchor="middle" x="429" y="-63.5" font-family="Helvetica,sans-Serif" font-size="10.00">ostream</text>
</g>
<!-- Node5&#45;&gt;Node7 -->
<g id="edge6" class="edge"><title>Node5&#45;&gt;Node7</title>
<path fill="none" stroke="midnightblue" d="M392.15,-168.776C399.752,-147.781 413.978,-108.488 422.356,-85.3487"/>
<polygon fill="midnightblue" stroke="midnightblue" points="425.734,-86.3012 425.847,-75.707 419.152,-83.9181 425.734,-86.3012"/>
</g>
<!-- Node8 -->
<g id="node8" class="node"><title>Node8</title>
<polygon fill="none" stroke="#bfbfbf" points="443,-112.5 443,-131.5 499,-131.5 499,-112.5 443,-112.5"/>
<text text-anchor="middle" x="471" y="-119.5" font-family="Helvetica,sans-Serif" font-size="10.00">algorithm</text>
</g>
<!-- Node5&#45;&gt;Node8 -->
<g id="edge7" class="edge"><title>Node5&#45;&gt;Node8</title>
<path fill="none" stroke="midnightblue" d="M406.907,-168.781C419.994,-159.433 437.082,-147.227 450.322,-137.77"/>
<polygon fill="midnightblue" stroke="midnightblue" points="452.674,-140.391 458.777,-131.731 448.606,-134.695 452.674,-140.391"/>
</g>
<!-- Node9 -->
<g id="node9" class="node"><title>Node9</title>
<g id="a_node9"><a xlink:href="../../d1/d55/Interval_8h.html" target="_top" xlink:title="Interval.h">
<polygon fill="none" stroke="black" points="329.5,-112.5 329.5,-131.5 386.5,-131.5 386.5,-112.5 329.5,-112.5"/>
<text text-anchor="middle" x="358" y="-119.5" font-family="Helvetica,sans-Serif" font-size="10.00">Interval.h</text>
</a>
</g>
</g>
<!-- Node5&#45;&gt;Node9 -->
<g id="edge8" class="edge"><title>Node5&#45;&gt;Node9</title>
<path fill="none" stroke="midnightblue" d="M380.127,-168.781C376.087,-160.422 370.942,-149.777 366.631,-140.856"/>
<polygon fill="midnightblue" stroke="midnightblue" points="369.723,-139.211 362.22,-131.731 363.42,-142.257 369.723,-139.211"/>
</g>
<!-- Node9&#45;&gt;Node6 -->
<g id="edge9" class="edge"><title>Node9&#45;&gt;Node6</title>
<path fill="none" stroke="midnightblue" d="M347.235,-112.324C337.234,-104.263 322.113,-92.0765 310.07,-82.3695"/>
<polygon fill="midnightblue" stroke="midnightblue" points="311.943,-79.3841 301.961,-75.8339 307.55,-84.8343 311.943,-79.3841"/>
</g>
<!-- Node9&#45;&gt;Node7 -->
<g id="edge10" class="edge"><title>Node9&#45;&gt;Node7</title>
<path fill="none" stroke="midnightblue" d="M369.407,-112.324C380.109,-104.185 396.341,-91.8395 409.163,-82.0874"/>
<polygon fill="midnightblue" stroke="midnightblue" points="411.544,-84.6734 417.385,-75.8339 407.307,-79.1018 411.544,-84.6734"/>
</g>
<!-- Node10 -->
<g id="node10" class="node"><title>Node10</title>
<g id="a_node10"><a xlink:href="../../d2/dc4/Helper_8h.html" target="_top" xlink:title="Helper.h">
<polygon fill="none" stroke="black" points="331.5,-56.5 331.5,-75.5 384.5,-75.5 384.5,-56.5 331.5,-56.5"/>
<text text-anchor="middle" x="358" y="-63.5" font-family="Helvetica,sans-Serif" font-size="10.00">Helper.h</text>
</a>
</g>
</g>
<!-- Node9&#45;&gt;Node10 -->
<g id="edge11" class="edge"><title>Node9&#45;&gt;Node10</title>
<path fill="none" stroke="midnightblue" d="M358,-112.083C358,-105.006 358,-94.8611 358,-85.9865"/>
<polygon fill="midnightblue" stroke="midnightblue" points="361.5,-85.751 358,-75.7511 354.5,-85.7511 361.5,-85.751"/>
</g>
<!-- Node11 -->
<g id="node11" class="node"><title>Node11</title>
<polygon fill="none" stroke="#bfbfbf" points="276,-0.5 276,-19.5 320,-19.5 320,-0.5 276,-0.5"/>
<text text-anchor="middle" x="298" y="-7.5" font-family="Helvetica,sans-Serif" font-size="10.00">cmath</text>
</g>
<!-- Node10&#45;&gt;Node11 -->
<g id="edge12" class="edge"><title>Node10&#45;&gt;Node11</title>
<path fill="none" stroke="midnightblue" d="M348.36,-56.324C339.49,-48.3414 326.125,-36.3128 315.392,-26.6529"/>
<polygon fill="midnightblue" stroke="midnightblue" points="317.59,-23.922 307.815,-19.8339 312.907,-29.1251 317.59,-23.922"/>
</g>
<!-- Node12 -->
<g id="node12" class="node"><title>Node12</title>
<polygon fill="none" stroke="#bfbfbf" points="338,-0.5 338,-19.5 378,-19.5 378,-0.5 338,-0.5"/>
<text text-anchor="middle" x="358" y="-7.5" font-family="Helvetica,sans-Serif" font-size="10.00">limits</text>
</g>
<!-- Node10&#45;&gt;Node12 -->
<g id="edge13" class="edge"><title>Node10&#45;&gt;Node12</title>
<path fill="none" stroke="midnightblue" d="M358,-56.083C358,-49.0059 358,-38.8611 358,-29.9865"/>
<polygon fill="midnightblue" stroke="midnightblue" points="361.5,-29.751 358,-19.7511 354.5,-29.7511 361.5,-29.751"/>
</g>
<!-- Node13 -->
<g id="node13" class="node"><title>Node13</title>
<polygon fill="none" stroke="#bfbfbf" points="396,-0.5 396,-19.5 442,-19.5 442,-0.5 396,-0.5"/>
<text text-anchor="middle" x="419" y="-7.5" font-family="Helvetica,sans-Serif" font-size="10.00">cstdint</text>
</g>
<!-- Node10&#45;&gt;Node13 -->
<g id="edge14" class="edge"><title>Node10&#45;&gt;Node13</title>
<path fill="none" stroke="midnightblue" d="M367.801,-56.324C376.818,-48.3414 390.406,-36.3128 401.318,-26.6529"/>
<polygon fill="midnightblue" stroke="midnightblue" points="403.853,-29.083 409.021,-19.8339 399.213,-23.8416 403.853,-29.083"/>
</g>
</g>
</svg>
