<?xml version="1.0" encoding="UTF-8" standalone="no"?>
<!DOCTYPE svg PUBLIC "-//W3C//DTD SVG 1.1//EN"
 "http://www.w3.org/Graphics/SVG/1.1/DTD/svg11.dtd">
<!-- Generated by graphviz version 2.36.0 (20140111.2315)
 -->
<!-- Title: /home/travis/build/AliceO2Group/AliceO2/Detectors/TPC/base/src/ModelGEM.cxx Pages: 1 -->
<svg width="188pt" height="174pt"
 viewBox="0.00 0.00 188.00 174.00" xmlns="http://www.w3.org/2000/svg" xmlns:xlink="http://www.w3.org/1999/xlink">
<g id="graph0" class="graph" transform="scale(1 1) rotate(0) translate(4 170)">
<title>/home/travis/build/AliceO2Group/AliceO2/Detectors/TPC/base/src/ModelGEM.cxx</title>
<!-- Node1 -->
<g id="node1" class="node"><title>Node1</title>
<polygon fill="#bfbfbf" stroke="black" points="8,-113 8,-165 134,-165 134,-113 8,-113"/>
<text text-anchor="start" x="16" y="-153" font-family="Helvetica,sans-Serif" font-size="10.00">/home/travis/build</text>
<text text-anchor="start" x="16" y="-142" font-family="Helvetica,sans-Serif" font-size="10.00">/AliceO2Group/AliceO2</text>
<text text-anchor="start" x="16" y="-131" font-family="Helvetica,sans-Serif" font-size="10.00">/Detectors/TPC/base/src</text>
<text text-anchor="middle" x="71" y="-120" font-family="Helvetica,sans-Serif" font-size="10.00">/ModelGEM.cxx</text>
</g>
<!-- Node2 -->
<g id="node2" class="node"><title>Node2</title>
<polygon fill="none" stroke="#bfbfbf" points="-1,-56.5 -1,-75.5 43,-75.5 43,-56.5 -1,-56.5"/>
<text text-anchor="middle" x="21" y="-63.5" font-family="Helvetica,sans-Serif" font-size="10.00">cmath</text>
</g>
<!-- Node1&#45;&gt;Node2 -->
<g id="edge1" class="edge"><title>Node1&#45;&gt;Node2</title>
<path fill="none" stroke="midnightblue" d="M53.2311,-112.768C46.5524,-103.284 39.1203,-92.7308 33.0775,-84.15"/>
<polygon fill="midnightblue" stroke="midnightblue" points="35.7865,-81.918 27.167,-75.7572 30.0632,-85.9485 35.7865,-81.918"/>
</g>
<!-- Node3 -->
<g id="node3" class="node"><title>Node3</title>
<g id="a_node3"><a xlink:href="../../d4/da2/ModelGEM_8h.html" target="_top" xlink:title="Definition for the model calculations + simulations of the GEM efficiencies. ">
<polygon fill="none" stroke="black" points="61.5,-56.5 61.5,-75.5 180.5,-75.5 180.5,-56.5 61.5,-56.5"/>
<text text-anchor="middle" x="121" y="-63.5" font-family="Helvetica,sans-Serif" font-size="10.00">TPCBase/ModelGEM.h</text>
</a>
</g>
</g>
<!-- Node1&#45;&gt;Node3 -->
<g id="edge2" class="edge"><title>Node1&#45;&gt;Node3</title>
<path fill="none" stroke="midnightblue" d="M88.7689,-112.768C95.4476,-103.284 102.88,-92.7308 108.923,-84.15"/>
<polygon fill="midnightblue" stroke="midnightblue" points="111.937,-85.9485 114.833,-75.7572 106.214,-81.918 111.937,-85.9485"/>
</g>
<!-- Node4 -->
<g id="node4" class="node"><title>Node4</title>
<polygon fill="none" stroke="#bfbfbf" points="102,-0.5 102,-19.5 140,-19.5 140,-0.5 102,-0.5"/>
<text text-anchor="middle" x="121" y="-7.5" font-family="Helvetica,sans-Serif" font-size="10.00">array</text>
</g>
<!-- Node3&#45;&gt;Node4 -->
<g id="edge3" class="edge"><title>Node3&#45;&gt;Node4</title>
<path fill="none" stroke="midnightblue" d="M121,-56.083C121,-49.0059 121,-38.8611 121,-29.9865"/>
<polygon fill="midnightblue" stroke="midnightblue" points="124.5,-29.751 121,-19.7511 117.5,-29.7511 124.5,-29.751"/>
</g>
</g>
</svg>
