<?xml version="1.0" encoding="UTF-8" standalone="no"?>
<!DOCTYPE svg PUBLIC "-//W3C//DTD SVG 1.1//EN"
 "http://www.w3.org/Graphics/SVG/1.1/DTD/svg11.dtd">
<!-- Generated by graphviz version 2.36.0 (20140111.2315)
 -->
<!-- Title: /home/travis/build/AliceO2Group/AliceO2/Detectors/MUON/MID/Simulation/src/MCLabel.cxx Pages: 1 -->
<svg width="174pt" height="242pt"
 viewBox="0.00 0.00 174.00 242.00" xmlns="http://www.w3.org/2000/svg" xmlns:xlink="http://www.w3.org/1999/xlink">
<g id="graph0" class="graph" transform="scale(1 1) rotate(0) translate(4 238)">
<title>/home/travis/build/AliceO2Group/AliceO2/Detectors/MUON/MID/Simulation/src/MCLabel.cxx</title>
<!-- Node1 -->
<g id="node1" class="node"><title>Node1</title>
<polygon fill="#bfbfbf" stroke="black" points="-0.5,-181 -0.5,-233 166.5,-233 166.5,-181 -0.5,-181"/>
<text text-anchor="start" x="7.5" y="-221" font-family="Helvetica,sans-Serif" font-size="10.00">/home/travis/build</text>
<text text-anchor="start" x="7.5" y="-210" font-family="Helvetica,sans-Serif" font-size="10.00">/AliceO2Group/AliceO2</text>
<text text-anchor="start" x="7.5" y="-199" font-family="Helvetica,sans-Serif" font-size="10.00">/Detectors/MUON/MID/Simulation</text>
<text text-anchor="middle" x="83" y="-188" font-family="Helvetica,sans-Serif" font-size="10.00">/src/MCLabel.cxx</text>
</g>
<!-- Node2 -->
<g id="node2" class="node"><title>Node2</title>
<g id="a_node2"><a xlink:href="../../d7/d0e/MUON_2MID_2Simulation_2include_2MIDSimulation_2MCLabel_8h.html" target="_top" xlink:title="Label for MID. ">
<polygon fill="none" stroke="black" points="17.5,-124.5 17.5,-143.5 148.5,-143.5 148.5,-124.5 17.5,-124.5"/>
<text text-anchor="middle" x="83" y="-131.5" font-family="Helvetica,sans-Serif" font-size="10.00">MIDSimulation/MCLabel.h</text>
</a>
</g>
</g>
<!-- Node1&#45;&gt;Node2 -->
<g id="edge1" class="edge"><title>Node1&#45;&gt;Node2</title>
<path fill="none" stroke="midnightblue" d="M83,-180.768C83,-171.89 83,-162.074 83,-153.816"/>
<polygon fill="midnightblue" stroke="midnightblue" points="86.5001,-153.757 83,-143.757 79.5001,-153.757 86.5001,-153.757"/>
</g>
<!-- Node3 -->
<g id="node3" class="node"><title>Node3</title>
<g id="a_node3"><a xlink:href="../../d7/dcd/MCCompLabel_8h.html" target="_top" xlink:title="SimulationDataFormat\l/MCCompLabel.h">
<polygon fill="none" stroke="black" points="26,-57 26,-87 140,-87 140,-57 26,-57"/>
<text text-anchor="start" x="34" y="-75" font-family="Helvetica,sans-Serif" font-size="10.00">SimulationDataFormat</text>
<text text-anchor="middle" x="83" y="-64" font-family="Helvetica,sans-Serif" font-size="10.00">/MCCompLabel.h</text>
</a>
</g>
</g>
<!-- Node2&#45;&gt;Node3 -->
<g id="edge2" class="edge"><title>Node2&#45;&gt;Node3</title>
<path fill="none" stroke="midnightblue" d="M83,-124.403C83,-117.341 83,-106.975 83,-97.399"/>
<polygon fill="midnightblue" stroke="midnightblue" points="86.5001,-97.1408 83,-87.1408 79.5001,-97.1408 86.5001,-97.1408"/>
</g>
<!-- Node4 -->
<g id="node4" class="node"><title>Node4</title>
<polygon fill="none" stroke="#bfbfbf" points="19,-0.5 19,-19.5 147,-19.5 147,-0.5 19,-0.5"/>
<text text-anchor="middle" x="83" y="-7.5" font-family="Helvetica,sans-Serif" font-size="10.00">AliTPCCommonRtypes.h</text>
</g>
<!-- Node3&#45;&gt;Node4 -->
<g id="edge3" class="edge"><title>Node3&#45;&gt;Node4</title>
<path fill="none" stroke="midnightblue" d="M83,-56.7808C83,-48.7812 83,-38.6887 83,-30.0168"/>
<polygon fill="midnightblue" stroke="midnightblue" points="86.5001,-29.7305 83,-19.7305 79.5001,-29.7306 86.5001,-29.7305"/>
</g>
</g>
</svg>
