<?xml version="1.0" encoding="UTF-8" standalone="no"?>
<!DOCTYPE svg PUBLIC "-//W3C//DTD SVG 1.1//EN"
 "http://www.w3.org/Graphics/SVG/1.1/DTD/svg11.dtd">
<!-- Generated by graphviz version 2.36.0 (20140111.2315)
 -->
<!-- Title: o2::header::HeartbeatHeader Pages: 1 -->
<svg width="387pt" height="228pt"
 viewBox="0.00 0.00 387.00 228.00" xmlns="http://www.w3.org/2000/svg" xmlns:xlink="http://www.w3.org/1999/xlink">
<g id="graph0" class="graph" transform="scale(1 1) rotate(0) translate(4 224)">
<title>o2::header::HeartbeatHeader</title>
<!-- Node1 -->
<g id="node1" class="node"><title>Node1</title>
<polygon fill="#bfbfbf" stroke="black" points="108.5,-0.5 108.5,-79.5 251.5,-79.5 251.5,-0.5 108.5,-0.5"/>
<text text-anchor="middle" x="180" y="-67.5" font-family="Helvetica,sans-Serif" font-size="10.00">o2::header::HeartbeatHeader</text>
<polyline fill="none" stroke="black" points="108.5,-60.5 251.5,-60.5 "/>
<text text-anchor="middle" x="180" y="-48.5" font-family="Helvetica,sans-Serif" font-size="10.00"> </text>
<polyline fill="none" stroke="black" points="108.5,-41.5 251.5,-41.5 "/>
<text text-anchor="start" x="116.5" y="-29.5" font-family="Helvetica,sans-Serif" font-size="10.00">+ operator bool()</text>
<text text-anchor="start" x="116.5" y="-18.5" font-family="Helvetica,sans-Serif" font-size="10.00">+ operator&lt;()</text>
<text text-anchor="start" x="116.5" y="-7.5" font-family="Helvetica,sans-Serif" font-size="10.00">+ operator uint64_t()</text>
</g>
<!-- Node2 -->
<g id="node2" class="node"><title>Node2</title>
<polygon fill="none" stroke="#bfbfbf" points="-0.5,-161.5 -0.5,-218.5 50.5,-218.5 50.5,-161.5 -0.5,-161.5"/>
<text text-anchor="middle" x="25" y="-206.5" font-family="Helvetica,sans-Serif" font-size="10.00">uint64_t</text>
<polyline fill="none" stroke="#bfbfbf" points="-0.5,-199.5 50.5,-199.5 "/>
<text text-anchor="middle" x="25" y="-187.5" font-family="Helvetica,sans-Serif" font-size="10.00"> </text>
<polyline fill="none" stroke="#bfbfbf" points="-0.5,-180.5 50.5,-180.5 "/>
<text text-anchor="middle" x="25" y="-168.5" font-family="Helvetica,sans-Serif" font-size="10.00"> </text>
</g>
<!-- Node2&#45;&gt;Node1 -->
<g id="edge1" class="edge"><title>Node2&#45;&gt;Node1</title>
<path fill="none" stroke="#404040" d="M26.4057,-161.406C28.757,-141.674 34.7848,-115.6 50,-98 62.4935,-83.548 79.341,-72.6219 96.7599,-64.4115"/>
<polygon fill="none" stroke="#404040" points="97.2505,-64.1975 101.15,-58.1317 108.249,-59.3984 104.35,-65.4642 97.2505,-64.1975"/>
<text text-anchor="middle" x="81" y="-117.5" font-family="Helvetica,sans-Serif" font-size="10.00"> +headerWord</text>
</g>
<!-- Node3 -->
<g id="node3" class="node"><title>Node3</title>
<polygon fill="none" stroke="#bfbfbf" points="84.5,-161.5 84.5,-218.5 135.5,-218.5 135.5,-161.5 84.5,-161.5"/>
<text text-anchor="middle" x="110" y="-206.5" font-family="Helvetica,sans-Serif" font-size="10.00">uint16_t</text>
<polyline fill="none" stroke="#bfbfbf" points="84.5,-199.5 135.5,-199.5 "/>
<text text-anchor="middle" x="110" y="-187.5" font-family="Helvetica,sans-Serif" font-size="10.00"> </text>
<polyline fill="none" stroke="#bfbfbf" points="84.5,-180.5 135.5,-180.5 "/>
<text text-anchor="middle" x="110" y="-168.5" font-family="Helvetica,sans-Serif" font-size="10.00"> </text>
</g>
<!-- Node3&#45;&gt;Node1 -->
<g id="edge2" class="edge"><title>Node3&#45;&gt;Node1</title>
<path fill="none" stroke="#404040" d="M111.987,-161.492C114.219,-142.769 118.956,-117.879 129,-98 130.465,-95.1 132.116,-92.2337 133.904,-89.4211"/>
<polygon fill="none" stroke="#404040" points="133.978,-89.3164 134.165,-82.1077 140.891,-79.5073 140.704,-86.716 133.978,-89.3164"/>
<text text-anchor="middle" x="152.5" y="-123" font-family="Helvetica,sans-Serif" font-size="10.00"> +reserved</text>
<text text-anchor="middle" x="152.5" y="-112" font-family="Helvetica,sans-Serif" font-size="10.00">+bcid</text>
</g>
<!-- Node4 -->
<g id="node4" class="node"><title>Node4</title>
<polygon fill="none" stroke="#bfbfbf" points="164.5,-161 164.5,-219 193.5,-219 193.5,-161 164.5,-161"/>
<polyline fill="none" stroke="#bfbfbf" points="164.5,-199 193.5,-199 "/>
<text text-anchor="middle" x="179" y="-187" font-family="Helvetica,sans-Serif" font-size="10.00"> </text>
<polyline fill="none" stroke="#bfbfbf" points="164.5,-180 193.5,-180 "/>
<text text-anchor="middle" x="179" y="-168" font-family="Helvetica,sans-Serif" font-size="10.00"> </text>
</g>
<!-- Node4&#45;&gt;Node1 -->
<g id="edge3" class="edge"><title>Node4&#45;&gt;Node1</title>
<path fill="none" stroke="#404040" d="M179.19,-160.814C179.322,-141.335 179.501,-114.873 179.657,-91.7721"/>
<polygon fill="none" stroke="#404040" points="179.657,-91.7022 175.698,-85.6753 179.738,-79.7025 183.698,-85.7294 179.657,-91.7022"/>
<text text-anchor="middle" x="195.5" y="-117.5" font-family="Helvetica,sans-Serif" font-size="10.00"> +@22</text>
</g>
<!-- Node5 -->
<g id="node5" class="node"><title>Node5</title>
<polygon fill="none" stroke="#bfbfbf" points="212,-161.5 212,-218.5 258,-218.5 258,-161.5 212,-161.5"/>
<text text-anchor="middle" x="235" y="-206.5" font-family="Helvetica,sans-Serif" font-size="10.00">uint8_t</text>
<polyline fill="none" stroke="#bfbfbf" points="212,-199.5 258,-199.5 "/>
<text text-anchor="middle" x="235" y="-187.5" font-family="Helvetica,sans-Serif" font-size="10.00"> </text>
<polyline fill="none" stroke="#bfbfbf" points="212,-180.5 258,-180.5 "/>
<text text-anchor="middle" x="235" y="-168.5" font-family="Helvetica,sans-Serif" font-size="10.00"> </text>
</g>
<!-- Node5&#45;&gt;Node1 -->
<g id="edge4" class="edge"><title>Node5&#45;&gt;Node1</title>
<path fill="none" stroke="#404040" d="M230.448,-161.286C226.915,-142.92 221.22,-118.52 213,-98 212.015,-95.542 210.939,-93.0624 209.795,-90.585"/>
<polygon fill="none" stroke="#404040" points="209.779,-90.5531 203.523,-86.9671 204.427,-79.8129 210.683,-83.3989 209.779,-90.5531"/>
<text text-anchor="middle" x="275" y="-134" font-family="Helvetica,sans-Serif" font-size="10.00"> +triggerType</text>
<text text-anchor="middle" x="275" y="-123" font-family="Helvetica,sans-Serif" font-size="10.00">+headerLength</text>
<text text-anchor="middle" x="275" y="-112" font-family="Helvetica,sans-Serif" font-size="10.00">+blockType</text>
<text text-anchor="middle" x="275" y="-101" font-family="Helvetica,sans-Serif" font-size="10.00">+reservedTriggerType</text>
</g>
<!-- Node6 -->
<g id="node6" class="node"><title>Node6</title>
<polygon fill="none" stroke="#bfbfbf" points="328.5,-161.5 328.5,-218.5 379.5,-218.5 379.5,-161.5 328.5,-161.5"/>
<text text-anchor="middle" x="354" y="-206.5" font-family="Helvetica,sans-Serif" font-size="10.00">uint32_t</text>
<polyline fill="none" stroke="#bfbfbf" points="328.5,-199.5 379.5,-199.5 "/>
<text text-anchor="middle" x="354" y="-187.5" font-family="Helvetica,sans-Serif" font-size="10.00"> </text>
<polyline fill="none" stroke="#bfbfbf" points="328.5,-180.5 379.5,-180.5 "/>
<text text-anchor="middle" x="354" y="-168.5" font-family="Helvetica,sans-Serif" font-size="10.00"> </text>
</g>
<!-- Node6&#45;&gt;Node1 -->
<g id="edge5" class="edge"><title>Node6&#45;&gt;Node1</title>
<path fill="none" stroke="#404040" d="M352.141,-161.172C349.432,-141.324 342.859,-115.207 327,-98 310.022,-79.5788 286.394,-67.0437 263.042,-58.5406"/>
<polygon fill="none" stroke="#404040" points="262.999,-58.5259 256.034,-60.3933 251.631,-54.6821 258.596,-52.8148 262.999,-58.5259"/>
<text text-anchor="middle" x="363" y="-117.5" font-family="Helvetica,sans-Serif" font-size="10.00"> +orbit</text>
</g>
</g>
</svg>
