<?xml version="1.0" encoding="UTF-8" standalone="no"?>
<!DOCTYPE svg PUBLIC "-//W3C//DTD SVG 1.1//EN"
 "http://www.w3.org/Graphics/SVG/1.1/DTD/svg11.dtd">
<!-- Generated by graphviz version 2.36.0 (20140111.2315)
 -->
<!-- Title: sg_attachment_desc Pages: 1 -->
<svg width="186pt" height="312pt"
 viewBox="0.00 0.00 186.00 312.00" xmlns="http://www.w3.org/2000/svg" xmlns:xlink="http://www.w3.org/1999/xlink">
<g id="graph0" class="graph" transform="scale(1 1) rotate(0) translate(4 308)">
<title>sg_attachment_desc</title>
<!-- Node1 -->
<g id="node1" class="node"><title>Node1</title>
<polygon fill="#bfbfbf" stroke="black" points="22.5,-0.5 22.5,-57.5 129.5,-57.5 129.5,-0.5 22.5,-0.5"/>
<text text-anchor="middle" x="76" y="-45.5" font-family="Helvetica,sans-Serif" font-size="10.00">sg_attachment_desc</text>
<polyline fill="none" stroke="black" points="22.5,-38.5 129.5,-38.5 "/>
<text text-anchor="middle" x="76" y="-26.5" font-family="Helvetica,sans-Serif" font-size="10.00"> </text>
<polyline fill="none" stroke="black" points="22.5,-19.5 129.5,-19.5 "/>
<text text-anchor="middle" x="76" y="-7.5" font-family="Helvetica,sans-Serif" font-size="10.00"> </text>
</g>
<!-- Node2 -->
<g id="node2" class="node"><title>Node2</title>
<polygon fill="none" stroke="#bfbfbf" points="-0.5,-139 -0.5,-197 28.5,-197 28.5,-139 -0.5,-139"/>
<polyline fill="none" stroke="#bfbfbf" points="-0.5,-177 28.5,-177 "/>
<text text-anchor="middle" x="14" y="-165" font-family="Helvetica,sans-Serif" font-size="10.00"> </text>
<polyline fill="none" stroke="#bfbfbf" points="-0.5,-158 28.5,-158 "/>
<text text-anchor="middle" x="14" y="-146" font-family="Helvetica,sans-Serif" font-size="10.00"> </text>
</g>
<!-- Node2&#45;&gt;Node1 -->
<g id="edge1" class="edge"><title>Node2&#45;&gt;Node1</title>
<path fill="none" stroke="#404040" d="M17.287,-138.708C20.2862,-120.098 25.8615,-95.643 36,-76 37.4956,-73.1023 39.2107,-70.2357 41.0707,-67.4348"/>
<polygon fill="none" stroke="#404040" points="41.1763,-67.2919 41.525,-60.0892 48.3077,-57.6409 47.959,-64.8435 41.1763,-67.2919"/>
<text text-anchor="middle" x="54" y="-95.5" font-family="Helvetica,sans-Serif" font-size="10.00"> +@164</text>
</g>
<!-- Node3 -->
<g id="node3" class="node"><title>Node3</title>
<g id="a_node3"><a xlink:href="../../d5/de5/structsg__image.html" target="_top" xlink:title="{sg_image\n||}">
<polygon fill="none" stroke="black" points="46.5,-139.5 46.5,-196.5 105.5,-196.5 105.5,-139.5 46.5,-139.5"/>
<text text-anchor="middle" x="76" y="-184.5" font-family="Helvetica,sans-Serif" font-size="10.00">sg_image</text>
<polyline fill="none" stroke="black" points="46.5,-177.5 105.5,-177.5 "/>
<text text-anchor="middle" x="76" y="-165.5" font-family="Helvetica,sans-Serif" font-size="10.00"> </text>
<polyline fill="none" stroke="black" points="46.5,-158.5 105.5,-158.5 "/>
<text text-anchor="middle" x="76" y="-146.5" font-family="Helvetica,sans-Serif" font-size="10.00"> </text>
</a>
</g>
</g>
<!-- Node3&#45;&gt;Node1 -->
<g id="edge2" class="edge"><title>Node3&#45;&gt;Node1</title>
<path fill="none" stroke="#404040" d="M76,-139.276C76,-119.314 76,-92.0878 76,-69.806"/>
<polygon fill="none" stroke="#404040" points="76.0001,-69.6828 72,-63.6828 76,-57.6828 80,-63.6827 76.0001,-69.6828"/>
<text text-anchor="middle" x="94" y="-95.5" font-family="Helvetica,sans-Serif" font-size="10.00"> +image</text>
</g>
<!-- Node4 -->
<g id="node4" class="node"><title>Node4</title>
<polygon fill="none" stroke="#bfbfbf" points="50.5,-246.5 50.5,-303.5 101.5,-303.5 101.5,-246.5 50.5,-246.5"/>
<text text-anchor="middle" x="76" y="-291.5" font-family="Helvetica,sans-Serif" font-size="10.00">uint32_t</text>
<polyline fill="none" stroke="#bfbfbf" points="50.5,-284.5 101.5,-284.5 "/>
<text text-anchor="middle" x="76" y="-272.5" font-family="Helvetica,sans-Serif" font-size="10.00"> </text>
<polyline fill="none" stroke="#bfbfbf" points="50.5,-265.5 101.5,-265.5 "/>
<text text-anchor="middle" x="76" y="-253.5" font-family="Helvetica,sans-Serif" font-size="10.00"> </text>
</g>
<!-- Node4&#45;&gt;Node3 -->
<g id="edge3" class="edge"><title>Node4&#45;&gt;Node3</title>
<path fill="none" stroke="#404040" d="M76,-246.412C76,-234.929 76,-221.374 76,-208.843"/>
<polygon fill="none" stroke="#404040" points="76.0001,-208.768 72,-202.768 76,-196.768 80,-202.768 76.0001,-208.768"/>
<text text-anchor="middle" x="84.5" y="-219.5" font-family="Helvetica,sans-Serif" font-size="10.00"> +id</text>
</g>
<!-- Node5 -->
<g id="node5" class="node"><title>Node5</title>
<g id="a_node5"><a xlink:href="../../d1/da0/classint.html" target="_top" xlink:title="{int\n||}">
<polygon fill="none" stroke="black" points="123.5,-139.5 123.5,-196.5 152.5,-196.5 152.5,-139.5 123.5,-139.5"/>
<text text-anchor="middle" x="138" y="-184.5" font-family="Helvetica,sans-Serif" font-size="10.00">int</text>
<polyline fill="none" stroke="black" points="123.5,-177.5 152.5,-177.5 "/>
<text text-anchor="middle" x="138" y="-165.5" font-family="Helvetica,sans-Serif" font-size="10.00"> </text>
<polyline fill="none" stroke="black" points="123.5,-158.5 152.5,-158.5 "/>
<text text-anchor="middle" x="138" y="-146.5" font-family="Helvetica,sans-Serif" font-size="10.00"> </text>
</a>
</g>
</g>
<!-- Node5&#45;&gt;Node1 -->
<g id="edge4" class="edge"><title>Node5&#45;&gt;Node1</title>
<path fill="none" stroke="#404040" d="M134.779,-139.118C131.796,-120.458 126.213,-95.7874 116,-76 114.504,-73.1023 112.789,-70.2357 110.929,-67.4348"/>
<polygon fill="none" stroke="#404040" points="110.824,-67.2919 104.041,-64.8435 103.692,-57.6409 110.475,-60.0892 110.824,-67.2919"/>
<text text-anchor="middle" x="154" y="-112" font-family="Helvetica,sans-Serif" font-size="10.00"> +layer</text>
<text text-anchor="middle" x="154" y="-101" font-family="Helvetica,sans-Serif" font-size="10.00">+slice</text>
<text text-anchor="middle" x="154" y="-90" font-family="Helvetica,sans-Serif" font-size="10.00">+face</text>
<text text-anchor="middle" x="154" y="-79" font-family="Helvetica,sans-Serif" font-size="10.00">+mip_level</text>
</g>
</g>
</svg>
