<?xml version="1.0" encoding="UTF-8" standalone="no"?>
<!DOCTYPE svg PUBLIC "-//W3C//DTD SVG 1.1//EN"
 "http://www.w3.org/Graphics/SVG/1.1/DTD/svg11.dtd">
<!-- Generated by graphviz version 2.36.0 (20140111.2315)
 -->
<!-- Title: o2::ITSMFT::ITSMFTDPLDigitizerTask Pages: 1 -->
<svg width="1864pt" height="906pt"
 viewBox="0.00 0.00 1864.00 906.00" xmlns="http://www.w3.org/2000/svg" xmlns:xlink="http://www.w3.org/1999/xlink">
<g id="graph0" class="graph" transform="scale(1 1) rotate(0) translate(4 902)">
<title>o2::ITSMFT::ITSMFTDPLDigitizerTask</title>
<!-- Node1 -->
<g id="node1" class="node"><title>Node1</title>
<polygon fill="#bfbfbf" stroke="black" points="782,-1 782,-135 970,-135 970,-1 782,-1"/>
<text text-anchor="middle" x="876" y="-123" font-family="Helvetica,sans-Serif" font-size="10.00">o2::ITSMFT::ITSMFTDPLDigitizerTask</text>
<polyline fill="none" stroke="black" points="782,-116 970,-116 "/>
<text text-anchor="middle" x="876" y="-104" font-family="Helvetica,sans-Serif" font-size="10.00"> </text>
<polyline fill="none" stroke="black" points="782,-97 970,-97 "/>
<text text-anchor="start" x="790" y="-85" font-family="Helvetica,sans-Serif" font-size="10.00">+ init()</text>
<text text-anchor="start" x="790" y="-74" font-family="Helvetica,sans-Serif" font-size="10.00">+ setDigitizationOptions()</text>
<text text-anchor="start" x="790" y="-63" font-family="Helvetica,sans-Serif" font-size="10.00">+ run()</text>
<text text-anchor="start" x="790" y="-52" font-family="Helvetica,sans-Serif" font-size="10.00"># ITSMFTDPLDigitizerTask()</text>
<text text-anchor="start" x="790" y="-41" font-family="Helvetica,sans-Serif" font-size="10.00"># processQED()</text>
<text text-anchor="start" x="790" y="-30" font-family="Helvetica,sans-Serif" font-size="10.00"># setupQEDChain()</text>
<text text-anchor="start" x="790" y="-19" font-family="Helvetica,sans-Serif" font-size="10.00"># retrieveHits()</text>
<text text-anchor="start" x="790" y="-8" font-family="Helvetica,sans-Serif" font-size="10.00"># accumulate()</text>
</g>
<!-- Node2 -->
<g id="node2" class="node"><title>Node2</title>
<polygon fill="none" stroke="#bfbfbf" points="-0.5,-310 -0.5,-378 104.5,-378 104.5,-310 -0.5,-310"/>
<text text-anchor="start" x="7.5" y="-366" font-family="Helvetica,sans-Serif" font-size="10.00">vector&lt; o2::ITSMFT</text>
<text text-anchor="middle" x="52" y="-355" font-family="Helvetica,sans-Serif" font-size="10.00">::o2::ITSMFT::Hit &gt;</text>
<polyline fill="none" stroke="#bfbfbf" points="-0.5,-348 104.5,-348 "/>
<text text-anchor="middle" x="52" y="-336" font-family="Helvetica,sans-Serif" font-size="10.00"> </text>
<polyline fill="none" stroke="#bfbfbf" points="-0.5,-329 104.5,-329 "/>
<text text-anchor="middle" x="52" y="-317" font-family="Helvetica,sans-Serif" font-size="10.00"> </text>
</g>
<!-- Node2&#45;&gt;Node1 -->
<g id="edge1" class="edge"><title>Node2&#45;&gt;Node1</title>
<path fill="none" stroke="#404040" d="M57.5181,-309.955C67.2463,-264.058 92.3835,-183.349 152,-154 258.224,-101.707 595.924,-80.448 769.995,-72.7929"/>
<polygon fill="none" stroke="#404040" points="769.996,-72.793 775.818,-68.5381 781.985,-72.2758 776.163,-76.5307 769.996,-72.793"/>
<text text-anchor="middle" x="169.5" y="-162.5" font-family="Helvetica,sans-Serif" font-size="10.00"> #mHits</text>
</g>
<!-- Node3 -->
<g id="node3" class="node"><title>Node3</title>
<polygon fill="none" stroke="#bfbfbf" points="122.5,-315.5 122.5,-372.5 167.5,-372.5 167.5,-315.5 122.5,-315.5"/>
<text text-anchor="middle" x="145" y="-360.5" font-family="Helvetica,sans-Serif" font-size="10.00">double</text>
<polyline fill="none" stroke="#bfbfbf" points="122.5,-353.5 167.5,-353.5 "/>
<text text-anchor="middle" x="145" y="-341.5" font-family="Helvetica,sans-Serif" font-size="10.00"> </text>
<polyline fill="none" stroke="#bfbfbf" points="122.5,-334.5 167.5,-334.5 "/>
<text text-anchor="middle" x="145" y="-322.5" font-family="Helvetica,sans-Serif" font-size="10.00"> </text>
</g>
<!-- Node3&#45;&gt;Node1 -->
<g id="edge2" class="edge"><title>Node3&#45;&gt;Node1</title>
<path fill="none" stroke="#404040" d="M145.608,-315.488C147.447,-284.009 154.071,-231.924 177,-194 191.368,-170.236 199.557,-165.127 225,-154 320.353,-112.297 610.939,-86.838 769.697,-75.6689"/>
<polygon fill="none" stroke="#404040" points="769.859,-75.6576 775.567,-71.251 781.83,-74.825 776.122,-79.2317 769.859,-75.6576"/>
<text text-anchor="middle" x="281" y="-168" font-family="Helvetica,sans-Serif" font-size="10.00"> #mQEDEntryTimeBinNS</text>
<text text-anchor="middle" x="281" y="-157" font-family="Helvetica,sans-Serif" font-size="10.00">#mLastQEDTimeNS</text>
</g>
<!-- Node4 -->
<g id="node4" class="node"><title>Node4</title>
<g id="a_node4"><a xlink:href="../../d8/d92/classo2_1_1ITSMFT_1_1Digitizer.html" target="_top" xlink:title="{o2::ITSMFT::Digitizer\n||+ Digitizer()\l+ ~Digitizer()\l+ Digitizer()\l+ operator=()\l+ setDigits()\l+ setMCLabels()\l+ setROFRecords()\l+ getParams()\l+ getParams()\l+ init()\l+ process()\l+ setEventTime()\l+ getEventTime()\l+ getEndTimeOfROFMax()\l+ setContinuous()\l+ isContinuous()\l+ fillOutputContainer()\l+ setDigiParams()\l+ getDigitParams()\l+ setGeometry()\l+ getEventROFrameMin()\l+ getEventROFrameMax()\l+ resetEventROFrames()\l}">
<polygon fill="none" stroke="black" points="186,-194.5 186,-493.5 320,-493.5 320,-194.5 186,-194.5"/>
<text text-anchor="middle" x="253" y="-481.5" font-family="Helvetica,sans-Serif" font-size="10.00">o2::ITSMFT::Digitizer</text>
<polyline fill="none" stroke="black" points="186,-474.5 320,-474.5 "/>
<text text-anchor="middle" x="253" y="-462.5" font-family="Helvetica,sans-Serif" font-size="10.00"> </text>
<polyline fill="none" stroke="black" points="186,-455.5 320,-455.5 "/>
<text text-anchor="start" x="194" y="-443.5" font-family="Helvetica,sans-Serif" font-size="10.00">+ Digitizer()</text>
<text text-anchor="start" x="194" y="-432.5" font-family="Helvetica,sans-Serif" font-size="10.00">+ ~Digitizer()</text>
<text text-anchor="start" x="194" y="-421.5" font-family="Helvetica,sans-Serif" font-size="10.00">+ Digitizer()</text>
<text text-anchor="start" x="194" y="-410.5" font-family="Helvetica,sans-Serif" font-size="10.00">+ operator=()</text>
<text text-anchor="start" x="194" y="-399.5" font-family="Helvetica,sans-Serif" font-size="10.00">+ setDigits()</text>
<text text-anchor="start" x="194" y="-388.5" font-family="Helvetica,sans-Serif" font-size="10.00">+ setMCLabels()</text>
<text text-anchor="start" x="194" y="-377.5" font-family="Helvetica,sans-Serif" font-size="10.00">+ setROFRecords()</text>
<text text-anchor="start" x="194" y="-366.5" font-family="Helvetica,sans-Serif" font-size="10.00">+ getParams()</text>
<text text-anchor="start" x="194" y="-355.5" font-family="Helvetica,sans-Serif" font-size="10.00">+ getParams()</text>
<text text-anchor="start" x="194" y="-344.5" font-family="Helvetica,sans-Serif" font-size="10.00">+ init()</text>
<text text-anchor="start" x="194" y="-333.5" font-family="Helvetica,sans-Serif" font-size="10.00">+ process()</text>
<text text-anchor="start" x="194" y="-322.5" font-family="Helvetica,sans-Serif" font-size="10.00">+ setEventTime()</text>
<text text-anchor="start" x="194" y="-311.5" font-family="Helvetica,sans-Serif" font-size="10.00">+ getEventTime()</text>
<text text-anchor="start" x="194" y="-300.5" font-family="Helvetica,sans-Serif" font-size="10.00">+ getEndTimeOfROFMax()</text>
<text text-anchor="start" x="194" y="-289.5" font-family="Helvetica,sans-Serif" font-size="10.00">+ setContinuous()</text>
<text text-anchor="start" x="194" y="-278.5" font-family="Helvetica,sans-Serif" font-size="10.00">+ isContinuous()</text>
<text text-anchor="start" x="194" y="-267.5" font-family="Helvetica,sans-Serif" font-size="10.00">+ fillOutputContainer()</text>
<text text-anchor="start" x="194" y="-256.5" font-family="Helvetica,sans-Serif" font-size="10.00">+ setDigiParams()</text>
<text text-anchor="start" x="194" y="-245.5" font-family="Helvetica,sans-Serif" font-size="10.00">+ getDigitParams()</text>
<text text-anchor="start" x="194" y="-234.5" font-family="Helvetica,sans-Serif" font-size="10.00">+ setGeometry()</text>
<text text-anchor="start" x="194" y="-223.5" font-family="Helvetica,sans-Serif" font-size="10.00">+ getEventROFrameMin()</text>
<text text-anchor="start" x="194" y="-212.5" font-family="Helvetica,sans-Serif" font-size="10.00">+ getEventROFrameMax()</text>
<text text-anchor="start" x="194" y="-201.5" font-family="Helvetica,sans-Serif" font-size="10.00">+ resetEventROFrames()</text>
</a>
</g>
</g>
<!-- Node4&#45;&gt;Node1 -->
<g id="edge3" class="edge"><title>Node4&#45;&gt;Node1</title>
<path fill="none" stroke="#404040" d="M320.369,-195.087C334.292,-178.329 350.73,-163.782 370,-154 438.195,-119.382 642.556,-92.962 769.737,-79.3174"/>
<polygon fill="none" stroke="#404040" points="769.864,-79.304 775.408,-74.6929 781.797,-78.037 776.253,-82.6481 769.864,-79.304"/>
<text text-anchor="middle" x="396.5" y="-162.5" font-family="Helvetica,sans-Serif" font-size="10.00"> #mDigitizer</text>
</g>
<!-- Node5 -->
<g id="node5" class="node"><title>Node5</title>
<g id="a_node5"><a xlink:href="../../d5/d0f/classTObject.html" target="_top" xlink:title="{TObject\n||}">
<polygon fill="none" stroke="black" points="227.5,-746.5 227.5,-803.5 278.5,-803.5 278.5,-746.5 227.5,-746.5"/>
<text text-anchor="middle" x="253" y="-791.5" font-family="Helvetica,sans-Serif" font-size="10.00">TObject</text>
<polyline fill="none" stroke="black" points="227.5,-784.5 278.5,-784.5 "/>
<text text-anchor="middle" x="253" y="-772.5" font-family="Helvetica,sans-Serif" font-size="10.00"> </text>
<polyline fill="none" stroke="black" points="227.5,-765.5 278.5,-765.5 "/>
<text text-anchor="middle" x="253" y="-753.5" font-family="Helvetica,sans-Serif" font-size="10.00"> </text>
</a>
</g>
</g>
<!-- Node5&#45;&gt;Node4 -->
<g id="edge4" class="edge"><title>Node5&#45;&gt;Node4</title>
<path fill="none" stroke="midnightblue" d="M253,-736.034C253,-681.992 253,-579.856 253,-493.52"/>
<polygon fill="none" stroke="midnightblue" points="249.5,-736.183 253,-746.183 256.5,-736.183 249.5,-736.183"/>
</g>
<!-- Node6 -->
<g id="node6" class="node"><title>Node6</title>
<polygon fill="none" stroke="#bfbfbf" points="338,-315.5 338,-372.5 394,-372.5 394,-315.5 338,-315.5"/>
<text text-anchor="middle" x="366" y="-360.5" font-family="Helvetica,sans-Serif" font-size="10.00">ROMode</text>
<polyline fill="none" stroke="#bfbfbf" points="338,-353.5 394,-353.5 "/>
<text text-anchor="middle" x="366" y="-341.5" font-family="Helvetica,sans-Serif" font-size="10.00"> </text>
<polyline fill="none" stroke="#bfbfbf" points="338,-334.5 394,-334.5 "/>
<text text-anchor="middle" x="366" y="-322.5" font-family="Helvetica,sans-Serif" font-size="10.00"> </text>
</g>
<!-- Node6&#45;&gt;Node1 -->
<g id="edge5" class="edge"><title>Node6&#45;&gt;Node1</title>
<path fill="none" stroke="#404040" d="M365.184,-315.298C365.746,-282.163 371.799,-227.041 403,-194 452.734,-141.332 646.178,-103.356 769.748,-83.8747"/>
<polygon fill="none" stroke="#404040" points="769.995,-83.8363 775.308,-78.9609 781.852,-81.9902 776.539,-86.8656 769.995,-83.8363"/>
<text text-anchor="middle" x="499" y="-162.5" font-family="Helvetica,sans-Serif" font-size="10.00"> #mROMode</text>
</g>
<!-- Node7 -->
<g id="node7" class="node"><title>Node7</title>
<polygon fill="none" stroke="#bfbfbf" points="412,-310 412,-378 554,-378 554,-310 412,-310"/>
<text text-anchor="start" x="420" y="-366" font-family="Helvetica,sans-Serif" font-size="10.00">Descriptor&lt; gSizeDataOrigin</text>
<text text-anchor="middle" x="483" y="-355" font-family="Helvetica,sans-Serif" font-size="10.00">String, printDataOrigin &gt;</text>
<polyline fill="none" stroke="#bfbfbf" points="412,-348 554,-348 "/>
<text text-anchor="middle" x="483" y="-336" font-family="Helvetica,sans-Serif" font-size="10.00"> </text>
<polyline fill="none" stroke="#bfbfbf" points="412,-329 554,-329 "/>
<text text-anchor="middle" x="483" y="-317" font-family="Helvetica,sans-Serif" font-size="10.00"> </text>
</g>
<!-- Node7&#45;&gt;Node1 -->
<g id="edge6" class="edge"><title>Node7&#45;&gt;Node1</title>
<path fill="none" stroke="#404040" d="M493.43,-309.816C505.409,-276.545 528.037,-225.814 563,-194 621.076,-141.154 704.271,-109.363 770.293,-91.0754"/>
<polygon fill="none" stroke="#404040" points="770.403,-91.0459 775.156,-85.6233 781.99,-87.9257 777.236,-93.3482 770.403,-91.0459"/>
<text text-anchor="middle" x="636.5" y="-162.5" font-family="Helvetica,sans-Serif" font-size="10.00"> #mOrigin</text>
</g>
<!-- Node8 -->
<g id="node8" class="node"><title>Node8</title>
<polygon fill="none" stroke="#bfbfbf" points="572.5,-310 572.5,-378 715.5,-378 715.5,-310 572.5,-310"/>
<text text-anchor="start" x="580.5" y="-366" font-family="Helvetica,sans-Serif" font-size="10.00">vector&lt; o2::ITSMFT</text>
<text text-anchor="middle" x="644" y="-355" font-family="Helvetica,sans-Serif" font-size="10.00">::o2::ITSMFT::ROFRecord &gt;</text>
<polyline fill="none" stroke="#bfbfbf" points="572.5,-348 715.5,-348 "/>
<text text-anchor="middle" x="644" y="-336" font-family="Helvetica,sans-Serif" font-size="10.00"> </text>
<polyline fill="none" stroke="#bfbfbf" points="572.5,-329 715.5,-329 "/>
<text text-anchor="middle" x="644" y="-317" font-family="Helvetica,sans-Serif" font-size="10.00"> </text>
</g>
<!-- Node8&#45;&gt;Node1 -->
<g id="edge7" class="edge"><title>Node8&#45;&gt;Node1</title>
<path fill="none" stroke="#404040" d="M650.414,-309.644C659.751,-268.767 680.567,-199.36 721,-154 735.064,-138.223 752.778,-124.783 771.16,-113.564"/>
<polygon fill="none" stroke="#404040" points="771.369,-113.442 774.531,-106.962 781.729,-107.388 778.567,-113.869 771.369,-113.442"/>
<text text-anchor="middle" x="772.5" y="-168" font-family="Helvetica,sans-Serif" font-size="10.00"> #mROFRecords</text>
<text text-anchor="middle" x="772.5" y="-157" font-family="Helvetica,sans-Serif" font-size="10.00">#mROFRecordsAccum</text>
</g>
<!-- Node9 -->
<g id="node9" class="node"><title>Node9</title>
<g id="a_node9"><a xlink:href="../../d6/dd5/classo2_1_1detectors_1_1DetID.html" target="_top" xlink:title="Static class with identifiers, bitmasks and names for ALICE detectors. ">
<polygon fill="none" stroke="black" points="734,-227.5 734,-460.5 840,-460.5 840,-227.5 734,-227.5"/>
<text text-anchor="middle" x="787" y="-448.5" font-family="Helvetica,sans-Serif" font-size="10.00">o2::detectors::DetID</text>
<polyline fill="none" stroke="black" points="734,-441.5 840,-441.5 "/>
<text text-anchor="start" x="742" y="-429.5" font-family="Helvetica,sans-Serif" font-size="10.00">+ TOF</text>
<text text-anchor="start" x="742" y="-418.5" font-family="Helvetica,sans-Serif" font-size="10.00">+ PHS</text>
<text text-anchor="start" x="742" y="-407.5" font-family="Helvetica,sans-Serif" font-size="10.00">+ EMC</text>
<text text-anchor="start" x="742" y="-396.5" font-family="Helvetica,sans-Serif" font-size="10.00">+ HMP</text>
<text text-anchor="start" x="742" y="-385.5" font-family="Helvetica,sans-Serif" font-size="10.00">+ MFT</text>
<text text-anchor="start" x="742" y="-374.5" font-family="Helvetica,sans-Serif" font-size="10.00">+ Last</text>
<polyline fill="none" stroke="black" points="734,-367.5 840,-367.5 "/>
<text text-anchor="start" x="742" y="-355.5" font-family="Helvetica,sans-Serif" font-size="10.00">+ DetID()</text>
<text text-anchor="start" x="742" y="-344.5" font-family="Helvetica,sans-Serif" font-size="10.00">+ DetID()</text>
<text text-anchor="start" x="742" y="-333.5" font-family="Helvetica,sans-Serif" font-size="10.00">+ DetID()</text>
<text text-anchor="start" x="742" y="-322.5" font-family="Helvetica,sans-Serif" font-size="10.00">+ operator=()</text>
<text text-anchor="start" x="742" y="-311.5" font-family="Helvetica,sans-Serif" font-size="10.00">+ getID()</text>
<text text-anchor="start" x="742" y="-300.5" font-family="Helvetica,sans-Serif" font-size="10.00">+ getMask()</text>
<text text-anchor="start" x="742" y="-289.5" font-family="Helvetica,sans-Serif" font-size="10.00">+ getName()</text>
<text text-anchor="start" x="742" y="-278.5" font-family="Helvetica,sans-Serif" font-size="10.00">+ operator int()</text>
<text text-anchor="start" x="742" y="-267.5" font-family="Helvetica,sans-Serif" font-size="10.00">+ DetID()</text>
<text text-anchor="start" x="742" y="-256.5" font-family="Helvetica,sans-Serif" font-size="10.00">+ getNDetectors()</text>
<text text-anchor="start" x="742" y="-245.5" font-family="Helvetica,sans-Serif" font-size="10.00">+ getName()</text>
<text text-anchor="start" x="742" y="-234.5" font-family="Helvetica,sans-Serif" font-size="10.00">+ getMask()</text>
</a>
</g>
</g>
<!-- Node9&#45;&gt;Node1 -->
<g id="edge8" class="edge"><title>Node9&#45;&gt;Node1</title>
<path fill="none" stroke="#404040" d="M811.562,-227.368C817.931,-202.848 825.447,-177.334 834,-154 834.921,-151.489 835.893,-148.954 836.908,-146.408"/>
<polygon fill="none" stroke="#404040" points="836.958,-146.288 835.587,-139.209 841.595,-135.22 842.966,-142.3 836.958,-146.288"/>
<text text-anchor="middle" x="848" y="-162.5" font-family="Helvetica,sans-Serif" font-size="10.00"> #mID</text>
</g>
<!-- Node10 -->
<g id="node10" class="node"><title>Node10</title>
<polygon fill="none" stroke="#bfbfbf" points="699,-746.5 699,-803.5 799,-803.5 799,-746.5 699,-746.5"/>
<text text-anchor="middle" x="749" y="-791.5" font-family="Helvetica,sans-Serif" font-size="10.00">static constexpr ID</text>
<polyline fill="none" stroke="#bfbfbf" points="699,-784.5 799,-784.5 "/>
<text text-anchor="middle" x="749" y="-772.5" font-family="Helvetica,sans-Serif" font-size="10.00"> </text>
<polyline fill="none" stroke="#bfbfbf" points="699,-765.5 799,-765.5 "/>
<text text-anchor="middle" x="749" y="-753.5" font-family="Helvetica,sans-Serif" font-size="10.00"> </text>
</g>
<!-- Node10&#45;&gt;Node9 -->
<g id="edge9" class="edge"><title>Node10&#45;&gt;Node9</title>
<path fill="none" stroke="#404040" d="M747.17,-746.353C744.432,-698.449 740.534,-596.989 750,-512 751.422,-499.233 753.42,-486.012 755.758,-472.856"/>
<polygon fill="none" stroke="#404040" points="755.805,-472.605 752.967,-465.975 757.995,-460.806 760.833,-467.436 755.805,-472.605"/>
<text text-anchor="middle" x="765.5" y="-625.5" font-family="Helvetica,sans-Serif" font-size="10.00"> +ACO</text>
<text text-anchor="middle" x="765.5" y="-614.5" font-family="Helvetica,sans-Serif" font-size="10.00">+First</text>
<text text-anchor="middle" x="765.5" y="-603.5" font-family="Helvetica,sans-Serif" font-size="10.00">+FIT</text>
<text text-anchor="middle" x="765.5" y="-592.5" font-family="Helvetica,sans-Serif" font-size="10.00">+MCH</text>
<text text-anchor="middle" x="765.5" y="-581.5" font-family="Helvetica,sans-Serif" font-size="10.00">+TRD</text>
<text text-anchor="middle" x="765.5" y="-570.5" font-family="Helvetica,sans-Serif" font-size="10.00">+TPC</text>
<text text-anchor="middle" x="765.5" y="-559.5" font-family="Helvetica,sans-Serif" font-size="10.00">+ZDC</text>
<text text-anchor="middle" x="765.5" y="-548.5" font-family="Helvetica,sans-Serif" font-size="10.00">+MID</text>
<text text-anchor="middle" x="765.5" y="-537.5" font-family="Helvetica,sans-Serif" font-size="10.00">+ITS</text>
<text text-anchor="middle" x="765.5" y="-526.5" font-family="Helvetica,sans-Serif" font-size="10.00">+CPV</text>
<text text-anchor="middle" x="765.5" y="-515.5" font-family="Helvetica,sans-Serif" font-size="10.00">...</text>
</g>
<!-- Node11 -->
<g id="node11" class="node"><title>Node11</title>
<g id="a_node11"><a xlink:href="../../d1/da0/classint.html" target="_top" xlink:title="{int\n||}">
<polygon fill="none" stroke="black" points="839.5,-746.5 839.5,-803.5 868.5,-803.5 868.5,-746.5 839.5,-746.5"/>
<text text-anchor="middle" x="854" y="-791.5" font-family="Helvetica,sans-Serif" font-size="10.00">int</text>
<polyline fill="none" stroke="black" points="839.5,-784.5 868.5,-784.5 "/>
<text text-anchor="middle" x="854" y="-772.5" font-family="Helvetica,sans-Serif" font-size="10.00"> </text>
<polyline fill="none" stroke="black" points="839.5,-765.5 868.5,-765.5 "/>
<text text-anchor="middle" x="854" y="-753.5" font-family="Helvetica,sans-Serif" font-size="10.00"> </text>
</a>
</g>
</g>
<!-- Node11&#45;&gt;Node1 -->
<g id="edge13" class="edge"><title>Node11&#45;&gt;Node1</title>
<path fill="none" stroke="#404040" d="M855.842,-746.387C857.663,-718.158 860.401,-673.041 862,-634 869.113,-460.304 873.086,-256.411 874.858,-147.314"/>
<polygon fill="none" stroke="#404040" points="874.861,-147.129 870.958,-141.065 875.054,-135.13 878.957,-141.194 874.861,-147.129"/>
<text text-anchor="middle" x="914" y="-352.5" font-family="Helvetica,sans-Serif" font-size="10.00"> #QEDSourceID</text>
<text text-anchor="middle" x="914" y="-341.5" font-family="Helvetica,sans-Serif" font-size="10.00">#mLastQEDEntry</text>
<text text-anchor="middle" x="914" y="-330.5" font-family="Helvetica,sans-Serif" font-size="10.00">#mFixMC2ROF</text>
</g>
<!-- Node11&#45;&gt;Node9 -->
<g id="edge10" class="edge"><title>Node11&#45;&gt;Node9</title>
<path fill="none" stroke="#404040" d="M841.431,-746.252C829.493,-718.479 812.188,-674.211 804,-634 793.369,-581.794 788.627,-523.272 786.72,-472.615"/>
<polygon fill="none" stroke="#404040" points="786.719,-472.584 782.519,-466.722 786.315,-460.591 790.515,-466.453 786.719,-472.584"/>
<text text-anchor="middle" x="833" y="-570.5" font-family="Helvetica,sans-Serif" font-size="10.00"> +nDetectors</text>
</g>
<!-- Node12 -->
<g id="node12" class="node"><title>Node12</title>
<polygon fill="none" stroke="#bfbfbf" points="972,-315.5 972,-372.5 1072,-372.5 1072,-315.5 972,-315.5"/>
<text text-anchor="middle" x="1022" y="-360.5" font-family="Helvetica,sans-Serif" font-size="10.00">vector&lt; TChain * &gt;</text>
<polyline fill="none" stroke="#bfbfbf" points="972,-353.5 1072,-353.5 "/>
<text text-anchor="middle" x="1022" y="-341.5" font-family="Helvetica,sans-Serif" font-size="10.00"> </text>
<polyline fill="none" stroke="#bfbfbf" points="972,-334.5 1072,-334.5 "/>
<text text-anchor="middle" x="1022" y="-322.5" font-family="Helvetica,sans-Serif" font-size="10.00"> </text>
</g>
<!-- Node12&#45;&gt;Node1 -->
<g id="edge11" class="edge"><title>Node12&#45;&gt;Node1</title>
<path fill="none" stroke="#404040" d="M1011.82,-315.414C1000.22,-284.988 979.991,-234.918 958,-194 949.332,-177.872 939.214,-161.14 929.104,-145.362"/>
<polygon fill="none" stroke="#404040" points="929.008,-145.214 922.387,-142.358 922.477,-135.147 929.098,-138.004 929.008,-145.214"/>
<text text-anchor="middle" x="978.5" y="-162.5" font-family="Helvetica,sans-Serif" font-size="10.00"> #mSimChains</text>
</g>
<!-- Node13 -->
<g id="node13" class="node"><title>Node13</title>
<polygon fill="none" stroke="#bfbfbf" points="1090,-310 1090,-378 1200,-378 1200,-310 1090,-310"/>
<text text-anchor="start" x="1098" y="-366" font-family="Helvetica,sans-Serif" font-size="10.00">vector&lt; o2::ITSMFT</text>
<text text-anchor="middle" x="1145" y="-355" font-family="Helvetica,sans-Serif" font-size="10.00">::o2::ITSMFT::Digit &gt;</text>
<polyline fill="none" stroke="#bfbfbf" points="1090,-348 1200,-348 "/>
<text text-anchor="middle" x="1145" y="-336" font-family="Helvetica,sans-Serif" font-size="10.00"> </text>
<polyline fill="none" stroke="#bfbfbf" points="1090,-329 1200,-329 "/>
<text text-anchor="middle" x="1145" y="-317" font-family="Helvetica,sans-Serif" font-size="10.00"> </text>
</g>
<!-- Node13&#45;&gt;Node1 -->
<g id="edge12" class="edge"><title>Node13&#45;&gt;Node1</title>
<path fill="none" stroke="#404040" d="M1137.12,-309.906C1128.03,-277.415 1110.42,-227.923 1081,-194 1053.65,-162.465 1016.33,-136.475 981.021,-116.516"/>
<polygon fill="none" stroke="#404040" points="980.65,-116.311 973.464,-116.916 970.142,-110.516 977.328,-109.911 980.65,-116.311"/>
<text text-anchor="middle" x="1100.5" y="-168" font-family="Helvetica,sans-Serif" font-size="10.00"> #mDigitsAccum</text>
<text text-anchor="middle" x="1100.5" y="-157" font-family="Helvetica,sans-Serif" font-size="10.00">#mDigits</text>
</g>
<!-- Node14 -->
<g id="node14" class="node"><title>Node14</title>
<polygon fill="none" stroke="#bfbfbf" points="1218,-310 1218,-378 1328,-378 1328,-310 1218,-310"/>
<text text-anchor="start" x="1226" y="-366" font-family="Helvetica,sans-Serif" font-size="10.00">vector&lt; o2::ITSMFT</text>
<text text-anchor="middle" x="1273" y="-355" font-family="Helvetica,sans-Serif" font-size="10.00">::o2::ITSMFT::Hit &gt; *</text>
<polyline fill="none" stroke="#bfbfbf" points="1218,-348 1328,-348 "/>
<text text-anchor="middle" x="1273" y="-336" font-family="Helvetica,sans-Serif" font-size="10.00"> </text>
<polyline fill="none" stroke="#bfbfbf" points="1218,-329 1328,-329 "/>
<text text-anchor="middle" x="1273" y="-317" font-family="Helvetica,sans-Serif" font-size="10.00"> </text>
</g>
<!-- Node14&#45;&gt;Node1 -->
<g id="edge14" class="edge"><title>Node14&#45;&gt;Node1</title>
<path fill="none" stroke="#404040" d="M1265.23,-309.807C1256.23,-277.238 1238.69,-227.689 1209,-194 1151.37,-128.612 1056.07,-97.3289 982.146,-82.4205"/>
<polygon fill="none" stroke="#404040" points="981.793,-82.3524 975.144,-85.1437 970.01,-80.0798 976.659,-77.2885 981.793,-82.3524"/>
<text text-anchor="middle" x="1210" y="-162.5" font-family="Helvetica,sans-Serif" font-size="10.00"> #mHitsP</text>
</g>
<!-- Node15 -->
<g id="node15" class="node"><title>Node15</title>
<polygon fill="none" stroke="#bfbfbf" points="1346.5,-315.5 1346.5,-372.5 1381.5,-372.5 1381.5,-315.5 1346.5,-315.5"/>
<text text-anchor="middle" x="1364" y="-360.5" font-family="Helvetica,sans-Serif" font-size="10.00">bool</text>
<polyline fill="none" stroke="#bfbfbf" points="1346.5,-353.5 1381.5,-353.5 "/>
<text text-anchor="middle" x="1364" y="-341.5" font-family="Helvetica,sans-Serif" font-size="10.00"> </text>
<polyline fill="none" stroke="#bfbfbf" points="1346.5,-334.5 1381.5,-334.5 "/>
<text text-anchor="middle" x="1364" y="-322.5" font-family="Helvetica,sans-Serif" font-size="10.00"> </text>
</g>
<!-- Node15&#45;&gt;Node1 -->
<g id="edge15" class="edge"><title>Node15&#45;&gt;Node1</title>
<path fill="none" stroke="#404040" d="M1366.53,-315.251C1367.96,-282.58 1365.3,-228.419 1337,-194 1292.24,-139.567 1103.71,-102.313 982.041,-83.4211"/>
<polygon fill="none" stroke="#404040" points="981.978,-83.4116 975.442,-86.4572 970.116,-81.595 976.653,-78.5494 981.978,-83.4116"/>
<text text-anchor="middle" x="1342" y="-162.5" font-family="Helvetica,sans-Serif" font-size="10.00"> #mFinished</text>
</g>
<!-- Node16 -->
<g id="node16" class="node"><title>Node16</title>
<polygon fill="none" stroke="#bfbfbf" points="1400,-310 1400,-378 1564,-378 1564,-310 1400,-310"/>
<text text-anchor="start" x="1408" y="-366" font-family="Helvetica,sans-Serif" font-size="10.00">vector&lt; o2::ITSMFT</text>
<text text-anchor="middle" x="1482" y="-355" font-family="Helvetica,sans-Serif" font-size="10.00">::o2::ITSMFT::MC2ROFRecord &gt;</text>
<polyline fill="none" stroke="#bfbfbf" points="1400,-348 1564,-348 "/>
<text text-anchor="middle" x="1482" y="-336" font-family="Helvetica,sans-Serif" font-size="10.00"> </text>
<polyline fill="none" stroke="#bfbfbf" points="1400,-329 1564,-329 "/>
<text text-anchor="middle" x="1482" y="-317" font-family="Helvetica,sans-Serif" font-size="10.00"> </text>
</g>
<!-- Node16&#45;&gt;Node1 -->
<g id="edge16" class="edge"><title>Node16&#45;&gt;Node1</title>
<path fill="none" stroke="#404040" d="M1472.62,-309.961C1458.53,-266.725 1427.54,-192.002 1373,-154 1311.34,-111.036 1108.79,-87.4666 982.102,-76.6033"/>
<polygon fill="none" stroke="#404040" points="982.044,-76.5985 975.729,-80.0809 970.086,-75.5915 976.4,-72.1091 982.044,-76.5985"/>
<text text-anchor="middle" x="1459.5" y="-162.5" font-family="Helvetica,sans-Serif" font-size="10.00"> #mMC2ROFRecordsAccum</text>
</g>
<!-- Node17 -->
<g id="node17" class="node"><title>Node17</title>
<polygon fill="none" stroke="#bfbfbf" points="1582,-315.5 1582,-372.5 1630,-372.5 1630,-315.5 1582,-315.5"/>
<text text-anchor="middle" x="1606" y="-360.5" font-family="Helvetica,sans-Serif" font-size="10.00">TChain</text>
<polyline fill="none" stroke="#bfbfbf" points="1582,-353.5 1630,-353.5 "/>
<text text-anchor="middle" x="1606" y="-341.5" font-family="Helvetica,sans-Serif" font-size="10.00"> </text>
<polyline fill="none" stroke="#bfbfbf" points="1582,-334.5 1630,-334.5 "/>
<text text-anchor="middle" x="1606" y="-322.5" font-family="Helvetica,sans-Serif" font-size="10.00"> </text>
</g>
<!-- Node17&#45;&gt;Node1 -->
<g id="edge17" class="edge"><title>Node17&#45;&gt;Node1</title>
<path fill="none" stroke="#404040" d="M1605.01,-315.285C1602.77,-283.85 1595.62,-232.03 1573,-194 1559.15,-170.714 1551.71,-165.116 1527,-154 1432.09,-111.298 1141.32,-86.2652 982.413,-75.4226"/>
<polygon fill="none" stroke="#404040" points="982.24,-75.4111 975.985,-78.9985 970.268,-74.604 976.523,-71.0166 982.24,-75.4111"/>
<text text-anchor="middle" x="1593" y="-162.5" font-family="Helvetica,sans-Serif" font-size="10.00"> #mQEDChain</text>
</g>
<!-- Node18 -->
<g id="node18" class="node"><title>Node18</title>
<g id="a_node18"><a xlink:href="../../dc/daa/classo2_1_1dataformats_1_1MCTruthContainer.html" target="_top" xlink:title="{o2::dataformats::MCTruth\lContainer\&lt; o2::o2::MCCompLabel \&gt;\n||+ MCTruthContainer()\l+ MCTruthContainer()\l+ ~MCTruthContainer()\l+ operator=()\l+ getMCTruthHeader()\l+ getElement()\l+ getIndexedSize()\l+ getNElements()\l+ getLabels()\l+ getLabels()\l+ clear()\l+ addElement()\l+ addElements()\l+ addElements()\l+ addElementRandomAccess()\l+ mergeAtBack()\l+ ClassDefNV()\l}">
<polygon fill="none" stroke="black" points="1648.5,-222 1648.5,-466 1823.5,-466 1823.5,-222 1648.5,-222"/>
<text text-anchor="start" x="1656.5" y="-454" font-family="Helvetica,sans-Serif" font-size="10.00">o2::dataformats::MCTruth</text>
<text text-anchor="middle" x="1736" y="-443" font-family="Helvetica,sans-Serif" font-size="10.00">Container&lt; o2::o2::MCCompLabel &gt;</text>
<polyline fill="none" stroke="black" points="1648.5,-436 1823.5,-436 "/>
<text text-anchor="middle" x="1736" y="-424" font-family="Helvetica,sans-Serif" font-size="10.00"> </text>
<polyline fill="none" stroke="black" points="1648.5,-417 1823.5,-417 "/>
<text text-anchor="start" x="1656.5" y="-405" font-family="Helvetica,sans-Serif" font-size="10.00">+ MCTruthContainer()</text>
<text text-anchor="start" x="1656.5" y="-394" font-family="Helvetica,sans-Serif" font-size="10.00">+ MCTruthContainer()</text>
<text text-anchor="start" x="1656.5" y="-383" font-family="Helvetica,sans-Serif" font-size="10.00">+ ~MCTruthContainer()</text>
<text text-anchor="start" x="1656.5" y="-372" font-family="Helvetica,sans-Serif" font-size="10.00">+ operator=()</text>
<text text-anchor="start" x="1656.5" y="-361" font-family="Helvetica,sans-Serif" font-size="10.00">+ getMCTruthHeader()</text>
<text text-anchor="start" x="1656.5" y="-350" font-family="Helvetica,sans-Serif" font-size="10.00">+ getElement()</text>
<text text-anchor="start" x="1656.5" y="-339" font-family="Helvetica,sans-Serif" font-size="10.00">+ getIndexedSize()</text>
<text text-anchor="start" x="1656.5" y="-328" font-family="Helvetica,sans-Serif" font-size="10.00">+ getNElements()</text>
<text text-anchor="start" x="1656.5" y="-317" font-family="Helvetica,sans-Serif" font-size="10.00">+ getLabels()</text>
<text text-anchor="start" x="1656.5" y="-306" font-family="Helvetica,sans-Serif" font-size="10.00">+ getLabels()</text>
<text text-anchor="start" x="1656.5" y="-295" font-family="Helvetica,sans-Serif" font-size="10.00">+ clear()</text>
<text text-anchor="start" x="1656.5" y="-284" font-family="Helvetica,sans-Serif" font-size="10.00">+ addElement()</text>
<text text-anchor="start" x="1656.5" y="-273" font-family="Helvetica,sans-Serif" font-size="10.00">+ addElements()</text>
<text text-anchor="start" x="1656.5" y="-262" font-family="Helvetica,sans-Serif" font-size="10.00">+ addElements()</text>
<text text-anchor="start" x="1656.5" y="-251" font-family="Helvetica,sans-Serif" font-size="10.00">+ addElementRandomAccess()</text>
<text text-anchor="start" x="1656.5" y="-240" font-family="Helvetica,sans-Serif" font-size="10.00">+ mergeAtBack()</text>
<text text-anchor="start" x="1656.5" y="-229" font-family="Helvetica,sans-Serif" font-size="10.00">+ ClassDefNV()</text>
</a>
</g>
</g>
<!-- Node18&#45;&gt;Node1 -->
<g id="edge18" class="edge"><title>Node18&#45;&gt;Node1</title>
<path fill="none" stroke="#404040" d="M1689.79,-221.909C1674.3,-195.636 1654.32,-170.736 1629,-154 1525.27,-85.438 1164.16,-71.7835 982.332,-69.3314"/>
<polygon fill="none" stroke="#404040" points="982.087,-69.3285 976.038,-73.2537 970.088,-69.1796 976.137,-65.2543 982.087,-69.3285"/>
<text text-anchor="middle" x="1688.5" y="-168" font-family="Helvetica,sans-Serif" font-size="10.00"> #mLabels</text>
<text text-anchor="middle" x="1688.5" y="-157" font-family="Helvetica,sans-Serif" font-size="10.00">#mLabelsAccum</text>
</g>
<!-- Node19 -->
<g id="node19" class="node"><title>Node19</title>
<g id="a_node19"><a xlink:href="../../dc/daa/classo2_1_1dataformats_1_1MCTruthContainer.html" target="_top" xlink:title="{o2::dataformats::MCTruth\lContainer\&lt; T \&gt;\n||+ MCTruthContainer()\l+ ~MCTruthContainer()\l+ MCTruthContainer()\l+ operator=()\l+ getMCTruthHeader()\l+ getElement()\l+ getIndexedSize()\l+ getNElements()\l+ getLabels()\l+ getLabels()\l+ clear()\l+ addElement()\l+ addElements()\l+ addElements()\l+ addElementRandomAccess()\l+ mergeAtBack()\l+ ClassDefNV()\l}">
<polygon fill="none" stroke="black" points="1659.5,-653 1659.5,-897 1812.5,-897 1812.5,-653 1659.5,-653"/>
<text text-anchor="start" x="1667.5" y="-885" font-family="Helvetica,sans-Serif" font-size="10.00">o2::dataformats::MCTruth</text>
<text text-anchor="middle" x="1736" y="-874" font-family="Helvetica,sans-Serif" font-size="10.00">Container&lt; T &gt;</text>
<polyline fill="none" stroke="black" points="1659.5,-867 1812.5,-867 "/>
<text text-anchor="middle" x="1736" y="-855" font-family="Helvetica,sans-Serif" font-size="10.00"> </text>
<polyline fill="none" stroke="black" points="1659.5,-848 1812.5,-848 "/>
<text text-anchor="start" x="1667.5" y="-836" font-family="Helvetica,sans-Serif" font-size="10.00">+ MCTruthContainer()</text>
<text text-anchor="start" x="1667.5" y="-825" font-family="Helvetica,sans-Serif" font-size="10.00">+ ~MCTruthContainer()</text>
<text text-anchor="start" x="1667.5" y="-814" font-family="Helvetica,sans-Serif" font-size="10.00">+ MCTruthContainer()</text>
<text text-anchor="start" x="1667.5" y="-803" font-family="Helvetica,sans-Serif" font-size="10.00">+ operator=()</text>
<text text-anchor="start" x="1667.5" y="-792" font-family="Helvetica,sans-Serif" font-size="10.00">+ getMCTruthHeader()</text>
<text text-anchor="start" x="1667.5" y="-781" font-family="Helvetica,sans-Serif" font-size="10.00">+ getElement()</text>
<text text-anchor="start" x="1667.5" y="-770" font-family="Helvetica,sans-Serif" font-size="10.00">+ getIndexedSize()</text>
<text text-anchor="start" x="1667.5" y="-759" font-family="Helvetica,sans-Serif" font-size="10.00">+ getNElements()</text>
<text text-anchor="start" x="1667.5" y="-748" font-family="Helvetica,sans-Serif" font-size="10.00">+ getLabels()</text>
<text text-anchor="start" x="1667.5" y="-737" font-family="Helvetica,sans-Serif" font-size="10.00">+ getLabels()</text>
<text text-anchor="start" x="1667.5" y="-726" font-family="Helvetica,sans-Serif" font-size="10.00">+ clear()</text>
<text text-anchor="start" x="1667.5" y="-715" font-family="Helvetica,sans-Serif" font-size="10.00">+ addElement()</text>
<text text-anchor="start" x="1667.5" y="-704" font-family="Helvetica,sans-Serif" font-size="10.00">+ addElements()</text>
<text text-anchor="start" x="1667.5" y="-693" font-family="Helvetica,sans-Serif" font-size="10.00">+ addElements()</text>
<text text-anchor="start" x="1667.5" y="-682" font-family="Helvetica,sans-Serif" font-size="10.00">+ addElementRandomAccess()</text>
<text text-anchor="start" x="1667.5" y="-671" font-family="Helvetica,sans-Serif" font-size="10.00">+ mergeAtBack()</text>
<text text-anchor="start" x="1667.5" y="-660" font-family="Helvetica,sans-Serif" font-size="10.00">+ ClassDefNV()</text>
</a>
</g>
</g>
<!-- Node19&#45;&gt;Node18 -->
<g id="edge19" class="edge"><title>Node19&#45;&gt;Node18</title>
<path fill="none" stroke="orange" d="M1736,-642.765C1736,-586.566 1736,-521.341 1736,-466.286"/>
<polygon fill="orange" stroke="orange" points="1732.5,-642.786 1736,-652.786 1739.5,-642.786 1732.5,-642.786"/>
<text text-anchor="middle" x="1796" y="-570.5" font-family="Helvetica,sans-Serif" font-size="10.00"> &lt; o2::o2::MCCompLabel &gt;</text>
</g>
</g>
</svg>
