<?xml version="1.0" encoding="UTF-8" standalone="no"?>
<!DOCTYPE svg PUBLIC "-//W3C//DTD SVG 1.1//EN"
 "http://www.w3.org/Graphics/SVG/1.1/DTD/svg11.dtd">
<!-- Generated by graphviz version 2.36.0 (20140111.2315)
 -->
<!-- Title: /home/travis/build/AliceO2Group/AliceO2/Detectors/ITSMFT/test/HitAnalysis/include/HitAnalysis/HitAnalysis.h Pages: 1 -->
<svg width="1666pt" height="388pt"
 viewBox="0.00 0.00 1666.00 388.00" xmlns="http://www.w3.org/2000/svg" xmlns:xlink="http://www.w3.org/1999/xlink">
<g id="graph0" class="graph" transform="scale(1 1) rotate(0) translate(4 384)">
<title>/home/travis/build/AliceO2Group/AliceO2/Detectors/ITSMFT/test/HitAnalysis/include/HitAnalysis/HitAnalysis.h</title>
<!-- Node1 -->
<g id="node1" class="node"><title>Node1</title>
<polygon fill="#bfbfbf" stroke="black" points="475.5,-316.5 475.5,-379.5 632.5,-379.5 632.5,-316.5 475.5,-316.5"/>
<text text-anchor="start" x="483.5" y="-367.5" font-family="Helvetica,sans-Serif" font-size="10.00">/home/travis/build</text>
<text text-anchor="start" x="483.5" y="-356.5" font-family="Helvetica,sans-Serif" font-size="10.00">/AliceO2Group/AliceO2</text>
<text text-anchor="start" x="483.5" y="-345.5" font-family="Helvetica,sans-Serif" font-size="10.00">/Detectors/ITSMFT/test</text>
<text text-anchor="start" x="483.5" y="-334.5" font-family="Helvetica,sans-Serif" font-size="10.00">/HitAnalysis/include/HitAnalysis</text>
<text text-anchor="middle" x="554" y="-323.5" font-family="Helvetica,sans-Serif" font-size="10.00">/HitAnalysis.h</text>
</g>
<!-- Node2 -->
<g id="node2" class="node"><title>Node2</title>
<polygon fill="none" stroke="#bfbfbf" points="409.5,-260.5 409.5,-279.5 444.5,-279.5 444.5,-260.5 409.5,-260.5"/>
<text text-anchor="middle" x="427" y="-267.5" font-family="Helvetica,sans-Serif" font-size="10.00">map</text>
</g>
<!-- Node1&#45;&gt;Node2 -->
<g id="edge1" class="edge"><title>Node1&#45;&gt;Node2</title>
<path fill="none" stroke="midnightblue" d="M502.71,-316.307C484.526,-305.425 464.954,-293.713 450.266,-284.923"/>
<polygon fill="midnightblue" stroke="midnightblue" points="451.76,-281.738 441.382,-279.607 448.166,-287.745 451.76,-281.738"/>
</g>
<!-- Node3 -->
<g id="node3" class="node"><title>Node3</title>
<polygon fill="none" stroke="#bfbfbf" points="462.5,-260.5 462.5,-279.5 525.5,-279.5 525.5,-260.5 462.5,-260.5"/>
<text text-anchor="middle" x="494" y="-267.5" font-family="Helvetica,sans-Serif" font-size="10.00">FairTask.h</text>
</g>
<!-- Node1&#45;&gt;Node3 -->
<g id="edge2" class="edge"><title>Node1&#45;&gt;Node3</title>
<path fill="none" stroke="midnightblue" d="M529.596,-316.088C521.89,-306.328 513.674,-295.921 507.079,-287.567"/>
<polygon fill="midnightblue" stroke="midnightblue" points="509.826,-285.398 500.883,-279.718 504.332,-289.736 509.826,-285.398"/>
</g>
<!-- Node4 -->
<g id="node4" class="node"><title>Node4</title>
<polygon fill="none" stroke="#bfbfbf" points="0,-74.5 0,-93.5 56,-93.5 56,-74.5 0,-74.5"/>
<text text-anchor="middle" x="28" y="-81.5" font-family="Helvetica,sans-Serif" font-size="10.00">Rtypes.h</text>
</g>
<!-- Node1&#45;&gt;Node4 -->
<g id="edge3" class="edge"><title>Node1&#45;&gt;Node4</title>
<path fill="none" stroke="midnightblue" d="M554.114,-316.23C552.592,-297.846 547.703,-275.19 534,-260 386.474,-96.4701 271.357,-176.959 65,-100 62.7533,-99.1621 60.4382,-98.2768 58.1141,-97.3721"/>
<polygon fill="midnightblue" stroke="midnightblue" points="59.2483,-94.0566 48.6626,-93.6164 56.6633,-100.562 59.2483,-94.0566"/>
</g>
<!-- Node5 -->
<g id="node5" class="node"><title>Node5</title>
<g id="a_node5"><a xlink:href="../../d0/dae/ITSMFT_2common_2simulation_2include_2ITSMFTSimulation_2Hit_8h.html" target="_top" xlink:title="ITSMFTSimulation/Hit.h">
<polygon fill="none" stroke="black" points="622,-260.5 622,-279.5 744,-279.5 744,-260.5 622,-260.5"/>
<text text-anchor="middle" x="683" y="-267.5" font-family="Helvetica,sans-Serif" font-size="10.00">ITSMFTSimulation/Hit.h</text>
</a>
</g>
</g>
<!-- Node1&#45;&gt;Node5 -->
<g id="edge4" class="edge"><title>Node1&#45;&gt;Node5</title>
<path fill="none" stroke="midnightblue" d="M606.097,-316.307C624.568,-305.425 644.448,-293.713 659.368,-284.923"/>
<polygon fill="midnightblue" stroke="midnightblue" points="661.552,-287.698 668.391,-279.607 657.999,-281.667 661.552,-287.698"/>
</g>
<!-- Node26 -->
<g id="node26" class="node"><title>Node26</title>
<polygon fill="none" stroke="#bfbfbf" points="762,-260.5 762,-279.5 806,-279.5 806,-260.5 762,-260.5"/>
<text text-anchor="middle" x="784" y="-267.5" font-family="Helvetica,sans-Serif" font-size="10.00">vector</text>
</g>
<!-- Node1&#45;&gt;Node26 -->
<g id="edge28" class="edge"><title>Node1&#45;&gt;Node26</title>
<path fill="none" stroke="midnightblue" d="M632.51,-321.058C673.431,-307.536 721.23,-291.742 752.022,-281.567"/>
<polygon fill="midnightblue" stroke="midnightblue" points="753.382,-284.804 761.779,-278.343 751.185,-278.157 753.382,-284.804"/>
</g>
<!-- Node5&#45;&gt;Node4 -->
<g id="edge18" class="edge"><title>Node5&#45;&gt;Node4</title>
<path fill="none" stroke="midnightblue" d="M666.212,-260.46C651.819,-252.51 631.217,-239.564 617,-224 586.808,-190.949 605.758,-160.047 568,-136 473.478,-75.8015 174.156,-125.363 65,-100 61.9259,-99.2857 58.7749,-98.351 55.6716,-97.2969"/>
<polygon fill="midnightblue" stroke="midnightblue" points="56.6644,-93.93 46.0734,-93.6465 54.176,-100.473 56.6644,-93.93"/>
</g>
<!-- Node6 -->
<g id="node6" class="node"><title>Node6</title>
<g id="a_node6"><a xlink:href="../../d4/d25/BaseHits_8h.html" target="_top" xlink:title="SimulationDataFormat\l/BaseHits.h">
<polygon fill="none" stroke="black" points="626,-193 626,-223 740,-223 740,-193 626,-193"/>
<text text-anchor="start" x="634" y="-211" font-family="Helvetica,sans-Serif" font-size="10.00">SimulationDataFormat</text>
<text text-anchor="middle" x="683" y="-200" font-family="Helvetica,sans-Serif" font-size="10.00">/BaseHits.h</text>
</a>
</g>
</g>
<!-- Node5&#45;&gt;Node6 -->
<g id="edge5" class="edge"><title>Node5&#45;&gt;Node6</title>
<path fill="none" stroke="midnightblue" d="M683,-260.403C683,-253.341 683,-242.975 683,-233.399"/>
<polygon fill="midnightblue" stroke="midnightblue" points="686.5,-233.141 683,-223.141 679.5,-233.141 686.5,-233.141"/>
</g>
<!-- Node14 -->
<g id="node14" class="node"><title>Node14</title>
<polygon fill="none" stroke="#bfbfbf" points="1194.5,-74.5 1194.5,-93.5 1239.5,-93.5 1239.5,-74.5 1194.5,-74.5"/>
<text text-anchor="middle" x="1217" y="-81.5" font-family="Helvetica,sans-Serif" font-size="10.00">iosfwd</text>
</g>
<!-- Node5&#45;&gt;Node14 -->
<g id="edge20" class="edge"><title>Node5&#45;&gt;Node14</title>
<path fill="none" stroke="midnightblue" d="M695.731,-260.487C709.081,-251.521 730.632,-236.937 749,-224 768.769,-210.076 771.017,-202.073 793,-192 955.69,-117.454 1015.96,-158.739 1185,-100 1186.91,-99.3354 1188.86,-98.5929 1190.81,-97.8036"/>
<polygon fill="midnightblue" stroke="midnightblue" points="1192.59,-100.844 1200.33,-93.6115 1189.77,-94.4378 1192.59,-100.844"/>
</g>
<!-- Node18 -->
<g id="node18" class="node"><title>Node18</title>
<polygon fill="none" stroke="#bfbfbf" points="802.5,-198.5 802.5,-217.5 867.5,-217.5 867.5,-198.5 802.5,-198.5"/>
<text text-anchor="middle" x="835" y="-205.5" font-family="Helvetica,sans-Serif" font-size="10.00">TVector3.h</text>
</g>
<!-- Node5&#45;&gt;Node18 -->
<g id="edge19" class="edge"><title>Node5&#45;&gt;Node18</title>
<path fill="none" stroke="midnightblue" d="M704.778,-260.403C730.738,-250.156 774.311,-232.956 803.835,-221.302"/>
<polygon fill="midnightblue" stroke="midnightblue" points="805.246,-224.508 813.263,-217.581 802.676,-217.997 805.246,-224.508"/>
</g>
<!-- Node19 -->
<g id="node19" class="node"><title>Node19</title>
<g id="a_node19"><a xlink:href="../../d0/d91/ShmAllocator_8h.html" target="_top" xlink:title="CommonUtils/ShmAllocator.h">
<polygon fill="none" stroke="black" points="1256,-198.5 1256,-217.5 1402,-217.5 1402,-198.5 1256,-198.5"/>
<text text-anchor="middle" x="1329" y="-205.5" font-family="Helvetica,sans-Serif" font-size="10.00">CommonUtils/ShmAllocator.h</text>
</a>
</g>
</g>
<!-- Node5&#45;&gt;Node19 -->
<g id="edge21" class="edge"><title>Node5&#45;&gt;Node19</title>
<path fill="none" stroke="midnightblue" d="M744.067,-261.004C747.086,-260.654 750.076,-260.317 753,-260 927.937,-241.017 1133.34,-224.12 1245.49,-215.352"/>
<polygon fill="midnightblue" stroke="midnightblue" points="1246.02,-218.822 1255.71,-214.555 1245.47,-211.843 1246.02,-218.822"/>
</g>
<!-- Node7 -->
<g id="node7" class="node"><title>Node7</title>
<g id="a_node7"><a xlink:href="../../dd/d76/Cartesian3D_8h.html" target="_top" xlink:title="MathUtils/Cartesian3D.h">
<polygon fill="none" stroke="black" points="620.5,-136.5 620.5,-155.5 745.5,-155.5 745.5,-136.5 620.5,-136.5"/>
<text text-anchor="middle" x="683" y="-143.5" font-family="Helvetica,sans-Serif" font-size="10.00">MathUtils/Cartesian3D.h</text>
</a>
</g>
</g>
<!-- Node6&#45;&gt;Node7 -->
<g id="edge6" class="edge"><title>Node6&#45;&gt;Node7</title>
<path fill="none" stroke="midnightblue" d="M683,-192.781C683,-184.781 683,-174.689 683,-166.017"/>
<polygon fill="midnightblue" stroke="midnightblue" points="686.5,-165.73 683,-155.731 679.5,-165.731 686.5,-165.73"/>
</g>
<!-- Node7&#45;&gt;Node4 -->
<g id="edge12" class="edge"><title>Node7&#45;&gt;Node4</title>
<path fill="none" stroke="midnightblue" d="M620.412,-137.42C615.539,-136.911 610.691,-136.43 606,-136 366.03,-114.005 299.859,-153.952 65,-100 61.7574,-99.2551 58.43,-98.2622 55.1635,-97.1405"/>
<polygon fill="midnightblue" stroke="midnightblue" points="56.2833,-93.8214 45.6931,-93.5081 53.7764,-100.357 56.2833,-93.8214"/>
</g>
<!-- Node8 -->
<g id="node8" class="node"><title>Node8</title>
<polygon fill="none" stroke="#bfbfbf" points="74.5,-69 74.5,-99 225.5,-99 225.5,-69 74.5,-69"/>
<text text-anchor="start" x="82.5" y="-87" font-family="Helvetica,sans-Serif" font-size="10.00">Math/GenVector/Displacement</text>
<text text-anchor="middle" x="150" y="-76" font-family="Helvetica,sans-Serif" font-size="10.00">Vector3D.h</text>
</g>
<!-- Node7&#45;&gt;Node8 -->
<g id="edge7" class="edge"><title>Node7&#45;&gt;Node8</title>
<path fill="none" stroke="midnightblue" d="M620.397,-137.579C615.526,-137.033 610.684,-136.501 606,-136 444.493,-118.727 400.833,-122.263 235.953,-100.064"/>
<polygon fill="midnightblue" stroke="midnightblue" points="236.334,-96.5832 225.954,-98.7059 235.392,-103.52 236.334,-96.5832"/>
</g>
<!-- Node9 -->
<g id="node9" class="node"><title>Node9</title>
<polygon fill="none" stroke="#bfbfbf" points="244,-74.5 244,-93.5 420,-93.5 420,-74.5 244,-74.5"/>
<text text-anchor="middle" x="332" y="-81.5" font-family="Helvetica,sans-Serif" font-size="10.00">Math/GenVector/PositionVector3D.h</text>
</g>
<!-- Node7&#45;&gt;Node9 -->
<g id="edge8" class="edge"><title>Node7&#45;&gt;Node9</title>
<path fill="none" stroke="midnightblue" d="M633.083,-136.467C569.534,-125.604 459.851,-106.855 391.872,-95.2346"/>
<polygon fill="midnightblue" stroke="midnightblue" points="392.192,-91.7385 381.745,-93.5034 391.012,-98.6384 392.192,-91.7385"/>
</g>
<!-- Node10 -->
<g id="node10" class="node"><title>Node10</title>
<polygon fill="none" stroke="#bfbfbf" points="437.5,-74.5 437.5,-93.5 586.5,-93.5 586.5,-74.5 437.5,-74.5"/>
<text text-anchor="middle" x="512" y="-81.5" font-family="Helvetica,sans-Serif" font-size="10.00">Math/GenVector/Rotation3D.h</text>
</g>
<!-- Node7&#45;&gt;Node10 -->
<g id="edge9" class="edge"><title>Node7&#45;&gt;Node10</title>
<path fill="none" stroke="midnightblue" d="M658.5,-136.403C629.04,-126.067 579.421,-108.656 546.198,-96.9994"/>
<polygon fill="midnightblue" stroke="midnightblue" points="547.05,-93.5889 536.455,-93.5806 544.732,-100.194 547.05,-93.5889"/>
</g>
<!-- Node11 -->
<g id="node11" class="node"><title>Node11</title>
<polygon fill="none" stroke="#bfbfbf" points="605,-74.5 605,-93.5 761,-93.5 761,-74.5 605,-74.5"/>
<text text-anchor="middle" x="683" y="-81.5" font-family="Helvetica,sans-Serif" font-size="10.00">Math/GenVector/Transform3D.h</text>
</g>
<!-- Node7&#45;&gt;Node11 -->
<g id="edge10" class="edge"><title>Node7&#45;&gt;Node11</title>
<path fill="none" stroke="midnightblue" d="M683,-136.403C683,-127.938 683,-114.728 683,-103.82"/>
<polygon fill="midnightblue" stroke="midnightblue" points="686.5,-103.581 683,-93.5806 679.5,-103.581 686.5,-103.581"/>
</g>
<!-- Node12 -->
<g id="node12" class="node"><title>Node12</title>
<polygon fill="none" stroke="#bfbfbf" points="779,-74.5 779,-93.5 939,-93.5 939,-74.5 779,-74.5"/>
<text text-anchor="middle" x="859" y="-81.5" font-family="Helvetica,sans-Serif" font-size="10.00">Math/GenVector/Translation3D.h</text>
</g>
<!-- Node7&#45;&gt;Node12 -->
<g id="edge11" class="edge"><title>Node7&#45;&gt;Node12</title>
<path fill="none" stroke="midnightblue" d="M708.217,-136.403C738.668,-126.022 790.049,-108.506 824.243,-96.849"/>
<polygon fill="midnightblue" stroke="midnightblue" points="825.495,-100.12 833.83,-93.5806 823.236,-93.4946 825.495,-100.12"/>
</g>
<!-- Node13 -->
<g id="node13" class="node"><title>Node13</title>
<polygon fill="none" stroke="#bfbfbf" points="957,-74.5 957,-93.5 1033,-93.5 1033,-74.5 957,-74.5"/>
<text text-anchor="middle" x="995" y="-81.5" font-family="Helvetica,sans-Serif" font-size="10.00">TGeoMatrix.h</text>
</g>
<!-- Node7&#45;&gt;Node13 -->
<g id="edge13" class="edge"><title>Node7&#45;&gt;Node13</title>
<path fill="none" stroke="midnightblue" d="M745.616,-136.903C799.636,-129.316 879.531,-116.652 948,-100 952.12,-98.9981 956.403,-97.8228 960.634,-96.5787"/>
<polygon fill="midnightblue" stroke="midnightblue" points="961.779,-99.8884 970.305,-93.5999 959.718,-93.1985 961.779,-99.8884"/>
</g>
<!-- Node7&#45;&gt;Node14 -->
<g id="edge14" class="edge"><title>Node7&#45;&gt;Node14</title>
<path fill="none" stroke="midnightblue" d="M745.597,-137.515C750.468,-136.984 755.313,-136.472 760,-136 948.61,-116.994 1001.88,-148.994 1185,-100 1187.35,-99.3711 1189.74,-98.5772 1192.1,-97.6843"/>
<polygon fill="midnightblue" stroke="midnightblue" points="1193.68,-100.814 1201.47,-93.6272 1190.9,-94.3903 1193.68,-100.814"/>
</g>
<!-- Node15 -->
<g id="node15" class="node"><title>Node15</title>
<g id="a_node15"><a xlink:href="../../d2/dd0/Cartesian2D_8h.html" target="_top" xlink:title="MathUtils/Cartesian2D.h">
<polygon fill="none" stroke="black" points="1051.5,-74.5 1051.5,-93.5 1176.5,-93.5 1176.5,-74.5 1051.5,-74.5"/>
<text text-anchor="middle" x="1114" y="-81.5" font-family="Helvetica,sans-Serif" font-size="10.00">MathUtils/Cartesian2D.h</text>
</a>
</g>
</g>
<!-- Node7&#45;&gt;Node15 -->
<g id="edge15" class="edge"><title>Node7&#45;&gt;Node15</title>
<path fill="none" stroke="midnightblue" d="M745.843,-137.403C840.978,-125.86 1013.54,-104.741 1042,-100 1049.79,-98.702 1058.03,-97.1551 1066.03,-95.5556"/>
<polygon fill="midnightblue" stroke="midnightblue" points="1066.9,-98.9501 1075.99,-93.5161 1065.5,-92.0923 1066.9,-98.9501"/>
</g>
<!-- Node16 -->
<g id="node16" class="node"><title>Node16</title>
<polygon fill="none" stroke="#bfbfbf" points="947.5,-1 947.5,-31 1098.5,-31 1098.5,-1 947.5,-1"/>
<text text-anchor="start" x="955.5" y="-19" font-family="Helvetica,sans-Serif" font-size="10.00">Math/GenVector/Displacement</text>
<text text-anchor="middle" x="1023" y="-8" font-family="Helvetica,sans-Serif" font-size="10.00">Vector2D.h</text>
</g>
<!-- Node15&#45;&gt;Node16 -->
<g id="edge16" class="edge"><title>Node15&#45;&gt;Node16</title>
<path fill="none" stroke="midnightblue" d="M1102.1,-74.3717C1089.22,-65.0286 1068.22,-49.7966 1051.09,-37.375"/>
<polygon fill="midnightblue" stroke="midnightblue" points="1052.7,-34.2194 1042.55,-31.1815 1048.59,-39.8859 1052.7,-34.2194"/>
</g>
<!-- Node17 -->
<g id="node17" class="node"><title>Node17</title>
<polygon fill="none" stroke="#bfbfbf" points="1117,-6.5 1117,-25.5 1293,-25.5 1293,-6.5 1117,-6.5"/>
<text text-anchor="middle" x="1205" y="-13.5" font-family="Helvetica,sans-Serif" font-size="10.00">Math/GenVector/PositionVector2D.h</text>
</g>
<!-- Node15&#45;&gt;Node17 -->
<g id="edge17" class="edge"><title>Node15&#45;&gt;Node17</title>
<path fill="none" stroke="midnightblue" d="M1125.9,-74.3717C1140.88,-63.5015 1166.86,-44.6602 1184.94,-31.5474"/>
<polygon fill="midnightblue" stroke="midnightblue" points="1187.06,-34.3349 1193.1,-25.6305 1182.95,-28.6684 1187.06,-34.3349"/>
</g>
<!-- Node20 -->
<g id="node20" class="node"><title>Node20</title>
<g id="a_node20"><a xlink:href="../../de/d61/ShmManager_8h.html" target="_top" xlink:title="CommonUtils/ShmManager.h">
<polygon fill="none" stroke="black" points="1256,-136.5 1256,-155.5 1402,-155.5 1402,-136.5 1256,-136.5"/>
<text text-anchor="middle" x="1329" y="-143.5" font-family="Helvetica,sans-Serif" font-size="10.00">CommonUtils/ShmManager.h</text>
</a>
</g>
</g>
<!-- Node19&#45;&gt;Node20 -->
<g id="edge22" class="edge"><title>Node19&#45;&gt;Node20</title>
<path fill="none" stroke="midnightblue" d="M1329,-198.403C1329,-189.938 1329,-176.728 1329,-165.82"/>
<polygon fill="midnightblue" stroke="midnightblue" points="1332.5,-165.581 1329,-155.581 1325.5,-165.581 1332.5,-165.581"/>
</g>
<!-- Node25 -->
<g id="node25" class="node"><title>Node25</title>
<polygon fill="none" stroke="#bfbfbf" points="1420.5,-136.5 1420.5,-155.5 1469.5,-155.5 1469.5,-136.5 1420.5,-136.5"/>
<text text-anchor="middle" x="1445" y="-143.5" font-family="Helvetica,sans-Serif" font-size="10.00">cassert</text>
</g>
<!-- Node19&#45;&gt;Node25 -->
<g id="edge27" class="edge"><title>Node19&#45;&gt;Node25</title>
<path fill="none" stroke="midnightblue" d="M1345.62,-198.403C1364.92,-188.423 1396.96,-171.849 1419.43,-160.225"/>
<polygon fill="midnightblue" stroke="midnightblue" points="1421.14,-163.284 1428.41,-155.581 1417.92,-157.066 1421.14,-163.284"/>
</g>
<!-- Node21 -->
<g id="node21" class="node"><title>Node21</title>
<polygon fill="none" stroke="#bfbfbf" points="1257.5,-74.5 1257.5,-93.5 1286.5,-93.5 1286.5,-74.5 1257.5,-74.5"/>
<text text-anchor="middle" x="1272" y="-81.5" font-family="Helvetica,sans-Serif" font-size="10.00">list</text>
</g>
<!-- Node20&#45;&gt;Node21 -->
<g id="edge23" class="edge"><title>Node20&#45;&gt;Node21</title>
<path fill="none" stroke="midnightblue" d="M1320.83,-136.403C1312.11,-127.225 1298.1,-112.47 1287.31,-101.117"/>
<polygon fill="midnightblue" stroke="midnightblue" points="1289.58,-98.42 1280.15,-93.5806 1284.5,-103.241 1289.58,-98.42"/>
</g>
<!-- Node22 -->
<g id="node22" class="node"><title>Node22</title>
<polygon fill="none" stroke="#bfbfbf" points="1304.5,-74.5 1304.5,-93.5 1353.5,-93.5 1353.5,-74.5 1304.5,-74.5"/>
<text text-anchor="middle" x="1329" y="-81.5" font-family="Helvetica,sans-Serif" font-size="10.00">cstddef</text>
</g>
<!-- Node20&#45;&gt;Node22 -->
<g id="edge24" class="edge"><title>Node20&#45;&gt;Node22</title>
<path fill="none" stroke="midnightblue" d="M1329,-136.403C1329,-127.938 1329,-114.728 1329,-103.82"/>
<polygon fill="midnightblue" stroke="midnightblue" points="1332.5,-103.581 1329,-93.5806 1325.5,-103.581 1332.5,-103.581"/>
</g>
<!-- Node23 -->
<g id="node23" class="node"><title>Node23</title>
<polygon fill="none" stroke="#bfbfbf" points="1372,-69 1372,-99 1520,-99 1520,-69 1372,-69"/>
<text text-anchor="start" x="1380" y="-87" font-family="Helvetica,sans-Serif" font-size="10.00">boost/interprocess</text>
<text text-anchor="middle" x="1446" y="-76" font-family="Helvetica,sans-Serif" font-size="10.00">/managed_external_buffer.hpp</text>
</g>
<!-- Node20&#45;&gt;Node23 -->
<g id="edge25" class="edge"><title>Node20&#45;&gt;Node23</title>
<path fill="none" stroke="midnightblue" d="M1345.76,-136.403C1362.28,-127.936 1388.05,-114.72 1409.32,-103.81"/>
<polygon fill="midnightblue" stroke="midnightblue" points="1411.12,-106.818 1418.43,-99.1408 1407.93,-100.59 1411.12,-106.818"/>
</g>
<!-- Node24 -->
<g id="node24" class="node"><title>Node24</title>
<polygon fill="none" stroke="#bfbfbf" points="1538,-69 1538,-99 1658,-99 1658,-69 1538,-69"/>
<text text-anchor="start" x="1546" y="-87" font-family="Helvetica,sans-Serif" font-size="10.00">boost/interprocess</text>
<text text-anchor="middle" x="1598" y="-76" font-family="Helvetica,sans-Serif" font-size="10.00">/allocators/allocator.hpp</text>
</g>
<!-- Node20&#45;&gt;Node24 -->
<g id="edge26" class="edge"><title>Node20&#45;&gt;Node24</title>
<path fill="none" stroke="midnightblue" d="M1367.26,-136.467C1408.93,-127.171 1476.51,-112.098 1527.78,-100.662"/>
<polygon fill="midnightblue" stroke="midnightblue" points="1528.81,-104.019 1537.81,-98.4254 1527.29,-97.1864 1528.81,-104.019"/>
</g>
</g>
</svg>
