<?xml version="1.0" encoding="UTF-8" standalone="no"?>
<!DOCTYPE svg PUBLIC "-//W3C//DTD SVG 1.1//EN"
 "http://www.w3.org/Graphics/SVG/1.1/DTD/svg11.dtd">
<!-- Generated by graphviz version 2.36.0 (20140111.2315)
 -->
<!-- Title: o2::TPC::ElementalHit Pages: 1 -->
<svg width="149pt" height="292pt"
 viewBox="0.00 0.00 149.00 292.00" xmlns="http://www.w3.org/2000/svg" xmlns:xlink="http://www.w3.org/1999/xlink">
<g id="graph0" class="graph" transform="scale(1 1) rotate(0) translate(4 288)">
<title>o2::TPC::ElementalHit</title>
<!-- Node1 -->
<g id="node1" class="node"><title>Node1</title>
<polygon fill="#bfbfbf" stroke="black" points="-1,-0.5 -1,-167.5 115,-167.5 115,-0.5 -1,-0.5"/>
<text text-anchor="middle" x="57" y="-155.5" font-family="Helvetica,sans-Serif" font-size="10.00">o2::TPC::ElementalHit</text>
<polyline fill="none" stroke="black" points="-1,-148.5 115,-148.5 "/>
<text text-anchor="middle" x="57" y="-136.5" font-family="Helvetica,sans-Serif" font-size="10.00"> </text>
<polyline fill="none" stroke="black" points="-1,-129.5 115,-129.5 "/>
<text text-anchor="start" x="7" y="-117.5" font-family="Helvetica,sans-Serif" font-size="10.00">+ GetX()</text>
<text text-anchor="start" x="7" y="-106.5" font-family="Helvetica,sans-Serif" font-size="10.00">+ GetY()</text>
<text text-anchor="start" x="7" y="-95.5" font-family="Helvetica,sans-Serif" font-size="10.00">+ GetZ()</text>
<text text-anchor="start" x="7" y="-84.5" font-family="Helvetica,sans-Serif" font-size="10.00">+ getPos()</text>
<text text-anchor="start" x="7" y="-73.5" font-family="Helvetica,sans-Serif" font-size="10.00">+ GetEnergyLoss()</text>
<text text-anchor="start" x="7" y="-62.5" font-family="Helvetica,sans-Serif" font-size="10.00">+ GetTime()</text>
<text text-anchor="start" x="7" y="-51.5" font-family="Helvetica,sans-Serif" font-size="10.00">+ ElementalHit()</text>
<text text-anchor="start" x="7" y="-40.5" font-family="Helvetica,sans-Serif" font-size="10.00">+ ~ElementalHit()</text>
<text text-anchor="start" x="7" y="-29.5" font-family="Helvetica,sans-Serif" font-size="10.00">+ ElementalHit()</text>
<text text-anchor="start" x="7" y="-18.5" font-family="Helvetica,sans-Serif" font-size="10.00">+ ElementalHit()</text>
<text text-anchor="start" x="7" y="-7.5" font-family="Helvetica,sans-Serif" font-size="10.00">+ ClassDefNV()</text>
</g>
<!-- Node2 -->
<g id="node2" class="node"><title>Node2</title>
<g id="a_node2"><a xlink:href="../../d4/dc3/classfloat.html" target="_top" xlink:title="{float\n||}">
<polygon fill="none" stroke="black" points="-0.5,-226.5 -0.5,-283.5 34.5,-283.5 34.5,-226.5 -0.5,-226.5"/>
<text text-anchor="middle" x="17" y="-271.5" font-family="Helvetica,sans-Serif" font-size="10.00">float</text>
<polyline fill="none" stroke="black" points="-0.5,-264.5 34.5,-264.5 "/>
<text text-anchor="middle" x="17" y="-252.5" font-family="Helvetica,sans-Serif" font-size="10.00"> </text>
<polyline fill="none" stroke="black" points="-0.5,-245.5 34.5,-245.5 "/>
<text text-anchor="middle" x="17" y="-233.5" font-family="Helvetica,sans-Serif" font-size="10.00"> </text>
</a>
</g>
</g>
<!-- Node2&#45;&gt;Node1 -->
<g id="edge1" class="edge"><title>Node2&#45;&gt;Node1</title>
<path fill="none" stroke="#404040" d="M21.251,-226.419C23.3216,-214.01 26.01,-199.212 29,-186 29.4907,-183.832 29.9984,-181.64 30.5203,-179.432"/>
<polygon fill="none" stroke="#404040" points="30.5837,-179.173 28.1217,-172.395 33.4312,-167.515 35.8932,-174.293 30.5837,-179.173"/>
<text text-anchor="middle" x="52" y="-200" font-family="Helvetica,sans-Serif" font-size="10.00"> +mELoss</text>
<text text-anchor="middle" x="52" y="-189" font-family="Helvetica,sans-Serif" font-size="10.00">+mTime</text>
</g>
<!-- Node3 -->
<g id="node3" class="node"><title>Node3</title>
<g id="a_node3"><a xlink:href="../../d1/dd1/classPoint3D_3_01float_01_4.html" target="_top" xlink:title="{Point3D\&lt; float \&gt;\n||}">
<polygon fill="none" stroke="black" points="52.5,-226.5 52.5,-283.5 141.5,-283.5 141.5,-226.5 52.5,-226.5"/>
<text text-anchor="middle" x="97" y="-271.5" font-family="Helvetica,sans-Serif" font-size="10.00">Point3D&lt; float &gt;</text>
<polyline fill="none" stroke="black" points="52.5,-264.5 141.5,-264.5 "/>
<text text-anchor="middle" x="97" y="-252.5" font-family="Helvetica,sans-Serif" font-size="10.00"> </text>
<polyline fill="none" stroke="black" points="52.5,-245.5 141.5,-245.5 "/>
<text text-anchor="middle" x="97" y="-233.5" font-family="Helvetica,sans-Serif" font-size="10.00"> </text>
</a>
</g>
</g>
<!-- Node3&#45;&gt;Node1 -->
<g id="edge2" class="edge"><title>Node3&#45;&gt;Node1</title>
<path fill="none" stroke="#404040" d="M90.4843,-226.471C87.3726,-213.324 83.4457,-196.733 79.3858,-179.58"/>
<polygon fill="none" stroke="#404040" points="79.3261,-179.328 74.0517,-174.41 76.5622,-167.65 81.8366,-172.568 79.3261,-179.328"/>
<text text-anchor="middle" x="102.5" y="-194.5" font-family="Helvetica,sans-Serif" font-size="10.00"> +mPos</text>
</g>
</g>
</svg>
