<?xml version="1.0" encoding="UTF-8" standalone="no"?>
<!DOCTYPE svg PUBLIC "-//W3C//DTD SVG 1.1//EN"
 "http://www.w3.org/Graphics/SVG/1.1/DTD/svg11.dtd">
<!-- Generated by graphviz version 2.36.0 (20140111.2315)
 -->
<!-- Title: o2::framework::OutputRef Pages: 1 -->
<svg width="231pt" height="294pt"
 viewBox="0.00 0.00 231.00 294.00" xmlns="http://www.w3.org/2000/svg" xmlns:xlink="http://www.w3.org/1999/xlink">
<g id="graph0" class="graph" transform="scale(1 1) rotate(0) translate(4 290)">
<title>o2::framework::OutputRef</title>
<!-- Node1 -->
<g id="node1" class="node"><title>Node1</title>
<polygon fill="#bfbfbf" stroke="black" points="31,-0.5 31,-79.5 161,-79.5 161,-0.5 31,-0.5"/>
<text text-anchor="middle" x="96" y="-67.5" font-family="Helvetica,sans-Serif" font-size="10.00">o2::framework::OutputRef</text>
<polyline fill="none" stroke="black" points="31,-60.5 161,-60.5 "/>
<text text-anchor="middle" x="96" y="-48.5" font-family="Helvetica,sans-Serif" font-size="10.00"> </text>
<polyline fill="none" stroke="black" points="31,-41.5 161,-41.5 "/>
<text text-anchor="start" x="39" y="-29.5" font-family="Helvetica,sans-Serif" font-size="10.00">+ OutputRef()</text>
<text text-anchor="start" x="39" y="-18.5" font-family="Helvetica,sans-Serif" font-size="10.00">+ OutputRef()</text>
<text text-anchor="start" x="39" y="-7.5" font-family="Helvetica,sans-Serif" font-size="10.00">+ OutputRef()</text>
</g>
<!-- Node2 -->
<g id="node2" class="node"><title>Node2</title>
<polygon fill="none" stroke="#bfbfbf" points="-0.5,-178.5 -0.5,-235.5 50.5,-235.5 50.5,-178.5 -0.5,-178.5"/>
<text text-anchor="middle" x="25" y="-223.5" font-family="Helvetica,sans-Serif" font-size="10.00">uint64_t</text>
<polyline fill="none" stroke="#bfbfbf" points="-0.5,-216.5 50.5,-216.5 "/>
<text text-anchor="middle" x="25" y="-204.5" font-family="Helvetica,sans-Serif" font-size="10.00"> </text>
<polyline fill="none" stroke="#bfbfbf" points="-0.5,-197.5 50.5,-197.5 "/>
<text text-anchor="middle" x="25" y="-185.5" font-family="Helvetica,sans-Serif" font-size="10.00"> </text>
</g>
<!-- Node2&#45;&gt;Node1 -->
<g id="edge1" class="edge"><title>Node2&#45;&gt;Node1</title>
<path fill="none" stroke="#404040" d="M25.6552,-178.055C27.1625,-155.432 31.5708,-123.287 44,-98 45.3701,-95.2125 46.9187,-92.4624 48.602,-89.7657"/>
<polygon fill="none" stroke="#404040" points="48.7913,-89.4953 48.954,-82.286 55.6713,-79.6634 55.5086,-86.8727 48.7913,-89.4953"/>
<text text-anchor="middle" x="68" y="-101.5" font-family="Helvetica,sans-Serif" font-size="10.00"> +subSpec</text>
</g>
<!-- Node3 -->
<g id="node3" class="node"><title>Node3</title>
<g id="a_node3"><a xlink:href="../../d1/da0/classint.html" target="_top" xlink:title="{int\n||}">
<polygon fill="none" stroke="black" points="81.5,-178.5 81.5,-235.5 110.5,-235.5 110.5,-178.5 81.5,-178.5"/>
<text text-anchor="middle" x="96" y="-223.5" font-family="Helvetica,sans-Serif" font-size="10.00">int</text>
<polyline fill="none" stroke="black" points="81.5,-216.5 110.5,-216.5 "/>
<text text-anchor="middle" x="96" y="-204.5" font-family="Helvetica,sans-Serif" font-size="10.00"> </text>
<polyline fill="none" stroke="black" points="81.5,-197.5 110.5,-197.5 "/>
<text text-anchor="middle" x="96" y="-185.5" font-family="Helvetica,sans-Serif" font-size="10.00"> </text>
</a>
</g>
</g>
<!-- Node3&#45;&gt;Node1 -->
<g id="edge2" class="edge"><title>Node3&#45;&gt;Node1</title>
<path fill="none" stroke="#404040" d="M96,-178.383C96,-154.808 96,-120.29 96,-91.7528"/>
<polygon fill="none" stroke="#404040" points="96.0001,-91.5314 92,-85.5314 96,-79.5314 100,-85.5314 96.0001,-91.5314"/>
<text text-anchor="middle" x="111" y="-101.5" font-family="Helvetica,sans-Serif" font-size="10.00"> +label</text>
</g>
<!-- Node4 -->
<g id="node4" class="node"><title>Node4</title>
<g id="a_node4"><a xlink:href="../../d0/d66/structo2_1_1header_1_1Stack.html" target="_top" xlink:title="a move&#45;only header stack with serialized headers This is the flat buffer where all the headers in a m...">
<polygon fill="none" stroke="black" points="129,-129 129,-285 223,-285 223,-129 129,-129"/>
<text text-anchor="middle" x="176" y="-273" font-family="Helvetica,sans-Serif" font-size="10.00">o2::header::Stack</text>
<polyline fill="none" stroke="black" points="129,-266 223,-266 "/>
<text text-anchor="middle" x="176" y="-254" font-family="Helvetica,sans-Serif" font-size="10.00"> </text>
<polyline fill="none" stroke="black" points="129,-247 223,-247 "/>
<text text-anchor="start" x="137" y="-235" font-family="Helvetica,sans-Serif" font-size="10.00">+ Stack()</text>
<text text-anchor="start" x="137" y="-224" font-family="Helvetica,sans-Serif" font-size="10.00">+ Stack()</text>
<text text-anchor="start" x="137" y="-213" font-family="Helvetica,sans-Serif" font-size="10.00">+ Stack()</text>
<text text-anchor="start" x="137" y="-202" font-family="Helvetica,sans-Serif" font-size="10.00">+ operator=()</text>
<text text-anchor="start" x="137" y="-191" font-family="Helvetica,sans-Serif" font-size="10.00">+ operator=()</text>
<text text-anchor="start" x="137" y="-180" font-family="Helvetica,sans-Serif" font-size="10.00">+ data()</text>
<text text-anchor="start" x="137" y="-169" font-family="Helvetica,sans-Serif" font-size="10.00">+ size()</text>
<text text-anchor="start" x="137" y="-158" font-family="Helvetica,sans-Serif" font-size="10.00">+ get_allocator()</text>
<text text-anchor="start" x="137" y="-147" font-family="Helvetica,sans-Serif" font-size="10.00">+ Stack()</text>
<text text-anchor="start" x="137" y="-136" font-family="Helvetica,sans-Serif" font-size="10.00">+ Stack()</text>
</a>
</g>
</g>
<!-- Node4&#45;&gt;Node1 -->
<g id="edge3" class="edge"><title>Node4&#45;&gt;Node1</title>
<path fill="none" stroke="#404040" d="M144.591,-128.714C139.916,-118.288 134.986,-107.811 130,-98 128.7,-95.4433 127.332,-92.8448 125.921,-90.237"/>
<polygon fill="none" stroke="#404040" points="125.799,-90.0197 119.38,-86.7353 119.942,-79.5462 126.362,-82.8305 125.799,-90.0197"/>
<text text-anchor="middle" x="168" y="-101.5" font-family="Helvetica,sans-Serif" font-size="10.00"> +headerStack</text>
</g>
</g>
</svg>
