<?xml version="1.0" encoding="UTF-8" standalone="no"?>
<!DOCTYPE svg PUBLIC "-//W3C//DTD SVG 1.1//EN"
 "http://www.w3.org/Graphics/SVG/1.1/DTD/svg11.dtd">
<!-- Generated by graphviz version 2.36.0 (20140111.2315)
 -->
<!-- Title: o2::framework::MessageContext::TrivialObject Pages: 1 -->
<svg width="166pt" height="358pt"
 viewBox="0.00 0.00 166.00 358.00" xmlns="http://www.w3.org/2000/svg" xmlns:xlink="http://www.w3.org/1999/xlink">
<g id="graph0" class="graph" transform="scale(1 1) rotate(0) translate(4 354)">
<title>o2::framework::MessageContext::TrivialObject</title>
<!-- Node1 -->
<g id="node1" class="node"><title>Node1</title>
<polygon fill="#bfbfbf" stroke="black" points="-0.5,-1 -0.5,-113 158.5,-113 158.5,-1 -0.5,-1"/>
<text text-anchor="start" x="7.5" y="-101" font-family="Helvetica,sans-Serif" font-size="10.00">o2::framework::MessageContext</text>
<text text-anchor="middle" x="79" y="-90" font-family="Helvetica,sans-Serif" font-size="10.00">::TrivialObject</text>
<polyline fill="none" stroke="black" points="-0.5,-83 158.5,-83 "/>
<text text-anchor="middle" x="79" y="-71" font-family="Helvetica,sans-Serif" font-size="10.00"> </text>
<polyline fill="none" stroke="black" points="-0.5,-64 158.5,-64 "/>
<text text-anchor="start" x="7.5" y="-52" font-family="Helvetica,sans-Serif" font-size="10.00">+ TrivialObject()</text>
<text text-anchor="start" x="7.5" y="-41" font-family="Helvetica,sans-Serif" font-size="10.00">+ TrivialObject()</text>
<text text-anchor="start" x="7.5" y="-30" font-family="Helvetica,sans-Serif" font-size="10.00">+ TrivialObject()</text>
<text text-anchor="start" x="7.5" y="-19" font-family="Helvetica,sans-Serif" font-size="10.00">+ ~TrivialObject()</text>
<text text-anchor="start" x="7.5" y="-8" font-family="Helvetica,sans-Serif" font-size="10.00">+ data()</text>
</g>
<!-- Node2 -->
<g id="node2" class="node"><title>Node2</title>
<g id="a_node2"><a xlink:href="../../d3/dc5/classo2_1_1framework_1_1MessageContext_1_1ContextObject.html" target="_top" xlink:title="{o2::framework::MessageContext\l::ContextObject\n||+ ContextObject()\l+ ContextObject()\l+ ~ContextObject()\l}">
<polygon fill="none" stroke="black" points="-0.5,-153 -0.5,-243 158.5,-243 158.5,-153 -0.5,-153"/>
<text text-anchor="start" x="7.5" y="-231" font-family="Helvetica,sans-Serif" font-size="10.00">o2::framework::MessageContext</text>
<text text-anchor="middle" x="79" y="-220" font-family="Helvetica,sans-Serif" font-size="10.00">::ContextObject</text>
<polyline fill="none" stroke="black" points="-0.5,-213 158.5,-213 "/>
<text text-anchor="middle" x="79" y="-201" font-family="Helvetica,sans-Serif" font-size="10.00"> </text>
<polyline fill="none" stroke="black" points="-0.5,-194 158.5,-194 "/>
<text text-anchor="start" x="7.5" y="-182" font-family="Helvetica,sans-Serif" font-size="10.00">+ ContextObject()</text>
<text text-anchor="start" x="7.5" y="-171" font-family="Helvetica,sans-Serif" font-size="10.00">+ ContextObject()</text>
<text text-anchor="start" x="7.5" y="-160" font-family="Helvetica,sans-Serif" font-size="10.00">+ ~ContextObject()</text>
</a>
</g>
</g>
<!-- Node2&#45;&gt;Node1 -->
<g id="edge1" class="edge"><title>Node2&#45;&gt;Node1</title>
<path fill="none" stroke="midnightblue" d="M79,-142.403C79,-132.793 79,-122.785 79,-113.16"/>
<polygon fill="none" stroke="midnightblue" points="75.5001,-142.637 79,-152.637 82.5001,-142.637 75.5001,-142.637"/>
</g>
<!-- Node3 -->
<g id="node3" class="node"><title>Node3</title>
<g id="a_node3"><a xlink:href="../../d1/da0/classint.html" target="_top" xlink:title="{int\n||}">
<polygon fill="none" stroke="black" points="30.5,-292.5 30.5,-349.5 59.5,-349.5 59.5,-292.5 30.5,-292.5"/>
<text text-anchor="middle" x="45" y="-337.5" font-family="Helvetica,sans-Serif" font-size="10.00">int</text>
<polyline fill="none" stroke="black" points="30.5,-330.5 59.5,-330.5 "/>
<text text-anchor="middle" x="45" y="-318.5" font-family="Helvetica,sans-Serif" font-size="10.00"> </text>
<polyline fill="none" stroke="black" points="30.5,-311.5 59.5,-311.5 "/>
<text text-anchor="middle" x="45" y="-299.5" font-family="Helvetica,sans-Serif" font-size="10.00"> </text>
</a>
</g>
</g>
<!-- Node3&#45;&gt;Node2 -->
<g id="edge2" class="edge"><title>Node3&#45;&gt;Node2</title>
<path fill="none" stroke="#404040" d="M44.8062,-292.219C45.2908,-282.529 46.4636,-271.665 49,-262 49.6366,-259.574 50.3665,-257.129 51.1703,-254.682"/>
<polygon fill="none" stroke="#404040" points="51.2193,-254.551 49.5599,-247.533 55.3995,-243.302 57.0588,-250.32 51.2193,-254.551"/>
<text text-anchor="middle" x="70.5" y="-265.5" font-family="Helvetica,sans-Serif" font-size="10.00"> +channel</text>
</g>
<!-- Node4 -->
<g id="node4" class="node"><title>Node4</title>
<polygon fill="none" stroke="#bfbfbf" points="78,-292.5 78,-349.5 150,-349.5 150,-292.5 78,-292.5"/>
<text text-anchor="middle" x="114" y="-337.5" font-family="Helvetica,sans-Serif" font-size="10.00">FairMQParts</text>
<polyline fill="none" stroke="#bfbfbf" points="78,-330.5 150,-330.5 "/>
<text text-anchor="middle" x="114" y="-318.5" font-family="Helvetica,sans-Serif" font-size="10.00"> </text>
<polyline fill="none" stroke="#bfbfbf" points="78,-311.5 150,-311.5 "/>
<text text-anchor="middle" x="114" y="-299.5" font-family="Helvetica,sans-Serif" font-size="10.00"> </text>
</g>
<!-- Node4&#45;&gt;Node2 -->
<g id="edge3" class="edge"><title>Node4&#45;&gt;Node2</title>
<path fill="none" stroke="#404040" d="M105.97,-292.24C102.756,-281.129 98.9325,-267.909 95.1891,-254.968"/>
<polygon fill="none" stroke="#404040" points="95.1281,-254.757 89.6184,-250.105 91.7937,-243.23 97.3034,-247.882 95.1281,-254.757"/>
<text text-anchor="middle" x="116.5" y="-265.5" font-family="Helvetica,sans-Serif" font-size="10.00"> +parts</text>
</g>
</g>
</svg>
