<?xml version="1.0" encoding="UTF-8" standalone="no"?>
<!DOCTYPE svg PUBLIC "-//W3C//DTD SVG 1.1//EN"
 "http://www.w3.org/Graphics/SVG/1.1/DTD/svg11.dtd">
<!-- Generated by graphviz version 2.36.0 (20140111.2315)
 -->
<!-- Title: gNeric::rtc_less&lt; T, N &gt; Pages: 1 -->
<svg width="142pt" height="194pt"
 viewBox="0.00 0.00 142.00 194.00" xmlns="http://www.w3.org/2000/svg" xmlns:xlink="http://www.w3.org/1999/xlink">
<g id="graph0" class="graph" transform="scale(1 1) rotate(0) translate(4 190)">
<title>gNeric::rtc_less&lt; T, N &gt;</title>
<!-- Node1 -->
<g id="node1" class="node"><title>Node1</title>
<polygon fill="#bfbfbf" stroke="black" points="5.5,-0.5 5.5,-57.5 128.5,-57.5 128.5,-0.5 5.5,-0.5"/>
<text text-anchor="middle" x="67" y="-45.5" font-family="Helvetica,sans-Serif" font-size="10.00">gNeric::rtc_less&lt; T, N &gt;</text>
<polyline fill="none" stroke="black" points="5.5,-38.5 128.5,-38.5 "/>
<text text-anchor="middle" x="67" y="-26.5" font-family="Helvetica,sans-Serif" font-size="10.00"> </text>
<polyline fill="none" stroke="black" points="5.5,-19.5 128.5,-19.5 "/>
<text text-anchor="middle" x="67" y="-7.5" font-family="Helvetica,sans-Serif" font-size="10.00"> </text>
</g>
<!-- Node2 -->
<g id="node2" class="node"><title>Node2</title>
<g id="a_node2"><a xlink:href="../../d5/de8/classboost_1_1mpl_1_1bool__.html" target="_top" xlink:title="{boost::mpl::bool_\&lt;\l(T::level::value\&lt; boost\l::mpl::minus\&lt; N, boost\l::mpl::int_\&lt; 1 \&gt; \&gt;::value) \&gt;\n||}">
<polygon fill="none" stroke="black" points="0,-95 0,-185 134,-185 134,-95 0,-95"/>
<text text-anchor="start" x="8" y="-173" font-family="Helvetica,sans-Serif" font-size="10.00">boost::mpl::bool_&lt;</text>
<text text-anchor="start" x="8" y="-162" font-family="Helvetica,sans-Serif" font-size="10.00">(T::level::value&lt; boost</text>
<text text-anchor="start" x="8" y="-151" font-family="Helvetica,sans-Serif" font-size="10.00">::mpl::minus&lt; N, boost</text>
<text text-anchor="middle" x="67" y="-140" font-family="Helvetica,sans-Serif" font-size="10.00">::mpl::int_&lt; 1 &gt; &gt;::value) &gt;</text>
<polyline fill="none" stroke="black" points="0,-133 134,-133 "/>
<text text-anchor="middle" x="67" y="-121" font-family="Helvetica,sans-Serif" font-size="10.00"> </text>
<polyline fill="none" stroke="black" points="0,-114 134,-114 "/>
<text text-anchor="middle" x="67" y="-102" font-family="Helvetica,sans-Serif" font-size="10.00"> </text>
</a>
</g>
</g>
<!-- Node2&#45;&gt;Node1 -->
<g id="edge1" class="edge"><title>Node2&#45;&gt;Node1</title>
<path fill="none" stroke="midnightblue" d="M67,-84.792C67,-75.3496 67,-65.8956 67,-57.5636"/>
<polygon fill="none" stroke="midnightblue" points="63.5001,-84.9797 67,-94.9797 70.5001,-84.9798 63.5001,-84.9797"/>
</g>
</g>
</svg>
