<?xml version="1.0" encoding="UTF-8" standalone="no"?>
<!DOCTYPE svg PUBLIC "-//W3C//DTD SVG 1.1//EN"
 "http://www.w3.org/Graphics/SVG/1.1/DTD/svg11.dtd">
<!-- Generated by graphviz version 2.36.0 (20140111.2315)
 -->
<!-- Title: o2::detectors::DetID Pages: 1 -->
<svg width="192pt" height="458pt"
 viewBox="0.00 0.00 192.00 458.00" xmlns="http://www.w3.org/2000/svg" xmlns:xlink="http://www.w3.org/1999/xlink">
<g id="graph0" class="graph" transform="scale(1 1) rotate(0) translate(4 454)">
<title>o2::detectors::DetID</title>
<!-- Node1 -->
<g id="node1" class="node"><title>Node1</title>
<polygon fill="#bfbfbf" stroke="black" points="38,-0.5 38,-233.5 144,-233.5 144,-0.5 38,-0.5"/>
<text text-anchor="middle" x="91" y="-221.5" font-family="Helvetica,sans-Serif" font-size="10.00">o2::detectors::DetID</text>
<polyline fill="none" stroke="black" points="38,-214.5 144,-214.5 "/>
<text text-anchor="start" x="46" y="-202.5" font-family="Helvetica,sans-Serif" font-size="10.00">+ TOF</text>
<text text-anchor="start" x="46" y="-191.5" font-family="Helvetica,sans-Serif" font-size="10.00">+ PHS</text>
<text text-anchor="start" x="46" y="-180.5" font-family="Helvetica,sans-Serif" font-size="10.00">+ EMC</text>
<text text-anchor="start" x="46" y="-169.5" font-family="Helvetica,sans-Serif" font-size="10.00">+ HMP</text>
<text text-anchor="start" x="46" y="-158.5" font-family="Helvetica,sans-Serif" font-size="10.00">+ MFT</text>
<text text-anchor="start" x="46" y="-147.5" font-family="Helvetica,sans-Serif" font-size="10.00">+ Last</text>
<polyline fill="none" stroke="black" points="38,-140.5 144,-140.5 "/>
<text text-anchor="start" x="46" y="-128.5" font-family="Helvetica,sans-Serif" font-size="10.00">+ DetID()</text>
<text text-anchor="start" x="46" y="-117.5" font-family="Helvetica,sans-Serif" font-size="10.00">+ DetID()</text>
<text text-anchor="start" x="46" y="-106.5" font-family="Helvetica,sans-Serif" font-size="10.00">+ DetID()</text>
<text text-anchor="start" x="46" y="-95.5" font-family="Helvetica,sans-Serif" font-size="10.00">+ operator=()</text>
<text text-anchor="start" x="46" y="-84.5" font-family="Helvetica,sans-Serif" font-size="10.00">+ getID()</text>
<text text-anchor="start" x="46" y="-73.5" font-family="Helvetica,sans-Serif" font-size="10.00">+ getMask()</text>
<text text-anchor="start" x="46" y="-62.5" font-family="Helvetica,sans-Serif" font-size="10.00">+ getName()</text>
<text text-anchor="start" x="46" y="-51.5" font-family="Helvetica,sans-Serif" font-size="10.00">+ operator int()</text>
<text text-anchor="start" x="46" y="-40.5" font-family="Helvetica,sans-Serif" font-size="10.00">+ DetID()</text>
<text text-anchor="start" x="46" y="-29.5" font-family="Helvetica,sans-Serif" font-size="10.00">+ getNDetectors()</text>
<text text-anchor="start" x="46" y="-18.5" font-family="Helvetica,sans-Serif" font-size="10.00">+ getName()</text>
<text text-anchor="start" x="46" y="-7.5" font-family="Helvetica,sans-Serif" font-size="10.00">+ getMask()</text>
</g>
<!-- Node2 -->
<g id="node2" class="node"><title>Node2</title>
<polygon fill="none" stroke="#bfbfbf" points="0,-392.5 0,-449.5 100,-449.5 100,-392.5 0,-392.5"/>
<text text-anchor="middle" x="50" y="-437.5" font-family="Helvetica,sans-Serif" font-size="10.00">static constexpr ID</text>
<polyline fill="none" stroke="#bfbfbf" points="0,-430.5 100,-430.5 "/>
<text text-anchor="middle" x="50" y="-418.5" font-family="Helvetica,sans-Serif" font-size="10.00"> </text>
<polyline fill="none" stroke="#bfbfbf" points="0,-411.5 100,-411.5 "/>
<text text-anchor="middle" x="50" y="-399.5" font-family="Helvetica,sans-Serif" font-size="10.00"> </text>
</g>
<!-- Node2&#45;&gt;Node1 -->
<g id="edge1" class="edge"><title>Node2&#45;&gt;Node1</title>
<path fill="none" stroke="#404040" d="M53.7472,-392.399C58.2961,-358.892 66.2812,-300.075 73.6947,-245.468"/>
<polygon fill="none" stroke="#404040" points="73.7014,-245.418 70.545,-238.935 75.3158,-233.527 78.4722,-240.011 73.7014,-245.418"/>
<text text-anchor="middle" x="87.5" y="-365.5" font-family="Helvetica,sans-Serif" font-size="10.00"> +ACO</text>
<text text-anchor="middle" x="87.5" y="-354.5" font-family="Helvetica,sans-Serif" font-size="10.00">+First</text>
<text text-anchor="middle" x="87.5" y="-343.5" font-family="Helvetica,sans-Serif" font-size="10.00">+FIT</text>
<text text-anchor="middle" x="87.5" y="-332.5" font-family="Helvetica,sans-Serif" font-size="10.00">+MCH</text>
<text text-anchor="middle" x="87.5" y="-321.5" font-family="Helvetica,sans-Serif" font-size="10.00">+TRD</text>
<text text-anchor="middle" x="87.5" y="-310.5" font-family="Helvetica,sans-Serif" font-size="10.00">+TPC</text>
<text text-anchor="middle" x="87.5" y="-299.5" font-family="Helvetica,sans-Serif" font-size="10.00">+ZDC</text>
<text text-anchor="middle" x="87.5" y="-288.5" font-family="Helvetica,sans-Serif" font-size="10.00">+MID</text>
<text text-anchor="middle" x="87.5" y="-277.5" font-family="Helvetica,sans-Serif" font-size="10.00">+ITS</text>
<text text-anchor="middle" x="87.5" y="-266.5" font-family="Helvetica,sans-Serif" font-size="10.00">+CPV</text>
<text text-anchor="middle" x="87.5" y="-255.5" font-family="Helvetica,sans-Serif" font-size="10.00">...</text>
</g>
<!-- Node3 -->
<g id="node3" class="node"><title>Node3</title>
<g id="a_node3"><a xlink:href="../../d1/da0/classint.html" target="_top" xlink:title="{int\n||}">
<polygon fill="none" stroke="black" points="118.5,-392.5 118.5,-449.5 147.5,-449.5 147.5,-392.5 118.5,-392.5"/>
<text text-anchor="middle" x="133" y="-437.5" font-family="Helvetica,sans-Serif" font-size="10.00">int</text>
<polyline fill="none" stroke="black" points="118.5,-430.5 147.5,-430.5 "/>
<text text-anchor="middle" x="133" y="-418.5" font-family="Helvetica,sans-Serif" font-size="10.00"> </text>
<polyline fill="none" stroke="black" points="118.5,-411.5 147.5,-411.5 "/>
<text text-anchor="middle" x="133" y="-399.5" font-family="Helvetica,sans-Serif" font-size="10.00"> </text>
</a>
</g>
</g>
<!-- Node3&#45;&gt;Node1 -->
<g id="edge2" class="edge"><title>Node3&#45;&gt;Node1</title>
<path fill="none" stroke="#404040" d="M129.161,-392.399C124.502,-358.892 116.322,-300.075 108.727,-245.468"/>
<polygon fill="none" stroke="#404040" points="108.72,-245.413 103.931,-240.021 107.067,-233.527 111.855,-238.919 108.72,-245.413"/>
<text text-anchor="middle" x="155" y="-310.5" font-family="Helvetica,sans-Serif" font-size="10.00"> +nDetectors</text>
</g>
</g>
</svg>
