<?xml version="1.0" encoding="UTF-8" standalone="no"?>
<!DOCTYPE svg PUBLIC "-//W3C//DTD SVG 1.1//EN"
 "http://www.w3.org/Graphics/SVG/1.1/DTD/svg11.dtd">
<!-- Generated by graphviz version 2.36.0 (20140111.2315)
 -->
<!-- Title: /home/travis/build/AliceO2Group/AliceO2/Detectors/MUON/MID/Base/include/MIDBase/Constants.h Pages: 1 -->
<!--zoomable 422 -->
<svg id="main" version="1.1" xmlns="http://www.w3.org/2000/svg" xmlns:xlink="http://www.w3.org/1999/xlink" xml:space="preserve" onload="init(evt)">
<style type="text/css"><![CDATA[
.edge:hover path { stroke: red; }
.edge:hover polygon { stroke: red; fill: red; }
]]></style>
<script type="text/javascript"><![CDATA[
var edges = document.getElementsByTagName('g');
if (edges && edges.length) {
  for (var i=0;i<edges.length;i++) {
    if (edges[i].id.substr(0,4)=='edge') {
      edges[i].setAttribute('class','edge');
    }
  }
}
]]></script>
        <defs>
                <circle id="rim" cx="0" cy="0" r="7"/>
                <circle id="rim2" cx="0" cy="0" r="3.5"/>
                <g id="zoomPlus">
                        <use xlink:href="#rim" fill="#404040">
                                <set attributeName="fill" to="#808080" begin="zoomplus.mouseover" end="zoomplus.mouseout"/>
                        </use>
                        <path d="M-4,0h8M0,-4v8" fill="none" stroke="white" stroke-width="1.5" pointer-events="none"/>
                </g>
                <g id="zoomMin">
                        <use xlink:href="#rim" fill="#404040">
                                <set attributeName="fill" to="#808080" begin="zoomminus.mouseover" end="zoomminus.mouseout"/>
                        </use>
                        <path d="M-4,0h8" fill="none" stroke="white" stroke-width="1.5" pointer-events="none"/>
                </g>
                <g id="dirArrow">
                        <path fill="none" stroke="white" stroke-width="1.5" d="M0,-3.0v7 M-2.5,-0.5L0,-3.0L2.5,-0.5"/>
                </g>
               <g id="resetDef">
                       <use xlink:href="#rim2" fill="#404040">
                               <set attributeName="fill" to="#808080" begin="reset.mouseover" end="reset.mouseout"/>
                       </use>
               </g>
        </defs>

<script type="text/javascript">
var viewWidth = 1892;
var viewHeight = 422;
var sectionId = 'dynsection-1';
</script>
<script xlink:href="../../svgpan.js"/>
<svg id="graph" class="graph">
<g id="viewport">
<title>/home/travis/build/AliceO2Group/AliceO2/Detectors/MUON/MID/Base/include/MIDBase/Constants.h</title>
<!-- Node1 -->
<g id="node1" class="node"><title>Node1</title>
<polygon fill="#bfbfbf" stroke="black" points="1113.5,-361 1113.5,-413 1264.5,-413 1264.5,-361 1113.5,-361"/>
<text text-anchor="start" x="1121.5" y="-401" font-family="Helvetica,sans-Serif" font-size="10.00">/home/travis/build</text>
<text text-anchor="start" x="1121.5" y="-390" font-family="Helvetica,sans-Serif" font-size="10.00">/AliceO2Group/AliceO2</text>
<text text-anchor="start" x="1121.5" y="-379" font-family="Helvetica,sans-Serif" font-size="10.00">/Detectors/MUON/MID/Base</text>
<text text-anchor="middle" x="1189" y="-368" font-family="Helvetica,sans-Serif" font-size="10.00">/include/MIDBase/Constants.h</text>
</g>
<!-- Node2 -->
<g id="node2" class="node"><title>Node2</title>
<g id="a_node2"><a xlink:href="../../de/d0c/GeometryTransformer_8h.html" target="_top" xlink:title="Geometry transformer for MID. ">
<polygon fill="none" stroke="black" points="659.5,-271 659.5,-323 860.5,-323 860.5,-271 659.5,-271"/>
<text text-anchor="start" x="667.5" y="-311" font-family="Helvetica,sans-Serif" font-size="10.00">/home/travis/build</text>
<text text-anchor="start" x="667.5" y="-300" font-family="Helvetica,sans-Serif" font-size="10.00">/AliceO2Group/AliceO2</text>
<text text-anchor="start" x="667.5" y="-289" font-family="Helvetica,sans-Serif" font-size="10.00">/Detectors/MUON/MID/Base</text>
<text text-anchor="middle" x="760" y="-278" font-family="Helvetica,sans-Serif" font-size="10.00">/include/MIDBase/GeometryTransformer.h</text>
</a>
</g>
</g>
<!-- Node1&#45;&gt;Node2 -->
<g id="edge1" class="edge"><title>Node1&#45;&gt;Node2</title>
<path fill="none" stroke="midnightblue" d="M1103.19,-368.398C1033.27,-354.055 934.397,-333.774 860.725,-318.662"/>
<polygon fill="midnightblue" stroke="midnightblue" points="1102.79,-371.889 1113.29,-370.47 1104.2,-365.032 1102.79,-371.889"/>
</g>
<!-- Node3 -->
<g id="node3" class="node"><title>Node3</title>
<g id="a_node3"><a xlink:href="../../d7/d40/HitFinder_8h.html" target="_top" xlink:title="Hit finder for MID. ">
<polygon fill="none" stroke="black" points="172,-181 172,-233 318,-233 318,-181 172,-181"/>
<text text-anchor="start" x="180" y="-221" font-family="Helvetica,sans-Serif" font-size="10.00">/home/travis/build</text>
<text text-anchor="start" x="180" y="-210" font-family="Helvetica,sans-Serif" font-size="10.00">/AliceO2Group/AliceO2</text>
<text text-anchor="start" x="180" y="-199" font-family="Helvetica,sans-Serif" font-size="10.00">/Detectors/MUON/MID/Base</text>
<text text-anchor="middle" x="245" y="-188" font-family="Helvetica,sans-Serif" font-size="10.00">/include/MIDBase/HitFinder.h</text>
</a>
</g>
</g>
<!-- Node1&#45;&gt;Node3 -->
<g id="edge23" class="edge"><title>Node1&#45;&gt;Node3</title>
<path fill="none" stroke="midnightblue" d="M1103.36,-381.668C946.347,-373.151 618.358,-352.543 508,-324 427.799,-303.257 341.025,-260.64 289.924,-233.239"/>
<polygon fill="midnightblue" stroke="midnightblue" points="1103.28,-385.168 1113.46,-382.211 1103.66,-378.179 1103.28,-385.168"/>
</g>
<!-- Node4 -->
<g id="node4" class="node"><title>Node4</title>
<g id="a_node4"><a xlink:href="../../d4/dc0/HitFinder_8cxx.html" target="_top" xlink:title="Implementation of the hit finder for MID. ">
<polygon fill="none" stroke="black" points="-0.5,-91 -0.5,-143 142.5,-143 142.5,-91 -0.5,-91"/>
<text text-anchor="start" x="7.5" y="-131" font-family="Helvetica,sans-Serif" font-size="10.00">/home/travis/build</text>
<text text-anchor="start" x="7.5" y="-120" font-family="Helvetica,sans-Serif" font-size="10.00">/AliceO2Group/AliceO2</text>
<text text-anchor="start" x="7.5" y="-109" font-family="Helvetica,sans-Serif" font-size="10.00">/Detectors/MUON/MID/Base</text>
<text text-anchor="middle" x="71" y="-98" font-family="Helvetica,sans-Serif" font-size="10.00">/src/HitFinder.cxx</text>
</a>
</g>
</g>
<!-- Node1&#45;&gt;Node4 -->
<g id="edge26" class="edge"><title>Node1&#45;&gt;Node4</title>
<path fill="none" stroke="midnightblue" d="M1103.18,-383.269C921.385,-376.877 502.886,-358.786 365,-324 269.7,-299.958 240.662,-294.238 163,-234 130.097,-208.479 101.995,-168.806 85.7944,-143.112"/>
<polygon fill="midnightblue" stroke="midnightblue" points="1103.11,-386.769 1113.23,-383.619 1103.36,-379.773 1103.11,-386.769"/>
</g>
<!-- Node15 -->
<g id="node15" class="node"><title>Node15</title>
<g id="a_node15"><a xlink:href="../../d7/de7/MUON_2MID_2Simulation_2src_2Geometry_8cxx.html" target="_top" xlink:title="Implementation of the trigger&#45;stations geometry. ">
<polygon fill="none" stroke="black" points="1133.5,-91 1133.5,-143 1300.5,-143 1300.5,-91 1133.5,-91"/>
<text text-anchor="start" x="1141.5" y="-131" font-family="Helvetica,sans-Serif" font-size="10.00">/home/travis/build</text>
<text text-anchor="start" x="1141.5" y="-120" font-family="Helvetica,sans-Serif" font-size="10.00">/AliceO2Group/AliceO2</text>
<text text-anchor="start" x="1141.5" y="-109" font-family="Helvetica,sans-Serif" font-size="10.00">/Detectors/MUON/MID/Simulation</text>
<text text-anchor="middle" x="1217" y="-98" font-family="Helvetica,sans-Serif" font-size="10.00">/src/Geometry.cxx</text>
</a>
</g>
</g>
<!-- Node1&#45;&gt;Node15 -->
<g id="edge34" class="edge"><title>Node1&#45;&gt;Node15</title>
<path fill="none" stroke="midnightblue" d="M1192.67,-350.833C1198.4,-295.995 1209.33,-191.428 1214.35,-143.341"/>
<polygon fill="midnightblue" stroke="midnightblue" points="1189.19,-350.478 1191.63,-360.787 1196.15,-351.205 1189.19,-350.478"/>
</g>
<!-- Node18 -->
<g id="node18" class="node"><title>Node18</title>
<g id="a_node18"><a xlink:href="../../de/dbc/MUON_2MID_2Tracking_2src_2Tracker_8cxx.html" target="_top" xlink:title="Implementation of the tracker algorithm for the MID. ">
<polygon fill="none" stroke="black" points="513,-91 513,-143 671,-143 671,-91 513,-91"/>
<text text-anchor="start" x="521" y="-131" font-family="Helvetica,sans-Serif" font-size="10.00">/home/travis/build</text>
<text text-anchor="start" x="521" y="-120" font-family="Helvetica,sans-Serif" font-size="10.00">/AliceO2Group/AliceO2</text>
<text text-anchor="start" x="521" y="-109" font-family="Helvetica,sans-Serif" font-size="10.00">/Detectors/MUON/MID/Tracking</text>
<text text-anchor="middle" x="592" y="-98" font-family="Helvetica,sans-Serif" font-size="10.00">/src/Tracker.cxx</text>
</a>
</g>
</g>
<!-- Node1&#45;&gt;Node18 -->
<g id="edge35" class="edge"><title>Node1&#45;&gt;Node18</title>
<path fill="none" stroke="midnightblue" d="M1103.39,-382.066C972.543,-375.064 729.613,-357.882 650,-324 592.193,-299.398 567.776,-290.832 541,-234 530.771,-212.289 532.902,-202.592 541,-180 545.891,-166.355 555.225,-153.564 564.585,-143.185"/>
<polygon fill="midnightblue" stroke="midnightblue" points="1103.21,-385.561 1113.38,-382.593 1103.58,-378.571 1103.21,-385.561"/>
</g>
<!-- Node19 -->
<g id="node19" class="node"><title>Node19</title>
<g id="a_node19"><a xlink:href="../../d1/dbe/ChamberEfficiency_8cxx.html" target="_top" xlink:title="Implementation of the chamber efficiency for the MID RPC. ">
<polygon fill="none" stroke="black" points="1418.5,-271 1418.5,-323 1561.5,-323 1561.5,-271 1418.5,-271"/>
<text text-anchor="start" x="1426.5" y="-311" font-family="Helvetica,sans-Serif" font-size="10.00">/home/travis/build</text>
<text text-anchor="start" x="1426.5" y="-300" font-family="Helvetica,sans-Serif" font-size="10.00">/AliceO2Group/AliceO2</text>
<text text-anchor="start" x="1426.5" y="-289" font-family="Helvetica,sans-Serif" font-size="10.00">/Detectors/MUON/MID/Base</text>
<text text-anchor="middle" x="1490" y="-278" font-family="Helvetica,sans-Serif" font-size="10.00">/src/ChamberEfficiency.cxx</text>
</a>
</g>
</g>
<!-- Node1&#45;&gt;Node19 -->
<g id="edge24" class="edge"><title>Node1&#45;&gt;Node19</title>
<path fill="none" stroke="midnightblue" d="M1274.2,-362.757C1315.07,-351.411 1364.68,-337.354 1409,-324 1412.11,-323.063 1415.29,-322.094 1418.49,-321.107"/>
<polygon fill="midnightblue" stroke="midnightblue" points="1273.24,-359.389 1264.54,-365.432 1275.11,-366.135 1273.24,-359.389"/>
</g>
<!-- Node20 -->
<g id="node20" class="node"><title>Node20</title>
<g id="a_node20"><a xlink:href="../../d2/d2a/Constants_8cxx.html" target="_top" xlink:title="Implementation of constants for MID. ">
<polygon fill="none" stroke="black" points="1579.5,-271 1579.5,-323 1722.5,-323 1722.5,-271 1579.5,-271"/>
<text text-anchor="start" x="1587.5" y="-311" font-family="Helvetica,sans-Serif" font-size="10.00">/home/travis/build</text>
<text text-anchor="start" x="1587.5" y="-300" font-family="Helvetica,sans-Serif" font-size="10.00">/AliceO2Group/AliceO2</text>
<text text-anchor="start" x="1587.5" y="-289" font-family="Helvetica,sans-Serif" font-size="10.00">/Detectors/MUON/MID/Base</text>
<text text-anchor="middle" x="1651" y="-278" font-family="Helvetica,sans-Serif" font-size="10.00">/src/Constants.cxx</text>
</a>
</g>
</g>
<!-- Node1&#45;&gt;Node20 -->
<g id="edge25" class="edge"><title>Node1&#45;&gt;Node20</title>
<path fill="none" stroke="midnightblue" d="M1275.07,-375.727C1352.77,-365.572 1469.91,-348.064 1570,-324 1573.02,-323.275 1576.08,-322.494 1579.17,-321.671"/>
<polygon fill="midnightblue" stroke="midnightblue" points="1274.31,-372.296 1264.84,-377.051 1275.21,-379.238 1274.31,-372.296"/>
</g>
<!-- Node21 -->
<g id="node21" class="node"><title>Node21</title>
<g id="a_node21"><a xlink:href="../../d9/d73/MID_2Base_2src_2Mapping_8cxx.html" target="_top" xlink:title="Implementation of mapping for MID. ">
<polygon fill="none" stroke="black" points="1740.5,-271 1740.5,-323 1883.5,-323 1883.5,-271 1740.5,-271"/>
<text text-anchor="start" x="1748.5" y="-311" font-family="Helvetica,sans-Serif" font-size="10.00">/home/travis/build</text>
<text text-anchor="start" x="1748.5" y="-300" font-family="Helvetica,sans-Serif" font-size="10.00">/AliceO2Group/AliceO2</text>
<text text-anchor="start" x="1748.5" y="-289" font-family="Helvetica,sans-Serif" font-size="10.00">/Detectors/MUON/MID/Base</text>
<text text-anchor="middle" x="1812" y="-278" font-family="Helvetica,sans-Serif" font-size="10.00">/src/Mapping.cxx</text>
</a>
</g>
</g>
<!-- Node1&#45;&gt;Node21 -->
<g id="edge27" class="edge"><title>Node1&#45;&gt;Node21</title>
<path fill="none" stroke="midnightblue" d="M1274.88,-381.404C1382.46,-374.454 1572.02,-358.259 1731,-324 1734.03,-323.347 1737.11,-322.626 1740.21,-321.852"/>
<polygon fill="midnightblue" stroke="midnightblue" points="1274.48,-377.922 1264.72,-382.048 1274.92,-384.908 1274.48,-377.922"/>
</g>
<!-- Node22 -->
<g id="node22" class="node"><title>Node22</title>
<g id="a_node22"><a xlink:href="../../d8/d82/ChamberHV_8h.html" target="_top" xlink:title="HV values for MID RPCs. ">
<polygon fill="none" stroke="black" points="1217.5,-271 1217.5,-323 1400.5,-323 1400.5,-271 1217.5,-271"/>
<text text-anchor="start" x="1225.5" y="-311" font-family="Helvetica,sans-Serif" font-size="10.00">/home/travis/build</text>
<text text-anchor="start" x="1225.5" y="-300" font-family="Helvetica,sans-Serif" font-size="10.00">/AliceO2Group/AliceO2</text>
<text text-anchor="start" x="1225.5" y="-289" font-family="Helvetica,sans-Serif" font-size="10.00">/Detectors/MUON/MID/Simulation</text>
<text text-anchor="middle" x="1309" y="-278" font-family="Helvetica,sans-Serif" font-size="10.00">/include/MIDSimulation/ChamberHV.h</text>
</a>
</g>
</g>
<!-- Node1&#45;&gt;Node22 -->
<g id="edge28" class="edge"><title>Node1&#45;&gt;Node22</title>
<path fill="none" stroke="midnightblue" d="M1231.51,-354.824C1245.64,-344.467 1261.18,-333.071 1274.61,-323.221"/>
<polygon fill="midnightblue" stroke="midnightblue" points="1229.38,-352.047 1223.39,-360.783 1233.52,-357.691 1229.38,-352.047"/>
</g>
<!-- Node2&#45;&gt;Node3 -->
<g id="edge2" class="edge"><title>Node2&#45;&gt;Node3</title>
<path fill="none" stroke="midnightblue" d="M649.385,-285.247C561.342,-275.472 435.353,-258.758 327,-234 324.088,-233.335 321.131,-232.615 318.153,-231.852"/>
<polygon fill="midnightblue" stroke="midnightblue" points="649.07,-288.734 659.392,-286.347 649.834,-281.776 649.07,-288.734"/>
</g>
<!-- Node7 -->
<g id="node7" class="node"><title>Node7</title>
<g id="a_node7"><a xlink:href="../../dc/d25/GeometryTransformer_8cxx.html" target="_top" xlink:title="Geometry transformer for MID. ">
<polygon fill="none" stroke="black" points="978,-181 978,-233 1128,-233 1128,-181 978,-181"/>
<text text-anchor="start" x="986" y="-221" font-family="Helvetica,sans-Serif" font-size="10.00">/home/travis/build</text>
<text text-anchor="start" x="986" y="-210" font-family="Helvetica,sans-Serif" font-size="10.00">/AliceO2Group/AliceO2</text>
<text text-anchor="start" x="986" y="-199" font-family="Helvetica,sans-Serif" font-size="10.00">/Detectors/MUON/MID/Base</text>
<text text-anchor="middle" x="1053" y="-188" font-family="Helvetica,sans-Serif" font-size="10.00">/src/GeometryTransformer.cxx</text>
</a>
</g>
</g>
<!-- Node2&#45;&gt;Node7 -->
<g id="edge6" class="edge"><title>Node2&#45;&gt;Node7</title>
<path fill="none" stroke="midnightblue" d="M855.162,-268.027C890.89,-257.458 931.836,-245.263 969,-234 971.922,-233.114 974.9,-232.209 977.908,-231.291"/>
<polygon fill="midnightblue" stroke="midnightblue" points="853.829,-264.772 845.231,-270.963 855.813,-271.485 853.829,-264.772"/>
</g>
<!-- Node8 -->
<g id="node8" class="node"><title>Node8</title>
<g id="a_node8"><a xlink:href="../../d3/d9d/Positions_8cxx.html" target="_top" xlink:title="/home/travis/build\l/AliceO2Group/AliceO2\l/Detectors/MUON/MID/Base\l/test/src/Positions.cxx">
<polygon fill="none" stroke="black" points="550.5,-181 550.5,-233 693.5,-233 693.5,-181 550.5,-181"/>
<text text-anchor="start" x="558.5" y="-221" font-family="Helvetica,sans-Serif" font-size="10.00">/home/travis/build</text>
<text text-anchor="start" x="558.5" y="-210" font-family="Helvetica,sans-Serif" font-size="10.00">/AliceO2Group/AliceO2</text>
<text text-anchor="start" x="558.5" y="-199" font-family="Helvetica,sans-Serif" font-size="10.00">/Detectors/MUON/MID/Base</text>
<text text-anchor="middle" x="622" y="-188" font-family="Helvetica,sans-Serif" font-size="10.00">/test/src/Positions.cxx</text>
</a>
</g>
</g>
<!-- Node2&#45;&gt;Node8 -->
<g id="edge7" class="edge"><title>Node2&#45;&gt;Node8</title>
<path fill="none" stroke="midnightblue" d="M712.02,-265.404C695.538,-254.894 677.287,-243.255 661.551,-233.221"/>
<polygon fill="midnightblue" stroke="midnightblue" points="710.141,-268.357 720.455,-270.783 713.905,-262.455 710.141,-268.357"/>
</g>
<!-- Node9 -->
<g id="node9" class="node"><title>Node9</title>
<g id="a_node9"><a xlink:href="../../da/de1/MUON_2MID_2Simulation_2include_2MIDSimulation_2Digitizer_8h.html" target="_top" xlink:title="Digitizer for MID. ">
<polygon fill="none" stroke="black" points="1318.5,-91 1318.5,-143 1485.5,-143 1485.5,-91 1318.5,-91"/>
<text text-anchor="start" x="1326.5" y="-131" font-family="Helvetica,sans-Serif" font-size="10.00">/home/travis/build</text>
<text text-anchor="start" x="1326.5" y="-120" font-family="Helvetica,sans-Serif" font-size="10.00">/AliceO2Group/AliceO2</text>
<text text-anchor="start" x="1326.5" y="-109" font-family="Helvetica,sans-Serif" font-size="10.00">/Detectors/MUON/MID/Simulation</text>
<text text-anchor="middle" x="1402" y="-98" font-family="Helvetica,sans-Serif" font-size="10.00">/include/MIDSimulation/Digitizer.h</text>
</a>
</g>
</g>
<!-- Node2&#45;&gt;Node9 -->
<g id="edge8" class="edge"><title>Node2&#45;&gt;Node9</title>
<path fill="none" stroke="midnightblue" d="M870.922,-290.893C947.765,-284.232 1051.11,-268.955 1136,-234 1174.32,-218.224 1174.99,-198.64 1212,-180 1231.29,-170.284 1276.76,-155.354 1318.37,-142.58"/>
<polygon fill="midnightblue" stroke="midnightblue" points="870.412,-287.424 860.736,-291.739 870.991,-294.399 870.412,-287.424"/>
</g>
<!-- Node11 -->
<g id="node11" class="node"><title>Node11</title>
<g id="a_node11"><a xlink:href="../../d6/d45/testSimulation_8cxx.html" target="_top" xlink:title="/home/travis/build\l/AliceO2Group/AliceO2\l/Detectors/MUON/MID/Simulation\l/test/testSimulation.cxx">
<polygon fill="none" stroke="black" points="883.5,-1 883.5,-53 1050.5,-53 1050.5,-1 883.5,-1"/>
<text text-anchor="start" x="891.5" y="-41" font-family="Helvetica,sans-Serif" font-size="10.00">/home/travis/build</text>
<text text-anchor="start" x="891.5" y="-30" font-family="Helvetica,sans-Serif" font-size="10.00">/AliceO2Group/AliceO2</text>
<text text-anchor="start" x="891.5" y="-19" font-family="Helvetica,sans-Serif" font-size="10.00">/Detectors/MUON/MID/Simulation</text>
<text text-anchor="middle" x="967" y="-8" font-family="Helvetica,sans-Serif" font-size="10.00">/test/testSimulation.cxx</text>
</a>
</g>
</g>
<!-- Node2&#45;&gt;Node11 -->
<g id="edge18" class="edge"><title>Node2&#45;&gt;Node11</title>
<path fill="none" stroke="midnightblue" d="M737.955,-262.265C712.144,-218.084 677.618,-140.342 717,-90 737.527,-63.7606 818.849,-47.0623 883.244,-37.6876"/>
<polygon fill="midnightblue" stroke="midnightblue" points="734.99,-264.127 743.138,-270.899 740.991,-260.524 734.99,-264.127"/>
</g>
<!-- Node13 -->
<g id="node13" class="node"><title>Node13</title>
<g id="a_node13"><a xlink:href="../../d1/db4/MUON_2MID_2Simulation_2include_2MIDSimulation_2Geometry_8h.html" target="_top" xlink:title="Implementation of the trigger&#45;stations geometry. ">
<polygon fill="none" stroke="black" points="788,-181 788,-233 960,-233 960,-181 788,-181"/>
<text text-anchor="start" x="796" y="-221" font-family="Helvetica,sans-Serif" font-size="10.00">/home/travis/build</text>
<text text-anchor="start" x="796" y="-210" font-family="Helvetica,sans-Serif" font-size="10.00">/AliceO2Group/AliceO2</text>
<text text-anchor="start" x="796" y="-199" font-family="Helvetica,sans-Serif" font-size="10.00">/Detectors/MUON/MID/Simulation</text>
<text text-anchor="middle" x="874" y="-188" font-family="Helvetica,sans-Serif" font-size="10.00">/include/MIDSimulation/Geometry.h</text>
</a>
</g>
</g>
<!-- Node2&#45;&gt;Node13 -->
<g id="edge12" class="edge"><title>Node2&#45;&gt;Node13</title>
<path fill="none" stroke="midnightblue" d="M800.763,-264.534C814.08,-254.254 828.686,-242.979 841.327,-233.221"/>
<polygon fill="midnightblue" stroke="midnightblue" points="798.445,-261.902 792.668,-270.783 802.722,-267.443 798.445,-261.902"/>
</g>
<!-- Node16 -->
<g id="node16" class="node"><title>Node16</title>
<g id="a_node16"><a xlink:href="../../d1/d58/MID_2Simulation_2test_2testGeometry_8cxx.html" target="_top" xlink:title="/home/travis/build\l/AliceO2Group/AliceO2\l/Detectors/MUON/MID/Simulation\l/test/testGeometry.cxx">
<polygon fill="none" stroke="black" points="726.5,-91 726.5,-143 893.5,-143 893.5,-91 726.5,-91"/>
<text text-anchor="start" x="734.5" y="-131" font-family="Helvetica,sans-Serif" font-size="10.00">/home/travis/build</text>
<text text-anchor="start" x="734.5" y="-120" font-family="Helvetica,sans-Serif" font-size="10.00">/AliceO2Group/AliceO2</text>
<text text-anchor="start" x="734.5" y="-109" font-family="Helvetica,sans-Serif" font-size="10.00">/Detectors/MUON/MID/Simulation</text>
<text text-anchor="middle" x="810" y="-98" font-family="Helvetica,sans-Serif" font-size="10.00">/test/testGeometry.cxx</text>
</a>
</g>
</g>
<!-- Node2&#45;&gt;Node16 -->
<g id="edge17" class="edge"><title>Node2&#45;&gt;Node16</title>
<path fill="none" stroke="midnightblue" d="M763.019,-260.466C765.677,-237.165 770.499,-206.266 779,-180 783.076,-167.405 789.373,-154.187 795.229,-143.206"/>
<polygon fill="midnightblue" stroke="midnightblue" points="759.52,-260.279 761.945,-270.593 766.481,-261.018 759.52,-260.279"/>
</g>
<!-- Node17 -->
<g id="node17" class="node"><title>Node17</title>
<g id="a_node17"><a xlink:href="../../db/d8e/MUON_2MID_2Tracking_2include_2MIDTracking_2Tracker_8h.html" target="_top" xlink:title="Track reconstruction algorithm for MID. ">
<polygon fill="none" stroke="black" points="336,-181 336,-233 494,-233 494,-181 336,-181"/>
<text text-anchor="start" x="344" y="-221" font-family="Helvetica,sans-Serif" font-size="10.00">/home/travis/build</text>
<text text-anchor="start" x="344" y="-210" font-family="Helvetica,sans-Serif" font-size="10.00">/AliceO2Group/AliceO2</text>
<text text-anchor="start" x="344" y="-199" font-family="Helvetica,sans-Serif" font-size="10.00">/Detectors/MUON/MID/Tracking</text>
<text text-anchor="middle" x="415" y="-188" font-family="Helvetica,sans-Serif" font-size="10.00">/include/MIDTracking/Tracker.h</text>
</a>
</g>
</g>
<!-- Node2&#45;&gt;Node17 -->
<g id="edge19" class="edge"><title>Node2&#45;&gt;Node17</title>
<path fill="none" stroke="midnightblue" d="M651.836,-268.41C600.749,-255.379 540.873,-240.107 494.108,-228.178"/>
<polygon fill="midnightblue" stroke="midnightblue" points="651.044,-271.82 661.599,-270.901 652.774,-265.037 651.044,-271.82"/>
</g>
<!-- Node3&#45;&gt;Node4 -->
<g id="edge3" class="edge"><title>Node3&#45;&gt;Node4</title>
<path fill="none" stroke="midnightblue" d="M186.175,-176.249C164.857,-165.468 141.009,-153.407 120.568,-143.069"/>
<polygon fill="midnightblue" stroke="midnightblue" points="184.635,-179.393 195.139,-180.783 187.795,-173.146 184.635,-179.393"/>
</g>
<!-- Node5 -->
<g id="node5" class="node"><title>Node5</title>
<g id="a_node5"><a xlink:href="../../d0/db9/bench__Tracker_8cxx.html" target="_top" xlink:title="Benchmark tracker device for MID. ">
<polygon fill="none" stroke="black" points="161,-91 161,-143 319,-143 319,-91 161,-91"/>
<text text-anchor="start" x="169" y="-131" font-family="Helvetica,sans-Serif" font-size="10.00">/home/travis/build</text>
<text text-anchor="start" x="169" y="-120" font-family="Helvetica,sans-Serif" font-size="10.00">/AliceO2Group/AliceO2</text>
<text text-anchor="start" x="169" y="-109" font-family="Helvetica,sans-Serif" font-size="10.00">/Detectors/MUON/MID/Tracking</text>
<text text-anchor="middle" x="240" y="-98" font-family="Helvetica,sans-Serif" font-size="10.00">/test/bench_Tracker.cxx</text>
</a>
</g>
</g>
<!-- Node3&#45;&gt;Node5 -->
<g id="edge4" class="edge"><title>Node3&#45;&gt;Node5</title>
<path fill="none" stroke="midnightblue" d="M242.982,-170.489C242.461,-161.309 241.91,-151.616 241.426,-143.092"/>
<polygon fill="midnightblue" stroke="midnightblue" points="239.492,-170.761 243.554,-180.547 246.481,-170.364 239.492,-170.761"/>
</g>
<!-- Node6 -->
<g id="node6" class="node"><title>Node6</title>
<g id="a_node6"><a xlink:href="../../da/de0/testTracker_8cxx.html" target="_top" xlink:title="Test tracking device for MID. ">
<polygon fill="none" stroke="black" points="337,-91 337,-143 495,-143 495,-91 337,-91"/>
<text text-anchor="start" x="345" y="-131" font-family="Helvetica,sans-Serif" font-size="10.00">/home/travis/build</text>
<text text-anchor="start" x="345" y="-120" font-family="Helvetica,sans-Serif" font-size="10.00">/AliceO2Group/AliceO2</text>
<text text-anchor="start" x="345" y="-109" font-family="Helvetica,sans-Serif" font-size="10.00">/Detectors/MUON/MID/Tracking</text>
<text text-anchor="middle" x="416" y="-98" font-family="Helvetica,sans-Serif" font-size="10.00">/test/testTracker.cxx</text>
</a>
</g>
</g>
<!-- Node3&#45;&gt;Node6 -->
<g id="edge5" class="edge"><title>Node3&#45;&gt;Node6</title>
<path fill="none" stroke="midnightblue" d="M303.092,-176.105C323.971,-165.36 347.288,-153.361 367.287,-143.069"/>
<polygon fill="midnightblue" stroke="midnightblue" points="301.292,-173.095 294.002,-180.783 304.495,-179.319 301.292,-173.095"/>
</g>
<!-- Node10 -->
<g id="node10" class="node"><title>Node10</title>
<g id="a_node10"><a xlink:href="../../d6/df9/MUON_2MID_2Simulation_2src_2Digitizer_8cxx.html" target="_top" xlink:title="Implementation of the digitizer for MID. ">
<polygon fill="none" stroke="black" points="1402.5,-1 1402.5,-53 1569.5,-53 1569.5,-1 1402.5,-1"/>
<text text-anchor="start" x="1410.5" y="-41" font-family="Helvetica,sans-Serif" font-size="10.00">/home/travis/build</text>
<text text-anchor="start" x="1410.5" y="-30" font-family="Helvetica,sans-Serif" font-size="10.00">/AliceO2Group/AliceO2</text>
<text text-anchor="start" x="1410.5" y="-19" font-family="Helvetica,sans-Serif" font-size="10.00">/Detectors/MUON/MID/Simulation</text>
<text text-anchor="middle" x="1486" y="-8" font-family="Helvetica,sans-Serif" font-size="10.00">/src/Digitizer.cxx</text>
</a>
</g>
</g>
<!-- Node9&#45;&gt;Node10 -->
<g id="edge9" class="edge"><title>Node9&#45;&gt;Node10</title>
<path fill="none" stroke="midnightblue" d="M1433.37,-83.1386C1442.86,-73.1958 1453.12,-62.4408 1462.05,-53.0921"/>
<polygon fill="midnightblue" stroke="midnightblue" points="1430.67,-80.8965 1426.3,-90.5468 1435.73,-85.7298 1430.67,-80.8965"/>
</g>
<!-- Node9&#45;&gt;Node11 -->
<g id="edge10" class="edge"><title>Node9&#45;&gt;Node11</title>
<path fill="none" stroke="midnightblue" d="M1308.49,-89.9677C1214.64,-68.6881 1117.86,-51.8308 1050.72,-40.9385"/>
<polygon fill="midnightblue" stroke="midnightblue" points="1307.91,-93.4261 1318.44,-92.2435 1309.47,-86.6023 1307.91,-93.4261"/>
</g>
<!-- Node12 -->
<g id="node12" class="node"><title>Node12</title>
<g id="a_node12"><a xlink:href="../../d4/dd3/MIDDigitizerSpec_8cxx.html" target="_top" xlink:title="/home/travis/build\l/AliceO2Group/AliceO2\l/Steer/DigitizerWorkflow\l/src/MIDDigitizerSpec.cxx">
<polygon fill="none" stroke="black" points="1252,-1 1252,-53 1384,-53 1384,-1 1252,-1"/>
<text text-anchor="start" x="1260" y="-41" font-family="Helvetica,sans-Serif" font-size="10.00">/home/travis/build</text>
<text text-anchor="start" x="1260" y="-30" font-family="Helvetica,sans-Serif" font-size="10.00">/AliceO2Group/AliceO2</text>
<text text-anchor="start" x="1260" y="-19" font-family="Helvetica,sans-Serif" font-size="10.00">/Steer/DigitizerWorkflow</text>
<text text-anchor="middle" x="1318" y="-8" font-family="Helvetica,sans-Serif" font-size="10.00">/src/MIDDigitizerSpec.cxx</text>
</a>
</g>
</g>
<!-- Node9&#45;&gt;Node12 -->
<g id="edge11" class="edge"><title>Node9&#45;&gt;Node12</title>
<path fill="none" stroke="midnightblue" d="M1370.63,-83.1386C1361.14,-73.1958 1350.88,-62.4408 1341.95,-53.0921"/>
<polygon fill="midnightblue" stroke="midnightblue" points="1368.27,-85.7298 1377.7,-90.5468 1373.33,-80.8965 1368.27,-85.7298"/>
</g>
<!-- Node13&#45;&gt;Node12 -->
<g id="edge16" class="edge"><title>Node13&#45;&gt;Node12</title>
<path fill="none" stroke="midnightblue" d="M889.227,-171.519C903.313,-141.202 924.243,-100.338 939,-90 964.187,-72.3549 1149.93,-47.94 1251.72,-35.6784"/>
<polygon fill="midnightblue" stroke="midnightblue" points="885.894,-170.39 884.91,-180.939 892.258,-173.306 885.894,-170.39"/>
</g>
<!-- Node14 -->
<g id="node14" class="node"><title>Node14</title>
<g id="a_node14"><a xlink:href="../../db/dac/MUON_2MID_2Simulation_2src_2Detector_8cxx.html" target="_top" xlink:title="/home/travis/build\l/AliceO2Group/AliceO2\l/Detectors/MUON/MID/Simulation\l/src/Detector.cxx">
<polygon fill="none" stroke="black" points="948.5,-91 948.5,-143 1115.5,-143 1115.5,-91 948.5,-91"/>
<text text-anchor="start" x="956.5" y="-131" font-family="Helvetica,sans-Serif" font-size="10.00">/home/travis/build</text>
<text text-anchor="start" x="956.5" y="-120" font-family="Helvetica,sans-Serif" font-size="10.00">/AliceO2Group/AliceO2</text>
<text text-anchor="start" x="956.5" y="-109" font-family="Helvetica,sans-Serif" font-size="10.00">/Detectors/MUON/MID/Simulation</text>
<text text-anchor="middle" x="1032" y="-98" font-family="Helvetica,sans-Serif" font-size="10.00">/src/Detector.cxx</text>
</a>
</g>
</g>
<!-- Node13&#45;&gt;Node14 -->
<g id="edge13" class="edge"><title>Node13&#45;&gt;Node14</title>
<path fill="none" stroke="midnightblue" d="M928.195,-175.815C947.353,-165.145 968.677,-153.268 986.99,-143.069"/>
<polygon fill="midnightblue" stroke="midnightblue" points="926.31,-172.859 919.276,-180.783 929.716,-178.975 926.31,-172.859"/>
</g>
<!-- Node13&#45;&gt;Node15 -->
<g id="edge14" class="edge"><title>Node13&#45;&gt;Node15</title>
<path fill="none" stroke="midnightblue" d="M970.254,-179.726C1039.28,-162.527 1058.56,-160.738 1124,-144 1127.09,-143.211 1130.23,-142.395 1133.4,-141.562"/>
<polygon fill="midnightblue" stroke="midnightblue" points="969.021,-176.427 960.175,-182.258 970.726,-183.216 969.021,-176.427"/>
</g>
<!-- Node13&#45;&gt;Node16 -->
<g id="edge15" class="edge"><title>Node13&#45;&gt;Node16</title>
<path fill="none" stroke="midnightblue" d="M849.461,-172.259C842.41,-162.564 834.848,-152.166 828.249,-143.092"/>
<polygon fill="midnightblue" stroke="midnightblue" points="846.776,-174.518 855.489,-180.547 852.437,-170.401 846.776,-174.518"/>
</g>
<!-- Node17&#45;&gt;Node5 -->
<g id="edge21" class="edge"><title>Node17&#45;&gt;Node5</title>
<path fill="none" stroke="midnightblue" d="M355.837,-176.249C334.396,-165.468 310.411,-153.407 289.853,-143.069"/>
<polygon fill="midnightblue" stroke="midnightblue" points="354.346,-179.417 364.852,-180.783 357.49,-173.163 354.346,-179.417"/>
</g>
<!-- Node17&#45;&gt;Node6 -->
<g id="edge22" class="edge"><title>Node17&#45;&gt;Node6</title>
<path fill="none" stroke="midnightblue" d="M415.404,-170.489C415.508,-161.309 415.618,-151.616 415.715,-143.092"/>
<polygon fill="midnightblue" stroke="midnightblue" points="411.903,-170.508 415.289,-180.547 418.903,-170.587 411.903,-170.508"/>
</g>
<!-- Node17&#45;&gt;Node18 -->
<g id="edge20" class="edge"><title>Node17&#45;&gt;Node18</title>
<path fill="none" stroke="midnightblue" d="M474.84,-176.249C496.525,-165.468 520.784,-153.407 541.578,-143.069"/>
<polygon fill="midnightblue" stroke="midnightblue" points="473.117,-173.197 465.721,-180.783 476.234,-179.465 473.117,-173.197"/>
</g>
<!-- Node23 -->
<g id="node23" class="node"><title>Node23</title>
<g id="a_node23"><a xlink:href="../../d5/d62/ChamberResponse_8h.html" target="_top" xlink:title="MID RPC response. ">
<polygon fill="none" stroke="black" points="1406.5,-181 1406.5,-233 1619.5,-233 1619.5,-181 1406.5,-181"/>
<text text-anchor="start" x="1414.5" y="-221" font-family="Helvetica,sans-Serif" font-size="10.00">/home/travis/build</text>
<text text-anchor="start" x="1414.5" y="-210" font-family="Helvetica,sans-Serif" font-size="10.00">/AliceO2Group/AliceO2</text>
<text text-anchor="start" x="1414.5" y="-199" font-family="Helvetica,sans-Serif" font-size="10.00">/Detectors/MUON/MID/Simulation</text>
<text text-anchor="middle" x="1513" y="-188" font-family="Helvetica,sans-Serif" font-size="10.00">/include/MIDSimulation/ChamberResponse.h</text>
</a>
</g>
</g>
<!-- Node22&#45;&gt;Node23 -->
<g id="edge29" class="edge"><title>Node22&#45;&gt;Node23</title>
<path fill="none" stroke="midnightblue" d="M1376.7,-266.798C1401.96,-255.9 1430.4,-243.632 1454.74,-233.133"/>
<polygon fill="midnightblue" stroke="midnightblue" points="1374.98,-263.726 1367.19,-270.901 1377.75,-270.153 1374.98,-263.726"/>
</g>
<!-- Node25 -->
<g id="node25" class="node"><title>Node25</title>
<g id="a_node25"><a xlink:href="../../d1/d9f/ChamberHV_8cxx.html" target="_top" xlink:title="Implementation of the HV for MID RPCs. ">
<polygon fill="none" stroke="black" points="1221.5,-181 1221.5,-233 1388.5,-233 1388.5,-181 1221.5,-181"/>
<text text-anchor="start" x="1229.5" y="-221" font-family="Helvetica,sans-Serif" font-size="10.00">/home/travis/build</text>
<text text-anchor="start" x="1229.5" y="-210" font-family="Helvetica,sans-Serif" font-size="10.00">/AliceO2Group/AliceO2</text>
<text text-anchor="start" x="1229.5" y="-199" font-family="Helvetica,sans-Serif" font-size="10.00">/Detectors/MUON/MID/Simulation</text>
<text text-anchor="middle" x="1305" y="-188" font-family="Helvetica,sans-Serif" font-size="10.00">/src/ChamberHV.cxx</text>
</a>
</g>
</g>
<!-- Node22&#45;&gt;Node25 -->
<g id="edge33" class="edge"><title>Node22&#45;&gt;Node25</title>
<path fill="none" stroke="midnightblue" d="M1307.39,-260.489C1306.97,-251.309 1306.53,-241.616 1306.14,-233.092"/>
<polygon fill="midnightblue" stroke="midnightblue" points="1303.89,-260.716 1307.84,-270.547 1310.89,-260.398 1303.89,-260.716"/>
</g>
<!-- Node23&#45;&gt;Node9 -->
<g id="edge30" class="edge"><title>Node23&#45;&gt;Node9</title>
<path fill="none" stroke="midnightblue" d="M1473.31,-174.534C1460.34,-164.254 1446.12,-152.979 1433.81,-143.221"/>
<polygon fill="midnightblue" stroke="midnightblue" points="1471.18,-177.313 1481.19,-180.783 1475.53,-171.828 1471.18,-177.313"/>
</g>
<!-- Node23&#45;&gt;Node12 -->
<g id="edge32" class="edge"><title>Node23&#45;&gt;Node12</title>
<path fill="none" stroke="midnightblue" d="M1516.12,-170.561C1516.4,-145.359 1512.57,-112.176 1494,-90 1493.52,-89.4218 1433.97,-68.5135 1384.28,-51.1365"/>
<polygon fill="midnightblue" stroke="midnightblue" points="1512.62,-170.706 1515.78,-180.817 1519.61,-170.939 1512.62,-170.706"/>
</g>
<!-- Node24 -->
<g id="node24" class="node"><title>Node24</title>
<g id="a_node24"><a xlink:href="../../de/dc3/ChamberResponse_8cxx.html" target="_top" xlink:title="Implementation MID RPC response. ">
<polygon fill="none" stroke="black" points="1540.5,-91 1540.5,-143 1707.5,-143 1707.5,-91 1540.5,-91"/>
<text text-anchor="start" x="1548.5" y="-131" font-family="Helvetica,sans-Serif" font-size="10.00">/home/travis/build</text>
<text text-anchor="start" x="1548.5" y="-120" font-family="Helvetica,sans-Serif" font-size="10.00">/AliceO2Group/AliceO2</text>
<text text-anchor="start" x="1548.5" y="-109" font-family="Helvetica,sans-Serif" font-size="10.00">/Detectors/MUON/MID/Simulation</text>
<text text-anchor="middle" x="1624" y="-98" font-family="Helvetica,sans-Serif" font-size="10.00">/src/ChamberResponse.cxx</text>
</a>
</g>
</g>
<!-- Node23&#45;&gt;Node24 -->
<g id="edge31" class="edge"><title>Node23&#45;&gt;Node24</title>
<path fill="none" stroke="midnightblue" d="M1552.69,-174.534C1565.66,-164.254 1579.88,-152.979 1592.19,-143.221"/>
<polygon fill="midnightblue" stroke="midnightblue" points="1550.47,-171.828 1544.81,-180.783 1554.82,-177.313 1550.47,-171.828"/>
</g>
</g>
</svg>
        <g id="navigator" transform="translate(0 0)" fill="#404254">
                <rect fill="#f2f5e9" fill-opacity="0.5" stroke="#606060" stroke-width=".5" x="0" y="0" width="60" height="60"/>
                <use id="zoomplus" xlink:href="#zoomPlus" x="17" y="9" onmousedown="handleZoom(evt,'in')"/>
                <use id="zoomminus" xlink:href="#zoomMin" x="42" y="9" onmousedown="handleZoom(evt,'out')"/>
                <use id="reset" xlink:href="#resetDef" x="30" y="36" onmousedown="handleReset()"/>
                <g id="arrowUp" xlink:href="#dirArrow" transform="translate(30 24)" onmousedown="handlePan(0,-1)">
                  <use xlink:href="#rim" fill="#404040">
                        <set attributeName="fill" to="#808080" begin="arrowUp.mouseover" end="arrowUp.mouseout"/>
                  </use>
                  <path fill="none" stroke="white" stroke-width="1.5" d="M0,-3.0v7 M-2.5,-0.5L0,-3.0L2.5,-0.5"/>
                </g>
                <g id="arrowRight" xlink:href="#dirArrow" transform="rotate(90) translate(36 -43)" onmousedown="handlePan(1,0)">
                  <use xlink:href="#rim" fill="#404040">
                        <set attributeName="fill" to="#808080" begin="arrowRight.mouseover" end="arrowRight.mouseout"/>
                  </use>
                  <path fill="none" stroke="white" stroke-width="1.5" d="M0,-3.0v7 M-2.5,-0.5L0,-3.0L2.5,-0.5"/>
                </g>
                <g id="arrowDown" xlink:href="#dirArrow" transform="rotate(180) translate(-30 -48)" onmousedown="handlePan(0,1)">
                  <use xlink:href="#rim" fill="#404040">
                        <set attributeName="fill" to="#808080" begin="arrowDown.mouseover" end="arrowDown.mouseout"/>
                  </use>
                  <path fill="none" stroke="white" stroke-width="1.5" d="M0,-3.0v7 M-2.5,-0.5L0,-3.0L2.5,-0.5"/>
                </g>
                <g id="arrowLeft" xlink:href="#dirArrow" transform="rotate(270) translate(-36 17)" onmousedown="handlePan(-1,0)">
                  <use xlink:href="#rim" fill="#404040">
                        <set attributeName="fill" to="#808080" begin="arrowLeft.mouseover" end="arrowLeft.mouseout"/>
                  </use>
                  <path fill="none" stroke="white" stroke-width="1.5" d="M0,-3.0v7 M-2.5,-0.5L0,-3.0L2.5,-0.5"/>
                </g>
        </g>
        <svg viewBox="0 0 15 15" width="100%" height="30px" preserveAspectRatio="xMaxYMin meet">
         <g id="arrow_out" transform="scale(0.3 0.3)">
          <a xlink:href="Detectors_2MUON_2MID_2Base_2include_2MIDBase_2Constants_8h__dep__incl_org.svg" target="_base">
           <rect id="button" ry="5" rx="5" y="6" x="6" height="38" width="38"
                fill="#f2f5e9" fill-opacity="0.5" stroke="#606060" stroke-width="1.0"/>
           <path id="arrow"
             d="M 11.500037,31.436501 C 11.940474,20.09759 22.043105,11.32322 32.158766,21.979434 L 37.068811,17.246167 C 37.068811,17.246167 37.088388,32 37.088388,32 L 22.160133,31.978069 C 22.160133,31.978069 26.997745,27.140456 26.997745,27.140456 C 18.528582,18.264221 13.291696,25.230495 11.500037,31.436501 z"
             style="fill:#404040;"/>
          </a>
         </g>
        </svg>
</svg>
