<?xml version="1.0" encoding="UTF-8" standalone="no"?>
<!DOCTYPE svg PUBLIC "-//W3C//DTD SVG 1.1//EN"
 "http://www.w3.org/Graphics/SVG/1.1/DTD/svg11.dtd">
<!-- Generated by graphviz version 2.36.0 (20140111.2315)
 -->
<!-- Title: o2::framework::Task Pages: 1 -->
<svg width="1078pt" height="260pt"
 viewBox="0.00 0.00 1078.00 260.00" xmlns="http://www.w3.org/2000/svg" xmlns:xlink="http://www.w3.org/1999/xlink">
<g id="graph0" class="graph" transform="scale(1 1) rotate(0) translate(4 256)">
<title>o2::framework::Task</title>
<!-- Node1 -->
<g id="node1" class="node"><title>Node1</title>
<polygon fill="#bfbfbf" stroke="black" points="427.5,-172.5 427.5,-251.5 534.5,-251.5 534.5,-172.5 427.5,-172.5"/>
<text text-anchor="middle" x="481" y="-239.5" font-family="Helvetica,sans-Serif" font-size="10.00">o2::framework::Task</text>
<polyline fill="none" stroke="black" points="427.5,-232.5 534.5,-232.5 "/>
<text text-anchor="middle" x="481" y="-220.5" font-family="Helvetica,sans-Serif" font-size="10.00"> </text>
<polyline fill="none" stroke="black" points="427.5,-213.5 534.5,-213.5 "/>
<text text-anchor="start" x="435.5" y="-201.5" font-family="Helvetica,sans-Serif" font-size="10.00">+ ~Task()</text>
<text text-anchor="start" x="435.5" y="-190.5" font-family="Helvetica,sans-Serif" font-size="10.00">+ init()</text>
<text text-anchor="start" x="435.5" y="-179.5" font-family="Helvetica,sans-Serif" font-size="10.00">+ run()</text>
</g>
<!-- Node2 -->
<g id="node2" class="node"><title>Node2</title>
<g id="a_node2"><a xlink:href="../../dd/d33/classATask.html" target="_top" xlink:title="{ATask\n||+ ATask()\l+ init()\l+ run()\l}">
<polygon fill="none" stroke="black" points="0,-28.5 0,-107.5 60,-107.5 60,-28.5 0,-28.5"/>
<text text-anchor="middle" x="30" y="-95.5" font-family="Helvetica,sans-Serif" font-size="10.00">ATask</text>
<polyline fill="none" stroke="black" points="0,-88.5 60,-88.5 "/>
<text text-anchor="middle" x="30" y="-76.5" font-family="Helvetica,sans-Serif" font-size="10.00"> </text>
<polyline fill="none" stroke="black" points="0,-69.5 60,-69.5 "/>
<text text-anchor="start" x="8" y="-57.5" font-family="Helvetica,sans-Serif" font-size="10.00">+ ATask()</text>
<text text-anchor="start" x="8" y="-46.5" font-family="Helvetica,sans-Serif" font-size="10.00">+ init()</text>
<text text-anchor="start" x="8" y="-35.5" font-family="Helvetica,sans-Serif" font-size="10.00">+ run()</text>
</a>
</g>
</g>
<!-- Node1&#45;&gt;Node2 -->
<g id="edge1" class="edge"><title>Node1&#45;&gt;Node2</title>
<path fill="none" stroke="midnightblue" d="M417.235,-205.9C315.985,-196.742 124.236,-174.759 69,-136 58.864,-128.888 50.9764,-118.234 45.0303,-107.504"/>
<polygon fill="none" stroke="midnightblue" points="417.067,-209.399 427.337,-206.798 417.687,-202.426 417.067,-209.399"/>
</g>
<!-- Node3 -->
<g id="node3" class="node"><title>Node3</title>
<g id="a_node3"><a xlink:href="../../d7/d29/classBTask.html" target="_top" xlink:title="{BTask\n||+ run()\l}">
<polygon fill="none" stroke="black" points="78.5,-39.5 78.5,-96.5 123.5,-96.5 123.5,-39.5 78.5,-39.5"/>
<text text-anchor="middle" x="101" y="-84.5" font-family="Helvetica,sans-Serif" font-size="10.00">BTask</text>
<polyline fill="none" stroke="black" points="78.5,-77.5 123.5,-77.5 "/>
<text text-anchor="middle" x="101" y="-65.5" font-family="Helvetica,sans-Serif" font-size="10.00"> </text>
<polyline fill="none" stroke="black" points="78.5,-58.5 123.5,-58.5 "/>
<text text-anchor="start" x="86.5" y="-46.5" font-family="Helvetica,sans-Serif" font-size="10.00">+ run()</text>
</a>
</g>
</g>
<!-- Node1&#45;&gt;Node3 -->
<g id="edge2" class="edge"><title>Node1&#45;&gt;Node3</title>
<path fill="none" stroke="midnightblue" d="M417.144,-204.019C329.104,-193.277 176.379,-170.279 133,-136 120.56,-126.17 112.687,-110.319 107.864,-96.5019"/>
<polygon fill="none" stroke="midnightblue" points="416.941,-207.52 427.287,-205.237 417.776,-200.57 416.941,-207.52"/>
</g>
<!-- Node4 -->
<g id="node4" class="node"><title>Node4</title>
<g id="a_node4"><a xlink:href="../../d8/d30/classo2_1_1framework_1_1Dispatcher.html" target="_top" xlink:title="{o2::framework::Dispatcher\n||+ Dispatcher()\l+ ~Dispatcher()\l+ init()\l+ run()\l+ registerPath()\l+ getName()\l+ getInputSpecs()\l+ getOutputSpecs()\l}">
<polygon fill="none" stroke="black" points="142,-1 142,-135 274,-135 274,-1 142,-1"/>
<text text-anchor="middle" x="208" y="-123" font-family="Helvetica,sans-Serif" font-size="10.00">o2::framework::Dispatcher</text>
<polyline fill="none" stroke="black" points="142,-116 274,-116 "/>
<text text-anchor="middle" x="208" y="-104" font-family="Helvetica,sans-Serif" font-size="10.00"> </text>
<polyline fill="none" stroke="black" points="142,-97 274,-97 "/>
<text text-anchor="start" x="150" y="-85" font-family="Helvetica,sans-Serif" font-size="10.00">+ Dispatcher()</text>
<text text-anchor="start" x="150" y="-74" font-family="Helvetica,sans-Serif" font-size="10.00">+ ~Dispatcher()</text>
<text text-anchor="start" x="150" y="-63" font-family="Helvetica,sans-Serif" font-size="10.00">+ init()</text>
<text text-anchor="start" x="150" y="-52" font-family="Helvetica,sans-Serif" font-size="10.00">+ run()</text>
<text text-anchor="start" x="150" y="-41" font-family="Helvetica,sans-Serif" font-size="10.00">+ registerPath()</text>
<text text-anchor="start" x="150" y="-30" font-family="Helvetica,sans-Serif" font-size="10.00">+ getName()</text>
<text text-anchor="start" x="150" y="-19" font-family="Helvetica,sans-Serif" font-size="10.00">+ getInputSpecs()</text>
<text text-anchor="start" x="150" y="-8" font-family="Helvetica,sans-Serif" font-size="10.00">+ getOutputSpecs()</text>
</a>
</g>
</g>
<!-- Node1&#45;&gt;Node4 -->
<g id="edge3" class="edge"><title>Node1&#45;&gt;Node4</title>
<path fill="none" stroke="midnightblue" d="M417.603,-193.538C377.346,-180.899 325.091,-161.552 283,-136 280.015,-134.188 277.039,-132.25 274.088,-130.217"/>
<polygon fill="none" stroke="midnightblue" points="416.717,-196.927 427.304,-196.527 418.778,-190.237 416.717,-196.927"/>
</g>
<!-- Node5 -->
<g id="node5" class="node"><title>Node5</title>
<g id="a_node5"><a xlink:href="../../dd/d08/classo2_1_1ITS_1_1ClustererDPL.html" target="_top" xlink:title="{o2::ITS::ClustererDPL\n||+ ClustererDPL()\l+ ~ClustererDPL()\l+ init()\l+ run()\l}">
<polygon fill="none" stroke="black" points="292,-23 292,-113 406,-113 406,-23 292,-23"/>
<text text-anchor="middle" x="349" y="-101" font-family="Helvetica,sans-Serif" font-size="10.00">o2::ITS::ClustererDPL</text>
<polyline fill="none" stroke="black" points="292,-94 406,-94 "/>
<text text-anchor="middle" x="349" y="-82" font-family="Helvetica,sans-Serif" font-size="10.00"> </text>
<polyline fill="none" stroke="black" points="292,-75 406,-75 "/>
<text text-anchor="start" x="300" y="-63" font-family="Helvetica,sans-Serif" font-size="10.00">+ ClustererDPL()</text>
<text text-anchor="start" x="300" y="-52" font-family="Helvetica,sans-Serif" font-size="10.00">+ ~ClustererDPL()</text>
<text text-anchor="start" x="300" y="-41" font-family="Helvetica,sans-Serif" font-size="10.00">+ init()</text>
<text text-anchor="start" x="300" y="-30" font-family="Helvetica,sans-Serif" font-size="10.00">+ run()</text>
</a>
</g>
</g>
<!-- Node1&#45;&gt;Node5 -->
<g id="edge4" class="edge"><title>Node1&#45;&gt;Node5</title>
<path fill="none" stroke="midnightblue" d="M437.984,-164.725C422.541,-148.112 405.178,-129.434 389.918,-113.018"/>
<polygon fill="none" stroke="midnightblue" points="435.558,-167.257 444.93,-172.198 440.685,-162.491 435.558,-167.257"/>
</g>
<!-- Node6 -->
<g id="node6" class="node"><title>Node6</title>
<g id="a_node6"><a xlink:href="../../d3/df6/classo2_1_1ITS_1_1ClusterWriter.html" target="_top" xlink:title="{o2::ITS::ClusterWriter\n||+ ClusterWriter()\l+ ~ClusterWriter()\l+ init()\l+ run()\l}">
<polygon fill="none" stroke="black" points="424.5,-23 424.5,-113 537.5,-113 537.5,-23 424.5,-23"/>
<text text-anchor="middle" x="481" y="-101" font-family="Helvetica,sans-Serif" font-size="10.00">o2::ITS::ClusterWriter</text>
<polyline fill="none" stroke="black" points="424.5,-94 537.5,-94 "/>
<text text-anchor="middle" x="481" y="-82" font-family="Helvetica,sans-Serif" font-size="10.00"> </text>
<polyline fill="none" stroke="black" points="424.5,-75 537.5,-75 "/>
<text text-anchor="start" x="432.5" y="-63" font-family="Helvetica,sans-Serif" font-size="10.00">+ ClusterWriter()</text>
<text text-anchor="start" x="432.5" y="-52" font-family="Helvetica,sans-Serif" font-size="10.00">+ ~ClusterWriter()</text>
<text text-anchor="start" x="432.5" y="-41" font-family="Helvetica,sans-Serif" font-size="10.00">+ init()</text>
<text text-anchor="start" x="432.5" y="-30" font-family="Helvetica,sans-Serif" font-size="10.00">+ run()</text>
</a>
</g>
</g>
<!-- Node1&#45;&gt;Node6 -->
<g id="edge5" class="edge"><title>Node1&#45;&gt;Node6</title>
<path fill="none" stroke="midnightblue" d="M481,-162.014C481,-146.099 481,-128.547 481,-113.018"/>
<polygon fill="none" stroke="midnightblue" points="477.5,-162.198 481,-172.198 484.5,-162.198 477.5,-162.198"/>
</g>
<!-- Node7 -->
<g id="node7" class="node"><title>Node7</title>
<g id="a_node7"><a xlink:href="../../d4/dff/classo2_1_1ITS_1_1CookedTrackerDPL.html" target="_top" xlink:title="{o2::ITS::CookedTrackerDPL\n||+ CookedTrackerDPL()\l+ ~CookedTrackerDPL()\l+ init()\l+ run()\l}">
<polygon fill="none" stroke="black" points="555.5,-23 555.5,-113 696.5,-113 696.5,-23 555.5,-23"/>
<text text-anchor="middle" x="626" y="-101" font-family="Helvetica,sans-Serif" font-size="10.00">o2::ITS::CookedTrackerDPL</text>
<polyline fill="none" stroke="black" points="555.5,-94 696.5,-94 "/>
<text text-anchor="middle" x="626" y="-82" font-family="Helvetica,sans-Serif" font-size="10.00"> </text>
<polyline fill="none" stroke="black" points="555.5,-75 696.5,-75 "/>
<text text-anchor="start" x="563.5" y="-63" font-family="Helvetica,sans-Serif" font-size="10.00">+ CookedTrackerDPL()</text>
<text text-anchor="start" x="563.5" y="-52" font-family="Helvetica,sans-Serif" font-size="10.00">+ ~CookedTrackerDPL()</text>
<text text-anchor="start" x="563.5" y="-41" font-family="Helvetica,sans-Serif" font-size="10.00">+ init()</text>
<text text-anchor="start" x="563.5" y="-30" font-family="Helvetica,sans-Serif" font-size="10.00">+ run()</text>
</a>
</g>
</g>
<!-- Node1&#45;&gt;Node7 -->
<g id="edge6" class="edge"><title>Node1&#45;&gt;Node7</title>
<path fill="none" stroke="midnightblue" d="M527.794,-165.174C544.873,-148.449 564.138,-129.582 581.052,-113.018"/>
<polygon fill="none" stroke="midnightblue" points="525.318,-162.7 520.622,-172.198 530.215,-167.702 525.318,-162.7"/>
</g>
<!-- Node8 -->
<g id="node8" class="node"><title>Node8</title>
<g id="a_node8"><a xlink:href="../../d2/d81/classo2_1_1ITS_1_1DigitReader.html" target="_top" xlink:title="{o2::ITS::DigitReader\n||+ DigitReader()\l+ ~DigitReader()\l+ init()\l+ run()\l}">
<polygon fill="none" stroke="black" points="714.5,-23 714.5,-113 821.5,-113 821.5,-23 714.5,-23"/>
<text text-anchor="middle" x="768" y="-101" font-family="Helvetica,sans-Serif" font-size="10.00">o2::ITS::DigitReader</text>
<polyline fill="none" stroke="black" points="714.5,-94 821.5,-94 "/>
<text text-anchor="middle" x="768" y="-82" font-family="Helvetica,sans-Serif" font-size="10.00"> </text>
<polyline fill="none" stroke="black" points="714.5,-75 821.5,-75 "/>
<text text-anchor="start" x="722.5" y="-63" font-family="Helvetica,sans-Serif" font-size="10.00">+ DigitReader()</text>
<text text-anchor="start" x="722.5" y="-52" font-family="Helvetica,sans-Serif" font-size="10.00">+ ~DigitReader()</text>
<text text-anchor="start" x="722.5" y="-41" font-family="Helvetica,sans-Serif" font-size="10.00">+ init()</text>
<text text-anchor="start" x="722.5" y="-30" font-family="Helvetica,sans-Serif" font-size="10.00">+ run()</text>
</a>
</g>
</g>
<!-- Node1&#45;&gt;Node8 -->
<g id="edge7" class="edge"><title>Node1&#45;&gt;Node8</title>
<path fill="none" stroke="midnightblue" d="M544.694,-198.511C591.651,-187.28 655.67,-167.593 705,-136 714.815,-129.714 724.155,-121.565 732.494,-113.126"/>
<polygon fill="none" stroke="midnightblue" points="543.89,-195.105 534.944,-200.781 545.477,-201.922 543.89,-195.105"/>
</g>
<!-- Node9 -->
<g id="node9" class="node"><title>Node9</title>
<g id="a_node9"><a xlink:href="../../de/d4e/classo2_1_1ITS_1_1TrackerDPL.html" target="_top" xlink:title="{o2::ITS::TrackerDPL\n||+ TrackerDPL()\l+ ~TrackerDPL()\l+ init()\l+ run()\l}">
<polygon fill="none" stroke="black" points="839.5,-23 839.5,-113 946.5,-113 946.5,-23 839.5,-23"/>
<text text-anchor="middle" x="893" y="-101" font-family="Helvetica,sans-Serif" font-size="10.00">o2::ITS::TrackerDPL</text>
<polyline fill="none" stroke="black" points="839.5,-94 946.5,-94 "/>
<text text-anchor="middle" x="893" y="-82" font-family="Helvetica,sans-Serif" font-size="10.00"> </text>
<polyline fill="none" stroke="black" points="839.5,-75 946.5,-75 "/>
<text text-anchor="start" x="847.5" y="-63" font-family="Helvetica,sans-Serif" font-size="10.00">+ TrackerDPL()</text>
<text text-anchor="start" x="847.5" y="-52" font-family="Helvetica,sans-Serif" font-size="10.00">+ ~TrackerDPL()</text>
<text text-anchor="start" x="847.5" y="-41" font-family="Helvetica,sans-Serif" font-size="10.00">+ init()</text>
<text text-anchor="start" x="847.5" y="-30" font-family="Helvetica,sans-Serif" font-size="10.00">+ run()</text>
</a>
</g>
</g>
<!-- Node1&#45;&gt;Node9 -->
<g id="edge8" class="edge"><title>Node1&#45;&gt;Node9</title>
<path fill="none" stroke="midnightblue" d="M544.727,-208.614C617.922,-203.413 739.541,-187.066 830,-136 840.428,-130.113 850.153,-121.925 858.692,-113.289"/>
<polygon fill="none" stroke="midnightblue" points="544.476,-205.123 534.729,-209.277 544.938,-212.108 544.476,-205.123"/>
</g>
<!-- Node10 -->
<g id="node10" class="node"><title>Node10</title>
<g id="a_node10"><a xlink:href="../../d8/dde/classo2_1_1ITS_1_1TrackWriter.html" target="_top" xlink:title="{o2::ITS::TrackWriter\n||+ TrackWriter()\l+ ~TrackWriter()\l+ init()\l+ run()\l}">
<polygon fill="none" stroke="black" points="964,-23 964,-113 1070,-113 1070,-23 964,-23"/>
<text text-anchor="middle" x="1017" y="-101" font-family="Helvetica,sans-Serif" font-size="10.00">o2::ITS::TrackWriter</text>
<polyline fill="none" stroke="black" points="964,-94 1070,-94 "/>
<text text-anchor="middle" x="1017" y="-82" font-family="Helvetica,sans-Serif" font-size="10.00"> </text>
<polyline fill="none" stroke="black" points="964,-75 1070,-75 "/>
<text text-anchor="start" x="972" y="-63" font-family="Helvetica,sans-Serif" font-size="10.00">+ TrackWriter()</text>
<text text-anchor="start" x="972" y="-52" font-family="Helvetica,sans-Serif" font-size="10.00">+ ~TrackWriter()</text>
<text text-anchor="start" x="972" y="-41" font-family="Helvetica,sans-Serif" font-size="10.00">+ init()</text>
<text text-anchor="start" x="972" y="-30" font-family="Helvetica,sans-Serif" font-size="10.00">+ run()</text>
</a>
</g>
</g>
<!-- Node1&#45;&gt;Node10 -->
<g id="edge9" class="edge"><title>Node1&#45;&gt;Node10</title>
<path fill="none" stroke="midnightblue" d="M544.802,-206.097C657.162,-196.615 885.07,-173.348 955,-136 965.764,-130.251 975.662,-121.899 984.241,-113.03"/>
<polygon fill="none" stroke="midnightblue" points="544.3,-202.626 534.625,-206.944 544.881,-209.602 544.3,-202.626"/>
</g>
</g>
</svg>
