<?xml version="1.0" encoding="UTF-8" standalone="no"?>
<!DOCTYPE svg PUBLIC "-//W3C//DTD SVG 1.1//EN"
 "http://www.w3.org/Graphics/SVG/1.1/DTD/svg11.dtd">
<!-- Generated by graphviz version 2.36.0 (20140111.2315)
 -->
<!-- Title: /home/travis/build/AliceO2Group/AliceO2/Detectors/PHOS/reconstruction/src/Cluster.cxx Pages: 1 -->
<!--zoomable 514 -->
<svg id="main" version="1.1" xmlns="http://www.w3.org/2000/svg" xmlns:xlink="http://www.w3.org/1999/xlink" xml:space="preserve" onload="init(evt)">
<style type="text/css"><![CDATA[
.edge:hover path { stroke: red; }
.edge:hover polygon { stroke: red; fill: red; }
]]></style>
<script type="text/javascript"><![CDATA[
var edges = document.getElementsByTagName('g');
if (edges && edges.length) {
  for (var i=0;i<edges.length;i++) {
    if (edges[i].id.substr(0,4)=='edge') {
      edges[i].setAttribute('class','edge');
    }
  }
}
]]></script>
        <defs>
                <circle id="rim" cx="0" cy="0" r="7"/>
                <circle id="rim2" cx="0" cy="0" r="3.5"/>
                <g id="zoomPlus">
                        <use xlink:href="#rim" fill="#404040">
                                <set attributeName="fill" to="#808080" begin="zoomplus.mouseover" end="zoomplus.mouseout"/>
                        </use>
                        <path d="M-4,0h8M0,-4v8" fill="none" stroke="white" stroke-width="1.5" pointer-events="none"/>
                </g>
                <g id="zoomMin">
                        <use xlink:href="#rim" fill="#404040">
                                <set attributeName="fill" to="#808080" begin="zoomminus.mouseover" end="zoomminus.mouseout"/>
                        </use>
                        <path d="M-4,0h8" fill="none" stroke="white" stroke-width="1.5" pointer-events="none"/>
                </g>
                <g id="dirArrow">
                        <path fill="none" stroke="white" stroke-width="1.5" d="M0,-3.0v7 M-2.5,-0.5L0,-3.0L2.5,-0.5"/>
                </g>
               <g id="resetDef">
                       <use xlink:href="#rim2" fill="#404040">
                               <set attributeName="fill" to="#808080" begin="reset.mouseover" end="reset.mouseout"/>
                       </use>
               </g>
        </defs>

<script type="text/javascript">
var viewWidth = 1665;
var viewHeight = 514;
var sectionId = 'dynsection-0';
</script>
<script xlink:href="../../svgpan.js"/>
<svg id="graph" class="graph">
<g id="viewport">
<title>/home/travis/build/AliceO2Group/AliceO2/Detectors/PHOS/reconstruction/src/Cluster.cxx</title>
<!-- Node1 -->
<g id="node1" class="node"><title>Node1</title>
<polygon fill="#bfbfbf" stroke="black" points="829,-453 829,-505 987,-505 987,-453 829,-453"/>
<text text-anchor="start" x="837" y="-493" font-family="Helvetica,sans-Serif" font-size="10.00">/home/travis/build</text>
<text text-anchor="start" x="837" y="-482" font-family="Helvetica,sans-Serif" font-size="10.00">/AliceO2Group/AliceO2</text>
<text text-anchor="start" x="837" y="-471" font-family="Helvetica,sans-Serif" font-size="10.00">/Detectors/PHOS/reconstruction</text>
<text text-anchor="middle" x="908" y="-460" font-family="Helvetica,sans-Serif" font-size="10.00">/src/Cluster.cxx</text>
</g>
<!-- Node2 -->
<g id="node2" class="node"><title>Node2</title>
<g id="a_node2"><a xlink:href="../../d9/dad/Detectors_2PHOS_2reconstruction_2include_2PHOSReconstruction_2Cluster_8h.html" target="_top" xlink:title="PHOSReconstruction\l/Cluster.h">
<polygon fill="none" stroke="black" points="779.5,-385 779.5,-415 890.5,-415 890.5,-385 779.5,-385"/>
<text text-anchor="start" x="787.5" y="-403" font-family="Helvetica,sans-Serif" font-size="10.00">PHOSReconstruction</text>
<text text-anchor="middle" x="835" y="-392" font-family="Helvetica,sans-Serif" font-size="10.00">/Cluster.h</text>
</a>
</g>
</g>
<!-- Node1&#45;&gt;Node2 -->
<g id="edge1" class="edge"><title>Node1&#45;&gt;Node2</title>
<path fill="none" stroke="midnightblue" d="M884.097,-452.787C874.871,-443.056 864.421,-432.033 855.541,-422.666"/>
<polygon fill="midnightblue" stroke="midnightblue" points="857.932,-420.101 848.512,-415.252 852.852,-424.917 857.932,-420.101"/>
</g>
<!-- Node28 -->
<g id="node28" class="node"><title>Node28</title>
<g id="a_node28"><a xlink:href="../../d7/d7f/PHOS_2base_2include_2PHOSBase_2Geometry_8h.html" target="_top" xlink:title="PHOSBase/Geometry.h">
<polygon fill="none" stroke="black" points="921,-390.5 921,-409.5 1043,-409.5 1043,-390.5 921,-390.5"/>
<text text-anchor="middle" x="982" y="-397.5" font-family="Helvetica,sans-Serif" font-size="10.00">PHOSBase/Geometry.h</text>
</a>
</g>
</g>
<!-- Node1&#45;&gt;Node28 -->
<g id="edge29" class="edge"><title>Node1&#45;&gt;Node28</title>
<path fill="none" stroke="midnightblue" d="M932.23,-452.787C943.539,-441.02 956.661,-427.366 966.592,-417.033"/>
<polygon fill="midnightblue" stroke="midnightblue" points="969.37,-419.193 973.776,-409.558 964.323,-414.343 969.37,-419.193"/>
</g>
<!-- Node3 -->
<g id="node3" class="node"><title>Node3</title>
<g id="a_node3"><a xlink:href="../../d8/de9/PHOS_2base_2include_2PHOSBase_2Digit_8h.html" target="_top" xlink:title="PHOSBase/Digit.h">
<polygon fill="none" stroke="black" points="785.5,-328.5 785.5,-347.5 884.5,-347.5 884.5,-328.5 785.5,-328.5"/>
<text text-anchor="middle" x="835" y="-335.5" font-family="Helvetica,sans-Serif" font-size="10.00">PHOSBase/Digit.h</text>
</a>
</g>
</g>
<!-- Node2&#45;&gt;Node3 -->
<g id="edge2" class="edge"><title>Node2&#45;&gt;Node3</title>
<path fill="none" stroke="midnightblue" d="M835,-384.781C835,-376.781 835,-366.689 835,-358.017"/>
<polygon fill="midnightblue" stroke="midnightblue" points="838.5,-357.73 835,-347.731 831.5,-357.731 838.5,-357.73"/>
</g>
<!-- Node6 -->
<g id="node6" class="node"><title>Node6</title>
<g id="a_node6"><a xlink:href="../../d7/dcd/MCCompLabel_8h.html" target="_top" xlink:title="SimulationDataFormat\l/MCCompLabel.h">
<polygon fill="none" stroke="black" points="668,-261 668,-291 782,-291 782,-261 668,-261"/>
<text text-anchor="start" x="676" y="-279" font-family="Helvetica,sans-Serif" font-size="10.00">SimulationDataFormat</text>
<text text-anchor="middle" x="725" y="-268" font-family="Helvetica,sans-Serif" font-size="10.00">/MCCompLabel.h</text>
</a>
</g>
</g>
<!-- Node2&#45;&gt;Node6 -->
<g id="edge28" class="edge"><title>Node2&#45;&gt;Node6</title>
<path fill="none" stroke="midnightblue" d="M816.451,-384.847C804.297,-375.136 788.422,-361.592 776,-348 762.179,-332.878 748.754,-313.963 739.15,-299.46"/>
<polygon fill="midnightblue" stroke="midnightblue" points="742.081,-297.547 733.694,-291.073 736.213,-301.364 742.081,-297.547"/>
</g>
<!-- Node4 -->
<g id="node4" class="node"><title>Node4</title>
<g id="a_node4"><a xlink:href="../../df/d5d/common_2include_2CommonDataFormat_2TimeStamp_8h.html" target="_top" xlink:title="CommonDataFormat/TimeStamp.h">
<polygon fill="none" stroke="black" points="955,-266.5 955,-285.5 1125,-285.5 1125,-266.5 955,-266.5"/>
<text text-anchor="middle" x="1040" y="-273.5" font-family="Helvetica,sans-Serif" font-size="10.00">CommonDataFormat/TimeStamp.h</text>
</a>
</g>
</g>
<!-- Node3&#45;&gt;Node4 -->
<g id="edge3" class="edge"><title>Node3&#45;&gt;Node4</title>
<path fill="none" stroke="midnightblue" d="M864.372,-328.403C900.297,-317.889 961.232,-300.054 1001.04,-288.402"/>
<polygon fill="midnightblue" stroke="midnightblue" points="1002.07,-291.749 1010.68,-285.581 1000.1,-285.031 1002.07,-291.749"/>
</g>
<!-- Node3&#45;&gt;Node6 -->
<g id="edge5" class="edge"><title>Node3&#45;&gt;Node6</title>
<path fill="none" stroke="midnightblue" d="M819.24,-328.403C803.785,-319.974 779.705,-306.839 759.755,-295.957"/>
<polygon fill="midnightblue" stroke="midnightblue" points="761.38,-292.857 750.925,-291.141 758.028,-299.002 761.38,-292.857"/>
</g>
<!-- Node8 -->
<g id="node8" class="node"><title>Node8</title>
<g id="a_node8"><a xlink:href="../../d1/def/PHOS_2base_2include_2PHOSBase_2Hit_8h.html" target="_top" xlink:title="PHOSBase/Hit.h">
<polygon fill="none" stroke="black" points="800,-266.5 800,-285.5 892,-285.5 892,-266.5 800,-266.5"/>
<text text-anchor="middle" x="846" y="-273.5" font-family="Helvetica,sans-Serif" font-size="10.00">PHOSBase/Hit.h</text>
</a>
</g>
</g>
<!-- Node3&#45;&gt;Node8 -->
<g id="edge7" class="edge"><title>Node3&#45;&gt;Node8</title>
<path fill="none" stroke="midnightblue" d="M836.576,-328.403C838.144,-319.849 840.601,-306.45 842.613,-295.476"/>
<polygon fill="midnightblue" stroke="midnightblue" points="846.066,-296.048 844.427,-285.581 839.181,-294.785 846.066,-296.048"/>
</g>
<!-- Node5 -->
<g id="node5" class="node"><title>Node5</title>
<polygon fill="none" stroke="#bfbfbf" points="1601,-74.5 1601,-93.5 1657,-93.5 1657,-74.5 1601,-74.5"/>
<text text-anchor="middle" x="1629" y="-81.5" font-family="Helvetica,sans-Serif" font-size="10.00">Rtypes.h</text>
</g>
<!-- Node4&#45;&gt;Node5 -->
<g id="edge4" class="edge"><title>Node4&#45;&gt;Node5</title>
<path fill="none" stroke="midnightblue" d="M1069.89,-266.418C1153.25,-242.298 1395.05,-171.019 1592,-100 1594.4,-99.1359 1596.87,-98.2108 1599.34,-97.26"/>
<polygon fill="midnightblue" stroke="midnightblue" points="1600.74,-100.471 1608.75,-93.5402 1598.17,-93.9606 1600.74,-100.471"/>
</g>
<!-- Node7 -->
<g id="node7" class="node"><title>Node7</title>
<polygon fill="none" stroke="#bfbfbf" points="605,-198.5 605,-217.5 733,-217.5 733,-198.5 605,-198.5"/>
<text text-anchor="middle" x="669" y="-205.5" font-family="Helvetica,sans-Serif" font-size="10.00">AliTPCCommonRtypes.h</text>
</g>
<!-- Node6&#45;&gt;Node7 -->
<g id="edge6" class="edge"><title>Node6&#45;&gt;Node7</title>
<path fill="none" stroke="midnightblue" d="M712.849,-260.679C704.117,-250.388 692.32,-236.484 683.161,-225.69"/>
<polygon fill="midnightblue" stroke="midnightblue" points="685.629,-223.189 676.491,-217.828 680.292,-227.718 685.629,-223.189"/>
</g>
<!-- Node9 -->
<g id="node9" class="node"><title>Node9</title>
<g id="a_node9"><a xlink:href="../../d4/d25/BaseHits_8h.html" target="_top" xlink:title="SimulationDataFormat\l/BaseHits.h">
<polygon fill="none" stroke="black" points="915,-193 915,-223 1029,-223 1029,-193 915,-193"/>
<text text-anchor="start" x="923" y="-211" font-family="Helvetica,sans-Serif" font-size="10.00">SimulationDataFormat</text>
<text text-anchor="middle" x="972" y="-200" font-family="Helvetica,sans-Serif" font-size="10.00">/BaseHits.h</text>
</a>
</g>
</g>
<!-- Node8&#45;&gt;Node9 -->
<g id="edge8" class="edge"><title>Node8&#45;&gt;Node9</title>
<path fill="none" stroke="midnightblue" d="M862.472,-266.372C881.045,-256.643 911.808,-240.529 936.011,-227.851"/>
<polygon fill="midnightblue" stroke="midnightblue" points="937.692,-230.922 944.926,-223.181 934.444,-224.721 937.692,-230.922"/>
</g>
<!-- Node21 -->
<g id="node21" class="node"><title>Node21</title>
<g id="a_node21"><a xlink:href="../../d0/d91/ShmAllocator_8h.html" target="_top" xlink:title="CommonUtils/ShmAllocator.h">
<polygon fill="none" stroke="black" points="751,-198.5 751,-217.5 897,-217.5 897,-198.5 751,-198.5"/>
<text text-anchor="middle" x="824" y="-205.5" font-family="Helvetica,sans-Serif" font-size="10.00">CommonUtils/ShmAllocator.h</text>
</a>
</g>
</g>
<!-- Node8&#45;&gt;Node21 -->
<g id="edge21" class="edge"><title>Node8&#45;&gt;Node21</title>
<path fill="none" stroke="midnightblue" d="M843.124,-266.372C839.848,-256.544 834.401,-240.202 830.156,-227.467"/>
<polygon fill="midnightblue" stroke="midnightblue" points="833.43,-226.221 826.947,-217.841 826.789,-228.435 833.43,-226.221"/>
</g>
<!-- Node10 -->
<g id="node10" class="node"><title>Node10</title>
<g id="a_node10"><a xlink:href="../../dd/d76/Cartesian3D_8h.html" target="_top" xlink:title="MathUtils/Cartesian3D.h">
<polygon fill="none" stroke="black" points="909.5,-136.5 909.5,-155.5 1034.5,-155.5 1034.5,-136.5 909.5,-136.5"/>
<text text-anchor="middle" x="972" y="-143.5" font-family="Helvetica,sans-Serif" font-size="10.00">MathUtils/Cartesian3D.h</text>
</a>
</g>
</g>
<!-- Node9&#45;&gt;Node10 -->
<g id="edge9" class="edge"><title>Node9&#45;&gt;Node10</title>
<path fill="none" stroke="midnightblue" d="M972,-192.781C972,-184.781 972,-174.689 972,-166.017"/>
<polygon fill="midnightblue" stroke="midnightblue" points="975.5,-165.73 972,-155.731 968.5,-165.731 975.5,-165.73"/>
</g>
<!-- Node10&#45;&gt;Node5 -->
<g id="edge15" class="edge"><title>Node10&#45;&gt;Node5</title>
<path fill="none" stroke="midnightblue" d="M1034.71,-142.932C1170.39,-138.055 1487.35,-124.371 1592,-100 1595.07,-99.2842 1598.22,-98.3485 1601.33,-97.2938"/>
<polygon fill="midnightblue" stroke="midnightblue" points="1602.82,-100.469 1610.93,-93.6426 1600.33,-93.9269 1602.82,-100.469"/>
</g>
<!-- Node11 -->
<g id="node11" class="node"><title>Node11</title>
<polygon fill="none" stroke="#bfbfbf" points="896.5,-69 896.5,-99 1047.5,-99 1047.5,-69 896.5,-69"/>
<text text-anchor="start" x="904.5" y="-87" font-family="Helvetica,sans-Serif" font-size="10.00">Math/GenVector/Displacement</text>
<text text-anchor="middle" x="972" y="-76" font-family="Helvetica,sans-Serif" font-size="10.00">Vector3D.h</text>
</g>
<!-- Node10&#45;&gt;Node11 -->
<g id="edge10" class="edge"><title>Node10&#45;&gt;Node11</title>
<path fill="none" stroke="midnightblue" d="M972,-136.403C972,-129.341 972,-118.975 972,-109.399"/>
<polygon fill="midnightblue" stroke="midnightblue" points="975.5,-109.141 972,-99.1408 968.5,-109.141 975.5,-109.141"/>
</g>
<!-- Node12 -->
<g id="node12" class="node"><title>Node12</title>
<polygon fill="none" stroke="#bfbfbf" points="1066,-74.5 1066,-93.5 1242,-93.5 1242,-74.5 1066,-74.5"/>
<text text-anchor="middle" x="1154" y="-81.5" font-family="Helvetica,sans-Serif" font-size="10.00">Math/GenVector/PositionVector3D.h</text>
</g>
<!-- Node10&#45;&gt;Node12 -->
<g id="edge11" class="edge"><title>Node10&#45;&gt;Node12</title>
<path fill="none" stroke="midnightblue" d="M998.076,-136.403C1029.57,-126.022 1082.7,-108.506 1118.06,-96.849"/>
<polygon fill="midnightblue" stroke="midnightblue" points="1119.57,-100.036 1127.97,-93.5806 1117.38,-93.3876 1119.57,-100.036"/>
</g>
<!-- Node13 -->
<g id="node13" class="node"><title>Node13</title>
<polygon fill="none" stroke="#bfbfbf" points="1259.5,-74.5 1259.5,-93.5 1408.5,-93.5 1408.5,-74.5 1259.5,-74.5"/>
<text text-anchor="middle" x="1334" y="-81.5" font-family="Helvetica,sans-Serif" font-size="10.00">Math/GenVector/Rotation3D.h</text>
</g>
<!-- Node10&#45;&gt;Node13 -->
<g id="edge12" class="edge"><title>Node10&#45;&gt;Node13</title>
<path fill="none" stroke="midnightblue" d="M1026.38,-136.465C1082.45,-127.602 1172.4,-113.208 1250,-100 1258.7,-98.519 1267.9,-96.915 1276.9,-95.3253"/>
<polygon fill="midnightblue" stroke="midnightblue" points="1277.7,-98.7383 1286.93,-93.544 1276.47,-91.8461 1277.7,-98.7383"/>
</g>
<!-- Node14 -->
<g id="node14" class="node"><title>Node14</title>
<polygon fill="none" stroke="#bfbfbf" points="1427,-74.5 1427,-93.5 1583,-93.5 1583,-74.5 1427,-74.5"/>
<text text-anchor="middle" x="1505" y="-81.5" font-family="Helvetica,sans-Serif" font-size="10.00">Math/GenVector/Transform3D.h</text>
</g>
<!-- Node10&#45;&gt;Node14 -->
<g id="edge13" class="edge"><title>Node10&#45;&gt;Node14</title>
<path fill="none" stroke="midnightblue" d="M1034.8,-140.005C1121.12,-132.831 1281.19,-118.42 1417,-100 1427.24,-98.6109 1438.12,-96.9277 1448.61,-95.1978"/>
<polygon fill="midnightblue" stroke="midnightblue" points="1449.23,-98.6427 1458.51,-93.533 1448.07,-91.7396 1449.23,-98.6427"/>
</g>
<!-- Node15 -->
<g id="node15" class="node"><title>Node15</title>
<polygon fill="none" stroke="#bfbfbf" points="418,-74.5 418,-93.5 578,-93.5 578,-74.5 418,-74.5"/>
<text text-anchor="middle" x="498" y="-81.5" font-family="Helvetica,sans-Serif" font-size="10.00">Math/GenVector/Translation3D.h</text>
</g>
<!-- Node10&#45;&gt;Node15 -->
<g id="edge14" class="edge"><title>Node10&#45;&gt;Node15</title>
<path fill="none" stroke="midnightblue" d="M909.19,-138.645C832.871,-130.696 700.256,-116.152 587,-100 576.995,-98.573 566.381,-96.9129 556.101,-95.2277"/>
<polygon fill="midnightblue" stroke="midnightblue" points="556.406,-91.7305 545.968,-93.5419 555.258,-98.6356 556.406,-91.7305"/>
</g>
<!-- Node16 -->
<g id="node16" class="node"><title>Node16</title>
<polygon fill="none" stroke="#bfbfbf" points="596,-74.5 596,-93.5 672,-93.5 672,-74.5 596,-74.5"/>
<text text-anchor="middle" x="634" y="-81.5" font-family="Helvetica,sans-Serif" font-size="10.00">TGeoMatrix.h</text>
</g>
<!-- Node10&#45;&gt;Node16 -->
<g id="edge16" class="edge"><title>Node10&#45;&gt;Node16</title>
<path fill="none" stroke="midnightblue" d="M909.301,-138.164C849.998,-131.026 758.752,-118.302 681,-100 676.779,-99.0065 672.39,-97.8193 668.063,-96.5539"/>
<polygon fill="midnightblue" stroke="midnightblue" points="668.779,-93.1123 658.192,-93.5138 666.719,-99.8022 668.779,-93.1123"/>
</g>
<!-- Node17 -->
<g id="node17" class="node"><title>Node17</title>
<polygon fill="none" stroke="#bfbfbf" points="690.5,-74.5 690.5,-93.5 735.5,-93.5 735.5,-74.5 690.5,-74.5"/>
<text text-anchor="middle" x="713" y="-81.5" font-family="Helvetica,sans-Serif" font-size="10.00">iosfwd</text>
</g>
<!-- Node10&#45;&gt;Node17 -->
<g id="edge17" class="edge"><title>Node10&#45;&gt;Node17</title>
<path fill="none" stroke="midnightblue" d="M909.442,-137.061C862.994,-130.114 798.526,-118.237 744,-100 742.086,-99.36 740.138,-98.628 738.199,-97.8394"/>
<polygon fill="midnightblue" stroke="midnightblue" points="739.318,-94.5048 728.762,-93.5888 736.443,-100.887 739.318,-94.5048"/>
</g>
<!-- Node18 -->
<g id="node18" class="node"><title>Node18</title>
<g id="a_node18"><a xlink:href="../../d2/dd0/Cartesian2D_8h.html" target="_top" xlink:title="MathUtils/Cartesian2D.h">
<polygon fill="none" stroke="black" points="753.5,-74.5 753.5,-93.5 878.5,-93.5 878.5,-74.5 753.5,-74.5"/>
<text text-anchor="middle" x="816" y="-81.5" font-family="Helvetica,sans-Serif" font-size="10.00">MathUtils/Cartesian2D.h</text>
</a>
</g>
</g>
<!-- Node10&#45;&gt;Node18 -->
<g id="edge18" class="edge"><title>Node10&#45;&gt;Node18</title>
<path fill="none" stroke="midnightblue" d="M949.649,-136.403C923.005,-126.156 878.286,-108.956 847.986,-97.3021"/>
<polygon fill="midnightblue" stroke="midnightblue" points="848.899,-93.9037 838.31,-93.5806 846.387,-100.437 848.899,-93.9037"/>
</g>
<!-- Node19 -->
<g id="node19" class="node"><title>Node19</title>
<polygon fill="none" stroke="#bfbfbf" points="649.5,-1 649.5,-31 800.5,-31 800.5,-1 649.5,-1"/>
<text text-anchor="start" x="657.5" y="-19" font-family="Helvetica,sans-Serif" font-size="10.00">Math/GenVector/Displacement</text>
<text text-anchor="middle" x="725" y="-8" font-family="Helvetica,sans-Serif" font-size="10.00">Vector2D.h</text>
</g>
<!-- Node18&#45;&gt;Node19 -->
<g id="edge19" class="edge"><title>Node18&#45;&gt;Node19</title>
<path fill="none" stroke="midnightblue" d="M804.103,-74.3717C791.221,-65.0286 770.22,-49.7966 753.093,-37.375"/>
<polygon fill="midnightblue" stroke="midnightblue" points="754.703,-34.2194 744.553,-31.1815 750.593,-39.8859 754.703,-34.2194"/>
</g>
<!-- Node20 -->
<g id="node20" class="node"><title>Node20</title>
<polygon fill="none" stroke="#bfbfbf" points="819,-6.5 819,-25.5 995,-25.5 995,-6.5 819,-6.5"/>
<text text-anchor="middle" x="907" y="-13.5" font-family="Helvetica,sans-Serif" font-size="10.00">Math/GenVector/PositionVector2D.h</text>
</g>
<!-- Node18&#45;&gt;Node20 -->
<g id="edge20" class="edge"><title>Node18&#45;&gt;Node20</title>
<path fill="none" stroke="midnightblue" d="M827.897,-74.3717C842.884,-63.5015 868.862,-44.6602 886.942,-31.5474"/>
<polygon fill="midnightblue" stroke="midnightblue" points="889.06,-34.3349 895.1,-25.6305 884.95,-28.6684 889.06,-34.3349"/>
</g>
<!-- Node22 -->
<g id="node22" class="node"><title>Node22</title>
<g id="a_node22"><a xlink:href="../../de/d61/ShmManager_8h.html" target="_top" xlink:title="CommonUtils/ShmManager.h">
<polygon fill="none" stroke="black" points="115,-136.5 115,-155.5 261,-155.5 261,-136.5 115,-136.5"/>
<text text-anchor="middle" x="188" y="-143.5" font-family="Helvetica,sans-Serif" font-size="10.00">CommonUtils/ShmManager.h</text>
</a>
</g>
</g>
<!-- Node21&#45;&gt;Node22 -->
<g id="edge22" class="edge"><title>Node21&#45;&gt;Node22</title>
<path fill="none" stroke="midnightblue" d="M781.99,-198.482C769.193,-196.113 755.057,-193.72 742,-192 575.869,-170.114 380.215,-157.214 271.528,-151.18"/>
<polygon fill="midnightblue" stroke="midnightblue" points="271.463,-147.671 261.286,-150.617 271.079,-154.66 271.463,-147.671"/>
</g>
<!-- Node27 -->
<g id="node27" class="node"><title>Node27</title>
<polygon fill="none" stroke="#bfbfbf" points="799.5,-136.5 799.5,-155.5 848.5,-155.5 848.5,-136.5 799.5,-136.5"/>
<text text-anchor="middle" x="824" y="-143.5" font-family="Helvetica,sans-Serif" font-size="10.00">cassert</text>
</g>
<!-- Node21&#45;&gt;Node27 -->
<g id="edge27" class="edge"><title>Node21&#45;&gt;Node27</title>
<path fill="none" stroke="midnightblue" d="M824,-198.403C824,-189.938 824,-176.728 824,-165.82"/>
<polygon fill="midnightblue" stroke="midnightblue" points="827.5,-165.581 824,-155.581 820.5,-165.581 827.5,-165.581"/>
</g>
<!-- Node23 -->
<g id="node23" class="node"><title>Node23</title>
<polygon fill="none" stroke="#bfbfbf" points="-0.5,-74.5 -0.5,-93.5 28.5,-93.5 28.5,-74.5 -0.5,-74.5"/>
<text text-anchor="middle" x="14" y="-81.5" font-family="Helvetica,sans-Serif" font-size="10.00">list</text>
</g>
<!-- Node22&#45;&gt;Node23 -->
<g id="edge23" class="edge"><title>Node22&#45;&gt;Node23</title>
<path fill="none" stroke="midnightblue" d="M148.073,-136.436C116.955,-128.977 73.115,-116.728 37,-100 36.1673,-99.6143 35.3298,-99.2018 34.4929,-98.7687"/>
<polygon fill="midnightblue" stroke="midnightblue" points="36.1856,-95.7035 25.797,-93.6232 32.6209,-101.728 36.1856,-95.7035"/>
</g>
<!-- Node24 -->
<g id="node24" class="node"><title>Node24</title>
<polygon fill="none" stroke="#bfbfbf" points="46.5,-74.5 46.5,-93.5 95.5,-93.5 95.5,-74.5 46.5,-74.5"/>
<text text-anchor="middle" x="71" y="-81.5" font-family="Helvetica,sans-Serif" font-size="10.00">cstddef</text>
</g>
<!-- Node22&#45;&gt;Node24 -->
<g id="edge24" class="edge"><title>Node22&#45;&gt;Node24</title>
<path fill="none" stroke="midnightblue" d="M171.237,-136.403C151.775,-126.423 119.455,-109.849 96.7893,-98.2253"/>
<polygon fill="midnightblue" stroke="midnightblue" points="98.2275,-95.0294 87.7322,-93.5806 95.0332,-101.258 98.2275,-95.0294"/>
</g>
<!-- Node25 -->
<g id="node25" class="node"><title>Node25</title>
<polygon fill="none" stroke="#bfbfbf" points="114,-69 114,-99 262,-99 262,-69 114,-69"/>
<text text-anchor="start" x="122" y="-87" font-family="Helvetica,sans-Serif" font-size="10.00">boost/interprocess</text>
<text text-anchor="middle" x="188" y="-76" font-family="Helvetica,sans-Serif" font-size="10.00">/managed_external_buffer.hpp</text>
</g>
<!-- Node22&#45;&gt;Node25 -->
<g id="edge25" class="edge"><title>Node22&#45;&gt;Node25</title>
<path fill="none" stroke="midnightblue" d="M188,-136.403C188,-129.341 188,-118.975 188,-109.399"/>
<polygon fill="midnightblue" stroke="midnightblue" points="191.5,-109.141 188,-99.1408 184.5,-109.141 191.5,-109.141"/>
</g>
<!-- Node26 -->
<g id="node26" class="node"><title>Node26</title>
<polygon fill="none" stroke="#bfbfbf" points="280,-69 280,-99 400,-99 400,-69 280,-69"/>
<text text-anchor="start" x="288" y="-87" font-family="Helvetica,sans-Serif" font-size="10.00">boost/interprocess</text>
<text text-anchor="middle" x="340" y="-76" font-family="Helvetica,sans-Serif" font-size="10.00">/allocators/allocator.hpp</text>
</g>
<!-- Node22&#45;&gt;Node26 -->
<g id="edge26" class="edge"><title>Node22&#45;&gt;Node26</title>
<path fill="none" stroke="midnightblue" d="M209.778,-136.403C231.881,-127.679 266.75,-113.914 294.846,-102.824"/>
<polygon fill="midnightblue" stroke="midnightblue" points="296.453,-105.953 304.469,-99.0253 293.883,-99.4415 296.453,-105.953"/>
</g>
<!-- Node29 -->
<g id="node29" class="node"><title>Node29</title>
<polygon fill="none" stroke="#bfbfbf" points="973.5,-328.5 973.5,-347.5 1014.5,-347.5 1014.5,-328.5 973.5,-328.5"/>
<text text-anchor="middle" x="994" y="-335.5" font-family="Helvetica,sans-Serif" font-size="10.00">string</text>
</g>
<!-- Node28&#45;&gt;Node29 -->
<g id="edge30" class="edge"><title>Node28&#45;&gt;Node29</title>
<path fill="none" stroke="midnightblue" d="M983.719,-390.403C985.43,-381.849 988.11,-368.45 990.305,-357.476"/>
<polygon fill="midnightblue" stroke="midnightblue" points="993.755,-358.073 992.284,-347.581 986.891,-356.7 993.755,-358.073"/>
</g>
<!-- Node30 -->
<g id="node30" class="node"><title>Node30</title>
<polygon fill="none" stroke="#bfbfbf" points="1033,-328.5 1033,-347.5 1113,-347.5 1113,-328.5 1033,-328.5"/>
<text text-anchor="middle" x="1073" y="-335.5" font-family="Helvetica,sans-Serif" font-size="10.00">RStringView.h</text>
</g>
<!-- Node28&#45;&gt;Node30 -->
<g id="edge31" class="edge"><title>Node28&#45;&gt;Node30</title>
<path fill="none" stroke="midnightblue" d="M995.038,-390.403C1009.77,-380.691 1033.97,-364.732 1051.51,-353.17"/>
<polygon fill="midnightblue" stroke="midnightblue" points="1053.56,-356.007 1059.99,-347.581 1049.71,-350.163 1053.56,-356.007"/>
</g>
<!-- Node31 -->
<g id="node31" class="node"><title>Node31</title>
<polygon fill="none" stroke="#bfbfbf" points="902.5,-328.5 902.5,-347.5 955.5,-347.5 955.5,-328.5 902.5,-328.5"/>
<text text-anchor="middle" x="929" y="-335.5" font-family="Helvetica,sans-Serif" font-size="10.00">TMath.h</text>
</g>
<!-- Node28&#45;&gt;Node31 -->
<g id="edge32" class="edge"><title>Node28&#45;&gt;Node31</title>
<path fill="none" stroke="midnightblue" d="M974.406,-390.403C966.299,-381.225 953.265,-366.47 943.237,-355.117"/>
<polygon fill="midnightblue" stroke="midnightblue" points="945.823,-352.758 936.58,-347.581 940.577,-357.392 945.823,-352.758"/>
</g>
</g>
</svg>
        <g id="navigator" transform="translate(0 0)" fill="#404254">
                <rect fill="#f2f5e9" fill-opacity="0.5" stroke="#606060" stroke-width=".5" x="0" y="0" width="60" height="60"/>
                <use id="zoomplus" xlink:href="#zoomPlus" x="17" y="9" onmousedown="handleZoom(evt,'in')"/>
                <use id="zoomminus" xlink:href="#zoomMin" x="42" y="9" onmousedown="handleZoom(evt,'out')"/>
                <use id="reset" xlink:href="#resetDef" x="30" y="36" onmousedown="handleReset()"/>
                <g id="arrowUp" xlink:href="#dirArrow" transform="translate(30 24)" onmousedown="handlePan(0,-1)">
                  <use xlink:href="#rim" fill="#404040">
                        <set attributeName="fill" to="#808080" begin="arrowUp.mouseover" end="arrowUp.mouseout"/>
                  </use>
                  <path fill="none" stroke="white" stroke-width="1.5" d="M0,-3.0v7 M-2.5,-0.5L0,-3.0L2.5,-0.5"/>
                </g>
                <g id="arrowRight" xlink:href="#dirArrow" transform="rotate(90) translate(36 -43)" onmousedown="handlePan(1,0)">
                  <use xlink:href="#rim" fill="#404040">
                        <set attributeName="fill" to="#808080" begin="arrowRight.mouseover" end="arrowRight.mouseout"/>
                  </use>
                  <path fill="none" stroke="white" stroke-width="1.5" d="M0,-3.0v7 M-2.5,-0.5L0,-3.0L2.5,-0.5"/>
                </g>
                <g id="arrowDown" xlink:href="#dirArrow" transform="rotate(180) translate(-30 -48)" onmousedown="handlePan(0,1)">
                  <use xlink:href="#rim" fill="#404040">
                        <set attributeName="fill" to="#808080" begin="arrowDown.mouseover" end="arrowDown.mouseout"/>
                  </use>
                  <path fill="none" stroke="white" stroke-width="1.5" d="M0,-3.0v7 M-2.5,-0.5L0,-3.0L2.5,-0.5"/>
                </g>
                <g id="arrowLeft" xlink:href="#dirArrow" transform="rotate(270) translate(-36 17)" onmousedown="handlePan(-1,0)">
                  <use xlink:href="#rim" fill="#404040">
                        <set attributeName="fill" to="#808080" begin="arrowLeft.mouseover" end="arrowLeft.mouseout"/>
                  </use>
                  <path fill="none" stroke="white" stroke-width="1.5" d="M0,-3.0v7 M-2.5,-0.5L0,-3.0L2.5,-0.5"/>
                </g>
        </g>
        <svg viewBox="0 0 15 15" width="100%" height="30px" preserveAspectRatio="xMaxYMin meet">
         <g id="arrow_out" transform="scale(0.3 0.3)">
          <a xlink:href="Detectors_2PHOS_2reconstruction_2src_2Cluster_8cxx__incl_org.svg" target="_base">
           <rect id="button" ry="5" rx="5" y="6" x="6" height="38" width="38"
                fill="#f2f5e9" fill-opacity="0.5" stroke="#606060" stroke-width="1.0"/>
           <path id="arrow"
             d="M 11.500037,31.436501 C 11.940474,20.09759 22.043105,11.32322 32.158766,21.979434 L 37.068811,17.246167 C 37.068811,17.246167 37.088388,32 37.088388,32 L 22.160133,31.978069 C 22.160133,31.978069 26.997745,27.140456 26.997745,27.140456 C 18.528582,18.264221 13.291696,25.230495 11.500037,31.436501 z"
             style="fill:#404040;"/>
          </a>
         </g>
        </svg>
</svg>
