<?xml version="1.0" encoding="UTF-8" standalone="no"?>
<!DOCTYPE svg PUBLIC "-//W3C//DTD SVG 1.1//EN"
 "http://www.w3.org/Graphics/SVG/1.1/DTD/svg11.dtd">
<!-- Generated by graphviz version 2.36.0 (20140111.2315)
 -->
<!-- Title: o2::field::MagFieldFast::SolParam Pages: 1 -->
<svg width="122pt" height="184pt"
 viewBox="0.00 0.00 122.00 184.00" xmlns="http://www.w3.org/2000/svg" xmlns:xlink="http://www.w3.org/1999/xlink">
<g id="graph0" class="graph" transform="scale(1 1) rotate(0) translate(4 180)">
<title>o2::field::MagFieldFast::SolParam</title>
<!-- Node1 -->
<g id="node1" class="node"><title>Node1</title>
<polygon fill="#bfbfbf" stroke="black" points="-1,-1 -1,-69 115,-69 115,-1 -1,-1"/>
<text text-anchor="start" x="7" y="-57" font-family="Helvetica,sans-Serif" font-size="10.00">o2::field::MagFieldFast</text>
<text text-anchor="middle" x="57" y="-46" font-family="Helvetica,sans-Serif" font-size="10.00">::SolParam</text>
<polyline fill="none" stroke="black" points="-1,-39 115,-39 "/>
<text text-anchor="middle" x="57" y="-27" font-family="Helvetica,sans-Serif" font-size="10.00"> </text>
<polyline fill="none" stroke="black" points="-1,-20 115,-20 "/>
<text text-anchor="middle" x="57" y="-8" font-family="Helvetica,sans-Serif" font-size="10.00"> </text>
</g>
<!-- Node2 -->
<g id="node2" class="node"><title>Node2</title>
<g id="a_node2"><a xlink:href="../../d4/dc3/classfloat.html" target="_top" xlink:title="{float\n||}">
<polygon fill="none" stroke="black" points="39.5,-118.5 39.5,-175.5 74.5,-175.5 74.5,-118.5 39.5,-118.5"/>
<text text-anchor="middle" x="57" y="-163.5" font-family="Helvetica,sans-Serif" font-size="10.00">float</text>
<polyline fill="none" stroke="black" points="39.5,-156.5 74.5,-156.5 "/>
<text text-anchor="middle" x="57" y="-144.5" font-family="Helvetica,sans-Serif" font-size="10.00"> </text>
<polyline fill="none" stroke="black" points="39.5,-137.5 74.5,-137.5 "/>
<text text-anchor="middle" x="57" y="-125.5" font-family="Helvetica,sans-Serif" font-size="10.00"> </text>
</a>
</g>
</g>
<!-- Node2&#45;&gt;Node1 -->
<g id="edge1" class="edge"><title>Node2&#45;&gt;Node1</title>
<path fill="none" stroke="#404040" d="M57,-118.242C57,-107.073 57,-93.8972 57,-81.4036"/>
<polygon fill="none" stroke="#404040" points="57.0001,-81.2368 53,-75.2368 57,-69.2368 61,-75.2367 57.0001,-81.2368"/>
<text text-anchor="middle" x="80" y="-91.5" font-family="Helvetica,sans-Serif" font-size="10.00"> +parBxyz</text>
</g>
</g>
</svg>
