<?xml version="1.0" encoding="UTF-8" standalone="no"?>
<!DOCTYPE svg PUBLIC "-//W3C//DTD SVG 1.1//EN"
 "http://www.w3.org/Graphics/SVG/1.1/DTD/svg11.dtd">
<!-- Generated by graphviz version 2.36.0 (20140111.2315)
 -->
<!-- Title: o2::framework::ConfigParamSpec Pages: 1 -->
<svg width="418pt" height="412pt"
 viewBox="0.00 0.00 418.00 412.00" xmlns="http://www.w3.org/2000/svg" xmlns:xlink="http://www.w3.org/1999/xlink">
<g id="graph0" class="graph" transform="scale(1 1) rotate(0) translate(4 408)">
<title>o2::framework::ConfigParamSpec</title>
<!-- Node1 -->
<g id="node1" class="node"><title>Node1</title>
<polygon fill="#bfbfbf" stroke="black" points="126,-0.5 126,-79.5 290,-79.5 290,-0.5 126,-0.5"/>
<text text-anchor="middle" x="208" y="-67.5" font-family="Helvetica,sans-Serif" font-size="10.00">o2::framework::ConfigParamSpec</text>
<polyline fill="none" stroke="black" points="126,-60.5 290,-60.5 "/>
<text text-anchor="middle" x="208" y="-48.5" font-family="Helvetica,sans-Serif" font-size="10.00"> </text>
<polyline fill="none" stroke="black" points="126,-41.5 290,-41.5 "/>
<text text-anchor="start" x="134" y="-29.5" font-family="Helvetica,sans-Serif" font-size="10.00">+ ConfigParamSpec()</text>
<text text-anchor="start" x="134" y="-18.5" font-family="Helvetica,sans-Serif" font-size="10.00">+ ConfigParamSpec()</text>
<text text-anchor="start" x="134" y="-7.5" font-family="Helvetica,sans-Serif" font-size="10.00">+ ConfigParamSpec()</text>
</g>
<!-- Node2 -->
<g id="node2" class="node"><title>Node2</title>
<g id="a_node2"><a xlink:href="../../d9/df7/structo2_1_1framework_1_1ConfigParamSpec_1_1HelpString.html" target="_top" xlink:title="{o2::framework::ConfigParam\lSpec::HelpString\n||+ c_str()\l}">
<polygon fill="none" stroke="black" points="0,-173 0,-241 142,-241 142,-173 0,-173"/>
<text text-anchor="start" x="8" y="-229" font-family="Helvetica,sans-Serif" font-size="10.00">o2::framework::ConfigParam</text>
<text text-anchor="middle" x="71" y="-218" font-family="Helvetica,sans-Serif" font-size="10.00">Spec::HelpString</text>
<polyline fill="none" stroke="black" points="0,-211 142,-211 "/>
<text text-anchor="middle" x="71" y="-199" font-family="Helvetica,sans-Serif" font-size="10.00"> </text>
<polyline fill="none" stroke="black" points="0,-192 142,-192 "/>
<text text-anchor="start" x="8" y="-180" font-family="Helvetica,sans-Serif" font-size="10.00">+ c_str()</text>
</a>
</g>
</g>
<!-- Node2&#45;&gt;Node1 -->
<g id="edge1" class="edge"><title>Node2&#45;&gt;Node1</title>
<path fill="none" stroke="#404040" d="M94.0118,-172.99C109.66,-151.142 131.222,-122.172 152,-98 154.704,-94.8538 157.541,-91.6648 160.442,-88.4859"/>
<polygon fill="none" stroke="#404040" points="160.548,-88.3728 161.716,-81.2569 168.734,-79.598 167.566,-86.7139 160.548,-88.3728"/>
<text text-anchor="middle" x="166" y="-101.5" font-family="Helvetica,sans-Serif" font-size="10.00"> +help</text>
</g>
<!-- Node3 -->
<g id="node3" class="node"><title>Node3</title>
<polygon fill="none" stroke="#bfbfbf" points="15.5,-335 15.5,-403 126.5,-403 126.5,-335 15.5,-335"/>
<text text-anchor="start" x="23.5" y="-391" font-family="Helvetica,sans-Serif" font-size="10.00">GLsizei const GLchar</text>
<text text-anchor="middle" x="71" y="-380" font-family="Helvetica,sans-Serif" font-size="10.00"> *const *</text>
<polyline fill="none" stroke="#bfbfbf" points="15.5,-373 126.5,-373 "/>
<text text-anchor="middle" x="71" y="-361" font-family="Helvetica,sans-Serif" font-size="10.00"> </text>
<polyline fill="none" stroke="#bfbfbf" points="15.5,-354 126.5,-354 "/>
<text text-anchor="middle" x="71" y="-342" font-family="Helvetica,sans-Serif" font-size="10.00"> </text>
</g>
<!-- Node3&#45;&gt;Node2 -->
<g id="edge2" class="edge"><title>Node3&#45;&gt;Node2</title>
<path fill="none" stroke="#404040" d="M71,-334.848C71,-311.249 71,-279.254 71,-253.301"/>
<polygon fill="none" stroke="#404040" points="71.0001,-253.11 67,-247.11 71,-241.11 75,-247.11 71.0001,-253.11"/>
<text text-anchor="middle" x="81.5" y="-307.5" font-family="Helvetica,sans-Serif" font-size="10.00"> +str</text>
</g>
<!-- Node4 -->
<g id="node4" class="node"><title>Node4</title>
<g id="a_node4"><a xlink:href="../../d1/da0/classint.html" target="_top" xlink:title="{int\n||}">
<polygon fill="none" stroke="black" points="160.5,-178.5 160.5,-235.5 189.5,-235.5 189.5,-178.5 160.5,-178.5"/>
<text text-anchor="middle" x="175" y="-223.5" font-family="Helvetica,sans-Serif" font-size="10.00">int</text>
<polyline fill="none" stroke="black" points="160.5,-216.5 189.5,-216.5 "/>
<text text-anchor="middle" x="175" y="-204.5" font-family="Helvetica,sans-Serif" font-size="10.00"> </text>
<polyline fill="none" stroke="black" points="160.5,-197.5 189.5,-197.5 "/>
<text text-anchor="middle" x="175" y="-185.5" font-family="Helvetica,sans-Serif" font-size="10.00"> </text>
</a>
</g>
</g>
<!-- Node4&#45;&gt;Node1 -->
<g id="edge3" class="edge"><title>Node4&#45;&gt;Node1</title>
<path fill="none" stroke="#404040" d="M175.8,-178.138C176.918,-156.125 179.595,-124.761 186,-98 186.515,-95.8498 187.091,-93.6718 187.717,-91.4849"/>
<polygon fill="none" stroke="#404040" points="187.794,-91.2414 185.81,-84.3087 191.446,-79.8106 193.43,-86.7433 187.794,-91.2414"/>
<text text-anchor="middle" x="203" y="-101.5" font-family="Helvetica,sans-Serif" font-size="10.00"> +name</text>
</g>
<!-- Node5 -->
<g id="node5" class="node"><title>Node5</title>
<polygon fill="none" stroke="#bfbfbf" points="207.5,-178.5 207.5,-235.5 276.5,-235.5 276.5,-178.5 207.5,-178.5"/>
<text text-anchor="middle" x="242" y="-223.5" font-family="Helvetica,sans-Serif" font-size="10.00">VariantType</text>
<polyline fill="none" stroke="#bfbfbf" points="207.5,-216.5 276.5,-216.5 "/>
<text text-anchor="middle" x="242" y="-204.5" font-family="Helvetica,sans-Serif" font-size="10.00"> </text>
<polyline fill="none" stroke="#bfbfbf" points="207.5,-197.5 276.5,-197.5 "/>
<text text-anchor="middle" x="242" y="-185.5" font-family="Helvetica,sans-Serif" font-size="10.00"> </text>
</g>
<!-- Node5&#45;&gt;Node1 -->
<g id="edge4" class="edge"><title>Node5&#45;&gt;Node1</title>
<path fill="none" stroke="#404040" d="M236.443,-178.468C232.025,-156.637 225.666,-125.357 220,-98 219.558,-95.8648 219.105,-93.6848 218.646,-91.4829"/>
<polygon fill="none" stroke="#404040" points="218.623,-91.3719 213.48,-86.3175 216.167,-79.6259 221.311,-84.6803 218.623,-91.3719"/>
<text text-anchor="middle" x="237" y="-101.5" font-family="Helvetica,sans-Serif" font-size="10.00"> +type</text>
</g>
<!-- Node6 -->
<g id="node6" class="node"><title>Node6</title>
<g id="a_node6"><a xlink:href="../../d8/dff/classo2_1_1framework_1_1Variant.html" target="_top" xlink:title="{o2::framework::Variant\n||+ Variant()\l+ Variant()\l+ Variant()\l+ Variant()\l+ Variant()\l+ ~Variant()\l+ operator=()\l+ get()\l+ set()\l+ type()\l}">
<polygon fill="none" stroke="black" points="295,-129 295,-285 411,-285 411,-129 295,-129"/>
<text text-anchor="middle" x="353" y="-273" font-family="Helvetica,sans-Serif" font-size="10.00">o2::framework::Variant</text>
<polyline fill="none" stroke="black" points="295,-266 411,-266 "/>
<text text-anchor="middle" x="353" y="-254" font-family="Helvetica,sans-Serif" font-size="10.00"> </text>
<polyline fill="none" stroke="black" points="295,-247 411,-247 "/>
<text text-anchor="start" x="303" y="-235" font-family="Helvetica,sans-Serif" font-size="10.00">+ Variant()</text>
<text text-anchor="start" x="303" y="-224" font-family="Helvetica,sans-Serif" font-size="10.00">+ Variant()</text>
<text text-anchor="start" x="303" y="-213" font-family="Helvetica,sans-Serif" font-size="10.00">+ Variant()</text>
<text text-anchor="start" x="303" y="-202" font-family="Helvetica,sans-Serif" font-size="10.00">+ Variant()</text>
<text text-anchor="start" x="303" y="-191" font-family="Helvetica,sans-Serif" font-size="10.00">+ Variant()</text>
<text text-anchor="start" x="303" y="-180" font-family="Helvetica,sans-Serif" font-size="10.00">+ ~Variant()</text>
<text text-anchor="start" x="303" y="-169" font-family="Helvetica,sans-Serif" font-size="10.00">+ operator=()</text>
<text text-anchor="start" x="303" y="-158" font-family="Helvetica,sans-Serif" font-size="10.00">+ get()</text>
<text text-anchor="start" x="303" y="-147" font-family="Helvetica,sans-Serif" font-size="10.00">+ set()</text>
<text text-anchor="start" x="303" y="-136" font-family="Helvetica,sans-Serif" font-size="10.00">+ type()</text>
</a>
</g>
</g>
<!-- Node6&#45;&gt;Node1 -->
<g id="edge5" class="edge"><title>Node6&#45;&gt;Node1</title>
<path fill="none" stroke="#404040" d="M294.794,-139.168C291.483,-135.388 288.201,-131.644 285,-128 273.86,-115.318 261.775,-101.63 250.553,-88.9494"/>
<polygon fill="none" stroke="#404040" points="250.515,-88.9068 243.543,-87.0665 242.56,-79.9227 249.532,-81.763 250.515,-88.9068"/>
<text text-anchor="middle" x="301" y="-101.5" font-family="Helvetica,sans-Serif" font-size="10.00"> +defaultValue</text>
</g>
</g>
</svg>
