<?xml version="1.0" encoding="UTF-8" standalone="no"?>
<!DOCTYPE svg PUBLIC "-//W3C//DTD SVG 1.1//EN"
 "http://www.w3.org/Graphics/SVG/1.1/DTD/svg11.dtd">
<!-- Generated by graphviz version 2.36.0 (20140111.2315)
 -->
<!-- Title: o2::ITSMFT::MFTDPLDigitizerTask Pages: 1 -->
<svg width="1976pt" height="1024pt"
 viewBox="0.00 0.00 1976.00 1024.00" xmlns="http://www.w3.org/2000/svg" xmlns:xlink="http://www.w3.org/1999/xlink">
<g id="graph0" class="graph" transform="scale(1 1) rotate(0) translate(4 1020)">
<title>o2::ITSMFT::MFTDPLDigitizerTask</title>
<!-- Node1 -->
<g id="node1" class="node"><title>Node1</title>
<polygon fill="#bfbfbf" stroke="black" points="1441.5,-1 1441.5,-69 1614.5,-69 1614.5,-1 1441.5,-1"/>
<text text-anchor="middle" x="1528" y="-57" font-family="Helvetica,sans-Serif" font-size="10.00">o2::ITSMFT::MFTDPLDigitizerTask</text>
<polyline fill="none" stroke="black" points="1441.5,-50 1614.5,-50 "/>
<text text-anchor="middle" x="1528" y="-38" font-family="Helvetica,sans-Serif" font-size="10.00"> </text>
<polyline fill="none" stroke="black" points="1441.5,-31 1614.5,-31 "/>
<text text-anchor="start" x="1449.5" y="-19" font-family="Helvetica,sans-Serif" font-size="10.00">+ MFTDPLDigitizerTask()</text>
<text text-anchor="start" x="1449.5" y="-8" font-family="Helvetica,sans-Serif" font-size="10.00">+ setDigitizationOptions()</text>
</g>
<!-- Node2 -->
<g id="node2" class="node"><title>Node2</title>
<g id="a_node2"><a xlink:href="../../db/df5/classo2_1_1ITSMFT_1_1ITSMFTDPLDigitizerTask.html" target="_top" xlink:title="{o2::ITSMFT::ITSMFTDPLDigitizerTask\n||+ init()\l+ setDigitizationOptions()\l+ run()\l# ITSMFTDPLDigitizerTask()\l# processQED()\l# setupQEDChain()\l# retrieveHits()\l# accumulate()\l}">
<polygon fill="none" stroke="black" points="929,-119 929,-253 1117,-253 1117,-119 929,-119"/>
<text text-anchor="middle" x="1023" y="-241" font-family="Helvetica,sans-Serif" font-size="10.00">o2::ITSMFT::ITSMFTDPLDigitizerTask</text>
<polyline fill="none" stroke="black" points="929,-234 1117,-234 "/>
<text text-anchor="middle" x="1023" y="-222" font-family="Helvetica,sans-Serif" font-size="10.00"> </text>
<polyline fill="none" stroke="black" points="929,-215 1117,-215 "/>
<text text-anchor="start" x="937" y="-203" font-family="Helvetica,sans-Serif" font-size="10.00">+ init()</text>
<text text-anchor="start" x="937" y="-192" font-family="Helvetica,sans-Serif" font-size="10.00">+ setDigitizationOptions()</text>
<text text-anchor="start" x="937" y="-181" font-family="Helvetica,sans-Serif" font-size="10.00">+ run()</text>
<text text-anchor="start" x="937" y="-170" font-family="Helvetica,sans-Serif" font-size="10.00"># ITSMFTDPLDigitizerTask()</text>
<text text-anchor="start" x="937" y="-159" font-family="Helvetica,sans-Serif" font-size="10.00"># processQED()</text>
<text text-anchor="start" x="937" y="-148" font-family="Helvetica,sans-Serif" font-size="10.00"># setupQEDChain()</text>
<text text-anchor="start" x="937" y="-137" font-family="Helvetica,sans-Serif" font-size="10.00"># retrieveHits()</text>
<text text-anchor="start" x="937" y="-126" font-family="Helvetica,sans-Serif" font-size="10.00"># accumulate()</text>
</a>
</g>
</g>
<!-- Node2&#45;&gt;Node1 -->
<g id="edge1" class="edge"><title>Node2&#45;&gt;Node1</title>
<path fill="none" stroke="midnightblue" d="M1126.79,-154.378C1219.55,-127.007 1353.93,-87.3605 1441.13,-61.6305"/>
<polygon fill="none" stroke="midnightblue" points="1125.7,-151.049 1117.1,-157.236 1127.68,-157.763 1125.7,-151.049"/>
</g>
<!-- Node3 -->
<g id="node3" class="node"><title>Node3</title>
<polygon fill="none" stroke="#bfbfbf" points="1655.5,-428 1655.5,-496 1760.5,-496 1760.5,-428 1655.5,-428"/>
<text text-anchor="start" x="1663.5" y="-484" font-family="Helvetica,sans-Serif" font-size="10.00">vector&lt; o2::ITSMFT</text>
<text text-anchor="middle" x="1708" y="-473" font-family="Helvetica,sans-Serif" font-size="10.00">::o2::ITSMFT::Hit &gt;</text>
<polyline fill="none" stroke="#bfbfbf" points="1655.5,-466 1760.5,-466 "/>
<text text-anchor="middle" x="1708" y="-454" font-family="Helvetica,sans-Serif" font-size="10.00"> </text>
<polyline fill="none" stroke="#bfbfbf" points="1655.5,-447 1760.5,-447 "/>
<text text-anchor="middle" x="1708" y="-435" font-family="Helvetica,sans-Serif" font-size="10.00"> </text>
</g>
<!-- Node3&#45;&gt;Node2 -->
<g id="edge2" class="edge"><title>Node3&#45;&gt;Node2</title>
<path fill="none" stroke="#404040" d="M1702.15,-427.98C1694.62,-394.599 1678.43,-343.559 1646,-312 1610.51,-277.46 1589.8,-284.959 1542,-272 1401.57,-233.926 1234.86,-210.316 1129.01,-197.917"/>
<polygon fill="none" stroke="#404040" points="1128.97,-197.912 1122.55,-201.196 1117.04,-196.533 1123.46,-193.249 1128.97,-197.912"/>
<text text-anchor="middle" x="1640.5" y="-280.5" font-family="Helvetica,sans-Serif" font-size="10.00"> #mHits</text>
</g>
<!-- Node4 -->
<g id="node4" class="node"><title>Node4</title>
<polygon fill="none" stroke="#bfbfbf" points="1778.5,-433.5 1778.5,-490.5 1823.5,-490.5 1823.5,-433.5 1778.5,-433.5"/>
<text text-anchor="middle" x="1801" y="-478.5" font-family="Helvetica,sans-Serif" font-size="10.00">double</text>
<polyline fill="none" stroke="#bfbfbf" points="1778.5,-471.5 1823.5,-471.5 "/>
<text text-anchor="middle" x="1801" y="-459.5" font-family="Helvetica,sans-Serif" font-size="10.00"> </text>
<polyline fill="none" stroke="#bfbfbf" points="1778.5,-452.5 1823.5,-452.5 "/>
<text text-anchor="middle" x="1801" y="-440.5" font-family="Helvetica,sans-Serif" font-size="10.00"> </text>
</g>
<!-- Node4&#45;&gt;Node2 -->
<g id="edge3" class="edge"><title>Node4&#45;&gt;Node2</title>
<path fill="none" stroke="#404040" d="M1802.55,-433.377C1802.86,-400.578 1798.4,-346.042 1769,-312 1735.82,-273.574 1711.37,-283.851 1662,-272 1593.28,-255.503 1574.12,-262.876 1504,-254 1374.92,-237.66 1226.69,-216.675 1129.29,-202.581"/>
<polygon fill="none" stroke="#404040" points="1129.25,-202.575 1122.73,-205.674 1117.37,-200.855 1123.88,-197.756 1129.25,-202.575"/>
<text text-anchor="middle" x="1805" y="-286" font-family="Helvetica,sans-Serif" font-size="10.00"> #mQEDEntryTimeBinNS</text>
<text text-anchor="middle" x="1805" y="-275" font-family="Helvetica,sans-Serif" font-size="10.00">#mLastQEDTimeNS</text>
</g>
<!-- Node5 -->
<g id="node5" class="node"><title>Node5</title>
<g id="a_node5"><a xlink:href="../../d8/d92/classo2_1_1ITSMFT_1_1Digitizer.html" target="_top" xlink:title="{o2::ITSMFT::Digitizer\n||+ Digitizer()\l+ ~Digitizer()\l+ Digitizer()\l+ operator=()\l+ setDigits()\l+ setMCLabels()\l+ setROFRecords()\l+ getParams()\l+ getParams()\l+ init()\l+ process()\l+ setEventTime()\l+ getEventTime()\l+ getEndTimeOfROFMax()\l+ setContinuous()\l+ isContinuous()\l+ fillOutputContainer()\l+ setDigiParams()\l+ getDigitParams()\l+ setGeometry()\l+ getEventROFrameMin()\l+ getEventROFrameMax()\l+ resetEventROFrames()\l}">
<polygon fill="none" stroke="black" points="0,-312.5 0,-611.5 134,-611.5 134,-312.5 0,-312.5"/>
<text text-anchor="middle" x="67" y="-599.5" font-family="Helvetica,sans-Serif" font-size="10.00">o2::ITSMFT::Digitizer</text>
<polyline fill="none" stroke="black" points="0,-592.5 134,-592.5 "/>
<text text-anchor="middle" x="67" y="-580.5" font-family="Helvetica,sans-Serif" font-size="10.00"> </text>
<polyline fill="none" stroke="black" points="0,-573.5 134,-573.5 "/>
<text text-anchor="start" x="8" y="-561.5" font-family="Helvetica,sans-Serif" font-size="10.00">+ Digitizer()</text>
<text text-anchor="start" x="8" y="-550.5" font-family="Helvetica,sans-Serif" font-size="10.00">+ ~Digitizer()</text>
<text text-anchor="start" x="8" y="-539.5" font-family="Helvetica,sans-Serif" font-size="10.00">+ Digitizer()</text>
<text text-anchor="start" x="8" y="-528.5" font-family="Helvetica,sans-Serif" font-size="10.00">+ operator=()</text>
<text text-anchor="start" x="8" y="-517.5" font-family="Helvetica,sans-Serif" font-size="10.00">+ setDigits()</text>
<text text-anchor="start" x="8" y="-506.5" font-family="Helvetica,sans-Serif" font-size="10.00">+ setMCLabels()</text>
<text text-anchor="start" x="8" y="-495.5" font-family="Helvetica,sans-Serif" font-size="10.00">+ setROFRecords()</text>
<text text-anchor="start" x="8" y="-484.5" font-family="Helvetica,sans-Serif" font-size="10.00">+ getParams()</text>
<text text-anchor="start" x="8" y="-473.5" font-family="Helvetica,sans-Serif" font-size="10.00">+ getParams()</text>
<text text-anchor="start" x="8" y="-462.5" font-family="Helvetica,sans-Serif" font-size="10.00">+ init()</text>
<text text-anchor="start" x="8" y="-451.5" font-family="Helvetica,sans-Serif" font-size="10.00">+ process()</text>
<text text-anchor="start" x="8" y="-440.5" font-family="Helvetica,sans-Serif" font-size="10.00">+ setEventTime()</text>
<text text-anchor="start" x="8" y="-429.5" font-family="Helvetica,sans-Serif" font-size="10.00">+ getEventTime()</text>
<text text-anchor="start" x="8" y="-418.5" font-family="Helvetica,sans-Serif" font-size="10.00">+ getEndTimeOfROFMax()</text>
<text text-anchor="start" x="8" y="-407.5" font-family="Helvetica,sans-Serif" font-size="10.00">+ setContinuous()</text>
<text text-anchor="start" x="8" y="-396.5" font-family="Helvetica,sans-Serif" font-size="10.00">+ isContinuous()</text>
<text text-anchor="start" x="8" y="-385.5" font-family="Helvetica,sans-Serif" font-size="10.00">+ fillOutputContainer()</text>
<text text-anchor="start" x="8" y="-374.5" font-family="Helvetica,sans-Serif" font-size="10.00">+ setDigiParams()</text>
<text text-anchor="start" x="8" y="-363.5" font-family="Helvetica,sans-Serif" font-size="10.00">+ getDigitParams()</text>
<text text-anchor="start" x="8" y="-352.5" font-family="Helvetica,sans-Serif" font-size="10.00">+ setGeometry()</text>
<text text-anchor="start" x="8" y="-341.5" font-family="Helvetica,sans-Serif" font-size="10.00">+ getEventROFrameMin()</text>
<text text-anchor="start" x="8" y="-330.5" font-family="Helvetica,sans-Serif" font-size="10.00">+ getEventROFrameMax()</text>
<text text-anchor="start" x="8" y="-319.5" font-family="Helvetica,sans-Serif" font-size="10.00">+ resetEventROFrames()</text>
</a>
</g>
</g>
<!-- Node5&#45;&gt;Node2 -->
<g id="edge4" class="edge"><title>Node5&#45;&gt;Node2</title>
<path fill="none" stroke="#404040" d="M133.112,-312.102C147.016,-295.488 163.522,-281.244 183,-272 310.355,-211.557 720.545,-193.957 916.652,-188.941"/>
<polygon fill="none" stroke="#404040" points="916.687,-188.941 922.586,-184.793 928.683,-188.643 922.784,-192.79 916.687,-188.941"/>
<text text-anchor="middle" x="209.5" y="-280.5" font-family="Helvetica,sans-Serif" font-size="10.00"> #mDigitizer</text>
</g>
<!-- Node6 -->
<g id="node6" class="node"><title>Node6</title>
<g id="a_node6"><a xlink:href="../../d5/d0f/classTObject.html" target="_top" xlink:title="{TObject\n||}">
<polygon fill="none" stroke="black" points="41.5,-864.5 41.5,-921.5 92.5,-921.5 92.5,-864.5 41.5,-864.5"/>
<text text-anchor="middle" x="67" y="-909.5" font-family="Helvetica,sans-Serif" font-size="10.00">TObject</text>
<polyline fill="none" stroke="black" points="41.5,-902.5 92.5,-902.5 "/>
<text text-anchor="middle" x="67" y="-890.5" font-family="Helvetica,sans-Serif" font-size="10.00"> </text>
<polyline fill="none" stroke="black" points="41.5,-883.5 92.5,-883.5 "/>
<text text-anchor="middle" x="67" y="-871.5" font-family="Helvetica,sans-Serif" font-size="10.00"> </text>
</a>
</g>
</g>
<!-- Node6&#45;&gt;Node5 -->
<g id="edge5" class="edge"><title>Node6&#45;&gt;Node5</title>
<path fill="none" stroke="midnightblue" d="M67,-854.034C67,-799.992 67,-697.856 67,-611.52"/>
<polygon fill="none" stroke="midnightblue" points="63.5001,-854.183 67,-864.183 70.5001,-854.183 63.5001,-854.183"/>
</g>
<!-- Node7 -->
<g id="node7" class="node"><title>Node7</title>
<polygon fill="none" stroke="#bfbfbf" points="152,-433.5 152,-490.5 208,-490.5 208,-433.5 152,-433.5"/>
<text text-anchor="middle" x="180" y="-478.5" font-family="Helvetica,sans-Serif" font-size="10.00">ROMode</text>
<polyline fill="none" stroke="#bfbfbf" points="152,-471.5 208,-471.5 "/>
<text text-anchor="middle" x="180" y="-459.5" font-family="Helvetica,sans-Serif" font-size="10.00"> </text>
<polyline fill="none" stroke="#bfbfbf" points="152,-452.5 208,-452.5 "/>
<text text-anchor="middle" x="180" y="-440.5" font-family="Helvetica,sans-Serif" font-size="10.00"> </text>
</g>
<!-- Node7&#45;&gt;Node2 -->
<g id="edge6" class="edge"><title>Node7&#45;&gt;Node2</title>
<path fill="none" stroke="#404040" d="M179.247,-433.357C179.872,-400.281 185.987,-345.218 217,-312 256.518,-269.672 284.463,-284.525 341,-272 541.8,-227.515 781.384,-204.4 916.491,-194.045"/>
<polygon fill="none" stroke="#404040" points="916.868,-194.016 922.55,-189.575 928.834,-193.112 923.153,-197.553 916.868,-194.016"/>
<text text-anchor="middle" x="369" y="-280.5" font-family="Helvetica,sans-Serif" font-size="10.00"> #mROMode</text>
</g>
<!-- Node8 -->
<g id="node8" class="node"><title>Node8</title>
<polygon fill="none" stroke="#bfbfbf" points="226,-428 226,-496 368,-496 368,-428 226,-428"/>
<text text-anchor="start" x="234" y="-484" font-family="Helvetica,sans-Serif" font-size="10.00">Descriptor&lt; gSizeDataOrigin</text>
<text text-anchor="middle" x="297" y="-473" font-family="Helvetica,sans-Serif" font-size="10.00">String, printDataOrigin &gt;</text>
<polyline fill="none" stroke="#bfbfbf" points="226,-466 368,-466 "/>
<text text-anchor="middle" x="297" y="-454" font-family="Helvetica,sans-Serif" font-size="10.00"> </text>
<polyline fill="none" stroke="#bfbfbf" points="226,-447 368,-447 "/>
<text text-anchor="middle" x="297" y="-435" font-family="Helvetica,sans-Serif" font-size="10.00"> </text>
</g>
<!-- Node8&#45;&gt;Node2 -->
<g id="edge7" class="edge"><title>Node8&#45;&gt;Node2</title>
<path fill="none" stroke="#404040" d="M307.881,-427.869C320.157,-394.88 342.959,-344.587 377,-312 406.581,-283.683 420.873,-284.08 460,-272 614.695,-224.238 801.892,-202.798 916.685,-193.55"/>
<polygon fill="none" stroke="#404040" points="916.977,-193.527 922.645,-189.069 928.94,-192.587 923.272,-197.045 916.977,-193.527"/>
<text text-anchor="middle" x="481.5" y="-280.5" font-family="Helvetica,sans-Serif" font-size="10.00"> #mOrigin</text>
</g>
<!-- Node9 -->
<g id="node9" class="node"><title>Node9</title>
<polygon fill="none" stroke="#bfbfbf" points="386.5,-428 386.5,-496 529.5,-496 529.5,-428 386.5,-428"/>
<text text-anchor="start" x="394.5" y="-484" font-family="Helvetica,sans-Serif" font-size="10.00">vector&lt; o2::ITSMFT</text>
<text text-anchor="middle" x="458" y="-473" font-family="Helvetica,sans-Serif" font-size="10.00">::o2::ITSMFT::ROFRecord &gt;</text>
<polyline fill="none" stroke="#bfbfbf" points="386.5,-466 529.5,-466 "/>
<text text-anchor="middle" x="458" y="-454" font-family="Helvetica,sans-Serif" font-size="10.00"> </text>
<polyline fill="none" stroke="#bfbfbf" points="386.5,-447 529.5,-447 "/>
<text text-anchor="middle" x="458" y="-435" font-family="Helvetica,sans-Serif" font-size="10.00"> </text>
</g>
<!-- Node9&#45;&gt;Node2 -->
<g id="edge8" class="edge"><title>Node9&#45;&gt;Node2</title>
<path fill="none" stroke="#404040" d="M459.878,-427.991C464.194,-385.144 478.387,-311.229 525,-272 582.818,-223.341 788.433,-201.676 916.682,-192.712"/>
<polygon fill="none" stroke="#404040" points="916.871,-192.699 922.586,-188.3 928.844,-191.883 923.129,-196.282 916.871,-192.699"/>
<text text-anchor="middle" x="576.5" y="-286" font-family="Helvetica,sans-Serif" font-size="10.00"> #mROFRecords</text>
<text text-anchor="middle" x="576.5" y="-275" font-family="Helvetica,sans-Serif" font-size="10.00">#mROFRecordsAccum</text>
</g>
<!-- Node10 -->
<g id="node10" class="node"><title>Node10</title>
<g id="a_node10"><a xlink:href="../../d6/dd5/classo2_1_1detectors_1_1DetID.html" target="_top" xlink:title="Static class with identifiers, bitmasks and names for ALICE detectors. ">
<polygon fill="none" stroke="black" points="548,-345.5 548,-578.5 654,-578.5 654,-345.5 548,-345.5"/>
<text text-anchor="middle" x="601" y="-566.5" font-family="Helvetica,sans-Serif" font-size="10.00">o2::detectors::DetID</text>
<polyline fill="none" stroke="black" points="548,-559.5 654,-559.5 "/>
<text text-anchor="start" x="556" y="-547.5" font-family="Helvetica,sans-Serif" font-size="10.00">+ TOF</text>
<text text-anchor="start" x="556" y="-536.5" font-family="Helvetica,sans-Serif" font-size="10.00">+ PHS</text>
<text text-anchor="start" x="556" y="-525.5" font-family="Helvetica,sans-Serif" font-size="10.00">+ EMC</text>
<text text-anchor="start" x="556" y="-514.5" font-family="Helvetica,sans-Serif" font-size="10.00">+ HMP</text>
<text text-anchor="start" x="556" y="-503.5" font-family="Helvetica,sans-Serif" font-size="10.00">+ MFT</text>
<text text-anchor="start" x="556" y="-492.5" font-family="Helvetica,sans-Serif" font-size="10.00">+ Last</text>
<polyline fill="none" stroke="black" points="548,-485.5 654,-485.5 "/>
<text text-anchor="start" x="556" y="-473.5" font-family="Helvetica,sans-Serif" font-size="10.00">+ DetID()</text>
<text text-anchor="start" x="556" y="-462.5" font-family="Helvetica,sans-Serif" font-size="10.00">+ DetID()</text>
<text text-anchor="start" x="556" y="-451.5" font-family="Helvetica,sans-Serif" font-size="10.00">+ DetID()</text>
<text text-anchor="start" x="556" y="-440.5" font-family="Helvetica,sans-Serif" font-size="10.00">+ operator=()</text>
<text text-anchor="start" x="556" y="-429.5" font-family="Helvetica,sans-Serif" font-size="10.00">+ getID()</text>
<text text-anchor="start" x="556" y="-418.5" font-family="Helvetica,sans-Serif" font-size="10.00">+ getMask()</text>
<text text-anchor="start" x="556" y="-407.5" font-family="Helvetica,sans-Serif" font-size="10.00">+ getName()</text>
<text text-anchor="start" x="556" y="-396.5" font-family="Helvetica,sans-Serif" font-size="10.00">+ operator int()</text>
<text text-anchor="start" x="556" y="-385.5" font-family="Helvetica,sans-Serif" font-size="10.00">+ DetID()</text>
<text text-anchor="start" x="556" y="-374.5" font-family="Helvetica,sans-Serif" font-size="10.00">+ getNDetectors()</text>
<text text-anchor="start" x="556" y="-363.5" font-family="Helvetica,sans-Serif" font-size="10.00">+ getName()</text>
<text text-anchor="start" x="556" y="-352.5" font-family="Helvetica,sans-Serif" font-size="10.00">+ getMask()</text>
</a>
</g>
</g>
<!-- Node10&#45;&gt;Node2 -->
<g id="edge9" class="edge"><title>Node10&#45;&gt;Node2</title>
<path fill="none" stroke="#404040" d="M609.041,-345.13C616.106,-318.085 628.071,-291.518 648,-272 685.656,-235.12 819.545,-211.396 916.616,-198.63"/>
<polygon fill="none" stroke="#404040" points="916.659,-198.625 922.098,-193.89 928.56,-197.09 923.121,-201.825 916.659,-198.625"/>
<text text-anchor="middle" x="662" y="-280.5" font-family="Helvetica,sans-Serif" font-size="10.00"> #mID</text>
</g>
<!-- Node11 -->
<g id="node11" class="node"><title>Node11</title>
<polygon fill="none" stroke="#bfbfbf" points="513,-864.5 513,-921.5 613,-921.5 613,-864.5 513,-864.5"/>
<text text-anchor="middle" x="563" y="-909.5" font-family="Helvetica,sans-Serif" font-size="10.00">static constexpr ID</text>
<polyline fill="none" stroke="#bfbfbf" points="513,-902.5 613,-902.5 "/>
<text text-anchor="middle" x="563" y="-890.5" font-family="Helvetica,sans-Serif" font-size="10.00"> </text>
<polyline fill="none" stroke="#bfbfbf" points="513,-883.5 613,-883.5 "/>
<text text-anchor="middle" x="563" y="-871.5" font-family="Helvetica,sans-Serif" font-size="10.00"> </text>
</g>
<!-- Node11&#45;&gt;Node10 -->
<g id="edge10" class="edge"><title>Node11&#45;&gt;Node10</title>
<path fill="none" stroke="#404040" d="M561.17,-864.353C558.432,-816.449 554.534,-714.989 564,-630 565.422,-617.233 567.42,-604.012 569.758,-590.856"/>
<polygon fill="none" stroke="#404040" points="569.805,-590.605 566.967,-583.975 571.995,-578.806 574.833,-585.436 569.805,-590.605"/>
<text text-anchor="middle" x="579.5" y="-743.5" font-family="Helvetica,sans-Serif" font-size="10.00"> +ACO</text>
<text text-anchor="middle" x="579.5" y="-732.5" font-family="Helvetica,sans-Serif" font-size="10.00">+First</text>
<text text-anchor="middle" x="579.5" y="-721.5" font-family="Helvetica,sans-Serif" font-size="10.00">+FIT</text>
<text text-anchor="middle" x="579.5" y="-710.5" font-family="Helvetica,sans-Serif" font-size="10.00">+MCH</text>
<text text-anchor="middle" x="579.5" y="-699.5" font-family="Helvetica,sans-Serif" font-size="10.00">+TRD</text>
<text text-anchor="middle" x="579.5" y="-688.5" font-family="Helvetica,sans-Serif" font-size="10.00">+TPC</text>
<text text-anchor="middle" x="579.5" y="-677.5" font-family="Helvetica,sans-Serif" font-size="10.00">+ZDC</text>
<text text-anchor="middle" x="579.5" y="-666.5" font-family="Helvetica,sans-Serif" font-size="10.00">+MID</text>
<text text-anchor="middle" x="579.5" y="-655.5" font-family="Helvetica,sans-Serif" font-size="10.00">+ITS</text>
<text text-anchor="middle" x="579.5" y="-644.5" font-family="Helvetica,sans-Serif" font-size="10.00">+CPV</text>
<text text-anchor="middle" x="579.5" y="-633.5" font-family="Helvetica,sans-Serif" font-size="10.00">...</text>
</g>
<!-- Node12 -->
<g id="node12" class="node"><title>Node12</title>
<g id="a_node12"><a xlink:href="../../d1/da0/classint.html" target="_top" xlink:title="{int\n||}">
<polygon fill="none" stroke="black" points="675.5,-864.5 675.5,-921.5 704.5,-921.5 704.5,-864.5 675.5,-864.5"/>
<text text-anchor="middle" x="690" y="-909.5" font-family="Helvetica,sans-Serif" font-size="10.00">int</text>
<polyline fill="none" stroke="black" points="675.5,-902.5 704.5,-902.5 "/>
<text text-anchor="middle" x="690" y="-890.5" font-family="Helvetica,sans-Serif" font-size="10.00"> </text>
<polyline fill="none" stroke="black" points="675.5,-883.5 704.5,-883.5 "/>
<text text-anchor="middle" x="690" y="-871.5" font-family="Helvetica,sans-Serif" font-size="10.00"> </text>
</a>
</g>
</g>
<!-- Node12&#45;&gt;Node2 -->
<g id="edge14" class="edge"><title>Node12&#45;&gt;Node2</title>
<path fill="none" stroke="#404040" d="M688.639,-864.26C683.515,-754.922 667.241,-357.532 699,-312 748.01,-241.736 842.429,-210.962 916.751,-197.487"/>
<polygon fill="none" stroke="#404040" points="917.138,-197.421 922.376,-192.465 928.965,-195.394 923.727,-200.35 917.138,-197.421"/>
<text text-anchor="middle" x="738" y="-470.5" font-family="Helvetica,sans-Serif" font-size="10.00"> #QEDSourceID</text>
<text text-anchor="middle" x="738" y="-459.5" font-family="Helvetica,sans-Serif" font-size="10.00">#mLastQEDEntry</text>
<text text-anchor="middle" x="738" y="-448.5" font-family="Helvetica,sans-Serif" font-size="10.00">#mFixMC2ROF</text>
</g>
<!-- Node12&#45;&gt;Node10 -->
<g id="edge11" class="edge"><title>Node12&#45;&gt;Node10</title>
<path fill="none" stroke="#404040" d="M675.231,-870.391C657.983,-843.85 630.254,-796.819 618,-752 603.888,-700.385 598.574,-641.717 597.18,-590.79"/>
<polygon fill="none" stroke="#404040" points="597.178,-590.695 593.049,-584.783 596.918,-578.698 601.047,-584.61 597.178,-590.695"/>
<text text-anchor="middle" x="647" y="-688.5" font-family="Helvetica,sans-Serif" font-size="10.00"> +nDetectors</text>
</g>
<!-- Node22 -->
<g id="node22" class="node"><title>Node22</title>
<g id="a_node22"><a xlink:href="../../d9/db3/structo2_1_1header_1_1Descriptor.html" target="_top" xlink:title="{o2::header::Descriptor\l\&lt; N, PrinterPolicy \&gt;\n||+ Descriptor()\l+ Descriptor()\l+ Descriptor()\l+ operator=()\l+ operator ItgType()\l+ Descriptor()\l+ runtimeInit()\l+ operator==()\l+ operator\&lt;()\l+ operator!=()\l+ operator==()\l+ operator!=()\l+ as()\l+ print()\l}">
<polygon fill="none" stroke="black" points="1841.5,-356.5 1841.5,-567.5 1954.5,-567.5 1954.5,-356.5 1841.5,-356.5"/>
<text text-anchor="start" x="1849.5" y="-555.5" font-family="Helvetica,sans-Serif" font-size="10.00">o2::header::Descriptor</text>
<text text-anchor="middle" x="1898" y="-544.5" font-family="Helvetica,sans-Serif" font-size="10.00">&lt; N, PrinterPolicy &gt;</text>
<polyline fill="none" stroke="black" points="1841.5,-537.5 1954.5,-537.5 "/>
<text text-anchor="middle" x="1898" y="-525.5" font-family="Helvetica,sans-Serif" font-size="10.00"> </text>
<polyline fill="none" stroke="black" points="1841.5,-518.5 1954.5,-518.5 "/>
<text text-anchor="start" x="1849.5" y="-506.5" font-family="Helvetica,sans-Serif" font-size="10.00">+ Descriptor()</text>
<text text-anchor="start" x="1849.5" y="-495.5" font-family="Helvetica,sans-Serif" font-size="10.00">+ Descriptor()</text>
<text text-anchor="start" x="1849.5" y="-484.5" font-family="Helvetica,sans-Serif" font-size="10.00">+ Descriptor()</text>
<text text-anchor="start" x="1849.5" y="-473.5" font-family="Helvetica,sans-Serif" font-size="10.00">+ operator=()</text>
<text text-anchor="start" x="1849.5" y="-462.5" font-family="Helvetica,sans-Serif" font-size="10.00">+ operator ItgType()</text>
<text text-anchor="start" x="1849.5" y="-451.5" font-family="Helvetica,sans-Serif" font-size="10.00">+ Descriptor()</text>
<text text-anchor="start" x="1849.5" y="-440.5" font-family="Helvetica,sans-Serif" font-size="10.00">+ runtimeInit()</text>
<text text-anchor="start" x="1849.5" y="-429.5" font-family="Helvetica,sans-Serif" font-size="10.00">+ operator==()</text>
<text text-anchor="start" x="1849.5" y="-418.5" font-family="Helvetica,sans-Serif" font-size="10.00">+ operator&lt;()</text>
<text text-anchor="start" x="1849.5" y="-407.5" font-family="Helvetica,sans-Serif" font-size="10.00">+ operator!=()</text>
<text text-anchor="start" x="1849.5" y="-396.5" font-family="Helvetica,sans-Serif" font-size="10.00">+ operator==()</text>
<text text-anchor="start" x="1849.5" y="-385.5" font-family="Helvetica,sans-Serif" font-size="10.00">+ operator!=()</text>
<text text-anchor="start" x="1849.5" y="-374.5" font-family="Helvetica,sans-Serif" font-size="10.00">+ as()</text>
<text text-anchor="start" x="1849.5" y="-363.5" font-family="Helvetica,sans-Serif" font-size="10.00">+ print()</text>
</a>
</g>
</g>
<!-- Node12&#45;&gt;Node22 -->
<g id="edge25" class="edge"><title>Node12&#45;&gt;Node22</title>
<path fill="none" stroke="#404040" d="M704.7,-885.595C783.562,-851.585 1165.2,-691.38 1495,-630 1531.86,-623.139 1801.13,-633.284 1832,-612 1844.68,-603.257 1854.95,-591.493 1863.27,-578.389"/>
<polygon fill="none" stroke="#404040" points="1863.5,-577.999 1863.05,-570.802 1869.53,-567.625 1869.97,-574.822 1863.5,-577.999"/>
<text text-anchor="middle" x="1520.5" y="-699.5" font-family="Helvetica,sans-Serif" font-size="10.00"> +arraySize</text>
<text text-anchor="middle" x="1520.5" y="-688.5" font-family="Helvetica,sans-Serif" font-size="10.00">+size</text>
<text text-anchor="middle" x="1520.5" y="-677.5" font-family="Helvetica,sans-Serif" font-size="10.00">+bitcount</text>
</g>
<!-- Node13 -->
<g id="node13" class="node"><title>Node13</title>
<polygon fill="none" stroke="#bfbfbf" points="786,-433.5 786,-490.5 886,-490.5 886,-433.5 786,-433.5"/>
<text text-anchor="middle" x="836" y="-478.5" font-family="Helvetica,sans-Serif" font-size="10.00">vector&lt; TChain * &gt;</text>
<polyline fill="none" stroke="#bfbfbf" points="786,-471.5 886,-471.5 "/>
<text text-anchor="middle" x="836" y="-459.5" font-family="Helvetica,sans-Serif" font-size="10.00"> </text>
<polyline fill="none" stroke="#bfbfbf" points="786,-452.5 886,-452.5 "/>
<text text-anchor="middle" x="836" y="-440.5" font-family="Helvetica,sans-Serif" font-size="10.00"> </text>
</g>
<!-- Node13&#45;&gt;Node2 -->
<g id="edge12" class="edge"><title>Node13&#45;&gt;Node2</title>
<path fill="none" stroke="#404040" d="M842.518,-433.212C852.92,-393.71 876.459,-320.718 918,-272 920.91,-268.587 923.972,-265.209 927.146,-261.881"/>
<polygon fill="none" stroke="#404040" points="927.321,-261.705 928.716,-254.63 935.783,-253.196 934.388,-260.271 927.321,-261.705"/>
<text text-anchor="middle" x="950.5" y="-280.5" font-family="Helvetica,sans-Serif" font-size="10.00"> #mSimChains</text>
</g>
<!-- Node14 -->
<g id="node14" class="node"><title>Node14</title>
<polygon fill="none" stroke="#bfbfbf" points="904,-428 904,-496 1014,-496 1014,-428 904,-428"/>
<text text-anchor="start" x="912" y="-484" font-family="Helvetica,sans-Serif" font-size="10.00">vector&lt; o2::ITSMFT</text>
<text text-anchor="middle" x="959" y="-473" font-family="Helvetica,sans-Serif" font-size="10.00">::o2::ITSMFT::Digit &gt;</text>
<polyline fill="none" stroke="#bfbfbf" points="904,-466 1014,-466 "/>
<text text-anchor="middle" x="959" y="-454" font-family="Helvetica,sans-Serif" font-size="10.00"> </text>
<polyline fill="none" stroke="#bfbfbf" points="904,-447 1014,-447 "/>
<text text-anchor="middle" x="959" y="-435" font-family="Helvetica,sans-Serif" font-size="10.00"> </text>
</g>
<!-- Node14&#45;&gt;Node2 -->
<g id="edge13" class="edge"><title>Node14&#45;&gt;Node2</title>
<path fill="none" stroke="#404040" d="M962.982,-427.838C967.965,-389.794 977.63,-325.738 992,-272 992.609,-269.724 993.252,-267.423 993.925,-265.107"/>
<polygon fill="none" stroke="#404040" points="993.979,-264.931 991.916,-258.021 997.5,-253.459 999.564,-260.369 993.979,-264.931"/>
<text text-anchor="middle" x="1028.5" y="-286" font-family="Helvetica,sans-Serif" font-size="10.00"> #mDigitsAccum</text>
<text text-anchor="middle" x="1028.5" y="-275" font-family="Helvetica,sans-Serif" font-size="10.00">#mDigits</text>
</g>
<!-- Node15 -->
<g id="node15" class="node"><title>Node15</title>
<polygon fill="none" stroke="#bfbfbf" points="1032,-428 1032,-496 1142,-496 1142,-428 1032,-428"/>
<text text-anchor="start" x="1040" y="-484" font-family="Helvetica,sans-Serif" font-size="10.00">vector&lt; o2::ITSMFT</text>
<text text-anchor="middle" x="1087" y="-473" font-family="Helvetica,sans-Serif" font-size="10.00">::o2::ITSMFT::Hit &gt; *</text>
<polyline fill="none" stroke="#bfbfbf" points="1032,-466 1142,-466 "/>
<text text-anchor="middle" x="1087" y="-454" font-family="Helvetica,sans-Serif" font-size="10.00"> </text>
<polyline fill="none" stroke="#bfbfbf" points="1032,-447 1142,-447 "/>
<text text-anchor="middle" x="1087" y="-435" font-family="Helvetica,sans-Serif" font-size="10.00"> </text>
</g>
<!-- Node15&#45;&gt;Node2 -->
<g id="edge15" class="edge"><title>Node15&#45;&gt;Node2</title>
<path fill="none" stroke="#404040" d="M1086.55,-427.879C1085.26,-389.599 1080.68,-325.062 1065,-272 1064.29,-269.595 1063.51,-267.176 1062.69,-264.752"/>
<polygon fill="none" stroke="#404040" points="1062.65,-264.654 1056.8,-260.433 1058.45,-253.413 1064.3,-257.634 1062.65,-264.654"/>
<text text-anchor="middle" x="1092" y="-280.5" font-family="Helvetica,sans-Serif" font-size="10.00"> #mHitsP</text>
</g>
<!-- Node16 -->
<g id="node16" class="node"><title>Node16</title>
<polygon fill="none" stroke="#bfbfbf" points="1160.5,-433.5 1160.5,-490.5 1195.5,-490.5 1195.5,-433.5 1160.5,-433.5"/>
<text text-anchor="middle" x="1178" y="-478.5" font-family="Helvetica,sans-Serif" font-size="10.00">bool</text>
<polyline fill="none" stroke="#bfbfbf" points="1160.5,-471.5 1195.5,-471.5 "/>
<text text-anchor="middle" x="1178" y="-459.5" font-family="Helvetica,sans-Serif" font-size="10.00"> </text>
<polyline fill="none" stroke="#bfbfbf" points="1160.5,-452.5 1195.5,-452.5 "/>
<text text-anchor="middle" x="1178" y="-440.5" font-family="Helvetica,sans-Serif" font-size="10.00"> </text>
</g>
<!-- Node16&#45;&gt;Node2 -->
<g id="edge16" class="edge"><title>Node16&#45;&gt;Node2</title>
<path fill="none" stroke="#404040" d="M1177.25,-433.328C1175.47,-402.388 1169.66,-351.449 1151,-312 1142.53,-294.096 1130.34,-277.356 1116.8,-262.311"/>
<polygon fill="none" stroke="#404040" points="1116.44,-261.918 1109.41,-260.279 1108.22,-253.167 1115.25,-254.806 1116.44,-261.918"/>
<text text-anchor="middle" x="1167" y="-280.5" font-family="Helvetica,sans-Serif" font-size="10.00"> #mFinished</text>
</g>
<!-- Node17 -->
<g id="node17" class="node"><title>Node17</title>
<polygon fill="none" stroke="#bfbfbf" points="1214,-428 1214,-496 1378,-496 1378,-428 1214,-428"/>
<text text-anchor="start" x="1222" y="-484" font-family="Helvetica,sans-Serif" font-size="10.00">vector&lt; o2::ITSMFT</text>
<text text-anchor="middle" x="1296" y="-473" font-family="Helvetica,sans-Serif" font-size="10.00">::o2::ITSMFT::MC2ROFRecord &gt;</text>
<polyline fill="none" stroke="#bfbfbf" points="1214,-466 1378,-466 "/>
<text text-anchor="middle" x="1296" y="-454" font-family="Helvetica,sans-Serif" font-size="10.00"> </text>
<polyline fill="none" stroke="#bfbfbf" points="1214,-447 1378,-447 "/>
<text text-anchor="middle" x="1296" y="-435" font-family="Helvetica,sans-Serif" font-size="10.00"> </text>
</g>
<!-- Node17&#45;&gt;Node2 -->
<g id="edge17" class="edge"><title>Node17&#45;&gt;Node2</title>
<path fill="none" stroke="#404040" d="M1286.1,-427.994C1272.29,-386.837 1243.67,-316.489 1198,-272 1178.19,-252.701 1153.15,-237.052 1128.25,-224.692"/>
<polygon fill="none" stroke="#404040" points="1128.05,-224.596 1120.91,-225.617 1117.22,-219.42 1124.36,-218.399 1128.05,-224.596"/>
<text text-anchor="middle" x="1281.5" y="-280.5" font-family="Helvetica,sans-Serif" font-size="10.00"> #mMC2ROFRecordsAccum</text>
</g>
<!-- Node18 -->
<g id="node18" class="node"><title>Node18</title>
<polygon fill="none" stroke="#bfbfbf" points="1396,-433.5 1396,-490.5 1444,-490.5 1444,-433.5 1396,-433.5"/>
<text text-anchor="middle" x="1420" y="-478.5" font-family="Helvetica,sans-Serif" font-size="10.00">TChain</text>
<polyline fill="none" stroke="#bfbfbf" points="1396,-471.5 1444,-471.5 "/>
<text text-anchor="middle" x="1420" y="-459.5" font-family="Helvetica,sans-Serif" font-size="10.00"> </text>
<polyline fill="none" stroke="#bfbfbf" points="1396,-452.5 1444,-452.5 "/>
<text text-anchor="middle" x="1420" y="-440.5" font-family="Helvetica,sans-Serif" font-size="10.00"> </text>
</g>
<!-- Node18&#45;&gt;Node2 -->
<g id="edge18" class="edge"><title>Node18&#45;&gt;Node2</title>
<path fill="none" stroke="#404040" d="M1419.55,-433.411C1417.12,-389.434 1405,-305.041 1349,-272 1281.78,-232.338 1196.06,-210.929 1129.39,-199.52"/>
<polygon fill="none" stroke="#404040" points="1129.01,-199.458 1122.44,-202.428 1117.17,-197.504 1123.74,-194.534 1129.01,-199.458"/>
<text text-anchor="middle" x="1406" y="-280.5" font-family="Helvetica,sans-Serif" font-size="10.00"> #mQEDChain</text>
</g>
<!-- Node19 -->
<g id="node19" class="node"><title>Node19</title>
<g id="a_node19"><a xlink:href="../../dc/daa/classo2_1_1dataformats_1_1MCTruthContainer.html" target="_top" xlink:title="{o2::dataformats::MCTruth\lContainer\&lt; o2::o2::MCCompLabel \&gt;\n||+ MCTruthContainer()\l+ MCTruthContainer()\l+ ~MCTruthContainer()\l+ operator=()\l+ getMCTruthHeader()\l+ getElement()\l+ getIndexedSize()\l+ getNElements()\l+ getLabels()\l+ getLabels()\l+ clear()\l+ addElement()\l+ addElements()\l+ addElements()\l+ addElementRandomAccess()\l+ mergeAtBack()\l+ ClassDefNV()\l}">
<polygon fill="none" stroke="black" points="1462.5,-340 1462.5,-584 1637.5,-584 1637.5,-340 1462.5,-340"/>
<text text-anchor="start" x="1470.5" y="-572" font-family="Helvetica,sans-Serif" font-size="10.00">o2::dataformats::MCTruth</text>
<text text-anchor="middle" x="1550" y="-561" font-family="Helvetica,sans-Serif" font-size="10.00">Container&lt; o2::o2::MCCompLabel &gt;</text>
<polyline fill="none" stroke="black" points="1462.5,-554 1637.5,-554 "/>
<text text-anchor="middle" x="1550" y="-542" font-family="Helvetica,sans-Serif" font-size="10.00"> </text>
<polyline fill="none" stroke="black" points="1462.5,-535 1637.5,-535 "/>
<text text-anchor="start" x="1470.5" y="-523" font-family="Helvetica,sans-Serif" font-size="10.00">+ MCTruthContainer()</text>
<text text-anchor="start" x="1470.5" y="-512" font-family="Helvetica,sans-Serif" font-size="10.00">+ MCTruthContainer()</text>
<text text-anchor="start" x="1470.5" y="-501" font-family="Helvetica,sans-Serif" font-size="10.00">+ ~MCTruthContainer()</text>
<text text-anchor="start" x="1470.5" y="-490" font-family="Helvetica,sans-Serif" font-size="10.00">+ operator=()</text>
<text text-anchor="start" x="1470.5" y="-479" font-family="Helvetica,sans-Serif" font-size="10.00">+ getMCTruthHeader()</text>
<text text-anchor="start" x="1470.5" y="-468" font-family="Helvetica,sans-Serif" font-size="10.00">+ getElement()</text>
<text text-anchor="start" x="1470.5" y="-457" font-family="Helvetica,sans-Serif" font-size="10.00">+ getIndexedSize()</text>
<text text-anchor="start" x="1470.5" y="-446" font-family="Helvetica,sans-Serif" font-size="10.00">+ getNElements()</text>
<text text-anchor="start" x="1470.5" y="-435" font-family="Helvetica,sans-Serif" font-size="10.00">+ getLabels()</text>
<text text-anchor="start" x="1470.5" y="-424" font-family="Helvetica,sans-Serif" font-size="10.00">+ getLabels()</text>
<text text-anchor="start" x="1470.5" y="-413" font-family="Helvetica,sans-Serif" font-size="10.00">+ clear()</text>
<text text-anchor="start" x="1470.5" y="-402" font-family="Helvetica,sans-Serif" font-size="10.00">+ addElement()</text>
<text text-anchor="start" x="1470.5" y="-391" font-family="Helvetica,sans-Serif" font-size="10.00">+ addElements()</text>
<text text-anchor="start" x="1470.5" y="-380" font-family="Helvetica,sans-Serif" font-size="10.00">+ addElements()</text>
<text text-anchor="start" x="1470.5" y="-369" font-family="Helvetica,sans-Serif" font-size="10.00">+ addElementRandomAccess()</text>
<text text-anchor="start" x="1470.5" y="-358" font-family="Helvetica,sans-Serif" font-size="10.00">+ mergeAtBack()</text>
<text text-anchor="start" x="1470.5" y="-347" font-family="Helvetica,sans-Serif" font-size="10.00">+ ClassDefNV()</text>
</a>
</g>
</g>
<!-- Node19&#45;&gt;Node2 -->
<g id="edge19" class="edge"><title>Node19&#45;&gt;Node2</title>
<path fill="none" stroke="#404040" d="M1501.21,-339.97C1485.74,-314.184 1466.2,-289.49 1442,-272 1392.98,-236.568 1236.57,-211.801 1129.36,-198.48"/>
<polygon fill="none" stroke="#404040" points="1129.11,-198.448 1122.67,-201.69 1117.2,-196.99 1123.64,-193.749 1129.11,-198.448"/>
<text text-anchor="middle" x="1501.5" y="-286" font-family="Helvetica,sans-Serif" font-size="10.00"> #mLabels</text>
<text text-anchor="middle" x="1501.5" y="-275" font-family="Helvetica,sans-Serif" font-size="10.00">#mLabelsAccum</text>
</g>
<!-- Node20 -->
<g id="node20" class="node"><title>Node20</title>
<g id="a_node20"><a xlink:href="../../dc/daa/classo2_1_1dataformats_1_1MCTruthContainer.html" target="_top" xlink:title="{o2::dataformats::MCTruth\lContainer\&lt; T \&gt;\n||+ MCTruthContainer()\l+ ~MCTruthContainer()\l+ MCTruthContainer()\l+ operator=()\l+ getMCTruthHeader()\l+ getElement()\l+ getIndexedSize()\l+ getNElements()\l+ getLabels()\l+ getLabels()\l+ clear()\l+ addElement()\l+ addElements()\l+ addElements()\l+ addElementRandomAccess()\l+ mergeAtBack()\l+ ClassDefNV()\l}">
<polygon fill="none" stroke="black" points="1473.5,-771 1473.5,-1015 1626.5,-1015 1626.5,-771 1473.5,-771"/>
<text text-anchor="start" x="1481.5" y="-1003" font-family="Helvetica,sans-Serif" font-size="10.00">o2::dataformats::MCTruth</text>
<text text-anchor="middle" x="1550" y="-992" font-family="Helvetica,sans-Serif" font-size="10.00">Container&lt; T &gt;</text>
<polyline fill="none" stroke="black" points="1473.5,-985 1626.5,-985 "/>
<text text-anchor="middle" x="1550" y="-973" font-family="Helvetica,sans-Serif" font-size="10.00"> </text>
<polyline fill="none" stroke="black" points="1473.5,-966 1626.5,-966 "/>
<text text-anchor="start" x="1481.5" y="-954" font-family="Helvetica,sans-Serif" font-size="10.00">+ MCTruthContainer()</text>
<text text-anchor="start" x="1481.5" y="-943" font-family="Helvetica,sans-Serif" font-size="10.00">+ ~MCTruthContainer()</text>
<text text-anchor="start" x="1481.5" y="-932" font-family="Helvetica,sans-Serif" font-size="10.00">+ MCTruthContainer()</text>
<text text-anchor="start" x="1481.5" y="-921" font-family="Helvetica,sans-Serif" font-size="10.00">+ operator=()</text>
<text text-anchor="start" x="1481.5" y="-910" font-family="Helvetica,sans-Serif" font-size="10.00">+ getMCTruthHeader()</text>
<text text-anchor="start" x="1481.5" y="-899" font-family="Helvetica,sans-Serif" font-size="10.00">+ getElement()</text>
<text text-anchor="start" x="1481.5" y="-888" font-family="Helvetica,sans-Serif" font-size="10.00">+ getIndexedSize()</text>
<text text-anchor="start" x="1481.5" y="-877" font-family="Helvetica,sans-Serif" font-size="10.00">+ getNElements()</text>
<text text-anchor="start" x="1481.5" y="-866" font-family="Helvetica,sans-Serif" font-size="10.00">+ getLabels()</text>
<text text-anchor="start" x="1481.5" y="-855" font-family="Helvetica,sans-Serif" font-size="10.00">+ getLabels()</text>
<text text-anchor="start" x="1481.5" y="-844" font-family="Helvetica,sans-Serif" font-size="10.00">+ clear()</text>
<text text-anchor="start" x="1481.5" y="-833" font-family="Helvetica,sans-Serif" font-size="10.00">+ addElement()</text>
<text text-anchor="start" x="1481.5" y="-822" font-family="Helvetica,sans-Serif" font-size="10.00">+ addElements()</text>
<text text-anchor="start" x="1481.5" y="-811" font-family="Helvetica,sans-Serif" font-size="10.00">+ addElements()</text>
<text text-anchor="start" x="1481.5" y="-800" font-family="Helvetica,sans-Serif" font-size="10.00">+ addElementRandomAccess()</text>
<text text-anchor="start" x="1481.5" y="-789" font-family="Helvetica,sans-Serif" font-size="10.00">+ mergeAtBack()</text>
<text text-anchor="start" x="1481.5" y="-778" font-family="Helvetica,sans-Serif" font-size="10.00">+ ClassDefNV()</text>
</a>
</g>
</g>
<!-- Node20&#45;&gt;Node19 -->
<g id="edge20" class="edge"><title>Node20&#45;&gt;Node19</title>
<path fill="none" stroke="orange" d="M1550,-760.765C1550,-704.566 1550,-639.341 1550,-584.286"/>
<polygon fill="orange" stroke="orange" points="1546.5,-760.786 1550,-770.786 1553.5,-760.786 1546.5,-760.786"/>
<text text-anchor="middle" x="1610" y="-688.5" font-family="Helvetica,sans-Serif" font-size="10.00"> &lt; o2::o2::MCCompLabel &gt;</text>
</g>
<!-- Node21 -->
<g id="node21" class="node"><title>Node21</title>
<polygon fill="none" stroke="#bfbfbf" points="1513.5,-157.5 1513.5,-214.5 1542.5,-214.5 1542.5,-157.5 1513.5,-157.5"/>
<text text-anchor="middle" x="1528" y="-202.5" font-family="Helvetica,sans-Serif" font-size="10.00">ID</text>
<polyline fill="none" stroke="#bfbfbf" points="1513.5,-195.5 1542.5,-195.5 "/>
<text text-anchor="middle" x="1528" y="-183.5" font-family="Helvetica,sans-Serif" font-size="10.00"> </text>
<polyline fill="none" stroke="#bfbfbf" points="1513.5,-176.5 1542.5,-176.5 "/>
<text text-anchor="middle" x="1528" y="-164.5" font-family="Helvetica,sans-Serif" font-size="10.00"> </text>
</g>
<!-- Node21&#45;&gt;Node1 -->
<g id="edge21" class="edge"><title>Node21&#45;&gt;Node1</title>
<path fill="none" stroke="#404040" d="M1528,-157.323C1528,-136.013 1528,-106.106 1528,-81.318"/>
<polygon fill="none" stroke="#404040" points="1528,-81.2588 1524,-75.2589 1528,-69.2588 1532,-75.2588 1528,-81.2588"/>
<text text-anchor="middle" x="1548" y="-91.5" font-family="Helvetica,sans-Serif" font-size="10.00"> +DETID</text>
</g>
<!-- Node22&#45;&gt;Node1 -->
<g id="edge22" class="edge"><title>Node22&#45;&gt;Node1</title>
<path fill="none" stroke="#404040" d="M1894.42,-356.093C1889.64,-327.139 1880.82,-296.876 1865,-272 1805.98,-179.174 1696.01,-112.624 1617.75,-74.3295"/>
<polygon fill="none" stroke="#404040" points="1617.73,-74.3232 1610.59,-75.3219 1606.92,-69.1137 1614.07,-68.115 1617.73,-74.3232"/>
<text text-anchor="middle" x="1874.5" y="-183.5" font-family="Helvetica,sans-Serif" font-size="10.00"> +DETOR</text>
</g>
<!-- Node23 -->
<g id="node23" class="node"><title>Node23</title>
<polygon fill="none" stroke="#bfbfbf" points="1824,-864.5 1824,-921.5 1862,-921.5 1862,-864.5 1824,-864.5"/>
<text text-anchor="middle" x="1843" y="-909.5" font-family="Helvetica,sans-Serif" font-size="10.00">Type</text>
<polyline fill="none" stroke="#bfbfbf" points="1824,-902.5 1862,-902.5 "/>
<text text-anchor="middle" x="1843" y="-890.5" font-family="Helvetica,sans-Serif" font-size="10.00"> </text>
<polyline fill="none" stroke="#bfbfbf" points="1824,-883.5 1862,-883.5 "/>
<text text-anchor="middle" x="1843" y="-871.5" font-family="Helvetica,sans-Serif" font-size="10.00"> </text>
</g>
<!-- Node23&#45;&gt;Node22 -->
<g id="edge23" class="edge"><title>Node23&#45;&gt;Node22</title>
<path fill="none" stroke="#404040" d="M1846.03,-864.436C1851.34,-816.657 1862.82,-715.381 1874,-630 1876.13,-613.758 1878.47,-596.642 1880.83,-579.809"/>
<polygon fill="none" stroke="#404040" points="1880.88,-579.501 1877.76,-573.001 1882.56,-567.619 1885.68,-574.12 1880.88,-579.501"/>
<text text-anchor="middle" x="1884" y="-688.5" font-family="Helvetica,sans-Serif" font-size="10.00"> +itg</text>
</g>
<!-- Node24 -->
<g id="node24" class="node"><title>Node24</title>
<polygon fill="none" stroke="#bfbfbf" points="1880.5,-864.5 1880.5,-921.5 1915.5,-921.5 1915.5,-864.5 1880.5,-864.5"/>
<text text-anchor="middle" x="1898" y="-909.5" font-family="Helvetica,sans-Serif" font-size="10.00">char</text>
<polyline fill="none" stroke="#bfbfbf" points="1880.5,-902.5 1915.5,-902.5 "/>
<text text-anchor="middle" x="1898" y="-890.5" font-family="Helvetica,sans-Serif" font-size="10.00"> </text>
<polyline fill="none" stroke="#bfbfbf" points="1880.5,-883.5 1915.5,-883.5 "/>
<text text-anchor="middle" x="1898" y="-871.5" font-family="Helvetica,sans-Serif" font-size="10.00"> </text>
</g>
<!-- Node24&#45;&gt;Node22 -->
<g id="edge24" class="edge"><title>Node24&#45;&gt;Node22</title>
<path fill="none" stroke="#404040" d="M1898,-864.183C1898,-807.739 1898,-676.891 1898,-579.891"/>
<polygon fill="none" stroke="#404040" points="1898,-579.64 1894,-573.64 1898,-567.64 1902,-573.64 1898,-579.64"/>
<text text-anchor="middle" x="1908.5" y="-688.5" font-family="Helvetica,sans-Serif" font-size="10.00"> +str</text>
</g>
<!-- Node25 -->
<g id="node25" class="node"><title>Node25</title>
<polygon fill="none" stroke="#bfbfbf" points="1933.5,-864 1933.5,-922 1962.5,-922 1962.5,-864 1933.5,-864"/>
<polyline fill="none" stroke="#bfbfbf" points="1933.5,-902 1962.5,-902 "/>
<text text-anchor="middle" x="1948" y="-890" font-family="Helvetica,sans-Serif" font-size="10.00"> </text>
<polyline fill="none" stroke="#bfbfbf" points="1933.5,-883 1962.5,-883 "/>
<text text-anchor="middle" x="1948" y="-871" font-family="Helvetica,sans-Serif" font-size="10.00"> </text>
</g>
<!-- Node25&#45;&gt;Node22 -->
<g id="edge26" class="edge"><title>Node25&#45;&gt;Node22</title>
<path fill="none" stroke="#404040" d="M1945.79,-863.644C1941.94,-815.518 1933.39,-714.812 1923,-630 1921.01,-613.726 1918.69,-596.593 1916.29,-579.752"/>
<polygon fill="none" stroke="#404040" points="1916.24,-579.434 1911.43,-574.068 1914.53,-567.557 1919.35,-572.924 1916.24,-579.434"/>
<text text-anchor="middle" x="1952.5" y="-688.5" font-family="Helvetica,sans-Serif" font-size="10.00"> +@14</text>
</g>
</g>
</svg>
