<?xml version="1.0" encoding="UTF-8" standalone="no"?>
<!DOCTYPE svg PUBLIC "-//W3C//DTD SVG 1.1//EN"
 "http://www.w3.org/Graphics/SVG/1.1/DTD/svg11.dtd">
<!-- Generated by graphviz version 2.36.0 (20140111.2315)
 -->
<!-- Title: o2::framework::DeviceControl Pages: 1 -->
<svg width="347pt" height="206pt"
 viewBox="0.00 0.00 347.00 206.00" xmlns="http://www.w3.org/2000/svg" xmlns:xlink="http://www.w3.org/1999/xlink">
<g id="graph0" class="graph" transform="scale(1 1) rotate(0) translate(4 202)">
<title>o2::framework::DeviceControl</title>
<!-- Node1 -->
<g id="node1" class="node"><title>Node1</title>
<polygon fill="#bfbfbf" stroke="black" points="91.5,-0.5 91.5,-57.5 238.5,-57.5 238.5,-0.5 91.5,-0.5"/>
<text text-anchor="middle" x="165" y="-45.5" font-family="Helvetica,sans-Serif" font-size="10.00">o2::framework::DeviceControl</text>
<polyline fill="none" stroke="black" points="91.5,-38.5 238.5,-38.5 "/>
<text text-anchor="middle" x="165" y="-26.5" font-family="Helvetica,sans-Serif" font-size="10.00"> </text>
<polyline fill="none" stroke="black" points="91.5,-19.5 238.5,-19.5 "/>
<text text-anchor="middle" x="165" y="-7.5" font-family="Helvetica,sans-Serif" font-size="10.00"> </text>
</g>
<!-- Node2 -->
<g id="node2" class="node"><title>Node2</title>
<polygon fill="none" stroke="#bfbfbf" points="0,-134.5 0,-191.5 56,-191.5 56,-134.5 0,-134.5"/>
<text text-anchor="middle" x="28" y="-179.5" font-family="Helvetica,sans-Serif" font-size="10.00">LogLevel</text>
<polyline fill="none" stroke="#bfbfbf" points="0,-172.5 56,-172.5 "/>
<text text-anchor="middle" x="28" y="-160.5" font-family="Helvetica,sans-Serif" font-size="10.00"> </text>
<polyline fill="none" stroke="#bfbfbf" points="0,-153.5 56,-153.5 "/>
<text text-anchor="middle" x="28" y="-141.5" font-family="Helvetica,sans-Serif" font-size="10.00"> </text>
</g>
<!-- Node2&#45;&gt;Node1 -->
<g id="edge1" class="edge"><title>Node2&#45;&gt;Node1</title>
<path fill="none" stroke="#404040" d="M40.7878,-134.292C50.2294,-116.068 64.4614,-92.606 82,-76 86.2619,-71.9647 90.9449,-68.1618 95.8494,-64.6046"/>
<polygon fill="none" stroke="#404040" points="96.2128,-64.3596 98.9524,-57.6892 106.163,-57.6525 103.424,-64.3229 96.2128,-64.3596"/>
<text text-anchor="middle" x="105" y="-90.5" font-family="Helvetica,sans-Serif" font-size="10.00"> +logLevel</text>
</g>
<!-- Node3 -->
<g id="node3" class="node"><title>Node3</title>
<polygon fill="none" stroke="#bfbfbf" points="73.5,-129 73.5,-197 180.5,-197 180.5,-129 73.5,-129"/>
<text text-anchor="start" x="81.5" y="-185" font-family="Helvetica,sans-Serif" font-size="10.00">map&lt; std::string, std</text>
<text text-anchor="middle" x="127" y="-174" font-family="Helvetica,sans-Serif" font-size="10.00">::string &gt;</text>
<polyline fill="none" stroke="#bfbfbf" points="73.5,-167 180.5,-167 "/>
<text text-anchor="middle" x="127" y="-155" font-family="Helvetica,sans-Serif" font-size="10.00"> </text>
<polyline fill="none" stroke="#bfbfbf" points="73.5,-148 180.5,-148 "/>
<text text-anchor="middle" x="127" y="-136" font-family="Helvetica,sans-Serif" font-size="10.00"> </text>
</g>
<!-- Node3&#45;&gt;Node1 -->
<g id="edge2" class="edge"><title>Node3&#45;&gt;Node1</title>
<path fill="none" stroke="#404040" d="M129.316,-128.697C131.124,-112.483 134.329,-92.8915 140,-76 140.846,-73.4796 141.825,-70.9347 142.896,-68.4037"/>
<polygon fill="none" stroke="#404040" points="142.916,-68.3626 141.866,-61.2282 148.048,-57.5158 149.098,-64.6502 142.916,-68.3626"/>
<text text-anchor="middle" x="160.5" y="-90.5" font-family="Helvetica,sans-Serif" font-size="10.00"> +options</text>
</g>
<!-- Node4 -->
<g id="node4" class="node"><title>Node4</title>
<polygon fill="none" stroke="#bfbfbf" points="198.5,-134.5 198.5,-191.5 233.5,-191.5 233.5,-134.5 198.5,-134.5"/>
<text text-anchor="middle" x="216" y="-179.5" font-family="Helvetica,sans-Serif" font-size="10.00">char</text>
<polyline fill="none" stroke="#bfbfbf" points="198.5,-172.5 233.5,-172.5 "/>
<text text-anchor="middle" x="216" y="-160.5" font-family="Helvetica,sans-Serif" font-size="10.00"> </text>
<polyline fill="none" stroke="#bfbfbf" points="198.5,-153.5 233.5,-153.5 "/>
<text text-anchor="middle" x="216" y="-141.5" font-family="Helvetica,sans-Serif" font-size="10.00"> </text>
</g>
<!-- Node4&#45;&gt;Node1 -->
<g id="edge3" class="edge"><title>Node4&#45;&gt;Node1</title>
<path fill="none" stroke="#404040" d="M205.309,-134.328C197.999,-115.408 188.204,-90.0566 180.1,-69.082"/>
<polygon fill="none" stroke="#404040" points="180.002,-68.8287 174.108,-64.6735 175.677,-57.6351 181.571,-61.7903 180.002,-68.8287"/>
<text text-anchor="middle" x="231.5" y="-101.5" font-family="Helvetica,sans-Serif" font-size="10.00"> +logStopTrigger</text>
<text text-anchor="middle" x="231.5" y="-90.5" font-family="Helvetica,sans-Serif" font-size="10.00">+logStartTrigger</text>
<text text-anchor="middle" x="231.5" y="-79.5" font-family="Helvetica,sans-Serif" font-size="10.00">+logFilter</text>
</g>
<!-- Node5 -->
<g id="node5" class="node"><title>Node5</title>
<polygon fill="none" stroke="#bfbfbf" points="281.5,-134.5 281.5,-191.5 316.5,-191.5 316.5,-134.5 281.5,-134.5"/>
<text text-anchor="middle" x="299" y="-179.5" font-family="Helvetica,sans-Serif" font-size="10.00">bool</text>
<polyline fill="none" stroke="#bfbfbf" points="281.5,-172.5 316.5,-172.5 "/>
<text text-anchor="middle" x="299" y="-160.5" font-family="Helvetica,sans-Serif" font-size="10.00"> </text>
<polyline fill="none" stroke="#bfbfbf" points="281.5,-153.5 316.5,-153.5 "/>
<text text-anchor="middle" x="299" y="-141.5" font-family="Helvetica,sans-Serif" font-size="10.00"> </text>
</g>
<!-- Node5&#45;&gt;Node1 -->
<g id="edge4" class="edge"><title>Node5&#45;&gt;Node1</title>
<path fill="none" stroke="#404040" d="M296.304,-134.245C293.189,-115.766 286.474,-92.0277 272,-76 265.497,-68.7984 257.672,-62.6804 249.249,-57.4927"/>
<polygon fill="none" stroke="#404040" points="249.204,-57.4676 242.015,-58.034 238.727,-51.616 245.916,-51.0496 249.204,-57.4676"/>
<text text-anchor="middle" x="314.5" y="-101.5" font-family="Helvetica,sans-Serif" font-size="10.00"> +quiet</text>
<text text-anchor="middle" x="314.5" y="-90.5" font-family="Helvetica,sans-Serif" font-size="10.00">+logVisible</text>
<text text-anchor="middle" x="314.5" y="-79.5" font-family="Helvetica,sans-Serif" font-size="10.00">+stopped</text>
</g>
</g>
</svg>
