<?xml version="1.0" encoding="UTF-8" standalone="no"?>
<!DOCTYPE svg PUBLIC "-//W3C//DTD SVG 1.1//EN"
 "http://www.w3.org/Graphics/SVG/1.1/DTD/svg11.dtd">
<!-- Generated by graphviz version 2.36.0 (20140111.2315)
 -->
<!-- Title: /home/travis/build/AliceO2Group/AliceO2/Detectors/TPC/base/include/TPCBase/CalDet.h Pages: 1 -->
<!--zoomable 646 -->
<svg id="main" version="1.1" xmlns="http://www.w3.org/2000/svg" xmlns:xlink="http://www.w3.org/1999/xlink" xml:space="preserve" onload="init(evt)">
<style type="text/css"><![CDATA[
.edge:hover path { stroke: red; }
.edge:hover polygon { stroke: red; fill: red; }
]]></style>
<script type="text/javascript"><![CDATA[
var edges = document.getElementsByTagName('g');
if (edges && edges.length) {
  for (var i=0;i<edges.length;i++) {
    if (edges[i].id.substr(0,4)=='edge') {
      edges[i].setAttribute('class','edge');
    }
  }
}
]]></script>
        <defs>
                <circle id="rim" cx="0" cy="0" r="7"/>
                <circle id="rim2" cx="0" cy="0" r="3.5"/>
                <g id="zoomPlus">
                        <use xlink:href="#rim" fill="#404040">
                                <set attributeName="fill" to="#808080" begin="zoomplus.mouseover" end="zoomplus.mouseout"/>
                        </use>
                        <path d="M-4,0h8M0,-4v8" fill="none" stroke="white" stroke-width="1.5" pointer-events="none"/>
                </g>
                <g id="zoomMin">
                        <use xlink:href="#rim" fill="#404040">
                                <set attributeName="fill" to="#808080" begin="zoomminus.mouseover" end="zoomminus.mouseout"/>
                        </use>
                        <path d="M-4,0h8" fill="none" stroke="white" stroke-width="1.5" pointer-events="none"/>
                </g>
                <g id="dirArrow">
                        <path fill="none" stroke="white" stroke-width="1.5" d="M0,-3.0v7 M-2.5,-0.5L0,-3.0L2.5,-0.5"/>
                </g>
               <g id="resetDef">
                       <use xlink:href="#rim2" fill="#404040">
                               <set attributeName="fill" to="#808080" begin="reset.mouseover" end="reset.mouseout"/>
                       </use>
               </g>
        </defs>

<script type="text/javascript">
var viewWidth = 1558;
var viewHeight = 646;
var sectionId = 'dynsection-0';
</script>
<script xlink:href="../../svgpan.js"/>
<svg id="graph" class="graph">
<g id="viewport">
<title>/home/travis/build/AliceO2Group/AliceO2/Detectors/TPC/base/include/TPCBase/CalDet.h</title>
<!-- Node1 -->
<g id="node1" class="node"><title>Node1</title>
<polygon fill="#bfbfbf" stroke="black" points="990.5,-585 990.5,-637 1133.5,-637 1133.5,-585 990.5,-585"/>
<text text-anchor="start" x="998.5" y="-625" font-family="Helvetica,sans-Serif" font-size="10.00">/home/travis/build</text>
<text text-anchor="start" x="998.5" y="-614" font-family="Helvetica,sans-Serif" font-size="10.00">/AliceO2Group/AliceO2</text>
<text text-anchor="start" x="998.5" y="-603" font-family="Helvetica,sans-Serif" font-size="10.00">/Detectors/TPC/base/include</text>
<text text-anchor="middle" x="1062" y="-592" font-family="Helvetica,sans-Serif" font-size="10.00">/TPCBase/CalDet.h</text>
</g>
<!-- Node2 -->
<g id="node2" class="node"><title>Node2</title>
<polygon fill="none" stroke="#bfbfbf" points="852,-472.5 852,-491.5 904,-491.5 904,-472.5 852,-472.5"/>
<text text-anchor="middle" x="878" y="-479.5" font-family="Helvetica,sans-Serif" font-size="10.00">memory</text>
</g>
<!-- Node1&#45;&gt;Node2 -->
<g id="edge1" class="edge"><title>Node1&#45;&gt;Node2</title>
<path fill="none" stroke="midnightblue" d="M1025.65,-584.909C987.709,-558.723 929.547,-518.579 898.769,-497.335"/>
<polygon fill="midnightblue" stroke="midnightblue" points="900.718,-494.428 890.5,-491.628 896.742,-500.189 900.718,-494.428"/>
</g>
<!-- Node3 -->
<g id="node3" class="node"><title>Node3</title>
<polygon fill="none" stroke="#bfbfbf" points="1318,-360.5 1318,-379.5 1362,-379.5 1362,-360.5 1318,-360.5"/>
<text text-anchor="middle" x="1340" y="-367.5" font-family="Helvetica,sans-Serif" font-size="10.00">vector</text>
</g>
<!-- Node1&#45;&gt;Node3 -->
<g id="edge2" class="edge"><title>Node1&#45;&gt;Node3</title>
<path fill="none" stroke="midnightblue" d="M1063.52,-584.841C1066.84,-553.433 1077.41,-500.393 1111,-472 1181.65,-412.285 1244.98,-495.272 1316,-436 1329.69,-424.576 1335.57,-404.591 1338.1,-389.788"/>
<polygon fill="midnightblue" stroke="midnightblue" points="1341.59,-390.083 1339.45,-379.706 1334.65,-389.152 1341.59,-390.083"/>
</g>
<!-- Node4 -->
<g id="node4" class="node"><title>Node4</title>
<polygon fill="none" stroke="#bfbfbf" points="448.5,-416.5 448.5,-435.5 489.5,-435.5 489.5,-416.5 448.5,-416.5"/>
<text text-anchor="middle" x="469" y="-423.5" font-family="Helvetica,sans-Serif" font-size="10.00">string</text>
</g>
<!-- Node1&#45;&gt;Node4 -->
<g id="edge3" class="edge"><title>Node1&#45;&gt;Node4</title>
<path fill="none" stroke="midnightblue" d="M990.47,-587.926C860.256,-547.742 589.607,-464.219 499.167,-436.31"/>
<polygon fill="midnightblue" stroke="midnightblue" points="500.12,-432.941 489.532,-433.336 498.055,-439.629 500.12,-432.941"/>
</g>
<!-- Node5 -->
<g id="node5" class="node"><title>Node5</title>
<polygon fill="none" stroke="#bfbfbf" points="1370,-472.5 1370,-491.5 1460,-491.5 1460,-472.5 1370,-472.5"/>
<text text-anchor="middle" x="1415" y="-479.5" font-family="Helvetica,sans-Serif" font-size="10.00">boost/format.hpp</text>
</g>
<!-- Node1&#45;&gt;Node5 -->
<g id="edge4" class="edge"><title>Node1&#45;&gt;Node5</title>
<path fill="none" stroke="midnightblue" d="M1133.61,-586.371C1165.77,-575.351 1204.04,-561.669 1238,-548 1257.93,-539.979 1262.02,-535.897 1282,-528 1313.76,-515.446 1350.59,-503.155 1377.43,-494.599"/>
<polygon fill="midnightblue" stroke="midnightblue" points="1378.72,-497.863 1387.2,-491.51 1376.61,-491.189 1378.72,-497.863"/>
</g>
<!-- Node6 -->
<g id="node6" class="node"><title>Node6</title>
<polygon fill="none" stroke="#bfbfbf" points="1324,-528.5 1324,-547.5 1450,-547.5 1450,-528.5 1324,-528.5"/>
<text text-anchor="middle" x="1387" y="-535.5" font-family="Helvetica,sans-Serif" font-size="10.00">boost/range/combine.hpp</text>
</g>
<!-- Node1&#45;&gt;Node6 -->
<g id="edge5" class="edge"><title>Node1&#45;&gt;Node6</title>
<path fill="none" stroke="midnightblue" d="M1133.72,-594.331C1195.72,-580.788 1283.66,-561.576 1337.93,-549.72"/>
<polygon fill="midnightblue" stroke="midnightblue" points="1338.96,-553.077 1347.98,-547.523 1337.47,-546.238 1338.96,-553.077"/>
</g>
<!-- Node7 -->
<g id="node7" class="node"><title>Node7</title>
<polygon fill="none" stroke="#bfbfbf" points="1468.5,-528.5 1468.5,-547.5 1517.5,-547.5 1517.5,-528.5 1468.5,-528.5"/>
<text text-anchor="middle" x="1493" y="-535.5" font-family="Helvetica,sans-Serif" font-size="10.00">cassert</text>
</g>
<!-- Node1&#45;&gt;Node7 -->
<g id="edge6" class="edge"><title>Node1&#45;&gt;Node7</title>
<path fill="none" stroke="midnightblue" d="M1133.76,-601.075C1211.41,-590.905 1338.97,-572.704 1458.16,-547.986"/>
<polygon fill="midnightblue" stroke="midnightblue" points="1459.12,-551.361 1468.19,-545.886 1457.68,-544.51 1459.12,-551.361"/>
</g>
<!-- Node8 -->
<g id="node8" class="node"><title>Node8</title>
<polygon fill="none" stroke="#bfbfbf" points="1478.5,-472.5 1478.5,-491.5 1549.5,-491.5 1549.5,-472.5 1478.5,-472.5"/>
<text text-anchor="middle" x="1514" y="-479.5" font-family="Helvetica,sans-Serif" font-size="10.00">FairLogger.h</text>
</g>
<!-- Node1&#45;&gt;Node8 -->
<g id="edge7" class="edge"><title>Node1&#45;&gt;Node8</title>
<path fill="none" stroke="midnightblue" d="M1133.67,-592.284C1175.22,-581.212 1228.22,-565.712 1274,-548 1292.91,-540.684 1295.87,-534.725 1315,-528 1329.36,-522.95 1414.18,-504.388 1468.35,-492.74"/>
<polygon fill="midnightblue" stroke="midnightblue" points="1469.37,-496.1 1478.41,-490.579 1467.9,-489.256 1469.37,-496.1"/>
</g>
<!-- Node9 -->
<g id="node9" class="node"><title>Node9</title>
<g id="a_node9"><a xlink:href="../../d1/d73/Defs_8h.html" target="_top" xlink:title="Common definitions for 2D coordinates. ">
<polygon fill="none" stroke="black" points="647,-192.5 647,-211.5 773,-211.5 773,-192.5 647,-192.5"/>
<text text-anchor="middle" x="710" y="-199.5" font-family="Helvetica,sans-Serif" font-size="10.00">DataFormatsTPC/Defs.h</text>
</a>
</g>
</g>
<!-- Node1&#45;&gt;Node9 -->
<g id="edge8" class="edge"><title>Node1&#45;&gt;Node9</title>
<path fill="none" stroke="midnightblue" d="M990.34,-609.695C836.44,-608.061 479.492,-598.737 371,-548 333.992,-530.693 306,-523.855 306,-483 306,-483 306,-483 306,-313 306,-245.26 520.13,-217.85 636.604,-207.952"/>
<polygon fill="midnightblue" stroke="midnightblue" points="637.197,-211.415 646.875,-207.103 636.621,-204.439 637.197,-211.415"/>
</g>
<!-- Node23 -->
<g id="node23" class="node"><title>Node23</title>
<g id="a_node23"><a xlink:href="../../d7/d2c/Mapper_8h.html" target="_top" xlink:title="TPCBase/Mapper.h">
<polygon fill="none" stroke="black" points="960.5,-472.5 960.5,-491.5 1063.5,-491.5 1063.5,-472.5 960.5,-472.5"/>
<text text-anchor="middle" x="1012" y="-479.5" font-family="Helvetica,sans-Serif" font-size="10.00">TPCBase/Mapper.h</text>
</a>
</g>
</g>
<!-- Node1&#45;&gt;Node23 -->
<g id="edge23" class="edge"><title>Node1&#45;&gt;Node23</title>
<path fill="none" stroke="midnightblue" d="M1052.12,-584.909C1042.39,-560.184 1027.75,-523.015 1019.11,-501.061"/>
<polygon fill="midnightblue" stroke="midnightblue" points="1022.32,-499.65 1015.4,-491.628 1015.8,-502.215 1022.32,-499.65"/>
</g>
<!-- Node28 -->
<g id="node28" class="node"><title>Node28</title>
<g id="a_node28"><a xlink:href="../../d3/dd6/Sector_8h.html" target="_top" xlink:title="TPCBase/Sector.h">
<polygon fill="none" stroke="black" points="453.5,-248.5 453.5,-267.5 552.5,-267.5 552.5,-248.5 453.5,-248.5"/>
<text text-anchor="middle" x="503" y="-255.5" font-family="Helvetica,sans-Serif" font-size="10.00">TPCBase/Sector.h</text>
</a>
</g>
</g>
<!-- Node1&#45;&gt;Node28 -->
<g id="edge59" class="edge"><title>Node1&#45;&gt;Node28</title>
<path fill="none" stroke="midnightblue" d="M990.361,-607.165C849.47,-600.884 541.404,-583.46 442,-548 392.773,-530.439 344,-535.265 344,-483 344,-483 344,-483 344,-369 344,-314.316 408.391,-284.684 455.219,-270.365"/>
<polygon fill="midnightblue" stroke="midnightblue" points="456.295,-273.697 464.916,-267.538 454.336,-266.977 456.295,-273.697"/>
</g>
<!-- Node31 -->
<g id="node31" class="node"><title>Node31</title>
<g id="a_node31"><a xlink:href="../../dc/d14/ROC_8h.html" target="_top" xlink:title="TPCBase/ROC.h">
<polygon fill="none" stroke="black" points="550.5,-304.5 550.5,-323.5 643.5,-323.5 643.5,-304.5 550.5,-304.5"/>
<text text-anchor="middle" x="597" y="-311.5" font-family="Helvetica,sans-Serif" font-size="10.00">TPCBase/ROC.h</text>
</a>
</g>
</g>
<!-- Node1&#45;&gt;Node31 -->
<g id="edge58" class="edge"><title>Node1&#45;&gt;Node31</title>
<path fill="none" stroke="midnightblue" d="M990.223,-610.752C822.696,-610.578 420,-598.18 420,-483 420,-483 420,-483 420,-425 420,-394.902 417.644,-381.209 439,-360 465.593,-333.59 506.516,-322.436 540.05,-317.835"/>
<polygon fill="midnightblue" stroke="midnightblue" points="540.689,-321.283 550.196,-316.608 539.848,-314.334 540.689,-321.283"/>
</g>
<!-- Node37 -->
<g id="node37" class="node"><title>Node37</title>
<g id="a_node37"><a xlink:href="../../db/d9b/CalArray_8h.html" target="_top" xlink:title="TPCBase/CalArray.h">
<polygon fill="none" stroke="black" points="1120.5,-528.5 1120.5,-547.5 1229.5,-547.5 1229.5,-528.5 1120.5,-528.5"/>
<text text-anchor="middle" x="1175" y="-535.5" font-family="Helvetica,sans-Serif" font-size="10.00">TPCBase/CalArray.h</text>
</a>
</g>
</g>
<!-- Node1&#45;&gt;Node37 -->
<g id="edge60" class="edge"><title>Node1&#45;&gt;Node37</title>
<path fill="none" stroke="midnightblue" d="M1101.84,-584.968C1118.83,-574.291 1138.03,-562.227 1152.5,-553.138"/>
<polygon fill="midnightblue" stroke="midnightblue" points="1154.65,-555.923 1161.25,-547.639 1150.92,-549.996 1154.65,-555.923"/>
</g>
<!-- Node10 -->
<g id="node10" class="node"><title>Node10</title>
<polygon fill="none" stroke="#bfbfbf" points="1024,-136.5 1024,-155.5 1068,-155.5 1068,-136.5 1024,-136.5"/>
<text text-anchor="middle" x="1046" y="-143.5" font-family="Helvetica,sans-Serif" font-size="10.00">cmath</text>
</g>
<!-- Node9&#45;&gt;Node10 -->
<g id="edge9" class="edge"><title>Node9&#45;&gt;Node10</title>
<path fill="none" stroke="midnightblue" d="M763.24,-192.444C833.792,-181.105 956.067,-161.453 1013.91,-152.157"/>
<polygon fill="midnightblue" stroke="midnightblue" points="1014.61,-155.589 1023.93,-150.547 1013.5,-148.678 1014.61,-155.589"/>
</g>
<!-- Node11 -->
<g id="node11" class="node"><title>Node11</title>
<g id="a_node11"><a xlink:href="../../d2/dd0/Cartesian2D_8h.html" target="_top" xlink:title="MathUtils/Cartesian2D.h">
<polygon fill="none" stroke="black" points="103.5,-74.5 103.5,-93.5 228.5,-93.5 228.5,-74.5 103.5,-74.5"/>
<text text-anchor="middle" x="166" y="-81.5" font-family="Helvetica,sans-Serif" font-size="10.00">MathUtils/Cartesian2D.h</text>
</a>
</g>
</g>
<!-- Node9&#45;&gt;Node11 -->
<g id="edge10" class="edge"><title>Node9&#45;&gt;Node11</title>
<path fill="none" stroke="midnightblue" d="M669.998,-192.47C572.54,-171.689 322.984,-118.475 215.962,-95.6537"/>
<polygon fill="midnightblue" stroke="midnightblue" points="216.57,-92.2048 206.06,-93.5423 215.11,-99.0508 216.57,-92.2048"/>
</g>
<!-- Node14 -->
<g id="node14" class="node"><title>Node14</title>
<g id="a_node14"><a xlink:href="../../dd/d76/Cartesian3D_8h.html" target="_top" xlink:title="MathUtils/Cartesian3D.h">
<polygon fill="none" stroke="black" points="689.5,-136.5 689.5,-155.5 814.5,-155.5 814.5,-136.5 689.5,-136.5"/>
<text text-anchor="middle" x="752" y="-143.5" font-family="Helvetica,sans-Serif" font-size="10.00">MathUtils/Cartesian3D.h</text>
</a>
</g>
</g>
<!-- Node9&#45;&gt;Node14 -->
<g id="edge13" class="edge"><title>Node9&#45;&gt;Node14</title>
<path fill="none" stroke="midnightblue" d="M716.935,-192.083C722.929,-184.377 731.752,-173.033 739.048,-163.653"/>
<polygon fill="midnightblue" stroke="midnightblue" points="741.817,-165.793 745.194,-155.751 736.291,-161.496 741.817,-165.793"/>
</g>
<!-- Node12 -->
<g id="node12" class="node"><title>Node12</title>
<polygon fill="none" stroke="#bfbfbf" points="-0.5,-1 -0.5,-31 150.5,-31 150.5,-1 -0.5,-1"/>
<text text-anchor="start" x="7.5" y="-19" font-family="Helvetica,sans-Serif" font-size="10.00">Math/GenVector/Displacement</text>
<text text-anchor="middle" x="75" y="-8" font-family="Helvetica,sans-Serif" font-size="10.00">Vector2D.h</text>
</g>
<!-- Node11&#45;&gt;Node12 -->
<g id="edge11" class="edge"><title>Node11&#45;&gt;Node12</title>
<path fill="none" stroke="midnightblue" d="M154.103,-74.3717C141.221,-65.0286 120.22,-49.7966 103.093,-37.375"/>
<polygon fill="midnightblue" stroke="midnightblue" points="104.703,-34.2194 94.5532,-31.1815 100.593,-39.8859 104.703,-34.2194"/>
</g>
<!-- Node13 -->
<g id="node13" class="node"><title>Node13</title>
<polygon fill="none" stroke="#bfbfbf" points="169,-6.5 169,-25.5 345,-25.5 345,-6.5 169,-6.5"/>
<text text-anchor="middle" x="257" y="-13.5" font-family="Helvetica,sans-Serif" font-size="10.00">Math/GenVector/PositionVector2D.h</text>
</g>
<!-- Node11&#45;&gt;Node13 -->
<g id="edge12" class="edge"><title>Node11&#45;&gt;Node13</title>
<path fill="none" stroke="midnightblue" d="M177.897,-74.3717C192.884,-63.5015 218.862,-44.6602 236.942,-31.5474"/>
<polygon fill="midnightblue" stroke="midnightblue" points="239.06,-34.3349 245.1,-25.6305 234.95,-28.6684 239.06,-34.3349"/>
</g>
<!-- Node14&#45;&gt;Node11 -->
<g id="edge22" class="edge"><title>Node14&#45;&gt;Node11</title>
<path fill="none" stroke="midnightblue" d="M689.484,-141.983C592.288,-136.744 399.233,-124.135 237,-100 228.938,-98.8007 220.416,-97.2495 212.182,-95.601"/>
<polygon fill="midnightblue" stroke="midnightblue" points="212.834,-92.1617 202.331,-93.559 211.413,-99.016 212.834,-92.1617"/>
</g>
<!-- Node15 -->
<g id="node15" class="node"><title>Node15</title>
<polygon fill="none" stroke="#bfbfbf" points="934.5,-69 934.5,-99 1085.5,-99 1085.5,-69 934.5,-69"/>
<text text-anchor="start" x="942.5" y="-87" font-family="Helvetica,sans-Serif" font-size="10.00">Math/GenVector/Displacement</text>
<text text-anchor="middle" x="1010" y="-76" font-family="Helvetica,sans-Serif" font-size="10.00">Vector3D.h</text>
</g>
<!-- Node14&#45;&gt;Node15 -->
<g id="edge14" class="edge"><title>Node14&#45;&gt;Node15</title>
<path fill="none" stroke="midnightblue" d="M788.691,-136.467C827.867,-127.356 890.895,-112.699 939.688,-101.352"/>
<polygon fill="midnightblue" stroke="midnightblue" points="940.61,-104.731 949.557,-99.0565 939.024,-97.9127 940.61,-104.731"/>
</g>
<!-- Node16 -->
<g id="node16" class="node"><title>Node16</title>
<polygon fill="none" stroke="#bfbfbf" points="1104,-74.5 1104,-93.5 1280,-93.5 1280,-74.5 1104,-74.5"/>
<text text-anchor="middle" x="1192" y="-81.5" font-family="Helvetica,sans-Serif" font-size="10.00">Math/GenVector/PositionVector3D.h</text>
</g>
<!-- Node14&#45;&gt;Node16 -->
<g id="edge15" class="edge"><title>Node14&#45;&gt;Node16</title>
<path fill="none" stroke="midnightblue" d="M814.774,-137.143C883.411,-128.458 996.617,-113.858 1094,-100 1104.83,-98.459 1116.32,-96.7588 1127.48,-95.0734"/>
<polygon fill="midnightblue" stroke="midnightblue" points="1128.24,-98.4976 1137.6,-93.5347 1127.19,-91.577 1128.24,-98.4976"/>
</g>
<!-- Node17 -->
<g id="node17" class="node"><title>Node17</title>
<polygon fill="none" stroke="#bfbfbf" points="246.5,-74.5 246.5,-93.5 395.5,-93.5 395.5,-74.5 246.5,-74.5"/>
<text text-anchor="middle" x="321" y="-81.5" font-family="Helvetica,sans-Serif" font-size="10.00">Math/GenVector/Rotation3D.h</text>
</g>
<!-- Node14&#45;&gt;Node17 -->
<g id="edge16" class="edge"><title>Node14&#45;&gt;Node17</title>
<path fill="none" stroke="midnightblue" d="M689.186,-137.769C619.58,-129.543 504.065,-115.26 405,-100 395.861,-98.5922 386.184,-96.9791 376.775,-95.3445"/>
<polygon fill="midnightblue" stroke="midnightblue" points="377.165,-91.8594 366.71,-93.5711 375.951,-98.7532 377.165,-91.8594"/>
</g>
<!-- Node18 -->
<g id="node18" class="node"><title>Node18</title>
<polygon fill="none" stroke="#bfbfbf" points="414,-74.5 414,-93.5 570,-93.5 570,-74.5 414,-74.5"/>
<text text-anchor="middle" x="492" y="-81.5" font-family="Helvetica,sans-Serif" font-size="10.00">Math/GenVector/Transform3D.h</text>
</g>
<!-- Node14&#45;&gt;Node18 -->
<g id="edge17" class="edge"><title>Node14&#45;&gt;Node18</title>
<path fill="none" stroke="midnightblue" d="M715.024,-136.467C668.724,-125.783 589.365,-107.469 538.856,-95.8129"/>
<polygon fill="midnightblue" stroke="midnightblue" points="539.379,-92.3417 528.848,-93.5034 537.805,-99.1624 539.379,-92.3417"/>
</g>
<!-- Node19 -->
<g id="node19" class="node"><title>Node19</title>
<polygon fill="none" stroke="#bfbfbf" points="588,-74.5 588,-93.5 748,-93.5 748,-74.5 588,-74.5"/>
<text text-anchor="middle" x="668" y="-81.5" font-family="Helvetica,sans-Serif" font-size="10.00">Math/GenVector/Translation3D.h</text>
</g>
<!-- Node14&#45;&gt;Node19 -->
<g id="edge18" class="edge"><title>Node14&#45;&gt;Node19</title>
<path fill="none" stroke="midnightblue" d="M739.965,-136.403C726.492,-126.78 704.434,-111.024 688.285,-99.4891"/>
<polygon fill="midnightblue" stroke="midnightblue" points="690.185,-96.5449 680.013,-93.5806 686.116,-102.241 690.185,-96.5449"/>
</g>
<!-- Node20 -->
<g id="node20" class="node"><title>Node20</title>
<polygon fill="none" stroke="#bfbfbf" points="766,-74.5 766,-93.5 822,-93.5 822,-74.5 766,-74.5"/>
<text text-anchor="middle" x="794" y="-81.5" font-family="Helvetica,sans-Serif" font-size="10.00">Rtypes.h</text>
</g>
<!-- Node14&#45;&gt;Node20 -->
<g id="edge19" class="edge"><title>Node14&#45;&gt;Node20</title>
<path fill="none" stroke="midnightblue" d="M758.018,-136.403C764.318,-127.403 774.371,-113.041 782.252,-101.782"/>
<polygon fill="midnightblue" stroke="midnightblue" points="785.126,-103.78 787.994,-93.5806 779.392,-99.7658 785.126,-103.78"/>
</g>
<!-- Node21 -->
<g id="node21" class="node"><title>Node21</title>
<polygon fill="none" stroke="#bfbfbf" points="840,-74.5 840,-93.5 916,-93.5 916,-74.5 840,-74.5"/>
<text text-anchor="middle" x="878" y="-81.5" font-family="Helvetica,sans-Serif" font-size="10.00">TGeoMatrix.h</text>
</g>
<!-- Node14&#45;&gt;Node21 -->
<g id="edge20" class="edge"><title>Node14&#45;&gt;Node21</title>
<path fill="none" stroke="midnightblue" d="M770.053,-136.403C791.198,-126.334 826.44,-109.552 850.878,-97.9151"/>
<polygon fill="midnightblue" stroke="midnightblue" points="852.457,-101.04 859.981,-93.5806 849.447,-94.72 852.457,-101.04"/>
</g>
<!-- Node22 -->
<g id="node22" class="node"><title>Node22</title>
<polygon fill="none" stroke="#bfbfbf" points="1298.5,-74.5 1298.5,-93.5 1343.5,-93.5 1343.5,-74.5 1298.5,-74.5"/>
<text text-anchor="middle" x="1321" y="-81.5" font-family="Helvetica,sans-Serif" font-size="10.00">iosfwd</text>
</g>
<!-- Node14&#45;&gt;Node22 -->
<g id="edge21" class="edge"><title>Node14&#45;&gt;Node22</title>
<path fill="none" stroke="midnightblue" d="M814.725,-142.426C936.377,-136.991 1200.13,-122.925 1288,-100 1290.5,-99.3467 1293.06,-98.5162 1295.57,-97.5822"/>
<polygon fill="midnightblue" stroke="midnightblue" points="1297.1,-100.736 1304.96,-93.624 1294.38,-94.2861 1297.1,-100.736"/>
</g>
<!-- Node23&#45;&gt;Node3 -->
<g id="edge25" class="edge"><title>Node23&#45;&gt;Node3</title>
<path fill="none" stroke="midnightblue" d="M1063.5,-473.706C1141.43,-462.524 1281.33,-441.825 1291,-436 1309.47,-424.87 1323.33,-403.918 1331.51,-388.805"/>
<polygon fill="midnightblue" stroke="midnightblue" points="1334.64,-390.377 1336.06,-379.879 1328.4,-387.198 1334.64,-390.377"/>
</g>
<!-- Node23&#45;&gt;Node4 -->
<g id="edge27" class="edge"><title>Node23&#45;&gt;Node4</title>
<path fill="none" stroke="midnightblue" d="M960.152,-473.659C955.371,-473.064 950.599,-472.5 946,-472 750.062,-450.677 698.37,-468.661 504,-436 502.531,-435.753 501.032,-435.475 499.524,-435.172"/>
<polygon fill="midnightblue" stroke="midnightblue" points="500.13,-431.721 489.603,-432.919 498.58,-438.547 500.13,-431.721"/>
</g>
<!-- Node23&#45;&gt;Node9 -->
<g id="edge29" class="edge"><title>Node23&#45;&gt;Node9</title>
<path fill="none" stroke="midnightblue" d="M1063.51,-472.906C1106.79,-465.119 1164.21,-452.16 1181,-436 1202.78,-415.04 1201,-401.225 1201,-371 1201,-371 1201,-371 1201,-313 1201,-228.416 920.034,-208.855 783.181,-204.345"/>
<polygon fill="midnightblue" stroke="midnightblue" points="783.289,-200.846 773.184,-204.033 783.071,-207.843 783.289,-200.846"/>
</g>
<!-- Node23&#45;&gt;Node10 -->
<g id="edge28" class="edge"><title>Node23&#45;&gt;Node10</title>
<path fill="none" stroke="midnightblue" d="M1063.73,-473.63C1112.53,-465.835 1181.34,-452.403 1203,-436 1229.33,-416.062 1239,-404.024 1239,-371 1239,-371 1239,-371 1239,-257 1239,-183.811 1132.95,-158.685 1078.07,-150.582"/>
<polygon fill="midnightblue" stroke="midnightblue" points="1078.52,-147.111 1068.14,-149.219 1077.57,-154.046 1078.52,-147.111"/>
</g>
<!-- Node24 -->
<g id="node24" class="node"><title>Node24</title>
<polygon fill="none" stroke="#bfbfbf" points="939.5,-416.5 939.5,-435.5 974.5,-435.5 974.5,-416.5 939.5,-416.5"/>
<text text-anchor="middle" x="957" y="-423.5" font-family="Helvetica,sans-Serif" font-size="10.00">map</text>
</g>
<!-- Node23&#45;&gt;Node24 -->
<g id="edge24" class="edge"><title>Node23&#45;&gt;Node24</title>
<path fill="none" stroke="midnightblue" d="M1002.92,-472.083C994.829,-464.141 982.805,-452.335 973.09,-442.797"/>
<polygon fill="midnightblue" stroke="midnightblue" points="975.501,-440.26 965.913,-435.751 970.597,-445.254 975.501,-440.26"/>
</g>
<!-- Node25 -->
<g id="node25" class="node"><title>Node25</title>
<polygon fill="none" stroke="#bfbfbf" points="993,-416.5 993,-435.5 1031,-435.5 1031,-416.5 993,-416.5"/>
<text text-anchor="middle" x="1012" y="-423.5" font-family="Helvetica,sans-Serif" font-size="10.00">array</text>
</g>
<!-- Node23&#45;&gt;Node25 -->
<g id="edge26" class="edge"><title>Node23&#45;&gt;Node25</title>
<path fill="none" stroke="midnightblue" d="M1012,-472.083C1012,-465.006 1012,-454.861 1012,-445.986"/>
<polygon fill="midnightblue" stroke="midnightblue" points="1015.5,-445.751 1012,-435.751 1008.5,-445.751 1015.5,-445.751"/>
</g>
<!-- Node26 -->
<g id="node26" class="node"><title>Node26</title>
<g id="a_node26"><a xlink:href="../../de/d41/PadPos_8h.html" target="_top" xlink:title="TPCBase/PadPos.h">
<polygon fill="none" stroke="black" points="841.5,-304.5 841.5,-323.5 946.5,-323.5 946.5,-304.5 841.5,-304.5"/>
<text text-anchor="middle" x="894" y="-311.5" font-family="Helvetica,sans-Serif" font-size="10.00">TPCBase/PadPos.h</text>
</a>
</g>
</g>
<!-- Node23&#45;&gt;Node26 -->
<g id="edge30" class="edge"><title>Node23&#45;&gt;Node26</title>
<path fill="none" stroke="midnightblue" d="M960.348,-472.813C892.954,-461.884 782.856,-443.084 777,-436 771.336,-429.149 771.702,-423.138 777,-416 809.933,-371.63 863.067,-424.37 896,-380 905.866,-366.707 903.775,-347.319 900.186,-333.177"/>
<polygon fill="midnightblue" stroke="midnightblue" points="903.535,-332.158 897.324,-323.574 896.826,-334.157 903.535,-332.158"/>
</g>
<!-- Node27 -->
<g id="node27" class="node"><title>Node27</title>
<g id="a_node27"><a xlink:href="../../dd/d0b/PadSecPos_8h.html" target="_top" xlink:title="TPCBase/PadSecPos.h">
<polygon fill="none" stroke="black" points="448,-360.5 448,-379.5 570,-379.5 570,-360.5 448,-360.5"/>
<text text-anchor="middle" x="509" y="-367.5" font-family="Helvetica,sans-Serif" font-size="10.00">TPCBase/PadSecPos.h</text>
</a>
</g>
</g>
<!-- Node23&#45;&gt;Node27 -->
<g id="edge31" class="edge"><title>Node23&#45;&gt;Node27</title>
<path fill="none" stroke="midnightblue" d="M960.143,-473.735C955.365,-473.124 950.595,-472.536 946,-472 863.726,-462.402 650.039,-471.075 575,-436 552.104,-425.298 532.446,-403.239 520.68,-387.801"/>
<polygon fill="midnightblue" stroke="midnightblue" points="523.423,-385.623 514.699,-379.612 517.77,-389.752 523.423,-385.623"/>
</g>
<!-- Node23&#45;&gt;Node28 -->
<g id="edge57" class="edge"><title>Node23&#45;&gt;Node28</title>
<path fill="none" stroke="midnightblue" d="M960.147,-473.7C955.368,-473.096 950.596,-472.519 946,-472 768.193,-451.906 716.58,-486.788 545,-436 532.227,-432.219 445.876,-391.409 439,-380 416.752,-343.084 458.153,-297.741 484.182,-274.442"/>
<polygon fill="midnightblue" stroke="midnightblue" points="486.716,-276.878 491.993,-267.69 482.139,-271.582 486.716,-276.878"/>
</g>
<!-- Node30 -->
<g id="node30" class="node"><title>Node30</title>
<g id="a_node30"><a xlink:href="../../da/d61/PadROCPos_8h.html" target="_top" xlink:title="TPCBase/PadROCPos.h">
<polygon fill="none" stroke="black" points="738,-360.5 738,-379.5 866,-379.5 866,-360.5 738,-360.5"/>
<text text-anchor="middle" x="802" y="-367.5" font-family="Helvetica,sans-Serif" font-size="10.00">TPCBase/PadROCPos.h</text>
</a>
</g>
</g>
<!-- Node23&#45;&gt;Node30 -->
<g id="edge36" class="edge"><title>Node23&#45;&gt;Node30</title>
<path fill="none" stroke="midnightblue" d="M960.217,-473.163C883.307,-461.402 747.49,-440.125 744,-436 728.717,-417.937 753.774,-397.676 775.574,-384.65"/>
<polygon fill="midnightblue" stroke="midnightblue" points="777.318,-387.684 784.285,-379.702 773.861,-381.597 777.318,-387.684"/>
</g>
<!-- Node32 -->
<g id="node32" class="node"><title>Node32</title>
<g id="a_node32"><a xlink:href="../../d3/d54/DigitPos_8h.html" target="_top" xlink:title="TPCBase/DigitPos.h">
<polygon fill="none" stroke="black" points="584,-416.5 584,-435.5 692,-435.5 692,-416.5 584,-416.5"/>
<text text-anchor="middle" x="638" y="-423.5" font-family="Helvetica,sans-Serif" font-size="10.00">TPCBase/DigitPos.h</text>
</a>
</g>
</g>
<!-- Node23&#45;&gt;Node32 -->
<g id="edge42" class="edge"><title>Node23&#45;&gt;Node32</title>
<path fill="none" stroke="midnightblue" d="M960.39,-473.548C893.022,-463.821 775.127,-446.799 702.104,-436.256"/>
<polygon fill="midnightblue" stroke="midnightblue" points="702.506,-432.777 692.108,-434.812 701.505,-439.706 702.506,-432.777"/>
</g>
<!-- Node34 -->
<g id="node34" class="node"><title>Node34</title>
<g id="a_node34"><a xlink:href="../../d1/d1f/FECInfo_8h.html" target="_top" xlink:title="TPCBase/FECInfo.h">
<polygon fill="none" stroke="black" points="1267.5,-248.5 1267.5,-267.5 1374.5,-267.5 1374.5,-248.5 1267.5,-248.5"/>
<text text-anchor="middle" x="1321" y="-255.5" font-family="Helvetica,sans-Serif" font-size="10.00">TPCBase/FECInfo.h</text>
</a>
</g>
</g>
<!-- Node23&#45;&gt;Node34 -->
<g id="edge50" class="edge"><title>Node23&#45;&gt;Node34</title>
<path fill="none" stroke="midnightblue" d="M1063.68,-474.074C1130.09,-464.759 1238.61,-447.983 1253,-436 1302.08,-395.137 1315.82,-314.557 1319.6,-277.924"/>
<polygon fill="midnightblue" stroke="midnightblue" points="1323.11,-277.951 1320.51,-267.681 1316.14,-277.333 1323.11,-277.951"/>
</g>
<!-- Node35 -->
<g id="node35" class="node"><title>Node35</title>
<g id="a_node35"><a xlink:href="../../da/d9d/PadRegionInfo_8h.html" target="_top" xlink:title="TPCBase/PadRegionInfo.h">
<polygon fill="none" stroke="black" points="786.5,-416.5 786.5,-435.5 921.5,-435.5 921.5,-416.5 786.5,-416.5"/>
<text text-anchor="middle" x="854" y="-423.5" font-family="Helvetica,sans-Serif" font-size="10.00">TPCBase/PadRegionInfo.h</text>
</a>
</g>
</g>
<!-- Node23&#45;&gt;Node35 -->
<g id="edge52" class="edge"><title>Node23&#45;&gt;Node35</title>
<path fill="none" stroke="midnightblue" d="M986.964,-472.444C960.384,-463.359 918.191,-448.939 888.477,-438.783"/>
<polygon fill="midnightblue" stroke="midnightblue" points="889.513,-435.439 878.918,-435.516 887.249,-442.062 889.513,-435.439"/>
</g>
<!-- Node36 -->
<g id="node36" class="node"><title>Node36</title>
<g id="a_node36"><a xlink:href="../../d6/d42/PartitionInfo_8h.html" target="_top" xlink:title="TPCBase/PartitionInfo.h">
<polygon fill="none" stroke="black" points="1049.5,-416.5 1049.5,-435.5 1172.5,-435.5 1172.5,-416.5 1049.5,-416.5"/>
<text text-anchor="middle" x="1111" y="-423.5" font-family="Helvetica,sans-Serif" font-size="10.00">TPCBase/PartitionInfo.h</text>
</a>
</g>
</g>
<!-- Node23&#45;&gt;Node36 -->
<g id="edge56" class="edge"><title>Node23&#45;&gt;Node36</title>
<path fill="none" stroke="midnightblue" d="M1027.91,-472.324C1043.64,-463.743 1067.94,-450.486 1086.21,-440.522"/>
<polygon fill="midnightblue" stroke="midnightblue" points="1088.03,-443.516 1095.13,-435.655 1084.68,-437.37 1088.03,-443.516"/>
</g>
<!-- Node27&#45;&gt;Node26 -->
<g id="edge35" class="edge"><title>Node27&#45;&gt;Node26</title>
<path fill="none" stroke="midnightblue" d="M570.004,-360.444C641.343,-350.438 758.833,-333.958 831.013,-323.834"/>
<polygon fill="midnightblue" stroke="midnightblue" points="831.906,-327.244 841.323,-322.388 830.934,-320.311 831.906,-327.244"/>
</g>
<!-- Node27&#45;&gt;Node28 -->
<g id="edge32" class="edge"><title>Node27&#45;&gt;Node28</title>
<path fill="none" stroke="midnightblue" d="M508.529,-360.368C507.561,-342.617 505.327,-301.666 504.014,-277.597"/>
<polygon fill="midnightblue" stroke="midnightblue" points="507.508,-277.386 503.469,-267.591 500.519,-277.767 507.508,-277.386"/>
</g>
<!-- Node28&#45;&gt;Node9 -->
<g id="edge34" class="edge"><title>Node28&#45;&gt;Node9</title>
<path fill="none" stroke="midnightblue" d="M535.8,-248.444C571.38,-239.162 628.314,-224.309 667.347,-214.127"/>
<polygon fill="midnightblue" stroke="midnightblue" points="668.561,-217.427 677.354,-211.516 666.794,-210.654 668.561,-217.427"/>
</g>
<!-- Node29 -->
<g id="node29" class="node"><title>Node29</title>
<g id="a_node29"><a xlink:href="../../d0/dda/DataFormats_2Detectors_2TPC_2include_2DataFormatsTPC_2Constants_8h.html" target="_top" xlink:title="DataFormatsTPC/Constants.h">
<polygon fill="none" stroke="black" points="428,-192.5 428,-211.5 578,-211.5 578,-192.5 428,-192.5"/>
<text text-anchor="middle" x="503" y="-199.5" font-family="Helvetica,sans-Serif" font-size="10.00">DataFormatsTPC/Constants.h</text>
</a>
</g>
</g>
<!-- Node28&#45;&gt;Node29 -->
<g id="edge33" class="edge"><title>Node28&#45;&gt;Node29</title>
<path fill="none" stroke="midnightblue" d="M503,-248.083C503,-241.006 503,-230.861 503,-221.986"/>
<polygon fill="midnightblue" stroke="midnightblue" points="506.5,-221.751 503,-211.751 499.5,-221.751 506.5,-221.751"/>
</g>
<!-- Node30&#45;&gt;Node9 -->
<g id="edge37" class="edge"><title>Node30&#45;&gt;Node9</title>
<path fill="none" stroke="midnightblue" d="M797.054,-360.075C782.447,-333.719 739.306,-255.878 719.788,-220.661"/>
<polygon fill="midnightblue" stroke="midnightblue" points="722.657,-218.618 714.749,-211.568 716.535,-222.011 722.657,-218.618"/>
</g>
<!-- Node30&#45;&gt;Node26 -->
<g id="edge41" class="edge"><title>Node30&#45;&gt;Node26</title>
<path fill="none" stroke="midnightblue" d="M816.781,-360.324C831.267,-351.822 853.573,-338.729 870.493,-328.797"/>
<polygon fill="midnightblue" stroke="midnightblue" points="872.403,-331.735 879.255,-323.655 868.859,-325.698 872.403,-331.735"/>
</g>
<!-- Node30&#45;&gt;Node31 -->
<g id="edge38" class="edge"><title>Node30&#45;&gt;Node31</title>
<path fill="none" stroke="midnightblue" d="M769.517,-360.444C734.28,-351.162 677.896,-336.309 639.241,-326.127"/>
<polygon fill="midnightblue" stroke="midnightblue" points="639.893,-322.679 629.331,-323.516 638.109,-329.448 639.893,-322.679"/>
</g>
<!-- Node31&#45;&gt;Node9 -->
<g id="edge39" class="edge"><title>Node31&#45;&gt;Node9</title>
<path fill="none" stroke="midnightblue" d="M604.625,-304.317C615.914,-291.592 637.91,-267.296 658,-248 668.763,-237.662 681.413,-226.691 691.541,-218.17"/>
<polygon fill="midnightblue" stroke="midnightblue" points="693.917,-220.746 699.359,-211.656 689.436,-215.368 693.917,-220.746"/>
</g>
<!-- Node31&#45;&gt;Node28 -->
<g id="edge40" class="edge"><title>Node31&#45;&gt;Node28</title>
<path fill="none" stroke="midnightblue" d="M581.897,-304.324C567.097,-295.822 544.306,-282.729 527.018,-272.797"/>
<polygon fill="midnightblue" stroke="midnightblue" points="528.48,-269.601 518.065,-267.655 524.993,-275.671 528.48,-269.601"/>
</g>
<!-- Node32&#45;&gt;Node9 -->
<g id="edge43" class="edge"><title>Node32&#45;&gt;Node9</title>
<path fill="none" stroke="midnightblue" d="M653.069,-416.392C665.234,-408.57 681.651,-395.843 690,-380 717.34,-328.117 715.149,-255.972 712.176,-222.055"/>
<polygon fill="midnightblue" stroke="midnightblue" points="715.623,-221.348 711.139,-211.749 708.658,-222.049 715.623,-221.348"/>
</g>
<!-- Node32&#45;&gt;Node26 -->
<g id="edge48" class="edge"><title>Node32&#45;&gt;Node26</title>
<path fill="none" stroke="midnightblue" d="M692.16,-421.206C753.622,-415.813 848.756,-403.82 875,-380 887.903,-368.288 892.234,-348.349 893.594,-333.635"/>
<polygon fill="midnightblue" stroke="midnightblue" points="897.09,-333.803 894.147,-323.625 890.101,-333.417 897.09,-333.803"/>
</g>
<!-- Node32&#45;&gt;Node27 -->
<g id="edge49" class="edge"><title>Node32&#45;&gt;Node27</title>
<path fill="none" stroke="midnightblue" d="M617.56,-416.444C596.33,-407.557 562.901,-393.563 538.745,-383.451"/>
<polygon fill="midnightblue" stroke="midnightblue" points="539.921,-380.149 529.345,-379.516 537.218,-386.606 539.921,-380.149"/>
</g>
<!-- Node33 -->
<g id="node33" class="node"><title>Node33</title>
<g id="a_node33"><a xlink:href="../../df/d26/CRU_8h.html" target="_top" xlink:title="TPCBase/CRU.h">
<polygon fill="none" stroke="black" points="588.5,-360.5 588.5,-379.5 681.5,-379.5 681.5,-360.5 588.5,-360.5"/>
<text text-anchor="middle" x="635" y="-367.5" font-family="Helvetica,sans-Serif" font-size="10.00">TPCBase/CRU.h</text>
</a>
</g>
</g>
<!-- Node32&#45;&gt;Node33 -->
<g id="edge44" class="edge"><title>Node32&#45;&gt;Node33</title>
<path fill="none" stroke="midnightblue" d="M637.505,-416.083C637.111,-409.006 636.548,-398.861 636.055,-389.986"/>
<polygon fill="midnightblue" stroke="midnightblue" points="639.536,-389.542 635.486,-379.751 632.546,-389.93 639.536,-389.542"/>
</g>
<!-- Node33&#45;&gt;Node9 -->
<g id="edge45" class="edge"><title>Node33&#45;&gt;Node9</title>
<path fill="none" stroke="midnightblue" d="M639.032,-360.075C650.889,-333.832 685.808,-256.545 701.815,-221.117"/>
<polygon fill="midnightblue" stroke="midnightblue" points="705.201,-222.122 706.129,-211.568 698.822,-219.24 705.201,-222.122"/>
</g>
<!-- Node33&#45;&gt;Node28 -->
<g id="edge46" class="edge"><title>Node33&#45;&gt;Node28</title>
<path fill="none" stroke="midnightblue" d="M606.498,-360.377C586.378,-353.176 559.768,-341.279 541,-324 526.761,-310.891 516.282,-291.202 509.976,-276.93"/>
<polygon fill="midnightblue" stroke="midnightblue" points="513.196,-275.559 506.128,-267.667 506.732,-278.244 513.196,-275.559"/>
</g>
<!-- Node33&#45;&gt;Node31 -->
<g id="edge47" class="edge"><title>Node33&#45;&gt;Node31</title>
<path fill="none" stroke="midnightblue" d="M628.725,-360.083C623.358,-352.455 615.482,-341.264 608.921,-331.941"/>
<polygon fill="midnightblue" stroke="midnightblue" points="611.775,-329.915 603.158,-323.751 606.051,-333.943 611.775,-329.915"/>
</g>
<!-- Node34&#45;&gt;Node22 -->
<g id="edge51" class="edge"><title>Node34&#45;&gt;Node22</title>
<path fill="none" stroke="midnightblue" d="M1321,-248.234C1321,-221.548 1321,-140.877 1321,-103.893"/>
<polygon fill="midnightblue" stroke="midnightblue" points="1324.5,-103.544 1321,-93.5442 1317.5,-103.544 1324.5,-103.544"/>
</g>
<!-- Node35&#45;&gt;Node3 -->
<g id="edge53" class="edge"><title>Node35&#45;&gt;Node3</title>
<path fill="none" stroke="midnightblue" d="M921.542,-416.971C924.399,-416.641 927.228,-416.316 930,-416 1070.47,-399.974 1238.14,-381.901 1307.5,-374.471"/>
<polygon fill="midnightblue" stroke="midnightblue" points="1308.2,-377.917 1317.77,-373.372 1307.46,-370.956 1308.2,-377.917"/>
</g>
<!-- Node35&#45;&gt;Node9 -->
<g id="edge54" class="edge"><title>Node35&#45;&gt;Node9</title>
<path fill="none" stroke="midnightblue" d="M905.53,-416.44C926.733,-410.104 949.268,-399.098 962,-380 971.612,-365.583 971.686,-325.856 955,-304 913.914,-250.185 839.102,-224.865 782.916,-213.063"/>
<polygon fill="midnightblue" stroke="midnightblue" points="783.501,-209.611 773.009,-211.08 782.127,-216.475 783.501,-209.611"/>
</g>
<!-- Node35&#45;&gt;Node26 -->
<g id="edge55" class="edge"><title>Node35&#45;&gt;Node26</title>
<path fill="none" stroke="midnightblue" d="M892.845,-416.364C912.377,-409.847 934.327,-398.704 946,-380 957.691,-361.267 936.9,-341.739 918.238,-329.04"/>
<polygon fill="midnightblue" stroke="midnightblue" points="919.977,-325.997 909.669,-323.55 916.201,-331.892 919.977,-325.997"/>
</g>
<!-- Node37&#45;&gt;Node2 -->
<g id="edge62" class="edge"><title>Node37&#45;&gt;Node2</title>
<path fill="none" stroke="midnightblue" d="M1121.7,-528.434C1069.63,-519.884 988.18,-506.031 918,-492 916.744,-491.749 915.466,-491.488 914.177,-491.221"/>
<polygon fill="midnightblue" stroke="midnightblue" points="914.723,-487.759 904.212,-489.087 913.257,-494.604 914.723,-487.759"/>
</g>
<!-- Node37&#45;&gt;Node3 -->
<g id="edge63" class="edge"><title>Node37&#45;&gt;Node3</title>
<path fill="none" stroke="midnightblue" d="M1179.74,-528.362C1187.9,-514.32 1205.97,-486.642 1229,-472 1282.49,-437.988 1328.25,-486.16 1367,-436 1378.26,-421.426 1366.9,-401.482 1355.66,-387.543"/>
<polygon fill="midnightblue" stroke="midnightblue" points="1358.08,-384.991 1348.87,-379.742 1352.79,-389.585 1358.08,-384.991"/>
</g>
<!-- Node37&#45;&gt;Node4 -->
<g id="edge64" class="edge"><title>Node37&#45;&gt;Node4</title>
<path fill="none" stroke="midnightblue" d="M1120.43,-530.489C1074.33,-523.945 1007.07,-511.919 951,-492 933.016,-485.611 931.309,-477.387 913,-472 737.939,-420.495 683.858,-466.826 504,-436 502.531,-435.748 501.034,-435.466 499.526,-435.16"/>
<polygon fill="midnightblue" stroke="midnightblue" points="500.135,-431.71 489.607,-432.897 498.577,-438.534 500.135,-431.71"/>
</g>
<!-- Node37&#45;&gt;Node5 -->
<g id="edge67" class="edge"><title>Node37&#45;&gt;Node5</title>
<path fill="none" stroke="midnightblue" d="M1213.03,-528.444C1254.81,-519.043 1321.98,-503.929 1367.27,-493.739"/>
<polygon fill="midnightblue" stroke="midnightblue" points="1368.16,-497.126 1377.15,-491.516 1366.62,-490.297 1368.16,-497.126"/>
</g>
<!-- Node37&#45;&gt;Node8 -->
<g id="edge68" class="edge"><title>Node37&#45;&gt;Node8</title>
<path fill="none" stroke="midnightblue" d="M1229.58,-529.404C1286.56,-521.304 1378.77,-507.718 1468.13,-492.086"/>
<polygon fill="midnightblue" stroke="midnightblue" points="1468.92,-495.5 1478.17,-490.32 1467.71,-488.606 1468.92,-495.5"/>
</g>
<!-- Node37&#45;&gt;Node23 -->
<g id="edge69" class="edge"><title>Node37&#45;&gt;Node23</title>
<path fill="none" stroke="midnightblue" d="M1149.17,-528.444C1121.75,-519.359 1078.22,-504.939 1047.57,-494.783"/>
<polygon fill="midnightblue" stroke="midnightblue" points="1048.3,-491.339 1037.71,-491.516 1046.1,-497.984 1048.3,-491.339"/>
</g>
<!-- Node38 -->
<g id="node38" class="node"><title>Node38</title>
<polygon fill="none" stroke="#bfbfbf" points="1238,-472.5 1238,-491.5 1282,-491.5 1282,-472.5 1238,-472.5"/>
<text text-anchor="middle" x="1260" y="-479.5" font-family="Helvetica,sans-Serif" font-size="10.00">Vc/Vc</text>
</g>
<!-- Node37&#45;&gt;Node38 -->
<g id="edge61" class="edge"><title>Node37&#45;&gt;Node38</title>
<path fill="none" stroke="midnightblue" d="M1188.66,-528.324C1201.92,-519.9 1222.27,-506.971 1237.85,-497.074"/>
<polygon fill="midnightblue" stroke="midnightblue" points="1239.81,-499.971 1246.38,-491.655 1236.06,-494.063 1239.81,-499.971"/>
</g>
<!-- Node39 -->
<g id="node39" class="node"><title>Node39</title>
<polygon fill="none" stroke="#bfbfbf" points="1300.5,-472.5 1300.5,-491.5 1351.5,-491.5 1351.5,-472.5 1300.5,-472.5"/>
<text text-anchor="middle" x="1326" y="-479.5" font-family="Helvetica,sans-Serif" font-size="10.00">numeric</text>
</g>
<!-- Node37&#45;&gt;Node39 -->
<g id="edge65" class="edge"><title>Node37&#45;&gt;Node39</title>
<path fill="none" stroke="midnightblue" d="M1198.93,-528.444C1224.22,-519.399 1264.3,-505.064 1292.68,-494.916"/>
<polygon fill="midnightblue" stroke="midnightblue" points="1293.95,-498.179 1302.19,-491.516 1291.59,-491.588 1293.95,-498.179"/>
</g>
<!-- Node40 -->
<g id="node40" class="node"><title>Node40</title>
<polygon fill="none" stroke="#bfbfbf" points="1120,-472.5 1120,-491.5 1182,-491.5 1182,-472.5 1120,-472.5"/>
<text text-anchor="middle" x="1151" y="-479.5" font-family="Helvetica,sans-Serif" font-size="10.00">type_traits</text>
</g>
<!-- Node37&#45;&gt;Node40 -->
<g id="edge66" class="edge"><title>Node37&#45;&gt;Node40</title>
<path fill="none" stroke="midnightblue" d="M1171.04,-528.083C1167.79,-520.77 1163.08,-510.181 1159.05,-501.103"/>
<polygon fill="midnightblue" stroke="midnightblue" points="1162.15,-499.468 1154.89,-491.751 1155.75,-502.311 1162.15,-499.468"/>
</g>
</g>
</svg>
        <g id="navigator" transform="translate(0 0)" fill="#404254">
                <rect fill="#f2f5e9" fill-opacity="0.5" stroke="#606060" stroke-width=".5" x="0" y="0" width="60" height="60"/>
                <use id="zoomplus" xlink:href="#zoomPlus" x="17" y="9" onmousedown="handleZoom(evt,'in')"/>
                <use id="zoomminus" xlink:href="#zoomMin" x="42" y="9" onmousedown="handleZoom(evt,'out')"/>
                <use id="reset" xlink:href="#resetDef" x="30" y="36" onmousedown="handleReset()"/>
                <g id="arrowUp" xlink:href="#dirArrow" transform="translate(30 24)" onmousedown="handlePan(0,-1)">
                  <use xlink:href="#rim" fill="#404040">
                        <set attributeName="fill" to="#808080" begin="arrowUp.mouseover" end="arrowUp.mouseout"/>
                  </use>
                  <path fill="none" stroke="white" stroke-width="1.5" d="M0,-3.0v7 M-2.5,-0.5L0,-3.0L2.5,-0.5"/>
                </g>
                <g id="arrowRight" xlink:href="#dirArrow" transform="rotate(90) translate(36 -43)" onmousedown="handlePan(1,0)">
                  <use xlink:href="#rim" fill="#404040">
                        <set attributeName="fill" to="#808080" begin="arrowRight.mouseover" end="arrowRight.mouseout"/>
                  </use>
                  <path fill="none" stroke="white" stroke-width="1.5" d="M0,-3.0v7 M-2.5,-0.5L0,-3.0L2.5,-0.5"/>
                </g>
                <g id="arrowDown" xlink:href="#dirArrow" transform="rotate(180) translate(-30 -48)" onmousedown="handlePan(0,1)">
                  <use xlink:href="#rim" fill="#404040">
                        <set attributeName="fill" to="#808080" begin="arrowDown.mouseover" end="arrowDown.mouseout"/>
                  </use>
                  <path fill="none" stroke="white" stroke-width="1.5" d="M0,-3.0v7 M-2.5,-0.5L0,-3.0L2.5,-0.5"/>
                </g>
                <g id="arrowLeft" xlink:href="#dirArrow" transform="rotate(270) translate(-36 17)" onmousedown="handlePan(-1,0)">
                  <use xlink:href="#rim" fill="#404040">
                        <set attributeName="fill" to="#808080" begin="arrowLeft.mouseover" end="arrowLeft.mouseout"/>
                  </use>
                  <path fill="none" stroke="white" stroke-width="1.5" d="M0,-3.0v7 M-2.5,-0.5L0,-3.0L2.5,-0.5"/>
                </g>
        </g>
        <svg viewBox="0 0 15 15" width="100%" height="30px" preserveAspectRatio="xMaxYMin meet">
         <g id="arrow_out" transform="scale(0.3 0.3)">
          <a xlink:href="CalDet_8h__incl_org.svg" target="_base">
           <rect id="button" ry="5" rx="5" y="6" x="6" height="38" width="38"
                fill="#f2f5e9" fill-opacity="0.5" stroke="#606060" stroke-width="1.0"/>
           <path id="arrow"
             d="M 11.500037,31.436501 C 11.940474,20.09759 22.043105,11.32322 32.158766,21.979434 L 37.068811,17.246167 C 37.068811,17.246167 37.088388,32 37.088388,32 L 22.160133,31.978069 C 22.160133,31.978069 26.997745,27.140456 26.997745,27.140456 C 18.528582,18.264221 13.291696,25.230495 11.500037,31.436501 z"
             style="fill:#404040;"/>
          </a>
         </g>
        </svg>
</svg>
