<?xml version="1.0" encoding="UTF-8" standalone="no"?>
<!DOCTYPE svg PUBLIC "-//W3C//DTD SVG 1.1//EN"
 "http://www.w3.org/Graphics/SVG/1.1/DTD/svg11.dtd">
<!-- Generated by graphviz version 2.36.0 (20140111.2315)
 -->
<!-- Title: /home/travis/build/AliceO2Group/AliceO2/Common/Field/test/testMagneticField.cxx Pages: 1 -->
<svg width="1916pt" height="366pt"
 viewBox="0.00 0.00 1916.00 366.00" xmlns="http://www.w3.org/2000/svg" xmlns:xlink="http://www.w3.org/1999/xlink">
<g id="graph0" class="graph" transform="scale(1 1) rotate(0) translate(4 362)">
<title>/home/travis/build/AliceO2Group/AliceO2/Common/Field/test/testMagneticField.cxx</title>
<!-- Node1 -->
<g id="node1" class="node"><title>Node1</title>
<polygon fill="#bfbfbf" stroke="black" points="752,-305 752,-357 914,-357 914,-305 752,-305"/>
<text text-anchor="start" x="760" y="-345" font-family="Helvetica,sans-Serif" font-size="10.00">/home/travis/build</text>
<text text-anchor="start" x="760" y="-334" font-family="Helvetica,sans-Serif" font-size="10.00">/AliceO2Group/AliceO2</text>
<text text-anchor="start" x="760" y="-323" font-family="Helvetica,sans-Serif" font-size="10.00">/Common/Field/test/testMagnetic</text>
<text text-anchor="middle" x="833" y="-312" font-family="Helvetica,sans-Serif" font-size="10.00">Field.cxx</text>
</g>
<!-- Node2 -->
<g id="node2" class="node"><title>Node2</title>
<polygon fill="none" stroke="#bfbfbf" points="466.5,-248.5 466.5,-267.5 585.5,-267.5 585.5,-248.5 466.5,-248.5"/>
<text text-anchor="middle" x="526" y="-255.5" font-family="Helvetica,sans-Serif" font-size="10.00">boost/test/unit_test.hpp</text>
</g>
<!-- Node1&#45;&gt;Node2 -->
<g id="edge1" class="edge"><title>Node1&#45;&gt;Node2</title>
<path fill="none" stroke="midnightblue" d="M751.938,-311.253C694.839,-298.048 620.39,-280.83 572.876,-269.841"/>
<polygon fill="midnightblue" stroke="midnightblue" points="573.401,-266.37 562.87,-267.527 571.824,-273.19 573.401,-266.37"/>
</g>
<!-- Node3 -->
<g id="node3" class="node"><title>Node3</title>
<polygon fill="none" stroke="#bfbfbf" points="604,-248.5 604,-267.5 658,-267.5 658,-248.5 604,-248.5"/>
<text text-anchor="middle" x="631" y="-255.5" font-family="Helvetica,sans-Serif" font-size="10.00">iostream</text>
</g>
<!-- Node1&#45;&gt;Node3 -->
<g id="edge2" class="edge"><title>Node1&#45;&gt;Node3</title>
<path fill="none" stroke="midnightblue" d="M761.782,-304.968C728.947,-293.427 691.501,-280.265 665.116,-270.991"/>
<polygon fill="midnightblue" stroke="midnightblue" points="666.173,-267.653 655.578,-267.639 663.852,-274.257 666.173,-267.653"/>
</g>
<!-- Node4 -->
<g id="node4" class="node"><title>Node4</title>
<g id="a_node4"><a xlink:href="../../db/d4b/MagneticField_8h.html" target="_top" xlink:title="Definition of the MagF class. ">
<polygon fill="none" stroke="black" points="676,-248.5 676,-267.5 786,-267.5 786,-248.5 676,-248.5"/>
<text text-anchor="middle" x="731" y="-255.5" font-family="Helvetica,sans-Serif" font-size="10.00">Field/MagneticField.h</text>
</a>
</g>
</g>
<!-- Node1&#45;&gt;Node4 -->
<g id="edge3" class="edge"><title>Node1&#45;&gt;Node4</title>
<path fill="none" stroke="midnightblue" d="M797.039,-304.968C781.94,-294.458 764.909,-282.603 751.925,-273.565"/>
<polygon fill="midnightblue" stroke="midnightblue" points="753.863,-270.65 743.656,-267.81 749.864,-276.395 753.863,-270.65"/>
</g>
<!-- Node17 -->
<g id="node17" class="node"><title>Node17</title>
<g id="a_node17"><a xlink:href="../../da/df4/MagFieldFast_8h.html" target="_top" xlink:title="Definition of the fast magnetic field parametrization MagFieldFast. ">
<polygon fill="none" stroke="black" points="862,-192.5 862,-211.5 970,-211.5 970,-192.5 862,-192.5"/>
<text text-anchor="middle" x="916" y="-199.5" font-family="Helvetica,sans-Serif" font-size="10.00">Field/MagFieldFast.h</text>
</a>
</g>
</g>
<!-- Node1&#45;&gt;Node17 -->
<g id="edge43" class="edge"><title>Node1&#45;&gt;Node17</title>
<path fill="none" stroke="midnightblue" d="M828.641,-304.836C826.989,-287.584 827.567,-264.857 838,-248 847.198,-233.138 863.238,-222.675 878.39,-215.603"/>
<polygon fill="midnightblue" stroke="midnightblue" points="879.834,-218.792 887.64,-211.628 877.071,-212.36 879.834,-218.792"/>
</g>
<!-- Node31 -->
<g id="node31" class="node"><title>Node31</title>
<polygon fill="none" stroke="#bfbfbf" points="988,-192.5 988,-211.5 1040,-211.5 1040,-192.5 988,-192.5"/>
<text text-anchor="middle" x="1014" y="-199.5" font-family="Helvetica,sans-Serif" font-size="10.00">memory</text>
</g>
<!-- Node1&#45;&gt;Node31 -->
<g id="edge44" class="edge"><title>Node1&#45;&gt;Node31</title>
<path fill="none" stroke="midnightblue" d="M839.154,-304.832C844.828,-286.662 855.006,-262.811 872,-248 880.183,-240.868 938.704,-223.737 978.02,-212.789"/>
<polygon fill="midnightblue" stroke="midnightblue" points="979.101,-216.122 987.805,-210.081 977.234,-209.375 979.101,-216.122"/>
</g>
<!-- Node32 -->
<g id="node32" class="node"><title>Node32</title>
<polygon fill="none" stroke="#bfbfbf" points="880.5,-248.5 880.5,-267.5 951.5,-267.5 951.5,-248.5 880.5,-248.5"/>
<text text-anchor="middle" x="916" y="-255.5" font-family="Helvetica,sans-Serif" font-size="10.00">FairLogger.h</text>
</g>
<!-- Node1&#45;&gt;Node32 -->
<g id="edge45" class="edge"><title>Node1&#45;&gt;Node32</title>
<path fill="none" stroke="midnightblue" d="M862.496,-304.768C874.409,-294.578 887.765,-283.153 898.153,-274.267"/>
<polygon fill="midnightblue" stroke="midnightblue" points="900.439,-276.917 905.763,-267.757 895.889,-271.598 900.439,-276.917"/>
</g>
<!-- Node33 -->
<g id="node33" class="node"><title>Node33</title>
<polygon fill="none" stroke="#bfbfbf" points="969.5,-248.5 969.5,-267.5 1046.5,-267.5 1046.5,-248.5 969.5,-248.5"/>
<text text-anchor="middle" x="1008" y="-255.5" font-family="Helvetica,sans-Serif" font-size="10.00">TStopwatch.h</text>
</g>
<!-- Node1&#45;&gt;Node33 -->
<g id="edge46" class="edge"><title>Node1&#45;&gt;Node33</title>
<path fill="none" stroke="midnightblue" d="M894.698,-304.968C922.643,-293.63 954.444,-280.728 977.227,-271.485"/>
<polygon fill="midnightblue" stroke="midnightblue" points="978.756,-274.642 986.707,-267.639 976.125,-268.155 978.756,-274.642"/>
</g>
<!-- Node34 -->
<g id="node34" class="node"><title>Node34</title>
<polygon fill="none" stroke="#bfbfbf" points="1065,-248.5 1065,-267.5 1133,-267.5 1133,-248.5 1065,-248.5"/>
<text text-anchor="middle" x="1099" y="-255.5" font-family="Helvetica,sans-Serif" font-size="10.00">TRandom.h</text>
</g>
<!-- Node1&#45;&gt;Node34 -->
<g id="edge47" class="edge"><title>Node1&#45;&gt;Node34</title>
<path fill="none" stroke="midnightblue" d="M914.254,-308.312C961.519,-295.696 1019.11,-280.323 1057.3,-270.131"/>
<polygon fill="midnightblue" stroke="midnightblue" points="1058.29,-273.488 1067.05,-267.528 1056.49,-266.725 1058.29,-273.488"/>
</g>
<!-- Node5 -->
<g id="node5" class="node"><title>Node5</title>
<polygon fill="none" stroke="#bfbfbf" points="646,-192.5 646,-211.5 708,-211.5 708,-192.5 646,-192.5"/>
<text text-anchor="middle" x="677" y="-199.5" font-family="Helvetica,sans-Serif" font-size="10.00">FairField.h</text>
</g>
<!-- Node4&#45;&gt;Node5 -->
<g id="edge4" class="edge"><title>Node4&#45;&gt;Node5</title>
<path fill="none" stroke="midnightblue" d="M722.083,-248.083C714.22,-240.22 702.569,-228.569 693.081,-219.081"/>
<polygon fill="midnightblue" stroke="midnightblue" points="695.297,-216.347 685.751,-211.751 690.347,-221.297 695.297,-216.347"/>
</g>
<!-- Node6 -->
<g id="node6" class="node"><title>Node6</title>
<g id="a_node6"><a xlink:href="../../d3/d91/MagFieldParam_8h.html" target="_top" xlink:title="Definition of the MagFieldParam: container for ALICE mag. field parameters. ">
<polygon fill="none" stroke="black" points="726.5,-192.5 726.5,-211.5 843.5,-211.5 843.5,-192.5 726.5,-192.5"/>
<text text-anchor="middle" x="785" y="-199.5" font-family="Helvetica,sans-Serif" font-size="10.00">Field/MagFieldParam.h</text>
</a>
</g>
</g>
<!-- Node4&#45;&gt;Node6 -->
<g id="edge5" class="edge"><title>Node4&#45;&gt;Node6</title>
<path fill="none" stroke="midnightblue" d="M739.917,-248.083C747.78,-240.22 759.431,-228.569 768.919,-219.081"/>
<polygon fill="midnightblue" stroke="midnightblue" points="771.653,-221.297 776.249,-211.751 766.703,-216.347 771.653,-221.297"/>
</g>
<!-- Node9 -->
<g id="node9" class="node"><title>Node9</title>
<g id="a_node9"><a xlink:href="../../dd/dfb/MagneticWrapperChebyshev_8h.html" target="_top" xlink:title="Field/MagneticWrapperChebyshev.h">
<polygon fill="none" stroke="black" points="271.5,-192.5 271.5,-211.5 446.5,-211.5 446.5,-192.5 271.5,-192.5"/>
<text text-anchor="middle" x="359" y="-199.5" font-family="Helvetica,sans-Serif" font-size="10.00">Field/MagneticWrapperChebyshev.h</text>
</a>
</g>
</g>
<!-- Node4&#45;&gt;Node9 -->
<g id="edge8" class="edge"><title>Node4&#45;&gt;Node9</title>
<path fill="none" stroke="midnightblue" d="M675.71,-248.974C609.734,-239.397 499.393,-223.38 427.92,-213.005"/>
<polygon fill="midnightblue" stroke="midnightblue" points="428.066,-209.489 417.667,-211.516 427.061,-216.417 428.066,-209.489"/>
</g>
<!-- Node11 -->
<g id="node11" class="node"><title>Node11</title>
<polygon fill="none" stroke="#bfbfbf" points="0,-6.5 0,-25.5 62,-25.5 62,-6.5 0,-6.5"/>
<text text-anchor="middle" x="31" y="-13.5" font-family="Helvetica,sans-Serif" font-size="10.00">TNamed.h</text>
</g>
<!-- Node4&#45;&gt;Node11 -->
<g id="edge41" class="edge"><title>Node4&#45;&gt;Node11</title>
<path fill="none" stroke="midnightblue" d="M675.865,-249.065C672.868,-248.69 669.898,-248.332 667,-248 404.21,-217.863 303.818,-295.369 79,-156 49.8742,-137.944 38.6771,-131.837 26,-100 17.6766,-79.0966 21.3415,-52.8807 25.4824,-35.5694"/>
<polygon fill="midnightblue" stroke="midnightblue" points="28.9396,-36.19 28.1511,-25.6245 22.1788,-34.3757 28.9396,-36.19"/>
</g>
<!-- Node16 -->
<g id="node16" class="node"><title>Node16</title>
<polygon fill="none" stroke="#bfbfbf" points="487,-6.5 487,-25.5 543,-25.5 543,-6.5 487,-6.5"/>
<text text-anchor="middle" x="515" y="-13.5" font-family="Helvetica,sans-Serif" font-size="10.00">Rtypes.h</text>
</g>
<!-- Node4&#45;&gt;Node16 -->
<g id="edge40" class="edge"><title>Node4&#45;&gt;Node16</title>
<path fill="none" stroke="midnightblue" d="M686.946,-248.419C637.307,-238.357 562.284,-221.811 553,-212 506.594,-162.961 508.938,-74.9029 512.612,-36.1703"/>
<polygon fill="midnightblue" stroke="midnightblue" points="516.135,-36.1524 513.743,-25.8312 509.177,-35.3915 516.135,-36.1524"/>
</g>
<!-- Node4&#45;&gt;Node17 -->
<g id="edge24" class="edge"><title>Node4&#45;&gt;Node17</title>
<path fill="none" stroke="midnightblue" d="M760.314,-248.444C791.842,-239.241 842.131,-224.562 876.986,-214.388"/>
<polygon fill="midnightblue" stroke="midnightblue" points="878.205,-217.678 886.823,-211.516 876.243,-210.959 878.205,-217.678"/>
</g>
<!-- Node30 -->
<g id="node30" class="node"><title>Node30</title>
<polygon fill="none" stroke="#bfbfbf" points="562.5,-192.5 562.5,-211.5 627.5,-211.5 627.5,-192.5 562.5,-192.5"/>
<text text-anchor="middle" x="595" y="-199.5" font-family="Helvetica,sans-Serif" font-size="10.00">TSystem.h</text>
</g>
<!-- Node4&#45;&gt;Node30 -->
<g id="edge39" class="edge"><title>Node4&#45;&gt;Node30</title>
<path fill="none" stroke="midnightblue" d="M709.45,-248.444C686.969,-239.517 651.512,-225.439 626.02,-215.317"/>
<polygon fill="midnightblue" stroke="midnightblue" points="627.035,-211.954 616.449,-211.516 624.451,-218.46 627.035,-211.954"/>
</g>
<!-- Node4&#45;&gt;Node31 -->
<g id="edge42" class="edge"><title>Node4&#45;&gt;Node31</title>
<path fill="none" stroke="midnightblue" d="M784.436,-248.45C832.549,-240.493 905.408,-227.807 977.509,-212.207"/>
<polygon fill="midnightblue" stroke="midnightblue" points="978.653,-215.54 987.675,-209.986 977.159,-208.701 978.653,-215.54"/>
</g>
<!-- Node7 -->
<g id="node7" class="node"><title>Node7</title>
<polygon fill="none" stroke="#bfbfbf" points="732.5,-136.5 732.5,-155.5 837.5,-155.5 837.5,-136.5 732.5,-136.5"/>
<text text-anchor="middle" x="785" y="-143.5" font-family="Helvetica,sans-Serif" font-size="10.00">FairParGenericSet.h</text>
</g>
<!-- Node6&#45;&gt;Node7 -->
<g id="edge6" class="edge"><title>Node6&#45;&gt;Node7</title>
<path fill="none" stroke="midnightblue" d="M785,-192.083C785,-185.006 785,-174.861 785,-165.986"/>
<polygon fill="midnightblue" stroke="midnightblue" points="788.5,-165.751 785,-155.751 781.5,-165.751 788.5,-165.751"/>
</g>
<!-- Node8 -->
<g id="node8" class="node"><title>Node8</title>
<polygon fill="none" stroke="#bfbfbf" points="412,-74.5 412,-93.5 468,-93.5 468,-74.5 412,-74.5"/>
<text text-anchor="middle" x="440" y="-81.5" font-family="Helvetica,sans-Serif" font-size="10.00">TString.h</text>
</g>
<!-- Node6&#45;&gt;Node8 -->
<g id="edge7" class="edge"><title>Node6&#45;&gt;Node8</title>
<path fill="none" stroke="midnightblue" d="M759.631,-192.47C698.821,-172.024 544.638,-120.183 475.04,-96.7814"/>
<polygon fill="midnightblue" stroke="midnightblue" points="476,-93.4118 465.406,-93.5423 473.769,-100.047 476,-93.4118"/>
</g>
<!-- Node10 -->
<g id="node10" class="node"><title>Node10</title>
<polygon fill="none" stroke="#bfbfbf" points="387.5,-136.5 387.5,-155.5 440.5,-155.5 440.5,-136.5 387.5,-136.5"/>
<text text-anchor="middle" x="414" y="-143.5" font-family="Helvetica,sans-Serif" font-size="10.00">TMath.h</text>
</g>
<!-- Node9&#45;&gt;Node10 -->
<g id="edge9" class="edge"><title>Node9&#45;&gt;Node10</title>
<path fill="none" stroke="midnightblue" d="M368.082,-192.083C376.171,-184.141 388.195,-172.335 397.91,-162.797"/>
<polygon fill="midnightblue" stroke="midnightblue" points="400.403,-165.254 405.087,-155.751 395.499,-160.26 400.403,-165.254"/>
</g>
<!-- Node9&#45;&gt;Node11 -->
<g id="edge10" class="edge"><title>Node9&#45;&gt;Node11</title>
<path fill="none" stroke="midnightblue" d="M271.422,-199.336C197.316,-192.754 94.9617,-170.385 42,-100 28.1039,-81.5324 27.226,-53.9872 28.5558,-35.7644"/>
<polygon fill="midnightblue" stroke="midnightblue" points="32.0406,-36.0907 29.5725,-25.7874 25.0767,-35.3811 32.0406,-36.0907"/>
</g>
<!-- Node12 -->
<g id="node12" class="node"><title>Node12</title>
<polygon fill="none" stroke="#bfbfbf" points="324.5,-74.5 324.5,-93.5 393.5,-93.5 393.5,-74.5 324.5,-74.5"/>
<text text-anchor="middle" x="359" y="-81.5" font-family="Helvetica,sans-Serif" font-size="10.00">TObjArray.h</text>
</g>
<!-- Node9&#45;&gt;Node12 -->
<g id="edge11" class="edge"><title>Node9&#45;&gt;Node12</title>
<path fill="none" stroke="midnightblue" d="M359,-192.281C359,-173.547 359,-129.098 359,-103.682"/>
<polygon fill="midnightblue" stroke="midnightblue" points="362.5,-103.505 359,-93.5048 355.5,-103.505 362.5,-103.505"/>
</g>
<!-- Node13 -->
<g id="node13" class="node"><title>Node13</title>
<g id="a_node13"><a xlink:href="../../d8/d64/Chebyshev3D_8h.html" target="_top" xlink:title="MathUtils/Chebyshev3D.h">
<polygon fill="none" stroke="black" points="199,-136.5 199,-155.5 331,-155.5 331,-136.5 199,-136.5"/>
<text text-anchor="middle" x="265" y="-143.5" font-family="Helvetica,sans-Serif" font-size="10.00">MathUtils/Chebyshev3D.h</text>
</a>
</g>
</g>
<!-- Node9&#45;&gt;Node13 -->
<g id="edge12" class="edge"><title>Node9&#45;&gt;Node13</title>
<path fill="none" stroke="midnightblue" d="M343.897,-192.324C329.097,-183.822 306.306,-170.729 289.018,-160.797"/>
<polygon fill="midnightblue" stroke="midnightblue" points="290.48,-157.601 280.065,-155.655 286.993,-163.671 290.48,-157.601"/>
</g>
<!-- Node15 -->
<g id="node15" class="node"><title>Node15</title>
<g id="a_node15"><a xlink:href="../../d4/d08/Chebyshev3DCalc_8h.html" target="_top" xlink:title="MathUtils/Chebyshev3DCalc.h">
<polygon fill="none" stroke="black" points="78,-74.5 78,-93.5 230,-93.5 230,-74.5 78,-74.5"/>
<text text-anchor="middle" x="154" y="-81.5" font-family="Helvetica,sans-Serif" font-size="10.00">MathUtils/Chebyshev3DCalc.h</text>
</a>
</g>
</g>
<!-- Node9&#45;&gt;Node15 -->
<g id="edge22" class="edge"><title>Node9&#45;&gt;Node15</title>
<path fill="none" stroke="midnightblue" d="M273.063,-192.431C244.231,-186.049 213.474,-175.017 190,-156 173.597,-142.711 163.951,-120.003 158.84,-103.847"/>
<polygon fill="midnightblue" stroke="midnightblue" points="162.111,-102.558 155.997,-93.9053 155.381,-104.482 162.111,-102.558"/>
</g>
<!-- Node9&#45;&gt;Node16 -->
<g id="edge23" class="edge"><title>Node9&#45;&gt;Node16</title>
<path fill="none" stroke="midnightblue" d="M387.115,-192.383C406.524,-185.243 431.831,-173.418 449,-156 483.436,-121.065 502.428,-64.7315 510.414,-35.6712"/>
<polygon fill="midnightblue" stroke="midnightblue" points="513.89,-36.2133 513.023,-25.654 507.116,-34.449 513.89,-36.2133"/>
</g>
<!-- Node13&#45;&gt;Node8 -->
<g id="edge21" class="edge"><title>Node13&#45;&gt;Node8</title>
<path fill="none" stroke="midnightblue" d="M292.715,-136.421C320.505,-127.697 364.445,-113.567 402,-100 404.393,-99.1355 406.862,-98.2187 409.338,-97.2813"/>
<polygon fill="midnightblue" stroke="midnightblue" points="410.715,-100.501 418.78,-93.6303 408.19,-93.9724 410.715,-100.501"/>
</g>
<!-- Node13&#45;&gt;Node11 -->
<g id="edge13" class="edge"><title>Node13&#45;&gt;Node11</title>
<path fill="none" stroke="midnightblue" d="M198.599,-144.212C157.274,-140.491 105.273,-129.547 69,-100 48.9705,-83.6844 39.0414,-54.4944 34.4709,-35.4407"/>
<polygon fill="midnightblue" stroke="midnightblue" points="37.8738,-34.6163 32.3632,-25.5674 31.0281,-36.0777 37.8738,-34.6163"/>
</g>
<!-- Node13&#45;&gt;Node12 -->
<g id="edge14" class="edge"><title>Node13&#45;&gt;Node12</title>
<path fill="none" stroke="midnightblue" d="M278.468,-136.403C293.685,-126.691 318.687,-110.732 336.801,-99.1697"/>
<polygon fill="midnightblue" stroke="midnightblue" points="339.011,-101.911 345.557,-93.5806 335.245,-96.0108 339.011,-101.911"/>
</g>
<!-- Node14 -->
<g id="node14" class="node"><title>Node14</title>
<polygon fill="none" stroke="#bfbfbf" points="184.5,-6.5 184.5,-25.5 227.5,-25.5 227.5,-6.5 184.5,-6.5"/>
<text text-anchor="middle" x="206" y="-13.5" font-family="Helvetica,sans-Serif" font-size="10.00">cstdio</text>
</g>
<!-- Node13&#45;&gt;Node14 -->
<g id="edge15" class="edge"><title>Node13&#45;&gt;Node14</title>
<path fill="none" stroke="midnightblue" d="M262.792,-136.178C258.968,-121.571 250.415,-91.6315 239,-68 233.23,-56.0539 225.162,-43.5335 218.448,-33.8877"/>
<polygon fill="midnightblue" stroke="midnightblue" points="221.209,-31.7312 212.545,-25.6331 215.515,-35.8031 221.209,-31.7312"/>
</g>
<!-- Node13&#45;&gt;Node15 -->
<g id="edge16" class="edge"><title>Node13&#45;&gt;Node15</title>
<path fill="none" stroke="midnightblue" d="M249.096,-136.403C230.715,-126.468 200.244,-109.997 178.755,-98.3812"/>
<polygon fill="midnightblue" stroke="midnightblue" points="180.335,-95.2568 169.874,-93.5806 177.007,-101.415 180.335,-95.2568"/>
</g>
<!-- Node13&#45;&gt;Node16 -->
<g id="edge20" class="edge"><title>Node13&#45;&gt;Node16</title>
<path fill="none" stroke="midnightblue" d="M268.15,-136.313C274.442,-120.232 290.133,-85.8382 315,-68 363.552,-33.171 433.71,-22.0767 476.727,-18.5743"/>
<polygon fill="midnightblue" stroke="midnightblue" points="477.063,-22.0594 486.787,-17.8538 476.563,-15.0772 477.063,-22.0594"/>
</g>
<!-- Node15&#45;&gt;Node11 -->
<g id="edge17" class="edge"><title>Node15&#45;&gt;Node11</title>
<path fill="none" stroke="midnightblue" d="M137.92,-74.3717C117.109,-63.2051 80.6223,-43.6266 56.1361,-30.4876"/>
<polygon fill="midnightblue" stroke="midnightblue" points="57.5505,-27.2746 47.084,-25.6305 54.2408,-33.4428 57.5505,-27.2746"/>
</g>
<!-- Node15&#45;&gt;Node14 -->
<g id="edge18" class="edge"><title>Node15&#45;&gt;Node14</title>
<path fill="none" stroke="midnightblue" d="M160.798,-74.3717C168.851,-64.1512 182.455,-46.884 192.64,-33.9571"/>
<polygon fill="midnightblue" stroke="midnightblue" points="195.595,-35.8621 199.034,-25.8411 190.096,-31.53 195.595,-35.8621"/>
</g>
<!-- Node15&#45;&gt;Node16 -->
<g id="edge19" class="edge"><title>Node15&#45;&gt;Node16</title>
<path fill="none" stroke="midnightblue" d="M200.824,-74.4393C273.079,-61.2293 410.351,-36.1326 476.913,-23.9633"/>
<polygon fill="midnightblue" stroke="midnightblue" points="477.761,-27.3664 486.968,-22.125 476.502,-20.4805 477.761,-27.3664"/>
</g>
<!-- Node17&#45;&gt;Node16 -->
<g id="edge25" class="edge"><title>Node17&#45;&gt;Node16</title>
<path fill="none" stroke="midnightblue" d="M970.282,-193.138C973.23,-192.745 976.15,-192.363 979,-192 1120.76,-173.954 1708.67,-171.372 1610,-68 1572.76,-28.9869 742.683,-19.0751 553.25,-17.3179"/>
<polygon fill="midnightblue" stroke="midnightblue" points="553.234,-13.8177 543.203,-17.2269 553.171,-20.8174 553.234,-13.8177"/>
</g>
<!-- Node18 -->
<g id="node18" class="node"><title>Node18</title>
<polygon fill="none" stroke="#bfbfbf" points="1251.5,-136.5 1251.5,-155.5 1292.5,-155.5 1292.5,-136.5 1251.5,-136.5"/>
<text text-anchor="middle" x="1272" y="-143.5" font-family="Helvetica,sans-Serif" font-size="10.00">string</text>
</g>
<!-- Node17&#45;&gt;Node18 -->
<g id="edge26" class="edge"><title>Node17&#45;&gt;Node18</title>
<path fill="none" stroke="midnightblue" d="M970.293,-193.223C973.238,-192.808 976.155,-192.398 979,-192 1092.65,-176.104 1124.95,-180.749 1241.43,-155.798"/>
<polygon fill="midnightblue" stroke="midnightblue" points="1242.42,-159.164 1251.45,-153.623 1240.94,-152.323 1242.42,-159.164"/>
</g>
<!-- Node19 -->
<g id="node19" class="node"><title>Node19</title>
<g id="a_node19"><a xlink:href="../../dd/d76/Cartesian3D_8h.html" target="_top" xlink:title="MathUtils/Cartesian3D.h">
<polygon fill="none" stroke="black" points="1108.5,-136.5 1108.5,-155.5 1233.5,-155.5 1233.5,-136.5 1108.5,-136.5"/>
<text text-anchor="middle" x="1171" y="-143.5" font-family="Helvetica,sans-Serif" font-size="10.00">MathUtils/Cartesian3D.h</text>
</a>
</g>
</g>
<!-- Node17&#45;&gt;Node19 -->
<g id="edge27" class="edge"><title>Node17&#45;&gt;Node19</title>
<path fill="none" stroke="midnightblue" d="M956.406,-192.444C1000.98,-183.004 1072.77,-167.802 1120.89,-157.611"/>
<polygon fill="midnightblue" stroke="midnightblue" points="1121.73,-161.012 1130.78,-155.516 1120.28,-154.164 1121.73,-161.012"/>
</g>
<!-- Node19&#45;&gt;Node16 -->
<g id="edge33" class="edge"><title>Node19&#45;&gt;Node16</title>
<path fill="none" stroke="midnightblue" d="M1233.82,-137.066C1236.92,-136.699 1240,-136.342 1243,-136 1281.84,-131.575 1566.81,-129.023 1593,-100 1602.53,-89.4414 1602.82,-78.2915 1593,-68 1556.39,-29.6178 740.848,-19.2319 553.24,-17.347"/>
<polygon fill="midnightblue" stroke="midnightblue" points="553.068,-13.8452 543.034,-17.2467 552.999,-20.8449 553.068,-13.8452"/>
</g>
<!-- Node20 -->
<g id="node20" class="node"><title>Node20</title>
<polygon fill="none" stroke="#bfbfbf" points="562.5,-69 562.5,-99 713.5,-99 713.5,-69 562.5,-69"/>
<text text-anchor="start" x="570.5" y="-87" font-family="Helvetica,sans-Serif" font-size="10.00">Math/GenVector/Displacement</text>
<text text-anchor="middle" x="638" y="-76" font-family="Helvetica,sans-Serif" font-size="10.00">Vector3D.h</text>
</g>
<!-- Node19&#45;&gt;Node20 -->
<g id="edge28" class="edge"><title>Node19&#45;&gt;Node20</title>
<path fill="none" stroke="midnightblue" d="M1108.5,-140.203C1023.79,-133.371 867.594,-119.614 724.253,-100.108"/>
<polygon fill="midnightblue" stroke="midnightblue" points="724.339,-96.5866 713.956,-98.6931 723.386,-103.521 724.339,-96.5866"/>
</g>
<!-- Node21 -->
<g id="node21" class="node"><title>Node21</title>
<polygon fill="none" stroke="#bfbfbf" points="732,-74.5 732,-93.5 908,-93.5 908,-74.5 732,-74.5"/>
<text text-anchor="middle" x="820" y="-81.5" font-family="Helvetica,sans-Serif" font-size="10.00">Math/GenVector/PositionVector3D.h</text>
</g>
<!-- Node19&#45;&gt;Node21 -->
<g id="edge29" class="edge"><title>Node19&#45;&gt;Node21</title>
<path fill="none" stroke="midnightblue" d="M1121.08,-136.467C1057.53,-125.604 947.851,-106.855 879.872,-95.2346"/>
<polygon fill="midnightblue" stroke="midnightblue" points="880.192,-91.7385 869.745,-93.5034 879.012,-98.6384 880.192,-91.7385"/>
</g>
<!-- Node22 -->
<g id="node22" class="node"><title>Node22</title>
<polygon fill="none" stroke="#bfbfbf" points="925.5,-74.5 925.5,-93.5 1074.5,-93.5 1074.5,-74.5 925.5,-74.5"/>
<text text-anchor="middle" x="1000" y="-81.5" font-family="Helvetica,sans-Serif" font-size="10.00">Math/GenVector/Rotation3D.h</text>
</g>
<!-- Node19&#45;&gt;Node22 -->
<g id="edge30" class="edge"><title>Node19&#45;&gt;Node22</title>
<path fill="none" stroke="midnightblue" d="M1146.5,-136.403C1117.04,-126.067 1067.42,-108.656 1034.2,-96.9994"/>
<polygon fill="midnightblue" stroke="midnightblue" points="1035.05,-93.5889 1024.45,-93.5806 1032.73,-100.194 1035.05,-93.5889"/>
</g>
<!-- Node23 -->
<g id="node23" class="node"><title>Node23</title>
<polygon fill="none" stroke="#bfbfbf" points="1093,-74.5 1093,-93.5 1249,-93.5 1249,-74.5 1093,-74.5"/>
<text text-anchor="middle" x="1171" y="-81.5" font-family="Helvetica,sans-Serif" font-size="10.00">Math/GenVector/Transform3D.h</text>
</g>
<!-- Node19&#45;&gt;Node23 -->
<g id="edge31" class="edge"><title>Node19&#45;&gt;Node23</title>
<path fill="none" stroke="midnightblue" d="M1171,-136.403C1171,-127.938 1171,-114.728 1171,-103.82"/>
<polygon fill="midnightblue" stroke="midnightblue" points="1174.5,-103.581 1171,-93.5806 1167.5,-103.581 1174.5,-103.581"/>
</g>
<!-- Node24 -->
<g id="node24" class="node"><title>Node24</title>
<polygon fill="none" stroke="#bfbfbf" points="1267,-74.5 1267,-93.5 1427,-93.5 1427,-74.5 1267,-74.5"/>
<text text-anchor="middle" x="1347" y="-81.5" font-family="Helvetica,sans-Serif" font-size="10.00">Math/GenVector/Translation3D.h</text>
</g>
<!-- Node19&#45;&gt;Node24 -->
<g id="edge32" class="edge"><title>Node19&#45;&gt;Node24</title>
<path fill="none" stroke="midnightblue" d="M1196.22,-136.403C1226.67,-126.022 1278.05,-108.506 1312.24,-96.849"/>
<polygon fill="midnightblue" stroke="midnightblue" points="1313.49,-100.12 1321.83,-93.5806 1311.24,-93.4946 1313.49,-100.12"/>
</g>
<!-- Node25 -->
<g id="node25" class="node"><title>Node25</title>
<polygon fill="none" stroke="#bfbfbf" points="1445,-74.5 1445,-93.5 1521,-93.5 1521,-74.5 1445,-74.5"/>
<text text-anchor="middle" x="1483" y="-81.5" font-family="Helvetica,sans-Serif" font-size="10.00">TGeoMatrix.h</text>
</g>
<!-- Node19&#45;&gt;Node25 -->
<g id="edge34" class="edge"><title>Node19&#45;&gt;Node25</title>
<path fill="none" stroke="midnightblue" d="M1233.62,-136.903C1287.64,-129.316 1367.53,-116.652 1436,-100 1440.12,-98.9981 1444.4,-97.8228 1448.63,-96.5787"/>
<polygon fill="midnightblue" stroke="midnightblue" points="1449.78,-99.8884 1458.31,-93.5999 1447.72,-93.1985 1449.78,-99.8884"/>
</g>
<!-- Node26 -->
<g id="node26" class="node"><title>Node26</title>
<polygon fill="none" stroke="#bfbfbf" points="1539.5,-74.5 1539.5,-93.5 1584.5,-93.5 1584.5,-74.5 1539.5,-74.5"/>
<text text-anchor="middle" x="1562" y="-81.5" font-family="Helvetica,sans-Serif" font-size="10.00">iosfwd</text>
</g>
<!-- Node19&#45;&gt;Node26 -->
<g id="edge35" class="edge"><title>Node19&#45;&gt;Node26</title>
<path fill="none" stroke="midnightblue" d="M1233.85,-137.137C1336.67,-124.273 1529.56,-100.128 1530,-100 1532.29,-99.3384 1534.62,-98.5327 1536.92,-97.6416"/>
<polygon fill="midnightblue" stroke="midnightblue" points="1538.33,-100.847 1546.1,-93.6499 1535.54,-94.4275 1538.33,-100.847"/>
</g>
<!-- Node27 -->
<g id="node27" class="node"><title>Node27</title>
<g id="a_node27"><a xlink:href="../../d2/dd0/Cartesian2D_8h.html" target="_top" xlink:title="MathUtils/Cartesian2D.h">
<polygon fill="none" stroke="black" points="1679.5,-74.5 1679.5,-93.5 1804.5,-93.5 1804.5,-74.5 1679.5,-74.5"/>
<text text-anchor="middle" x="1742" y="-81.5" font-family="Helvetica,sans-Serif" font-size="10.00">MathUtils/Cartesian2D.h</text>
</a>
</g>
</g>
<!-- Node19&#45;&gt;Node27 -->
<g id="edge36" class="edge"><title>Node19&#45;&gt;Node27</title>
<path fill="none" stroke="midnightblue" d="M1233.82,-137.032C1236.92,-136.675 1239.99,-136.329 1243,-136 1413.4,-117.367 1456.65,-119.088 1627,-100 1640.85,-98.4484 1655.61,-96.6395 1669.79,-94.8259"/>
<polygon fill="midnightblue" stroke="midnightblue" points="1670.51,-98.2612 1679.98,-93.508 1669.61,-91.319 1670.51,-98.2612"/>
</g>
<!-- Node28 -->
<g id="node28" class="node"><title>Node28</title>
<polygon fill="none" stroke="#bfbfbf" points="1757.5,-1 1757.5,-31 1908.5,-31 1908.5,-1 1757.5,-1"/>
<text text-anchor="start" x="1765.5" y="-19" font-family="Helvetica,sans-Serif" font-size="10.00">Math/GenVector/Displacement</text>
<text text-anchor="middle" x="1833" y="-8" font-family="Helvetica,sans-Serif" font-size="10.00">Vector2D.h</text>
</g>
<!-- Node27&#45;&gt;Node28 -->
<g id="edge37" class="edge"><title>Node27&#45;&gt;Node28</title>
<path fill="none" stroke="midnightblue" d="M1753.9,-74.3717C1766.78,-65.0286 1787.78,-49.7966 1804.91,-37.375"/>
<polygon fill="midnightblue" stroke="midnightblue" points="1807.41,-39.8859 1813.45,-31.1815 1803.3,-34.2194 1807.41,-39.8859"/>
</g>
<!-- Node29 -->
<g id="node29" class="node"><title>Node29</title>
<polygon fill="none" stroke="#bfbfbf" points="1563,-6.5 1563,-25.5 1739,-25.5 1739,-6.5 1563,-6.5"/>
<text text-anchor="middle" x="1651" y="-13.5" font-family="Helvetica,sans-Serif" font-size="10.00">Math/GenVector/PositionVector2D.h</text>
</g>
<!-- Node27&#45;&gt;Node29 -->
<g id="edge38" class="edge"><title>Node27&#45;&gt;Node29</title>
<path fill="none" stroke="midnightblue" d="M1730.1,-74.3717C1715.12,-63.5015 1689.14,-44.6602 1671.06,-31.5474"/>
<polygon fill="midnightblue" stroke="midnightblue" points="1673.05,-28.6684 1662.9,-25.6305 1668.94,-34.3349 1673.05,-28.6684"/>
</g>
</g>
</svg>
