<?xml version="1.0" encoding="UTF-8" standalone="no"?>
<!DOCTYPE svg PUBLIC "-//W3C//DTD SVG 1.1//EN"
 "http://www.w3.org/Graphics/SVG/1.1/DTD/svg11.dtd">
<!-- Generated by graphviz version 2.36.0 (20140111.2315)
 -->
<!-- Title: o2::framework::DataProcessingHeader Pages: 1 -->
<!--zoomable 1084 -->
<svg id="main" version="1.1" xmlns="http://www.w3.org/2000/svg" xmlns:xlink="http://www.w3.org/1999/xlink" xml:space="preserve" onload="init(evt)">
<style type="text/css"><![CDATA[
.edge:hover path { stroke: red; }
.edge:hover polygon { stroke: red; fill: red; }
]]></style>
<script type="text/javascript"><![CDATA[
var edges = document.getElementsByTagName('g');
if (edges && edges.length) {
  for (var i=0;i<edges.length;i++) {
    if (edges[i].id.substr(0,4)=='edge') {
      edges[i].setAttribute('class','edge');
    }
  }
}
]]></script>
        <defs>
                <circle id="rim" cx="0" cy="0" r="7"/>
                <circle id="rim2" cx="0" cy="0" r="3.5"/>
                <g id="zoomPlus">
                        <use xlink:href="#rim" fill="#404040">
                                <set attributeName="fill" to="#808080" begin="zoomplus.mouseover" end="zoomplus.mouseout"/>
                        </use>
                        <path d="M-4,0h8M0,-4v8" fill="none" stroke="white" stroke-width="1.5" pointer-events="none"/>
                </g>
                <g id="zoomMin">
                        <use xlink:href="#rim" fill="#404040">
                                <set attributeName="fill" to="#808080" begin="zoomminus.mouseover" end="zoomminus.mouseout"/>
                        </use>
                        <path d="M-4,0h8" fill="none" stroke="white" stroke-width="1.5" pointer-events="none"/>
                </g>
                <g id="dirArrow">
                        <path fill="none" stroke="white" stroke-width="1.5" d="M0,-3.0v7 M-2.5,-0.5L0,-3.0L2.5,-0.5"/>
                </g>
               <g id="resetDef">
                       <use xlink:href="#rim2" fill="#404040">
                               <set attributeName="fill" to="#808080" begin="reset.mouseover" end="reset.mouseout"/>
                       </use>
               </g>
        </defs>

<script type="text/javascript">
var viewWidth = 988;
var viewHeight = 1084;
var sectionId = 'dynsection-1';
</script>
<script xlink:href="../../svgpan.js"/>
<svg id="graph" class="graph">
<g id="viewport">
<title>o2::framework::DataProcessingHeader</title>
<!-- Node1 -->
<g id="node1" class="node"><title>Node1</title>
<polygon fill="#bfbfbf" stroke="black" points="729.212,-0.5 729.212,-123.5 884.212,-123.5 884.212,-0.5 729.212,-0.5"/>
<text text-anchor="start" x="737.212" y="-111.5" font-family="Helvetica,sans-Serif" font-size="10.00">o2::framework::DataProcessing</text>
<text text-anchor="middle" x="806.712" y="-100.5" font-family="Helvetica,sans-Serif" font-size="10.00">Header</text>
<polyline fill="none" stroke="black" points="729.212,-93.5 884.212,-93.5 "/>
<text text-anchor="middle" x="806.712" y="-81.5" font-family="Helvetica,sans-Serif" font-size="10.00"> </text>
<polyline fill="none" stroke="black" points="729.212,-74.5 884.212,-74.5 "/>
<text text-anchor="start" x="737.212" y="-62.5" font-family="Helvetica,sans-Serif" font-size="10.00">+ DataProcessingHeader()</text>
<text text-anchor="start" x="737.212" y="-51.5" font-family="Helvetica,sans-Serif" font-size="10.00">+ DataProcessingHeader()</text>
<text text-anchor="start" x="737.212" y="-40.5" font-family="Helvetica,sans-Serif" font-size="10.00">+ DataProcessingHeader()</text>
<text text-anchor="start" x="737.212" y="-29.5" font-family="Helvetica,sans-Serif" font-size="10.00">+ DataProcessingHeader()</text>
<text text-anchor="start" x="737.212" y="-18.5" font-family="Helvetica,sans-Serif" font-size="10.00">+ getCreationTime()</text>
<text text-anchor="start" x="737.212" y="-7.5" font-family="Helvetica,sans-Serif" font-size="10.00">+ Get()</text>
</g>
<!-- Node2 -->
<g id="node2" class="node"><title>Node2</title>
<g id="a_node2"><a xlink:href="../../d8/dbd/structo2_1_1header_1_1BaseHeader.html" target="_top" xlink:title="the base header struct Every header type must begin (i.e. derive) with this. Don&#39;t use this struct di...">
<polygon fill="none" stroke="black" points="582.712,-194.5 582.712,-339.5 704.712,-339.5 704.712,-194.5 582.712,-194.5"/>
<text text-anchor="middle" x="643.712" y="-327.5" font-family="Helvetica,sans-Serif" font-size="10.00">o2::header::BaseHeader</text>
<polyline fill="none" stroke="black" points="582.712,-320.5 704.712,-320.5 "/>
<text text-anchor="middle" x="643.712" y="-308.5" font-family="Helvetica,sans-Serif" font-size="10.00"> </text>
<polyline fill="none" stroke="black" points="582.712,-301.5 704.712,-301.5 "/>
<text text-anchor="start" x="590.712" y="-289.5" font-family="Helvetica,sans-Serif" font-size="10.00">+ BaseHeader()</text>
<text text-anchor="start" x="590.712" y="-278.5" font-family="Helvetica,sans-Serif" font-size="10.00">+ BaseHeader()</text>
<text text-anchor="start" x="590.712" y="-267.5" font-family="Helvetica,sans-Serif" font-size="10.00">+ BaseHeader()</text>
<text text-anchor="start" x="590.712" y="-256.5" font-family="Helvetica,sans-Serif" font-size="10.00">+ size()</text>
<text text-anchor="start" x="590.712" y="-245.5" font-family="Helvetica,sans-Serif" font-size="10.00">+ data()</text>
<text text-anchor="start" x="590.712" y="-234.5" font-family="Helvetica,sans-Serif" font-size="10.00">+ next()</text>
<text text-anchor="start" x="590.712" y="-223.5" font-family="Helvetica,sans-Serif" font-size="10.00">+ next()</text>
<text text-anchor="start" x="590.712" y="-212.5" font-family="Helvetica,sans-Serif" font-size="10.00">+ get()</text>
<text text-anchor="start" x="590.712" y="-201.5" font-family="Helvetica,sans-Serif" font-size="10.00">+ get()</text>
</a>
</g>
</g>
<!-- Node2&#45;&gt;Node1 -->
<g id="edge1" class="edge"><title>Node2&#45;&gt;Node1</title>
<path fill="none" stroke="midnightblue" d="M707.567,-186.475C724.385,-165.53 742.255,-143.274 758.125,-123.51"/>
<polygon fill="none" stroke="midnightblue" points="704.712,-184.441 701.18,-194.43 710.17,-188.824 704.712,-184.441"/>
</g>
<!-- Node3 -->
<g id="node3" class="node"><title>Node3</title>
<g id="a_node3"><a xlink:href="../../d9/db3/structo2_1_1header_1_1Descriptor.html" target="_top" xlink:title="{o2::header::Descriptor\l\&lt; gSizeHeaderDescriptionString \&gt;\n||+ Descriptor()\l+ Descriptor()\l+ Descriptor()\l+ Descriptor()\l+ operator=()\l+ operator ItgType()\l+ runtimeInit()\l+ operator==()\l+ operator==()\l+ operator\&lt;()\l+ operator!=()\l+ operator!=()\l+ as()\l+ print()\l}">
<polygon fill="none" stroke="black" points="504.712,-464.5 504.712,-675.5 670.712,-675.5 670.712,-464.5 504.712,-464.5"/>
<text text-anchor="start" x="512.712" y="-663.5" font-family="Helvetica,sans-Serif" font-size="10.00">o2::header::Descriptor</text>
<text text-anchor="middle" x="587.712" y="-652.5" font-family="Helvetica,sans-Serif" font-size="10.00">&lt; gSizeHeaderDescriptionString &gt;</text>
<polyline fill="none" stroke="black" points="504.712,-645.5 670.712,-645.5 "/>
<text text-anchor="middle" x="587.712" y="-633.5" font-family="Helvetica,sans-Serif" font-size="10.00"> </text>
<polyline fill="none" stroke="black" points="504.712,-626.5 670.712,-626.5 "/>
<text text-anchor="start" x="512.712" y="-614.5" font-family="Helvetica,sans-Serif" font-size="10.00">+ Descriptor()</text>
<text text-anchor="start" x="512.712" y="-603.5" font-family="Helvetica,sans-Serif" font-size="10.00">+ Descriptor()</text>
<text text-anchor="start" x="512.712" y="-592.5" font-family="Helvetica,sans-Serif" font-size="10.00">+ Descriptor()</text>
<text text-anchor="start" x="512.712" y="-581.5" font-family="Helvetica,sans-Serif" font-size="10.00">+ Descriptor()</text>
<text text-anchor="start" x="512.712" y="-570.5" font-family="Helvetica,sans-Serif" font-size="10.00">+ operator=()</text>
<text text-anchor="start" x="512.712" y="-559.5" font-family="Helvetica,sans-Serif" font-size="10.00">+ operator ItgType()</text>
<text text-anchor="start" x="512.712" y="-548.5" font-family="Helvetica,sans-Serif" font-size="10.00">+ runtimeInit()</text>
<text text-anchor="start" x="512.712" y="-537.5" font-family="Helvetica,sans-Serif" font-size="10.00">+ operator==()</text>
<text text-anchor="start" x="512.712" y="-526.5" font-family="Helvetica,sans-Serif" font-size="10.00">+ operator==()</text>
<text text-anchor="start" x="512.712" y="-515.5" font-family="Helvetica,sans-Serif" font-size="10.00">+ operator&lt;()</text>
<text text-anchor="start" x="512.712" y="-504.5" font-family="Helvetica,sans-Serif" font-size="10.00">+ operator!=()</text>
<text text-anchor="start" x="512.712" y="-493.5" font-family="Helvetica,sans-Serif" font-size="10.00">+ operator!=()</text>
<text text-anchor="start" x="512.712" y="-482.5" font-family="Helvetica,sans-Serif" font-size="10.00">+ as()</text>
<text text-anchor="start" x="512.712" y="-471.5" font-family="Helvetica,sans-Serif" font-size="10.00">+ print()</text>
</a>
</g>
</g>
<!-- Node3&#45;&gt;Node2 -->
<g id="edge2" class="edge"><title>Node3&#45;&gt;Node2</title>
<path fill="none" stroke="#404040" d="M607.22,-464.147C614.053,-427.419 621.631,-386.684 628.103,-351.897"/>
<polygon fill="none" stroke="#404040" points="628.149,-351.654 625.313,-345.024 630.344,-339.856 633.179,-346.487 628.149,-351.654"/>
<text text-anchor="middle" x="654.212" y="-399.5" font-family="Helvetica,sans-Serif" font-size="10.00"> +description</text>
</g>
<!-- Node4 -->
<g id="node4" class="node"><title>Node4</title>
<polygon fill="none" stroke="#bfbfbf" points="395.712,-1017.5 395.712,-1074.5 433.712,-1074.5 433.712,-1017.5 395.712,-1017.5"/>
<text text-anchor="middle" x="414.712" y="-1062.5" font-family="Helvetica,sans-Serif" font-size="10.00">Type</text>
<polyline fill="none" stroke="#bfbfbf" points="395.712,-1055.5 433.712,-1055.5 "/>
<text text-anchor="middle" x="414.712" y="-1043.5" font-family="Helvetica,sans-Serif" font-size="10.00"> </text>
<polyline fill="none" stroke="#bfbfbf" points="395.712,-1036.5 433.712,-1036.5 "/>
<text text-anchor="middle" x="414.712" y="-1024.5" font-family="Helvetica,sans-Serif" font-size="10.00"> </text>
</g>
<!-- Node4&#45;&gt;Node3 -->
<g id="edge3" class="edge"><title>Node4&#45;&gt;Node3</title>
<path fill="none" stroke="#404040" d="M433.786,-1040.41C469.916,-1030.5 546.934,-1003.22 571.712,-946 606.861,-864.832 609.235,-764.311 603.708,-687.78"/>
<polygon fill="none" stroke="#404040" points="603.699,-687.673 599.24,-682.005 602.757,-675.71 607.216,-681.377 603.699,-687.673"/>
<text text-anchor="middle" x="616.712" y="-837.5" font-family="Helvetica,sans-Serif" font-size="10.00"> +itg</text>
</g>
<!-- Node8 -->
<g id="node8" class="node"><title>Node8</title>
<g id="a_node8"><a xlink:href="../../d9/db3/structo2_1_1header_1_1Descriptor.html" target="_top" xlink:title="{o2::header::Descriptor\l\&lt; N, PrinterPolicy \&gt;\n||+ Descriptor()\l+ Descriptor()\l+ Descriptor()\l+ operator=()\l+ operator ItgType()\l+ Descriptor()\l+ runtimeInit()\l+ operator==()\l+ operator\&lt;()\l+ operator!=()\l+ operator==()\l+ operator!=()\l+ as()\l+ print()\l}">
<polygon fill="none" stroke="black" points="244.212,-734.5 244.212,-945.5 357.212,-945.5 357.212,-734.5 244.212,-734.5"/>
<text text-anchor="start" x="252.212" y="-933.5" font-family="Helvetica,sans-Serif" font-size="10.00">o2::header::Descriptor</text>
<text text-anchor="middle" x="300.712" y="-922.5" font-family="Helvetica,sans-Serif" font-size="10.00">&lt; N, PrinterPolicy &gt;</text>
<polyline fill="none" stroke="black" points="244.212,-915.5 357.212,-915.5 "/>
<text text-anchor="middle" x="300.712" y="-903.5" font-family="Helvetica,sans-Serif" font-size="10.00"> </text>
<polyline fill="none" stroke="black" points="244.212,-896.5 357.212,-896.5 "/>
<text text-anchor="start" x="252.212" y="-884.5" font-family="Helvetica,sans-Serif" font-size="10.00">+ Descriptor()</text>
<text text-anchor="start" x="252.212" y="-873.5" font-family="Helvetica,sans-Serif" font-size="10.00">+ Descriptor()</text>
<text text-anchor="start" x="252.212" y="-862.5" font-family="Helvetica,sans-Serif" font-size="10.00">+ Descriptor()</text>
<text text-anchor="start" x="252.212" y="-851.5" font-family="Helvetica,sans-Serif" font-size="10.00">+ operator=()</text>
<text text-anchor="start" x="252.212" y="-840.5" font-family="Helvetica,sans-Serif" font-size="10.00">+ operator ItgType()</text>
<text text-anchor="start" x="252.212" y="-829.5" font-family="Helvetica,sans-Serif" font-size="10.00">+ Descriptor()</text>
<text text-anchor="start" x="252.212" y="-818.5" font-family="Helvetica,sans-Serif" font-size="10.00">+ runtimeInit()</text>
<text text-anchor="start" x="252.212" y="-807.5" font-family="Helvetica,sans-Serif" font-size="10.00">+ operator==()</text>
<text text-anchor="start" x="252.212" y="-796.5" font-family="Helvetica,sans-Serif" font-size="10.00">+ operator&lt;()</text>
<text text-anchor="start" x="252.212" y="-785.5" font-family="Helvetica,sans-Serif" font-size="10.00">+ operator!=()</text>
<text text-anchor="start" x="252.212" y="-774.5" font-family="Helvetica,sans-Serif" font-size="10.00">+ operator==()</text>
<text text-anchor="start" x="252.212" y="-763.5" font-family="Helvetica,sans-Serif" font-size="10.00">+ operator!=()</text>
<text text-anchor="start" x="252.212" y="-752.5" font-family="Helvetica,sans-Serif" font-size="10.00">+ as()</text>
<text text-anchor="start" x="252.212" y="-741.5" font-family="Helvetica,sans-Serif" font-size="10.00">+ print()</text>
</a>
</g>
</g>
<!-- Node4&#45;&gt;Node8 -->
<g id="edge8" class="edge"><title>Node4&#45;&gt;Node8</title>
<path fill="none" stroke="#404040" d="M395.622,-1020.12C390.549,-1013.12 385.23,-1005.39 380.712,-998 372.637,-984.793 364.629,-970.673 356.977,-956.517"/>
<polygon fill="none" stroke="#404040" points="356.852,-956.284 350.497,-952.876 351.199,-945.699 357.554,-949.107 356.852,-956.284"/>
<text text-anchor="middle" x="390.712" y="-978.5" font-family="Helvetica,sans-Serif" font-size="10.00"> +itg</text>
</g>
<!-- Node9 -->
<g id="node9" class="node"><title>Node9</title>
<g id="a_node9"><a xlink:href="../../d9/db3/structo2_1_1header_1_1Descriptor.html" target="_top" xlink:title="{o2::header::Descriptor\l\&lt; gSizeSerializationMethodString \&gt;\n||+ Descriptor()\l+ Descriptor()\l+ Descriptor()\l+ Descriptor()\l+ operator=()\l+ operator ItgType()\l+ runtimeInit()\l+ operator==()\l+ operator==()\l+ operator\&lt;()\l+ operator!=()\l+ operator!=()\l+ as()\l+ print()\l}">
<polygon fill="none" stroke="black" points="308.712,-464.5 308.712,-675.5 478.712,-675.5 478.712,-464.5 308.712,-464.5"/>
<text text-anchor="start" x="316.712" y="-663.5" font-family="Helvetica,sans-Serif" font-size="10.00">o2::header::Descriptor</text>
<text text-anchor="middle" x="393.712" y="-652.5" font-family="Helvetica,sans-Serif" font-size="10.00">&lt; gSizeSerializationMethodString &gt;</text>
<polyline fill="none" stroke="black" points="308.712,-645.5 478.712,-645.5 "/>
<text text-anchor="middle" x="393.712" y="-633.5" font-family="Helvetica,sans-Serif" font-size="10.00"> </text>
<polyline fill="none" stroke="black" points="308.712,-626.5 478.712,-626.5 "/>
<text text-anchor="start" x="316.712" y="-614.5" font-family="Helvetica,sans-Serif" font-size="10.00">+ Descriptor()</text>
<text text-anchor="start" x="316.712" y="-603.5" font-family="Helvetica,sans-Serif" font-size="10.00">+ Descriptor()</text>
<text text-anchor="start" x="316.712" y="-592.5" font-family="Helvetica,sans-Serif" font-size="10.00">+ Descriptor()</text>
<text text-anchor="start" x="316.712" y="-581.5" font-family="Helvetica,sans-Serif" font-size="10.00">+ Descriptor()</text>
<text text-anchor="start" x="316.712" y="-570.5" font-family="Helvetica,sans-Serif" font-size="10.00">+ operator=()</text>
<text text-anchor="start" x="316.712" y="-559.5" font-family="Helvetica,sans-Serif" font-size="10.00">+ operator ItgType()</text>
<text text-anchor="start" x="316.712" y="-548.5" font-family="Helvetica,sans-Serif" font-size="10.00">+ runtimeInit()</text>
<text text-anchor="start" x="316.712" y="-537.5" font-family="Helvetica,sans-Serif" font-size="10.00">+ operator==()</text>
<text text-anchor="start" x="316.712" y="-526.5" font-family="Helvetica,sans-Serif" font-size="10.00">+ operator==()</text>
<text text-anchor="start" x="316.712" y="-515.5" font-family="Helvetica,sans-Serif" font-size="10.00">+ operator&lt;()</text>
<text text-anchor="start" x="316.712" y="-504.5" font-family="Helvetica,sans-Serif" font-size="10.00">+ operator!=()</text>
<text text-anchor="start" x="316.712" y="-493.5" font-family="Helvetica,sans-Serif" font-size="10.00">+ operator!=()</text>
<text text-anchor="start" x="316.712" y="-482.5" font-family="Helvetica,sans-Serif" font-size="10.00">+ as()</text>
<text text-anchor="start" x="316.712" y="-471.5" font-family="Helvetica,sans-Serif" font-size="10.00">+ print()</text>
</a>
</g>
</g>
<!-- Node4&#45;&gt;Node9 -->
<g id="edge16" class="edge"><title>Node4&#45;&gt;Node9</title>
<path fill="none" stroke="#404040" d="M412.504,-1017.28C410.985,-997.437 409.013,-970.087 407.712,-946 403.045,-859.572 399.451,-761.855 397.074,-687.842"/>
<polygon fill="none" stroke="#404040" points="397.07,-687.701 392.881,-681.831 396.688,-675.707 400.877,-681.577 397.07,-687.701"/>
<text text-anchor="middle" x="417.712" y="-837.5" font-family="Helvetica,sans-Serif" font-size="10.00"> +itg</text>
</g>
<!-- Node5 -->
<g id="node5" class="node"><title>Node5</title>
<polygon fill="none" stroke="#bfbfbf" points="67.2121,-1017.5 67.2121,-1074.5 102.212,-1074.5 102.212,-1017.5 67.2121,-1017.5"/>
<text text-anchor="middle" x="84.7121" y="-1062.5" font-family="Helvetica,sans-Serif" font-size="10.00">char</text>
<polyline fill="none" stroke="#bfbfbf" points="67.2121,-1055.5 102.212,-1055.5 "/>
<text text-anchor="middle" x="84.7121" y="-1043.5" font-family="Helvetica,sans-Serif" font-size="10.00"> </text>
<polyline fill="none" stroke="#bfbfbf" points="67.2121,-1036.5 102.212,-1036.5 "/>
<text text-anchor="middle" x="84.7121" y="-1024.5" font-family="Helvetica,sans-Serif" font-size="10.00"> </text>
</g>
<!-- Node5&#45;&gt;Node2 -->
<g id="edge13" class="edge"><title>Node5&#45;&gt;Node2</title>
<path fill="none" stroke="#404040" d="M66.8691,-1022.83C61.2525,-1015.23 55.3194,-1006.5 50.7121,-998 38.9122,-976.231 36.0751,-970.174 30.7121,-946 6.40594,-836.438 -15.1736,-802.173 14.7121,-694 20.5046,-673.034 198.002,-370.629 215.712,-358 244.343,-337.583 455.657,-299.587 570.271,-280.144"/>
<polygon fill="none" stroke="#404040" points="570.569,-280.094 575.818,-275.15 582.401,-278.095 577.151,-283.039 570.569,-280.094"/>
<text text-anchor="middle" x="45.2121" y="-702.5" font-family="Helvetica,sans-Serif" font-size="10.00"> +magicString</text>
</g>
<!-- Node5&#45;&gt;Node3 -->
<g id="edge4" class="edge"><title>Node5&#45;&gt;Node3</title>
<path fill="none" stroke="#404040" d="M102.309,-1025.97C117.881,-1009.31 141.378,-984.626 162.712,-964 171.31,-955.688 177.067,-956.543 182.712,-946 237.156,-844.318 143.092,-748.558 244.712,-694 340.127,-642.774 389.817,-722.31 487.712,-676 489.888,-674.971 492.041,-673.872 494.17,-672.71"/>
<polygon fill="none" stroke="#404040" points="494.333,-672.611 497.4,-666.085 504.604,-666.406 501.537,-672.932 494.333,-672.611"/>
<text text-anchor="middle" x="213.212" y="-837.5" font-family="Helvetica,sans-Serif" font-size="10.00"> +str</text>
</g>
<!-- Node5&#45;&gt;Node8 -->
<g id="edge9" class="edge"><title>Node5&#45;&gt;Node8</title>
<path fill="none" stroke="#404040" d="M102.335,-1035.85C131.293,-1020.23 189.713,-986.18 229.712,-946 231.886,-943.817 234.034,-941.558 236.153,-939.239"/>
<polygon fill="none" stroke="#404040" points="236.294,-939.076 237.217,-931.925 244.174,-930.026 243.251,-937.178 236.294,-939.076"/>
<text text-anchor="middle" x="219.212" y="-978.5" font-family="Helvetica,sans-Serif" font-size="10.00"> +str</text>
</g>
<!-- Node5&#45;&gt;Node9 -->
<g id="edge17" class="edge"><title>Node5&#45;&gt;Node9</title>
<path fill="none" stroke="#404040" d="M72.4006,-1017.25C48.7096,-959.218 4.06986,-823.059 62.7121,-734 121.163,-645.231 200.039,-724.304 294.712,-676 295.737,-675.477 296.758,-674.939 297.773,-674.386"/>
<polygon fill="none" stroke="#404040" points="298.172,-674.146 301.245,-667.623 308.449,-667.951 305.375,-674.474 298.172,-674.146"/>
<text text-anchor="middle" x="73.2121" y="-837.5" font-family="Helvetica,sans-Serif" font-size="10.00"> +str</text>
</g>
<!-- Node6 -->
<g id="node6" class="node"><title>Node6</title>
<g id="a_node6"><a xlink:href="../../d1/da0/classint.html" target="_top" xlink:title="{int\n||}">
<polygon fill="none" stroke="black" points="266.212,-1017.5 266.212,-1074.5 295.212,-1074.5 295.212,-1017.5 266.212,-1017.5"/>
<text text-anchor="middle" x="280.712" y="-1062.5" font-family="Helvetica,sans-Serif" font-size="10.00">int</text>
<polyline fill="none" stroke="black" points="266.212,-1055.5 295.212,-1055.5 "/>
<text text-anchor="middle" x="280.712" y="-1043.5" font-family="Helvetica,sans-Serif" font-size="10.00"> </text>
<polyline fill="none" stroke="black" points="266.212,-1036.5 295.212,-1036.5 "/>
<text text-anchor="middle" x="280.712" y="-1024.5" font-family="Helvetica,sans-Serif" font-size="10.00"> </text>
</a>
</g>
</g>
<!-- Node6&#45;&gt;Node3 -->
<g id="edge5" class="edge"><title>Node6&#45;&gt;Node3</title>
<path fill="none" stroke="#404040" d="M295.262,-1039.93C314.844,-1032.66 350.167,-1017.91 375.712,-998 391.378,-985.791 390.375,-977.745 404.712,-964 414.082,-955.017 421.431,-957.36 427.712,-946 450.63,-904.55 416.97,-768.225 449.712,-734 487.297,-694.713 532.867,-755.036 570.712,-716 578.68,-707.781 584.366,-697.949 588.327,-687.329"/>
<polygon fill="none" stroke="#404040" points="588.429,-686.999 586.38,-680.085 591.974,-675.535 594.023,-682.449 588.429,-686.999"/>
<text text-anchor="middle" x="475.212" y="-848.5" font-family="Helvetica,sans-Serif" font-size="10.00"> +arraySize</text>
<text text-anchor="middle" x="475.212" y="-837.5" font-family="Helvetica,sans-Serif" font-size="10.00">+size</text>
<text text-anchor="middle" x="475.212" y="-826.5" font-family="Helvetica,sans-Serif" font-size="10.00">+bitcount</text>
</g>
<!-- Node6&#45;&gt;Node8 -->
<g id="edge10" class="edge"><title>Node6&#45;&gt;Node8</title>
<path fill="none" stroke="#404040" d="M280.09,-1017.21C279.981,-1001.56 280.247,-981.659 281.712,-964 281.884,-961.927 282.07,-959.837 282.269,-957.732"/>
<polygon fill="none" stroke="#404040" points="282.293,-957.495 278.936,-951.114 283.535,-945.56 286.893,-951.942 282.293,-957.495"/>
<text text-anchor="middle" x="307.212" y="-989.5" font-family="Helvetica,sans-Serif" font-size="10.00"> +arraySize</text>
<text text-anchor="middle" x="307.212" y="-978.5" font-family="Helvetica,sans-Serif" font-size="10.00">+size</text>
<text text-anchor="middle" x="307.212" y="-967.5" font-family="Helvetica,sans-Serif" font-size="10.00">+bitcount</text>
</g>
<!-- Node6&#45;&gt;Node9 -->
<g id="edge18" class="edge"><title>Node6&#45;&gt;Node9</title>
<path fill="none" stroke="#404040" d="M266.069,-1042.35C242.07,-1037.37 193.92,-1024.61 162.712,-998 72.8221,-921.34 63.6018,-830.529 131.712,-734 153.878,-702.586 262.517,-697.016 294.712,-676 296.04,-675.133 297.362,-674.245 298.679,-673.338"/>
<polygon fill="none" stroke="#404040" points="298.979,-673.118 301.45,-666.343 308.653,-666.019 306.182,-672.793 298.979,-673.118"/>
<text text-anchor="middle" x="157.212" y="-848.5" font-family="Helvetica,sans-Serif" font-size="10.00"> +arraySize</text>
<text text-anchor="middle" x="157.212" y="-837.5" font-family="Helvetica,sans-Serif" font-size="10.00">+size</text>
<text text-anchor="middle" x="157.212" y="-826.5" font-family="Helvetica,sans-Serif" font-size="10.00">+bitcount</text>
</g>
<!-- Node7 -->
<g id="node7" class="node"><title>Node7</title>
<polygon fill="none" stroke="#bfbfbf" points="645.212,-1017 645.212,-1075 674.212,-1075 674.212,-1017 645.212,-1017"/>
<polyline fill="none" stroke="#bfbfbf" points="645.212,-1055 674.212,-1055 "/>
<text text-anchor="middle" x="659.712" y="-1043" font-family="Helvetica,sans-Serif" font-size="10.00"> </text>
<polyline fill="none" stroke="#bfbfbf" points="645.212,-1036 674.212,-1036 "/>
<text text-anchor="middle" x="659.712" y="-1024" font-family="Helvetica,sans-Serif" font-size="10.00"> </text>
</g>
<!-- Node7&#45;&gt;Node2 -->
<g id="edge12" class="edge"><title>Node7&#45;&gt;Node2</title>
<path fill="none" stroke="#404040" d="M670.642,-1016.92C677.645,-997.369 686.079,-970.516 689.712,-946 701.048,-869.502 702.067,-424.521 686.712,-358 686.186,-355.722 685.596,-353.434 684.951,-351.144"/>
<polygon fill="none" stroke="#404040" points="684.947,-351.133 679.311,-346.636 681.294,-339.703 686.931,-344.2 684.947,-351.133"/>
<text text-anchor="middle" x="714.212" y="-702.5" font-family="Helvetica,sans-Serif" font-size="10.00"> +@16</text>
</g>
<!-- Node7&#45;&gt;Node2 -->
<g id="edge14" class="edge"><title>Node7&#45;&gt;Node2</title>
<path fill="none" stroke="#404040" d="M674.271,-1030.08C682.006,-1021.37 691.058,-1009.8 696.712,-998 725.782,-937.334 726.035,-857.676 733.712,-716 742.35,-556.602 758.079,-508.447 704.712,-358 703.862,-355.603 702.932,-353.208 701.933,-350.823"/>
<polygon fill="none" stroke="#404040" points="701.848,-350.639 695.694,-346.879 696.798,-339.753 702.951,-343.512 701.848,-350.639"/>
<text text-anchor="middle" x="751.212" y="-702.5" font-family="Helvetica,sans-Serif" font-size="10.00"> +@18</text>
</g>
<!-- Node7&#45;&gt;Node3 -->
<g id="edge6" class="edge"><title>Node7&#45;&gt;Node3</title>
<path fill="none" stroke="#404040" d="M658.576,-1016.99C655.77,-957.172 646.973,-812.726 623.712,-694 623.289,-691.842 622.846,-689.667 622.383,-687.481"/>
<polygon fill="none" stroke="#404040" points="622.366,-687.405 617.152,-682.425 619.743,-675.695 624.958,-680.676 622.366,-687.405"/>
<text text-anchor="middle" x="670.212" y="-837.5" font-family="Helvetica,sans-Serif" font-size="10.00"> +@14</text>
</g>
<!-- Node7&#45;&gt;Node8 -->
<g id="edge11" class="edge"><title>Node7&#45;&gt;Node8</title>
<path fill="none" stroke="#404040" d="M645.123,-1041.63C615.714,-1034.68 547.373,-1017.74 491.712,-998 478.017,-993.142 382.896,-955.279 371.712,-946 369.87,-944.472 368.057,-942.884 366.273,-941.245"/>
<polygon fill="none" stroke="#404040" points="366.124,-941.098 359.047,-939.716 357.6,-932.651 364.678,-934.033 366.124,-941.098"/>
<text text-anchor="middle" x="507.212" y="-978.5" font-family="Helvetica,sans-Serif" font-size="10.00"> +@14</text>
</g>
<!-- Node7&#45;&gt;Node9 -->
<g id="edge19" class="edge"><title>Node7&#45;&gt;Node9</title>
<path fill="none" stroke="#404040" d="M644.994,-1037.87C618.425,-1024.16 562.793,-991.398 536.712,-946 489.245,-863.375 568.811,-804.509 504.712,-734 482.524,-709.593 456.242,-739.116 432.712,-716 424.204,-707.642 417.492,-697.641 412.205,-686.85"/>
<polygon fill="none" stroke="#404040" points="412.192,-686.82 406.121,-682.928 407.379,-675.828 413.45,-679.72 412.192,-686.82"/>
<text text-anchor="middle" x="552.212" y="-837.5" font-family="Helvetica,sans-Serif" font-size="10.00"> +@14</text>
</g>
<!-- Node8&#45;&gt;Node1 -->
<g id="edge25" class="edge"><title>Node8&#45;&gt;Node1</title>
<path fill="none" stroke="#404040" d="M244.152,-753.599C238.807,-746.798 233.294,-740.177 227.712,-734 219.47,-724.88 215.567,-724.526 206.712,-716 189.267,-699.203 179.607,-698.103 169.712,-676 111.827,-546.694 70.6724,-476.893 147.712,-358 275.258,-161.163 568.417,-94.4681 716.95,-72.8276"/>
<polygon fill="none" stroke="#404040" points="717.245,-72.786 722.627,-67.986 729.127,-71.1074 723.746,-75.9073 717.245,-72.786"/>
<text text-anchor="middle" x="181.712" y="-399.5" font-family="Helvetica,sans-Serif" font-size="10.00"> +sHeaderType</text>
</g>
<!-- Node8&#45;&gt;Node2 -->
<g id="edge22" class="edge"><title>Node8&#45;&gt;Node2</title>
<path fill="none" stroke="#404040" d="M244.023,-754.064C224.997,-723.708 207.391,-692.863 202.712,-676 177.52,-585.208 151.369,-543.005 202.712,-464 284.532,-338.098 467.921,-292.418 570.571,-276.341"/>
<polygon fill="none" stroke="#404040" points="570.81,-276.306 576.15,-271.459 582.677,-274.524 577.337,-279.371 570.81,-276.306"/>
<text text-anchor="middle" x="251.212" y="-573" font-family="Helvetica,sans-Serif" font-size="10.00"> +sHeaderType</text>
<text text-anchor="middle" x="251.212" y="-562" font-family="Helvetica,sans-Serif" font-size="10.00">+sSerializationMethod</text>
</g>
<!-- Node8&#45;&gt;Node3 -->
<g id="edge7" class="edge"><title>Node8&#45;&gt;Node3</title>
<path fill="none" stroke="orange" d="M364.411,-740.826C366.796,-738.458 369.23,-736.176 371.712,-734 382.546,-724.499 476.126,-684.568 487.712,-676 493.38,-671.809 499.004,-667.279 504.526,-662.534"/>
<polygon fill="orange" stroke="orange" points="361.78,-738.513 357.411,-748.165 366.845,-743.344 361.78,-738.513"/>
<text text-anchor="start" x="451.712" y="-708" font-family="Helvetica,sans-Serif" font-size="10.00"> &lt; gSizeHeaderDescription</text>
<text text-anchor="middle" x="510.712" y="-697" font-family="Helvetica,sans-Serif" font-size="10.00">String &gt;</text>
</g>
<!-- Node8&#45;&gt;Node9 -->
<g id="edge20" class="edge"><title>Node8&#45;&gt;Node9</title>
<path fill="none" stroke="orange" d="M247.488,-724.045C248.011,-713.541 250.795,-703.35 256.712,-694 266.705,-678.209 279.596,-686.988 294.712,-676 299.373,-672.612 303.996,-668.985 308.549,-665.189"/>
<polygon fill="orange" stroke="orange" points="243.991,-724.252 247.652,-734.194 250.99,-724.139 243.991,-724.252"/>
<text text-anchor="start" x="256.712" y="-708" font-family="Helvetica,sans-Serif" font-size="10.00"> &lt; gSizeSerializationMethod</text>
<text text-anchor="middle" x="318.212" y="-697" font-family="Helvetica,sans-Serif" font-size="10.00">String &gt;</text>
</g>
<!-- Node9&#45;&gt;Node2 -->
<g id="edge15" class="edge"><title>Node9&#45;&gt;Node2</title>
<path fill="none" stroke="#404040" d="M462.752,-464.359C487.473,-429.365 516.486,-390.916 545.712,-358 554.343,-348.28 563.915,-338.484 573.597,-329.116"/>
<polygon fill="none" stroke="#404040" points="573.803,-328.919 575.392,-321.885 582.496,-320.647 580.907,-327.681 573.803,-328.919"/>
<text text-anchor="middle" x="576.212" y="-399.5" font-family="Helvetica,sans-Serif" font-size="10.00"> +serialization</text>
</g>
<!-- Node10 -->
<g id="node10" class="node"><title>Node10</title>
<polygon fill="none" stroke="#bfbfbf" points="806.212,-541.5 806.212,-598.5 857.212,-598.5 857.212,-541.5 806.212,-541.5"/>
<text text-anchor="middle" x="831.712" y="-586.5" font-family="Helvetica,sans-Serif" font-size="10.00">uint32_t</text>
<polyline fill="none" stroke="#bfbfbf" points="806.212,-579.5 857.212,-579.5 "/>
<text text-anchor="middle" x="831.712" y="-567.5" font-family="Helvetica,sans-Serif" font-size="10.00"> </text>
<polyline fill="none" stroke="#bfbfbf" points="806.212,-560.5 857.212,-560.5 "/>
<text text-anchor="middle" x="831.712" y="-548.5" font-family="Helvetica,sans-Serif" font-size="10.00"> </text>
</g>
<!-- Node10&#45;&gt;Node1 -->
<g id="edge24" class="edge"><title>Node10&#45;&gt;Node1</title>
<path fill="none" stroke="#404040" d="M836.364,-541.256C840.284,-516.391 845.583,-478.878 847.712,-446 854.738,-337.523 836.31,-212.383 821.921,-135.479"/>
<polygon fill="none" stroke="#404040" points="821.896,-135.348 816.844,-130.203 819.651,-123.56 824.703,-128.706 821.896,-135.348"/>
<text text-anchor="middle" x="871.712" y="-264.5" font-family="Helvetica,sans-Serif" font-size="10.00"> +sVersion</text>
</g>
<!-- Node10&#45;&gt;Node2 -->
<g id="edge21" class="edge"><title>Node10&#45;&gt;Node2</title>
<path fill="none" stroke="#404040" d="M815.119,-541.499C800.962,-517.104 780.865,-480.143 767.712,-446 753.18,-408.277 765.817,-392.478 744.712,-358 736.407,-344.432 725.426,-331.743 713.766,-320.418"/>
<polygon fill="none" stroke="#404040" points="713.537,-320.205 706.42,-319.047 704.751,-312.032 711.869,-313.19 713.537,-320.205"/>
<text text-anchor="middle" x="807.712" y="-438" font-family="Helvetica,sans-Serif" font-size="10.00"> +headerVersion</text>
<text text-anchor="middle" x="807.712" y="-427" font-family="Helvetica,sans-Serif" font-size="10.00">+headerSize</text>
<text text-anchor="middle" x="807.712" y="-416" font-family="Helvetica,sans-Serif" font-size="10.00">+sMagicString</text>
<text text-anchor="middle" x="807.712" y="-405" font-family="Helvetica,sans-Serif" font-size="10.00">+flagsNextHeader</text>
<text text-anchor="middle" x="807.712" y="-394" font-family="Helvetica,sans-Serif" font-size="10.00">+magicStringInt</text>
<text text-anchor="middle" x="807.712" y="-383" font-family="Helvetica,sans-Serif" font-size="10.00">+flagsUnused</text>
<text text-anchor="middle" x="807.712" y="-372" font-family="Helvetica,sans-Serif" font-size="10.00">+flags</text>
<text text-anchor="middle" x="807.712" y="-361" font-family="Helvetica,sans-Serif" font-size="10.00">+sVersion</text>
</g>
<!-- Node11 -->
<g id="node11" class="node"><title>Node11</title>
<polygon fill="none" stroke="#bfbfbf" points="928.212,-238.5 928.212,-295.5 979.212,-295.5 979.212,-238.5 928.212,-238.5"/>
<text text-anchor="middle" x="953.712" y="-283.5" font-family="Helvetica,sans-Serif" font-size="10.00">uint64_t</text>
<polyline fill="none" stroke="#bfbfbf" points="928.212,-276.5 979.212,-276.5 "/>
<text text-anchor="middle" x="953.712" y="-264.5" font-family="Helvetica,sans-Serif" font-size="10.00"> </text>
<polyline fill="none" stroke="#bfbfbf" points="928.212,-257.5 979.212,-257.5 "/>
<text text-anchor="middle" x="953.712" y="-245.5" font-family="Helvetica,sans-Serif" font-size="10.00"> </text>
</g>
<!-- Node11&#45;&gt;Node1 -->
<g id="edge23" class="edge"><title>Node11&#45;&gt;Node1</title>
<path fill="none" stroke="#404040" d="M939.3,-238.181C932.014,-224.622 922.805,-208.214 913.712,-194 900.514,-173.367 884.557,-152.273 869.041,-133.208"/>
<polygon fill="none" stroke="#404040" points="868.862,-132.991 861.959,-130.905 861.23,-123.731 868.132,-125.817 868.862,-132.991"/>
<text text-anchor="middle" x="925.712" y="-167.5" font-family="Helvetica,sans-Serif" font-size="10.00"> +duration</text>
<text text-anchor="middle" x="925.712" y="-156.5" font-family="Helvetica,sans-Serif" font-size="10.00">+startTime</text>
<text text-anchor="middle" x="925.712" y="-145.5" font-family="Helvetica,sans-Serif" font-size="10.00">+creation</text>
</g>
</g>
</svg>
        <g id="navigator" transform="translate(0 0)" fill="#404254">
                <rect fill="#f2f5e9" fill-opacity="0.5" stroke="#606060" stroke-width=".5" x="0" y="0" width="60" height="60"/>
                <use id="zoomplus" xlink:href="#zoomPlus" x="17" y="9" onmousedown="handleZoom(evt,'in')"/>
                <use id="zoomminus" xlink:href="#zoomMin" x="42" y="9" onmousedown="handleZoom(evt,'out')"/>
                <use id="reset" xlink:href="#resetDef" x="30" y="36" onmousedown="handleReset()"/>
                <g id="arrowUp" xlink:href="#dirArrow" transform="translate(30 24)" onmousedown="handlePan(0,-1)">
                  <use xlink:href="#rim" fill="#404040">
                        <set attributeName="fill" to="#808080" begin="arrowUp.mouseover" end="arrowUp.mouseout"/>
                  </use>
                  <path fill="none" stroke="white" stroke-width="1.5" d="M0,-3.0v7 M-2.5,-0.5L0,-3.0L2.5,-0.5"/>
                </g>
                <g id="arrowRight" xlink:href="#dirArrow" transform="rotate(90) translate(36 -43)" onmousedown="handlePan(1,0)">
                  <use xlink:href="#rim" fill="#404040">
                        <set attributeName="fill" to="#808080" begin="arrowRight.mouseover" end="arrowRight.mouseout"/>
                  </use>
                  <path fill="none" stroke="white" stroke-width="1.5" d="M0,-3.0v7 M-2.5,-0.5L0,-3.0L2.5,-0.5"/>
                </g>
                <g id="arrowDown" xlink:href="#dirArrow" transform="rotate(180) translate(-30 -48)" onmousedown="handlePan(0,1)">
                  <use xlink:href="#rim" fill="#404040">
                        <set attributeName="fill" to="#808080" begin="arrowDown.mouseover" end="arrowDown.mouseout"/>
                  </use>
                  <path fill="none" stroke="white" stroke-width="1.5" d="M0,-3.0v7 M-2.5,-0.5L0,-3.0L2.5,-0.5"/>
                </g>
                <g id="arrowLeft" xlink:href="#dirArrow" transform="rotate(270) translate(-36 17)" onmousedown="handlePan(-1,0)">
                  <use xlink:href="#rim" fill="#404040">
                        <set attributeName="fill" to="#808080" begin="arrowLeft.mouseover" end="arrowLeft.mouseout"/>
                  </use>
                  <path fill="none" stroke="white" stroke-width="1.5" d="M0,-3.0v7 M-2.5,-0.5L0,-3.0L2.5,-0.5"/>
                </g>
        </g>
        <svg viewBox="0 0 15 15" width="100%" height="30px" preserveAspectRatio="xMaxYMin meet">
         <g id="arrow_out" transform="scale(0.3 0.3)">
          <a xlink:href="structo2_1_1framework_1_1DataProcessingHeader__coll__graph_org.svg" target="_base">
           <rect id="button" ry="5" rx="5" y="6" x="6" height="38" width="38"
                fill="#f2f5e9" fill-opacity="0.5" stroke="#606060" stroke-width="1.0"/>
           <path id="arrow"
             d="M 11.500037,31.436501 C 11.940474,20.09759 22.043105,11.32322 32.158766,21.979434 L 37.068811,17.246167 C 37.068811,17.246167 37.088388,32 37.088388,32 L 22.160133,31.978069 C 22.160133,31.978069 26.997745,27.140456 26.997745,27.140456 C 18.528582,18.264221 13.291696,25.230495 11.500037,31.436501 z"
             style="fill:#404040;"/>
          </a>
         </g>
        </svg>
</svg>
