<?xml version="1.0" encoding="UTF-8" standalone="no"?>
<!DOCTYPE svg PUBLIC "-//W3C//DTD SVG 1.1//EN"
 "http://www.w3.org/Graphics/SVG/1.1/DTD/svg11.dtd">
<!-- Generated by graphviz version 2.36.0 (20140111.2315)
 -->
<!-- Title: o2::framework::gui::Node Pages: 1 -->
<svg width="370pt" height="432pt"
 viewBox="0.00 0.00 370.14 432.00" xmlns="http://www.w3.org/2000/svg" xmlns:xlink="http://www.w3.org/1999/xlink">
<g id="graph0" class="graph" transform="scale(1 1) rotate(0) translate(4 428)">
<title>o2::framework::gui::Node</title>
<!-- Node1 -->
<g id="node1" class="node"><title>Node1</title>
<polygon fill="#bfbfbf" stroke="black" points="138.137,-1 138.137,-69 236.137,-69 236.137,-1 138.137,-1"/>
<text text-anchor="start" x="146.137" y="-57" font-family="Helvetica,sans-Serif" font-size="10.00">o2::framework::gui</text>
<text text-anchor="middle" x="187.137" y="-46" font-family="Helvetica,sans-Serif" font-size="10.00">::Node</text>
<polyline fill="none" stroke="black" points="138.137,-39 236.137,-39 "/>
<text text-anchor="middle" x="187.137" y="-27" font-family="Helvetica,sans-Serif" font-size="10.00"> </text>
<polyline fill="none" stroke="black" points="138.137,-20 236.137,-20 "/>
<text text-anchor="start" x="146.137" y="-8" font-family="Helvetica,sans-Serif" font-size="10.00">+ Node()</text>
</g>
<!-- Node2 -->
<g id="node2" class="node"><title>Node2</title>
<g id="a_node2"><a xlink:href="../../d3/dc2/structImVec2.html" target="_top" xlink:title="{ImVec2\n||+ ImVec2()\l+ ImVec2()\l+ operator[]()\l+ ImVec2()\l+ ImVec2()\l+ operator[]()\l+ ImVec2()\l+ ImVec2()\l+ operator[]()\l}">
<polygon fill="none" stroke="black" points="63.6372,-140.5 63.6372,-285.5 136.637,-285.5 136.637,-140.5 63.6372,-140.5"/>
<text text-anchor="middle" x="100.137" y="-273.5" font-family="Helvetica,sans-Serif" font-size="10.00">ImVec2</text>
<polyline fill="none" stroke="black" points="63.6372,-266.5 136.637,-266.5 "/>
<text text-anchor="middle" x="100.137" y="-254.5" font-family="Helvetica,sans-Serif" font-size="10.00"> </text>
<polyline fill="none" stroke="black" points="63.6372,-247.5 136.637,-247.5 "/>
<text text-anchor="start" x="71.6372" y="-235.5" font-family="Helvetica,sans-Serif" font-size="10.00">+ ImVec2()</text>
<text text-anchor="start" x="71.6372" y="-224.5" font-family="Helvetica,sans-Serif" font-size="10.00">+ ImVec2()</text>
<text text-anchor="start" x="71.6372" y="-213.5" font-family="Helvetica,sans-Serif" font-size="10.00">+ operator[]()</text>
<text text-anchor="start" x="71.6372" y="-202.5" font-family="Helvetica,sans-Serif" font-size="10.00">+ ImVec2()</text>
<text text-anchor="start" x="71.6372" y="-191.5" font-family="Helvetica,sans-Serif" font-size="10.00">+ ImVec2()</text>
<text text-anchor="start" x="71.6372" y="-180.5" font-family="Helvetica,sans-Serif" font-size="10.00">+ operator[]()</text>
<text text-anchor="start" x="71.6372" y="-169.5" font-family="Helvetica,sans-Serif" font-size="10.00">+ ImVec2()</text>
<text text-anchor="start" x="71.6372" y="-158.5" font-family="Helvetica,sans-Serif" font-size="10.00">+ ImVec2()</text>
<text text-anchor="start" x="71.6372" y="-147.5" font-family="Helvetica,sans-Serif" font-size="10.00">+ operator[]()</text>
</a>
</g>
</g>
<!-- Node2&#45;&gt;Node1 -->
<g id="edge1" class="edge"><title>Node2&#45;&gt;Node1</title>
<path fill="none" stroke="#404040" d="M129.122,-140.285C136.751,-122.922 145.328,-104.591 154.137,-88 155.637,-85.1758 157.236,-82.3017 158.892,-79.4281"/>
<polygon fill="none" stroke="#404040" points="158.9,-79.4145 158.544,-72.2122 165.055,-69.1134 165.411,-76.3157 158.9,-79.4145"/>
<text text-anchor="middle" x="168.637" y="-102.5" font-family="Helvetica,sans-Serif" font-size="10.00"> +Size</text>
</g>
<!-- Node3 -->
<g id="node3" class="node"><title>Node3</title>
<g id="a_node3"><a xlink:href="../../d4/dc3/classfloat.html" target="_top" xlink:title="{float\n||}">
<polygon fill="none" stroke="black" points="82.6372,-366.5 82.6372,-423.5 117.637,-423.5 117.637,-366.5 82.6372,-366.5"/>
<text text-anchor="middle" x="100.137" y="-411.5" font-family="Helvetica,sans-Serif" font-size="10.00">float</text>
<polyline fill="none" stroke="black" points="82.6372,-404.5 117.637,-404.5 "/>
<text text-anchor="middle" x="100.137" y="-392.5" font-family="Helvetica,sans-Serif" font-size="10.00"> </text>
<polyline fill="none" stroke="black" points="82.6372,-385.5 117.637,-385.5 "/>
<text text-anchor="middle" x="100.137" y="-373.5" font-family="Helvetica,sans-Serif" font-size="10.00"> </text>
</a>
</g>
</g>
<!-- Node3&#45;&gt;Node1 -->
<g id="edge5" class="edge"><title>Node3&#45;&gt;Node1</title>
<path fill="none" stroke="#404040" d="M82.632,-377.685C63.0367,-358.104 32.4228,-323.226 20.1372,-286 -0.19915,-224.38 -11.3647,-196.729 20.1372,-140 42.6779,-99.4084 88.3687,-72.601 126.268,-56.3842"/>
<polygon fill="none" stroke="#404040" points="126.639,-56.2324 130.678,-50.2581 137.746,-51.688 133.707,-57.6623 126.639,-56.2324"/>
<text text-anchor="middle" x="37.1372" y="-210.5" font-family="Helvetica,sans-Serif" font-size="10.00"> +Value</text>
</g>
<!-- Node3&#45;&gt;Node2 -->
<g id="edge2" class="edge"><title>Node3&#45;&gt;Node2</title>
<path fill="none" stroke="#404040" d="M100.137,-366.269C100.137,-347.794 100.137,-322.453 100.137,-297.743"/>
<polygon fill="none" stroke="#404040" points="100.137,-297.696 96.1373,-291.696 100.137,-285.696 104.137,-291.696 100.137,-297.696"/>
<text text-anchor="middle" x="107.637" y="-329" font-family="Helvetica,sans-Serif" font-size="10.00"> +x</text>
<text text-anchor="middle" x="107.637" y="-318" font-family="Helvetica,sans-Serif" font-size="10.00">+y</text>
</g>
<!-- Node4 -->
<g id="node4" class="node"><title>Node4</title>
<g id="a_node4"><a xlink:href="../../dc/dee/structImVec4.html" target="_top" xlink:title="{ImVec4\n||+ ImVec4()\l+ ImVec4()\l+ ImVec4()\l+ ImVec4()\l+ ImVec4()\l+ ImVec4()\l}">
<polygon fill="none" stroke="black" points="154.637,-157 154.637,-269 219.637,-269 219.637,-157 154.637,-157"/>
<text text-anchor="middle" x="187.137" y="-257" font-family="Helvetica,sans-Serif" font-size="10.00">ImVec4</text>
<polyline fill="none" stroke="black" points="154.637,-250 219.637,-250 "/>
<text text-anchor="middle" x="187.137" y="-238" font-family="Helvetica,sans-Serif" font-size="10.00"> </text>
<polyline fill="none" stroke="black" points="154.637,-231 219.637,-231 "/>
<text text-anchor="start" x="162.637" y="-219" font-family="Helvetica,sans-Serif" font-size="10.00">+ ImVec4()</text>
<text text-anchor="start" x="162.637" y="-208" font-family="Helvetica,sans-Serif" font-size="10.00">+ ImVec4()</text>
<text text-anchor="start" x="162.637" y="-197" font-family="Helvetica,sans-Serif" font-size="10.00">+ ImVec4()</text>
<text text-anchor="start" x="162.637" y="-186" font-family="Helvetica,sans-Serif" font-size="10.00">+ ImVec4()</text>
<text text-anchor="start" x="162.637" y="-175" font-family="Helvetica,sans-Serif" font-size="10.00">+ ImVec4()</text>
<text text-anchor="start" x="162.637" y="-164" font-family="Helvetica,sans-Serif" font-size="10.00">+ ImVec4()</text>
</a>
</g>
</g>
<!-- Node3&#45;&gt;Node4 -->
<g id="edge4" class="edge"><title>Node3&#45;&gt;Node4</title>
<path fill="none" stroke="#404040" d="M113.54,-366.269C124.571,-343.446 140.667,-310.144 154.996,-280.5"/>
<polygon fill="none" stroke="#404040" points="155.164,-280.151 154.174,-273.009 160.386,-269.347 161.376,-276.49 155.164,-280.151"/>
<text text-anchor="middle" x="152.637" y="-340" font-family="Helvetica,sans-Serif" font-size="10.00"> +w</text>
<text text-anchor="middle" x="152.637" y="-329" font-family="Helvetica,sans-Serif" font-size="10.00">+x</text>
<text text-anchor="middle" x="152.637" y="-318" font-family="Helvetica,sans-Serif" font-size="10.00">+y</text>
<text text-anchor="middle" x="152.637" y="-307" font-family="Helvetica,sans-Serif" font-size="10.00">+z</text>
</g>
<!-- Node4&#45;&gt;Node1 -->
<g id="edge3" class="edge"><title>Node4&#45;&gt;Node1</title>
<path fill="none" stroke="#404040" d="M187.137,-156.795C187.137,-132.554 187.137,-104.437 187.137,-81.433"/>
<polygon fill="none" stroke="#404040" points="187.137,-81.2359 183.137,-75.236 187.137,-69.2359 191.137,-75.2359 187.137,-81.2359"/>
<text text-anchor="middle" x="203.637" y="-102.5" font-family="Helvetica,sans-Serif" font-size="10.00"> +Color</text>
</g>
<!-- Node5 -->
<g id="node5" class="node"><title>Node5</title>
<polygon fill="none" stroke="#bfbfbf" points="237.637,-184.5 237.637,-241.5 272.637,-241.5 272.637,-184.5 237.637,-184.5"/>
<text text-anchor="middle" x="255.137" y="-229.5" font-family="Helvetica,sans-Serif" font-size="10.00">char</text>
<polyline fill="none" stroke="#bfbfbf" points="237.637,-222.5 272.637,-222.5 "/>
<text text-anchor="middle" x="255.137" y="-210.5" font-family="Helvetica,sans-Serif" font-size="10.00"> </text>
<polyline fill="none" stroke="#bfbfbf" points="237.637,-203.5 272.637,-203.5 "/>
<text text-anchor="middle" x="255.137" y="-191.5" font-family="Helvetica,sans-Serif" font-size="10.00"> </text>
</g>
<!-- Node5&#45;&gt;Node1 -->
<g id="edge6" class="edge"><title>Node5&#45;&gt;Node1</title>
<path fill="none" stroke="#404040" d="M251.272,-184.412C246.965,-158.609 238.622,-119.441 224.137,-88 222.793,-85.0816 221.278,-82.1572 219.649,-79.2654"/>
<polygon fill="none" stroke="#404040" points="219.629,-79.2323 213.08,-76.2127 213.349,-69.0066 219.898,-72.0262 219.629,-79.2323"/>
<text text-anchor="middle" x="255.137" y="-102.5" font-family="Helvetica,sans-Serif" font-size="10.00"> +Name</text>
</g>
<!-- Node6 -->
<g id="node6" class="node"><title>Node6</title>
<g id="a_node6"><a xlink:href="../../d1/da0/classint.html" target="_top" xlink:title="{int\n||}">
<polygon fill="none" stroke="black" points="294.637,-184.5 294.637,-241.5 323.637,-241.5 323.637,-184.5 294.637,-184.5"/>
<text text-anchor="middle" x="309.137" y="-229.5" font-family="Helvetica,sans-Serif" font-size="10.00">int</text>
<polyline fill="none" stroke="black" points="294.637,-222.5 323.637,-222.5 "/>
<text text-anchor="middle" x="309.137" y="-210.5" font-family="Helvetica,sans-Serif" font-size="10.00"> </text>
<polyline fill="none" stroke="black" points="294.637,-203.5 323.637,-203.5 "/>
<text text-anchor="middle" x="309.137" y="-191.5" font-family="Helvetica,sans-Serif" font-size="10.00"> </text>
</a>
</g>
</g>
<!-- Node6&#45;&gt;Node1 -->
<g id="edge7" class="edge"><title>Node6&#45;&gt;Node1</title>
<path fill="none" stroke="#404040" d="M308.069,-184.461C305.733,-157.423 298.59,-116.237 277.137,-88 269.113,-77.4389 258.278,-68.6557 246.907,-61.5001"/>
<polygon fill="none" stroke="#404040" points="246.754,-61.4114 239.557,-61.8551 236.379,-55.3819 243.577,-54.9382 246.754,-61.4114"/>
<text text-anchor="middle" x="328.637" y="-113.5" font-family="Helvetica,sans-Serif" font-size="10.00"> +ID</text>
<text text-anchor="middle" x="328.637" y="-102.5" font-family="Helvetica,sans-Serif" font-size="10.00">+OutputsCount</text>
<text text-anchor="middle" x="328.637" y="-91.5" font-family="Helvetica,sans-Serif" font-size="10.00">+InputsCount</text>
</g>
</g>
</svg>
