<?xml version="1.0" encoding="UTF-8" standalone="no"?>
<!DOCTYPE svg PUBLIC "-//W3C//DTD SVG 1.1//EN"
 "http://www.w3.org/Graphics/SVG/1.1/DTD/svg11.dtd">
<!-- Generated by graphviz version 2.36.0 (20140111.2315)
 -->
<!-- Title: /home/travis/build/AliceO2Group/AliceO2/Detectors/PHOS/reconstruction/src/Clusterer.cxx Pages: 1 -->
<!--zoomable 514 -->
<svg id="main" version="1.1" xmlns="http://www.w3.org/2000/svg" xmlns:xlink="http://www.w3.org/1999/xlink" xml:space="preserve" onload="init(evt)">
<style type="text/css"><![CDATA[
.edge:hover path { stroke: red; }
.edge:hover polygon { stroke: red; fill: red; }
]]></style>
<script type="text/javascript"><![CDATA[
var edges = document.getElementsByTagName('g');
if (edges && edges.length) {
  for (var i=0;i<edges.length;i++) {
    if (edges[i].id.substr(0,4)=='edge') {
      edges[i].setAttribute('class','edge');
    }
  }
}
]]></script>
        <defs>
                <circle id="rim" cx="0" cy="0" r="7"/>
                <circle id="rim2" cx="0" cy="0" r="3.5"/>
                <g id="zoomPlus">
                        <use xlink:href="#rim" fill="#404040">
                                <set attributeName="fill" to="#808080" begin="zoomplus.mouseover" end="zoomplus.mouseout"/>
                        </use>
                        <path d="M-4,0h8M0,-4v8" fill="none" stroke="white" stroke-width="1.5" pointer-events="none"/>
                </g>
                <g id="zoomMin">
                        <use xlink:href="#rim" fill="#404040">
                                <set attributeName="fill" to="#808080" begin="zoomminus.mouseover" end="zoomminus.mouseout"/>
                        </use>
                        <path d="M-4,0h8" fill="none" stroke="white" stroke-width="1.5" pointer-events="none"/>
                </g>
                <g id="dirArrow">
                        <path fill="none" stroke="white" stroke-width="1.5" d="M0,-3.0v7 M-2.5,-0.5L0,-3.0L2.5,-0.5"/>
                </g>
               <g id="resetDef">
                       <use xlink:href="#rim2" fill="#404040">
                               <set attributeName="fill" to="#808080" begin="reset.mouseover" end="reset.mouseout"/>
                       </use>
               </g>
        </defs>

<script type="text/javascript">
var viewWidth = 1812;
var viewHeight = 514;
var sectionId = 'dynsection-0';
</script>
<script xlink:href="../../svgpan.js"/>
<svg id="graph" class="graph">
<g id="viewport">
<title>/home/travis/build/AliceO2Group/AliceO2/Detectors/PHOS/reconstruction/src/Clusterer.cxx</title>
<!-- Node1 -->
<g id="node1" class="node"><title>Node1</title>
<polygon fill="#bfbfbf" stroke="black" points="1485,-453 1485,-505 1643,-505 1643,-453 1485,-453"/>
<text text-anchor="start" x="1493" y="-493" font-family="Helvetica,sans-Serif" font-size="10.00">/home/travis/build</text>
<text text-anchor="start" x="1493" y="-482" font-family="Helvetica,sans-Serif" font-size="10.00">/AliceO2Group/AliceO2</text>
<text text-anchor="start" x="1493" y="-471" font-family="Helvetica,sans-Serif" font-size="10.00">/Detectors/PHOS/reconstruction</text>
<text text-anchor="middle" x="1564" y="-460" font-family="Helvetica,sans-Serif" font-size="10.00">/src/Clusterer.cxx</text>
</g>
<!-- Node2 -->
<g id="node2" class="node"><title>Node2</title>
<g id="a_node2"><a xlink:href="../../d1/d34/PHOS_2reconstruction_2include_2PHOSReconstruction_2Clusterer_8h.html" target="_top" xlink:title="PHOSReconstruction\l/Clusterer.h">
<polygon fill="none" stroke="black" points="1566.5,-261 1566.5,-291 1677.5,-291 1677.5,-261 1566.5,-261"/>
<text text-anchor="start" x="1574.5" y="-279" font-family="Helvetica,sans-Serif" font-size="10.00">PHOSReconstruction</text>
<text text-anchor="middle" x="1622" y="-268" font-family="Helvetica,sans-Serif" font-size="10.00">/Clusterer.h</text>
</a>
</g>
</g>
<!-- Node1&#45;&gt;Node2 -->
<g id="edge1" class="edge"><title>Node1&#45;&gt;Node2</title>
<path fill="none" stroke="midnightblue" d="M1563.26,-452.836C1563.22,-422.194 1566.01,-369.405 1583,-328 1587.25,-317.637 1594.18,-307.55 1601.02,-299.12"/>
<polygon fill="midnightblue" stroke="midnightblue" points="1603.88,-301.163 1607.73,-291.294 1598.57,-296.605 1603.88,-301.163"/>
</g>
<!-- Node4 -->
<g id="node4" class="node"><title>Node4</title>
<g id="a_node4"><a xlink:href="../../d9/dad/Detectors_2PHOS_2reconstruction_2include_2PHOSReconstruction_2Cluster_8h.html" target="_top" xlink:title="PHOSReconstruction\l/Cluster.h">
<polygon fill="none" stroke="black" points="1424.5,-385 1424.5,-415 1535.5,-415 1535.5,-385 1424.5,-385"/>
<text text-anchor="start" x="1432.5" y="-403" font-family="Helvetica,sans-Serif" font-size="10.00">PHOSReconstruction</text>
<text text-anchor="middle" x="1480" y="-392" font-family="Helvetica,sans-Serif" font-size="10.00">/Cluster.h</text>
</a>
</g>
</g>
<!-- Node1&#45;&gt;Node4 -->
<g id="edge3" class="edge"><title>Node1&#45;&gt;Node4</title>
<path fill="none" stroke="midnightblue" d="M1536.5,-452.787C1525.67,-442.861 1513.37,-431.592 1503.03,-422.106"/>
<polygon fill="midnightblue" stroke="midnightblue" points="1505.28,-419.429 1495.55,-415.252 1500.55,-424.589 1505.28,-419.429"/>
</g>
<!-- Node5 -->
<g id="node5" class="node"><title>Node5</title>
<g id="a_node5"><a xlink:href="../../d8/de9/PHOS_2base_2include_2PHOSBase_2Digit_8h.html" target="_top" xlink:title="PHOSBase/Digit.h">
<polygon fill="none" stroke="black" points="1346.5,-328.5 1346.5,-347.5 1445.5,-347.5 1445.5,-328.5 1346.5,-328.5"/>
<text text-anchor="middle" x="1396" y="-335.5" font-family="Helvetica,sans-Serif" font-size="10.00">PHOSBase/Digit.h</text>
</a>
</g>
</g>
<!-- Node1&#45;&gt;Node5 -->
<g id="edge35" class="edge"><title>Node1&#45;&gt;Node5</title>
<path fill="none" stroke="midnightblue" d="M1485,-460.397C1459.44,-451.091 1433.06,-437.05 1415,-416 1401.16,-399.869 1397.1,-375.193 1396.06,-358.143"/>
<polygon fill="midnightblue" stroke="midnightblue" points="1399.55,-357.643 1395.74,-347.756 1392.55,-357.86 1399.55,-357.643"/>
</g>
<!-- Node29 -->
<g id="node29" class="node"><title>Node29</title>
<g id="a_node29"><a xlink:href="../../d7/d7f/PHOS_2base_2include_2PHOSBase_2Geometry_8h.html" target="_top" xlink:title="PHOSBase/Geometry.h">
<polygon fill="none" stroke="black" points="1592,-390.5 1592,-409.5 1714,-409.5 1714,-390.5 1592,-390.5"/>
<text text-anchor="middle" x="1653" y="-397.5" font-family="Helvetica,sans-Serif" font-size="10.00">PHOSBase/Geometry.h</text>
</a>
</g>
</g>
<!-- Node1&#45;&gt;Node29 -->
<g id="edge31" class="edge"><title>Node1&#45;&gt;Node29</title>
<path fill="none" stroke="midnightblue" d="M1593.14,-452.787C1607.15,-440.671 1623.46,-426.553 1635.52,-416.121"/>
<polygon fill="midnightblue" stroke="midnightblue" points="1637.84,-418.747 1643.11,-409.558 1633.26,-413.454 1637.84,-418.747"/>
</g>
<!-- Node33 -->
<g id="node33" class="node"><title>Node33</title>
<polygon fill="none" stroke="#bfbfbf" points="1732.5,-390.5 1732.5,-409.5 1803.5,-409.5 1803.5,-390.5 1732.5,-390.5"/>
<text text-anchor="middle" x="1768" y="-397.5" font-family="Helvetica,sans-Serif" font-size="10.00">FairLogger.h</text>
</g>
<!-- Node1&#45;&gt;Node33 -->
<g id="edge36" class="edge"><title>Node1&#45;&gt;Node33</title>
<path fill="none" stroke="midnightblue" d="M1630.51,-452.894C1665.88,-439.546 1707.74,-423.745 1735.9,-413.114"/>
<polygon fill="midnightblue" stroke="midnightblue" points="1737.14,-416.389 1745.26,-409.583 1734.67,-409.84 1737.14,-416.389"/>
</g>
<!-- Node3 -->
<g id="node3" class="node"><title>Node3</title>
<polygon fill="none" stroke="#bfbfbf" points="1600,-74.5 1600,-93.5 1656,-93.5 1656,-74.5 1600,-74.5"/>
<text text-anchor="middle" x="1628" y="-81.5" font-family="Helvetica,sans-Serif" font-size="10.00">Rtypes.h</text>
</g>
<!-- Node2&#45;&gt;Node3 -->
<g id="edge2" class="edge"><title>Node2&#45;&gt;Node3</title>
<path fill="none" stroke="midnightblue" d="M1622.45,-260.719C1623.52,-226.932 1626.2,-142.075 1627.4,-104.004"/>
<polygon fill="midnightblue" stroke="midnightblue" points="1630.9,-103.904 1627.72,-93.7988 1623.91,-103.683 1630.9,-103.904"/>
</g>
<!-- Node4&#45;&gt;Node5 -->
<g id="edge4" class="edge"><title>Node4&#45;&gt;Node5</title>
<path fill="none" stroke="midnightblue" d="M1460.09,-384.781C1447.01,-375.433 1429.92,-363.227 1416.68,-353.77"/>
<polygon fill="midnightblue" stroke="midnightblue" points="1418.39,-350.695 1408.22,-347.731 1414.33,-356.391 1418.39,-350.695"/>
</g>
<!-- Node7 -->
<g id="node7" class="node"><title>Node7</title>
<g id="a_node7"><a xlink:href="../../d7/dcd/MCCompLabel_8h.html" target="_top" xlink:title="SimulationDataFormat\l/MCCompLabel.h">
<polygon fill="none" stroke="black" points="1423,-261 1423,-291 1537,-291 1537,-261 1423,-261"/>
<text text-anchor="start" x="1431" y="-279" font-family="Helvetica,sans-Serif" font-size="10.00">SimulationDataFormat</text>
<text text-anchor="middle" x="1480" y="-268" font-family="Helvetica,sans-Serif" font-size="10.00">/MCCompLabel.h</text>
</a>
</g>
</g>
<!-- Node4&#45;&gt;Node7 -->
<g id="edge30" class="edge"><title>Node4&#45;&gt;Node7</title>
<path fill="none" stroke="midnightblue" d="M1480,-384.526C1480,-363.963 1480,-326.033 1480,-301.163"/>
<polygon fill="midnightblue" stroke="midnightblue" points="1483.5,-301.079 1480,-291.079 1476.5,-301.079 1483.5,-301.079"/>
</g>
<!-- Node6 -->
<g id="node6" class="node"><title>Node6</title>
<g id="a_node6"><a xlink:href="../../df/d5d/common_2include_2CommonDataFormat_2TimeStamp_8h.html" target="_top" xlink:title="CommonDataFormat/TimeStamp.h">
<polygon fill="none" stroke="black" points="1284,-198.5 1284,-217.5 1454,-217.5 1454,-198.5 1284,-198.5"/>
<text text-anchor="middle" x="1369" y="-205.5" font-family="Helvetica,sans-Serif" font-size="10.00">CommonDataFormat/TimeStamp.h</text>
</a>
</g>
</g>
<!-- Node5&#45;&gt;Node6 -->
<g id="edge5" class="edge"><title>Node5&#45;&gt;Node6</title>
<path fill="none" stroke="midnightblue" d="M1394.14,-328.202C1389.79,-307.551 1378.83,-255.606 1372.92,-227.594"/>
<polygon fill="midnightblue" stroke="midnightblue" points="1376.29,-226.585 1370.8,-217.522 1369.44,-228.03 1376.29,-226.585"/>
</g>
<!-- Node5&#45;&gt;Node7 -->
<g id="edge7" class="edge"><title>Node5&#45;&gt;Node7</title>
<path fill="none" stroke="midnightblue" d="M1408.04,-328.403C1419.41,-320.277 1436.91,-307.779 1451.8,-297.142"/>
<polygon fill="midnightblue" stroke="midnightblue" points="1454.1,-299.801 1460.2,-291.141 1450.03,-294.105 1454.1,-299.801"/>
</g>
<!-- Node9 -->
<g id="node9" class="node"><title>Node9</title>
<g id="a_node9"><a xlink:href="../../d1/def/PHOS_2base_2include_2PHOSBase_2Hit_8h.html" target="_top" xlink:title="PHOSBase/Hit.h">
<polygon fill="none" stroke="black" points="944,-266.5 944,-285.5 1036,-285.5 1036,-266.5 944,-266.5"/>
<text text-anchor="middle" x="990" y="-273.5" font-family="Helvetica,sans-Serif" font-size="10.00">PHOSBase/Hit.h</text>
</a>
</g>
</g>
<!-- Node5&#45;&gt;Node9 -->
<g id="edge9" class="edge"><title>Node5&#45;&gt;Node9</title>
<path fill="none" stroke="midnightblue" d="M1346.22,-329.643C1270.33,-318.427 1126.13,-297.118 1046.45,-285.342"/>
<polygon fill="midnightblue" stroke="midnightblue" points="1046.52,-281.815 1036.12,-283.815 1045.5,-288.74 1046.52,-281.815"/>
</g>
<!-- Node6&#45;&gt;Node3 -->
<g id="edge6" class="edge"><title>Node6&#45;&gt;Node3</title>
<path fill="none" stroke="midnightblue" d="M1387.21,-198.421C1431.98,-177.333 1547.61,-122.868 1600.66,-97.8779"/>
<polygon fill="midnightblue" stroke="midnightblue" points="1602.25,-100.997 1609.81,-93.5693 1599.27,-94.6644 1602.25,-100.997"/>
</g>
<!-- Node8 -->
<g id="node8" class="node"><title>Node8</title>
<polygon fill="none" stroke="#bfbfbf" points="1472,-198.5 1472,-217.5 1600,-217.5 1600,-198.5 1472,-198.5"/>
<text text-anchor="middle" x="1536" y="-205.5" font-family="Helvetica,sans-Serif" font-size="10.00">AliTPCCommonRtypes.h</text>
</g>
<!-- Node7&#45;&gt;Node8 -->
<g id="edge8" class="edge"><title>Node7&#45;&gt;Node8</title>
<path fill="none" stroke="midnightblue" d="M1492.15,-260.679C1500.88,-250.388 1512.68,-236.484 1521.84,-225.69"/>
<polygon fill="midnightblue" stroke="midnightblue" points="1524.71,-227.718 1528.51,-217.828 1519.37,-223.189 1524.71,-227.718"/>
</g>
<!-- Node10 -->
<g id="node10" class="node"><title>Node10</title>
<g id="a_node10"><a xlink:href="../../d4/d25/BaseHits_8h.html" target="_top" xlink:title="SimulationDataFormat\l/BaseHits.h">
<polygon fill="none" stroke="black" points="933,-193 933,-223 1047,-223 1047,-193 933,-193"/>
<text text-anchor="start" x="941" y="-211" font-family="Helvetica,sans-Serif" font-size="10.00">SimulationDataFormat</text>
<text text-anchor="middle" x="990" y="-200" font-family="Helvetica,sans-Serif" font-size="10.00">/BaseHits.h</text>
</a>
</g>
</g>
<!-- Node9&#45;&gt;Node10 -->
<g id="edge10" class="edge"><title>Node9&#45;&gt;Node10</title>
<path fill="none" stroke="midnightblue" d="M990,-266.372C990,-257.971 990,-244.811 990,-233.213"/>
<polygon fill="midnightblue" stroke="midnightblue" points="993.5,-233.181 990,-223.181 986.5,-233.181 993.5,-233.181"/>
</g>
<!-- Node22 -->
<g id="node22" class="node"><title>Node22</title>
<g id="a_node22"><a xlink:href="../../d0/d91/ShmAllocator_8h.html" target="_top" xlink:title="CommonUtils/ShmAllocator.h">
<polygon fill="none" stroke="black" points="500,-198.5 500,-217.5 646,-217.5 646,-198.5 500,-198.5"/>
<text text-anchor="middle" x="573" y="-205.5" font-family="Helvetica,sans-Serif" font-size="10.00">CommonUtils/ShmAllocator.h</text>
</a>
</g>
</g>
<!-- Node9&#45;&gt;Node22 -->
<g id="edge23" class="edge"><title>Node9&#45;&gt;Node22</title>
<path fill="none" stroke="midnightblue" d="M943.78,-267.685C869.099,-255.865 721.723,-232.539 636.996,-219.129"/>
<polygon fill="midnightblue" stroke="midnightblue" points="637.407,-215.65 626.983,-217.544 636.313,-222.564 637.407,-215.65"/>
</g>
<!-- Node11 -->
<g id="node11" class="node"><title>Node11</title>
<g id="a_node11"><a xlink:href="../../dd/d76/Cartesian3D_8h.html" target="_top" xlink:title="MathUtils/Cartesian3D.h">
<polygon fill="none" stroke="black" points="927.5,-136.5 927.5,-155.5 1052.5,-155.5 1052.5,-136.5 927.5,-136.5"/>
<text text-anchor="middle" x="990" y="-143.5" font-family="Helvetica,sans-Serif" font-size="10.00">MathUtils/Cartesian3D.h</text>
</a>
</g>
</g>
<!-- Node10&#45;&gt;Node11 -->
<g id="edge11" class="edge"><title>Node10&#45;&gt;Node11</title>
<path fill="none" stroke="midnightblue" d="M990,-192.781C990,-184.781 990,-174.689 990,-166.017"/>
<polygon fill="midnightblue" stroke="midnightblue" points="993.5,-165.73 990,-155.731 986.5,-165.731 993.5,-165.73"/>
</g>
<!-- Node11&#45;&gt;Node3 -->
<g id="edge17" class="edge"><title>Node11&#45;&gt;Node3</title>
<path fill="none" stroke="midnightblue" d="M1052.54,-142.772C1185.01,-137.653 1490.01,-123.64 1591,-100 1594.07,-99.2807 1597.22,-98.3427 1600.33,-97.2867"/>
<polygon fill="midnightblue" stroke="midnightblue" points="1601.82,-100.462 1609.92,-93.6339 1599.33,-93.9199 1601.82,-100.462"/>
</g>
<!-- Node12 -->
<g id="node12" class="node"><title>Node12</title>
<polygon fill="none" stroke="#bfbfbf" points="1070.5,-69 1070.5,-99 1221.5,-99 1221.5,-69 1070.5,-69"/>
<text text-anchor="start" x="1078.5" y="-87" font-family="Helvetica,sans-Serif" font-size="10.00">Math/GenVector/Displacement</text>
<text text-anchor="middle" x="1146" y="-76" font-family="Helvetica,sans-Serif" font-size="10.00">Vector3D.h</text>
</g>
<!-- Node11&#45;&gt;Node12 -->
<g id="edge12" class="edge"><title>Node11&#45;&gt;Node12</title>
<path fill="none" stroke="midnightblue" d="M1012.35,-136.403C1035.13,-127.641 1071.14,-113.794 1100.03,-102.679"/>
<polygon fill="midnightblue" stroke="midnightblue" points="1101.46,-105.882 1109.53,-99.0253 1098.94,-99.3485 1101.46,-105.882"/>
</g>
<!-- Node13 -->
<g id="node13" class="node"><title>Node13</title>
<polygon fill="none" stroke="#bfbfbf" points="1240,-74.5 1240,-93.5 1416,-93.5 1416,-74.5 1240,-74.5"/>
<text text-anchor="middle" x="1328" y="-81.5" font-family="Helvetica,sans-Serif" font-size="10.00">Math/GenVector/PositionVector3D.h</text>
</g>
<!-- Node11&#45;&gt;Node13 -->
<g id="edge13" class="edge"><title>Node11&#45;&gt;Node13</title>
<path fill="none" stroke="midnightblue" d="M1038.07,-136.467C1099.14,-125.626 1204.45,-106.932 1269.94,-95.3062"/>
<polygon fill="midnightblue" stroke="midnightblue" points="1270.86,-98.6974 1280.1,-93.5034 1269.64,-91.8052 1270.86,-98.6974"/>
</g>
<!-- Node14 -->
<g id="node14" class="node"><title>Node14</title>
<polygon fill="none" stroke="#bfbfbf" points="1433.5,-74.5 1433.5,-93.5 1582.5,-93.5 1582.5,-74.5 1433.5,-74.5"/>
<text text-anchor="middle" x="1508" y="-81.5" font-family="Helvetica,sans-Serif" font-size="10.00">Math/GenVector/Rotation3D.h</text>
</g>
<!-- Node11&#45;&gt;Node14 -->
<g id="edge14" class="edge"><title>Node11&#45;&gt;Node14</title>
<path fill="none" stroke="midnightblue" d="M1052.7,-139.953C1137.24,-132.817 1292.36,-118.553 1424,-100 1433.58,-98.6497 1443.74,-97.0121 1453.56,-95.3216"/>
<polygon fill="midnightblue" stroke="midnightblue" points="1454.39,-98.7297 1463.63,-93.5507 1453.18,-91.8355 1454.39,-98.7297"/>
</g>
<!-- Node15 -->
<g id="node15" class="node"><title>Node15</title>
<polygon fill="none" stroke="#bfbfbf" points="418,-74.5 418,-93.5 574,-93.5 574,-74.5 418,-74.5"/>
<text text-anchor="middle" x="496" y="-81.5" font-family="Helvetica,sans-Serif" font-size="10.00">Math/GenVector/Transform3D.h</text>
</g>
<!-- Node11&#45;&gt;Node15 -->
<g id="edge15" class="edge"><title>Node11&#45;&gt;Node15</title>
<path fill="none" stroke="midnightblue" d="M927.449,-139.272C847.419,-131.671 704.6,-117.189 583,-100 573.098,-98.6002 562.591,-96.9395 552.432,-95.2419"/>
<polygon fill="midnightblue" stroke="midnightblue" points="552.869,-91.766 542.423,-93.5401 551.695,-98.6669 552.869,-91.766"/>
</g>
<!-- Node16 -->
<g id="node16" class="node"><title>Node16</title>
<polygon fill="none" stroke="#bfbfbf" points="592,-74.5 592,-93.5 752,-93.5 752,-74.5 592,-74.5"/>
<text text-anchor="middle" x="672" y="-81.5" font-family="Helvetica,sans-Serif" font-size="10.00">Math/GenVector/Translation3D.h</text>
</g>
<!-- Node11&#45;&gt;Node16 -->
<g id="edge16" class="edge"><title>Node11&#45;&gt;Node16</title>
<path fill="none" stroke="midnightblue" d="M944.776,-136.467C887.438,-125.649 788.646,-107.009 727.004,-95.3781"/>
<polygon fill="midnightblue" stroke="midnightblue" points="727.544,-91.9182 717.068,-93.5034 726.246,-98.7969 727.544,-91.9182"/>
</g>
<!-- Node17 -->
<g id="node17" class="node"><title>Node17</title>
<polygon fill="none" stroke="#bfbfbf" points="770,-74.5 770,-93.5 846,-93.5 846,-74.5 770,-74.5"/>
<text text-anchor="middle" x="808" y="-81.5" font-family="Helvetica,sans-Serif" font-size="10.00">TGeoMatrix.h</text>
</g>
<!-- Node11&#45;&gt;Node17 -->
<g id="edge18" class="edge"><title>Node11&#45;&gt;Node17</title>
<path fill="none" stroke="midnightblue" d="M963.924,-136.403C932.434,-126.022 879.302,-108.506 843.942,-96.849"/>
<polygon fill="midnightblue" stroke="midnightblue" points="844.621,-93.3876 834.028,-93.5806 842.429,-100.036 844.621,-93.3876"/>
</g>
<!-- Node18 -->
<g id="node18" class="node"><title>Node18</title>
<polygon fill="none" stroke="#bfbfbf" points="864.5,-74.5 864.5,-93.5 909.5,-93.5 909.5,-74.5 864.5,-74.5"/>
<text text-anchor="middle" x="887" y="-81.5" font-family="Helvetica,sans-Serif" font-size="10.00">iosfwd</text>
</g>
<!-- Node11&#45;&gt;Node18 -->
<g id="edge19" class="edge"><title>Node11&#45;&gt;Node18</title>
<path fill="none" stroke="midnightblue" d="M975.243,-136.403C958.339,-126.557 930.417,-110.291 910.51,-98.6949"/>
<polygon fill="midnightblue" stroke="midnightblue" points="912.133,-95.5898 901.73,-93.5806 908.609,-101.638 912.133,-95.5898"/>
</g>
<!-- Node19 -->
<g id="node19" class="node"><title>Node19</title>
<g id="a_node19"><a xlink:href="../../d2/dd0/Cartesian2D_8h.html" target="_top" xlink:title="MathUtils/Cartesian2D.h">
<polygon fill="none" stroke="black" points="927.5,-74.5 927.5,-93.5 1052.5,-93.5 1052.5,-74.5 927.5,-74.5"/>
<text text-anchor="middle" x="990" y="-81.5" font-family="Helvetica,sans-Serif" font-size="10.00">MathUtils/Cartesian2D.h</text>
</a>
</g>
</g>
<!-- Node11&#45;&gt;Node19 -->
<g id="edge20" class="edge"><title>Node11&#45;&gt;Node19</title>
<path fill="none" stroke="midnightblue" d="M990,-136.403C990,-127.938 990,-114.728 990,-103.82"/>
<polygon fill="midnightblue" stroke="midnightblue" points="993.5,-103.581 990,-93.5806 986.5,-103.581 993.5,-103.581"/>
</g>
<!-- Node20 -->
<g id="node20" class="node"><title>Node20</title>
<polygon fill="none" stroke="#bfbfbf" points="823.5,-1 823.5,-31 974.5,-31 974.5,-1 823.5,-1"/>
<text text-anchor="start" x="831.5" y="-19" font-family="Helvetica,sans-Serif" font-size="10.00">Math/GenVector/Displacement</text>
<text text-anchor="middle" x="899" y="-8" font-family="Helvetica,sans-Serif" font-size="10.00">Vector2D.h</text>
</g>
<!-- Node19&#45;&gt;Node20 -->
<g id="edge21" class="edge"><title>Node19&#45;&gt;Node20</title>
<path fill="none" stroke="midnightblue" d="M978.103,-74.3717C965.221,-65.0286 944.22,-49.7966 927.093,-37.375"/>
<polygon fill="midnightblue" stroke="midnightblue" points="928.703,-34.2194 918.553,-31.1815 924.593,-39.8859 928.703,-34.2194"/>
</g>
<!-- Node21 -->
<g id="node21" class="node"><title>Node21</title>
<polygon fill="none" stroke="#bfbfbf" points="993,-6.5 993,-25.5 1169,-25.5 1169,-6.5 993,-6.5"/>
<text text-anchor="middle" x="1081" y="-13.5" font-family="Helvetica,sans-Serif" font-size="10.00">Math/GenVector/PositionVector2D.h</text>
</g>
<!-- Node19&#45;&gt;Node21 -->
<g id="edge22" class="edge"><title>Node19&#45;&gt;Node21</title>
<path fill="none" stroke="midnightblue" d="M1001.9,-74.3717C1016.88,-63.5015 1042.86,-44.6602 1060.94,-31.5474"/>
<polygon fill="midnightblue" stroke="midnightblue" points="1063.06,-34.3349 1069.1,-25.6305 1058.95,-28.6684 1063.06,-34.3349"/>
</g>
<!-- Node23 -->
<g id="node23" class="node"><title>Node23</title>
<g id="a_node23"><a xlink:href="../../de/d61/ShmManager_8h.html" target="_top" xlink:title="CommonUtils/ShmManager.h">
<polygon fill="none" stroke="black" points="115,-136.5 115,-155.5 261,-155.5 261,-136.5 115,-136.5"/>
<text text-anchor="middle" x="188" y="-143.5" font-family="Helvetica,sans-Serif" font-size="10.00">CommonUtils/ShmManager.h</text>
</a>
</g>
</g>
<!-- Node22&#45;&gt;Node23 -->
<g id="edge24" class="edge"><title>Node22&#45;&gt;Node23</title>
<path fill="none" stroke="midnightblue" d="M518.248,-198.467C448.257,-187.559 327.246,-168.701 252.755,-157.092"/>
<polygon fill="midnightblue" stroke="midnightblue" points="252.983,-153.585 242.563,-155.503 251.905,-160.502 252.983,-153.585"/>
</g>
<!-- Node28 -->
<g id="node28" class="node"><title>Node28</title>
<polygon fill="none" stroke="#bfbfbf" points="548.5,-136.5 548.5,-155.5 597.5,-155.5 597.5,-136.5 548.5,-136.5"/>
<text text-anchor="middle" x="573" y="-143.5" font-family="Helvetica,sans-Serif" font-size="10.00">cassert</text>
</g>
<!-- Node22&#45;&gt;Node28 -->
<g id="edge29" class="edge"><title>Node22&#45;&gt;Node28</title>
<path fill="none" stroke="midnightblue" d="M573,-198.403C573,-189.938 573,-176.728 573,-165.82"/>
<polygon fill="midnightblue" stroke="midnightblue" points="576.5,-165.581 573,-155.581 569.5,-165.581 576.5,-165.581"/>
</g>
<!-- Node24 -->
<g id="node24" class="node"><title>Node24</title>
<polygon fill="none" stroke="#bfbfbf" points="-0.5,-74.5 -0.5,-93.5 28.5,-93.5 28.5,-74.5 -0.5,-74.5"/>
<text text-anchor="middle" x="14" y="-81.5" font-family="Helvetica,sans-Serif" font-size="10.00">list</text>
</g>
<!-- Node23&#45;&gt;Node24 -->
<g id="edge25" class="edge"><title>Node23&#45;&gt;Node24</title>
<path fill="none" stroke="midnightblue" d="M148.073,-136.436C116.955,-128.977 73.115,-116.728 37,-100 36.1673,-99.6143 35.3298,-99.2018 34.4929,-98.7687"/>
<polygon fill="midnightblue" stroke="midnightblue" points="36.1856,-95.7035 25.797,-93.6232 32.6209,-101.728 36.1856,-95.7035"/>
</g>
<!-- Node25 -->
<g id="node25" class="node"><title>Node25</title>
<polygon fill="none" stroke="#bfbfbf" points="46.5,-74.5 46.5,-93.5 95.5,-93.5 95.5,-74.5 46.5,-74.5"/>
<text text-anchor="middle" x="71" y="-81.5" font-family="Helvetica,sans-Serif" font-size="10.00">cstddef</text>
</g>
<!-- Node23&#45;&gt;Node25 -->
<g id="edge26" class="edge"><title>Node23&#45;&gt;Node25</title>
<path fill="none" stroke="midnightblue" d="M171.237,-136.403C151.775,-126.423 119.455,-109.849 96.7893,-98.2253"/>
<polygon fill="midnightblue" stroke="midnightblue" points="98.2275,-95.0294 87.7322,-93.5806 95.0332,-101.258 98.2275,-95.0294"/>
</g>
<!-- Node26 -->
<g id="node26" class="node"><title>Node26</title>
<polygon fill="none" stroke="#bfbfbf" points="114,-69 114,-99 262,-99 262,-69 114,-69"/>
<text text-anchor="start" x="122" y="-87" font-family="Helvetica,sans-Serif" font-size="10.00">boost/interprocess</text>
<text text-anchor="middle" x="188" y="-76" font-family="Helvetica,sans-Serif" font-size="10.00">/managed_external_buffer.hpp</text>
</g>
<!-- Node23&#45;&gt;Node26 -->
<g id="edge27" class="edge"><title>Node23&#45;&gt;Node26</title>
<path fill="none" stroke="midnightblue" d="M188,-136.403C188,-129.341 188,-118.975 188,-109.399"/>
<polygon fill="midnightblue" stroke="midnightblue" points="191.5,-109.141 188,-99.1408 184.5,-109.141 191.5,-109.141"/>
</g>
<!-- Node27 -->
<g id="node27" class="node"><title>Node27</title>
<polygon fill="none" stroke="#bfbfbf" points="280,-69 280,-99 400,-99 400,-69 280,-69"/>
<text text-anchor="start" x="288" y="-87" font-family="Helvetica,sans-Serif" font-size="10.00">boost/interprocess</text>
<text text-anchor="middle" x="340" y="-76" font-family="Helvetica,sans-Serif" font-size="10.00">/allocators/allocator.hpp</text>
</g>
<!-- Node23&#45;&gt;Node27 -->
<g id="edge28" class="edge"><title>Node23&#45;&gt;Node27</title>
<path fill="none" stroke="midnightblue" d="M209.778,-136.403C231.881,-127.679 266.75,-113.914 294.846,-102.824"/>
<polygon fill="midnightblue" stroke="midnightblue" points="296.453,-105.953 304.469,-99.0253 293.883,-99.4415 296.453,-105.953"/>
</g>
<!-- Node30 -->
<g id="node30" class="node"><title>Node30</title>
<polygon fill="none" stroke="#bfbfbf" points="1592.5,-328.5 1592.5,-347.5 1633.5,-347.5 1633.5,-328.5 1592.5,-328.5"/>
<text text-anchor="middle" x="1613" y="-335.5" font-family="Helvetica,sans-Serif" font-size="10.00">string</text>
</g>
<!-- Node29&#45;&gt;Node30 -->
<g id="edge32" class="edge"><title>Node29&#45;&gt;Node30</title>
<path fill="none" stroke="midnightblue" d="M1647.27,-390.403C1641.33,-381.493 1631.88,-367.325 1624.41,-356.118"/>
<polygon fill="midnightblue" stroke="midnightblue" points="1627.18,-353.96 1618.72,-347.581 1621.36,-357.843 1627.18,-353.96"/>
</g>
<!-- Node31 -->
<g id="node31" class="node"><title>Node31</title>
<polygon fill="none" stroke="#bfbfbf" points="1652,-328.5 1652,-347.5 1732,-347.5 1732,-328.5 1652,-328.5"/>
<text text-anchor="middle" x="1692" y="-335.5" font-family="Helvetica,sans-Serif" font-size="10.00">RStringView.h</text>
</g>
<!-- Node29&#45;&gt;Node31 -->
<g id="edge33" class="edge"><title>Node29&#45;&gt;Node31</title>
<path fill="none" stroke="midnightblue" d="M1658.59,-390.403C1664.38,-381.493 1673.59,-367.325 1680.87,-356.118"/>
<polygon fill="midnightblue" stroke="midnightblue" points="1683.91,-357.873 1686.42,-347.581 1678.04,-354.058 1683.91,-357.873"/>
</g>
<!-- Node32 -->
<g id="node32" class="node"><title>Node32</title>
<polygon fill="none" stroke="#bfbfbf" points="1750.5,-328.5 1750.5,-347.5 1803.5,-347.5 1803.5,-328.5 1750.5,-328.5"/>
<text text-anchor="middle" x="1777" y="-335.5" font-family="Helvetica,sans-Serif" font-size="10.00">TMath.h</text>
</g>
<!-- Node29&#45;&gt;Node32 -->
<g id="edge34" class="edge"><title>Node29&#45;&gt;Node32</title>
<path fill="none" stroke="midnightblue" d="M1670.77,-390.403C1691.48,-380.379 1725.95,-363.701 1749.99,-352.07"/>
<polygon fill="midnightblue" stroke="midnightblue" points="1751.79,-355.087 1759.27,-347.581 1748.74,-348.786 1751.79,-355.087"/>
</g>
</g>
</svg>
        <g id="navigator" transform="translate(0 0)" fill="#404254">
                <rect fill="#f2f5e9" fill-opacity="0.5" stroke="#606060" stroke-width=".5" x="0" y="0" width="60" height="60"/>
                <use id="zoomplus" xlink:href="#zoomPlus" x="17" y="9" onmousedown="handleZoom(evt,'in')"/>
                <use id="zoomminus" xlink:href="#zoomMin" x="42" y="9" onmousedown="handleZoom(evt,'out')"/>
                <use id="reset" xlink:href="#resetDef" x="30" y="36" onmousedown="handleReset()"/>
                <g id="arrowUp" xlink:href="#dirArrow" transform="translate(30 24)" onmousedown="handlePan(0,-1)">
                  <use xlink:href="#rim" fill="#404040">
                        <set attributeName="fill" to="#808080" begin="arrowUp.mouseover" end="arrowUp.mouseout"/>
                  </use>
                  <path fill="none" stroke="white" stroke-width="1.5" d="M0,-3.0v7 M-2.5,-0.5L0,-3.0L2.5,-0.5"/>
                </g>
                <g id="arrowRight" xlink:href="#dirArrow" transform="rotate(90) translate(36 -43)" onmousedown="handlePan(1,0)">
                  <use xlink:href="#rim" fill="#404040">
                        <set attributeName="fill" to="#808080" begin="arrowRight.mouseover" end="arrowRight.mouseout"/>
                  </use>
                  <path fill="none" stroke="white" stroke-width="1.5" d="M0,-3.0v7 M-2.5,-0.5L0,-3.0L2.5,-0.5"/>
                </g>
                <g id="arrowDown" xlink:href="#dirArrow" transform="rotate(180) translate(-30 -48)" onmousedown="handlePan(0,1)">
                  <use xlink:href="#rim" fill="#404040">
                        <set attributeName="fill" to="#808080" begin="arrowDown.mouseover" end="arrowDown.mouseout"/>
                  </use>
                  <path fill="none" stroke="white" stroke-width="1.5" d="M0,-3.0v7 M-2.5,-0.5L0,-3.0L2.5,-0.5"/>
                </g>
                <g id="arrowLeft" xlink:href="#dirArrow" transform="rotate(270) translate(-36 17)" onmousedown="handlePan(-1,0)">
                  <use xlink:href="#rim" fill="#404040">
                        <set attributeName="fill" to="#808080" begin="arrowLeft.mouseover" end="arrowLeft.mouseout"/>
                  </use>
                  <path fill="none" stroke="white" stroke-width="1.5" d="M0,-3.0v7 M-2.5,-0.5L0,-3.0L2.5,-0.5"/>
                </g>
        </g>
        <svg viewBox="0 0 15 15" width="100%" height="30px" preserveAspectRatio="xMaxYMin meet">
         <g id="arrow_out" transform="scale(0.3 0.3)">
          <a xlink:href="PHOS_2reconstruction_2src_2Clusterer_8cxx__incl_org.svg" target="_base">
           <rect id="button" ry="5" rx="5" y="6" x="6" height="38" width="38"
                fill="#f2f5e9" fill-opacity="0.5" stroke="#606060" stroke-width="1.0"/>
           <path id="arrow"
             d="M 11.500037,31.436501 C 11.940474,20.09759 22.043105,11.32322 32.158766,21.979434 L 37.068811,17.246167 C 37.068811,17.246167 37.088388,32 37.088388,32 L 22.160133,31.978069 C 22.160133,31.978069 26.997745,27.140456 26.997745,27.140456 C 18.528582,18.264221 13.291696,25.230495 11.500037,31.436501 z"
             style="fill:#404040;"/>
          </a>
         </g>
        </svg>
</svg>
