<?xml version="1.0" encoding="UTF-8" standalone="no"?>
<!DOCTYPE svg PUBLIC "-//W3C//DTD SVG 1.1//EN"
 "http://www.w3.org/Graphics/SVG/1.1/DTD/svg11.dtd">
<!-- Generated by graphviz version 2.36.0 (20140111.2315)
 -->
<!-- Title: o2::mid::Hit Pages: 1 -->
<svg width="221pt" height="818pt"
 viewBox="0.00 0.00 221.00 818.00" xmlns="http://www.w3.org/2000/svg" xmlns:xlink="http://www.w3.org/1999/xlink">
<g id="graph0" class="graph" transform="scale(1 1) rotate(0) translate(4 814)">
<title>o2::mid::Hit</title>
<!-- Node1 -->
<g id="node1" class="node"><title>Node1</title>
<polygon fill="#bfbfbf" stroke="black" points="21,-0.5 21,-101.5 113,-101.5 113,-0.5 21,-0.5"/>
<text text-anchor="middle" x="67" y="-89.5" font-family="Helvetica,sans-Serif" font-size="10.00">o2::mid::Hit</text>
<polyline fill="none" stroke="black" points="21,-82.5 113,-82.5 "/>
<text text-anchor="middle" x="67" y="-70.5" font-family="Helvetica,sans-Serif" font-size="10.00"> </text>
<polyline fill="none" stroke="black" points="21,-63.5 113,-63.5 "/>
<text text-anchor="start" x="29" y="-51.5" font-family="Helvetica,sans-Serif" font-size="10.00">+ Hit()</text>
<text text-anchor="start" x="29" y="-40.5" font-family="Helvetica,sans-Serif" font-size="10.00">+ entrancePoint()</text>
<text text-anchor="start" x="29" y="-29.5" font-family="Helvetica,sans-Serif" font-size="10.00">+ exitPoint()</text>
<text text-anchor="start" x="29" y="-18.5" font-family="Helvetica,sans-Serif" font-size="10.00">+ middlePoint()</text>
<text text-anchor="start" x="29" y="-7.5" font-family="Helvetica,sans-Serif" font-size="10.00">+ detElemId()</text>
</g>
<!-- Node2 -->
<g id="node2" class="node"><title>Node2</title>
<g id="a_node2"><a xlink:href="../../de/d90/classo2_1_1BasicXYZEHit.html" target="_top" xlink:title="{o2::BasicXYZEHit\&lt; float \&gt;\n||+ BasicXYZEHit()\l+ BasicXYZEHit()\l+ GetX()\l+ GetY()\l+ GetZ()\l+ GetPos()\l+ GetEnergyLoss()\l+ GetTime()\l+ GetDetectorID()\l+ SetTime()\l+ SetEnergyLoss()\l+ SetDetectorID()\l+ SetX()\l+ SetY()\l+ SetZ()\l+ SetXYZ()\l+ SetPos()\l+ ClassDefNV()\l}">
<polygon fill="none" stroke="black" points="0,-141 0,-385 134,-385 134,-141 0,-141"/>
<text text-anchor="middle" x="67" y="-373" font-family="Helvetica,sans-Serif" font-size="10.00">o2::BasicXYZEHit&lt; float &gt;</text>
<polyline fill="none" stroke="black" points="0,-366 134,-366 "/>
<text text-anchor="middle" x="67" y="-354" font-family="Helvetica,sans-Serif" font-size="10.00"> </text>
<polyline fill="none" stroke="black" points="0,-347 134,-347 "/>
<text text-anchor="start" x="8" y="-335" font-family="Helvetica,sans-Serif" font-size="10.00">+ BasicXYZEHit()</text>
<text text-anchor="start" x="8" y="-324" font-family="Helvetica,sans-Serif" font-size="10.00">+ BasicXYZEHit()</text>
<text text-anchor="start" x="8" y="-313" font-family="Helvetica,sans-Serif" font-size="10.00">+ GetX()</text>
<text text-anchor="start" x="8" y="-302" font-family="Helvetica,sans-Serif" font-size="10.00">+ GetY()</text>
<text text-anchor="start" x="8" y="-291" font-family="Helvetica,sans-Serif" font-size="10.00">+ GetZ()</text>
<text text-anchor="start" x="8" y="-280" font-family="Helvetica,sans-Serif" font-size="10.00">+ GetPos()</text>
<text text-anchor="start" x="8" y="-269" font-family="Helvetica,sans-Serif" font-size="10.00">+ GetEnergyLoss()</text>
<text text-anchor="start" x="8" y="-258" font-family="Helvetica,sans-Serif" font-size="10.00">+ GetTime()</text>
<text text-anchor="start" x="8" y="-247" font-family="Helvetica,sans-Serif" font-size="10.00">+ GetDetectorID()</text>
<text text-anchor="start" x="8" y="-236" font-family="Helvetica,sans-Serif" font-size="10.00">+ SetTime()</text>
<text text-anchor="start" x="8" y="-225" font-family="Helvetica,sans-Serif" font-size="10.00">+ SetEnergyLoss()</text>
<text text-anchor="start" x="8" y="-214" font-family="Helvetica,sans-Serif" font-size="10.00">+ SetDetectorID()</text>
<text text-anchor="start" x="8" y="-203" font-family="Helvetica,sans-Serif" font-size="10.00">+ SetX()</text>
<text text-anchor="start" x="8" y="-192" font-family="Helvetica,sans-Serif" font-size="10.00">+ SetY()</text>
<text text-anchor="start" x="8" y="-181" font-family="Helvetica,sans-Serif" font-size="10.00">+ SetZ()</text>
<text text-anchor="start" x="8" y="-170" font-family="Helvetica,sans-Serif" font-size="10.00">+ SetXYZ()</text>
<text text-anchor="start" x="8" y="-159" font-family="Helvetica,sans-Serif" font-size="10.00">+ SetPos()</text>
<text text-anchor="start" x="8" y="-148" font-family="Helvetica,sans-Serif" font-size="10.00">+ ClassDefNV()</text>
</a>
</g>
</g>
<!-- Node2&#45;&gt;Node1 -->
<g id="edge1" class="edge"><title>Node2&#45;&gt;Node1</title>
<path fill="none" stroke="midnightblue" d="M67,-130.609C67,-120.563 67,-110.863 67,-101.907"/>
<polygon fill="none" stroke="midnightblue" points="63.5001,-130.754 67,-140.755 70.5001,-130.755 63.5001,-130.754"/>
</g>
<!-- Node3 -->
<g id="node3" class="node"><title>Node3</title>
<g id="a_node3"><a xlink:href="../../db/dfe/classo2_1_1BaseHit.html" target="_top" xlink:title="{o2::BaseHit\n||+ BaseHit()\l+ BaseHit()\l+ GetTrackID()\l+ SetTrackID()\l}">
<polygon fill="none" stroke="black" points="39.5,-719 39.5,-809 122.5,-809 122.5,-719 39.5,-719"/>
<text text-anchor="middle" x="81" y="-797" font-family="Helvetica,sans-Serif" font-size="10.00">o2::BaseHit</text>
<polyline fill="none" stroke="black" points="39.5,-790 122.5,-790 "/>
<text text-anchor="middle" x="81" y="-778" font-family="Helvetica,sans-Serif" font-size="10.00"> </text>
<polyline fill="none" stroke="black" points="39.5,-771 122.5,-771 "/>
<text text-anchor="start" x="47.5" y="-759" font-family="Helvetica,sans-Serif" font-size="10.00">+ BaseHit()</text>
<text text-anchor="start" x="47.5" y="-748" font-family="Helvetica,sans-Serif" font-size="10.00">+ BaseHit()</text>
<text text-anchor="start" x="47.5" y="-737" font-family="Helvetica,sans-Serif" font-size="10.00">+ GetTrackID()</text>
<text text-anchor="start" x="47.5" y="-726" font-family="Helvetica,sans-Serif" font-size="10.00">+ SetTrackID()</text>
</a>
</g>
</g>
<!-- Node3&#45;&gt;Node2 -->
<g id="edge2" class="edge"><title>Node3&#45;&gt;Node2</title>
<path fill="none" stroke="midnightblue" d="M72.8028,-708.581C71.6529,-699.075 70.6448,-689.265 70,-680 63.1049,-580.932 62.7512,-468.274 63.9011,-385.205"/>
<polygon fill="none" stroke="midnightblue" points="69.3608,-709.258 74.0957,-718.736 76.3047,-708.374 69.3608,-709.258"/>
</g>
<!-- Node4 -->
<g id="node4" class="node"><title>Node4</title>
<g id="a_node4"><a xlink:href="../../de/d90/classo2_1_1BasicXYZEHit.html" target="_top" xlink:title="{o2::BasicXYZEHit\&lt; T, E \&gt;\n||+ BasicXYZEHit()\l+ BasicXYZEHit()\l+ GetX()\l+ GetY()\l+ GetZ()\l+ GetPos()\l+ GetEnergyLoss()\l+ GetTime()\l+ GetDetectorID()\l+ SetTime()\l+ SetEnergyLoss()\l+ SetDetectorID()\l+ SetX()\l+ SetY()\l+ SetZ()\l+ SetXYZ()\l+ SetPos()\l+ ClassDefNV()\l}">
<polygon fill="none" stroke="black" points="79,-435 79,-679 213,-679 213,-435 79,-435"/>
<text text-anchor="middle" x="146" y="-667" font-family="Helvetica,sans-Serif" font-size="10.00">o2::BasicXYZEHit&lt; T, E &gt;</text>
<polyline fill="none" stroke="black" points="79,-660 213,-660 "/>
<text text-anchor="middle" x="146" y="-648" font-family="Helvetica,sans-Serif" font-size="10.00"> </text>
<polyline fill="none" stroke="black" points="79,-641 213,-641 "/>
<text text-anchor="start" x="87" y="-629" font-family="Helvetica,sans-Serif" font-size="10.00">+ BasicXYZEHit()</text>
<text text-anchor="start" x="87" y="-618" font-family="Helvetica,sans-Serif" font-size="10.00">+ BasicXYZEHit()</text>
<text text-anchor="start" x="87" y="-607" font-family="Helvetica,sans-Serif" font-size="10.00">+ GetX()</text>
<text text-anchor="start" x="87" y="-596" font-family="Helvetica,sans-Serif" font-size="10.00">+ GetY()</text>
<text text-anchor="start" x="87" y="-585" font-family="Helvetica,sans-Serif" font-size="10.00">+ GetZ()</text>
<text text-anchor="start" x="87" y="-574" font-family="Helvetica,sans-Serif" font-size="10.00">+ GetPos()</text>
<text text-anchor="start" x="87" y="-563" font-family="Helvetica,sans-Serif" font-size="10.00">+ GetEnergyLoss()</text>
<text text-anchor="start" x="87" y="-552" font-family="Helvetica,sans-Serif" font-size="10.00">+ GetTime()</text>
<text text-anchor="start" x="87" y="-541" font-family="Helvetica,sans-Serif" font-size="10.00">+ GetDetectorID()</text>
<text text-anchor="start" x="87" y="-530" font-family="Helvetica,sans-Serif" font-size="10.00">+ SetTime()</text>
<text text-anchor="start" x="87" y="-519" font-family="Helvetica,sans-Serif" font-size="10.00">+ SetEnergyLoss()</text>
<text text-anchor="start" x="87" y="-508" font-family="Helvetica,sans-Serif" font-size="10.00">+ SetDetectorID()</text>
<text text-anchor="start" x="87" y="-497" font-family="Helvetica,sans-Serif" font-size="10.00">+ SetX()</text>
<text text-anchor="start" x="87" y="-486" font-family="Helvetica,sans-Serif" font-size="10.00">+ SetY()</text>
<text text-anchor="start" x="87" y="-475" font-family="Helvetica,sans-Serif" font-size="10.00">+ SetZ()</text>
<text text-anchor="start" x="87" y="-464" font-family="Helvetica,sans-Serif" font-size="10.00">+ SetXYZ()</text>
<text text-anchor="start" x="87" y="-453" font-family="Helvetica,sans-Serif" font-size="10.00">+ SetPos()</text>
<text text-anchor="start" x="87" y="-442" font-family="Helvetica,sans-Serif" font-size="10.00">+ ClassDefNV()</text>
</a>
</g>
</g>
<!-- Node3&#45;&gt;Node4 -->
<g id="edge4" class="edge"><title>Node3&#45;&gt;Node4</title>
<path fill="none" stroke="midnightblue" d="M98.0632,-709.185C101.065,-699.718 104.295,-689.53 107.611,-679.075"/>
<polygon fill="none" stroke="midnightblue" points="94.7102,-708.18 95.024,-718.77 101.383,-710.296 94.7102,-708.18"/>
</g>
<!-- Node4&#45;&gt;Node2 -->
<g id="edge3" class="edge"><title>Node4&#45;&gt;Node2</title>
<path fill="none" stroke="orange" d="M110.484,-424.727C106.941,-411.632 103.355,-398.377 99.8418,-385.39"/>
<polygon fill="orange" stroke="orange" points="107.193,-425.964 113.183,-434.702 113.95,-424.135 107.193,-425.964"/>
<text text-anchor="middle" x="126" y="-407.5" font-family="Helvetica,sans-Serif" font-size="10.00"> &lt; float &gt;</text>
</g>
</g>
</svg>
