<?xml version="1.0" encoding="UTF-8" standalone="no"?>
<!DOCTYPE svg PUBLIC "-//W3C//DTD SVG 1.1//EN"
 "http://www.w3.org/Graphics/SVG/1.1/DTD/svg11.dtd">
<!-- Generated by graphviz version 2.36.0 (20140111.2315)
 -->
<!-- Title: /home/travis/build/AliceO2Group/AliceO2/Detectors/HMPID/simulation/include/HMPIDSimulation/Detector.h Pages: 1 -->
<!--zoomable 378 -->
<svg id="main" version="1.1" xmlns="http://www.w3.org/2000/svg" xmlns:xlink="http://www.w3.org/1999/xlink" xml:space="preserve" onload="init(evt)">
<style type="text/css"><![CDATA[
.edge:hover path { stroke: red; }
.edge:hover polygon { stroke: red; fill: red; }
]]></style>
<script type="text/javascript"><![CDATA[
var edges = document.getElementsByTagName('g');
if (edges && edges.length) {
  for (var i=0;i<edges.length;i++) {
    if (edges[i].id.substr(0,4)=='edge') {
      edges[i].setAttribute('class','edge');
    }
  }
}
]]></script>
        <defs>
                <circle id="rim" cx="0" cy="0" r="7"/>
                <circle id="rim2" cx="0" cy="0" r="3.5"/>
                <g id="zoomPlus">
                        <use xlink:href="#rim" fill="#404040">
                                <set attributeName="fill" to="#808080" begin="zoomplus.mouseover" end="zoomplus.mouseout"/>
                        </use>
                        <path d="M-4,0h8M0,-4v8" fill="none" stroke="white" stroke-width="1.5" pointer-events="none"/>
                </g>
                <g id="zoomMin">
                        <use xlink:href="#rim" fill="#404040">
                                <set attributeName="fill" to="#808080" begin="zoomminus.mouseover" end="zoomminus.mouseout"/>
                        </use>
                        <path d="M-4,0h8" fill="none" stroke="white" stroke-width="1.5" pointer-events="none"/>
                </g>
                <g id="dirArrow">
                        <path fill="none" stroke="white" stroke-width="1.5" d="M0,-3.0v7 M-2.5,-0.5L0,-3.0L2.5,-0.5"/>
                </g>
               <g id="resetDef">
                       <use xlink:href="#rim2" fill="#404040">
                               <set attributeName="fill" to="#808080" begin="reset.mouseover" end="reset.mouseout"/>
                       </use>
               </g>
        </defs>

<script type="text/javascript">
var viewWidth = 2254;
var viewHeight = 378;
var sectionId = 'dynsection-0';
</script>
<script xlink:href="../../svgpan.js"/>
<svg id="graph" class="graph">
<g id="viewport">
<title>/home/travis/build/AliceO2Group/AliceO2/Detectors/HMPID/simulation/include/HMPIDSimulation/Detector.h</title>
<!-- Node1 -->
<g id="node1" class="node"><title>Node1</title>
<polygon fill="#bfbfbf" stroke="black" points="686.5,-317 686.5,-369 867.5,-369 867.5,-317 686.5,-317"/>
<text text-anchor="start" x="694.5" y="-357" font-family="Helvetica,sans-Serif" font-size="10.00">/home/travis/build</text>
<text text-anchor="start" x="694.5" y="-346" font-family="Helvetica,sans-Serif" font-size="10.00">/AliceO2Group/AliceO2</text>
<text text-anchor="start" x="694.5" y="-335" font-family="Helvetica,sans-Serif" font-size="10.00">/Detectors/HMPID/simulation</text>
<text text-anchor="middle" x="777" y="-324" font-family="Helvetica,sans-Serif" font-size="10.00">/include/HMPIDSimulation/Detector.h</text>
</g>
<!-- Node2 -->
<g id="node2" class="node"><title>Node2</title>
<polygon fill="none" stroke="#bfbfbf" points="0,-198.5 0,-217.5 44,-217.5 44,-198.5 0,-198.5"/>
<text text-anchor="middle" x="22" y="-205.5" font-family="Helvetica,sans-Serif" font-size="10.00">vector</text>
</g>
<!-- Node1&#45;&gt;Node2 -->
<g id="edge1" class="edge"><title>Node1&#45;&gt;Node2</title>
<path fill="none" stroke="midnightblue" d="M686.221,-336.053C546.87,-324.973 273.157,-295.452 52,-224 50.0883,-223.382 48.1471,-222.659 46.2189,-221.869"/>
<polygon fill="midnightblue" stroke="midnightblue" points="47.4305,-218.573 36.8849,-217.553 44.4924,-224.927 47.4305,-218.573"/>
</g>
<!-- Node3 -->
<g id="node3" class="node"><title>Node3</title>
<g id="a_node3"><a xlink:href="../../d1/d3a/Base_2include_2DetectorsBase_2Detector_8h.html" target="_top" xlink:title="DetectorsBase/Detector.h">
<polygon fill="none" stroke="black" points="711.5,-260.5 711.5,-279.5 842.5,-279.5 842.5,-260.5 711.5,-260.5"/>
<text text-anchor="middle" x="777" y="-267.5" font-family="Helvetica,sans-Serif" font-size="10.00">DetectorsBase/Detector.h</text>
</a>
</g>
</g>
<!-- Node1&#45;&gt;Node3 -->
<g id="edge2" class="edge"><title>Node1&#45;&gt;Node3</title>
<path fill="none" stroke="midnightblue" d="M777,-316.768C777,-307.89 777,-298.074 777,-289.816"/>
<polygon fill="midnightblue" stroke="midnightblue" points="780.5,-289.757 777,-279.757 773.5,-289.757 780.5,-289.757"/>
</g>
<!-- Node26 -->
<g id="node26" class="node"><title>Node26</title>
<g id="a_node26"><a xlink:href="../../d9/dc6/HMPID_2base_2include_2HMPIDBase_2Hit_8h.html" target="_top" xlink:title="HMPIDBase/Hit.h">
<polygon fill="none" stroke="black" points="1265,-260.5 1265,-279.5 1361,-279.5 1361,-260.5 1265,-260.5"/>
<text text-anchor="middle" x="1313" y="-267.5" font-family="Helvetica,sans-Serif" font-size="10.00">HMPIDBase/Hit.h</text>
</a>
</g>
</g>
<!-- Node1&#45;&gt;Node26 -->
<g id="edge31" class="edge"><title>Node1&#45;&gt;Node26</title>
<path fill="none" stroke="midnightblue" d="M867.622,-329.996C978.11,-315.36 1161.6,-291.055 1254.81,-278.708"/>
<polygon fill="midnightblue" stroke="midnightblue" points="1255.45,-282.154 1264.9,-277.371 1254.53,-275.215 1255.45,-282.154"/>
</g>
<!-- Node3&#45;&gt;Node2 -->
<g id="edge4" class="edge"><title>Node3&#45;&gt;Node2</title>
<path fill="none" stroke="midnightblue" d="M711.398,-268.272C557.173,-266.022 175.302,-257.173 52,-224 49.807,-223.41 47.5859,-222.652 45.3962,-221.79"/>
<polygon fill="midnightblue" stroke="midnightblue" points="46.7294,-218.551 36.1818,-217.552 43.8045,-224.91 46.7294,-218.551"/>
</g>
<!-- Node4 -->
<g id="node4" class="node"><title>Node4</title>
<polygon fill="none" stroke="#bfbfbf" points="562.5,-136.5 562.5,-155.5 597.5,-155.5 597.5,-136.5 562.5,-136.5"/>
<text text-anchor="middle" x="580" y="-143.5" font-family="Helvetica,sans-Serif" font-size="10.00">map</text>
</g>
<!-- Node3&#45;&gt;Node4 -->
<g id="edge3" class="edge"><title>Node3&#45;&gt;Node4</title>
<path fill="none" stroke="midnightblue" d="M808.023,-260.436C826.032,-253.694 847.231,-242.302 858,-224 865.212,-211.742 867.218,-202.83 858,-192 841.865,-173.043 675.454,-155.768 608.085,-149.497"/>
<polygon fill="midnightblue" stroke="midnightblue" points="608.075,-145.981 597.797,-148.553 607.436,-152.952 608.075,-145.981"/>
</g>
<!-- Node5 -->
<g id="node5" class="node"><title>Node5</title>
<polygon fill="none" stroke="#bfbfbf" points="754.5,-136.5 754.5,-155.5 827.5,-155.5 827.5,-136.5 754.5,-136.5"/>
<text text-anchor="middle" x="791" y="-143.5" font-family="Helvetica,sans-Serif" font-size="10.00">initializer_list</text>
</g>
<!-- Node3&#45;&gt;Node5 -->
<g id="edge5" class="edge"><title>Node3&#45;&gt;Node5</title>
<path fill="none" stroke="midnightblue" d="M834.779,-260.445C856.44,-254.122 878.947,-243.125 892,-224 900.018,-212.253 899.744,-203.929 892,-192 879.828,-173.251 857.832,-162.248 837.468,-155.824"/>
<polygon fill="midnightblue" stroke="midnightblue" points="838.229,-152.401 827.652,-153.024 836.308,-159.133 838.229,-152.401"/>
</g>
<!-- Node6 -->
<g id="node6" class="node"><title>Node6</title>
<polygon fill="none" stroke="#bfbfbf" points="1132,-198.5 1132,-217.5 1184,-217.5 1184,-198.5 1132,-198.5"/>
<text text-anchor="middle" x="1158" y="-205.5" font-family="Helvetica,sans-Serif" font-size="10.00">memory</text>
</g>
<!-- Node3&#45;&gt;Node6 -->
<g id="edge6" class="edge"><title>Node3&#45;&gt;Node6</title>
<path fill="none" stroke="midnightblue" d="M842.54,-265.627C912.694,-260.824 1026.76,-249.564 1122,-224 1124.82,-223.243 1127.71,-222.315 1130.57,-221.296"/>
<polygon fill="midnightblue" stroke="midnightblue" points="1131.98,-224.502 1140.01,-217.592 1129.43,-217.985 1131.98,-224.502"/>
</g>
<!-- Node7 -->
<g id="node7" class="node"><title>Node7</title>
<polygon fill="none" stroke="#bfbfbf" points="61.5,-198.5 61.5,-217.5 140.5,-217.5 140.5,-198.5 61.5,-198.5"/>
<text text-anchor="middle" x="101" y="-205.5" font-family="Helvetica,sans-Serif" font-size="10.00">FairDetector.h</text>
</g>
<!-- Node3&#45;&gt;Node7 -->
<g id="edge7" class="edge"><title>Node3&#45;&gt;Node7</title>
<path fill="none" stroke="midnightblue" d="M711.394,-269.13C596.592,-268.285 352.232,-261.711 150,-224 145.119,-223.09 140.037,-221.863 135.074,-220.502"/>
<polygon fill="midnightblue" stroke="midnightblue" points="135.737,-217.049 125.156,-217.576 133.757,-223.763 135.737,-217.049"/>
</g>
<!-- Node8 -->
<g id="node8" class="node"><title>Node8</title>
<polygon fill="none" stroke="#bfbfbf" points="159,-198.5 159,-217.5 259,-217.5 259,-198.5 159,-198.5"/>
<text text-anchor="middle" x="209" y="-205.5" font-family="Helvetica,sans-Serif" font-size="10.00">FairRootManager.h</text>
</g>
<!-- Node3&#45;&gt;Node8 -->
<g id="edge8" class="edge"><title>Node3&#45;&gt;Node8</title>
<path fill="none" stroke="midnightblue" d="M711.392,-266.103C614.864,-261.171 429.116,-249.135 273,-224 266.036,-222.879 258.703,-221.424 251.586,-219.863"/>
<polygon fill="midnightblue" stroke="midnightblue" points="251.911,-216.347 241.382,-217.526 250.348,-223.17 251.911,-216.347"/>
</g>
<!-- Node9 -->
<g id="node9" class="node"><title>Node9</title>
<g id="a_node9"><a xlink:href="../../d0/d9a/MaterialManager_8h.html" target="_top" xlink:title="DetectorsBase/MaterialManager.h">
<polygon fill="none" stroke="black" points="315.5,-198.5 315.5,-217.5 480.5,-217.5 480.5,-198.5 315.5,-198.5"/>
<text text-anchor="middle" x="398" y="-205.5" font-family="Helvetica,sans-Serif" font-size="10.00">DetectorsBase/MaterialManager.h</text>
</a>
</g>
</g>
<!-- Node3&#45;&gt;Node9 -->
<g id="edge9" class="edge"><title>Node3&#45;&gt;Node9</title>
<path fill="none" stroke="midnightblue" d="M721.498,-260.469C663.485,-251.519 569.821,-236.975 489,-224 479.496,-222.474 469.437,-220.838 459.608,-219.227"/>
<polygon fill="midnightblue" stroke="midnightblue" points="459.917,-215.731 449.482,-217.563 458.782,-222.638 459.917,-215.731"/>
</g>
<!-- Node10 -->
<g id="node10" class="node"><title>Node10</title>
<polygon fill="none" stroke="#bfbfbf" points="335,-74.5 335,-93.5 391,-93.5 391,-74.5 335,-74.5"/>
<text text-anchor="middle" x="363" y="-81.5" font-family="Helvetica,sans-Serif" font-size="10.00">Rtypes.h</text>
</g>
<!-- Node3&#45;&gt;Node10 -->
<g id="edge14" class="edge"><title>Node3&#45;&gt;Node10</title>
<path fill="none" stroke="midnightblue" d="M711.266,-267.521C588.144,-264.067 332.729,-253.404 306,-224 272.787,-187.463 319.867,-128.95 346.65,-100.945"/>
<polygon fill="midnightblue" stroke="midnightblue" points="349.367,-103.174 353.891,-93.5937 344.38,-98.2617 349.367,-103.174"/>
</g>
<!-- Node12 -->
<g id="node12" class="node"><title>Node12</title>
<polygon fill="none" stroke="#bfbfbf" points="498.5,-198.5 498.5,-217.5 551.5,-217.5 551.5,-198.5 498.5,-198.5"/>
<text text-anchor="middle" x="525" y="-205.5" font-family="Helvetica,sans-Serif" font-size="10.00">cxxabi.h</text>
</g>
<!-- Node3&#45;&gt;Node12 -->
<g id="edge15" class="edge"><title>Node3&#45;&gt;Node12</title>
<path fill="none" stroke="midnightblue" d="M720.461,-260.472C676.2,-253.034 613.403,-240.794 560,-224 557.572,-223.236 555.083,-222.363 552.605,-221.431"/>
<polygon fill="midnightblue" stroke="midnightblue" points="553.848,-218.158 543.266,-217.646 551.22,-224.646 553.848,-218.158"/>
</g>
<!-- Node13 -->
<g id="node13" class="node"><title>Node13</title>
<polygon fill="none" stroke="#bfbfbf" points="569.5,-198.5 569.5,-217.5 620.5,-217.5 620.5,-198.5 569.5,-198.5"/>
<text text-anchor="middle" x="595" y="-205.5" font-family="Helvetica,sans-Serif" font-size="10.00">typeinfo</text>
</g>
<!-- Node3&#45;&gt;Node13 -->
<g id="edge16" class="edge"><title>Node3&#45;&gt;Node13</title>
<path fill="none" stroke="midnightblue" d="M745.705,-260.479C715.722,-252.068 669.349,-238.407 630,-224 627.882,-223.224 625.706,-222.389 623.526,-221.524"/>
<polygon fill="midnightblue" stroke="midnightblue" points="624.685,-218.215 614.106,-217.629 622.01,-224.684 624.685,-218.215"/>
</g>
<!-- Node14 -->
<g id="node14" class="node"><title>Node14</title>
<polygon fill="none" stroke="#bfbfbf" points="639,-198.5 639,-217.5 701,-217.5 701,-198.5 639,-198.5"/>
<text text-anchor="middle" x="670" y="-205.5" font-family="Helvetica,sans-Serif" font-size="10.00">type_traits</text>
</g>
<!-- Node3&#45;&gt;Node14 -->
<g id="edge17" class="edge"><title>Node3&#45;&gt;Node14</title>
<path fill="none" stroke="midnightblue" d="M761.67,-260.403C744.03,-250.512 714.84,-234.144 694.142,-222.538"/>
<polygon fill="midnightblue" stroke="midnightblue" points="695.736,-219.419 685.302,-217.581 692.312,-225.524 695.736,-219.419"/>
</g>
<!-- Node15 -->
<g id="node15" class="node"><title>Node15</title>
<polygon fill="none" stroke="#bfbfbf" points="719.5,-198.5 719.5,-217.5 760.5,-217.5 760.5,-198.5 719.5,-198.5"/>
<text text-anchor="middle" x="740" y="-205.5" font-family="Helvetica,sans-Serif" font-size="10.00">string</text>
</g>
<!-- Node3&#45;&gt;Node15 -->
<g id="edge18" class="edge"><title>Node3&#45;&gt;Node15</title>
<path fill="none" stroke="midnightblue" d="M771.699,-260.403C766.204,-251.493 757.467,-237.325 750.556,-226.118"/>
<polygon fill="midnightblue" stroke="midnightblue" points="753.519,-224.255 745.291,-217.581 747.561,-227.929 753.519,-224.255"/>
</g>
<!-- Node16 -->
<g id="node16" class="node"><title>Node16</title>
<polygon fill="none" stroke="#bfbfbf" points="778.5,-198.5 778.5,-217.5 849.5,-217.5 849.5,-198.5 778.5,-198.5"/>
<text text-anchor="middle" x="814" y="-205.5" font-family="Helvetica,sans-Serif" font-size="10.00">TMessage.h</text>
</g>
<!-- Node3&#45;&gt;Node16 -->
<g id="edge19" class="edge"><title>Node3&#45;&gt;Node16</title>
<path fill="none" stroke="midnightblue" d="M782.301,-260.403C787.796,-251.493 796.533,-237.325 803.444,-226.118"/>
<polygon fill="midnightblue" stroke="midnightblue" points="806.439,-227.929 808.709,-217.581 800.481,-224.255 806.439,-227.929"/>
</g>
<!-- Node17 -->
<g id="node17" class="node"><title>Node17</title>
<g id="a_node17"><a xlink:href="../../de/d61/ShmManager_8h.html" target="_top" xlink:title="CommonUtils/ShmManager.h">
<polygon fill="none" stroke="black" points="881,-136.5 881,-155.5 1027,-155.5 1027,-136.5 881,-136.5"/>
<text text-anchor="middle" x="954" y="-143.5" font-family="Helvetica,sans-Serif" font-size="10.00">CommonUtils/ShmManager.h</text>
</a>
</g>
</g>
<!-- Node3&#45;&gt;Node17 -->
<g id="edge20" class="edge"><title>Node3&#45;&gt;Node17</title>
<path fill="none" stroke="midnightblue" d="M827.099,-260.43C853.385,-253.932 884.843,-242.787 908,-224 927.127,-208.482 940.179,-182.745 947.361,-165.341"/>
<polygon fill="midnightblue" stroke="midnightblue" points="950.729,-166.336 951.076,-155.747 944.201,-163.809 950.729,-166.336"/>
</g>
<!-- Node22 -->
<g id="node22" class="node"><title>Node22</title>
<g id="a_node22"><a xlink:href="../../d0/d91/ShmAllocator_8h.html" target="_top" xlink:title="CommonUtils/ShmAllocator.h">
<polygon fill="none" stroke="black" points="1240,-198.5 1240,-217.5 1386,-217.5 1386,-198.5 1240,-198.5"/>
<text text-anchor="middle" x="1313" y="-205.5" font-family="Helvetica,sans-Serif" font-size="10.00">CommonUtils/ShmAllocator.h</text>
</a>
</g>
</g>
<!-- Node3&#45;&gt;Node22 -->
<g id="edge25" class="edge"><title>Node3&#45;&gt;Node22</title>
<path fill="none" stroke="midnightblue" d="M842.607,-263.89C930.218,-256.732 1090.15,-242.495 1226,-224 1236.02,-222.635 1246.66,-220.977 1256.93,-219.268"/>
<polygon fill="midnightblue" stroke="midnightblue" points="1257.77,-222.676 1267.04,-217.55 1256.59,-215.775 1257.77,-222.676"/>
</g>
<!-- Node23 -->
<g id="node23" class="node"><title>Node23</title>
<polygon fill="none" stroke="#bfbfbf" points="1238.5,-136.5 1238.5,-155.5 1287.5,-155.5 1287.5,-136.5 1238.5,-136.5"/>
<text text-anchor="middle" x="1263" y="-143.5" font-family="Helvetica,sans-Serif" font-size="10.00">cassert</text>
</g>
<!-- Node3&#45;&gt;Node23 -->
<g id="edge30" class="edge"><title>Node3&#45;&gt;Node23</title>
<path fill="none" stroke="midnightblue" d="M842.658,-267.524C944.07,-264.312 1133.34,-254.33 1193,-224 1206.96,-216.903 1234.11,-184.112 1250.19,-163.677"/>
<polygon fill="midnightblue" stroke="midnightblue" points="1253.14,-165.582 1256.52,-155.54 1247.61,-161.283 1253.14,-165.582"/>
</g>
<!-- Node24 -->
<g id="node24" class="node"><title>Node24</title>
<polygon fill="none" stroke="#bfbfbf" points="982,-198.5 982,-217.5 1044,-217.5 1044,-198.5 982,-198.5"/>
<text text-anchor="middle" x="1013" y="-205.5" font-family="Helvetica,sans-Serif" font-size="10.00">sys/shm.h</text>
</g>
<!-- Node3&#45;&gt;Node24 -->
<g id="edge28" class="edge"><title>Node3&#45;&gt;Node24</title>
<path fill="none" stroke="midnightblue" d="M817.887,-260.488C856.749,-252.134 916.71,-238.558 968,-224 971.619,-222.973 975.38,-221.834 979.117,-220.657"/>
<polygon fill="midnightblue" stroke="midnightblue" points="980.407,-223.918 988.836,-217.501 978.244,-217.261 980.407,-223.918"/>
</g>
<!-- Node25 -->
<g id="node25" class="node"><title>Node25</title>
<polygon fill="none" stroke="#bfbfbf" points="1062.5,-198.5 1062.5,-217.5 1113.5,-217.5 1113.5,-198.5 1062.5,-198.5"/>
<text text-anchor="middle" x="1088" y="-205.5" font-family="Helvetica,sans-Serif" font-size="10.00">unistd.h</text>
</g>
<!-- Node3&#45;&gt;Node25 -->
<g id="edge29" class="edge"><title>Node3&#45;&gt;Node25</title>
<path fill="none" stroke="midnightblue" d="M842.671,-262.602C898.983,-256.09 981.88,-244.049 1052,-224 1054.65,-223.241 1057.38,-222.343 1060.08,-221.37"/>
<polygon fill="midnightblue" stroke="midnightblue" points="1061.58,-224.54 1069.61,-217.629 1059.02,-218.024 1061.58,-224.54"/>
</g>
<!-- Node9&#45;&gt;Node4 -->
<g id="edge11" class="edge"><title>Node9&#45;&gt;Node4</title>
<path fill="none" stroke="midnightblue" d="M424.076,-198.403C458.339,-187.108 518.224,-167.366 552.96,-155.914"/>
<polygon fill="midnightblue" stroke="midnightblue" points="554.061,-159.237 562.463,-152.782 551.87,-152.589 554.061,-159.237"/>
</g>
<!-- Node9&#45;&gt;Node5 -->
<g id="edge13" class="edge"><title>Node9&#45;&gt;Node5</title>
<path fill="none" stroke="midnightblue" d="M448.995,-198.452C462.031,-196.306 476.029,-194.035 489,-192 579.159,-177.853 684.639,-162.382 744.055,-153.766"/>
<polygon fill="midnightblue" stroke="midnightblue" points="744.851,-157.187 754.246,-152.29 743.848,-150.259 744.851,-157.187"/>
</g>
<!-- Node9&#45;&gt;Node10 -->
<g id="edge10" class="edge"><title>Node9&#45;&gt;Node10</title>
<path fill="none" stroke="midnightblue" d="M395.17,-198.371C391.881,-188.256 386.349,-170.971 382,-156 376.888,-138.403 371.532,-118.206 367.815,-103.863"/>
<polygon fill="midnightblue" stroke="midnightblue" points="371.101,-102.591 365.221,-93.7776 364.322,-104.334 371.101,-102.591"/>
</g>
<!-- Node11 -->
<g id="node11" class="node"><title>Node11</title>
<polygon fill="none" stroke="#bfbfbf" points="391.5,-136.5 391.5,-155.5 474.5,-155.5 474.5,-136.5 391.5,-136.5"/>
<text text-anchor="middle" x="433" y="-143.5" font-family="Helvetica,sans-Serif" font-size="10.00">unordered_map</text>
</g>
<!-- Node9&#45;&gt;Node11 -->
<g id="edge12" class="edge"><title>Node9&#45;&gt;Node11</title>
<path fill="none" stroke="midnightblue" d="M403.015,-198.403C408.161,-189.582 416.312,-175.608 422.818,-164.455"/>
<polygon fill="midnightblue" stroke="midnightblue" points="425.979,-165.982 427.995,-155.581 419.933,-162.455 425.979,-165.982"/>
</g>
<!-- Node18 -->
<g id="node18" class="node"><title>Node18</title>
<polygon fill="none" stroke="#bfbfbf" points="1032.5,-74.5 1032.5,-93.5 1061.5,-93.5 1061.5,-74.5 1032.5,-74.5"/>
<text text-anchor="middle" x="1047" y="-81.5" font-family="Helvetica,sans-Serif" font-size="10.00">list</text>
</g>
<!-- Node17&#45;&gt;Node18 -->
<g id="edge21" class="edge"><title>Node17&#45;&gt;Node18</title>
<path fill="none" stroke="midnightblue" d="M967.325,-136.403C982.38,-126.691 1007.12,-110.732 1025.04,-99.1697"/>
<polygon fill="midnightblue" stroke="midnightblue" points="1027.19,-101.943 1033.7,-93.5806 1023.4,-96.0609 1027.19,-101.943"/>
</g>
<!-- Node19 -->
<g id="node19" class="node"><title>Node19</title>
<polygon fill="none" stroke="#bfbfbf" points="661.5,-74.5 661.5,-93.5 710.5,-93.5 710.5,-74.5 661.5,-74.5"/>
<text text-anchor="middle" x="686" y="-81.5" font-family="Helvetica,sans-Serif" font-size="10.00">cstddef</text>
</g>
<!-- Node17&#45;&gt;Node19 -->
<g id="edge22" class="edge"><title>Node17&#45;&gt;Node19</title>
<path fill="none" stroke="midnightblue" d="M888.722,-136.482C841.241,-129.318 775.777,-117.421 720,-100 717.575,-99.2426 715.092,-98.3634 712.626,-97.4177"/>
<polygon fill="midnightblue" stroke="midnightblue" points="713.934,-94.1711 703.357,-93.558 711.243,-100.633 713.934,-94.1711"/>
</g>
<!-- Node20 -->
<g id="node20" class="node"><title>Node20</title>
<polygon fill="none" stroke="#bfbfbf" points="729,-69 729,-99 877,-99 877,-69 729,-69"/>
<text text-anchor="start" x="737" y="-87" font-family="Helvetica,sans-Serif" font-size="10.00">boost/interprocess</text>
<text text-anchor="middle" x="803" y="-76" font-family="Helvetica,sans-Serif" font-size="10.00">/managed_external_buffer.hpp</text>
</g>
<!-- Node17&#45;&gt;Node20 -->
<g id="edge23" class="edge"><title>Node17&#45;&gt;Node20</title>
<path fill="none" stroke="midnightblue" d="M932.365,-136.403C910.408,-127.679 875.768,-113.914 847.857,-102.824"/>
<polygon fill="midnightblue" stroke="midnightblue" points="848.883,-99.4654 838.297,-99.0253 846.298,-105.971 848.883,-99.4654"/>
</g>
<!-- Node21 -->
<g id="node21" class="node"><title>Node21</title>
<polygon fill="none" stroke="#bfbfbf" points="895,-69 895,-99 1015,-99 1015,-69 895,-69"/>
<text text-anchor="start" x="903" y="-87" font-family="Helvetica,sans-Serif" font-size="10.00">boost/interprocess</text>
<text text-anchor="middle" x="955" y="-76" font-family="Helvetica,sans-Serif" font-size="10.00">/allocators/allocator.hpp</text>
</g>
<!-- Node17&#45;&gt;Node21 -->
<g id="edge24" class="edge"><title>Node17&#45;&gt;Node21</title>
<path fill="none" stroke="midnightblue" d="M954.143,-136.403C954.261,-129.341 954.434,-118.975 954.593,-109.399"/>
<polygon fill="midnightblue" stroke="midnightblue" points="958.097,-109.198 954.764,-99.1408 951.098,-109.081 958.097,-109.198"/>
</g>
<!-- Node22&#45;&gt;Node17 -->
<g id="edge26" class="edge"><title>Node22&#45;&gt;Node17</title>
<path fill="none" stroke="midnightblue" d="M1261.95,-198.467C1196.81,-187.582 1084.3,-168.778 1014.81,-157.163"/>
<polygon fill="midnightblue" stroke="midnightblue" points="1015.32,-153.7 1004.88,-155.503 1014.16,-160.604 1015.32,-153.7"/>
</g>
<!-- Node22&#45;&gt;Node23 -->
<g id="edge27" class="edge"><title>Node22&#45;&gt;Node23</title>
<path fill="none" stroke="midnightblue" d="M1305.84,-198.403C1298.26,-189.314 1286.13,-174.756 1276.71,-163.449"/>
<polygon fill="midnightblue" stroke="midnightblue" points="1279.24,-161.022 1270.15,-155.581 1273.86,-165.503 1279.24,-161.022"/>
</g>
<!-- Node26&#45;&gt;Node22 -->
<g id="edge45" class="edge"><title>Node26&#45;&gt;Node22</title>
<path fill="none" stroke="midnightblue" d="M1313,-260.403C1313,-251.938 1313,-238.728 1313,-227.82"/>
<polygon fill="midnightblue" stroke="midnightblue" points="1316.5,-227.581 1313,-217.581 1309.5,-227.581 1316.5,-227.581"/>
</g>
<!-- Node27 -->
<g id="node27" class="node"><title>Node27</title>
<g id="a_node27"><a xlink:href="../../d4/d25/BaseHits_8h.html" target="_top" xlink:title="SimulationDataFormat\l/BaseHits.h">
<polygon fill="none" stroke="black" points="1404,-193 1404,-223 1518,-223 1518,-193 1404,-193"/>
<text text-anchor="start" x="1412" y="-211" font-family="Helvetica,sans-Serif" font-size="10.00">SimulationDataFormat</text>
<text text-anchor="middle" x="1461" y="-200" font-family="Helvetica,sans-Serif" font-size="10.00">/BaseHits.h</text>
</a>
</g>
</g>
<!-- Node26&#45;&gt;Node27 -->
<g id="edge32" class="edge"><title>Node26&#45;&gt;Node27</title>
<path fill="none" stroke="midnightblue" d="M1334.2,-260.403C1355.73,-251.679 1389.68,-237.914 1417.03,-226.824"/>
<polygon fill="midnightblue" stroke="midnightblue" points="1418.45,-230.026 1426.4,-223.025 1415.82,-223.539 1418.45,-230.026"/>
</g>
<!-- Node28 -->
<g id="node28" class="node"><title>Node28</title>
<g id="a_node28"><a xlink:href="../../dd/d76/Cartesian3D_8h.html" target="_top" xlink:title="MathUtils/Cartesian3D.h">
<polygon fill="none" stroke="black" points="1397.5,-136.5 1397.5,-155.5 1522.5,-155.5 1522.5,-136.5 1397.5,-136.5"/>
<text text-anchor="middle" x="1460" y="-143.5" font-family="Helvetica,sans-Serif" font-size="10.00">MathUtils/Cartesian3D.h</text>
</a>
</g>
</g>
<!-- Node27&#45;&gt;Node28 -->
<g id="edge33" class="edge"><title>Node27&#45;&gt;Node28</title>
<path fill="none" stroke="midnightblue" d="M1460.76,-192.781C1460.63,-184.781 1460.46,-174.689 1460.32,-166.017"/>
<polygon fill="midnightblue" stroke="midnightblue" points="1463.81,-165.671 1460.15,-155.731 1456.81,-165.788 1463.81,-165.671"/>
</g>
<!-- Node28&#45;&gt;Node10 -->
<g id="edge39" class="edge"><title>Node28&#45;&gt;Node10</title>
<path fill="none" stroke="midnightblue" d="M1397.31,-141.556C1366.75,-139.879 1329.46,-137.832 1296,-136 948.604,-116.973 528.445,-94.0314 401.267,-87.0888"/>
<polygon fill="midnightblue" stroke="midnightblue" points="401.42,-83.592 391.244,-86.5417 401.038,-90.5816 401.42,-83.592"/>
</g>
<!-- Node29 -->
<g id="node29" class="node"><title>Node29</title>
<polygon fill="none" stroke="#bfbfbf" points="1381.5,-69 1381.5,-99 1532.5,-99 1532.5,-69 1381.5,-69"/>
<text text-anchor="start" x="1389.5" y="-87" font-family="Helvetica,sans-Serif" font-size="10.00">Math/GenVector/Displacement</text>
<text text-anchor="middle" x="1457" y="-76" font-family="Helvetica,sans-Serif" font-size="10.00">Vector3D.h</text>
</g>
<!-- Node28&#45;&gt;Node29 -->
<g id="edge34" class="edge"><title>Node28&#45;&gt;Node29</title>
<path fill="none" stroke="midnightblue" d="M1459.57,-136.403C1459.22,-129.341 1458.7,-118.975 1458.22,-109.399"/>
<polygon fill="midnightblue" stroke="midnightblue" points="1461.7,-108.954 1457.71,-99.1408 1454.71,-109.303 1461.7,-108.954"/>
</g>
<!-- Node30 -->
<g id="node30" class="node"><title>Node30</title>
<polygon fill="none" stroke="#bfbfbf" points="1551,-74.5 1551,-93.5 1727,-93.5 1727,-74.5 1551,-74.5"/>
<text text-anchor="middle" x="1639" y="-81.5" font-family="Helvetica,sans-Serif" font-size="10.00">Math/GenVector/PositionVector3D.h</text>
</g>
<!-- Node28&#45;&gt;Node30 -->
<g id="edge35" class="edge"><title>Node28&#45;&gt;Node30</title>
<path fill="none" stroke="midnightblue" d="M1485.65,-136.403C1516.62,-126.022 1568.87,-108.506 1603.65,-96.849"/>
<polygon fill="midnightblue" stroke="midnightblue" points="1605.03,-100.077 1613.4,-93.5806 1602.81,-93.4403 1605.03,-100.077"/>
</g>
<!-- Node31 -->
<g id="node31" class="node"><title>Node31</title>
<polygon fill="none" stroke="#bfbfbf" points="1744.5,-74.5 1744.5,-93.5 1893.5,-93.5 1893.5,-74.5 1744.5,-74.5"/>
<text text-anchor="middle" x="1819" y="-81.5" font-family="Helvetica,sans-Serif" font-size="10.00">Math/GenVector/Rotation3D.h</text>
</g>
<!-- Node28&#45;&gt;Node31 -->
<g id="edge36" class="edge"><title>Node28&#45;&gt;Node31</title>
<path fill="none" stroke="midnightblue" d="M1513.53,-136.476C1568.97,-127.592 1658.11,-113.156 1735,-100 1743.7,-98.5116 1752.9,-96.9035 1761.9,-95.3121"/>
<polygon fill="midnightblue" stroke="midnightblue" points="1762.69,-98.725 1771.93,-93.5297 1761.47,-91.8329 1762.69,-98.725"/>
</g>
<!-- Node32 -->
<g id="node32" class="node"><title>Node32</title>
<polygon fill="none" stroke="#bfbfbf" points="1912,-74.5 1912,-93.5 2068,-93.5 2068,-74.5 1912,-74.5"/>
<text text-anchor="middle" x="1990" y="-81.5" font-family="Helvetica,sans-Serif" font-size="10.00">Math/GenVector/Transform3D.h</text>
</g>
<!-- Node28&#45;&gt;Node32 -->
<g id="edge37" class="edge"><title>Node28&#45;&gt;Node32</title>
<path fill="none" stroke="midnightblue" d="M1522.74,-139.952C1608.56,-132.742 1767.29,-118.317 1902,-100 1912.24,-98.6075 1923.12,-96.9226 1933.61,-95.1921"/>
<polygon fill="midnightblue" stroke="midnightblue" points="1934.23,-98.637 1943.51,-93.5271 1933.06,-91.7339 1934.23,-98.637"/>
</g>
<!-- Node33 -->
<g id="node33" class="node"><title>Node33</title>
<polygon fill="none" stroke="#bfbfbf" points="2086,-74.5 2086,-93.5 2246,-93.5 2246,-74.5 2086,-74.5"/>
<text text-anchor="middle" x="2166" y="-81.5" font-family="Helvetica,sans-Serif" font-size="10.00">Math/GenVector/Translation3D.h</text>
</g>
<!-- Node28&#45;&gt;Node33 -->
<g id="edge38" class="edge"><title>Node28&#45;&gt;Node33</title>
<path fill="none" stroke="midnightblue" d="M1522.81,-142.375C1634.57,-137.27 1875.2,-124.31 2077,-100 2087.84,-98.6943 2099.37,-96.9883 2110.41,-95.1966"/>
<polygon fill="midnightblue" stroke="midnightblue" points="2111.1,-98.6312 2120.39,-93.536 2109.95,-91.7263 2111.1,-98.6312"/>
</g>
<!-- Node34 -->
<g id="node34" class="node"><title>Node34</title>
<polygon fill="none" stroke="#bfbfbf" points="1081,-74.5 1081,-93.5 1157,-93.5 1157,-74.5 1081,-74.5"/>
<text text-anchor="middle" x="1119" y="-81.5" font-family="Helvetica,sans-Serif" font-size="10.00">TGeoMatrix.h</text>
</g>
<!-- Node28&#45;&gt;Node34 -->
<g id="edge40" class="edge"><title>Node28&#45;&gt;Node34</title>
<path fill="none" stroke="midnightblue" d="M1397.47,-138.162C1337.79,-130.988 1245.59,-118.206 1167,-100 1162.57,-98.9748 1157.97,-97.7467 1153.43,-96.4405"/>
<polygon fill="midnightblue" stroke="midnightblue" points="1154.3,-93.0481 1143.72,-93.5049 1152.28,-99.7487 1154.3,-93.0481"/>
</g>
<!-- Node35 -->
<g id="node35" class="node"><title>Node35</title>
<polygon fill="none" stroke="#bfbfbf" points="1175.5,-74.5 1175.5,-93.5 1220.5,-93.5 1220.5,-74.5 1175.5,-74.5"/>
<text text-anchor="middle" x="1198" y="-81.5" font-family="Helvetica,sans-Serif" font-size="10.00">iosfwd</text>
</g>
<!-- Node28&#45;&gt;Node35 -->
<g id="edge41" class="edge"><title>Node28&#45;&gt;Node35</title>
<path fill="none" stroke="midnightblue" d="M1397.45,-136.999C1350.59,-129.993 1285.31,-118.069 1230,-100 1227.87,-99.3033 1225.69,-98.4997 1223.53,-97.6338"/>
<polygon fill="midnightblue" stroke="midnightblue" points="1224.86,-94.3953 1214.29,-93.5785 1222.04,-100.804 1224.86,-94.3953"/>
</g>
<!-- Node36 -->
<g id="node36" class="node"><title>Node36</title>
<g id="a_node36"><a xlink:href="../../d2/dd0/Cartesian2D_8h.html" target="_top" xlink:title="MathUtils/Cartesian2D.h">
<polygon fill="none" stroke="black" points="1238.5,-74.5 1238.5,-93.5 1363.5,-93.5 1363.5,-74.5 1238.5,-74.5"/>
<text text-anchor="middle" x="1301" y="-81.5" font-family="Helvetica,sans-Serif" font-size="10.00">MathUtils/Cartesian2D.h</text>
</a>
</g>
</g>
<!-- Node28&#45;&gt;Node36 -->
<g id="edge42" class="edge"><title>Node28&#45;&gt;Node36</title>
<path fill="none" stroke="midnightblue" d="M1437.22,-136.403C1409.95,-126.111 1364.09,-108.806 1333.2,-97.1504"/>
<polygon fill="midnightblue" stroke="midnightblue" points="1334.33,-93.8366 1323.74,-93.5806 1331.86,-100.386 1334.33,-93.8366"/>
</g>
<!-- Node37 -->
<g id="node37" class="node"><title>Node37</title>
<polygon fill="none" stroke="#bfbfbf" points="1134.5,-1 1134.5,-31 1285.5,-31 1285.5,-1 1134.5,-1"/>
<text text-anchor="start" x="1142.5" y="-19" font-family="Helvetica,sans-Serif" font-size="10.00">Math/GenVector/Displacement</text>
<text text-anchor="middle" x="1210" y="-8" font-family="Helvetica,sans-Serif" font-size="10.00">Vector2D.h</text>
</g>
<!-- Node36&#45;&gt;Node37 -->
<g id="edge43" class="edge"><title>Node36&#45;&gt;Node37</title>
<path fill="none" stroke="midnightblue" d="M1289.1,-74.3717C1276.22,-65.0286 1255.22,-49.7966 1238.09,-37.375"/>
<polygon fill="midnightblue" stroke="midnightblue" points="1239.7,-34.2194 1229.55,-31.1815 1235.59,-39.8859 1239.7,-34.2194"/>
</g>
<!-- Node38 -->
<g id="node38" class="node"><title>Node38</title>
<polygon fill="none" stroke="#bfbfbf" points="1304,-6.5 1304,-25.5 1480,-25.5 1480,-6.5 1304,-6.5"/>
<text text-anchor="middle" x="1392" y="-13.5" font-family="Helvetica,sans-Serif" font-size="10.00">Math/GenVector/PositionVector2D.h</text>
</g>
<!-- Node36&#45;&gt;Node38 -->
<g id="edge44" class="edge"><title>Node36&#45;&gt;Node38</title>
<path fill="none" stroke="midnightblue" d="M1312.9,-74.3717C1327.88,-63.5015 1353.86,-44.6602 1371.94,-31.5474"/>
<polygon fill="midnightblue" stroke="midnightblue" points="1374.06,-34.3349 1380.1,-25.6305 1369.95,-28.6684 1374.06,-34.3349"/>
</g>
</g>
</svg>
        <g id="navigator" transform="translate(0 0)" fill="#404254">
                <rect fill="#f2f5e9" fill-opacity="0.5" stroke="#606060" stroke-width=".5" x="0" y="0" width="60" height="60"/>
                <use id="zoomplus" xlink:href="#zoomPlus" x="17" y="9" onmousedown="handleZoom(evt,'in')"/>
                <use id="zoomminus" xlink:href="#zoomMin" x="42" y="9" onmousedown="handleZoom(evt,'out')"/>
                <use id="reset" xlink:href="#resetDef" x="30" y="36" onmousedown="handleReset()"/>
                <g id="arrowUp" xlink:href="#dirArrow" transform="translate(30 24)" onmousedown="handlePan(0,-1)">
                  <use xlink:href="#rim" fill="#404040">
                        <set attributeName="fill" to="#808080" begin="arrowUp.mouseover" end="arrowUp.mouseout"/>
                  </use>
                  <path fill="none" stroke="white" stroke-width="1.5" d="M0,-3.0v7 M-2.5,-0.5L0,-3.0L2.5,-0.5"/>
                </g>
                <g id="arrowRight" xlink:href="#dirArrow" transform="rotate(90) translate(36 -43)" onmousedown="handlePan(1,0)">
                  <use xlink:href="#rim" fill="#404040">
                        <set attributeName="fill" to="#808080" begin="arrowRight.mouseover" end="arrowRight.mouseout"/>
                  </use>
                  <path fill="none" stroke="white" stroke-width="1.5" d="M0,-3.0v7 M-2.5,-0.5L0,-3.0L2.5,-0.5"/>
                </g>
                <g id="arrowDown" xlink:href="#dirArrow" transform="rotate(180) translate(-30 -48)" onmousedown="handlePan(0,1)">
                  <use xlink:href="#rim" fill="#404040">
                        <set attributeName="fill" to="#808080" begin="arrowDown.mouseover" end="arrowDown.mouseout"/>
                  </use>
                  <path fill="none" stroke="white" stroke-width="1.5" d="M0,-3.0v7 M-2.5,-0.5L0,-3.0L2.5,-0.5"/>
                </g>
                <g id="arrowLeft" xlink:href="#dirArrow" transform="rotate(270) translate(-36 17)" onmousedown="handlePan(-1,0)">
                  <use xlink:href="#rim" fill="#404040">
                        <set attributeName="fill" to="#808080" begin="arrowLeft.mouseover" end="arrowLeft.mouseout"/>
                  </use>
                  <path fill="none" stroke="white" stroke-width="1.5" d="M0,-3.0v7 M-2.5,-0.5L0,-3.0L2.5,-0.5"/>
                </g>
        </g>
        <svg viewBox="0 0 15 15" width="100%" height="30px" preserveAspectRatio="xMaxYMin meet">
         <g id="arrow_out" transform="scale(0.3 0.3)">
          <a xlink:href="HMPID_2simulation_2include_2HMPIDSimulation_2Detector_8h__incl_org.svg" target="_base">
           <rect id="button" ry="5" rx="5" y="6" x="6" height="38" width="38"
                fill="#f2f5e9" fill-opacity="0.5" stroke="#606060" stroke-width="1.0"/>
           <path id="arrow"
             d="M 11.500037,31.436501 C 11.940474,20.09759 22.043105,11.32322 32.158766,21.979434 L 37.068811,17.246167 C 37.068811,17.246167 37.088388,32 37.088388,32 L 22.160133,31.978069 C 22.160133,31.978069 26.997745,27.140456 26.997745,27.140456 C 18.528582,18.264221 13.291696,25.230495 11.500037,31.436501 z"
             style="fill:#404040;"/>
          </a>
         </g>
        </svg>
</svg>
