<?xml version="1.0" encoding="UTF-8" standalone="no"?>
<!DOCTYPE svg PUBLIC "-//W3C//DTD SVG 1.1//EN"
 "http://www.w3.org/Graphics/SVG/1.1/DTD/svg11.dtd">
<!-- Generated by graphviz version 2.36.0 (20140111.2315)
 -->
<!-- Title: /home/travis/build/AliceO2Group/AliceO2/Framework/Core/src/DataSamplingPolicy.cxx Pages: 1 -->
<svg width="2370pt" height="446pt"
 viewBox="0.00 0.00 2370.00 446.00" xmlns="http://www.w3.org/2000/svg" xmlns:xlink="http://www.w3.org/1999/xlink">
<g id="graph0" class="graph" transform="scale(1 1) rotate(0) translate(4 442)">
<title>/home/travis/build/AliceO2Group/AliceO2/Framework/Core/src/DataSamplingPolicy.cxx</title>
<!-- Node1 -->
<g id="node1" class="node"><title>Node1</title>
<polygon fill="#bfbfbf" stroke="black" points="1857.5,-385 1857.5,-437 2030.5,-437 2030.5,-385 1857.5,-385"/>
<text text-anchor="start" x="1865.5" y="-425" font-family="Helvetica,sans-Serif" font-size="10.00">/home/travis/build</text>
<text text-anchor="start" x="1865.5" y="-414" font-family="Helvetica,sans-Serif" font-size="10.00">/AliceO2Group/AliceO2</text>
<text text-anchor="start" x="1865.5" y="-403" font-family="Helvetica,sans-Serif" font-size="10.00">/Framework/Core/src/DataSampling</text>
<text text-anchor="middle" x="1944" y="-392" font-family="Helvetica,sans-Serif" font-size="10.00">Policy.cxx</text>
</g>
<!-- Node2 -->
<g id="node2" class="node"><title>Node2</title>
<g id="a_node2"><a xlink:href="../../d2/d1b/DataSamplingPolicy_8h.html" target="_top" xlink:title="A declaration of O2 Data Sampling Policy. ">
<polygon fill="none" stroke="black" points="1861.5,-322.5 1861.5,-341.5 2026.5,-341.5 2026.5,-322.5 1861.5,-322.5"/>
<text text-anchor="middle" x="1944" y="-329.5" font-family="Helvetica,sans-Serif" font-size="10.00">Framework/DataSamplingPolicy.h</text>
</a>
</g>
</g>
<!-- Node1&#45;&gt;Node2 -->
<g id="edge1" class="edge"><title>Node1&#45;&gt;Node2</title>
<path fill="none" stroke="midnightblue" d="M1944,-384.787C1944,-374.069 1944,-361.785 1944,-351.871"/>
<polygon fill="midnightblue" stroke="midnightblue" points="1947.5,-351.558 1944,-341.558 1940.5,-351.558 1947.5,-351.558"/>
</g>
<!-- Node42 -->
<g id="node42" class="node"><title>Node42</title>
<g id="a_node42"><a xlink:href="../../de/dca/DataSamplingConditionFactory_8h.html" target="_top" xlink:title="A definition of DataSamplingConditionFactory. ">
<polygon fill="none" stroke="black" points="2137.5,-317 2137.5,-347 2308.5,-347 2308.5,-317 2137.5,-317"/>
<text text-anchor="start" x="2145.5" y="-335" font-family="Helvetica,sans-Serif" font-size="10.00">Framework/DataSamplingCondition</text>
<text text-anchor="middle" x="2223" y="-324" font-family="Helvetica,sans-Serif" font-size="10.00">Factory.h</text>
</a>
</g>
</g>
<!-- Node1&#45;&gt;Node42 -->
<g id="edge63" class="edge"><title>Node1&#45;&gt;Node42</title>
<path fill="none" stroke="midnightblue" d="M2030.75,-386.059C2073.33,-374.306 2123.61,-360.431 2162.06,-349.818"/>
<polygon fill="midnightblue" stroke="midnightblue" points="2163.37,-353.089 2172.08,-347.054 2161.5,-346.341 2163.37,-353.089"/>
</g>
<!-- Node43 -->
<g id="node43" class="node"><title>Node43</title>
<g id="a_node43"><a xlink:href="../../d6/d68/DataSpecUtils_8h.html" target="_top" xlink:title="Framework/DataSpecUtils.h">
<polygon fill="none" stroke="black" points="1469,-322.5 1469,-341.5 1609,-341.5 1609,-322.5 1469,-322.5"/>
<text text-anchor="middle" x="1539" y="-329.5" font-family="Helvetica,sans-Serif" font-size="10.00">Framework/DataSpecUtils.h</text>
</a>
</g>
</g>
<!-- Node1&#45;&gt;Node43 -->
<g id="edge65" class="edge"><title>Node1&#45;&gt;Node43</title>
<path fill="none" stroke="midnightblue" d="M1857.12,-393.482C1777.31,-378.308 1661.47,-356.284 1593.82,-343.422"/>
<polygon fill="midnightblue" stroke="midnightblue" points="1594.27,-339.946 1583.79,-341.516 1592.96,-346.823 1594.27,-339.946"/>
</g>
<!-- Node3 -->
<g id="node3" class="node"><title>Node3</title>
<g id="a_node3"><a xlink:href="../../dc/dcd/DataHeader_8h.html" target="_top" xlink:title="Headers/DataHeader.h">
<polygon fill="none" stroke="black" points="1662.5,-68.5 1662.5,-87.5 1779.5,-87.5 1779.5,-68.5 1662.5,-68.5"/>
<text text-anchor="middle" x="1721" y="-75.5" font-family="Helvetica,sans-Serif" font-size="10.00">Headers/DataHeader.h</text>
</a>
</g>
</g>
<!-- Node2&#45;&gt;Node3 -->
<g id="edge2" class="edge"><title>Node2&#45;&gt;Node3</title>
<path fill="none" stroke="midnightblue" d="M1954.71,-322.181C1990.5,-291.688 2100.6,-189.028 2044,-124 2011.72,-86.9105 1874.56,-79.4348 1789.69,-78.4618"/>
<polygon fill="midnightblue" stroke="midnightblue" points="1789.64,-74.9614 1779.61,-78.3738 1789.58,-81.9611 1789.64,-74.9614"/>
</g>
<!-- Node12 -->
<g id="node12" class="node"><title>Node12</title>
<g id="a_node12"><a xlink:href="../../d5/d3f/InputSpec_8h.html" target="_top" xlink:title="Framework/InputSpec.h">
<polygon fill="none" stroke="black" points="1850.5,-260.5 1850.5,-279.5 1971.5,-279.5 1971.5,-260.5 1850.5,-260.5"/>
<text text-anchor="middle" x="1911" y="-267.5" font-family="Helvetica,sans-Serif" font-size="10.00">Framework/InputSpec.h</text>
</a>
</g>
</g>
<!-- Node2&#45;&gt;Node12 -->
<g id="edge11" class="edge"><title>Node2&#45;&gt;Node12</title>
<path fill="none" stroke="midnightblue" d="M1939.27,-322.403C1934.42,-313.582 1926.73,-299.608 1920.6,-288.455"/>
<polygon fill="midnightblue" stroke="midnightblue" points="1923.61,-286.656 1915.72,-279.581 1917.47,-290.029 1923.61,-286.656"/>
</g>
<!-- Node37 -->
<g id="node37" class="node"><title>Node37</title>
<g id="a_node37"><a xlink:href="../../d3/ddf/Output_8h.html" target="_top" xlink:title="Framework/Output.h">
<polygon fill="none" stroke="black" points="1351,-260.5 1351,-279.5 1457,-279.5 1457,-260.5 1351,-260.5"/>
<text text-anchor="middle" x="1404" y="-267.5" font-family="Helvetica,sans-Serif" font-size="10.00">Framework/Output.h</text>
</a>
</g>
</g>
<!-- Node2&#45;&gt;Node37 -->
<g id="edge52" class="edge"><title>Node2&#45;&gt;Node37</title>
<path fill="none" stroke="midnightblue" d="M1861.42,-323.147C1768.19,-314.064 1611.71,-298.167 1467.04,-280.09"/>
<polygon fill="midnightblue" stroke="midnightblue" points="1467.44,-276.613 1457.08,-278.84 1466.57,-283.559 1467.44,-276.613"/>
</g>
<!-- Node38 -->
<g id="node38" class="node"><title>Node38</title>
<g id="a_node38"><a xlink:href="../../db/d2d/OutputSpec_8h.html" target="_top" xlink:title="Framework/OutputSpec.h">
<polygon fill="none" stroke="black" points="1475,-260.5 1475,-279.5 1603,-279.5 1603,-260.5 1475,-260.5"/>
<text text-anchor="middle" x="1539" y="-267.5" font-family="Helvetica,sans-Serif" font-size="10.00">Framework/OutputSpec.h</text>
</a>
</g>
</g>
<!-- Node2&#45;&gt;Node38 -->
<g id="edge56" class="edge"><title>Node2&#45;&gt;Node38</title>
<path fill="none" stroke="midnightblue" d="M1886.4,-322.467C1812.63,-311.537 1684.96,-292.624 1606.64,-281.021"/>
<polygon fill="midnightblue" stroke="midnightblue" points="1606.8,-277.507 1596.4,-279.503 1605.78,-284.431 1606.8,-277.507"/>
</g>
<!-- Node39 -->
<g id="node39" class="node"><title>Node39</title>
<g id="a_node39"><a xlink:href="../../dd/dcf/DataSamplingCondition_8h.html" target="_top" xlink:title="A standarised data sampling condition, to decide if given data sample should be passed forward...">
<polygon fill="none" stroke="black" points="2167.5,-260.5 2167.5,-279.5 2346.5,-279.5 2346.5,-260.5 2167.5,-260.5"/>
<text text-anchor="middle" x="2257" y="-267.5" font-family="Helvetica,sans-Serif" font-size="10.00">Framework/DataSamplingCondition.h</text>
</a>
</g>
</g>
<!-- Node2&#45;&gt;Node39 -->
<g id="edge59" class="edge"><title>Node2&#45;&gt;Node39</title>
<path fill="none" stroke="midnightblue" d="M1988.51,-322.467C2044.83,-311.671 2141.79,-293.086 2202.49,-281.45"/>
<polygon fill="midnightblue" stroke="midnightblue" points="2203.48,-284.824 2212.64,-279.503 2202.16,-277.949 2203.48,-284.824"/>
</g>
<!-- Node41 -->
<g id="node41" class="node"><title>Node41</title>
<polygon fill="none" stroke="#bfbfbf" points="2129.5,-193 2129.5,-223 2230.5,-223 2230.5,-193 2129.5,-193"/>
<text text-anchor="start" x="2137.5" y="-211" font-family="Helvetica,sans-Serif" font-size="10.00">boost/property_tree</text>
<text text-anchor="middle" x="2180" y="-200" font-family="Helvetica,sans-Serif" font-size="10.00">/ptree.hpp</text>
</g>
<!-- Node2&#45;&gt;Node41 -->
<g id="edge62" class="edge"><title>Node2&#45;&gt;Node41</title>
<path fill="none" stroke="midnightblue" d="M1998.74,-322.471C2033.94,-315.172 2079.56,-302.204 2115,-280 2135.07,-267.423 2152.85,-247.006 2164.71,-231.287"/>
<polygon fill="midnightblue" stroke="midnightblue" points="2167.61,-233.258 2170.67,-223.117 2161.95,-229.133 2167.61,-233.258"/>
</g>
<!-- Node4 -->
<g id="node4" class="node"><title>Node4</title>
<polygon fill="none" stroke="#bfbfbf" points="2216,-6.5 2216,-25.5 2262,-25.5 2262,-6.5 2216,-6.5"/>
<text text-anchor="middle" x="2239" y="-13.5" font-family="Helvetica,sans-Serif" font-size="10.00">cstdint</text>
</g>
<!-- Node3&#45;&gt;Node4 -->
<g id="edge3" class="edge"><title>Node3&#45;&gt;Node4</title>
<path fill="none" stroke="midnightblue" d="M1779.71,-72.7136C1864.42,-66.1424 2025.73,-52.1834 2162,-32 2176.49,-29.8534 2192.4,-26.862 2205.98,-24.115"/>
<polygon fill="midnightblue" stroke="midnightblue" points="2206.76,-27.5282 2215.84,-22.08 2205.34,-20.6725 2206.76,-27.5282"/>
</g>
<!-- Node5 -->
<g id="node5" class="node"><title>Node5</title>
<polygon fill="none" stroke="#bfbfbf" points="1989,-6.5 1989,-25.5 2041,-25.5 2041,-6.5 1989,-6.5"/>
<text text-anchor="middle" x="2015" y="-13.5" font-family="Helvetica,sans-Serif" font-size="10.00">memory</text>
</g>
<!-- Node3&#45;&gt;Node5 -->
<g id="edge4" class="edge"><title>Node3&#45;&gt;Node5</title>
<path fill="none" stroke="midnightblue" d="M1762.81,-68.4672C1820.6,-56.6741 1923.92,-35.5869 1978.66,-24.4163"/>
<polygon fill="midnightblue" stroke="midnightblue" points="1979.51,-27.8143 1988.61,-22.3853 1978.11,-20.9556 1979.51,-27.8143"/>
</g>
<!-- Node6 -->
<g id="node6" class="node"><title>Node6</title>
<polygon fill="none" stroke="#bfbfbf" points="2104.5,-6.5 2104.5,-25.5 2153.5,-25.5 2153.5,-6.5 2104.5,-6.5"/>
<text text-anchor="middle" x="2129" y="-13.5" font-family="Helvetica,sans-Serif" font-size="10.00">cassert</text>
</g>
<!-- Node3&#45;&gt;Node6 -->
<g id="edge5" class="edge"><title>Node3&#45;&gt;Node6</title>
<path fill="none" stroke="midnightblue" d="M1779.68,-69.904C1845.59,-61.7169 1955.69,-47.3922 2050,-32 2064.49,-29.6346 2080.41,-26.6806 2094.14,-24.021"/>
<polygon fill="midnightblue" stroke="midnightblue" points="2095.01,-27.4171 2104.15,-22.0592 2093.67,-20.5477 2095.01,-27.4171"/>
</g>
<!-- Node7 -->
<g id="node7" class="node"><title>Node7</title>
<polygon fill="none" stroke="#bfbfbf" points="1472,-6.5 1472,-25.5 1518,-25.5 1518,-6.5 1472,-6.5"/>
<text text-anchor="middle" x="1495" y="-13.5" font-family="Helvetica,sans-Serif" font-size="10.00">cstring</text>
</g>
<!-- Node3&#45;&gt;Node7 -->
<g id="edge6" class="edge"><title>Node3&#45;&gt;Node7</title>
<path fill="none" stroke="midnightblue" d="M1671.16,-68.4351C1631.48,-60.9065 1574.87,-48.5635 1527,-32 1525.09,-31.3379 1523.13,-30.5972 1521.19,-29.8093"/>
<polygon fill="midnightblue" stroke="midnightblue" points="1522.23,-26.4432 1511.66,-25.62 1519.41,-32.8506 1522.23,-26.4432"/>
</g>
<!-- Node8 -->
<g id="node8" class="node"><title>Node8</title>
<polygon fill="none" stroke="#bfbfbf" points="1769,-6.5 1769,-25.5 1825,-25.5 1825,-6.5 1769,-6.5"/>
<text text-anchor="middle" x="1797" y="-13.5" font-family="Helvetica,sans-Serif" font-size="10.00">algorithm</text>
</g>
<!-- Node3&#45;&gt;Node8 -->
<g id="edge7" class="edge"><title>Node3&#45;&gt;Node8</title>
<path fill="none" stroke="midnightblue" d="M1731.89,-68.4035C1743.97,-58.8688 1763.67,-43.3154 1778.24,-31.8106"/>
<polygon fill="midnightblue" stroke="midnightblue" points="1780.45,-34.5242 1786.13,-25.5806 1776.11,-29.03 1780.45,-34.5242"/>
</g>
<!-- Node9 -->
<g id="node9" class="node"><title>Node9</title>
<polygon fill="none" stroke="#bfbfbf" points="1691.5,-6.5 1691.5,-25.5 1750.5,-25.5 1750.5,-6.5 1691.5,-6.5"/>
<text text-anchor="middle" x="1721" y="-13.5" font-family="Helvetica,sans-Serif" font-size="10.00">stdexcept</text>
</g>
<!-- Node3&#45;&gt;Node9 -->
<g id="edge8" class="edge"><title>Node3&#45;&gt;Node9</title>
<path fill="none" stroke="midnightblue" d="M1721,-68.4035C1721,-59.9381 1721,-46.7283 1721,-35.8199"/>
<polygon fill="midnightblue" stroke="midnightblue" points="1724.5,-35.5806 1721,-25.5806 1717.5,-35.5806 1724.5,-35.5806"/>
</g>
<!-- Node10 -->
<g id="node10" class="node"><title>Node10</title>
<polygon fill="none" stroke="#bfbfbf" points="1843.5,-6.5 1843.5,-25.5 1884.5,-25.5 1884.5,-6.5 1843.5,-6.5"/>
<text text-anchor="middle" x="1864" y="-13.5" font-family="Helvetica,sans-Serif" font-size="10.00">string</text>
</g>
<!-- Node3&#45;&gt;Node10 -->
<g id="edge9" class="edge"><title>Node3&#45;&gt;Node10</title>
<path fill="none" stroke="midnightblue" d="M1743.5,-68.4823C1766.25,-59.748 1802.34,-45.5598 1833,-32 1834.4,-31.3804 1835.83,-30.7345 1837.27,-30.0739"/>
<polygon fill="midnightblue" stroke="midnightblue" points="1839.17,-33.0513 1846.72,-25.6209 1836.18,-26.7197 1839.17,-33.0513"/>
</g>
<!-- Node11 -->
<g id="node11" class="node"><title>Node11</title>
<g id="a_node11"><a xlink:href="../../d7/df8/Types_8h.html" target="_top" xlink:title="MemoryResources/Types.h">
<polygon fill="none" stroke="black" points="1536.5,-6.5 1536.5,-25.5 1673.5,-25.5 1673.5,-6.5 1536.5,-6.5"/>
<text text-anchor="middle" x="1605" y="-13.5" font-family="Helvetica,sans-Serif" font-size="10.00">MemoryResources/Types.h</text>
</a>
</g>
</g>
<!-- Node3&#45;&gt;Node11 -->
<g id="edge10" class="edge"><title>Node3&#45;&gt;Node11</title>
<path fill="none" stroke="midnightblue" d="M1704.38,-68.4035C1685.08,-58.4232 1653.04,-41.8487 1630.57,-30.2253"/>
<polygon fill="midnightblue" stroke="midnightblue" points="1632.08,-27.0661 1621.59,-25.5806 1628.86,-33.2836 1632.08,-27.0661"/>
</g>
<!-- Node12&#45;&gt;Node10 -->
<g id="edge49" class="edge"><title>Node12&#45;&gt;Node10</title>
<path fill="none" stroke="midnightblue" d="M1934.4,-260.397C1952.84,-252.811 1978.44,-240.409 1997,-224 2033.79,-191.469 2068.28,-166.685 2044,-124 2011.87,-67.5136 1936.84,-37.741 1894.49,-24.9174"/>
<polygon fill="midnightblue" stroke="midnightblue" points="1895.31,-21.5091 1884.73,-22.0856 1893.36,-28.2322 1895.31,-21.5091"/>
</g>
<!-- Node13 -->
<g id="node13" class="node"><title>Node13</title>
<g id="a_node13"><a xlink:href="../../dc/dca/Lifetime_8h.html" target="_top" xlink:title="Framework/Lifetime.h">
<polygon fill="none" stroke="black" points="1373.5,-198.5 1373.5,-217.5 1484.5,-217.5 1484.5,-198.5 1373.5,-198.5"/>
<text text-anchor="middle" x="1429" y="-205.5" font-family="Helvetica,sans-Serif" font-size="10.00">Framework/Lifetime.h</text>
</a>
</g>
</g>
<!-- Node12&#45;&gt;Node13 -->
<g id="edge12" class="edge"><title>Node12&#45;&gt;Node13</title>
<path fill="none" stroke="midnightblue" d="M1850.44,-261.462C1759.57,-250.15 1588.61,-228.868 1494.78,-217.188"/>
<polygon fill="midnightblue" stroke="midnightblue" points="1495.19,-213.712 1484.83,-215.95 1494.32,-220.659 1495.19,-213.712"/>
</g>
<!-- Node14 -->
<g id="node14" class="node"><title>Node14</title>
<g id="a_node14"><a xlink:href="../../d0/d1b/ConcreteDataMatcher_8h.html" target="_top" xlink:title="Framework/ConcreteDataMatcher.h">
<polygon fill="none" stroke="black" points="1797.5,-130.5 1797.5,-149.5 1970.5,-149.5 1970.5,-130.5 1797.5,-130.5"/>
<text text-anchor="middle" x="1884" y="-137.5" font-family="Helvetica,sans-Serif" font-size="10.00">Framework/ConcreteDataMatcher.h</text>
</a>
</g>
</g>
<!-- Node12&#45;&gt;Node14 -->
<g id="edge13" class="edge"><title>Node12&#45;&gt;Node14</title>
<path fill="none" stroke="midnightblue" d="M1909.14,-260.202C1904.79,-239.551 1893.83,-187.606 1887.92,-159.594"/>
<polygon fill="midnightblue" stroke="midnightblue" points="1891.29,-158.585 1885.8,-149.522 1884.44,-160.03 1891.29,-158.585"/>
</g>
<!-- Node15 -->
<g id="node15" class="node"><title>Node15</title>
<g id="a_node15"><a xlink:href="../../d3/da3/DataDescriptorMatcher_8h.html" target="_top" xlink:title="Framework/DataDescriptor\lMatcher.h">
<polygon fill="none" stroke="black" points="1683,-193 1683,-223 1817,-223 1817,-193 1683,-193"/>
<text text-anchor="start" x="1691" y="-211" font-family="Helvetica,sans-Serif" font-size="10.00">Framework/DataDescriptor</text>
<text text-anchor="middle" x="1750" y="-200" font-family="Helvetica,sans-Serif" font-size="10.00">Matcher.h</text>
</a>
</g>
</g>
<!-- Node12&#45;&gt;Node15 -->
<g id="edge15" class="edge"><title>Node12&#45;&gt;Node15</title>
<path fill="none" stroke="midnightblue" d="M1887.93,-260.403C1864.32,-251.603 1826.94,-237.674 1797.05,-226.534"/>
<polygon fill="midnightblue" stroke="midnightblue" points="1798.23,-223.238 1787.63,-223.025 1795.78,-229.797 1798.23,-223.238"/>
</g>
<!-- Node34 -->
<g id="node34" class="node"><title>Node34</title>
<polygon fill="none" stroke="#bfbfbf" points="1989,-130.5 1989,-149.5 2035,-149.5 2035,-130.5 1989,-130.5"/>
<text text-anchor="middle" x="2012" y="-137.5" font-family="Helvetica,sans-Serif" font-size="10.00">variant</text>
</g>
<!-- Node12&#45;&gt;Node34 -->
<g id="edge51" class="edge"><title>Node12&#45;&gt;Node34</title>
<path fill="none" stroke="midnightblue" d="M1927,-260.467C1940.67,-252.521 1960.11,-239.577 1973,-224 1989.14,-204.494 2000.27,-177.2 2006.4,-159.317"/>
<polygon fill="midnightblue" stroke="midnightblue" points="2009.81,-160.144 2009.56,-149.552 2003.15,-157.986 2009.81,-160.144"/>
</g>
<!-- Node36 -->
<g id="node36" class="node"><title>Node36</title>
<polygon fill="none" stroke="#bfbfbf" points="1912,-198.5 1912,-217.5 1964,-217.5 1964,-198.5 1912,-198.5"/>
<text text-anchor="middle" x="1938" y="-205.5" font-family="Helvetica,sans-Serif" font-size="10.00">ostream</text>
</g>
<!-- Node12&#45;&gt;Node36 -->
<g id="edge50" class="edge"><title>Node12&#45;&gt;Node36</title>
<path fill="none" stroke="midnightblue" d="M1914.87,-260.403C1918.8,-251.671 1925,-237.889 1929.99,-226.794"/>
<polygon fill="midnightblue" stroke="midnightblue" points="1933.23,-228.136 1934.14,-217.581 1926.84,-225.264 1933.23,-228.136"/>
</g>
<!-- Node14&#45;&gt;Node3 -->
<g id="edge14" class="edge"><title>Node14&#45;&gt;Node3</title>
<path fill="none" stroke="midnightblue" d="M1860.65,-130.403C1832.69,-120.111 1785.67,-102.806 1754.01,-91.1504"/>
<polygon fill="midnightblue" stroke="midnightblue" points="1754.9,-87.7505 1744.31,-87.5806 1752.49,-94.3196 1754.9,-87.7505"/>
</g>
<!-- Node15&#45;&gt;Node3 -->
<g id="edge23" class="edge"><title>Node15&#45;&gt;Node3</title>
<path fill="none" stroke="midnightblue" d="M1746.79,-192.813C1741.52,-169.566 1731.05,-123.371 1725.2,-97.5555"/>
<polygon fill="midnightblue" stroke="midnightblue" points="1728.57,-96.5532 1722.94,-87.5738 1721.74,-98.1 1728.57,-96.5532"/>
</g>
<!-- Node15&#45;&gt;Node4 -->
<g id="edge43" class="edge"><title>Node15&#45;&gt;Node4</title>
<path fill="none" stroke="midnightblue" d="M1817.03,-200.407C1843.77,-197.782 1874.84,-194.739 1903,-192 1944.44,-187.969 2248.01,-186.824 2276,-156 2307.51,-121.303 2272.93,-62.7677 2252.23,-33.9988"/>
<polygon fill="midnightblue" stroke="midnightblue" points="2254.88,-31.6985 2246.1,-25.7721 2249.27,-35.8817 2254.88,-31.6985"/>
</g>
<!-- Node15&#45;&gt;Node10 -->
<g id="edge45" class="edge"><title>Node15&#45;&gt;Node10</title>
<path fill="none" stroke="midnightblue" d="M1755.54,-192.795C1762.34,-175.938 1774.61,-147.197 1788,-124 1807.45,-90.3069 1834.76,-53.9625 1850.8,-33.4898"/>
<polygon fill="midnightblue" stroke="midnightblue" points="1853.65,-35.5183 1857.11,-25.5038 1848.16,-31.1758 1853.65,-35.5183"/>
</g>
<!-- Node15&#45;&gt;Node14 -->
<g id="edge16" class="edge"><title>Node15&#45;&gt;Node14</title>
<path fill="none" stroke="midnightblue" d="M1778.75,-192.841C1802.03,-181.374 1834.58,-165.342 1857.3,-154.153"/>
<polygon fill="midnightblue" stroke="midnightblue" points="1858.95,-157.24 1866.37,-149.682 1855.86,-150.961 1858.95,-157.24"/>
</g>
<!-- Node16 -->
<g id="node16" class="node"><title>Node16</title>
<g id="a_node16"><a xlink:href="../../d6/dc9/DataProcessingHeader_8h.html" target="_top" xlink:title="Framework/DataProcessing\lHeader.h">
<polygon fill="none" stroke="black" points="2129,-125 2129,-155 2267,-155 2267,-125 2129,-125"/>
<text text-anchor="start" x="2137" y="-143" font-family="Helvetica,sans-Serif" font-size="10.00">Framework/DataProcessing</text>
<text text-anchor="middle" x="2198" y="-132" font-family="Helvetica,sans-Serif" font-size="10.00">Header.h</text>
</a>
</g>
</g>
<!-- Node15&#45;&gt;Node16 -->
<g id="edge17" class="edge"><title>Node15&#45;&gt;Node16</title>
<path fill="none" stroke="midnightblue" d="M1817.07,-197.119C1897.84,-185.22 2033.32,-165.261 2119.05,-152.63"/>
<polygon fill="midnightblue" stroke="midnightblue" points="2119.61,-156.086 2129,-151.166 2118.59,-149.161 2119.61,-156.086"/>
</g>
<!-- Node18 -->
<g id="node18" class="node"><title>Node18</title>
<g id="a_node18"><a xlink:href="../../d4/d00/Headers_2include_2Headers_2Stack_8h.html" target="_top" xlink:title="Headers/Stack.h">
<polygon fill="none" stroke="black" points="1227,-130.5 1227,-149.5 1317,-149.5 1317,-130.5 1227,-130.5"/>
<text text-anchor="middle" x="1272" y="-137.5" font-family="Helvetica,sans-Serif" font-size="10.00">Headers/Stack.h</text>
</a>
</g>
</g>
<!-- Node15&#45;&gt;Node18 -->
<g id="edge24" class="edge"><title>Node15&#45;&gt;Node18</title>
<path fill="none" stroke="midnightblue" d="M1682.78,-197.719C1587.55,-184.57 1415.17,-160.768 1327.07,-148.604"/>
<polygon fill="midnightblue" stroke="midnightblue" points="1327.4,-145.116 1317.01,-147.215 1326.44,-152.05 1327.4,-145.116"/>
</g>
<!-- Node26 -->
<g id="node26" class="node"><title>Node26</title>
<polygon fill="none" stroke="#bfbfbf" points="1410,-6.5 1410,-25.5 1454,-25.5 1454,-6.5 1410,-6.5"/>
<text text-anchor="middle" x="1432" y="-13.5" font-family="Helvetica,sans-Serif" font-size="10.00">vector</text>
</g>
<!-- Node15&#45;&gt;Node26 -->
<g id="edge47" class="edge"><title>Node15&#45;&gt;Node26</title>
<path fill="none" stroke="midnightblue" d="M1682.97,-205.439C1601.66,-202.003 1471.51,-191.024 1440,-156 1410.04,-122.697 1419.26,-64.7668 1426.64,-35.3185"/>
<polygon fill="midnightblue" stroke="midnightblue" points="1430.05,-36.1049 1429.29,-25.5375 1423.3,-34.2735 1430.05,-36.1049"/>
</g>
<!-- Node32 -->
<g id="node32" class="node"><title>Node32</title>
<polygon fill="none" stroke="#bfbfbf" points="1449,-130.5 1449,-149.5 1487,-149.5 1487,-130.5 1449,-130.5"/>
<text text-anchor="middle" x="1468" y="-137.5" font-family="Helvetica,sans-Serif" font-size="10.00">array</text>
</g>
<!-- Node15&#45;&gt;Node32 -->
<g id="edge42" class="edge"><title>Node15&#45;&gt;Node32</title>
<path fill="none" stroke="midnightblue" d="M1682.77,-198.989C1630.71,-191.487 1557.37,-178.055 1496,-156 1494.39,-155.423 1492.77,-154.766 1491.15,-154.058"/>
<polygon fill="midnightblue" stroke="midnightblue" points="1492.68,-150.909 1482.16,-149.624 1489.58,-157.187 1492.68,-150.909"/>
</g>
<!-- Node33 -->
<g id="node33" class="node"><title>Node33</title>
<polygon fill="none" stroke="#bfbfbf" points="1505.5,-130.5 1505.5,-149.5 1550.5,-149.5 1550.5,-130.5 1505.5,-130.5"/>
<text text-anchor="middle" x="1528" y="-137.5" font-family="Helvetica,sans-Serif" font-size="10.00">iosfwd</text>
</g>
<!-- Node15&#45;&gt;Node33 -->
<g id="edge44" class="edge"><title>Node15&#45;&gt;Node33</title>
<path fill="none" stroke="midnightblue" d="M1686.67,-192.962C1649.3,-183.951 1601.38,-171.119 1560,-156 1558.1,-155.305 1556.15,-154.54 1554.21,-153.735"/>
<polygon fill="midnightblue" stroke="midnightblue" points="1555.26,-150.372 1544.7,-149.507 1552.42,-156.768 1555.26,-150.372"/>
</g>
<!-- Node15&#45;&gt;Node34 -->
<g id="edge46" class="edge"><title>Node15&#45;&gt;Node34</title>
<path fill="none" stroke="midnightblue" d="M1817.13,-195.85C1863.32,-187.262 1925.7,-173.835 1979,-156 1981.13,-155.286 1983.31,-154.479 1985.49,-153.619"/>
<polygon fill="midnightblue" stroke="midnightblue" points="1986.99,-156.785 1994.8,-149.631 1984.23,-150.35 1986.99,-156.785"/>
</g>
<!-- Node35 -->
<g id="node35" class="node"><title>Node35</title>
<g id="a_node35"><a xlink:href="../../d4/de7/DataDescriptorMatcher_8inc.html" target="_top" xlink:title="DataDescriptorMatcher.inc">
<polygon fill="none" stroke="black" points="1569,-130.5 1569,-149.5 1703,-149.5 1703,-130.5 1569,-130.5"/>
<text text-anchor="middle" x="1636" y="-137.5" font-family="Helvetica,sans-Serif" font-size="10.00">DataDescriptorMatcher.inc</text>
</a>
</g>
</g>
<!-- Node15&#45;&gt;Node35 -->
<g id="edge48" class="edge"><title>Node15&#45;&gt;Node35</title>
<path fill="none" stroke="midnightblue" d="M1725.54,-192.841C1706.09,-181.579 1679.03,-165.913 1659.76,-154.757"/>
<polygon fill="midnightblue" stroke="midnightblue" points="1661.4,-151.663 1651,-149.682 1657.9,-157.721 1661.4,-151.663"/>
</g>
<!-- Node16&#45;&gt;Node3 -->
<g id="edge18" class="edge"><title>Node16&#45;&gt;Node3</title>
<path fill="none" stroke="midnightblue" d="M2128.76,-126.14C2124.11,-125.383 2119.49,-124.662 2115,-124 2001.41,-107.268 1868.62,-93.2394 1789.84,-85.4924"/>
<polygon fill="midnightblue" stroke="midnightblue" points="1789.86,-81.9773 1779.57,-84.4872 1789.18,-88.9441 1789.86,-81.9773"/>
</g>
<!-- Node16&#45;&gt;Node4 -->
<g id="edge19" class="edge"><title>Node16&#45;&gt;Node4</title>
<path fill="none" stroke="midnightblue" d="M2202.86,-124.526C2210.33,-102.303 2224.62,-59.7982 2232.81,-35.4136"/>
<polygon fill="midnightblue" stroke="midnightblue" points="2236.23,-36.2169 2236.1,-25.6228 2229.6,-33.9869 2236.23,-36.2169"/>
</g>
<!-- Node16&#45;&gt;Node5 -->
<g id="edge21" class="edge"><title>Node16&#45;&gt;Node5</title>
<path fill="none" stroke="midnightblue" d="M2176.09,-124.801C2160.42,-114.619 2138.86,-100.542 2120,-88 2090.79,-68.5762 2057.24,-45.8124 2036.09,-31.3997"/>
<polygon fill="midnightblue" stroke="midnightblue" points="2037.8,-28.3297 2027.56,-25.5878 2033.85,-34.1132 2037.8,-28.3297"/>
</g>
<!-- Node16&#45;&gt;Node6 -->
<g id="edge22" class="edge"><title>Node16&#45;&gt;Node6</title>
<path fill="none" stroke="midnightblue" d="M2196.93,-124.816C2195.29,-109.847 2191.18,-85.9796 2181,-68 2173.06,-53.9692 2160.13,-41.2638 2149.15,-32.044"/>
<polygon fill="midnightblue" stroke="midnightblue" points="2151.24,-29.2339 2141.25,-25.7087 2146.86,-34.6951 2151.24,-29.2339"/>
</g>
<!-- Node17 -->
<g id="node17" class="node"><title>Node17</title>
<polygon fill="none" stroke="#bfbfbf" points="2129.5,-68.5 2129.5,-87.5 2172.5,-87.5 2172.5,-68.5 2129.5,-68.5"/>
<text text-anchor="middle" x="2151" y="-75.5" font-family="Helvetica,sans-Serif" font-size="10.00">cstdio</text>
</g>
<!-- Node16&#45;&gt;Node17 -->
<g id="edge20" class="edge"><title>Node16&#45;&gt;Node17</title>
<path fill="none" stroke="midnightblue" d="M2186.86,-124.781C2180.03,-116.062 2171.26,-104.857 2164.09,-95.7153"/>
<polygon fill="midnightblue" stroke="midnightblue" points="2166.76,-93.4445 2157.84,-87.7305 2161.25,-97.7612 2166.76,-93.4445"/>
</g>
<!-- Node18&#45;&gt;Node3 -->
<g id="edge41" class="edge"><title>Node18&#45;&gt;Node3</title>
<path fill="none" stroke="midnightblue" d="M1302.45,-130.429C1311.58,-128.086 1321.64,-125.721 1331,-124 1442.63,-103.466 1574.05,-90.6054 1652.28,-84.1237"/>
<polygon fill="midnightblue" stroke="midnightblue" points="1652.81,-87.5923 1662.49,-83.2891 1652.24,-80.6156 1652.81,-87.5923"/>
</g>
<!-- Node19 -->
<g id="node19" class="node"><title>Node19</title>
<g id="a_node19"><a xlink:href="../../dc/d03/MemoryResources_8h.html" target="_top" xlink:title="MemoryResources/MemoryResources.h">
<polygon fill="none" stroke="black" points="864.5,-68.5 864.5,-87.5 1057.5,-87.5 1057.5,-68.5 864.5,-68.5"/>
<text text-anchor="middle" x="961" y="-75.5" font-family="Helvetica,sans-Serif" font-size="10.00">MemoryResources/MemoryResources.h</text>
</a>
</g>
</g>
<!-- Node18&#45;&gt;Node19 -->
<g id="edge25" class="edge"><title>Node18&#45;&gt;Node19</title>
<path fill="none" stroke="midnightblue" d="M1227.77,-130.467C1171.81,-119.671 1075.48,-101.086 1015.17,-89.4501"/>
<polygon fill="midnightblue" stroke="midnightblue" points="1015.56,-85.9612 1005.08,-87.5034 1014.23,-92.8344 1015.56,-85.9612"/>
</g>
<!-- Node19&#45;&gt;Node7 -->
<g id="edge30" class="edge"><title>Node19&#45;&gt;Node7</title>
<path fill="none" stroke="midnightblue" d="M1057.54,-72.1935C1181.13,-65.3711 1388.12,-51.5043 1462,-32 1464.5,-31.3394 1467.05,-30.5039 1469.57,-29.5668"/>
<polygon fill="midnightblue" stroke="midnightblue" points="1471.1,-32.7194 1478.95,-25.604 1468.38,-26.271 1471.1,-32.7194"/>
</g>
<!-- Node19&#45;&gt;Node10 -->
<g id="edge31" class="edge"><title>Node19&#45;&gt;Node10</title>
<path fill="none" stroke="midnightblue" d="M1057.79,-76.8305C1253.29,-75.6987 1688.92,-68.9609 1833,-32 1835.35,-31.3983 1837.72,-30.6116 1840.07,-29.7134"/>
<polygon fill="midnightblue" stroke="midnightblue" points="1841.62,-32.8544 1849.32,-25.5826 1838.77,-26.4621 1841.62,-32.8544"/>
</g>
<!-- Node19&#45;&gt;Node11 -->
<g id="edge40" class="edge"><title>Node19&#45;&gt;Node11</title>
<path fill="none" stroke="midnightblue" d="M1057.74,-72.5719C1170.71,-66.6469 1363.02,-54.2169 1527,-32 1536.13,-30.7628 1545.81,-29.1493 1555.13,-27.4403"/>
<polygon fill="midnightblue" stroke="midnightblue" points="1555.88,-30.8601 1565.06,-25.5617 1554.58,-23.9822 1555.88,-30.8601"/>
</g>
<!-- Node20 -->
<g id="node20" class="node"><title>Node20</title>
<polygon fill="none" stroke="#bfbfbf" points="984,-1 984,-31 1084,-31 1084,-1 984,-1"/>
<text text-anchor="start" x="992" y="-19" font-family="Helvetica,sans-Serif" font-size="10.00">boost/container/flat</text>
<text text-anchor="middle" x="1034" y="-8" font-family="Helvetica,sans-Serif" font-size="10.00">_map.hpp</text>
</g>
<!-- Node19&#45;&gt;Node20 -->
<g id="edge26" class="edge"><title>Node19&#45;&gt;Node20</title>
<path fill="none" stroke="midnightblue" d="M971.459,-68.4035C981.161,-60.4292 995.985,-48.2451 1008.77,-37.7403"/>
<polygon fill="midnightblue" stroke="midnightblue" points="1011.29,-40.1944 1016.8,-31.1408 1006.85,-34.7866 1011.29,-40.1944"/>
</g>
<!-- Node21 -->
<g id="node21" class="node"><title>Node21</title>
<polygon fill="none" stroke="#bfbfbf" points="1102,-1 1102,-31 1218,-31 1218,-1 1102,-1"/>
<text text-anchor="start" x="1110" y="-19" font-family="Helvetica,sans-Serif" font-size="10.00">boost/container/pmr</text>
<text text-anchor="middle" x="1160" y="-8" font-family="Helvetica,sans-Serif" font-size="10.00">/memory_resource.hpp</text>
</g>
<!-- Node19&#45;&gt;Node21 -->
<g id="edge27" class="edge"><title>Node19&#45;&gt;Node21</title>
<path fill="none" stroke="midnightblue" d="M989.512,-68.4035C1019.21,-59.4501 1066.5,-45.1897 1103.76,-33.9579"/>
<polygon fill="midnightblue" stroke="midnightblue" points="1104.92,-37.2631 1113.48,-31.0253 1102.9,-30.5611 1104.92,-37.2631"/>
</g>
<!-- Node22 -->
<g id="node22" class="node"><title>Node22</title>
<polygon fill="none" stroke="#bfbfbf" points="1236,-1 1236,-31 1392,-31 1392,-1 1236,-1"/>
<text text-anchor="start" x="1244" y="-19" font-family="Helvetica,sans-Serif" font-size="10.00">boost/container/pmr</text>
<text text-anchor="middle" x="1314" y="-8" font-family="Helvetica,sans-Serif" font-size="10.00">/monotonic_buffer_resource.hpp</text>
</g>
<!-- Node19&#45;&gt;Node22 -->
<g id="edge28" class="edge"><title>Node19&#45;&gt;Node22</title>
<path fill="none" stroke="midnightblue" d="M1011.31,-68.4663C1062.53,-59.7756 1144.53,-45.8588 1225.88,-32.0206"/>
<polygon fill="midnightblue" stroke="midnightblue" points="1226.52,-35.4614 1235.79,-30.3338 1225.35,-28.5606 1226.52,-35.4614"/>
</g>
<!-- Node23 -->
<g id="node23" class="node"><title>Node23</title>
<polygon fill="none" stroke="#bfbfbf" points="-0.5,-1 -0.5,-31 132.5,-31 132.5,-1 -0.5,-1"/>
<text text-anchor="start" x="7.5" y="-19" font-family="Helvetica,sans-Serif" font-size="10.00">boost/container/pmr</text>
<text text-anchor="middle" x="66" y="-8" font-family="Helvetica,sans-Serif" font-size="10.00">/polymorphic_allocator.hpp</text>
</g>
<!-- Node19&#45;&gt;Node23 -->
<g id="edge29" class="edge"><title>Node19&#45;&gt;Node23</title>
<path fill="none" stroke="midnightblue" d="M864.47,-76.063C712.864,-73.6236 409.626,-64.84 142.913,-31.9806"/>
<polygon fill="midnightblue" stroke="midnightblue" points="142.998,-28.4643 132.642,-30.7011 142.133,-35.4106 142.998,-28.4643"/>
</g>
<!-- Node24 -->
<g id="node24" class="node"><title>Node24</title>
<polygon fill="none" stroke="#bfbfbf" points="151,-6.5 151,-25.5 213,-25.5 213,-6.5 151,-6.5"/>
<text text-anchor="middle" x="182" y="-13.5" font-family="Helvetica,sans-Serif" font-size="10.00">type_traits</text>
</g>
<!-- Node19&#45;&gt;Node24 -->
<g id="edge32" class="edge"><title>Node19&#45;&gt;Node24</title>
<path fill="none" stroke="midnightblue" d="M864.477,-74.6865C692.955,-69.9823 341.825,-57.514 222,-32 218.3,-31.2123 214.487,-30.1431 210.753,-28.9358"/>
<polygon fill="midnightblue" stroke="midnightblue" points="211.778,-25.5853 201.183,-25.5162 209.422,-32.1771 211.778,-25.5853"/>
</g>
<!-- Node25 -->
<g id="node25" class="node"><title>Node25</title>
<polygon fill="none" stroke="#bfbfbf" points="231,-6.5 231,-25.5 271,-25.5 271,-6.5 231,-6.5"/>
<text text-anchor="middle" x="251" y="-13.5" font-family="Helvetica,sans-Serif" font-size="10.00">utility</text>
</g>
<!-- Node19&#45;&gt;Node25 -->
<g id="edge33" class="edge"><title>Node19&#45;&gt;Node25</title>
<path fill="none" stroke="midnightblue" d="M864.447,-75.4743C703.425,-72.1187 387.15,-61.8468 280,-32 278.034,-31.4524 276.048,-30.7622 274.086,-29.9804"/>
<polygon fill="midnightblue" stroke="midnightblue" points="275.219,-26.645 264.681,-25.5428 272.231,-32.9756 275.219,-26.645"/>
</g>
<!-- Node19&#45;&gt;Node26 -->
<g id="edge34" class="edge"><title>Node19&#45;&gt;Node26</title>
<path fill="none" stroke="midnightblue" d="M1057.64,-76.7113C1148.02,-74.2083 1285.94,-64.6244 1401,-32 1403.2,-31.3772 1405.43,-30.6064 1407.63,-29.7456"/>
<polygon fill="midnightblue" stroke="midnightblue" points="1409.26,-32.8513 1416.97,-25.5762 1406.41,-26.4603 1409.26,-32.8513"/>
</g>
<!-- Node27 -->
<g id="node27" class="node"><title>Node27</title>
<polygon fill="none" stroke="#bfbfbf" points="289.5,-6.5 289.5,-25.5 372.5,-25.5 372.5,-6.5 289.5,-6.5"/>
<text text-anchor="middle" x="331" y="-13.5" font-family="Helvetica,sans-Serif" font-size="10.00">unordered_map</text>
</g>
<!-- Node19&#45;&gt;Node27 -->
<g id="edge35" class="edge"><title>Node19&#45;&gt;Node27</title>
<path fill="none" stroke="midnightblue" d="M864.477,-75.8061C748.696,-72.9304 549.162,-63.3731 381,-32 375.897,-31.0479 370.574,-29.7709 365.385,-28.3621"/>
<polygon fill="midnightblue" stroke="midnightblue" points="366.245,-24.9672 355.666,-25.541 364.294,-31.6898 366.245,-24.9672"/>
</g>
<!-- Node28 -->
<g id="node28" class="node"><title>Node28</title>
<polygon fill="none" stroke="#bfbfbf" points="390.5,-6.5 390.5,-25.5 487.5,-25.5 487.5,-6.5 390.5,-6.5"/>
<text text-anchor="middle" x="439" y="-13.5" font-family="Helvetica,sans-Serif" font-size="10.00">FairMQMessage.h</text>
</g>
<!-- Node19&#45;&gt;Node28 -->
<g id="edge36" class="edge"><title>Node19&#45;&gt;Node28</title>
<path fill="none" stroke="midnightblue" d="M864.201,-72.1796C769.71,-66.4072 622.148,-54.5512 496,-32 490.063,-30.9387 483.839,-29.571 477.774,-28.0943"/>
<polygon fill="midnightblue" stroke="midnightblue" points="478.352,-24.6295 467.797,-25.5409 476.617,-31.411 478.352,-24.6295"/>
</g>
<!-- Node29 -->
<g id="node29" class="node"><title>Node29</title>
<polygon fill="none" stroke="#bfbfbf" points="505.5,-6.5 505.5,-25.5 636.5,-25.5 636.5,-6.5 505.5,-6.5"/>
<text text-anchor="middle" x="571" y="-13.5" font-family="Helvetica,sans-Serif" font-size="10.00">FairMQTransportFactory.h</text>
</g>
<!-- Node19&#45;&gt;Node29 -->
<g id="edge37" class="edge"><title>Node19&#45;&gt;Node29</title>
<path fill="none" stroke="midnightblue" d="M893.014,-68.4882C828.897,-60.1843 730.19,-46.6869 645,-32 637.189,-30.6533 628.939,-29.1059 620.893,-27.5278"/>
<polygon fill="midnightblue" stroke="midnightblue" points="621.352,-24.0503 610.86,-25.5251 619.982,-30.9149 621.352,-24.0503"/>
</g>
<!-- Node30 -->
<g id="node30" class="node"><title>Node30</title>
<polygon fill="none" stroke="#bfbfbf" points="654.5,-6.5 654.5,-25.5 791.5,-25.5 791.5,-6.5 654.5,-6.5"/>
<text text-anchor="middle" x="723" y="-13.5" font-family="Helvetica,sans-Serif" font-size="10.00">fairmq/MemoryResources.h</text>
</g>
<!-- Node19&#45;&gt;Node30 -->
<g id="edge38" class="edge"><title>Node19&#45;&gt;Node30</title>
<path fill="none" stroke="midnightblue" d="M927.153,-68.4672C884.948,-57.8272 812.732,-39.6215 766.472,-27.9593"/>
<polygon fill="midnightblue" stroke="midnightblue" points="767.282,-24.5542 756.73,-25.5034 765.571,-31.3418 767.282,-24.5542"/>
</g>
<!-- Node31 -->
<g id="node31" class="node"><title>Node31</title>
<polygon fill="none" stroke="#bfbfbf" points="810,-6.5 810,-25.5 966,-25.5 966,-6.5 810,-6.5"/>
<text text-anchor="middle" x="888" y="-13.5" font-family="Helvetica,sans-Serif" font-size="10.00">fairmq/MemoryResourceTools.h</text>
</g>
<!-- Node19&#45;&gt;Node31 -->
<g id="edge39" class="edge"><title>Node19&#45;&gt;Node31</title>
<path fill="none" stroke="midnightblue" d="M950.541,-68.4035C939.049,-58.9579 920.37,-43.6056 906.413,-32.1342"/>
<polygon fill="midnightblue" stroke="midnightblue" points="908.388,-29.2264 898.44,-25.5806 903.943,-34.6342 908.388,-29.2264"/>
</g>
<!-- Node37&#45;&gt;Node3 -->
<g id="edge53" class="edge"><title>Node37&#45;&gt;Node3</title>
<path fill="none" stroke="midnightblue" d="M1392.73,-260.427C1383.03,-252.275 1369.72,-239.046 1364,-224 1358.95,-210.706 1358.61,-205.16 1364,-192 1380.09,-152.742 1393.24,-143.342 1431,-124 1468.57,-104.755 1579.01,-91.5701 1652.24,-84.6631"/>
<polygon fill="midnightblue" stroke="midnightblue" points="1652.68,-88.1374 1662.31,-83.7302 1652.03,-81.1672 1652.68,-88.1374"/>
</g>
<!-- Node37&#45;&gt;Node13 -->
<g id="edge54" class="edge"><title>Node37&#45;&gt;Node13</title>
<path fill="none" stroke="midnightblue" d="M1407.58,-260.403C1411.18,-251.76 1416.85,-238.17 1421.44,-227.134"/>
<polygon fill="midnightblue" stroke="midnightblue" points="1424.81,-228.158 1425.42,-217.581 1418.35,-225.465 1424.81,-228.158"/>
</g>
<!-- Node37&#45;&gt;Node18 -->
<g id="edge55" class="edge"><title>Node37&#45;&gt;Node18</title>
<path fill="none" stroke="midnightblue" d="M1385.82,-260.413C1370.16,-252.433 1347.52,-239.469 1331,-224 1310.1,-204.423 1292.02,-176.385 1281.57,-158.435"/>
<polygon fill="midnightblue" stroke="midnightblue" points="1284.55,-156.595 1276.57,-149.618 1278.46,-160.044 1284.55,-156.595"/>
</g>
<!-- Node38&#45;&gt;Node3 -->
<g id="edge57" class="edge"><title>Node38&#45;&gt;Node3</title>
<path fill="none" stroke="midnightblue" d="M1535.24,-260.095C1528.48,-244.839 1513.09,-213.294 1493,-192 1473.46,-171.288 1453.33,-181.164 1440,-156 1433.34,-143.432 1430.77,-134.823 1440,-124 1466.71,-92.6707 1577.74,-83.0612 1651.98,-80.1696"/>
<polygon fill="midnightblue" stroke="midnightblue" points="1652.33,-83.6595 1662.2,-79.8047 1652.08,-76.6639 1652.33,-83.6595"/>
</g>
<!-- Node38&#45;&gt;Node13 -->
<g id="edge58" class="edge"><title>Node38&#45;&gt;Node13</title>
<path fill="none" stroke="midnightblue" d="M1523.24,-260.403C1505.02,-250.468 1474.83,-233.997 1453.53,-222.381"/>
<polygon fill="midnightblue" stroke="midnightblue" points="1455.19,-219.297 1444.73,-217.581 1451.83,-225.442 1455.19,-219.297"/>
</g>
<!-- Node40 -->
<g id="node40" class="node"><title>Node40</title>
<g id="a_node40"><a xlink:href="../../d5/dfb/DataRef_8h.html" target="_top" xlink:title="Framework/DataRef.h">
<polygon fill="none" stroke="black" points="2248.5,-198.5 2248.5,-217.5 2361.5,-217.5 2361.5,-198.5 2248.5,-198.5"/>
<text text-anchor="middle" x="2305" y="-205.5" font-family="Helvetica,sans-Serif" font-size="10.00">Framework/DataRef.h</text>
</a>
</g>
</g>
<!-- Node39&#45;&gt;Node40 -->
<g id="edge60" class="edge"><title>Node39&#45;&gt;Node40</title>
<path fill="none" stroke="midnightblue" d="M2263.88,-260.403C2271.15,-251.314 2282.8,-236.756 2291.84,-225.449"/>
<polygon fill="midnightblue" stroke="midnightblue" points="2294.62,-227.576 2298.14,-217.581 2289.16,-223.203 2294.62,-227.576"/>
</g>
<!-- Node39&#45;&gt;Node41 -->
<g id="edge61" class="edge"><title>Node39&#45;&gt;Node41</title>
<path fill="none" stroke="midnightblue" d="M2245.97,-260.403C2235.64,-252.353 2219.8,-240.013 2206.23,-229.441"/>
<polygon fill="midnightblue" stroke="midnightblue" points="2208.19,-226.527 2198.15,-223.141 2203.88,-232.048 2208.19,-226.527"/>
</g>
<!-- Node42&#45;&gt;Node39 -->
<g id="edge64" class="edge"><title>Node42&#45;&gt;Node39</title>
<path fill="none" stroke="midnightblue" d="M2231.06,-316.781C2235.85,-308.332 2241.96,-297.548 2247.04,-288.569"/>
<polygon fill="midnightblue" stroke="midnightblue" points="2250.17,-290.156 2252.05,-279.731 2244.08,-286.705 2250.17,-290.156"/>
</g>
<!-- Node43&#45;&gt;Node3 -->
<g id="edge68" class="edge"><title>Node43&#45;&gt;Node3</title>
<path fill="none" stroke="midnightblue" d="M1470.87,-322.5C1431.28,-315.393 1381.56,-302.62 1342,-280 1265.11,-236.041 1158.23,-189.358 1218,-124 1246.7,-92.6216 1520.75,-82.9586 1651.82,-80.1185"/>
<polygon fill="midnightblue" stroke="midnightblue" points="1652.22,-83.6109 1662.15,-79.9025 1652.08,-76.6125 1652.22,-83.6109"/>
</g>
<!-- Node43&#45;&gt;Node12 -->
<g id="edge67" class="edge"><title>Node43&#45;&gt;Node12</title>
<path fill="none" stroke="midnightblue" d="M1591.9,-322.467C1659.39,-311.582 1775.98,-292.778 1847.99,-281.163"/>
<polygon fill="midnightblue" stroke="midnightblue" points="1848.96,-284.551 1858.28,-279.503 1847.85,-277.64 1848.96,-284.551"/>
</g>
<!-- Node43&#45;&gt;Node37 -->
<g id="edge69" class="edge"><title>Node43&#45;&gt;Node37</title>
<path fill="none" stroke="midnightblue" d="M1519.66,-322.403C1496.9,-312.29 1458.91,-295.404 1432.71,-283.761"/>
<polygon fill="midnightblue" stroke="midnightblue" points="1433.87,-280.444 1423.31,-279.581 1431.02,-286.84 1433.87,-280.444"/>
</g>
<!-- Node43&#45;&gt;Node38 -->
<g id="edge66" class="edge"><title>Node43&#45;&gt;Node38</title>
<path fill="none" stroke="midnightblue" d="M1539,-322.403C1539,-313.938 1539,-300.728 1539,-289.82"/>
<polygon fill="midnightblue" stroke="midnightblue" points="1542.5,-289.581 1539,-279.581 1535.5,-289.581 1542.5,-289.581"/>
</g>
</g>
</svg>
