<?xml version="1.0" encoding="UTF-8" standalone="no"?>
<!DOCTYPE svg PUBLIC "-//W3C//DTD SVG 1.1//EN"
 "http://www.w3.org/Graphics/SVG/1.1/DTD/svg11.dtd">
<!-- Generated by graphviz version 2.36.0 (20140111.2315)
 -->
<!-- Title: /home/travis/build/AliceO2Group/AliceO2/Framework/Core/include/Framework/DataSpecUtils.h Pages: 1 -->
<!--zoomable 242 -->
<svg id="main" version="1.1" xmlns="http://www.w3.org/2000/svg" xmlns:xlink="http://www.w3.org/1999/xlink" xml:space="preserve" onload="init(evt)">
<style type="text/css"><![CDATA[
.edge:hover path { stroke: red; }
.edge:hover polygon { stroke: red; fill: red; }
]]></style>
<script type="text/javascript"><![CDATA[
var edges = document.getElementsByTagName('g');
if (edges && edges.length) {
  for (var i=0;i<edges.length;i++) {
    if (edges[i].id.substr(0,4)=='edge') {
      edges[i].setAttribute('class','edge');
    }
  }
}
]]></script>
        <defs>
                <circle id="rim" cx="0" cy="0" r="7"/>
                <circle id="rim2" cx="0" cy="0" r="3.5"/>
                <g id="zoomPlus">
                        <use xlink:href="#rim" fill="#404040">
                                <set attributeName="fill" to="#808080" begin="zoomplus.mouseover" end="zoomplus.mouseout"/>
                        </use>
                        <path d="M-4,0h8M0,-4v8" fill="none" stroke="white" stroke-width="1.5" pointer-events="none"/>
                </g>
                <g id="zoomMin">
                        <use xlink:href="#rim" fill="#404040">
                                <set attributeName="fill" to="#808080" begin="zoomminus.mouseover" end="zoomminus.mouseout"/>
                        </use>
                        <path d="M-4,0h8" fill="none" stroke="white" stroke-width="1.5" pointer-events="none"/>
                </g>
                <g id="dirArrow">
                        <path fill="none" stroke="white" stroke-width="1.5" d="M0,-3.0v7 M-2.5,-0.5L0,-3.0L2.5,-0.5"/>
                </g>
               <g id="resetDef">
                       <use xlink:href="#rim2" fill="#404040">
                               <set attributeName="fill" to="#808080" begin="reset.mouseover" end="reset.mouseout"/>
                       </use>
               </g>
        </defs>

<script type="text/javascript">
var viewWidth = 3239;
var viewHeight = 242;
var sectionId = 'dynsection-1';
</script>
<script xlink:href="../../svgpan.js"/>
<svg id="graph" class="graph">
<g id="viewport">
<title>/home/travis/build/AliceO2Group/AliceO2/Framework/Core/include/Framework/DataSpecUtils.h</title>
<!-- Node1 -->
<g id="node1" class="node"><title>Node1</title>
<polygon fill="#bfbfbf" stroke="black" points="1511.5,-181 1511.5,-233 1654.5,-233 1654.5,-181 1511.5,-181"/>
<text text-anchor="start" x="1519.5" y="-221" font-family="Helvetica,sans-Serif" font-size="10.00">/home/travis/build</text>
<text text-anchor="start" x="1519.5" y="-210" font-family="Helvetica,sans-Serif" font-size="10.00">/AliceO2Group/AliceO2</text>
<text text-anchor="start" x="1519.5" y="-199" font-family="Helvetica,sans-Serif" font-size="10.00">/Framework/Core/include</text>
<text text-anchor="middle" x="1583" y="-188" font-family="Helvetica,sans-Serif" font-size="10.00">/Framework/DataSpecUtils.h</text>
</g>
<!-- Node2 -->
<g id="node2" class="node"><title>Node2</title>
<g id="a_node2"><a xlink:href="../../da/d78/CATrackerSpec_8cxx.html" target="_top" xlink:title="Processor spec for running TPC CA tracking. ">
<polygon fill="none" stroke="black" points="77,-91 77,-143 205,-143 205,-91 77,-91"/>
<text text-anchor="start" x="85" y="-131" font-family="Helvetica,sans-Serif" font-size="10.00">/home/travis/build</text>
<text text-anchor="start" x="85" y="-120" font-family="Helvetica,sans-Serif" font-size="10.00">/AliceO2Group/AliceO2</text>
<text text-anchor="start" x="85" y="-109" font-family="Helvetica,sans-Serif" font-size="10.00">/Detectors/TPC/workflow</text>
<text text-anchor="middle" x="141" y="-98" font-family="Helvetica,sans-Serif" font-size="10.00">/src/CATrackerSpec.cxx</text>
</a>
</g>
</g>
<!-- Node1&#45;&gt;Node2 -->
<g id="edge1" class="edge"><title>Node1&#45;&gt;Node2</title>
<path fill="none" stroke="midnightblue" d="M1500.87,-205.466C1244.69,-203.299 462.554,-192.758 214,-144 211.096,-143.43 208.151,-142.766 205.195,-142.029"/>
<polygon fill="midnightblue" stroke="midnightblue" points="1501.19,-208.969 1511.22,-205.551 1501.25,-201.969 1501.19,-208.969"/>
</g>
<!-- Node3 -->
<g id="node3" class="node"><title>Node3</title>
<g id="a_node3"><a xlink:href="../../d0/d80/TPC_2workflow_2src_2RecoWorkflow_8cxx.html" target="_top" xlink:title="/home/travis/build\l/AliceO2Group/AliceO2\l/Detectors/TPC/workflow\l/src/RecoWorkflow.cxx">
<polygon fill="none" stroke="black" points="223,-91 223,-143 351,-143 351,-91 223,-91"/>
<text text-anchor="start" x="231" y="-131" font-family="Helvetica,sans-Serif" font-size="10.00">/home/travis/build</text>
<text text-anchor="start" x="231" y="-120" font-family="Helvetica,sans-Serif" font-size="10.00">/AliceO2Group/AliceO2</text>
<text text-anchor="start" x="231" y="-109" font-family="Helvetica,sans-Serif" font-size="10.00">/Detectors/TPC/workflow</text>
<text text-anchor="middle" x="287" y="-98" font-family="Helvetica,sans-Serif" font-size="10.00">/src/RecoWorkflow.cxx</text>
</a>
</g>
</g>
<!-- Node1&#45;&gt;Node3 -->
<g id="edge2" class="edge"><title>Node1&#45;&gt;Node3</title>
<path fill="none" stroke="midnightblue" d="M1501.16,-204.718C1264.74,-200.556 583.731,-185.229 365,-144 360.511,-143.154 355.926,-142.113 351.338,-140.939"/>
<polygon fill="midnightblue" stroke="midnightblue" points="1501.35,-208.221 1511.41,-204.896 1501.47,-201.222 1501.35,-208.221"/>
</g>
<!-- Node4 -->
<g id="node4" class="node"><title>Node4</title>
<g id="a_node4"><a xlink:href="../../d3/d2c/ChannelMatching_8h.html" target="_top" xlink:title="/home/travis/build\l/AliceO2Group/AliceO2\l/Framework/Core/include\l/Framework/ChannelMatching.h">
<polygon fill="none" stroke="black" points="407.5,-91 407.5,-143 562.5,-143 562.5,-91 407.5,-91"/>
<text text-anchor="start" x="415.5" y="-131" font-family="Helvetica,sans-Serif" font-size="10.00">/home/travis/build</text>
<text text-anchor="start" x="415.5" y="-120" font-family="Helvetica,sans-Serif" font-size="10.00">/AliceO2Group/AliceO2</text>
<text text-anchor="start" x="415.5" y="-109" font-family="Helvetica,sans-Serif" font-size="10.00">/Framework/Core/include</text>
<text text-anchor="middle" x="485" y="-98" font-family="Helvetica,sans-Serif" font-size="10.00">/Framework/ChannelMatching.h</text>
</a>
</g>
</g>
<!-- Node1&#45;&gt;Node4 -->
<g id="edge3" class="edge"><title>Node1&#45;&gt;Node4</title>
<path fill="none" stroke="midnightblue" d="M1501.35,-206.85C1329.17,-207.358 916.754,-201.793 577,-144 572.255,-143.193 567.404,-142.235 562.533,-141.171"/>
<polygon fill="midnightblue" stroke="midnightblue" points="1501.37,-210.35 1511.35,-206.813 1501.34,-203.35 1501.37,-210.35"/>
</g>
<!-- Node5 -->
<g id="node5" class="node"><title>Node5</title>
<g id="a_node5"><a xlink:href="../../db/dac/DataProcessingDevice_8cxx.html" target="_top" xlink:title="/home/travis/build\l/AliceO2Group/AliceO2\l/Framework/Core/src/DataProcessing\lDevice.cxx">
<polygon fill="none" stroke="black" points="0,-1 0,-53 182,-53 182,-1 0,-1"/>
<text text-anchor="start" x="8" y="-41" font-family="Helvetica,sans-Serif" font-size="10.00">/home/travis/build</text>
<text text-anchor="start" x="8" y="-30" font-family="Helvetica,sans-Serif" font-size="10.00">/AliceO2Group/AliceO2</text>
<text text-anchor="start" x="8" y="-19" font-family="Helvetica,sans-Serif" font-size="10.00">/Framework/Core/src/DataProcessing</text>
<text text-anchor="middle" x="91" y="-8" font-family="Helvetica,sans-Serif" font-size="10.00">Device.cxx</text>
</a>
</g>
</g>
<!-- Node1&#45;&gt;Node5 -->
<g id="edge11" class="edge"><title>Node1&#45;&gt;Node5</title>
<path fill="none" stroke="midnightblue" d="M1501.01,-205.772C1248.7,-204.511 495.107,-196.355 399,-144 373.003,-129.838 384.802,-106.165 360,-90 295.662,-48.0683 265.737,-71.6667 191,-54 188.12,-53.3191 185.195,-52.618 182.244,-51.902"/>
<polygon fill="midnightblue" stroke="midnightblue" points="1501.19,-209.273 1511.21,-205.821 1501.23,-202.273 1501.19,-209.273"/>
</g>
<!-- Node9 -->
<g id="node9" class="node"><title>Node9</title>
<g id="a_node9"><a xlink:href="../../dc/da7/WorkflowHelpers_8cxx.html" target="_top" xlink:title="/home/travis/build\l/AliceO2Group/AliceO2\l/Framework/Core/src/Workflow\lHelpers.cxx">
<polygon fill="none" stroke="black" points="818.5,-1 818.5,-53 971.5,-53 971.5,-1 818.5,-1"/>
<text text-anchor="start" x="826.5" y="-41" font-family="Helvetica,sans-Serif" font-size="10.00">/home/travis/build</text>
<text text-anchor="start" x="826.5" y="-30" font-family="Helvetica,sans-Serif" font-size="10.00">/AliceO2Group/AliceO2</text>
<text text-anchor="start" x="826.5" y="-19" font-family="Helvetica,sans-Serif" font-size="10.00">/Framework/Core/src/Workflow</text>
<text text-anchor="middle" x="895" y="-8" font-family="Helvetica,sans-Serif" font-size="10.00">Helpers.cxx</text>
</a>
</g>
</g>
<!-- Node1&#45;&gt;Node9 -->
<g id="edge17" class="edge"><title>Node1&#45;&gt;Node9</title>
<path fill="none" stroke="midnightblue" d="M1501.13,-203.794C1272.4,-197.235 641.285,-176.278 611,-144 594.578,-126.498 595.63,-108.433 611,-90 639.5,-55.8202 764.726,-64.387 808,-54 811.372,-53.1905 814.808,-52.3282 818.27,-51.428"/>
<polygon fill="midnightblue" stroke="midnightblue" points="1501.3,-207.3 1511.39,-204.086 1501.5,-200.303 1501.3,-207.3"/>
</g>
<!-- Node10 -->
<g id="node10" class="node"><title>Node10</title>
<g id="a_node10"><a xlink:href="../../df/d93/CommonDataProcessors_8cxx.html" target="_top" xlink:title="/home/travis/build\l/AliceO2Group/AliceO2\l/Framework/Core/src/CommonData\lProcessors.cxx">
<polygon fill="none" stroke="black" points="619.5,-91 619.5,-143 792.5,-143 792.5,-91 619.5,-91"/>
<text text-anchor="start" x="627.5" y="-131" font-family="Helvetica,sans-Serif" font-size="10.00">/home/travis/build</text>
<text text-anchor="start" x="627.5" y="-120" font-family="Helvetica,sans-Serif" font-size="10.00">/AliceO2Group/AliceO2</text>
<text text-anchor="start" x="627.5" y="-109" font-family="Helvetica,sans-Serif" font-size="10.00">/Framework/Core/src/CommonData</text>
<text text-anchor="middle" x="706" y="-98" font-family="Helvetica,sans-Serif" font-size="10.00">Processors.cxx</text>
</a>
</g>
</g>
<!-- Node1&#45;&gt;Node10 -->
<g id="edge9" class="edge"><title>Node1&#45;&gt;Node10</title>
<path fill="none" stroke="midnightblue" d="M1501.38,-204.485C1358.58,-200.733 1054.58,-187.84 802,-144 798.938,-143.468 795.831,-142.883 792.703,-142.254"/>
<polygon fill="midnightblue" stroke="midnightblue" points="1501.29,-207.984 1511.38,-204.74 1501.47,-200.986 1501.29,-207.984"/>
</g>
<!-- Node11 -->
<g id="node11" class="node"><title>Node11</title>
<g id="a_node11"><a xlink:href="../../db/d9d/DataAllocator_8cxx.html" target="_top" xlink:title="/home/travis/build\l/AliceO2Group/AliceO2\l/Framework/Core/src/DataAllocator.cxx">
<polygon fill="none" stroke="black" points="811,-96.5 811,-137.5 1001,-137.5 1001,-96.5 811,-96.5"/>
<text text-anchor="start" x="819" y="-125.5" font-family="Helvetica,sans-Serif" font-size="10.00">/home/travis/build</text>
<text text-anchor="start" x="819" y="-114.5" font-family="Helvetica,sans-Serif" font-size="10.00">/AliceO2Group/AliceO2</text>
<text text-anchor="middle" x="906" y="-103.5" font-family="Helvetica,sans-Serif" font-size="10.00">/Framework/Core/src/DataAllocator.cxx</text>
</a>
</g>
</g>
<!-- Node1&#45;&gt;Node11 -->
<g id="edge10" class="edge"><title>Node1&#45;&gt;Node11</title>
<path fill="none" stroke="midnightblue" d="M1501.06,-200.606C1389.56,-192.474 1184.11,-174.671 1011,-144 1000.74,-142.182 989.989,-139.93 979.449,-137.518"/>
<polygon fill="midnightblue" stroke="midnightblue" points="1501,-204.111 1511.22,-201.34 1501.5,-197.129 1501,-204.111"/>
</g>
<!-- Node12 -->
<g id="node12" class="node"><title>Node12</title>
<g id="a_node12"><a xlink:href="../../d1/d57/DataRelayer_8cxx.html" target="_top" xlink:title="/home/travis/build\l/AliceO2Group/AliceO2\l/Framework/Core/src/DataRelayer.cxx">
<polygon fill="none" stroke="black" points="1019.5,-96.5 1019.5,-137.5 1204.5,-137.5 1204.5,-96.5 1019.5,-96.5"/>
<text text-anchor="start" x="1027.5" y="-125.5" font-family="Helvetica,sans-Serif" font-size="10.00">/home/travis/build</text>
<text text-anchor="start" x="1027.5" y="-114.5" font-family="Helvetica,sans-Serif" font-size="10.00">/AliceO2Group/AliceO2</text>
<text text-anchor="middle" x="1112" y="-103.5" font-family="Helvetica,sans-Serif" font-size="10.00">/Framework/Core/src/DataRelayer.cxx</text>
</a>
</g>
</g>
<!-- Node1&#45;&gt;Node12 -->
<g id="edge12" class="edge"><title>Node1&#45;&gt;Node12</title>
<path fill="none" stroke="midnightblue" d="M1500.92,-194.209C1425.89,-182.959 1312.04,-164.694 1214,-144 1204.79,-142.056 1195.16,-139.842 1185.65,-137.546"/>
<polygon fill="midnightblue" stroke="midnightblue" points="1500.83,-197.735 1511.24,-195.75 1501.87,-190.812 1500.83,-197.735"/>
</g>
<!-- Node13 -->
<g id="node13" class="node"><title>Node13</title>
<g id="a_node13"><a xlink:href="../../de/d3b/DataSamplingPolicy_8cxx.html" target="_top" xlink:title="Implementation of O2 Data Sampling Policy. ">
<polygon fill="none" stroke="black" points="1222.5,-91 1222.5,-143 1395.5,-143 1395.5,-91 1222.5,-91"/>
<text text-anchor="start" x="1230.5" y="-131" font-family="Helvetica,sans-Serif" font-size="10.00">/home/travis/build</text>
<text text-anchor="start" x="1230.5" y="-120" font-family="Helvetica,sans-Serif" font-size="10.00">/AliceO2Group/AliceO2</text>
<text text-anchor="start" x="1230.5" y="-109" font-family="Helvetica,sans-Serif" font-size="10.00">/Framework/Core/src/DataSampling</text>
<text text-anchor="middle" x="1309" y="-98" font-family="Helvetica,sans-Serif" font-size="10.00">Policy.cxx</text>
</a>
</g>
</g>
<!-- Node1&#45;&gt;Node13 -->
<g id="edge13" class="edge"><title>Node1&#45;&gt;Node13</title>
<path fill="none" stroke="midnightblue" d="M1501.79,-179.919C1465.48,-168.258 1422.87,-154.571 1386.95,-143.035"/>
<polygon fill="midnightblue" stroke="midnightblue" points="1500.78,-183.268 1511.37,-182.994 1502.92,-176.604 1500.78,-183.268"/>
</g>
<!-- Node14 -->
<g id="node14" class="node"><title>Node14</title>
<g id="a_node14"><a xlink:href="../../d4/dab/DataSpecUtils_8cxx.html" target="_top" xlink:title="/home/travis/build\l/AliceO2Group/AliceO2\l/Framework/Core/src/DataSpec\lUtils.cxx">
<polygon fill="none" stroke="black" points="1413.5,-91 1413.5,-143 1568.5,-143 1568.5,-91 1413.5,-91"/>
<text text-anchor="start" x="1421.5" y="-131" font-family="Helvetica,sans-Serif" font-size="10.00">/home/travis/build</text>
<text text-anchor="start" x="1421.5" y="-120" font-family="Helvetica,sans-Serif" font-size="10.00">/AliceO2Group/AliceO2</text>
<text text-anchor="start" x="1421.5" y="-109" font-family="Helvetica,sans-Serif" font-size="10.00">/Framework/Core/src/DataSpec</text>
<text text-anchor="middle" x="1491" y="-98" font-family="Helvetica,sans-Serif" font-size="10.00">Utils.cxx</text>
</a>
</g>
</g>
<!-- Node1&#45;&gt;Node14 -->
<g id="edge14" class="edge"><title>Node1&#45;&gt;Node14</title>
<path fill="none" stroke="midnightblue" d="M1548.95,-173.431C1538.47,-163.407 1527.1,-152.533 1517.23,-143.092"/>
<polygon fill="midnightblue" stroke="midnightblue" points="1546.74,-176.164 1556.39,-180.547 1551.58,-171.105 1546.74,-176.164"/>
</g>
<!-- Node15 -->
<g id="node15" class="node"><title>Node15</title>
<g id="a_node15"><a xlink:href="../../d1/dca/Dispatcher_8cxx.html" target="_top" xlink:title="Implementation of Dispatcher for O2 Data Sampling. ">
<polygon fill="none" stroke="black" points="1587,-96.5 1587,-137.5 1765,-137.5 1765,-96.5 1587,-96.5"/>
<text text-anchor="start" x="1595" y="-125.5" font-family="Helvetica,sans-Serif" font-size="10.00">/home/travis/build</text>
<text text-anchor="start" x="1595" y="-114.5" font-family="Helvetica,sans-Serif" font-size="10.00">/AliceO2Group/AliceO2</text>
<text text-anchor="middle" x="1676" y="-103.5" font-family="Helvetica,sans-Serif" font-size="10.00">/Framework/Core/src/Dispatcher.cxx</text>
</a>
</g>
</g>
<!-- Node1&#45;&gt;Node15 -->
<g id="edge15" class="edge"><title>Node1&#45;&gt;Node15</title>
<path fill="none" stroke="midnightblue" d="M1617.25,-173.594C1630.04,-161.487 1644.17,-148.118 1655.37,-137.525"/>
<polygon fill="midnightblue" stroke="midnightblue" points="1614.76,-171.131 1609.9,-180.547 1619.57,-176.216 1614.76,-171.131"/>
</g>
<!-- Node16 -->
<g id="node16" class="node"><title>Node16</title>
<g id="a_node16"><a xlink:href="../../d2/d13/StreamOperators_8cxx.html" target="_top" xlink:title="/home/travis/build\l/AliceO2Group/AliceO2\l/Framework/Core/src/StreamOperators.cxx">
<polygon fill="none" stroke="black" points="1782.5,-96.5 1782.5,-137.5 1987.5,-137.5 1987.5,-96.5 1782.5,-96.5"/>
<text text-anchor="start" x="1790.5" y="-125.5" font-family="Helvetica,sans-Serif" font-size="10.00">/home/travis/build</text>
<text text-anchor="start" x="1790.5" y="-114.5" font-family="Helvetica,sans-Serif" font-size="10.00">/AliceO2Group/AliceO2</text>
<text text-anchor="middle" x="1885" y="-103.5" font-family="Helvetica,sans-Serif" font-size="10.00">/Framework/Core/src/StreamOperators.cxx</text>
</a>
</g>
</g>
<!-- Node1&#45;&gt;Node16 -->
<g id="edge16" class="edge"><title>Node1&#45;&gt;Node16</title>
<path fill="none" stroke="midnightblue" d="M1664.32,-182.304C1712.37,-168.302 1772.48,-150.787 1817.83,-137.574"/>
<polygon fill="midnightblue" stroke="midnightblue" points="1663.19,-178.987 1654.57,-185.145 1665.15,-185.708 1663.19,-178.987"/>
</g>
<!-- Node17 -->
<g id="node17" class="node"><title>Node17</title>
<g id="a_node17"><a xlink:href="../../d1/d43/WorkflowSpec_8cxx.html" target="_top" xlink:title="/home/travis/build\l/AliceO2Group/AliceO2\l/Framework/Core/src/Workflow\lSpec.cxx">
<polygon fill="none" stroke="black" points="2005.5,-91 2005.5,-143 2158.5,-143 2158.5,-91 2005.5,-91"/>
<text text-anchor="start" x="2013.5" y="-131" font-family="Helvetica,sans-Serif" font-size="10.00">/home/travis/build</text>
<text text-anchor="start" x="2013.5" y="-120" font-family="Helvetica,sans-Serif" font-size="10.00">/AliceO2Group/AliceO2</text>
<text text-anchor="start" x="2013.5" y="-109" font-family="Helvetica,sans-Serif" font-size="10.00">/Framework/Core/src/Workflow</text>
<text text-anchor="middle" x="2082" y="-98" font-family="Helvetica,sans-Serif" font-size="10.00">Spec.cxx</text>
</a>
</g>
</g>
<!-- Node1&#45;&gt;Node17 -->
<g id="edge18" class="edge"><title>Node1&#45;&gt;Node17</title>
<path fill="none" stroke="midnightblue" d="M1664.8,-197.256C1748.6,-187.476 1882.31,-169.577 1996,-144 1999.04,-143.315 2002.14,-142.579 2005.25,-141.803"/>
<polygon fill="midnightblue" stroke="midnightblue" points="1664.37,-193.783 1654.84,-198.409 1665.17,-200.737 1664.37,-193.783"/>
</g>
<!-- Node18 -->
<g id="node18" class="node"><title>Node18</title>
<g id="a_node18"><a xlink:href="../../d1/de8/test__DataSampling_8cxx.html" target="_top" xlink:title="/home/travis/build\l/AliceO2Group/AliceO2\l/Framework/Core/test/test\l_DataSampling.cxx">
<polygon fill="none" stroke="black" points="2176.5,-91 2176.5,-143 2307.5,-143 2307.5,-91 2176.5,-91"/>
<text text-anchor="start" x="2184.5" y="-131" font-family="Helvetica,sans-Serif" font-size="10.00">/home/travis/build</text>
<text text-anchor="start" x="2184.5" y="-120" font-family="Helvetica,sans-Serif" font-size="10.00">/AliceO2Group/AliceO2</text>
<text text-anchor="start" x="2184.5" y="-109" font-family="Helvetica,sans-Serif" font-size="10.00">/Framework/Core/test/test</text>
<text text-anchor="middle" x="2242" y="-98" font-family="Helvetica,sans-Serif" font-size="10.00">_DataSampling.cxx</text>
</a>
</g>
</g>
<!-- Node1&#45;&gt;Node18 -->
<g id="edge19" class="edge"><title>Node1&#45;&gt;Node18</title>
<path fill="none" stroke="midnightblue" d="M1664.9,-203.183C1778.75,-197.942 1990.72,-183.371 2167,-144 2170.09,-143.309 2173.24,-142.532 2176.4,-141.691"/>
<polygon fill="midnightblue" stroke="midnightblue" points="1664.7,-199.688 1654.87,-203.632 1665.02,-206.681 1664.7,-199.688"/>
</g>
<!-- Node19 -->
<g id="node19" class="node"><title>Node19</title>
<g id="a_node19"><a xlink:href="../../d3/d66/test__Parallel_8cxx.html" target="_top" xlink:title="/home/travis/build\l/AliceO2Group/AliceO2\l/Framework/Core/test/test\l_Parallel.cxx">
<polygon fill="none" stroke="black" points="2325.5,-91 2325.5,-143 2456.5,-143 2456.5,-91 2325.5,-91"/>
<text text-anchor="start" x="2333.5" y="-131" font-family="Helvetica,sans-Serif" font-size="10.00">/home/travis/build</text>
<text text-anchor="start" x="2333.5" y="-120" font-family="Helvetica,sans-Serif" font-size="10.00">/AliceO2Group/AliceO2</text>
<text text-anchor="start" x="2333.5" y="-109" font-family="Helvetica,sans-Serif" font-size="10.00">/Framework/Core/test/test</text>
<text text-anchor="middle" x="2391" y="-98" font-family="Helvetica,sans-Serif" font-size="10.00">_Parallel.cxx</text>
</a>
</g>
</g>
<!-- Node1&#45;&gt;Node19 -->
<g id="edge20" class="edge"><title>Node1&#45;&gt;Node19</title>
<path fill="none" stroke="midnightblue" d="M1664.99,-205.69C1801.52,-203.705 2083.44,-193.336 2316,-144 2319.1,-143.342 2322.25,-142.593 2325.41,-141.773"/>
<polygon fill="midnightblue" stroke="midnightblue" points="1664.57,-202.196 1654.62,-205.829 1664.67,-209.195 1664.57,-202.196"/>
</g>
<!-- Node20 -->
<g id="node20" class="node"><title>Node20</title>
<g id="a_node20"><a xlink:href="../../d8/d7e/test__ParallelPipeline_8cxx.html" target="_top" xlink:title="/home/travis/build\l/AliceO2Group/AliceO2\l/Framework/Core/test/test\l_ParallelPipeline.cxx">
<polygon fill="none" stroke="black" points="2474.5,-91 2474.5,-143 2605.5,-143 2605.5,-91 2474.5,-91"/>
<text text-anchor="start" x="2482.5" y="-131" font-family="Helvetica,sans-Serif" font-size="10.00">/home/travis/build</text>
<text text-anchor="start" x="2482.5" y="-120" font-family="Helvetica,sans-Serif" font-size="10.00">/AliceO2Group/AliceO2</text>
<text text-anchor="start" x="2482.5" y="-109" font-family="Helvetica,sans-Serif" font-size="10.00">/Framework/Core/test/test</text>
<text text-anchor="middle" x="2540" y="-98" font-family="Helvetica,sans-Serif" font-size="10.00">_ParallelPipeline.cxx</text>
</a>
</g>
</g>
<!-- Node1&#45;&gt;Node20 -->
<g id="edge21" class="edge"><title>Node1&#45;&gt;Node20</title>
<path fill="none" stroke="midnightblue" d="M1664.84,-203.002C1853.3,-195.653 2313.36,-175.044 2465,-144 2468.11,-143.364 2471.26,-142.633 2474.42,-141.828"/>
<polygon fill="midnightblue" stroke="midnightblue" points="1664.57,-199.51 1654.72,-203.394 1664.85,-206.504 1664.57,-199.51"/>
</g>
<!-- Node21 -->
<g id="node21" class="node"><title>Node21</title>
<g id="a_node21"><a xlink:href="../../d0/d0b/test__ParallelProducer_8cxx.html" target="_top" xlink:title="/home/travis/build\l/AliceO2Group/AliceO2\l/Framework/Core/test/test\l_ParallelProducer.cxx">
<polygon fill="none" stroke="black" points="2623.5,-91 2623.5,-143 2754.5,-143 2754.5,-91 2623.5,-91"/>
<text text-anchor="start" x="2631.5" y="-131" font-family="Helvetica,sans-Serif" font-size="10.00">/home/travis/build</text>
<text text-anchor="start" x="2631.5" y="-120" font-family="Helvetica,sans-Serif" font-size="10.00">/AliceO2Group/AliceO2</text>
<text text-anchor="start" x="2631.5" y="-109" font-family="Helvetica,sans-Serif" font-size="10.00">/Framework/Core/test/test</text>
<text text-anchor="middle" x="2689" y="-98" font-family="Helvetica,sans-Serif" font-size="10.00">_ParallelProducer.cxx</text>
</a>
</g>
</g>
<!-- Node1&#45;&gt;Node21 -->
<g id="edge22" class="edge"><title>Node1&#45;&gt;Node21</title>
<path fill="none" stroke="midnightblue" d="M1664.89,-203.963C1875.64,-198.259 2432.87,-180.129 2614,-144 2617.11,-143.38 2620.26,-142.661 2623.43,-141.867"/>
<polygon fill="midnightblue" stroke="midnightblue" points="1664.72,-200.466 1654.82,-204.234 1664.91,-207.464 1664.72,-200.466"/>
</g>
<!-- Node22 -->
<g id="node22" class="node"><title>Node22</title>
<g id="a_node22"><a xlink:href="../../d3/dbe/dataSamplingParallel_8cxx.html" target="_top" xlink:title="/home/travis/build\l/AliceO2Group/AliceO2\l/Framework/TestWorkflows\l/src/dataSamplingParallel.cxx">
<polygon fill="none" stroke="black" points="2773,-91 2773,-143 2919,-143 2919,-91 2773,-91"/>
<text text-anchor="start" x="2781" y="-131" font-family="Helvetica,sans-Serif" font-size="10.00">/home/travis/build</text>
<text text-anchor="start" x="2781" y="-120" font-family="Helvetica,sans-Serif" font-size="10.00">/AliceO2Group/AliceO2</text>
<text text-anchor="start" x="2781" y="-109" font-family="Helvetica,sans-Serif" font-size="10.00">/Framework/TestWorkflows</text>
<text text-anchor="middle" x="2846" y="-98" font-family="Helvetica,sans-Serif" font-size="10.00">/src/dataSamplingParallel.cxx</text>
</a>
</g>
</g>
<!-- Node1&#45;&gt;Node22 -->
<g id="edge23" class="edge"><title>Node1&#45;&gt;Node22</title>
<path fill="none" stroke="midnightblue" d="M1664.69,-204.374C1895.84,-199.349 2551.5,-182.057 2763,-144 2766.27,-143.412 2769.59,-142.732 2772.93,-141.982"/>
<polygon fill="midnightblue" stroke="midnightblue" points="1664.58,-200.875 1654.66,-204.59 1664.73,-207.874 1664.58,-200.875"/>
</g>
<!-- Node23 -->
<g id="node23" class="node"><title>Node23</title>
<g id="a_node23"><a xlink:href="../../db/d1a/flpQualification_8cxx.html" target="_top" xlink:title="/home/travis/build\l/AliceO2Group/AliceO2\l/Framework/TestWorkflows\l/src/flpQualification.cxx">
<polygon fill="none" stroke="black" points="2937.5,-91 2937.5,-143 3074.5,-143 3074.5,-91 2937.5,-91"/>
<text text-anchor="start" x="2945.5" y="-131" font-family="Helvetica,sans-Serif" font-size="10.00">/home/travis/build</text>
<text text-anchor="start" x="2945.5" y="-120" font-family="Helvetica,sans-Serif" font-size="10.00">/AliceO2Group/AliceO2</text>
<text text-anchor="start" x="2945.5" y="-109" font-family="Helvetica,sans-Serif" font-size="10.00">/Framework/TestWorkflows</text>
<text text-anchor="middle" x="3006" y="-98" font-family="Helvetica,sans-Serif" font-size="10.00">/src/flpQualification.cxx</text>
</a>
</g>
</g>
<!-- Node1&#45;&gt;Node23 -->
<g id="edge24" class="edge"><title>Node1&#45;&gt;Node23</title>
<path fill="none" stroke="midnightblue" d="M1664.96,-205.174C1917.89,-202.162 2683.76,-189.43 2928,-144 2931.09,-143.426 2934.22,-142.758 2937.37,-142.018"/>
<polygon fill="midnightblue" stroke="midnightblue" points="1664.7,-201.677 1654.74,-205.294 1664.79,-208.677 1664.7,-201.677"/>
</g>
<!-- Node24 -->
<g id="node24" class="node"><title>Node24</title>
<g id="a_node24"><a xlink:href="../../d3/d09/o2ParallelWorkflow_8cxx.html" target="_top" xlink:title="/home/travis/build\l/AliceO2Group/AliceO2\l/Framework/TestWorkflows\l/src/o2ParallelWorkflow.cxx">
<polygon fill="none" stroke="black" points="3092.5,-91 3092.5,-143 3231.5,-143 3231.5,-91 3092.5,-91"/>
<text text-anchor="start" x="3100.5" y="-131" font-family="Helvetica,sans-Serif" font-size="10.00">/home/travis/build</text>
<text text-anchor="start" x="3100.5" y="-120" font-family="Helvetica,sans-Serif" font-size="10.00">/AliceO2Group/AliceO2</text>
<text text-anchor="start" x="3100.5" y="-109" font-family="Helvetica,sans-Serif" font-size="10.00">/Framework/TestWorkflows</text>
<text text-anchor="middle" x="3162" y="-98" font-family="Helvetica,sans-Serif" font-size="10.00">/src/o2ParallelWorkflow.cxx</text>
</a>
</g>
</g>
<!-- Node1&#45;&gt;Node24 -->
<g id="edge25" class="edge"><title>Node1&#45;&gt;Node24</title>
<path fill="none" stroke="midnightblue" d="M1664.94,-205.59C1936.81,-203.764 2807.34,-194.056 3083,-144 3086.13,-143.432 3089.3,-142.77 3092.48,-142.034"/>
<polygon fill="midnightblue" stroke="midnightblue" points="1664.73,-202.091 1654.75,-205.657 1664.78,-209.091 1664.73,-202.091"/>
</g>
<!-- Node4&#45;&gt;Node5 -->
<g id="edge4" class="edge"><title>Node4&#45;&gt;Node5</title>
<path fill="none" stroke="midnightblue" d="M397.43,-91.0359C395.943,-90.6825 394.466,-90.3369 393,-90 304.124,-69.5747 280.086,-73.4884 191,-54 188.109,-53.3675 185.174,-52.7085 182.215,-52.029"/>
<polygon fill="midnightblue" stroke="midnightblue" points="396.794,-94.4835 407.34,-93.4684 398.462,-87.6854 396.794,-94.4835"/>
</g>
<!-- Node6 -->
<g id="node6" class="node"><title>Node6</title>
<g id="a_node6"><a xlink:href="../../d8/d84/DeviceSpec_8cxx.html" target="_top" xlink:title="/home/travis/build\l/AliceO2Group/AliceO2\l/Framework/Core/src/DeviceSpec.cxx">
<polygon fill="none" stroke="black" points="200,-6.5 200,-47.5 384,-47.5 384,-6.5 200,-6.5"/>
<text text-anchor="start" x="208" y="-35.5" font-family="Helvetica,sans-Serif" font-size="10.00">/home/travis/build</text>
<text text-anchor="start" x="208" y="-24.5" font-family="Helvetica,sans-Serif" font-size="10.00">/AliceO2Group/AliceO2</text>
<text text-anchor="middle" x="292" y="-13.5" font-family="Helvetica,sans-Serif" font-size="10.00">/Framework/Core/src/DeviceSpec.cxx</text>
</a>
</g>
</g>
<!-- Node4&#45;&gt;Node6 -->
<g id="edge5" class="edge"><title>Node4&#45;&gt;Node6</title>
<path fill="none" stroke="midnightblue" d="M420.562,-86.6189C392.358,-73.7593 360.033,-59.0201 334.851,-47.5384"/>
<polygon fill="midnightblue" stroke="midnightblue" points="419.401,-89.9363 429.952,-90.9005 422.305,-83.5672 419.401,-89.9363"/>
</g>
<!-- Node7 -->
<g id="node7" class="node"><title>Node7</title>
<g id="a_node7"><a xlink:href="../../d1/dd9/DeviceSpecHelpers_8cxx.html" target="_top" xlink:title="/home/travis/build\l/AliceO2Group/AliceO2\l/Framework/Core/src/DeviceSpec\lHelpers.cxx">
<polygon fill="none" stroke="black" points="402.5,-1 402.5,-53 567.5,-53 567.5,-1 402.5,-1"/>
<text text-anchor="start" x="410.5" y="-41" font-family="Helvetica,sans-Serif" font-size="10.00">/home/travis/build</text>
<text text-anchor="start" x="410.5" y="-30" font-family="Helvetica,sans-Serif" font-size="10.00">/AliceO2Group/AliceO2</text>
<text text-anchor="start" x="410.5" y="-19" font-family="Helvetica,sans-Serif" font-size="10.00">/Framework/Core/src/DeviceSpec</text>
<text text-anchor="middle" x="485" y="-8" font-family="Helvetica,sans-Serif" font-size="10.00">Helpers.cxx</text>
</a>
</g>
</g>
<!-- Node4&#45;&gt;Node7 -->
<g id="edge6" class="edge"><title>Node4&#45;&gt;Node7</title>
<path fill="none" stroke="midnightblue" d="M485,-80.4892C485,-71.3088 485,-61.616 485,-53.0921"/>
<polygon fill="midnightblue" stroke="midnightblue" points="481.5,-80.5467 485,-90.5468 488.5,-80.5468 481.5,-80.5467"/>
</g>
<!-- Node8 -->
<g id="node8" class="node"><title>Node8</title>
<g id="a_node8"><a xlink:href="../../d7/d54/runDataProcessing_8cxx.html" target="_top" xlink:title="/home/travis/build\l/AliceO2Group/AliceO2\l/Framework/Core/src/runDataProcessing.cxx">
<polygon fill="none" stroke="black" points="586,-6.5 586,-47.5 800,-47.5 800,-6.5 586,-6.5"/>
<text text-anchor="start" x="594" y="-35.5" font-family="Helvetica,sans-Serif" font-size="10.00">/home/travis/build</text>
<text text-anchor="start" x="594" y="-24.5" font-family="Helvetica,sans-Serif" font-size="10.00">/AliceO2Group/AliceO2</text>
<text text-anchor="middle" x="693" y="-13.5" font-family="Helvetica,sans-Serif" font-size="10.00">/Framework/Core/src/runDataProcessing.cxx</text>
</a>
</g>
</g>
<!-- Node4&#45;&gt;Node8 -->
<g id="edge7" class="edge"><title>Node4&#45;&gt;Node8</title>
<path fill="none" stroke="midnightblue" d="M553.654,-86.9539C584.235,-74.0159 619.444,-59.12 646.818,-47.5384"/>
<polygon fill="midnightblue" stroke="midnightblue" points="552.172,-83.7807 544.326,-90.9005 554.9,-90.2274 552.172,-83.7807"/>
</g>
<!-- Node4&#45;&gt;Node9 -->
<g id="edge8" class="edge"><title>Node4&#45;&gt;Node9</title>
<path fill="none" stroke="midnightblue" d="M572.56,-90.9913C574.05,-90.6517 575.53,-90.3209 577,-90 678.513,-67.8306 706.655,-76.9289 808,-54 811.383,-53.2347 814.826,-52.4089 818.296,-51.5387"/>
<polygon fill="midnightblue" stroke="midnightblue" points="571.554,-87.6327 562.633,-93.3478 573.171,-94.4434 571.554,-87.6327"/>
</g>
</g>
</svg>
        <g id="navigator" transform="translate(0 0)" fill="#404254">
                <rect fill="#f2f5e9" fill-opacity="0.5" stroke="#606060" stroke-width=".5" x="0" y="0" width="60" height="60"/>
                <use id="zoomplus" xlink:href="#zoomPlus" x="17" y="9" onmousedown="handleZoom(evt,'in')"/>
                <use id="zoomminus" xlink:href="#zoomMin" x="42" y="9" onmousedown="handleZoom(evt,'out')"/>
                <use id="reset" xlink:href="#resetDef" x="30" y="36" onmousedown="handleReset()"/>
                <g id="arrowUp" xlink:href="#dirArrow" transform="translate(30 24)" onmousedown="handlePan(0,-1)">
                  <use xlink:href="#rim" fill="#404040">
                        <set attributeName="fill" to="#808080" begin="arrowUp.mouseover" end="arrowUp.mouseout"/>
                  </use>
                  <path fill="none" stroke="white" stroke-width="1.5" d="M0,-3.0v7 M-2.5,-0.5L0,-3.0L2.5,-0.5"/>
                </g>
                <g id="arrowRight" xlink:href="#dirArrow" transform="rotate(90) translate(36 -43)" onmousedown="handlePan(1,0)">
                  <use xlink:href="#rim" fill="#404040">
                        <set attributeName="fill" to="#808080" begin="arrowRight.mouseover" end="arrowRight.mouseout"/>
                  </use>
                  <path fill="none" stroke="white" stroke-width="1.5" d="M0,-3.0v7 M-2.5,-0.5L0,-3.0L2.5,-0.5"/>
                </g>
                <g id="arrowDown" xlink:href="#dirArrow" transform="rotate(180) translate(-30 -48)" onmousedown="handlePan(0,1)">
                  <use xlink:href="#rim" fill="#404040">
                        <set attributeName="fill" to="#808080" begin="arrowDown.mouseover" end="arrowDown.mouseout"/>
                  </use>
                  <path fill="none" stroke="white" stroke-width="1.5" d="M0,-3.0v7 M-2.5,-0.5L0,-3.0L2.5,-0.5"/>
                </g>
                <g id="arrowLeft" xlink:href="#dirArrow" transform="rotate(270) translate(-36 17)" onmousedown="handlePan(-1,0)">
                  <use xlink:href="#rim" fill="#404040">
                        <set attributeName="fill" to="#808080" begin="arrowLeft.mouseover" end="arrowLeft.mouseout"/>
                  </use>
                  <path fill="none" stroke="white" stroke-width="1.5" d="M0,-3.0v7 M-2.5,-0.5L0,-3.0L2.5,-0.5"/>
                </g>
        </g>
        <svg viewBox="0 0 15 15" width="100%" height="30px" preserveAspectRatio="xMaxYMin meet">
         <g id="arrow_out" transform="scale(0.3 0.3)">
          <a xlink:href="DataSpecUtils_8h__dep__incl_org.svg" target="_base">
           <rect id="button" ry="5" rx="5" y="6" x="6" height="38" width="38"
                fill="#f2f5e9" fill-opacity="0.5" stroke="#606060" stroke-width="1.0"/>
           <path id="arrow"
             d="M 11.500037,31.436501 C 11.940474,20.09759 22.043105,11.32322 32.158766,21.979434 L 37.068811,17.246167 C 37.068811,17.246167 37.088388,32 37.088388,32 L 22.160133,31.978069 C 22.160133,31.978069 26.997745,27.140456 26.997745,27.140456 C 18.528582,18.264221 13.291696,25.230495 11.500037,31.436501 z"
             style="fill:#404040;"/>
          </a>
         </g>
        </svg>
</svg>
