<?xml version="1.0" encoding="UTF-8" standalone="no"?>
<!DOCTYPE svg PUBLIC "-//W3C//DTD SVG 1.1//EN"
 "http://www.w3.org/Graphics/SVG/1.1/DTD/svg11.dtd">
<!-- Generated by graphviz version 2.36.0 (20140111.2315)
 -->
<!-- Title: o2::TPC::Digit Pages: 1 -->
<!--zoomable 476 -->
<svg id="main" version="1.1" xmlns="http://www.w3.org/2000/svg" xmlns:xlink="http://www.w3.org/1999/xlink" xml:space="preserve" onload="init(evt)">
<style type="text/css"><![CDATA[
.edge:hover path { stroke: red; }
.edge:hover polygon { stroke: red; fill: red; }
]]></style>
<script type="text/javascript"><![CDATA[
var edges = document.getElementsByTagName('g');
if (edges && edges.length) {
  for (var i=0;i<edges.length;i++) {
    if (edges[i].id.substr(0,4)=='edge') {
      edges[i].setAttribute('class','edge');
    }
  }
}
]]></script>
        <defs>
                <circle id="rim" cx="0" cy="0" r="7"/>
                <circle id="rim2" cx="0" cy="0" r="3.5"/>
                <g id="zoomPlus">
                        <use xlink:href="#rim" fill="#404040">
                                <set attributeName="fill" to="#808080" begin="zoomplus.mouseover" end="zoomplus.mouseout"/>
                        </use>
                        <path d="M-4,0h8M0,-4v8" fill="none" stroke="white" stroke-width="1.5" pointer-events="none"/>
                </g>
                <g id="zoomMin">
                        <use xlink:href="#rim" fill="#404040">
                                <set attributeName="fill" to="#808080" begin="zoomminus.mouseover" end="zoomminus.mouseout"/>
                        </use>
                        <path d="M-4,0h8" fill="none" stroke="white" stroke-width="1.5" pointer-events="none"/>
                </g>
                <g id="dirArrow">
                        <path fill="none" stroke="white" stroke-width="1.5" d="M0,-3.0v7 M-2.5,-0.5L0,-3.0L2.5,-0.5"/>
                </g>
               <g id="resetDef">
                       <use xlink:href="#rim2" fill="#404040">
                               <set attributeName="fill" to="#808080" begin="reset.mouseover" end="reset.mouseout"/>
                       </use>
               </g>
        </defs>

<script type="text/javascript">
var viewWidth = 272;
var viewHeight = 476;
var sectionId = 'dynsection-1';
</script>
<script xlink:href="../../svgpan.js"/>
<svg id="graph" class="graph">
<g id="viewport">
<title>o2::TPC::Digit</title>
<!-- Node1 -->
<g id="node1" class="node"><title>Node1</title>
<polygon fill="#bfbfbf" stroke="black" points="116,-0.5 116,-145.5 214,-145.5 214,-0.5 116,-0.5"/>
<text text-anchor="middle" x="165" y="-133.5" font-family="Helvetica,sans-Serif" font-size="10.00">o2::TPC::Digit</text>
<polyline fill="none" stroke="black" points="116,-126.5 214,-126.5 "/>
<text text-anchor="middle" x="165" y="-114.5" font-family="Helvetica,sans-Serif" font-size="10.00"> </text>
<polyline fill="none" stroke="black" points="116,-107.5 214,-107.5 "/>
<text text-anchor="start" x="124" y="-95.5" font-family="Helvetica,sans-Serif" font-size="10.00">+ Digit()</text>
<text text-anchor="start" x="124" y="-84.5" font-family="Helvetica,sans-Serif" font-size="10.00">+ Digit()</text>
<text text-anchor="start" x="124" y="-73.5" font-family="Helvetica,sans-Serif" font-size="10.00">+ ~Digit()</text>
<text text-anchor="start" x="124" y="-62.5" font-family="Helvetica,sans-Serif" font-size="10.00">+ getCharge()</text>
<text text-anchor="start" x="124" y="-51.5" font-family="Helvetica,sans-Serif" font-size="10.00">+ getChargeFloat()</text>
<text text-anchor="start" x="124" y="-40.5" font-family="Helvetica,sans-Serif" font-size="10.00">+ getCRU()</text>
<text text-anchor="start" x="124" y="-29.5" font-family="Helvetica,sans-Serif" font-size="10.00">+ getRow()</text>
<text text-anchor="start" x="124" y="-18.5" font-family="Helvetica,sans-Serif" font-size="10.00">+ getPad()</text>
<text text-anchor="start" x="124" y="-7.5" font-family="Helvetica,sans-Serif" font-size="10.00"># ClassDefNV()</text>
</g>
<!-- Node2 -->
<g id="node2" class="node"><title>Node2</title>
<g id="a_node2"><a xlink:href="../../d0/d94/classo2_1_1dataformats_1_1TimeStamp.html" target="_top" xlink:title="{DigitBase\n||+ TimeStamp()\l+ TimeStamp()\l+ getTimeStamp()\l+ setTimeStamp()\l+ operator==()\l}">
<polygon fill="none" stroke="black" points="34.5,-216.5 34.5,-317.5 129.5,-317.5 129.5,-216.5 34.5,-216.5"/>
<text text-anchor="middle" x="82" y="-305.5" font-family="Helvetica,sans-Serif" font-size="10.00">DigitBase</text>
<polyline fill="none" stroke="black" points="34.5,-298.5 129.5,-298.5 "/>
<text text-anchor="middle" x="82" y="-286.5" font-family="Helvetica,sans-Serif" font-size="10.00"> </text>
<polyline fill="none" stroke="black" points="34.5,-279.5 129.5,-279.5 "/>
<text text-anchor="start" x="42.5" y="-267.5" font-family="Helvetica,sans-Serif" font-size="10.00">+ TimeStamp()</text>
<text text-anchor="start" x="42.5" y="-256.5" font-family="Helvetica,sans-Serif" font-size="10.00">+ TimeStamp()</text>
<text text-anchor="start" x="42.5" y="-245.5" font-family="Helvetica,sans-Serif" font-size="10.00">+ getTimeStamp()</text>
<text text-anchor="start" x="42.5" y="-234.5" font-family="Helvetica,sans-Serif" font-size="10.00">+ setTimeStamp()</text>
<text text-anchor="start" x="42.5" y="-223.5" font-family="Helvetica,sans-Serif" font-size="10.00">+ operator==()</text>
</a>
</g>
</g>
<!-- Node2&#45;&gt;Node1 -->
<g id="edge1" class="edge"><title>Node2&#45;&gt;Node1</title>
<path fill="none" stroke="midnightblue" d="M107.597,-206.787C115.939,-187.49 125.291,-165.857 133.986,-145.744"/>
<polygon fill="none" stroke="midnightblue" points="104.346,-205.488 103.591,-216.055 110.771,-208.265 104.346,-205.488"/>
</g>
<!-- Node3 -->
<g id="node3" class="node"><title>Node3</title>
<g id="a_node3"><a xlink:href="../../d0/d94/classo2_1_1dataformats_1_1TimeStamp.html" target="_top" xlink:title="{o2::dataformats::TimeStamp\&lt; T \&gt;\n||+ TimeStamp()\l+ TimeStamp()\l+ getTimeStamp()\l+ setTimeStamp()\l+ operator==()\l}">
<polygon fill="none" stroke="black" points="-0.5,-366.5 -0.5,-467.5 164.5,-467.5 164.5,-366.5 -0.5,-366.5"/>
<text text-anchor="middle" x="82" y="-455.5" font-family="Helvetica,sans-Serif" font-size="10.00">o2::dataformats::TimeStamp&lt; T &gt;</text>
<polyline fill="none" stroke="black" points="-0.5,-448.5 164.5,-448.5 "/>
<text text-anchor="middle" x="82" y="-436.5" font-family="Helvetica,sans-Serif" font-size="10.00"> </text>
<polyline fill="none" stroke="black" points="-0.5,-429.5 164.5,-429.5 "/>
<text text-anchor="start" x="7.5" y="-417.5" font-family="Helvetica,sans-Serif" font-size="10.00">+ TimeStamp()</text>
<text text-anchor="start" x="7.5" y="-406.5" font-family="Helvetica,sans-Serif" font-size="10.00">+ TimeStamp()</text>
<text text-anchor="start" x="7.5" y="-395.5" font-family="Helvetica,sans-Serif" font-size="10.00">+ getTimeStamp()</text>
<text text-anchor="start" x="7.5" y="-384.5" font-family="Helvetica,sans-Serif" font-size="10.00">+ setTimeStamp()</text>
<text text-anchor="start" x="7.5" y="-373.5" font-family="Helvetica,sans-Serif" font-size="10.00">+ operator==()</text>
</a>
</g>
</g>
<!-- Node3&#45;&gt;Node2 -->
<g id="edge2" class="edge"><title>Node3&#45;&gt;Node2</title>
<path fill="none" stroke="orange" d="M82,-356.181C82,-343.359 82,-329.946 82,-317.562"/>
<polygon fill="orange" stroke="orange" points="78.5001,-356.306 82,-366.306 85.5001,-356.306 78.5001,-356.306"/>
<text text-anchor="middle" x="98" y="-339.5" font-family="Helvetica,sans-Serif" font-size="10.00"> &lt; int &gt;</text>
</g>
<!-- Node4 -->
<g id="node4" class="node"><title>Node4</title>
<g id="a_node4"><a xlink:href="../../d4/dc3/classfloat.html" target="_top" xlink:title="{float\n||}">
<polygon fill="none" stroke="black" points="147.5,-238.5 147.5,-295.5 182.5,-295.5 182.5,-238.5 147.5,-238.5"/>
<text text-anchor="middle" x="165" y="-283.5" font-family="Helvetica,sans-Serif" font-size="10.00">float</text>
<polyline fill="none" stroke="black" points="147.5,-276.5 182.5,-276.5 "/>
<text text-anchor="middle" x="165" y="-264.5" font-family="Helvetica,sans-Serif" font-size="10.00"> </text>
<polyline fill="none" stroke="black" points="147.5,-257.5 182.5,-257.5 "/>
<text text-anchor="middle" x="165" y="-245.5" font-family="Helvetica,sans-Serif" font-size="10.00"> </text>
</a>
</g>
</g>
<!-- Node4&#45;&gt;Node1 -->
<g id="edge3" class="edge"><title>Node4&#45;&gt;Node1</title>
<path fill="none" stroke="#404040" d="M165,-238.491C165,-217.351 165,-186.965 165,-158.049"/>
<polygon fill="none" stroke="#404040" points="165,-157.777 161,-151.777 165,-145.777 169,-151.777 165,-157.777"/>
<text text-anchor="middle" x="189.5" y="-178.5" font-family="Helvetica,sans-Serif" font-size="10.00"> #mCharge</text>
</g>
<!-- Node5 -->
<g id="node5" class="node"><title>Node5</title>
<polygon fill="none" stroke="#bfbfbf" points="209,-238.5 209,-295.5 265,-295.5 265,-238.5 209,-238.5"/>
<text text-anchor="middle" x="237" y="-283.5" font-family="Helvetica,sans-Serif" font-size="10.00">unsigned</text>
<polyline fill="none" stroke="#bfbfbf" points="209,-276.5 265,-276.5 "/>
<text text-anchor="middle" x="237" y="-264.5" font-family="Helvetica,sans-Serif" font-size="10.00"> </text>
<polyline fill="none" stroke="#bfbfbf" points="209,-257.5 265,-257.5 "/>
<text text-anchor="middle" x="237" y="-245.5" font-family="Helvetica,sans-Serif" font-size="10.00"> </text>
</g>
<!-- Node5&#45;&gt;Node1 -->
<g id="edge4" class="edge"><title>Node5&#45;&gt;Node1</title>
<path fill="none" stroke="#404040" d="M233.256,-238.096C229.916,-217.232 224.12,-188.247 215,-164 214.103,-161.615 213.15,-159.216 212.152,-156.812"/>
<polygon fill="none" stroke="#404040" points="212.031,-156.539 205.945,-152.671 207.175,-145.565 213.261,-149.433 212.031,-156.539"/>
<text text-anchor="middle" x="243.5" y="-189.5" font-family="Helvetica,sans-Serif" font-size="10.00"> #mPad</text>
<text text-anchor="middle" x="243.5" y="-178.5" font-family="Helvetica,sans-Serif" font-size="10.00">#mCRU</text>
<text text-anchor="middle" x="243.5" y="-167.5" font-family="Helvetica,sans-Serif" font-size="10.00">#mRow</text>
</g>
</g>
</svg>
        <g id="navigator" transform="translate(0 0)" fill="#404254">
                <rect fill="#f2f5e9" fill-opacity="0.5" stroke="#606060" stroke-width=".5" x="0" y="0" width="60" height="60"/>
                <use id="zoomplus" xlink:href="#zoomPlus" x="17" y="9" onmousedown="handleZoom(evt,'in')"/>
                <use id="zoomminus" xlink:href="#zoomMin" x="42" y="9" onmousedown="handleZoom(evt,'out')"/>
                <use id="reset" xlink:href="#resetDef" x="30" y="36" onmousedown="handleReset()"/>
                <g id="arrowUp" xlink:href="#dirArrow" transform="translate(30 24)" onmousedown="handlePan(0,-1)">
                  <use xlink:href="#rim" fill="#404040">
                        <set attributeName="fill" to="#808080" begin="arrowUp.mouseover" end="arrowUp.mouseout"/>
                  </use>
                  <path fill="none" stroke="white" stroke-width="1.5" d="M0,-3.0v7 M-2.5,-0.5L0,-3.0L2.5,-0.5"/>
                </g>
                <g id="arrowRight" xlink:href="#dirArrow" transform="rotate(90) translate(36 -43)" onmousedown="handlePan(1,0)">
                  <use xlink:href="#rim" fill="#404040">
                        <set attributeName="fill" to="#808080" begin="arrowRight.mouseover" end="arrowRight.mouseout"/>
                  </use>
                  <path fill="none" stroke="white" stroke-width="1.5" d="M0,-3.0v7 M-2.5,-0.5L0,-3.0L2.5,-0.5"/>
                </g>
                <g id="arrowDown" xlink:href="#dirArrow" transform="rotate(180) translate(-30 -48)" onmousedown="handlePan(0,1)">
                  <use xlink:href="#rim" fill="#404040">
                        <set attributeName="fill" to="#808080" begin="arrowDown.mouseover" end="arrowDown.mouseout"/>
                  </use>
                  <path fill="none" stroke="white" stroke-width="1.5" d="M0,-3.0v7 M-2.5,-0.5L0,-3.0L2.5,-0.5"/>
                </g>
                <g id="arrowLeft" xlink:href="#dirArrow" transform="rotate(270) translate(-36 17)" onmousedown="handlePan(-1,0)">
                  <use xlink:href="#rim" fill="#404040">
                        <set attributeName="fill" to="#808080" begin="arrowLeft.mouseover" end="arrowLeft.mouseout"/>
                  </use>
                  <path fill="none" stroke="white" stroke-width="1.5" d="M0,-3.0v7 M-2.5,-0.5L0,-3.0L2.5,-0.5"/>
                </g>
        </g>
        <svg viewBox="0 0 15 15" width="100%" height="30px" preserveAspectRatio="xMaxYMin meet">
         <g id="arrow_out" transform="scale(0.3 0.3)">
          <a xlink:href="classo2_1_1TPC_1_1Digit__coll__graph_org.svg" target="_base">
           <rect id="button" ry="5" rx="5" y="6" x="6" height="38" width="38"
                fill="#f2f5e9" fill-opacity="0.5" stroke="#606060" stroke-width="1.0"/>
           <path id="arrow"
             d="M 11.500037,31.436501 C 11.940474,20.09759 22.043105,11.32322 32.158766,21.979434 L 37.068811,17.246167 C 37.068811,17.246167 37.088388,32 37.088388,32 L 22.160133,31.978069 C 22.160133,31.978069 26.997745,27.140456 26.997745,27.140456 C 18.528582,18.264221 13.291696,25.230495 11.500037,31.436501 z"
             style="fill:#404040;"/>
          </a>
         </g>
        </svg>
</svg>
