<?xml version="1.0" encoding="UTF-8" standalone="no"?>
<!DOCTYPE svg PUBLIC "-//W3C//DTD SVG 1.1//EN"
 "http://www.w3.org/Graphics/SVG/1.1/DTD/svg11.dtd">
<!-- Generated by graphviz version 2.36.0 (20140111.2315)
 -->
<!-- Title: nlohmann::detail::merge_and_renumber&lt; index_sequence&lt; I1...&gt;, index_sequence&lt; I2...&gt; &gt; Pages: 1 -->
<svg width="174pt" height="334pt"
 viewBox="0.00 0.00 174.00 334.00" xmlns="http://www.w3.org/2000/svg" xmlns:xlink="http://www.w3.org/1999/xlink">
<g id="graph0" class="graph" transform="scale(1 1) rotate(0) translate(4 330)">
<title>nlohmann::detail::merge_and_renumber&lt; index_sequence&lt; I1...&gt;, index_sequence&lt; I2...&gt; &gt;</title>
<!-- Node1 -->
<g id="node1" class="node"><title>Node1</title>
<polygon fill="#bfbfbf" stroke="black" points="-0.5,-0.5 -0.5,-79.5 166.5,-79.5 166.5,-0.5 -0.5,-0.5"/>
<text text-anchor="start" x="7.5" y="-67.5" font-family="Helvetica,sans-Serif" font-size="10.00">nlohmann::detail::merge</text>
<text text-anchor="start" x="7.5" y="-56.5" font-family="Helvetica,sans-Serif" font-size="10.00">_and_renumber&lt; index_sequence</text>
<text text-anchor="middle" x="83" y="-45.5" font-family="Helvetica,sans-Serif" font-size="10.00">&lt; I1...&gt;, index_sequence&lt; I2...&gt; &gt;</text>
<polyline fill="none" stroke="black" points="-0.5,-38.5 166.5,-38.5 "/>
<text text-anchor="middle" x="83" y="-26.5" font-family="Helvetica,sans-Serif" font-size="10.00"> </text>
<polyline fill="none" stroke="black" points="-0.5,-19.5 166.5,-19.5 "/>
<text text-anchor="middle" x="83" y="-7.5" font-family="Helvetica,sans-Serif" font-size="10.00"> </text>
</g>
<!-- Node2 -->
<g id="node2" class="node"><title>Node2</title>
<g id="a_node2"><a xlink:href="../../d4/d69/structnlohmann_1_1detail_1_1index__sequence.html" target="_top" xlink:title="{nlohmann::detail::index\l_sequence\&lt; I1...,(sizeof...\l(I1)+I2)...\&gt;\n||+ size()\l}">
<polygon fill="none" stroke="black" points="17.5,-118.5 17.5,-197.5 148.5,-197.5 148.5,-118.5 17.5,-118.5"/>
<text text-anchor="start" x="25.5" y="-185.5" font-family="Helvetica,sans-Serif" font-size="10.00">nlohmann::detail::index</text>
<text text-anchor="start" x="25.5" y="-174.5" font-family="Helvetica,sans-Serif" font-size="10.00">_sequence&lt; I1...,(sizeof...</text>
<text text-anchor="middle" x="83" y="-163.5" font-family="Helvetica,sans-Serif" font-size="10.00">(I1)+I2)...&gt;</text>
<polyline fill="none" stroke="black" points="17.5,-156.5 148.5,-156.5 "/>
<text text-anchor="middle" x="83" y="-144.5" font-family="Helvetica,sans-Serif" font-size="10.00"> </text>
<polyline fill="none" stroke="black" points="17.5,-137.5 148.5,-137.5 "/>
<text text-anchor="start" x="25.5" y="-125.5" font-family="Helvetica,sans-Serif" font-size="10.00">+ size()</text>
</a>
</g>
</g>
<!-- Node2&#45;&gt;Node1 -->
<g id="edge1" class="edge"><title>Node2&#45;&gt;Node1</title>
<path fill="none" stroke="midnightblue" d="M83,-108.268C83,-98.7855 83,-88.9643 83,-79.8532"/>
<polygon fill="none" stroke="midnightblue" points="79.5001,-108.374 83,-118.374 86.5001,-108.374 79.5001,-108.374"/>
</g>
<!-- Node3 -->
<g id="node3" class="node"><title>Node3</title>
<g id="a_node3"><a xlink:href="../../d4/d69/structnlohmann_1_1detail_1_1index__sequence.html" target="_top" xlink:title="{nlohmann::detail::index\l_sequence\&lt; Ints \&gt;\n||+ size()\l}">
<polygon fill="none" stroke="black" points="24.5,-257 24.5,-325 141.5,-325 141.5,-257 24.5,-257"/>
<text text-anchor="start" x="32.5" y="-313" font-family="Helvetica,sans-Serif" font-size="10.00">nlohmann::detail::index</text>
<text text-anchor="middle" x="83" y="-302" font-family="Helvetica,sans-Serif" font-size="10.00">_sequence&lt; Ints &gt;</text>
<polyline fill="none" stroke="black" points="24.5,-295 141.5,-295 "/>
<text text-anchor="middle" x="83" y="-283" font-family="Helvetica,sans-Serif" font-size="10.00"> </text>
<polyline fill="none" stroke="black" points="24.5,-276 141.5,-276 "/>
<text text-anchor="start" x="32.5" y="-264" font-family="Helvetica,sans-Serif" font-size="10.00">+ size()</text>
</a>
</g>
</g>
<!-- Node3&#45;&gt;Node2 -->
<g id="edge2" class="edge"><title>Node3&#45;&gt;Node2</title>
<path fill="none" stroke="orange" d="M83,-246.84C83,-230.958 83,-213.086 83,-197.629"/>
<polygon fill="orange" stroke="orange" points="79.5001,-246.943 83,-256.943 86.5001,-246.943 79.5001,-246.943"/>
<text text-anchor="start" x="83" y="-230" font-family="Helvetica,sans-Serif" font-size="10.00"> &lt; I1...,(sizeof...</text>
<text text-anchor="middle" x="118.5" y="-219" font-family="Helvetica,sans-Serif" font-size="10.00">(I1)+I2)...&gt;</text>
</g>
</g>
</svg>
