<?xml version="1.0" encoding="UTF-8" standalone="no"?>
<!DOCTYPE svg PUBLIC "-//W3C//DTD SVG 1.1//EN"
 "http://www.w3.org/Graphics/SVG/1.1/DTD/svg11.dtd">
<!-- Generated by graphviz version 2.36.0 (20140111.2315)
 -->
<!-- Title: TPCHitStats Pages: 1 -->
<svg width="117pt" height="390pt"
 viewBox="0.00 0.00 117.00 390.00" xmlns="http://www.w3.org/2000/svg" xmlns:xlink="http://www.w3.org/1999/xlink">
<g id="graph0" class="graph" transform="scale(1 1) rotate(0) translate(4 386)">
<title>TPCHitStats</title>
<!-- Node1 -->
<g id="node1" class="node"><title>Node1</title>
<polygon fill="#bfbfbf" stroke="black" points="14.5,-0.5 14.5,-57.5 87.5,-57.5 87.5,-0.5 14.5,-0.5"/>
<text text-anchor="middle" x="51" y="-45.5" font-family="Helvetica,sans-Serif" font-size="10.00">TPCHitStats</text>
<polyline fill="none" stroke="black" points="14.5,-38.5 87.5,-38.5 "/>
<text text-anchor="middle" x="51" y="-26.5" font-family="Helvetica,sans-Serif" font-size="10.00"> </text>
<polyline fill="none" stroke="black" points="14.5,-19.5 87.5,-19.5 "/>
<text text-anchor="start" x="22.5" y="-7.5" font-family="Helvetica,sans-Serif" font-size="10.00">+ addHit()</text>
</g>
<!-- Node2 -->
<g id="node2" class="node"><title>Node2</title>
<g id="a_node2"><a xlink:href="../../d9/dc9/structHitStatsBase.html" target="_top" xlink:title="{HitStatsBase\n||+ print()\l+ normalize()\l}">
<polygon fill="none" stroke="black" points="13.5,-97 13.5,-165 88.5,-165 88.5,-97 13.5,-97"/>
<text text-anchor="middle" x="51" y="-153" font-family="Helvetica,sans-Serif" font-size="10.00">HitStatsBase</text>
<polyline fill="none" stroke="black" points="13.5,-146 88.5,-146 "/>
<text text-anchor="middle" x="51" y="-134" font-family="Helvetica,sans-Serif" font-size="10.00"> </text>
<polyline fill="none" stroke="black" points="13.5,-127 88.5,-127 "/>
<text text-anchor="start" x="21.5" y="-115" font-family="Helvetica,sans-Serif" font-size="10.00">+ print()</text>
<text text-anchor="start" x="21.5" y="-104" font-family="Helvetica,sans-Serif" font-size="10.00">+ normalize()</text>
</a>
</g>
</g>
<!-- Node2&#45;&gt;Node1 -->
<g id="edge1" class="edge"><title>Node2&#45;&gt;Node1</title>
<path fill="none" stroke="midnightblue" d="M51,-86.8568C51,-76.9522 51,-66.6817 51,-57.6399"/>
<polygon fill="none" stroke="midnightblue" points="47.5001,-86.9791 51,-96.9791 54.5001,-86.9792 47.5001,-86.9791"/>
</g>
<!-- Node3 -->
<g id="node3" class="node"><title>Node3</title>
<polygon fill="none" stroke="#bfbfbf" points="-0.5,-324.5 -0.5,-381.5 44.5,-381.5 44.5,-324.5 -0.5,-324.5"/>
<text text-anchor="middle" x="22" y="-369.5" font-family="Helvetica,sans-Serif" font-size="10.00">double</text>
<polyline fill="none" stroke="#bfbfbf" points="-0.5,-362.5 44.5,-362.5 "/>
<text text-anchor="middle" x="22" y="-350.5" font-family="Helvetica,sans-Serif" font-size="10.00"> </text>
<polyline fill="none" stroke="#bfbfbf" points="-0.5,-343.5 44.5,-343.5 "/>
<text text-anchor="middle" x="22" y="-331.5" font-family="Helvetica,sans-Serif" font-size="10.00"> </text>
</g>
<!-- Node3&#45;&gt;Node2 -->
<g id="edge2" class="edge"><title>Node3&#45;&gt;Node2</title>
<path fill="none" stroke="#404040" d="M18.1438,-324.423C14.3398,-290.707 10.6992,-232.185 23,-184 23.6594,-181.417 24.4737,-178.822 25.4046,-176.245"/>
<polygon fill="none" stroke="#404040" points="25.4269,-176.192 24.0882,-169.106 30.1141,-165.145 31.4527,-172.231 25.4269,-176.192"/>
<text text-anchor="middle" x="41" y="-297.5" font-family="Helvetica,sans-Serif" font-size="10.00"> +ZAvg</text>
<text text-anchor="middle" x="41" y="-286.5" font-family="Helvetica,sans-Serif" font-size="10.00">+YAvg</text>
<text text-anchor="middle" x="41" y="-275.5" font-family="Helvetica,sans-Serif" font-size="10.00">+XAvg</text>
<text text-anchor="middle" x="41" y="-264.5" font-family="Helvetica,sans-Serif" font-size="10.00">+T2Avg</text>
<text text-anchor="middle" x="41" y="-253.5" font-family="Helvetica,sans-Serif" font-size="10.00">+EAvg</text>
<text text-anchor="middle" x="41" y="-242.5" font-family="Helvetica,sans-Serif" font-size="10.00">+TAvg</text>
<text text-anchor="middle" x="41" y="-231.5" font-family="Helvetica,sans-Serif" font-size="10.00">+E2Avg</text>
<text text-anchor="middle" x="41" y="-220.5" font-family="Helvetica,sans-Serif" font-size="10.00">+X2Avg</text>
<text text-anchor="middle" x="41" y="-209.5" font-family="Helvetica,sans-Serif" font-size="10.00">+Y2Avg</text>
<text text-anchor="middle" x="41" y="-198.5" font-family="Helvetica,sans-Serif" font-size="10.00">+Z2Avg</text>
<text text-anchor="middle" x="41" y="-187.5" font-family="Helvetica,sans-Serif" font-size="10.00">...</text>
</g>
<!-- Node4 -->
<g id="node4" class="node"><title>Node4</title>
<g id="a_node4"><a xlink:href="../../d1/da0/classint.html" target="_top" xlink:title="{int\n||}">
<polygon fill="none" stroke="black" points="66.5,-324.5 66.5,-381.5 95.5,-381.5 95.5,-324.5 66.5,-324.5"/>
<text text-anchor="middle" x="81" y="-369.5" font-family="Helvetica,sans-Serif" font-size="10.00">int</text>
<polyline fill="none" stroke="black" points="66.5,-362.5 95.5,-362.5 "/>
<text text-anchor="middle" x="81" y="-350.5" font-family="Helvetica,sans-Serif" font-size="10.00"> </text>
<polyline fill="none" stroke="black" points="66.5,-343.5 95.5,-343.5 "/>
<text text-anchor="middle" x="81" y="-331.5" font-family="Helvetica,sans-Serif" font-size="10.00"> </text>
</a>
</g>
</g>
<!-- Node4&#45;&gt;Node2 -->
<g id="edge3" class="edge"><title>Node4&#45;&gt;Node2</title>
<path fill="none" stroke="#404040" d="M77.5694,-324.327C73.3941,-291.007 66.0282,-233.362 59,-184 58.69,-181.823 58.3675,-179.595 58.0377,-177.345"/>
<polygon fill="none" stroke="#404040" points="58.007,-177.14 53.1637,-171.798 56.2323,-165.272 61.0757,-170.614 58.007,-177.14"/>
<text text-anchor="middle" x="91.5" y="-242.5" font-family="Helvetica,sans-Serif" font-size="10.00"> +NHits</text>
</g>
</g>
</svg>
