<?xml version="1.0" encoding="UTF-8" standalone="no"?>
<!DOCTYPE svg PUBLIC "-//W3C//DTD SVG 1.1//EN"
 "http://www.w3.org/Graphics/SVG/1.1/DTD/svg11.dtd">
<!-- Generated by graphviz version 2.36.0 (20140111.2315)
 -->
<!-- Title: /home/travis/build/AliceO2Group/AliceO2/Detectors/ITSMFT/common/base/src/GeometryTGeo.cxx Pages: 1 -->
<!--zoomable 390 -->
<svg id="main" version="1.1" xmlns="http://www.w3.org/2000/svg" xmlns:xlink="http://www.w3.org/1999/xlink" xml:space="preserve" onload="init(evt)">
<style type="text/css"><![CDATA[
.edge:hover path { stroke: red; }
.edge:hover polygon { stroke: red; fill: red; }
]]></style>
<script type="text/javascript"><![CDATA[
var edges = document.getElementsByTagName('g');
if (edges && edges.length) {
  for (var i=0;i<edges.length;i++) {
    if (edges[i].id.substr(0,4)=='edge') {
      edges[i].setAttribute('class','edge');
    }
  }
}
]]></script>
        <defs>
                <circle id="rim" cx="0" cy="0" r="7"/>
                <circle id="rim2" cx="0" cy="0" r="3.5"/>
                <g id="zoomPlus">
                        <use xlink:href="#rim" fill="#404040">
                                <set attributeName="fill" to="#808080" begin="zoomplus.mouseover" end="zoomplus.mouseout"/>
                        </use>
                        <path d="M-4,0h8M0,-4v8" fill="none" stroke="white" stroke-width="1.5" pointer-events="none"/>
                </g>
                <g id="zoomMin">
                        <use xlink:href="#rim" fill="#404040">
                                <set attributeName="fill" to="#808080" begin="zoomminus.mouseover" end="zoomminus.mouseout"/>
                        </use>
                        <path d="M-4,0h8" fill="none" stroke="white" stroke-width="1.5" pointer-events="none"/>
                </g>
                <g id="dirArrow">
                        <path fill="none" stroke="white" stroke-width="1.5" d="M0,-3.0v7 M-2.5,-0.5L0,-3.0L2.5,-0.5"/>
                </g>
               <g id="resetDef">
                       <use xlink:href="#rim2" fill="#404040">
                               <set attributeName="fill" to="#808080" begin="reset.mouseover" end="reset.mouseout"/>
                       </use>
               </g>
        </defs>

<script type="text/javascript">
var viewWidth = 2125;
var viewHeight = 390;
var sectionId = 'dynsection-0';
</script>
<script xlink:href="../../svgpan.js"/>
<svg id="graph" class="graph">
<g id="viewport">
<title>/home/travis/build/AliceO2Group/AliceO2/Detectors/ITSMFT/common/base/src/GeometryTGeo.cxx</title>
<!-- Node1 -->
<g id="node1" class="node"><title>Node1</title>
<polygon fill="#bfbfbf" stroke="black" points="151,-329 151,-381 297,-381 297,-329 151,-329"/>
<text text-anchor="start" x="159" y="-369" font-family="Helvetica,sans-Serif" font-size="10.00">/home/travis/build</text>
<text text-anchor="start" x="159" y="-358" font-family="Helvetica,sans-Serif" font-size="10.00">/AliceO2Group/AliceO2</text>
<text text-anchor="start" x="159" y="-347" font-family="Helvetica,sans-Serif" font-size="10.00">/Detectors/ITSMFT/common</text>
<text text-anchor="middle" x="224" y="-336" font-family="Helvetica,sans-Serif" font-size="10.00">/base/src/GeometryTGeo.cxx</text>
</g>
<!-- Node2 -->
<g id="node2" class="node"><title>Node2</title>
<g id="a_node2"><a xlink:href="../../d0/d2d/common_2base_2include_2ITSMFTBase_2GeometryTGeo_8h.html" target="_top" xlink:title="ITSMFTBase/GeometryTGeo.h">
<polygon fill="none" stroke="black" points="147.5,-272.5 147.5,-291.5 300.5,-291.5 300.5,-272.5 147.5,-272.5"/>
<text text-anchor="middle" x="224" y="-279.5" font-family="Helvetica,sans-Serif" font-size="10.00">ITSMFTBase/GeometryTGeo.h</text>
</a>
</g>
</g>
<!-- Node1&#45;&gt;Node2 -->
<g id="edge1" class="edge"><title>Node1&#45;&gt;Node2</title>
<path fill="none" stroke="midnightblue" d="M224,-328.768C224,-319.89 224,-310.074 224,-301.816"/>
<polygon fill="midnightblue" stroke="midnightblue" points="227.5,-301.757 224,-291.757 220.5,-301.757 227.5,-301.757"/>
</g>
<!-- Node3 -->
<g id="node3" class="node"><title>Node3</title>
<polygon fill="none" stroke="#bfbfbf" points="116.5,-210.5 116.5,-229.5 185.5,-229.5 185.5,-210.5 116.5,-210.5"/>
<text text-anchor="middle" x="151" y="-217.5" font-family="Helvetica,sans-Serif" font-size="10.00">TObjArray.h</text>
</g>
<!-- Node2&#45;&gt;Node3 -->
<g id="edge2" class="edge"><title>Node2&#45;&gt;Node3</title>
<path fill="none" stroke="midnightblue" d="M213.541,-272.403C202.049,-262.958 183.37,-247.606 169.413,-236.134"/>
<polygon fill="midnightblue" stroke="midnightblue" points="171.388,-233.226 161.44,-229.581 166.943,-238.634 171.388,-233.226"/>
</g>
<!-- Node4 -->
<g id="node4" class="node"><title>Node4</title>
<polygon fill="none" stroke="#bfbfbf" points="203.5,-210.5 203.5,-229.5 244.5,-229.5 244.5,-210.5 203.5,-210.5"/>
<text text-anchor="middle" x="224" y="-217.5" font-family="Helvetica,sans-Serif" font-size="10.00">string</text>
</g>
<!-- Node2&#45;&gt;Node4 -->
<g id="edge3" class="edge"><title>Node2&#45;&gt;Node4</title>
<path fill="none" stroke="midnightblue" d="M224,-272.403C224,-263.938 224,-250.728 224,-239.82"/>
<polygon fill="midnightblue" stroke="midnightblue" points="227.5,-239.581 224,-229.581 220.5,-239.581 227.5,-239.581"/>
</g>
<!-- Node5 -->
<g id="node5" class="node"><title>Node5</title>
<g id="a_node5"><a xlink:href="../../d4/d20/DetMatrixCache_8h.html" target="_top" xlink:title="DetectorsCommonDataFormats\l/DetMatrixCache.h">
<polygon fill="none" stroke="black" points="263,-205 263,-235 419,-235 419,-205 263,-205"/>
<text text-anchor="start" x="271" y="-223" font-family="Helvetica,sans-Serif" font-size="10.00">DetectorsCommonDataFormats</text>
<text text-anchor="middle" x="341" y="-212" font-family="Helvetica,sans-Serif" font-size="10.00">/DetMatrixCache.h</text>
</a>
</g>
</g>
<!-- Node2&#45;&gt;Node5 -->
<g id="edge4" class="edge"><title>Node2&#45;&gt;Node5</title>
<path fill="none" stroke="midnightblue" d="M240.763,-272.403C257.276,-263.936 283.045,-250.72 304.32,-239.81"/>
<polygon fill="midnightblue" stroke="midnightblue" points="306.124,-242.818 313.425,-235.141 302.93,-236.59 306.124,-242.818"/>
</g>
<!-- Node6 -->
<g id="node6" class="node"><title>Node6</title>
<polygon fill="none" stroke="#bfbfbf" points="0,-142.5 0,-161.5 142,-161.5 142,-142.5 0,-142.5"/>
<text text-anchor="middle" x="71" y="-149.5" font-family="Helvetica,sans-Serif" font-size="10.00">AliTPCCommonFairLogger.h</text>
</g>
<!-- Node5&#45;&gt;Node6 -->
<g id="edge5" class="edge"><title>Node5&#45;&gt;Node6</title>
<path fill="none" stroke="midnightblue" d="M283.409,-204.922C233.302,-192.674 161.707,-175.173 115.787,-163.948"/>
<polygon fill="midnightblue" stroke="midnightblue" points="116.374,-160.488 105.829,-161.514 114.712,-167.288 116.374,-160.488"/>
</g>
<!-- Node7 -->
<g id="node7" class="node"><title>Node7</title>
<polygon fill="none" stroke="#bfbfbf" points="160,-142.5 160,-161.5 288,-161.5 288,-142.5 160,-142.5"/>
<text text-anchor="middle" x="224" y="-149.5" font-family="Helvetica,sans-Serif" font-size="10.00">AliTPCCommonRtypes.h</text>
</g>
<!-- Node5&#45;&gt;Node7 -->
<g id="edge6" class="edge"><title>Node5&#45;&gt;Node7</title>
<path fill="none" stroke="midnightblue" d="M315.901,-204.841C295.845,-193.528 267.912,-177.771 248.119,-166.605"/>
<polygon fill="midnightblue" stroke="midnightblue" points="249.82,-163.547 239.391,-161.682 246.381,-169.644 249.82,-163.547"/>
</g>
<!-- Node8 -->
<g id="node8" class="node"><title>Node8</title>
<polygon fill="none" stroke="#bfbfbf" points="335,-6.5 335,-25.5 373,-25.5 373,-6.5 335,-6.5"/>
<text text-anchor="middle" x="354" y="-13.5" font-family="Helvetica,sans-Serif" font-size="10.00">array</text>
</g>
<!-- Node5&#45;&gt;Node8 -->
<g id="edge7" class="edge"><title>Node5&#45;&gt;Node8</title>
<path fill="none" stroke="midnightblue" d="M338.871,-204.75C337.456,-194.544 335.73,-180.46 335,-168 332.188,-120.031 342.96,-64.0131 349.435,-35.5894"/>
<polygon fill="midnightblue" stroke="midnightblue" points="352.851,-36.3491 351.744,-25.8122 346.039,-34.7397 352.851,-36.3491"/>
</g>
<!-- Node9 -->
<g id="node9" class="node"><title>Node9</title>
<polygon fill="none" stroke="#bfbfbf" points="344,-142.5 344,-161.5 388,-161.5 388,-142.5 344,-142.5"/>
<text text-anchor="middle" x="366" y="-149.5" font-family="Helvetica,sans-Serif" font-size="10.00">vector</text>
</g>
<!-- Node5&#45;&gt;Node9 -->
<g id="edge8" class="edge"><title>Node5&#45;&gt;Node9</title>
<path fill="none" stroke="midnightblue" d="M346.425,-204.679C350.13,-194.898 355.071,-181.852 359.063,-171.315"/>
<polygon fill="midnightblue" stroke="midnightblue" points="362.387,-172.42 362.656,-161.828 355.841,-169.94 362.387,-172.42"/>
</g>
<!-- Node10 -->
<g id="node10" class="node"><title>Node10</title>
<g id="a_node10"><a xlink:href="../../d6/d31/DetID_8h.html" target="_top" xlink:title="DetectorsCommonDataFormats\l/DetID.h">
<polygon fill="none" stroke="black" points="430,-137 430,-167 586,-167 586,-137 430,-137"/>
<text text-anchor="start" x="438" y="-155" font-family="Helvetica,sans-Serif" font-size="10.00">DetectorsCommonDataFormats</text>
<text text-anchor="middle" x="508" y="-144" font-family="Helvetica,sans-Serif" font-size="10.00">/DetID.h</text>
</a>
</g>
</g>
<!-- Node5&#45;&gt;Node10 -->
<g id="edge9" class="edge"><title>Node5&#45;&gt;Node10</title>
<path fill="none" stroke="midnightblue" d="M376.826,-204.841C402.006,-194.89 435.885,-181.5 462.905,-170.822"/>
<polygon fill="midnightblue" stroke="midnightblue" points="464.507,-173.952 472.521,-167.022 461.934,-167.442 464.507,-173.952"/>
</g>
<!-- Node19 -->
<g id="node19" class="node"><title>Node19</title>
<g id="a_node19"><a xlink:href="../../dd/d76/Cartesian3D_8h.html" target="_top" xlink:title="MathUtils/Cartesian3D.h">
<polygon fill="none" stroke="black" points="1295.5,-142.5 1295.5,-161.5 1420.5,-161.5 1420.5,-142.5 1295.5,-142.5"/>
<text text-anchor="middle" x="1358" y="-149.5" font-family="Helvetica,sans-Serif" font-size="10.00">MathUtils/Cartesian3D.h</text>
</a>
</g>
</g>
<!-- Node5&#45;&gt;Node19 -->
<g id="edge20" class="edge"><title>Node5&#45;&gt;Node19</title>
<path fill="none" stroke="midnightblue" d="M419.114,-213.931C610.27,-201.525 1099.49,-169.777 1285.1,-157.731"/>
<polygon fill="midnightblue" stroke="midnightblue" points="1285.54,-161.21 1295.3,-157.069 1285.09,-154.224 1285.54,-161.21"/>
</g>
<!-- Node10&#45;&gt;Node8 -->
<g id="edge11" class="edge"><title>Node10&#45;&gt;Node8</title>
<path fill="none" stroke="midnightblue" d="M432.837,-136.9C410.795,-129.338 388.482,-117.747 373,-100 357.469,-82.1957 353.925,-54.2706 353.454,-35.802"/>
<polygon fill="midnightblue" stroke="midnightblue" points="356.954,-35.7082 353.478,-25.6997 349.954,-35.6913 356.954,-35.7082"/>
</g>
<!-- Node11 -->
<g id="node11" class="node"><title>Node11</title>
<polygon fill="none" stroke="#bfbfbf" points="761,-74.5 761,-93.5 817,-93.5 817,-74.5 761,-74.5"/>
<text text-anchor="middle" x="789" y="-81.5" font-family="Helvetica,sans-Serif" font-size="10.00">Rtypes.h</text>
</g>
<!-- Node10&#45;&gt;Node11 -->
<g id="edge10" class="edge"><title>Node10&#45;&gt;Node11</title>
<path fill="none" stroke="midnightblue" d="M586.094,-138.359C634.428,-129.631 697.456,-116.61 752,-100 754.644,-99.1948 757.362,-98.2766 760.067,-97.3"/>
<polygon fill="midnightblue" stroke="midnightblue" points="761.578,-100.469 769.649,-93.6054 759.06,-93.9372 761.578,-100.469"/>
</g>
<!-- Node12 -->
<g id="node12" class="node"><title>Node12</title>
<polygon fill="none" stroke="#bfbfbf" points="382.5,-74.5 382.5,-93.5 423.5,-93.5 423.5,-74.5 382.5,-74.5"/>
<text text-anchor="middle" x="403" y="-81.5" font-family="Helvetica,sans-Serif" font-size="10.00">bitset</text>
</g>
<!-- Node10&#45;&gt;Node12 -->
<g id="edge12" class="edge"><title>Node10&#45;&gt;Node12</title>
<path fill="none" stroke="midnightblue" d="M485.475,-136.841C467.72,-125.681 443.087,-110.198 425.372,-99.0625"/>
<polygon fill="midnightblue" stroke="midnightblue" points="427.141,-96.0404 416.812,-93.6819 423.416,-101.967 427.141,-96.0404"/>
</g>
<!-- Node13 -->
<g id="node13" class="node"><title>Node13</title>
<polygon fill="none" stroke="#bfbfbf" points="441.5,-74.5 441.5,-93.5 490.5,-93.5 490.5,-74.5 441.5,-74.5"/>
<text text-anchor="middle" x="466" y="-81.5" font-family="Helvetica,sans-Serif" font-size="10.00">cassert</text>
</g>
<!-- Node10&#45;&gt;Node13 -->
<g id="edge13" class="edge"><title>Node10&#45;&gt;Node13</title>
<path fill="none" stroke="midnightblue" d="M498.887,-136.679C492.468,-126.592 483.839,-113.033 477.031,-102.335"/>
<polygon fill="midnightblue" stroke="midnightblue" points="479.94,-100.386 471.618,-93.8283 474.034,-104.144 479.94,-100.386"/>
</g>
<!-- Node14 -->
<g id="node14" class="node"><title>Node14</title>
<polygon fill="none" stroke="#bfbfbf" points="509,-74.5 509,-93.5 555,-93.5 555,-74.5 509,-74.5"/>
<text text-anchor="middle" x="532" y="-81.5" font-family="Helvetica,sans-Serif" font-size="10.00">cstdint</text>
</g>
<!-- Node10&#45;&gt;Node14 -->
<g id="edge14" class="edge"><title>Node10&#45;&gt;Node14</title>
<path fill="none" stroke="midnightblue" d="M513.208,-136.679C516.765,-126.898 521.509,-113.852 525.34,-103.315"/>
<polygon fill="midnightblue" stroke="midnightblue" points="528.661,-104.422 528.79,-93.8283 522.083,-102.03 528.661,-104.422"/>
</g>
<!-- Node15 -->
<g id="node15" class="node"><title>Node15</title>
<polygon fill="none" stroke="#bfbfbf" points="573,-74.5 573,-93.5 635,-93.5 635,-74.5 573,-74.5"/>
<text text-anchor="middle" x="604" y="-81.5" font-family="Helvetica,sans-Serif" font-size="10.00">type_traits</text>
</g>
<!-- Node10&#45;&gt;Node15 -->
<g id="edge15" class="edge"><title>Node10&#45;&gt;Node15</title>
<path fill="none" stroke="midnightblue" d="M528.831,-136.679C544.78,-125.713 566.698,-110.645 582.751,-99.6085"/>
<polygon fill="midnightblue" stroke="midnightblue" points="585.178,-102.187 591.436,-93.6379 581.213,-96.4191 585.178,-102.187"/>
</g>
<!-- Node16 -->
<g id="node16" class="node"><title>Node16</title>
<g id="a_node16"><a xlink:href="../../d9/d52/Common_2MathUtils_2include_2MathUtils_2Utils_8h.html" target="_top" xlink:title="MathUtils/Utils.h">
<polygon fill="none" stroke="black" points="653,-74.5 653,-93.5 743,-93.5 743,-74.5 653,-74.5"/>
<text text-anchor="middle" x="698" y="-81.5" font-family="Helvetica,sans-Serif" font-size="10.00">MathUtils/Utils.h</text>
</a>
</g>
</g>
<!-- Node10&#45;&gt;Node16 -->
<g id="edge16" class="edge"><title>Node10&#45;&gt;Node16</title>
<path fill="none" stroke="midnightblue" d="M548.76,-136.841C583.049,-124.93 631.517,-108.094 663.811,-96.8762"/>
<polygon fill="midnightblue" stroke="midnightblue" points="664.983,-100.174 673.28,-93.5868 662.686,-93.562 664.983,-100.174"/>
</g>
<!-- Node16&#45;&gt;Node8 -->
<g id="edge17" class="edge"><title>Node16&#45;&gt;Node8</title>
<path fill="none" stroke="midnightblue" d="M668.724,-74.4816C660.446,-72.2185 651.402,-69.883 643,-68 548.582,-46.8405 435.201,-29.0076 382.956,-21.2108"/>
<polygon fill="midnightblue" stroke="midnightblue" points="383.46,-17.7473 373.055,-19.7445 382.434,-24.6718 383.46,-17.7473"/>
</g>
<!-- Node17 -->
<g id="node17" class="node"><title>Node17</title>
<polygon fill="none" stroke="#bfbfbf" points="611,-6.5 611,-25.5 655,-25.5 655,-6.5 611,-6.5"/>
<text text-anchor="middle" x="633" y="-13.5" font-family="Helvetica,sans-Serif" font-size="10.00">cmath</text>
</g>
<!-- Node16&#45;&gt;Node17 -->
<g id="edge18" class="edge"><title>Node16&#45;&gt;Node17</title>
<path fill="none" stroke="midnightblue" d="M689.502,-74.3717C679.243,-63.9547 661.775,-46.2173 648.971,-33.2162"/>
<polygon fill="midnightblue" stroke="midnightblue" points="651.218,-30.5101 641.707,-25.8411 646.23,-35.4219 651.218,-30.5101"/>
</g>
<!-- Node18 -->
<g id="node18" class="node"><title>Node18</title>
<g id="a_node18"><a xlink:href="../../d6/d84/MathConstants_8h.html" target="_top" xlink:title="useful math constants ">
<polygon fill="none" stroke="black" points="673.5,-6.5 673.5,-25.5 852.5,-25.5 852.5,-6.5 673.5,-6.5"/>
<text text-anchor="middle" x="763" y="-13.5" font-family="Helvetica,sans-Serif" font-size="10.00">CommonConstants/MathConstants.h</text>
</a>
</g>
</g>
<!-- Node16&#45;&gt;Node18 -->
<g id="edge19" class="edge"><title>Node16&#45;&gt;Node18</title>
<path fill="none" stroke="midnightblue" d="M706.498,-74.3717C716.757,-63.9547 734.225,-46.2173 747.029,-33.2162"/>
<polygon fill="midnightblue" stroke="midnightblue" points="749.77,-35.4219 754.293,-25.8411 744.782,-30.5101 749.77,-35.4219"/>
</g>
<!-- Node19&#45;&gt;Node11 -->
<g id="edge26" class="edge"><title>Node19&#45;&gt;Node11</title>
<path fill="none" stroke="midnightblue" d="M1295.18,-150.818C1194.65,-149.231 992.041,-140.697 826,-100 822.935,-99.2487 819.789,-98.2902 816.69,-97.2218"/>
<polygon fill="midnightblue" stroke="midnightblue" points="817.686,-93.8558 807.095,-93.5546 815.187,-100.394 817.686,-93.8558"/>
</g>
<!-- Node20 -->
<g id="node20" class="node"><title>Node20</title>
<polygon fill="none" stroke="#bfbfbf" points="835.5,-69 835.5,-99 986.5,-99 986.5,-69 835.5,-69"/>
<text text-anchor="start" x="843.5" y="-87" font-family="Helvetica,sans-Serif" font-size="10.00">Math/GenVector/Displacement</text>
<text text-anchor="middle" x="911" y="-76" font-family="Helvetica,sans-Serif" font-size="10.00">Vector3D.h</text>
</g>
<!-- Node19&#45;&gt;Node20 -->
<g id="edge21" class="edge"><title>Node19&#45;&gt;Node20</title>
<path fill="none" stroke="midnightblue" d="M1295.44,-142.858C1225.32,-133.579 1107.97,-117.601 996.588,-100.06"/>
<polygon fill="midnightblue" stroke="midnightblue" points="996.945,-96.5729 986.521,-98.4674 995.851,-103.487 996.945,-96.5729"/>
</g>
<!-- Node21 -->
<g id="node21" class="node"><title>Node21</title>
<polygon fill="none" stroke="#bfbfbf" points="1005,-74.5 1005,-93.5 1181,-93.5 1181,-74.5 1005,-74.5"/>
<text text-anchor="middle" x="1093" y="-81.5" font-family="Helvetica,sans-Serif" font-size="10.00">Math/GenVector/PositionVector3D.h</text>
</g>
<!-- Node19&#45;&gt;Node21 -->
<g id="edge22" class="edge"><title>Node19&#45;&gt;Node21</title>
<path fill="none" stroke="midnightblue" d="M1323.63,-142.439C1275.97,-130.57 1189.78,-109.103 1137.33,-96.0406"/>
<polygon fill="midnightblue" stroke="midnightblue" points="1137.86,-92.5661 1127.31,-93.5455 1136.17,-99.3586 1137.86,-92.5661"/>
</g>
<!-- Node22 -->
<g id="node22" class="node"><title>Node22</title>
<polygon fill="none" stroke="#bfbfbf" points="1198.5,-74.5 1198.5,-93.5 1347.5,-93.5 1347.5,-74.5 1198.5,-74.5"/>
<text text-anchor="middle" x="1273" y="-81.5" font-family="Helvetica,sans-Serif" font-size="10.00">Math/GenVector/Rotation3D.h</text>
</g>
<!-- Node19&#45;&gt;Node22 -->
<g id="edge23" class="edge"><title>Node19&#45;&gt;Node22</title>
<path fill="none" stroke="midnightblue" d="M1346.89,-142.372C1333.02,-131.6 1309.06,-113.002 1292.2,-99.9065"/>
<polygon fill="midnightblue" stroke="midnightblue" points="1294.16,-96.999 1284.11,-93.6305 1289.87,-102.528 1294.16,-96.999"/>
</g>
<!-- Node23 -->
<g id="node23" class="node"><title>Node23</title>
<polygon fill="none" stroke="#bfbfbf" points="1366,-74.5 1366,-93.5 1522,-93.5 1522,-74.5 1366,-74.5"/>
<text text-anchor="middle" x="1444" y="-81.5" font-family="Helvetica,sans-Serif" font-size="10.00">Math/GenVector/Transform3D.h</text>
</g>
<!-- Node19&#45;&gt;Node23 -->
<g id="edge24" class="edge"><title>Node19&#45;&gt;Node23</title>
<path fill="none" stroke="midnightblue" d="M1369.24,-142.372C1383.28,-131.6 1407.51,-113.002 1424.58,-99.9065"/>
<polygon fill="midnightblue" stroke="midnightblue" points="1426.95,-102.495 1432.75,-93.6305 1422.69,-96.9421 1426.95,-102.495"/>
</g>
<!-- Node24 -->
<g id="node24" class="node"><title>Node24</title>
<polygon fill="none" stroke="#bfbfbf" points="1540,-74.5 1540,-93.5 1700,-93.5 1700,-74.5 1540,-74.5"/>
<text text-anchor="middle" x="1620" y="-81.5" font-family="Helvetica,sans-Serif" font-size="10.00">Math/GenVector/Translation3D.h</text>
</g>
<!-- Node19&#45;&gt;Node24 -->
<g id="edge25" class="edge"><title>Node19&#45;&gt;Node24</title>
<path fill="none" stroke="midnightblue" d="M1391.98,-142.439C1439.1,-130.57 1524.32,-109.103 1576.17,-96.0406"/>
<polygon fill="midnightblue" stroke="midnightblue" points="1577.23,-99.3823 1586.08,-93.5455 1575.52,-92.5944 1577.23,-99.3823"/>
</g>
<!-- Node25 -->
<g id="node25" class="node"><title>Node25</title>
<polygon fill="none" stroke="#bfbfbf" points="1718,-74.5 1718,-93.5 1794,-93.5 1794,-74.5 1718,-74.5"/>
<text text-anchor="middle" x="1756" y="-81.5" font-family="Helvetica,sans-Serif" font-size="10.00">TGeoMatrix.h</text>
</g>
<!-- Node19&#45;&gt;Node25 -->
<g id="edge27" class="edge"><title>Node19&#45;&gt;Node25</title>
<path fill="none" stroke="midnightblue" d="M1420.71,-145.037C1491.38,-137.592 1609.39,-122.966 1709,-100 1713.23,-99.0258 1717.62,-97.8503 1721.95,-96.5912"/>
<polygon fill="midnightblue" stroke="midnightblue" points="1723.29,-99.8404 1731.82,-93.557 1721.23,-93.1492 1723.29,-99.8404"/>
</g>
<!-- Node26 -->
<g id="node26" class="node"><title>Node26</title>
<polygon fill="none" stroke="#bfbfbf" points="1812.5,-74.5 1812.5,-93.5 1857.5,-93.5 1857.5,-74.5 1812.5,-74.5"/>
<text text-anchor="middle" x="1835" y="-81.5" font-family="Helvetica,sans-Serif" font-size="10.00">iosfwd</text>
</g>
<!-- Node19&#45;&gt;Node26 -->
<g id="edge28" class="edge"><title>Node19&#45;&gt;Node26</title>
<path fill="none" stroke="midnightblue" d="M1420.78,-150.162C1508.08,-147.576 1670.39,-137.591 1803,-100 1805.34,-99.3364 1807.72,-98.5185 1810.08,-97.6099"/>
<polygon fill="midnightblue" stroke="midnightblue" points="1811.67,-100.734 1819.44,-93.5284 1808.88,-94.3174 1811.67,-100.734"/>
</g>
<!-- Node27 -->
<g id="node27" class="node"><title>Node27</title>
<g id="a_node27"><a xlink:href="../../d2/dd0/Cartesian2D_8h.html" target="_top" xlink:title="MathUtils/Cartesian2D.h">
<polygon fill="none" stroke="black" points="1875.5,-74.5 1875.5,-93.5 2000.5,-93.5 2000.5,-74.5 1875.5,-74.5"/>
<text text-anchor="middle" x="1938" y="-81.5" font-family="Helvetica,sans-Serif" font-size="10.00">MathUtils/Cartesian2D.h</text>
</a>
</g>
</g>
<!-- Node19&#45;&gt;Node27 -->
<g id="edge29" class="edge"><title>Node19&#45;&gt;Node27</title>
<path fill="none" stroke="midnightblue" d="M1420.83,-146.831C1517.06,-139.966 1706.56,-124.542 1866,-100 1874.07,-98.7571 1882.61,-97.1985 1890.87,-95.5595"/>
<polygon fill="midnightblue" stroke="midnightblue" points="1891.67,-98.969 1900.77,-93.5365 1890.27,-92.1109 1891.67,-98.969"/>
</g>
<!-- Node28 -->
<g id="node28" class="node"><title>Node28</title>
<polygon fill="none" stroke="#bfbfbf" points="1771.5,-1 1771.5,-31 1922.5,-31 1922.5,-1 1771.5,-1"/>
<text text-anchor="start" x="1779.5" y="-19" font-family="Helvetica,sans-Serif" font-size="10.00">Math/GenVector/Displacement</text>
<text text-anchor="middle" x="1847" y="-8" font-family="Helvetica,sans-Serif" font-size="10.00">Vector2D.h</text>
</g>
<!-- Node27&#45;&gt;Node28 -->
<g id="edge30" class="edge"><title>Node27&#45;&gt;Node28</title>
<path fill="none" stroke="midnightblue" d="M1926.1,-74.3717C1913.22,-65.0286 1892.22,-49.7966 1875.09,-37.375"/>
<polygon fill="midnightblue" stroke="midnightblue" points="1876.7,-34.2194 1866.55,-31.1815 1872.59,-39.8859 1876.7,-34.2194"/>
</g>
<!-- Node29 -->
<g id="node29" class="node"><title>Node29</title>
<polygon fill="none" stroke="#bfbfbf" points="1941,-6.5 1941,-25.5 2117,-25.5 2117,-6.5 1941,-6.5"/>
<text text-anchor="middle" x="2029" y="-13.5" font-family="Helvetica,sans-Serif" font-size="10.00">Math/GenVector/PositionVector2D.h</text>
</g>
<!-- Node27&#45;&gt;Node29 -->
<g id="edge31" class="edge"><title>Node27&#45;&gt;Node29</title>
<path fill="none" stroke="midnightblue" d="M1949.9,-74.3717C1964.88,-63.5015 1990.86,-44.6602 2008.94,-31.5474"/>
<polygon fill="midnightblue" stroke="midnightblue" points="2011.06,-34.3349 2017.1,-25.6305 2006.95,-28.6684 2011.06,-34.3349"/>
</g>
</g>
</svg>
        <g id="navigator" transform="translate(0 0)" fill="#404254">
                <rect fill="#f2f5e9" fill-opacity="0.5" stroke="#606060" stroke-width=".5" x="0" y="0" width="60" height="60"/>
                <use id="zoomplus" xlink:href="#zoomPlus" x="17" y="9" onmousedown="handleZoom(evt,'in')"/>
                <use id="zoomminus" xlink:href="#zoomMin" x="42" y="9" onmousedown="handleZoom(evt,'out')"/>
                <use id="reset" xlink:href="#resetDef" x="30" y="36" onmousedown="handleReset()"/>
                <g id="arrowUp" xlink:href="#dirArrow" transform="translate(30 24)" onmousedown="handlePan(0,-1)">
                  <use xlink:href="#rim" fill="#404040">
                        <set attributeName="fill" to="#808080" begin="arrowUp.mouseover" end="arrowUp.mouseout"/>
                  </use>
                  <path fill="none" stroke="white" stroke-width="1.5" d="M0,-3.0v7 M-2.5,-0.5L0,-3.0L2.5,-0.5"/>
                </g>
                <g id="arrowRight" xlink:href="#dirArrow" transform="rotate(90) translate(36 -43)" onmousedown="handlePan(1,0)">
                  <use xlink:href="#rim" fill="#404040">
                        <set attributeName="fill" to="#808080" begin="arrowRight.mouseover" end="arrowRight.mouseout"/>
                  </use>
                  <path fill="none" stroke="white" stroke-width="1.5" d="M0,-3.0v7 M-2.5,-0.5L0,-3.0L2.5,-0.5"/>
                </g>
                <g id="arrowDown" xlink:href="#dirArrow" transform="rotate(180) translate(-30 -48)" onmousedown="handlePan(0,1)">
                  <use xlink:href="#rim" fill="#404040">
                        <set attributeName="fill" to="#808080" begin="arrowDown.mouseover" end="arrowDown.mouseout"/>
                  </use>
                  <path fill="none" stroke="white" stroke-width="1.5" d="M0,-3.0v7 M-2.5,-0.5L0,-3.0L2.5,-0.5"/>
                </g>
                <g id="arrowLeft" xlink:href="#dirArrow" transform="rotate(270) translate(-36 17)" onmousedown="handlePan(-1,0)">
                  <use xlink:href="#rim" fill="#404040">
                        <set attributeName="fill" to="#808080" begin="arrowLeft.mouseover" end="arrowLeft.mouseout"/>
                  </use>
                  <path fill="none" stroke="white" stroke-width="1.5" d="M0,-3.0v7 M-2.5,-0.5L0,-3.0L2.5,-0.5"/>
                </g>
        </g>
        <svg viewBox="0 0 15 15" width="100%" height="30px" preserveAspectRatio="xMaxYMin meet">
         <g id="arrow_out" transform="scale(0.3 0.3)">
          <a xlink:href="common_2base_2src_2GeometryTGeo_8cxx__incl_org.svg" target="_base">
           <rect id="button" ry="5" rx="5" y="6" x="6" height="38" width="38"
                fill="#f2f5e9" fill-opacity="0.5" stroke="#606060" stroke-width="1.0"/>
           <path id="arrow"
             d="M 11.500037,31.436501 C 11.940474,20.09759 22.043105,11.32322 32.158766,21.979434 L 37.068811,17.246167 C 37.068811,17.246167 37.088388,32 37.088388,32 L 22.160133,31.978069 C 22.160133,31.978069 26.997745,27.140456 26.997745,27.140456 C 18.528582,18.264221 13.291696,25.230495 11.500037,31.436501 z"
             style="fill:#404040;"/>
          </a>
         </g>
        </svg>
</svg>
