<?xml version="1.0" encoding="UTF-8" standalone="no"?>
<!DOCTYPE svg PUBLIC "-//W3C//DTD SVG 1.1//EN"
 "http://www.w3.org/Graphics/SVG/1.1/DTD/svg11.dtd">
<!-- Generated by graphviz version 2.36.0 (20140111.2315)
 -->
<!-- Title: o2::zdc::Geometry Pages: 1 -->
<svg width="161pt" height="382pt"
 viewBox="0.00 0.00 161.00 382.00" xmlns="http://www.w3.org/2000/svg" xmlns:xlink="http://www.w3.org/1999/xlink">
<g id="graph0" class="graph" transform="scale(1 1) rotate(0) translate(4 378)">
<title>o2::zdc::Geometry</title>
<!-- Node1 -->
<g id="node1" class="node"><title>Node1</title>
<polygon fill="#bfbfbf" stroke="black" points="-1,-1 -1,-157 97,-157 97,-1 -1,-1"/>
<text text-anchor="middle" x="48" y="-145" font-family="Helvetica,sans-Serif" font-size="10.00">o2::zdc::Geometry</text>
<polyline fill="none" stroke="black" points="-1,-138 97,-138 "/>
<text text-anchor="start" x="7" y="-126" font-family="Helvetica,sans-Serif" font-size="10.00">+ ZNFIBRE</text>
<text text-anchor="start" x="7" y="-115" font-family="Helvetica,sans-Serif" font-size="10.00">+ ZNSECTORS</text>
<text text-anchor="start" x="7" y="-104" font-family="Helvetica,sans-Serif" font-size="10.00">+ ZNDIVISION</text>
<text text-anchor="start" x="7" y="-93" font-family="Helvetica,sans-Serif" font-size="10.00">+ ZNAPOSITION</text>
<text text-anchor="start" x="7" y="-82" font-family="Helvetica,sans-Serif" font-size="10.00">+ ZPDIMENSION</text>
<text text-anchor="start" x="7" y="-71" font-family="Helvetica,sans-Serif" font-size="10.00">+ ZPFIBRE</text>
<text text-anchor="start" x="7" y="-60" font-family="Helvetica,sans-Serif" font-size="10.00">+ ZPSECTORS</text>
<text text-anchor="start" x="7" y="-49" font-family="Helvetica,sans-Serif" font-size="10.00">+ ZPGROOVES</text>
<text text-anchor="start" x="7" y="-38" font-family="Helvetica,sans-Serif" font-size="10.00">+ ZPAPOSITION</text>
<text text-anchor="start" x="7" y="-27" font-family="Helvetica,sans-Serif" font-size="10.00">+ ZEMFIBRE</text>
<polyline fill="none" stroke="black" points="-1,-20 97,-20 "/>
<text text-anchor="middle" x="48" y="-8" font-family="Helvetica,sans-Serif" font-size="10.00"> </text>
</g>
<!-- Node2 -->
<g id="node2" class="node"><title>Node2</title>
<polygon fill="none" stroke="#bfbfbf" points="25.5,-316.5 25.5,-373.5 70.5,-373.5 70.5,-316.5 25.5,-316.5"/>
<text text-anchor="middle" x="48" y="-361.5" font-family="Helvetica,sans-Serif" font-size="10.00">double</text>
<polyline fill="none" stroke="#bfbfbf" points="25.5,-354.5 70.5,-354.5 "/>
<text text-anchor="middle" x="48" y="-342.5" font-family="Helvetica,sans-Serif" font-size="10.00"> </text>
<polyline fill="none" stroke="#bfbfbf" points="25.5,-335.5 70.5,-335.5 "/>
<text text-anchor="middle" x="48" y="-323.5" font-family="Helvetica,sans-Serif" font-size="10.00"> </text>
</g>
<!-- Node2&#45;&gt;Node1 -->
<g id="edge1" class="edge"><title>Node2&#45;&gt;Node1</title>
<path fill="none" stroke="#404040" d="M48,-316.246C48,-281.562 48,-220.514 48,-169.165"/>
<polygon fill="none" stroke="#404040" points="48.0001,-169.021 44,-163.021 48,-157.021 52,-163.021 48.0001,-169.021"/>
<text text-anchor="middle" x="100.5" y="-289.5" font-family="Helvetica,sans-Serif" font-size="10.00"> +ZPFIBREDIAMETER</text>
<text text-anchor="middle" x="100.5" y="-278.5" font-family="Helvetica,sans-Serif" font-size="10.00">+ZNGROOVES</text>
<text text-anchor="middle" x="100.5" y="-267.5" font-family="Helvetica,sans-Serif" font-size="10.00">+ZPCPOSITION</text>
<text text-anchor="middle" x="100.5" y="-256.5" font-family="Helvetica,sans-Serif" font-size="10.00">+ZEMDIMENSION</text>
<text text-anchor="middle" x="100.5" y="-245.5" font-family="Helvetica,sans-Serif" font-size="10.00">+ZEMPOSITION</text>
<text text-anchor="middle" x="100.5" y="-234.5" font-family="Helvetica,sans-Serif" font-size="10.00">+ZNCPOSITION</text>
<text text-anchor="middle" x="100.5" y="-223.5" font-family="Helvetica,sans-Serif" font-size="10.00">+ZEMDIVISION</text>
<text text-anchor="middle" x="100.5" y="-212.5" font-family="Helvetica,sans-Serif" font-size="10.00">+ZNDIMENSION</text>
<text text-anchor="middle" x="100.5" y="-201.5" font-family="Helvetica,sans-Serif" font-size="10.00">+ZPDIVISION</text>
<text text-anchor="middle" x="100.5" y="-190.5" font-family="Helvetica,sans-Serif" font-size="10.00">+ZNFIBREDIAMETER</text>
<text text-anchor="middle" x="100.5" y="-179.5" font-family="Helvetica,sans-Serif" font-size="10.00">...</text>
</g>
</g>
</svg>
