<?xml version="1.0" encoding="UTF-8" standalone="no"?>
<!DOCTYPE svg PUBLIC "-//W3C//DTD SVG 1.1//EN"
 "http://www.w3.org/Graphics/SVG/1.1/DTD/svg11.dtd">
<!-- Generated by graphviz version 2.36.0 (20140111.2315)
 -->
<!-- Title: /home/travis/build/AliceO2Group/AliceO2/Detectors/MUON/MCH/Contour/include/MCHContour/BBox.h Pages: 1 -->
<!--zoomable 742 -->
<svg id="main" version="1.1" xmlns="http://www.w3.org/2000/svg" xmlns:xlink="http://www.w3.org/1999/xlink" xml:space="preserve" onload="init(evt)">
<style type="text/css"><![CDATA[
.edge:hover path { stroke: red; }
.edge:hover polygon { stroke: red; fill: red; }
]]></style>
<script type="text/javascript"><![CDATA[
var edges = document.getElementsByTagName('g');
if (edges && edges.length) {
  for (var i=0;i<edges.length;i++) {
    if (edges[i].id.substr(0,4)=='edge') {
      edges[i].setAttribute('class','edge');
    }
  }
}
]]></script>
        <defs>
                <circle id="rim" cx="0" cy="0" r="7"/>
                <circle id="rim2" cx="0" cy="0" r="3.5"/>
                <g id="zoomPlus">
                        <use xlink:href="#rim" fill="#404040">
                                <set attributeName="fill" to="#808080" begin="zoomplus.mouseover" end="zoomplus.mouseout"/>
                        </use>
                        <path d="M-4,0h8M0,-4v8" fill="none" stroke="white" stroke-width="1.5" pointer-events="none"/>
                </g>
                <g id="zoomMin">
                        <use xlink:href="#rim" fill="#404040">
                                <set attributeName="fill" to="#808080" begin="zoomminus.mouseover" end="zoomminus.mouseout"/>
                        </use>
                        <path d="M-4,0h8" fill="none" stroke="white" stroke-width="1.5" pointer-events="none"/>
                </g>
                <g id="dirArrow">
                        <path fill="none" stroke="white" stroke-width="1.5" d="M0,-3.0v7 M-2.5,-0.5L0,-3.0L2.5,-0.5"/>
                </g>
               <g id="resetDef">
                       <use xlink:href="#rim2" fill="#404040">
                               <set attributeName="fill" to="#808080" begin="reset.mouseover" end="reset.mouseout"/>
                       </use>
               </g>
        </defs>

<script type="text/javascript">
var viewWidth = 1567;
var viewHeight = 742;
var sectionId = 'dynsection-1';
</script>
<script xlink:href="../../svgpan.js"/>
<svg id="graph" class="graph">
<g id="viewport">
<title>/home/travis/build/AliceO2Group/AliceO2/Detectors/MUON/MCH/Contour/include/MCHContour/BBox.h</title>
<!-- Node1 -->
<g id="node1" class="node"><title>Node1</title>
<polygon fill="#bfbfbf" stroke="black" points="960,-681 960,-733 1120,-733 1120,-681 960,-681"/>
<text text-anchor="start" x="968" y="-721" font-family="Helvetica,sans-Serif" font-size="10.00">/home/travis/build</text>
<text text-anchor="start" x="968" y="-710" font-family="Helvetica,sans-Serif" font-size="10.00">/AliceO2Group/AliceO2</text>
<text text-anchor="start" x="968" y="-699" font-family="Helvetica,sans-Serif" font-size="10.00">/Detectors/MUON/MCH/Contour</text>
<text text-anchor="middle" x="1040" y="-688" font-family="Helvetica,sans-Serif" font-size="10.00">/include/MCHContour/BBox.h</text>
</g>
<!-- Node2 -->
<g id="node2" class="node"><title>Node2</title>
<g id="a_node2"><a xlink:href="../../dc/ddd/Polygon_8h.html" target="_top" xlink:title="/home/travis/build\l/AliceO2Group/AliceO2\l/Detectors/MUON/MCH/Contour\l/include/MCHContour/Polygon.h">
<polygon fill="none" stroke="black" points="906,-591 906,-643 1066,-643 1066,-591 906,-591"/>
<text text-anchor="start" x="914" y="-631" font-family="Helvetica,sans-Serif" font-size="10.00">/home/travis/build</text>
<text text-anchor="start" x="914" y="-620" font-family="Helvetica,sans-Serif" font-size="10.00">/AliceO2Group/AliceO2</text>
<text text-anchor="start" x="914" y="-609" font-family="Helvetica,sans-Serif" font-size="10.00">/Detectors/MUON/MCH/Contour</text>
<text text-anchor="middle" x="986" y="-598" font-family="Helvetica,sans-Serif" font-size="10.00">/include/MCHContour/Polygon.h</text>
</a>
</g>
</g>
<!-- Node1&#45;&gt;Node2 -->
<g id="edge1" class="edge"><title>Node1&#45;&gt;Node2</title>
<path fill="none" stroke="midnightblue" d="M1019.12,-671.965C1013.22,-662.354 1006.91,-652.074 1001.4,-643.092"/>
<polygon fill="midnightblue" stroke="midnightblue" points="1016.17,-673.854 1024.38,-680.547 1022.13,-670.193 1016.17,-673.854"/>
</g>
<!-- Node6 -->
<g id="node6" class="node"><title>Node6</title>
<g id="a_node6"><a xlink:href="../../de/d51/SVGWriter_8h.html" target="_top" xlink:title="/home/travis/build\l/AliceO2Group/AliceO2\l/Detectors/MUON/MCH/Contour\l/include/MCHContour/SVGWriter.h">
<polygon fill="none" stroke="black" points="445,-206 445,-258 615,-258 615,-206 445,-206"/>
<text text-anchor="start" x="453" y="-246" font-family="Helvetica,sans-Serif" font-size="10.00">/home/travis/build</text>
<text text-anchor="start" x="453" y="-235" font-family="Helvetica,sans-Serif" font-size="10.00">/AliceO2Group/AliceO2</text>
<text text-anchor="start" x="453" y="-224" font-family="Helvetica,sans-Serif" font-size="10.00">/Detectors/MUON/MCH/Contour</text>
<text text-anchor="middle" x="530" y="-213" font-family="Helvetica,sans-Serif" font-size="10.00">/include/MCHContour/SVGWriter.h</text>
</a>
</g>
</g>
<!-- Node1&#45;&gt;Node6 -->
<g id="edge37" class="edge"><title>Node1&#45;&gt;Node6</title>
<path fill="none" stroke="midnightblue" d="M949.671,-693.237C803.915,-670.076 533,-615.287 533,-528 533,-528 533,-528 533,-431 533,-368.774 531.5,-295.561 530.622,-258.003"/>
<polygon fill="midnightblue" stroke="midnightblue" points="949.522,-696.756 959.944,-694.85 950.608,-689.841 949.522,-696.756"/>
</g>
<!-- Node17 -->
<g id="node17" class="node"><title>Node17</title>
<g id="a_node17"><a xlink:href="../../d2/d32/CathodeSegmentationContours_8h.html" target="_top" xlink:title="/home/travis/build\l/AliceO2Group/AliceO2\l/Detectors/MUON/MCH/Mapping\l/SegContour/include/MCHMappingSegContour\l/CathodeSegmentationContours.h">
<polygon fill="none" stroke="black" points="606,-300.5 606,-363.5 826,-363.5 826,-300.5 606,-300.5"/>
<text text-anchor="start" x="614" y="-351.5" font-family="Helvetica,sans-Serif" font-size="10.00">/home/travis/build</text>
<text text-anchor="start" x="614" y="-340.5" font-family="Helvetica,sans-Serif" font-size="10.00">/AliceO2Group/AliceO2</text>
<text text-anchor="start" x="614" y="-329.5" font-family="Helvetica,sans-Serif" font-size="10.00">/Detectors/MUON/MCH/Mapping</text>
<text text-anchor="start" x="614" y="-318.5" font-family="Helvetica,sans-Serif" font-size="10.00">/SegContour/include/MCHMappingSegContour</text>
<text text-anchor="middle" x="716" y="-307.5" font-family="Helvetica,sans-Serif" font-size="10.00">/CathodeSegmentationContours.h</text>
</a>
</g>
</g>
<!-- Node1&#45;&gt;Node17 -->
<g id="edge40" class="edge"><title>Node1&#45;&gt;Node17</title>
<path fill="none" stroke="midnightblue" d="M950.292,-681.586C884.125,-659.036 796.92,-619.004 745,-554 700.926,-498.819 704.954,-409.999 710.9,-363.545"/>
<polygon fill="midnightblue" stroke="midnightblue" points="949.301,-684.945 959.894,-684.787 951.514,-678.305 949.301,-684.945"/>
</g>
<!-- Node19 -->
<g id="node19" class="node"><title>Node19</title>
<g id="a_node19"><a xlink:href="../../dd/d1c/SegmentationContours_8h.html" target="_top" xlink:title="/home/travis/build\l/AliceO2Group/AliceO2\l/Detectors/MUON/MCH/Mapping\l/SegContour/include/MCHMappingSegContour\l/SegmentationContours.h">
<polygon fill="none" stroke="black" points="1172,-400.5 1172,-463.5 1392,-463.5 1392,-400.5 1172,-400.5"/>
<text text-anchor="start" x="1180" y="-451.5" font-family="Helvetica,sans-Serif" font-size="10.00">/home/travis/build</text>
<text text-anchor="start" x="1180" y="-440.5" font-family="Helvetica,sans-Serif" font-size="10.00">/AliceO2Group/AliceO2</text>
<text text-anchor="start" x="1180" y="-429.5" font-family="Helvetica,sans-Serif" font-size="10.00">/Detectors/MUON/MCH/Mapping</text>
<text text-anchor="start" x="1180" y="-418.5" font-family="Helvetica,sans-Serif" font-size="10.00">/SegContour/include/MCHMappingSegContour</text>
<text text-anchor="middle" x="1282" y="-407.5" font-family="Helvetica,sans-Serif" font-size="10.00">/SegmentationContours.h</text>
</a>
</g>
</g>
<!-- Node1&#45;&gt;Node19 -->
<g id="edge41" class="edge"><title>Node1&#45;&gt;Node19</title>
<path fill="none" stroke="midnightblue" d="M1071.72,-673.598C1101.15,-643.23 1145.88,-596.3 1183,-554 1209.41,-523.91 1238.25,-488.325 1257.95,-463.566"/>
<polygon fill="midnightblue" stroke="midnightblue" points="1069.04,-671.336 1064.58,-680.948 1074.06,-676.213 1069.04,-671.336"/>
</g>
<!-- Node21 -->
<g id="node21" class="node"><title>Node21</title>
<g id="a_node21"><a xlink:href="../../d4/d33/Polygon_8cxx.html" target="_top" xlink:title="/home/travis/build\l/AliceO2Group/AliceO2\l/Detectors/MUON/MCH/Contour\l/test/Polygon.cxx">
<polygon fill="none" stroke="black" points="1014,-501 1014,-553 1174,-553 1174,-501 1014,-501"/>
<text text-anchor="start" x="1022" y="-541" font-family="Helvetica,sans-Serif" font-size="10.00">/home/travis/build</text>
<text text-anchor="start" x="1022" y="-530" font-family="Helvetica,sans-Serif" font-size="10.00">/AliceO2Group/AliceO2</text>
<text text-anchor="start" x="1022" y="-519" font-family="Helvetica,sans-Serif" font-size="10.00">/Detectors/MUON/MCH/Contour</text>
<text text-anchor="middle" x="1094" y="-508" font-family="Helvetica,sans-Serif" font-size="10.00">/test/Polygon.cxx</text>
</a>
</g>
</g>
<!-- Node1&#45;&gt;Node21 -->
<g id="edge39" class="edge"><title>Node1&#45;&gt;Node21</title>
<path fill="none" stroke="midnightblue" d="M1062.07,-671.901C1066.97,-663.096 1071.68,-653.433 1075,-644 1085.63,-613.775 1090.37,-576.994 1092.44,-553.066"/>
<polygon fill="midnightblue" stroke="midnightblue" points="1058.94,-670.316 1056.95,-680.721 1064.99,-673.83 1058.94,-670.316"/>
</g>
<!-- Node22 -->
<g id="node22" class="node"><title>Node22</title>
<g id="a_node22"><a xlink:href="../../d4/da8/BBox_8cxx.html" target="_top" xlink:title="/home/travis/build\l/AliceO2Group/AliceO2\l/Detectors/MUON/MCH/Contour\l/test/BBox.cxx">
<polygon fill="none" stroke="black" points="1230,-591 1230,-643 1390,-643 1390,-591 1230,-591"/>
<text text-anchor="start" x="1238" y="-631" font-family="Helvetica,sans-Serif" font-size="10.00">/home/travis/build</text>
<text text-anchor="start" x="1238" y="-620" font-family="Helvetica,sans-Serif" font-size="10.00">/AliceO2Group/AliceO2</text>
<text text-anchor="start" x="1238" y="-609" font-family="Helvetica,sans-Serif" font-size="10.00">/Detectors/MUON/MCH/Contour</text>
<text text-anchor="middle" x="1310" y="-598" font-family="Helvetica,sans-Serif" font-size="10.00">/test/BBox.cxx</text>
</a>
</g>
</g>
<!-- Node1&#45;&gt;Node22 -->
<g id="edge38" class="edge"><title>Node1&#45;&gt;Node22</title>
<path fill="none" stroke="midnightblue" d="M1126.96,-677.659C1161.04,-666.55 1199.82,-653.91 1232.89,-643.133"/>
<polygon fill="midnightblue" stroke="midnightblue" points="1125.43,-674.474 1117.01,-680.901 1127.6,-681.129 1125.43,-674.474"/>
</g>
<!-- Node3 -->
<g id="node3" class="node"><title>Node3</title>
<g id="a_node3"><a xlink:href="../../db/d08/Contour_8h.html" target="_top" xlink:title="/home/travis/build\l/AliceO2Group/AliceO2\l/Detectors/MUON/MCH/Contour\l/include/MCHContour/Contour.h">
<polygon fill="none" stroke="black" points="798,-501 798,-553 958,-553 958,-501 798,-501"/>
<text text-anchor="start" x="806" y="-541" font-family="Helvetica,sans-Serif" font-size="10.00">/home/travis/build</text>
<text text-anchor="start" x="806" y="-530" font-family="Helvetica,sans-Serif" font-size="10.00">/AliceO2Group/AliceO2</text>
<text text-anchor="start" x="806" y="-519" font-family="Helvetica,sans-Serif" font-size="10.00">/Detectors/MUON/MCH/Contour</text>
<text text-anchor="middle" x="878" y="-508" font-family="Helvetica,sans-Serif" font-size="10.00">/include/MCHContour/Contour.h</text>
</a>
</g>
</g>
<!-- Node2&#45;&gt;Node3 -->
<g id="edge2" class="edge"><title>Node2&#45;&gt;Node3</title>
<path fill="none" stroke="midnightblue" d="M947.025,-584.242C934.506,-574.042 920.816,-562.887 908.953,-553.221"/>
<polygon fill="midnightblue" stroke="midnightblue" points="945.088,-587.179 955.052,-590.783 949.51,-581.753 945.088,-587.179"/>
</g>
<!-- Node4 -->
<g id="node4" class="node"><title>Node4</title>
<g id="a_node4"><a xlink:href="../../dc/d15/ContourCreator_8inl.html" target="_top" xlink:title="/home/travis/build\l/AliceO2Group/AliceO2\l/Detectors/MUON/MCH/Contour\l/include/MCHContour/ContourCreator.inl">
<polygon fill="none" stroke="black" points="960,-406 960,-458 1154,-458 1154,-406 960,-406"/>
<text text-anchor="start" x="968" y="-446" font-family="Helvetica,sans-Serif" font-size="10.00">/home/travis/build</text>
<text text-anchor="start" x="968" y="-435" font-family="Helvetica,sans-Serif" font-size="10.00">/AliceO2Group/AliceO2</text>
<text text-anchor="start" x="968" y="-424" font-family="Helvetica,sans-Serif" font-size="10.00">/Detectors/MUON/MCH/Contour</text>
<text text-anchor="middle" x="1057" y="-413" font-family="Helvetica,sans-Serif" font-size="10.00">/include/MCHContour/ContourCreator.inl</text>
</a>
</g>
</g>
<!-- Node2&#45;&gt;Node4 -->
<g id="edge34" class="edge"><title>Node2&#45;&gt;Node4</title>
<path fill="none" stroke="midnightblue" d="M987.292,-580.278C989.228,-556.657 993.895,-525.468 1005,-500 1011.65,-484.748 1022.56,-469.907 1032.68,-458.085"/>
<polygon fill="midnightblue" stroke="midnightblue" points="983.78,-580.332 986.581,-590.55 990.763,-580.816 983.78,-580.332"/>
</g>
<!-- Node2&#45;&gt;Node17 -->
<g id="edge36" class="edge"><title>Node2&#45;&gt;Node17</title>
<path fill="none" stroke="midnightblue" d="M895.863,-602.027C859.793,-592.967 819.627,-578.147 789,-554 730.298,-507.718 718.316,-412.915 716.185,-363.888"/>
<polygon fill="midnightblue" stroke="midnightblue" points="895.376,-605.51 905.916,-604.433 897.005,-598.702 895.376,-605.51"/>
</g>
<!-- Node2&#45;&gt;Node21 -->
<g id="edge35" class="edge"><title>Node2&#45;&gt;Node21</title>
<path fill="none" stroke="midnightblue" d="M1024.98,-584.242C1037.49,-574.042 1051.18,-562.887 1063.05,-553.221"/>
<polygon fill="midnightblue" stroke="midnightblue" points="1022.49,-581.753 1016.95,-590.783 1026.91,-587.179 1022.49,-581.753"/>
</g>
<!-- Node3&#45;&gt;Node4 -->
<g id="edge3" class="edge"><title>Node3&#45;&gt;Node4</title>
<path fill="none" stroke="midnightblue" d="M935.334,-496.212C959.028,-483.902 986.191,-469.789 1008.83,-458.026"/>
<polygon fill="midnightblue" stroke="midnightblue" points="933.7,-493.117 926.44,-500.833 936.927,-499.328 933.7,-493.117"/>
</g>
<!-- Node3&#45;&gt;Node6 -->
<g id="edge20" class="edge"><title>Node3&#45;&gt;Node6</title>
<path fill="none" stroke="midnightblue" d="M797.783,-497.072C735.457,-470.927 650.831,-426.851 597,-364 569.416,-331.793 549.433,-286.273 538.792,-258.247"/>
<polygon fill="midnightblue" stroke="midnightblue" points="796.619,-500.378 807.198,-500.957 799.289,-493.907 796.619,-500.378"/>
</g>
<!-- Node16 -->
<g id="node16" class="node"><title>Node16</title>
<g id="a_node16"><a xlink:href="../../d8/d3b/Contour_8cxx.html" target="_top" xlink:title="/home/travis/build\l/AliceO2Group/AliceO2\l/Detectors/MUON/MCH/Contour\l/test/Contour.cxx">
<polygon fill="none" stroke="black" points="744,-406 744,-458 904,-458 904,-406 744,-406"/>
<text text-anchor="start" x="752" y="-446" font-family="Helvetica,sans-Serif" font-size="10.00">/home/travis/build</text>
<text text-anchor="start" x="752" y="-435" font-family="Helvetica,sans-Serif" font-size="10.00">/AliceO2Group/AliceO2</text>
<text text-anchor="start" x="752" y="-424" font-family="Helvetica,sans-Serif" font-size="10.00">/Detectors/MUON/MCH/Contour</text>
<text text-anchor="middle" x="824" y="-413" font-family="Helvetica,sans-Serif" font-size="10.00">/test/Contour.cxx</text>
</a>
</g>
</g>
<!-- Node3&#45;&gt;Node16 -->
<g id="edge21" class="edge"><title>Node3&#45;&gt;Node16</title>
<path fill="none" stroke="midnightblue" d="M858.191,-491.884C851.69,-480.688 844.589,-468.458 838.551,-458.06"/>
<polygon fill="midnightblue" stroke="midnightblue" points="855.196,-493.697 863.244,-500.587 861.25,-490.182 855.196,-493.697"/>
</g>
<!-- Node3&#45;&gt;Node17 -->
<g id="edge22" class="edge"><title>Node3&#45;&gt;Node17</title>
<path fill="none" stroke="midnightblue" d="M902.089,-491.871C917.939,-464.827 932.477,-427.197 913,-400 892.65,-371.584 859.544,-355.077 826.23,-345.536"/>
<polygon fill="midnightblue" stroke="midnightblue" points="898.974,-490.256 896.711,-500.606 904.935,-493.926 898.974,-490.256"/>
</g>
<!-- Node3&#45;&gt;Node19 -->
<g id="edge31" class="edge"><title>Node3&#45;&gt;Node19</title>
<path fill="none" stroke="midnightblue" d="M967.945,-507.274C1023.9,-495.399 1097.28,-479.419 1162,-464 1165.24,-463.227 1168.54,-462.434 1171.86,-461.626"/>
<polygon fill="midnightblue" stroke="midnightblue" points="967.118,-503.872 958.06,-509.368 968.568,-510.72 967.118,-503.872"/>
</g>
<!-- Node5 -->
<g id="node5" class="node"><title>Node5</title>
<g id="a_node5"><a xlink:href="../../d4/d84/ContourCreator_8h.html" target="_top" xlink:title="/home/travis/build\l/AliceO2Group/AliceO2\l/Detectors/MUON/MCH/Contour\l/include/MCHContour/ContourCreator.h">
<polygon fill="none" stroke="black" points="964.5,-306 964.5,-358 1153.5,-358 1153.5,-306 964.5,-306"/>
<text text-anchor="start" x="972.5" y="-346" font-family="Helvetica,sans-Serif" font-size="10.00">/home/travis/build</text>
<text text-anchor="start" x="972.5" y="-335" font-family="Helvetica,sans-Serif" font-size="10.00">/AliceO2Group/AliceO2</text>
<text text-anchor="start" x="972.5" y="-324" font-family="Helvetica,sans-Serif" font-size="10.00">/Detectors/MUON/MCH/Contour</text>
<text text-anchor="middle" x="1059" y="-313" font-family="Helvetica,sans-Serif" font-size="10.00">/include/MCHContour/ContourCreator.h</text>
</a>
</g>
</g>
<!-- Node4&#45;&gt;Node5 -->
<g id="edge4" class="edge"><title>Node4&#45;&gt;Node5</title>
<path fill="none" stroke="midnightblue" d="M1057.72,-395.703C1057.97,-383.277 1058.25,-369.572 1058.49,-358.152"/>
<polygon fill="midnightblue" stroke="midnightblue" points="1054.22,-395.693 1057.52,-405.763 1061.22,-395.836 1054.22,-395.693"/>
</g>
<!-- Node5&#45;&gt;Node6 -->
<g id="edge5" class="edge"><title>Node5&#45;&gt;Node6</title>
<path fill="none" stroke="midnightblue" d="M954.359,-311.615C854.962,-293.201 707.366,-265.858 615.021,-248.75"/>
<polygon fill="midnightblue" stroke="midnightblue" points="953.955,-315.099 964.425,-313.48 955.23,-308.216 953.955,-315.099"/>
</g>
<!-- Node13 -->
<g id="node13" class="node"><title>Node13</title>
<g id="a_node13"><a xlink:href="../../d3/d4a/ContourCreator_8cxx.html" target="_top" xlink:title="/home/travis/build\l/AliceO2Group/AliceO2\l/Detectors/MUON/MCH/Contour\l/test/ContourCreator.cxx">
<polygon fill="none" stroke="black" points="1171,-206 1171,-258 1331,-258 1331,-206 1171,-206"/>
<text text-anchor="start" x="1179" y="-246" font-family="Helvetica,sans-Serif" font-size="10.00">/home/travis/build</text>
<text text-anchor="start" x="1179" y="-235" font-family="Helvetica,sans-Serif" font-size="10.00">/AliceO2Group/AliceO2</text>
<text text-anchor="start" x="1179" y="-224" font-family="Helvetica,sans-Serif" font-size="10.00">/Detectors/MUON/MCH/Contour</text>
<text text-anchor="middle" x="1251" y="-213" font-family="Helvetica,sans-Serif" font-size="10.00">/test/ContourCreator.cxx</text>
</a>
</g>
</g>
<!-- Node5&#45;&gt;Node13 -->
<g id="edge17" class="edge"><title>Node5&#45;&gt;Node13</title>
<path fill="none" stroke="midnightblue" d="M1117.39,-301.197C1144.34,-287.44 1175.99,-271.285 1201.72,-258.152"/>
<polygon fill="midnightblue" stroke="midnightblue" points="1115.76,-298.099 1108.44,-305.763 1118.94,-304.334 1115.76,-298.099"/>
</g>
<!-- Node14 -->
<g id="node14" class="node"><title>Node14</title>
<g id="a_node14"><a xlink:href="../../da/d65/CathodeSegmentationContours_8cxx.html" target="_top" xlink:title="/home/travis/build\l/AliceO2Group/AliceO2\l/Detectors/MUON/MCH/Mapping\l/SegContour/src/CathodeSegmentation\lContours.cxx">
<polygon fill="none" stroke="black" points="965,-200.5 965,-263.5 1153,-263.5 1153,-200.5 965,-200.5"/>
<text text-anchor="start" x="973" y="-251.5" font-family="Helvetica,sans-Serif" font-size="10.00">/home/travis/build</text>
<text text-anchor="start" x="973" y="-240.5" font-family="Helvetica,sans-Serif" font-size="10.00">/AliceO2Group/AliceO2</text>
<text text-anchor="start" x="973" y="-229.5" font-family="Helvetica,sans-Serif" font-size="10.00">/Detectors/MUON/MCH/Mapping</text>
<text text-anchor="start" x="973" y="-218.5" font-family="Helvetica,sans-Serif" font-size="10.00">/SegContour/src/CathodeSegmentation</text>
<text text-anchor="middle" x="1059" y="-207.5" font-family="Helvetica,sans-Serif" font-size="10.00">Contours.cxx</text>
</a>
</g>
</g>
<!-- Node5&#45;&gt;Node14 -->
<g id="edge18" class="edge"><title>Node5&#45;&gt;Node14</title>
<path fill="none" stroke="midnightblue" d="M1059,-295.692C1059,-285.241 1059,-273.887 1059,-263.749"/>
<polygon fill="midnightblue" stroke="midnightblue" points="1055.5,-295.763 1059,-305.763 1062.5,-295.763 1055.5,-295.763"/>
</g>
<!-- Node15 -->
<g id="node15" class="node"><title>Node15</title>
<g id="a_node15"><a xlink:href="../../de/de2/SegmentationContours_8cxx.html" target="_top" xlink:title="/home/travis/build\l/AliceO2Group/AliceO2\l/Detectors/MUON/MCH/Mapping\l/SegContour/src/SegmentationContours.cxx">
<polygon fill="none" stroke="black" points="1349.5,-206 1349.5,-258 1558.5,-258 1558.5,-206 1349.5,-206"/>
<text text-anchor="start" x="1357.5" y="-246" font-family="Helvetica,sans-Serif" font-size="10.00">/home/travis/build</text>
<text text-anchor="start" x="1357.5" y="-235" font-family="Helvetica,sans-Serif" font-size="10.00">/AliceO2Group/AliceO2</text>
<text text-anchor="start" x="1357.5" y="-224" font-family="Helvetica,sans-Serif" font-size="10.00">/Detectors/MUON/MCH/Mapping</text>
<text text-anchor="middle" x="1454" y="-213" font-family="Helvetica,sans-Serif" font-size="10.00">/SegContour/src/SegmentationContours.cxx</text>
</a>
</g>
</g>
<!-- Node5&#45;&gt;Node15 -->
<g id="edge19" class="edge"><title>Node5&#45;&gt;Node15</title>
<path fill="none" stroke="midnightblue" d="M1163.55,-306.895C1216.52,-294.475 1281.79,-278.851 1340,-264 1347.45,-262.099 1355.17,-260.089 1362.91,-258.044"/>
<polygon fill="midnightblue" stroke="midnightblue" points="1162.75,-303.489 1153.81,-309.177 1164.35,-310.305 1162.75,-303.489"/>
</g>
<!-- Node7 -->
<g id="node7" class="node"><title>Node7</title>
<g id="a_node7"><a xlink:href="../../d0/db8/CathodeSegmentationSVGWriter_8h.html" target="_top" xlink:title="/home/travis/build\l/AliceO2Group/AliceO2\l/Detectors/MUON/MCH/Mapping\l/SegContour/include/MCHMappingSegContour\l/CathodeSegmentationSVGWriter.h">
<polygon fill="none" stroke="black" points="357,-100.5 357,-163.5 577,-163.5 577,-100.5 357,-100.5"/>
<text text-anchor="start" x="365" y="-151.5" font-family="Helvetica,sans-Serif" font-size="10.00">/home/travis/build</text>
<text text-anchor="start" x="365" y="-140.5" font-family="Helvetica,sans-Serif" font-size="10.00">/AliceO2Group/AliceO2</text>
<text text-anchor="start" x="365" y="-129.5" font-family="Helvetica,sans-Serif" font-size="10.00">/Detectors/MUON/MCH/Mapping</text>
<text text-anchor="start" x="365" y="-118.5" font-family="Helvetica,sans-Serif" font-size="10.00">/SegContour/include/MCHMappingSegContour</text>
<text text-anchor="middle" x="467" y="-107.5" font-family="Helvetica,sans-Serif" font-size="10.00">/CathodeSegmentationSVGWriter.h</text>
</a>
</g>
</g>
<!-- Node6&#45;&gt;Node7 -->
<g id="edge6" class="edge"><title>Node6&#45;&gt;Node7</title>
<path fill="none" stroke="midnightblue" d="M508.347,-197.317C501.346,-186.427 493.624,-174.415 486.767,-163.749"/>
<polygon fill="midnightblue" stroke="midnightblue" points="505.424,-199.243 513.776,-205.763 511.312,-195.458 505.424,-199.243"/>
</g>
<!-- Node8 -->
<g id="node8" class="node"><title>Node8</title>
<g id="a_node8"><a xlink:href="../../de/d54/CathodeSegmentationSVGWriter_8cxx.html" target="_top" xlink:title="/home/travis/build\l/AliceO2Group/AliceO2\l/Detectors/MUON/MCH/Mapping\l/SegContour/src/CathodeSegmentation\lSVGWriter.cxx">
<polygon fill="none" stroke="black" points="0,-0.5 0,-63.5 188,-63.5 188,-0.5 0,-0.5"/>
<text text-anchor="start" x="8" y="-51.5" font-family="Helvetica,sans-Serif" font-size="10.00">/home/travis/build</text>
<text text-anchor="start" x="8" y="-40.5" font-family="Helvetica,sans-Serif" font-size="10.00">/AliceO2Group/AliceO2</text>
<text text-anchor="start" x="8" y="-29.5" font-family="Helvetica,sans-Serif" font-size="10.00">/Detectors/MUON/MCH/Mapping</text>
<text text-anchor="start" x="8" y="-18.5" font-family="Helvetica,sans-Serif" font-size="10.00">/SegContour/src/CathodeSegmentation</text>
<text text-anchor="middle" x="94" y="-7.5" font-family="Helvetica,sans-Serif" font-size="10.00">SVGWriter.cxx</text>
</a>
</g>
</g>
<!-- Node6&#45;&gt;Node8 -->
<g id="edge12" class="edge"><title>Node6&#45;&gt;Node8</title>
<path fill="none" stroke="midnightblue" d="M434.797,-206.292C397.088,-195.198 353.8,-180.802 316,-164 251.592,-135.372 182.406,-92.3843 138.701,-63.5425"/>
<polygon fill="midnightblue" stroke="midnightblue" points="434.185,-209.759 444.764,-209.186 436.137,-203.036 434.185,-209.759"/>
</g>
<!-- Node9 -->
<g id="node9" class="node"><title>Node9</title>
<g id="a_node9"><a xlink:href="../../de/d56/SegmentationSVGWriter_8cxx.html" target="_top" xlink:title="/home/travis/build\l/AliceO2Group/AliceO2\l/Detectors/MUON/MCH/Mapping\l/SegContour/src/SegmentationSVGWriter.cxx">
<polygon fill="none" stroke="black" points="206.5,-6 206.5,-58 423.5,-58 423.5,-6 206.5,-6"/>
<text text-anchor="start" x="214.5" y="-46" font-family="Helvetica,sans-Serif" font-size="10.00">/home/travis/build</text>
<text text-anchor="start" x="214.5" y="-35" font-family="Helvetica,sans-Serif" font-size="10.00">/AliceO2Group/AliceO2</text>
<text text-anchor="start" x="214.5" y="-24" font-family="Helvetica,sans-Serif" font-size="10.00">/Detectors/MUON/MCH/Mapping</text>
<text text-anchor="middle" x="315" y="-13" font-family="Helvetica,sans-Serif" font-size="10.00">/SegContour/src/SegmentationSVGWriter.cxx</text>
</a>
</g>
</g>
<!-- Node6&#45;&gt;Node9 -->
<g id="edge13" class="edge"><title>Node6&#45;&gt;Node9</title>
<path fill="none" stroke="midnightblue" d="M434.831,-214.615C403.302,-204.78 370.546,-189.071 348,-164 321.575,-134.615 315.639,-87.1593 314.669,-58.1518"/>
<polygon fill="midnightblue" stroke="midnightblue" points="433.982,-218.014 444.564,-217.482 435.96,-211.299 433.982,-218.014"/>
</g>
<!-- Node10 -->
<g id="node10" class="node"><title>Node10</title>
<g id="a_node10"><a xlink:href="../../d2/d0f/SVGSegmentation_8cxx.html" target="_top" xlink:title="/home/travis/build\l/AliceO2Group/AliceO2\l/Detectors/MUON/MCH/Mapping\l/SegContour/src/SVGSegmentation.cxx">
<polygon fill="none" stroke="black" points="841.5,-6 841.5,-58 1032.5,-58 1032.5,-6 841.5,-6"/>
<text text-anchor="start" x="849.5" y="-46" font-family="Helvetica,sans-Serif" font-size="10.00">/home/travis/build</text>
<text text-anchor="start" x="849.5" y="-35" font-family="Helvetica,sans-Serif" font-size="10.00">/AliceO2Group/AliceO2</text>
<text text-anchor="start" x="849.5" y="-24" font-family="Helvetica,sans-Serif" font-size="10.00">/Detectors/MUON/MCH/Mapping</text>
<text text-anchor="middle" x="937" y="-13" font-family="Helvetica,sans-Serif" font-size="10.00">/SegContour/src/SVGSegmentation.cxx</text>
</a>
</g>
</g>
<!-- Node6&#45;&gt;Node10 -->
<g id="edge14" class="edge"><title>Node6&#45;&gt;Node10</title>
<path fill="none" stroke="midnightblue" d="M591.019,-201.315C671.161,-162.327 810.48,-94.5502 885.551,-58.029"/>
<polygon fill="midnightblue" stroke="midnightblue" points="589.008,-198.401 581.547,-205.923 592.07,-204.696 589.008,-198.401"/>
</g>
<!-- Node11 -->
<g id="node11" class="node"><title>Node11</title>
<g id="a_node11"><a xlink:href="../../df/dc1/CathodeSegmentation_8cxx.html" target="_top" xlink:title="/home/travis/build\l/AliceO2Group/AliceO2\l/Detectors/MUON/MCH/Mapping\l/test/src/CathodeSegmentation.cxx">
<polygon fill="none" stroke="black" points="441.5,-6 441.5,-58 612.5,-58 612.5,-6 441.5,-6"/>
<text text-anchor="start" x="449.5" y="-46" font-family="Helvetica,sans-Serif" font-size="10.00">/home/travis/build</text>
<text text-anchor="start" x="449.5" y="-35" font-family="Helvetica,sans-Serif" font-size="10.00">/AliceO2Group/AliceO2</text>
<text text-anchor="start" x="449.5" y="-24" font-family="Helvetica,sans-Serif" font-size="10.00">/Detectors/MUON/MCH/Mapping</text>
<text text-anchor="middle" x="527" y="-13" font-family="Helvetica,sans-Serif" font-size="10.00">/test/src/CathodeSegmentation.cxx</text>
</a>
</g>
</g>
<!-- Node6&#45;&gt;Node11 -->
<g id="edge15" class="edge"><title>Node6&#45;&gt;Node11</title>
<path fill="none" stroke="midnightblue" d="M565.17,-198.094C573.629,-188.053 581.511,-176.369 586,-164 595.703,-137.262 596.047,-126.611 586,-100 580.033,-84.1949 568.451,-69.7024 557.118,-58.2701"/>
<polygon fill="midnightblue" stroke="midnightblue" points="562.362,-195.984 558.317,-205.776 567.586,-200.644 562.362,-195.984"/>
</g>
<!-- Node12 -->
<g id="node12" class="node"><title>Node12</title>
<g id="a_node12"><a xlink:href="../../d2/dba/CathodeSegmentationLong_8cxx.html" target="_top" xlink:title="/home/travis/build\l/AliceO2Group/AliceO2\l/Detectors/MUON/MCH/Mapping\l/test/src/CathodeSegmentationLong.cxx">
<polygon fill="none" stroke="black" points="631,-6 631,-58 823,-58 823,-6 631,-6"/>
<text text-anchor="start" x="639" y="-46" font-family="Helvetica,sans-Serif" font-size="10.00">/home/travis/build</text>
<text text-anchor="start" x="639" y="-35" font-family="Helvetica,sans-Serif" font-size="10.00">/AliceO2Group/AliceO2</text>
<text text-anchor="start" x="639" y="-24" font-family="Helvetica,sans-Serif" font-size="10.00">/Detectors/MUON/MCH/Mapping</text>
<text text-anchor="middle" x="727" y="-13" font-family="Helvetica,sans-Serif" font-size="10.00">/test/src/CathodeSegmentationLong.cxx</text>
</a>
</g>
</g>
<!-- Node6&#45;&gt;Node12 -->
<g id="edge16" class="edge"><title>Node6&#45;&gt;Node12</title>
<path fill="none" stroke="midnightblue" d="M566.684,-198.852C578.762,-187.988 592.132,-175.655 604,-164 640.281,-128.37 680.226,-85.0039 704.46,-58.1978"/>
<polygon fill="midnightblue" stroke="midnightblue" points="564.083,-196.483 558.962,-205.758 568.749,-201.701 564.083,-196.483"/>
</g>
<!-- Node7&#45;&gt;Node8 -->
<g id="edge7" class="edge"><title>Node7&#45;&gt;Node8</title>
<path fill="none" stroke="midnightblue" d="M347.088,-102.583C300.143,-91.1084 245.918,-77.4221 197,-64 194.119,-63.2094 191.195,-62.3965 188.246,-61.5673"/>
<polygon fill="midnightblue" stroke="midnightblue" points="346.445,-106.029 356.99,-104.997 348.103,-99.2279 346.445,-106.029"/>
</g>
<!-- Node7&#45;&gt;Node9 -->
<g id="edge8" class="edge"><title>Node7&#45;&gt;Node9</title>
<path fill="none" stroke="midnightblue" d="M410.768,-94.7449C391.837,-82.5396 371.148,-69.2004 353.859,-58.0536"/>
<polygon fill="midnightblue" stroke="midnightblue" points="409.022,-97.7839 419.323,-100.261 412.815,-91.9007 409.022,-97.7839"/>
</g>
<!-- Node7&#45;&gt;Node10 -->
<g id="edge9" class="edge"><title>Node7&#45;&gt;Node10</title>
<path fill="none" stroke="midnightblue" d="M586.99,-112.254C658.521,-100.266 750.902,-83.3579 832,-64 839.58,-62.1907 847.425,-60.1658 855.256,-58.0407"/>
<polygon fill="midnightblue" stroke="midnightblue" points="586.327,-108.816 577.038,-113.913 587.477,-115.721 586.327,-108.816"/>
</g>
<!-- Node7&#45;&gt;Node11 -->
<g id="edge10" class="edge"><title>Node7&#45;&gt;Node11</title>
<path fill="none" stroke="midnightblue" d="M491.232,-91.421C498.13,-80.1539 505.451,-68.1962 511.661,-58.0536"/>
<polygon fill="midnightblue" stroke="midnightblue" points="488.056,-89.905 485.82,-100.261 494.026,-93.5601 488.056,-89.905"/>
</g>
<!-- Node7&#45;&gt;Node12 -->
<g id="edge11" class="edge"><title>Node7&#45;&gt;Node12</title>
<path fill="none" stroke="midnightblue" d="M557.613,-96.8457C591.401,-84.1104 629.109,-69.8975 660.353,-58.1206"/>
<polygon fill="midnightblue" stroke="midnightblue" points="556.319,-93.5932 548.196,-100.395 558.788,-100.143 556.319,-93.5932"/>
</g>
<!-- Node17&#45;&gt;Node8 -->
<g id="edge24" class="edge"><title>Node17&#45;&gt;Node8</title>
<path fill="none" stroke="midnightblue" d="M595.459,-323.755C518.252,-315.793 417.289,-299.08 334,-264 263.863,-234.459 249.698,-216.914 195,-164 163.007,-133.051 132.73,-91.5557 113.819,-63.6307"/>
<polygon fill="midnightblue" stroke="midnightblue" points="595.414,-327.268 605.711,-324.776 596.107,-320.302 595.414,-327.268"/>
</g>
<!-- Node17&#45;&gt;Node9 -->
<g id="edge26" class="edge"><title>Node17&#45;&gt;Node9</title>
<path fill="none" stroke="midnightblue" d="M595.812,-314.763C544.673,-304.728 485.533,-288.838 436,-264 373.941,-232.881 345.686,-226.757 316,-164 299.953,-130.077 304.176,-85.4627 309.206,-58.0312"/>
<polygon fill="midnightblue" stroke="midnightblue" points="595.449,-318.257 605.928,-316.693 596.761,-311.381 595.449,-318.257"/>
</g>
<!-- Node17&#45;&gt;Node10 -->
<g id="edge27" class="edge"><title>Node17&#45;&gt;Node10</title>
<path fill="none" stroke="midnightblue" d="M835.804,-315.268C866.698,-305.407 896.875,-289.522 917,-264 964.731,-203.468 952.243,-104.236 942.921,-58.0749"/>
<polygon fill="midnightblue" stroke="midnightblue" points="834.782,-311.921 826.204,-318.139 836.787,-318.627 834.782,-311.921"/>
</g>
<!-- Node17&#45;&gt;Node11 -->
<g id="edge29" class="edge"><title>Node17&#45;&gt;Node11</title>
<path fill="none" stroke="midnightblue" d="M702.245,-290.911C684.431,-242.557 650.113,-160.271 604,-100 592.048,-84.3783 575.984,-69.7073 561.622,-58.0995"/>
<polygon fill="midnightblue" stroke="midnightblue" points="698.989,-292.197 705.691,-300.403 705.569,-289.809 698.989,-292.197"/>
</g>
<!-- Node17&#45;&gt;Node12 -->
<g id="edge30" class="edge"><title>Node17&#45;&gt;Node12</title>
<path fill="none" stroke="midnightblue" d="M704.693,-290.383C702.741,-281.742 701.015,-272.622 700,-264 691.194,-189.213 709.548,-100.793 720.163,-58.2962"/>
<polygon fill="midnightblue" stroke="midnightblue" points="701.324,-291.342 707.06,-300.25 708.131,-289.71 701.324,-291.342"/>
</g>
<!-- Node17&#45;&gt;Node14 -->
<g id="edge23" class="edge"><title>Node17&#45;&gt;Node14</title>
<path fill="none" stroke="midnightblue" d="M833.32,-297.596C870.913,-286.88 912.715,-274.952 951,-264 955.501,-262.712 960.108,-261.394 964.76,-260.061"/>
<polygon fill="midnightblue" stroke="midnightblue" points="832.005,-294.331 823.348,-300.438 833.924,-301.063 832.005,-294.331"/>
</g>
<!-- Node17&#45;&gt;Node15 -->
<g id="edge25" class="edge"><title>Node17&#45;&gt;Node15</title>
<path fill="none" stroke="midnightblue" d="M836.326,-314.54C874.263,-309.579 916.351,-304.312 955,-300 1125.8,-280.944 1170.9,-294.661 1340,-264 1349.18,-262.335 1358.7,-260.283 1368.15,-258.033"/>
<polygon fill="midnightblue" stroke="midnightblue" points="835.72,-311.089 826.261,-315.861 836.632,-318.03 835.72,-311.089"/>
</g>
<!-- Node18 -->
<g id="node18" class="node"><title>Node18</title>
<g id="a_node18"><a xlink:href="../../d8/df7/BenchCathodeSegmentation_8cxx.html" target="_top" xlink:title="/home/travis/build\l/AliceO2Group/AliceO2\l/Detectors/MUON/MCH/Mapping\l/test/src/BenchCathodeSegmentation.cxx">
<polygon fill="none" stroke="black" points="709.5,-206 709.5,-258 908.5,-258 908.5,-206 709.5,-206"/>
<text text-anchor="start" x="717.5" y="-246" font-family="Helvetica,sans-Serif" font-size="10.00">/home/travis/build</text>
<text text-anchor="start" x="717.5" y="-235" font-family="Helvetica,sans-Serif" font-size="10.00">/AliceO2Group/AliceO2</text>
<text text-anchor="start" x="717.5" y="-224" font-family="Helvetica,sans-Serif" font-size="10.00">/Detectors/MUON/MCH/Mapping</text>
<text text-anchor="middle" x="809" y="-213" font-family="Helvetica,sans-Serif" font-size="10.00">/test/src/BenchCathodeSegmentation.cxx</text>
</a>
</g>
</g>
<!-- Node17&#45;&gt;Node18 -->
<g id="edge28" class="edge"><title>Node17&#45;&gt;Node18</title>
<path fill="none" stroke="midnightblue" d="M752.293,-292.756C763.35,-281.104 775.218,-268.598 785.225,-258.054"/>
<polygon fill="midnightblue" stroke="midnightblue" points="749.515,-290.598 745.171,-300.261 754.593,-295.417 749.515,-290.598"/>
</g>
<!-- Node19&#45;&gt;Node15 -->
<g id="edge32" class="edge"><title>Node19&#45;&gt;Node15</title>
<path fill="none" stroke="midnightblue" d="M1278.15,-389.975C1277.69,-361.96 1281.61,-325.449 1301,-300 1315.15,-281.432 1335.52,-267.916 1356.82,-258.111"/>
<polygon fill="midnightblue" stroke="midnightblue" points="1274.66,-390.387 1278.52,-400.255 1281.66,-390.137 1274.66,-390.387"/>
</g>
<!-- Node20 -->
<g id="node20" class="node"><title>Node20</title>
<g id="a_node20"><a xlink:href="../../d5/d2d/MUON_2MCH_2Mapping_2test_2src_2Segmentation_8cxx.html" target="_top" xlink:title="/home/travis/build\l/AliceO2Group/AliceO2\l/Detectors/MUON/MCH/Mapping\l/test/src/Segmentation.cxx">
<polygon fill="none" stroke="black" points="1310,-306 1310,-358 1472,-358 1472,-306 1310,-306"/>
<text text-anchor="start" x="1318" y="-346" font-family="Helvetica,sans-Serif" font-size="10.00">/home/travis/build</text>
<text text-anchor="start" x="1318" y="-335" font-family="Helvetica,sans-Serif" font-size="10.00">/AliceO2Group/AliceO2</text>
<text text-anchor="start" x="1318" y="-324" font-family="Helvetica,sans-Serif" font-size="10.00">/Detectors/MUON/MCH/Mapping</text>
<text text-anchor="middle" x="1391" y="-313" font-family="Helvetica,sans-Serif" font-size="10.00">/test/src/Segmentation.cxx</text>
</a>
</g>
</g>
<!-- Node19&#45;&gt;Node20 -->
<g id="edge33" class="edge"><title>Node19&#45;&gt;Node20</title>
<path fill="none" stroke="midnightblue" d="M1323.8,-393.421C1336.97,-381.581 1351.18,-368.799 1363.13,-358.054"/>
<polygon fill="midnightblue" stroke="midnightblue" points="1321.29,-390.972 1316.19,-400.261 1325.97,-396.178 1321.29,-390.972"/>
</g>
</g>
</svg>
        <g id="navigator" transform="translate(0 0)" fill="#404254">
                <rect fill="#f2f5e9" fill-opacity="0.5" stroke="#606060" stroke-width=".5" x="0" y="0" width="60" height="60"/>
                <use id="zoomplus" xlink:href="#zoomPlus" x="17" y="9" onmousedown="handleZoom(evt,'in')"/>
                <use id="zoomminus" xlink:href="#zoomMin" x="42" y="9" onmousedown="handleZoom(evt,'out')"/>
                <use id="reset" xlink:href="#resetDef" x="30" y="36" onmousedown="handleReset()"/>
                <g id="arrowUp" xlink:href="#dirArrow" transform="translate(30 24)" onmousedown="handlePan(0,-1)">
                  <use xlink:href="#rim" fill="#404040">
                        <set attributeName="fill" to="#808080" begin="arrowUp.mouseover" end="arrowUp.mouseout"/>
                  </use>
                  <path fill="none" stroke="white" stroke-width="1.5" d="M0,-3.0v7 M-2.5,-0.5L0,-3.0L2.5,-0.5"/>
                </g>
                <g id="arrowRight" xlink:href="#dirArrow" transform="rotate(90) translate(36 -43)" onmousedown="handlePan(1,0)">
                  <use xlink:href="#rim" fill="#404040">
                        <set attributeName="fill" to="#808080" begin="arrowRight.mouseover" end="arrowRight.mouseout"/>
                  </use>
                  <path fill="none" stroke="white" stroke-width="1.5" d="M0,-3.0v7 M-2.5,-0.5L0,-3.0L2.5,-0.5"/>
                </g>
                <g id="arrowDown" xlink:href="#dirArrow" transform="rotate(180) translate(-30 -48)" onmousedown="handlePan(0,1)">
                  <use xlink:href="#rim" fill="#404040">
                        <set attributeName="fill" to="#808080" begin="arrowDown.mouseover" end="arrowDown.mouseout"/>
                  </use>
                  <path fill="none" stroke="white" stroke-width="1.5" d="M0,-3.0v7 M-2.5,-0.5L0,-3.0L2.5,-0.5"/>
                </g>
                <g id="arrowLeft" xlink:href="#dirArrow" transform="rotate(270) translate(-36 17)" onmousedown="handlePan(-1,0)">
                  <use xlink:href="#rim" fill="#404040">
                        <set attributeName="fill" to="#808080" begin="arrowLeft.mouseover" end="arrowLeft.mouseout"/>
                  </use>
                  <path fill="none" stroke="white" stroke-width="1.5" d="M0,-3.0v7 M-2.5,-0.5L0,-3.0L2.5,-0.5"/>
                </g>
        </g>
        <svg viewBox="0 0 15 15" width="100%" height="30px" preserveAspectRatio="xMaxYMin meet">
         <g id="arrow_out" transform="scale(0.3 0.3)">
          <a xlink:href="BBox_8h__dep__incl_org.svg" target="_base">
           <rect id="button" ry="5" rx="5" y="6" x="6" height="38" width="38"
                fill="#f2f5e9" fill-opacity="0.5" stroke="#606060" stroke-width="1.0"/>
           <path id="arrow"
             d="M 11.500037,31.436501 C 11.940474,20.09759 22.043105,11.32322 32.158766,21.979434 L 37.068811,17.246167 C 37.068811,17.246167 37.088388,32 37.088388,32 L 22.160133,31.978069 C 22.160133,31.978069 26.997745,27.140456 26.997745,27.140456 C 18.528582,18.264221 13.291696,25.230495 11.500037,31.436501 z"
             style="fill:#404040;"/>
          </a>
         </g>
        </svg>
</svg>
