<?xml version="1.0" encoding="UTF-8" standalone="no"?>
<!DOCTYPE svg PUBLIC "-//W3C//DTD SVG 1.1//EN"
 "http://www.w3.org/Graphics/SVG/1.1/DTD/svg11.dtd">
<!-- Generated by graphviz version 2.36.0 (20140111.2315)
 -->
<!-- Title: o2::framework::data_matcher::SubSpecificationTypeValueMatcher Pages: 1 -->
<svg width="291pt" height="552pt"
 viewBox="0.00 0.00 291.00 552.00" xmlns="http://www.w3.org/2000/svg" xmlns:xlink="http://www.w3.org/1999/xlink">
<g id="graph0" class="graph" transform="scale(1 1) rotate(0) translate(4 548)">
<title>o2::framework::data_matcher::SubSpecificationTypeValueMatcher</title>
<!-- Node1 -->
<g id="node1" class="node"><title>Node1</title>
<polygon fill="#bfbfbf" stroke="black" points="41,-0.5 41,-145.5 187,-145.5 187,-0.5 41,-0.5"/>
<text text-anchor="start" x="49" y="-133.5" font-family="Helvetica,sans-Serif" font-size="10.00">o2::framework::data</text>
<text text-anchor="start" x="49" y="-122.5" font-family="Helvetica,sans-Serif" font-size="10.00">_matcher::SubSpecification</text>
<text text-anchor="middle" x="114" y="-111.5" font-family="Helvetica,sans-Serif" font-size="10.00">TypeValueMatcher</text>
<polyline fill="none" stroke="black" points="41,-104.5 187,-104.5 "/>
<text text-anchor="middle" x="114" y="-92.5" font-family="Helvetica,sans-Serif" font-size="10.00"> </text>
<polyline fill="none" stroke="black" points="41,-85.5 187,-85.5 "/>
<text text-anchor="start" x="49" y="-73.5" font-family="Helvetica,sans-Serif" font-size="10.00">+ SubSpecificationTypeValue</text>
<text text-anchor="start" x="49" y="-62.5" font-family="Helvetica,sans-Serif" font-size="10.00">Matcher()</text>
<text text-anchor="start" x="49" y="-51.5" font-family="Helvetica,sans-Serif" font-size="10.00">+ SubSpecificationTypeValue</text>
<text text-anchor="start" x="49" y="-40.5" font-family="Helvetica,sans-Serif" font-size="10.00">Matcher()</text>
<text text-anchor="start" x="49" y="-29.5" font-family="Helvetica,sans-Serif" font-size="10.00">+ SubSpecificationTypeValue</text>
<text text-anchor="start" x="49" y="-18.5" font-family="Helvetica,sans-Serif" font-size="10.00">Matcher()</text>
<text text-anchor="start" x="49" y="-7.5" font-family="Helvetica,sans-Serif" font-size="10.00">+ match()</text>
</g>
<!-- Node2 -->
<g id="node2" class="node"><title>Node2</title>
<g id="a_node2"><a xlink:href="../../dc/d72/classo2_1_1framework_1_1data__matcher_1_1ValueHolder.html" target="_top" xlink:title="{o2::framework::data\l_matcher::ValueHolder\l\&lt; uint64_t \&gt;\n||+ ValueHolder()\l+ ValueHolder()\l+ operator==()\l}">
<polygon fill="none" stroke="black" points="56,-184.5 56,-285.5 172,-285.5 172,-184.5 56,-184.5"/>
<text text-anchor="start" x="64" y="-273.5" font-family="Helvetica,sans-Serif" font-size="10.00">o2::framework::data</text>
<text text-anchor="start" x="64" y="-262.5" font-family="Helvetica,sans-Serif" font-size="10.00">_matcher::ValueHolder</text>
<text text-anchor="middle" x="114" y="-251.5" font-family="Helvetica,sans-Serif" font-size="10.00">&lt; uint64_t &gt;</text>
<polyline fill="none" stroke="black" points="56,-244.5 172,-244.5 "/>
<text text-anchor="middle" x="114" y="-232.5" font-family="Helvetica,sans-Serif" font-size="10.00"> </text>
<polyline fill="none" stroke="black" points="56,-225.5 172,-225.5 "/>
<text text-anchor="start" x="64" y="-213.5" font-family="Helvetica,sans-Serif" font-size="10.00">+ ValueHolder()</text>
<text text-anchor="start" x="64" y="-202.5" font-family="Helvetica,sans-Serif" font-size="10.00">+ ValueHolder()</text>
<text text-anchor="start" x="64" y="-191.5" font-family="Helvetica,sans-Serif" font-size="10.00">+ operator==()</text>
</a>
</g>
</g>
<!-- Node2&#45;&gt;Node1 -->
<g id="edge1" class="edge"><title>Node2&#45;&gt;Node1</title>
<path fill="none" stroke="midnightblue" d="M114,-174.025C114,-164.799 114,-155.193 114,-145.742"/>
<polygon fill="none" stroke="midnightblue" points="110.5,-174.252 114,-184.252 117.5,-174.252 110.5,-174.252"/>
</g>
<!-- Node3 -->
<g id="node3" class="node"><title>Node3</title>
<g id="a_node3"><a xlink:href="../../d5/d87/classstd_1_1variant_3_01uint64__t_00_01o2_1_1framework_1_1data__matcher_1_1ContextRef_01_4.html" target="_top" xlink:title="{variant\&lt; uint64_t,\l o2::framework::data\l_matcher::ContextRef \&gt;\n||}">
<polygon fill="none" stroke="black" points="0,-340.5 0,-419.5 122,-419.5 122,-340.5 0,-340.5"/>
<text text-anchor="start" x="8" y="-407.5" font-family="Helvetica,sans-Serif" font-size="10.00">variant&lt; uint64_t,</text>
<text text-anchor="start" x="8" y="-396.5" font-family="Helvetica,sans-Serif" font-size="10.00"> o2::framework::data</text>
<text text-anchor="middle" x="61" y="-385.5" font-family="Helvetica,sans-Serif" font-size="10.00">_matcher::ContextRef &gt;</text>
<polyline fill="none" stroke="black" points="0,-378.5 122,-378.5 "/>
<text text-anchor="middle" x="61" y="-366.5" font-family="Helvetica,sans-Serif" font-size="10.00"> </text>
<polyline fill="none" stroke="black" points="0,-359.5 122,-359.5 "/>
<text text-anchor="middle" x="61" y="-347.5" font-family="Helvetica,sans-Serif" font-size="10.00"> </text>
</a>
</g>
</g>
<!-- Node3&#45;&gt;Node2 -->
<g id="edge2" class="edge"><title>Node3&#45;&gt;Node2</title>
<path fill="none" stroke="#404040" d="M75.3426,-340.302C80.2773,-326.988 85.9302,-311.736 91.3618,-297.08"/>
<polygon fill="none" stroke="#404040" points="91.4821,-296.756 89.8167,-289.739 95.6525,-285.504 97.318,-292.52 91.4821,-296.756"/>
<text text-anchor="middle" x="108" y="-307.5" font-family="Helvetica,sans-Serif" font-size="10.00"> #mValue</text>
</g>
<!-- Node4 -->
<g id="node4" class="node"><title>Node4</title>
<g id="a_node4"><a xlink:href="../../dc/d72/classo2_1_1framework_1_1data__matcher_1_1ValueHolder.html" target="_top" xlink:title="{o2::framework::data\l_matcher::ValueHolder\&lt; T \&gt;\n||+ ValueHolder()\l+ ValueHolder()\l+ operator==()\l}">
<polygon fill="none" stroke="black" points="140,-335 140,-425 280,-425 280,-335 140,-335"/>
<text text-anchor="start" x="148" y="-413" font-family="Helvetica,sans-Serif" font-size="10.00">o2::framework::data</text>
<text text-anchor="middle" x="210" y="-402" font-family="Helvetica,sans-Serif" font-size="10.00">_matcher::ValueHolder&lt; T &gt;</text>
<polyline fill="none" stroke="black" points="140,-395 280,-395 "/>
<text text-anchor="middle" x="210" y="-383" font-family="Helvetica,sans-Serif" font-size="10.00"> </text>
<polyline fill="none" stroke="black" points="140,-376 280,-376 "/>
<text text-anchor="start" x="148" y="-364" font-family="Helvetica,sans-Serif" font-size="10.00">+ ValueHolder()</text>
<text text-anchor="start" x="148" y="-353" font-family="Helvetica,sans-Serif" font-size="10.00">+ ValueHolder()</text>
<text text-anchor="start" x="148" y="-342" font-family="Helvetica,sans-Serif" font-size="10.00">+ operator==()</text>
</a>
</g>
</g>
<!-- Node4&#45;&gt;Node2 -->
<g id="edge3" class="edge"><title>Node4&#45;&gt;Node2</title>
<path fill="none" stroke="orange" d="M174.652,-326.346C165.724,-313.048 156.168,-298.813 147.344,-285.668"/>
<polygon fill="orange" stroke="orange" points="171.934,-328.577 180.414,-334.928 177.746,-324.675 171.934,-328.577"/>
<text text-anchor="middle" x="192" y="-307.5" font-family="Helvetica,sans-Serif" font-size="10.00"> &lt; uint64_t &gt;</text>
</g>
<!-- Node5 -->
<g id="node5" class="node"><title>Node5</title>
<polygon fill="none" stroke="#bfbfbf" points="136.5,-475 136.5,-543 283.5,-543 283.5,-475 136.5,-475"/>
<text text-anchor="start" x="144.5" y="-531" font-family="Helvetica,sans-Serif" font-size="10.00">variant&lt; T, o2::framework</text>
<text text-anchor="middle" x="210" y="-520" font-family="Helvetica,sans-Serif" font-size="10.00">::data_matcher::ContextRef &gt;</text>
<polyline fill="none" stroke="#bfbfbf" points="136.5,-513 283.5,-513 "/>
<text text-anchor="middle" x="210" y="-501" font-family="Helvetica,sans-Serif" font-size="10.00"> </text>
<polyline fill="none" stroke="#bfbfbf" points="136.5,-494 283.5,-494 "/>
<text text-anchor="middle" x="210" y="-482" font-family="Helvetica,sans-Serif" font-size="10.00"> </text>
</g>
<!-- Node5&#45;&gt;Node4 -->
<g id="edge4" class="edge"><title>Node5&#45;&gt;Node4</title>
<path fill="none" stroke="#404040" d="M210,-474.964C210,-463.49 210,-450.278 210,-437.454"/>
<polygon fill="none" stroke="#404040" points="210,-437.347 206,-431.347 210,-425.347 214,-431.347 210,-437.347"/>
<text text-anchor="middle" x="231" y="-447.5" font-family="Helvetica,sans-Serif" font-size="10.00"> #mValue</text>
</g>
</g>
</svg>
