<?xml version="1.0" encoding="UTF-8" standalone="no"?>
<!DOCTYPE svg PUBLIC "-//W3C//DTD SVG 1.1//EN"
 "http://www.w3.org/Graphics/SVG/1.1/DTD/svg11.dtd">
<!-- Generated by graphviz version 2.36.0 (20140111.2315)
 -->
<!-- Title: /home/travis/build/AliceO2Group/AliceO2/Framework/Core/include/Framework/DataSamplingCondition.h Pages: 1 -->
<svg width="1438pt" height="330pt"
 viewBox="0.00 0.00 1438.00 330.00" xmlns="http://www.w3.org/2000/svg" xmlns:xlink="http://www.w3.org/1999/xlink">
<g id="graph0" class="graph" transform="scale(1 1) rotate(0) translate(4 326)">
<title>/home/travis/build/AliceO2Group/AliceO2/Framework/Core/include/Framework/DataSamplingCondition.h</title>
<!-- Node1 -->
<g id="node1" class="node"><title>Node1</title>
<polygon fill="#bfbfbf" stroke="black" points="425,-269 425,-321 607,-321 607,-269 425,-269"/>
<text text-anchor="start" x="433" y="-309" font-family="Helvetica,sans-Serif" font-size="10.00">/home/travis/build</text>
<text text-anchor="start" x="433" y="-298" font-family="Helvetica,sans-Serif" font-size="10.00">/AliceO2Group/AliceO2</text>
<text text-anchor="start" x="433" y="-287" font-family="Helvetica,sans-Serif" font-size="10.00">/Framework/Core/include</text>
<text text-anchor="middle" x="516" y="-276" font-family="Helvetica,sans-Serif" font-size="10.00">/Framework/DataSamplingCondition.h</text>
</g>
<!-- Node2 -->
<g id="node2" class="node"><title>Node2</title>
<g id="a_node2"><a xlink:href="../../de/dca/DataSamplingConditionFactory_8h.html" target="_top" xlink:title="A definition of DataSamplingConditionFactory. ">
<polygon fill="none" stroke="black" points="429,-168.5 429,-231.5 603,-231.5 603,-168.5 429,-168.5"/>
<text text-anchor="start" x="437" y="-219.5" font-family="Helvetica,sans-Serif" font-size="10.00">/home/travis/build</text>
<text text-anchor="start" x="437" y="-208.5" font-family="Helvetica,sans-Serif" font-size="10.00">/AliceO2Group/AliceO2</text>
<text text-anchor="start" x="437" y="-197.5" font-family="Helvetica,sans-Serif" font-size="10.00">/Framework/Core/include</text>
<text text-anchor="start" x="437" y="-186.5" font-family="Helvetica,sans-Serif" font-size="10.00">/Framework/DataSamplingCondition</text>
<text text-anchor="middle" x="516" y="-175.5" font-family="Helvetica,sans-Serif" font-size="10.00">Factory.h</text>
</a>
</g>
</g>
<!-- Node1&#45;&gt;Node2 -->
<g id="edge1" class="edge"><title>Node1&#45;&gt;Node2</title>
<path fill="none" stroke="midnightblue" d="M516,-258.541C516,-249.691 516,-240.274 516,-231.677"/>
<polygon fill="midnightblue" stroke="midnightblue" points="512.5,-258.587 516,-268.587 519.5,-258.587 512.5,-258.587"/>
</g>
<!-- Node4 -->
<g id="node4" class="node"><title>Node4</title>
<g id="a_node4"><a xlink:href="../../d0/dd6/DataSamplingConditionNConsecutive_8cxx.html" target="_top" xlink:title="Implementation of DataSamplingConditionNConsecutive. ">
<polygon fill="none" stroke="black" points="-0.5,-79 -0.5,-131 172.5,-131 172.5,-79 -0.5,-79"/>
<text text-anchor="start" x="7.5" y="-119" font-family="Helvetica,sans-Serif" font-size="10.00">/home/travis/build</text>
<text text-anchor="start" x="7.5" y="-108" font-family="Helvetica,sans-Serif" font-size="10.00">/AliceO2Group/AliceO2</text>
<text text-anchor="start" x="7.5" y="-97" font-family="Helvetica,sans-Serif" font-size="10.00">/Framework/Core/src/DataSampling</text>
<text text-anchor="middle" x="86" y="-86" font-family="Helvetica,sans-Serif" font-size="10.00">ConditionNConsecutive.cxx</text>
</a>
</g>
</g>
<!-- Node1&#45;&gt;Node4 -->
<g id="edge15" class="edge"><title>Node1&#45;&gt;Node4</title>
<path fill="none" stroke="midnightblue" d="M429.492,-265.63C401.03,-255.693 369.41,-244.002 341,-232 266.627,-200.581 183.239,-157.899 132.688,-131.157"/>
<polygon fill="midnightblue" stroke="midnightblue" points="428.419,-268.962 439.014,-268.93 430.712,-262.348 428.419,-268.962"/>
</g>
<!-- Node5 -->
<g id="node5" class="node"><title>Node5</title>
<g id="a_node5"><a xlink:href="../../d0/dab/DataSamplingConditionPayloadSize_8cxx.html" target="_top" xlink:title="Implementation of DataSamplingConditionPayloadSize. ">
<polygon fill="none" stroke="black" points="190.5,-79 190.5,-131 363.5,-131 363.5,-79 190.5,-79"/>
<text text-anchor="start" x="198.5" y="-119" font-family="Helvetica,sans-Serif" font-size="10.00">/home/travis/build</text>
<text text-anchor="start" x="198.5" y="-108" font-family="Helvetica,sans-Serif" font-size="10.00">/AliceO2Group/AliceO2</text>
<text text-anchor="start" x="198.5" y="-97" font-family="Helvetica,sans-Serif" font-size="10.00">/Framework/Core/src/DataSampling</text>
<text text-anchor="middle" x="277" y="-86" font-family="Helvetica,sans-Serif" font-size="10.00">ConditionPayloadSize.cxx</text>
</a>
</g>
</g>
<!-- Node1&#45;&gt;Node5 -->
<g id="edge16" class="edge"><title>Node1&#45;&gt;Node5</title>
<path fill="none" stroke="midnightblue" d="M465.353,-263.283C450.431,-253.706 434.283,-242.81 420,-232 377.126,-199.551 331.063,-157.528 303.135,-131.16"/>
<polygon fill="midnightblue" stroke="midnightblue" points="463.656,-266.352 473.973,-268.759 467.409,-260.443 463.656,-266.352"/>
</g>
<!-- Node6 -->
<g id="node6" class="node"><title>Node6</title>
<g id="a_node6"><a xlink:href="../../d4/dba/DataSamplingConditionRandom_8cxx.html" target="_top" xlink:title="Implementation of random DataSamplingCondition. ">
<polygon fill="none" stroke="black" points="733.5,-79 733.5,-131 906.5,-131 906.5,-79 733.5,-79"/>
<text text-anchor="start" x="741.5" y="-119" font-family="Helvetica,sans-Serif" font-size="10.00">/home/travis/build</text>
<text text-anchor="start" x="741.5" y="-108" font-family="Helvetica,sans-Serif" font-size="10.00">/AliceO2Group/AliceO2</text>
<text text-anchor="start" x="741.5" y="-97" font-family="Helvetica,sans-Serif" font-size="10.00">/Framework/Core/src/DataSampling</text>
<text text-anchor="middle" x="820" y="-86" font-family="Helvetica,sans-Serif" font-size="10.00">ConditionRandom.cxx</text>
</a>
</g>
</g>
<!-- Node1&#45;&gt;Node6 -->
<g id="edge17" class="edge"><title>Node1&#45;&gt;Node6</title>
<path fill="none" stroke="midnightblue" d="M565.549,-263.358C625.215,-226.459 724.283,-165.193 779.558,-131.01"/>
<polygon fill="midnightblue" stroke="midnightblue" points="563.347,-260.604 556.683,-268.841 567.029,-266.558 563.347,-260.604"/>
</g>
<!-- Node9 -->
<g id="node9" class="node"><title>Node9</title>
<g id="a_node9"><a xlink:href="../../d2/d1b/DataSamplingPolicy_8h.html" target="_top" xlink:title="A declaration of O2 Data Sampling Policy. ">
<polygon fill="none" stroke="black" points="1095,-174 1095,-226 1263,-226 1263,-174 1095,-174"/>
<text text-anchor="start" x="1103" y="-214" font-family="Helvetica,sans-Serif" font-size="10.00">/home/travis/build</text>
<text text-anchor="start" x="1103" y="-203" font-family="Helvetica,sans-Serif" font-size="10.00">/AliceO2Group/AliceO2</text>
<text text-anchor="start" x="1103" y="-192" font-family="Helvetica,sans-Serif" font-size="10.00">/Framework/Core/include</text>
<text text-anchor="middle" x="1179" y="-181" font-family="Helvetica,sans-Serif" font-size="10.00">/Framework/DataSamplingPolicy.h</text>
</a>
</g>
</g>
<!-- Node1&#45;&gt;Node9 -->
<g id="edge8" class="edge"><title>Node1&#45;&gt;Node9</title>
<path fill="none" stroke="midnightblue" d="M617.164,-279.81C747.88,-261.474 973.078,-229.885 1094.89,-212.798"/>
<polygon fill="midnightblue" stroke="midnightblue" points="616.561,-276.36 607.144,-281.215 617.533,-283.292 616.561,-276.36"/>
</g>
<!-- Node3 -->
<g id="node3" class="node"><title>Node3</title>
<g id="a_node3"><a xlink:href="../../de/d2b/DataSamplingConditionFactory_8cxx.html" target="_top" xlink:title="Implementation of DataSamplingConditionFactory. ">
<polygon fill="none" stroke="black" points="542.5,-79 542.5,-131 715.5,-131 715.5,-79 542.5,-79"/>
<text text-anchor="start" x="550.5" y="-119" font-family="Helvetica,sans-Serif" font-size="10.00">/home/travis/build</text>
<text text-anchor="start" x="550.5" y="-108" font-family="Helvetica,sans-Serif" font-size="10.00">/AliceO2Group/AliceO2</text>
<text text-anchor="start" x="550.5" y="-97" font-family="Helvetica,sans-Serif" font-size="10.00">/Framework/Core/src/DataSampling</text>
<text text-anchor="middle" x="629" y="-86" font-family="Helvetica,sans-Serif" font-size="10.00">ConditionFactory.cxx</text>
</a>
</g>
</g>
<!-- Node2&#45;&gt;Node3 -->
<g id="edge2" class="edge"><title>Node2&#45;&gt;Node3</title>
<path fill="none" stroke="midnightblue" d="M561.377,-161.654C573.854,-151.386 587.084,-140.497 598.502,-131.1"/>
<polygon fill="midnightblue" stroke="midnightblue" points="558.811,-159.233 553.314,-168.291 563.259,-164.638 558.811,-159.233"/>
</g>
<!-- Node2&#45;&gt;Node4 -->
<g id="edge3" class="edge"><title>Node2&#45;&gt;Node4</title>
<path fill="none" stroke="midnightblue" d="M418.742,-181.405C351.67,-168.817 260.606,-150.83 181,-132 178.254,-131.351 175.468,-130.677 172.658,-129.985"/>
<polygon fill="midnightblue" stroke="midnightblue" points="418.403,-184.902 428.876,-183.3 419.69,-178.021 418.403,-184.902"/>
</g>
<!-- Node2&#45;&gt;Node5 -->
<g id="edge4" class="edge"><title>Node2&#45;&gt;Node5</title>
<path fill="none" stroke="midnightblue" d="M427.798,-164.679C399.129,-153.523 367.874,-141.361 341.291,-131.017"/>
<polygon fill="midnightblue" stroke="midnightblue" points="426.823,-168.055 437.411,-168.42 429.361,-161.531 426.823,-168.055"/>
</g>
<!-- Node2&#45;&gt;Node6 -->
<g id="edge5" class="edge"><title>Node2&#45;&gt;Node6</title>
<path fill="none" stroke="midnightblue" d="M612.698,-169.418C653.061,-157.07 699.447,-142.88 738.093,-131.057"/>
<polygon fill="midnightblue" stroke="midnightblue" points="611.653,-166.078 603.114,-172.35 613.701,-172.771 611.653,-166.078"/>
</g>
<!-- Node7 -->
<g id="node7" class="node"><title>Node7</title>
<g id="a_node7"><a xlink:href="../../de/d3b/DataSamplingPolicy_8cxx.html" target="_top" xlink:title="Implementation of O2 Data Sampling Policy. ">
<polygon fill="none" stroke="black" points="924.5,-79 924.5,-131 1097.5,-131 1097.5,-79 924.5,-79"/>
<text text-anchor="start" x="932.5" y="-119" font-family="Helvetica,sans-Serif" font-size="10.00">/home/travis/build</text>
<text text-anchor="start" x="932.5" y="-108" font-family="Helvetica,sans-Serif" font-size="10.00">/AliceO2Group/AliceO2</text>
<text text-anchor="start" x="932.5" y="-97" font-family="Helvetica,sans-Serif" font-size="10.00">/Framework/Core/src/DataSampling</text>
<text text-anchor="middle" x="1011" y="-86" font-family="Helvetica,sans-Serif" font-size="10.00">Policy.cxx</text>
</a>
</g>
</g>
<!-- Node2&#45;&gt;Node7 -->
<g id="edge6" class="edge"><title>Node2&#45;&gt;Node7</title>
<path fill="none" stroke="midnightblue" d="M613.454,-185.367C694.556,-173.369 812.841,-154.355 915,-132 918.121,-131.317 921.291,-130.597 924.489,-129.849"/>
<polygon fill="midnightblue" stroke="midnightblue" points="612.64,-181.949 603.256,-186.868 613.659,-188.874 612.64,-181.949"/>
</g>
<!-- Node8 -->
<g id="node8" class="node"><title>Node8</title>
<g id="a_node8"><a xlink:href="../../dd/d70/test__DataSamplingCondition_8cxx.html" target="_top" xlink:title="/home/travis/build\l/AliceO2Group/AliceO2\l/Framework/Core/test/test\l_DataSamplingCondition.cxx">
<polygon fill="none" stroke="black" points="381.5,-79 381.5,-131 524.5,-131 524.5,-79 381.5,-79"/>
<text text-anchor="start" x="389.5" y="-119" font-family="Helvetica,sans-Serif" font-size="10.00">/home/travis/build</text>
<text text-anchor="start" x="389.5" y="-108" font-family="Helvetica,sans-Serif" font-size="10.00">/AliceO2Group/AliceO2</text>
<text text-anchor="start" x="389.5" y="-97" font-family="Helvetica,sans-Serif" font-size="10.00">/Framework/Core/test/test</text>
<text text-anchor="middle" x="453" y="-86" font-family="Helvetica,sans-Serif" font-size="10.00">_DataSamplingCondition.cxx</text>
</a>
</g>
</g>
<!-- Node2&#45;&gt;Node8 -->
<g id="edge7" class="edge"><title>Node2&#45;&gt;Node8</title>
<path fill="none" stroke="midnightblue" d="M489.505,-159.888C482.906,-150.146 476.005,-139.96 470.003,-131.1"/>
<polygon fill="midnightblue" stroke="midnightblue" points="486.691,-161.974 495.197,-168.291 492.486,-158.048 486.691,-161.974"/>
</g>
<!-- Node9&#45;&gt;Node7 -->
<g id="edge12" class="edge"><title>Node9&#45;&gt;Node7</title>
<path fill="none" stroke="midnightblue" d="M1124.6,-168.886C1102.5,-156.653 1077.27,-142.685 1056.21,-131.026"/>
<polygon fill="midnightblue" stroke="midnightblue" points="1123.09,-172.052 1133.54,-173.833 1126.48,-165.928 1123.09,-172.052"/>
</g>
<!-- Node10 -->
<g id="node10" class="node"><title>Node10</title>
<g id="a_node10"><a xlink:href="../../d7/d33/Dispatcher_8h.html" target="_top" xlink:title="Declaration of Dispatcher for O2 Data Sampling. ">
<polygon fill="none" stroke="black" points="1115.5,-79 1115.5,-131 1242.5,-131 1242.5,-79 1115.5,-79"/>
<text text-anchor="start" x="1123.5" y="-119" font-family="Helvetica,sans-Serif" font-size="10.00">/home/travis/build</text>
<text text-anchor="start" x="1123.5" y="-108" font-family="Helvetica,sans-Serif" font-size="10.00">/AliceO2Group/AliceO2</text>
<text text-anchor="start" x="1123.5" y="-97" font-family="Helvetica,sans-Serif" font-size="10.00">/Framework/Core/include</text>
<text text-anchor="middle" x="1179" y="-86" font-family="Helvetica,sans-Serif" font-size="10.00">/Framework/Dispatcher.h</text>
</a>
</g>
</g>
<!-- Node9&#45;&gt;Node10 -->
<g id="edge9" class="edge"><title>Node9&#45;&gt;Node10</title>
<path fill="none" stroke="midnightblue" d="M1179,-163.549C1179,-152.722 1179,-141.046 1179,-131.06"/>
<polygon fill="midnightblue" stroke="midnightblue" points="1175.5,-163.587 1179,-173.587 1182.5,-163.587 1175.5,-163.587"/>
</g>
<!-- Node12 -->
<g id="node12" class="node"><title>Node12</title>
<g id="a_node12"><a xlink:href="../../d1/dca/Dispatcher_8cxx.html" target="_top" xlink:title="Implementation of Dispatcher for O2 Data Sampling. ">
<polygon fill="none" stroke="black" points="1182,-0.5 1182,-41.5 1360,-41.5 1360,-0.5 1182,-0.5"/>
<text text-anchor="start" x="1190" y="-29.5" font-family="Helvetica,sans-Serif" font-size="10.00">/home/travis/build</text>
<text text-anchor="start" x="1190" y="-18.5" font-family="Helvetica,sans-Serif" font-size="10.00">/AliceO2Group/AliceO2</text>
<text text-anchor="middle" x="1271" y="-7.5" font-family="Helvetica,sans-Serif" font-size="10.00">/Framework/Core/src/Dispatcher.cxx</text>
</a>
</g>
</g>
<!-- Node9&#45;&gt;Node12 -->
<g id="edge13" class="edge"><title>Node9&#45;&gt;Node12</title>
<path fill="none" stroke="midnightblue" d="M1222.1,-167.253C1233.09,-157.15 1243.81,-145.145 1251,-132 1266.74,-103.222 1270.42,-64.5011 1271.1,-41.5069"/>
<polygon fill="midnightblue" stroke="midnightblue" points="1219.7,-164.705 1214.49,-173.934 1224.32,-169.965 1219.7,-164.705"/>
</g>
<!-- Node13 -->
<g id="node13" class="node"><title>Node13</title>
<g id="a_node13"><a xlink:href="../../d3/ddc/test__DataSamplingPolicy_8cxx.html" target="_top" xlink:title="/home/travis/build\l/AliceO2Group/AliceO2\l/Framework/Core/test/test\l_DataSamplingPolicy.cxx">
<polygon fill="none" stroke="black" points="1299.5,-79 1299.5,-131 1430.5,-131 1430.5,-79 1299.5,-79"/>
<text text-anchor="start" x="1307.5" y="-119" font-family="Helvetica,sans-Serif" font-size="10.00">/home/travis/build</text>
<text text-anchor="start" x="1307.5" y="-108" font-family="Helvetica,sans-Serif" font-size="10.00">/AliceO2Group/AliceO2</text>
<text text-anchor="start" x="1307.5" y="-97" font-family="Helvetica,sans-Serif" font-size="10.00">/Framework/Core/test/test</text>
<text text-anchor="middle" x="1365" y="-86" font-family="Helvetica,sans-Serif" font-size="10.00">_DataSamplingPolicy.cxx</text>
</a>
</g>
</g>
<!-- Node9&#45;&gt;Node13 -->
<g id="edge14" class="edge"><title>Node9&#45;&gt;Node13</title>
<path fill="none" stroke="midnightblue" d="M1238.58,-169.212C1263.2,-156.902 1291.42,-142.789 1314.95,-131.026"/>
<polygon fill="midnightblue" stroke="midnightblue" points="1236.71,-166.23 1229.33,-173.833 1239.84,-172.491 1236.71,-166.23"/>
</g>
<!-- Node11 -->
<g id="node11" class="node"><title>Node11</title>
<g id="a_node11"><a xlink:href="../../d0/dd6/DataSampling_8cxx.html" target="_top" xlink:title="Implementation of O2 Data Sampling, v1.0. ">
<polygon fill="none" stroke="black" points="972,-0.5 972,-41.5 1164,-41.5 1164,-0.5 972,-0.5"/>
<text text-anchor="start" x="980" y="-29.5" font-family="Helvetica,sans-Serif" font-size="10.00">/home/travis/build</text>
<text text-anchor="start" x="980" y="-18.5" font-family="Helvetica,sans-Serif" font-size="10.00">/AliceO2Group/AliceO2</text>
<text text-anchor="middle" x="1068" y="-7.5" font-family="Helvetica,sans-Serif" font-size="10.00">/Framework/Core/src/DataSampling.cxx</text>
</a>
</g>
</g>
<!-- Node10&#45;&gt;Node11 -->
<g id="edge10" class="edge"><title>Node10&#45;&gt;Node11</title>
<path fill="none" stroke="midnightblue" d="M1136.92,-72.9127C1122.74,-62.4376 1107.32,-51.0442 1094.66,-41.6965"/>
<polygon fill="midnightblue" stroke="midnightblue" points="1134.97,-75.825 1145.09,-78.9517 1139.13,-70.1947 1134.97,-75.825"/>
</g>
<!-- Node10&#45;&gt;Node12 -->
<g id="edge11" class="edge"><title>Node10&#45;&gt;Node12</title>
<path fill="none" stroke="midnightblue" d="M1214.87,-72.0295C1226.35,-61.8003 1238.71,-50.7821 1248.9,-41.6965"/>
<polygon fill="midnightblue" stroke="midnightblue" points="1212.24,-69.6852 1207.1,-78.9517 1216.9,-74.9108 1212.24,-69.6852"/>
</g>
</g>
</svg>
