<?xml version="1.0" encoding="UTF-8" standalone="no"?>
<!DOCTYPE svg PUBLIC "-//W3C//DTD SVG 1.1//EN"
 "http://www.w3.org/Graphics/SVG/1.1/DTD/svg11.dtd">
<!-- Generated by graphviz version 2.36.0 (20140111.2315)
 -->
<!-- Title: /home/travis/build/AliceO2Group/AliceO2/DataFormats/simulation/include/SimulationDataFormat/PrimaryChunk.h Pages: 1 -->
<svg width="200pt" height="196pt"
 viewBox="0.00 0.00 200.00 196.00" xmlns="http://www.w3.org/2000/svg" xmlns:xlink="http://www.w3.org/1999/xlink">
<g id="graph0" class="graph" transform="scale(1 1) rotate(0) translate(4 192)">
<title>/home/travis/build/AliceO2Group/AliceO2/DataFormats/simulation/include/SimulationDataFormat/PrimaryChunk.h</title>
<!-- Node1 -->
<g id="node1" class="node"><title>Node1</title>
<polygon fill="#bfbfbf" stroke="black" points="-0.5,-124.5 -0.5,-187.5 150.5,-187.5 150.5,-124.5 -0.5,-124.5"/>
<text text-anchor="start" x="7.5" y="-175.5" font-family="Helvetica,sans-Serif" font-size="10.00">/home/travis/build</text>
<text text-anchor="start" x="7.5" y="-164.5" font-family="Helvetica,sans-Serif" font-size="10.00">/AliceO2Group/AliceO2</text>
<text text-anchor="start" x="7.5" y="-153.5" font-family="Helvetica,sans-Serif" font-size="10.00">/DataFormats/simulation</text>
<text text-anchor="start" x="7.5" y="-142.5" font-family="Helvetica,sans-Serif" font-size="10.00">/include/SimulationDataFormat</text>
<text text-anchor="middle" x="75" y="-131.5" font-family="Helvetica,sans-Serif" font-size="10.00">/PrimaryChunk.h</text>
</g>
<!-- Node2 -->
<g id="node2" class="node"><title>Node2</title>
<polygon fill="none" stroke="#bfbfbf" points="3,-62.5 3,-81.5 49,-81.5 49,-62.5 3,-62.5"/>
<text text-anchor="middle" x="26" y="-69.5" font-family="Helvetica,sans-Serif" font-size="10.00">cstring</text>
</g>
<!-- Node1&#45;&gt;Node2 -->
<g id="edge1" class="edge"><title>Node1&#45;&gt;Node2</title>
<path fill="none" stroke="midnightblue" d="M56.7542,-124.466C49.8974,-112.991 42.3401,-100.345 36.4329,-90.4591"/>
<polygon fill="midnightblue" stroke="midnightblue" points="39.2968,-88.4286 31.1628,-81.6398 33.2879,-92.0193 39.2968,-88.4286"/>
</g>
<!-- Node3 -->
<g id="node3" class="node"><title>Node3</title>
<g id="a_node3"><a xlink:href="../../d2/d1f/MCEventHeader_8h.html" target="_top" xlink:title="SimulationDataFormat\l/MCEventHeader.h">
<polygon fill="none" stroke="black" points="67,-57 67,-87 181,-87 181,-57 67,-57"/>
<text text-anchor="start" x="75" y="-75" font-family="Helvetica,sans-Serif" font-size="10.00">SimulationDataFormat</text>
<text text-anchor="middle" x="124" y="-64" font-family="Helvetica,sans-Serif" font-size="10.00">/MCEventHeader.h</text>
</a>
</g>
</g>
<!-- Node1&#45;&gt;Node3 -->
<g id="edge2" class="edge"><title>Node1&#45;&gt;Node3</title>
<path fill="none" stroke="midnightblue" d="M93.2458,-124.466C98.9003,-115.004 105.031,-104.744 110.32,-95.8928"/>
<polygon fill="midnightblue" stroke="midnightblue" points="113.347,-97.6511 115.472,-87.2716 107.338,-94.0604 113.347,-97.6511"/>
</g>
<!-- Node4 -->
<g id="node4" class="node"><title>Node4</title>
<polygon fill="none" stroke="#bfbfbf" points="19,-0.5 19,-19.5 133,-19.5 133,-0.5 19,-0.5"/>
<text text-anchor="middle" x="76" y="-7.5" font-family="Helvetica,sans-Serif" font-size="10.00">FairMCEventHeader.h</text>
</g>
<!-- Node3&#45;&gt;Node4 -->
<g id="edge3" class="edge"><title>Node3&#45;&gt;Node4</title>
<path fill="none" stroke="midnightblue" d="M112.625,-56.7808C105.65,-48.0621 96.686,-36.8574 89.3722,-27.7153"/>
<polygon fill="midnightblue" stroke="midnightblue" points="91.9645,-25.3528 82.9844,-19.7305 86.4984,-29.7257 91.9645,-25.3528"/>
</g>
<!-- Node5 -->
<g id="node5" class="node"><title>Node5</title>
<polygon fill="none" stroke="#bfbfbf" points="151.5,-0.5 151.5,-19.5 192.5,-19.5 192.5,-0.5 151.5,-0.5"/>
<text text-anchor="middle" x="172" y="-7.5" font-family="Helvetica,sans-Serif" font-size="10.00">string</text>
</g>
<!-- Node3&#45;&gt;Node5 -->
<g id="edge4" class="edge"><title>Node3&#45;&gt;Node5</title>
<path fill="none" stroke="midnightblue" d="M135.375,-56.7808C142.35,-48.0621 151.314,-36.8574 158.628,-27.7153"/>
<polygon fill="midnightblue" stroke="midnightblue" points="161.502,-29.7257 165.016,-19.7305 156.036,-25.3528 161.502,-29.7257"/>
</g>
</g>
</svg>
