<?xml version="1.0" encoding="UTF-8" standalone="no"?>
<!DOCTYPE svg PUBLIC "-//W3C//DTD SVG 1.1//EN"
 "http://www.w3.org/Graphics/SVG/1.1/DTD/svg11.dtd">
<!-- Generated by graphviz version 2.36.0 (20140111.2315)
 -->
<!-- Title: o2::passive::Absorber Pages: 1 -->
<svg width="124pt" height="216pt"
 viewBox="0.00 0.00 124.00 216.00" xmlns="http://www.w3.org/2000/svg" xmlns:xlink="http://www.w3.org/1999/xlink">
<g id="graph0" class="graph" transform="scale(1 1) rotate(0) translate(4 212)">
<title>o2::passive::Absorber</title>
<!-- Node1 -->
<g id="node1" class="node"><title>Node1</title>
<polygon fill="#bfbfbf" stroke="black" points="-0.5,-1 -0.5,-113 116.5,-113 116.5,-1 -0.5,-1"/>
<text text-anchor="middle" x="58" y="-101" font-family="Helvetica,sans-Serif" font-size="10.00">o2::passive::Absorber</text>
<polyline fill="none" stroke="black" points="-0.5,-94 116.5,-94 "/>
<text text-anchor="middle" x="58" y="-82" font-family="Helvetica,sans-Serif" font-size="10.00"> </text>
<polyline fill="none" stroke="black" points="-0.5,-75 116.5,-75 "/>
<text text-anchor="start" x="7.5" y="-63" font-family="Helvetica,sans-Serif" font-size="10.00">+ Absorber()</text>
<text text-anchor="start" x="7.5" y="-52" font-family="Helvetica,sans-Serif" font-size="10.00">+ Absorber()</text>
<text text-anchor="start" x="7.5" y="-41" font-family="Helvetica,sans-Serif" font-size="10.00">+ ~Absorber()</text>
<text text-anchor="start" x="7.5" y="-30" font-family="Helvetica,sans-Serif" font-size="10.00">+ ConstructGeometry()</text>
<text text-anchor="start" x="7.5" y="-19" font-family="Helvetica,sans-Serif" font-size="10.00">+ createMaterials()</text>
<text text-anchor="start" x="7.5" y="-8" font-family="Helvetica,sans-Serif" font-size="10.00">+ CloneModule()</text>
</g>
<!-- Node2 -->
<g id="node2" class="node"><title>Node2</title>
<g id="a_node2"><a xlink:href="../../d4/d06/classFairModule.html" target="_top" xlink:title="{FairModule\n||}">
<polygon fill="none" stroke="black" points="25.5,-150.5 25.5,-207.5 90.5,-207.5 90.5,-150.5 25.5,-150.5"/>
<text text-anchor="middle" x="58" y="-195.5" font-family="Helvetica,sans-Serif" font-size="10.00">FairModule</text>
<polyline fill="none" stroke="black" points="25.5,-188.5 90.5,-188.5 "/>
<text text-anchor="middle" x="58" y="-176.5" font-family="Helvetica,sans-Serif" font-size="10.00"> </text>
<polyline fill="none" stroke="black" points="25.5,-169.5 90.5,-169.5 "/>
<text text-anchor="middle" x="58" y="-157.5" font-family="Helvetica,sans-Serif" font-size="10.00"> </text>
</a>
</g>
</g>
<!-- Node2&#45;&gt;Node1 -->
<g id="edge1" class="edge"><title>Node2&#45;&gt;Node1</title>
<path fill="none" stroke="midnightblue" d="M58,-140.398C58,-131.802 58,-122.49 58,-113.324"/>
<polygon fill="none" stroke="midnightblue" points="54.5001,-140.47 58,-150.47 61.5001,-140.47 54.5001,-140.47"/>
</g>
</g>
</svg>
