<?xml version="1.0" encoding="UTF-8" standalone="no"?>
<!DOCTYPE svg PUBLIC "-//W3C//DTD SVG 1.1//EN"
 "http://www.w3.org/Graphics/SVG/1.1/DTD/svg11.dtd">
<!-- Generated by graphviz version 2.36.0 (20140111.2315)
 -->
<!-- Title: /home/travis/build/AliceO2Group/AliceO2/Examples/flp2epn/src/O2EPNex.cxx Pages: 1 -->
<svg width="336pt" height="174pt"
 viewBox="0.00 0.00 336.00 174.00" xmlns="http://www.w3.org/2000/svg" xmlns:xlink="http://www.w3.org/1999/xlink">
<g id="graph0" class="graph" transform="scale(1 1) rotate(0) translate(4 170)">
<title>/home/travis/build/AliceO2Group/AliceO2/Examples/flp2epn/src/O2EPNex.cxx</title>
<!-- Node1 -->
<g id="node1" class="node"><title>Node1</title>
<polygon fill="#bfbfbf" stroke="black" points="97,-113 97,-165 215,-165 215,-113 97,-113"/>
<text text-anchor="start" x="105" y="-153" font-family="Helvetica,sans-Serif" font-size="10.00">/home/travis/build</text>
<text text-anchor="start" x="105" y="-142" font-family="Helvetica,sans-Serif" font-size="10.00">/AliceO2Group/AliceO2</text>
<text text-anchor="start" x="105" y="-131" font-family="Helvetica,sans-Serif" font-size="10.00">/Examples/flp2epn/src</text>
<text text-anchor="middle" x="156" y="-120" font-family="Helvetica,sans-Serif" font-size="10.00">/O2EPNex.cxx</text>
</g>
<!-- Node2 -->
<g id="node2" class="node"><title>Node2</title>
<polygon fill="none" stroke="#bfbfbf" points="0,-56.5 0,-75.5 86,-75.5 86,-56.5 0,-56.5"/>
<text text-anchor="middle" x="43" y="-63.5" font-family="Helvetica,sans-Serif" font-size="10.00">FairMQLogger.h</text>
</g>
<!-- Node1&#45;&gt;Node2 -->
<g id="edge1" class="edge"><title>Node1&#45;&gt;Node2</title>
<path fill="none" stroke="midnightblue" d="M116.16,-112.968C99.168,-102.291 79.9675,-90.2274 65.5012,-81.1379"/>
<polygon fill="midnightblue" stroke="midnightblue" points="67.0786,-77.9955 56.7492,-75.6389 63.3545,-83.9227 67.0786,-77.9955"/>
</g>
<!-- Node3 -->
<g id="node3" class="node"><title>Node3</title>
<g id="a_node3"><a xlink:href="../../dd/ddd/O2EPNex_8h.html" target="_top" xlink:title="flp2epn/O2EPNex.h">
<polygon fill="none" stroke="black" points="104,-56.5 104,-75.5 208,-75.5 208,-56.5 104,-56.5"/>
<text text-anchor="middle" x="156" y="-63.5" font-family="Helvetica,sans-Serif" font-size="10.00">flp2epn/O2EPNex.h</text>
</a>
</g>
</g>
<!-- Node1&#45;&gt;Node3 -->
<g id="edge2" class="edge"><title>Node1&#45;&gt;Node3</title>
<path fill="none" stroke="midnightblue" d="M156,-112.768C156,-103.89 156,-94.0737 156,-85.8165"/>
<polygon fill="midnightblue" stroke="midnightblue" points="159.5,-85.7571 156,-75.7572 152.5,-85.7572 159.5,-85.7571"/>
</g>
<!-- Node5 -->
<g id="node5" class="node"><title>Node5</title>
<g id="a_node5"><a xlink:href="../../d7/d78/O2FLPExContent_8h.html" target="_top" xlink:title="O2FLPExContent.h">
<polygon fill="none" stroke="black" points="226,-56.5 226,-75.5 328,-75.5 328,-56.5 226,-56.5"/>
<text text-anchor="middle" x="277" y="-63.5" font-family="Helvetica,sans-Serif" font-size="10.00">O2FLPExContent.h</text>
</a>
</g>
</g>
<!-- Node1&#45;&gt;Node5 -->
<g id="edge4" class="edge"><title>Node1&#45;&gt;Node5</title>
<path fill="none" stroke="midnightblue" d="M198.66,-112.968C217.029,-102.19 237.807,-89.9975 253.347,-80.879"/>
<polygon fill="midnightblue" stroke="midnightblue" points="255.424,-83.7185 262.277,-75.6389 251.881,-77.6811 255.424,-83.7185"/>
</g>
<!-- Node4 -->
<g id="node4" class="node"><title>Node4</title>
<polygon fill="none" stroke="#bfbfbf" points="112,-0.5 112,-19.5 200,-19.5 200,-0.5 112,-0.5"/>
<text text-anchor="middle" x="156" y="-7.5" font-family="Helvetica,sans-Serif" font-size="10.00">FairMQDevice.h</text>
</g>
<!-- Node3&#45;&gt;Node4 -->
<g id="edge3" class="edge"><title>Node3&#45;&gt;Node4</title>
<path fill="none" stroke="midnightblue" d="M156,-56.083C156,-49.0059 156,-38.8611 156,-29.9865"/>
<polygon fill="midnightblue" stroke="midnightblue" points="159.5,-29.751 156,-19.7511 152.5,-29.7511 159.5,-29.751"/>
</g>
</g>
</svg>
