<?xml version="1.0" encoding="UTF-8" standalone="no"?>
<!DOCTYPE svg PUBLIC "-//W3C//DTD SVG 1.1//EN"
 "http://www.w3.org/Graphics/SVG/1.1/DTD/svg11.dtd">
<!-- Generated by graphviz version 2.36.0 (20140111.2315)
 -->
<!-- Title: /home/travis/build/AliceO2Group/AliceO2/Detectors/HMPID/base/include/HMPIDBase/Param.h Pages: 1 -->
<svg width="389pt" height="118pt"
 viewBox="0.00 0.00 389.00 118.00" xmlns="http://www.w3.org/2000/svg" xmlns:xlink="http://www.w3.org/1999/xlink">
<g id="graph0" class="graph" transform="scale(1 1) rotate(0) translate(4 114)">
<title>/home/travis/build/AliceO2Group/AliceO2/Detectors/HMPID/base/include/HMPIDBase/Param.h</title>
<!-- Node1 -->
<g id="node1" class="node"><title>Node1</title>
<polygon fill="#bfbfbf" stroke="black" points="88.5,-57 88.5,-109 237.5,-109 237.5,-57 88.5,-57"/>
<text text-anchor="start" x="96.5" y="-97" font-family="Helvetica,sans-Serif" font-size="10.00">/home/travis/build</text>
<text text-anchor="start" x="96.5" y="-86" font-family="Helvetica,sans-Serif" font-size="10.00">/AliceO2Group/AliceO2</text>
<text text-anchor="start" x="96.5" y="-75" font-family="Helvetica,sans-Serif" font-size="10.00">/Detectors/HMPID/base</text>
<text text-anchor="middle" x="163" y="-64" font-family="Helvetica,sans-Serif" font-size="10.00">/include/HMPIDBase/Param.h</text>
</g>
<!-- Node2 -->
<g id="node2" class="node"><title>Node2</title>
<polygon fill="none" stroke="#bfbfbf" points="-0.5,-0.5 -0.5,-19.5 42.5,-19.5 42.5,-0.5 -0.5,-0.5"/>
<text text-anchor="middle" x="21" y="-7.5" font-family="Helvetica,sans-Serif" font-size="10.00">cstdio</text>
</g>
<!-- Node1&#45;&gt;Node2 -->
<g id="edge1" class="edge"><title>Node1&#45;&gt;Node2</title>
<path fill="none" stroke="midnightblue" d="M112.936,-56.9681C90.7693,-45.8847 65.6124,-33.3062 47.2247,-24.1123"/>
<polygon fill="midnightblue" stroke="midnightblue" points="48.7873,-20.9806 38.2778,-19.6389 45.6568,-27.2416 48.7873,-20.9806"/>
</g>
<!-- Node3 -->
<g id="node3" class="node"><title>Node3</title>
<polygon fill="none" stroke="#bfbfbf" points="60.5,-0.5 60.5,-19.5 113.5,-19.5 113.5,-0.5 60.5,-0.5"/>
<text text-anchor="middle" x="87" y="-7.5" font-family="Helvetica,sans-Serif" font-size="10.00">TMath.h</text>
</g>
<!-- Node1&#45;&gt;Node3 -->
<g id="edge2" class="edge"><title>Node1&#45;&gt;Node3</title>
<path fill="none" stroke="midnightblue" d="M135.991,-56.7681C125.3,-46.7799 113.338,-35.6051 103.91,-26.798"/>
<polygon fill="midnightblue" stroke="midnightblue" points="106.071,-24.0262 96.3739,-19.7572 101.292,-29.1414 106.071,-24.0262"/>
</g>
<!-- Node4 -->
<g id="node4" class="node"><title>Node4</title>
<polygon fill="none" stroke="#bfbfbf" points="132,-0.5 132,-19.5 194,-19.5 194,-0.5 132,-0.5"/>
<text text-anchor="middle" x="163" y="-7.5" font-family="Helvetica,sans-Serif" font-size="10.00">TNamed.h</text>
</g>
<!-- Node1&#45;&gt;Node4 -->
<g id="edge3" class="edge"><title>Node1&#45;&gt;Node4</title>
<path fill="none" stroke="midnightblue" d="M163,-56.7681C163,-47.8897 163,-38.0737 163,-29.8165"/>
<polygon fill="midnightblue" stroke="midnightblue" points="166.5,-29.7571 163,-19.7572 159.5,-29.7572 166.5,-29.7571"/>
</g>
<!-- Node5 -->
<g id="node5" class="node"><title>Node5</title>
<polygon fill="none" stroke="#bfbfbf" points="212,-0.5 212,-19.5 298,-19.5 298,-0.5 212,-0.5"/>
<text text-anchor="middle" x="255" y="-7.5" font-family="Helvetica,sans-Serif" font-size="10.00">TGeoManager.h</text>
</g>
<!-- Node1&#45;&gt;Node5 -->
<g id="edge4" class="edge"><title>Node1&#45;&gt;Node5</title>
<path fill="none" stroke="midnightblue" d="M195.436,-56.9681C208.793,-46.6601 223.825,-35.0589 235.447,-26.09"/>
<polygon fill="midnightblue" stroke="midnightblue" points="237.807,-28.69 243.585,-19.8095 233.53,-23.1483 237.807,-28.69"/>
</g>
<!-- Node6 -->
<g id="node6" class="node"><title>Node6</title>
<polygon fill="none" stroke="#bfbfbf" points="316.5,-0.5 316.5,-19.5 381.5,-19.5 381.5,-0.5 316.5,-0.5"/>
<text text-anchor="middle" x="349" y="-7.5" font-family="Helvetica,sans-Serif" font-size="10.00">TVector3.h</text>
</g>
<!-- Node1&#45;&gt;Node6 -->
<g id="edge5" class="edge"><title>Node1&#45;&gt;Node6</title>
<path fill="none" stroke="midnightblue" d="M228.577,-56.9681C258.544,-45.5288 292.684,-32.4969 316.942,-23.2373"/>
<polygon fill="midnightblue" stroke="midnightblue" points="318.274,-26.475 326.369,-19.6389 315.778,-19.9353 318.274,-26.475"/>
</g>
</g>
</svg>
