<?xml version="1.0" encoding="UTF-8" standalone="no"?>
<!DOCTYPE svg PUBLIC "-//W3C//DTD SVG 1.1//EN"
 "http://www.w3.org/Graphics/SVG/1.1/DTD/svg11.dtd">
<!-- Generated by graphviz version 2.36.0 (20140111.2315)
 -->
<!-- Title: AliHLTComponentStatistics Pages: 1 -->
<svg width="184pt" height="282pt"
 viewBox="0.00 0.00 184.00 282.00" xmlns="http://www.w3.org/2000/svg" xmlns:xlink="http://www.w3.org/1999/xlink">
<g id="graph0" class="graph" transform="scale(1 1) rotate(0) translate(4 278)">
<title>AliHLTComponentStatistics</title>
<!-- Node1 -->
<g id="node1" class="node"><title>Node1</title>
<polygon fill="#bfbfbf" stroke="black" points="0,-0.5 0,-57.5 138,-57.5 138,-0.5 0,-0.5"/>
<text text-anchor="middle" x="69" y="-45.5" font-family="Helvetica,sans-Serif" font-size="10.00">AliHLTComponentStatistics</text>
<polyline fill="none" stroke="black" points="0,-38.5 138,-38.5 "/>
<text text-anchor="middle" x="69" y="-26.5" font-family="Helvetica,sans-Serif" font-size="10.00"> </text>
<polyline fill="none" stroke="black" points="0,-19.5 138,-19.5 "/>
<text text-anchor="middle" x="69" y="-7.5" font-family="Helvetica,sans-Serif" font-size="10.00"> </text>
</g>
<!-- Node2 -->
<g id="node2" class="node"><title>Node2</title>
<polygon fill="none" stroke="#bfbfbf" points="41,-216.5 41,-273.5 97,-273.5 97,-216.5 41,-216.5"/>
<text text-anchor="middle" x="69" y="-261.5" font-family="Helvetica,sans-Serif" font-size="10.00">unsigned</text>
<polyline fill="none" stroke="#bfbfbf" points="41,-254.5 97,-254.5 "/>
<text text-anchor="middle" x="69" y="-242.5" font-family="Helvetica,sans-Serif" font-size="10.00"> </text>
<polyline fill="none" stroke="#bfbfbf" points="41,-235.5 97,-235.5 "/>
<text text-anchor="middle" x="69" y="-223.5" font-family="Helvetica,sans-Serif" font-size="10.00"> </text>
</g>
<!-- Node2&#45;&gt;Node1 -->
<g id="edge1" class="edge"><title>Node2&#45;&gt;Node1</title>
<path fill="none" stroke="#404040" d="M69,-216.461C69,-179.245 69,-112.647 69,-69.936"/>
<polygon fill="none" stroke="#404040" points="69.0001,-69.7719 65,-63.772 69,-57.7719 73,-63.7719 69.0001,-69.7719"/>
<text text-anchor="middle" x="122.5" y="-189.5" font-family="Helvetica,sans-Serif" font-size="10.00"> +fId</text>
<text text-anchor="middle" x="122.5" y="-178.5" font-family="Helvetica,sans-Serif" font-size="10.00">+fStructSize</text>
<text text-anchor="middle" x="122.5" y="-167.5" font-family="Helvetica,sans-Serif" font-size="10.00">+fInputBlockCount</text>
<text text-anchor="middle" x="122.5" y="-156.5" font-family="Helvetica,sans-Serif" font-size="10.00">+fTime</text>
<text text-anchor="middle" x="122.5" y="-145.5" font-family="Helvetica,sans-Serif" font-size="10.00">+fTotalOutputSize</text>
<text text-anchor="middle" x="122.5" y="-134.5" font-family="Helvetica,sans-Serif" font-size="10.00">+fCTime</text>
<text text-anchor="middle" x="122.5" y="-123.5" font-family="Helvetica,sans-Serif" font-size="10.00">+fComponentCycleTime</text>
<text text-anchor="middle" x="122.5" y="-112.5" font-family="Helvetica,sans-Serif" font-size="10.00">+fOutputBlockCount</text>
<text text-anchor="middle" x="122.5" y="-101.5" font-family="Helvetica,sans-Serif" font-size="10.00">+fTotalInputSize</text>
<text text-anchor="middle" x="122.5" y="-90.5" font-family="Helvetica,sans-Serif" font-size="10.00">+fLevel</text>
<text text-anchor="middle" x="122.5" y="-79.5" font-family="Helvetica,sans-Serif" font-size="10.00">...</text>
</g>
</g>
</svg>
