<?xml version="1.0" encoding="UTF-8" standalone="no"?>
<!DOCTYPE svg PUBLIC "-//W3C//DTD SVG 1.1//EN"
 "http://www.w3.org/Graphics/SVG/1.1/DTD/svg11.dtd">
<!-- Generated by graphviz version 2.36.0 (20140111.2315)
 -->
<!-- Title: /home/travis/build/AliceO2Group/AliceO2/Framework/DebugGUI/include/DebugGUI/imconfig.h Pages: 1 -->
<!--zoomable 332 -->
<svg id="main" version="1.1" xmlns="http://www.w3.org/2000/svg" xmlns:xlink="http://www.w3.org/1999/xlink" xml:space="preserve" onload="init(evt)">
<style type="text/css"><![CDATA[
.edge:hover path { stroke: red; }
.edge:hover polygon { stroke: red; fill: red; }
]]></style>
<script type="text/javascript"><![CDATA[
var edges = document.getElementsByTagName('g');
if (edges && edges.length) {
  for (var i=0;i<edges.length;i++) {
    if (edges[i].id.substr(0,4)=='edge') {
      edges[i].setAttribute('class','edge');
    }
  }
}
]]></script>
        <defs>
                <circle id="rim" cx="0" cy="0" r="7"/>
                <circle id="rim2" cx="0" cy="0" r="3.5"/>
                <g id="zoomPlus">
                        <use xlink:href="#rim" fill="#404040">
                                <set attributeName="fill" to="#808080" begin="zoomplus.mouseover" end="zoomplus.mouseout"/>
                        </use>
                        <path d="M-4,0h8M0,-4v8" fill="none" stroke="white" stroke-width="1.5" pointer-events="none"/>
                </g>
                <g id="zoomMin">
                        <use xlink:href="#rim" fill="#404040">
                                <set attributeName="fill" to="#808080" begin="zoomminus.mouseover" end="zoomminus.mouseout"/>
                        </use>
                        <path d="M-4,0h8" fill="none" stroke="white" stroke-width="1.5" pointer-events="none"/>
                </g>
                <g id="dirArrow">
                        <path fill="none" stroke="white" stroke-width="1.5" d="M0,-3.0v7 M-2.5,-0.5L0,-3.0L2.5,-0.5"/>
                </g>
               <g id="resetDef">
                       <use xlink:href="#rim2" fill="#404040">
                               <set attributeName="fill" to="#808080" begin="reset.mouseover" end="reset.mouseout"/>
                       </use>
               </g>
        </defs>

<script type="text/javascript">
var viewWidth = 1663;
var viewHeight = 332;
var sectionId = 'dynsection-0';
</script>
<script xlink:href="../../svgpan.js"/>
<svg id="graph" class="graph">
<g id="viewport">
<title>/home/travis/build/AliceO2Group/AliceO2/Framework/DebugGUI/include/DebugGUI/imconfig.h</title>
<!-- Node1 -->
<g id="node1" class="node"><title>Node1</title>
<polygon fill="#bfbfbf" stroke="black" points="792,-271 792,-323 944,-323 944,-271 792,-271"/>
<text text-anchor="start" x="800" y="-311" font-family="Helvetica,sans-Serif" font-size="10.00">/home/travis/build</text>
<text text-anchor="start" x="800" y="-300" font-family="Helvetica,sans-Serif" font-size="10.00">/AliceO2Group/AliceO2</text>
<text text-anchor="start" x="800" y="-289" font-family="Helvetica,sans-Serif" font-size="10.00">/Framework/DebugGUI/include</text>
<text text-anchor="middle" x="868" y="-278" font-family="Helvetica,sans-Serif" font-size="10.00">/DebugGUI/imconfig.h</text>
</g>
<!-- Node2 -->
<g id="node2" class="node"><title>Node2</title>
<g id="a_node2"><a xlink:href="../../d2/d35/include_2DebugGUI_2imgui_8h.html" target="_top" xlink:title="/home/travis/build\l/AliceO2Group/AliceO2\l/Framework/DebugGUI/include\l/DebugGUI/imgui.h">
<polygon fill="none" stroke="black" points="792,-181 792,-233 944,-233 944,-181 792,-181"/>
<text text-anchor="start" x="800" y="-221" font-family="Helvetica,sans-Serif" font-size="10.00">/home/travis/build</text>
<text text-anchor="start" x="800" y="-210" font-family="Helvetica,sans-Serif" font-size="10.00">/AliceO2Group/AliceO2</text>
<text text-anchor="start" x="800" y="-199" font-family="Helvetica,sans-Serif" font-size="10.00">/Framework/DebugGUI/include</text>
<text text-anchor="middle" x="868" y="-188" font-family="Helvetica,sans-Serif" font-size="10.00">/DebugGUI/imgui.h</text>
</a>
</g>
</g>
<!-- Node1&#45;&gt;Node2 -->
<g id="edge1" class="edge"><title>Node1&#45;&gt;Node2</title>
<path fill="none" stroke="midnightblue" d="M868,-260.489C868,-251.309 868,-241.616 868,-233.092"/>
<polygon fill="midnightblue" stroke="midnightblue" points="864.5,-260.547 868,-270.547 871.5,-260.547 864.5,-260.547"/>
</g>
<!-- Node3 -->
<g id="node3" class="node"><title>Node3</title>
<g id="a_node3"><a xlink:href="../../d1/d95/PaletteHelpers_8h.html" target="_top" xlink:title="/home/travis/build\l/AliceO2Group/AliceO2\l/Framework/Core/include\l/Framework/PaletteHelpers.h">
<polygon fill="none" stroke="black" points="208,-91 208,-143 352,-143 352,-91 208,-91"/>
<text text-anchor="start" x="216" y="-131" font-family="Helvetica,sans-Serif" font-size="10.00">/home/travis/build</text>
<text text-anchor="start" x="216" y="-120" font-family="Helvetica,sans-Serif" font-size="10.00">/AliceO2Group/AliceO2</text>
<text text-anchor="start" x="216" y="-109" font-family="Helvetica,sans-Serif" font-size="10.00">/Framework/Core/include</text>
<text text-anchor="middle" x="280" y="-98" font-family="Helvetica,sans-Serif" font-size="10.00">/Framework/PaletteHelpers.h</text>
</a>
</g>
</g>
<!-- Node2&#45;&gt;Node3 -->
<g id="edge2" class="edge"><title>Node2&#45;&gt;Node3</title>
<path fill="none" stroke="midnightblue" d="M781.446,-200.415C679.843,-192.711 506.703,-175.992 361,-144 358.115,-143.367 355.186,-142.673 352.238,-141.934"/>
<polygon fill="midnightblue" stroke="midnightblue" points="781.424,-203.923 791.657,-201.177 781.945,-196.942 781.424,-203.923"/>
</g>
<!-- Node4 -->
<g id="node4" class="node"><title>Node4</title>
<g id="a_node4"><a xlink:href="../../d3/d29/FrameworkGUIDebugger_8cxx.html" target="_top" xlink:title="/home/travis/build\l/AliceO2Group/AliceO2\l/Framework/Core/src/Framework\lGUIDebugger.cxx">
<polygon fill="none" stroke="black" points="51.5,-1 51.5,-53 212.5,-53 212.5,-1 51.5,-1"/>
<text text-anchor="start" x="59.5" y="-41" font-family="Helvetica,sans-Serif" font-size="10.00">/home/travis/build</text>
<text text-anchor="start" x="59.5" y="-30" font-family="Helvetica,sans-Serif" font-size="10.00">/AliceO2Group/AliceO2</text>
<text text-anchor="start" x="59.5" y="-19" font-family="Helvetica,sans-Serif" font-size="10.00">/Framework/Core/src/Framework</text>
<text text-anchor="middle" x="132" y="-8" font-family="Helvetica,sans-Serif" font-size="10.00">GUIDebugger.cxx</text>
</a>
</g>
</g>
<!-- Node2&#45;&gt;Node4 -->
<g id="edge7" class="edge"><title>Node2&#45;&gt;Node4</title>
<path fill="none" stroke="midnightblue" d="M781.627,-202.401C611.87,-194.694 247.007,-174.752 199,-144 182.06,-133.149 157.418,-83.9889 143.22,-53.2523"/>
<polygon fill="midnightblue" stroke="midnightblue" points="781.635,-205.905 791.782,-202.859 781.949,-198.912 781.635,-205.905"/>
</g>
<!-- Node5 -->
<g id="node5" class="node"><title>Node5</title>
<g id="a_node5"><a xlink:href="../../d7/d5a/FrameworkGUIDevicesGraph_8cxx.html" target="_top" xlink:title="/home/travis/build\l/AliceO2Group/AliceO2\l/Framework/Core/src/Framework\lGUIDevicesGraph.cxx">
<polygon fill="none" stroke="black" points="872.5,-1 872.5,-53 1033.5,-53 1033.5,-1 872.5,-1"/>
<text text-anchor="start" x="880.5" y="-41" font-family="Helvetica,sans-Serif" font-size="10.00">/home/travis/build</text>
<text text-anchor="start" x="880.5" y="-30" font-family="Helvetica,sans-Serif" font-size="10.00">/AliceO2Group/AliceO2</text>
<text text-anchor="start" x="880.5" y="-19" font-family="Helvetica,sans-Serif" font-size="10.00">/Framework/Core/src/Framework</text>
<text text-anchor="middle" x="953" y="-8" font-family="Helvetica,sans-Serif" font-size="10.00">GUIDevicesGraph.cxx</text>
</a>
</g>
</g>
<!-- Node2&#45;&gt;Node5 -->
<g id="edge9" class="edge"><title>Node2&#45;&gt;Node5</title>
<path fill="none" stroke="midnightblue" d="M954.683,-206.883C1071.25,-206.005 1269.24,-196.549 1315,-144 1396.43,-50.4983 1163.37,-31.7595 1033.56,-28.4077"/>
<polygon fill="midnightblue" stroke="midnightblue" points="954.338,-203.385 944.358,-206.94 954.377,-210.385 954.338,-203.385"/>
</g>
<!-- Node7 -->
<g id="node7" class="node"><title>Node7</title>
<g id="a_node7"><a xlink:href="../../d8/d1c/FrameworkGUIDataRelayerUsage_8cxx.html" target="_top" xlink:title="/home/travis/build\l/AliceO2Group/AliceO2\l/Framework/Core/src/Framework\lGUIDataRelayerUsage.cxx">
<polygon fill="none" stroke="black" points="370.5,-91 370.5,-143 531.5,-143 531.5,-91 370.5,-91"/>
<text text-anchor="start" x="378.5" y="-131" font-family="Helvetica,sans-Serif" font-size="10.00">/home/travis/build</text>
<text text-anchor="start" x="378.5" y="-120" font-family="Helvetica,sans-Serif" font-size="10.00">/AliceO2Group/AliceO2</text>
<text text-anchor="start" x="378.5" y="-109" font-family="Helvetica,sans-Serif" font-size="10.00">/Framework/Core/src/Framework</text>
<text text-anchor="middle" x="451" y="-98" font-family="Helvetica,sans-Serif" font-size="10.00">GUIDataRelayerUsage.cxx</text>
</a>
</g>
</g>
<!-- Node2&#45;&gt;Node7 -->
<g id="edge6" class="edge"><title>Node2&#45;&gt;Node7</title>
<path fill="none" stroke="midnightblue" d="M781.985,-192.1C715.538,-180.795 621.474,-163.552 540,-144 537.339,-143.361 534.639,-142.693 531.917,-142.002"/>
<polygon fill="midnightblue" stroke="midnightblue" points="781.551,-195.576 791.994,-193.794 782.719,-188.675 781.551,-195.576"/>
</g>
<!-- Node8 -->
<g id="node8" class="node"><title>Node8</title>
<g id="a_node8"><a xlink:href="../../d4/d72/FrameworkGUIDeviceInspector_8cxx.html" target="_top" xlink:title="/home/travis/build\l/AliceO2Group/AliceO2\l/Framework/Core/src/Framework\lGUIDeviceInspector.cxx">
<polygon fill="none" stroke="black" points="549.5,-91 549.5,-143 710.5,-143 710.5,-91 549.5,-91"/>
<text text-anchor="start" x="557.5" y="-131" font-family="Helvetica,sans-Serif" font-size="10.00">/home/travis/build</text>
<text text-anchor="start" x="557.5" y="-120" font-family="Helvetica,sans-Serif" font-size="10.00">/AliceO2Group/AliceO2</text>
<text text-anchor="start" x="557.5" y="-109" font-family="Helvetica,sans-Serif" font-size="10.00">/Framework/Core/src/Framework</text>
<text text-anchor="middle" x="630" y="-98" font-family="Helvetica,sans-Serif" font-size="10.00">GUIDeviceInspector.cxx</text>
</a>
</g>
</g>
<!-- Node2&#45;&gt;Node8 -->
<g id="edge8" class="edge"><title>Node2&#45;&gt;Node8</title>
<path fill="none" stroke="midnightblue" d="M790.575,-177.372C760.719,-166.333 726.87,-153.817 697.973,-143.133"/>
<polygon fill="midnightblue" stroke="midnightblue" points="789.524,-180.715 800.117,-180.901 791.952,-174.15 789.524,-180.715"/>
</g>
<!-- Node9 -->
<g id="node9" class="node"><title>Node9</title>
<g id="a_node9"><a xlink:href="../../db/d30/test__CallbackService_8cxx.html" target="_top" xlink:title="/home/travis/build\l/AliceO2Group/AliceO2\l/Framework/Core/test/test\l_CallbackService.cxx">
<polygon fill="none" stroke="black" points="728.5,-91 728.5,-143 859.5,-143 859.5,-91 728.5,-91"/>
<text text-anchor="start" x="736.5" y="-131" font-family="Helvetica,sans-Serif" font-size="10.00">/home/travis/build</text>
<text text-anchor="start" x="736.5" y="-120" font-family="Helvetica,sans-Serif" font-size="10.00">/AliceO2Group/AliceO2</text>
<text text-anchor="start" x="736.5" y="-109" font-family="Helvetica,sans-Serif" font-size="10.00">/Framework/Core/test/test</text>
<text text-anchor="middle" x="794" y="-98" font-family="Helvetica,sans-Serif" font-size="10.00">_CallbackService.cxx</text>
</a>
</g>
</g>
<!-- Node2&#45;&gt;Node9 -->
<g id="edge10" class="edge"><title>Node2&#45;&gt;Node9</title>
<path fill="none" stroke="midnightblue" d="M840.12,-172.846C831.828,-162.985 822.885,-152.349 815.1,-143.092"/>
<polygon fill="midnightblue" stroke="midnightblue" points="837.481,-175.146 846.596,-180.547 842.839,-170.64 837.481,-175.146"/>
</g>
<!-- Node10 -->
<g id="node10" class="node"><title>Node10</title>
<g id="a_node10"><a xlink:href="../../d5/d47/test__CustomGUIGL_8cxx.html" target="_top" xlink:title="/home/travis/build\l/AliceO2Group/AliceO2\l/Framework/Core/test/test\l_CustomGUIGL.cxx">
<polygon fill="none" stroke="black" points="877.5,-91 877.5,-143 1008.5,-143 1008.5,-91 877.5,-91"/>
<text text-anchor="start" x="885.5" y="-131" font-family="Helvetica,sans-Serif" font-size="10.00">/home/travis/build</text>
<text text-anchor="start" x="885.5" y="-120" font-family="Helvetica,sans-Serif" font-size="10.00">/AliceO2Group/AliceO2</text>
<text text-anchor="start" x="885.5" y="-109" font-family="Helvetica,sans-Serif" font-size="10.00">/Framework/Core/test/test</text>
<text text-anchor="middle" x="943" y="-98" font-family="Helvetica,sans-Serif" font-size="10.00">_CustomGUIGL.cxx</text>
</a>
</g>
</g>
<!-- Node2&#45;&gt;Node10 -->
<g id="edge11" class="edge"><title>Node2&#45;&gt;Node10</title>
<path fill="none" stroke="midnightblue" d="M896.256,-172.846C904.66,-162.985 913.725,-152.349 921.615,-143.092"/>
<polygon fill="midnightblue" stroke="midnightblue" points="893.516,-170.666 889.693,-180.547 898.843,-175.206 893.516,-170.666"/>
</g>
<!-- Node11 -->
<g id="node11" class="node"><title>Node11</title>
<g id="a_node11"><a xlink:href="../../d6/dd1/test__CustomGUISokol_8cxx.html" target="_top" xlink:title="/home/travis/build\l/AliceO2Group/AliceO2\l/Framework/Core/test/test\l_CustomGUISokol.cxx">
<polygon fill="none" stroke="black" points="1026.5,-91 1026.5,-143 1157.5,-143 1157.5,-91 1026.5,-91"/>
<text text-anchor="start" x="1034.5" y="-131" font-family="Helvetica,sans-Serif" font-size="10.00">/home/travis/build</text>
<text text-anchor="start" x="1034.5" y="-120" font-family="Helvetica,sans-Serif" font-size="10.00">/AliceO2Group/AliceO2</text>
<text text-anchor="start" x="1034.5" y="-109" font-family="Helvetica,sans-Serif" font-size="10.00">/Framework/Core/test/test</text>
<text text-anchor="middle" x="1092" y="-98" font-family="Helvetica,sans-Serif" font-size="10.00">_CustomGUISokol.cxx</text>
</a>
</g>
</g>
<!-- Node2&#45;&gt;Node11 -->
<g id="edge12" class="edge"><title>Node2&#45;&gt;Node11</title>
<path fill="none" stroke="midnightblue" d="M941.235,-177.229C969.246,-166.225 1000.95,-153.771 1028.03,-143.133"/>
<polygon fill="midnightblue" stroke="midnightblue" points="939.917,-173.986 931.89,-180.901 942.477,-180.502 939.917,-173.986"/>
</g>
<!-- Node12 -->
<g id="node12" class="node"><title>Node12</title>
<g id="a_node12"><a xlink:href="../../d9/dc5/test__GUITests_8cxx.html" target="_top" xlink:title="/home/travis/build\l/AliceO2Group/AliceO2\l/Framework/Core/test/test\l_GUITests.cxx">
<polygon fill="none" stroke="black" points="1175.5,-91 1175.5,-143 1306.5,-143 1306.5,-91 1175.5,-91"/>
<text text-anchor="start" x="1183.5" y="-131" font-family="Helvetica,sans-Serif" font-size="10.00">/home/travis/build</text>
<text text-anchor="start" x="1183.5" y="-120" font-family="Helvetica,sans-Serif" font-size="10.00">/AliceO2Group/AliceO2</text>
<text text-anchor="start" x="1183.5" y="-109" font-family="Helvetica,sans-Serif" font-size="10.00">/Framework/Core/test/test</text>
<text text-anchor="middle" x="1241" y="-98" font-family="Helvetica,sans-Serif" font-size="10.00">_GUITests.cxx</text>
</a>
</g>
</g>
<!-- Node2&#45;&gt;Node12 -->
<g id="edge13" class="edge"><title>Node2&#45;&gt;Node12</title>
<path fill="none" stroke="midnightblue" d="M954.442,-191.058C1014.31,-179.97 1095.58,-163.446 1166,-144 1169.06,-143.156 1172.17,-142.254 1175.3,-141.311"/>
<polygon fill="midnightblue" stroke="midnightblue" points="953.476,-187.677 944.274,-192.927 954.742,-194.561 953.476,-187.677"/>
</g>
<!-- Node13 -->
<g id="node13" class="node"><title>Node13</title>
<g id="a_node13"><a xlink:href="../../d2/d49/imgui__extras_8h.html" target="_top" xlink:title="/home/travis/build\l/AliceO2Group/AliceO2\l/Framework/DebugGUI/include\l/DebugGUI/imgui_extras.h">
<polygon fill="none" stroke="black" points="0,-91 0,-143 152,-143 152,-91 0,-91"/>
<text text-anchor="start" x="8" y="-131" font-family="Helvetica,sans-Serif" font-size="10.00">/home/travis/build</text>
<text text-anchor="start" x="8" y="-120" font-family="Helvetica,sans-Serif" font-size="10.00">/AliceO2Group/AliceO2</text>
<text text-anchor="start" x="8" y="-109" font-family="Helvetica,sans-Serif" font-size="10.00">/Framework/DebugGUI/include</text>
<text text-anchor="middle" x="76" y="-98" font-family="Helvetica,sans-Serif" font-size="10.00">/DebugGUI/imgui_extras.h</text>
</a>
</g>
</g>
<!-- Node2&#45;&gt;Node13 -->
<g id="edge14" class="edge"><title>Node2&#45;&gt;Node13</title>
<path fill="none" stroke="midnightblue" d="M781.63,-203.731C648.437,-199.032 385.34,-184.97 166,-144 161.524,-143.164 156.95,-142.2 152.353,-141.145"/>
<polygon fill="midnightblue" stroke="midnightblue" points="781.658,-207.234 791.772,-204.08 781.898,-200.238 781.658,-207.234"/>
</g>
<!-- Node14 -->
<g id="node14" class="node"><title>Node14</title>
<g id="a_node14"><a xlink:href="../../d2/d69/test__ImGUI_8cpp.html" target="_top" xlink:title="/home/travis/build\l/AliceO2Group/AliceO2\l/Framework/DebugGUI/test\l/test_ImGUI.cpp">
<polygon fill="none" stroke="black" points="1363.5,-91 1363.5,-143 1500.5,-143 1500.5,-91 1363.5,-91"/>
<text text-anchor="start" x="1371.5" y="-131" font-family="Helvetica,sans-Serif" font-size="10.00">/home/travis/build</text>
<text text-anchor="start" x="1371.5" y="-120" font-family="Helvetica,sans-Serif" font-size="10.00">/AliceO2Group/AliceO2</text>
<text text-anchor="start" x="1371.5" y="-109" font-family="Helvetica,sans-Serif" font-size="10.00">/Framework/DebugGUI/test</text>
<text text-anchor="middle" x="1432" y="-98" font-family="Helvetica,sans-Serif" font-size="10.00">/test_ImGUI.cpp</text>
</a>
</g>
</g>
<!-- Node2&#45;&gt;Node14 -->
<g id="edge16" class="edge"><title>Node2&#45;&gt;Node14</title>
<path fill="none" stroke="midnightblue" d="M954.138,-199.482C1050.99,-191.096 1212.57,-173.918 1349,-144 1353.72,-142.965 1358.56,-141.782 1363.41,-140.505"/>
<polygon fill="midnightblue" stroke="midnightblue" points="953.768,-196.001 944.102,-200.34 954.364,-202.975 953.768,-196.001"/>
</g>
<!-- Node15 -->
<g id="node15" class="node"><title>Node15</title>
<g id="a_node15"><a xlink:href="../../d7/df9/test__ImGUIHeadless_8cpp.html" target="_top" xlink:title="/home/travis/build\l/AliceO2Group/AliceO2\l/Framework/DebugGUI/test\l/test_ImGUIHeadless.cpp">
<polygon fill="none" stroke="black" points="1518.5,-91 1518.5,-143 1655.5,-143 1655.5,-91 1518.5,-91"/>
<text text-anchor="start" x="1526.5" y="-131" font-family="Helvetica,sans-Serif" font-size="10.00">/home/travis/build</text>
<text text-anchor="start" x="1526.5" y="-120" font-family="Helvetica,sans-Serif" font-size="10.00">/AliceO2Group/AliceO2</text>
<text text-anchor="start" x="1526.5" y="-109" font-family="Helvetica,sans-Serif" font-size="10.00">/Framework/DebugGUI/test</text>
<text text-anchor="middle" x="1587" y="-98" font-family="Helvetica,sans-Serif" font-size="10.00">/test_ImGUIHeadless.cpp</text>
</a>
</g>
</g>
<!-- Node2&#45;&gt;Node15 -->
<g id="edge17" class="edge"><title>Node2&#45;&gt;Node15</title>
<path fill="none" stroke="midnightblue" d="M954.524,-203.8C1078.56,-199.259 1313.53,-185.477 1509,-144 1512.07,-143.348 1515.19,-142.616 1518.33,-141.823"/>
<polygon fill="midnightblue" stroke="midnightblue" points="954.199,-200.31 944.329,-204.162 954.447,-207.305 954.199,-200.31"/>
</g>
<!-- Node3&#45;&gt;Node4 -->
<g id="edge3" class="edge"><title>Node3&#45;&gt;Node4</title>
<path fill="none" stroke="midnightblue" d="M228.991,-85.6704C211.109,-75.0376 191.237,-63.2222 174.161,-53.0687"/>
<polygon fill="midnightblue" stroke="midnightblue" points="227.205,-88.6803 237.589,-90.7827 230.783,-82.6635 227.205,-88.6803"/>
</g>
<!-- Node3&#45;&gt;Node5 -->
<g id="edge4" class="edge"><title>Node3&#45;&gt;Node5</title>
<path fill="none" stroke="midnightblue" d="M362.217,-89.9189C548.824,-51.526 759.519,-36.793 872.23,-31.1831"/>
<polygon fill="midnightblue" stroke="midnightblue" points="361.3,-86.5349 352.225,-92.0026 362.729,-93.3876 361.3,-86.5349"/>
</g>
<!-- Node6 -->
<g id="node6" class="node"><title>Node6</title>
<g id="a_node6"><a xlink:href="../../d9/da2/PaletteHelpers_8cxx.html" target="_top" xlink:title="/home/travis/build\l/AliceO2Group/AliceO2\l/Framework/Core/src/PaletteHelpers.cxx">
<polygon fill="none" stroke="black" points="230.5,-6.5 230.5,-47.5 425.5,-47.5 425.5,-6.5 230.5,-6.5"/>
<text text-anchor="start" x="238.5" y="-35.5" font-family="Helvetica,sans-Serif" font-size="10.00">/home/travis/build</text>
<text text-anchor="start" x="238.5" y="-24.5" font-family="Helvetica,sans-Serif" font-size="10.00">/AliceO2Group/AliceO2</text>
<text text-anchor="middle" x="328" y="-13.5" font-family="Helvetica,sans-Serif" font-size="10.00">/Framework/Core/src/PaletteHelpers.cxx</text>
</a>
</g>
</g>
<!-- Node3&#45;&gt;Node6 -->
<g id="edge5" class="edge"><title>Node3&#45;&gt;Node6</title>
<path fill="none" stroke="midnightblue" d="M298.793,-81.5463C305.093,-69.9962 311.896,-57.524 317.35,-47.5249"/>
<polygon fill="midnightblue" stroke="midnightblue" points="295.6,-80.0918 293.884,-90.5468 301.745,-83.4438 295.6,-80.0918"/>
</g>
<!-- Node13&#45;&gt;Node4 -->
<g id="edge15" class="edge"><title>Node13&#45;&gt;Node4</title>
<path fill="none" stroke="midnightblue" d="M97.6585,-81.9652C103.774,-72.3545 110.316,-62.0742 116.032,-53.0921"/>
<polygon fill="midnightblue" stroke="midnightblue" points="94.6135,-80.231 92.1975,-90.5468 100.519,-83.9892 94.6135,-80.231"/>
</g>
</g>
</svg>
        <g id="navigator" transform="translate(0 0)" fill="#404254">
                <rect fill="#f2f5e9" fill-opacity="0.5" stroke="#606060" stroke-width=".5" x="0" y="0" width="60" height="60"/>
                <use id="zoomplus" xlink:href="#zoomPlus" x="17" y="9" onmousedown="handleZoom(evt,'in')"/>
                <use id="zoomminus" xlink:href="#zoomMin" x="42" y="9" onmousedown="handleZoom(evt,'out')"/>
                <use id="reset" xlink:href="#resetDef" x="30" y="36" onmousedown="handleReset()"/>
                <g id="arrowUp" xlink:href="#dirArrow" transform="translate(30 24)" onmousedown="handlePan(0,-1)">
                  <use xlink:href="#rim" fill="#404040">
                        <set attributeName="fill" to="#808080" begin="arrowUp.mouseover" end="arrowUp.mouseout"/>
                  </use>
                  <path fill="none" stroke="white" stroke-width="1.5" d="M0,-3.0v7 M-2.5,-0.5L0,-3.0L2.5,-0.5"/>
                </g>
                <g id="arrowRight" xlink:href="#dirArrow" transform="rotate(90) translate(36 -43)" onmousedown="handlePan(1,0)">
                  <use xlink:href="#rim" fill="#404040">
                        <set attributeName="fill" to="#808080" begin="arrowRight.mouseover" end="arrowRight.mouseout"/>
                  </use>
                  <path fill="none" stroke="white" stroke-width="1.5" d="M0,-3.0v7 M-2.5,-0.5L0,-3.0L2.5,-0.5"/>
                </g>
                <g id="arrowDown" xlink:href="#dirArrow" transform="rotate(180) translate(-30 -48)" onmousedown="handlePan(0,1)">
                  <use xlink:href="#rim" fill="#404040">
                        <set attributeName="fill" to="#808080" begin="arrowDown.mouseover" end="arrowDown.mouseout"/>
                  </use>
                  <path fill="none" stroke="white" stroke-width="1.5" d="M0,-3.0v7 M-2.5,-0.5L0,-3.0L2.5,-0.5"/>
                </g>
                <g id="arrowLeft" xlink:href="#dirArrow" transform="rotate(270) translate(-36 17)" onmousedown="handlePan(-1,0)">
                  <use xlink:href="#rim" fill="#404040">
                        <set attributeName="fill" to="#808080" begin="arrowLeft.mouseover" end="arrowLeft.mouseout"/>
                  </use>
                  <path fill="none" stroke="white" stroke-width="1.5" d="M0,-3.0v7 M-2.5,-0.5L0,-3.0L2.5,-0.5"/>
                </g>
        </g>
        <svg viewBox="0 0 15 15" width="100%" height="30px" preserveAspectRatio="xMaxYMin meet">
         <g id="arrow_out" transform="scale(0.3 0.3)">
          <a xlink:href="include_2DebugGUI_2imconfig_8h__dep__incl_org.svg" target="_base">
           <rect id="button" ry="5" rx="5" y="6" x="6" height="38" width="38"
                fill="#f2f5e9" fill-opacity="0.5" stroke="#606060" stroke-width="1.0"/>
           <path id="arrow"
             d="M 11.500037,31.436501 C 11.940474,20.09759 22.043105,11.32322 32.158766,21.979434 L 37.068811,17.246167 C 37.068811,17.246167 37.088388,32 37.088388,32 L 22.160133,31.978069 C 22.160133,31.978069 26.997745,27.140456 26.997745,27.140456 C 18.528582,18.264221 13.291696,25.230495 11.500037,31.436501 z"
             style="fill:#404040;"/>
          </a>
         </g>
        </svg>
</svg>
