<?xml version="1.0" encoding="UTF-8" standalone="no"?>
<!DOCTYPE svg PUBLIC "-//W3C//DTD SVG 1.1//EN"
 "http://www.w3.org/Graphics/SVG/1.1/DTD/svg11.dtd">
<!-- Generated by graphviz version 2.36.0 (20140111.2315)
 -->
<!-- Title: /home/travis/build/AliceO2Group/AliceO2/DataFormats/Parameters/src/GRPObject.cxx Pages: 1 -->
<!--zoomable 310 -->
<svg id="main" version="1.1" xmlns="http://www.w3.org/2000/svg" xmlns:xlink="http://www.w3.org/1999/xlink" xml:space="preserve" onload="init(evt)">
<style type="text/css"><![CDATA[
.edge:hover path { stroke: red; }
.edge:hover polygon { stroke: red; fill: red; }
]]></style>
<script type="text/javascript"><![CDATA[
var edges = document.getElementsByTagName('g');
if (edges && edges.length) {
  for (var i=0;i<edges.length;i++) {
    if (edges[i].id.substr(0,4)=='edge') {
      edges[i].setAttribute('class','edge');
    }
  }
}
]]></script>
        <defs>
                <circle id="rim" cx="0" cy="0" r="7"/>
                <circle id="rim2" cx="0" cy="0" r="3.5"/>
                <g id="zoomPlus">
                        <use xlink:href="#rim" fill="#404040">
                                <set attributeName="fill" to="#808080" begin="zoomplus.mouseover" end="zoomplus.mouseout"/>
                        </use>
                        <path d="M-4,0h8M0,-4v8" fill="none" stroke="white" stroke-width="1.5" pointer-events="none"/>
                </g>
                <g id="zoomMin">
                        <use xlink:href="#rim" fill="#404040">
                                <set attributeName="fill" to="#808080" begin="zoomminus.mouseover" end="zoomminus.mouseout"/>
                        </use>
                        <path d="M-4,0h8" fill="none" stroke="white" stroke-width="1.5" pointer-events="none"/>
                </g>
                <g id="dirArrow">
                        <path fill="none" stroke="white" stroke-width="1.5" d="M0,-3.0v7 M-2.5,-0.5L0,-3.0L2.5,-0.5"/>
                </g>
               <g id="resetDef">
                       <use xlink:href="#rim2" fill="#404040">
                               <set attributeName="fill" to="#808080" begin="reset.mouseover" end="reset.mouseout"/>
                       </use>
               </g>
        </defs>

<script type="text/javascript">
var viewWidth = 875;
var viewHeight = 310;
var sectionId = 'dynsection-0';
</script>
<script xlink:href="../../svgpan.js"/>
<svg id="graph" class="graph">
<g id="viewport">
<title>/home/travis/build/AliceO2Group/AliceO2/DataFormats/Parameters/src/GRPObject.cxx</title>
<!-- Node1 -->
<g id="node1" class="node"><title>Node1</title>
<polygon fill="#bfbfbf" stroke="black" points="342.296,-249 342.296,-301 472.296,-301 472.296,-249 342.296,-249"/>
<text text-anchor="start" x="350.296" y="-289" font-family="Helvetica,sans-Serif" font-size="10.00">/home/travis/build</text>
<text text-anchor="start" x="350.296" y="-278" font-family="Helvetica,sans-Serif" font-size="10.00">/AliceO2Group/AliceO2</text>
<text text-anchor="start" x="350.296" y="-267" font-family="Helvetica,sans-Serif" font-size="10.00">/DataFormats/Parameters</text>
<text text-anchor="middle" x="407.296" y="-256" font-family="Helvetica,sans-Serif" font-size="10.00">/src/GRPObject.cxx</text>
</g>
<!-- Node2 -->
<g id="node2" class="node"><title>Node2</title>
<polygon fill="none" stroke="#bfbfbf" points="190.796,-186.5 190.796,-205.5 261.796,-205.5 261.796,-186.5 190.796,-186.5"/>
<text text-anchor="middle" x="226.296" y="-193.5" font-family="Helvetica,sans-Serif" font-size="10.00">FairLogger.h</text>
</g>
<!-- Node1&#45;&gt;Node2 -->
<g id="edge1" class="edge"><title>Node1&#45;&gt;Node2</title>
<path fill="none" stroke="midnightblue" d="M348.03,-248.787C317.084,-235.622 280.584,-220.095 255.677,-209.499"/>
<polygon fill="midnightblue" stroke="midnightblue" points="256.984,-206.252 246.412,-205.558 254.244,-212.693 256.984,-206.252"/>
</g>
<!-- Node3 -->
<g id="node3" class="node"><title>Node3</title>
<polygon fill="none" stroke="#bfbfbf" points="279.796,-186.5 279.796,-205.5 326.796,-205.5 326.796,-186.5 279.796,-186.5"/>
<text text-anchor="middle" x="303.296" y="-193.5" font-family="Helvetica,sans-Serif" font-size="10.00">TFile.h</text>
</g>
<!-- Node1&#45;&gt;Node3 -->
<g id="edge2" class="edge"><title>Node1&#45;&gt;Node3</title>
<path fill="none" stroke="midnightblue" d="M373.242,-248.787C356.563,-236.438 337.075,-222.01 322.912,-211.523"/>
<polygon fill="midnightblue" stroke="midnightblue" points="324.974,-208.695 314.854,-205.558 320.809,-214.321 324.974,-208.695"/>
</g>
<!-- Node4 -->
<g id="node4" class="node"><title>Node4</title>
<g id="a_node4"><a xlink:href="../../de/d28/GRPObject_8h.html" target="_top" xlink:title="Header of the General Run Parameters object. ">
<polygon fill="none" stroke="black" points="345.296,-181 345.296,-211 469.296,-211 469.296,-181 345.296,-181"/>
<text text-anchor="start" x="353.296" y="-199" font-family="Helvetica,sans-Serif" font-size="10.00">DataFormatsParameters</text>
<text text-anchor="middle" x="407.296" y="-188" font-family="Helvetica,sans-Serif" font-size="10.00">/GRPObject.h</text>
</a>
</g>
</g>
<!-- Node1&#45;&gt;Node4 -->
<g id="edge3" class="edge"><title>Node1&#45;&gt;Node4</title>
<path fill="none" stroke="midnightblue" d="M407.296,-248.787C407.296,-240.029 407.296,-230.225 407.296,-221.523"/>
<polygon fill="midnightblue" stroke="midnightblue" points="410.796,-221.252 407.296,-211.252 403.796,-221.252 410.796,-221.252"/>
</g>
<!-- Node16 -->
<g id="node16" class="node"><title>Node16</title>
<polygon fill="none" stroke="#bfbfbf" points="612.296,-0.5 612.296,-19.5 656.296,-19.5 656.296,-0.5 612.296,-0.5"/>
<text text-anchor="middle" x="634.296" y="-7.5" font-family="Helvetica,sans-Serif" font-size="10.00">cmath</text>
</g>
<!-- Node1&#45;&gt;Node16 -->
<g id="edge20" class="edge"><title>Node1&#45;&gt;Node16</title>
<path fill="none" stroke="midnightblue" d="M455.611,-248.999C496.202,-226.073 553.616,-188.915 592.296,-144 614.345,-118.396 616.535,-108.349 626.296,-76 630.869,-60.8459 632.834,-42.9507 633.675,-29.7776"/>
<polygon fill="midnightblue" stroke="midnightblue" points="637.18,-29.7604 634.162,-19.6043 630.188,-29.4253 637.18,-29.7604"/>
</g>
<!-- Node18 -->
<g id="node18" class="node"><title>Node18</title>
<g id="a_node18"><a xlink:href="../../d3/d9d/PhysicsConstants_8h.html" target="_top" xlink:title="Header to collect physics constants. ">
<polygon fill="none" stroke="black" points="674.796,-186.5 674.796,-205.5 867.796,-205.5 867.796,-186.5 674.796,-186.5"/>
<text text-anchor="middle" x="771.296" y="-193.5" font-family="Helvetica,sans-Serif" font-size="10.00">CommonConstants/PhysicsConstants.h</text>
</a>
</g>
</g>
<!-- Node1&#45;&gt;Node18 -->
<g id="edge21" class="edge"><title>Node1&#45;&gt;Node18</title>
<path fill="none" stroke="midnightblue" d="M472.372,-260.234C543.609,-245.165 656.291,-221.328 721.041,-207.631"/>
<polygon fill="midnightblue" stroke="midnightblue" points="721.949,-211.016 731.008,-205.522 720.5,-204.168 721.949,-211.016"/>
</g>
<!-- Node5 -->
<g id="node5" class="node"><title>Node5</title>
<polygon fill="none" stroke="#bfbfbf" points="562.296,-56.5 562.296,-75.5 618.296,-75.5 618.296,-56.5 562.296,-56.5"/>
<text text-anchor="middle" x="590.296" y="-63.5" font-family="Helvetica,sans-Serif" font-size="10.00">Rtypes.h</text>
</g>
<!-- Node4&#45;&gt;Node5 -->
<g id="edge4" class="edge"><title>Node4&#45;&gt;Node5</title>
<path fill="none" stroke="midnightblue" d="M469.667,-190.334C504.124,-184.529 545.124,-171.779 571.296,-144 586.089,-128.298 589.892,-102.973 590.615,-85.6866"/>
<polygon fill="midnightblue" stroke="midnightblue" points="594.115,-85.709 590.731,-75.6693 587.116,-85.6282 594.115,-85.709"/>
</g>
<!-- Node6 -->
<g id="node6" class="node"><title>Node6</title>
<polygon fill="none" stroke="#bfbfbf" points="54.2959,-56.5 54.2959,-75.5 100.296,-75.5 100.296,-56.5 54.2959,-56.5"/>
<text text-anchor="middle" x="77.2959" y="-63.5" font-family="Helvetica,sans-Serif" font-size="10.00">cstdint</text>
</g>
<!-- Node4&#45;&gt;Node6 -->
<g id="edge5" class="edge"><title>Node4&#45;&gt;Node6</title>
<path fill="none" stroke="midnightblue" d="M344.923,-181.622C341.672,-181.045 338.449,-180.5 335.296,-180 262.655,-168.486 55.392,-198.761 6.29586,-144 -3.19808,-133.411 -0.559375,-124.461 6.29586,-112 14.6051,-96.896 30.363,-86.1496 44.9264,-78.9553"/>
<polygon fill="midnightblue" stroke="midnightblue" points="46.5748,-82.0508 54.2339,-74.7304 43.6814,-75.6768 46.5748,-82.0508"/>
</g>
<!-- Node7 -->
<g id="node7" class="node"><title>Node7</title>
<polygon fill="none" stroke="#bfbfbf" points="15.7959,-118.5 15.7959,-137.5 56.7959,-137.5 56.7959,-118.5 15.7959,-118.5"/>
<text text-anchor="middle" x="36.2959" y="-125.5" font-family="Helvetica,sans-Serif" font-size="10.00">ctime</text>
</g>
<!-- Node4&#45;&gt;Node7 -->
<g id="edge6" class="edge"><title>Node4&#45;&gt;Node7</title>
<path fill="none" stroke="midnightblue" d="M344.908,-181.712C341.661,-181.112 338.442,-180.537 335.296,-180 215.958,-159.641 180.772,-180.348 65.2959,-144 63.4305,-143.413 61.5412,-142.712 59.6684,-141.937"/>
<polygon fill="midnightblue" stroke="midnightblue" points="61.1629,-138.773 50.6274,-137.653 58.1651,-145.098 61.1629,-138.773"/>
</g>
<!-- Node8 -->
<g id="node8" class="node"><title>Node8</title>
<g id="a_node8"><a xlink:href="../../d4/dc6/LHCConstants_8h.html" target="_top" xlink:title="Header to collect LHC related constants. ">
<polygon fill="none" stroke="black" points="74.2959,-118.5 74.2959,-137.5 252.296,-137.5 252.296,-118.5 74.2959,-118.5"/>
<text text-anchor="middle" x="163.296" y="-125.5" font-family="Helvetica,sans-Serif" font-size="10.00">CommonConstants/LHCConstants.h</text>
</a>
</g>
</g>
<!-- Node4&#45;&gt;Node8 -->
<g id="edge7" class="edge"><title>Node4&#45;&gt;Node8</title>
<path fill="none" stroke="midnightblue" d="M355.251,-180.922C310.255,-168.751 246.083,-151.393 204.557,-140.161"/>
<polygon fill="midnightblue" stroke="midnightblue" points="205.338,-136.746 194.771,-137.514 203.51,-143.504 205.338,-136.746"/>
</g>
<!-- Node9 -->
<g id="node9" class="node"><title>Node9</title>
<g id="a_node9"><a xlink:href="../../da/d58/Units_8h.html" target="_top" xlink:title="Header to collect definitions for different units. ">
<polygon fill="none" stroke="black" points="270.296,-118.5 270.296,-137.5 388.296,-137.5 388.296,-118.5 270.296,-118.5"/>
<text text-anchor="middle" x="329.296" y="-125.5" font-family="Helvetica,sans-Serif" font-size="10.00">CommonTypes/Units.h</text>
</a>
</g>
</g>
<!-- Node4&#45;&gt;Node9 -->
<g id="edge8" class="edge"><title>Node4&#45;&gt;Node9</title>
<path fill="none" stroke="midnightblue" d="M390.371,-180.679C377.727,-169.981 360.468,-155.377 347.522,-144.422"/>
<polygon fill="midnightblue" stroke="midnightblue" points="349.624,-141.616 339.729,-137.828 345.102,-146.96 349.624,-141.616"/>
</g>
<!-- Node10 -->
<g id="node10" class="node"><title>Node10</title>
<g id="a_node10"><a xlink:href="../../d6/d31/DetID_8h.html" target="_top" xlink:title="DetectorsCommonDataFormats\l/DetID.h">
<polygon fill="none" stroke="black" points="406.296,-113 406.296,-143 562.296,-143 562.296,-113 406.296,-113"/>
<text text-anchor="start" x="414.296" y="-131" font-family="Helvetica,sans-Serif" font-size="10.00">DetectorsCommonDataFormats</text>
<text text-anchor="middle" x="484.296" y="-120" font-family="Helvetica,sans-Serif" font-size="10.00">/DetID.h</text>
</a>
</g>
</g>
<!-- Node4&#45;&gt;Node10 -->
<g id="edge9" class="edge"><title>Node4&#45;&gt;Node10</title>
<path fill="none" stroke="midnightblue" d="M424.004,-180.679C434.569,-171.623 448.4,-159.768 460.149,-149.697"/>
<polygon fill="midnightblue" stroke="midnightblue" points="462.57,-152.232 467.885,-143.066 458.015,-146.917 462.57,-152.232"/>
</g>
<!-- Node10&#45;&gt;Node5 -->
<g id="edge10" class="edge"><title>Node10&#45;&gt;Node5</title>
<path fill="none" stroke="midnightblue" d="M509.148,-112.933C526.393,-103.171 549.238,-90.2401 566.295,-80.5856"/>
<polygon fill="midnightblue" stroke="midnightblue" points="568.124,-83.572 575.102,-75.6 564.676,-77.4802 568.124,-83.572"/>
</g>
<!-- Node10&#45;&gt;Node6 -->
<g id="edge14" class="edge"><title>Node10&#45;&gt;Node6</title>
<path fill="none" stroke="midnightblue" d="M406.06,-113.393C403.102,-112.916 400.173,-112.45 397.296,-112 292.936,-95.6697 168.989,-79.0189 110.717,-71.3525"/>
<polygon fill="midnightblue" stroke="midnightblue" points="110.991,-67.8585 100.62,-70.0277 110.08,-74.799 110.991,-67.8585"/>
</g>
<!-- Node11 -->
<g id="node11" class="node"><title>Node11</title>
<polygon fill="none" stroke="#bfbfbf" points="347.296,-0.5 347.296,-19.5 385.296,-19.5 385.296,-0.5 347.296,-0.5"/>
<text text-anchor="middle" x="366.296" y="-7.5" font-family="Helvetica,sans-Serif" font-size="10.00">array</text>
</g>
<!-- Node10&#45;&gt;Node11 -->
<g id="edge11" class="edge"><title>Node10&#45;&gt;Node11</title>
<path fill="none" stroke="midnightblue" d="M439.401,-112.921C420.302,-104.871 399.26,-92.9279 385.296,-76 374.434,-62.8323 369.781,-43.6934 367.788,-29.5917"/>
<polygon fill="midnightblue" stroke="midnightblue" points="371.259,-29.1328 366.693,-19.5726 364.301,-29.8938 371.259,-29.1328"/>
</g>
<!-- Node12 -->
<g id="node12" class="node"><title>Node12</title>
<polygon fill="none" stroke="#bfbfbf" points="502.796,-56.5 502.796,-75.5 543.796,-75.5 543.796,-56.5 502.796,-56.5"/>
<text text-anchor="middle" x="523.296" y="-63.5" font-family="Helvetica,sans-Serif" font-size="10.00">bitset</text>
</g>
<!-- Node10&#45;&gt;Node12 -->
<g id="edge12" class="edge"><title>Node10&#45;&gt;Node12</title>
<path fill="none" stroke="midnightblue" d="M493.538,-112.781C499.089,-104.242 506.189,-93.3184 512.062,-84.2834"/>
<polygon fill="midnightblue" stroke="midnightblue" points="515.106,-86.0225 517.621,-75.7305 509.237,-82.2075 515.106,-86.0225"/>
</g>
<!-- Node13 -->
<g id="node13" class="node"><title>Node13</title>
<polygon fill="none" stroke="#bfbfbf" points="208.796,-56.5 208.796,-75.5 257.796,-75.5 257.796,-56.5 208.796,-56.5"/>
<text text-anchor="middle" x="233.296" y="-63.5" font-family="Helvetica,sans-Serif" font-size="10.00">cassert</text>
</g>
<!-- Node10&#45;&gt;Node13 -->
<g id="edge13" class="edge"><title>Node10&#45;&gt;Node13</title>
<path fill="none" stroke="midnightblue" d="M422.451,-112.949C381.353,-103.499 325.944,-90.5478 268.2,-76.1751"/>
<polygon fill="midnightblue" stroke="midnightblue" points="268.708,-72.6943 258.158,-73.6667 267.011,-79.4857 268.708,-72.6943"/>
</g>
<!-- Node14 -->
<g id="node14" class="node"><title>Node14</title>
<polygon fill="none" stroke="#bfbfbf" points="276.296,-56.5 276.296,-75.5 338.296,-75.5 338.296,-56.5 276.296,-56.5"/>
<text text-anchor="middle" x="307.296" y="-63.5" font-family="Helvetica,sans-Serif" font-size="10.00">type_traits</text>
</g>
<!-- Node10&#45;&gt;Node14 -->
<g id="edge15" class="edge"><title>Node10&#45;&gt;Node14</title>
<path fill="none" stroke="midnightblue" d="M442.797,-112.933C412.177,-102.553 370.983,-88.5887 342.081,-78.7916"/>
<polygon fill="midnightblue" stroke="midnightblue" points="343.003,-75.4084 332.408,-75.5127 340.755,-82.0379 343.003,-75.4084"/>
</g>
<!-- Node15 -->
<g id="node15" class="node"><title>Node15</title>
<g id="a_node15"><a xlink:href="../../d9/d52/Common_2MathUtils_2include_2MathUtils_2Utils_8h.html" target="_top" xlink:title="MathUtils/Utils.h">
<polygon fill="none" stroke="black" points="394.296,-56.5 394.296,-75.5 484.296,-75.5 484.296,-56.5 394.296,-56.5"/>
<text text-anchor="middle" x="439.296" y="-63.5" font-family="Helvetica,sans-Serif" font-size="10.00">MathUtils/Utils.h</text>
</a>
</g>
</g>
<!-- Node10&#45;&gt;Node15 -->
<g id="edge16" class="edge"><title>Node10&#45;&gt;Node15</title>
<path fill="none" stroke="midnightblue" d="M473.631,-112.781C467.16,-104.152 458.862,-93.0882 452.045,-83.9987"/>
<polygon fill="midnightblue" stroke="midnightblue" points="454.644,-81.6305 445.844,-75.7305 449.044,-85.8306 454.644,-81.6305"/>
</g>
<!-- Node15&#45;&gt;Node11 -->
<g id="edge17" class="edge"><title>Node15&#45;&gt;Node11</title>
<path fill="none" stroke="midnightblue" d="M427.567,-56.324C416.458,-48.1066 399.554,-35.6017 386.313,-25.8069"/>
<polygon fill="midnightblue" stroke="midnightblue" points="388.359,-22.9671 378.238,-19.8339 384.196,-28.5948 388.359,-22.9671"/>
</g>
<!-- Node15&#45;&gt;Node16 -->
<g id="edge18" class="edge"><title>Node15&#45;&gt;Node16</title>
<path fill="none" stroke="midnightblue" d="M470.194,-56.4435C506.318,-46.44 565.807,-29.9661 602.368,-19.8415"/>
<polygon fill="midnightblue" stroke="midnightblue" points="603.331,-23.2068 612.034,-17.1649 601.462,-16.4607 603.331,-23.2068"/>
</g>
<!-- Node17 -->
<g id="node17" class="node"><title>Node17</title>
<g id="a_node17"><a xlink:href="../../d6/d84/MathConstants_8h.html" target="_top" xlink:title="useful math constants ">
<polygon fill="none" stroke="black" points="403.796,-0.5 403.796,-19.5 582.796,-19.5 582.796,-0.5 403.796,-0.5"/>
<text text-anchor="middle" x="493.296" y="-7.5" font-family="Helvetica,sans-Serif" font-size="10.00">CommonConstants/MathConstants.h</text>
</a>
</g>
</g>
<!-- Node15&#45;&gt;Node17 -->
<g id="edge19" class="edge"><title>Node15&#45;&gt;Node17</title>
<path fill="none" stroke="midnightblue" d="M448.213,-56.083C456.076,-48.2195 467.727,-36.5688 477.215,-27.0813"/>
<polygon fill="midnightblue" stroke="midnightblue" points="479.949,-29.2971 484.545,-19.7511 474.999,-24.3473 479.949,-29.2971"/>
</g>
</g>
</svg>
        <g id="navigator" transform="translate(0 0)" fill="#404254">
                <rect fill="#f2f5e9" fill-opacity="0.5" stroke="#606060" stroke-width=".5" x="0" y="0" width="60" height="60"/>
                <use id="zoomplus" xlink:href="#zoomPlus" x="17" y="9" onmousedown="handleZoom(evt,'in')"/>
                <use id="zoomminus" xlink:href="#zoomMin" x="42" y="9" onmousedown="handleZoom(evt,'out')"/>
                <use id="reset" xlink:href="#resetDef" x="30" y="36" onmousedown="handleReset()"/>
                <g id="arrowUp" xlink:href="#dirArrow" transform="translate(30 24)" onmousedown="handlePan(0,-1)">
                  <use xlink:href="#rim" fill="#404040">
                        <set attributeName="fill" to="#808080" begin="arrowUp.mouseover" end="arrowUp.mouseout"/>
                  </use>
                  <path fill="none" stroke="white" stroke-width="1.5" d="M0,-3.0v7 M-2.5,-0.5L0,-3.0L2.5,-0.5"/>
                </g>
                <g id="arrowRight" xlink:href="#dirArrow" transform="rotate(90) translate(36 -43)" onmousedown="handlePan(1,0)">
                  <use xlink:href="#rim" fill="#404040">
                        <set attributeName="fill" to="#808080" begin="arrowRight.mouseover" end="arrowRight.mouseout"/>
                  </use>
                  <path fill="none" stroke="white" stroke-width="1.5" d="M0,-3.0v7 M-2.5,-0.5L0,-3.0L2.5,-0.5"/>
                </g>
                <g id="arrowDown" xlink:href="#dirArrow" transform="rotate(180) translate(-30 -48)" onmousedown="handlePan(0,1)">
                  <use xlink:href="#rim" fill="#404040">
                        <set attributeName="fill" to="#808080" begin="arrowDown.mouseover" end="arrowDown.mouseout"/>
                  </use>
                  <path fill="none" stroke="white" stroke-width="1.5" d="M0,-3.0v7 M-2.5,-0.5L0,-3.0L2.5,-0.5"/>
                </g>
                <g id="arrowLeft" xlink:href="#dirArrow" transform="rotate(270) translate(-36 17)" onmousedown="handlePan(-1,0)">
                  <use xlink:href="#rim" fill="#404040">
                        <set attributeName="fill" to="#808080" begin="arrowLeft.mouseover" end="arrowLeft.mouseout"/>
                  </use>
                  <path fill="none" stroke="white" stroke-width="1.5" d="M0,-3.0v7 M-2.5,-0.5L0,-3.0L2.5,-0.5"/>
                </g>
        </g>
        <svg viewBox="0 0 15 15" width="100%" height="30px" preserveAspectRatio="xMaxYMin meet">
         <g id="arrow_out" transform="scale(0.3 0.3)">
          <a xlink:href="GRPObject_8cxx__incl_org.svg" target="_base">
           <rect id="button" ry="5" rx="5" y="6" x="6" height="38" width="38"
                fill="#f2f5e9" fill-opacity="0.5" stroke="#606060" stroke-width="1.0"/>
           <path id="arrow"
             d="M 11.500037,31.436501 C 11.940474,20.09759 22.043105,11.32322 32.158766,21.979434 L 37.068811,17.246167 C 37.068811,17.246167 37.088388,32 37.088388,32 L 22.160133,31.978069 C 22.160133,31.978069 26.997745,27.140456 26.997745,27.140456 C 18.528582,18.264221 13.291696,25.230495 11.500037,31.436501 z"
             style="fill:#404040;"/>
          </a>
         </g>
        </svg>
</svg>
