<?xml version="1.0" encoding="UTF-8" standalone="no"?>
<!DOCTYPE svg PUBLIC "-//W3C//DTD SVG 1.1//EN"
 "http://www.w3.org/Graphics/SVG/1.1/DTD/svg11.dtd">
<!-- Generated by graphviz version 2.36.0 (20140111.2315)
 -->
<!-- Title: /home/travis/build/AliceO2Group/AliceO2/Detectors/ITSMFT/MFT/base/include/MFTBase/LadderSegmentation.h Pages: 1 -->
<svg width="1041pt" height="252pt"
 viewBox="0.00 0.00 1041.00 252.00" xmlns="http://www.w3.org/2000/svg" xmlns:xlink="http://www.w3.org/1999/xlink">
<g id="graph0" class="graph" transform="scale(1 1) rotate(0) translate(4 248)">
<title>/home/travis/build/AliceO2Group/AliceO2/Detectors/ITSMFT/MFT/base/include/MFTBase/LadderSegmentation.h</title>
<!-- Node1 -->
<g id="node1" class="node"><title>Node1</title>
<polygon fill="#bfbfbf" stroke="black" points="485.5,-191 485.5,-243 706.5,-243 706.5,-191 485.5,-191"/>
<text text-anchor="start" x="493.5" y="-231" font-family="Helvetica,sans-Serif" font-size="10.00">/home/travis/build</text>
<text text-anchor="start" x="493.5" y="-220" font-family="Helvetica,sans-Serif" font-size="10.00">/AliceO2Group/AliceO2</text>
<text text-anchor="start" x="493.5" y="-209" font-family="Helvetica,sans-Serif" font-size="10.00">/Detectors/ITSMFT/MFT</text>
<text text-anchor="middle" x="596" y="-198" font-family="Helvetica,sans-Serif" font-size="10.00">/base/include/MFTBase/LadderSegmentation.h</text>
</g>
<!-- Node2 -->
<g id="node2" class="node"><title>Node2</title>
<g id="a_node2"><a xlink:href="../../dc/d53/HalfDiskSegmentation_8h.html" target="_top" xlink:title="Class for the description of the structure of a half&#45;disk. ">
<polygon fill="none" stroke="black" points="361.5,-90.5 361.5,-153.5 522.5,-153.5 522.5,-90.5 361.5,-90.5"/>
<text text-anchor="start" x="369.5" y="-141.5" font-family="Helvetica,sans-Serif" font-size="10.00">/home/travis/build</text>
<text text-anchor="start" x="369.5" y="-130.5" font-family="Helvetica,sans-Serif" font-size="10.00">/AliceO2Group/AliceO2</text>
<text text-anchor="start" x="369.5" y="-119.5" font-family="Helvetica,sans-Serif" font-size="10.00">/Detectors/ITSMFT/MFT</text>
<text text-anchor="start" x="369.5" y="-108.5" font-family="Helvetica,sans-Serif" font-size="10.00">/base/include/MFTBase/HalfDisk</text>
<text text-anchor="middle" x="442" y="-97.5" font-family="Helvetica,sans-Serif" font-size="10.00">Segmentation.h</text>
</a>
</g>
</g>
<!-- Node1&#45;&gt;Node2 -->
<g id="edge1" class="edge"><title>Node1&#45;&gt;Node2</title>
<path fill="none" stroke="midnightblue" d="M545.655,-185.597C528.693,-175.354 509.762,-163.921 492.768,-153.659"/>
<polygon fill="midnightblue" stroke="midnightblue" points="543.956,-188.659 554.325,-190.833 547.575,-182.667 543.956,-188.659"/>
</g>
<!-- Node3 -->
<g id="node3" class="node"><title>Node3</title>
<g id="a_node3"><a xlink:href="../../de/d37/ITSMFT_2MFT_2base_2src_2Geometry_8cxx.html" target="_top" xlink:title="/home/travis/build\l/AliceO2Group/AliceO2\l/Detectors/ITSMFT/MFT\l/base/src/Geometry.cxx">
<polygon fill="none" stroke="black" points="-0.5,-1 -0.5,-53 124.5,-53 124.5,-1 -0.5,-1"/>
<text text-anchor="start" x="7.5" y="-41" font-family="Helvetica,sans-Serif" font-size="10.00">/home/travis/build</text>
<text text-anchor="start" x="7.5" y="-30" font-family="Helvetica,sans-Serif" font-size="10.00">/AliceO2Group/AliceO2</text>
<text text-anchor="start" x="7.5" y="-19" font-family="Helvetica,sans-Serif" font-size="10.00">/Detectors/ITSMFT/MFT</text>
<text text-anchor="middle" x="62" y="-8" font-family="Helvetica,sans-Serif" font-size="10.00">/base/src/Geometry.cxx</text>
</a>
</g>
</g>
<!-- Node1&#45;&gt;Node3 -->
<g id="edge9" class="edge"><title>Node1&#45;&gt;Node3</title>
<path fill="none" stroke="midnightblue" d="M475.541,-189.474C435.801,-179.644 391.641,-167.549 352,-154 266.033,-124.616 170.016,-80.5641 112.872,-53.09"/>
<polygon fill="midnightblue" stroke="midnightblue" points="474.73,-192.878 485.276,-191.858 476.396,-186.079 474.73,-192.878"/>
</g>
<!-- Node8 -->
<g id="node8" class="node"><title>Node8</title>
<g id="a_node8"><a xlink:href="../../d7/d41/ITSMFT_2MFT_2base_2src_2Segmentation_8cxx.html" target="_top" xlink:title="/home/travis/build\l/AliceO2Group/AliceO2\l/Detectors/ITSMFT/MFT\l/base/src/Segmentation.cxx">
<polygon fill="none" stroke="black" points="808.5,-1 808.5,-53 947.5,-53 947.5,-1 808.5,-1"/>
<text text-anchor="start" x="816.5" y="-41" font-family="Helvetica,sans-Serif" font-size="10.00">/home/travis/build</text>
<text text-anchor="start" x="816.5" y="-30" font-family="Helvetica,sans-Serif" font-size="10.00">/AliceO2Group/AliceO2</text>
<text text-anchor="start" x="816.5" y="-19" font-family="Helvetica,sans-Serif" font-size="10.00">/Detectors/ITSMFT/MFT</text>
<text text-anchor="middle" x="878" y="-8" font-family="Helvetica,sans-Serif" font-size="10.00">/base/src/Segmentation.cxx</text>
</a>
</g>
</g>
<!-- Node1&#45;&gt;Node8 -->
<g id="edge12" class="edge"><title>Node1&#45;&gt;Node8</title>
<path fill="none" stroke="midnightblue" d="M575.399,-181.934C561.52,-154.107 549.328,-115.362 571,-90 604.322,-51.0034 749.143,-66.057 799,-54 802.088,-53.2533 805.228,-52.443 808.389,-51.5854"/>
<polygon fill="midnightblue" stroke="midnightblue" points="572.372,-183.697 580.125,-190.918 578.567,-180.438 572.372,-183.697"/>
</g>
<!-- Node9 -->
<g id="node9" class="node"><title>Node9</title>
<g id="a_node9"><a xlink:href="../../d7/d93/Flex_8cxx.html" target="_top" xlink:title="Flex class for ALICE MFT upgrade. ">
<polygon fill="none" stroke="black" points="579.5,-96 579.5,-148 704.5,-148 704.5,-96 579.5,-96"/>
<text text-anchor="start" x="587.5" y="-136" font-family="Helvetica,sans-Serif" font-size="10.00">/home/travis/build</text>
<text text-anchor="start" x="587.5" y="-125" font-family="Helvetica,sans-Serif" font-size="10.00">/AliceO2Group/AliceO2</text>
<text text-anchor="start" x="587.5" y="-114" font-family="Helvetica,sans-Serif" font-size="10.00">/Detectors/ITSMFT/MFT</text>
<text text-anchor="middle" x="642" y="-103" font-family="Helvetica,sans-Serif" font-size="10.00">/base/src/Flex.cxx</text>
</a>
</g>
</g>
<!-- Node1&#45;&gt;Node9 -->
<g id="edge8" class="edge"><title>Node1&#45;&gt;Node9</title>
<path fill="none" stroke="midnightblue" d="M613.039,-181.551C618.532,-170.446 624.512,-158.355 629.605,-148.06"/>
<polygon fill="midnightblue" stroke="midnightblue" points="609.866,-180.072 608.57,-190.587 616.141,-183.176 609.866,-180.072"/>
</g>
<!-- Node10 -->
<g id="node10" class="node"><title>Node10</title>
<g id="a_node10"><a xlink:href="../../dc/d80/Ladder_8cxx.html" target="_top" xlink:title="Ladder builder. ">
<polygon fill="none" stroke="black" points="722.5,-96 722.5,-148 847.5,-148 847.5,-96 722.5,-96"/>
<text text-anchor="start" x="730.5" y="-136" font-family="Helvetica,sans-Serif" font-size="10.00">/home/travis/build</text>
<text text-anchor="start" x="730.5" y="-125" font-family="Helvetica,sans-Serif" font-size="10.00">/AliceO2Group/AliceO2</text>
<text text-anchor="start" x="730.5" y="-114" font-family="Helvetica,sans-Serif" font-size="10.00">/Detectors/ITSMFT/MFT</text>
<text text-anchor="middle" x="785" y="-103" font-family="Helvetica,sans-Serif" font-size="10.00">/base/src/Ladder.cxx</text>
</a>
</g>
</g>
<!-- Node1&#45;&gt;Node10 -->
<g id="edge10" class="edge"><title>Node1&#45;&gt;Node10</title>
<path fill="none" stroke="midnightblue" d="M656.207,-186.374C681.302,-174.026 710.13,-159.841 734.141,-148.026"/>
<polygon fill="midnightblue" stroke="midnightblue" points="654.573,-183.277 647.146,-190.833 657.664,-189.558 654.573,-183.277"/>
</g>
<!-- Node11 -->
<g id="node11" class="node"><title>Node11</title>
<g id="a_node11"><a xlink:href="../../d6/dc0/LadderSegmentation_8cxx.html" target="_top" xlink:title="Description of the virtual segmentation of a ladder. ">
<polygon fill="none" stroke="black" points="865,-96 865,-148 1033,-148 1033,-96 865,-96"/>
<text text-anchor="start" x="873" y="-136" font-family="Helvetica,sans-Serif" font-size="10.00">/home/travis/build</text>
<text text-anchor="start" x="873" y="-125" font-family="Helvetica,sans-Serif" font-size="10.00">/AliceO2Group/AliceO2</text>
<text text-anchor="start" x="873" y="-114" font-family="Helvetica,sans-Serif" font-size="10.00">/Detectors/ITSMFT/MFT</text>
<text text-anchor="middle" x="949" y="-103" font-family="Helvetica,sans-Serif" font-size="10.00">/base/src/LadderSegmentation.cxx</text>
</a>
</g>
</g>
<!-- Node1&#45;&gt;Node11 -->
<g id="edge11" class="edge"><title>Node1&#45;&gt;Node11</title>
<path fill="none" stroke="midnightblue" d="M716.517,-189.581C760.62,-179.304 810.78,-166.901 856,-154 862.465,-152.156 869.148,-150.142 875.83,-148.056"/>
<polygon fill="midnightblue" stroke="midnightblue" points="715.57,-186.207 706.619,-191.875 717.151,-193.027 715.57,-186.207"/>
</g>
<!-- Node2&#45;&gt;Node3 -->
<g id="edge2" class="edge"><title>Node2&#45;&gt;Node3</title>
<path fill="none" stroke="midnightblue" d="M351.074,-104.506C289.328,-92.5047 206.104,-74.7626 134,-54 130.935,-53.1174 127.812,-52.1718 124.668,-51.1827"/>
<polygon fill="midnightblue" stroke="midnightblue" points="350.699,-107.998 361.181,-106.456 352.025,-101.125 350.699,-107.998"/>
</g>
<!-- Node4 -->
<g id="node4" class="node"><title>Node4</title>
<g id="a_node4"><a xlink:href="../../d3/d36/HalfDetector_8cxx.html" target="_top" xlink:title="Class Building the geometry of one half of the ALICE Muon Forward Tracker. ">
<polygon fill="none" stroke="black" points="143,-1 143,-53 277,-53 277,-1 143,-1"/>
<text text-anchor="start" x="151" y="-41" font-family="Helvetica,sans-Serif" font-size="10.00">/home/travis/build</text>
<text text-anchor="start" x="151" y="-30" font-family="Helvetica,sans-Serif" font-size="10.00">/AliceO2Group/AliceO2</text>
<text text-anchor="start" x="151" y="-19" font-family="Helvetica,sans-Serif" font-size="10.00">/Detectors/ITSMFT/MFT</text>
<text text-anchor="middle" x="210" y="-8" font-family="Helvetica,sans-Serif" font-size="10.00">/base/src/HalfDetector.cxx</text>
</a>
</g>
</g>
<!-- Node2&#45;&gt;Node4 -->
<g id="edge3" class="edge"><title>Node2&#45;&gt;Node4</title>
<path fill="none" stroke="midnightblue" d="M356.382,-86.6789C328.552,-75.5231 298.213,-63.3612 272.408,-53.0171"/>
<polygon fill="midnightblue" stroke="midnightblue" points="355.129,-89.9474 365.713,-90.4195 357.733,-83.4499 355.129,-89.9474"/>
</g>
<!-- Node5 -->
<g id="node5" class="node"><title>Node5</title>
<g id="a_node5"><a xlink:href="../../d6/d66/HalfDisk_8cxx.html" target="_top" xlink:title="Class describing geometry of one half of a MFT disk. ">
<polygon fill="none" stroke="black" points="295.5,-1 295.5,-53 420.5,-53 420.5,-1 295.5,-1"/>
<text text-anchor="start" x="303.5" y="-41" font-family="Helvetica,sans-Serif" font-size="10.00">/home/travis/build</text>
<text text-anchor="start" x="303.5" y="-30" font-family="Helvetica,sans-Serif" font-size="10.00">/AliceO2Group/AliceO2</text>
<text text-anchor="start" x="303.5" y="-19" font-family="Helvetica,sans-Serif" font-size="10.00">/Detectors/ITSMFT/MFT</text>
<text text-anchor="middle" x="358" y="-8" font-family="Helvetica,sans-Serif" font-size="10.00">/base/src/HalfDisk.cxx</text>
</a>
</g>
</g>
<!-- Node2&#45;&gt;Node5 -->
<g id="edge4" class="edge"><title>Node2&#45;&gt;Node5</title>
<path fill="none" stroke="midnightblue" d="M407.472,-82.7726C398.433,-72.7648 388.916,-62.2288 380.671,-53.1001"/>
<polygon fill="midnightblue" stroke="midnightblue" points="404.962,-85.2155 414.262,-90.2906 410.157,-80.5235 404.962,-85.2155"/>
</g>
<!-- Node6 -->
<g id="node6" class="node"><title>Node6</title>
<g id="a_node6"><a xlink:href="../../d1/d8f/HalfDiskSegmentation_8cxx.html" target="_top" xlink:title="Class for the description of the structure of a half&#45;disk. ">
<polygon fill="none" stroke="black" points="438.5,-1 438.5,-53 615.5,-53 615.5,-1 438.5,-1"/>
<text text-anchor="start" x="446.5" y="-41" font-family="Helvetica,sans-Serif" font-size="10.00">/home/travis/build</text>
<text text-anchor="start" x="446.5" y="-30" font-family="Helvetica,sans-Serif" font-size="10.00">/AliceO2Group/AliceO2</text>
<text text-anchor="start" x="446.5" y="-19" font-family="Helvetica,sans-Serif" font-size="10.00">/Detectors/ITSMFT/MFT</text>
<text text-anchor="middle" x="527" y="-8" font-family="Helvetica,sans-Serif" font-size="10.00">/base/src/HalfDiskSegmentation.cxx</text>
</a>
</g>
</g>
<!-- Node2&#45;&gt;Node6 -->
<g id="edge5" class="edge"><title>Node2&#45;&gt;Node6</title>
<path fill="none" stroke="midnightblue" d="M476.939,-82.7726C486.086,-72.7648 495.716,-62.2288 504.059,-53.1001"/>
<polygon fill="midnightblue" stroke="midnightblue" points="474.231,-80.5479 470.068,-90.2906 479.398,-85.2704 474.231,-80.5479"/>
</g>
<!-- Node7 -->
<g id="node7" class="node"><title>Node7</title>
<g id="a_node7"><a xlink:href="../../d1/d7f/HalfSegmentation_8cxx.html" target="_top" xlink:title="Segmentation class for each half of the ALICE Muon Forward Tracker. ">
<polygon fill="none" stroke="black" points="633.5,-1 633.5,-53 790.5,-53 790.5,-1 633.5,-1"/>
<text text-anchor="start" x="641.5" y="-41" font-family="Helvetica,sans-Serif" font-size="10.00">/home/travis/build</text>
<text text-anchor="start" x="641.5" y="-30" font-family="Helvetica,sans-Serif" font-size="10.00">/AliceO2Group/AliceO2</text>
<text text-anchor="start" x="641.5" y="-19" font-family="Helvetica,sans-Serif" font-size="10.00">/Detectors/ITSMFT/MFT</text>
<text text-anchor="middle" x="712" y="-8" font-family="Helvetica,sans-Serif" font-size="10.00">/base/src/HalfSegmentation.cxx</text>
</a>
</g>
</g>
<!-- Node2&#45;&gt;Node7 -->
<g id="edge6" class="edge"><title>Node2&#45;&gt;Node7</title>
<path fill="none" stroke="midnightblue" d="M532.314,-89.892C567.05,-77.9273 606.235,-64.4301 639.127,-53.1006"/>
<polygon fill="midnightblue" stroke="midnightblue" points="530.958,-86.657 522.643,-93.2229 533.238,-93.2754 530.958,-86.657"/>
</g>
<!-- Node2&#45;&gt;Node8 -->
<g id="edge7" class="edge"><title>Node2&#45;&gt;Node8</title>
<path fill="none" stroke="midnightblue" d="M532.535,-91.058C534.031,-90.6932 535.521,-90.3401 537,-90 651.55,-63.6635 684.483,-80.4812 799,-54 802.095,-53.2843 805.241,-52.4996 808.408,-51.6631"/>
<polygon fill="midnightblue" stroke="midnightblue" points="531.386,-87.7396 522.574,-93.6215 533.13,-94.5187 531.386,-87.7396"/>
</g>
</g>
</svg>
