<?xml version="1.0" encoding="UTF-8" standalone="no"?>
<!DOCTYPE svg PUBLIC "-//W3C//DTD SVG 1.1//EN"
 "http://www.w3.org/Graphics/SVG/1.1/DTD/svg11.dtd">
<!-- Generated by graphviz version 2.36.0 (20140111.2315)
 -->
<!-- Title: o2::algorithm::TableView&lt; RowDescT, ColumnDescT, ParserT &gt;::iterator Pages: 1 -->
<svg width="563pt" height="648pt"
 viewBox="0.00 0.00 563.00 648.00" xmlns="http://www.w3.org/2000/svg" xmlns:xlink="http://www.w3.org/1999/xlink">
<g id="graph0" class="graph" transform="scale(1 1) rotate(0) translate(4 644)">
<title>o2::algorithm::TableView&lt; RowDescT, ColumnDescT, ParserT &gt;::iterator</title>
<!-- Node1 -->
<g id="node1" class="node"><title>Node1</title>
<polygon fill="#bfbfbf" stroke="black" points="219.5,-0.5 219.5,-167.5 366.5,-167.5 366.5,-0.5 219.5,-0.5"/>
<text text-anchor="start" x="227.5" y="-155.5" font-family="Helvetica,sans-Serif" font-size="10.00">o2::algorithm::TableView</text>
<text text-anchor="start" x="227.5" y="-144.5" font-family="Helvetica,sans-Serif" font-size="10.00">&lt; RowDescT, ColumnDescT,</text>
<text text-anchor="middle" x="293" y="-133.5" font-family="Helvetica,sans-Serif" font-size="10.00"> ParserT &gt;::iterator</text>
<polyline fill="none" stroke="black" points="219.5,-126.5 366.5,-126.5 "/>
<text text-anchor="middle" x="293" y="-114.5" font-family="Helvetica,sans-Serif" font-size="10.00"> </text>
<polyline fill="none" stroke="black" points="219.5,-107.5 366.5,-107.5 "/>
<text text-anchor="start" x="227.5" y="-95.5" font-family="Helvetica,sans-Serif" font-size="10.00">+ iterator()</text>
<text text-anchor="start" x="227.5" y="-84.5" font-family="Helvetica,sans-Serif" font-size="10.00">+ ~iterator()</text>
<text text-anchor="start" x="227.5" y="-73.5" font-family="Helvetica,sans-Serif" font-size="10.00">+ iterator()</text>
<text text-anchor="start" x="227.5" y="-62.5" font-family="Helvetica,sans-Serif" font-size="10.00">+ operator++()</text>
<text text-anchor="start" x="227.5" y="-51.5" font-family="Helvetica,sans-Serif" font-size="10.00">+ operator*()</text>
<text text-anchor="start" x="227.5" y="-40.5" font-family="Helvetica,sans-Serif" font-size="10.00">+ operator==()</text>
<text text-anchor="start" x="227.5" y="-29.5" font-family="Helvetica,sans-Serif" font-size="10.00">+ operator!=()</text>
<text text-anchor="start" x="227.5" y="-18.5" font-family="Helvetica,sans-Serif" font-size="10.00">+ isEnd()</text>
<text text-anchor="start" x="227.5" y="-7.5" font-family="Helvetica,sans-Serif" font-size="10.00">+ isValid()</text>
</g>
<!-- Node2 -->
<g id="node2" class="node"><title>Node2</title>
<g id="a_node2"><a xlink:href="../../da/d64/classo2_1_1algorithm_1_1TableView.html" target="_top" xlink:title="{o2::algorithm::TableView\l\&lt; RowDescT, ColumnDescT,\l ParserT \&gt;\n||+ TableView()\l+ ~TableView()\l+ addRow()\l+ clear()\l+ getNColumns()\l+ getNRows()\l+ getRowData()\l+ begin()\l+ end()\l}">
<polygon fill="none" stroke="black" points="-0.5,-238.5 -0.5,-405.5 146.5,-405.5 146.5,-238.5 -0.5,-238.5"/>
<text text-anchor="start" x="7.5" y="-393.5" font-family="Helvetica,sans-Serif" font-size="10.00">o2::algorithm::TableView</text>
<text text-anchor="start" x="7.5" y="-382.5" font-family="Helvetica,sans-Serif" font-size="10.00">&lt; RowDescT, ColumnDescT,</text>
<text text-anchor="middle" x="73" y="-371.5" font-family="Helvetica,sans-Serif" font-size="10.00"> ParserT &gt;</text>
<polyline fill="none" stroke="black" points="-0.5,-364.5 146.5,-364.5 "/>
<text text-anchor="middle" x="73" y="-352.5" font-family="Helvetica,sans-Serif" font-size="10.00"> </text>
<polyline fill="none" stroke="black" points="-0.5,-345.5 146.5,-345.5 "/>
<text text-anchor="start" x="7.5" y="-333.5" font-family="Helvetica,sans-Serif" font-size="10.00">+ TableView()</text>
<text text-anchor="start" x="7.5" y="-322.5" font-family="Helvetica,sans-Serif" font-size="10.00">+ ~TableView()</text>
<text text-anchor="start" x="7.5" y="-311.5" font-family="Helvetica,sans-Serif" font-size="10.00">+ addRow()</text>
<text text-anchor="start" x="7.5" y="-300.5" font-family="Helvetica,sans-Serif" font-size="10.00">+ clear()</text>
<text text-anchor="start" x="7.5" y="-289.5" font-family="Helvetica,sans-Serif" font-size="10.00">+ getNColumns()</text>
<text text-anchor="start" x="7.5" y="-278.5" font-family="Helvetica,sans-Serif" font-size="10.00">+ getNRows()</text>
<text text-anchor="start" x="7.5" y="-267.5" font-family="Helvetica,sans-Serif" font-size="10.00">+ getRowData()</text>
<text text-anchor="start" x="7.5" y="-256.5" font-family="Helvetica,sans-Serif" font-size="10.00">+ begin()</text>
<text text-anchor="start" x="7.5" y="-245.5" font-family="Helvetica,sans-Serif" font-size="10.00">+ end()</text>
</a>
</g>
</g>
<!-- Node2&#45;&gt;Node1 -->
<g id="edge1" class="edge"><title>Node2&#45;&gt;Node1</title>
<path fill="none" stroke="#404040" d="M130.248,-238.311C143.866,-220.445 158.861,-202.099 174,-186 185.129,-174.166 197.571,-162.335 210.101,-151.156"/>
<polygon fill="none" stroke="#404040" points="210.209,-151.061 212.076,-144.096 219.223,-143.14 217.357,-150.105 210.209,-151.061"/>
<text text-anchor="middle" x="197" y="-200.5" font-family="Helvetica,sans-Serif" font-size="10.00"> #mParent</text>
</g>
<!-- Node3 -->
<g id="node3" class="node"><title>Node3</title>
<polygon fill="none" stroke="#bfbfbf" points="165,-293.5 165,-350.5 257,-350.5 257,-293.5 165,-293.5"/>
<text text-anchor="middle" x="211" y="-338.5" font-family="Helvetica,sans-Serif" font-size="10.00">IteratorDirections</text>
<polyline fill="none" stroke="#bfbfbf" points="165,-331.5 257,-331.5 "/>
<text text-anchor="middle" x="211" y="-319.5" font-family="Helvetica,sans-Serif" font-size="10.00"> </text>
<polyline fill="none" stroke="#bfbfbf" points="165,-312.5 257,-312.5 "/>
<text text-anchor="middle" x="211" y="-300.5" font-family="Helvetica,sans-Serif" font-size="10.00"> </text>
</g>
<!-- Node3&#45;&gt;Node1 -->
<g id="edge2" class="edge"><title>Node3&#45;&gt;Node1</title>
<path fill="none" stroke="#404040" d="M212.483,-293.349C214.667,-265.515 220.015,-221.707 233,-186 233.871,-183.604 234.801,-181.201 235.78,-178.798"/>
<polygon fill="none" stroke="#404040" points="235.883,-178.562 234.629,-171.461 240.701,-167.572 241.956,-174.673 235.883,-178.562"/>
<text text-anchor="middle" x="261" y="-200.5" font-family="Helvetica,sans-Serif" font-size="10.00"> #mDirection</text>
</g>
<!-- Node4 -->
<g id="node4" class="node"><title>Node4</title>
<polygon fill="none" stroke="#bfbfbf" points="275.5,-293.5 275.5,-350.5 310.5,-350.5 310.5,-293.5 275.5,-293.5"/>
<text text-anchor="middle" x="293" y="-338.5" font-family="Helvetica,sans-Serif" font-size="10.00">bool</text>
<polyline fill="none" stroke="#bfbfbf" points="275.5,-331.5 310.5,-331.5 "/>
<text text-anchor="middle" x="293" y="-319.5" font-family="Helvetica,sans-Serif" font-size="10.00"> </text>
<polyline fill="none" stroke="#bfbfbf" points="275.5,-312.5 310.5,-312.5 "/>
<text text-anchor="middle" x="293" y="-300.5" font-family="Helvetica,sans-Serif" font-size="10.00"> </text>
</g>
<!-- Node4&#45;&gt;Node1 -->
<g id="edge3" class="edge"><title>Node4&#45;&gt;Node1</title>
<path fill="none" stroke="#404040" d="M293,-293.466C293,-265.583 293,-220.857 293,-179.969"/>
<polygon fill="none" stroke="#404040" points="293,-179.71 289,-173.71 293,-167.71 297,-173.71 293,-179.71"/>
<text text-anchor="middle" x="322.5" y="-200.5" font-family="Helvetica,sans-Serif" font-size="10.00"> #mIsCached</text>
</g>
<!-- Node5 -->
<g id="node5" class="node"><title>Node5</title>
<g id="a_node5"><a xlink:href="../../d9/dc8/structo2_1_1algorithm_1_1TableView_1_1iterator_1_1value__type.html" target="_top" xlink:title="{o2::algorithm::TableView\l\&lt; RowDescT, ColumnDescT,\l ParserT \&gt;::iterator::value_type\n||}">
<polygon fill="none" stroke="black" points="329,-282.5 329,-361.5 481,-361.5 481,-282.5 329,-282.5"/>
<text text-anchor="start" x="337" y="-349.5" font-family="Helvetica,sans-Serif" font-size="10.00">o2::algorithm::TableView</text>
<text text-anchor="start" x="337" y="-338.5" font-family="Helvetica,sans-Serif" font-size="10.00">&lt; RowDescT, ColumnDescT,</text>
<text text-anchor="middle" x="405" y="-327.5" font-family="Helvetica,sans-Serif" font-size="10.00"> ParserT &gt;::iterator::value_type</text>
<polyline fill="none" stroke="black" points="329,-320.5 481,-320.5 "/>
<text text-anchor="middle" x="405" y="-308.5" font-family="Helvetica,sans-Serif" font-size="10.00"> </text>
<polyline fill="none" stroke="black" points="329,-301.5 481,-301.5 "/>
<text text-anchor="middle" x="405" y="-289.5" font-family="Helvetica,sans-Serif" font-size="10.00"> </text>
</a>
</g>
</g>
<!-- Node5&#45;&gt;Node1 -->
<g id="edge4" class="edge"><title>Node5&#45;&gt;Node1</title>
<path fill="none" stroke="#404040" d="M393.345,-282.298C384.498,-254.819 371.276,-217.387 356,-186 354.76,-183.452 353.472,-180.888 352.145,-178.315"/>
<polygon fill="none" stroke="#404040" points="352.141,-178.307 345.787,-174.897 346.491,-167.72 352.845,-171.13 352.141,-178.307"/>
<text text-anchor="middle" x="394" y="-200.5" font-family="Helvetica,sans-Serif" font-size="10.00"> #mCache</text>
</g>
<!-- Node6 -->
<g id="node6" class="node"><title>Node6</title>
<g id="a_node6"><a xlink:href="../../d9/d66/structo2_1_1algorithm_1_1TableView_1_1FrameData.html" target="_top" xlink:title="descriptor pointing to payload of one frame ">
<polygon fill="none" stroke="black" points="238.5,-454.5 238.5,-533.5 385.5,-533.5 385.5,-454.5 238.5,-454.5"/>
<text text-anchor="start" x="246.5" y="-521.5" font-family="Helvetica,sans-Serif" font-size="10.00">o2::algorithm::TableView</text>
<text text-anchor="start" x="246.5" y="-510.5" font-family="Helvetica,sans-Serif" font-size="10.00">&lt; RowDescT, ColumnDescT,</text>
<text text-anchor="middle" x="312" y="-499.5" font-family="Helvetica,sans-Serif" font-size="10.00"> ParserT &gt;::FrameData</text>
<polyline fill="none" stroke="black" points="238.5,-492.5 385.5,-492.5 "/>
<text text-anchor="middle" x="312" y="-480.5" font-family="Helvetica,sans-Serif" font-size="10.00"> </text>
<polyline fill="none" stroke="black" points="238.5,-473.5 385.5,-473.5 "/>
<text text-anchor="middle" x="312" y="-461.5" font-family="Helvetica,sans-Serif" font-size="10.00"> </text>
</a>
</g>
</g>
<!-- Node6&#45;&gt;Node5 -->
<g id="edge5" class="edge"><title>Node6&#45;&gt;Node5</title>
<path fill="none" stroke="midnightblue" d="M338.063,-445.358C352.508,-418.953 370.237,-386.545 383.82,-361.717"/>
<polygon fill="none" stroke="midnightblue" points="334.832,-443.972 333.103,-454.424 340.973,-447.331 334.832,-443.972"/>
</g>
<!-- Node7 -->
<g id="node7" class="node"><title>Node7</title>
<polygon fill="none" stroke="#bfbfbf" points="240.5,-582.5 240.5,-639.5 309.5,-639.5 309.5,-582.5 240.5,-582.5"/>
<text text-anchor="middle" x="275" y="-627.5" font-family="Helvetica,sans-Serif" font-size="10.00">const byte *</text>
<polyline fill="none" stroke="#bfbfbf" points="240.5,-620.5 309.5,-620.5 "/>
<text text-anchor="middle" x="275" y="-608.5" font-family="Helvetica,sans-Serif" font-size="10.00"> </text>
<polyline fill="none" stroke="#bfbfbf" points="240.5,-601.5 309.5,-601.5 "/>
<text text-anchor="middle" x="275" y="-589.5" font-family="Helvetica,sans-Serif" font-size="10.00"> </text>
</g>
<!-- Node7&#45;&gt;Node6 -->
<g id="edge6" class="edge"><title>Node7&#45;&gt;Node6</title>
<path fill="none" stroke="#404040" d="M283.489,-582.231C286.455,-572.64 289.835,-561.836 293,-552 293.719,-549.766 294.458,-547.484 295.209,-545.18"/>
<polygon fill="none" stroke="#404040" points="295.269,-544.998 293.341,-538.05 299.013,-533.597 300.941,-540.546 295.269,-544.998"/>
<text text-anchor="middle" x="310" y="-555.5" font-family="Helvetica,sans-Serif" font-size="10.00"> +buffer</text>
</g>
<!-- Node8 -->
<g id="node8" class="node"><title>Node8</title>
<g id="a_node8"><a xlink:href="../../dd/de2/classsize__t.html" target="_top" xlink:title="{size_t\n||}">
<polygon fill="none" stroke="black" points="327.5,-582.5 327.5,-639.5 370.5,-639.5 370.5,-582.5 327.5,-582.5"/>
<text text-anchor="middle" x="349" y="-627.5" font-family="Helvetica,sans-Serif" font-size="10.00">size_t</text>
<polyline fill="none" stroke="black" points="327.5,-620.5 370.5,-620.5 "/>
<text text-anchor="middle" x="349" y="-608.5" font-family="Helvetica,sans-Serif" font-size="10.00"> </text>
<polyline fill="none" stroke="black" points="327.5,-601.5 370.5,-601.5 "/>
<text text-anchor="middle" x="349" y="-589.5" font-family="Helvetica,sans-Serif" font-size="10.00"> </text>
</a>
</g>
</g>
<!-- Node8&#45;&gt;Node6 -->
<g id="edge7" class="edge"><title>Node8&#45;&gt;Node6</title>
<path fill="none" stroke="#404040" d="M340.138,-582.455C336.537,-571.262 332.26,-557.969 328.141,-545.168"/>
<polygon fill="none" stroke="#404040" points="328.103,-545.049 322.457,-540.563 324.427,-533.626 330.073,-538.112 328.103,-545.049"/>
<text text-anchor="middle" x="348" y="-555.5" font-family="Helvetica,sans-Serif" font-size="10.00"> +size</text>
</g>
<!-- Node9 -->
<g id="node9" class="node"><title>Node9</title>
<polygon fill="none" stroke="#bfbfbf" points="404,-465.5 404,-522.5 470,-522.5 470,-465.5 404,-465.5"/>
<text text-anchor="middle" x="437" y="-510.5" font-family="Helvetica,sans-Serif" font-size="10.00">RowDescT</text>
<polyline fill="none" stroke="#bfbfbf" points="404,-503.5 470,-503.5 "/>
<text text-anchor="middle" x="437" y="-491.5" font-family="Helvetica,sans-Serif" font-size="10.00"> </text>
<polyline fill="none" stroke="#bfbfbf" points="404,-484.5 470,-484.5 "/>
<text text-anchor="middle" x="437" y="-472.5" font-family="Helvetica,sans-Serif" font-size="10.00"> </text>
</g>
<!-- Node9&#45;&gt;Node5 -->
<g id="edge8" class="edge"><title>Node9&#45;&gt;Node5</title>
<path fill="none" stroke="#404040" d="M431.787,-465.308C427.133,-440.583 420.2,-403.749 414.553,-373.75"/>
<polygon fill="none" stroke="#404040" points="414.521,-373.582 409.48,-368.426 412.301,-361.789 417.342,-366.946 414.521,-373.582"/>
<text text-anchor="middle" x="441.5" y="-427.5" font-family="Helvetica,sans-Serif" font-size="10.00"> +desc</text>
</g>
<!-- Node10 -->
<g id="node10" class="node"><title>Node10</title>
<polygon fill="none" stroke="#bfbfbf" points="499,-293.5 499,-350.5 555,-350.5 555,-293.5 499,-293.5"/>
<text text-anchor="middle" x="527" y="-338.5" font-family="Helvetica,sans-Serif" font-size="10.00">unsigned</text>
<polyline fill="none" stroke="#bfbfbf" points="499,-331.5 555,-331.5 "/>
<text text-anchor="middle" x="527" y="-319.5" font-family="Helvetica,sans-Serif" font-size="10.00"> </text>
<polyline fill="none" stroke="#bfbfbf" points="499,-312.5 555,-312.5 "/>
<text text-anchor="middle" x="527" y="-300.5" font-family="Helvetica,sans-Serif" font-size="10.00"> </text>
</g>
<!-- Node10&#45;&gt;Node1 -->
<g id="edge9" class="edge"><title>Node10&#45;&gt;Node1</title>
<path fill="none" stroke="#404040" d="M518.549,-293.367C512.427,-276.271 502.946,-254.513 490,-238 458.851,-198.269 415.217,-162.994 376.93,-136.357"/>
<polygon fill="none" stroke="#404040" points="376.708,-136.205 369.497,-136.116 366.806,-129.426 374.017,-129.515 376.708,-136.205"/>
<text text-anchor="middle" x="497" y="-211.5" font-family="Helvetica,sans-Serif" font-size="10.00"> #mEnd</text>
<text text-anchor="middle" x="497" y="-200.5" font-family="Helvetica,sans-Serif" font-size="10.00">#mColumn</text>
<text text-anchor="middle" x="497" y="-189.5" font-family="Helvetica,sans-Serif" font-size="10.00">#mRow</text>
</g>
</g>
</svg>
