<?xml version="1.0" encoding="UTF-8" standalone="no"?>
<!DOCTYPE svg PUBLIC "-//W3C//DTD SVG 1.1//EN"
 "http://www.w3.org/Graphics/SVG/1.1/DTD/svg11.dtd">
<!-- Generated by graphviz version 2.36.0 (20140111.2315)
 -->
<!-- Title: /home/travis/build/AliceO2Group/AliceO2/Detectors/TRD/base/src/TRDGeometryFlat.cxx Pages: 1 -->
<svg width="2342pt" height="390pt"
 viewBox="0.00 0.00 2342.00 390.00" xmlns="http://www.w3.org/2000/svg" xmlns:xlink="http://www.w3.org/1999/xlink">
<g id="graph0" class="graph" transform="scale(1 1) rotate(0) translate(4 386)">
<title>/home/travis/build/AliceO2Group/AliceO2/Detectors/TRD/base/src/TRDGeometryFlat.cxx</title>
<!-- Node1 -->
<g id="node1" class="node"><title>Node1</title>
<polygon fill="#bfbfbf" stroke="black" points="963.5,-329 963.5,-381 1090.5,-381 1090.5,-329 963.5,-329"/>
<text text-anchor="start" x="971.5" y="-369" font-family="Helvetica,sans-Serif" font-size="10.00">/home/travis/build</text>
<text text-anchor="start" x="971.5" y="-358" font-family="Helvetica,sans-Serif" font-size="10.00">/AliceO2Group/AliceO2</text>
<text text-anchor="start" x="971.5" y="-347" font-family="Helvetica,sans-Serif" font-size="10.00">/Detectors/TRD/base/src</text>
<text text-anchor="middle" x="1027" y="-336" font-family="Helvetica,sans-Serif" font-size="10.00">/TRDGeometryFlat.cxx</text>
</g>
<!-- Node2 -->
<g id="node2" class="node"><title>Node2</title>
<g id="a_node2"><a xlink:href="../../d3/d35/TRDGeometryFlat_8h.html" target="_top" xlink:title="TRDBase/TRDGeometryFlat.h">
<polygon fill="none" stroke="black" points="232,-272.5 232,-291.5 384,-291.5 384,-272.5 232,-272.5"/>
<text text-anchor="middle" x="308" y="-279.5" font-family="Helvetica,sans-Serif" font-size="10.00">TRDBase/TRDGeometryFlat.h</text>
</a>
</g>
</g>
<!-- Node1&#45;&gt;Node2 -->
<g id="edge1" class="edge"><title>Node1&#45;&gt;Node2</title>
<path fill="none" stroke="midnightblue" d="M963.194,-347.699C833.892,-334.931 540.849,-305.993 394.515,-291.543"/>
<polygon fill="midnightblue" stroke="midnightblue" points="394.533,-288.028 384.237,-290.528 393.845,-294.994 394.533,-288.028"/>
</g>
<!-- Node12 -->
<g id="node12" class="node"><title>Node12</title>
<g id="a_node12"><a xlink:href="../../dd/d07/TRDGeometry_8h.html" target="_top" xlink:title="TRDBase/TRDGeometry.h">
<polygon fill="none" stroke="black" points="1729.5,-272.5 1729.5,-291.5 1864.5,-291.5 1864.5,-272.5 1729.5,-272.5"/>
<text text-anchor="middle" x="1797" y="-279.5" font-family="Helvetica,sans-Serif" font-size="10.00">TRDBase/TRDGeometry.h</text>
</a>
</g>
</g>
<!-- Node1&#45;&gt;Node12 -->
<g id="edge15" class="edge"><title>Node1&#45;&gt;Node12</title>
<path fill="none" stroke="midnightblue" d="M1090.67,-348.129C1231.03,-335.187 1566.68,-304.237 1719.21,-290.173"/>
<polygon fill="midnightblue" stroke="midnightblue" points="1719.79,-293.634 1729.43,-289.231 1719.15,-286.664 1719.79,-293.634"/>
</g>
<!-- Node3 -->
<g id="node3" class="node"><title>Node3</title>
<polygon fill="none" stroke="#bfbfbf" points="336,-210.5 336,-229.5 382,-229.5 382,-210.5 336,-210.5"/>
<text text-anchor="middle" x="359" y="-217.5" font-family="Helvetica,sans-Serif" font-size="10.00">cstring</text>
</g>
<!-- Node2&#45;&gt;Node3 -->
<g id="edge2" class="edge"><title>Node2&#45;&gt;Node3</title>
<path fill="none" stroke="midnightblue" d="M315.307,-272.403C323.033,-263.314 335.408,-248.756 345.018,-237.449"/>
<polygon fill="midnightblue" stroke="midnightblue" points="347.897,-239.467 351.706,-229.581 342.563,-234.933 347.897,-239.467"/>
</g>
<!-- Node4 -->
<g id="node4" class="node"><title>Node4</title>
<polygon fill="none" stroke="#bfbfbf" points="0,-210.5 0,-229.5 70,-229.5 70,-210.5 0,-210.5"/>
<text text-anchor="middle" x="35" y="-217.5" font-family="Helvetica,sans-Serif" font-size="10.00">FlatObject.h</text>
</g>
<!-- Node2&#45;&gt;Node4 -->
<g id="edge3" class="edge"><title>Node2&#45;&gt;Node4</title>
<path fill="none" stroke="midnightblue" d="M258.304,-272.472C212.701,-264.303 143.414,-251.023 84,-236 79.8276,-234.945 75.4824,-233.753 71.1786,-232.514"/>
<polygon fill="midnightblue" stroke="midnightblue" points="71.8957,-229.075 61.3127,-229.578 69.899,-235.785 71.8957,-229.075"/>
</g>
<!-- Node5 -->
<g id="node5" class="node"><title>Node5</title>
<polygon fill="none" stroke="#bfbfbf" points="241,-74.5 241,-93.5 375,-93.5 375,-74.5 241,-74.5"/>
<text text-anchor="middle" x="308" y="-81.5" font-family="Helvetica,sans-Serif" font-size="10.00">AliTPCCommonDefGPU.h</text>
</g>
<!-- Node2&#45;&gt;Node5 -->
<g id="edge4" class="edge"><title>Node2&#45;&gt;Node5</title>
<path fill="none" stroke="midnightblue" d="M308,-272.325C308,-242.664 308,-144.85 308,-103.604"/>
<polygon fill="midnightblue" stroke="midnightblue" points="311.5,-103.575 308,-93.5746 304.5,-103.575 311.5,-103.575"/>
</g>
<!-- Node6 -->
<g id="node6" class="node"><title>Node6</title>
<polygon fill="none" stroke="#bfbfbf" points="126.5,-210.5 126.5,-229.5 279.5,-229.5 279.5,-210.5 126.5,-210.5"/>
<text text-anchor="middle" x="203" y="-217.5" font-family="Helvetica,sans-Serif" font-size="10.00">AliTPCCommonTransform3D.h</text>
</g>
<!-- Node2&#45;&gt;Node6 -->
<g id="edge5" class="edge"><title>Node2&#45;&gt;Node6</title>
<path fill="none" stroke="midnightblue" d="M292.956,-272.403C275.725,-262.557 247.26,-246.291 226.966,-234.695"/>
<polygon fill="midnightblue" stroke="midnightblue" points="228.435,-231.503 218.016,-229.581 224.962,-237.581 228.435,-231.503"/>
</g>
<!-- Node7 -->
<g id="node7" class="node"><title>Node7</title>
<g id="a_node7"><a xlink:href="../../d8/dad/TRDGeometryBase_8h.html" target="_top" xlink:title="TRDBase/TRDGeometryBase.h">
<polygon fill="none" stroke="black" points="400,-210.5 400,-229.5 558,-229.5 558,-210.5 400,-210.5"/>
<text text-anchor="middle" x="479" y="-217.5" font-family="Helvetica,sans-Serif" font-size="10.00">TRDBase/TRDGeometryBase.h</text>
</a>
</g>
</g>
<!-- Node2&#45;&gt;Node7 -->
<g id="edge6" class="edge"><title>Node2&#45;&gt;Node7</title>
<path fill="none" stroke="midnightblue" d="M332.5,-272.403C361.96,-262.067 411.579,-244.656 444.802,-232.999"/>
<polygon fill="midnightblue" stroke="midnightblue" points="446.268,-236.194 454.545,-229.581 443.95,-229.589 446.268,-236.194"/>
</g>
<!-- Node11 -->
<g id="node11" class="node"><title>Node11</title>
<g id="a_node11"><a xlink:href="../../de/df3/TRDPadPlane_8h.html" target="_top" xlink:title="TRDBase/TRDPadPlane.h">
<polygon fill="none" stroke="black" points="146,-142.5 146,-161.5 280,-161.5 280,-142.5 146,-142.5"/>
<text text-anchor="middle" x="213" y="-149.5" font-family="Helvetica,sans-Serif" font-size="10.00">TRDBase/TRDPadPlane.h</text>
</a>
</g>
</g>
<!-- Node2&#45;&gt;Node11 -->
<g id="edge14" class="edge"><title>Node2&#45;&gt;Node11</title>
<path fill="none" stroke="midnightblue" d="M231.946,-272.729C185.169,-265.897 131.486,-254.296 117,-236 108.171,-224.85 109.673,-216.19 117,-204 128.312,-185.181 149.17,-172.934 168.561,-165.172"/>
<polygon fill="midnightblue" stroke="midnightblue" points="170.04,-168.357 178.211,-161.612 167.617,-161.789 170.04,-168.357"/>
</g>
<!-- Node7&#45;&gt;Node5 -->
<g id="edge7" class="edge"><title>Node7&#45;&gt;Node5</title>
<path fill="none" stroke="midnightblue" d="M448.412,-210.398C423.9,-202.381 389.65,-188.546 365,-168 343.134,-149.774 326.022,-121.151 316.464,-102.733"/>
<polygon fill="midnightblue" stroke="midnightblue" points="319.544,-101.067 311.949,-93.6813 313.28,-104.192 319.544,-101.067"/>
</g>
<!-- Node8 -->
<g id="node8" class="node"><title>Node8</title>
<g id="a_node8"><a xlink:href="../../da/d32/TRDCommonParam_8h.html" target="_top" xlink:title="TRDBase/TRDCommonParam.h">
<polygon fill="none" stroke="black" points="374.5,-142.5 374.5,-161.5 535.5,-161.5 535.5,-142.5 374.5,-142.5"/>
<text text-anchor="middle" x="455" y="-149.5" font-family="Helvetica,sans-Serif" font-size="10.00">TRDBase/TRDCommonParam.h</text>
</a>
</g>
</g>
<!-- Node7&#45;&gt;Node8 -->
<g id="edge8" class="edge"><title>Node7&#45;&gt;Node8</title>
<path fill="none" stroke="midnightblue" d="M475.862,-210.372C472.289,-200.544 466.346,-184.202 461.715,-171.467"/>
<polygon fill="midnightblue" stroke="midnightblue" points="464.922,-170.043 458.215,-161.841 458.343,-172.435 464.922,-170.043"/>
</g>
<!-- Node7&#45;&gt;Node11 -->
<g id="edge11" class="edge"><title>Node7&#45;&gt;Node11</title>
<path fill="none" stroke="midnightblue" d="M444.498,-210.439C396.56,-198.545 309.781,-177.013 257.168,-163.959"/>
<polygon fill="midnightblue" stroke="midnightblue" points="257.99,-160.557 247.441,-161.546 256.304,-167.351 257.99,-160.557"/>
</g>
<!-- Node9 -->
<g id="node9" class="node"><title>Node9</title>
<g id="a_node9"><a xlink:href="../../d9/df4/TRDSimParam_8h.html" target="_top" xlink:title="TRDBase/TRDSimParam.h">
<polygon fill="none" stroke="black" points="393,-74.5 393,-93.5 531,-93.5 531,-74.5 393,-74.5"/>
<text text-anchor="middle" x="462" y="-81.5" font-family="Helvetica,sans-Serif" font-size="10.00">TRDBase/TRDSimParam.h</text>
</a>
</g>
</g>
<!-- Node8&#45;&gt;Node9 -->
<g id="edge9" class="edge"><title>Node8&#45;&gt;Node9</title>
<path fill="none" stroke="midnightblue" d="M455.915,-142.372C456.947,-132.643 458.656,-116.528 460.001,-103.85"/>
<polygon fill="midnightblue" stroke="midnightblue" points="463.488,-104.155 461.062,-93.8411 456.527,-103.416 463.488,-104.155"/>
</g>
<!-- Node10 -->
<g id="node10" class="node"><title>Node10</title>
<polygon fill="none" stroke="#bfbfbf" points="398,-6.5 398,-25.5 526,-25.5 526,-6.5 398,-6.5"/>
<text text-anchor="middle" x="462" y="-13.5" font-family="Helvetica,sans-Serif" font-size="10.00">AliTPCCommonRtypes.h</text>
</g>
<!-- Node9&#45;&gt;Node10 -->
<g id="edge10" class="edge"><title>Node9&#45;&gt;Node10</title>
<path fill="none" stroke="midnightblue" d="M462,-74.3717C462,-64.6426 462,-48.528 462,-35.8504"/>
<polygon fill="midnightblue" stroke="midnightblue" points="465.5,-35.8411 462,-25.8411 458.5,-35.8412 465.5,-35.8411"/>
</g>
<!-- Node11&#45;&gt;Node5 -->
<g id="edge13" class="edge"><title>Node11&#45;&gt;Node5</title>
<path fill="none" stroke="midnightblue" d="M225.42,-142.372C241.137,-131.452 268.433,-112.489 287.317,-99.369"/>
<polygon fill="midnightblue" stroke="midnightblue" points="289.362,-102.21 295.577,-93.6305 285.368,-96.4617 289.362,-102.21"/>
</g>
<!-- Node11&#45;&gt;Node10 -->
<g id="edge12" class="edge"><title>Node11&#45;&gt;Node10</title>
<path fill="none" stroke="midnightblue" d="M212.223,-142.309C211.233,-125.454 211.652,-88.209 232,-68 253.809,-46.3396 329.294,-32.5333 387.908,-24.8252"/>
<polygon fill="midnightblue" stroke="midnightblue" points="388.422,-28.2881 397.897,-23.5484 387.534,-21.3446 388.422,-28.2881"/>
</g>
<!-- Node12&#45;&gt;Node7 -->
<g id="edge16" class="edge"><title>Node12&#45;&gt;Node7</title>
<path fill="none" stroke="midnightblue" d="M1729.37,-277.921C1509.72,-267.922 816.228,-236.352 568.251,-225.063"/>
<polygon fill="midnightblue" stroke="midnightblue" points="568.347,-221.564 558.199,-224.605 568.029,-228.557 568.347,-221.564"/>
</g>
<!-- Node13 -->
<g id="node13" class="node"><title>Node13</title>
<g id="a_node13"><a xlink:href="../../d4/d20/DetMatrixCache_8h.html" target="_top" xlink:title="DetectorsCommonDataFormats\l/DetMatrixCache.h">
<polygon fill="none" stroke="black" points="1719,-205 1719,-235 1875,-235 1875,-205 1719,-205"/>
<text text-anchor="start" x="1727" y="-223" font-family="Helvetica,sans-Serif" font-size="10.00">DetectorsCommonDataFormats</text>
<text text-anchor="middle" x="1797" y="-212" font-family="Helvetica,sans-Serif" font-size="10.00">/DetMatrixCache.h</text>
</a>
</g>
</g>
<!-- Node12&#45;&gt;Node13 -->
<g id="edge17" class="edge"><title>Node12&#45;&gt;Node13</title>
<path fill="none" stroke="midnightblue" d="M1797,-272.403C1797,-265.341 1797,-254.975 1797,-245.399"/>
<polygon fill="midnightblue" stroke="midnightblue" points="1800.5,-245.141 1797,-235.141 1793.5,-245.141 1800.5,-245.141"/>
</g>
<!-- Node16 -->
<g id="node16" class="node"><title>Node16</title>
<polygon fill="none" stroke="#bfbfbf" points="2110,-142.5 2110,-161.5 2154,-161.5 2154,-142.5 2110,-142.5"/>
<text text-anchor="middle" x="2132" y="-149.5" font-family="Helvetica,sans-Serif" font-size="10.00">vector</text>
</g>
<!-- Node12&#45;&gt;Node16 -->
<g id="edge47" class="edge"><title>Node12&#45;&gt;Node16</title>
<path fill="none" stroke="midnightblue" d="M1828.81,-272.468C1854.39,-264.885 1890.77,-252.453 1920,-236 1939.84,-224.832 1939.62,-214.155 1960,-204 2017.89,-175.15 2040.25,-190.197 2101,-168 2102.85,-167.323 2104.74,-166.571 2106.63,-165.775"/>
<polygon fill="midnightblue" stroke="midnightblue" points="2108.21,-168.902 2115.86,-161.568 2105.3,-162.533 2108.21,-168.902"/>
</g>
<!-- Node17 -->
<g id="node17" class="node"><title>Node17</title>
<g id="a_node17"><a xlink:href="../../d6/d31/DetID_8h.html" target="_top" xlink:title="DetectorsCommonDataFormats\l/DetID.h">
<polygon fill="none" stroke="black" points="1936,-137 1936,-167 2092,-167 2092,-137 1936,-137"/>
<text text-anchor="start" x="1944" y="-155" font-family="Helvetica,sans-Serif" font-size="10.00">DetectorsCommonDataFormats</text>
<text text-anchor="middle" x="2014" y="-144" font-family="Helvetica,sans-Serif" font-size="10.00">/DetID.h</text>
</a>
</g>
</g>
<!-- Node12&#45;&gt;Node17 -->
<g id="edge45" class="edge"><title>Node12&#45;&gt;Node17</title>
<path fill="none" stroke="midnightblue" d="M1815.81,-272.364C1833.77,-263.868 1861.36,-250.149 1884,-236 1904.2,-223.375 1907.14,-217.155 1927,-204 1943.84,-192.847 1963.17,-181.39 1979.32,-172.167"/>
<polygon fill="midnightblue" stroke="midnightblue" points="1981.45,-174.986 1988.43,-167.014 1978,-168.894 1981.45,-174.986"/>
</g>
<!-- Node37 -->
<g id="node37" class="node"><title>Node37</title>
<polygon fill="none" stroke="#bfbfbf" points="1969.5,-210.5 1969.5,-229.5 2010.5,-229.5 2010.5,-210.5 1969.5,-210.5"/>
<text text-anchor="middle" x="1990" y="-217.5" font-family="Helvetica,sans-Serif" font-size="10.00">string</text>
</g>
<!-- Node12&#45;&gt;Node37 -->
<g id="edge46" class="edge"><title>Node12&#45;&gt;Node37</title>
<path fill="none" stroke="midnightblue" d="M1831.92,-272.421C1864.21,-264.168 1913.34,-250.792 1955,-236 1957.26,-235.197 1959.58,-234.321 1961.9,-233.408"/>
<polygon fill="midnightblue" stroke="midnightblue" points="1963.37,-236.589 1971.28,-229.542 1960.7,-230.117 1963.37,-236.589"/>
</g>
<!-- Node38 -->
<g id="node38" class="node"><title>Node38</title>
<polygon fill="none" stroke="#bfbfbf" points="1649,-210.5 1649,-229.5 1701,-229.5 1701,-210.5 1649,-210.5"/>
<text text-anchor="middle" x="1675" y="-217.5" font-family="Helvetica,sans-Serif" font-size="10.00">memory</text>
</g>
<!-- Node12&#45;&gt;Node38 -->
<g id="edge48" class="edge"><title>Node12&#45;&gt;Node38</title>
<path fill="none" stroke="midnightblue" d="M1779.52,-272.403C1759.14,-262.379 1725.22,-245.701 1701.58,-234.07"/>
<polygon fill="midnightblue" stroke="midnightblue" points="1702.97,-230.853 1692.45,-229.581 1699.88,-237.135 1702.97,-230.853"/>
</g>
<!-- Node13&#45;&gt;Node10 -->
<g id="edge19" class="edge"><title>Node13&#45;&gt;Node10</title>
<path fill="none" stroke="midnightblue" d="M1718.79,-205.183C1715.83,-204.765 1712.89,-204.368 1710,-204 1518.44,-179.571 1469.33,-185.376 1277,-168 967.014,-139.994 868.348,-217.18 580,-100 558.908,-91.4287 558.437,-81.3559 540,-68 521.818,-54.829 500.429,-40.9519 484.652,-31.004"/>
<polygon fill="midnightblue" stroke="midnightblue" points="486.411,-27.9761 476.078,-25.636 482.697,-33.9092 486.411,-27.9761"/>
</g>
<!-- Node14 -->
<g id="node14" class="node"><title>Node14</title>
<polygon fill="none" stroke="#bfbfbf" points="1776,-142.5 1776,-161.5 1918,-161.5 1918,-142.5 1776,-142.5"/>
<text text-anchor="middle" x="1847" y="-149.5" font-family="Helvetica,sans-Serif" font-size="10.00">AliTPCCommonFairLogger.h</text>
</g>
<!-- Node13&#45;&gt;Node14 -->
<g id="edge18" class="edge"><title>Node13&#45;&gt;Node14</title>
<path fill="none" stroke="midnightblue" d="M1807.85,-204.679C1815.57,-194.49 1825.97,-180.759 1834.11,-170.011"/>
<polygon fill="midnightblue" stroke="midnightblue" points="1837.06,-171.913 1840.31,-161.828 1831.48,-167.686 1837.06,-171.913"/>
</g>
<!-- Node15 -->
<g id="node15" class="node"><title>Node15</title>
<polygon fill="none" stroke="#bfbfbf" points="1944,-6.5 1944,-25.5 1982,-25.5 1982,-6.5 1944,-6.5"/>
<text text-anchor="middle" x="1963" y="-13.5" font-family="Helvetica,sans-Serif" font-size="10.00">array</text>
</g>
<!-- Node13&#45;&gt;Node15 -->
<g id="edge20" class="edge"><title>Node13&#45;&gt;Node15</title>
<path fill="none" stroke="midnightblue" d="M1785.82,-204.773C1778.91,-195.031 1770.67,-181.48 1767,-168 1754.63,-122.566 1766.02,-98.375 1802,-68 1840.17,-35.7761 1898.85,-23.8547 1933.83,-19.4849"/>
<polygon fill="midnightblue" stroke="midnightblue" points="1934.32,-22.9509 1943.87,-18.3571 1933.54,-15.9946 1934.32,-22.9509"/>
</g>
<!-- Node13&#45;&gt;Node16 -->
<g id="edge21" class="edge"><title>Node13&#45;&gt;Node16</title>
<path fill="none" stroke="midnightblue" d="M1875.27,-208.446C1950.98,-197.774 2060.08,-181.037 2101,-168 2103.13,-167.322 2105.3,-166.522 2107.45,-165.65"/>
<polygon fill="midnightblue" stroke="midnightblue" points="2108.91,-168.829 2116.59,-161.525 2106.03,-162.449 2108.91,-168.829"/>
</g>
<!-- Node13&#45;&gt;Node17 -->
<g id="edge22" class="edge"><title>Node13&#45;&gt;Node17</title>
<path fill="none" stroke="midnightblue" d="M1843.29,-204.922C1876.85,-194.714 1922.41,-180.857 1958.02,-170.025"/>
<polygon fill="midnightblue" stroke="midnightblue" points="1959.24,-173.315 1967.79,-167.056 1957.2,-166.617 1959.24,-173.315"/>
</g>
<!-- Node26 -->
<g id="node26" class="node"><title>Node26</title>
<g id="a_node26"><a xlink:href="../../dd/d76/Cartesian3D_8h.html" target="_top" xlink:title="MathUtils/Cartesian3D.h">
<polygon fill="none" stroke="black" points="1286.5,-142.5 1286.5,-161.5 1411.5,-161.5 1411.5,-142.5 1286.5,-142.5"/>
<text text-anchor="middle" x="1349" y="-149.5" font-family="Helvetica,sans-Serif" font-size="10.00">MathUtils/Cartesian3D.h</text>
</a>
</g>
</g>
<!-- Node13&#45;&gt;Node26 -->
<g id="edge33" class="edge"><title>Node13&#45;&gt;Node26</title>
<path fill="none" stroke="midnightblue" d="M1718.76,-205.396C1715.81,-204.918 1712.88,-204.451 1710,-204 1610.26,-188.361 1494.67,-172.412 1421.7,-162.61"/>
<polygon fill="midnightblue" stroke="midnightblue" points="1422.07,-159.129 1411.69,-161.269 1421.14,-166.067 1422.07,-159.129"/>
</g>
<!-- Node17&#45;&gt;Node15 -->
<g id="edge24" class="edge"><title>Node17&#45;&gt;Node15</title>
<path fill="none" stroke="midnightblue" d="M2003.39,-136.977C1996.39,-127.106 1987.52,-113.327 1982,-100 1973.27,-78.9167 1968.16,-53.0787 1965.48,-35.8872"/>
<polygon fill="midnightblue" stroke="midnightblue" points="1968.88,-34.9346 1963.99,-25.5315 1961.95,-35.9266 1968.88,-34.9346"/>
</g>
<!-- Node18 -->
<g id="node18" class="node"><title>Node18</title>
<polygon fill="none" stroke="#bfbfbf" points="1811,-74.5 1811,-93.5 1867,-93.5 1867,-74.5 1811,-74.5"/>
<text text-anchor="middle" x="1839" y="-81.5" font-family="Helvetica,sans-Serif" font-size="10.00">Rtypes.h</text>
</g>
<!-- Node17&#45;&gt;Node18 -->
<g id="edge23" class="edge"><title>Node17&#45;&gt;Node18</title>
<path fill="none" stroke="midnightblue" d="M1974.92,-136.924C1947.22,-126.858 1909.23,-112.871 1876,-100 1873.76,-99.1339 1871.46,-98.2279 1869.14,-97.3087"/>
<polygon fill="midnightblue" stroke="midnightblue" points="1870.28,-93.9965 1859.7,-93.5235 1867.68,-100.494 1870.28,-93.9965"/>
</g>
<!-- Node19 -->
<g id="node19" class="node"><title>Node19</title>
<polygon fill="none" stroke="#bfbfbf" points="2243.5,-74.5 2243.5,-93.5 2284.5,-93.5 2284.5,-74.5 2243.5,-74.5"/>
<text text-anchor="middle" x="2264" y="-81.5" font-family="Helvetica,sans-Serif" font-size="10.00">bitset</text>
</g>
<!-- Node17&#45;&gt;Node19 -->
<g id="edge25" class="edge"><title>Node17&#45;&gt;Node19</title>
<path fill="none" stroke="midnightblue" d="M2092.16,-137.548C2134.79,-129.056 2188.08,-116.542 2234,-100 2235.85,-99.334 2237.73,-98.5829 2239.61,-97.7807"/>
<polygon fill="midnightblue" stroke="midnightblue" points="2241.17,-100.915 2248.74,-93.5015 2238.2,-94.577 2241.17,-100.915"/>
</g>
<!-- Node20 -->
<g id="node20" class="node"><title>Node20</title>
<polygon fill="none" stroke="#bfbfbf" points="1885.5,-74.5 1885.5,-93.5 1934.5,-93.5 1934.5,-74.5 1885.5,-74.5"/>
<text text-anchor="middle" x="1910" y="-81.5" font-family="Helvetica,sans-Serif" font-size="10.00">cassert</text>
</g>
<!-- Node17&#45;&gt;Node20 -->
<g id="edge26" class="edge"><title>Node17&#45;&gt;Node20</title>
<path fill="none" stroke="midnightblue" d="M1991.69,-136.841C1974.1,-125.681 1949.71,-110.198 1932.16,-99.0625"/>
<polygon fill="midnightblue" stroke="midnightblue" points="1934,-96.085 1923.68,-93.6819 1930.25,-101.995 1934,-96.085"/>
</g>
<!-- Node21 -->
<g id="node21" class="node"><title>Node21</title>
<polygon fill="none" stroke="#bfbfbf" points="1991,-74.5 1991,-93.5 2037,-93.5 2037,-74.5 1991,-74.5"/>
<text text-anchor="middle" x="2014" y="-81.5" font-family="Helvetica,sans-Serif" font-size="10.00">cstdint</text>
</g>
<!-- Node17&#45;&gt;Node21 -->
<g id="edge27" class="edge"><title>Node17&#45;&gt;Node21</title>
<path fill="none" stroke="midnightblue" d="M2014,-136.679C2014,-127.101 2014,-114.394 2014,-103.977"/>
<polygon fill="midnightblue" stroke="midnightblue" points="2017.5,-103.828 2014,-93.8283 2010.5,-103.828 2017.5,-103.828"/>
</g>
<!-- Node22 -->
<g id="node22" class="node"><title>Node22</title>
<polygon fill="none" stroke="#bfbfbf" points="2055,-74.5 2055,-93.5 2117,-93.5 2117,-74.5 2055,-74.5"/>
<text text-anchor="middle" x="2086" y="-81.5" font-family="Helvetica,sans-Serif" font-size="10.00">type_traits</text>
</g>
<!-- Node17&#45;&gt;Node22 -->
<g id="edge28" class="edge"><title>Node17&#45;&gt;Node22</title>
<path fill="none" stroke="midnightblue" d="M2029.62,-136.679C2041.18,-126.082 2056.92,-111.655 2068.83,-100.736"/>
<polygon fill="midnightblue" stroke="midnightblue" points="2071.36,-103.166 2076.37,-93.8283 2066.63,-98.0055 2071.36,-103.166"/>
</g>
<!-- Node23 -->
<g id="node23" class="node"><title>Node23</title>
<g id="a_node23"><a xlink:href="../../d9/d52/Common_2MathUtils_2include_2MathUtils_2Utils_8h.html" target="_top" xlink:title="MathUtils/Utils.h">
<polygon fill="none" stroke="black" points="2135,-74.5 2135,-93.5 2225,-93.5 2225,-74.5 2135,-74.5"/>
<text text-anchor="middle" x="2180" y="-81.5" font-family="Helvetica,sans-Serif" font-size="10.00">MathUtils/Utils.h</text>
</a>
</g>
</g>
<!-- Node17&#45;&gt;Node23 -->
<g id="edge29" class="edge"><title>Node17&#45;&gt;Node23</title>
<path fill="none" stroke="midnightblue" d="M2049.61,-136.841C2079.1,-125.118 2120.58,-108.624 2148.78,-97.4113"/>
<polygon fill="midnightblue" stroke="midnightblue" points="2150.16,-100.629 2158.16,-93.6819 2147.58,-94.1242 2150.16,-100.629"/>
</g>
<!-- Node23&#45;&gt;Node15 -->
<g id="edge30" class="edge"><title>Node23&#45;&gt;Node15</title>
<path fill="none" stroke="midnightblue" d="M2151.63,-74.3717C2110.22,-61.7769 2033.63,-38.4807 1991.91,-25.7932"/>
<polygon fill="midnightblue" stroke="midnightblue" points="1992.69,-22.3705 1982.1,-22.8091 1990.65,-29.0676 1992.69,-22.3705"/>
</g>
<!-- Node24 -->
<g id="node24" class="node"><title>Node24</title>
<polygon fill="none" stroke="#bfbfbf" points="2093,-6.5 2093,-25.5 2137,-25.5 2137,-6.5 2093,-6.5"/>
<text text-anchor="middle" x="2115" y="-13.5" font-family="Helvetica,sans-Serif" font-size="10.00">cmath</text>
</g>
<!-- Node23&#45;&gt;Node24 -->
<g id="edge31" class="edge"><title>Node23&#45;&gt;Node24</title>
<path fill="none" stroke="midnightblue" d="M2171.5,-74.3717C2161.24,-63.9547 2143.77,-46.2173 2130.97,-33.2162"/>
<polygon fill="midnightblue" stroke="midnightblue" points="2133.22,-30.5101 2123.71,-25.8411 2128.23,-35.4219 2133.22,-30.5101"/>
</g>
<!-- Node25 -->
<g id="node25" class="node"><title>Node25</title>
<g id="a_node25"><a xlink:href="../../d6/d84/MathConstants_8h.html" target="_top" xlink:title="useful math constants ">
<polygon fill="none" stroke="black" points="2155.5,-6.5 2155.5,-25.5 2334.5,-25.5 2334.5,-6.5 2155.5,-6.5"/>
<text text-anchor="middle" x="2245" y="-13.5" font-family="Helvetica,sans-Serif" font-size="10.00">CommonConstants/MathConstants.h</text>
</a>
</g>
</g>
<!-- Node23&#45;&gt;Node25 -->
<g id="edge32" class="edge"><title>Node23&#45;&gt;Node25</title>
<path fill="none" stroke="midnightblue" d="M2188.5,-74.3717C2198.76,-63.9547 2216.23,-46.2173 2229.03,-33.2162"/>
<polygon fill="midnightblue" stroke="midnightblue" points="2231.77,-35.4219 2236.29,-25.8411 2226.78,-30.5101 2231.77,-35.4219"/>
</g>
<!-- Node26&#45;&gt;Node18 -->
<g id="edge39" class="edge"><title>Node26&#45;&gt;Node18</title>
<path fill="none" stroke="midnightblue" d="M1411.62,-144.711C1492.88,-136.225 1638.93,-119.859 1763,-100 1775.45,-98.0072 1788.97,-95.4623 1801.12,-93.037"/>
<polygon fill="midnightblue" stroke="midnightblue" points="1801.83,-96.463 1810.93,-91.0425 1800.44,-89.6031 1801.83,-96.463"/>
</g>
<!-- Node27 -->
<g id="node27" class="node"><title>Node27</title>
<polygon fill="none" stroke="#bfbfbf" points="652.5,-69 652.5,-99 803.5,-99 803.5,-69 652.5,-69"/>
<text text-anchor="start" x="660.5" y="-87" font-family="Helvetica,sans-Serif" font-size="10.00">Math/GenVector/Displacement</text>
<text text-anchor="middle" x="728" y="-76" font-family="Helvetica,sans-Serif" font-size="10.00">Vector3D.h</text>
</g>
<!-- Node26&#45;&gt;Node27 -->
<g id="edge34" class="edge"><title>Node26&#45;&gt;Node27</title>
<path fill="none" stroke="midnightblue" d="M1286.1,-146.651C1187.63,-139.481 990.909,-123.709 813.966,-100.063"/>
<polygon fill="midnightblue" stroke="midnightblue" points="814.331,-96.5801 803.953,-98.713 813.396,-103.517 814.331,-96.5801"/>
</g>
<!-- Node28 -->
<g id="node28" class="node"><title>Node28</title>
<polygon fill="none" stroke="#bfbfbf" points="822,-74.5 822,-93.5 998,-93.5 998,-74.5 822,-74.5"/>
<text text-anchor="middle" x="910" y="-81.5" font-family="Helvetica,sans-Serif" font-size="10.00">Math/GenVector/PositionVector3D.h</text>
</g>
<!-- Node26&#45;&gt;Node28 -->
<g id="edge35" class="edge"><title>Node26&#45;&gt;Node28</title>
<path fill="none" stroke="midnightblue" d="M1290.72,-142.468C1222.46,-132.445 1105.99,-115.245 1006,-100 995.701,-98.4297 984.783,-96.744 974.145,-95.09"/>
<polygon fill="midnightblue" stroke="midnightblue" points="974.481,-91.6001 964.061,-93.5187 973.403,-98.5166 974.481,-91.6001"/>
</g>
<!-- Node29 -->
<g id="node29" class="node"><title>Node29</title>
<polygon fill="none" stroke="#bfbfbf" points="1015.5,-74.5 1015.5,-93.5 1164.5,-93.5 1164.5,-74.5 1015.5,-74.5"/>
<text text-anchor="middle" x="1090" y="-81.5" font-family="Helvetica,sans-Serif" font-size="10.00">Math/GenVector/Rotation3D.h</text>
</g>
<!-- Node26&#45;&gt;Node29 -->
<g id="edge36" class="edge"><title>Node26&#45;&gt;Node29</title>
<path fill="none" stroke="midnightblue" d="M1315.41,-142.439C1268.83,-130.57 1184.58,-109.103 1133.33,-96.0406"/>
<polygon fill="midnightblue" stroke="midnightblue" points="1134.09,-92.6233 1123.53,-93.5455 1132.36,-99.4066 1134.09,-92.6233"/>
</g>
<!-- Node30 -->
<g id="node30" class="node"><title>Node30</title>
<polygon fill="none" stroke="#bfbfbf" points="1183,-74.5 1183,-93.5 1339,-93.5 1339,-74.5 1183,-74.5"/>
<text text-anchor="middle" x="1261" y="-81.5" font-family="Helvetica,sans-Serif" font-size="10.00">Math/GenVector/Transform3D.h</text>
</g>
<!-- Node26&#45;&gt;Node30 -->
<g id="edge37" class="edge"><title>Node26&#45;&gt;Node30</title>
<path fill="none" stroke="midnightblue" d="M1337.5,-142.372C1323.13,-131.6 1298.34,-113.002 1280.88,-99.9065"/>
<polygon fill="midnightblue" stroke="midnightblue" points="1282.61,-96.8305 1272.51,-93.6305 1278.41,-102.431 1282.61,-96.8305"/>
</g>
<!-- Node31 -->
<g id="node31" class="node"><title>Node31</title>
<polygon fill="none" stroke="#bfbfbf" points="1357,-74.5 1357,-93.5 1517,-93.5 1517,-74.5 1357,-74.5"/>
<text text-anchor="middle" x="1437" y="-81.5" font-family="Helvetica,sans-Serif" font-size="10.00">Math/GenVector/Translation3D.h</text>
</g>
<!-- Node26&#45;&gt;Node31 -->
<g id="edge38" class="edge"><title>Node26&#45;&gt;Node31</title>
<path fill="none" stroke="midnightblue" d="M1360.5,-142.372C1374.87,-131.6 1399.66,-113.002 1417.12,-99.9065"/>
<polygon fill="midnightblue" stroke="midnightblue" points="1419.59,-102.431 1425.49,-93.6305 1415.39,-96.8305 1419.59,-102.431"/>
</g>
<!-- Node32 -->
<g id="node32" class="node"><title>Node32</title>
<polygon fill="none" stroke="#bfbfbf" points="1535,-74.5 1535,-93.5 1611,-93.5 1611,-74.5 1535,-74.5"/>
<text text-anchor="middle" x="1573" y="-81.5" font-family="Helvetica,sans-Serif" font-size="10.00">TGeoMatrix.h</text>
</g>
<!-- Node26&#45;&gt;Node32 -->
<g id="edge40" class="edge"><title>Node26&#45;&gt;Node32</title>
<path fill="none" stroke="midnightblue" d="M1379.77,-142.419C1415.14,-132.49 1474.9,-115.514 1526,-100 1529.57,-98.9161 1533.29,-97.7668 1537,-96.6057"/>
<polygon fill="midnightblue" stroke="midnightblue" points="1538.21,-99.8922 1546.69,-93.5413 1536.1,-93.2175 1538.21,-99.8922"/>
</g>
<!-- Node33 -->
<g id="node33" class="node"><title>Node33</title>
<polygon fill="none" stroke="#bfbfbf" points="589.5,-74.5 589.5,-93.5 634.5,-93.5 634.5,-74.5 589.5,-74.5"/>
<text text-anchor="middle" x="612" y="-81.5" font-family="Helvetica,sans-Serif" font-size="10.00">iosfwd</text>
</g>
<!-- Node26&#45;&gt;Node33 -->
<g id="edge41" class="edge"><title>Node26&#45;&gt;Node33</title>
<path fill="none" stroke="midnightblue" d="M1286.24,-149.492C1136.82,-145.415 763.495,-132.233 643,-100 640.661,-99.3742 638.286,-98.5711 635.945,-97.6623"/>
<polygon fill="midnightblue" stroke="midnightblue" points="637.251,-94.4119 626.694,-93.5157 634.387,-100.8 637.251,-94.4119"/>
</g>
<!-- Node34 -->
<g id="node34" class="node"><title>Node34</title>
<g id="a_node34"><a xlink:href="../../d2/dd0/Cartesian2D_8h.html" target="_top" xlink:title="MathUtils/Cartesian2D.h">
<polygon fill="none" stroke="black" points="1629.5,-74.5 1629.5,-93.5 1754.5,-93.5 1754.5,-74.5 1629.5,-74.5"/>
<text text-anchor="middle" x="1692" y="-81.5" font-family="Helvetica,sans-Serif" font-size="10.00">MathUtils/Cartesian2D.h</text>
</a>
</g>
</g>
<!-- Node26&#45;&gt;Node34 -->
<g id="edge42" class="edge"><title>Node26&#45;&gt;Node34</title>
<path fill="none" stroke="midnightblue" d="M1396.05,-142.431C1450.15,-132.513 1541.58,-115.547 1620,-100 1627.06,-98.6003 1634.5,-97.0896 1641.82,-95.5847"/>
<polygon fill="midnightblue" stroke="midnightblue" points="1642.58,-99.0012 1651.66,-93.5472 1641.16,-92.1464 1642.58,-99.0012"/>
</g>
<!-- Node35 -->
<g id="node35" class="node"><title>Node35</title>
<polygon fill="none" stroke="#bfbfbf" points="1695.5,-1 1695.5,-31 1846.5,-31 1846.5,-1 1695.5,-1"/>
<text text-anchor="start" x="1703.5" y="-19" font-family="Helvetica,sans-Serif" font-size="10.00">Math/GenVector/Displacement</text>
<text text-anchor="middle" x="1771" y="-8" font-family="Helvetica,sans-Serif" font-size="10.00">Vector2D.h</text>
</g>
<!-- Node34&#45;&gt;Node35 -->
<g id="edge43" class="edge"><title>Node34&#45;&gt;Node35</title>
<path fill="none" stroke="midnightblue" d="M1702.33,-74.3717C1713.41,-65.1143 1731.41,-50.0756 1746.2,-37.7175"/>
<polygon fill="midnightblue" stroke="midnightblue" points="1748.59,-40.2789 1754.03,-31.1815 1744.11,-34.9069 1748.59,-40.2789"/>
</g>
<!-- Node36 -->
<g id="node36" class="node"><title>Node36</title>
<polygon fill="none" stroke="#bfbfbf" points="1501,-6.5 1501,-25.5 1677,-25.5 1677,-6.5 1501,-6.5"/>
<text text-anchor="middle" x="1589" y="-13.5" font-family="Helvetica,sans-Serif" font-size="10.00">Math/GenVector/PositionVector2D.h</text>
</g>
<!-- Node34&#45;&gt;Node36 -->
<g id="edge44" class="edge"><title>Node34&#45;&gt;Node36</title>
<path fill="none" stroke="midnightblue" d="M1678.53,-74.3717C1661.42,-63.4027 1631.63,-44.317 1611.15,-31.1912"/>
<polygon fill="midnightblue" stroke="midnightblue" points="1612.78,-28.0788 1602.47,-25.6305 1609,-33.9726 1612.78,-28.0788"/>
</g>
</g>
</svg>
