<?xml version="1.0" encoding="UTF-8" standalone="no"?>
<!DOCTYPE svg PUBLIC "-//W3C//DTD SVG 1.1//EN"
 "http://www.w3.org/Graphics/SVG/1.1/DTD/svg11.dtd">
<!-- Generated by graphviz version 2.36.0 (20140111.2315)
 -->
<!-- Title: o2::algorithm::ReverseParser&lt; HeaderT, TrailerT &gt; Pages: 1 -->
<svg width="152pt" height="206pt"
 viewBox="0.00 0.00 152.00 206.00" xmlns="http://www.w3.org/2000/svg" xmlns:xlink="http://www.w3.org/1999/xlink">
<g id="graph0" class="graph" transform="scale(1 1) rotate(0) translate(4 202)">
<title>o2::algorithm::ReverseParser&lt; HeaderT, TrailerT &gt;</title>
<!-- Node1 -->
<g id="node1" class="node"><title>Node1</title>
<polygon fill="#bfbfbf" stroke="black" points="0,-1 0,-69 144,-69 144,-1 0,-1"/>
<text text-anchor="start" x="8" y="-57" font-family="Helvetica,sans-Serif" font-size="10.00">o2::algorithm::ReverseParser</text>
<text text-anchor="middle" x="72" y="-46" font-family="Helvetica,sans-Serif" font-size="10.00">&lt; HeaderT, TrailerT &gt;</text>
<polyline fill="none" stroke="black" points="0,-39 144,-39 "/>
<text text-anchor="middle" x="72" y="-27" font-family="Helvetica,sans-Serif" font-size="10.00"> </text>
<polyline fill="none" stroke="black" points="0,-20 144,-20 "/>
<text text-anchor="start" x="8" y="-8" font-family="Helvetica,sans-Serif" font-size="10.00">+ parse()</text>
</g>
<!-- Node2 -->
<g id="node2" class="node"><title>Node2</title>
<g id="a_node2"><a xlink:href="../../dd/de2/classsize__t.html" target="_top" xlink:title="{size_t\n||}">
<polygon fill="none" stroke="black" points="50.5,-140.5 50.5,-197.5 93.5,-197.5 93.5,-140.5 50.5,-140.5"/>
<text text-anchor="middle" x="72" y="-185.5" font-family="Helvetica,sans-Serif" font-size="10.00">size_t</text>
<polyline fill="none" stroke="black" points="50.5,-178.5 93.5,-178.5 "/>
<text text-anchor="middle" x="72" y="-166.5" font-family="Helvetica,sans-Serif" font-size="10.00"> </text>
<polyline fill="none" stroke="black" points="50.5,-159.5 93.5,-159.5 "/>
<text text-anchor="middle" x="72" y="-147.5" font-family="Helvetica,sans-Serif" font-size="10.00"> </text>
</a>
</g>
</g>
<!-- Node2&#45;&gt;Node1 -->
<g id="edge1" class="edge"><title>Node2&#45;&gt;Node1</title>
<path fill="none" stroke="#404040" d="M72,-140.328C72,-123.256 72,-100.946 72,-81.3412"/>
<polygon fill="none" stroke="#404040" points="72.0001,-81.2439 68,-75.244 72,-69.2439 76,-75.2439 72.0001,-81.2439"/>
<text text-anchor="middle" x="101" y="-113.5" font-family="Helvetica,sans-Serif" font-size="10.00"> +headOffset</text>
<text text-anchor="middle" x="101" y="-102.5" font-family="Helvetica,sans-Serif" font-size="10.00">+tailOffset</text>
<text text-anchor="middle" x="101" y="-91.5" font-family="Helvetica,sans-Serif" font-size="10.00">+totalOffset</text>
</g>
</g>
</svg>
