<?xml version="1.0" encoding="UTF-8" standalone="no"?>
<!DOCTYPE svg PUBLIC "-//W3C//DTD SVG 1.1//EN"
 "http://www.w3.org/Graphics/SVG/1.1/DTD/svg11.dtd">
<!-- Generated by graphviz version 2.36.0 (20140111.2315)
 -->
<!-- Title: /home/travis/build/AliceO2Group/AliceO2/CCDB/include/CCDB/Storage.h Pages: 1 -->
<svg width="732pt" height="206pt"
 viewBox="0.00 0.00 732.00 206.00" xmlns="http://www.w3.org/2000/svg" xmlns:xlink="http://www.w3.org/1999/xlink">
<g id="graph0" class="graph" transform="scale(1 1) rotate(0) translate(4 202)">
<title>/home/travis/build/AliceO2Group/AliceO2/CCDB/include/CCDB/Storage.h</title>
<!-- Node1 -->
<g id="node1" class="node"><title>Node1</title>
<polygon fill="#bfbfbf" stroke="black" points="314,-156.5 314,-197.5 474,-197.5 474,-156.5 314,-156.5"/>
<text text-anchor="start" x="322" y="-185.5" font-family="Helvetica,sans-Serif" font-size="10.00">/home/travis/build</text>
<text text-anchor="start" x="322" y="-174.5" font-family="Helvetica,sans-Serif" font-size="10.00">/AliceO2Group/AliceO2</text>
<text text-anchor="middle" x="394" y="-163.5" font-family="Helvetica,sans-Serif" font-size="10.00">/CCDB/include/CCDB/Storage.h</text>
</g>
<!-- Node2 -->
<g id="node2" class="node"><title>Node2</title>
<g id="a_node2"><a xlink:href="../../df/d0e/FileStorage_8h.html" target="_top" xlink:title="/home/travis/build\l/AliceO2Group/AliceO2\l/CCDB/include/CCDB/FileStorage.h">
<polygon fill="none" stroke="black" points="12,-78.5 12,-119.5 188,-119.5 188,-78.5 12,-78.5"/>
<text text-anchor="start" x="20" y="-107.5" font-family="Helvetica,sans-Serif" font-size="10.00">/home/travis/build</text>
<text text-anchor="start" x="20" y="-96.5" font-family="Helvetica,sans-Serif" font-size="10.00">/AliceO2Group/AliceO2</text>
<text text-anchor="middle" x="100" y="-85.5" font-family="Helvetica,sans-Serif" font-size="10.00">/CCDB/include/CCDB/FileStorage.h</text>
</a>
</g>
</g>
<!-- Node1&#45;&gt;Node2 -->
<g id="edge1" class="edge"><title>Node1&#45;&gt;Node2</title>
<path fill="none" stroke="midnightblue" d="M308.604,-153.925C266.49,-143.038 216.138,-130.022 175.456,-119.506"/>
<polygon fill="midnightblue" stroke="midnightblue" points="307.73,-157.314 318.288,-156.428 309.482,-150.537 307.73,-157.314"/>
</g>
<!-- Node5 -->
<g id="node5" class="node"><title>Node5</title>
<g id="a_node5"><a xlink:href="../../d6/d01/GridStorage_8h.html" target="_top" xlink:title="/home/travis/build\l/AliceO2Group/AliceO2\l/CCDB/include/CCDB/GridStorage.h">
<polygon fill="none" stroke="black" points="206,-78.5 206,-119.5 384,-119.5 384,-78.5 206,-78.5"/>
<text text-anchor="start" x="214" y="-107.5" font-family="Helvetica,sans-Serif" font-size="10.00">/home/travis/build</text>
<text text-anchor="start" x="214" y="-96.5" font-family="Helvetica,sans-Serif" font-size="10.00">/AliceO2Group/AliceO2</text>
<text text-anchor="middle" x="295" y="-85.5" font-family="Helvetica,sans-Serif" font-size="10.00">/CCDB/include/CCDB/GridStorage.h</text>
</a>
</g>
</g>
<!-- Node1&#45;&gt;Node5 -->
<g id="edge4" class="edge"><title>Node1&#45;&gt;Node5</title>
<path fill="none" stroke="midnightblue" d="M360.216,-150.065C347.18,-140.057 332.522,-128.804 320.409,-119.506"/>
<polygon fill="midnightblue" stroke="midnightblue" points="358.442,-153.115 368.505,-156.428 362.704,-147.562 358.442,-153.115"/>
</g>
<!-- Node7 -->
<g id="node7" class="node"><title>Node7</title>
<g id="a_node7"><a xlink:href="../../d8/d9b/LocalStorage_8h.html" target="_top" xlink:title="/home/travis/build\l/AliceO2Group/AliceO2\l/CCDB/include/CCDB/LocalStorage.h">
<polygon fill="none" stroke="black" points="402.5,-78.5 402.5,-119.5 585.5,-119.5 585.5,-78.5 402.5,-78.5"/>
<text text-anchor="start" x="410.5" y="-107.5" font-family="Helvetica,sans-Serif" font-size="10.00">/home/travis/build</text>
<text text-anchor="start" x="410.5" y="-96.5" font-family="Helvetica,sans-Serif" font-size="10.00">/AliceO2Group/AliceO2</text>
<text text-anchor="middle" x="494" y="-85.5" font-family="Helvetica,sans-Serif" font-size="10.00">/CCDB/include/CCDB/LocalStorage.h</text>
</a>
</g>
</g>
<!-- Node1&#45;&gt;Node7 -->
<g id="edge7" class="edge"><title>Node1&#45;&gt;Node7</title>
<path fill="none" stroke="midnightblue" d="M427.75,-150.35C441.011,-140.272 455.983,-128.893 468.335,-119.506"/>
<polygon fill="midnightblue" stroke="midnightblue" points="425.596,-147.591 419.752,-156.428 429.832,-153.164 425.596,-147.591"/>
</g>
<!-- Node9 -->
<g id="node9" class="node"><title>Node9</title>
<g id="a_node9"><a xlink:href="../../db/d03/Storage_8cxx.html" target="_top" xlink:title="/home/travis/build\l/AliceO2Group/AliceO2\l/CCDB/src/Storage.cxx">
<polygon fill="none" stroke="black" points="603.5,-78.5 603.5,-119.5 724.5,-119.5 724.5,-78.5 603.5,-78.5"/>
<text text-anchor="start" x="611.5" y="-107.5" font-family="Helvetica,sans-Serif" font-size="10.00">/home/travis/build</text>
<text text-anchor="start" x="611.5" y="-96.5" font-family="Helvetica,sans-Serif" font-size="10.00">/AliceO2Group/AliceO2</text>
<text text-anchor="middle" x="664" y="-85.5" font-family="Helvetica,sans-Serif" font-size="10.00">/CCDB/src/Storage.cxx</text>
</a>
</g>
</g>
<!-- Node1&#45;&gt;Node9 -->
<g id="edge10" class="edge"><title>Node1&#45;&gt;Node9</title>
<path fill="none" stroke="midnightblue" d="M474.465,-153.575C510.966,-143.375 554.674,-131.124 594,-120 597.04,-119.14 600.155,-118.257 603.299,-117.364"/>
<polygon fill="midnightblue" stroke="midnightblue" points="473.06,-150.333 464.37,-156.394 474.943,-157.075 473.06,-150.333"/>
</g>
<!-- Node3 -->
<g id="node3" class="node"><title>Node3</title>
<g id="a_node3"><a xlink:href="../../d8/d9a/FileStorage_8cxx.html" target="_top" xlink:title="/home/travis/build\l/AliceO2Group/AliceO2\l/CCDB/src/FileStorage.cxx">
<polygon fill="none" stroke="black" points="-0.5,-0.5 -0.5,-41.5 136.5,-41.5 136.5,-0.5 -0.5,-0.5"/>
<text text-anchor="start" x="7.5" y="-29.5" font-family="Helvetica,sans-Serif" font-size="10.00">/home/travis/build</text>
<text text-anchor="start" x="7.5" y="-18.5" font-family="Helvetica,sans-Serif" font-size="10.00">/AliceO2Group/AliceO2</text>
<text text-anchor="middle" x="68" y="-7.5" font-family="Helvetica,sans-Serif" font-size="10.00">/CCDB/src/FileStorage.cxx</text>
</a>
</g>
</g>
<!-- Node2&#45;&gt;Node3 -->
<g id="edge2" class="edge"><title>Node2&#45;&gt;Node3</title>
<path fill="none" stroke="midnightblue" d="M87.8629,-69.1744C83.9712,-59.9317 79.7553,-49.9188 76.2129,-41.5056"/>
<polygon fill="midnightblue" stroke="midnightblue" points="84.6528,-70.57 91.7592,-78.4281 91.1043,-67.8535 84.6528,-70.57"/>
</g>
<!-- Node4 -->
<g id="node4" class="node"><title>Node4</title>
<g id="a_node4"><a xlink:href="../../d0/da4/Manager_8cxx.html" target="_top" xlink:title="/home/travis/build\l/AliceO2Group/AliceO2\l/CCDB/src/Manager.cxx">
<polygon fill="none" stroke="black" points="154.5,-0.5 154.5,-41.5 279.5,-41.5 279.5,-0.5 154.5,-0.5"/>
<text text-anchor="start" x="162.5" y="-29.5" font-family="Helvetica,sans-Serif" font-size="10.00">/home/travis/build</text>
<text text-anchor="start" x="162.5" y="-18.5" font-family="Helvetica,sans-Serif" font-size="10.00">/AliceO2Group/AliceO2</text>
<text text-anchor="middle" x="217" y="-7.5" font-family="Helvetica,sans-Serif" font-size="10.00">/CCDB/src/Manager.cxx</text>
</a>
</g>
</g>
<!-- Node2&#45;&gt;Node4 -->
<g id="edge3" class="edge"><title>Node2&#45;&gt;Node4</title>
<path fill="none" stroke="midnightblue" d="M138.611,-72.9194C154.34,-62.702 172.247,-51.0701 186.972,-41.5056"/>
<polygon fill="midnightblue" stroke="midnightblue" points="136.61,-70.0456 130.13,-78.4281 140.423,-75.9158 136.61,-70.0456"/>
</g>
<!-- Node5&#45;&gt;Node4 -->
<g id="edge6" class="edge"><title>Node5&#45;&gt;Node4</title>
<path fill="none" stroke="midnightblue" d="M267.499,-71.204C257.453,-61.416 246.29,-50.5388 237.019,-41.5056"/>
<polygon fill="midnightblue" stroke="midnightblue" points="265.308,-73.9562 274.913,-78.4281 270.193,-68.9426 265.308,-73.9562"/>
</g>
<!-- Node6 -->
<g id="node6" class="node"><title>Node6</title>
<g id="a_node6"><a xlink:href="../../d7/df1/GridStorage_8cxx.html" target="_top" xlink:title="/home/travis/build\l/AliceO2Group/AliceO2\l/CCDB/src/GridStorage.cxx">
<polygon fill="none" stroke="black" points="297.5,-0.5 297.5,-41.5 436.5,-41.5 436.5,-0.5 297.5,-0.5"/>
<text text-anchor="start" x="305.5" y="-29.5" font-family="Helvetica,sans-Serif" font-size="10.00">/home/travis/build</text>
<text text-anchor="start" x="305.5" y="-18.5" font-family="Helvetica,sans-Serif" font-size="10.00">/AliceO2Group/AliceO2</text>
<text text-anchor="middle" x="367" y="-7.5" font-family="Helvetica,sans-Serif" font-size="10.00">/CCDB/src/GridStorage.cxx</text>
</a>
</g>
</g>
<!-- Node5&#45;&gt;Node6 -->
<g id="edge5" class="edge"><title>Node5&#45;&gt;Node6</title>
<path fill="none" stroke="midnightblue" d="M320.659,-70.9158C329.86,-61.2029 340.047,-50.4502 348.521,-41.5056"/>
<polygon fill="midnightblue" stroke="midnightblue" points="317.878,-68.7614 313.542,-78.4281 322.96,-73.5757 317.878,-68.7614"/>
</g>
<!-- Node7&#45;&gt;Node4 -->
<g id="edge9" class="edge"><title>Node7&#45;&gt;Node4</title>
<path fill="none" stroke="midnightblue" d="M411.584,-75.7806C373.887,-65.57 328.658,-53.2526 288,-42 285.285,-41.2485 282.512,-40.4785 279.711,-39.6987"/>
<polygon fill="midnightblue" stroke="midnightblue" points="410.934,-79.2305 421.501,-78.4652 412.763,-72.4737 410.934,-79.2305"/>
</g>
<!-- Node8 -->
<g id="node8" class="node"><title>Node8</title>
<g id="a_node8"><a xlink:href="../../da/d92/LocalStorage_8cxx.html" target="_top" xlink:title="/home/travis/build\l/AliceO2Group/AliceO2\l/CCDB/src/LocalStorage.cxx">
<polygon fill="none" stroke="black" points="455,-0.5 455,-41.5 599,-41.5 599,-0.5 455,-0.5"/>
<text text-anchor="start" x="463" y="-29.5" font-family="Helvetica,sans-Serif" font-size="10.00">/home/travis/build</text>
<text text-anchor="start" x="463" y="-18.5" font-family="Helvetica,sans-Serif" font-size="10.00">/AliceO2Group/AliceO2</text>
<text text-anchor="middle" x="527" y="-7.5" font-family="Helvetica,sans-Serif" font-size="10.00">/CCDB/src/LocalStorage.cxx</text>
</a>
</g>
</g>
<!-- Node7&#45;&gt;Node8 -->
<g id="edge8" class="edge"><title>Node7&#45;&gt;Node8</title>
<path fill="none" stroke="midnightblue" d="M506.516,-69.1744C510.53,-59.9317 514.877,-49.9188 518.53,-41.5056"/>
<polygon fill="midnightblue" stroke="midnightblue" points="503.271,-67.8615 502.498,-78.4281 509.692,-70.6495 503.271,-67.8615"/>
</g>
</g>
</svg>
