<?xml version="1.0" encoding="UTF-8" standalone="no"?>
<!DOCTYPE svg PUBLIC "-//W3C//DTD SVG 1.1//EN"
 "http://www.w3.org/Graphics/SVG/1.1/DTD/svg11.dtd">
<!-- Generated by graphviz version 2.36.0 (20140111.2315)
 -->
<!-- Title: o2::TPC::PublisherConf::BranchOptionConfig Pages: 1 -->
<svg width="128pt" height="206pt"
 viewBox="0.00 0.00 128.00 206.00" xmlns="http://www.w3.org/2000/svg" xmlns:xlink="http://www.w3.org/1999/xlink">
<g id="graph0" class="graph" transform="scale(1 1) rotate(0) translate(4 202)">
<title>o2::TPC::PublisherConf::BranchOptionConfig</title>
<!-- Node1 -->
<g id="node1" class="node"><title>Node1</title>
<polygon fill="#bfbfbf" stroke="black" points="-0.5,-1 -0.5,-69 120.5,-69 120.5,-1 -0.5,-1"/>
<text text-anchor="start" x="7.5" y="-57" font-family="Helvetica,sans-Serif" font-size="10.00">o2::TPC::PublisherConf</text>
<text text-anchor="middle" x="60" y="-46" font-family="Helvetica,sans-Serif" font-size="10.00">::BranchOptionConfig</text>
<polyline fill="none" stroke="black" points="-0.5,-39 120.5,-39 "/>
<text text-anchor="middle" x="60" y="-27" font-family="Helvetica,sans-Serif" font-size="10.00"> </text>
<polyline fill="none" stroke="black" points="-0.5,-20 120.5,-20 "/>
<text text-anchor="middle" x="60" y="-8" font-family="Helvetica,sans-Serif" font-size="10.00"> </text>
</g>
<!-- Node2 -->
<g id="node2" class="node"><title>Node2</title>
<g id="a_node2"><a xlink:href="../../d1/da0/classint.html" target="_top" xlink:title="{int\n||}">
<polygon fill="none" stroke="black" points="45.5,-140.5 45.5,-197.5 74.5,-197.5 74.5,-140.5 45.5,-140.5"/>
<text text-anchor="middle" x="60" y="-185.5" font-family="Helvetica,sans-Serif" font-size="10.00">int</text>
<polyline fill="none" stroke="black" points="45.5,-178.5 74.5,-178.5 "/>
<text text-anchor="middle" x="60" y="-166.5" font-family="Helvetica,sans-Serif" font-size="10.00"> </text>
<polyline fill="none" stroke="black" points="45.5,-159.5 74.5,-159.5 "/>
<text text-anchor="middle" x="60" y="-147.5" font-family="Helvetica,sans-Serif" font-size="10.00"> </text>
</a>
</g>
</g>
<!-- Node2&#45;&gt;Node1 -->
<g id="edge1" class="edge"><title>Node2&#45;&gt;Node1</title>
<path fill="none" stroke="#404040" d="M60,-140.328C60,-123.256 60,-100.946 60,-81.3412"/>
<polygon fill="none" stroke="#404040" points="60.0001,-81.2439 56,-75.244 60,-69.2439 64,-75.2439 60.0001,-81.2439"/>
<text text-anchor="middle" x="78" y="-113.5" font-family="Helvetica,sans-Serif" font-size="10.00"> +option</text>
<text text-anchor="middle" x="78" y="-102.5" font-family="Helvetica,sans-Serif" font-size="10.00">+defval</text>
<text text-anchor="middle" x="78" y="-91.5" font-family="Helvetica,sans-Serif" font-size="10.00">+help</text>
</g>
</g>
</svg>
