<?xml version="1.0" encoding="UTF-8" standalone="no"?>
<!DOCTYPE svg PUBLIC "-//W3C//DTD SVG 1.1//EN"
 "http://www.w3.org/Graphics/SVG/1.1/DTD/svg11.dtd">
<!-- Generated by graphviz version 2.36.0 (20140111.2315)
 -->
<!-- Title: /home/travis/build/AliceO2Group/AliceO2/Framework/Core/include/Framework/Metric2DViewIndex.h Pages: 1 -->
<svg width="1180pt" height="332pt"
 viewBox="0.00 0.00 1180.00 332.00" xmlns="http://www.w3.org/2000/svg" xmlns:xlink="http://www.w3.org/1999/xlink">
<g id="graph0" class="graph" transform="scale(1 1) rotate(0) translate(4 328)">
<title>/home/travis/build/AliceO2Group/AliceO2/Framework/Core/include/Framework/Metric2DViewIndex.h</title>
<!-- Node1 -->
<g id="node1" class="node"><title>Node1</title>
<polygon fill="#bfbfbf" stroke="black" points="672.5,-271 672.5,-323 837.5,-323 837.5,-271 672.5,-271"/>
<text text-anchor="start" x="680.5" y="-311" font-family="Helvetica,sans-Serif" font-size="10.00">/home/travis/build</text>
<text text-anchor="start" x="680.5" y="-300" font-family="Helvetica,sans-Serif" font-size="10.00">/AliceO2Group/AliceO2</text>
<text text-anchor="start" x="680.5" y="-289" font-family="Helvetica,sans-Serif" font-size="10.00">/Framework/Core/include</text>
<text text-anchor="middle" x="755" y="-278" font-family="Helvetica,sans-Serif" font-size="10.00">/Framework/Metric2DViewIndex.h</text>
</g>
<!-- Node2 -->
<g id="node2" class="node"><title>Node2</title>
<g id="a_node2"><a xlink:href="../../d7/d58/DeviceInfo_8h.html" target="_top" xlink:title="/home/travis/build\l/AliceO2Group/AliceO2\l/Framework/Core/include\l/Framework/DeviceInfo.h">
<polygon fill="none" stroke="black" points="607.5,-181 607.5,-233 734.5,-233 734.5,-181 607.5,-181"/>
<text text-anchor="start" x="615.5" y="-221" font-family="Helvetica,sans-Serif" font-size="10.00">/home/travis/build</text>
<text text-anchor="start" x="615.5" y="-210" font-family="Helvetica,sans-Serif" font-size="10.00">/AliceO2Group/AliceO2</text>
<text text-anchor="start" x="615.5" y="-199" font-family="Helvetica,sans-Serif" font-size="10.00">/Framework/Core/include</text>
<text text-anchor="middle" x="671" y="-188" font-family="Helvetica,sans-Serif" font-size="10.00">/Framework/DeviceInfo.h</text>
</a>
</g>
</g>
<!-- Node1&#45;&gt;Node2 -->
<g id="edge1" class="edge"><title>Node1&#45;&gt;Node2</title>
<path fill="none" stroke="midnightblue" d="M723.632,-263.139C714.141,-253.196 703.875,-242.441 694.952,-233.092"/>
<polygon fill="midnightblue" stroke="midnightblue" points="721.267,-265.73 730.704,-270.547 726.331,-260.896 721.267,-265.73"/>
</g>
<!-- Node12 -->
<g id="node12" class="node"><title>Node12</title>
<g id="a_node12"><a xlink:href="../../df/d73/Metric2DViewIndex_8cxx.html" target="_top" xlink:title="/home/travis/build\l/AliceO2Group/AliceO2\l/Framework/Core/src/Metric2DView\lIndex.cxx">
<polygon fill="none" stroke="black" points="752.5,-181 752.5,-233 925.5,-233 925.5,-181 752.5,-181"/>
<text text-anchor="start" x="760.5" y="-221" font-family="Helvetica,sans-Serif" font-size="10.00">/home/travis/build</text>
<text text-anchor="start" x="760.5" y="-210" font-family="Helvetica,sans-Serif" font-size="10.00">/AliceO2Group/AliceO2</text>
<text text-anchor="start" x="760.5" y="-199" font-family="Helvetica,sans-Serif" font-size="10.00">/Framework/Core/src/Metric2DView</text>
<text text-anchor="middle" x="839" y="-188" font-family="Helvetica,sans-Serif" font-size="10.00">Index.cxx</text>
</a>
</g>
</g>
<!-- Node1&#45;&gt;Node12 -->
<g id="edge15" class="edge"><title>Node1&#45;&gt;Node12</title>
<path fill="none" stroke="midnightblue" d="M786.368,-263.139C795.859,-253.196 806.125,-242.441 815.048,-233.092"/>
<polygon fill="midnightblue" stroke="midnightblue" points="783.669,-260.896 779.296,-270.547 788.733,-265.73 783.669,-260.896"/>
</g>
<!-- Node3 -->
<g id="node3" class="node"><title>Node3</title>
<g id="a_node3"><a xlink:href="../../dd/d9a/FrameworkGUIDebugger_8h.html" target="_top" xlink:title="/home/travis/build\l/AliceO2Group/AliceO2\l/Framework/Core/include\l/Framework/FrameworkGUIDebugger.h">
<polygon fill="none" stroke="black" points="270,-91 270,-143 458,-143 458,-91 270,-91"/>
<text text-anchor="start" x="278" y="-131" font-family="Helvetica,sans-Serif" font-size="10.00">/home/travis/build</text>
<text text-anchor="start" x="278" y="-120" font-family="Helvetica,sans-Serif" font-size="10.00">/AliceO2Group/AliceO2</text>
<text text-anchor="start" x="278" y="-109" font-family="Helvetica,sans-Serif" font-size="10.00">/Framework/Core/include</text>
<text text-anchor="middle" x="364" y="-98" font-family="Helvetica,sans-Serif" font-size="10.00">/Framework/FrameworkGUIDebugger.h</text>
</a>
</g>
</g>
<!-- Node2&#45;&gt;Node3 -->
<g id="edge2" class="edge"><title>Node2&#45;&gt;Node3</title>
<path fill="none" stroke="midnightblue" d="M597.64,-184.972C553.71,-172.38 497.61,-156.299 451.393,-143.051"/>
<polygon fill="midnightblue" stroke="midnightblue" points="596.812,-188.375 607.389,-187.766 598.741,-181.646 596.812,-188.375"/>
</g>
<!-- Node6 -->
<g id="node6" class="node"><title>Node6</title>
<g id="a_node6"><a xlink:href="../../d7/d54/runDataProcessing_8cxx.html" target="_top" xlink:title="/home/travis/build\l/AliceO2Group/AliceO2\l/Framework/Core/src/runDataProcessing.cxx">
<polygon fill="none" stroke="black" points="0,-6.5 0,-47.5 214,-47.5 214,-6.5 0,-6.5"/>
<text text-anchor="start" x="8" y="-35.5" font-family="Helvetica,sans-Serif" font-size="10.00">/home/travis/build</text>
<text text-anchor="start" x="8" y="-24.5" font-family="Helvetica,sans-Serif" font-size="10.00">/AliceO2Group/AliceO2</text>
<text text-anchor="middle" x="107" y="-13.5" font-family="Helvetica,sans-Serif" font-size="10.00">/Framework/Core/src/runDataProcessing.cxx</text>
</a>
</g>
</g>
<!-- Node2&#45;&gt;Node6 -->
<g id="edge13" class="edge"><title>Node2&#45;&gt;Node6</title>
<path fill="none" stroke="midnightblue" d="M597.288,-205.628C512.883,-202.799 371.969,-190.633 261,-144 206.381,-121.047 153.671,-74.3808 126.341,-47.7648"/>
<polygon fill="midnightblue" stroke="midnightblue" points="597.195,-209.127 607.295,-205.929 597.405,-202.13 597.195,-209.127"/>
</g>
<!-- Node7 -->
<g id="node7" class="node"><title>Node7</title>
<g id="a_node7"><a xlink:href="../../dd/d49/FrameworkGUIDevicesGraph_8h.html" target="_top" xlink:title="/home/travis/build\l/AliceO2Group/AliceO2\l/Framework/Core/include\l/Framework/FrameworkGUIDevicesGraph.h">
<polygon fill="none" stroke="black" points="566.5,-91 566.5,-143 775.5,-143 775.5,-91 566.5,-91"/>
<text text-anchor="start" x="574.5" y="-131" font-family="Helvetica,sans-Serif" font-size="10.00">/home/travis/build</text>
<text text-anchor="start" x="574.5" y="-120" font-family="Helvetica,sans-Serif" font-size="10.00">/AliceO2Group/AliceO2</text>
<text text-anchor="start" x="574.5" y="-109" font-family="Helvetica,sans-Serif" font-size="10.00">/Framework/Core/include</text>
<text text-anchor="middle" x="671" y="-98" font-family="Helvetica,sans-Serif" font-size="10.00">/Framework/FrameworkGUIDevicesGraph.h</text>
</a>
</g>
</g>
<!-- Node2&#45;&gt;Node7 -->
<g id="edge6" class="edge"><title>Node2&#45;&gt;Node7</title>
<path fill="none" stroke="midnightblue" d="M671,-170.489C671,-161.309 671,-151.616 671,-143.092"/>
<polygon fill="midnightblue" stroke="midnightblue" points="667.5,-170.547 671,-180.547 674.5,-170.547 667.5,-170.547"/>
</g>
<!-- Node8 -->
<g id="node8" class="node"><title>Node8</title>
<g id="a_node8"><a xlink:href="../../d7/d5a/FrameworkGUIDevicesGraph_8cxx.html" target="_top" xlink:title="/home/travis/build\l/AliceO2Group/AliceO2\l/Framework/Core/src/Framework\lGUIDevicesGraph.cxx">
<polygon fill="none" stroke="black" points="590.5,-1 590.5,-53 751.5,-53 751.5,-1 590.5,-1"/>
<text text-anchor="start" x="598.5" y="-41" font-family="Helvetica,sans-Serif" font-size="10.00">/home/travis/build</text>
<text text-anchor="start" x="598.5" y="-30" font-family="Helvetica,sans-Serif" font-size="10.00">/AliceO2Group/AliceO2</text>
<text text-anchor="start" x="598.5" y="-19" font-family="Helvetica,sans-Serif" font-size="10.00">/Framework/Core/src/Framework</text>
<text text-anchor="middle" x="671" y="-8" font-family="Helvetica,sans-Serif" font-size="10.00">GUIDevicesGraph.cxx</text>
</a>
</g>
</g>
<!-- Node2&#45;&gt;Node8 -->
<g id="edge12" class="edge"><title>Node2&#45;&gt;Node8</title>
<path fill="none" stroke="midnightblue" d="M598.086,-181.244C581.782,-172.15 566.519,-160.013 557,-144 544.736,-123.37 544.736,-110.63 557,-90 566.383,-74.2168 581.345,-62.1992 597.384,-53.1492"/>
<polygon fill="midnightblue" stroke="midnightblue" points="596.733,-184.486 607.221,-185.989 599.96,-178.274 596.733,-184.486"/>
</g>
<!-- Node9 -->
<g id="node9" class="node"><title>Node9</title>
<g id="a_node9"><a xlink:href="../../d9/dc5/test__GUITests_8cxx.html" target="_top" xlink:title="/home/travis/build\l/AliceO2Group/AliceO2\l/Framework/Core/test/test\l_GUITests.cxx">
<polygon fill="none" stroke="black" points="769.5,-1 769.5,-53 900.5,-53 900.5,-1 769.5,-1"/>
<text text-anchor="start" x="777.5" y="-41" font-family="Helvetica,sans-Serif" font-size="10.00">/home/travis/build</text>
<text text-anchor="start" x="777.5" y="-30" font-family="Helvetica,sans-Serif" font-size="10.00">/AliceO2Group/AliceO2</text>
<text text-anchor="start" x="777.5" y="-19" font-family="Helvetica,sans-Serif" font-size="10.00">/Framework/Core/test/test</text>
<text text-anchor="middle" x="835" y="-8" font-family="Helvetica,sans-Serif" font-size="10.00">_GUITests.cxx</text>
</a>
</g>
</g>
<!-- Node2&#45;&gt;Node9 -->
<g id="edge14" class="edge"><title>Node2&#45;&gt;Node9</title>
<path fill="none" stroke="midnightblue" d="M742.465,-176.057C757.537,-167.351 772.376,-156.69 784,-144 807.924,-117.882 821.928,-78.7351 829.027,-53.2772"/>
<polygon fill="midnightblue" stroke="midnightblue" points="740.651,-173.061 733.587,-180.957 744.033,-179.189 740.651,-173.061"/>
</g>
<!-- Node10 -->
<g id="node10" class="node"><title>Node10</title>
<g id="a_node10"><a xlink:href="../../d8/d1c/FrameworkGUIDataRelayerUsage_8cxx.html" target="_top" xlink:title="/home/travis/build\l/AliceO2Group/AliceO2\l/Framework/Core/src/Framework\lGUIDataRelayerUsage.cxx">
<polygon fill="none" stroke="black" points="832.5,-91 832.5,-143 993.5,-143 993.5,-91 832.5,-91"/>
<text text-anchor="start" x="840.5" y="-131" font-family="Helvetica,sans-Serif" font-size="10.00">/home/travis/build</text>
<text text-anchor="start" x="840.5" y="-120" font-family="Helvetica,sans-Serif" font-size="10.00">/AliceO2Group/AliceO2</text>
<text text-anchor="start" x="840.5" y="-109" font-family="Helvetica,sans-Serif" font-size="10.00">/Framework/Core/src/Framework</text>
<text text-anchor="middle" x="913" y="-98" font-family="Helvetica,sans-Serif" font-size="10.00">GUIDataRelayerUsage.cxx</text>
</a>
</g>
</g>
<!-- Node2&#45;&gt;Node10 -->
<g id="edge10" class="edge"><title>Node2&#45;&gt;Node10</title>
<path fill="none" stroke="midnightblue" d="M744.226,-179.372C775.876,-167.863 812.721,-154.465 843.895,-143.129"/>
<polygon fill="midnightblue" stroke="midnightblue" points="742.784,-176.172 734.583,-182.879 745.177,-182.751 742.784,-176.172"/>
</g>
<!-- Node11 -->
<g id="node11" class="node"><title>Node11</title>
<g id="a_node11"><a xlink:href="../../d4/d72/FrameworkGUIDeviceInspector_8cxx.html" target="_top" xlink:title="/home/travis/build\l/AliceO2Group/AliceO2\l/Framework/Core/src/Framework\lGUIDeviceInspector.cxx">
<polygon fill="none" stroke="black" points="1011.5,-91 1011.5,-143 1172.5,-143 1172.5,-91 1011.5,-91"/>
<text text-anchor="start" x="1019.5" y="-131" font-family="Helvetica,sans-Serif" font-size="10.00">/home/travis/build</text>
<text text-anchor="start" x="1019.5" y="-120" font-family="Helvetica,sans-Serif" font-size="10.00">/AliceO2Group/AliceO2</text>
<text text-anchor="start" x="1019.5" y="-109" font-family="Helvetica,sans-Serif" font-size="10.00">/Framework/Core/src/Framework</text>
<text text-anchor="middle" x="1092" y="-98" font-family="Helvetica,sans-Serif" font-size="10.00">GUIDeviceInspector.cxx</text>
</a>
</g>
</g>
<!-- Node2&#45;&gt;Node11 -->
<g id="edge11" class="edge"><title>Node2&#45;&gt;Node11</title>
<path fill="none" stroke="midnightblue" d="M744.646,-180.064C858.276,-153.263 891.861,-167.468 1002,-144 1005.02,-143.356 1008.09,-142.664 1011.18,-141.936"/>
<polygon fill="midnightblue" stroke="midnightblue" points="743.769,-176.675 734.869,-182.423 745.411,-183.479 743.769,-176.675"/>
</g>
<!-- Node4 -->
<g id="node4" class="node"><title>Node4</title>
<g id="a_node4"><a xlink:href="../../de/ddc/FrameworkDummyDebugger_8cxx.html" target="_top" xlink:title="/home/travis/build\l/AliceO2Group/AliceO2\l/Framework/Core/src/Framework\lDummyDebugger.cxx">
<polygon fill="none" stroke="black" points="232.5,-1 232.5,-53 393.5,-53 393.5,-1 232.5,-1"/>
<text text-anchor="start" x="240.5" y="-41" font-family="Helvetica,sans-Serif" font-size="10.00">/home/travis/build</text>
<text text-anchor="start" x="240.5" y="-30" font-family="Helvetica,sans-Serif" font-size="10.00">/AliceO2Group/AliceO2</text>
<text text-anchor="start" x="240.5" y="-19" font-family="Helvetica,sans-Serif" font-size="10.00">/Framework/Core/src/Framework</text>
<text text-anchor="middle" x="313" y="-8" font-family="Helvetica,sans-Serif" font-size="10.00">DummyDebugger.cxx</text>
</a>
</g>
</g>
<!-- Node3&#45;&gt;Node4 -->
<g id="edge3" class="edge"><title>Node3&#45;&gt;Node4</title>
<path fill="none" stroke="midnightblue" d="M344.105,-81.6708C338.584,-72.1448 332.694,-61.9826 327.542,-53.0921"/>
<polygon fill="midnightblue" stroke="midnightblue" points="341.206,-83.6497 349.249,-90.5468 347.263,-80.1397 341.206,-83.6497"/>
</g>
<!-- Node5 -->
<g id="node5" class="node"><title>Node5</title>
<g id="a_node5"><a xlink:href="../../d3/d29/FrameworkGUIDebugger_8cxx.html" target="_top" xlink:title="/home/travis/build\l/AliceO2Group/AliceO2\l/Framework/Core/src/Framework\lGUIDebugger.cxx">
<polygon fill="none" stroke="black" points="411.5,-1 411.5,-53 572.5,-53 572.5,-1 411.5,-1"/>
<text text-anchor="start" x="419.5" y="-41" font-family="Helvetica,sans-Serif" font-size="10.00">/home/travis/build</text>
<text text-anchor="start" x="419.5" y="-30" font-family="Helvetica,sans-Serif" font-size="10.00">/AliceO2Group/AliceO2</text>
<text text-anchor="start" x="419.5" y="-19" font-family="Helvetica,sans-Serif" font-size="10.00">/Framework/Core/src/Framework</text>
<text text-anchor="middle" x="492" y="-8" font-family="Helvetica,sans-Serif" font-size="10.00">GUIDebugger.cxx</text>
</a>
</g>
</g>
<!-- Node3&#45;&gt;Node5 -->
<g id="edge4" class="edge"><title>Node3&#45;&gt;Node5</title>
<path fill="none" stroke="midnightblue" d="M408.925,-85.1143C424.102,-74.6802 440.853,-63.1632 455.315,-53.221"/>
<polygon fill="midnightblue" stroke="midnightblue" points="406.937,-82.2332 400.68,-90.7827 410.903,-88.0016 406.937,-82.2332"/>
</g>
<!-- Node3&#45;&gt;Node6 -->
<g id="edge5" class="edge"><title>Node3&#45;&gt;Node6</title>
<path fill="none" stroke="midnightblue" d="M281.122,-87.6214C242.89,-74.5305 198.468,-59.3196 164.061,-47.5384"/>
<polygon fill="midnightblue" stroke="midnightblue" points="280.103,-90.9722 290.698,-90.9005 282.371,-84.3497 280.103,-90.9722"/>
</g>
<!-- Node7&#45;&gt;Node5 -->
<g id="edge7" class="edge"><title>Node7&#45;&gt;Node5</title>
<path fill="none" stroke="midnightblue" d="M610.484,-86.2492C588.554,-75.4678 564.021,-63.4068 542.992,-53.0687"/>
<polygon fill="midnightblue" stroke="midnightblue" points="609.187,-89.5118 619.706,-90.7827 612.276,-83.2298 609.187,-89.5118"/>
</g>
<!-- Node7&#45;&gt;Node8 -->
<g id="edge8" class="edge"><title>Node7&#45;&gt;Node8</title>
<path fill="none" stroke="midnightblue" d="M671,-80.4892C671,-71.3088 671,-61.616 671,-53.0921"/>
<polygon fill="midnightblue" stroke="midnightblue" points="667.5,-80.5467 671,-90.5468 674.5,-80.5468 667.5,-80.5467"/>
</g>
<!-- Node7&#45;&gt;Node9 -->
<g id="edge9" class="edge"><title>Node7&#45;&gt;Node9</title>
<path fill="none" stroke="midnightblue" d="M726.983,-85.9601C746.938,-75.2526 769.187,-63.3145 788.281,-53.0687"/>
<polygon fill="midnightblue" stroke="midnightblue" points="725.153,-82.9704 717.996,-90.7827 728.462,-89.1386 725.153,-82.9704"/>
</g>
</g>
</svg>
