<?xml version="1.0" encoding="UTF-8" standalone="no"?>
<!DOCTYPE svg PUBLIC "-//W3C//DTD SVG 1.1//EN"
 "http://www.w3.org/Graphics/SVG/1.1/DTD/svg11.dtd">
<!-- Generated by graphviz version 2.36.0 (20140111.2315)
 -->
<!-- Title: /home/travis/build/AliceO2Group/AliceO2/Utilities/aliceHLTwrapper/src/Component.cxx Pages: 1 -->
<!--zoomable 342 -->
<svg id="main" version="1.1" xmlns="http://www.w3.org/2000/svg" xmlns:xlink="http://www.w3.org/1999/xlink" xml:space="preserve" onload="init(evt)">
<style type="text/css"><![CDATA[
.edge:hover path { stroke: red; }
.edge:hover polygon { stroke: red; fill: red; }
]]></style>
<script type="text/javascript"><![CDATA[
var edges = document.getElementsByTagName('g');
if (edges && edges.length) {
  for (var i=0;i<edges.length;i++) {
    if (edges[i].id.substr(0,4)=='edge') {
      edges[i].setAttribute('class','edge');
    }
  }
}
]]></script>
        <defs>
                <circle id="rim" cx="0" cy="0" r="7"/>
                <circle id="rim2" cx="0" cy="0" r="3.5"/>
                <g id="zoomPlus">
                        <use xlink:href="#rim" fill="#404040">
                                <set attributeName="fill" to="#808080" begin="zoomplus.mouseover" end="zoomplus.mouseout"/>
                        </use>
                        <path d="M-4,0h8M0,-4v8" fill="none" stroke="white" stroke-width="1.5" pointer-events="none"/>
                </g>
                <g id="zoomMin">
                        <use xlink:href="#rim" fill="#404040">
                                <set attributeName="fill" to="#808080" begin="zoomminus.mouseover" end="zoomminus.mouseout"/>
                        </use>
                        <path d="M-4,0h8" fill="none" stroke="white" stroke-width="1.5" pointer-events="none"/>
                </g>
                <g id="dirArrow">
                        <path fill="none" stroke="white" stroke-width="1.5" d="M0,-3.0v7 M-2.5,-0.5L0,-3.0L2.5,-0.5"/>
                </g>
               <g id="resetDef">
                       <use xlink:href="#rim2" fill="#404040">
                               <set attributeName="fill" to="#808080" begin="reset.mouseover" end="reset.mouseout"/>
                       </use>
               </g>
        </defs>

<script type="text/javascript">
var viewWidth = 1326;
var viewHeight = 342;
var sectionId = 'dynsection-0';
</script>
<script xlink:href="../../svgpan.js"/>
<svg id="graph" class="graph">
<g id="viewport">
<title>/home/travis/build/AliceO2Group/AliceO2/Utilities/aliceHLTwrapper/src/Component.cxx</title>
<!-- Node1 -->
<g id="node1" class="node"><title>Node1</title>
<polygon fill="#bfbfbf" stroke="black" points="872.654,-281 872.654,-333 1001.65,-333 1001.65,-281 872.654,-281"/>
<text text-anchor="start" x="880.654" y="-321" font-family="Helvetica,sans-Serif" font-size="10.00">/home/travis/build</text>
<text text-anchor="start" x="880.654" y="-310" font-family="Helvetica,sans-Serif" font-size="10.00">/AliceO2Group/AliceO2</text>
<text text-anchor="start" x="880.654" y="-299" font-family="Helvetica,sans-Serif" font-size="10.00">/Utilities/aliceHLTwrapper</text>
<text text-anchor="middle" x="937.154" y="-288" font-family="Helvetica,sans-Serif" font-size="10.00">/src/Component.cxx</text>
</g>
<!-- Node2 -->
<g id="node2" class="node"><title>Node2</title>
<g id="a_node2"><a xlink:href="../../d0/da1/Component_8h.html" target="_top" xlink:title="aliceHLTwrapper/Component.h">
<polygon fill="none" stroke="black" points="323.154,-224.5 323.154,-243.5 475.154,-243.5 475.154,-224.5 323.154,-224.5"/>
<text text-anchor="middle" x="399.154" y="-231.5" font-family="Helvetica,sans-Serif" font-size="10.00">aliceHLTwrapper/Component.h</text>
</a>
</g>
</g>
<!-- Node1&#45;&gt;Node2 -->
<g id="edge1" class="edge"><title>Node1&#45;&gt;Node2</title>
<path fill="none" stroke="midnightblue" d="M872.526,-297.471C772.317,-284.246 579.976,-258.863 473.922,-244.867"/>
<polygon fill="midnightblue" stroke="midnightblue" points="474.306,-241.388 463.934,-243.549 473.39,-248.327 474.306,-241.388"/>
</g>
<!-- Node3 -->
<g id="node3" class="node"><title>Node3</title>
<g id="a_node3"><a xlink:href="../../d6/d34/AliHLTDataTypes_8h.html" target="_top" xlink:title="Data type declaration for the HLT module. ">
<polygon fill="none" stroke="black" points="508.654,-56.5 508.654,-75.5 611.654,-75.5 611.654,-56.5 508.654,-56.5"/>
<text text-anchor="middle" x="560.154" y="-63.5" font-family="Helvetica,sans-Serif" font-size="10.00">AliHLTDataTypes.h</text>
</a>
</g>
</g>
<!-- Node1&#45;&gt;Node3 -->
<g id="edge27" class="edge"><title>Node1&#45;&gt;Node3</title>
<path fill="none" stroke="midnightblue" d="M872.539,-297.012C801.971,-284.134 689.394,-254.216 617.154,-188 609.003,-180.529 581.428,-117.194 567.844,-85.2582"/>
<polygon fill="midnightblue" stroke="midnightblue" points="570.944,-83.6021 563.822,-75.7577 564.498,-86.331 570.944,-83.6021"/>
</g>
<!-- Node10 -->
<g id="node10" class="node"><title>Node10</title>
<polygon fill="none" stroke="#bfbfbf" points="576.154,-0.5 576.154,-19.5 628.154,-19.5 628.154,-0.5 576.154,-0.5"/>
<text text-anchor="middle" x="602.154" y="-7.5" font-family="Helvetica,sans-Serif" font-size="10.00">memory</text>
</g>
<!-- Node1&#45;&gt;Node10 -->
<g id="edge37" class="edge"><title>Node1&#45;&gt;Node10</title>
<path fill="none" stroke="midnightblue" d="M896.256,-280.902C865.327,-258.454 828.154,-222.439 828.154,-179 828.154,-179 828.154,-179 828.154,-121 828.154,-37.7086 702.515,-17.4702 638.591,-12.5635"/>
<polygon fill="midnightblue" stroke="midnightblue" points="638.736,-9.06531 628.521,-11.8783 638.26,-16.0492 638.736,-9.06531"/>
</g>
<!-- Node12 -->
<g id="node12" class="node"><title>Node12</title>
<polygon fill="none" stroke="#bfbfbf" points="777.154,-0.5 777.154,-19.5 823.154,-19.5 823.154,-0.5 777.154,-0.5"/>
<text text-anchor="middle" x="800.154" y="-7.5" font-family="Helvetica,sans-Serif" font-size="10.00">cstring</text>
</g>
<!-- Node1&#45;&gt;Node12 -->
<g id="edge33" class="edge"><title>Node1&#45;&gt;Node12</title>
<path fill="none" stroke="midnightblue" d="M912.018,-280.91C902.491,-270.261 892.243,-257.255 885.154,-244 870.959,-217.46 866.154,-209.098 866.154,-179 866.154,-179 866.154,-179 866.154,-121 866.154,-90.2048 858.311,-82.2163 842.154,-56 835.525,-45.2449 826.062,-34.8267 817.796,-26.7278"/>
<polygon fill="midnightblue" stroke="midnightblue" points="820.05,-24.0428 810.369,-19.7382 815.253,-29.1404 820.05,-24.0428"/>
</g>
<!-- Node21 -->
<g id="node21" class="node"><title>Node21</title>
<g id="a_node21"><a xlink:href="../../d8/d1d/SystemInterface_8h.html" target="_top" xlink:title="aliceHLTwrapper/SystemInterface.h">
<polygon fill="none" stroke="black" points="626.654,-168.5 626.654,-187.5 799.654,-187.5 799.654,-168.5 626.654,-168.5"/>
<text text-anchor="middle" x="713.154" y="-175.5" font-family="Helvetica,sans-Serif" font-size="10.00">aliceHLTwrapper/SystemInterface.h</text>
</a>
</g>
</g>
<!-- Node1&#45;&gt;Node21 -->
<g id="edge28" class="edge"><title>Node1&#45;&gt;Node21</title>
<path fill="none" stroke="midnightblue" d="M884.445,-280.946C862.44,-270.098 836.782,-256.937 814.154,-244 785.74,-227.755 754.2,-206.996 734.049,-193.364"/>
<polygon fill="midnightblue" stroke="midnightblue" points="735.881,-190.377 725.644,-187.645 731.942,-196.164 735.881,-190.377"/>
</g>
<!-- Node22 -->
<g id="node22" class="node"><title>Node22</title>
<polygon fill="none" stroke="#bfbfbf" points="894.154,-224.5 894.154,-243.5 980.154,-243.5 980.154,-224.5 894.154,-224.5"/>
<text text-anchor="middle" x="937.154" y="-231.5" font-family="Helvetica,sans-Serif" font-size="10.00">FairMQLogger.h</text>
</g>
<!-- Node1&#45;&gt;Node22 -->
<g id="edge30" class="edge"><title>Node1&#45;&gt;Node22</title>
<path fill="none" stroke="midnightblue" d="M937.154,-280.768C937.154,-271.89 937.154,-262.074 937.154,-253.816"/>
<polygon fill="midnightblue" stroke="midnightblue" points="940.654,-253.757 937.154,-243.757 933.654,-253.757 940.654,-253.757"/>
</g>
<!-- Node23 -->
<g id="node23" class="node"><title>Node23</title>
<polygon fill="none" stroke="#bfbfbf" points="998.654,-224.5 998.654,-243.5 1043.65,-243.5 1043.65,-224.5 998.654,-224.5"/>
<text text-anchor="middle" x="1021.15" y="-231.5" font-family="Helvetica,sans-Serif" font-size="10.00">cstdlib</text>
</g>
<!-- Node1&#45;&gt;Node23 -->
<g id="edge31" class="edge"><title>Node1&#45;&gt;Node23</title>
<path fill="none" stroke="midnightblue" d="M967.005,-280.768C979.061,-270.578 992.578,-259.153 1003.09,-250.267"/>
<polygon fill="midnightblue" stroke="midnightblue" points="1005.42,-252.886 1010.79,-243.757 1000.9,-247.539 1005.42,-252.886"/>
</g>
<!-- Node24 -->
<g id="node24" class="node"><title>Node24</title>
<polygon fill="none" stroke="#bfbfbf" points="1062.15,-224.5 1062.15,-243.5 1106.15,-243.5 1106.15,-224.5 1062.15,-224.5"/>
<text text-anchor="middle" x="1084.15" y="-231.5" font-family="Helvetica,sans-Serif" font-size="10.00">cerrno</text>
</g>
<!-- Node1&#45;&gt;Node24 -->
<g id="edge32" class="edge"><title>Node1&#45;&gt;Node24</title>
<path fill="none" stroke="midnightblue" d="M988.98,-280.968C1011.93,-269.885 1037.97,-257.306 1057.01,-248.112"/>
<polygon fill="midnightblue" stroke="midnightblue" points="1058.79,-251.14 1066.27,-243.639 1055.74,-244.837 1058.79,-251.14"/>
</g>
<!-- Node25 -->
<g id="node25" class="node"><title>Node25</title>
<polygon fill="none" stroke="#bfbfbf" points="1124.15,-224.5 1124.15,-243.5 1176.15,-243.5 1176.15,-224.5 1124.15,-224.5"/>
<text text-anchor="middle" x="1150.15" y="-231.5" font-family="Helvetica,sans-Serif" font-size="10.00">sstream</text>
</g>
<!-- Node1&#45;&gt;Node25 -->
<g id="edge34" class="edge"><title>Node1&#45;&gt;Node25</title>
<path fill="none" stroke="midnightblue" d="M1001.93,-284.408C1038.99,-272.056 1084.05,-257.035 1114.69,-246.821"/>
<polygon fill="midnightblue" stroke="midnightblue" points="1116.12,-250.035 1124.5,-243.552 1113.9,-243.394 1116.12,-250.035"/>
</g>
<!-- Node26 -->
<g id="node26" class="node"><title>Node26</title>
<polygon fill="none" stroke="#bfbfbf" points="1194.15,-224.5 1194.15,-243.5 1248.15,-243.5 1248.15,-224.5 1194.15,-224.5"/>
<text text-anchor="middle" x="1221.15" y="-231.5" font-family="Helvetica,sans-Serif" font-size="10.00">iostream</text>
</g>
<!-- Node1&#45;&gt;Node26 -->
<g id="edge35" class="edge"><title>Node1&#45;&gt;Node26</title>
<path fill="none" stroke="midnightblue" d="M1001.95,-289.8C1058.27,-275.722 1137.85,-255.825 1184.02,-244.282"/>
<polygon fill="midnightblue" stroke="midnightblue" points="1185.05,-247.634 1193.9,-241.813 1183.35,-240.843 1185.05,-247.634"/>
</g>
<!-- Node27 -->
<g id="node27" class="node"><title>Node27</title>
<polygon fill="none" stroke="#bfbfbf" points="1266.15,-224.5 1266.15,-243.5 1318.15,-243.5 1318.15,-224.5 1266.15,-224.5"/>
<text text-anchor="middle" x="1292.15" y="-231.5" font-family="Helvetica,sans-Serif" font-size="10.00">getopt.h</text>
</g>
<!-- Node1&#45;&gt;Node27 -->
<g id="edge36" class="edge"><title>Node1&#45;&gt;Node27</title>
<path fill="none" stroke="midnightblue" d="M1001.75,-294.666C1064.33,-283.417 1162.13,-265.135 1255.89,-244.186"/>
<polygon fill="midnightblue" stroke="midnightblue" points="1256.83,-247.561 1265.82,-241.952 1255.3,-240.731 1256.83,-247.561"/>
</g>
<!-- Node2&#45;&gt;Node3 -->
<g id="edge2" class="edge"><title>Node2&#45;&gt;Node3</title>
<path fill="none" stroke="midnightblue" d="M475.413,-224.799C499.704,-218.436 524.553,-207.321 541.154,-188 565.901,-159.199 565.368,-111.702 562.782,-85.606"/>
<polygon fill="midnightblue" stroke="midnightblue" points="566.243,-85.0677 561.574,-75.5567 559.293,-85.9029 566.243,-85.0677"/>
</g>
<!-- Node4 -->
<g id="node4" class="node"><title>Node4</title>
<g id="a_node4"><a xlink:href="../../d2/dda/MessageFormat_8h.html" target="_top" xlink:title="MessageFormat.h">
<polygon fill="none" stroke="black" points="284.654,-168.5 284.654,-187.5 379.654,-187.5 379.654,-168.5 284.654,-168.5"/>
<text text-anchor="middle" x="332.154" y="-175.5" font-family="Helvetica,sans-Serif" font-size="10.00">MessageFormat.h</text>
</a>
</g>
</g>
<!-- Node2&#45;&gt;Node4 -->
<g id="edge3" class="edge"><title>Node2&#45;&gt;Node4</title>
<path fill="none" stroke="midnightblue" d="M388.389,-224.324C378.388,-216.263 363.267,-204.077 351.223,-194.369"/>
<polygon fill="midnightblue" stroke="midnightblue" points="353.097,-191.384 343.114,-187.834 348.704,-196.834 353.097,-191.384"/>
</g>
<!-- Node6 -->
<g id="node6" class="node"><title>Node6</title>
<polygon fill="none" stroke="#bfbfbf" points="79.1537,-56.5 79.1537,-75.5 123.154,-75.5 123.154,-56.5 79.1537,-56.5"/>
<text text-anchor="middle" x="101.154" y="-63.5" font-family="Helvetica,sans-Serif" font-size="10.00">vector</text>
</g>
<!-- Node2&#45;&gt;Node6 -->
<g id="edge24" class="edge"><title>Node2&#45;&gt;Node6</title>
<path fill="none" stroke="midnightblue" d="M323.085,-224.697C219.604,-211.631 42.9678,-182.419 5.1537,-132 -15.4006,-104.594 33.8091,-84.8986 69.1041,-74.7747"/>
<polygon fill="midnightblue" stroke="midnightblue" points="70.3416,-78.0652 79.069,-72.0583 68.5005,-71.3116 70.3416,-78.0652"/>
</g>
<!-- Node8 -->
<g id="node8" class="node"><title>Node8</title>
<polygon fill="none" stroke="#bfbfbf" points="14.1537,-112.5 14.1537,-131.5 112.154,-131.5 112.154,-112.5 14.1537,-112.5"/>
<text text-anchor="middle" x="63.1537" y="-119.5" font-family="Helvetica,sans-Serif" font-size="10.00">boost/signals2.hpp</text>
</g>
<!-- Node2&#45;&gt;Node8 -->
<g id="edge25" class="edge"><title>Node2&#45;&gt;Node8</title>
<path fill="none" stroke="midnightblue" d="M373.068,-224.46C313.524,-204.966 167.494,-157.159 99.3164,-134.839"/>
<polygon fill="midnightblue" stroke="midnightblue" points="100.047,-131.395 89.4545,-131.61 97.8692,-138.048 100.047,-131.395"/>
</g>
<!-- Node20 -->
<g id="node20" class="node"><title>Node20</title>
<polygon fill="none" stroke="#bfbfbf" points="398.154,-168.5 398.154,-187.5 532.154,-187.5 532.154,-168.5 398.154,-168.5"/>
<text text-anchor="middle" x="465.154" y="-175.5" font-family="Helvetica,sans-Serif" font-size="10.00">boost/program_options.hpp</text>
</g>
<!-- Node2&#45;&gt;Node20 -->
<g id="edge26" class="edge"><title>Node2&#45;&gt;Node20</title>
<path fill="none" stroke="midnightblue" d="M409.758,-224.324C419.61,-216.263 434.505,-204.077 446.369,-194.369"/>
<polygon fill="midnightblue" stroke="midnightblue" points="448.833,-196.875 454.357,-187.834 444.401,-191.457 448.833,-196.875"/>
</g>
<!-- Node4&#45;&gt;Node3 -->
<g id="edge4" class="edge"><title>Node4&#45;&gt;Node3</title>
<path fill="none" stroke="midnightblue" d="M342.664,-168.366C359.572,-154.82 394.257,-128.428 427.154,-112 455.967,-97.6113 490.465,-86.0885 517.105,-78.3059"/>
<polygon fill="midnightblue" stroke="midnightblue" points="518.248,-81.6196 526.902,-75.5081 516.325,-74.8887 518.248,-81.6196"/>
</g>
<!-- Node5 -->
<g id="node5" class="node"><title>Node5</title>
<g id="a_node5"><a xlink:href="../../d2/de6/HOMERFactory_8h.html" target="_top" xlink:title="HOMERFactory.h">
<polygon fill="none" stroke="black" points="436.654,-112.5 436.654,-131.5 531.654,-131.5 531.654,-112.5 436.654,-112.5"/>
<text text-anchor="middle" x="484.154" y="-119.5" font-family="Helvetica,sans-Serif" font-size="10.00">HOMERFactory.h</text>
</a>
</g>
</g>
<!-- Node4&#45;&gt;Node5 -->
<g id="edge5" class="edge"><title>Node4&#45;&gt;Node5</title>
<path fill="none" stroke="midnightblue" d="M356.239,-168.444C381.698,-159.399 422.047,-145.064 450.613,-134.916"/>
<polygon fill="midnightblue" stroke="midnightblue" points="451.93,-138.162 460.182,-131.516 449.587,-131.566 451.93,-138.162"/>
</g>
<!-- Node4&#45;&gt;Node6 -->
<g id="edge7" class="edge"><title>Node4&#45;&gt;Node6</title>
<path fill="none" stroke="midnightblue" d="M284.444,-172.187C247.956,-166.779 197.555,-155.458 159.154,-132 139.461,-119.971 122.639,-99.1908 112.262,-84.3643"/>
<polygon fill="midnightblue" stroke="midnightblue" points="114.883,-81.9894 106.407,-75.6327 109.069,-85.8877 114.883,-81.9894"/>
</g>
<!-- Node7 -->
<g id="node7" class="node"><title>Node7</title>
<polygon fill="none" stroke="#bfbfbf" points="447.154,-0.5 447.154,-19.5 493.154,-19.5 493.154,-0.5 447.154,-0.5"/>
<text text-anchor="middle" x="470.154" y="-7.5" font-family="Helvetica,sans-Serif" font-size="10.00">cstdint</text>
</g>
<!-- Node4&#45;&gt;Node7 -->
<g id="edge8" class="edge"><title>Node4&#45;&gt;Node7</title>
<path fill="none" stroke="midnightblue" d="M339.573,-168.075C361.766,-141.38 427.868,-61.865 456.585,-27.3218"/>
<polygon fill="midnightblue" stroke="midnightblue" points="459.329,-29.4954 463.031,-19.5681 453.947,-25.0205 459.329,-29.4954"/>
</g>
<!-- Node4&#45;&gt;Node8 -->
<g id="edge9" class="edge"><title>Node4&#45;&gt;Node8</title>
<path fill="none" stroke="midnightblue" d="M289.53,-168.444C242.407,-158.984 166.462,-143.738 115.695,-133.547"/>
<polygon fill="midnightblue" stroke="midnightblue" points="116.071,-130.053 105.578,-131.516 114.694,-136.916 116.071,-130.053"/>
</g>
<!-- Node9 -->
<g id="node9" class="node"><title>Node9</title>
<g id="a_node9"><a xlink:href="../../dc/dcd/DataHeader_8h.html" target="_top" xlink:title="Headers/DataHeader.h">
<polygon fill="none" stroke="black" points="271.654,-56.5 271.654,-75.5 388.654,-75.5 388.654,-56.5 271.654,-56.5"/>
<text text-anchor="middle" x="330.154" y="-63.5" font-family="Helvetica,sans-Serif" font-size="10.00">Headers/DataHeader.h</text>
</a>
</g>
</g>
<!-- Node4&#45;&gt;Node9 -->
<g id="edge10" class="edge"><title>Node4&#45;&gt;Node9</title>
<path fill="none" stroke="midnightblue" d="M331.997,-168.368C331.674,-150.617 330.929,-109.666 330.492,-85.5974"/>
<polygon fill="midnightblue" stroke="midnightblue" points="333.991,-85.5261 330.31,-75.5914 326.992,-85.6534 333.991,-85.5261"/>
</g>
<!-- Node17 -->
<g id="node17" class="node"><title>Node17</title>
<g id="a_node17"><a xlink:href="../../d2/d09/HeartbeatFrame_8h.html" target="_top" xlink:title="Headers/HeartbeatFrame.h">
<polygon fill="none" stroke="black" points="168.654,-112.5 168.654,-131.5 303.654,-131.5 303.654,-112.5 168.654,-112.5"/>
<text text-anchor="middle" x="236.154" y="-119.5" font-family="Helvetica,sans-Serif" font-size="10.00">Headers/HeartbeatFrame.h</text>
</a>
</g>
</g>
<!-- Node4&#45;&gt;Node17 -->
<g id="edge19" class="edge"><title>Node4&#45;&gt;Node17</title>
<path fill="none" stroke="midnightblue" d="M316.73,-168.324C301.614,-159.822 278.338,-146.729 260.683,-136.797"/>
<polygon fill="midnightblue" stroke="midnightblue" points="261.971,-133.507 251.539,-131.655 258.539,-139.608 261.971,-133.507"/>
</g>
<!-- Node5&#45;&gt;Node3 -->
<g id="edge6" class="edge"><title>Node5&#45;&gt;Node3</title>
<path fill="none" stroke="midnightblue" d="M496.364,-112.324C507.93,-104.107 525.529,-91.6017 539.314,-81.8069"/>
<polygon fill="midnightblue" stroke="midnightblue" points="541.596,-84.4791 547.721,-75.8339 537.542,-78.7729 541.596,-84.4791"/>
</g>
<!-- Node9&#45;&gt;Node7 -->
<g id="edge11" class="edge"><title>Node9&#45;&gt;Node7</title>
<path fill="none" stroke="midnightblue" d="M352.337,-56.4435C375.582,-47.4776 412.303,-33.314 438.569,-23.1827"/>
<polygon fill="midnightblue" stroke="midnightblue" points="440.004,-26.3807 448.074,-19.5164 437.484,-19.8497 440.004,-26.3807"/>
</g>
<!-- Node9&#45;&gt;Node10 -->
<g id="edge12" class="edge"><title>Node9&#45;&gt;Node10</title>
<path fill="none" stroke="midnightblue" d="M373.253,-56.4435C426.536,-45.8653 516.262,-28.052 566.079,-18.1619"/>
<polygon fill="midnightblue" stroke="midnightblue" points="566.949,-21.5575 576.076,-16.1772 565.586,-14.6915 566.949,-21.5575"/>
</g>
<!-- Node11 -->
<g id="node11" class="node"><title>Node11</title>
<polygon fill="none" stroke="#bfbfbf" points="305.654,-0.5 305.654,-19.5 354.654,-19.5 354.654,-0.5 305.654,-0.5"/>
<text text-anchor="middle" x="330.154" y="-7.5" font-family="Helvetica,sans-Serif" font-size="10.00">cassert</text>
</g>
<!-- Node9&#45;&gt;Node11 -->
<g id="edge13" class="edge"><title>Node9&#45;&gt;Node11</title>
<path fill="none" stroke="midnightblue" d="M330.154,-56.083C330.154,-49.0059 330.154,-38.8611 330.154,-29.9865"/>
<polygon fill="midnightblue" stroke="midnightblue" points="333.654,-29.751 330.154,-19.7511 326.654,-29.7511 333.654,-29.751"/>
</g>
<!-- Node9&#45;&gt;Node12 -->
<g id="edge14" class="edge"><title>Node9&#45;&gt;Node12</title>
<path fill="none" stroke="midnightblue" d="M388.729,-58.27C488.379,-46.8209 687.769,-23.9123 766.788,-14.8335"/>
<polygon fill="midnightblue" stroke="midnightblue" points="767.581,-18.2655 777.117,-13.6468 766.782,-11.3112 767.581,-18.2655"/>
</g>
<!-- Node13 -->
<g id="node13" class="node"><title>Node13</title>
<polygon fill="none" stroke="#bfbfbf" points="373.154,-0.5 373.154,-19.5 429.154,-19.5 429.154,-0.5 373.154,-0.5"/>
<text text-anchor="middle" x="401.154" y="-7.5" font-family="Helvetica,sans-Serif" font-size="10.00">algorithm</text>
</g>
<!-- Node9&#45;&gt;Node13 -->
<g id="edge15" class="edge"><title>Node9&#45;&gt;Node13</title>
<path fill="none" stroke="midnightblue" d="M341.561,-56.324C352.262,-48.1849 368.494,-35.8395 381.317,-26.0874"/>
<polygon fill="midnightblue" stroke="midnightblue" points="383.698,-28.6734 389.539,-19.8339 379.46,-23.1018 383.698,-28.6734"/>
</g>
<!-- Node14 -->
<g id="node14" class="node"><title>Node14</title>
<polygon fill="none" stroke="#bfbfbf" points="14.6537,-0.5 14.6537,-19.5 73.6537,-19.5 73.6537,-0.5 14.6537,-0.5"/>
<text text-anchor="middle" x="44.1537" y="-7.5" font-family="Helvetica,sans-Serif" font-size="10.00">stdexcept</text>
</g>
<!-- Node9&#45;&gt;Node14 -->
<g id="edge16" class="edge"><title>Node9&#45;&gt;Node14</title>
<path fill="none" stroke="midnightblue" d="M278.702,-56.4835C230.695,-48.3528 156.835,-35.3754 84.2254,-20.357"/>
<polygon fill="midnightblue" stroke="midnightblue" points="84.4947,-16.838 73.991,-18.2246 83.0668,-23.6909 84.4947,-16.838"/>
</g>
<!-- Node15 -->
<g id="node15" class="node"><title>Node15</title>
<polygon fill="none" stroke="#bfbfbf" points="91.6537,-0.5 91.6537,-19.5 132.654,-19.5 132.654,-0.5 91.6537,-0.5"/>
<text text-anchor="middle" x="112.154" y="-7.5" font-family="Helvetica,sans-Serif" font-size="10.00">string</text>
</g>
<!-- Node9&#45;&gt;Node15 -->
<g id="edge17" class="edge"><title>Node9&#45;&gt;Node15</title>
<path fill="none" stroke="midnightblue" d="M290.865,-56.4544C254.599,-48.3865 199.046,-35.5759 142.516,-20.2481"/>
<polygon fill="midnightblue" stroke="midnightblue" points="143.268,-16.8252 132.699,-17.563 141.421,-23.5772 143.268,-16.8252"/>
</g>
<!-- Node16 -->
<g id="node16" class="node"><title>Node16</title>
<g id="a_node16"><a xlink:href="../../d7/df8/Types_8h.html" target="_top" xlink:title="MemoryResources/Types.h">
<polygon fill="none" stroke="black" points="150.654,-0.5 150.654,-19.5 287.654,-19.5 287.654,-0.5 150.654,-0.5"/>
<text text-anchor="middle" x="219.154" y="-7.5" font-family="Helvetica,sans-Serif" font-size="10.00">MemoryResources/Types.h</text>
</a>
</g>
</g>
<!-- Node9&#45;&gt;Node16 -->
<g id="edge18" class="edge"><title>Node9&#45;&gt;Node16</title>
<path fill="none" stroke="midnightblue" d="M312.32,-56.324C294.438,-47.6247 266.679,-34.1202 246.108,-24.113"/>
<polygon fill="midnightblue" stroke="midnightblue" points="247.467,-20.8819 236.944,-19.6545 244.405,-27.1765 247.467,-20.8819"/>
</g>
<!-- Node17&#45;&gt;Node6 -->
<g id="edge23" class="edge"><title>Node17&#45;&gt;Node6</title>
<path fill="none" stroke="midnightblue" d="M214.763,-112.444C192.446,-103.517 157.25,-89.4387 131.946,-79.3168"/>
<polygon fill="midnightblue" stroke="midnightblue" points="133.029,-75.9807 122.445,-75.5164 130.43,-82.4801 133.029,-75.9807"/>
</g>
<!-- Node17&#45;&gt;Node9 -->
<g id="edge20" class="edge"><title>Node17&#45;&gt;Node9</title>
<path fill="none" stroke="midnightblue" d="M251.256,-112.324C266.057,-103.822 288.848,-90.7288 306.136,-80.7975"/>
<polygon fill="midnightblue" stroke="midnightblue" points="308.161,-83.6707 315.088,-75.6545 304.674,-77.6009 308.161,-83.6707"/>
</g>
<!-- Node18 -->
<g id="node18" class="node"><title>Node18</title>
<polygon fill="none" stroke="#bfbfbf" points="141.654,-56.5 141.654,-75.5 200.654,-75.5 200.654,-56.5 141.654,-56.5"/>
<text text-anchor="middle" x="171.154" y="-63.5" font-family="Helvetica,sans-Serif" font-size="10.00">functional</text>
</g>
<!-- Node17&#45;&gt;Node18 -->
<g id="edge21" class="edge"><title>Node17&#45;&gt;Node18</title>
<path fill="none" stroke="midnightblue" d="M225.71,-112.324C216.007,-104.263 201.338,-92.0765 189.654,-82.3695"/>
<polygon fill="midnightblue" stroke="midnightblue" points="191.716,-79.532 181.787,-75.8339 187.242,-84.9163 191.716,-79.532"/>
</g>
<!-- Node19 -->
<g id="node19" class="node"><title>Node19</title>
<polygon fill="none" stroke="#bfbfbf" points="218.654,-56.5 218.654,-75.5 253.654,-75.5 253.654,-56.5 218.654,-56.5"/>
<text text-anchor="middle" x="236.154" y="-63.5" font-family="Helvetica,sans-Serif" font-size="10.00">map</text>
</g>
<!-- Node17&#45;&gt;Node19 -->
<g id="edge22" class="edge"><title>Node17&#45;&gt;Node19</title>
<path fill="none" stroke="midnightblue" d="M236.154,-112.083C236.154,-105.006 236.154,-94.8611 236.154,-85.9865"/>
<polygon fill="midnightblue" stroke="midnightblue" points="239.654,-85.751 236.154,-75.7511 232.654,-85.7511 239.654,-85.751"/>
</g>
<!-- Node21&#45;&gt;Node3 -->
<g id="edge29" class="edge"><title>Node21&#45;&gt;Node3</title>
<path fill="none" stroke="midnightblue" d="M701.148,-168.368C675.005,-149.573 612.686,-104.768 580.368,-81.5334"/>
<polygon fill="midnightblue" stroke="midnightblue" points="582.266,-78.5871 572.104,-75.5914 578.18,-84.2707 582.266,-78.5871"/>
</g>
</g>
</svg>
        <g id="navigator" transform="translate(0 0)" fill="#404254">
                <rect fill="#f2f5e9" fill-opacity="0.5" stroke="#606060" stroke-width=".5" x="0" y="0" width="60" height="60"/>
                <use id="zoomplus" xlink:href="#zoomPlus" x="17" y="9" onmousedown="handleZoom(evt,'in')"/>
                <use id="zoomminus" xlink:href="#zoomMin" x="42" y="9" onmousedown="handleZoom(evt,'out')"/>
                <use id="reset" xlink:href="#resetDef" x="30" y="36" onmousedown="handleReset()"/>
                <g id="arrowUp" xlink:href="#dirArrow" transform="translate(30 24)" onmousedown="handlePan(0,-1)">
                  <use xlink:href="#rim" fill="#404040">
                        <set attributeName="fill" to="#808080" begin="arrowUp.mouseover" end="arrowUp.mouseout"/>
                  </use>
                  <path fill="none" stroke="white" stroke-width="1.5" d="M0,-3.0v7 M-2.5,-0.5L0,-3.0L2.5,-0.5"/>
                </g>
                <g id="arrowRight" xlink:href="#dirArrow" transform="rotate(90) translate(36 -43)" onmousedown="handlePan(1,0)">
                  <use xlink:href="#rim" fill="#404040">
                        <set attributeName="fill" to="#808080" begin="arrowRight.mouseover" end="arrowRight.mouseout"/>
                  </use>
                  <path fill="none" stroke="white" stroke-width="1.5" d="M0,-3.0v7 M-2.5,-0.5L0,-3.0L2.5,-0.5"/>
                </g>
                <g id="arrowDown" xlink:href="#dirArrow" transform="rotate(180) translate(-30 -48)" onmousedown="handlePan(0,1)">
                  <use xlink:href="#rim" fill="#404040">
                        <set attributeName="fill" to="#808080" begin="arrowDown.mouseover" end="arrowDown.mouseout"/>
                  </use>
                  <path fill="none" stroke="white" stroke-width="1.5" d="M0,-3.0v7 M-2.5,-0.5L0,-3.0L2.5,-0.5"/>
                </g>
                <g id="arrowLeft" xlink:href="#dirArrow" transform="rotate(270) translate(-36 17)" onmousedown="handlePan(-1,0)">
                  <use xlink:href="#rim" fill="#404040">
                        <set attributeName="fill" to="#808080" begin="arrowLeft.mouseover" end="arrowLeft.mouseout"/>
                  </use>
                  <path fill="none" stroke="white" stroke-width="1.5" d="M0,-3.0v7 M-2.5,-0.5L0,-3.0L2.5,-0.5"/>
                </g>
        </g>
        <svg viewBox="0 0 15 15" width="100%" height="30px" preserveAspectRatio="xMaxYMin meet">
         <g id="arrow_out" transform="scale(0.3 0.3)">
          <a xlink:href="Component_8cxx__incl_org.svg" target="_base">
           <rect id="button" ry="5" rx="5" y="6" x="6" height="38" width="38"
                fill="#f2f5e9" fill-opacity="0.5" stroke="#606060" stroke-width="1.0"/>
           <path id="arrow"
             d="M 11.500037,31.436501 C 11.940474,20.09759 22.043105,11.32322 32.158766,21.979434 L 37.068811,17.246167 C 37.068811,17.246167 37.088388,32 37.088388,32 L 22.160133,31.978069 C 22.160133,31.978069 26.997745,27.140456 26.997745,27.140456 C 18.528582,18.264221 13.291696,25.230495 11.500037,31.436501 z"
             style="fill:#404040;"/>
          </a>
         </g>
        </svg>
</svg>
