<?xml version="1.0" encoding="UTF-8" standalone="no"?>
<!DOCTYPE svg PUBLIC "-//W3C//DTD SVG 1.1//EN"
 "http://www.w3.org/Graphics/SVG/1.1/DTD/svg11.dtd">
<!-- Generated by graphviz version 2.36.0 (20140111.2315)
 -->
<!-- Title: /home/travis/build/AliceO2Group/AliceO2/macro/CheckClusters_mft.C Pages: 1 -->
<svg width="2476pt" height="446pt"
 viewBox="0.00 0.00 2476.00 446.00" xmlns="http://www.w3.org/2000/svg" xmlns:xlink="http://www.w3.org/1999/xlink">
<g id="graph0" class="graph" transform="scale(1 1) rotate(0) translate(4 442)">
<title>/home/travis/build/AliceO2Group/AliceO2/macro/CheckClusters_mft.C</title>
<!-- Node1 -->
<g id="node1" class="node"><title>Node1</title>
<polygon fill="#bfbfbf" stroke="black" points="416.5,-396.5 416.5,-437.5 561.5,-437.5 561.5,-396.5 416.5,-396.5"/>
<text text-anchor="start" x="424.5" y="-425.5" font-family="Helvetica,sans-Serif" font-size="10.00">/home/travis/build</text>
<text text-anchor="start" x="424.5" y="-414.5" font-family="Helvetica,sans-Serif" font-size="10.00">/AliceO2Group/AliceO2</text>
<text text-anchor="middle" x="489" y="-403.5" font-family="Helvetica,sans-Serif" font-size="10.00">/macro/CheckClusters_mft.C</text>
</g>
<!-- Node2 -->
<g id="node2" class="node"><title>Node2</title>
<polygon fill="none" stroke="#bfbfbf" points="42.5,-340.5 42.5,-359.5 107.5,-359.5 107.5,-340.5 42.5,-340.5"/>
<text text-anchor="middle" x="75" y="-347.5" font-family="Helvetica,sans-Serif" font-size="10.00">TCanvas.h</text>
</g>
<!-- Node1&#45;&gt;Node2 -->
<g id="edge1" class="edge"><title>Node1&#45;&gt;Node2</title>
<path fill="none" stroke="midnightblue" d="M416.423,-406.424C343.487,-396.494 227.64,-379.889 117.478,-359.987"/>
<polygon fill="midnightblue" stroke="midnightblue" points="117.985,-356.521 107.52,-358.176 116.732,-363.409 117.985,-356.521"/>
</g>
<!-- Node3 -->
<g id="node3" class="node"><title>Node3</title>
<polygon fill="none" stroke="#bfbfbf" points="125.5,-340.5 125.5,-359.5 172.5,-359.5 172.5,-340.5 125.5,-340.5"/>
<text text-anchor="middle" x="149" y="-347.5" font-family="Helvetica,sans-Serif" font-size="10.00">TFile.h</text>
</g>
<!-- Node1&#45;&gt;Node3 -->
<g id="edge2" class="edge"><title>Node1&#45;&gt;Node3</title>
<path fill="none" stroke="midnightblue" d="M416.38,-404.559C356.263,-394.674 268.454,-379.284 182.643,-359.983"/>
<polygon fill="midnightblue" stroke="midnightblue" points="183.258,-356.534 172.732,-357.734 181.709,-363.36 183.258,-356.534"/>
</g>
<!-- Node4 -->
<g id="node4" class="node"><title>Node4</title>
<polygon fill="none" stroke="#bfbfbf" points="191,-340.5 191,-359.5 241,-359.5 241,-340.5 191,-340.5"/>
<text text-anchor="middle" x="216" y="-347.5" font-family="Helvetica,sans-Serif" font-size="10.00">TH2F.h</text>
</g>
<!-- Node1&#45;&gt;Node4 -->
<g id="edge3" class="edge"><title>Node1&#45;&gt;Node4</title>
<path fill="none" stroke="midnightblue" d="M416.256,-399.293C369.085,-388.358 306.334,-373.623 251,-360 250.901,-359.976 250.802,-359.951 250.703,-359.927"/>
<polygon fill="midnightblue" stroke="midnightblue" points="251.77,-356.586 241.219,-357.551 250.069,-363.376 251.77,-356.586"/>
</g>
<!-- Node5 -->
<g id="node5" class="node"><title>Node5</title>
<polygon fill="none" stroke="#bfbfbf" points="259.5,-340.5 259.5,-359.5 318.5,-359.5 318.5,-340.5 259.5,-340.5"/>
<text text-anchor="middle" x="289" y="-347.5" font-family="Helvetica,sans-Serif" font-size="10.00">TNtuple.h</text>
</g>
<!-- Node1&#45;&gt;Node5 -->
<g id="edge4" class="edge"><title>Node1&#45;&gt;Node5</title>
<path fill="none" stroke="midnightblue" d="M428.993,-396.498C395.131,-385.493 353.943,-372.106 325.039,-362.713"/>
<polygon fill="midnightblue" stroke="midnightblue" points="325.952,-359.329 315.36,-359.567 323.789,-365.987 325.952,-359.329"/>
</g>
<!-- Node6 -->
<g id="node6" class="node"><title>Node6</title>
<polygon fill="none" stroke="#bfbfbf" points="337,-340.5 337,-359.5 393,-359.5 393,-340.5 337,-340.5"/>
<text text-anchor="middle" x="365" y="-347.5" font-family="Helvetica,sans-Serif" font-size="10.00">TString.h</text>
</g>
<!-- Node1&#45;&gt;Node6 -->
<g id="edge5" class="edge"><title>Node1&#45;&gt;Node6</title>
<path fill="none" stroke="midnightblue" d="M451.796,-396.498C432.053,-386.149 408.294,-373.695 390.629,-364.435"/>
<polygon fill="midnightblue" stroke="midnightblue" points="391.988,-361.195 381.506,-359.652 388.738,-367.395 391.988,-361.195"/>
</g>
<!-- Node7 -->
<g id="node7" class="node"><title>Node7</title>
<polygon fill="none" stroke="#bfbfbf" points="411,-340.5 411,-359.5 461,-359.5 461,-340.5 411,-340.5"/>
<text text-anchor="middle" x="436" y="-347.5" font-family="Helvetica,sans-Serif" font-size="10.00">TTree.h</text>
</g>
<!-- Node1&#45;&gt;Node7 -->
<g id="edge6" class="edge"><title>Node1&#45;&gt;Node7</title>
<path fill="none" stroke="midnightblue" d="M473.098,-396.498C465.597,-387.299 456.74,-376.436 449.562,-367.632"/>
<polygon fill="midnightblue" stroke="midnightblue" points="452.087,-365.191 443.055,-359.652 446.662,-369.614 452.087,-365.191"/>
</g>
<!-- Node8 -->
<g id="node8" class="node"><title>Node8</title>
<g id="a_node8"><a xlink:href="../../d1/d62/DataFormats_2Detectors_2ITSMFT_2common_2include_2DataFormatsITSMFT_2Cluster_8h.html" target="_top" xlink:title="DataFormatsITSMFT/Cluster.h">
<polygon fill="none" stroke="black" points="610,-340.5 610,-359.5 762,-359.5 762,-340.5 610,-340.5"/>
<text text-anchor="middle" x="686" y="-347.5" font-family="Helvetica,sans-Serif" font-size="10.00">DataFormatsITSMFT/Cluster.h</text>
</a>
</g>
</g>
<!-- Node1&#45;&gt;Node8 -->
<g id="edge7" class="edge"><title>Node1&#45;&gt;Node8</title>
<path fill="none" stroke="midnightblue" d="M548.106,-396.498C581.461,-385.493 622.031,-372.106 650.501,-362.713"/>
<polygon fill="midnightblue" stroke="midnightblue" points="651.635,-366.024 660.035,-359.567 649.442,-359.377 651.635,-366.024"/>
</g>
<!-- Node25 -->
<g id="node25" class="node"><title>Node25</title>
<g id="a_node25"><a xlink:href="../../d9/d52/Common_2MathUtils_2include_2MathUtils_2Utils_8h.html" target="_top" xlink:title="MathUtils/Utils.h">
<polygon fill="none" stroke="black" points="107,-74.5 107,-93.5 197,-93.5 197,-74.5 107,-74.5"/>
<text text-anchor="middle" x="152" y="-81.5" font-family="Helvetica,sans-Serif" font-size="10.00">MathUtils/Utils.h</text>
</a>
</g>
</g>
<!-- Node1&#45;&gt;Node25 -->
<g id="edge58" class="edge"><title>Node1&#45;&gt;Node25</title>
<path fill="none" stroke="midnightblue" d="M488.706,-396.415C487.472,-379.679 483.26,-355.86 470,-340 350.571,-197.154 189.081,-324.368 88,-168 80.279,-156.056 81.8269,-148.813 88,-136 95.7397,-119.936 111.273,-107.365 125.099,-98.7227"/>
<polygon fill="midnightblue" stroke="midnightblue" points="126.971,-101.682 133.838,-93.6139 123.438,-95.6391 126.971,-101.682"/>
</g>
<!-- Node28 -->
<g id="node28" class="node"><title>Node28</title>
<g id="a_node28"><a xlink:href="../../dd/d76/Cartesian3D_8h.html" target="_top" xlink:title="MathUtils/Cartesian3D.h">
<polygon fill="none" stroke="black" points="954.5,-142.5 954.5,-161.5 1079.5,-161.5 1079.5,-142.5 954.5,-142.5"/>
<text text-anchor="middle" x="1017" y="-149.5" font-family="Helvetica,sans-Serif" font-size="10.00">MathUtils/Cartesian3D.h</text>
</a>
</g>
</g>
<!-- Node1&#45;&gt;Node28 -->
<g id="edge57" class="edge"><title>Node1&#45;&gt;Node28</title>
<path fill="none" stroke="midnightblue" d="M561.676,-411.605C620.576,-405.733 704.426,-392.019 771,-360 867.925,-313.383 873.632,-273.16 956,-204 970.292,-192 986.5,-178.452 998.615,-168.337"/>
<polygon fill="midnightblue" stroke="midnightblue" points="1001.19,-170.744 1006.63,-161.65 996.707,-165.37 1001.19,-170.744"/>
</g>
<!-- Node38 -->
<g id="node38" class="node"><title>Node38</title>
<g id="a_node38"><a xlink:href="../../d0/dae/ITSMFT_2common_2simulation_2include_2ITSMFTSimulation_2Hit_8h.html" target="_top" xlink:title="ITSMFTSimulation/Hit.h">
<polygon fill="none" stroke="black" points="1026,-278.5 1026,-297.5 1148,-297.5 1148,-278.5 1026,-278.5"/>
<text text-anchor="middle" x="1087" y="-285.5" font-family="Helvetica,sans-Serif" font-size="10.00">ITSMFTSimulation/Hit.h</text>
</a>
</g>
</g>
<!-- Node1&#45;&gt;Node38 -->
<g id="edge43" class="edge"><title>Node1&#45;&gt;Node38</title>
<path fill="none" stroke="midnightblue" d="M561.551,-414.233C651.913,-410.397 810.211,-398.271 940,-360 986.405,-346.317 1036.28,-319.313 1064.37,-302.837"/>
<polygon fill="midnightblue" stroke="midnightblue" points="1066.22,-305.809 1073.03,-297.687 1062.64,-299.793 1066.22,-305.809"/>
</g>
<!-- Node47 -->
<g id="node47" class="node"><title>Node47</title>
<polygon fill="none" stroke="#bfbfbf" points="1696.5,-340.5 1696.5,-359.5 1833.5,-359.5 1833.5,-340.5 1696.5,-340.5"/>
<text text-anchor="middle" x="1765" y="-347.5" font-family="Helvetica,sans-Serif" font-size="10.00">MFTBase/GeometryTGeo.h</text>
</g>
<!-- Node1&#45;&gt;Node47 -->
<g id="edge56" class="edge"><title>Node1&#45;&gt;Node47</title>
<path fill="none" stroke="midnightblue" d="M561.721,-414.134C748.136,-409.015 1258.21,-392.892 1682,-360 1683.3,-359.899 1684.61,-359.794 1685.93,-359.686"/>
<polygon fill="midnightblue" stroke="midnightblue" points="1686.53,-363.147 1696.19,-358.789 1685.92,-356.173 1686.53,-363.147"/>
</g>
<!-- Node48 -->
<g id="node48" class="node"><title>Node48</title>
<g id="a_node48"><a xlink:href="../../d7/dcd/MCCompLabel_8h.html" target="_top" xlink:title="SimulationDataFormat\l/MCCompLabel.h">
<polygon fill="none" stroke="black" points="442,-273 442,-303 556,-303 556,-273 442,-273"/>
<text text-anchor="start" x="450" y="-291" font-family="Helvetica,sans-Serif" font-size="10.00">SimulationDataFormat</text>
<text text-anchor="middle" x="499" y="-280" font-family="Helvetica,sans-Serif" font-size="10.00">/MCCompLabel.h</text>
</a>
</g>
</g>
<!-- Node1&#45;&gt;Node48 -->
<g id="edge59" class="edge"><title>Node1&#45;&gt;Node48</title>
<path fill="none" stroke="midnightblue" d="M495.19,-396.267C498.203,-385.64 501.494,-372.234 503,-360 504.086,-351.178 503.348,-348.882 503,-340 502.658,-331.264 501.988,-321.706 501.292,-313.249"/>
<polygon fill="midnightblue" stroke="midnightblue" points="504.777,-312.929 500.42,-303.272 497.804,-313.538 504.777,-312.929"/>
</g>
<!-- Node49 -->
<g id="node49" class="node"><title>Node49</title>
<g id="a_node49"><a xlink:href="../../db/d14/MCTruthContainer_8h.html" target="_top" xlink:title="Definition of a container to keep Monte Carlo truth external to simulation objects. ">
<polygon fill="none" stroke="black" points="2120,-137 2120,-167 2234,-167 2234,-137 2120,-137"/>
<text text-anchor="start" x="2128" y="-155" font-family="Helvetica,sans-Serif" font-size="10.00">SimulationDataFormat</text>
<text text-anchor="middle" x="2177" y="-144" font-family="Helvetica,sans-Serif" font-size="10.00">/MCTruthContainer.h</text>
</a>
</g>
</g>
<!-- Node1&#45;&gt;Node49 -->
<g id="edge61" class="edge"><title>Node1&#45;&gt;Node49</title>
<path fill="none" stroke="midnightblue" d="M561.809,-408.995C657.658,-399.473 831.313,-381.181 979,-360 1411.66,-297.949 1928.27,-200.835 2109.89,-165.988"/>
<polygon fill="midnightblue" stroke="midnightblue" points="2110.67,-169.402 2119.83,-164.079 2109.35,-162.528 2110.67,-169.402"/>
</g>
<!-- Node9 -->
<g id="node9" class="node"><title>Node9</title>
<g id="a_node9"><a xlink:href="../../d4/de2/BaseCluster_8h.html" target="_top" xlink:title="ReconstructionDataFormats\l/BaseCluster.h">
<polygon fill="none" stroke="black" points="643,-273 643,-303 783,-303 783,-273 643,-273"/>
<text text-anchor="start" x="651" y="-291" font-family="Helvetica,sans-Serif" font-size="10.00">ReconstructionDataFormats</text>
<text text-anchor="middle" x="713" y="-280" font-family="Helvetica,sans-Serif" font-size="10.00">/BaseCluster.h</text>
</a>
</g>
</g>
<!-- Node8&#45;&gt;Node9 -->
<g id="edge8" class="edge"><title>Node8&#45;&gt;Node9</title>
<path fill="none" stroke="midnightblue" d="M689.868,-340.403C693.149,-333.113 698.014,-322.303 702.436,-312.475"/>
<polygon fill="midnightblue" stroke="midnightblue" points="705.725,-313.696 706.637,-303.141 699.341,-310.824 705.725,-313.696"/>
</g>
<!-- Node10 -->
<g id="node10" class="node"><title>Node10</title>
<polygon fill="none" stroke="#bfbfbf" points="599.5,-210.5 599.5,-229.5 658.5,-229.5 658.5,-210.5 599.5,-210.5"/>
<text text-anchor="middle" x="629" y="-217.5" font-family="Helvetica,sans-Serif" font-size="10.00">TObject.h</text>
</g>
<!-- Node9&#45;&gt;Node10 -->
<g id="edge9" class="edge"><title>Node9&#45;&gt;Node10</title>
<path fill="none" stroke="midnightblue" d="M694.773,-272.679C681.027,-261.879 662.216,-247.098 648.231,-236.11"/>
<polygon fill="midnightblue" stroke="midnightblue" points="650.262,-233.254 640.236,-229.828 645.937,-238.759 650.262,-233.254"/>
</g>
<!-- Node11 -->
<g id="node11" class="node"><title>Node11</title>
<polygon fill="none" stroke="#bfbfbf" points="382.5,-74.5 382.5,-93.5 423.5,-93.5 423.5,-74.5 382.5,-74.5"/>
<text text-anchor="middle" x="403" y="-81.5" font-family="Helvetica,sans-Serif" font-size="10.00">bitset</text>
</g>
<!-- Node9&#45;&gt;Node11 -->
<g id="edge10" class="edge"><title>Node9&#45;&gt;Node11</title>
<path fill="none" stroke="midnightblue" d="M710.747,-272.859C705.044,-238.915 688.988,-154.281 668,-136 588.325,-66.5991 533.696,-132.015 433,-100 431.085,-99.3913 429.142,-98.6742 427.212,-97.8891"/>
<polygon fill="midnightblue" stroke="midnightblue" points="428.422,-94.5926 417.875,-93.5822 425.49,-100.949 428.422,-94.5926"/>
</g>
<!-- Node12 -->
<g id="node12" class="node"><title>Node12</title>
<polygon fill="none" stroke="#bfbfbf" points="715,-210.5 715,-229.5 765,-229.5 765,-210.5 715,-210.5"/>
<text text-anchor="middle" x="740" y="-217.5" font-family="Helvetica,sans-Serif" font-size="10.00">iomanip</text>
</g>
<!-- Node9&#45;&gt;Node12 -->
<g id="edge11" class="edge"><title>Node9&#45;&gt;Node12</title>
<path fill="none" stroke="midnightblue" d="M718.859,-272.679C722.86,-262.898 728.197,-249.852 732.508,-239.315"/>
<polygon fill="midnightblue" stroke="midnightblue" points="735.841,-240.409 736.388,-229.828 729.363,-237.759 735.841,-240.409"/>
</g>
<!-- Node13 -->
<g id="node13" class="node"><title>Node13</title>
<polygon fill="none" stroke="#bfbfbf" points="783.5,-210.5 783.5,-229.5 812.5,-229.5 812.5,-210.5 783.5,-210.5"/>
<text text-anchor="middle" x="798" y="-217.5" font-family="Helvetica,sans-Serif" font-size="10.00">ios</text>
</g>
<!-- Node9&#45;&gt;Node13 -->
<g id="edge12" class="edge"><title>Node9&#45;&gt;Node13</title>
<path fill="none" stroke="midnightblue" d="M731.444,-272.679C745.353,-261.879 764.389,-247.098 778.54,-236.11"/>
<polygon fill="midnightblue" stroke="midnightblue" points="780.878,-238.726 786.63,-229.828 776.585,-233.197 780.878,-238.726"/>
</g>
<!-- Node14 -->
<g id="node14" class="node"><title>Node14</title>
<polygon fill="none" stroke="#bfbfbf" points="1716.5,-74.5 1716.5,-93.5 1761.5,-93.5 1761.5,-74.5 1716.5,-74.5"/>
<text text-anchor="middle" x="1739" y="-81.5" font-family="Helvetica,sans-Serif" font-size="10.00">iosfwd</text>
</g>
<!-- Node9&#45;&gt;Node14 -->
<g id="edge13" class="edge"><title>Node9&#45;&gt;Node14</title>
<path fill="none" stroke="midnightblue" d="M783.1,-282.58C876.343,-275.833 1035.52,-261.037 1088,-236 1106.73,-227.065 1105.19,-216.17 1122,-204 1173.23,-166.911 1186.37,-153.979 1247,-136 1443.18,-77.8302 1507.86,-151.111 1706,-100 1708.51,-99.3536 1711.06,-98.5277 1713.58,-97.5968"/>
<polygon fill="midnightblue" stroke="midnightblue" points="1715.11,-100.751 1722.96,-93.6429 1712.39,-94.3004 1715.11,-100.751"/>
</g>
<!-- Node15 -->
<g id="node15" class="node"><title>Node15</title>
<g id="a_node15"><a xlink:href="../../d4/d20/DetMatrixCache_8h.html" target="_top" xlink:title="DetectorsCommonDataFormats\l/DetMatrixCache.h">
<polygon fill="none" stroke="black" points="385,-205 385,-235 541,-235 541,-205 385,-205"/>
<text text-anchor="start" x="393" y="-223" font-family="Helvetica,sans-Serif" font-size="10.00">DetectorsCommonDataFormats</text>
<text text-anchor="middle" x="463" y="-212" font-family="Helvetica,sans-Serif" font-size="10.00">/DetMatrixCache.h</text>
</a>
</g>
</g>
<!-- Node9&#45;&gt;Node15 -->
<g id="edge14" class="edge"><title>Node9&#45;&gt;Node15</title>
<path fill="none" stroke="midnightblue" d="M659.675,-272.922C620.511,-262.583 567.169,-248.501 525.917,-237.61"/>
<polygon fill="midnightblue" stroke="midnightblue" points="526.805,-234.225 516.243,-235.056 525.018,-240.993 526.805,-234.225"/>
</g>
<!-- Node9&#45;&gt;Node28 -->
<g id="edge42" class="edge"><title>Node9&#45;&gt;Node28</title>
<path fill="none" stroke="midnightblue" d="M744.959,-272.913C804.475,-246.679 931.403,-190.73 988.331,-165.637"/>
<polygon fill="midnightblue" stroke="midnightblue" points="989.743,-168.84 997.482,-161.603 986.92,-162.434 989.743,-168.84"/>
</g>
<!-- Node16 -->
<g id="node16" class="node"><title>Node16</title>
<polygon fill="none" stroke="#bfbfbf" points="281,-142.5 281,-161.5 423,-161.5 423,-142.5 281,-142.5"/>
<text text-anchor="middle" x="352" y="-149.5" font-family="Helvetica,sans-Serif" font-size="10.00">AliTPCCommonFairLogger.h</text>
</g>
<!-- Node15&#45;&gt;Node16 -->
<g id="edge15" class="edge"><title>Node15&#45;&gt;Node16</title>
<path fill="none" stroke="midnightblue" d="M439.188,-204.841C420.332,-193.63 394.139,-178.056 375.393,-166.91"/>
<polygon fill="midnightblue" stroke="midnightblue" points="376.986,-163.784 366.601,-161.682 373.408,-169.801 376.986,-163.784"/>
</g>
<!-- Node17 -->
<g id="node17" class="node"><title>Node17</title>
<polygon fill="none" stroke="#bfbfbf" points="97,-142.5 97,-161.5 225,-161.5 225,-142.5 97,-142.5"/>
<text text-anchor="middle" x="161" y="-149.5" font-family="Helvetica,sans-Serif" font-size="10.00">AliTPCCommonRtypes.h</text>
</g>
<!-- Node15&#45;&gt;Node17 -->
<g id="edge16" class="edge"><title>Node15&#45;&gt;Node17</title>
<path fill="none" stroke="midnightblue" d="M398.584,-204.922C342.067,-192.571 261.109,-174.878 209.806,-163.666"/>
<polygon fill="midnightblue" stroke="midnightblue" points="210.474,-160.23 199.957,-161.514 208.979,-167.068 210.474,-160.23"/>
</g>
<!-- Node18 -->
<g id="node18" class="node"><title>Node18</title>
<polygon fill="none" stroke="#bfbfbf" points="260,-6.5 260,-25.5 298,-25.5 298,-6.5 260,-6.5"/>
<text text-anchor="middle" x="279" y="-13.5" font-family="Helvetica,sans-Serif" font-size="10.00">array</text>
</g>
<!-- Node15&#45;&gt;Node18 -->
<g id="edge17" class="edge"><title>Node15&#45;&gt;Node18</title>
<path fill="none" stroke="midnightblue" d="M384.874,-207.834C338.582,-199.453 286.246,-186.269 272,-168 241.685,-129.124 259.629,-65.9951 271.331,-35.1398"/>
<polygon fill="midnightblue" stroke="midnightblue" points="274.657,-36.2492 275.121,-25.6645 268.157,-33.6498 274.657,-36.2492"/>
</g>
<!-- Node19 -->
<g id="node19" class="node"><title>Node19</title>
<polygon fill="none" stroke="#bfbfbf" points="441,-142.5 441,-161.5 485,-161.5 485,-142.5 441,-142.5"/>
<text text-anchor="middle" x="463" y="-149.5" font-family="Helvetica,sans-Serif" font-size="10.00">vector</text>
</g>
<!-- Node15&#45;&gt;Node19 -->
<g id="edge18" class="edge"><title>Node15&#45;&gt;Node19</title>
<path fill="none" stroke="midnightblue" d="M463,-204.679C463,-195.101 463,-182.394 463,-171.977"/>
<polygon fill="midnightblue" stroke="midnightblue" points="466.5,-171.828 463,-161.828 459.5,-171.828 466.5,-171.828"/>
</g>
<!-- Node20 -->
<g id="node20" class="node"><title>Node20</title>
<g id="a_node20"><a xlink:href="../../d6/d31/DetID_8h.html" target="_top" xlink:title="DetectorsCommonDataFormats\l/DetID.h">
<polygon fill="none" stroke="black" points="503,-137 503,-167 659,-167 659,-137 503,-137"/>
<text text-anchor="start" x="511" y="-155" font-family="Helvetica,sans-Serif" font-size="10.00">DetectorsCommonDataFormats</text>
<text text-anchor="middle" x="581" y="-144" font-family="Helvetica,sans-Serif" font-size="10.00">/DetID.h</text>
</a>
</g>
</g>
<!-- Node15&#45;&gt;Node20 -->
<g id="edge19" class="edge"><title>Node15&#45;&gt;Node20</title>
<path fill="none" stroke="midnightblue" d="M488.314,-204.841C505.424,-195.272 528.217,-182.523 546.919,-172.062"/>
<polygon fill="midnightblue" stroke="midnightblue" points="548.709,-175.071 555.728,-167.135 545.292,-168.962 548.709,-175.071"/>
</g>
<!-- Node15&#45;&gt;Node28 -->
<g id="edge30" class="edge"><title>Node15&#45;&gt;Node28</title>
<path fill="none" stroke="midnightblue" d="M541.2,-209.684C648.433,-196.909 839.679,-174.125 944.074,-161.688"/>
<polygon fill="midnightblue" stroke="midnightblue" points="944.692,-165.139 954.208,-160.481 943.864,-158.188 944.692,-165.139"/>
</g>
<!-- Node20&#45;&gt;Node11 -->
<g id="edge22" class="edge"><title>Node20&#45;&gt;Node11</title>
<path fill="none" stroke="midnightblue" d="M535.075,-136.903C505.551,-127.418 466.575,-114.106 433,-100 431.591,-99.4079 430.155,-98.7795 428.713,-98.1286"/>
<polygon fill="midnightblue" stroke="midnightblue" points="429.855,-94.7956 419.323,-93.649 426.841,-101.114 429.855,-94.7956"/>
</g>
<!-- Node20&#45;&gt;Node18 -->
<g id="edge21" class="edge"><title>Node20&#45;&gt;Node18</title>
<path fill="none" stroke="midnightblue" d="M508.807,-136.993C458.882,-126.597 397.393,-112.174 374,-100 365.142,-95.3902 320.687,-55.2212 295.852,-32.4999"/>
<polygon fill="midnightblue" stroke="midnightblue" points="297.998,-29.7186 288.262,-25.5398 293.267,-34.8779 297.998,-29.7186"/>
</g>
<!-- Node21 -->
<g id="node21" class="node"><title>Node21</title>
<polygon fill="none" stroke="#bfbfbf" points="442,-74.5 442,-93.5 498,-93.5 498,-74.5 442,-74.5"/>
<text text-anchor="middle" x="470" y="-81.5" font-family="Helvetica,sans-Serif" font-size="10.00">Rtypes.h</text>
</g>
<!-- Node20&#45;&gt;Node21 -->
<g id="edge20" class="edge"><title>Node20&#45;&gt;Node21</title>
<path fill="none" stroke="midnightblue" d="M557.188,-136.841C538.332,-125.63 512.139,-110.056 493.393,-98.9096"/>
<polygon fill="midnightblue" stroke="midnightblue" points="494.986,-95.7843 484.601,-93.6819 491.408,-101.801 494.986,-95.7843"/>
</g>
<!-- Node22 -->
<g id="node22" class="node"><title>Node22</title>
<polygon fill="none" stroke="#bfbfbf" points="1779.5,-74.5 1779.5,-93.5 1828.5,-93.5 1828.5,-74.5 1779.5,-74.5"/>
<text text-anchor="middle" x="1804" y="-81.5" font-family="Helvetica,sans-Serif" font-size="10.00">cassert</text>
</g>
<!-- Node20&#45;&gt;Node22 -->
<g id="edge23" class="edge"><title>Node20&#45;&gt;Node22</title>
<path fill="none" stroke="midnightblue" d="M659.431,-147.732C923.36,-136.721 1763.22,-101.582 1770,-100 1772.83,-99.3404 1775.71,-98.4493 1778.54,-97.4283"/>
<polygon fill="midnightblue" stroke="midnightblue" points="1779.91,-100.65 1787.83,-93.605 1777.25,-94.1776 1779.91,-100.65"/>
</g>
<!-- Node23 -->
<g id="node23" class="node"><title>Node23</title>
<polygon fill="none" stroke="#bfbfbf" points="280,-74.5 280,-93.5 326,-93.5 326,-74.5 280,-74.5"/>
<text text-anchor="middle" x="303" y="-81.5" font-family="Helvetica,sans-Serif" font-size="10.00">cstdint</text>
</g>
<!-- Node20&#45;&gt;Node23 -->
<g id="edge24" class="edge"><title>Node20&#45;&gt;Node23</title>
<path fill="none" stroke="midnightblue" d="M507.625,-136.951C448.658,-125.385 370.775,-109.414 340,-100 337.357,-99.1915 334.64,-98.271 331.935,-97.2929"/>
<polygon fill="midnightblue" stroke="midnightblue" points="332.943,-93.9304 322.354,-93.596 330.423,-100.461 332.943,-93.9304"/>
</g>
<!-- Node24 -->
<g id="node24" class="node"><title>Node24</title>
<polygon fill="none" stroke="#bfbfbf" points="857,-74.5 857,-93.5 919,-93.5 919,-74.5 857,-74.5"/>
<text text-anchor="middle" x="888" y="-81.5" font-family="Helvetica,sans-Serif" font-size="10.00">type_traits</text>
</g>
<!-- Node20&#45;&gt;Node24 -->
<g id="edge25" class="edge"><title>Node20&#45;&gt;Node24</title>
<path fill="none" stroke="midnightblue" d="M659.215,-139.657C712.875,-131.002 785.413,-117.575 848,-100 851.142,-99.1178 854.385,-98.0957 857.603,-97.0079"/>
<polygon fill="midnightblue" stroke="midnightblue" points="858.816,-100.291 867.049,-93.6215 856.454,-93.7016 858.816,-100.291"/>
</g>
<!-- Node20&#45;&gt;Node25 -->
<g id="edge26" class="edge"><title>Node20&#45;&gt;Node25</title>
<path fill="none" stroke="midnightblue" d="M502.804,-137.586C499.492,-137.045 496.214,-136.514 493,-136 392.222,-119.877 274.426,-102.608 206.982,-92.8713"/>
<polygon fill="midnightblue" stroke="midnightblue" points="207.4,-89.3954 197.002,-91.4326 206.401,-96.3238 207.4,-89.3954"/>
</g>
<!-- Node25&#45;&gt;Node18 -->
<g id="edge27" class="edge"><title>Node25&#45;&gt;Node18</title>
<path fill="none" stroke="midnightblue" d="M168.603,-74.3717C190.185,-63.1557 228.098,-43.4532 253.381,-30.3136"/>
<polygon fill="midnightblue" stroke="midnightblue" points="255.134,-33.3475 262.393,-25.6305 251.906,-27.1362 255.134,-33.3475"/>
</g>
<!-- Node26 -->
<g id="node26" class="node"><title>Node26</title>
<polygon fill="none" stroke="#bfbfbf" points="0,-6.5 0,-25.5 44,-25.5 44,-6.5 0,-6.5"/>
<text text-anchor="middle" x="22" y="-13.5" font-family="Helvetica,sans-Serif" font-size="10.00">cmath</text>
</g>
<!-- Node25&#45;&gt;Node26 -->
<g id="edge28" class="edge"><title>Node25&#45;&gt;Node26</title>
<path fill="none" stroke="midnightblue" d="M135.005,-74.3717C112.913,-63.1557 74.1047,-43.4532 48.2238,-30.3136"/>
<polygon fill="midnightblue" stroke="midnightblue" points="49.5005,-27.0366 38.9994,-25.6305 46.3316,-33.2783 49.5005,-27.0366"/>
</g>
<!-- Node27 -->
<g id="node27" class="node"><title>Node27</title>
<g id="a_node27"><a xlink:href="../../d6/d84/MathConstants_8h.html" target="_top" xlink:title="useful math constants ">
<polygon fill="none" stroke="black" points="62.5,-6.5 62.5,-25.5 241.5,-25.5 241.5,-6.5 62.5,-6.5"/>
<text text-anchor="middle" x="152" y="-13.5" font-family="Helvetica,sans-Serif" font-size="10.00">CommonConstants/MathConstants.h</text>
</a>
</g>
</g>
<!-- Node25&#45;&gt;Node27 -->
<g id="edge29" class="edge"><title>Node25&#45;&gt;Node27</title>
<path fill="none" stroke="midnightblue" d="M152,-74.3717C152,-64.6426 152,-48.528 152,-35.8504"/>
<polygon fill="midnightblue" stroke="midnightblue" points="155.5,-35.8411 152,-25.8411 148.5,-35.8412 155.5,-35.8411"/>
</g>
<!-- Node28&#45;&gt;Node14 -->
<g id="edge38" class="edge"><title>Node28&#45;&gt;Node14</title>
<path fill="none" stroke="midnightblue" d="M1055.61,-142.43C1067.84,-140 1081.43,-137.586 1094,-136 1364.32,-101.874 1441.51,-165.479 1706,-100 1708.66,-99.3421 1711.36,-98.4747 1714.03,-97.488"/>
<polygon fill="midnightblue" stroke="midnightblue" points="1715.47,-100.677 1723.31,-93.5525 1712.74,-94.232 1715.47,-100.677"/>
</g>
<!-- Node28&#45;&gt;Node21 -->
<g id="edge36" class="edge"><title>Node28&#45;&gt;Node21</title>
<path fill="none" stroke="midnightblue" d="M954.258,-144.96C820.338,-132.037 517.75,-102.658 507,-100 503.936,-99.2424 500.792,-98.2798 497.693,-97.2091"/>
<polygon fill="midnightblue" stroke="midnightblue" points="498.69,-93.8432 488.099,-93.5391 496.188,-100.381 498.69,-93.8432"/>
</g>
<!-- Node29 -->
<g id="node29" class="node"><title>Node29</title>
<polygon fill="none" stroke="#bfbfbf" points="1352.5,-69 1352.5,-99 1503.5,-99 1503.5,-69 1352.5,-69"/>
<text text-anchor="start" x="1360.5" y="-87" font-family="Helvetica,sans-Serif" font-size="10.00">Math/GenVector/Displacement</text>
<text text-anchor="middle" x="1428" y="-76" font-family="Helvetica,sans-Serif" font-size="10.00">Vector3D.h</text>
</g>
<!-- Node28&#45;&gt;Node29 -->
<g id="edge31" class="edge"><title>Node28&#45;&gt;Node29</title>
<path fill="none" stroke="midnightblue" d="M1058.89,-142.454C1070.26,-140.239 1082.59,-137.936 1094,-136 1201.12,-117.834 1230.92,-117.71 1342.51,-100.043"/>
<polygon fill="midnightblue" stroke="midnightblue" points="1343.15,-103.485 1352.48,-98.4532 1342.05,-96.5723 1343.15,-103.485"/>
</g>
<!-- Node30 -->
<g id="node30" class="node"><title>Node30</title>
<polygon fill="none" stroke="#bfbfbf" points="1522,-74.5 1522,-93.5 1698,-93.5 1698,-74.5 1522,-74.5"/>
<text text-anchor="middle" x="1610" y="-81.5" font-family="Helvetica,sans-Serif" font-size="10.00">Math/GenVector/PositionVector3D.h</text>
</g>
<!-- Node28&#45;&gt;Node30 -->
<g id="edge32" class="edge"><title>Node28&#45;&gt;Node30</title>
<path fill="none" stroke="midnightblue" d="M1056.43,-142.481C1068.45,-140.111 1081.73,-137.719 1094,-136 1278.66,-110.136 1326.85,-122.118 1512,-100 1523.88,-98.5804 1536.54,-96.8254 1548.68,-95.0219"/>
<polygon fill="midnightblue" stroke="midnightblue" points="1549.35,-98.4592 1558.72,-93.5019 1548.31,-91.5381 1549.35,-98.4592"/>
</g>
<!-- Node31 -->
<g id="node31" class="node"><title>Node31</title>
<polygon fill="none" stroke="#bfbfbf" points="515.5,-74.5 515.5,-93.5 664.5,-93.5 664.5,-74.5 515.5,-74.5"/>
<text text-anchor="middle" x="590" y="-81.5" font-family="Helvetica,sans-Serif" font-size="10.00">Math/GenVector/Rotation3D.h</text>
</g>
<!-- Node28&#45;&gt;Node31 -->
<g id="edge33" class="edge"><title>Node28&#45;&gt;Node31</title>
<path fill="none" stroke="midnightblue" d="M955.887,-142.46C887.222,-132.739 772.478,-116.11 674,-100 665.089,-98.5422 655.659,-96.9282 646.463,-95.3151"/>
<polygon fill="midnightblue" stroke="midnightblue" points="647.068,-91.8679 636.611,-93.5725 645.849,-98.7609 647.068,-91.8679"/>
</g>
<!-- Node32 -->
<g id="node32" class="node"><title>Node32</title>
<polygon fill="none" stroke="#bfbfbf" points="683,-74.5 683,-93.5 839,-93.5 839,-74.5 683,-74.5"/>
<text text-anchor="middle" x="761" y="-81.5" font-family="Helvetica,sans-Serif" font-size="10.00">Math/GenVector/Transform3D.h</text>
</g>
<!-- Node28&#45;&gt;Node32 -->
<g id="edge34" class="edge"><title>Node28&#45;&gt;Node32</title>
<path fill="none" stroke="midnightblue" d="M983.795,-142.439C937.851,-130.594 854.836,-109.192 804.141,-96.1223"/>
<polygon fill="midnightblue" stroke="midnightblue" points="804.703,-92.6529 794.146,-93.5455 802.956,-99.4313 804.703,-92.6529"/>
</g>
<!-- Node33 -->
<g id="node33" class="node"><title>Node33</title>
<polygon fill="none" stroke="#bfbfbf" points="937,-74.5 937,-93.5 1097,-93.5 1097,-74.5 937,-74.5"/>
<text text-anchor="middle" x="1017" y="-81.5" font-family="Helvetica,sans-Serif" font-size="10.00">Math/GenVector/Translation3D.h</text>
</g>
<!-- Node28&#45;&gt;Node33 -->
<g id="edge35" class="edge"><title>Node28&#45;&gt;Node33</title>
<path fill="none" stroke="midnightblue" d="M1017,-142.372C1017,-132.643 1017,-116.528 1017,-103.85"/>
<polygon fill="midnightblue" stroke="midnightblue" points="1020.5,-103.841 1017,-93.8411 1013.5,-103.841 1020.5,-103.841"/>
</g>
<!-- Node34 -->
<g id="node34" class="node"><title>Node34</title>
<polygon fill="none" stroke="#bfbfbf" points="1115,-74.5 1115,-93.5 1191,-93.5 1191,-74.5 1115,-74.5"/>
<text text-anchor="middle" x="1153" y="-81.5" font-family="Helvetica,sans-Serif" font-size="10.00">TGeoMatrix.h</text>
</g>
<!-- Node28&#45;&gt;Node34 -->
<g id="edge37" class="edge"><title>Node28&#45;&gt;Node34</title>
<path fill="none" stroke="midnightblue" d="M1034.78,-142.372C1057.99,-131.106 1098.85,-111.279 1125.92,-98.1403"/>
<polygon fill="midnightblue" stroke="midnightblue" points="1127.75,-101.145 1135.22,-93.6305 1124.69,-94.8477 1127.75,-101.145"/>
</g>
<!-- Node35 -->
<g id="node35" class="node"><title>Node35</title>
<g id="a_node35"><a xlink:href="../../d2/dd0/Cartesian2D_8h.html" target="_top" xlink:title="MathUtils/Cartesian2D.h">
<polygon fill="none" stroke="black" points="1209.5,-74.5 1209.5,-93.5 1334.5,-93.5 1334.5,-74.5 1209.5,-74.5"/>
<text text-anchor="middle" x="1272" y="-81.5" font-family="Helvetica,sans-Serif" font-size="10.00">MathUtils/Cartesian2D.h</text>
</a>
</g>
</g>
<!-- Node28&#45;&gt;Node35 -->
<g id="edge39" class="edge"><title>Node28&#45;&gt;Node35</title>
<path fill="none" stroke="midnightblue" d="M1050.08,-142.439C1095.84,-130.594 1178.53,-109.192 1229.03,-96.1223"/>
<polygon fill="midnightblue" stroke="midnightblue" points="1230.18,-99.4396 1238.98,-93.5455 1228.43,-92.6629 1230.18,-99.4396"/>
</g>
<!-- Node36 -->
<g id="node36" class="node"><title>Node36</title>
<polygon fill="none" stroke="#bfbfbf" points="1287.5,-1 1287.5,-31 1438.5,-31 1438.5,-1 1287.5,-1"/>
<text text-anchor="start" x="1295.5" y="-19" font-family="Helvetica,sans-Serif" font-size="10.00">Math/GenVector/Displacement</text>
<text text-anchor="middle" x="1363" y="-8" font-family="Helvetica,sans-Serif" font-size="10.00">Vector2D.h</text>
</g>
<!-- Node35&#45;&gt;Node36 -->
<g id="edge40" class="edge"><title>Node35&#45;&gt;Node36</title>
<path fill="none" stroke="midnightblue" d="M1283.9,-74.3717C1296.78,-65.0286 1317.78,-49.7966 1334.91,-37.375"/>
<polygon fill="midnightblue" stroke="midnightblue" points="1337.41,-39.8859 1343.45,-31.1815 1333.3,-34.2194 1337.41,-39.8859"/>
</g>
<!-- Node37 -->
<g id="node37" class="node"><title>Node37</title>
<polygon fill="none" stroke="#bfbfbf" points="1093,-6.5 1093,-25.5 1269,-25.5 1269,-6.5 1093,-6.5"/>
<text text-anchor="middle" x="1181" y="-13.5" font-family="Helvetica,sans-Serif" font-size="10.00">Math/GenVector/PositionVector2D.h</text>
</g>
<!-- Node35&#45;&gt;Node37 -->
<g id="edge41" class="edge"><title>Node35&#45;&gt;Node37</title>
<path fill="none" stroke="midnightblue" d="M1260.1,-74.3717C1245.12,-63.5015 1219.14,-44.6602 1201.06,-31.5474"/>
<polygon fill="midnightblue" stroke="midnightblue" points="1203.05,-28.6684 1192.9,-25.6305 1198.94,-34.3349 1203.05,-28.6684"/>
</g>
<!-- Node38&#45;&gt;Node14 -->
<g id="edge48" class="edge"><title>Node38&#45;&gt;Node14</title>
<path fill="none" stroke="midnightblue" d="M1092.52,-278.277C1103.94,-261.024 1131.96,-222.604 1166,-204 1380.47,-86.7861 1473.12,-174.198 1706,-100 1708.28,-99.2746 1710.6,-98.4344 1712.92,-97.5295"/>
<polygon fill="midnightblue" stroke="midnightblue" points="1714.36,-100.721 1722.18,-93.5728 1711.6,-94.284 1714.36,-100.721"/>
</g>
<!-- Node38&#45;&gt;Node21 -->
<g id="edge46" class="edge"><title>Node38&#45;&gt;Node21</title>
<path fill="none" stroke="midnightblue" d="M1064.91,-278.479C984.253,-247.383 709.34,-141.537 690,-136 610.31,-113.184 586.438,-123.679 507,-100 504.351,-99.2105 501.63,-98.3029 498.923,-97.3334"/>
<polygon fill="midnightblue" stroke="midnightblue" points="499.927,-93.9698 489.337,-93.65 497.416,-100.504 499.927,-93.9698"/>
</g>
<!-- Node39 -->
<g id="node39" class="node"><title>Node39</title>
<g id="a_node39"><a xlink:href="../../d4/d25/BaseHits_8h.html" target="_top" xlink:title="SimulationDataFormat\l/BaseHits.h">
<polygon fill="none" stroke="black" points="965,-205 965,-235 1079,-235 1079,-205 965,-205"/>
<text text-anchor="start" x="973" y="-223" font-family="Helvetica,sans-Serif" font-size="10.00">SimulationDataFormat</text>
<text text-anchor="middle" x="1022" y="-212" font-family="Helvetica,sans-Serif" font-size="10.00">/BaseHits.h</text>
</a>
</g>
</g>
<!-- Node38&#45;&gt;Node39 -->
<g id="edge44" class="edge"><title>Node38&#45;&gt;Node39</title>
<path fill="none" stroke="midnightblue" d="M1078.5,-278.372C1069.55,-269.286 1055.12,-254.631 1043.08,-242.407"/>
<polygon fill="midnightblue" stroke="midnightblue" points="1045.48,-239.85 1035.97,-235.181 1040.49,-244.762 1045.48,-239.85"/>
</g>
<!-- Node40 -->
<g id="node40" class="node"><title>Node40</title>
<polygon fill="none" stroke="#bfbfbf" points="1174.5,-210.5 1174.5,-229.5 1239.5,-229.5 1239.5,-210.5 1174.5,-210.5"/>
<text text-anchor="middle" x="1207" y="-217.5" font-family="Helvetica,sans-Serif" font-size="10.00">TVector3.h</text>
</g>
<!-- Node38&#45;&gt;Node40 -->
<g id="edge47" class="edge"><title>Node38&#45;&gt;Node40</title>
<path fill="none" stroke="midnightblue" d="M1102.69,-278.372C1122.99,-267.205 1158.59,-247.627 1182.48,-234.488"/>
<polygon fill="midnightblue" stroke="midnightblue" points="1184.23,-237.516 1191.31,-229.63 1180.86,-231.383 1184.23,-237.516"/>
</g>
<!-- Node41 -->
<g id="node41" class="node"><title>Node41</title>
<g id="a_node41"><a xlink:href="../../d0/d91/ShmAllocator_8h.html" target="_top" xlink:title="CommonUtils/ShmAllocator.h">
<polygon fill="none" stroke="black" points="1494,-210.5 1494,-229.5 1640,-229.5 1640,-210.5 1494,-210.5"/>
<text text-anchor="middle" x="1567" y="-217.5" font-family="Helvetica,sans-Serif" font-size="10.00">CommonUtils/ShmAllocator.h</text>
</a>
</g>
</g>
<!-- Node38&#45;&gt;Node41 -->
<g id="edge49" class="edge"><title>Node38&#45;&gt;Node41</title>
<path fill="none" stroke="midnightblue" d="M1148.28,-278.574C1236.92,-266.386 1400.6,-243.88 1494.92,-230.911"/>
<polygon fill="midnightblue" stroke="midnightblue" points="1495.52,-234.362 1504.95,-229.532 1494.56,-227.427 1495.52,-234.362"/>
</g>
<!-- Node39&#45;&gt;Node28 -->
<g id="edge45" class="edge"><title>Node39&#45;&gt;Node28</title>
<path fill="none" stroke="midnightblue" d="M1020.92,-204.679C1020.19,-195.101 1019.23,-182.394 1018.44,-171.977"/>
<polygon fill="midnightblue" stroke="midnightblue" points="1021.91,-171.535 1017.67,-161.828 1014.93,-172.064 1021.91,-171.535"/>
</g>
<!-- Node41&#45;&gt;Node22 -->
<g id="edge55" class="edge"><title>Node41&#45;&gt;Node22</title>
<path fill="none" stroke="midnightblue" d="M1582.19,-210.414C1622.32,-187.723 1731.43,-126.029 1780.06,-98.5357"/>
<polygon fill="midnightblue" stroke="midnightblue" points="1781.96,-101.483 1788.94,-93.5146 1778.51,-95.3897 1781.96,-101.483"/>
</g>
<!-- Node42 -->
<g id="node42" class="node"><title>Node42</title>
<g id="a_node42"><a xlink:href="../../de/d61/ShmManager_8h.html" target="_top" xlink:title="CommonUtils/ShmManager.h">
<polygon fill="none" stroke="black" points="1845,-142.5 1845,-161.5 1991,-161.5 1991,-142.5 1845,-142.5"/>
<text text-anchor="middle" x="1918" y="-149.5" font-family="Helvetica,sans-Serif" font-size="10.00">CommonUtils/ShmManager.h</text>
</a>
</g>
</g>
<!-- Node41&#45;&gt;Node42 -->
<g id="edge50" class="edge"><title>Node41&#45;&gt;Node42</title>
<path fill="none" stroke="midnightblue" d="M1612.53,-210.439C1676.7,-198.372 1793.64,-176.384 1862.72,-163.395"/>
<polygon fill="midnightblue" stroke="midnightblue" points="1863.37,-166.833 1872.55,-161.546 1862.08,-159.954 1863.37,-166.833"/>
</g>
<!-- Node43 -->
<g id="node43" class="node"><title>Node43</title>
<polygon fill="none" stroke="#bfbfbf" points="1846.5,-74.5 1846.5,-93.5 1875.5,-93.5 1875.5,-74.5 1846.5,-74.5"/>
<text text-anchor="middle" x="1861" y="-81.5" font-family="Helvetica,sans-Serif" font-size="10.00">list</text>
</g>
<!-- Node42&#45;&gt;Node43 -->
<g id="edge51" class="edge"><title>Node42&#45;&gt;Node43</title>
<path fill="none" stroke="midnightblue" d="M1910.55,-142.372C1901.64,-132.053 1886.52,-114.551 1875.32,-101.585"/>
<polygon fill="midnightblue" stroke="midnightblue" points="1877.82,-99.1217 1868.64,-93.8411 1872.52,-103.697 1877.82,-99.1217"/>
</g>
<!-- Node44 -->
<g id="node44" class="node"><title>Node44</title>
<polygon fill="none" stroke="#bfbfbf" points="1893.5,-74.5 1893.5,-93.5 1942.5,-93.5 1942.5,-74.5 1893.5,-74.5"/>
<text text-anchor="middle" x="1918" y="-81.5" font-family="Helvetica,sans-Serif" font-size="10.00">cstddef</text>
</g>
<!-- Node42&#45;&gt;Node44 -->
<g id="edge52" class="edge"><title>Node42&#45;&gt;Node44</title>
<path fill="none" stroke="midnightblue" d="M1918,-142.372C1918,-132.643 1918,-116.528 1918,-103.85"/>
<polygon fill="midnightblue" stroke="midnightblue" points="1921.5,-103.841 1918,-93.8411 1914.5,-103.841 1921.5,-103.841"/>
</g>
<!-- Node45 -->
<g id="node45" class="node"><title>Node45</title>
<polygon fill="none" stroke="#bfbfbf" points="1961,-69 1961,-99 2109,-99 2109,-69 1961,-69"/>
<text text-anchor="start" x="1969" y="-87" font-family="Helvetica,sans-Serif" font-size="10.00">boost/interprocess</text>
<text text-anchor="middle" x="2035" y="-76" font-family="Helvetica,sans-Serif" font-size="10.00">/managed_external_buffer.hpp</text>
</g>
<!-- Node42&#45;&gt;Node45 -->
<g id="edge53" class="edge"><title>Node42&#45;&gt;Node45</title>
<path fill="none" stroke="midnightblue" d="M1933.3,-142.372C1950.39,-132.729 1978.61,-116.812 2000.99,-104.187"/>
<polygon fill="midnightblue" stroke="midnightblue" points="2002.87,-107.143 2009.86,-99.1815 1999.43,-101.046 2002.87,-107.143"/>
</g>
<!-- Node46 -->
<g id="node46" class="node"><title>Node46</title>
<polygon fill="none" stroke="#bfbfbf" points="2127,-69 2127,-99 2247,-99 2247,-69 2127,-69"/>
<text text-anchor="start" x="2135" y="-87" font-family="Helvetica,sans-Serif" font-size="10.00">boost/interprocess</text>
<text text-anchor="middle" x="2187" y="-76" font-family="Helvetica,sans-Serif" font-size="10.00">/allocators/allocator.hpp</text>
</g>
<!-- Node42&#45;&gt;Node46 -->
<g id="edge54" class="edge"><title>Node42&#45;&gt;Node46</title>
<path fill="none" stroke="midnightblue" d="M1952.89,-142.439C1995.03,-132.101 2066.83,-114.483 2119.84,-101.478"/>
<polygon fill="midnightblue" stroke="midnightblue" points="2120.96,-104.807 2129.84,-99.0247 2119.29,-98.0085 2120.96,-104.807"/>
</g>
<!-- Node48&#45;&gt;Node17 -->
<g id="edge60" class="edge"><title>Node48&#45;&gt;Node17</title>
<path fill="none" stroke="midnightblue" d="M463.467,-272.913C397.021,-246.571 255.002,-190.267 192.094,-165.327"/>
<polygon fill="midnightblue" stroke="midnightblue" points="193.287,-162.035 182.701,-161.603 190.707,-168.543 193.287,-162.035"/>
</g>
<!-- Node49&#45;&gt;Node22 -->
<g id="edge63" class="edge"><title>Node49&#45;&gt;Node22</title>
<path fill="none" stroke="midnightblue" d="M2119.93,-147.07C2051.74,-141.316 1934.74,-128.071 1838,-100 1835.51,-99.2764 1832.96,-98.4095 1830.43,-97.4622"/>
<polygon fill="midnightblue" stroke="midnightblue" points="1831.54,-94.1354 1820.96,-93.5442 1828.87,-100.603 1831.54,-94.1354"/>
</g>
<!-- Node49&#45;&gt;Node24 -->
<g id="edge66" class="edge"><title>Node49&#45;&gt;Node24</title>
<path fill="none" stroke="midnightblue" d="M2119.66,-145.395C2085.04,-142.197 2040.02,-138.366 2000,-136 1762.06,-121.932 1161.78,-146.459 928,-100 924.29,-99.2627 920.471,-98.2239 916.733,-97.0329"/>
<polygon fill="midnightblue" stroke="midnightblue" points="917.755,-93.6816 907.16,-93.6276 915.409,-100.277 917.755,-93.6816"/>
</g>
<!-- Node50 -->
<g id="node50" class="node"><title>Node50</title>
<polygon fill="none" stroke="#bfbfbf" points="2329,-74.5 2329,-93.5 2391,-93.5 2391,-74.5 2329,-74.5"/>
<text text-anchor="middle" x="2360" y="-81.5" font-family="Helvetica,sans-Serif" font-size="10.00">TNamed.h</text>
</g>
<!-- Node49&#45;&gt;Node50 -->
<g id="edge62" class="edge"><title>Node49&#45;&gt;Node50</title>
<path fill="none" stroke="midnightblue" d="M2216.2,-136.992C2244.73,-126.78 2284.28,-112.587 2319,-100 2321.58,-99.0636 2324.26,-98.0917 2326.94,-97.113"/>
<polygon fill="midnightblue" stroke="midnightblue" points="2328.4,-100.308 2336.59,-93.5908 2326,-93.7321 2328.4,-100.308"/>
</g>
<!-- Node51 -->
<g id="node51" class="node"><title>Node51</title>
<polygon fill="none" stroke="#bfbfbf" points="2409.5,-74.5 2409.5,-93.5 2468.5,-93.5 2468.5,-74.5 2409.5,-74.5"/>
<text text-anchor="middle" x="2439" y="-81.5" font-family="Helvetica,sans-Serif" font-size="10.00">stdexcept</text>
</g>
<!-- Node49&#45;&gt;Node51 -->
<g id="edge64" class="edge"><title>Node49&#45;&gt;Node51</title>
<path fill="none" stroke="midnightblue" d="M2234.12,-140.058C2279.28,-130.885 2343.71,-116.637 2399,-100 2401.96,-99.1098 2405.01,-98.1121 2408.05,-97.0655"/>
<polygon fill="midnightblue" stroke="midnightblue" points="2409.37,-100.312 2417.59,-93.6275 2407,-93.7269 2409.37,-100.312"/>
</g>
<!-- Node52 -->
<g id="node52" class="node"><title>Node52</title>
<polygon fill="none" stroke="#bfbfbf" points="2265.5,-74.5 2265.5,-93.5 2310.5,-93.5 2310.5,-74.5 2265.5,-74.5"/>
<text text-anchor="middle" x="2288" y="-81.5" font-family="Helvetica,sans-Serif" font-size="10.00">gsl/gsl</text>
</g>
<!-- Node49&#45;&gt;Node52 -->
<g id="edge65" class="edge"><title>Node49&#45;&gt;Node52</title>
<path fill="none" stroke="midnightblue" d="M2200.81,-136.841C2219.67,-125.63 2245.86,-110.056 2264.61,-98.9096"/>
<polygon fill="midnightblue" stroke="midnightblue" points="2266.59,-101.801 2273.4,-93.6819 2263.01,-95.7843 2266.59,-101.801"/>
</g>
</g>
</svg>
