<?xml version="1.0" encoding="UTF-8" standalone="no"?>
<!DOCTYPE svg PUBLIC "-//W3C//DTD SVG 1.1//EN"
 "http://www.w3.org/Graphics/SVG/1.1/DTD/svg11.dtd">
<!-- Generated by graphviz version 2.36.0 (20140111.2315)
 -->
<!-- Title: stbtt_pack_context Pages: 1 -->
<svg width="274pt" height="204pt"
 viewBox="0.00 0.00 274.00 204.00" xmlns="http://www.w3.org/2000/svg" xmlns:xlink="http://www.w3.org/1999/xlink">
<g id="graph0" class="graph" transform="scale(1 1) rotate(0) translate(4 200)">
<title>stbtt_pack_context</title>
<!-- Node1 -->
<g id="node1" class="node"><title>Node1</title>
<polygon fill="#bfbfbf" stroke="black" points="60,-0.5 60,-57.5 160,-57.5 160,-0.5 60,-0.5"/>
<text text-anchor="middle" x="110" y="-45.5" font-family="Helvetica,sans-Serif" font-size="10.00">stbtt_pack_context</text>
<polyline fill="none" stroke="black" points="60,-38.5 160,-38.5 "/>
<text text-anchor="middle" x="110" y="-26.5" font-family="Helvetica,sans-Serif" font-size="10.00"> </text>
<polyline fill="none" stroke="black" points="60,-19.5 160,-19.5 "/>
<text text-anchor="middle" x="110" y="-7.5" font-family="Helvetica,sans-Serif" font-size="10.00"> </text>
</g>
<!-- Node2 -->
<g id="node2" class="node"><title>Node2</title>
<g id="a_node2"><a xlink:href="../../d1/da0/classint.html" target="_top" xlink:title="{int\n||}">
<polygon fill="none" stroke="black" points="-0.5,-138.5 -0.5,-195.5 28.5,-195.5 28.5,-138.5 -0.5,-138.5"/>
<text text-anchor="middle" x="14" y="-183.5" font-family="Helvetica,sans-Serif" font-size="10.00">int</text>
<polyline fill="none" stroke="black" points="-0.5,-176.5 28.5,-176.5 "/>
<text text-anchor="middle" x="14" y="-164.5" font-family="Helvetica,sans-Serif" font-size="10.00"> </text>
<polyline fill="none" stroke="black" points="-0.5,-157.5 28.5,-157.5 "/>
<text text-anchor="middle" x="14" y="-145.5" font-family="Helvetica,sans-Serif" font-size="10.00"> </text>
</a>
</g>
</g>
<!-- Node2&#45;&gt;Node1 -->
<g id="edge1" class="edge"><title>Node2&#45;&gt;Node1</title>
<path fill="none" stroke="#404040" d="M14.1945,-138.106C15.6065,-119.045 20.0994,-94.0638 33,-76 37.682,-69.4442 43.6162,-63.6595 50.1054,-58.6019"/>
<polygon fill="none" stroke="#404040" points="50.1065,-58.6012 52.7196,-51.8801 59.9287,-51.7072 57.3156,-58.4282 50.1065,-58.6012"/>
<text text-anchor="middle" x="69.5" y="-112" font-family="Helvetica,sans-Serif" font-size="10.00"> +height</text>
<text text-anchor="middle" x="69.5" y="-101" font-family="Helvetica,sans-Serif" font-size="10.00">+width</text>
<text text-anchor="middle" x="69.5" y="-90" font-family="Helvetica,sans-Serif" font-size="10.00">+stride_in_bytes</text>
<text text-anchor="middle" x="69.5" y="-79" font-family="Helvetica,sans-Serif" font-size="10.00">+padding</text>
</g>
<!-- Node3 -->
<g id="node3" class="node"><title>Node3</title>
<polygon fill="none" stroke="#bfbfbf" points="82,-138.5 82,-195.5 138,-195.5 138,-138.5 82,-138.5"/>
<text text-anchor="middle" x="110" y="-183.5" font-family="Helvetica,sans-Serif" font-size="10.00">unsigned</text>
<polyline fill="none" stroke="#bfbfbf" points="82,-176.5 138,-176.5 "/>
<text text-anchor="middle" x="110" y="-164.5" font-family="Helvetica,sans-Serif" font-size="10.00"> </text>
<polyline fill="none" stroke="#bfbfbf" points="82,-157.5 138,-157.5 "/>
<text text-anchor="middle" x="110" y="-145.5" font-family="Helvetica,sans-Serif" font-size="10.00"> </text>
</g>
<!-- Node3&#45;&gt;Node1 -->
<g id="edge2" class="edge"><title>Node3&#45;&gt;Node1</title>
<path fill="none" stroke="#404040" d="M110,-138.478C110,-118.792 110,-91.9899 110,-69.9526"/>
<polygon fill="none" stroke="#404040" points="110,-69.9475 106,-63.9475 110,-57.9475 114,-63.9475 110,-69.9475"/>
<text text-anchor="middle" x="145" y="-106.5" font-family="Helvetica,sans-Serif" font-size="10.00"> +h_oversample</text>
<text text-anchor="middle" x="145" y="-95.5" font-family="Helvetica,sans-Serif" font-size="10.00">+v_oversample</text>
<text text-anchor="middle" x="145" y="-84.5" font-family="Helvetica,sans-Serif" font-size="10.00">+pixels</text>
</g>
<!-- Node4 -->
<g id="node4" class="node"><title>Node4</title>
<polygon fill="none" stroke="#bfbfbf" points="182.5,-138.5 182.5,-195.5 223.5,-195.5 223.5,-138.5 182.5,-138.5"/>
<text text-anchor="middle" x="203" y="-183.5" font-family="Helvetica,sans-Serif" font-size="10.00">void *</text>
<polyline fill="none" stroke="#bfbfbf" points="182.5,-176.5 223.5,-176.5 "/>
<text text-anchor="middle" x="203" y="-164.5" font-family="Helvetica,sans-Serif" font-size="10.00"> </text>
<polyline fill="none" stroke="#bfbfbf" points="182.5,-157.5 223.5,-157.5 "/>
<text text-anchor="middle" x="203" y="-145.5" font-family="Helvetica,sans-Serif" font-size="10.00"> </text>
</g>
<!-- Node4&#45;&gt;Node1 -->
<g id="edge3" class="edge"><title>Node4&#45;&gt;Node1</title>
<path fill="none" stroke="#404040" d="M201.53,-138.207C199.324,-119.192 193.951,-94.2251 181,-76 177.803,-71.5011 174.015,-67.3317 169.877,-63.4922"/>
<polygon fill="none" stroke="#404040" points="169.602,-63.2645 162.43,-62.5207 160.358,-55.6137 167.53,-56.3575 169.602,-63.2645"/>
<text text-anchor="middle" x="232.5" y="-112" font-family="Helvetica,sans-Serif" font-size="10.00"> +nodes</text>
<text text-anchor="start" x="199" y="-101" font-family="Helvetica,sans-Serif" font-size="10.00">+user_allocator</text>
<text text-anchor="middle" x="232.5" y="-90" font-family="Helvetica,sans-Serif" font-size="10.00">_context</text>
<text text-anchor="middle" x="232.5" y="-79" font-family="Helvetica,sans-Serif" font-size="10.00">+pack_info</text>
</g>
</g>
</svg>
