<?xml version="1.0" encoding="UTF-8" standalone="no"?>
<!DOCTYPE svg PUBLIC "-//W3C//DTD SVG 1.1//EN"
 "http://www.w3.org/Graphics/SVG/1.1/DTD/svg11.dtd">
<!-- Generated by graphviz version 2.36.0 (20140111.2315)
 -->
<!-- Title: /home/travis/build/AliceO2Group/AliceO2/Detectors/MUON/MCH/Base/include/MCHBase/PreClusterBlock.h Pages: 1 -->
<svg width="250pt" height="174pt"
 viewBox="0.00 0.00 250.00 174.00" xmlns="http://www.w3.org/2000/svg" xmlns:xlink="http://www.w3.org/1999/xlink">
<g id="graph0" class="graph" transform="scale(1 1) rotate(0) translate(4 170)">
<title>/home/travis/build/AliceO2Group/AliceO2/Detectors/MUON/MCH/Base/include/MCHBase/PreClusterBlock.h</title>
<!-- Node1 -->
<g id="node1" class="node"><title>Node1</title>
<polygon fill="#bfbfbf" stroke="black" points="60,-113 60,-165 242,-165 242,-113 60,-113"/>
<text text-anchor="start" x="68" y="-153" font-family="Helvetica,sans-Serif" font-size="10.00">/home/travis/build</text>
<text text-anchor="start" x="68" y="-142" font-family="Helvetica,sans-Serif" font-size="10.00">/AliceO2Group/AliceO2</text>
<text text-anchor="start" x="68" y="-131" font-family="Helvetica,sans-Serif" font-size="10.00">/Detectors/MUON/MCH/Base</text>
<text text-anchor="middle" x="151" y="-120" font-family="Helvetica,sans-Serif" font-size="10.00">/include/MCHBase/PreClusterBlock.h</text>
</g>
<!-- Node2 -->
<g id="node2" class="node"><title>Node2</title>
<polygon fill="none" stroke="#bfbfbf" points="0,-0.5 0,-19.5 46,-19.5 46,-0.5 0,-0.5"/>
<text text-anchor="middle" x="23" y="-7.5" font-family="Helvetica,sans-Serif" font-size="10.00">cstdint</text>
</g>
<!-- Node1&#45;&gt;Node2 -->
<g id="edge1" class="edge"><title>Node1&#45;&gt;Node2</title>
<path fill="none" stroke="midnightblue" d="M76.6786,-112.977C59.566,-103.877 43.1405,-91.8034 32,-76 22.6669,-62.7604 20.9249,-44.176 21.2208,-30.2682"/>
<polygon fill="midnightblue" stroke="midnightblue" points="24.7369,-30.093 21.8267,-19.9057 17.7489,-29.6843 24.7369,-30.093"/>
</g>
<!-- Node3 -->
<g id="node3" class="node"><title>Node3</title>
<polygon fill="none" stroke="#bfbfbf" points="150,-0.5 150,-19.5 202,-19.5 202,-0.5 150,-0.5"/>
<text text-anchor="middle" x="176" y="-7.5" font-family="Helvetica,sans-Serif" font-size="10.00">ostream</text>
</g>
<!-- Node1&#45;&gt;Node3 -->
<g id="edge2" class="edge"><title>Node1&#45;&gt;Node3</title>
<path fill="none" stroke="midnightblue" d="M197.829,-112.757C211.013,-103.13 223.73,-90.8315 231,-76 240.773,-56.0615 220.141,-37.1425 201.421,-24.9112"/>
<polygon fill="midnightblue" stroke="midnightblue" points="203.153,-21.8681 192.799,-19.6257 199.495,-27.836 203.153,-21.8681"/>
</g>
<!-- Node4 -->
<g id="node4" class="node"><title>Node4</title>
<polygon fill="none" stroke="#bfbfbf" points="179,-56.5 179,-75.5 223,-75.5 223,-56.5 179,-56.5"/>
<text text-anchor="middle" x="201" y="-63.5" font-family="Helvetica,sans-Serif" font-size="10.00">vector</text>
</g>
<!-- Node1&#45;&gt;Node4 -->
<g id="edge3" class="edge"><title>Node1&#45;&gt;Node4</title>
<path fill="none" stroke="midnightblue" d="M168.769,-112.768C175.448,-103.284 182.88,-92.7308 188.923,-84.15"/>
<polygon fill="midnightblue" stroke="midnightblue" points="191.937,-85.9485 194.833,-75.7572 186.214,-81.918 191.937,-85.9485"/>
</g>
<!-- Node5 -->
<g id="node5" class="node"><title>Node5</title>
<g id="a_node5"><a xlink:href="../../db/df0/DigitBlock_8h.html" target="_top" xlink:title="MCHBase/DigitBlock.h">
<polygon fill="none" stroke="black" points="41.5,-56.5 41.5,-75.5 160.5,-75.5 160.5,-56.5 41.5,-56.5"/>
<text text-anchor="middle" x="101" y="-63.5" font-family="Helvetica,sans-Serif" font-size="10.00">MCHBase/DigitBlock.h</text>
</a>
</g>
</g>
<!-- Node1&#45;&gt;Node5 -->
<g id="edge4" class="edge"><title>Node1&#45;&gt;Node5</title>
<path fill="none" stroke="midnightblue" d="M133.231,-112.768C126.552,-103.284 119.12,-92.7308 113.077,-84.15"/>
<polygon fill="midnightblue" stroke="midnightblue" points="115.786,-81.918 107.167,-75.7572 110.063,-85.9485 115.786,-81.918"/>
</g>
<!-- Node5&#45;&gt;Node2 -->
<g id="edge5" class="edge"><title>Node5&#45;&gt;Node2</title>
<path fill="none" stroke="midnightblue" d="M88.468,-56.324C76.4141,-47.979 57.9732,-35.2122 43.7313,-25.3524"/>
<polygon fill="midnightblue" stroke="midnightblue" points="45.7151,-22.469 35.5009,-19.6545 41.7306,-28.2243 45.7151,-22.469"/>
</g>
<!-- Node5&#45;&gt;Node3 -->
<g id="edge6" class="edge"><title>Node5&#45;&gt;Node3</title>
<path fill="none" stroke="midnightblue" d="M113.05,-56.324C124.463,-48.1066 141.831,-35.6017 155.435,-25.8069"/>
<polygon fill="midnightblue" stroke="midnightblue" points="157.66,-28.5174 163.731,-19.8339 153.57,-22.8366 157.66,-28.5174"/>
</g>
</g>
</svg>
