<?xml version="1.0" encoding="UTF-8" standalone="no"?>
<!DOCTYPE svg PUBLIC "-//W3C//DTD SVG 1.1//EN"
 "http://www.w3.org/Graphics/SVG/1.1/DTD/svg11.dtd">
<!-- Generated by graphviz version 2.36.0 (20140111.2315)
 -->
<!-- Title: o2::mid::SIMUL Pages: 1 -->
<svg width="1009pt" height="316pt"
 viewBox="0.00 0.00 1009.00 316.00" xmlns="http://www.w3.org/2000/svg" xmlns:xlink="http://www.w3.org/1999/xlink">
<g id="graph0" class="graph" transform="scale(1 1) rotate(0) translate(4 312)">
<title>o2::mid::SIMUL</title>
<!-- Node1 -->
<g id="node1" class="node"><title>Node1</title>
<polygon fill="#bfbfbf" stroke="black" points="455,-0.5 455,-57.5 541,-57.5 541,-0.5 455,-0.5"/>
<text text-anchor="middle" x="498" y="-45.5" font-family="Helvetica,sans-Serif" font-size="10.00">o2::mid::SIMUL</text>
<polyline fill="none" stroke="black" points="455,-38.5 541,-38.5 "/>
<text text-anchor="middle" x="498" y="-26.5" font-family="Helvetica,sans-Serif" font-size="10.00"> </text>
<polyline fill="none" stroke="black" points="455,-19.5 541,-19.5 "/>
<text text-anchor="start" x="463" y="-7.5" font-family="Helvetica,sans-Serif" font-size="10.00">+ setup()</text>
</g>
<!-- Node2 -->
<g id="node2" class="node"><title>Node2</title>
<g id="a_node2"><a xlink:href="../../d2/df3/classo2_1_1mid_1_1GeometryTransformer.html" target="_top" xlink:title="{o2::mid::GeometryTransformer\n||+ setMatrix()\l+ getMatrix()\l+ localToGlobal()\l+ globalToLocal()\l+ localToGlobal()\l+ globalToLocal()\l+ localToGlobal()\l+ globalToLocal()\l}">
<polygon fill="none" stroke="black" points="0,-140 0,-274 150,-274 150,-140 0,-140"/>
<text text-anchor="middle" x="75" y="-262" font-family="Helvetica,sans-Serif" font-size="10.00">o2::mid::GeometryTransformer</text>
<polyline fill="none" stroke="black" points="0,-255 150,-255 "/>
<text text-anchor="middle" x="75" y="-243" font-family="Helvetica,sans-Serif" font-size="10.00"> </text>
<polyline fill="none" stroke="black" points="0,-236 150,-236 "/>
<text text-anchor="start" x="8" y="-224" font-family="Helvetica,sans-Serif" font-size="10.00">+ setMatrix()</text>
<text text-anchor="start" x="8" y="-213" font-family="Helvetica,sans-Serif" font-size="10.00">+ getMatrix()</text>
<text text-anchor="start" x="8" y="-202" font-family="Helvetica,sans-Serif" font-size="10.00">+ localToGlobal()</text>
<text text-anchor="start" x="8" y="-191" font-family="Helvetica,sans-Serif" font-size="10.00">+ globalToLocal()</text>
<text text-anchor="start" x="8" y="-180" font-family="Helvetica,sans-Serif" font-size="10.00">+ localToGlobal()</text>
<text text-anchor="start" x="8" y="-169" font-family="Helvetica,sans-Serif" font-size="10.00">+ globalToLocal()</text>
<text text-anchor="start" x="8" y="-158" font-family="Helvetica,sans-Serif" font-size="10.00">+ localToGlobal()</text>
<text text-anchor="start" x="8" y="-147" font-family="Helvetica,sans-Serif" font-size="10.00">+ globalToLocal()</text>
</a>
</g>
</g>
<!-- Node2&#45;&gt;Node1 -->
<g id="edge1" class="edge"><title>Node2&#45;&gt;Node1</title>
<path fill="none" stroke="#404040" d="M121.265,-139.79C132.455,-127.219 145.21,-115.154 159,-106 246.343,-48.0186 371.356,-33.7363 442.622,-30.5419"/>
<polygon fill="none" stroke="#404040" points="442.866,-30.5328 448.711,-26.3089 454.857,-30.0794 449.013,-34.3032 442.866,-30.5328"/>
<text text-anchor="middle" x="234" y="-79.5" font-family="Helvetica,sans-Serif" font-size="10.00"> +geoTrans</text>
</g>
<!-- Node3 -->
<g id="node3" class="node"><title>Node3</title>
<g id="a_node3"><a xlink:href="../../d5/dae/classo2_1_1mid_1_1Clusterizer.html" target="_top" xlink:title="Clusterizing algorithm for MID. ">
<polygon fill="none" stroke="black" points="168,-129 168,-285 270,-285 270,-129 168,-129"/>
<text text-anchor="middle" x="219" y="-273" font-family="Helvetica,sans-Serif" font-size="10.00">o2::mid::Clusterizer</text>
<polyline fill="none" stroke="black" points="168,-266 270,-266 "/>
<text text-anchor="middle" x="219" y="-254" font-family="Helvetica,sans-Serif" font-size="10.00"> </text>
<polyline fill="none" stroke="black" points="168,-247 270,-247 "/>
<text text-anchor="start" x="176" y="-235" font-family="Helvetica,sans-Serif" font-size="10.00">+ Clusterizer()</text>
<text text-anchor="start" x="176" y="-224" font-family="Helvetica,sans-Serif" font-size="10.00">+ ~Clusterizer()</text>
<text text-anchor="start" x="176" y="-213" font-family="Helvetica,sans-Serif" font-size="10.00">+ Clusterizer()</text>
<text text-anchor="start" x="176" y="-202" font-family="Helvetica,sans-Serif" font-size="10.00">+ operator=()</text>
<text text-anchor="start" x="176" y="-191" font-family="Helvetica,sans-Serif" font-size="10.00">+ Clusterizer()</text>
<text text-anchor="start" x="176" y="-180" font-family="Helvetica,sans-Serif" font-size="10.00">+ operator=()</text>
<text text-anchor="start" x="176" y="-169" font-family="Helvetica,sans-Serif" font-size="10.00">+ init()</text>
<text text-anchor="start" x="176" y="-158" font-family="Helvetica,sans-Serif" font-size="10.00">+ process()</text>
<text text-anchor="start" x="176" y="-147" font-family="Helvetica,sans-Serif" font-size="10.00">+ getClusters()</text>
<text text-anchor="start" x="176" y="-136" font-family="Helvetica,sans-Serif" font-size="10.00">+ getNClusters()</text>
</a>
</g>
</g>
<!-- Node3&#45;&gt;Node1 -->
<g id="edge2" class="edge"><title>Node3&#45;&gt;Node1</title>
<path fill="none" stroke="#404040" d="M257.387,-128.849C263.783,-120.396 270.985,-112.51 279,-106 326.559,-67.3677 395.007,-47.8056 442.677,-38.2949"/>
<polygon fill="none" stroke="#404040" points="442.835,-38.265 447.987,-33.2191 454.626,-36.0337 449.475,-41.0796 442.835,-38.265"/>
<text text-anchor="middle" x="349.5" y="-79.5" font-family="Helvetica,sans-Serif" font-size="10.00"> +clusterizer</text>
</g>
<!-- Node4 -->
<g id="node4" class="node"><title>Node4</title>
<g id="a_node4"><a xlink:href="../../d1/d66/classo2_1_1mid_1_1Mapping.html" target="_top" xlink:title="{o2::mid::Mapping\n||+ Mapping()\l+ ~Mapping()\l+ stripByLocation()\l+ stripByLocationInBoard()\l+ stripByPosition()\l+ getStripSize()\l+ getNStripsNBP()\l+ getFirstColumn()\l+ getFirstBoardBP()\l+ getLastBoardBP()\l+ getBoardId()\l+ getNeighbours()\l+ isValid()\l+ nextStrip()\l}">
<polygon fill="none" stroke="black" points="288.5,-107 288.5,-307 421.5,-307 421.5,-107 288.5,-107"/>
<text text-anchor="middle" x="355" y="-295" font-family="Helvetica,sans-Serif" font-size="10.00">o2::mid::Mapping</text>
<polyline fill="none" stroke="black" points="288.5,-288 421.5,-288 "/>
<text text-anchor="middle" x="355" y="-276" font-family="Helvetica,sans-Serif" font-size="10.00"> </text>
<polyline fill="none" stroke="black" points="288.5,-269 421.5,-269 "/>
<text text-anchor="start" x="296.5" y="-257" font-family="Helvetica,sans-Serif" font-size="10.00">+ Mapping()</text>
<text text-anchor="start" x="296.5" y="-246" font-family="Helvetica,sans-Serif" font-size="10.00">+ ~Mapping()</text>
<text text-anchor="start" x="296.5" y="-235" font-family="Helvetica,sans-Serif" font-size="10.00">+ stripByLocation()</text>
<text text-anchor="start" x="296.5" y="-224" font-family="Helvetica,sans-Serif" font-size="10.00">+ stripByLocationInBoard()</text>
<text text-anchor="start" x="296.5" y="-213" font-family="Helvetica,sans-Serif" font-size="10.00">+ stripByPosition()</text>
<text text-anchor="start" x="296.5" y="-202" font-family="Helvetica,sans-Serif" font-size="10.00">+ getStripSize()</text>
<text text-anchor="start" x="296.5" y="-191" font-family="Helvetica,sans-Serif" font-size="10.00">+ getNStripsNBP()</text>
<text text-anchor="start" x="296.5" y="-180" font-family="Helvetica,sans-Serif" font-size="10.00">+ getFirstColumn()</text>
<text text-anchor="start" x="296.5" y="-169" font-family="Helvetica,sans-Serif" font-size="10.00">+ getFirstBoardBP()</text>
<text text-anchor="start" x="296.5" y="-158" font-family="Helvetica,sans-Serif" font-size="10.00">+ getLastBoardBP()</text>
<text text-anchor="start" x="296.5" y="-147" font-family="Helvetica,sans-Serif" font-size="10.00">+ getBoardId()</text>
<text text-anchor="start" x="296.5" y="-136" font-family="Helvetica,sans-Serif" font-size="10.00">+ getNeighbours()</text>
<text text-anchor="start" x="296.5" y="-125" font-family="Helvetica,sans-Serif" font-size="10.00">+ isValid()</text>
<text text-anchor="start" x="296.5" y="-114" font-family="Helvetica,sans-Serif" font-size="10.00">+ nextStrip()</text>
</a>
</g>
</g>
<!-- Node4&#45;&gt;Node1 -->
<g id="edge3" class="edge"><title>Node4&#45;&gt;Node1</title>
<path fill="none" stroke="#404040" d="M421.68,-108.103C430.21,-97.0111 439.085,-86.0827 448,-76 450.947,-72.667 454.111,-69.3175 457.364,-66.0288"/>
<polygon fill="none" stroke="#404040" points="457.502,-65.8942 459.007,-58.8418 466.096,-57.5184 464.591,-64.5708 457.502,-65.8942"/>
<text text-anchor="middle" x="471" y="-79.5" font-family="Helvetica,sans-Serif" font-size="10.00"> +mapping</text>
</g>
<!-- Node5 -->
<g id="node5" class="node"><title>Node5</title>
<g id="a_node5"><a xlink:href="../../d6/dde/classo2_1_1mid_1_1PreClusterizer.html" target="_top" xlink:title="Pre&#45;clustering algorithm for MID. ">
<polygon fill="none" stroke="black" points="439.5,-129 439.5,-285 556.5,-285 556.5,-129 439.5,-129"/>
<text text-anchor="middle" x="498" y="-273" font-family="Helvetica,sans-Serif" font-size="10.00">o2::mid::PreClusterizer</text>
<polyline fill="none" stroke="black" points="439.5,-266 556.5,-266 "/>
<text text-anchor="middle" x="498" y="-254" font-family="Helvetica,sans-Serif" font-size="10.00"> </text>
<polyline fill="none" stroke="black" points="439.5,-247 556.5,-247 "/>
<text text-anchor="start" x="447.5" y="-235" font-family="Helvetica,sans-Serif" font-size="10.00">+ PreClusterizer()</text>
<text text-anchor="start" x="447.5" y="-224" font-family="Helvetica,sans-Serif" font-size="10.00">+ ~PreClusterizer()</text>
<text text-anchor="start" x="447.5" y="-213" font-family="Helvetica,sans-Serif" font-size="10.00">+ PreClusterizer()</text>
<text text-anchor="start" x="447.5" y="-202" font-family="Helvetica,sans-Serif" font-size="10.00">+ operator=()</text>
<text text-anchor="start" x="447.5" y="-191" font-family="Helvetica,sans-Serif" font-size="10.00">+ PreClusterizer()</text>
<text text-anchor="start" x="447.5" y="-180" font-family="Helvetica,sans-Serif" font-size="10.00">+ operator=()</text>
<text text-anchor="start" x="447.5" y="-169" font-family="Helvetica,sans-Serif" font-size="10.00">+ init()</text>
<text text-anchor="start" x="447.5" y="-158" font-family="Helvetica,sans-Serif" font-size="10.00">+ process()</text>
<text text-anchor="start" x="447.5" y="-147" font-family="Helvetica,sans-Serif" font-size="10.00">+ getPreClusters()</text>
<text text-anchor="start" x="447.5" y="-136" font-family="Helvetica,sans-Serif" font-size="10.00">+ getNPreClusters()</text>
</a>
</g>
</g>
<!-- Node5&#45;&gt;Node1 -->
<g id="edge4" class="edge"><title>Node5&#45;&gt;Node1</title>
<path fill="none" stroke="#404040" d="M498,-128.804C498,-108.44 498,-87.2917 498,-69.8116"/>
<polygon fill="none" stroke="#404040" points="498,-69.7952 494,-63.7952 498,-57.7952 502,-63.7951 498,-69.7952"/>
<text text-anchor="middle" x="533" y="-79.5" font-family="Helvetica,sans-Serif" font-size="10.00"> +preClusterizer</text>
</g>
<!-- Node6 -->
<g id="node6" class="node"><title>Node6</title>
<g id="a_node6"><a xlink:href="../../d0/d31/classo2_1_1mid_1_1DigitsMerger.html" target="_top" xlink:title="{o2::mid::DigitsMerger\n||+ process()\l}">
<polygon fill="none" stroke="black" points="575,-178.5 575,-235.5 685,-235.5 685,-178.5 575,-178.5"/>
<text text-anchor="middle" x="630" y="-223.5" font-family="Helvetica,sans-Serif" font-size="10.00">o2::mid::DigitsMerger</text>
<polyline fill="none" stroke="black" points="575,-216.5 685,-216.5 "/>
<text text-anchor="middle" x="630" y="-204.5" font-family="Helvetica,sans-Serif" font-size="10.00"> </text>
<polyline fill="none" stroke="black" points="575,-197.5 685,-197.5 "/>
<text text-anchor="start" x="583" y="-185.5" font-family="Helvetica,sans-Serif" font-size="10.00">+ process()</text>
</a>
</g>
</g>
<!-- Node6&#45;&gt;Node1 -->
<g id="edge5" class="edge"><title>Node6&#45;&gt;Node1</title>
<path fill="none" stroke="#404040" d="M622.926,-178.495C614.55,-150.218 598.313,-106.175 572,-76 566.055,-69.1825 558.85,-63.0401 551.298,-57.6294"/>
<polygon fill="none" stroke="#404040" points="551.237,-57.5893 544.026,-57.5964 541.246,-50.9427 548.457,-50.9356 551.237,-57.5893"/>
<text text-anchor="middle" x="611.5" y="-79.5" font-family="Helvetica,sans-Serif" font-size="10.00"> +digitsMerger</text>
</g>
<!-- Node7 -->
<g id="node7" class="node"><title>Node7</title>
<g id="a_node7"><a xlink:href="../../d8/dba/classo2_1_1mid_1_1ChamberResponseParams.html" target="_top" xlink:title="{o2::mid::ChamberResponse\lParams\n||+ getParA()\l+ getParB()\l+ getParC()\l+ getParametersA()\l+ getParametersC()\l+ setParA()\l+ setParC()\l+ setParB()\l}">
<polygon fill="none" stroke="black" points="703.5,-134.5 703.5,-279.5 842.5,-279.5 842.5,-134.5 703.5,-134.5"/>
<text text-anchor="start" x="711.5" y="-267.5" font-family="Helvetica,sans-Serif" font-size="10.00">o2::mid::ChamberResponse</text>
<text text-anchor="middle" x="773" y="-256.5" font-family="Helvetica,sans-Serif" font-size="10.00">Params</text>
<polyline fill="none" stroke="black" points="703.5,-249.5 842.5,-249.5 "/>
<text text-anchor="middle" x="773" y="-237.5" font-family="Helvetica,sans-Serif" font-size="10.00"> </text>
<polyline fill="none" stroke="black" points="703.5,-230.5 842.5,-230.5 "/>
<text text-anchor="start" x="711.5" y="-218.5" font-family="Helvetica,sans-Serif" font-size="10.00">+ getParA()</text>
<text text-anchor="start" x="711.5" y="-207.5" font-family="Helvetica,sans-Serif" font-size="10.00">+ getParB()</text>
<text text-anchor="start" x="711.5" y="-196.5" font-family="Helvetica,sans-Serif" font-size="10.00">+ getParC()</text>
<text text-anchor="start" x="711.5" y="-185.5" font-family="Helvetica,sans-Serif" font-size="10.00">+ getParametersA()</text>
<text text-anchor="start" x="711.5" y="-174.5" font-family="Helvetica,sans-Serif" font-size="10.00">+ getParametersC()</text>
<text text-anchor="start" x="711.5" y="-163.5" font-family="Helvetica,sans-Serif" font-size="10.00">+ setParA()</text>
<text text-anchor="start" x="711.5" y="-152.5" font-family="Helvetica,sans-Serif" font-size="10.00">+ setParC()</text>
<text text-anchor="start" x="711.5" y="-141.5" font-family="Helvetica,sans-Serif" font-size="10.00">+ setParB()</text>
</a>
</g>
</g>
<!-- Node7&#45;&gt;Node1 -->
<g id="edge6" class="edge"><title>Node7&#45;&gt;Node1</title>
<path fill="none" stroke="#404040" d="M721.186,-134.259C712.619,-124.277 703.436,-114.532 694,-106 654.37,-70.166 595.971,-50.4624 553.228,-40.159"/>
<polygon fill="none" stroke="#404040" points="553.036,-40.1151 546.294,-42.6748 541.339,-37.4364 548.08,-34.8767 553.036,-40.1151"/>
<text text-anchor="middle" x="688" y="-79.5" font-family="Helvetica,sans-Serif" font-size="10.00"> +params</text>
</g>
<!-- Node8 -->
<g id="node8" class="node"><title>Node8</title>
<g id="a_node8"><a xlink:href="../../d8/d69/classo2_1_1mid_1_1Digitizer.html" target="_top" xlink:title="{o2::mid::Digitizer\n||+ Digitizer()\l+ ~Digitizer()\l+ process()\l+ setEventTime()\l+ setEventID()\l+ setSrcID()\l+ setGeometryTransformer()\l+ setChamberResponse()\l+ setSeed()\l}">
<polygon fill="none" stroke="black" points="861,-134.5 861,-279.5 1001,-279.5 1001,-134.5 861,-134.5"/>
<text text-anchor="middle" x="931" y="-267.5" font-family="Helvetica,sans-Serif" font-size="10.00">o2::mid::Digitizer</text>
<polyline fill="none" stroke="black" points="861,-260.5 1001,-260.5 "/>
<text text-anchor="middle" x="931" y="-248.5" font-family="Helvetica,sans-Serif" font-size="10.00"> </text>
<polyline fill="none" stroke="black" points="861,-241.5 1001,-241.5 "/>
<text text-anchor="start" x="869" y="-229.5" font-family="Helvetica,sans-Serif" font-size="10.00">+ Digitizer()</text>
<text text-anchor="start" x="869" y="-218.5" font-family="Helvetica,sans-Serif" font-size="10.00">+ ~Digitizer()</text>
<text text-anchor="start" x="869" y="-207.5" font-family="Helvetica,sans-Serif" font-size="10.00">+ process()</text>
<text text-anchor="start" x="869" y="-196.5" font-family="Helvetica,sans-Serif" font-size="10.00">+ setEventTime()</text>
<text text-anchor="start" x="869" y="-185.5" font-family="Helvetica,sans-Serif" font-size="10.00">+ setEventID()</text>
<text text-anchor="start" x="869" y="-174.5" font-family="Helvetica,sans-Serif" font-size="10.00">+ setSrcID()</text>
<text text-anchor="start" x="869" y="-163.5" font-family="Helvetica,sans-Serif" font-size="10.00">+ setGeometryTransformer()</text>
<text text-anchor="start" x="869" y="-152.5" font-family="Helvetica,sans-Serif" font-size="10.00">+ setChamberResponse()</text>
<text text-anchor="start" x="869" y="-141.5" font-family="Helvetica,sans-Serif" font-size="10.00">+ setSeed()</text>
</a>
</g>
</g>
<!-- Node8&#45;&gt;Node1 -->
<g id="edge7" class="edge"><title>Node8&#45;&gt;Node1</title>
<path fill="none" stroke="#404040" d="M883.907,-134.279C874.139,-123.498 863.093,-113.499 851,-106 757.575,-48.0684 626.511,-33.8418 553.207,-30.6274"/>
<polygon fill="none" stroke="#404040" points="553.075,-30.6226 546.93,-34.3954 541.084,-30.1738 547.229,-26.401 553.075,-30.6226"/>
<text text-anchor="middle" x="838.5" y="-79.5" font-family="Helvetica,sans-Serif" font-size="10.00"> +digitizer</text>
</g>
</g>
</svg>
