<?xml version="1.0" encoding="UTF-8" standalone="no"?>
<!DOCTYPE svg PUBLIC "-//W3C//DTD SVG 1.1//EN"
 "http://www.w3.org/Graphics/SVG/1.1/DTD/svg11.dtd">
<!-- Generated by graphviz version 2.36.0 (20140111.2315)
 -->
<!-- Title: /home/travis/build/AliceO2Group/AliceO2/Detectors/Base/src/MaterialManager.cxx Pages: 1 -->
<svg width="945pt" height="174pt"
 viewBox="0.00 0.00 945.00 174.00" xmlns="http://www.w3.org/2000/svg" xmlns:xlink="http://www.w3.org/1999/xlink">
<g id="graph0" class="graph" transform="scale(1 1) rotate(0) translate(4 170)">
<title>/home/travis/build/AliceO2Group/AliceO2/Detectors/Base/src/MaterialManager.cxx</title>
<!-- Node1 -->
<g id="node1" class="node"><title>Node1</title>
<polygon fill="#bfbfbf" stroke="black" points="513,-113 513,-165 655,-165 655,-113 513,-113"/>
<text text-anchor="start" x="521" y="-153" font-family="Helvetica,sans-Serif" font-size="10.00">/home/travis/build</text>
<text text-anchor="start" x="521" y="-142" font-family="Helvetica,sans-Serif" font-size="10.00">/AliceO2Group/AliceO2</text>
<text text-anchor="start" x="521" y="-131" font-family="Helvetica,sans-Serif" font-size="10.00">/Detectors/Base/src/Material</text>
<text text-anchor="middle" x="584" y="-120" font-family="Helvetica,sans-Serif" font-size="10.00">Manager.cxx</text>
</g>
<!-- Node2 -->
<g id="node2" class="node"><title>Node2</title>
<g id="a_node2"><a xlink:href="../../d0/d9a/MaterialManager_8h.html" target="_top" xlink:title="DetectorsBase/MaterialManager.h">
<polygon fill="none" stroke="black" points="47.5,-56.5 47.5,-75.5 212.5,-75.5 212.5,-56.5 47.5,-56.5"/>
<text text-anchor="middle" x="130" y="-63.5" font-family="Helvetica,sans-Serif" font-size="10.00">DetectorsBase/MaterialManager.h</text>
</a>
</g>
</g>
<!-- Node1&#45;&gt;Node2 -->
<g id="edge1" class="edge"><title>Node1&#45;&gt;Node2</title>
<path fill="none" stroke="midnightblue" d="M512.813,-126.867C425.405,-113.198 278.433,-90.2131 194.3,-77.0557"/>
<polygon fill="midnightblue" stroke="midnightblue" points="194.78,-73.5884 184.36,-75.5012 193.699,-80.5043 194.78,-73.5884"/>
</g>
<!-- Node7 -->
<g id="node7" class="node"><title>Node7</title>
<polygon fill="none" stroke="#bfbfbf" points="231,-56.5 231,-75.5 305,-75.5 305,-56.5 231,-56.5"/>
<text text-anchor="middle" x="268" y="-63.5" font-family="Helvetica,sans-Serif" font-size="10.00">TVirtualMC.h</text>
</g>
<!-- Node1&#45;&gt;Node7 -->
<g id="edge6" class="edge"><title>Node1&#45;&gt;Node7</title>
<path fill="none" stroke="midnightblue" d="M512.689,-121.978C452.277,-108.404 367.375,-89.328 315.114,-77.5858"/>
<polygon fill="midnightblue" stroke="midnightblue" points="315.638,-74.1163 305.114,-75.3389 314.103,-80.946 315.638,-74.1163"/>
</g>
<!-- Node8 -->
<g id="node8" class="node"><title>Node8</title>
<polygon fill="none" stroke="#bfbfbf" points="323,-56.5 323,-75.5 379,-75.5 379,-56.5 323,-56.5"/>
<text text-anchor="middle" x="351" y="-63.5" font-family="Helvetica,sans-Serif" font-size="10.00">TString.h</text>
</g>
<!-- Node1&#45;&gt;Node8 -->
<g id="edge7" class="edge"><title>Node1&#45;&gt;Node8</title>
<path fill="none" stroke="midnightblue" d="M512.826,-116.312C471.954,-103.857 422.263,-88.7153 388.816,-78.5235"/>
<polygon fill="midnightblue" stroke="midnightblue" points="389.572,-75.0948 378.986,-75.5279 387.531,-81.7908 389.572,-75.0948"/>
</g>
<!-- Node9 -->
<g id="node9" class="node"><title>Node9</title>
<polygon fill="none" stroke="#bfbfbf" points="397.5,-56.5 397.5,-75.5 480.5,-75.5 480.5,-56.5 397.5,-56.5"/>
<text text-anchor="middle" x="439" y="-63.5" font-family="Helvetica,sans-Serif" font-size="10.00">TGeoMedium.h</text>
</g>
<!-- Node1&#45;&gt;Node9 -->
<g id="edge8" class="edge"><title>Node1&#45;&gt;Node9</title>
<path fill="none" stroke="midnightblue" d="M532.878,-112.968C510.243,-101.885 484.555,-89.3062 465.779,-80.1123"/>
<polygon fill="midnightblue" stroke="midnightblue" points="467.163,-76.8932 456.643,-75.6389 464.085,-83.18 467.163,-76.8932"/>
</g>
<!-- Node10 -->
<g id="node10" class="node"><title>Node10</title>
<polygon fill="none" stroke="#bfbfbf" points="499,-56.5 499,-75.5 585,-75.5 585,-56.5 499,-56.5"/>
<text text-anchor="middle" x="542" y="-63.5" font-family="Helvetica,sans-Serif" font-size="10.00">TGeoManager.h</text>
</g>
<!-- Node1&#45;&gt;Node10 -->
<g id="edge9" class="edge"><title>Node1&#45;&gt;Node10</title>
<path fill="none" stroke="midnightblue" d="M569.074,-112.768C563.524,-103.385 557.354,-92.9553 552.307,-84.4245"/>
<polygon fill="midnightblue" stroke="midnightblue" points="555.284,-82.582 547.18,-75.7572 549.259,-86.146 555.284,-82.582"/>
</g>
<!-- Node11 -->
<g id="node11" class="node"><title>Node11</title>
<polygon fill="none" stroke="#bfbfbf" points="603.5,-56.5 603.5,-75.5 650.5,-75.5 650.5,-56.5 603.5,-56.5"/>
<text text-anchor="middle" x="627" y="-63.5" font-family="Helvetica,sans-Serif" font-size="10.00">TList.h</text>
</g>
<!-- Node1&#45;&gt;Node11 -->
<g id="edge10" class="edge"><title>Node1&#45;&gt;Node11</title>
<path fill="none" stroke="midnightblue" d="M599.281,-112.768C604.964,-103.385 611.281,-92.9553 616.447,-84.4245"/>
<polygon fill="midnightblue" stroke="midnightblue" points="619.51,-86.1239 621.696,-75.7572 613.522,-82.4976 619.51,-86.1239"/>
</g>
<!-- Node12 -->
<g id="node12" class="node"><title>Node12</title>
<polygon fill="none" stroke="#bfbfbf" points="669,-56.5 669,-75.5 723,-75.5 723,-56.5 669,-56.5"/>
<text text-anchor="middle" x="696" y="-63.5" font-family="Helvetica,sans-Serif" font-size="10.00">iostream</text>
</g>
<!-- Node1&#45;&gt;Node12 -->
<g id="edge11" class="edge"><title>Node1&#45;&gt;Node12</title>
<path fill="none" stroke="midnightblue" d="M623.487,-112.968C640.329,-102.291 659.36,-90.2274 673.698,-81.1379"/>
<polygon fill="midnightblue" stroke="midnightblue" points="675.8,-83.9491 682.372,-75.6389 672.053,-78.037 675.8,-83.9491"/>
</g>
<!-- Node13 -->
<g id="node13" class="node"><title>Node13</title>
<polygon fill="none" stroke="#bfbfbf" points="741,-56.5 741,-75.5 781,-75.5 781,-56.5 741,-56.5"/>
<text text-anchor="middle" x="761" y="-63.5" font-family="Helvetica,sans-Serif" font-size="10.00">utility</text>
</g>
<!-- Node1&#45;&gt;Node13 -->
<g id="edge12" class="edge"><title>Node1&#45;&gt;Node13</title>
<path fill="none" stroke="midnightblue" d="M646.404,-112.968C675.188,-101.422 708.017,-88.253 731.138,-78.9785"/>
<polygon fill="midnightblue" stroke="midnightblue" points="732.742,-82.1063 740.72,-75.1349 730.136,-75.6095 732.742,-82.1063"/>
</g>
<!-- Node14 -->
<g id="node14" class="node"><title>Node14</title>
<polygon fill="none" stroke="#bfbfbf" points="799.5,-56.5 799.5,-75.5 870.5,-75.5 870.5,-56.5 799.5,-56.5"/>
<text text-anchor="middle" x="835" y="-63.5" font-family="Helvetica,sans-Serif" font-size="10.00">FairLogger.h</text>
</g>
<!-- Node1&#45;&gt;Node14 -->
<g id="edge13" class="edge"><title>Node1&#45;&gt;Node14</title>
<path fill="none" stroke="midnightblue" d="M655.255,-117.844C700.431,-105.065 757.218,-89.0021 794.737,-78.3893"/>
<polygon fill="midnightblue" stroke="midnightblue" points="796.112,-81.6375 804.782,-75.5477 794.207,-74.9018 796.112,-81.6375"/>
</g>
<!-- Node15 -->
<g id="node15" class="node"><title>Node15</title>
<polygon fill="none" stroke="#bfbfbf" points="888.5,-56.5 888.5,-75.5 937.5,-75.5 937.5,-56.5 888.5,-56.5"/>
<text text-anchor="middle" x="913" y="-63.5" font-family="Helvetica,sans-Serif" font-size="10.00">cassert</text>
</g>
<!-- Node1&#45;&gt;Node15 -->
<g id="edge14" class="edge"><title>Node1&#45;&gt;Node15</title>
<path fill="none" stroke="midnightblue" d="M655.161,-124.115C712.773,-112.628 796.225,-95.433 878.401,-76.0477"/>
<polygon fill="midnightblue" stroke="midnightblue" points="879.232,-79.4478 888.155,-73.735 877.617,-72.6367 879.232,-79.4478"/>
</g>
<!-- Node3 -->
<g id="node3" class="node"><title>Node3</title>
<polygon fill="none" stroke="#bfbfbf" points="0,-0.5 0,-19.5 56,-19.5 56,-0.5 0,-0.5"/>
<text text-anchor="middle" x="28" y="-7.5" font-family="Helvetica,sans-Serif" font-size="10.00">Rtypes.h</text>
</g>
<!-- Node2&#45;&gt;Node3 -->
<g id="edge2" class="edge"><title>Node2&#45;&gt;Node3</title>
<path fill="none" stroke="midnightblue" d="M113.612,-56.324C97.3287,-47.7034 72.1325,-34.3643 53.2837,-24.3855"/>
<polygon fill="midnightblue" stroke="midnightblue" points="54.8229,-21.2402 44.3474,-19.6545 51.5477,-27.4267 54.8229,-21.2402"/>
</g>
<!-- Node4 -->
<g id="node4" class="node"><title>Node4</title>
<polygon fill="none" stroke="#bfbfbf" points="74.5,-0.5 74.5,-19.5 109.5,-19.5 109.5,-0.5 74.5,-0.5"/>
<text text-anchor="middle" x="92" y="-7.5" font-family="Helvetica,sans-Serif" font-size="10.00">map</text>
</g>
<!-- Node2&#45;&gt;Node4 -->
<g id="edge3" class="edge"><title>Node2&#45;&gt;Node4</title>
<path fill="none" stroke="midnightblue" d="M123.725,-56.083C118.358,-48.4554 110.482,-37.2645 103.921,-27.9408"/>
<polygon fill="midnightblue" stroke="midnightblue" points="106.775,-25.9149 98.1582,-19.7511 101.051,-29.9434 106.775,-25.9149"/>
</g>
<!-- Node5 -->
<g id="node5" class="node"><title>Node5</title>
<polygon fill="none" stroke="#bfbfbf" points="127.5,-0.5 127.5,-19.5 210.5,-19.5 210.5,-0.5 127.5,-0.5"/>
<text text-anchor="middle" x="169" y="-7.5" font-family="Helvetica,sans-Serif" font-size="10.00">unordered_map</text>
</g>
<!-- Node2&#45;&gt;Node5 -->
<g id="edge4" class="edge"><title>Node2&#45;&gt;Node5</title>
<path fill="none" stroke="midnightblue" d="M136.44,-56.083C141.949,-48.4554 150.031,-37.2645 156.765,-27.9408"/>
<polygon fill="midnightblue" stroke="midnightblue" points="159.662,-29.9071 162.68,-19.7511 153.987,-25.8087 159.662,-29.9071"/>
</g>
<!-- Node6 -->
<g id="node6" class="node"><title>Node6</title>
<polygon fill="none" stroke="#bfbfbf" points="228.5,-0.5 228.5,-19.5 301.5,-19.5 301.5,-0.5 228.5,-0.5"/>
<text text-anchor="middle" x="265" y="-7.5" font-family="Helvetica,sans-Serif" font-size="10.00">initializer_list</text>
</g>
<!-- Node2&#45;&gt;Node6 -->
<g id="edge5" class="edge"><title>Node2&#45;&gt;Node6</title>
<path fill="none" stroke="midnightblue" d="M151.391,-56.4435C173.707,-47.5171 208.903,-33.4387 234.208,-23.3168"/>
<polygon fill="midnightblue" stroke="midnightblue" points="235.724,-26.4801 243.709,-19.5164 233.124,-19.9807 235.724,-26.4801"/>
</g>
</g>
</svg>
