<?xml version="1.0" encoding="UTF-8" standalone="no"?>
<!DOCTYPE svg PUBLIC "-//W3C//DTD SVG 1.1//EN"
 "http://www.w3.org/Graphics/SVG/1.1/DTD/svg11.dtd">
<!-- Generated by graphviz version 2.36.0 (20140111.2315)
 -->
<!-- Title: o2::algorithm::Composite&lt; HeaderT, TrailerT &gt; Pages: 1 -->
<svg width="290pt" height="250pt"
 viewBox="0.00 0.00 290.00 250.00" xmlns="http://www.w3.org/2000/svg" xmlns:xlink="http://www.w3.org/1999/xlink">
<g id="graph0" class="graph" transform="scale(1 1) rotate(0) translate(4 246)">
<title>o2::algorithm::Composite&lt; HeaderT, TrailerT &gt;</title>
<!-- Node1 -->
<g id="node1" class="node"><title>Node1</title>
<polygon fill="#bfbfbf" stroke="black" points="35,-1 35,-113 161,-113 161,-1 35,-1"/>
<text text-anchor="start" x="43" y="-101" font-family="Helvetica,sans-Serif" font-size="10.00">o2::algorithm::Composite</text>
<text text-anchor="middle" x="98" y="-90" font-family="Helvetica,sans-Serif" font-size="10.00">&lt; HeaderT, TrailerT &gt;</text>
<polyline fill="none" stroke="black" points="35,-83 161,-83 "/>
<text text-anchor="middle" x="98" y="-71" font-family="Helvetica,sans-Serif" font-size="10.00"> </text>
<polyline fill="none" stroke="black" points="35,-64 161,-64 "/>
<text text-anchor="start" x="43" y="-52" font-family="Helvetica,sans-Serif" font-size="10.00">+ Composite()</text>
<text text-anchor="start" x="43" y="-41" font-family="Helvetica,sans-Serif" font-size="10.00">+ Composite()</text>
<text text-anchor="start" x="43" y="-30" font-family="Helvetica,sans-Serif" font-size="10.00">+ getLength()</text>
<text text-anchor="start" x="43" y="-19" font-family="Helvetica,sans-Serif" font-size="10.00">+ getDataLength()</text>
<text text-anchor="start" x="43" y="-8" font-family="Helvetica,sans-Serif" font-size="10.00">+ insert()</text>
</g>
<!-- Node2 -->
<g id="node2" class="node"><title>Node2</title>
<polygon fill="none" stroke="#bfbfbf" points="-0.5,-184.5 -0.5,-241.5 34.5,-241.5 34.5,-184.5 -0.5,-184.5"/>
<text text-anchor="middle" x="17" y="-229.5" font-family="Helvetica,sans-Serif" font-size="10.00">char</text>
<polyline fill="none" stroke="#bfbfbf" points="-0.5,-222.5 34.5,-222.5 "/>
<text text-anchor="middle" x="17" y="-210.5" font-family="Helvetica,sans-Serif" font-size="10.00"> </text>
<polyline fill="none" stroke="#bfbfbf" points="-0.5,-203.5 34.5,-203.5 "/>
<text text-anchor="middle" x="17" y="-191.5" font-family="Helvetica,sans-Serif" font-size="10.00"> </text>
</g>
<!-- Node2&#45;&gt;Node1 -->
<g id="edge1" class="edge"><title>Node2&#45;&gt;Node1</title>
<path fill="none" stroke="#404040" d="M19.8924,-184.226C22.3565,-168.301 26.8565,-148.301 35,-132 36.3855,-129.227 37.8967,-126.47 39.5084,-123.742"/>
<polygon fill="none" stroke="#404040" points="39.677,-123.48 39.5595,-116.27 46.1699,-113.388 46.2873,-120.598 39.677,-123.48"/>
<text text-anchor="middle" x="49" y="-146.5" font-family="Helvetica,sans-Serif" font-size="10.00"> +data</text>
</g>
<!-- Node3 -->
<g id="node3" class="node"><title>Node3</title>
<polygon fill="none" stroke="#bfbfbf" points="52.5,-184.5 52.5,-241.5 87.5,-241.5 87.5,-184.5 52.5,-184.5"/>
<text text-anchor="middle" x="70" y="-229.5" font-family="Helvetica,sans-Serif" font-size="10.00">type</text>
<polyline fill="none" stroke="#bfbfbf" points="52.5,-222.5 87.5,-222.5 "/>
<text text-anchor="middle" x="70" y="-210.5" font-family="Helvetica,sans-Serif" font-size="10.00"> </text>
<polyline fill="none" stroke="#bfbfbf" points="52.5,-203.5 87.5,-203.5 "/>
<text text-anchor="middle" x="70" y="-191.5" font-family="Helvetica,sans-Serif" font-size="10.00"> </text>
</g>
<!-- Node3&#45;&gt;Node1 -->
<g id="edge2" class="edge"><title>Node3&#45;&gt;Node1</title>
<path fill="none" stroke="#404040" d="M68.0721,-184.38C67.5549,-168.864 67.8465,-149.215 71,-132 71.4251,-129.68 71.9155,-127.336 72.4604,-124.983"/>
<polygon fill="none" stroke="#404040" points="72.5096,-124.797 70.184,-117.971 75.5903,-113.199 77.9159,-120.025 72.5096,-124.797"/>
<text text-anchor="middle" x="88" y="-146.5" font-family="Helvetica,sans-Serif" font-size="10.00"> +trailer</text>
</g>
<!-- Node4 -->
<g id="node4" class="node"><title>Node4</title>
<g id="a_node4"><a xlink:href="../../dd/de2/classsize__t.html" target="_top" xlink:title="{size_t\n||}">
<polygon fill="none" stroke="black" points="105.5,-184.5 105.5,-241.5 148.5,-241.5 148.5,-184.5 105.5,-184.5"/>
<text text-anchor="middle" x="127" y="-229.5" font-family="Helvetica,sans-Serif" font-size="10.00">size_t</text>
<polyline fill="none" stroke="black" points="105.5,-222.5 148.5,-222.5 "/>
<text text-anchor="middle" x="127" y="-210.5" font-family="Helvetica,sans-Serif" font-size="10.00"> </text>
<polyline fill="none" stroke="black" points="105.5,-203.5 148.5,-203.5 "/>
<text text-anchor="middle" x="127" y="-191.5" font-family="Helvetica,sans-Serif" font-size="10.00"> </text>
</a>
</g>
</g>
<!-- Node4&#45;&gt;Node1 -->
<g id="edge3" class="edge"><title>Node4&#45;&gt;Node1</title>
<path fill="none" stroke="#404040" d="M121.815,-184.468C118.682,-167.829 114.542,-145.846 110.594,-124.881"/>
<polygon fill="none" stroke="#404040" points="110.586,-124.835 105.545,-119.679 108.365,-113.042 113.406,-118.198 110.586,-124.835"/>
<text text-anchor="middle" x="159" y="-157.5" font-family="Helvetica,sans-Serif" font-size="10.00"> +compositeLength</text>
<text text-anchor="middle" x="159" y="-146.5" font-family="Helvetica,sans-Serif" font-size="10.00">+trailerLength</text>
<text text-anchor="middle" x="159" y="-135.5" font-family="Helvetica,sans-Serif" font-size="10.00">+dataLength</text>
</g>
<!-- Node5 -->
<g id="node5" class="node"><title>Node5</title>
<polygon fill="none" stroke="#bfbfbf" points="185.5,-184.5 185.5,-241.5 282.5,-241.5 282.5,-184.5 185.5,-184.5"/>
<text text-anchor="middle" x="234" y="-229.5" font-family="Helvetica,sans-Serif" font-size="10.00">const HeaderType</text>
<polyline fill="none" stroke="#bfbfbf" points="185.5,-222.5 282.5,-222.5 "/>
<text text-anchor="middle" x="234" y="-210.5" font-family="Helvetica,sans-Serif" font-size="10.00"> </text>
<polyline fill="none" stroke="#bfbfbf" points="185.5,-203.5 282.5,-203.5 "/>
<text text-anchor="middle" x="234" y="-191.5" font-family="Helvetica,sans-Serif" font-size="10.00"> </text>
</g>
<!-- Node5&#45;&gt;Node1 -->
<g id="edge4" class="edge"><title>Node5&#45;&gt;Node1</title>
<path fill="none" stroke="#404040" d="M228.461,-184.369C224.133,-167.916 216.816,-147.327 205,-132 195.642,-119.861 183.727,-108.959 171.268,-99.4892"/>
<polygon fill="none" stroke="#404040" points="170.921,-99.2385 163.715,-98.9634 161.198,-92.206 168.404,-92.4811 170.921,-99.2385"/>
<text text-anchor="middle" x="241.5" y="-146.5" font-family="Helvetica,sans-Serif" font-size="10.00"> +header</text>
</g>
</g>
</svg>
