<?xml version="1.0" encoding="UTF-8" standalone="no"?>
<!DOCTYPE svg PUBLIC "-//W3C//DTD SVG 1.1//EN"
 "http://www.w3.org/Graphics/SVG/1.1/DTD/svg11.dtd">
<!-- Generated by graphviz version 2.36.0 (20140111.2315)
 -->
<!-- Title: /home/travis/build/AliceO2Group/AliceO2/CCDB/include/CCDB/Condition.h Pages: 1 -->
<!--zoomable 218 -->
<svg id="main" version="1.1" xmlns="http://www.w3.org/2000/svg" xmlns:xlink="http://www.w3.org/1999/xlink" xml:space="preserve" onload="init(evt)">
<style type="text/css"><![CDATA[
.edge:hover path { stroke: red; }
.edge:hover polygon { stroke: red; fill: red; }
]]></style>
<script type="text/javascript"><![CDATA[
var edges = document.getElementsByTagName('g');
if (edges && edges.length) {
  for (var i=0;i<edges.length;i++) {
    if (edges[i].id.substr(0,4)=='edge') {
      edges[i].setAttribute('class','edge');
    }
  }
}
]]></script>
        <defs>
                <circle id="rim" cx="0" cy="0" r="7"/>
                <circle id="rim2" cx="0" cy="0" r="3.5"/>
                <g id="zoomPlus">
                        <use xlink:href="#rim" fill="#404040">
                                <set attributeName="fill" to="#808080" begin="zoomplus.mouseover" end="zoomplus.mouseout"/>
                        </use>
                        <path d="M-4,0h8M0,-4v8" fill="none" stroke="white" stroke-width="1.5" pointer-events="none"/>
                </g>
                <g id="zoomMin">
                        <use xlink:href="#rim" fill="#404040">
                                <set attributeName="fill" to="#808080" begin="zoomminus.mouseover" end="zoomminus.mouseout"/>
                        </use>
                        <path d="M-4,0h8" fill="none" stroke="white" stroke-width="1.5" pointer-events="none"/>
                </g>
                <g id="dirArrow">
                        <path fill="none" stroke="white" stroke-width="1.5" d="M0,-3.0v7 M-2.5,-0.5L0,-3.0L2.5,-0.5"/>
                </g>
               <g id="resetDef">
                       <use xlink:href="#rim2" fill="#404040">
                               <set attributeName="fill" to="#808080" begin="reset.mouseover" end="reset.mouseout"/>
                       </use>
               </g>
        </defs>

<script type="text/javascript">
var viewWidth = 995;
var viewHeight = 218;
var sectionId = 'dynsection-0';
</script>
<script xlink:href="../../svgpan.js"/>
<svg id="graph" class="graph">
<g id="viewport">
<title>/home/travis/build/AliceO2Group/AliceO2/CCDB/include/CCDB/Condition.h</title>
<!-- Node1 -->
<g id="node1" class="node"><title>Node1</title>
<polygon fill="#bfbfbf" stroke="black" points="218.949,-168.5 218.949,-209.5 385.949,-209.5 385.949,-168.5 218.949,-168.5"/>
<text text-anchor="start" x="226.949" y="-197.5" font-family="Helvetica,sans-Serif" font-size="10.00">/home/travis/build</text>
<text text-anchor="start" x="226.949" y="-186.5" font-family="Helvetica,sans-Serif" font-size="10.00">/AliceO2Group/AliceO2</text>
<text text-anchor="middle" x="302.449" y="-175.5" font-family="Helvetica,sans-Serif" font-size="10.00">/CCDB/include/CCDB/Condition.h</text>
</g>
<!-- Node2 -->
<g id="node2" class="node"><title>Node2</title>
<g id="a_node2"><a xlink:href="../../da/d53/ConditionId_8h.html" target="_top" xlink:title="CCDB/ConditionId.h">
<polygon fill="none" stroke="black" points="111.949,-112.5 111.949,-131.5 218.949,-131.5 218.949,-112.5 111.949,-112.5"/>
<text text-anchor="middle" x="165.449" y="-119.5" font-family="Helvetica,sans-Serif" font-size="10.00">CCDB/ConditionId.h</text>
</a>
</g>
</g>
<!-- Node1&#45;&gt;Node2 -->
<g id="edge1" class="edge"><title>Node1&#45;&gt;Node2</title>
<path fill="none" stroke="midnightblue" d="M261.345,-168.498C239.229,-158.005 212.553,-145.348 192.956,-136.051"/>
<polygon fill="midnightblue" stroke="midnightblue" points="194.221,-132.777 183.686,-131.652 191.221,-139.101 194.221,-132.777"/>
</g>
<!-- Node3 -->
<g id="node3" class="node"><title>Node3</title>
<polygon fill="none" stroke="#bfbfbf" points="236.949,-0.5 236.949,-19.5 295.949,-19.5 295.949,-0.5 236.949,-0.5"/>
<text text-anchor="middle" x="266.449" y="-7.5" font-family="Helvetica,sans-Serif" font-size="10.00">TObject.h</text>
</g>
<!-- Node1&#45;&gt;Node3 -->
<g id="edge27" class="edge"><title>Node1&#45;&gt;Node3</title>
<path fill="none" stroke="midnightblue" d="M300.943,-168.055C298.664,-141.973 293.498,-95.0127 283.449,-56 281.132,-47.0027 277.618,-37.327 274.386,-29.2617"/>
<polygon fill="midnightblue" stroke="midnightblue" points="277.508,-27.656 270.422,-19.7792 271.05,-30.3555 277.508,-27.656"/>
</g>
<!-- Node4 -->
<g id="node4" class="node"><title>Node4</title>
<g id="a_node4"><a xlink:href="../../d4/dd1/IdPath_8h.html" target="_top" xlink:title="CCDB/IdPath.h">
<polygon fill="none" stroke="black" points="188.449,-56.5 188.449,-75.5 274.449,-75.5 274.449,-56.5 188.449,-56.5"/>
<text text-anchor="middle" x="231.449" y="-63.5" font-family="Helvetica,sans-Serif" font-size="10.00">CCDB/IdPath.h</text>
</a>
</g>
</g>
<!-- Node1&#45;&gt;Node4 -->
<g id="edge17" class="edge"><title>Node1&#45;&gt;Node4</title>
<path fill="none" stroke="midnightblue" d="M290.884,-168.29C277.192,-144.956 254.61,-106.471 241.579,-84.2627"/>
<polygon fill="midnightblue" stroke="midnightblue" points="244.561,-82.4283 236.481,-75.5748 238.523,-85.971 244.561,-82.4283"/>
</g>
<!-- Node5 -->
<g id="node5" class="node"><title>Node5</title>
<polygon fill="none" stroke="#bfbfbf" points="458.449,-0.5 458.449,-19.5 514.449,-19.5 514.449,-0.5 458.449,-0.5"/>
<text text-anchor="middle" x="486.449" y="-7.5" font-family="Helvetica,sans-Serif" font-size="10.00">TString.h</text>
</g>
<!-- Node1&#45;&gt;Node5 -->
<g id="edge28" class="edge"><title>Node1&#45;&gt;Node5</title>
<path fill="none" stroke="midnightblue" d="M386.206,-187.756C551.819,-185.235 911.319,-168.931 982.449,-76 987.852,-68.9415 988.444,-62.5632 982.449,-56 951.733,-22.3706 635.576,-13.615 524.656,-11.5694"/>
<polygon fill="midnightblue" stroke="midnightblue" points="524.639,-8.06866 514.578,-11.3918 524.515,-15.0676 524.639,-8.06866"/>
</g>
<!-- Node6 -->
<g id="node6" class="node"><title>Node6</title>
<polygon fill="none" stroke="#bfbfbf" points="48.4495,-0.5 48.4495,-19.5 104.449,-19.5 104.449,-0.5 48.4495,-0.5"/>
<text text-anchor="middle" x="76.4495" y="-7.5" font-family="Helvetica,sans-Serif" font-size="10.00">Rtypes.h</text>
</g>
<!-- Node1&#45;&gt;Node6 -->
<g id="edge26" class="edge"><title>Node1&#45;&gt;Node6</title>
<path fill="none" stroke="midnightblue" d="M218.709,-183.989C146.246,-175.374 46.5273,-149.859 3.44945,-76 -9.43819,-53.9034 18.1628,-35.292 43.0385,-23.7229"/>
<polygon fill="midnightblue" stroke="midnightblue" points="44.5957,-26.8619 52.3489,-19.6412 41.785,-20.451 44.5957,-26.8619"/>
</g>
<!-- Node8 -->
<g id="node8" class="node"><title>Node8</title>
<g id="a_node8"><a xlink:href="../../d1/d3f/ConditionMetaData_8h.html" target="_top" xlink:title="CCDB/ConditionMetaData.h">
<polygon fill="none" stroke="black" points="330.949,-56.5 330.949,-75.5 471.949,-75.5 471.949,-56.5 330.949,-56.5"/>
<text text-anchor="middle" x="401.449" y="-63.5" font-family="Helvetica,sans-Serif" font-size="10.00">CCDB/ConditionMetaData.h</text>
</a>
</g>
</g>
<!-- Node1&#45;&gt;Node8 -->
<g id="edge12" class="edge"><title>Node1&#45;&gt;Node8</title>
<path fill="none" stroke="midnightblue" d="M318.576,-168.29C337.924,-144.642 370.005,-105.432 388.051,-83.3753"/>
<polygon fill="midnightblue" stroke="midnightblue" points="390.81,-85.5307 394.434,-75.5748 385.392,-81.0981 390.81,-85.5307"/>
</g>
<!-- Node10 -->
<g id="node10" class="node"><title>Node10</title>
<g id="a_node10"><a xlink:href="../../d7/d44/TObjectWrapper_8h.html" target="_top" xlink:title="CCDB/TObjectWrapper.h">
<polygon fill="none" stroke="black" points="638.449,-112.5 638.449,-131.5 766.449,-131.5 766.449,-112.5 638.449,-112.5"/>
<text text-anchor="middle" x="702.449" y="-119.5" font-family="Helvetica,sans-Serif" font-size="10.00">CCDB/TObjectWrapper.h</text>
</a>
</g>
</g>
<!-- Node1&#45;&gt;Node10 -->
<g id="edge18" class="edge"><title>Node1&#45;&gt;Node10</title>
<path fill="none" stroke="midnightblue" d="M386.303,-174.374C461.914,-162.087 571.42,-144.292 639.699,-133.197"/>
<polygon fill="midnightblue" stroke="midnightblue" points="640.569,-136.601 649.879,-131.543 639.447,-129.692 640.569,-136.601"/>
</g>
<!-- Node2&#45;&gt;Node3 -->
<g id="edge2" class="edge"><title>Node2&#45;&gt;Node3</title>
<path fill="none" stroke="midnightblue" d="M165.087,-112.471C164.96,-99.0701 166.548,-72.8728 179.449,-56 191.279,-40.5295 209.935,-29.8949 226.943,-22.8655"/>
<polygon fill="midnightblue" stroke="midnightblue" points="228.612,-25.9746 236.703,-19.1341 226.112,-19.4362 228.612,-25.9746"/>
</g>
<!-- Node2&#45;&gt;Node4 -->
<g id="edge3" class="edge"><title>Node2&#45;&gt;Node4</title>
<path fill="none" stroke="midnightblue" d="M176.053,-112.324C185.906,-104.263 200.8,-92.0765 212.665,-82.3695"/>
<polygon fill="midnightblue" stroke="midnightblue" points="215.129,-84.8752 220.652,-75.8339 210.697,-79.4575 215.129,-84.8752"/>
</g>
<!-- Node2&#45;&gt;Node5 -->
<g id="edge11" class="edge"><title>Node2&#45;&gt;Node5</title>
<path fill="none" stroke="midnightblue" d="M219.184,-121.043C299.614,-119.881 445.609,-112.622 480.449,-76 491.903,-63.9611 492.204,-44.3898 490.372,-29.8639"/>
<polygon fill="midnightblue" stroke="midnightblue" points="493.814,-29.2283 488.703,-19.9475 486.911,-30.3897 493.814,-29.2283"/>
</g>
<!-- Node2&#45;&gt;Node6 -->
<g id="edge10" class="edge"><title>Node2&#45;&gt;Node6</title>
<path fill="none" stroke="midnightblue" d="M112.549,-112.46C73.0177,-104.872 23.7708,-92.437 11.4495,-76 -3.33888,-56.272 23.3945,-36.6825 46.9199,-24.2491"/>
<polygon fill="midnightblue" stroke="midnightblue" points="48.6416,-27.3013 56.0143,-19.6925 45.5058,-21.0429 48.6416,-27.3013"/>
</g>
<!-- Node7 -->
<g id="node7" class="node"><title>Node7</title>
<g id="a_node7"><a xlink:href="../../dd/d18/IdRunRange_8h.html" target="_top" xlink:title="CCDB/IdRunRange.h">
<polygon fill="none" stroke="black" points="20.4495,-56.5 20.4495,-75.5 132.449,-75.5 132.449,-56.5 20.4495,-56.5"/>
<text text-anchor="middle" x="76.4495" y="-63.5" font-family="Helvetica,sans-Serif" font-size="10.00">CCDB/IdRunRange.h</text>
</a>
</g>
</g>
<!-- Node2&#45;&gt;Node7 -->
<g id="edge7" class="edge"><title>Node2&#45;&gt;Node7</title>
<path fill="none" stroke="midnightblue" d="M151.15,-112.324C137.267,-103.9 115.957,-90.9709 99.6457,-81.0741"/>
<polygon fill="midnightblue" stroke="midnightblue" points="101.078,-77.8495 90.7134,-75.6545 97.4472,-83.8341 101.078,-77.8495"/>
</g>
<!-- Node4&#45;&gt;Node3 -->
<g id="edge4" class="edge"><title>Node4&#45;&gt;Node3</title>
<path fill="none" stroke="midnightblue" d="M237.229,-56.083C242.122,-48.5341 249.277,-37.4948 255.282,-28.2298"/>
<polygon fill="midnightblue" stroke="midnightblue" points="258.275,-30.0463 260.777,-19.7511 252.401,-26.239 258.275,-30.0463"/>
</g>
<!-- Node4&#45;&gt;Node5 -->
<g id="edge5" class="edge"><title>Node4&#45;&gt;Node5</title>
<path fill="none" stroke="midnightblue" d="M271.855,-56.4435C320.395,-46.1645 401.195,-29.0539 448.578,-19.0198"/>
<polygon fill="midnightblue" stroke="midnightblue" points="449.385,-22.4266 458.443,-16.9308 447.935,-15.5785 449.385,-22.4266"/>
</g>
<!-- Node4&#45;&gt;Node6 -->
<g id="edge6" class="edge"><title>Node4&#45;&gt;Node6</title>
<path fill="none" stroke="midnightblue" d="M206.889,-56.4435C180.927,-47.3986 139.781,-33.064 110.652,-22.9158"/>
<polygon fill="midnightblue" stroke="midnightblue" points="111.49,-19.5013 100.895,-19.5164 109.187,-26.1116 111.49,-19.5013"/>
</g>
<!-- Node7&#45;&gt;Node3 -->
<g id="edge8" class="edge"><title>Node7&#45;&gt;Node3</title>
<path fill="none" stroke="midnightblue" d="M106.556,-56.4435C139.171,-47.1739 191.334,-32.3487 227.156,-22.1675"/>
<polygon fill="midnightblue" stroke="midnightblue" points="228.135,-25.5281 236.797,-19.4275 226.221,-18.7948 228.135,-25.5281"/>
</g>
<!-- Node7&#45;&gt;Node6 -->
<g id="edge9" class="edge"><title>Node7&#45;&gt;Node6</title>
<path fill="none" stroke="midnightblue" d="M76.4495,-56.083C76.4495,-49.0059 76.4495,-38.8611 76.4495,-29.9865"/>
<polygon fill="midnightblue" stroke="midnightblue" points="79.9495,-29.751 76.4495,-19.7511 72.9495,-29.7511 79.9495,-29.751"/>
</g>
<!-- Node8&#45;&gt;Node3 -->
<g id="edge14" class="edge"><title>Node8&#45;&gt;Node3</title>
<path fill="none" stroke="midnightblue" d="M380.058,-56.4435C357.742,-47.5171 322.546,-33.4387 297.241,-23.3168"/>
<polygon fill="midnightblue" stroke="midnightblue" points="298.325,-19.9807 287.741,-19.5164 295.725,-26.4801 298.325,-19.9807"/>
</g>
<!-- Node8&#45;&gt;Node5 -->
<g id="edge16" class="edge"><title>Node8&#45;&gt;Node5</title>
<path fill="none" stroke="midnightblue" d="M415.106,-56.324C428.366,-47.9002 448.717,-34.9709 464.296,-25.0741"/>
<polygon fill="midnightblue" stroke="midnightblue" points="466.263,-27.9711 472.827,-19.6545 462.509,-22.0626 466.263,-27.9711"/>
</g>
<!-- Node8&#45;&gt;Node6 -->
<g id="edge15" class="edge"><title>Node8&#45;&gt;Node6</title>
<path fill="none" stroke="midnightblue" d="M349.952,-56.4435C284.439,-45.5582 172.817,-27.0118 114.493,-17.3211"/>
<polygon fill="midnightblue" stroke="midnightblue" points="115.024,-13.8614 104.586,-15.6749 113.877,-20.7667 115.024,-13.8614"/>
</g>
<!-- Node9 -->
<g id="node9" class="node"><title>Node9</title>
<polygon fill="none" stroke="#bfbfbf" points="376.449,-0.5 376.449,-19.5 426.449,-19.5 426.449,-0.5 376.449,-0.5"/>
<text text-anchor="middle" x="401.449" y="-7.5" font-family="Helvetica,sans-Serif" font-size="10.00">TMap.h</text>
</g>
<!-- Node8&#45;&gt;Node9 -->
<g id="edge13" class="edge"><title>Node8&#45;&gt;Node9</title>
<path fill="none" stroke="midnightblue" d="M401.449,-56.083C401.449,-49.0059 401.449,-38.8611 401.449,-29.9865"/>
<polygon fill="midnightblue" stroke="midnightblue" points="404.95,-29.751 401.449,-19.7511 397.95,-29.7511 404.95,-29.751"/>
</g>
<!-- Node10&#45;&gt;Node3 -->
<g id="edge20" class="edge"><title>Node10&#45;&gt;Node3</title>
<path fill="none" stroke="midnightblue" d="M675.637,-112.417C634.091,-99.2846 551.534,-73.8517 480.449,-56 420.069,-40.8364 349.238,-26.6353 306.118,-18.3853"/>
<polygon fill="midnightblue" stroke="midnightblue" points="306.516,-14.8984 296.038,-16.4688 305.209,-21.7752 306.516,-14.8984"/>
</g>
<!-- Node11 -->
<g id="node11" class="node"><title>Node11</title>
<polygon fill="none" stroke="#bfbfbf" points="783.449,-56.5 783.449,-75.5 839.449,-75.5 839.449,-56.5 783.449,-56.5"/>
<text text-anchor="middle" x="811.449" y="-63.5" font-family="Helvetica,sans-Serif" font-size="10.00">TClass.h</text>
</g>
<!-- Node10&#45;&gt;Node11 -->
<g id="edge19" class="edge"><title>Node10&#45;&gt;Node11</title>
<path fill="none" stroke="midnightblue" d="M719.962,-112.324C737.522,-103.625 764.781,-90.1202 784.981,-80.113"/>
<polygon fill="midnightblue" stroke="midnightblue" points="786.573,-83.23 793.98,-75.6545 783.466,-76.9575 786.573,-83.23"/>
</g>
<!-- Node12 -->
<g id="node12" class="node"><title>Node12</title>
<polygon fill="none" stroke="#bfbfbf" points="857.949,-56.5 857.949,-75.5 910.949,-75.5 910.949,-56.5 857.949,-56.5"/>
<text text-anchor="middle" x="884.449" y="-63.5" font-family="Helvetica,sans-Serif" font-size="10.00">cxxabi.h</text>
</g>
<!-- Node10&#45;&gt;Node12 -->
<g id="edge21" class="edge"><title>Node10&#45;&gt;Node12</title>
<path fill="none" stroke="midnightblue" d="M731.288,-112.444C762.944,-103.051 813.824,-87.9549 848.166,-77.7654"/>
<polygon fill="midnightblue" stroke="midnightblue" points="849.227,-81.1015 857.818,-74.9015 847.236,-74.3906 849.227,-81.1015"/>
</g>
<!-- Node13 -->
<g id="node13" class="node"><title>Node13</title>
<polygon fill="none" stroke="#bfbfbf" points="928.949,-56.5 928.949,-75.5 973.949,-75.5 973.949,-56.5 928.949,-56.5"/>
<text text-anchor="middle" x="951.449" y="-63.5" font-family="Helvetica,sans-Serif" font-size="10.00">iosfwd</text>
</g>
<!-- Node10&#45;&gt;Node13 -->
<g id="edge22" class="edge"><title>Node10&#45;&gt;Node13</title>
<path fill="none" stroke="midnightblue" d="M748.378,-112.44C790.292,-104.412 854.151,-91.6424 918.814,-76.0165"/>
<polygon fill="midnightblue" stroke="midnightblue" points="919.889,-79.3569 928.775,-73.5878 918.231,-72.5561 919.889,-79.3569"/>
</g>
<!-- Node14 -->
<g id="node14" class="node"><title>Node14</title>
<polygon fill="none" stroke="#bfbfbf" points="566.449,-56.5 566.449,-75.5 618.449,-75.5 618.449,-56.5 566.449,-56.5"/>
<text text-anchor="middle" x="592.449" y="-63.5" font-family="Helvetica,sans-Serif" font-size="10.00">memory</text>
</g>
<!-- Node10&#45;&gt;Node14 -->
<g id="edge23" class="edge"><title>Node10&#45;&gt;Node14</title>
<path fill="none" stroke="midnightblue" d="M684.776,-112.324C667.055,-103.625 639.546,-90.1202 619.161,-80.113"/>
<polygon fill="midnightblue" stroke="midnightblue" points="620.598,-76.9195 610.079,-75.6545 617.513,-83.2031 620.598,-76.9195"/>
</g>
<!-- Node15 -->
<g id="node15" class="node"><title>Node15</title>
<polygon fill="none" stroke="#bfbfbf" points="636.949,-56.5 636.949,-75.5 695.949,-75.5 695.949,-56.5 636.949,-56.5"/>
<text text-anchor="middle" x="666.449" y="-63.5" font-family="Helvetica,sans-Serif" font-size="10.00">stdexcept</text>
</g>
<!-- Node10&#45;&gt;Node15 -->
<g id="edge24" class="edge"><title>Node10&#45;&gt;Node15</title>
<path fill="none" stroke="midnightblue" d="M696.505,-112.083C691.472,-104.534 684.113,-93.4948 677.936,-84.2298"/>
<polygon fill="midnightblue" stroke="midnightblue" points="680.743,-82.1301 672.284,-75.7511 674.918,-86.0131 680.743,-82.1301"/>
</g>
<!-- Node16 -->
<g id="node16" class="node"><title>Node16</title>
<polygon fill="none" stroke="#bfbfbf" points="713.949,-56.5 713.949,-75.5 764.949,-75.5 764.949,-56.5 713.949,-56.5"/>
<text text-anchor="middle" x="739.449" y="-63.5" font-family="Helvetica,sans-Serif" font-size="10.00">typeinfo</text>
</g>
<!-- Node10&#45;&gt;Node16 -->
<g id="edge25" class="edge"><title>Node10&#45;&gt;Node16</title>
<path fill="none" stroke="midnightblue" d="M708.559,-112.083C713.732,-104.534 721.296,-93.4948 727.644,-84.2298"/>
<polygon fill="midnightblue" stroke="midnightblue" points="730.688,-85.9787 733.453,-75.7511 724.914,-82.0221 730.688,-85.9787"/>
</g>
</g>
</svg>
        <g id="navigator" transform="translate(0 0)" fill="#404254">
                <rect fill="#f2f5e9" fill-opacity="0.5" stroke="#606060" stroke-width=".5" x="0" y="0" width="60" height="60"/>
                <use id="zoomplus" xlink:href="#zoomPlus" x="17" y="9" onmousedown="handleZoom(evt,'in')"/>
                <use id="zoomminus" xlink:href="#zoomMin" x="42" y="9" onmousedown="handleZoom(evt,'out')"/>
                <use id="reset" xlink:href="#resetDef" x="30" y="36" onmousedown="handleReset()"/>
                <g id="arrowUp" xlink:href="#dirArrow" transform="translate(30 24)" onmousedown="handlePan(0,-1)">
                  <use xlink:href="#rim" fill="#404040">
                        <set attributeName="fill" to="#808080" begin="arrowUp.mouseover" end="arrowUp.mouseout"/>
                  </use>
                  <path fill="none" stroke="white" stroke-width="1.5" d="M0,-3.0v7 M-2.5,-0.5L0,-3.0L2.5,-0.5"/>
                </g>
                <g id="arrowRight" xlink:href="#dirArrow" transform="rotate(90) translate(36 -43)" onmousedown="handlePan(1,0)">
                  <use xlink:href="#rim" fill="#404040">
                        <set attributeName="fill" to="#808080" begin="arrowRight.mouseover" end="arrowRight.mouseout"/>
                  </use>
                  <path fill="none" stroke="white" stroke-width="1.5" d="M0,-3.0v7 M-2.5,-0.5L0,-3.0L2.5,-0.5"/>
                </g>
                <g id="arrowDown" xlink:href="#dirArrow" transform="rotate(180) translate(-30 -48)" onmousedown="handlePan(0,1)">
                  <use xlink:href="#rim" fill="#404040">
                        <set attributeName="fill" to="#808080" begin="arrowDown.mouseover" end="arrowDown.mouseout"/>
                  </use>
                  <path fill="none" stroke="white" stroke-width="1.5" d="M0,-3.0v7 M-2.5,-0.5L0,-3.0L2.5,-0.5"/>
                </g>
                <g id="arrowLeft" xlink:href="#dirArrow" transform="rotate(270) translate(-36 17)" onmousedown="handlePan(-1,0)">
                  <use xlink:href="#rim" fill="#404040">
                        <set attributeName="fill" to="#808080" begin="arrowLeft.mouseover" end="arrowLeft.mouseout"/>
                  </use>
                  <path fill="none" stroke="white" stroke-width="1.5" d="M0,-3.0v7 M-2.5,-0.5L0,-3.0L2.5,-0.5"/>
                </g>
        </g>
        <svg viewBox="0 0 15 15" width="100%" height="30px" preserveAspectRatio="xMaxYMin meet">
         <g id="arrow_out" transform="scale(0.3 0.3)">
          <a xlink:href="Condition_8h__incl_org.svg" target="_base">
           <rect id="button" ry="5" rx="5" y="6" x="6" height="38" width="38"
                fill="#f2f5e9" fill-opacity="0.5" stroke="#606060" stroke-width="1.0"/>
           <path id="arrow"
             d="M 11.500037,31.436501 C 11.940474,20.09759 22.043105,11.32322 32.158766,21.979434 L 37.068811,17.246167 C 37.068811,17.246167 37.088388,32 37.088388,32 L 22.160133,31.978069 C 22.160133,31.978069 26.997745,27.140456 26.997745,27.140456 C 18.528582,18.264221 13.291696,25.230495 11.500037,31.436501 z"
             style="fill:#404040;"/>
          </a>
         </g>
        </svg>
</svg>
