<?xml version="1.0" encoding="UTF-8" standalone="no"?>
<!DOCTYPE svg PUBLIC "-//W3C//DTD SVG 1.1//EN"
 "http://www.w3.org/Graphics/SVG/1.1/DTD/svg11.dtd">
<!-- Generated by graphviz version 2.36.0 (20140111.2315)
 -->
<!-- Title: /home/travis/build/AliceO2Group/AliceO2/Detectors/HMPID/simulation/include/HMPIDSimulation/HMPIDDigitizer.h Pages: 1 -->
<!--zoomable 458 -->
<svg id="main" version="1.1" xmlns="http://www.w3.org/2000/svg" xmlns:xlink="http://www.w3.org/1999/xlink" xml:space="preserve" onload="init(evt)">
<style type="text/css"><![CDATA[
.edge:hover path { stroke: red; }
.edge:hover polygon { stroke: red; fill: red; }
]]></style>
<script type="text/javascript"><![CDATA[
var edges = document.getElementsByTagName('g');
if (edges && edges.length) {
  for (var i=0;i<edges.length;i++) {
    if (edges[i].id.substr(0,4)=='edge') {
      edges[i].setAttribute('class','edge');
    }
  }
}
]]></script>
        <defs>
                <circle id="rim" cx="0" cy="0" r="7"/>
                <circle id="rim2" cx="0" cy="0" r="3.5"/>
                <g id="zoomPlus">
                        <use xlink:href="#rim" fill="#404040">
                                <set attributeName="fill" to="#808080" begin="zoomplus.mouseover" end="zoomplus.mouseout"/>
                        </use>
                        <path d="M-4,0h8M0,-4v8" fill="none" stroke="white" stroke-width="1.5" pointer-events="none"/>
                </g>
                <g id="zoomMin">
                        <use xlink:href="#rim" fill="#404040">
                                <set attributeName="fill" to="#808080" begin="zoomminus.mouseover" end="zoomminus.mouseout"/>
                        </use>
                        <path d="M-4,0h8" fill="none" stroke="white" stroke-width="1.5" pointer-events="none"/>
                </g>
                <g id="dirArrow">
                        <path fill="none" stroke="white" stroke-width="1.5" d="M0,-3.0v7 M-2.5,-0.5L0,-3.0L2.5,-0.5"/>
                </g>
               <g id="resetDef">
                       <use xlink:href="#rim2" fill="#404040">
                               <set attributeName="fill" to="#808080" begin="reset.mouseover" end="reset.mouseout"/>
                       </use>
               </g>
        </defs>

<script type="text/javascript">
var viewWidth = 2588;
var viewHeight = 458;
var sectionId = 'dynsection-0';
</script>
<script xlink:href="../../svgpan.js"/>
<svg id="graph" class="graph">
<g id="viewport">
<title>/home/travis/build/AliceO2Group/AliceO2/Detectors/HMPID/simulation/include/HMPIDSimulation/HMPIDDigitizer.h</title>
<!-- Node1 -->
<g id="node1" class="node"><title>Node1</title>
<polygon fill="#bfbfbf" stroke="black" points="1253,-397 1253,-449 1465,-449 1465,-397 1253,-397"/>
<text text-anchor="start" x="1261" y="-437" font-family="Helvetica,sans-Serif" font-size="10.00">/home/travis/build</text>
<text text-anchor="start" x="1261" y="-426" font-family="Helvetica,sans-Serif" font-size="10.00">/AliceO2Group/AliceO2</text>
<text text-anchor="start" x="1261" y="-415" font-family="Helvetica,sans-Serif" font-size="10.00">/Detectors/HMPID/simulation</text>
<text text-anchor="middle" x="1359" y="-404" font-family="Helvetica,sans-Serif" font-size="10.00">/include/HMPIDSimulation/HMPIDDigitizer.h</text>
</g>
<!-- Node2 -->
<g id="node2" class="node"><title>Node2</title>
<g id="a_node2"><a xlink:href="../../d7/d09/HMPID_2base_2include_2HMPIDBase_2Digit_8h.html" target="_top" xlink:title="HMPIDBase/Digit.h">
<polygon fill="none" stroke="black" points="787,-334.5 787,-353.5 891,-353.5 891,-334.5 787,-334.5"/>
<text text-anchor="middle" x="839" y="-341.5" font-family="Helvetica,sans-Serif" font-size="10.00">HMPIDBase/Digit.h</text>
</a>
</g>
</g>
<!-- Node1&#45;&gt;Node2 -->
<g id="edge1" class="edge"><title>Node1&#45;&gt;Node2</title>
<path fill="none" stroke="midnightblue" d="M1252.83,-406.279C1146.97,-390.603 987.972,-367.059 901.106,-354.197"/>
<polygon fill="midnightblue" stroke="midnightblue" points="901.54,-350.723 891.135,-352.72 900.515,-357.647 901.54,-350.723"/>
</g>
<!-- Node31 -->
<g id="node31" class="node"><title>Node31</title>
<g id="a_node31"><a xlink:href="../../df/d79/HMPID_2simulation_2include_2HMPIDSimulation_2Detector_8h.html" target="_top" xlink:title="HMPIDSimulation/Detector.h">
<polygon fill="none" stroke="black" points="1387,-334.5 1387,-353.5 1531,-353.5 1531,-334.5 1387,-334.5"/>
<text text-anchor="middle" x="1459" y="-341.5" font-family="Helvetica,sans-Serif" font-size="10.00">HMPIDSimulation/Detector.h</text>
</a>
</g>
</g>
<!-- Node1&#45;&gt;Node31 -->
<g id="edge32" class="edge"><title>Node1&#45;&gt;Node31</title>
<path fill="none" stroke="midnightblue" d="M1391.74,-396.787C1407.63,-384.554 1426.17,-370.282 1439.75,-359.821"/>
<polygon fill="midnightblue" stroke="midnightblue" points="1442.1,-362.432 1447.89,-353.558 1437.83,-356.886 1442.1,-362.432"/>
</g>
<!-- Node32 -->
<g id="node32" class="node"><title>Node32</title>
<polygon fill="none" stroke="#bfbfbf" points="1437,-198.5 1437,-217.5 1481,-217.5 1481,-198.5 1437,-198.5"/>
<text text-anchor="middle" x="1459" y="-205.5" font-family="Helvetica,sans-Serif" font-size="10.00">vector</text>
</g>
<!-- Node1&#45;&gt;Node32 -->
<g id="edge66" class="edge"><title>Node1&#45;&gt;Node32</title>
<path fill="none" stroke="midnightblue" d="M1361.33,-396.857C1363.78,-377.451 1368.63,-350.25 1378,-328 1394.95,-287.739 1426.52,-246.979 1444.84,-225.171"/>
<polygon fill="midnightblue" stroke="midnightblue" points="1447.53,-227.409 1451.37,-217.534 1442.21,-222.86 1447.53,-227.409"/>
</g>
<!-- Node48 -->
<g id="node48" class="node"><title>Node48</title>
<g id="a_node48"><a xlink:href="../../db/d14/MCTruthContainer_8h.html" target="_top" xlink:title="Definition of a container to keep Monte Carlo truth external to simulation objects. ">
<polygon fill="none" stroke="black" points="959,-261 959,-291 1073,-291 1073,-261 959,-261"/>
<text text-anchor="start" x="967" y="-279" font-family="Helvetica,sans-Serif" font-size="10.00">SimulationDataFormat</text>
<text text-anchor="middle" x="1016" y="-268" font-family="Helvetica,sans-Serif" font-size="10.00">/MCTruthContainer.h</text>
</a>
</g>
</g>
<!-- Node1&#45;&gt;Node48 -->
<g id="edge58" class="edge"><title>Node1&#45;&gt;Node48</title>
<path fill="none" stroke="midnightblue" d="M1299.65,-396.908C1230.85,-367.825 1119.18,-320.616 1058.51,-294.97"/>
<polygon fill="midnightblue" stroke="midnightblue" points="1059.8,-291.715 1049.22,-291.045 1057.07,-298.162 1059.8,-291.715"/>
</g>
<!-- Node51 -->
<g id="node51" class="node"><title>Node51</title>
<g id="a_node51"><a xlink:href="../../d7/dcd/MCCompLabel_8h.html" target="_top" xlink:title="SimulationDataFormat\l/MCCompLabel.h">
<polygon fill="none" stroke="black" points="1729,-329 1729,-359 1843,-359 1843,-329 1729,-329"/>
<text text-anchor="start" x="1737" y="-347" font-family="Helvetica,sans-Serif" font-size="10.00">SimulationDataFormat</text>
<text text-anchor="middle" x="1786" y="-336" font-family="Helvetica,sans-Serif" font-size="10.00">/MCCompLabel.h</text>
</a>
</g>
</g>
<!-- Node1&#45;&gt;Node51 -->
<g id="edge64" class="edge"><title>Node1&#45;&gt;Node51</title>
<path fill="none" stroke="midnightblue" d="M1465.1,-402.867C1544.51,-388.548 1650.72,-369.395 1718.76,-357.125"/>
<polygon fill="midnightblue" stroke="midnightblue" points="1719.71,-360.51 1728.93,-355.291 1718.47,-353.622 1719.71,-360.51"/>
</g>
<!-- Node3 -->
<g id="node3" class="node"><title>Node3</title>
<g id="a_node3"><a xlink:href="../../df/d5d/common_2include_2CommonDataFormat_2TimeStamp_8h.html" target="_top" xlink:title="CommonDataFormat/TimeStamp.h">
<polygon fill="none" stroke="black" points="754,-266.5 754,-285.5 924,-285.5 924,-266.5 754,-266.5"/>
<text text-anchor="middle" x="839" y="-273.5" font-family="Helvetica,sans-Serif" font-size="10.00">CommonDataFormat/TimeStamp.h</text>
</a>
</g>
</g>
<!-- Node2&#45;&gt;Node3 -->
<g id="edge2" class="edge"><title>Node2&#45;&gt;Node3</title>
<path fill="none" stroke="midnightblue" d="M839,-334.372C839,-324.643 839,-308.528 839,-295.85"/>
<polygon fill="midnightblue" stroke="midnightblue" points="842.5,-295.841 839,-285.841 835.5,-295.841 842.5,-295.841"/>
</g>
<!-- Node5 -->
<g id="node5" class="node"><title>Node5</title>
<g id="a_node5"><a xlink:href="../../d9/dc6/HMPID_2base_2include_2HMPIDBase_2Hit_8h.html" target="_top" xlink:title="HMPIDBase/Hit.h">
<polygon fill="none" stroke="black" points="1163,-266.5 1163,-285.5 1259,-285.5 1259,-266.5 1163,-266.5"/>
<text text-anchor="middle" x="1211" y="-273.5" font-family="Helvetica,sans-Serif" font-size="10.00">HMPIDBase/Hit.h</text>
</a>
</g>
</g>
<!-- Node2&#45;&gt;Node5 -->
<g id="edge4" class="edge"><title>Node2&#45;&gt;Node5</title>
<path fill="none" stroke="midnightblue" d="M887.251,-334.439C955.408,-322.347 1079.7,-300.294 1152.86,-287.315"/>
<polygon fill="midnightblue" stroke="midnightblue" points="1153.6,-290.739 1162.83,-285.546 1152.38,-283.846 1153.6,-290.739"/>
</g>
<!-- Node25 -->
<g id="node25" class="node"><title>Node25</title>
<g id="a_node25"><a xlink:href="../../db/de4/HMPID_2base_2include_2HMPIDBase_2Param_8h.html" target="_top" xlink:title="HMPIDBase/Param.h">
<polygon fill="none" stroke="black" points="586,-266.5 586,-285.5 698,-285.5 698,-266.5 586,-266.5"/>
<text text-anchor="middle" x="642" y="-273.5" font-family="Helvetica,sans-Serif" font-size="10.00">HMPIDBase/Param.h</text>
</a>
</g>
</g>
<!-- Node2&#45;&gt;Node25 -->
<g id="edge25" class="edge"><title>Node2&#45;&gt;Node25</title>
<path fill="none" stroke="midnightblue" d="M813.246,-334.372C778.418,-322.704 716.176,-301.851 677.095,-288.758"/>
<polygon fill="midnightblue" stroke="midnightblue" points="678.042,-285.384 667.448,-285.526 675.819,-292.021 678.042,-285.384"/>
</g>
<!-- Node27 -->
<g id="node27" class="node"><title>Node27</title>
<polygon fill="none" stroke="#bfbfbf" points="692.5,-198.5 692.5,-217.5 745.5,-217.5 745.5,-198.5 692.5,-198.5"/>
<text text-anchor="middle" x="719" y="-205.5" font-family="Helvetica,sans-Serif" font-size="10.00">TMath.h</text>
</g>
<!-- Node2&#45;&gt;Node27 -->
<g id="edge31" class="edge"><title>Node2&#45;&gt;Node27</title>
<path fill="none" stroke="midnightblue" d="M811.39,-334.436C790.378,-326.575 762.226,-312.93 745,-292 729.743,-273.462 723.408,-245.934 720.798,-227.734"/>
<polygon fill="midnightblue" stroke="midnightblue" points="724.27,-227.286 719.608,-217.771 717.319,-228.116 724.27,-227.286"/>
</g>
<!-- Node4 -->
<g id="node4" class="node"><title>Node4</title>
<polygon fill="none" stroke="#bfbfbf" points="1331,-74.5 1331,-93.5 1387,-93.5 1387,-74.5 1331,-74.5"/>
<text text-anchor="middle" x="1359" y="-81.5" font-family="Helvetica,sans-Serif" font-size="10.00">Rtypes.h</text>
</g>
<!-- Node3&#45;&gt;Node4 -->
<g id="edge3" class="edge"><title>Node3&#45;&gt;Node4</title>
<path fill="none" stroke="midnightblue" d="M827.726,-266.351C808.41,-250.506 772.922,-216.229 793,-192 827.101,-150.848 1198.92,-103.813 1320.66,-89.4151"/>
<polygon fill="midnightblue" stroke="midnightblue" points="1321.13,-92.884 1330.65,-88.2403 1320.31,-85.9319 1321.13,-92.884"/>
</g>
<!-- Node6 -->
<g id="node6" class="node"><title>Node6</title>
<g id="a_node6"><a xlink:href="../../d4/d25/BaseHits_8h.html" target="_top" xlink:title="SimulationDataFormat\l/BaseHits.h">
<polygon fill="none" stroke="black" points="1061,-193 1061,-223 1175,-223 1175,-193 1061,-193"/>
<text text-anchor="start" x="1069" y="-211" font-family="Helvetica,sans-Serif" font-size="10.00">SimulationDataFormat</text>
<text text-anchor="middle" x="1118" y="-200" font-family="Helvetica,sans-Serif" font-size="10.00">/BaseHits.h</text>
</a>
</g>
</g>
<!-- Node5&#45;&gt;Node6 -->
<g id="edge5" class="edge"><title>Node5&#45;&gt;Node6</title>
<path fill="none" stroke="midnightblue" d="M1198.84,-266.372C1185.56,-256.943 1163.82,-241.517 1146.23,-229.034"/>
<polygon fill="midnightblue" stroke="midnightblue" points="1148.16,-226.115 1137.98,-223.181 1144.11,-231.823 1148.16,-226.115"/>
</g>
<!-- Node18 -->
<g id="node18" class="node"><title>Node18</title>
<g id="a_node18"><a xlink:href="../../d0/d91/ShmAllocator_8h.html" target="_top" xlink:title="CommonUtils/ShmAllocator.h">
<polygon fill="none" stroke="black" points="1273,-198.5 1273,-217.5 1419,-217.5 1419,-198.5 1273,-198.5"/>
<text text-anchor="middle" x="1346" y="-205.5" font-family="Helvetica,sans-Serif" font-size="10.00">CommonUtils/ShmAllocator.h</text>
</a>
</g>
</g>
<!-- Node5&#45;&gt;Node18 -->
<g id="edge18" class="edge"><title>Node5&#45;&gt;Node18</title>
<path fill="none" stroke="midnightblue" d="M1228.65,-266.372C1251.69,-255.106 1292.25,-235.279 1319.12,-222.14"/>
<polygon fill="midnightblue" stroke="midnightblue" points="1320.9,-225.167 1328.35,-217.63 1317.83,-218.878 1320.9,-225.167"/>
</g>
<!-- Node7 -->
<g id="node7" class="node"><title>Node7</title>
<g id="a_node7"><a xlink:href="../../dd/d76/Cartesian3D_8h.html" target="_top" xlink:title="MathUtils/Cartesian3D.h">
<polygon fill="none" stroke="black" points="620.5,-136.5 620.5,-155.5 745.5,-155.5 745.5,-136.5 620.5,-136.5"/>
<text text-anchor="middle" x="683" y="-143.5" font-family="Helvetica,sans-Serif" font-size="10.00">MathUtils/Cartesian3D.h</text>
</a>
</g>
</g>
<!-- Node6&#45;&gt;Node7 -->
<g id="edge6" class="edge"><title>Node6&#45;&gt;Node7</title>
<path fill="none" stroke="midnightblue" d="M1060.79,-198.76C1045.29,-196.545 1028.5,-194.164 1013,-192 924.486,-179.643 822.558,-165.803 755.681,-156.776"/>
<polygon fill="midnightblue" stroke="midnightblue" points="756.044,-153.293 745.666,-155.424 755.108,-160.23 756.044,-153.293"/>
</g>
<!-- Node7&#45;&gt;Node4 -->
<g id="edge12" class="edge"><title>Node7&#45;&gt;Node4</title>
<path fill="none" stroke="midnightblue" d="M745.597,-137.517C750.469,-136.985 755.313,-136.473 760,-136 869.76,-124.916 1206.71,-97.36 1320.79,-88.0952"/>
<polygon fill="midnightblue" stroke="midnightblue" points="1321.12,-91.5796 1330.81,-87.282 1320.56,-84.6026 1321.12,-91.5796"/>
</g>
<!-- Node8 -->
<g id="node8" class="node"><title>Node8</title>
<polygon fill="none" stroke="#bfbfbf" points="1013.5,-69 1013.5,-99 1164.5,-99 1164.5,-69 1013.5,-69"/>
<text text-anchor="start" x="1021.5" y="-87" font-family="Helvetica,sans-Serif" font-size="10.00">Math/GenVector/Displacement</text>
<text text-anchor="middle" x="1089" y="-76" font-family="Helvetica,sans-Serif" font-size="10.00">Vector3D.h</text>
</g>
<!-- Node7&#45;&gt;Node8 -->
<g id="edge7" class="edge"><title>Node7&#45;&gt;Node8</title>
<path fill="none" stroke="midnightblue" d="M745.535,-136.9C808.148,-128.638 907.506,-115.121 1003.59,-100.03"/>
<polygon fill="midnightblue" stroke="midnightblue" points="1004.15,-103.486 1013.48,-98.4701 1003.06,-96.5717 1004.15,-103.486"/>
</g>
<!-- Node9 -->
<g id="node9" class="node"><title>Node9</title>
<polygon fill="none" stroke="#bfbfbf" points="0,-74.5 0,-93.5 176,-93.5 176,-74.5 0,-74.5"/>
<text text-anchor="middle" x="88" y="-81.5" font-family="Helvetica,sans-Serif" font-size="10.00">Math/GenVector/PositionVector3D.h</text>
</g>
<!-- Node7&#45;&gt;Node9 -->
<g id="edge8" class="edge"><title>Node7&#45;&gt;Node9</title>
<path fill="none" stroke="midnightblue" d="M620.235,-140.657C525.516,-133.805 340.477,-119.26 184,-100 172.605,-98.5974 160.483,-96.8804 148.826,-95.1152"/>
<polygon fill="midnightblue" stroke="midnightblue" points="149.149,-91.6236 138.732,-93.5582 148.082,-98.5418 149.149,-91.6236"/>
</g>
<!-- Node10 -->
<g id="node10" class="node"><title>Node10</title>
<polygon fill="none" stroke="#bfbfbf" points="193.5,-74.5 193.5,-93.5 342.5,-93.5 342.5,-74.5 193.5,-74.5"/>
<text text-anchor="middle" x="268" y="-81.5" font-family="Helvetica,sans-Serif" font-size="10.00">Math/GenVector/Rotation3D.h</text>
</g>
<!-- Node7&#45;&gt;Node10 -->
<g id="edge9" class="edge"><title>Node7&#45;&gt;Node10</title>
<path fill="none" stroke="midnightblue" d="M620.355,-137.272C553.707,-128.865 445.24,-114.657 352,-100 342.865,-98.564 333.191,-96.9365 323.783,-95.2962"/>
<polygon fill="midnightblue" stroke="midnightblue" points="324.174,-91.8112 313.717,-93.5198 322.957,-98.7047 324.174,-91.8112"/>
</g>
<!-- Node11 -->
<g id="node11" class="node"><title>Node11</title>
<polygon fill="none" stroke="#bfbfbf" points="361,-74.5 361,-93.5 517,-93.5 517,-74.5 361,-74.5"/>
<text text-anchor="middle" x="439" y="-81.5" font-family="Helvetica,sans-Serif" font-size="10.00">Math/GenVector/Transform3D.h</text>
</g>
<!-- Node7&#45;&gt;Node11 -->
<g id="edge10" class="edge"><title>Node7&#45;&gt;Node11</title>
<path fill="none" stroke="midnightblue" d="M648.3,-136.467C605.03,-125.827 530.994,-107.622 483.568,-95.9593"/>
<polygon fill="midnightblue" stroke="midnightblue" points="484.127,-92.4926 473.58,-93.5034 482.455,-99.2901 484.127,-92.4926"/>
</g>
<!-- Node12 -->
<g id="node12" class="node"><title>Node12</title>
<polygon fill="none" stroke="#bfbfbf" points="535,-74.5 535,-93.5 695,-93.5 695,-74.5 535,-74.5"/>
<text text-anchor="middle" x="615" y="-81.5" font-family="Helvetica,sans-Serif" font-size="10.00">Math/GenVector/Translation3D.h</text>
</g>
<!-- Node7&#45;&gt;Node12 -->
<g id="edge11" class="edge"><title>Node7&#45;&gt;Node12</title>
<path fill="none" stroke="midnightblue" d="M673.257,-136.403C662.653,-127.047 645.481,-111.895 632.521,-100.46"/>
<polygon fill="midnightblue" stroke="midnightblue" points="634.539,-97.5724 624.725,-93.5806 629.907,-102.821 634.539,-97.5724"/>
</g>
<!-- Node13 -->
<g id="node13" class="node"><title>Node13</title>
<polygon fill="none" stroke="#bfbfbf" points="713,-74.5 713,-93.5 789,-93.5 789,-74.5 713,-74.5"/>
<text text-anchor="middle" x="751" y="-81.5" font-family="Helvetica,sans-Serif" font-size="10.00">TGeoMatrix.h</text>
</g>
<!-- Node7&#45;&gt;Node13 -->
<g id="edge13" class="edge"><title>Node7&#45;&gt;Node13</title>
<path fill="none" stroke="midnightblue" d="M692.743,-136.403C703.347,-127.047 720.519,-111.895 733.479,-100.46"/>
<polygon fill="midnightblue" stroke="midnightblue" points="736.093,-102.821 741.275,-93.5806 731.461,-97.5724 736.093,-102.821"/>
</g>
<!-- Node14 -->
<g id="node14" class="node"><title>Node14</title>
<polygon fill="none" stroke="#bfbfbf" points="807.5,-74.5 807.5,-93.5 852.5,-93.5 852.5,-74.5 807.5,-74.5"/>
<text text-anchor="middle" x="830" y="-81.5" font-family="Helvetica,sans-Serif" font-size="10.00">iosfwd</text>
</g>
<!-- Node7&#45;&gt;Node14 -->
<g id="edge14" class="edge"><title>Node7&#45;&gt;Node14</title>
<path fill="none" stroke="midnightblue" d="M706.09,-136.473C729.439,-127.731 766.481,-113.537 798,-100 799.589,-99.3175 801.216,-98.6034 802.854,-97.8731"/>
<polygon fill="midnightblue" stroke="midnightblue" points="804.517,-100.961 812.153,-93.6172 801.604,-94.596 804.517,-100.961"/>
</g>
<!-- Node15 -->
<g id="node15" class="node"><title>Node15</title>
<g id="a_node15"><a xlink:href="../../d2/dd0/Cartesian2D_8h.html" target="_top" xlink:title="MathUtils/Cartesian2D.h">
<polygon fill="none" stroke="black" points="870.5,-74.5 870.5,-93.5 995.5,-93.5 995.5,-74.5 870.5,-74.5"/>
<text text-anchor="middle" x="933" y="-81.5" font-family="Helvetica,sans-Serif" font-size="10.00">MathUtils/Cartesian2D.h</text>
</a>
</g>
</g>
<!-- Node7&#45;&gt;Node15 -->
<g id="edge15" class="edge"><title>Node7&#45;&gt;Node15</title>
<path fill="none" stroke="midnightblue" d="M718.553,-136.467C762.98,-125.805 839.062,-107.545 887.642,-95.886"/>
<polygon fill="midnightblue" stroke="midnightblue" points="888.662,-99.2405 897.569,-93.5034 887.029,-92.4338 888.662,-99.2405"/>
</g>
<!-- Node16 -->
<g id="node16" class="node"><title>Node16</title>
<polygon fill="none" stroke="#bfbfbf" points="766.5,-1 766.5,-31 917.5,-31 917.5,-1 766.5,-1"/>
<text text-anchor="start" x="774.5" y="-19" font-family="Helvetica,sans-Serif" font-size="10.00">Math/GenVector/Displacement</text>
<text text-anchor="middle" x="842" y="-8" font-family="Helvetica,sans-Serif" font-size="10.00">Vector2D.h</text>
</g>
<!-- Node15&#45;&gt;Node16 -->
<g id="edge16" class="edge"><title>Node15&#45;&gt;Node16</title>
<path fill="none" stroke="midnightblue" d="M921.103,-74.3717C908.221,-65.0286 887.22,-49.7966 870.093,-37.375"/>
<polygon fill="midnightblue" stroke="midnightblue" points="871.703,-34.2194 861.553,-31.1815 867.593,-39.8859 871.703,-34.2194"/>
</g>
<!-- Node17 -->
<g id="node17" class="node"><title>Node17</title>
<polygon fill="none" stroke="#bfbfbf" points="936,-6.5 936,-25.5 1112,-25.5 1112,-6.5 936,-6.5"/>
<text text-anchor="middle" x="1024" y="-13.5" font-family="Helvetica,sans-Serif" font-size="10.00">Math/GenVector/PositionVector2D.h</text>
</g>
<!-- Node15&#45;&gt;Node17 -->
<g id="edge17" class="edge"><title>Node15&#45;&gt;Node17</title>
<path fill="none" stroke="midnightblue" d="M944.897,-74.3717C959.884,-63.5015 985.862,-44.6602 1003.94,-31.5474"/>
<polygon fill="midnightblue" stroke="midnightblue" points="1006.06,-34.3349 1012.1,-25.6305 1001.95,-28.6684 1006.06,-34.3349"/>
</g>
<!-- Node19 -->
<g id="node19" class="node"><title>Node19</title>
<g id="a_node19"><a xlink:href="../../de/d61/ShmManager_8h.html" target="_top" xlink:title="CommonUtils/ShmManager.h">
<polygon fill="none" stroke="black" points="1683,-136.5 1683,-155.5 1829,-155.5 1829,-136.5 1683,-136.5"/>
<text text-anchor="middle" x="1756" y="-143.5" font-family="Helvetica,sans-Serif" font-size="10.00">CommonUtils/ShmManager.h</text>
</a>
</g>
</g>
<!-- Node18&#45;&gt;Node19 -->
<g id="edge19" class="edge"><title>Node18&#45;&gt;Node19</title>
<path fill="none" stroke="midnightblue" d="M1390.62,-198.464C1402.73,-196.25 1415.85,-193.943 1428,-192 1513.03,-178.398 1610.86,-165.305 1677.4,-156.784"/>
<polygon fill="midnightblue" stroke="midnightblue" points="1677.92,-160.246 1687.39,-155.508 1677.03,-153.302 1677.92,-160.246"/>
</g>
<!-- Node24 -->
<g id="node24" class="node"><title>Node24</title>
<polygon fill="none" stroke="#bfbfbf" points="1321.5,-136.5 1321.5,-155.5 1370.5,-155.5 1370.5,-136.5 1321.5,-136.5"/>
<text text-anchor="middle" x="1346" y="-143.5" font-family="Helvetica,sans-Serif" font-size="10.00">cassert</text>
</g>
<!-- Node18&#45;&gt;Node24 -->
<g id="edge24" class="edge"><title>Node18&#45;&gt;Node24</title>
<path fill="none" stroke="midnightblue" d="M1346,-198.403C1346,-189.938 1346,-176.728 1346,-165.82"/>
<polygon fill="midnightblue" stroke="midnightblue" points="1349.5,-165.581 1346,-155.581 1342.5,-165.581 1349.5,-165.581"/>
</g>
<!-- Node20 -->
<g id="node20" class="node"><title>Node20</title>
<polygon fill="none" stroke="#bfbfbf" points="1787.5,-74.5 1787.5,-93.5 1816.5,-93.5 1816.5,-74.5 1787.5,-74.5"/>
<text text-anchor="middle" x="1802" y="-81.5" font-family="Helvetica,sans-Serif" font-size="10.00">list</text>
</g>
<!-- Node19&#45;&gt;Node20 -->
<g id="edge20" class="edge"><title>Node19&#45;&gt;Node20</title>
<path fill="none" stroke="midnightblue" d="M1762.59,-136.403C1769.49,-127.403 1780.5,-113.041 1789.13,-101.782"/>
<polygon fill="midnightblue" stroke="midnightblue" points="1792.11,-103.646 1795.42,-93.5806 1786.56,-99.3872 1792.11,-103.646"/>
</g>
<!-- Node21 -->
<g id="node21" class="node"><title>Node21</title>
<polygon fill="none" stroke="#bfbfbf" points="1834.5,-74.5 1834.5,-93.5 1883.5,-93.5 1883.5,-74.5 1834.5,-74.5"/>
<text text-anchor="middle" x="1859" y="-81.5" font-family="Helvetica,sans-Serif" font-size="10.00">cstddef</text>
</g>
<!-- Node19&#45;&gt;Node21 -->
<g id="edge21" class="edge"><title>Node19&#45;&gt;Node21</title>
<path fill="none" stroke="midnightblue" d="M1770.76,-136.403C1787.66,-126.557 1815.58,-110.291 1835.49,-98.6949"/>
<polygon fill="midnightblue" stroke="midnightblue" points="1837.39,-101.638 1844.27,-93.5806 1833.87,-95.5898 1837.39,-101.638"/>
</g>
<!-- Node22 -->
<g id="node22" class="node"><title>Node22</title>
<polygon fill="none" stroke="#bfbfbf" points="1484,-69 1484,-99 1632,-99 1632,-69 1484,-69"/>
<text text-anchor="start" x="1492" y="-87" font-family="Helvetica,sans-Serif" font-size="10.00">boost/interprocess</text>
<text text-anchor="middle" x="1558" y="-76" font-family="Helvetica,sans-Serif" font-size="10.00">/managed_external_buffer.hpp</text>
</g>
<!-- Node19&#45;&gt;Node22 -->
<g id="edge22" class="edge"><title>Node19&#45;&gt;Node22</title>
<path fill="none" stroke="midnightblue" d="M1727.63,-136.403C1698.09,-127.45 1651.03,-113.19 1613.96,-101.958"/>
<polygon fill="midnightblue" stroke="midnightblue" points="1614.87,-98.5759 1604.28,-99.0253 1612.84,-105.275 1614.87,-98.5759"/>
</g>
<!-- Node23 -->
<g id="node23" class="node"><title>Node23</title>
<polygon fill="none" stroke="#bfbfbf" points="1650,-69 1650,-99 1770,-99 1770,-69 1650,-69"/>
<text text-anchor="start" x="1658" y="-87" font-family="Helvetica,sans-Serif" font-size="10.00">boost/interprocess</text>
<text text-anchor="middle" x="1710" y="-76" font-family="Helvetica,sans-Serif" font-size="10.00">/allocators/allocator.hpp</text>
</g>
<!-- Node19&#45;&gt;Node23 -->
<g id="edge23" class="edge"><title>Node19&#45;&gt;Node23</title>
<path fill="none" stroke="midnightblue" d="M1749.41,-136.403C1743.59,-128.809 1734.84,-117.396 1727.06,-107.252"/>
<polygon fill="midnightblue" stroke="midnightblue" points="1729.7,-104.947 1720.84,-99.1408 1724.15,-109.206 1729.7,-104.947"/>
</g>
<!-- Node26 -->
<g id="node26" class="node"><title>Node26</title>
<polygon fill="none" stroke="#bfbfbf" points="443.5,-198.5 443.5,-217.5 486.5,-217.5 486.5,-198.5 443.5,-198.5"/>
<text text-anchor="middle" x="465" y="-205.5" font-family="Helvetica,sans-Serif" font-size="10.00">cstdio</text>
</g>
<!-- Node25&#45;&gt;Node26 -->
<g id="edge26" class="edge"><title>Node25&#45;&gt;Node26</title>
<path fill="none" stroke="midnightblue" d="M614.471,-266.427C584.854,-256.962 536.546,-240.826 496,-224 494.405,-223.338 492.776,-222.635 491.14,-221.908"/>
<polygon fill="midnightblue" stroke="midnightblue" points="492.439,-218.652 481.895,-217.608 489.487,-224.999 492.439,-218.652"/>
</g>
<!-- Node25&#45;&gt;Node27 -->
<g id="edge27" class="edge"><title>Node25&#45;&gt;Node27</title>
<path fill="none" stroke="midnightblue" d="M652.066,-266.372C664.449,-255.758 685.697,-237.545 700.934,-224.485"/>
<polygon fill="midnightblue" stroke="midnightblue" points="703.371,-227.006 708.685,-217.841 698.815,-221.692 703.371,-227.006"/>
</g>
<!-- Node28 -->
<g id="node28" class="node"><title>Node28</title>
<polygon fill="none" stroke="#bfbfbf" points="802,-198.5 802,-217.5 864,-217.5 864,-198.5 802,-198.5"/>
<text text-anchor="middle" x="833" y="-205.5" font-family="Helvetica,sans-Serif" font-size="10.00">TNamed.h</text>
</g>
<!-- Node25&#45;&gt;Node28 -->
<g id="edge28" class="edge"><title>Node25&#45;&gt;Node28</title>
<path fill="none" stroke="midnightblue" d="M666.97,-266.372C700.665,-254.728 760.827,-233.939 798.733,-220.841"/>
<polygon fill="midnightblue" stroke="midnightblue" points="800.018,-224.1 808.327,-217.526 797.732,-217.484 800.018,-224.1"/>
</g>
<!-- Node29 -->
<g id="node29" class="node"><title>Node29</title>
<polygon fill="none" stroke="#bfbfbf" points="505,-198.5 505,-217.5 591,-217.5 591,-198.5 505,-198.5"/>
<text text-anchor="middle" x="548" y="-205.5" font-family="Helvetica,sans-Serif" font-size="10.00">TGeoManager.h</text>
</g>
<!-- Node25&#45;&gt;Node29 -->
<g id="edge29" class="edge"><title>Node25&#45;&gt;Node29</title>
<path fill="none" stroke="midnightblue" d="M629.711,-266.372C614.229,-255.502 587.395,-236.66 568.719,-223.547"/>
<polygon fill="midnightblue" stroke="midnightblue" points="570.487,-220.512 560.292,-217.63 566.465,-226.241 570.487,-220.512"/>
</g>
<!-- Node30 -->
<g id="node30" class="node"><title>Node30</title>
<polygon fill="none" stroke="#bfbfbf" points="609.5,-198.5 609.5,-217.5 674.5,-217.5 674.5,-198.5 609.5,-198.5"/>
<text text-anchor="middle" x="642" y="-205.5" font-family="Helvetica,sans-Serif" font-size="10.00">TVector3.h</text>
</g>
<!-- Node25&#45;&gt;Node30 -->
<g id="edge30" class="edge"><title>Node25&#45;&gt;Node30</title>
<path fill="none" stroke="midnightblue" d="M642,-266.372C642,-256.643 642,-240.528 642,-227.85"/>
<polygon fill="midnightblue" stroke="midnightblue" points="645.5,-227.841 642,-217.841 638.5,-227.841 645.5,-227.841"/>
</g>
<!-- Node31&#45;&gt;Node5 -->
<g id="edge57" class="edge"><title>Node31&#45;&gt;Node5</title>
<path fill="none" stroke="midnightblue" d="M1426.83,-334.439C1382.32,-322.594 1301.9,-301.192 1252.79,-288.122"/>
<polygon fill="midnightblue" stroke="midnightblue" points="1253.67,-284.735 1243.11,-285.546 1251.87,-291.5 1253.67,-284.735"/>
</g>
<!-- Node31&#45;&gt;Node32 -->
<g id="edge33" class="edge"><title>Node31&#45;&gt;Node32</title>
<path fill="none" stroke="midnightblue" d="M1459,-334.208C1459,-312.722 1459,-257.167 1459,-227.814"/>
<polygon fill="midnightblue" stroke="midnightblue" points="1462.5,-227.65 1459,-217.65 1455.5,-227.65 1462.5,-227.65"/>
</g>
<!-- Node33 -->
<g id="node33" class="node"><title>Node33</title>
<g id="a_node33"><a xlink:href="../../d1/d3a/Base_2include_2DetectorsBase_2Detector_8h.html" target="_top" xlink:title="DetectorsBase/Detector.h">
<polygon fill="none" stroke="black" points="1787.5,-266.5 1787.5,-285.5 1918.5,-285.5 1918.5,-266.5 1787.5,-266.5"/>
<text text-anchor="middle" x="1853" y="-273.5" font-family="Helvetica,sans-Serif" font-size="10.00">DetectorsBase/Detector.h</text>
</a>
</g>
</g>
<!-- Node31&#45;&gt;Node33 -->
<g id="edge34" class="edge"><title>Node31&#45;&gt;Node33</title>
<path fill="none" stroke="midnightblue" d="M1510.1,-334.439C1582.44,-322.322 1714.48,-300.204 1791.9,-287.235"/>
<polygon fill="midnightblue" stroke="midnightblue" points="1792.7,-290.65 1801.99,-285.546 1791.55,-283.746 1792.7,-290.65"/>
</g>
<!-- Node33&#45;&gt;Node4 -->
<g id="edge46" class="edge"><title>Node33&#45;&gt;Node4</title>
<path fill="none" stroke="midnightblue" d="M1787.4,-272.339C1727.45,-267.856 1637.53,-255.883 1566,-224 1544.89,-214.589 1543.84,-205.386 1525,-192 1475.39,-156.759 1414.78,-118.953 1382.27,-99.0773"/>
<polygon fill="midnightblue" stroke="midnightblue" points="1383.86,-95.9488 1373.5,-93.7351 1380.22,-101.927 1383.86,-95.9488"/>
</g>
<!-- Node33&#45;&gt;Node18 -->
<g id="edge53" class="edge"><title>Node33&#45;&gt;Node18</title>
<path fill="none" stroke="midnightblue" d="M1787.3,-268.383C1703.65,-259.668 1554.75,-243.179 1428,-224 1418.86,-222.617 1409.17,-220.989 1399.78,-219.326"/>
<polygon fill="midnightblue" stroke="midnightblue" points="1400.21,-215.847 1389.75,-217.517 1398.97,-222.736 1400.21,-215.847"/>
</g>
<!-- Node33&#45;&gt;Node19 -->
<g id="edge52" class="edge"><title>Node33&#45;&gt;Node19</title>
<path fill="none" stroke="midnightblue" d="M1892.99,-266.427C1904.28,-264.163 1916.6,-261.841 1928,-260 2059.55,-238.767 2309.56,-290.665 2220,-192 2194.98,-164.431 1966.18,-153.245 1839.49,-149.134"/>
<polygon fill="midnightblue" stroke="midnightblue" points="1839.54,-145.633 1829.43,-148.815 1839.31,-152.63 1839.54,-145.633"/>
</g>
<!-- Node33&#45;&gt;Node24 -->
<g id="edge56" class="edge"><title>Node33&#45;&gt;Node24</title>
<path fill="none" stroke="midnightblue" d="M1787.44,-273.454C1721,-269.871 1616.39,-258.613 1533,-224 1510.67,-214.73 1510.59,-202.883 1489,-192 1453.86,-174.292 1410.36,-161.805 1380.62,-154.549"/>
<polygon fill="midnightblue" stroke="midnightblue" points="1381.25,-151.101 1370.71,-152.2 1379.64,-157.912 1381.25,-151.101"/>
</g>
<!-- Node33&#45;&gt;Node32 -->
<g id="edge36" class="edge"><title>Node33&#45;&gt;Node32</title>
<path fill="none" stroke="midnightblue" d="M1787.32,-270.652C1714.73,-264.698 1594.89,-251.445 1495,-224 1492.18,-223.226 1489.3,-222.288 1486.44,-221.262"/>
<polygon fill="midnightblue" stroke="midnightblue" points="1487.59,-217.952 1477,-217.549 1485.02,-224.466 1487.59,-217.952"/>
</g>
<!-- Node34 -->
<g id="node34" class="node"><title>Node34</title>
<polygon fill="none" stroke="#bfbfbf" points="2260.5,-136.5 2260.5,-155.5 2295.5,-155.5 2295.5,-136.5 2260.5,-136.5"/>
<text text-anchor="middle" x="2278" y="-143.5" font-family="Helvetica,sans-Serif" font-size="10.00">map</text>
</g>
<!-- Node33&#45;&gt;Node34 -->
<g id="edge35" class="edge"><title>Node33&#45;&gt;Node34</title>
<path fill="none" stroke="midnightblue" d="M1892.59,-266.436C1903.99,-264.146 1916.46,-261.809 1928,-260 1997.82,-249.06 2187.07,-265.879 2244,-224 2262.72,-210.232 2271.3,-183.863 2275.12,-165.857"/>
<polygon fill="midnightblue" stroke="midnightblue" points="2278.58,-166.379 2276.93,-155.914 2271.69,-165.126 2278.58,-166.379"/>
</g>
<!-- Node35 -->
<g id="node35" class="node"><title>Node35</title>
<polygon fill="none" stroke="#bfbfbf" points="2458.5,-136.5 2458.5,-155.5 2531.5,-155.5 2531.5,-136.5 2458.5,-136.5"/>
<text text-anchor="middle" x="2495" y="-143.5" font-family="Helvetica,sans-Serif" font-size="10.00">initializer_list</text>
</g>
<!-- Node33&#45;&gt;Node35 -->
<g id="edge37" class="edge"><title>Node33&#45;&gt;Node35</title>
<path fill="none" stroke="midnightblue" d="M1890.61,-266.466C1902.51,-264.038 1915.76,-261.616 1928,-260 1988.93,-251.955 2433.86,-264.61 2480,-224 2496.18,-209.76 2498.09,-183.702 2497.19,-165.878"/>
<polygon fill="midnightblue" stroke="midnightblue" points="2500.66,-165.463 2496.34,-155.792 2493.69,-166.05 2500.66,-165.463"/>
</g>
<!-- Node36 -->
<g id="node36" class="node"><title>Node36</title>
<polygon fill="none" stroke="#bfbfbf" points="2528,-198.5 2528,-217.5 2580,-217.5 2580,-198.5 2528,-198.5"/>
<text text-anchor="middle" x="2554" y="-205.5" font-family="Helvetica,sans-Serif" font-size="10.00">memory</text>
</g>
<!-- Node33&#45;&gt;Node36 -->
<g id="edge38" class="edge"><title>Node33&#45;&gt;Node36</title>
<path fill="none" stroke="midnightblue" d="M1890.6,-266.438C1902.51,-264.008 1915.75,-261.593 1928,-260 2186.75,-226.335 2258.8,-278.411 2514,-224 2517.7,-223.211 2521.51,-222.141 2525.25,-220.934"/>
<polygon fill="midnightblue" stroke="midnightblue" points="2526.58,-224.175 2534.82,-217.514 2524.22,-217.583 2526.58,-224.175"/>
</g>
<!-- Node37 -->
<g id="node37" class="node"><title>Node37</title>
<polygon fill="none" stroke="#bfbfbf" points="1575.5,-198.5 1575.5,-217.5 1654.5,-217.5 1654.5,-198.5 1575.5,-198.5"/>
<text text-anchor="middle" x="1615" y="-205.5" font-family="Helvetica,sans-Serif" font-size="10.00">FairDetector.h</text>
</g>
<!-- Node33&#45;&gt;Node37 -->
<g id="edge39" class="edge"><title>Node33&#45;&gt;Node37</title>
<path fill="none" stroke="midnightblue" d="M1820.13,-266.487C1782.35,-256.621 1718.54,-239.702 1664,-224 1660.17,-222.896 1656.17,-221.719 1652.19,-220.528"/>
<polygon fill="midnightblue" stroke="midnightblue" points="1653.01,-217.118 1642.42,-217.572 1650.98,-223.818 1653.01,-217.118"/>
</g>
<!-- Node38 -->
<g id="node38" class="node"><title>Node38</title>
<polygon fill="none" stroke="#bfbfbf" points="1673,-198.5 1673,-217.5 1773,-217.5 1773,-198.5 1673,-198.5"/>
<text text-anchor="middle" x="1723" y="-205.5" font-family="Helvetica,sans-Serif" font-size="10.00">FairRootManager.h</text>
</g>
<!-- Node33&#45;&gt;Node38 -->
<g id="edge40" class="edge"><title>Node33&#45;&gt;Node38</title>
<path fill="none" stroke="midnightblue" d="M1836,-266.372C1813.91,-255.156 1775.1,-235.453 1749.22,-222.314"/>
<polygon fill="midnightblue" stroke="midnightblue" points="1750.5,-219.037 1740,-217.63 1747.33,-225.278 1750.5,-219.037"/>
</g>
<!-- Node39 -->
<g id="node39" class="node"><title>Node39</title>
<g id="a_node39"><a xlink:href="../../d0/d9a/MaterialManager_8h.html" target="_top" xlink:title="DetectorsBase/MaterialManager.h">
<polygon fill="none" stroke="black" points="2306.5,-198.5 2306.5,-217.5 2471.5,-217.5 2471.5,-198.5 2306.5,-198.5"/>
<text text-anchor="middle" x="2389" y="-205.5" font-family="Helvetica,sans-Serif" font-size="10.00">DetectorsBase/MaterialManager.h</text>
</a>
</g>
</g>
<!-- Node33&#45;&gt;Node39 -->
<g id="edge41" class="edge"><title>Node33&#45;&gt;Node39</title>
<path fill="none" stroke="midnightblue" d="M1891.8,-266.481C1903.4,-264.139 1916.18,-261.762 1928,-260 2088.79,-236.03 2130.72,-244.43 2292,-224 2303.44,-222.551 2315.61,-220.819 2327.33,-219.057"/>
<polygon fill="midnightblue" stroke="midnightblue" points="2328.12,-222.476 2337.47,-217.505 2327.06,-215.557 2328.12,-222.476"/>
</g>
<!-- Node41 -->
<g id="node41" class="node"><title>Node41</title>
<polygon fill="none" stroke="#bfbfbf" points="1791.5,-198.5 1791.5,-217.5 1844.5,-217.5 1844.5,-198.5 1791.5,-198.5"/>
<text text-anchor="middle" x="1818" y="-205.5" font-family="Helvetica,sans-Serif" font-size="10.00">cxxabi.h</text>
</g>
<!-- Node33&#45;&gt;Node41 -->
<g id="edge47" class="edge"><title>Node33&#45;&gt;Node41</title>
<path fill="none" stroke="midnightblue" d="M1848.42,-266.372C1843.11,-256.348 1834.2,-239.546 1827.39,-226.708"/>
<polygon fill="midnightblue" stroke="midnightblue" points="1830.47,-225.036 1822.69,-217.841 1824.28,-228.316 1830.47,-225.036"/>
</g>
<!-- Node42 -->
<g id="node42" class="node"><title>Node42</title>
<polygon fill="none" stroke="#bfbfbf" points="1862.5,-198.5 1862.5,-217.5 1913.5,-217.5 1913.5,-198.5 1862.5,-198.5"/>
<text text-anchor="middle" x="1888" y="-205.5" font-family="Helvetica,sans-Serif" font-size="10.00">typeinfo</text>
</g>
<!-- Node33&#45;&gt;Node42 -->
<g id="edge48" class="edge"><title>Node33&#45;&gt;Node42</title>
<path fill="none" stroke="midnightblue" d="M1857.58,-266.372C1862.89,-256.348 1871.8,-239.546 1878.61,-226.708"/>
<polygon fill="midnightblue" stroke="midnightblue" points="1881.72,-228.316 1883.31,-217.841 1875.53,-225.036 1881.72,-228.316"/>
</g>
<!-- Node43 -->
<g id="node43" class="node"><title>Node43</title>
<polygon fill="none" stroke="#bfbfbf" points="1193,-198.5 1193,-217.5 1255,-217.5 1255,-198.5 1193,-198.5"/>
<text text-anchor="middle" x="1224" y="-205.5" font-family="Helvetica,sans-Serif" font-size="10.00">type_traits</text>
</g>
<!-- Node33&#45;&gt;Node43 -->
<g id="edge49" class="edge"><title>Node33&#45;&gt;Node43</title>
<path fill="none" stroke="midnightblue" d="M1787.18,-275.103C1677.37,-273.989 1450.45,-266.198 1264,-224 1260.49,-223.206 1256.88,-222.176 1253.33,-221.026"/>
<polygon fill="midnightblue" stroke="midnightblue" points="1254.21,-217.624 1243.61,-217.569 1251.86,-224.219 1254.21,-217.624"/>
</g>
<!-- Node44 -->
<g id="node44" class="node"><title>Node44</title>
<polygon fill="none" stroke="#bfbfbf" points="1931.5,-198.5 1931.5,-217.5 1972.5,-217.5 1972.5,-198.5 1931.5,-198.5"/>
<text text-anchor="middle" x="1952" y="-205.5" font-family="Helvetica,sans-Serif" font-size="10.00">string</text>
</g>
<!-- Node33&#45;&gt;Node44 -->
<g id="edge50" class="edge"><title>Node33&#45;&gt;Node44</title>
<path fill="none" stroke="midnightblue" d="M1865.94,-266.372C1882.4,-255.403 1911.02,-236.317 1930.71,-223.191"/>
<polygon fill="midnightblue" stroke="midnightblue" points="1932.68,-226.09 1939.05,-217.63 1928.79,-220.265 1932.68,-226.09"/>
</g>
<!-- Node45 -->
<g id="node45" class="node"><title>Node45</title>
<polygon fill="none" stroke="#bfbfbf" points="1990.5,-198.5 1990.5,-217.5 2061.5,-217.5 2061.5,-198.5 1990.5,-198.5"/>
<text text-anchor="middle" x="2026" y="-205.5" font-family="Helvetica,sans-Serif" font-size="10.00">TMessage.h</text>
</g>
<!-- Node33&#45;&gt;Node45 -->
<g id="edge51" class="edge"><title>Node33&#45;&gt;Node45</title>
<path fill="none" stroke="midnightblue" d="M1875.62,-266.372C1905.88,-254.827 1959.7,-234.293 1994.08,-221.177"/>
<polygon fill="midnightblue" stroke="midnightblue" points="1995.56,-224.36 2003.65,-217.526 1993.06,-217.82 1995.56,-224.36"/>
</g>
<!-- Node46 -->
<g id="node46" class="node"><title>Node46</title>
<polygon fill="none" stroke="#bfbfbf" points="2080,-198.5 2080,-217.5 2142,-217.5 2142,-198.5 2080,-198.5"/>
<text text-anchor="middle" x="2111" y="-205.5" font-family="Helvetica,sans-Serif" font-size="10.00">sys/shm.h</text>
</g>
<!-- Node33&#45;&gt;Node46 -->
<g id="edge54" class="edge"><title>Node33&#45;&gt;Node46</title>
<path fill="none" stroke="midnightblue" d="M1896.22,-266.438C1940.31,-257.333 2010.49,-241.808 2070,-224 2073.12,-223.066 2076.35,-222.022 2079.57,-220.932"/>
<polygon fill="midnightblue" stroke="midnightblue" points="2080.77,-224.218 2089.03,-217.587 2078.44,-217.618 2080.77,-224.218"/>
</g>
<!-- Node47 -->
<g id="node47" class="node"><title>Node47</title>
<polygon fill="none" stroke="#bfbfbf" points="2160.5,-198.5 2160.5,-217.5 2211.5,-217.5 2211.5,-198.5 2160.5,-198.5"/>
<text text-anchor="middle" x="2186" y="-205.5" font-family="Helvetica,sans-Serif" font-size="10.00">unistd.h</text>
</g>
<!-- Node33&#45;&gt;Node47 -->
<g id="edge55" class="edge"><title>Node33&#45;&gt;Node47</title>
<path fill="none" stroke="midnightblue" d="M1894.21,-266.476C1905.18,-264.285 1917.02,-261.987 1928,-260 2026.36,-242.196 2053.88,-251.41 2150,-224 2152.66,-223.243 2155.38,-222.346 2158.08,-221.374"/>
<polygon fill="midnightblue" stroke="midnightblue" points="2159.58,-224.545 2167.61,-217.634 2157.02,-218.028 2159.58,-224.545"/>
</g>
<!-- Node39&#45;&gt;Node4 -->
<g id="edge42" class="edge"><title>Node39&#45;&gt;Node4</title>
<path fill="none" stroke="midnightblue" d="M2382.17,-198.407C2369.02,-182.606 2338.42,-149.338 2304,-136 2218.03,-102.69 1566.86,-107.919 1475,-100 1448.98,-97.7565 1419.82,-93.9806 1397.25,-90.7786"/>
<polygon fill="midnightblue" stroke="midnightblue" points="1397.45,-87.2723 1387.06,-89.3088 1396.45,-94.2006 1397.45,-87.2723"/>
</g>
<!-- Node39&#45;&gt;Node34 -->
<g id="edge43" class="edge"><title>Node39&#45;&gt;Node34</title>
<path fill="none" stroke="midnightblue" d="M2373.1,-198.403C2354.72,-188.468 2324.24,-171.997 2302.76,-160.381"/>
<polygon fill="midnightblue" stroke="midnightblue" points="2304.34,-157.257 2293.87,-155.581 2301.01,-163.415 2304.34,-157.257"/>
</g>
<!-- Node39&#45;&gt;Node35 -->
<g id="edge45" class="edge"><title>Node39&#45;&gt;Node35</title>
<path fill="none" stroke="midnightblue" d="M2404.19,-198.403C2421.66,-188.512 2450.58,-172.144 2471.08,-160.538"/>
<polygon fill="midnightblue" stroke="midnightblue" points="2472.86,-163.553 2479.84,-155.581 2469.41,-157.461 2472.86,-163.553"/>
</g>
<!-- Node40 -->
<g id="node40" class="node"><title>Node40</title>
<polygon fill="none" stroke="#bfbfbf" points="2352.5,-136.5 2352.5,-155.5 2435.5,-155.5 2435.5,-136.5 2352.5,-136.5"/>
<text text-anchor="middle" x="2394" y="-143.5" font-family="Helvetica,sans-Serif" font-size="10.00">unordered_map</text>
</g>
<!-- Node39&#45;&gt;Node40 -->
<g id="edge44" class="edge"><title>Node39&#45;&gt;Node40</title>
<path fill="none" stroke="midnightblue" d="M2389.72,-198.403C2390.42,-189.938 2391.52,-176.728 2392.43,-165.82"/>
<polygon fill="midnightblue" stroke="midnightblue" points="2395.94,-165.837 2393.28,-155.581 2388.97,-165.255 2395.94,-165.837"/>
</g>
<!-- Node48&#45;&gt;Node24 -->
<g id="edge60" class="edge"><title>Node48&#45;&gt;Node24</title>
<path fill="none" stroke="midnightblue" d="M1017.94,-260.694C1021.3,-241.779 1030.11,-208.877 1052,-192 1091.89,-161.253 1241.68,-151.236 1310.74,-148.209"/>
<polygon fill="midnightblue" stroke="midnightblue" points="1311.25,-151.691 1321.1,-147.781 1310.96,-144.697 1311.25,-151.691"/>
</g>
<!-- Node48&#45;&gt;Node28 -->
<g id="edge59" class="edge"><title>Node48&#45;&gt;Node28</title>
<path fill="none" stroke="midnightblue" d="M976.179,-260.992C947.456,-250.841 907.779,-236.722 873,-224 870.475,-223.076 867.863,-222.114 865.24,-221.141"/>
<polygon fill="midnightblue" stroke="midnightblue" points="866.414,-217.844 855.821,-217.631 863.969,-224.403 866.414,-217.844"/>
</g>
<!-- Node48&#45;&gt;Node43 -->
<g id="edge63" class="edge"><title>Node48&#45;&gt;Node43</title>
<path fill="none" stroke="midnightblue" d="M1065.15,-260.981C1098.79,-251.167 1144.31,-237.452 1184,-224 1186.77,-223.063 1189.63,-222.059 1192.49,-221.031"/>
<polygon fill="midnightblue" stroke="midnightblue" points="1193.9,-224.24 1202.08,-217.507 1191.49,-217.669 1193.9,-224.24"/>
</g>
<!-- Node49 -->
<g id="node49" class="node"><title>Node49</title>
<polygon fill="none" stroke="#bfbfbf" points="882.5,-198.5 882.5,-217.5 941.5,-217.5 941.5,-198.5 882.5,-198.5"/>
<text text-anchor="middle" x="912" y="-205.5" font-family="Helvetica,sans-Serif" font-size="10.00">stdexcept</text>
</g>
<!-- Node48&#45;&gt;Node49 -->
<g id="edge61" class="edge"><title>Node48&#45;&gt;Node49</title>
<path fill="none" stroke="midnightblue" d="M993.689,-260.841C976.104,-249.681 951.705,-234.198 934.159,-223.063"/>
<polygon fill="midnightblue" stroke="midnightblue" points="935.999,-220.085 925.681,-217.682 932.248,-225.995 935.999,-220.085"/>
</g>
<!-- Node50 -->
<g id="node50" class="node"><title>Node50</title>
<polygon fill="none" stroke="#bfbfbf" points="959.5,-198.5 959.5,-217.5 1004.5,-217.5 1004.5,-198.5 959.5,-198.5"/>
<text text-anchor="middle" x="982" y="-205.5" font-family="Helvetica,sans-Serif" font-size="10.00">gsl/gsl</text>
</g>
<!-- Node48&#45;&gt;Node50 -->
<g id="edge62" class="edge"><title>Node48&#45;&gt;Node50</title>
<path fill="none" stroke="midnightblue" d="M1008.62,-260.679C1003.53,-250.796 996.723,-237.579 991.266,-226.986"/>
<polygon fill="midnightblue" stroke="midnightblue" points="994.239,-225.115 986.548,-217.828 988.016,-228.321 994.239,-225.115"/>
</g>
<!-- Node52 -->
<g id="node52" class="node"><title>Node52</title>
<polygon fill="none" stroke="#bfbfbf" points="1937,-266.5 1937,-285.5 2065,-285.5 2065,-266.5 1937,-266.5"/>
<text text-anchor="middle" x="2001" y="-273.5" font-family="Helvetica,sans-Serif" font-size="10.00">AliTPCCommonRtypes.h</text>
</g>
<!-- Node51&#45;&gt;Node52 -->
<g id="edge65" class="edge"><title>Node51&#45;&gt;Node52</title>
<path fill="none" stroke="midnightblue" d="M1831.86,-328.922C1871.09,-316.88 1926.86,-299.76 1963.48,-288.519"/>
<polygon fill="midnightblue" stroke="midnightblue" points="1964.73,-291.794 1973.27,-285.514 1962.68,-285.103 1964.73,-291.794"/>
</g>
</g>
</svg>
        <g id="navigator" transform="translate(0 0)" fill="#404254">
                <rect fill="#f2f5e9" fill-opacity="0.5" stroke="#606060" stroke-width=".5" x="0" y="0" width="60" height="60"/>
                <use id="zoomplus" xlink:href="#zoomPlus" x="17" y="9" onmousedown="handleZoom(evt,'in')"/>
                <use id="zoomminus" xlink:href="#zoomMin" x="42" y="9" onmousedown="handleZoom(evt,'out')"/>
                <use id="reset" xlink:href="#resetDef" x="30" y="36" onmousedown="handleReset()"/>
                <g id="arrowUp" xlink:href="#dirArrow" transform="translate(30 24)" onmousedown="handlePan(0,-1)">
                  <use xlink:href="#rim" fill="#404040">
                        <set attributeName="fill" to="#808080" begin="arrowUp.mouseover" end="arrowUp.mouseout"/>
                  </use>
                  <path fill="none" stroke="white" stroke-width="1.5" d="M0,-3.0v7 M-2.5,-0.5L0,-3.0L2.5,-0.5"/>
                </g>
                <g id="arrowRight" xlink:href="#dirArrow" transform="rotate(90) translate(36 -43)" onmousedown="handlePan(1,0)">
                  <use xlink:href="#rim" fill="#404040">
                        <set attributeName="fill" to="#808080" begin="arrowRight.mouseover" end="arrowRight.mouseout"/>
                  </use>
                  <path fill="none" stroke="white" stroke-width="1.5" d="M0,-3.0v7 M-2.5,-0.5L0,-3.0L2.5,-0.5"/>
                </g>
                <g id="arrowDown" xlink:href="#dirArrow" transform="rotate(180) translate(-30 -48)" onmousedown="handlePan(0,1)">
                  <use xlink:href="#rim" fill="#404040">
                        <set attributeName="fill" to="#808080" begin="arrowDown.mouseover" end="arrowDown.mouseout"/>
                  </use>
                  <path fill="none" stroke="white" stroke-width="1.5" d="M0,-3.0v7 M-2.5,-0.5L0,-3.0L2.5,-0.5"/>
                </g>
                <g id="arrowLeft" xlink:href="#dirArrow" transform="rotate(270) translate(-36 17)" onmousedown="handlePan(-1,0)">
                  <use xlink:href="#rim" fill="#404040">
                        <set attributeName="fill" to="#808080" begin="arrowLeft.mouseover" end="arrowLeft.mouseout"/>
                  </use>
                  <path fill="none" stroke="white" stroke-width="1.5" d="M0,-3.0v7 M-2.5,-0.5L0,-3.0L2.5,-0.5"/>
                </g>
        </g>
        <svg viewBox="0 0 15 15" width="100%" height="30px" preserveAspectRatio="xMaxYMin meet">
         <g id="arrow_out" transform="scale(0.3 0.3)">
          <a xlink:href="HMPIDDigitizer_8h__incl_org.svg" target="_base">
           <rect id="button" ry="5" rx="5" y="6" x="6" height="38" width="38"
                fill="#f2f5e9" fill-opacity="0.5" stroke="#606060" stroke-width="1.0"/>
           <path id="arrow"
             d="M 11.500037,31.436501 C 11.940474,20.09759 22.043105,11.32322 32.158766,21.979434 L 37.068811,17.246167 C 37.068811,17.246167 37.088388,32 37.088388,32 L 22.160133,31.978069 C 22.160133,31.978069 26.997745,27.140456 26.997745,27.140456 C 18.528582,18.264221 13.291696,25.230495 11.500037,31.436501 z"
             style="fill:#404040;"/>
          </a>
         </g>
        </svg>
</svg>
