<?xml version="1.0" encoding="UTF-8" standalone="no"?>
<!DOCTYPE svg PUBLIC "-//W3C//DTD SVG 1.1//EN"
 "http://www.w3.org/Graphics/SVG/1.1/DTD/svg11.dtd">
<!-- Generated by graphviz version 2.36.0 (20140111.2315)
 -->
<!-- Title: /home/travis/build/AliceO2Group/AliceO2/Detectors/ITSMFT/MFT/base/src/Segmentation.cxx Pages: 1 -->
<!--zoomable 342 -->
<svg id="main" version="1.1" xmlns="http://www.w3.org/2000/svg" xmlns:xlink="http://www.w3.org/1999/xlink" xml:space="preserve" onload="init(evt)">
<style type="text/css"><![CDATA[
.edge:hover path { stroke: red; }
.edge:hover polygon { stroke: red; fill: red; }
]]></style>
<script type="text/javascript"><![CDATA[
var edges = document.getElementsByTagName('g');
if (edges && edges.length) {
  for (var i=0;i<edges.length;i++) {
    if (edges[i].id.substr(0,4)=='edge') {
      edges[i].setAttribute('class','edge');
    }
  }
}
]]></script>
        <defs>
                <circle id="rim" cx="0" cy="0" r="7"/>
                <circle id="rim2" cx="0" cy="0" r="3.5"/>
                <g id="zoomPlus">
                        <use xlink:href="#rim" fill="#404040">
                                <set attributeName="fill" to="#808080" begin="zoomplus.mouseover" end="zoomplus.mouseout"/>
                        </use>
                        <path d="M-4,0h8M0,-4v8" fill="none" stroke="white" stroke-width="1.5" pointer-events="none"/>
                </g>
                <g id="zoomMin">
                        <use xlink:href="#rim" fill="#404040">
                                <set attributeName="fill" to="#808080" begin="zoomminus.mouseover" end="zoomminus.mouseout"/>
                        </use>
                        <path d="M-4,0h8" fill="none" stroke="white" stroke-width="1.5" pointer-events="none"/>
                </g>
                <g id="dirArrow">
                        <path fill="none" stroke="white" stroke-width="1.5" d="M0,-3.0v7 M-2.5,-0.5L0,-3.0L2.5,-0.5"/>
                </g>
               <g id="resetDef">
                       <use xlink:href="#rim2" fill="#404040">
                               <set attributeName="fill" to="#808080" begin="reset.mouseover" end="reset.mouseout"/>
                       </use>
               </g>
        </defs>

<script type="text/javascript">
var viewWidth = 542;
var viewHeight = 342;
var sectionId = 'dynsection-0';
</script>
<script xlink:href="../../svgpan.js"/>
<svg id="graph" class="graph">
<g id="viewport">
<title>/home/travis/build/AliceO2Group/AliceO2/Detectors/ITSMFT/MFT/base/src/Segmentation.cxx</title>
<!-- Node1 -->
<g id="node1" class="node"><title>Node1</title>
<polygon fill="#bfbfbf" stroke="black" points="190.989,-281 190.989,-333 329.989,-333 329.989,-281 190.989,-281"/>
<text text-anchor="start" x="198.989" y="-321" font-family="Helvetica,sans-Serif" font-size="10.00">/home/travis/build</text>
<text text-anchor="start" x="198.989" y="-310" font-family="Helvetica,sans-Serif" font-size="10.00">/AliceO2Group/AliceO2</text>
<text text-anchor="start" x="198.989" y="-299" font-family="Helvetica,sans-Serif" font-size="10.00">/Detectors/ITSMFT/MFT</text>
<text text-anchor="middle" x="260.489" y="-288" font-family="Helvetica,sans-Serif" font-size="10.00">/base/src/Segmentation.cxx</text>
</g>
<!-- Node2 -->
<g id="node2" class="node"><title>Node2</title>
<polygon fill="none" stroke="#bfbfbf" points="48.9894,-224.5 48.9894,-243.5 119.989,-243.5 119.989,-224.5 48.9894,-224.5"/>
<text text-anchor="middle" x="84.4894" y="-231.5" font-family="Helvetica,sans-Serif" font-size="10.00">FairLogger.h</text>
</g>
<!-- Node1&#45;&gt;Node2 -->
<g id="edge1" class="edge"><title>Node1&#45;&gt;Node2</title>
<path fill="none" stroke="midnightblue" d="M198.438,-280.968C170.334,-269.63 138.351,-256.728 115.438,-247.485"/>
<polygon fill="midnightblue" stroke="midnightblue" points="116.487,-244.134 105.904,-243.639 113.868,-250.626 116.487,-244.134"/>
</g>
<!-- Node3 -->
<g id="node3" class="node"><title>Node3</title>
<g id="a_node3"><a xlink:href="../../d9/de7/LadderSegmentation_8h.html" target="_top" xlink:title="Description of the virtual segmentation of a ladder. ">
<polygon fill="none" stroke="black" points="70.4894,-168.5 70.4894,-187.5 230.489,-187.5 230.489,-168.5 70.4894,-168.5"/>
<text text-anchor="middle" x="150.489" y="-175.5" font-family="Helvetica,sans-Serif" font-size="10.00">MFTBase/LadderSegmentation.h</text>
</a>
</g>
</g>
<!-- Node1&#45;&gt;Node3 -->
<g id="edge2" class="edge"><title>Node1&#45;&gt;Node3</title>
<path fill="none" stroke="midnightblue" d="M208.618,-280.783C193.429,-271.158 178.077,-258.853 167.489,-244 157.862,-230.495 153.685,-211.94 151.873,-198.111"/>
<polygon fill="midnightblue" stroke="midnightblue" points="155.322,-197.421 150.841,-187.821 148.357,-198.12 155.322,-197.421"/>
</g>
<!-- Node10 -->
<g id="node10" class="node"><title>Node10</title>
<g id="a_node10"><a xlink:href="../../dc/d53/HalfDiskSegmentation_8h.html" target="_top" xlink:title="Class for the description of the structure of a half&#45;disk. ">
<polygon fill="none" stroke="black" points="175.989,-224.5 175.989,-243.5 344.989,-243.5 344.989,-224.5 175.989,-224.5"/>
<text text-anchor="middle" x="260.489" y="-231.5" font-family="Helvetica,sans-Serif" font-size="10.00">MFTBase/HalfDiskSegmentation.h</text>
</a>
</g>
</g>
<!-- Node1&#45;&gt;Node10 -->
<g id="edge10" class="edge"><title>Node1&#45;&gt;Node10</title>
<path fill="none" stroke="midnightblue" d="M260.489,-280.768C260.489,-271.89 260.489,-262.074 260.489,-253.816"/>
<polygon fill="midnightblue" stroke="midnightblue" points="263.989,-253.757 260.489,-243.757 256.989,-253.757 263.989,-253.757"/>
</g>
<!-- Node11 -->
<g id="node11" class="node"><title>Node11</title>
<g id="a_node11"><a xlink:href="../../d2/d77/HalfSegmentation_8h.html" target="_top" xlink:title="Segmentation class for each half of the ALICE Muon Forward Tracker. ">
<polygon fill="none" stroke="black" points="292.989,-168.5 292.989,-187.5 441.989,-187.5 441.989,-168.5 292.989,-168.5"/>
<text text-anchor="middle" x="367.489" y="-175.5" font-family="Helvetica,sans-Serif" font-size="10.00">MFTBase/HalfSegmentation.h</text>
</a>
</g>
</g>
<!-- Node1&#45;&gt;Node11 -->
<g id="edge14" class="edge"><title>Node1&#45;&gt;Node11</title>
<path fill="none" stroke="midnightblue" d="M313.239,-280.748C328.288,-271.182 343.337,-258.92 353.489,-244 362.723,-230.43 366.018,-211.882 367.123,-198.072"/>
<polygon fill="midnightblue" stroke="midnightblue" points="370.633,-197.957 367.619,-187.8 363.641,-197.619 370.633,-197.957"/>
</g>
<!-- Node12 -->
<g id="node12" class="node"><title>Node12</title>
<g id="a_node12"><a xlink:href="../../dd/d83/ITSMFT_2MFT_2base_2include_2MFTBase_2Segmentation_8h.html" target="_top" xlink:title="MFTBase/Segmentation.h">
<polygon fill="none" stroke="black" points="403.989,-112.5 403.989,-131.5 534.989,-131.5 534.989,-112.5 403.989,-112.5"/>
<text text-anchor="middle" x="469.489" y="-119.5" font-family="Helvetica,sans-Serif" font-size="10.00">MFTBase/Segmentation.h</text>
</a>
</g>
</g>
<!-- Node1&#45;&gt;Node12 -->
<g id="edge21" class="edge"><title>Node1&#45;&gt;Node12</title>
<path fill="none" stroke="midnightblue" d="M326.389,-280.87C368.13,-261.617 419.837,-231.002 450.489,-188 460.192,-174.387 464.978,-155.844 467.316,-142.047"/>
<polygon fill="midnightblue" stroke="midnightblue" points="470.832,-142.176 468.758,-131.786 463.9,-141.202 470.832,-142.176"/>
</g>
<!-- Node4 -->
<g id="node4" class="node"><title>Node4</title>
<polygon fill="none" stroke="#bfbfbf" points="403.989,-56.5 403.989,-75.5 488.989,-75.5 488.989,-56.5 403.989,-56.5"/>
<text text-anchor="middle" x="446.489" y="-63.5" font-family="Helvetica,sans-Serif" font-size="10.00">TClonesArray.h</text>
</g>
<!-- Node3&#45;&gt;Node4 -->
<g id="edge3" class="edge"><title>Node3&#45;&gt;Node4</title>
<path fill="none" stroke="midnightblue" d="M157.041,-168.222C168.183,-153.978 192.276,-126.017 219.489,-112 274.561,-83.6347 345.639,-73.1138 393.466,-69.2318"/>
<polygon fill="midnightblue" stroke="midnightblue" points="393.889,-72.7102 403.603,-68.4801 393.371,-65.7293 393.889,-72.7102"/>
</g>
<!-- Node5 -->
<g id="node5" class="node"><title>Node5</title>
<polygon fill="none" stroke="#bfbfbf" points="227.989,-112.5 227.989,-131.5 308.989,-131.5 308.989,-112.5 227.989,-112.5"/>
<text text-anchor="middle" x="268.489" y="-119.5" font-family="Helvetica,sans-Serif" font-size="10.00">TXMLEngine.h</text>
</g>
<!-- Node3&#45;&gt;Node5 -->
<g id="edge4" class="edge"><title>Node3&#45;&gt;Node5</title>
<path fill="none" stroke="midnightblue" d="M169.187,-168.444C188.434,-159.636 218.642,-145.812 240.689,-135.722"/>
<polygon fill="midnightblue" stroke="midnightblue" points="242.243,-138.86 249.879,-131.516 239.33,-132.495 242.243,-138.86"/>
</g>
<!-- Node6 -->
<g id="node6" class="node"><title>Node6</title>
<g id="a_node6"><a xlink:href="../../d3/de7/VSegmentation_8h.html" target="_top" xlink:title="Abstract base class for MFT Segmentation description. ">
<polygon fill="none" stroke="black" points="26.9894,-56.5 26.9894,-75.5 163.989,-75.5 163.989,-56.5 26.9894,-56.5"/>
<text text-anchor="middle" x="95.4894" y="-63.5" font-family="Helvetica,sans-Serif" font-size="10.00">MFTBase/VSegmentation.h</text>
</a>
</g>
</g>
<!-- Node3&#45;&gt;Node6 -->
<g id="edge5" class="edge"><title>Node3&#45;&gt;Node6</title>
<path fill="none" stroke="midnightblue" d="M70.2378,-169.044C47.2567,-162.611 24.626,-151.393 10.4894,-132 -6.24788,-109.04 27.3547,-90.313 57.1203,-78.9569"/>
<polygon fill="midnightblue" stroke="midnightblue" points="58.3691,-82.2273 66.581,-75.5329 55.9867,-75.6451 58.3691,-82.2273"/>
</g>
<!-- Node9 -->
<g id="node9" class="node"><title>Node9</title>
<g id="a_node9"><a xlink:href="../../d3/dbd/ChipSegmentation_8h.html" target="_top" xlink:title="Chip (sensor) segmentation description. ">
<polygon fill="none" stroke="black" points="19.9894,-112.5 19.9894,-131.5 170.989,-131.5 170.989,-112.5 19.9894,-112.5"/>
<text text-anchor="middle" x="95.4894" y="-119.5" font-family="Helvetica,sans-Serif" font-size="10.00">MFTBase/ChipSegmentation.h</text>
</a>
</g>
</g>
<!-- Node3&#45;&gt;Node9 -->
<g id="edge8" class="edge"><title>Node3&#45;&gt;Node9</title>
<path fill="none" stroke="midnightblue" d="M141.407,-168.083C133.318,-160.141 121.294,-148.335 111.579,-138.797"/>
<polygon fill="midnightblue" stroke="midnightblue" points="113.99,-136.26 104.402,-131.751 109.086,-141.254 113.99,-136.26"/>
</g>
<!-- Node7 -->
<g id="node7" class="node"><title>Node7</title>
<polygon fill="none" stroke="#bfbfbf" points="344.489,-0.5 344.489,-19.5 406.489,-19.5 406.489,-0.5 344.489,-0.5"/>
<text text-anchor="middle" x="375.489" y="-7.5" font-family="Helvetica,sans-Serif" font-size="10.00">TNamed.h</text>
</g>
<!-- Node6&#45;&gt;Node7 -->
<g id="edge6" class="edge"><title>Node6&#45;&gt;Node7</title>
<path fill="none" stroke="midnightblue" d="M139.856,-56.4435C193.346,-46.1277 282.512,-28.9314 334.462,-18.9124"/>
<polygon fill="midnightblue" stroke="midnightblue" points="335.178,-22.3388 344.335,-17.0084 333.853,-15.4655 335.178,-22.3388"/>
</g>
<!-- Node8 -->
<g id="node8" class="node"><title>Node8</title>
<polygon fill="none" stroke="#bfbfbf" points="57.4894,-0.5 57.4894,-19.5 133.489,-19.5 133.489,-0.5 57.4894,-0.5"/>
<text text-anchor="middle" x="95.4894" y="-7.5" font-family="Helvetica,sans-Serif" font-size="10.00">TGeoMatrix.h</text>
</g>
<!-- Node6&#45;&gt;Node8 -->
<g id="edge7" class="edge"><title>Node6&#45;&gt;Node8</title>
<path fill="none" stroke="midnightblue" d="M95.4894,-56.083C95.4894,-49.0059 95.4894,-38.8611 95.4894,-29.9865"/>
<polygon fill="midnightblue" stroke="midnightblue" points="98.9895,-29.751 95.4894,-19.7511 91.9895,-29.7511 98.9895,-29.751"/>
</g>
<!-- Node9&#45;&gt;Node6 -->
<g id="edge9" class="edge"><title>Node9&#45;&gt;Node6</title>
<path fill="none" stroke="midnightblue" d="M95.4894,-112.083C95.4894,-105.006 95.4894,-94.8611 95.4894,-85.9865"/>
<polygon fill="midnightblue" stroke="midnightblue" points="98.9895,-85.751 95.4894,-75.7511 91.9895,-85.7511 98.9895,-85.751"/>
</g>
<!-- Node10&#45;&gt;Node3 -->
<g id="edge12" class="edge"><title>Node10&#45;&gt;Node3</title>
<path fill="none" stroke="midnightblue" d="M242.816,-224.324C225.095,-215.625 197.586,-202.12 177.201,-192.113"/>
<polygon fill="midnightblue" stroke="midnightblue" points="178.638,-188.919 168.119,-187.655 175.553,-195.203 178.638,-188.919"/>
</g>
<!-- Node10&#45;&gt;Node5 -->
<g id="edge11" class="edge"><title>Node10&#45;&gt;Node5</title>
<path fill="none" stroke="midnightblue" d="M261.117,-224.368C262.408,-206.617 265.386,-165.666 267.137,-141.597"/>
<polygon fill="midnightblue" stroke="midnightblue" points="270.63,-141.819 267.865,-131.591 263.648,-141.311 270.63,-141.819"/>
</g>
<!-- Node10&#45;&gt;Node6 -->
<g id="edge13" class="edge"><title>Node10&#45;&gt;Node6</title>
<path fill="none" stroke="midnightblue" d="M175.831,-229.081C111.876,-220.788 30.4931,-197.189 2.48936,-132 -8.61733,-106.145 21.6297,-88.9052 50.5369,-78.7165"/>
<polygon fill="midnightblue" stroke="midnightblue" points="51.8213,-81.9786 60.2271,-75.5293 49.6342,-75.329 51.8213,-81.9786"/>
</g>
<!-- Node11&#45;&gt;Node5 -->
<g id="edge16" class="edge"><title>Node11&#45;&gt;Node5</title>
<path fill="none" stroke="midnightblue" d="M351.583,-168.324C335.851,-159.743 311.547,-146.486 293.28,-136.522"/>
<polygon fill="midnightblue" stroke="midnightblue" points="294.811,-133.37 284.356,-131.655 291.459,-139.516 294.811,-133.37"/>
</g>
<!-- Node11&#45;&gt;Node6 -->
<g id="edge20" class="edge"><title>Node11&#45;&gt;Node6</title>
<path fill="none" stroke="midnightblue" d="M363.359,-168.221C356.173,-153.975 339.96,-126.011 317.489,-112 274.677,-85.3048 219.018,-74.0645 174.143,-69.4931"/>
<polygon fill="midnightblue" stroke="midnightblue" points="174.437,-66.0054 164.156,-68.5665 173.79,-72.9755 174.437,-66.0054"/>
</g>
<!-- Node11&#45;&gt;Node7 -->
<g id="edge15" class="edge"><title>Node11&#45;&gt;Node7</title>
<path fill="none" stroke="midnightblue" d="M367.919,-168.075C369.179,-141.945 372.877,-65.2106 374.594,-29.577"/>
<polygon fill="midnightblue" stroke="midnightblue" points="378.091,-29.725 375.076,-19.5681 371.099,-29.388 378.091,-29.725"/>
</g>
<!-- Node11&#45;&gt;Node12 -->
<g id="edge17" class="edge"><title>Node11&#45;&gt;Node12</title>
<path fill="none" stroke="midnightblue" d="M383.877,-168.324C400.161,-159.703 425.357,-146.364 444.206,-136.386"/>
<polygon fill="midnightblue" stroke="midnightblue" points="445.942,-139.427 453.142,-131.655 442.666,-133.24 445.942,-139.427"/>
</g>
<!-- Node12&#45;&gt;Node4 -->
<g id="edge19" class="edge"><title>Node12&#45;&gt;Node4</title>
<path fill="none" stroke="midnightblue" d="M465.691,-112.083C462.577,-104.77 458.067,-94.1814 454.2,-85.1034"/>
<polygon fill="midnightblue" stroke="midnightblue" points="457.355,-83.5798 450.217,-75.7511 450.915,-86.3229 457.355,-83.5798"/>
</g>
<!-- Node12&#45;&gt;Node7 -->
<g id="edge18" class="edge"><title>Node12&#45;&gt;Node7</title>
<path fill="none" stroke="midnightblue" d="M478.361,-112.445C490.73,-99.4594 510.277,-74.346 497.489,-56 479.382,-30.0206 444.488,-19.0008 416.641,-14.3467"/>
<polygon fill="midnightblue" stroke="midnightblue" points="417.145,-10.8832 406.745,-12.9041 416.135,-17.81 417.145,-10.8832"/>
</g>
</g>
</svg>
        <g id="navigator" transform="translate(0 0)" fill="#404254">
                <rect fill="#f2f5e9" fill-opacity="0.5" stroke="#606060" stroke-width=".5" x="0" y="0" width="60" height="60"/>
                <use id="zoomplus" xlink:href="#zoomPlus" x="17" y="9" onmousedown="handleZoom(evt,'in')"/>
                <use id="zoomminus" xlink:href="#zoomMin" x="42" y="9" onmousedown="handleZoom(evt,'out')"/>
                <use id="reset" xlink:href="#resetDef" x="30" y="36" onmousedown="handleReset()"/>
                <g id="arrowUp" xlink:href="#dirArrow" transform="translate(30 24)" onmousedown="handlePan(0,-1)">
                  <use xlink:href="#rim" fill="#404040">
                        <set attributeName="fill" to="#808080" begin="arrowUp.mouseover" end="arrowUp.mouseout"/>
                  </use>
                  <path fill="none" stroke="white" stroke-width="1.5" d="M0,-3.0v7 M-2.5,-0.5L0,-3.0L2.5,-0.5"/>
                </g>
                <g id="arrowRight" xlink:href="#dirArrow" transform="rotate(90) translate(36 -43)" onmousedown="handlePan(1,0)">
                  <use xlink:href="#rim" fill="#404040">
                        <set attributeName="fill" to="#808080" begin="arrowRight.mouseover" end="arrowRight.mouseout"/>
                  </use>
                  <path fill="none" stroke="white" stroke-width="1.5" d="M0,-3.0v7 M-2.5,-0.5L0,-3.0L2.5,-0.5"/>
                </g>
                <g id="arrowDown" xlink:href="#dirArrow" transform="rotate(180) translate(-30 -48)" onmousedown="handlePan(0,1)">
                  <use xlink:href="#rim" fill="#404040">
                        <set attributeName="fill" to="#808080" begin="arrowDown.mouseover" end="arrowDown.mouseout"/>
                  </use>
                  <path fill="none" stroke="white" stroke-width="1.5" d="M0,-3.0v7 M-2.5,-0.5L0,-3.0L2.5,-0.5"/>
                </g>
                <g id="arrowLeft" xlink:href="#dirArrow" transform="rotate(270) translate(-36 17)" onmousedown="handlePan(-1,0)">
                  <use xlink:href="#rim" fill="#404040">
                        <set attributeName="fill" to="#808080" begin="arrowLeft.mouseover" end="arrowLeft.mouseout"/>
                  </use>
                  <path fill="none" stroke="white" stroke-width="1.5" d="M0,-3.0v7 M-2.5,-0.5L0,-3.0L2.5,-0.5"/>
                </g>
        </g>
        <svg viewBox="0 0 15 15" width="100%" height="30px" preserveAspectRatio="xMaxYMin meet">
         <g id="arrow_out" transform="scale(0.3 0.3)">
          <a xlink:href="ITSMFT_2MFT_2base_2src_2Segmentation_8cxx__incl_org.svg" target="_base">
           <rect id="button" ry="5" rx="5" y="6" x="6" height="38" width="38"
                fill="#f2f5e9" fill-opacity="0.5" stroke="#606060" stroke-width="1.0"/>
           <path id="arrow"
             d="M 11.500037,31.436501 C 11.940474,20.09759 22.043105,11.32322 32.158766,21.979434 L 37.068811,17.246167 C 37.068811,17.246167 37.088388,32 37.088388,32 L 22.160133,31.978069 C 22.160133,31.978069 26.997745,27.140456 26.997745,27.140456 C 18.528582,18.264221 13.291696,25.230495 11.500037,31.436501 z"
             style="fill:#404040;"/>
          </a>
         </g>
        </svg>
</svg>
