<?xml version="1.0" encoding="UTF-8" standalone="no"?>
<!DOCTYPE svg PUBLIC "-//W3C//DTD SVG 1.1//EN"
 "http://www.w3.org/Graphics/SVG/1.1/DTD/svg11.dtd">
<!-- Generated by graphviz version 2.36.0 (20140111.2315)
 -->
<!-- Title: /home/travis/build/AliceO2Group/AliceO2/Detectors/MUON/MCH/Mapping/SegContour/include/MCHMappingSegContour/CathodeSegmentationContours.h Pages: 1 -->
<!--zoomable 364 -->
<svg id="main" version="1.1" xmlns="http://www.w3.org/2000/svg" xmlns:xlink="http://www.w3.org/1999/xlink" xml:space="preserve" onload="init(evt)">
<style type="text/css"><![CDATA[
.edge:hover path { stroke: red; }
.edge:hover polygon { stroke: red; fill: red; }
]]></style>
<script type="text/javascript"><![CDATA[
var edges = document.getElementsByTagName('g');
if (edges && edges.length) {
  for (var i=0;i<edges.length;i++) {
    if (edges[i].id.substr(0,4)=='edge') {
      edges[i].setAttribute('class','edge');
    }
  }
}
]]></script>
        <defs>
                <circle id="rim" cx="0" cy="0" r="7"/>
                <circle id="rim2" cx="0" cy="0" r="3.5"/>
                <g id="zoomPlus">
                        <use xlink:href="#rim" fill="#404040">
                                <set attributeName="fill" to="#808080" begin="zoomplus.mouseover" end="zoomplus.mouseout"/>
                        </use>
                        <path d="M-4,0h8M0,-4v8" fill="none" stroke="white" stroke-width="1.5" pointer-events="none"/>
                </g>
                <g id="zoomMin">
                        <use xlink:href="#rim" fill="#404040">
                                <set attributeName="fill" to="#808080" begin="zoomminus.mouseover" end="zoomminus.mouseout"/>
                        </use>
                        <path d="M-4,0h8" fill="none" stroke="white" stroke-width="1.5" pointer-events="none"/>
                </g>
                <g id="dirArrow">
                        <path fill="none" stroke="white" stroke-width="1.5" d="M0,-3.0v7 M-2.5,-0.5L0,-3.0L2.5,-0.5"/>
                </g>
               <g id="resetDef">
                       <use xlink:href="#rim2" fill="#404040">
                               <set attributeName="fill" to="#808080" begin="reset.mouseover" end="reset.mouseout"/>
                       </use>
               </g>
        </defs>

<script type="text/javascript">
var viewWidth = 998;
var viewHeight = 364;
var sectionId = 'dynsection-0';
</script>
<script xlink:href="../../svgpan.js"/>
<svg id="graph" class="graph">
<g id="viewport">
<title>/home/travis/build/AliceO2Group/AliceO2/Detectors/MUON/MCH/Mapping/SegContour/include/MCHMappingSegContour/CathodeSegmentationContours.h</title>
<!-- Node1 -->
<g id="node1" class="node"><title>Node1</title>
<polygon fill="#bfbfbf" stroke="black" points="441,-292.5 441,-355.5 661,-355.5 661,-292.5 441,-292.5"/>
<text text-anchor="start" x="449" y="-343.5" font-family="Helvetica,sans-Serif" font-size="10.00">/home/travis/build</text>
<text text-anchor="start" x="449" y="-332.5" font-family="Helvetica,sans-Serif" font-size="10.00">/AliceO2Group/AliceO2</text>
<text text-anchor="start" x="449" y="-321.5" font-family="Helvetica,sans-Serif" font-size="10.00">/Detectors/MUON/MCH/Mapping</text>
<text text-anchor="start" x="449" y="-310.5" font-family="Helvetica,sans-Serif" font-size="10.00">/SegContour/include/MCHMappingSegContour</text>
<text text-anchor="middle" x="551" y="-299.5" font-family="Helvetica,sans-Serif" font-size="10.00">/CathodeSegmentationContours.h</text>
</g>
<!-- Node2 -->
<g id="node2" class="node"><title>Node2</title>
<polygon fill="none" stroke="#bfbfbf" points="438,-112.5 438,-131.5 482,-131.5 482,-112.5 438,-112.5"/>
<text text-anchor="middle" x="460" y="-119.5" font-family="Helvetica,sans-Serif" font-size="10.00">vector</text>
</g>
<!-- Node1&#45;&gt;Node2 -->
<g id="edge1" class="edge"><title>Node1&#45;&gt;Node2</title>
<path fill="none" stroke="midnightblue" d="M511.097,-292.498C500.035,-282.093 489.121,-269.611 482,-256 462.626,-218.968 459.576,-168.884 459.503,-141.976"/>
<polygon fill="midnightblue" stroke="midnightblue" points="463.007,-141.711 459.623,-131.671 456.007,-141.629 463.007,-141.711"/>
</g>
<!-- Node3 -->
<g id="node3" class="node"><title>Node3</title>
<g id="a_node3"><a xlink:href="../../db/d08/Contour_8h.html" target="_top" xlink:title="MCHContour/Contour.h">
<polygon fill="none" stroke="black" points="491,-236.5 491,-255.5 611,-255.5 611,-236.5 491,-236.5"/>
<text text-anchor="middle" x="551" y="-243.5" font-family="Helvetica,sans-Serif" font-size="10.00">MCHContour/Contour.h</text>
</a>
</g>
</g>
<!-- Node1&#45;&gt;Node3 -->
<g id="edge2" class="edge"><title>Node1&#45;&gt;Node3</title>
<path fill="none" stroke="midnightblue" d="M551,-292.088C551,-283.15 551,-273.669 551,-265.719"/>
<polygon fill="midnightblue" stroke="midnightblue" points="554.5,-265.718 551,-255.718 547.5,-265.718 554.5,-265.718"/>
</g>
<!-- Node4 -->
<g id="node4" class="node"><title>Node4</title>
<g id="a_node4"><a xlink:href="../../dc/ddd/Polygon_8h.html" target="_top" xlink:title="Polygon.h">
<polygon fill="none" stroke="black" points="626,-174.5 626,-193.5 686,-193.5 686,-174.5 626,-174.5"/>
<text text-anchor="middle" x="656" y="-181.5" font-family="Helvetica,sans-Serif" font-size="10.00">Polygon.h</text>
</a>
</g>
</g>
<!-- Node1&#45;&gt;Node4 -->
<g id="edge24" class="edge"><title>Node1&#45;&gt;Node4</title>
<path fill="none" stroke="midnightblue" d="M586.401,-292.192C597.615,-281.414 609.542,-268.794 619,-256 631.234,-239.451 641.694,-218.295 648.339,-203.396"/>
<polygon fill="midnightblue" stroke="midnightblue" points="651.727,-204.378 652.474,-193.809 645.299,-201.605 651.727,-204.378"/>
</g>
<!-- Node10 -->
<g id="node10" class="node"><title>Node10</title>
<g id="a_node10"><a xlink:href="../../d0/ddc/BBox_8h.html" target="_top" xlink:title="BBox.h">
<polygon fill="none" stroke="black" points="904.5,-112.5 904.5,-131.5 953.5,-131.5 953.5,-112.5 904.5,-112.5"/>
<text text-anchor="middle" x="929" y="-119.5" font-family="Helvetica,sans-Serif" font-size="10.00">BBox.h</text>
</a>
</g>
</g>
<!-- Node1&#45;&gt;Node10 -->
<g id="edge25" class="edge"><title>Node1&#45;&gt;Node10</title>
<path fill="none" stroke="midnightblue" d="M608.822,-292.407C692.474,-248.146 843.781,-168.09 903.639,-136.419"/>
<polygon fill="midnightblue" stroke="midnightblue" points="905.556,-139.364 912.758,-131.593 902.282,-133.177 905.556,-139.364"/>
</g>
<!-- Node20 -->
<g id="node20" class="node"><title>Node20</title>
<g id="a_node20"><a xlink:href="../../df/db6/CathodeSegmentation_8h.html" target="_top" xlink:title="MCHMappingInterface\l/CathodeSegmentation.h">
<polygon fill="none" stroke="black" points="236.5,-169 236.5,-199 361.5,-199 361.5,-169 236.5,-169"/>
<text text-anchor="start" x="244.5" y="-187" font-family="Helvetica,sans-Serif" font-size="10.00">MCHMappingInterface</text>
<text text-anchor="middle" x="299" y="-176" font-family="Helvetica,sans-Serif" font-size="10.00">/CathodeSegmentation.h</text>
</a>
</g>
</g>
<!-- Node1&#45;&gt;Node20 -->
<g id="edge26" class="edge"><title>Node1&#45;&gt;Node20</title>
<path fill="none" stroke="midnightblue" d="M495.073,-292.373C445.734,-265.354 375.375,-226.824 333.727,-204.017"/>
<polygon fill="midnightblue" stroke="midnightblue" points="335.244,-200.857 324.791,-199.124 331.881,-206.997 335.244,-200.857"/>
</g>
<!-- Node3&#45;&gt;Node2 -->
<g id="edge21" class="edge"><title>Node3&#45;&gt;Node2</title>
<path fill="none" stroke="midnightblue" d="M542.646,-236.354C534.274,-227.519 521.199,-213.255 511,-200 495.939,-180.426 480.539,-156.531 470.66,-140.601"/>
<polygon fill="midnightblue" stroke="midnightblue" points="473.487,-138.515 465.275,-131.821 467.52,-142.175 473.487,-138.515"/>
</g>
<!-- Node3&#45;&gt;Node4 -->
<g id="edge3" class="edge"><title>Node3&#45;&gt;Node4</title>
<path fill="none" stroke="midnightblue" d="M566.044,-236.403C583.275,-226.557 611.74,-210.291 632.034,-198.695"/>
<polygon fill="midnightblue" stroke="midnightblue" points="634.038,-201.581 640.984,-193.581 630.565,-195.503 634.038,-201.581"/>
</g>
<!-- Node7 -->
<g id="node7" class="node"><title>Node7</title>
<polygon fill="none" stroke="#bfbfbf" points="500.5,-112.5 500.5,-131.5 573.5,-131.5 573.5,-112.5 500.5,-112.5"/>
<text text-anchor="middle" x="537" y="-119.5" font-family="Helvetica,sans-Serif" font-size="10.00">initializer_list</text>
</g>
<!-- Node3&#45;&gt;Node7 -->
<g id="edge23" class="edge"><title>Node3&#45;&gt;Node7</title>
<path fill="none" stroke="midnightblue" d="M558.151,-236.364C564.773,-227.763 574.157,-213.873 578,-200 581.796,-186.294 583.136,-181.263 578,-168 573.546,-156.498 564.632,-146.131 556.251,-138.255"/>
<polygon fill="midnightblue" stroke="midnightblue" points="558.372,-135.46 548.541,-131.51 553.763,-140.729 558.372,-135.46"/>
</g>
<!-- Node19 -->
<g id="node19" class="node"><title>Node19</title>
<polygon fill="none" stroke="#bfbfbf" points="520.5,-174.5 520.5,-193.5 569.5,-193.5 569.5,-174.5 520.5,-174.5"/>
<text text-anchor="middle" x="545" y="-181.5" font-family="Helvetica,sans-Serif" font-size="10.00">cassert</text>
</g>
<!-- Node3&#45;&gt;Node19 -->
<g id="edge22" class="edge"><title>Node3&#45;&gt;Node19</title>
<path fill="none" stroke="midnightblue" d="M550.14,-236.403C549.294,-227.938 547.973,-214.728 546.882,-203.82"/>
<polygon fill="midnightblue" stroke="midnightblue" points="550.336,-203.183 545.858,-193.581 543.371,-203.879 550.336,-203.183"/>
</g>
<!-- Node4&#45;&gt;Node2 -->
<g id="edge6" class="edge"><title>Node4&#45;&gt;Node2</title>
<path fill="none" stroke="midnightblue" d="M627.918,-174.403C592.022,-163.415 530.012,-144.432 492.228,-132.866"/>
<polygon fill="midnightblue" stroke="midnightblue" points="492.842,-129.393 482.256,-129.813 490.793,-136.087 492.842,-129.393"/>
</g>
<!-- Node5 -->
<g id="node5" class="node"><title>Node5</title>
<polygon fill="none" stroke="#bfbfbf" points="575,-56.5 575,-75.5 629,-75.5 629,-56.5 575,-56.5"/>
<text text-anchor="middle" x="602" y="-63.5" font-family="Helvetica,sans-Serif" font-size="10.00">iostream</text>
</g>
<!-- Node4&#45;&gt;Node5 -->
<g id="edge4" class="edge"><title>Node4&#45;&gt;Node5</title>
<path fill="none" stroke="midnightblue" d="M648.897,-174.494C641.088,-164.769 628.64,-148.106 621,-132 613.914,-117.062 608.88,-98.9219 605.781,-85.6049"/>
<polygon fill="midnightblue" stroke="midnightblue" points="609.179,-84.7559 603.631,-75.7293 602.339,-86.245 609.179,-84.7559"/>
</g>
<!-- Node6 -->
<g id="node6" class="node"><title>Node6</title>
<polygon fill="none" stroke="#bfbfbf" points="846,-112.5 846,-131.5 886,-131.5 886,-112.5 846,-112.5"/>
<text text-anchor="middle" x="866" y="-119.5" font-family="Helvetica,sans-Serif" font-size="10.00">utility</text>
</g>
<!-- Node4&#45;&gt;Node6 -->
<g id="edge5" class="edge"><title>Node4&#45;&gt;Node6</title>
<path fill="none" stroke="midnightblue" d="M686.297,-174.569C722.102,-164.57 783.46,-147.323 836,-132 836.098,-131.971 836.196,-131.943 836.294,-131.914"/>
<polygon fill="midnightblue" stroke="midnightblue" points="837.08,-135.332 845.679,-129.142 835.097,-128.618 837.08,-135.332"/>
</g>
<!-- Node4&#45;&gt;Node7 -->
<g id="edge7" class="edge"><title>Node4&#45;&gt;Node7</title>
<path fill="none" stroke="midnightblue" d="M638.95,-174.403C619.156,-164.423 586.283,-147.849 563.23,-136.225"/>
<polygon fill="midnightblue" stroke="midnightblue" points="564.523,-132.958 554.018,-131.581 561.372,-139.208 564.523,-132.958"/>
</g>
<!-- Node8 -->
<g id="node8" class="node"><title>Node8</title>
<polygon fill="none" stroke="#bfbfbf" points="630,-112.5 630,-131.5 682,-131.5 682,-112.5 630,-112.5"/>
<text text-anchor="middle" x="656" y="-119.5" font-family="Helvetica,sans-Serif" font-size="10.00">sstream</text>
</g>
<!-- Node4&#45;&gt;Node8 -->
<g id="edge8" class="edge"><title>Node4&#45;&gt;Node8</title>
<path fill="none" stroke="midnightblue" d="M656,-174.403C656,-165.938 656,-152.728 656,-141.82"/>
<polygon fill="midnightblue" stroke="midnightblue" points="659.5,-141.581 656,-131.581 652.5,-141.581 659.5,-141.581"/>
</g>
<!-- Node9 -->
<g id="node9" class="node"><title>Node9</title>
<polygon fill="none" stroke="#bfbfbf" points="700,-112.5 700,-131.5 756,-131.5 756,-112.5 700,-112.5"/>
<text text-anchor="middle" x="728" y="-119.5" font-family="Helvetica,sans-Serif" font-size="10.00">algorithm</text>
</g>
<!-- Node4&#45;&gt;Node9 -->
<g id="edge9" class="edge"><title>Node4&#45;&gt;Node9</title>
<path fill="none" stroke="midnightblue" d="M666.316,-174.403C677.651,-164.958 696.073,-149.606 709.839,-138.134"/>
<polygon fill="midnightblue" stroke="midnightblue" points="712.262,-140.671 717.703,-131.581 707.78,-135.294 712.262,-140.671"/>
</g>
<!-- Node4&#45;&gt;Node10 -->
<g id="edge10" class="edge"><title>Node4&#45;&gt;Node10</title>
<path fill="none" stroke="midnightblue" d="M686.289,-177.027C729.985,-168.304 813.457,-151.244 894.309,-132.074"/>
<polygon fill="midnightblue" stroke="midnightblue" points="895.238,-135.451 904.153,-129.726 893.614,-128.642 895.238,-135.451"/>
</g>
<!-- Node17 -->
<g id="node17" class="node"><title>Node17</title>
<g id="a_node17"><a xlink:href="../../dd/dbc/Detectors_2MUON_2MCH_2Contour_2include_2MCHContour_2Vertex_8h.html" target="_top" xlink:title="Vertex.h">
<polygon fill="none" stroke="black" points="774.5,-112.5 774.5,-131.5 827.5,-131.5 827.5,-112.5 774.5,-112.5"/>
<text text-anchor="middle" x="801" y="-119.5" font-family="Helvetica,sans-Serif" font-size="10.00">Vertex.h</text>
</a>
</g>
</g>
<!-- Node4&#45;&gt;Node17 -->
<g id="edge17" class="edge"><title>Node4&#45;&gt;Node17</title>
<path fill="none" stroke="midnightblue" d="M676.775,-174.403C701.432,-164.2 742.745,-147.105 770.902,-135.454"/>
<polygon fill="midnightblue" stroke="midnightblue" points="772.362,-138.638 780.264,-131.581 769.685,-132.17 772.362,-138.638"/>
</g>
<!-- Node11 -->
<g id="node11" class="node"><title>Node11</title>
<g id="a_node11"><a xlink:href="../../d2/dc4/Helper_8h.html" target="_top" xlink:title="Helper.h">
<polygon fill="none" stroke="black" points="866.5,-56.5 866.5,-75.5 919.5,-75.5 919.5,-56.5 866.5,-56.5"/>
<text text-anchor="middle" x="893" y="-63.5" font-family="Helvetica,sans-Serif" font-size="10.00">Helper.h</text>
</a>
</g>
</g>
<!-- Node10&#45;&gt;Node11 -->
<g id="edge11" class="edge"><title>Node10&#45;&gt;Node11</title>
<path fill="none" stroke="midnightblue" d="M923.055,-112.083C918.023,-104.534 910.663,-93.4948 904.487,-84.2298"/>
<polygon fill="midnightblue" stroke="midnightblue" points="907.293,-82.1301 898.834,-75.7511 901.469,-86.0131 907.293,-82.1301"/>
</g>
<!-- Node15 -->
<g id="node15" class="node"><title>Node15</title>
<polygon fill="none" stroke="#bfbfbf" points="789.5,-56.5 789.5,-75.5 848.5,-75.5 848.5,-56.5 789.5,-56.5"/>
<text text-anchor="middle" x="819" y="-63.5" font-family="Helvetica,sans-Serif" font-size="10.00">stdexcept</text>
</g>
<!-- Node10&#45;&gt;Node15 -->
<g id="edge15" class="edge"><title>Node10&#45;&gt;Node15</title>
<path fill="none" stroke="midnightblue" d="M911.327,-112.324C893.606,-103.625 866.097,-90.1202 845.712,-80.113"/>
<polygon fill="midnightblue" stroke="midnightblue" points="847.149,-76.9195 836.63,-75.6545 844.064,-83.2031 847.149,-76.9195"/>
</g>
<!-- Node16 -->
<g id="node16" class="node"><title>Node16</title>
<polygon fill="none" stroke="#bfbfbf" points="938,-56.5 938,-75.5 990,-75.5 990,-56.5 938,-56.5"/>
<text text-anchor="middle" x="964" y="-63.5" font-family="Helvetica,sans-Serif" font-size="10.00">ostream</text>
</g>
<!-- Node10&#45;&gt;Node16 -->
<g id="edge16" class="edge"><title>Node10&#45;&gt;Node16</title>
<path fill="none" stroke="midnightblue" d="M934.78,-112.083C939.672,-104.534 946.827,-93.4948 952.833,-84.2298"/>
<polygon fill="midnightblue" stroke="midnightblue" points="955.826,-86.0463 958.328,-75.7511 949.952,-82.239 955.826,-86.0463"/>
</g>
<!-- Node12 -->
<g id="node12" class="node"><title>Node12</title>
<polygon fill="none" stroke="#bfbfbf" points="811,-0.5 811,-19.5 855,-19.5 855,-0.5 811,-0.5"/>
<text text-anchor="middle" x="833" y="-7.5" font-family="Helvetica,sans-Serif" font-size="10.00">cmath</text>
</g>
<!-- Node11&#45;&gt;Node12 -->
<g id="edge12" class="edge"><title>Node11&#45;&gt;Node12</title>
<path fill="none" stroke="midnightblue" d="M883.36,-56.324C874.49,-48.3414 861.125,-36.3128 850.392,-26.6529"/>
<polygon fill="midnightblue" stroke="midnightblue" points="852.59,-23.922 842.815,-19.8339 847.907,-29.1251 852.59,-23.922"/>
</g>
<!-- Node13 -->
<g id="node13" class="node"><title>Node13</title>
<polygon fill="none" stroke="#bfbfbf" points="873,-0.5 873,-19.5 913,-19.5 913,-0.5 873,-0.5"/>
<text text-anchor="middle" x="893" y="-7.5" font-family="Helvetica,sans-Serif" font-size="10.00">limits</text>
</g>
<!-- Node11&#45;&gt;Node13 -->
<g id="edge13" class="edge"><title>Node11&#45;&gt;Node13</title>
<path fill="none" stroke="midnightblue" d="M893,-56.083C893,-49.0059 893,-38.8611 893,-29.9865"/>
<polygon fill="midnightblue" stroke="midnightblue" points="896.5,-29.751 893,-19.7511 889.5,-29.7511 896.5,-29.751"/>
</g>
<!-- Node14 -->
<g id="node14" class="node"><title>Node14</title>
<polygon fill="none" stroke="#bfbfbf" points="931,-0.5 931,-19.5 977,-19.5 977,-0.5 931,-0.5"/>
<text text-anchor="middle" x="954" y="-7.5" font-family="Helvetica,sans-Serif" font-size="10.00">cstdint</text>
</g>
<!-- Node11&#45;&gt;Node14 -->
<g id="edge14" class="edge"><title>Node11&#45;&gt;Node14</title>
<path fill="none" stroke="midnightblue" d="M902.801,-56.324C911.818,-48.3414 925.406,-36.3128 936.318,-26.6529"/>
<polygon fill="midnightblue" stroke="midnightblue" points="938.853,-29.083 944.021,-19.8339 934.213,-23.8416 938.853,-29.083"/>
</g>
<!-- Node17&#45;&gt;Node5 -->
<g id="edge18" class="edge"><title>Node17&#45;&gt;Node5</title>
<path fill="none" stroke="midnightblue" d="M774.162,-113.717C739.223,-104.236 678.001,-87.6234 638.763,-76.976"/>
<polygon fill="midnightblue" stroke="midnightblue" points="639.616,-73.5808 629.048,-74.3398 637.783,-80.3365 639.616,-73.5808"/>
</g>
<!-- Node17&#45;&gt;Node11 -->
<g id="edge20" class="edge"><title>Node17&#45;&gt;Node11</title>
<path fill="none" stroke="midnightblue" d="M815.781,-112.324C830.267,-103.822 852.573,-90.7288 869.493,-80.7975"/>
<polygon fill="midnightblue" stroke="midnightblue" points="871.403,-83.735 878.255,-75.6545 867.859,-77.6981 871.403,-83.735"/>
</g>
<!-- Node18 -->
<g id="node18" class="node"><title>Node18</title>
<polygon fill="none" stroke="#bfbfbf" points="721,-56.5 721,-75.5 771,-75.5 771,-56.5 721,-56.5"/>
<text text-anchor="middle" x="746" y="-63.5" font-family="Helvetica,sans-Serif" font-size="10.00">iomanip</text>
</g>
<!-- Node17&#45;&gt;Node18 -->
<g id="edge19" class="edge"><title>Node17&#45;&gt;Node18</title>
<path fill="none" stroke="midnightblue" d="M791.918,-112.083C783.829,-104.141 771.805,-92.3354 762.09,-82.7973"/>
<polygon fill="midnightblue" stroke="midnightblue" points="764.501,-80.2595 754.913,-75.7511 759.597,-85.2545 764.501,-80.2595"/>
</g>
<!-- Node20&#45;&gt;Node2 -->
<g id="edge31" class="edge"><title>Node20&#45;&gt;Node2</title>
<path fill="none" stroke="midnightblue" d="M336.747,-168.933C364.603,-158.552 402.081,-144.585 428.371,-134.787"/>
<polygon fill="midnightblue" stroke="midnightblue" points="429.707,-138.025 437.855,-131.253 427.262,-131.465 429.707,-138.025"/>
</g>
<!-- Node20&#45;&gt;Node5 -->
<g id="edge30" class="edge"><title>Node20&#45;&gt;Node5</title>
<path fill="none" stroke="midnightblue" d="M324.543,-168.841C360.844,-148.748 423.591,-114.143 429,-112 474.431,-94.0028 529.423,-81.1207 565.027,-73.87"/>
<polygon fill="midnightblue" stroke="midnightblue" points="565.853,-77.2743 574.977,-71.8879 564.486,-70.4092 565.853,-77.2743"/>
</g>
<!-- Node20&#45;&gt;Node15 -->
<g id="edge28" class="edge"><title>Node20&#45;&gt;Node15</title>
<path fill="none" stroke="midnightblue" d="M255.945,-168.899C222.342,-155.727 184.653,-134.728 206,-112 248.083,-67.1949 681.805,-83.8041 779.327,-75.496"/>
<polygon fill="midnightblue" stroke="midnightblue" points="779.734,-78.9725 789.285,-74.3866 778.959,-72.0155 779.734,-78.9725"/>
</g>
<!-- Node21 -->
<g id="node21" class="node"><title>Node21</title>
<g id="a_node21"><a xlink:href="../../d0/dc7/CathodeSegmentationCInterface_8h.html" target="_top" xlink:title="CathodeSegmentationCInterface.h">
<polygon fill="none" stroke="black" points="215.5,-112.5 215.5,-131.5 382.5,-131.5 382.5,-112.5 215.5,-112.5"/>
<text text-anchor="middle" x="299" y="-119.5" font-family="Helvetica,sans-Serif" font-size="10.00">CathodeSegmentationCInterface.h</text>
</a>
</g>
</g>
<!-- Node20&#45;&gt;Node21 -->
<g id="edge27" class="edge"><title>Node20&#45;&gt;Node21</title>
<path fill="none" stroke="midnightblue" d="M299,-168.781C299,-160.781 299,-150.689 299,-142.017"/>
<polygon fill="midnightblue" stroke="midnightblue" points="302.5,-141.73 299,-131.731 295.5,-141.731 302.5,-141.73"/>
</g>
<!-- Node22 -->
<g id="node22" class="node"><title>Node22</title>
<polygon fill="none" stroke="#bfbfbf" points="0,-112.5 0,-131.5 52,-131.5 52,-112.5 0,-112.5"/>
<text text-anchor="middle" x="26" y="-119.5" font-family="Helvetica,sans-Serif" font-size="10.00">memory</text>
</g>
<!-- Node20&#45;&gt;Node22 -->
<g id="edge29" class="edge"><title>Node20&#45;&gt;Node22</title>
<path fill="none" stroke="midnightblue" d="M236.207,-170.27C190.478,-160.832 126.813,-147.35 62.2867,-132.237"/>
<polygon fill="midnightblue" stroke="midnightblue" points="62.8809,-128.781 52.345,-129.897 61.277,-135.595 62.8809,-128.781"/>
</g>
<!-- Node23 -->
<g id="node23" class="node"><title>Node23</title>
<polygon fill="none" stroke="#bfbfbf" points="70,-112.5 70,-131.5 160,-131.5 160,-112.5 70,-112.5"/>
<text text-anchor="middle" x="115" y="-119.5" font-family="Helvetica,sans-Serif" font-size="10.00">boost/format.hpp</text>
</g>
<!-- Node20&#45;&gt;Node23 -->
<g id="edge32" class="edge"><title>Node20&#45;&gt;Node23</title>
<path fill="none" stroke="midnightblue" d="M255.86,-168.933C223.89,-158.508 180.831,-144.467 150.768,-134.663"/>
<polygon fill="midnightblue" stroke="midnightblue" points="151.698,-131.285 141.106,-131.513 149.528,-137.941 151.698,-131.285"/>
</g>
</g>
</svg>
        <g id="navigator" transform="translate(0 0)" fill="#404254">
                <rect fill="#f2f5e9" fill-opacity="0.5" stroke="#606060" stroke-width=".5" x="0" y="0" width="60" height="60"/>
                <use id="zoomplus" xlink:href="#zoomPlus" x="17" y="9" onmousedown="handleZoom(evt,'in')"/>
                <use id="zoomminus" xlink:href="#zoomMin" x="42" y="9" onmousedown="handleZoom(evt,'out')"/>
                <use id="reset" xlink:href="#resetDef" x="30" y="36" onmousedown="handleReset()"/>
                <g id="arrowUp" xlink:href="#dirArrow" transform="translate(30 24)" onmousedown="handlePan(0,-1)">
                  <use xlink:href="#rim" fill="#404040">
                        <set attributeName="fill" to="#808080" begin="arrowUp.mouseover" end="arrowUp.mouseout"/>
                  </use>
                  <path fill="none" stroke="white" stroke-width="1.5" d="M0,-3.0v7 M-2.5,-0.5L0,-3.0L2.5,-0.5"/>
                </g>
                <g id="arrowRight" xlink:href="#dirArrow" transform="rotate(90) translate(36 -43)" onmousedown="handlePan(1,0)">
                  <use xlink:href="#rim" fill="#404040">
                        <set attributeName="fill" to="#808080" begin="arrowRight.mouseover" end="arrowRight.mouseout"/>
                  </use>
                  <path fill="none" stroke="white" stroke-width="1.5" d="M0,-3.0v7 M-2.5,-0.5L0,-3.0L2.5,-0.5"/>
                </g>
                <g id="arrowDown" xlink:href="#dirArrow" transform="rotate(180) translate(-30 -48)" onmousedown="handlePan(0,1)">
                  <use xlink:href="#rim" fill="#404040">
                        <set attributeName="fill" to="#808080" begin="arrowDown.mouseover" end="arrowDown.mouseout"/>
                  </use>
                  <path fill="none" stroke="white" stroke-width="1.5" d="M0,-3.0v7 M-2.5,-0.5L0,-3.0L2.5,-0.5"/>
                </g>
                <g id="arrowLeft" xlink:href="#dirArrow" transform="rotate(270) translate(-36 17)" onmousedown="handlePan(-1,0)">
                  <use xlink:href="#rim" fill="#404040">
                        <set attributeName="fill" to="#808080" begin="arrowLeft.mouseover" end="arrowLeft.mouseout"/>
                  </use>
                  <path fill="none" stroke="white" stroke-width="1.5" d="M0,-3.0v7 M-2.5,-0.5L0,-3.0L2.5,-0.5"/>
                </g>
        </g>
        <svg viewBox="0 0 15 15" width="100%" height="30px" preserveAspectRatio="xMaxYMin meet">
         <g id="arrow_out" transform="scale(0.3 0.3)">
          <a xlink:href="CathodeSegmentationContours_8h__incl_org.svg" target="_base">
           <rect id="button" ry="5" rx="5" y="6" x="6" height="38" width="38"
                fill="#f2f5e9" fill-opacity="0.5" stroke="#606060" stroke-width="1.0"/>
           <path id="arrow"
             d="M 11.500037,31.436501 C 11.940474,20.09759 22.043105,11.32322 32.158766,21.979434 L 37.068811,17.246167 C 37.068811,17.246167 37.088388,32 37.088388,32 L 22.160133,31.978069 C 22.160133,31.978069 26.997745,27.140456 26.997745,27.140456 C 18.528582,18.264221 13.291696,25.230495 11.500037,31.436501 z"
             style="fill:#404040;"/>
          </a>
         </g>
        </svg>
</svg>
