<?xml version="1.0" encoding="UTF-8" standalone="no"?>
<!DOCTYPE svg PUBLIC "-//W3C//DTD SVG 1.1//EN"
 "http://www.w3.org/Graphics/SVG/1.1/DTD/svg11.dtd">
<!-- Generated by graphviz version 2.36.0 (20140111.2315)
 -->
<!-- Title: /home/travis/build/AliceO2Group/AliceO2/Detectors/TPC/reconstruction/src/ClusterContainer.cxx Pages: 1 -->
<svg width="427pt" height="242pt"
 viewBox="0.00 0.00 427.00 242.00" xmlns="http://www.w3.org/2000/svg" xmlns:xlink="http://www.w3.org/1999/xlink">
<g id="graph0" class="graph" transform="scale(1 1) rotate(0) translate(4 238)">
<title>/home/travis/build/AliceO2Group/AliceO2/Detectors/TPC/reconstruction/src/ClusterContainer.cxx</title>
<!-- Node1 -->
<g id="node1" class="node"><title>Node1</title>
<polygon fill="#bfbfbf" stroke="black" points="138,-181 138,-233 288,-233 288,-181 138,-181"/>
<text text-anchor="start" x="146" y="-221" font-family="Helvetica,sans-Serif" font-size="10.00">/home/travis/build</text>
<text text-anchor="start" x="146" y="-210" font-family="Helvetica,sans-Serif" font-size="10.00">/AliceO2Group/AliceO2</text>
<text text-anchor="start" x="146" y="-199" font-family="Helvetica,sans-Serif" font-size="10.00">/Detectors/TPC/reconstruction</text>
<text text-anchor="middle" x="213" y="-188" font-family="Helvetica,sans-Serif" font-size="10.00">/src/ClusterContainer.cxx</text>
</g>
<!-- Node2 -->
<g id="node2" class="node"><title>Node2</title>
<g id="a_node2"><a xlink:href="../../db/d6b/ClusterContainer_8h.html" target="_top" xlink:title="Container class for TPC clusters. ">
<polygon fill="none" stroke="black" points="-0.5,-113 -0.5,-143 136.5,-143 136.5,-113 -0.5,-113"/>
<text text-anchor="start" x="7.5" y="-131" font-family="Helvetica,sans-Serif" font-size="10.00">TPCReconstruction/Cluster</text>
<text text-anchor="middle" x="68" y="-120" font-family="Helvetica,sans-Serif" font-size="10.00">Container.h</text>
</a>
</g>
</g>
<!-- Node1&#45;&gt;Node2 -->
<g id="edge1" class="edge"><title>Node1&#45;&gt;Node2</title>
<path fill="none" stroke="midnightblue" d="M165.522,-180.787C145.314,-170.056 122.15,-157.755 103.47,-147.836"/>
<polygon fill="midnightblue" stroke="midnightblue" points="104.895,-144.63 94.4214,-143.031 101.612,-150.812 104.895,-144.63"/>
</g>
<!-- Node4 -->
<g id="node4" class="node"><title>Node4</title>
<polygon fill="none" stroke="#bfbfbf" points="118.5,-56.5 118.5,-75.5 167.5,-75.5 167.5,-56.5 118.5,-56.5"/>
<text text-anchor="middle" x="143" y="-63.5" font-family="Helvetica,sans-Serif" font-size="10.00">cassert</text>
</g>
<!-- Node1&#45;&gt;Node4 -->
<g id="edge10" class="edge"><title>Node1&#45;&gt;Node4</title>
<path fill="none" stroke="midnightblue" d="M200.324,-180.828C186.327,-153.035 164.157,-109.011 151.893,-84.6594"/>
<polygon fill="midnightblue" stroke="midnightblue" points="154.921,-82.8894 147.297,-75.5322 148.669,-86.0379 154.921,-82.8894"/>
</g>
<!-- Node6 -->
<g id="node6" class="node"><title>Node6</title>
<g id="a_node6"><a xlink:href="../../dc/ddf/DataFormats_2Detectors_2TPC_2include_2DataFormatsTPC_2Cluster_8h.html" target="_top" xlink:title="DataFormatsTPC/Cluster.h">
<polygon fill="none" stroke="black" points="193.5,-118.5 193.5,-137.5 330.5,-137.5 330.5,-118.5 193.5,-118.5"/>
<text text-anchor="middle" x="262" y="-125.5" font-family="Helvetica,sans-Serif" font-size="10.00">DataFormatsTPC/Cluster.h</text>
</a>
</g>
</g>
<!-- Node1&#45;&gt;Node6 -->
<g id="edge5" class="edge"><title>Node1&#45;&gt;Node6</title>
<path fill="none" stroke="midnightblue" d="M229.044,-180.787C236.236,-169.486 244.535,-156.445 251.006,-146.276"/>
<polygon fill="midnightblue" stroke="midnightblue" points="254.138,-147.873 256.554,-137.558 248.233,-144.115 254.138,-147.873"/>
</g>
<!-- Node8 -->
<g id="node8" class="node"><title>Node8</title>
<polygon fill="none" stroke="#bfbfbf" points="348.5,-118.5 348.5,-137.5 419.5,-137.5 419.5,-118.5 348.5,-118.5"/>
<text text-anchor="middle" x="384" y="-125.5" font-family="Helvetica,sans-Serif" font-size="10.00">FairLogger.h</text>
</g>
<!-- Node1&#45;&gt;Node8 -->
<g id="edge9" class="edge"><title>Node1&#45;&gt;Node8</title>
<path fill="none" stroke="midnightblue" d="M268.992,-180.787C297.969,-167.739 332.102,-152.369 355.614,-141.782"/>
<polygon fill="midnightblue" stroke="midnightblue" points="357.314,-144.855 364.995,-137.558 354.44,-138.472 357.314,-144.855"/>
</g>
<!-- Node3 -->
<g id="node3" class="node"><title>Node3</title>
<polygon fill="none" stroke="#bfbfbf" points="18,-56.5 18,-75.5 62,-75.5 62,-56.5 18,-56.5"/>
<text text-anchor="middle" x="40" y="-63.5" font-family="Helvetica,sans-Serif" font-size="10.00">vector</text>
</g>
<!-- Node2&#45;&gt;Node3 -->
<g id="edge2" class="edge"><title>Node2&#45;&gt;Node3</title>
<path fill="none" stroke="midnightblue" d="M61.3644,-112.781C57.4634,-104.422 52.4961,-93.7773 48.333,-84.8565"/>
<polygon fill="midnightblue" stroke="midnightblue" points="51.4748,-83.3123 44.0742,-75.7305 45.1315,-86.2725 51.4748,-83.3123"/>
</g>
<!-- Node2&#45;&gt;Node4 -->
<g id="edge3" class="edge"><title>Node2&#45;&gt;Node4</title>
<path fill="none" stroke="midnightblue" d="M85.774,-112.781C97.3465,-103.523 112.423,-91.4618 124.196,-82.0435"/>
<polygon fill="midnightblue" stroke="midnightblue" points="126.465,-84.7106 132.087,-75.7305 122.092,-79.2445 126.465,-84.7106"/>
</g>
<!-- Node5 -->
<g id="node5" class="node"><title>Node5</title>
<polygon fill="none" stroke="#bfbfbf" points="168,-0.5 168,-19.5 224,-19.5 224,-0.5 168,-0.5"/>
<text text-anchor="middle" x="196" y="-7.5" font-family="Helvetica,sans-Serif" font-size="10.00">Rtypes.h</text>
</g>
<!-- Node2&#45;&gt;Node5 -->
<g id="edge4" class="edge"><title>Node2&#45;&gt;Node5</title>
<path fill="none" stroke="midnightblue" d="M73.3024,-112.894C79.744,-97.3258 91.9096,-72.3163 109,-56 123.806,-41.8649 143.924,-31.0733 161.084,-23.6061"/>
<polygon fill="midnightblue" stroke="midnightblue" points="162.881,-26.6504 170.784,-19.5936 160.206,-20.182 162.881,-26.6504"/>
</g>
<!-- Node6&#45;&gt;Node5 -->
<g id="edge6" class="edge"><title>Node6&#45;&gt;Node5</title>
<path fill="none" stroke="midnightblue" d="M251.526,-118.29C240.87,-108.893 224.599,-92.9807 215,-76 206.864,-61.6072 201.933,-43.4131 199.141,-29.937"/>
<polygon fill="midnightblue" stroke="midnightblue" points="202.547,-29.1045 197.276,-19.9138 195.665,-30.3854 202.547,-29.1045"/>
</g>
<!-- Node7 -->
<g id="node7" class="node"><title>Node7</title>
<g id="a_node7"><a xlink:href="../../df/d5d/common_2include_2CommonDataFormat_2TimeStamp_8h.html" target="_top" xlink:title="CommonDataFormat/TimeStamp.h">
<polygon fill="none" stroke="black" points="224,-56.5 224,-75.5 394,-75.5 394,-56.5 224,-56.5"/>
<text text-anchor="middle" x="309" y="-63.5" font-family="Helvetica,sans-Serif" font-size="10.00">CommonDataFormat/TimeStamp.h</text>
</a>
</g>
</g>
<!-- Node6&#45;&gt;Node7 -->
<g id="edge7" class="edge"><title>Node6&#45;&gt;Node7</title>
<path fill="none" stroke="midnightblue" d="M268.734,-118.403C275.784,-109.403 287.035,-95.0408 295.854,-83.7824"/>
<polygon fill="midnightblue" stroke="midnightblue" points="298.867,-85.6112 302.279,-75.5806 293.357,-81.2946 298.867,-85.6112"/>
</g>
<!-- Node7&#45;&gt;Node5 -->
<g id="edge8" class="edge"><title>Node7&#45;&gt;Node5</title>
<path fill="none" stroke="midnightblue" d="M291.095,-56.4435C272.746,-47.6751 243.995,-33.9355 222.906,-23.8579"/>
<polygon fill="midnightblue" stroke="midnightblue" points="224.353,-20.6703 213.821,-19.5164 221.335,-26.9862 224.353,-20.6703"/>
</g>
</g>
</svg>
