<?xml version="1.0" encoding="UTF-8" standalone="no"?>
<!DOCTYPE svg PUBLIC "-//W3C//DTD SVG 1.1//EN"
 "http://www.w3.org/Graphics/SVG/1.1/DTD/svg11.dtd">
<!-- Generated by graphviz version 2.36.0 (20140111.2315)
 -->
<!-- Title: /home/travis/build/AliceO2Group/AliceO2/Framework/Core/src/FairMQResizableBuffer.h Pages: 1 -->
<svg width="232pt" height="118pt"
 viewBox="0.00 0.00 232.00 118.00" xmlns="http://www.w3.org/2000/svg" xmlns:xlink="http://www.w3.org/1999/xlink">
<g id="graph0" class="graph" transform="scale(1 1) rotate(0) translate(4 114)">
<title>/home/travis/build/AliceO2Group/AliceO2/Framework/Core/src/FairMQResizableBuffer.h</title>
<!-- Node1 -->
<g id="node1" class="node"><title>Node1</title>
<polygon fill="#bfbfbf" stroke="black" points="6,-57 6,-109 194,-109 194,-57 6,-57"/>
<text text-anchor="start" x="14" y="-97" font-family="Helvetica,sans-Serif" font-size="10.00">/home/travis/build</text>
<text text-anchor="start" x="14" y="-86" font-family="Helvetica,sans-Serif" font-size="10.00">/AliceO2Group/AliceO2</text>
<text text-anchor="start" x="14" y="-75" font-family="Helvetica,sans-Serif" font-size="10.00">/Framework/Core/src/FairMQResizable</text>
<text text-anchor="middle" x="100" y="-64" font-family="Helvetica,sans-Serif" font-size="10.00">Buffer.h</text>
</g>
<!-- Node2 -->
<g id="node2" class="node"><title>Node2</title>
<polygon fill="none" stroke="#bfbfbf" points="0,-0.5 0,-19.5 52,-19.5 52,-0.5 0,-0.5"/>
<text text-anchor="middle" x="26" y="-7.5" font-family="Helvetica,sans-Serif" font-size="10.00">memory</text>
</g>
<!-- Node1&#45;&gt;Node2 -->
<g id="edge1" class="edge"><title>Node1&#45;&gt;Node2</title>
<path fill="none" stroke="midnightblue" d="M73.702,-56.7681C63.2917,-46.7799 51.6448,-35.6051 42.4655,-26.798"/>
<polygon fill="midnightblue" stroke="midnightblue" points="44.7662,-24.1549 35.1272,-19.7572 39.9199,-29.206 44.7662,-24.1549"/>
</g>
<!-- Node3 -->
<g id="node3" class="node"><title>Node3</title>
<polygon fill="none" stroke="#bfbfbf" points="70.5,-0.5 70.5,-19.5 129.5,-19.5 129.5,-0.5 70.5,-0.5"/>
<text text-anchor="middle" x="100" y="-7.5" font-family="Helvetica,sans-Serif" font-size="10.00">functional</text>
</g>
<!-- Node1&#45;&gt;Node3 -->
<g id="edge2" class="edge"><title>Node1&#45;&gt;Node3</title>
<path fill="none" stroke="midnightblue" d="M100,-56.7681C100,-47.8897 100,-38.0737 100,-29.8165"/>
<polygon fill="midnightblue" stroke="midnightblue" points="103.5,-29.7571 100,-19.7572 96.5001,-29.7572 103.5,-29.7571"/>
</g>
<!-- Node4 -->
<g id="node4" class="node"><title>Node4</title>
<polygon fill="none" stroke="#bfbfbf" points="147.5,-0.5 147.5,-19.5 224.5,-19.5 224.5,-0.5 147.5,-0.5"/>
<text text-anchor="middle" x="186" y="-7.5" font-family="Helvetica,sans-Serif" font-size="10.00">arrow/buffer.h</text>
</g>
<!-- Node1&#45;&gt;Node4 -->
<g id="edge3" class="edge"><title>Node1&#45;&gt;Node4</title>
<path fill="none" stroke="midnightblue" d="M130.563,-56.7681C142.905,-46.5781 156.744,-35.1531 167.507,-26.2671"/>
<polygon fill="midnightblue" stroke="midnightblue" points="169.909,-28.8227 175.393,-19.7572 165.453,-23.4246 169.909,-28.8227"/>
</g>
</g>
</svg>
