<?xml version="1.0" encoding="UTF-8" standalone="no"?>
<!DOCTYPE svg PUBLIC "-//W3C//DTD SVG 1.1//EN"
 "http://www.w3.org/Graphics/SVG/1.1/DTD/svg11.dtd">
<!-- Generated by graphviz version 2.36.0 (20140111.2315)
 -->
<!-- Title: /home/travis/build/AliceO2Group/AliceO2/Detectors/GlobalTracking/src/CalibTOF.cxx Pages: 1 -->
<!--zoomable 310 -->
<svg id="main" version="1.1" xmlns="http://www.w3.org/2000/svg" xmlns:xlink="http://www.w3.org/1999/xlink" xml:space="preserve" onload="init(evt)">
<style type="text/css"><![CDATA[
.edge:hover path { stroke: red; }
.edge:hover polygon { stroke: red; fill: red; }
]]></style>
<script type="text/javascript"><![CDATA[
var edges = document.getElementsByTagName('g');
if (edges && edges.length) {
  for (var i=0;i<edges.length;i++) {
    if (edges[i].id.substr(0,4)=='edge') {
      edges[i].setAttribute('class','edge');
    }
  }
}
]]></script>
        <defs>
                <circle id="rim" cx="0" cy="0" r="7"/>
                <circle id="rim2" cx="0" cy="0" r="3.5"/>
                <g id="zoomPlus">
                        <use xlink:href="#rim" fill="#404040">
                                <set attributeName="fill" to="#808080" begin="zoomplus.mouseover" end="zoomplus.mouseout"/>
                        </use>
                        <path d="M-4,0h8M0,-4v8" fill="none" stroke="white" stroke-width="1.5" pointer-events="none"/>
                </g>
                <g id="zoomMin">
                        <use xlink:href="#rim" fill="#404040">
                                <set attributeName="fill" to="#808080" begin="zoomminus.mouseover" end="zoomminus.mouseout"/>
                        </use>
                        <path d="M-4,0h8" fill="none" stroke="white" stroke-width="1.5" pointer-events="none"/>
                </g>
                <g id="dirArrow">
                        <path fill="none" stroke="white" stroke-width="1.5" d="M0,-3.0v7 M-2.5,-0.5L0,-3.0L2.5,-0.5"/>
                </g>
               <g id="resetDef">
                       <use xlink:href="#rim2" fill="#404040">
                               <set attributeName="fill" to="#808080" begin="reset.mouseover" end="reset.mouseout"/>
                       </use>
               </g>
        </defs>

<script type="text/javascript">
var viewWidth = 2285;
var viewHeight = 310;
var sectionId = 'dynsection-0';
</script>
<script xlink:href="../../svgpan.js"/>
<svg id="graph" class="graph">
<g id="viewport">
<title>/home/travis/build/AliceO2Group/AliceO2/Detectors/GlobalTracking/src/CalibTOF.cxx</title>
<!-- Node1 -->
<g id="node1" class="node"><title>Node1</title>
<polygon fill="#bfbfbf" stroke="black" points="728.5,-249 728.5,-301 859.5,-301 859.5,-249 728.5,-249"/>
<text text-anchor="start" x="736.5" y="-289" font-family="Helvetica,sans-Serif" font-size="10.00">/home/travis/build</text>
<text text-anchor="start" x="736.5" y="-278" font-family="Helvetica,sans-Serif" font-size="10.00">/AliceO2Group/AliceO2</text>
<text text-anchor="start" x="736.5" y="-267" font-family="Helvetica,sans-Serif" font-size="10.00">/Detectors/GlobalTracking</text>
<text text-anchor="middle" x="794" y="-256" font-family="Helvetica,sans-Serif" font-size="10.00">/src/CalibTOF.cxx</text>
</g>
<!-- Node2 -->
<g id="node2" class="node"><title>Node2</title>
<polygon fill="none" stroke="#bfbfbf" points="0,-186.5 0,-205.5 50,-205.5 50,-186.5 0,-186.5"/>
<text text-anchor="middle" x="25" y="-193.5" font-family="Helvetica,sans-Serif" font-size="10.00">TTree.h</text>
</g>
<!-- Node1&#45;&gt;Node2 -->
<g id="edge1" class="edge"><title>Node1&#45;&gt;Node2</title>
<path fill="none" stroke="midnightblue" d="M728.353,-274.579C599.327,-274.373 304.326,-267.245 64,-212 60.5733,-211.212 57.0461,-210.185 53.5794,-209.037"/>
<polygon fill="midnightblue" stroke="midnightblue" points="54.6968,-205.72 44.1029,-205.583 52.2992,-212.296 54.6968,-205.72"/>
</g>
<!-- Node3 -->
<g id="node3" class="node"><title>Node3</title>
<polygon fill="none" stroke="#bfbfbf" points="53.5,-56.5 53.5,-75.5 102.5,-75.5 102.5,-56.5 53.5,-56.5"/>
<text text-anchor="middle" x="78" y="-63.5" font-family="Helvetica,sans-Serif" font-size="10.00">cassert</text>
</g>
<!-- Node1&#45;&gt;Node3 -->
<g id="edge2" class="edge"><title>Node1&#45;&gt;Node3</title>
<path fill="none" stroke="midnightblue" d="M728.242,-271.117C571.839,-262.846 184.211,-233.574 97,-144 81.9506,-128.543 78.2056,-103.164 77.5648,-85.7972"/>
<polygon fill="midnightblue" stroke="midnightblue" points="81.0645,-85.7059 77.5045,-75.7271 74.0646,-85.7479 81.0645,-85.7059"/>
</g>
<!-- Node4 -->
<g id="node4" class="node"><title>Node4</title>
<polygon fill="none" stroke="#bfbfbf" points="353.5,-186.5 353.5,-205.5 424.5,-205.5 424.5,-186.5 353.5,-186.5"/>
<text text-anchor="middle" x="389" y="-193.5" font-family="Helvetica,sans-Serif" font-size="10.00">FairLogger.h</text>
</g>
<!-- Node1&#45;&gt;Node4 -->
<g id="edge3" class="edge"><title>Node1&#45;&gt;Node4</title>
<path fill="none" stroke="midnightblue" d="M728.345,-265.733C655.704,-255.884 535.489,-237.499 434,-212 430.156,-211.034 426.167,-209.902 422.224,-208.699"/>
<polygon fill="midnightblue" stroke="midnightblue" points="423.214,-205.341 412.623,-205.62 421.076,-212.006 423.214,-205.341"/>
</g>
<!-- Node5 -->
<g id="node5" class="node"><title>Node5</title>
<g id="a_node5"><a xlink:href="../../d4/d54/Geo_8h.html" target="_top" xlink:title="TOFBase/Geo.h">
<polygon fill="none" stroke="black" points="1064,-118.5 1064,-137.5 1152,-137.5 1152,-118.5 1064,-118.5"/>
<text text-anchor="middle" x="1108" y="-125.5" font-family="Helvetica,sans-Serif" font-size="10.00">TOFBase/Geo.h</text>
</a>
</g>
</g>
<!-- Node1&#45;&gt;Node5 -->
<g id="edge4" class="edge"><title>Node1&#45;&gt;Node5</title>
<path fill="none" stroke="midnightblue" d="M859.592,-252.125C890.508,-241.153 927.626,-227.015 960,-212 1006.1,-190.618 1057.27,-160.366 1085.75,-142.906"/>
<polygon fill="midnightblue" stroke="midnightblue" points="1087.82,-145.738 1094.5,-137.507 1084.15,-139.781 1087.82,-145.738"/>
</g>
<!-- Node7 -->
<g id="node7" class="node"><title>Node7</title>
<polygon fill="none" stroke="#bfbfbf" points="998.5,-118.5 998.5,-137.5 1045.5,-137.5 1045.5,-118.5 998.5,-118.5"/>
<text text-anchor="middle" x="1022" y="-125.5" font-family="Helvetica,sans-Serif" font-size="10.00">TFile.h</text>
</g>
<!-- Node1&#45;&gt;Node7 -->
<g id="edge6" class="edge"><title>Node1&#45;&gt;Node7</title>
<path fill="none" stroke="midnightblue" d="M854.951,-248.866C877.347,-238.625 902.476,-225.914 924,-212 955.317,-191.756 987.543,-162.537 1006.12,-144.711"/>
<polygon fill="midnightblue" stroke="midnightblue" points="1008.7,-147.091 1013.43,-137.611 1003.82,-142.071 1008.7,-147.091"/>
</g>
<!-- Node8 -->
<g id="node8" class="node"><title>Node8</title>
<g id="a_node8"><a xlink:href="../../de/d28/GRPObject_8h.html" target="_top" xlink:title="Header of the General Run Parameters object. ">
<polygon fill="none" stroke="black" points="443,-181 443,-211 567,-211 567,-181 443,-181"/>
<text text-anchor="start" x="451" y="-199" font-family="Helvetica,sans-Serif" font-size="10.00">DataFormatsParameters</text>
<text text-anchor="middle" x="505" y="-188" font-family="Helvetica,sans-Serif" font-size="10.00">/GRPObject.h</text>
</a>
</g>
</g>
<!-- Node1&#45;&gt;Node8 -->
<g id="edge7" class="edge"><title>Node1&#45;&gt;Node8</title>
<path fill="none" stroke="midnightblue" d="M728.421,-256.528C680.223,-243.686 615.126,-226.342 567.636,-213.688"/>
<polygon fill="midnightblue" stroke="midnightblue" points="568.345,-210.255 557.781,-211.063 566.543,-217.019 568.345,-210.255"/>
</g>
<!-- Node11 -->
<g id="node11" class="node"><title>Node11</title>
<g id="a_node11"><a xlink:href="../../d4/dc6/LHCConstants_8h.html" target="_top" xlink:title="Header to collect LHC related constants. ">
<polygon fill="none" stroke="black" points="552,-118.5 552,-137.5 730,-137.5 730,-118.5 552,-118.5"/>
<text text-anchor="middle" x="641" y="-125.5" font-family="Helvetica,sans-Serif" font-size="10.00">CommonConstants/LHCConstants.h</text>
</a>
</g>
</g>
<!-- Node1&#45;&gt;Node11 -->
<g id="edge45" class="edge"><title>Node1&#45;&gt;Node11</title>
<path fill="none" stroke="midnightblue" d="M767.349,-248.743C735.693,-218.742 683.864,-169.623 657.509,-144.646"/>
<polygon fill="midnightblue" stroke="midnightblue" points="659.864,-142.055 650.198,-137.717 655.049,-147.136 659.864,-142.055"/>
</g>
<!-- Node20 -->
<g id="node20" class="node"><title>Node20</title>
<g id="a_node20"><a xlink:href="../../d3/d17/PID_8h.html" target="_top" xlink:title="particle ids, masses, names class definition ">
<polygon fill="none" stroke="black" points="775,-181 775,-211 915,-211 915,-181 775,-181"/>
<text text-anchor="start" x="783" y="-199" font-family="Helvetica,sans-Serif" font-size="10.00">ReconstructionDataFormats</text>
<text text-anchor="middle" x="845" y="-188" font-family="Helvetica,sans-Serif" font-size="10.00">/PID.h</text>
</a>
</g>
</g>
<!-- Node1&#45;&gt;Node20 -->
<g id="edge24" class="edge"><title>Node1&#45;&gt;Node20</title>
<path fill="none" stroke="midnightblue" d="M810.699,-248.787C816.887,-239.445 823.863,-228.913 829.9,-219.798"/>
<polygon fill="midnightblue" stroke="midnightblue" points="832.956,-221.522 835.56,-211.252 827.12,-217.656 832.956,-221.522"/>
</g>
<!-- Node22 -->
<g id="node22" class="node"><title>Node22</title>
<g id="a_node22"><a xlink:href="../../d5/ded/CalibTOF_8h.html" target="_top" xlink:title="GlobalTracking/CalibTOF.h">
<polygon fill="none" stroke="black" points="1519.5,-186.5 1519.5,-205.5 1654.5,-205.5 1654.5,-186.5 1519.5,-186.5"/>
<text text-anchor="middle" x="1587" y="-193.5" font-family="Helvetica,sans-Serif" font-size="10.00">GlobalTracking/CalibTOF.h</text>
</a>
</g>
</g>
<!-- Node1&#45;&gt;Node22 -->
<g id="edge27" class="edge"><title>Node1&#45;&gt;Node22</title>
<path fill="none" stroke="midnightblue" d="M859.569,-267.633C1004.9,-253.521 1353.54,-219.669 1509.41,-204.534"/>
<polygon fill="midnightblue" stroke="midnightblue" points="1509.78,-208.015 1519.39,-203.565 1509.1,-201.048 1509.78,-208.015"/>
</g>
<!-- Node34 -->
<g id="node34" class="node"><title>Node34</title>
<polygon fill="none" stroke="#bfbfbf" points="1672.5,-186.5 1672.5,-205.5 1725.5,-205.5 1725.5,-186.5 1672.5,-186.5"/>
<text text-anchor="middle" x="1699" y="-193.5" font-family="Helvetica,sans-Serif" font-size="10.00">TMath.h</text>
</g>
<!-- Node1&#45;&gt;Node34 -->
<g id="edge46" class="edge"><title>Node1&#45;&gt;Node34</title>
<path fill="none" stroke="midnightblue" d="M859.629,-272.059C1034.8,-266.441 1510.41,-248.213 1663,-212 1666,-211.288 1669.07,-210.355 1672.09,-209.302"/>
<polygon fill="midnightblue" stroke="midnightblue" points="1673.4,-212.551 1681.44,-205.652 1670.85,-206.031 1673.4,-212.551"/>
</g>
<!-- Node6 -->
<g id="node6" class="node"><title>Node6</title>
<polygon fill="none" stroke="#bfbfbf" points="942,-56.5 942,-75.5 998,-75.5 998,-56.5 942,-56.5"/>
<text text-anchor="middle" x="970" y="-63.5" font-family="Helvetica,sans-Serif" font-size="10.00">Rtypes.h</text>
</g>
<!-- Node5&#45;&gt;Node6 -->
<g id="edge5" class="edge"><title>Node5&#45;&gt;Node6</title>
<path fill="none" stroke="midnightblue" d="M1088.23,-118.403C1064.86,-108.245 1025.79,-91.2547 998.997,-79.6074"/>
<polygon fill="midnightblue" stroke="midnightblue" points="1000.3,-76.3582 989.735,-75.5806 997.511,-82.7777 1000.3,-76.3582"/>
</g>
<!-- Node8&#45;&gt;Node6 -->
<g id="edge8" class="edge"><title>Node8&#45;&gt;Node6</title>
<path fill="none" stroke="midnightblue" d="M507.115,-180.843C510.776,-161.782 520.222,-128.372 543,-112 604.706,-67.6462 838.983,-65.3986 931.798,-66.3213"/>
<polygon fill="midnightblue" stroke="midnightblue" points="931.841,-69.822 941.881,-66.4399 931.923,-62.8225 931.841,-69.822"/>
</g>
<!-- Node9 -->
<g id="node9" class="node"><title>Node9</title>
<polygon fill="none" stroke="#bfbfbf" points="435,-56.5 435,-75.5 481,-75.5 481,-56.5 435,-56.5"/>
<text text-anchor="middle" x="458" y="-63.5" font-family="Helvetica,sans-Serif" font-size="10.00">cstdint</text>
</g>
<!-- Node8&#45;&gt;Node9 -->
<g id="edge9" class="edge"><title>Node8&#45;&gt;Node9</title>
<path fill="none" stroke="midnightblue" d="M499.791,-180.813C491.216,-157.461 474.14,-110.957 464.686,-85.2094"/>
<polygon fill="midnightblue" stroke="midnightblue" points="467.881,-83.7546 461.148,-75.5738 461.31,-86.1674 467.881,-83.7546"/>
</g>
<!-- Node10 -->
<g id="node10" class="node"><title>Node10</title>
<polygon fill="none" stroke="#bfbfbf" points="280.5,-118.5 280.5,-137.5 321.5,-137.5 321.5,-118.5 280.5,-118.5"/>
<text text-anchor="middle" x="301" y="-125.5" font-family="Helvetica,sans-Serif" font-size="10.00">ctime</text>
</g>
<!-- Node8&#45;&gt;Node10 -->
<g id="edge10" class="edge"><title>Node8&#45;&gt;Node10</title>
<path fill="none" stroke="midnightblue" d="M447.719,-180.974C413.363,-171.883 369.088,-158.965 331,-144 329.398,-143.37 327.766,-142.686 326.132,-141.969"/>
<polygon fill="midnightblue" stroke="midnightblue" points="327.489,-138.739 316.952,-137.636 324.501,-145.069 327.489,-138.739"/>
</g>
<!-- Node8&#45;&gt;Node11 -->
<g id="edge11" class="edge"><title>Node8&#45;&gt;Node11</title>
<path fill="none" stroke="midnightblue" d="M534.175,-180.841C557.805,-169.374 590.84,-153.342 613.896,-142.153"/>
<polygon fill="midnightblue" stroke="midnightblue" points="615.642,-145.197 623.11,-137.682 612.585,-138.899 615.642,-145.197"/>
</g>
<!-- Node12 -->
<g id="node12" class="node"><title>Node12</title>
<g id="a_node12"><a xlink:href="../../da/d58/Units_8h.html" target="_top" xlink:title="Header to collect definitions for different units. ">
<polygon fill="none" stroke="black" points="340,-118.5 340,-137.5 458,-137.5 458,-118.5 340,-118.5"/>
<text text-anchor="middle" x="399" y="-125.5" font-family="Helvetica,sans-Serif" font-size="10.00">CommonTypes/Units.h</text>
</a>
</g>
</g>
<!-- Node8&#45;&gt;Node12 -->
<g id="edge12" class="edge"><title>Node8&#45;&gt;Node12</title>
<path fill="none" stroke="midnightblue" d="M482.26,-180.841C464.337,-169.681 439.469,-154.198 421.585,-143.063"/>
<polygon fill="midnightblue" stroke="midnightblue" points="423.283,-139.996 412.944,-137.682 419.583,-145.939 423.283,-139.996"/>
</g>
<!-- Node13 -->
<g id="node13" class="node"><title>Node13</title>
<g id="a_node13"><a xlink:href="../../d6/d31/DetID_8h.html" target="_top" xlink:title="DetectorsCommonDataFormats\l/DetID.h">
<polygon fill="none" stroke="black" points="106,-113 106,-143 262,-143 262,-113 106,-113"/>
<text text-anchor="start" x="114" y="-131" font-family="Helvetica,sans-Serif" font-size="10.00">DetectorsCommonDataFormats</text>
<text text-anchor="middle" x="184" y="-120" font-family="Helvetica,sans-Serif" font-size="10.00">/DetID.h</text>
</a>
</g>
</g>
<!-- Node8&#45;&gt;Node13 -->
<g id="edge13" class="edge"><title>Node8&#45;&gt;Node13</title>
<path fill="none" stroke="midnightblue" d="M442.95,-182.059C439.585,-181.362 436.251,-180.672 433,-180 375.995,-168.224 311.624,-155.043 262.614,-145.031"/>
<polygon fill="midnightblue" stroke="midnightblue" points="263.209,-141.58 252.711,-143.008 261.808,-148.439 263.209,-141.58"/>
</g>
<!-- Node13&#45;&gt;Node3 -->
<g id="edge17" class="edge"><title>Node13&#45;&gt;Node3</title>
<path fill="none" stroke="midnightblue" d="M159.148,-112.933C141.903,-103.171 119.058,-90.2401 102.001,-80.5856"/>
<polygon fill="midnightblue" stroke="midnightblue" points="103.62,-77.4802 93.1934,-75.6 100.172,-83.572 103.62,-77.4802"/>
</g>
<!-- Node13&#45;&gt;Node6 -->
<g id="edge14" class="edge"><title>Node13&#45;&gt;Node6</title>
<path fill="none" stroke="midnightblue" d="M262.197,-113.113C265.166,-112.715 268.108,-112.341 271,-112 522.027,-82.3647 826.241,-71.1872 931.775,-68.0315"/>
<polygon fill="midnightblue" stroke="midnightblue" points="932.042,-71.5253 941.935,-67.7343 931.837,-64.5282 932.042,-71.5253"/>
</g>
<!-- Node13&#45;&gt;Node9 -->
<g id="edge18" class="edge"><title>Node13&#45;&gt;Node9</title>
<path fill="none" stroke="midnightblue" d="M248.241,-112.933C303.594,-100.812 381.271,-83.8021 424.897,-74.2489"/>
<polygon fill="midnightblue" stroke="midnightblue" points="425.684,-77.6596 434.704,-72.1014 424.186,-70.8216 425.684,-77.6596"/>
</g>
<!-- Node14 -->
<g id="node14" class="node"><title>Node14</title>
<polygon fill="none" stroke="#bfbfbf" points="360,-0.5 360,-19.5 398,-19.5 398,-0.5 360,-0.5"/>
<text text-anchor="middle" x="379" y="-7.5" font-family="Helvetica,sans-Serif" font-size="10.00">array</text>
</g>
<!-- Node13&#45;&gt;Node14 -->
<g id="edge15" class="edge"><title>Node13&#45;&gt;Node14</title>
<path fill="none" stroke="midnightblue" d="M257.395,-112.907C298.408,-103.66 344.178,-90.6027 359,-76 371.211,-63.9695 376.005,-44.6779 377.866,-30.2309"/>
<polygon fill="midnightblue" stroke="midnightblue" points="381.384,-30.1935 378.816,-19.9146 374.414,-29.5514 381.384,-30.1935"/>
</g>
<!-- Node15 -->
<g id="node15" class="node"><title>Node15</title>
<polygon fill="none" stroke="#bfbfbf" points="229.5,-56.5 229.5,-75.5 270.5,-75.5 270.5,-56.5 229.5,-56.5"/>
<text text-anchor="middle" x="250" y="-63.5" font-family="Helvetica,sans-Serif" font-size="10.00">bitset</text>
</g>
<!-- Node13&#45;&gt;Node15 -->
<g id="edge16" class="edge"><title>Node13&#45;&gt;Node15</title>
<path fill="none" stroke="midnightblue" d="M199.641,-112.781C209.627,-103.703 222.578,-91.9291 232.845,-82.5951"/>
<polygon fill="midnightblue" stroke="midnightblue" points="235.351,-85.0471 240.396,-75.7305 230.643,-79.8675 235.351,-85.0471"/>
</g>
<!-- Node16 -->
<g id="node16" class="node"><title>Node16</title>
<polygon fill="none" stroke="#bfbfbf" points="289,-56.5 289,-75.5 351,-75.5 351,-56.5 289,-56.5"/>
<text text-anchor="middle" x="320" y="-63.5" font-family="Helvetica,sans-Serif" font-size="10.00">type_traits</text>
</g>
<!-- Node13&#45;&gt;Node16 -->
<g id="edge19" class="edge"><title>Node13&#45;&gt;Node16</title>
<path fill="none" stroke="midnightblue" d="M215.886,-112.933C238.728,-102.855 269.23,-89.3986 291.31,-79.6575"/>
<polygon fill="midnightblue" stroke="midnightblue" points="292.77,-82.8387 300.507,-75.6 289.945,-76.4343 292.77,-82.8387"/>
</g>
<!-- Node17 -->
<g id="node17" class="node"><title>Node17</title>
<g id="a_node17"><a xlink:href="../../d9/d52/Common_2MathUtils_2include_2MathUtils_2Utils_8h.html" target="_top" xlink:title="MathUtils/Utils.h">
<polygon fill="none" stroke="black" points="121,-56.5 121,-75.5 211,-75.5 211,-56.5 121,-56.5"/>
<text text-anchor="middle" x="166" y="-63.5" font-family="Helvetica,sans-Serif" font-size="10.00">MathUtils/Utils.h</text>
</a>
</g>
</g>
<!-- Node13&#45;&gt;Node17 -->
<g id="edge20" class="edge"><title>Node13&#45;&gt;Node17</title>
<path fill="none" stroke="midnightblue" d="M179.734,-112.781C177.28,-104.601 174.17,-94.2341 171.53,-85.4344"/>
<polygon fill="midnightblue" stroke="midnightblue" points="174.845,-84.3031 168.619,-75.7305 168.14,-86.3145 174.845,-84.3031"/>
</g>
<!-- Node17&#45;&gt;Node14 -->
<g id="edge21" class="edge"><title>Node17&#45;&gt;Node14</title>
<path fill="none" stroke="midnightblue" d="M199.75,-56.4435C241.208,-45.9331 310.839,-28.2802 349.996,-18.3532"/>
<polygon fill="midnightblue" stroke="midnightblue" points="350.888,-21.7378 359.721,-15.8876 349.168,-14.9524 350.888,-21.7378"/>
</g>
<!-- Node18 -->
<g id="node18" class="node"><title>Node18</title>
<polygon fill="none" stroke="#bfbfbf" points="57,-0.5 57,-19.5 101,-19.5 101,-0.5 57,-0.5"/>
<text text-anchor="middle" x="79" y="-7.5" font-family="Helvetica,sans-Serif" font-size="10.00">cmath</text>
</g>
<!-- Node17&#45;&gt;Node18 -->
<g id="edge22" class="edge"><title>Node17&#45;&gt;Node18</title>
<path fill="none" stroke="midnightblue" d="M152.022,-56.324C138.45,-47.9002 117.62,-34.9709 101.675,-25.0741"/>
<polygon fill="midnightblue" stroke="midnightblue" points="103.286,-21.9544 92.9434,-19.6545 99.594,-27.9019 103.286,-21.9544"/>
</g>
<!-- Node19 -->
<g id="node19" class="node"><title>Node19</title>
<g id="a_node19"><a xlink:href="../../d6/d84/MathConstants_8h.html" target="_top" xlink:title="useful math constants ">
<polygon fill="none" stroke="black" points="119.5,-0.5 119.5,-19.5 298.5,-19.5 298.5,-0.5 119.5,-0.5"/>
<text text-anchor="middle" x="209" y="-7.5" font-family="Helvetica,sans-Serif" font-size="10.00">CommonConstants/MathConstants.h</text>
</a>
</g>
</g>
<!-- Node17&#45;&gt;Node19 -->
<g id="edge23" class="edge"><title>Node17&#45;&gt;Node19</title>
<path fill="none" stroke="midnightblue" d="M173.101,-56.083C179.237,-48.3768 188.27,-37.0333 195.739,-27.6531"/>
<polygon fill="midnightblue" stroke="midnightblue" points="198.54,-29.7542 202.032,-19.7511 193.064,-25.3936 198.54,-29.7542"/>
</g>
<!-- Node20&#45;&gt;Node6 -->
<g id="edge25" class="edge"><title>Node20&#45;&gt;Node6</title>
<path fill="none" stroke="midnightblue" d="M894.716,-180.983C914.499,-173.085 935.872,-161.244 950,-144 963.513,-127.507 968.001,-102.905 969.435,-85.9714"/>
<polygon fill="midnightblue" stroke="midnightblue" points="972.948,-85.8477 970.014,-75.6672 965.959,-85.4554 972.948,-85.8477"/>
</g>
<!-- Node21 -->
<g id="node21" class="node"><title>Node21</title>
<g id="a_node21"><a xlink:href="../../d3/d9d/PhysicsConstants_8h.html" target="_top" xlink:title="Header to collect physics constants. ">
<polygon fill="none" stroke="black" points="748.5,-118.5 748.5,-137.5 941.5,-137.5 941.5,-118.5 748.5,-118.5"/>
<text text-anchor="middle" x="845" y="-125.5" font-family="Helvetica,sans-Serif" font-size="10.00">CommonConstants/PhysicsConstants.h</text>
</a>
</g>
</g>
<!-- Node20&#45;&gt;Node21 -->
<g id="edge26" class="edge"><title>Node20&#45;&gt;Node21</title>
<path fill="none" stroke="midnightblue" d="M845,-180.679C845,-171.101 845,-158.394 845,-147.977"/>
<polygon fill="midnightblue" stroke="midnightblue" points="848.5,-147.828 845,-137.828 841.5,-147.828 848.5,-147.828"/>
</g>
<!-- Node22&#45;&gt;Node5 -->
<g id="edge38" class="edge"><title>Node22&#45;&gt;Node5</title>
<path fill="none" stroke="midnightblue" d="M1519.5,-189.6C1435.99,-182.283 1289.71,-167.383 1166,-144 1160.11,-142.886 1153.93,-141.513 1147.89,-140.054"/>
<polygon fill="midnightblue" stroke="midnightblue" points="1148.48,-136.595 1137.93,-137.549 1146.78,-143.384 1148.48,-136.595"/>
</g>
<!-- Node22&#45;&gt;Node6 -->
<g id="edge28" class="edge"><title>Node22&#45;&gt;Node6</title>
<path fill="none" stroke="midnightblue" d="M1519.15,-190.583C1423.66,-183.606 1255.03,-168.279 1199,-144 1178.43,-135.085 1180.09,-121.951 1160,-112 1110.78,-87.6248 1047.76,-76.0785 1008.12,-70.886"/>
<polygon fill="midnightblue" stroke="midnightblue" points="1008.43,-67.3983 998.078,-69.6415 1007.57,-74.3451 1008.43,-67.3983"/>
</g>
<!-- Node22&#45;&gt;Node7 -->
<g id="edge43" class="edge"><title>Node22&#45;&gt;Node7</title>
<path fill="none" stroke="midnightblue" d="M1519.39,-195.601C1417.11,-194.938 1217.7,-187.472 1055,-144 1052.5,-143.332 1049.95,-142.491 1047.43,-141.551"/>
<polygon fill="midnightblue" stroke="midnightblue" points="1048.63,-138.255 1038.05,-137.583 1045.9,-144.703 1048.63,-138.255"/>
</g>
<!-- Node22&#45;&gt;Node14 -->
<g id="edge29" class="edge"><title>Node22&#45;&gt;Node14</title>
<path fill="none" stroke="midnightblue" d="M1529.14,-186.485C1489.72,-179.072 1437.22,-165.968 1395,-144 1375.41,-133.809 1377.08,-121.185 1357,-112 1181.32,-31.6328 551.715,-14.4243 408.243,-11.5164"/>
<polygon fill="midnightblue" stroke="midnightblue" points="408.103,-8.01311 398.037,-11.3174 407.966,-15.0118 408.103,-8.01311"/>
</g>
<!-- Node23 -->
<g id="node23" class="node"><title>Node23</title>
<polygon fill="none" stroke="#bfbfbf" points="1985,-56.5 1985,-75.5 2029,-75.5 2029,-56.5 1985,-56.5"/>
<text text-anchor="middle" x="2007" y="-63.5" font-family="Helvetica,sans-Serif" font-size="10.00">vector</text>
</g>
<!-- Node22&#45;&gt;Node23 -->
<g id="edge30" class="edge"><title>Node22&#45;&gt;Node23</title>
<path fill="none" stroke="midnightblue" d="M1626.43,-186.464C1638.45,-184.094 1651.72,-181.706 1664,-180 1711.38,-173.417 2060.62,-179.21 2093,-144 2102.63,-133.531 2100.37,-124.167 2093,-112 2081.26,-92.6046 2058.1,-81.1664 2038.78,-74.6787"/>
<polygon fill="midnightblue" stroke="midnightblue" points="2039.68,-71.2966 2029.1,-71.7214 2037.64,-77.9911 2039.68,-71.2966"/>
</g>
<!-- Node24 -->
<g id="node24" class="node"><title>Node24</title>
<polygon fill="none" stroke="#bfbfbf" points="2141.5,-118.5 2141.5,-137.5 2182.5,-137.5 2182.5,-118.5 2141.5,-118.5"/>
<text text-anchor="middle" x="2162" y="-125.5" font-family="Helvetica,sans-Serif" font-size="10.00">string</text>
</g>
<!-- Node22&#45;&gt;Node24 -->
<g id="edge31" class="edge"><title>Node22&#45;&gt;Node24</title>
<path fill="none" stroke="midnightblue" d="M1626.03,-186.496C1638.15,-184.098 1651.58,-181.686 1664,-180 1868.52,-152.221 1926.58,-193.311 2127,-144 2129.83,-143.304 2132.72,-142.403 2135.57,-141.389"/>
<polygon fill="midnightblue" stroke="midnightblue" points="2136.96,-144.603 2144.94,-137.634 2134.36,-138.105 2136.96,-144.603"/>
</g>
<!-- Node25 -->
<g id="node25" class="node"><title>Node25</title>
<polygon fill="none" stroke="#bfbfbf" points="2200.5,-118.5 2200.5,-137.5 2277.5,-137.5 2277.5,-118.5 2200.5,-118.5"/>
<text text-anchor="middle" x="2239" y="-125.5" font-family="Helvetica,sans-Serif" font-size="10.00">TStopwatch.h</text>
</g>
<!-- Node22&#45;&gt;Node25 -->
<g id="edge32" class="edge"><title>Node22&#45;&gt;Node25</title>
<path fill="none" stroke="midnightblue" d="M1626.02,-186.424C1638.14,-184.023 1651.58,-181.628 1664,-180 1896.78,-149.496 1960.26,-187.311 2191,-144 2195.79,-143.101 2200.77,-141.881 2205.64,-140.523"/>
<polygon fill="midnightblue" stroke="midnightblue" points="2206.79,-143.832 2215.35,-137.599 2204.77,-137.129 2206.79,-143.832"/>
</g>
<!-- Node26 -->
<g id="node26" class="node"><title>Node26</title>
<g id="a_node26"><a xlink:href="../../d4/d78/CalibInfoTOFshort_8h.html" target="_top" xlink:title="Class to store the output of the matching to TOF for calibration (no channel info, available in CalibInfoTOF.h) ">
<polygon fill="none" stroke="black" points="1208,-113 1208,-143 1348,-143 1348,-113 1208,-113"/>
<text text-anchor="start" x="1216" y="-131" font-family="Helvetica,sans-Serif" font-size="10.00">ReconstructionDataFormats</text>
<text text-anchor="middle" x="1278" y="-120" font-family="Helvetica,sans-Serif" font-size="10.00">/CalibInfoTOFshort.h</text>
</a>
</g>
</g>
<!-- Node22&#45;&gt;Node26 -->
<g id="edge33" class="edge"><title>Node22&#45;&gt;Node26</title>
<path fill="none" stroke="midnightblue" d="M1546.92,-186.439C1498.12,-176.015 1414.66,-158.19 1353.63,-145.155"/>
<polygon fill="midnightblue" stroke="midnightblue" points="1354.17,-141.691 1343.66,-143.025 1352.71,-148.536 1354.17,-141.691"/>
</g>
<!-- Node27 -->
<g id="node27" class="node"><title>Node27</title>
<g id="a_node27"><a xlink:href="../../d8/de0/CalibLHCphaseTOF_8h.html" target="_top" xlink:title="Class to store the output of the matching to TOF for calibration. ">
<polygon fill="none" stroke="black" points="1404,-113 1404,-143 1544,-143 1544,-113 1404,-113"/>
<text text-anchor="start" x="1412" y="-131" font-family="Helvetica,sans-Serif" font-size="10.00">ReconstructionDataFormats</text>
<text text-anchor="middle" x="1474" y="-120" font-family="Helvetica,sans-Serif" font-size="10.00">/CalibLHCphaseTOF.h</text>
</a>
</g>
</g>
<!-- Node22&#45;&gt;Node27 -->
<g id="edge34" class="edge"><title>Node22&#45;&gt;Node27</title>
<path fill="none" stroke="midnightblue" d="M1572.23,-186.372C1555.79,-176.771 1528.71,-160.954 1507.14,-148.356"/>
<polygon fill="midnightblue" stroke="midnightblue" points="1508.68,-145.203 1498.28,-143.181 1505.15,-151.247 1508.68,-145.203"/>
</g>
<!-- Node28 -->
<g id="node28" class="node"><title>Node28</title>
<g id="a_node28"><a xlink:href="../../d3/d81/CalibTimeSlewingParamTOF_8h.html" target="_top" xlink:title="Class to store the output of the matching to TOF for calibration. ">
<polygon fill="none" stroke="black" points="1929.5,-113 1929.5,-143 2084.5,-143 2084.5,-113 1929.5,-113"/>
<text text-anchor="start" x="1937.5" y="-131" font-family="Helvetica,sans-Serif" font-size="10.00">ReconstructionDataFormats</text>
<text text-anchor="middle" x="2007" y="-120" font-family="Helvetica,sans-Serif" font-size="10.00">/CalibTimeSlewingParamTOF.h</text>
</a>
</g>
</g>
<!-- Node22&#45;&gt;Node28 -->
<g id="edge36" class="edge"><title>Node22&#45;&gt;Node28</title>
<path fill="none" stroke="midnightblue" d="M1628.89,-186.424C1640.26,-184.21 1652.58,-181.913 1664,-180 1774.11,-161.546 1804.76,-161.736 1919.02,-144.118"/>
<polygon fill="midnightblue" stroke="midnightblue" points="1919.89,-147.526 1929.23,-142.531 1918.81,-140.609 1919.89,-147.526"/>
</g>
<!-- Node29 -->
<g id="node29" class="node"><title>Node29</title>
<polygon fill="none" stroke="#bfbfbf" points="1562,-118.5 1562,-137.5 1612,-137.5 1612,-118.5 1562,-118.5"/>
<text text-anchor="middle" x="1587" y="-125.5" font-family="Helvetica,sans-Serif" font-size="10.00">TH1F.h</text>
</g>
<!-- Node22&#45;&gt;Node29 -->
<g id="edge39" class="edge"><title>Node22&#45;&gt;Node29</title>
<path fill="none" stroke="midnightblue" d="M1587,-186.372C1587,-176.643 1587,-160.528 1587,-147.85"/>
<polygon fill="midnightblue" stroke="midnightblue" points="1590.5,-147.841 1587,-137.841 1583.5,-147.841 1590.5,-147.841"/>
</g>
<!-- Node30 -->
<g id="node30" class="node"><title>Node30</title>
<polygon fill="none" stroke="#bfbfbf" points="1630.5,-118.5 1630.5,-137.5 1681.5,-137.5 1681.5,-118.5 1630.5,-118.5"/>
<text text-anchor="middle" x="1656" y="-125.5" font-family="Helvetica,sans-Serif" font-size="10.00">TH1D.h</text>
</g>
<!-- Node22&#45;&gt;Node30 -->
<g id="edge40" class="edge"><title>Node22&#45;&gt;Node30</title>
<path fill="none" stroke="midnightblue" d="M1596.02,-186.372C1607.01,-175.856 1625.81,-157.882 1639.43,-144.85"/>
<polygon fill="midnightblue" stroke="midnightblue" points="1641.95,-147.283 1646.76,-137.841 1637.11,-142.224 1641.95,-147.283"/>
</g>
<!-- Node31 -->
<g id="node31" class="node"><title>Node31</title>
<polygon fill="none" stroke="#bfbfbf" points="1700,-118.5 1700,-137.5 1750,-137.5 1750,-118.5 1700,-118.5"/>
<text text-anchor="middle" x="1725" y="-125.5" font-family="Helvetica,sans-Serif" font-size="10.00">TH2F.h</text>
</g>
<!-- Node22&#45;&gt;Node31 -->
<g id="edge41" class="edge"><title>Node22&#45;&gt;Node31</title>
<path fill="none" stroke="midnightblue" d="M1605.04,-186.372C1628.7,-175.057 1670.42,-155.105 1697.89,-141.968"/>
<polygon fill="midnightblue" stroke="midnightblue" points="1699.44,-145.103 1706.95,-137.63 1696.42,-138.788 1699.44,-145.103"/>
</g>
<!-- Node32 -->
<g id="node32" class="node"><title>Node32</title>
<polygon fill="none" stroke="#bfbfbf" points="1768,-118.5 1768,-137.5 1810,-137.5 1810,-118.5 1768,-118.5"/>
<text text-anchor="middle" x="1789" y="-125.5" font-family="Helvetica,sans-Serif" font-size="10.00">TF1.h</text>
</g>
<!-- Node22&#45;&gt;Node32 -->
<g id="edge42" class="edge"><title>Node22&#45;&gt;Node32</title>
<path fill="none" stroke="midnightblue" d="M1622.2,-186.498C1657.39,-177.549 1712.79,-162.24 1759,-144 1760.6,-143.368 1762.23,-142.682 1763.87,-141.963"/>
<polygon fill="midnightblue" stroke="midnightblue" points="1765.5,-145.063 1773.04,-137.626 1762.51,-138.733 1765.5,-145.063"/>
</g>
<!-- Node33 -->
<g id="node33" class="node"><title>Node33</title>
<polygon fill="none" stroke="#bfbfbf" points="1828.5,-118.5 1828.5,-137.5 1911.5,-137.5 1911.5,-118.5 1828.5,-118.5"/>
<text text-anchor="middle" x="1870" y="-125.5" font-family="Helvetica,sans-Serif" font-size="10.00">TGraphErrors.h</text>
</g>
<!-- Node22&#45;&gt;Node33 -->
<g id="edge44" class="edge"><title>Node22&#45;&gt;Node33</title>
<path fill="none" stroke="midnightblue" d="M1629.34,-186.494C1675.81,-176.963 1752.52,-160.653 1818,-144 1822.47,-142.862 1827.15,-141.608 1831.78,-140.325"/>
<polygon fill="midnightblue" stroke="midnightblue" points="1833.08,-143.593 1841.75,-137.502 1831.18,-136.857 1833.08,-143.593"/>
</g>
<!-- Node27&#45;&gt;Node23 -->
<g id="edge35" class="edge"><title>Node27&#45;&gt;Node23</title>
<path fill="none" stroke="midnightblue" d="M1544.16,-113.344C1547.14,-112.869 1550.1,-112.418 1553,-112 1710.29,-89.3186 1899.89,-74.5491 1974.55,-69.2214"/>
<polygon fill="midnightblue" stroke="midnightblue" points="1974.98,-72.6996 1984.71,-68.5041 1974.49,-65.7169 1974.98,-72.6996"/>
</g>
<!-- Node28&#45;&gt;Node23 -->
<g id="edge37" class="edge"><title>Node28&#45;&gt;Node23</title>
<path fill="none" stroke="midnightblue" d="M2007,-112.781C2007,-104.781 2007,-94.6887 2007,-86.0168"/>
<polygon fill="midnightblue" stroke="midnightblue" points="2010.5,-85.7305 2007,-75.7305 2003.5,-85.7306 2010.5,-85.7305"/>
</g>
</g>
</svg>
        <g id="navigator" transform="translate(0 0)" fill="#404254">
                <rect fill="#f2f5e9" fill-opacity="0.5" stroke="#606060" stroke-width=".5" x="0" y="0" width="60" height="60"/>
                <use id="zoomplus" xlink:href="#zoomPlus" x="17" y="9" onmousedown="handleZoom(evt,'in')"/>
                <use id="zoomminus" xlink:href="#zoomMin" x="42" y="9" onmousedown="handleZoom(evt,'out')"/>
                <use id="reset" xlink:href="#resetDef" x="30" y="36" onmousedown="handleReset()"/>
                <g id="arrowUp" xlink:href="#dirArrow" transform="translate(30 24)" onmousedown="handlePan(0,-1)">
                  <use xlink:href="#rim" fill="#404040">
                        <set attributeName="fill" to="#808080" begin="arrowUp.mouseover" end="arrowUp.mouseout"/>
                  </use>
                  <path fill="none" stroke="white" stroke-width="1.5" d="M0,-3.0v7 M-2.5,-0.5L0,-3.0L2.5,-0.5"/>
                </g>
                <g id="arrowRight" xlink:href="#dirArrow" transform="rotate(90) translate(36 -43)" onmousedown="handlePan(1,0)">
                  <use xlink:href="#rim" fill="#404040">
                        <set attributeName="fill" to="#808080" begin="arrowRight.mouseover" end="arrowRight.mouseout"/>
                  </use>
                  <path fill="none" stroke="white" stroke-width="1.5" d="M0,-3.0v7 M-2.5,-0.5L0,-3.0L2.5,-0.5"/>
                </g>
                <g id="arrowDown" xlink:href="#dirArrow" transform="rotate(180) translate(-30 -48)" onmousedown="handlePan(0,1)">
                  <use xlink:href="#rim" fill="#404040">
                        <set attributeName="fill" to="#808080" begin="arrowDown.mouseover" end="arrowDown.mouseout"/>
                  </use>
                  <path fill="none" stroke="white" stroke-width="1.5" d="M0,-3.0v7 M-2.5,-0.5L0,-3.0L2.5,-0.5"/>
                </g>
                <g id="arrowLeft" xlink:href="#dirArrow" transform="rotate(270) translate(-36 17)" onmousedown="handlePan(-1,0)">
                  <use xlink:href="#rim" fill="#404040">
                        <set attributeName="fill" to="#808080" begin="arrowLeft.mouseover" end="arrowLeft.mouseout"/>
                  </use>
                  <path fill="none" stroke="white" stroke-width="1.5" d="M0,-3.0v7 M-2.5,-0.5L0,-3.0L2.5,-0.5"/>
                </g>
        </g>
        <svg viewBox="0 0 15 15" width="100%" height="30px" preserveAspectRatio="xMaxYMin meet">
         <g id="arrow_out" transform="scale(0.3 0.3)">
          <a xlink:href="CalibTOF_8cxx__incl_org.svg" target="_base">
           <rect id="button" ry="5" rx="5" y="6" x="6" height="38" width="38"
                fill="#f2f5e9" fill-opacity="0.5" stroke="#606060" stroke-width="1.0"/>
           <path id="arrow"
             d="M 11.500037,31.436501 C 11.940474,20.09759 22.043105,11.32322 32.158766,21.979434 L 37.068811,17.246167 C 37.068811,17.246167 37.088388,32 37.088388,32 L 22.160133,31.978069 C 22.160133,31.978069 26.997745,27.140456 26.997745,27.140456 C 18.528582,18.264221 13.291696,25.230495 11.500037,31.436501 z"
             style="fill:#404040;"/>
          </a>
         </g>
        </svg>
</svg>
