<?xml version="1.0" encoding="UTF-8" standalone="no"?>
<!DOCTYPE svg PUBLIC "-//W3C//DTD SVG 1.1//EN"
 "http://www.w3.org/Graphics/SVG/1.1/DTD/svg11.dtd">
<!-- Generated by graphviz version 2.36.0 (20140111.2315)
 -->
<!-- Title: /home/travis/build/AliceO2Group/AliceO2/DataFormats/simulation/test/testBasicHits.cxx Pages: 1 -->
<!--zoomable 322 -->
<svg id="main" version="1.1" xmlns="http://www.w3.org/2000/svg" xmlns:xlink="http://www.w3.org/1999/xlink" xml:space="preserve" onload="init(evt)">
<style type="text/css"><![CDATA[
.edge:hover path { stroke: red; }
.edge:hover polygon { stroke: red; fill: red; }
]]></style>
<script type="text/javascript"><![CDATA[
var edges = document.getElementsByTagName('g');
if (edges && edges.length) {
  for (var i=0;i<edges.length;i++) {
    if (edges[i].id.substr(0,4)=='edge') {
      edges[i].setAttribute('class','edge');
    }
  }
}
]]></script>
        <defs>
                <circle id="rim" cx="0" cy="0" r="7"/>
                <circle id="rim2" cx="0" cy="0" r="3.5"/>
                <g id="zoomPlus">
                        <use xlink:href="#rim" fill="#404040">
                                <set attributeName="fill" to="#808080" begin="zoomplus.mouseover" end="zoomplus.mouseout"/>
                        </use>
                        <path d="M-4,0h8M0,-4v8" fill="none" stroke="white" stroke-width="1.5" pointer-events="none"/>
                </g>
                <g id="zoomMin">
                        <use xlink:href="#rim" fill="#404040">
                                <set attributeName="fill" to="#808080" begin="zoomminus.mouseover" end="zoomminus.mouseout"/>
                        </use>
                        <path d="M-4,0h8" fill="none" stroke="white" stroke-width="1.5" pointer-events="none"/>
                </g>
                <g id="dirArrow">
                        <path fill="none" stroke="white" stroke-width="1.5" d="M0,-3.0v7 M-2.5,-0.5L0,-3.0L2.5,-0.5"/>
                </g>
               <g id="resetDef">
                       <use xlink:href="#rim2" fill="#404040">
                               <set attributeName="fill" to="#808080" begin="reset.mouseover" end="reset.mouseout"/>
                       </use>
               </g>
        </defs>

<script type="text/javascript">
var viewWidth = 1364;
var viewHeight = 322;
var sectionId = 'dynsection-0';
</script>
<script xlink:href="../../svgpan.js"/>
<svg id="graph" class="graph">
<g id="viewport">
<title>/home/travis/build/AliceO2Group/AliceO2/DataFormats/simulation/test/testBasicHits.cxx</title>
<!-- Node1 -->
<g id="node1" class="node"><title>Node1</title>
<polygon fill="#bfbfbf" stroke="black" points="322,-261 322,-313 446,-313 446,-261 322,-261"/>
<text text-anchor="start" x="330" y="-301" font-family="Helvetica,sans-Serif" font-size="10.00">/home/travis/build</text>
<text text-anchor="start" x="330" y="-290" font-family="Helvetica,sans-Serif" font-size="10.00">/AliceO2Group/AliceO2</text>
<text text-anchor="start" x="330" y="-279" font-family="Helvetica,sans-Serif" font-size="10.00">/DataFormats/simulation</text>
<text text-anchor="middle" x="384" y="-268" font-family="Helvetica,sans-Serif" font-size="10.00">/test/testBasicHits.cxx</text>
</g>
<!-- Node2 -->
<g id="node2" class="node"><title>Node2</title>
<polygon fill="none" stroke="#bfbfbf" points="194.5,-198.5 194.5,-217.5 313.5,-217.5 313.5,-198.5 194.5,-198.5"/>
<text text-anchor="middle" x="254" y="-205.5" font-family="Helvetica,sans-Serif" font-size="10.00">boost/test/unit_test.hpp</text>
</g>
<!-- Node1&#45;&gt;Node2 -->
<g id="edge1" class="edge"><title>Node1&#45;&gt;Node2</title>
<path fill="none" stroke="midnightblue" d="M341.433,-260.787C320.19,-248.205 295.303,-233.464 277.525,-222.934"/>
<polygon fill="midnightblue" stroke="midnightblue" points="278.836,-219.643 268.448,-217.558 275.268,-225.665 278.836,-219.643"/>
</g>
<!-- Node3 -->
<g id="node3" class="node"><title>Node3</title>
<polygon fill="none" stroke="#bfbfbf" points="0,-74.5 0,-93.5 156,-93.5 156,-74.5 0,-74.5"/>
<text text-anchor="middle" x="78" y="-81.5" font-family="Helvetica,sans-Serif" font-size="10.00">Math/GenVector/Transform3D.h</text>
</g>
<!-- Node1&#45;&gt;Node3 -->
<g id="edge2" class="edge"><title>Node1&#45;&gt;Node3</title>
<path fill="none" stroke="midnightblue" d="M372.445,-260.72C361.852,-239.926 344.419,-210.902 322,-192 262.2,-141.581 174.938,-111.083 122.586,-96.1884"/>
<polygon fill="midnightblue" stroke="midnightblue" points="123.488,-92.8064 112.916,-93.5017 121.614,-99.5509 123.488,-92.8064"/>
</g>
<!-- Node4 -->
<g id="node4" class="node"><title>Node4</title>
<g id="a_node4"><a xlink:href="../../d4/d25/BaseHits_8h.html" target="_top" xlink:title="SimulationDataFormat\l/BaseHits.h">
<polygon fill="none" stroke="black" points="370,-193 370,-223 484,-223 484,-193 370,-193"/>
<text text-anchor="start" x="378" y="-211" font-family="Helvetica,sans-Serif" font-size="10.00">SimulationDataFormat</text>
<text text-anchor="middle" x="427" y="-200" font-family="Helvetica,sans-Serif" font-size="10.00">/BaseHits.h</text>
</a>
</g>
</g>
<!-- Node1&#45;&gt;Node4 -->
<g id="edge3" class="edge"><title>Node1&#45;&gt;Node4</title>
<path fill="none" stroke="midnightblue" d="M398.08,-260.787C403.243,-251.542 409.056,-241.132 414.109,-232.083"/>
<polygon fill="midnightblue" stroke="midnightblue" points="417.221,-233.689 419.041,-223.252 411.11,-230.276 417.221,-233.689"/>
</g>
<!-- Node16 -->
<g id="node16" class="node"><title>Node16</title>
<polygon fill="none" stroke="#bfbfbf" points="502.5,-198.5 502.5,-217.5 549.5,-217.5 549.5,-198.5 502.5,-198.5"/>
<text text-anchor="middle" x="526" y="-205.5" font-family="Helvetica,sans-Serif" font-size="10.00">TFile.h</text>
</g>
<!-- Node1&#45;&gt;Node16 -->
<g id="edge16" class="edge"><title>Node1&#45;&gt;Node16</title>
<path fill="none" stroke="midnightblue" d="M430.496,-260.787C454.13,-247.972 481.892,-232.918 501.374,-222.354"/>
<polygon fill="midnightblue" stroke="midnightblue" points="503.096,-225.401 510.218,-217.558 499.759,-219.248 503.096,-225.401"/>
</g>
<!-- Node5 -->
<g id="node5" class="node"><title>Node5</title>
<g id="a_node5"><a xlink:href="../../dd/d76/Cartesian3D_8h.html" target="_top" xlink:title="MathUtils/Cartesian3D.h">
<polygon fill="none" stroke="black" points="635.5,-136.5 635.5,-155.5 760.5,-155.5 760.5,-136.5 635.5,-136.5"/>
<text text-anchor="middle" x="698" y="-143.5" font-family="Helvetica,sans-Serif" font-size="10.00">MathUtils/Cartesian3D.h</text>
</a>
</g>
</g>
<!-- Node4&#45;&gt;Node5 -->
<g id="edge4" class="edge"><title>Node4&#45;&gt;Node5</title>
<path fill="none" stroke="midnightblue" d="M484.018,-194.222C487.395,-193.469 490.742,-192.724 494,-192 547.15,-180.188 608.116,-166.755 649.454,-157.664"/>
<polygon fill="midnightblue" stroke="midnightblue" points="650.248,-161.073 659.263,-155.507 648.745,-154.236 650.248,-161.073"/>
</g>
<!-- Node5&#45;&gt;Node3 -->
<g id="edge8" class="edge"><title>Node5&#45;&gt;Node3</title>
<path fill="none" stroke="midnightblue" d="M635.451,-141.479C535.683,-135.467 334.483,-121.724 165,-100 154.631,-98.671 143.612,-96.9854 133.025,-95.2276"/>
<polygon fill="midnightblue" stroke="midnightblue" points="133.488,-91.7562 123.043,-93.5295 132.314,-98.657 133.488,-91.7562"/>
</g>
<!-- Node6 -->
<g id="node6" class="node"><title>Node6</title>
<polygon fill="none" stroke="#bfbfbf" points="174.5,-69 174.5,-99 325.5,-99 325.5,-69 174.5,-69"/>
<text text-anchor="start" x="182.5" y="-87" font-family="Helvetica,sans-Serif" font-size="10.00">Math/GenVector/Displacement</text>
<text text-anchor="middle" x="250" y="-76" font-family="Helvetica,sans-Serif" font-size="10.00">Vector3D.h</text>
</g>
<!-- Node5&#45;&gt;Node6 -->
<g id="edge5" class="edge"><title>Node5&#45;&gt;Node6</title>
<path fill="none" stroke="midnightblue" d="M635.237,-138.21C564.887,-130.376 447.18,-116.604 335.596,-100.04"/>
<polygon fill="midnightblue" stroke="midnightblue" points="335.918,-96.5495 325.511,-98.5328 334.884,-103.473 335.918,-96.5495"/>
</g>
<!-- Node7 -->
<g id="node7" class="node"><title>Node7</title>
<polygon fill="none" stroke="#bfbfbf" points="344,-74.5 344,-93.5 520,-93.5 520,-74.5 344,-74.5"/>
<text text-anchor="middle" x="432" y="-81.5" font-family="Helvetica,sans-Serif" font-size="10.00">Math/GenVector/PositionVector3D.h</text>
</g>
<!-- Node5&#45;&gt;Node7 -->
<g id="edge6" class="edge"><title>Node5&#45;&gt;Node7</title>
<path fill="none" stroke="midnightblue" d="M660.171,-136.467C612.704,-125.76 531.272,-107.392 479.614,-95.74"/>
<polygon fill="midnightblue" stroke="midnightblue" points="480.223,-92.2896 469.698,-93.5034 478.683,-99.118 480.223,-92.2896"/>
</g>
<!-- Node8 -->
<g id="node8" class="node"><title>Node8</title>
<polygon fill="none" stroke="#bfbfbf" points="537.5,-74.5 537.5,-93.5 686.5,-93.5 686.5,-74.5 537.5,-74.5"/>
<text text-anchor="middle" x="612" y="-81.5" font-family="Helvetica,sans-Serif" font-size="10.00">Math/GenVector/Rotation3D.h</text>
</g>
<!-- Node5&#45;&gt;Node8 -->
<g id="edge7" class="edge"><title>Node5&#45;&gt;Node8</title>
<path fill="none" stroke="midnightblue" d="M685.678,-136.403C671.884,-126.78 649.301,-111.024 632.768,-99.4891"/>
<polygon fill="midnightblue" stroke="midnightblue" points="634.503,-96.432 624.299,-93.5806 630.497,-102.173 634.503,-96.432"/>
</g>
<!-- Node9 -->
<g id="node9" class="node"><title>Node9</title>
<polygon fill="none" stroke="#bfbfbf" points="705,-74.5 705,-93.5 865,-93.5 865,-74.5 705,-74.5"/>
<text text-anchor="middle" x="785" y="-81.5" font-family="Helvetica,sans-Serif" font-size="10.00">Math/GenVector/Translation3D.h</text>
</g>
<!-- Node5&#45;&gt;Node9 -->
<g id="edge9" class="edge"><title>Node5&#45;&gt;Node9</title>
<path fill="none" stroke="midnightblue" d="M710.465,-136.403C724.419,-126.78 747.265,-111.024 763.991,-99.4891"/>
<polygon fill="midnightblue" stroke="midnightblue" points="766.313,-102.139 772.558,-93.5806 762.339,-96.3767 766.313,-102.139"/>
</g>
<!-- Node10 -->
<g id="node10" class="node"><title>Node10</title>
<polygon fill="none" stroke="#bfbfbf" points="883,-74.5 883,-93.5 939,-93.5 939,-74.5 883,-74.5"/>
<text text-anchor="middle" x="911" y="-81.5" font-family="Helvetica,sans-Serif" font-size="10.00">Rtypes.h</text>
</g>
<!-- Node5&#45;&gt;Node10 -->
<g id="edge10" class="edge"><title>Node5&#45;&gt;Node10</title>
<path fill="none" stroke="midnightblue" d="M737.583,-136.488C773.543,-128.376 827.862,-115.174 874,-100 876.566,-99.1561 879.208,-98.2216 881.844,-97.2436"/>
<polygon fill="midnightblue" stroke="midnightblue" points="883.164,-100.485 891.213,-93.5952 880.624,-93.9624 883.164,-100.485"/>
</g>
<!-- Node11 -->
<g id="node11" class="node"><title>Node11</title>
<polygon fill="none" stroke="#bfbfbf" points="957,-74.5 957,-93.5 1033,-93.5 1033,-74.5 957,-74.5"/>
<text text-anchor="middle" x="995" y="-81.5" font-family="Helvetica,sans-Serif" font-size="10.00">TGeoMatrix.h</text>
</g>
<!-- Node5&#45;&gt;Node11 -->
<g id="edge11" class="edge"><title>Node5&#45;&gt;Node11</title>
<path fill="none" stroke="midnightblue" d="M756.793,-136.484C807.525,-128.635 882.581,-115.822 947,-100 951.197,-98.9692 955.566,-97.7762 959.882,-96.5223"/>
<polygon fill="midnightblue" stroke="midnightblue" points="961.199,-99.7806 969.756,-93.5335 959.171,-93.0808 961.199,-99.7806"/>
</g>
<!-- Node12 -->
<g id="node12" class="node"><title>Node12</title>
<polygon fill="none" stroke="#bfbfbf" points="1051.5,-74.5 1051.5,-93.5 1096.5,-93.5 1096.5,-74.5 1051.5,-74.5"/>
<text text-anchor="middle" x="1074" y="-81.5" font-family="Helvetica,sans-Serif" font-size="10.00">iosfwd</text>
</g>
<!-- Node5&#45;&gt;Node12 -->
<g id="edge12" class="edge"><title>Node5&#45;&gt;Node12</title>
<path fill="none" stroke="midnightblue" d="M760.703,-142.584C830.577,-138.569 946.316,-127.95 1042,-100 1044.29,-99.3323 1046.61,-98.5222 1048.92,-97.6284"/>
<polygon fill="midnightblue" stroke="midnightblue" points="1050.33,-100.833 1058.1,-93.6319 1047.53,-94.4146 1050.33,-100.833"/>
</g>
<!-- Node13 -->
<g id="node13" class="node"><title>Node13</title>
<g id="a_node13"><a xlink:href="../../d2/dd0/Cartesian2D_8h.html" target="_top" xlink:title="MathUtils/Cartesian2D.h">
<polygon fill="none" stroke="black" points="1114.5,-74.5 1114.5,-93.5 1239.5,-93.5 1239.5,-74.5 1114.5,-74.5"/>
<text text-anchor="middle" x="1177" y="-81.5" font-family="Helvetica,sans-Serif" font-size="10.00">MathUtils/Cartesian2D.h</text>
</a>
</g>
</g>
<!-- Node5&#45;&gt;Node13 -->
<g id="edge13" class="edge"><title>Node5&#45;&gt;Node13</title>
<path fill="none" stroke="midnightblue" d="M760.652,-139.94C840.786,-133.04 983.717,-119.294 1105,-100 1112.89,-98.7447 1121.23,-97.2068 1129.32,-95.5995"/>
<polygon fill="midnightblue" stroke="midnightblue" points="1130.29,-98.9738 1139.38,-93.5425 1128.89,-92.1155 1130.29,-98.9738"/>
</g>
<!-- Node14 -->
<g id="node14" class="node"><title>Node14</title>
<polygon fill="none" stroke="#bfbfbf" points="1010.5,-1 1010.5,-31 1161.5,-31 1161.5,-1 1010.5,-1"/>
<text text-anchor="start" x="1018.5" y="-19" font-family="Helvetica,sans-Serif" font-size="10.00">Math/GenVector/Displacement</text>
<text text-anchor="middle" x="1086" y="-8" font-family="Helvetica,sans-Serif" font-size="10.00">Vector2D.h</text>
</g>
<!-- Node13&#45;&gt;Node14 -->
<g id="edge14" class="edge"><title>Node13&#45;&gt;Node14</title>
<path fill="none" stroke="midnightblue" d="M1165.1,-74.3717C1152.22,-65.0286 1131.22,-49.7966 1114.09,-37.375"/>
<polygon fill="midnightblue" stroke="midnightblue" points="1115.7,-34.2194 1105.55,-31.1815 1111.59,-39.8859 1115.7,-34.2194"/>
</g>
<!-- Node15 -->
<g id="node15" class="node"><title>Node15</title>
<polygon fill="none" stroke="#bfbfbf" points="1180,-6.5 1180,-25.5 1356,-25.5 1356,-6.5 1180,-6.5"/>
<text text-anchor="middle" x="1268" y="-13.5" font-family="Helvetica,sans-Serif" font-size="10.00">Math/GenVector/PositionVector2D.h</text>
</g>
<!-- Node13&#45;&gt;Node15 -->
<g id="edge15" class="edge"><title>Node13&#45;&gt;Node15</title>
<path fill="none" stroke="midnightblue" d="M1188.9,-74.3717C1203.88,-63.5015 1229.86,-44.6602 1247.94,-31.5474"/>
<polygon fill="midnightblue" stroke="midnightblue" points="1250.06,-34.3349 1256.1,-25.6305 1245.95,-28.6684 1250.06,-34.3349"/>
</g>
</g>
</svg>
        <g id="navigator" transform="translate(0 0)" fill="#404254">
                <rect fill="#f2f5e9" fill-opacity="0.5" stroke="#606060" stroke-width=".5" x="0" y="0" width="60" height="60"/>
                <use id="zoomplus" xlink:href="#zoomPlus" x="17" y="9" onmousedown="handleZoom(evt,'in')"/>
                <use id="zoomminus" xlink:href="#zoomMin" x="42" y="9" onmousedown="handleZoom(evt,'out')"/>
                <use id="reset" xlink:href="#resetDef" x="30" y="36" onmousedown="handleReset()"/>
                <g id="arrowUp" xlink:href="#dirArrow" transform="translate(30 24)" onmousedown="handlePan(0,-1)">
                  <use xlink:href="#rim" fill="#404040">
                        <set attributeName="fill" to="#808080" begin="arrowUp.mouseover" end="arrowUp.mouseout"/>
                  </use>
                  <path fill="none" stroke="white" stroke-width="1.5" d="M0,-3.0v7 M-2.5,-0.5L0,-3.0L2.5,-0.5"/>
                </g>
                <g id="arrowRight" xlink:href="#dirArrow" transform="rotate(90) translate(36 -43)" onmousedown="handlePan(1,0)">
                  <use xlink:href="#rim" fill="#404040">
                        <set attributeName="fill" to="#808080" begin="arrowRight.mouseover" end="arrowRight.mouseout"/>
                  </use>
                  <path fill="none" stroke="white" stroke-width="1.5" d="M0,-3.0v7 M-2.5,-0.5L0,-3.0L2.5,-0.5"/>
                </g>
                <g id="arrowDown" xlink:href="#dirArrow" transform="rotate(180) translate(-30 -48)" onmousedown="handlePan(0,1)">
                  <use xlink:href="#rim" fill="#404040">
                        <set attributeName="fill" to="#808080" begin="arrowDown.mouseover" end="arrowDown.mouseout"/>
                  </use>
                  <path fill="none" stroke="white" stroke-width="1.5" d="M0,-3.0v7 M-2.5,-0.5L0,-3.0L2.5,-0.5"/>
                </g>
                <g id="arrowLeft" xlink:href="#dirArrow" transform="rotate(270) translate(-36 17)" onmousedown="handlePan(-1,0)">
                  <use xlink:href="#rim" fill="#404040">
                        <set attributeName="fill" to="#808080" begin="arrowLeft.mouseover" end="arrowLeft.mouseout"/>
                  </use>
                  <path fill="none" stroke="white" stroke-width="1.5" d="M0,-3.0v7 M-2.5,-0.5L0,-3.0L2.5,-0.5"/>
                </g>
        </g>
        <svg viewBox="0 0 15 15" width="100%" height="30px" preserveAspectRatio="xMaxYMin meet">
         <g id="arrow_out" transform="scale(0.3 0.3)">
          <a xlink:href="testBasicHits_8cxx__incl_org.svg" target="_base">
           <rect id="button" ry="5" rx="5" y="6" x="6" height="38" width="38"
                fill="#f2f5e9" fill-opacity="0.5" stroke="#606060" stroke-width="1.0"/>
           <path id="arrow"
             d="M 11.500037,31.436501 C 11.940474,20.09759 22.043105,11.32322 32.158766,21.979434 L 37.068811,17.246167 C 37.068811,17.246167 37.088388,32 37.088388,32 L 22.160133,31.978069 C 22.160133,31.978069 26.997745,27.140456 26.997745,27.140456 C 18.528582,18.264221 13.291696,25.230495 11.500037,31.436501 z"
             style="fill:#404040;"/>
          </a>
         </g>
        </svg>
</svg>
