<?xml version="1.0" encoding="UTF-8" standalone="no"?>
<!DOCTYPE svg PUBLIC "-//W3C//DTD SVG 1.1//EN"
 "http://www.w3.org/Graphics/SVG/1.1/DTD/svg11.dtd">
<!-- Generated by graphviz version 2.36.0 (20140111.2315)
 -->
<!-- Title: /home/travis/build/AliceO2Group/AliceO2/Detectors/ITSMFT/ITS/base/include/ITSBase/GeometryTGeo.h Pages: 1 -->
<!--zoomable 400 -->
<svg id="main" version="1.1" xmlns="http://www.w3.org/2000/svg" xmlns:xlink="http://www.w3.org/1999/xlink" xml:space="preserve" onload="init(evt)">
<style type="text/css"><![CDATA[
.edge:hover path { stroke: red; }
.edge:hover polygon { stroke: red; fill: red; }
]]></style>
<script type="text/javascript"><![CDATA[
var edges = document.getElementsByTagName('g');
if (edges && edges.length) {
  for (var i=0;i<edges.length;i++) {
    if (edges[i].id.substr(0,4)=='edge') {
      edges[i].setAttribute('class','edge');
    }
  }
}
]]></script>
        <defs>
                <circle id="rim" cx="0" cy="0" r="7"/>
                <circle id="rim2" cx="0" cy="0" r="3.5"/>
                <g id="zoomPlus">
                        <use xlink:href="#rim" fill="#404040">
                                <set attributeName="fill" to="#808080" begin="zoomplus.mouseover" end="zoomplus.mouseout"/>
                        </use>
                        <path d="M-4,0h8M0,-4v8" fill="none" stroke="white" stroke-width="1.5" pointer-events="none"/>
                </g>
                <g id="zoomMin">
                        <use xlink:href="#rim" fill="#404040">
                                <set attributeName="fill" to="#808080" begin="zoomminus.mouseover" end="zoomminus.mouseout"/>
                        </use>
                        <path d="M-4,0h8" fill="none" stroke="white" stroke-width="1.5" pointer-events="none"/>
                </g>
                <g id="dirArrow">
                        <path fill="none" stroke="white" stroke-width="1.5" d="M0,-3.0v7 M-2.5,-0.5L0,-3.0L2.5,-0.5"/>
                </g>
               <g id="resetDef">
                       <use xlink:href="#rim2" fill="#404040">
                               <set attributeName="fill" to="#808080" begin="reset.mouseover" end="reset.mouseout"/>
                       </use>
               </g>
        </defs>

<script type="text/javascript">
var viewWidth = 2262;
var viewHeight = 400;
var sectionId = 'dynsection-0';
</script>
<script xlink:href="../../svgpan.js"/>
<svg id="graph" class="graph">
<g id="viewport">
<title>/home/travis/build/AliceO2Group/AliceO2/Detectors/ITSMFT/ITS/base/include/ITSBase/GeometryTGeo.h</title>
<!-- Node1 -->
<g id="node1" class="node"><title>Node1</title>
<polygon fill="#bfbfbf" stroke="black" points="458.5,-328.5 458.5,-391.5 619.5,-391.5 619.5,-328.5 458.5,-328.5"/>
<text text-anchor="start" x="466.5" y="-379.5" font-family="Helvetica,sans-Serif" font-size="10.00">/home/travis/build</text>
<text text-anchor="start" x="466.5" y="-368.5" font-family="Helvetica,sans-Serif" font-size="10.00">/AliceO2Group/AliceO2</text>
<text text-anchor="start" x="466.5" y="-357.5" font-family="Helvetica,sans-Serif" font-size="10.00">/Detectors/ITSMFT/ITS</text>
<text text-anchor="start" x="466.5" y="-346.5" font-family="Helvetica,sans-Serif" font-size="10.00">/base/include/ITSBase/Geometry</text>
<text text-anchor="middle" x="539" y="-335.5" font-family="Helvetica,sans-Serif" font-size="10.00">TGeo.h</text>
</g>
<!-- Node2 -->
<g id="node2" class="node"><title>Node2</title>
<polygon fill="none" stroke="#bfbfbf" points="2168,-74.5 2168,-93.5 2244,-93.5 2244,-74.5 2168,-74.5"/>
<text text-anchor="middle" x="2206" y="-81.5" font-family="Helvetica,sans-Serif" font-size="10.00">TGeoMatrix.h</text>
</g>
<!-- Node1&#45;&gt;Node2 -->
<g id="edge1" class="edge"><title>Node1&#45;&gt;Node2</title>
<path fill="none" stroke="midnightblue" d="M619.766,-354.874C755.364,-347.222 1037.12,-328.213 1273,-292 1670.82,-230.925 1768.86,-202.794 2158,-100 2162.08,-98.9213 2166.34,-97.7147 2170.55,-96.467"/>
<polygon fill="midnightblue" stroke="midnightblue" points="2171.67,-99.7853 2180.22,-93.522 2169.63,-93.0894 2171.67,-99.7853"/>
</g>
<!-- Node3 -->
<g id="node3" class="node"><title>Node3</title>
<polygon fill="none" stroke="#bfbfbf" points="484.5,-210.5 484.5,-229.5 543.5,-229.5 543.5,-210.5 484.5,-210.5"/>
<text text-anchor="middle" x="514" y="-217.5" font-family="Helvetica,sans-Serif" font-size="10.00">TObject.h</text>
</g>
<!-- Node1&#45;&gt;Node3 -->
<g id="edge2" class="edge"><title>Node1&#45;&gt;Node3</title>
<path fill="none" stroke="midnightblue" d="M539.59,-328.483C539.332,-311.649 538.045,-290.474 534,-272 531.52,-260.674 526.867,-248.57 522.672,-238.997"/>
<polygon fill="midnightblue" stroke="midnightblue" points="525.783,-237.384 518.426,-229.76 519.423,-240.308 525.783,-237.384"/>
</g>
<!-- Node4 -->
<g id="node4" class="node"><title>Node4</title>
<polygon fill="none" stroke="#bfbfbf" points="398,-6.5 398,-25.5 436,-25.5 436,-6.5 398,-6.5"/>
<text text-anchor="middle" x="417" y="-13.5" font-family="Helvetica,sans-Serif" font-size="10.00">array</text>
</g>
<!-- Node1&#45;&gt;Node4 -->
<g id="edge3" class="edge"><title>Node1&#45;&gt;Node4</title>
<path fill="none" stroke="midnightblue" d="M619.545,-353.607C806.956,-339.449 1251.13,-295.811 1180,-204 1133.04,-143.377 579.669,-44.9385 445.95,-21.9221"/>
<polygon fill="midnightblue" stroke="midnightblue" points="446.476,-18.4613 436.028,-20.2204 445.293,-25.3605 446.476,-18.4613"/>
</g>
<!-- Node5 -->
<g id="node5" class="node"><title>Node5</title>
<polygon fill="none" stroke="#bfbfbf" points="425.5,-210.5 425.5,-229.5 466.5,-229.5 466.5,-210.5 425.5,-210.5"/>
<text text-anchor="middle" x="446" y="-217.5" font-family="Helvetica,sans-Serif" font-size="10.00">string</text>
</g>
<!-- Node1&#45;&gt;Node5 -->
<g id="edge4" class="edge"><title>Node1&#45;&gt;Node5</title>
<path fill="none" stroke="midnightblue" d="M528.703,-328.454C522.021,-311.022 512.271,-289.272 500,-272 490.359,-258.429 476.71,-245.576 465.546,-236.168"/>
<polygon fill="midnightblue" stroke="midnightblue" points="467.564,-233.297 457.602,-229.69 463.14,-238.722 467.564,-233.297"/>
</g>
<!-- Node6 -->
<g id="node6" class="node"><title>Node6</title>
<polygon fill="none" stroke="#bfbfbf" points="88,-142.5 88,-161.5 132,-161.5 132,-142.5 88,-142.5"/>
<text text-anchor="middle" x="110" y="-149.5" font-family="Helvetica,sans-Serif" font-size="10.00">vector</text>
</g>
<!-- Node1&#45;&gt;Node6 -->
<g id="edge5" class="edge"><title>Node1&#45;&gt;Node6</title>
<path fill="none" stroke="midnightblue" d="M458.247,-346.501C348.279,-327.718 160.126,-288.716 117,-236 102.365,-218.111 103.276,-190.207 106.025,-171.766"/>
<polygon fill="midnightblue" stroke="midnightblue" points="109.514,-172.145 107.852,-161.681 102.626,-170.897 109.514,-172.145"/>
</g>
<!-- Node7 -->
<g id="node7" class="node"><title>Node7</title>
<g id="a_node7"><a xlink:href="../../db/dcc/Detectors_2Base_2include_2DetectorsBase_2GeometryManager_8h.html" target="_top" xlink:title="DetectorsBase/GeometryManager.h">
<polygon fill="none" stroke="black" points="680.5,-272.5 680.5,-291.5 853.5,-291.5 853.5,-272.5 680.5,-272.5"/>
<text text-anchor="middle" x="767" y="-279.5" font-family="Helvetica,sans-Serif" font-size="10.00">DetectorsBase/GeometryManager.h</text>
</a>
</g>
</g>
<!-- Node1&#45;&gt;Node7 -->
<g id="edge6" class="edge"><title>Node1&#45;&gt;Node7</title>
<path fill="none" stroke="midnightblue" d="M619.705,-332.098C658.146,-319.285 702.123,-304.626 731.943,-294.686"/>
<polygon fill="midnightblue" stroke="midnightblue" points="733.104,-297.988 741.484,-291.505 730.891,-291.347 733.104,-297.988"/>
</g>
<!-- Node13 -->
<g id="node13" class="node"><title>Node13</title>
<g id="a_node13"><a xlink:href="../../d6/d31/DetID_8h.html" target="_top" xlink:title="DetectorsCommonDataFormats\l/DetID.h">
<polygon fill="none" stroke="black" points="494,-137 494,-167 650,-167 650,-137 494,-137"/>
<text text-anchor="start" x="502" y="-155" font-family="Helvetica,sans-Serif" font-size="10.00">DetectorsCommonDataFormats</text>
<text text-anchor="middle" x="572" y="-144" font-family="Helvetica,sans-Serif" font-size="10.00">/DetID.h</text>
</a>
</g>
</g>
<!-- Node1&#45;&gt;Node13 -->
<g id="edge38" class="edge"><title>Node1&#45;&gt;Node13</title>
<path fill="none" stroke="midnightblue" d="M458.318,-355.555C412.457,-348.948 358.462,-332.325 329,-292 305.927,-260.42 304.348,-234.363 329,-204 334.09,-197.73 416.513,-181.321 483.973,-168.794"/>
<polygon fill="midnightblue" stroke="midnightblue" points="484.609,-172.235 493.806,-166.975 483.336,-165.352 484.609,-172.235"/>
</g>
<!-- Node14 -->
<g id="node14" class="node"><title>Node14</title>
<polygon fill="none" stroke="#bfbfbf" points="1005,-74.5 1005,-93.5 1061,-93.5 1061,-74.5 1005,-74.5"/>
<text text-anchor="middle" x="1033" y="-81.5" font-family="Helvetica,sans-Serif" font-size="10.00">Rtypes.h</text>
</g>
<!-- Node1&#45;&gt;Node14 -->
<g id="edge50" class="edge"><title>Node1&#45;&gt;Node14</title>
<path fill="none" stroke="midnightblue" d="M619.753,-357.4C797.48,-353.042 1210.1,-338.025 1252,-292 1278.33,-263.079 1271.99,-237.616 1252,-204 1241.08,-185.63 1116.57,-124.737 1060.31,-97.8969"/>
<polygon fill="midnightblue" stroke="midnightblue" points="1061.8,-94.7297 1051.27,-93.5954 1058.79,-101.051 1061.8,-94.7297"/>
</g>
<!-- Node19 -->
<g id="node19" class="node"><title>Node19</title>
<g id="a_node19"><a xlink:href="../../d9/d52/Common_2MathUtils_2include_2MathUtils_2Utils_8h.html" target="_top" xlink:title="MathUtils/Utils.h">
<polygon fill="none" stroke="black" points="42,-74.5 42,-93.5 132,-93.5 132,-74.5 42,-74.5"/>
<text text-anchor="middle" x="87" y="-81.5" font-family="Helvetica,sans-Serif" font-size="10.00">MathUtils/Utils.h</text>
</a>
</g>
</g>
<!-- Node1&#45;&gt;Node19 -->
<g id="edge49" class="edge"><title>Node1&#45;&gt;Node19</title>
<path fill="none" stroke="midnightblue" d="M458.263,-356.449C380.54,-351.279 261.365,-336.085 168,-292 106.657,-263.036 90.0138,-234.937 79,-168 75.4098,-146.181 78.9522,-120.849 82.3937,-103.965"/>
<polygon fill="midnightblue" stroke="midnightblue" points="85.9061,-104.296 84.6712,-93.7732 79.0746,-102.769 85.9061,-104.296"/>
</g>
<!-- Node33 -->
<g id="node33" class="node"><title>Node33</title>
<g id="a_node33"><a xlink:href="../../d0/d2d/common_2base_2include_2ITSMFTBase_2GeometryTGeo_8h.html" target="_top" xlink:title="ITSMFTBase/GeometryTGeo.h">
<polygon fill="none" stroke="black" points="338.5,-272.5 338.5,-291.5 491.5,-291.5 491.5,-272.5 338.5,-272.5"/>
<text text-anchor="middle" x="415" y="-279.5" font-family="Helvetica,sans-Serif" font-size="10.00">ITSMFTBase/GeometryTGeo.h</text>
</a>
</g>
</g>
<!-- Node1&#45;&gt;Node33 -->
<g id="edge39" class="edge"><title>Node1&#45;&gt;Node33</title>
<path fill="none" stroke="midnightblue" d="M488.922,-328.307C471.167,-317.425 452.058,-305.713 437.716,-296.923"/>
<polygon fill="midnightblue" stroke="midnightblue" points="439.398,-293.848 429.043,-291.607 435.74,-299.816 439.398,-293.848"/>
</g>
<!-- Node7&#45;&gt;Node3 -->
<g id="edge12" class="edge"><title>Node7&#45;&gt;Node3</title>
<path fill="none" stroke="midnightblue" d="M719.72,-272.452C677.109,-264.362 612.905,-251.214 558,-236 554.447,-235.015 550.76,-233.904 547.101,-232.744"/>
<polygon fill="midnightblue" stroke="midnightblue" points="548.184,-229.415 537.591,-229.607 545.991,-236.063 548.184,-229.415"/>
</g>
<!-- Node7&#45;&gt;Node5 -->
<g id="edge13" class="edge"><title>Node7&#45;&gt;Node5</title>
<path fill="none" stroke="midnightblue" d="M680.327,-275.051C621.316,-269.219 542.055,-257.859 475,-236 473.141,-235.394 471.256,-234.679 469.386,-233.895"/>
<polygon fill="midnightblue" stroke="midnightblue" points="470.885,-230.732 460.351,-229.591 467.874,-237.051 470.885,-230.732"/>
</g>
<!-- Node8 -->
<g id="node8" class="node"><title>Node8</title>
<polygon fill="none" stroke="#bfbfbf" points="984,-210.5 984,-229.5 1070,-229.5 1070,-210.5 984,-210.5"/>
<text text-anchor="middle" x="1027" y="-217.5" font-family="Helvetica,sans-Serif" font-size="10.00">TGeoManager.h</text>
</g>
<!-- Node7&#45;&gt;Node8 -->
<g id="edge7" class="edge"><title>Node7&#45;&gt;Node8</title>
<path fill="none" stroke="midnightblue" d="M809.996,-272.46C851.989,-263.93 917.627,-250.091 974,-236 978.627,-234.843 983.463,-233.568 988.251,-232.264"/>
<polygon fill="midnightblue" stroke="midnightblue" points="989.229,-235.625 997.928,-229.577 987.356,-228.88 989.229,-235.625"/>
</g>
<!-- Node9 -->
<g id="node9" class="node"><title>Node9</title>
<polygon fill="none" stroke="#bfbfbf" points="1088.5,-210.5 1088.5,-229.5 1171.5,-229.5 1171.5,-210.5 1088.5,-210.5"/>
<text text-anchor="middle" x="1130" y="-217.5" font-family="Helvetica,sans-Serif" font-size="10.00">TGeoMaterial.h</text>
</g>
<!-- Node7&#45;&gt;Node9 -->
<g id="edge8" class="edge"><title>Node7&#45;&gt;Node9</title>
<path fill="none" stroke="midnightblue" d="M848.375,-272.489C911.669,-265.095 1001.47,-252.903 1079,-236 1083.82,-234.95 1088.85,-233.684 1093.79,-232.339"/>
<polygon fill="midnightblue" stroke="midnightblue" points="1095.06,-235.617 1103.72,-229.51 1093.14,-228.885 1095.06,-235.617"/>
</g>
<!-- Node10 -->
<g id="node10" class="node"><title>Node10</title>
<polygon fill="none" stroke="#bfbfbf" points="600,-210.5 600,-229.5 710,-229.5 710,-210.5 600,-210.5"/>
<text text-anchor="middle" x="655" y="-217.5" font-family="Helvetica,sans-Serif" font-size="10.00">TGeoPhysicalNode.h</text>
</g>
<!-- Node7&#45;&gt;Node10 -->
<g id="edge9" class="edge"><title>Node7&#45;&gt;Node10</title>
<path fill="none" stroke="midnightblue" d="M750.953,-272.403C732.407,-262.468 701.66,-245.997 679.978,-234.381"/>
<polygon fill="midnightblue" stroke="midnightblue" points="681.485,-231.218 671.017,-229.581 678.179,-237.388 681.485,-231.218"/>
</g>
<!-- Node11 -->
<g id="node11" class="node"><title>Node11</title>
<polygon fill="none" stroke="#bfbfbf" points="728.5,-210.5 728.5,-229.5 805.5,-229.5 805.5,-210.5 728.5,-210.5"/>
<text text-anchor="middle" x="767" y="-217.5" font-family="Helvetica,sans-Serif" font-size="10.00">TGeoShape.h</text>
</g>
<!-- Node7&#45;&gt;Node11 -->
<g id="edge10" class="edge"><title>Node7&#45;&gt;Node11</title>
<path fill="none" stroke="midnightblue" d="M767,-272.403C767,-263.938 767,-250.728 767,-239.82"/>
<polygon fill="midnightblue" stroke="midnightblue" points="770.5,-239.581 767,-229.581 763.5,-239.581 770.5,-239.581"/>
</g>
<!-- Node12 -->
<g id="node12" class="node"><title>Node12</title>
<polygon fill="none" stroke="#bfbfbf" points="823.5,-210.5 823.5,-229.5 876.5,-229.5 876.5,-210.5 823.5,-210.5"/>
<text text-anchor="middle" x="850" y="-217.5" font-family="Helvetica,sans-Serif" font-size="10.00">TMath.h</text>
</g>
<!-- Node7&#45;&gt;Node12 -->
<g id="edge11" class="edge"><title>Node7&#45;&gt;Node12</title>
<path fill="none" stroke="midnightblue" d="M778.892,-272.403C792.205,-262.78 814,-247.024 829.957,-235.489"/>
<polygon fill="midnightblue" stroke="midnightblue" points="832.076,-238.276 838.13,-229.581 827.975,-232.603 832.076,-238.276"/>
</g>
<!-- Node7&#45;&gt;Node13 -->
<g id="edge14" class="edge"><title>Node7&#45;&gt;Node13</title>
<path fill="none" stroke="midnightblue" d="M707.251,-272.5C662.813,-264.971 607.183,-252.597 591,-236 575.903,-220.517 571.856,-195.626 571.16,-177.135"/>
<polygon fill="midnightblue" stroke="midnightblue" points="574.659,-177.078 571.079,-167.107 567.66,-177.135 574.659,-177.078"/>
</g>
<!-- Node22 -->
<g id="node22" class="node"><title>Node22</title>
<polygon fill="none" stroke="#bfbfbf" points="894.5,-210.5 894.5,-229.5 965.5,-229.5 965.5,-210.5 894.5,-210.5"/>
<text text-anchor="middle" x="930" y="-217.5" font-family="Helvetica,sans-Serif" font-size="10.00">FairLogger.h</text>
</g>
<!-- Node7&#45;&gt;Node22 -->
<g id="edge25" class="edge"><title>Node7&#45;&gt;Node22</title>
<path fill="none" stroke="midnightblue" d="M790.354,-272.403C818.314,-262.111 865.326,-244.806 896.991,-233.15"/>
<polygon fill="midnightblue" stroke="midnightblue" points="898.514,-236.32 906.689,-229.581 896.096,-229.75 898.514,-236.32"/>
</g>
<!-- Node23 -->
<g id="node23" class="node"><title>Node23</title>
<g id="a_node23"><a xlink:href="../../dd/d76/Cartesian3D_8h.html" target="_top" xlink:title="MathUtils/Cartesian3D.h">
<polygon fill="none" stroke="black" points="1391.5,-142.5 1391.5,-161.5 1516.5,-161.5 1516.5,-142.5 1391.5,-142.5"/>
<text text-anchor="middle" x="1454" y="-149.5" font-family="Helvetica,sans-Serif" font-size="10.00">MathUtils/Cartesian3D.h</text>
</a>
</g>
</g>
<!-- Node7&#45;&gt;Node23 -->
<g id="edge26" class="edge"><title>Node7&#45;&gt;Node23</title>
<path fill="none" stroke="midnightblue" d="M853.543,-276.257C937.608,-270.552 1068.52,-258.753 1180,-236 1269.03,-217.829 1370.63,-183.284 1421.45,-165.017"/>
<polygon fill="midnightblue" stroke="midnightblue" points="1422.71,-168.285 1430.92,-161.59 1420.32,-161.703 1422.71,-168.285"/>
</g>
<!-- Node13&#45;&gt;Node4 -->
<g id="edge16" class="edge"><title>Node13&#45;&gt;Node4</title>
<path fill="none" stroke="midnightblue" d="M596.226,-136.807C621.505,-120.205 655.007,-91.942 636,-68 612.619,-38.5479 500.398,-24.541 446.295,-19.4126"/>
<polygon fill="midnightblue" stroke="midnightblue" points="446.568,-15.9231 436.293,-18.5033 445.935,-22.8944 446.568,-15.9231"/>
</g>
<!-- Node13&#45;&gt;Node14 -->
<g id="edge15" class="edge"><title>Node13&#45;&gt;Node14</title>
<path fill="none" stroke="midnightblue" d="M650.202,-139.804C750.181,-125.49 919.351,-101.271 994.752,-90.4758"/>
<polygon fill="midnightblue" stroke="midnightblue" points="995.349,-93.9261 1004.75,-89.0441 994.357,-86.9967 995.349,-93.9261"/>
</g>
<!-- Node15 -->
<g id="node15" class="node"><title>Node15</title>
<polygon fill="none" stroke="#bfbfbf" points="586.5,-74.5 586.5,-93.5 627.5,-93.5 627.5,-74.5 586.5,-74.5"/>
<text text-anchor="middle" x="607" y="-81.5" font-family="Helvetica,sans-Serif" font-size="10.00">bitset</text>
</g>
<!-- Node13&#45;&gt;Node15 -->
<g id="edge17" class="edge"><title>Node13&#45;&gt;Node15</title>
<path fill="none" stroke="midnightblue" d="M579.594,-136.679C584.836,-126.796 591.844,-113.579 597.462,-102.986"/>
<polygon fill="midnightblue" stroke="midnightblue" points="600.725,-104.303 602.318,-93.8283 594.541,-101.023 600.725,-104.303"/>
</g>
<!-- Node16 -->
<g id="node16" class="node"><title>Node16</title>
<polygon fill="none" stroke="#bfbfbf" points="374.5,-74.5 374.5,-93.5 423.5,-93.5 423.5,-74.5 374.5,-74.5"/>
<text text-anchor="middle" x="399" y="-81.5" font-family="Helvetica,sans-Serif" font-size="10.00">cassert</text>
</g>
<!-- Node13&#45;&gt;Node16 -->
<g id="edge18" class="edge"><title>Node13&#45;&gt;Node16</title>
<path fill="none" stroke="midnightblue" d="M531.595,-136.944C503.717,-127.058 465.895,-113.275 433,-100 431.16,-99.2576 429.272,-98.477 427.373,-97.6783"/>
<polygon fill="midnightblue" stroke="midnightblue" points="428.539,-94.3695 417.97,-93.625 425.768,-100.798 428.539,-94.3695"/>
</g>
<!-- Node17 -->
<g id="node17" class="node"><title>Node17</title>
<polygon fill="none" stroke="#bfbfbf" points="442,-74.5 442,-93.5 488,-93.5 488,-74.5 442,-74.5"/>
<text text-anchor="middle" x="465" y="-81.5" font-family="Helvetica,sans-Serif" font-size="10.00">cstdint</text>
</g>
<!-- Node13&#45;&gt;Node17 -->
<g id="edge19" class="edge"><title>Node13&#45;&gt;Node17</title>
<path fill="none" stroke="midnightblue" d="M549.046,-136.841C530.953,-125.681 505.851,-110.198 487.798,-99.0625"/>
<polygon fill="midnightblue" stroke="midnightblue" points="489.424,-95.9529 479.075,-93.6819 485.749,-101.911 489.424,-95.9529"/>
</g>
<!-- Node18 -->
<g id="node18" class="node"><title>Node18</title>
<polygon fill="none" stroke="#bfbfbf" points="506,-74.5 506,-93.5 568,-93.5 568,-74.5 506,-74.5"/>
<text text-anchor="middle" x="537" y="-81.5" font-family="Helvetica,sans-Serif" font-size="10.00">type_traits</text>
</g>
<!-- Node13&#45;&gt;Node18 -->
<g id="edge20" class="edge"><title>Node13&#45;&gt;Node18</title>
<path fill="none" stroke="midnightblue" d="M564.406,-136.679C559.164,-126.796 552.156,-113.579 546.538,-102.986"/>
<polygon fill="midnightblue" stroke="midnightblue" points="549.459,-101.023 541.682,-93.8283 543.275,-104.303 549.459,-101.023"/>
</g>
<!-- Node13&#45;&gt;Node19 -->
<g id="edge21" class="edge"><title>Node13&#45;&gt;Node19</title>
<path fill="none" stroke="midnightblue" d="M493.771,-137.348C490.811,-136.884 487.88,-136.433 485,-136 362.866,-117.655 219.012,-100.259 142.099,-91.2962"/>
<polygon fill="midnightblue" stroke="midnightblue" points="142.489,-87.818 132.152,-90.1406 141.681,-94.7713 142.489,-87.818"/>
</g>
<!-- Node19&#45;&gt;Node4 -->
<g id="edge22" class="edge"><title>Node19&#45;&gt;Node4</title>
<path fill="none" stroke="midnightblue" d="M119.064,-74.4576C127.777,-72.2433 137.228,-69.9385 146,-68 233.538,-48.6555 338.014,-30.3229 387.81,-21.8724"/>
<polygon fill="midnightblue" stroke="midnightblue" points="388.582,-25.2917 397.86,-20.1754 387.416,-18.3894 388.582,-25.2917"/>
</g>
<!-- Node20 -->
<g id="node20" class="node"><title>Node20</title>
<polygon fill="none" stroke="#bfbfbf" points="0,-6.5 0,-25.5 44,-25.5 44,-6.5 0,-6.5"/>
<text text-anchor="middle" x="22" y="-13.5" font-family="Helvetica,sans-Serif" font-size="10.00">cmath</text>
</g>
<!-- Node19&#45;&gt;Node20 -->
<g id="edge23" class="edge"><title>Node19&#45;&gt;Node20</title>
<path fill="none" stroke="midnightblue" d="M78.5024,-74.3717C68.2433,-63.9547 50.7746,-46.2173 37.9705,-33.2162"/>
<polygon fill="midnightblue" stroke="midnightblue" points="40.2178,-30.5101 30.7072,-25.8411 35.2304,-35.4219 40.2178,-30.5101"/>
</g>
<!-- Node21 -->
<g id="node21" class="node"><title>Node21</title>
<g id="a_node21"><a xlink:href="../../d6/d84/MathConstants_8h.html" target="_top" xlink:title="useful math constants ">
<polygon fill="none" stroke="black" points="62.5,-6.5 62.5,-25.5 241.5,-25.5 241.5,-6.5 62.5,-6.5"/>
<text text-anchor="middle" x="152" y="-13.5" font-family="Helvetica,sans-Serif" font-size="10.00">CommonConstants/MathConstants.h</text>
</a>
</g>
</g>
<!-- Node19&#45;&gt;Node21 -->
<g id="edge24" class="edge"><title>Node19&#45;&gt;Node21</title>
<path fill="none" stroke="midnightblue" d="M95.4976,-74.3717C105.757,-63.9547 123.225,-46.2173 136.029,-33.2162"/>
<polygon fill="midnightblue" stroke="midnightblue" points="138.77,-35.4219 143.293,-25.8411 133.782,-30.5101 138.77,-35.4219"/>
</g>
<!-- Node23&#45;&gt;Node2 -->
<g id="edge33" class="edge"><title>Node23&#45;&gt;Node2</title>
<path fill="none" stroke="midnightblue" d="M1516.59,-148.318C1665.18,-141.651 2035.88,-123.183 2158,-100 2162.79,-99.0912 2167.77,-97.8657 2172.63,-96.5048"/>
<polygon fill="midnightblue" stroke="midnightblue" points="2173.78,-99.8137 2182.35,-93.5792 2171.76,-93.1109 2173.78,-99.8137"/>
</g>
<!-- Node23&#45;&gt;Node14 -->
<g id="edge32" class="edge"><title>Node23&#45;&gt;Node14</title>
<path fill="none" stroke="midnightblue" d="M1391.12,-144.602C1298.29,-134.825 1129.16,-115.65 1070,-100 1067.01,-99.2101 1063.95,-98.2407 1060.92,-97.1782"/>
<polygon fill="midnightblue" stroke="midnightblue" points="1062.1,-93.8834 1051.51,-93.5729 1059.59,-100.42 1062.1,-93.8834"/>
</g>
<!-- Node24 -->
<g id="node24" class="node"><title>Node24</title>
<polygon fill="none" stroke="#bfbfbf" points="1494.5,-69 1494.5,-99 1645.5,-99 1645.5,-69 1494.5,-69"/>
<text text-anchor="start" x="1502.5" y="-87" font-family="Helvetica,sans-Serif" font-size="10.00">Math/GenVector/Displacement</text>
<text text-anchor="middle" x="1570" y="-76" font-family="Helvetica,sans-Serif" font-size="10.00">Vector3D.h</text>
</g>
<!-- Node23&#45;&gt;Node24 -->
<g id="edge27" class="edge"><title>Node23&#45;&gt;Node24</title>
<path fill="none" stroke="midnightblue" d="M1469.16,-142.372C1486.11,-132.729 1514.09,-116.812 1536.28,-104.187"/>
<polygon fill="midnightblue" stroke="midnightblue" points="1538.11,-107.169 1545.08,-99.1815 1534.65,-101.085 1538.11,-107.169"/>
</g>
<!-- Node25 -->
<g id="node25" class="node"><title>Node25</title>
<polygon fill="none" stroke="#bfbfbf" points="1664,-74.5 1664,-93.5 1840,-93.5 1840,-74.5 1664,-74.5"/>
<text text-anchor="middle" x="1752" y="-81.5" font-family="Helvetica,sans-Serif" font-size="10.00">Math/GenVector/PositionVector3D.h</text>
</g>
<!-- Node23&#45;&gt;Node25 -->
<g id="edge28" class="edge"><title>Node23&#45;&gt;Node25</title>
<path fill="none" stroke="midnightblue" d="M1492.65,-142.439C1546.69,-130.471 1644.79,-108.744 1703.62,-95.7158"/>
<polygon fill="midnightblue" stroke="midnightblue" points="1704.41,-99.1252 1713.42,-93.5455 1702.9,-92.2908 1704.41,-99.1252"/>
</g>
<!-- Node26 -->
<g id="node26" class="node"><title>Node26</title>
<polygon fill="none" stroke="#bfbfbf" points="1857.5,-74.5 1857.5,-93.5 2006.5,-93.5 2006.5,-74.5 1857.5,-74.5"/>
<text text-anchor="middle" x="1932" y="-81.5" font-family="Helvetica,sans-Serif" font-size="10.00">Math/GenVector/Rotation3D.h</text>
</g>
<!-- Node23&#45;&gt;Node26 -->
<g id="edge29" class="edge"><title>Node23&#45;&gt;Node26</title>
<path fill="none" stroke="midnightblue" d="M1516.57,-143.84C1594.39,-134.719 1731.26,-117.968 1848,-100 1857.14,-98.5933 1866.82,-96.9807 1876.22,-95.3464"/>
<polygon fill="midnightblue" stroke="midnightblue" points="1877.05,-98.7551 1886.29,-93.5731 1875.84,-91.8612 1877.05,-98.7551"/>
</g>
<!-- Node27 -->
<g id="node27" class="node"><title>Node27</title>
<polygon fill="none" stroke="#bfbfbf" points="1079,-74.5 1079,-93.5 1235,-93.5 1235,-74.5 1079,-74.5"/>
<text text-anchor="middle" x="1157" y="-81.5" font-family="Helvetica,sans-Serif" font-size="10.00">Math/GenVector/Transform3D.h</text>
</g>
<!-- Node23&#45;&gt;Node27 -->
<g id="edge30" class="edge"><title>Node23&#45;&gt;Node27</title>
<path fill="none" stroke="midnightblue" d="M1415.48,-142.439C1361.62,-130.471 1263.85,-108.744 1205.22,-95.7158"/>
<polygon fill="midnightblue" stroke="midnightblue" points="1205.98,-92.2982 1195.45,-93.5455 1204.46,-99.1316 1205.98,-92.2982"/>
</g>
<!-- Node28 -->
<g id="node28" class="node"><title>Node28</title>
<polygon fill="none" stroke="#bfbfbf" points="1253,-74.5 1253,-93.5 1413,-93.5 1413,-74.5 1253,-74.5"/>
<text text-anchor="middle" x="1333" y="-81.5" font-family="Helvetica,sans-Serif" font-size="10.00">Math/GenVector/Translation3D.h</text>
</g>
<!-- Node23&#45;&gt;Node28 -->
<g id="edge31" class="edge"><title>Node23&#45;&gt;Node28</title>
<path fill="none" stroke="midnightblue" d="M1438.18,-142.372C1417.71,-131.205 1381.82,-111.627 1357.73,-98.4876"/>
<polygon fill="midnightblue" stroke="midnightblue" points="1359.28,-95.3464 1348.82,-93.6305 1355.93,-101.492 1359.28,-95.3464"/>
</g>
<!-- Node29 -->
<g id="node29" class="node"><title>Node29</title>
<polygon fill="none" stroke="#bfbfbf" points="1431.5,-74.5 1431.5,-93.5 1476.5,-93.5 1476.5,-74.5 1431.5,-74.5"/>
<text text-anchor="middle" x="1454" y="-81.5" font-family="Helvetica,sans-Serif" font-size="10.00">iosfwd</text>
</g>
<!-- Node23&#45;&gt;Node29 -->
<g id="edge34" class="edge"><title>Node23&#45;&gt;Node29</title>
<path fill="none" stroke="midnightblue" d="M1454,-142.372C1454,-132.643 1454,-116.528 1454,-103.85"/>
<polygon fill="midnightblue" stroke="midnightblue" points="1457.5,-103.841 1454,-93.8411 1450.5,-103.841 1457.5,-103.841"/>
</g>
<!-- Node30 -->
<g id="node30" class="node"><title>Node30</title>
<g id="a_node30"><a xlink:href="../../d2/dd0/Cartesian2D_8h.html" target="_top" xlink:title="MathUtils/Cartesian2D.h">
<polygon fill="none" stroke="black" points="2024.5,-74.5 2024.5,-93.5 2149.5,-93.5 2149.5,-74.5 2024.5,-74.5"/>
<text text-anchor="middle" x="2087" y="-81.5" font-family="Helvetica,sans-Serif" font-size="10.00">MathUtils/Cartesian2D.h</text>
</a>
</g>
</g>
<!-- Node23&#45;&gt;Node30 -->
<g id="edge35" class="edge"><title>Node23&#45;&gt;Node30</title>
<path fill="none" stroke="midnightblue" d="M1516.54,-147.664C1620.46,-141.594 1835.09,-126.828 2015,-100 2023.17,-98.7817 2031.81,-97.2211 2040.16,-95.5692"/>
<polygon fill="midnightblue" stroke="midnightblue" points="2041.05,-98.9589 2050.15,-93.5257 2039.65,-92.101 2041.05,-98.9589"/>
</g>
<!-- Node31 -->
<g id="node31" class="node"><title>Node31</title>
<polygon fill="none" stroke="#bfbfbf" points="2102.5,-1 2102.5,-31 2253.5,-31 2253.5,-1 2102.5,-1"/>
<text text-anchor="start" x="2110.5" y="-19" font-family="Helvetica,sans-Serif" font-size="10.00">Math/GenVector/Displacement</text>
<text text-anchor="middle" x="2178" y="-8" font-family="Helvetica,sans-Serif" font-size="10.00">Vector2D.h</text>
</g>
<!-- Node30&#45;&gt;Node31 -->
<g id="edge36" class="edge"><title>Node30&#45;&gt;Node31</title>
<path fill="none" stroke="midnightblue" d="M2098.9,-74.3717C2111.78,-65.0286 2132.78,-49.7966 2149.91,-37.375"/>
<polygon fill="midnightblue" stroke="midnightblue" points="2152.41,-39.8859 2158.45,-31.1815 2148.3,-34.2194 2152.41,-39.8859"/>
</g>
<!-- Node32 -->
<g id="node32" class="node"><title>Node32</title>
<polygon fill="none" stroke="#bfbfbf" points="1908,-6.5 1908,-25.5 2084,-25.5 2084,-6.5 1908,-6.5"/>
<text text-anchor="middle" x="1996" y="-13.5" font-family="Helvetica,sans-Serif" font-size="10.00">Math/GenVector/PositionVector2D.h</text>
</g>
<!-- Node30&#45;&gt;Node32 -->
<g id="edge37" class="edge"><title>Node30&#45;&gt;Node32</title>
<path fill="none" stroke="midnightblue" d="M2075.1,-74.3717C2060.12,-63.5015 2034.14,-44.6602 2016.06,-31.5474"/>
<polygon fill="midnightblue" stroke="midnightblue" points="2018.05,-28.6684 2007.9,-25.6305 2013.94,-34.3349 2018.05,-28.6684"/>
</g>
<!-- Node33&#45;&gt;Node5 -->
<g id="edge41" class="edge"><title>Node33&#45;&gt;Node5</title>
<path fill="none" stroke="midnightblue" d="M419.442,-272.403C423.953,-263.671 431.074,-249.889 436.807,-238.794"/>
<polygon fill="midnightblue" stroke="midnightblue" points="440.086,-240.071 441.567,-229.581 433.867,-236.858 440.086,-240.071"/>
</g>
<!-- Node34 -->
<g id="node34" class="node"><title>Node34</title>
<polygon fill="none" stroke="#bfbfbf" points="338.5,-210.5 338.5,-229.5 407.5,-229.5 407.5,-210.5 338.5,-210.5"/>
<text text-anchor="middle" x="373" y="-217.5" font-family="Helvetica,sans-Serif" font-size="10.00">TObjArray.h</text>
</g>
<!-- Node33&#45;&gt;Node34 -->
<g id="edge40" class="edge"><title>Node33&#45;&gt;Node34</title>
<path fill="none" stroke="midnightblue" d="M408.982,-272.403C402.682,-263.403 392.629,-249.041 384.748,-237.782"/>
<polygon fill="midnightblue" stroke="midnightblue" points="387.608,-235.766 379.006,-229.581 381.874,-239.78 387.608,-235.766"/>
</g>
<!-- Node35 -->
<g id="node35" class="node"><title>Node35</title>
<g id="a_node35"><a xlink:href="../../d4/d20/DetMatrixCache_8h.html" target="_top" xlink:title="DetectorsCommonDataFormats\l/DetMatrixCache.h">
<polygon fill="none" stroke="black" points="126,-205 126,-235 282,-235 282,-205 126,-205"/>
<text text-anchor="start" x="134" y="-223" font-family="Helvetica,sans-Serif" font-size="10.00">DetectorsCommonDataFormats</text>
<text text-anchor="middle" x="204" y="-212" font-family="Helvetica,sans-Serif" font-size="10.00">/DetMatrixCache.h</text>
</a>
</g>
</g>
<!-- Node33&#45;&gt;Node35 -->
<g id="edge42" class="edge"><title>Node33&#45;&gt;Node35</title>
<path fill="none" stroke="midnightblue" d="M384.769,-272.403C353.149,-263.412 302.707,-249.068 263.132,-237.815"/>
<polygon fill="midnightblue" stroke="midnightblue" points="263.898,-234.394 253.322,-235.025 261.984,-241.127 263.898,-234.394"/>
</g>
<!-- Node35&#45;&gt;Node4 -->
<g id="edge45" class="edge"><title>Node35&#45;&gt;Node4</title>
<path fill="none" stroke="midnightblue" d="M193.087,-204.865C181.17,-187.57 165.471,-157.891 179,-136 225.352,-61.0008 334.87,-31.6884 387.61,-21.6263"/>
<polygon fill="midnightblue" stroke="midnightblue" points="388.443,-25.0326 397.663,-19.8122 387.2,-18.1439 388.443,-25.0326"/>
</g>
<!-- Node35&#45;&gt;Node6 -->
<g id="edge46" class="edge"><title>Node35&#45;&gt;Node6</title>
<path fill="none" stroke="midnightblue" d="M183.603,-204.679C167.986,-193.713 146.525,-178.645 130.806,-167.609"/>
<polygon fill="midnightblue" stroke="midnightblue" points="132.498,-164.52 122.302,-161.638 128.475,-170.249 132.498,-164.52"/>
</g>
<!-- Node35&#45;&gt;Node13 -->
<g id="edge47" class="edge"><title>Node35&#45;&gt;Node13</title>
<path fill="none" stroke="midnightblue" d="M282.043,-205.003C341.101,-194.411 422.25,-179.857 483.683,-168.839"/>
<polygon fill="midnightblue" stroke="midnightblue" points="484.528,-172.244 493.753,-167.033 483.292,-165.354 484.528,-172.244"/>
</g>
<!-- Node35&#45;&gt;Node23 -->
<g id="edge48" class="edge"><title>Node35&#45;&gt;Node23</title>
<path fill="none" stroke="midnightblue" d="M282.259,-208.706C297.729,-206.927 313.861,-205.25 329,-204 725.376,-171.278 1202.18,-158.357 1381.3,-154.429"/>
<polygon fill="midnightblue" stroke="midnightblue" points="1381.47,-157.926 1391.39,-154.211 1381.32,-150.928 1381.47,-157.926"/>
</g>
<!-- Node36 -->
<g id="node36" class="node"><title>Node36</title>
<polygon fill="none" stroke="#bfbfbf" points="334,-142.5 334,-161.5 476,-161.5 476,-142.5 334,-142.5"/>
<text text-anchor="middle" x="405" y="-149.5" font-family="Helvetica,sans-Serif" font-size="10.00">AliTPCCommonFairLogger.h</text>
</g>
<!-- Node35&#45;&gt;Node36 -->
<g id="edge43" class="edge"><title>Node35&#45;&gt;Node36</title>
<path fill="none" stroke="midnightblue" d="M247.12,-204.841C283.551,-192.879 335.11,-175.949 369.272,-164.731"/>
<polygon fill="midnightblue" stroke="midnightblue" points="370.44,-168.032 378.849,-161.587 368.256,-161.381 370.44,-168.032"/>
</g>
<!-- Node37 -->
<g id="node37" class="node"><title>Node37</title>
<polygon fill="none" stroke="#bfbfbf" points="188,-142.5 188,-161.5 316,-161.5 316,-142.5 188,-142.5"/>
<text text-anchor="middle" x="252" y="-149.5" font-family="Helvetica,sans-Serif" font-size="10.00">AliTPCCommonRtypes.h</text>
</g>
<!-- Node35&#45;&gt;Node37 -->
<g id="edge44" class="edge"><title>Node35&#45;&gt;Node37</title>
<path fill="none" stroke="midnightblue" d="M214.415,-204.679C221.825,-194.49 231.812,-180.759 239.628,-170.011"/>
<polygon fill="midnightblue" stroke="midnightblue" points="242.528,-171.974 245.579,-161.828 236.867,-167.857 242.528,-171.974"/>
</g>
</g>
</svg>
        <g id="navigator" transform="translate(0 0)" fill="#404254">
                <rect fill="#f2f5e9" fill-opacity="0.5" stroke="#606060" stroke-width=".5" x="0" y="0" width="60" height="60"/>
                <use id="zoomplus" xlink:href="#zoomPlus" x="17" y="9" onmousedown="handleZoom(evt,'in')"/>
                <use id="zoomminus" xlink:href="#zoomMin" x="42" y="9" onmousedown="handleZoom(evt,'out')"/>
                <use id="reset" xlink:href="#resetDef" x="30" y="36" onmousedown="handleReset()"/>
                <g id="arrowUp" xlink:href="#dirArrow" transform="translate(30 24)" onmousedown="handlePan(0,-1)">
                  <use xlink:href="#rim" fill="#404040">
                        <set attributeName="fill" to="#808080" begin="arrowUp.mouseover" end="arrowUp.mouseout"/>
                  </use>
                  <path fill="none" stroke="white" stroke-width="1.5" d="M0,-3.0v7 M-2.5,-0.5L0,-3.0L2.5,-0.5"/>
                </g>
                <g id="arrowRight" xlink:href="#dirArrow" transform="rotate(90) translate(36 -43)" onmousedown="handlePan(1,0)">
                  <use xlink:href="#rim" fill="#404040">
                        <set attributeName="fill" to="#808080" begin="arrowRight.mouseover" end="arrowRight.mouseout"/>
                  </use>
                  <path fill="none" stroke="white" stroke-width="1.5" d="M0,-3.0v7 M-2.5,-0.5L0,-3.0L2.5,-0.5"/>
                </g>
                <g id="arrowDown" xlink:href="#dirArrow" transform="rotate(180) translate(-30 -48)" onmousedown="handlePan(0,1)">
                  <use xlink:href="#rim" fill="#404040">
                        <set attributeName="fill" to="#808080" begin="arrowDown.mouseover" end="arrowDown.mouseout"/>
                  </use>
                  <path fill="none" stroke="white" stroke-width="1.5" d="M0,-3.0v7 M-2.5,-0.5L0,-3.0L2.5,-0.5"/>
                </g>
                <g id="arrowLeft" xlink:href="#dirArrow" transform="rotate(270) translate(-36 17)" onmousedown="handlePan(-1,0)">
                  <use xlink:href="#rim" fill="#404040">
                        <set attributeName="fill" to="#808080" begin="arrowLeft.mouseover" end="arrowLeft.mouseout"/>
                  </use>
                  <path fill="none" stroke="white" stroke-width="1.5" d="M0,-3.0v7 M-2.5,-0.5L0,-3.0L2.5,-0.5"/>
                </g>
        </g>
        <svg viewBox="0 0 15 15" width="100%" height="30px" preserveAspectRatio="xMaxYMin meet">
         <g id="arrow_out" transform="scale(0.3 0.3)">
          <a xlink:href="ITS_2base_2include_2ITSBase_2GeometryTGeo_8h__incl_org.svg" target="_base">
           <rect id="button" ry="5" rx="5" y="6" x="6" height="38" width="38"
                fill="#f2f5e9" fill-opacity="0.5" stroke="#606060" stroke-width="1.0"/>
           <path id="arrow"
             d="M 11.500037,31.436501 C 11.940474,20.09759 22.043105,11.32322 32.158766,21.979434 L 37.068811,17.246167 C 37.068811,17.246167 37.088388,32 37.088388,32 L 22.160133,31.978069 C 22.160133,31.978069 26.997745,27.140456 26.997745,27.140456 C 18.528582,18.264221 13.291696,25.230495 11.500037,31.436501 z"
             style="fill:#404040;"/>
          </a>
         </g>
        </svg>
</svg>
