<?xml version="1.0" encoding="UTF-8" standalone="no"?>
<!DOCTYPE svg PUBLIC "-//W3C//DTD SVG 1.1//EN"
 "http://www.w3.org/Graphics/SVG/1.1/DTD/svg11.dtd">
<!-- Generated by graphviz version 2.36.0 (20140111.2315)
 -->
<!-- Title: /home/travis/build/AliceO2Group/AliceO2/DataFormats/Detectors/MUON/MID/include/DataFormatsMID/Cluster3D.h Pages: 1 -->
<svg width="1363pt" height="264pt"
 viewBox="0.00 0.00 1363.00 264.00" xmlns="http://www.w3.org/2000/svg" xmlns:xlink="http://www.w3.org/1999/xlink">
<g id="graph0" class="graph" transform="scale(1 1) rotate(0) translate(4 260)">
<title>/home/travis/build/AliceO2Group/AliceO2/DataFormats/Detectors/MUON/MID/include/DataFormatsMID/Cluster3D.h</title>
<!-- Node1 -->
<g id="node1" class="node"><title>Node1</title>
<polygon fill="#bfbfbf" stroke="black" points="639.5,-192.5 639.5,-255.5 824.5,-255.5 824.5,-192.5 639.5,-192.5"/>
<text text-anchor="start" x="647.5" y="-243.5" font-family="Helvetica,sans-Serif" font-size="10.00">/home/travis/build</text>
<text text-anchor="start" x="647.5" y="-232.5" font-family="Helvetica,sans-Serif" font-size="10.00">/AliceO2Group/AliceO2</text>
<text text-anchor="start" x="647.5" y="-221.5" font-family="Helvetica,sans-Serif" font-size="10.00">/DataFormats/Detectors</text>
<text text-anchor="start" x="647.5" y="-210.5" font-family="Helvetica,sans-Serif" font-size="10.00">/MUON/MID/include/DataFormatsMID</text>
<text text-anchor="middle" x="732" y="-199.5" font-family="Helvetica,sans-Serif" font-size="10.00">/Cluster3D.h</text>
</g>
<!-- Node2 -->
<g id="node2" class="node"><title>Node2</title>
<polygon fill="none" stroke="#bfbfbf" points="657,-136.5 657,-155.5 703,-155.5 703,-136.5 657,-136.5"/>
<text text-anchor="middle" x="680" y="-143.5" font-family="Helvetica,sans-Serif" font-size="10.00">cstdint</text>
</g>
<!-- Node1&#45;&gt;Node2 -->
<g id="edge1" class="edge"><title>Node1&#45;&gt;Node2</title>
<path fill="none" stroke="midnightblue" d="M710.85,-192.088C704.312,-182.533 697.351,-172.359 691.698,-164.097"/>
<polygon fill="midnightblue" stroke="midnightblue" points="694.501,-161.995 685.965,-155.718 688.723,-165.948 694.501,-161.995"/>
</g>
<!-- Node3 -->
<g id="node3" class="node"><title>Node3</title>
<g id="a_node3"><a xlink:href="../../dd/d76/Cartesian3D_8h.html" target="_top" xlink:title="MathUtils/Cartesian3D.h">
<polygon fill="none" stroke="black" points="721.5,-136.5 721.5,-155.5 846.5,-155.5 846.5,-136.5 721.5,-136.5"/>
<text text-anchor="middle" x="784" y="-143.5" font-family="Helvetica,sans-Serif" font-size="10.00">MathUtils/Cartesian3D.h</text>
</a>
</g>
</g>
<!-- Node1&#45;&gt;Node3 -->
<g id="edge2" class="edge"><title>Node1&#45;&gt;Node3</title>
<path fill="none" stroke="midnightblue" d="M753.15,-192.088C759.688,-182.533 766.649,-172.359 772.302,-164.097"/>
<polygon fill="midnightblue" stroke="midnightblue" points="775.277,-165.948 778.035,-155.718 769.499,-161.995 775.277,-165.948"/>
</g>
<!-- Node4 -->
<g id="node4" class="node"><title>Node4</title>
<polygon fill="none" stroke="#bfbfbf" points="-0.5,-69 -0.5,-99 150.5,-99 150.5,-69 -0.5,-69"/>
<text text-anchor="start" x="7.5" y="-87" font-family="Helvetica,sans-Serif" font-size="10.00">Math/GenVector/Displacement</text>
<text text-anchor="middle" x="75" y="-76" font-family="Helvetica,sans-Serif" font-size="10.00">Vector3D.h</text>
</g>
<!-- Node3&#45;&gt;Node4 -->
<g id="edge3" class="edge"><title>Node3&#45;&gt;Node4</title>
<path fill="none" stroke="midnightblue" d="M721.196,-136.927C718.088,-136.597 715.01,-136.286 712,-136 470.594,-113.061 405.85,-128.959 161.216,-100.054"/>
<polygon fill="midnightblue" stroke="midnightblue" points="161.283,-96.5369 150.939,-98.8257 160.453,-103.487 161.283,-96.5369"/>
</g>
<!-- Node5 -->
<g id="node5" class="node"><title>Node5</title>
<polygon fill="none" stroke="#bfbfbf" points="169,-74.5 169,-93.5 345,-93.5 345,-74.5 169,-74.5"/>
<text text-anchor="middle" x="257" y="-81.5" font-family="Helvetica,sans-Serif" font-size="10.00">Math/GenVector/PositionVector3D.h</text>
</g>
<!-- Node3&#45;&gt;Node5 -->
<g id="edge4" class="edge"><title>Node3&#45;&gt;Node5</title>
<path fill="none" stroke="midnightblue" d="M721.182,-137.057C718.078,-136.693 715.004,-136.339 712,-136 553.094,-118.081 512.629,-120.226 354,-100 342.626,-98.5497 330.529,-96.8255 318.876,-95.0715"/>
<polygon fill="midnightblue" stroke="midnightblue" points="319.193,-91.5794 308.779,-93.5287 318.135,-98.4991 319.193,-91.5794"/>
</g>
<!-- Node6 -->
<g id="node6" class="node"><title>Node6</title>
<polygon fill="none" stroke="#bfbfbf" points="362.5,-74.5 362.5,-93.5 511.5,-93.5 511.5,-74.5 362.5,-74.5"/>
<text text-anchor="middle" x="437" y="-81.5" font-family="Helvetica,sans-Serif" font-size="10.00">Math/GenVector/Rotation3D.h</text>
</g>
<!-- Node3&#45;&gt;Node6 -->
<g id="edge5" class="edge"><title>Node3&#45;&gt;Node6</title>
<path fill="none" stroke="midnightblue" d="M733.562,-136.482C680.606,-127.512 594.922,-112.924 521,-100 512.412,-98.4985 503.333,-96.8946 494.443,-95.3148"/>
<polygon fill="midnightblue" stroke="midnightblue" points="494.981,-91.8557 484.523,-93.5481 493.754,-98.7472 494.981,-91.8557"/>
</g>
<!-- Node7 -->
<g id="node7" class="node"><title>Node7</title>
<polygon fill="none" stroke="#bfbfbf" points="530,-74.5 530,-93.5 686,-93.5 686,-74.5 530,-74.5"/>
<text text-anchor="middle" x="608" y="-81.5" font-family="Helvetica,sans-Serif" font-size="10.00">Math/GenVector/Transform3D.h</text>
</g>
<!-- Node3&#45;&gt;Node7 -->
<g id="edge6" class="edge"><title>Node3&#45;&gt;Node7</title>
<path fill="none" stroke="midnightblue" d="M758.783,-136.403C728.332,-126.022 676.951,-108.506 642.757,-96.849"/>
<polygon fill="midnightblue" stroke="midnightblue" points="643.764,-93.4946 633.17,-93.5806 641.505,-100.12 643.764,-93.4946"/>
</g>
<!-- Node8 -->
<g id="node8" class="node"><title>Node8</title>
<polygon fill="none" stroke="#bfbfbf" points="704,-74.5 704,-93.5 864,-93.5 864,-74.5 704,-74.5"/>
<text text-anchor="middle" x="784" y="-81.5" font-family="Helvetica,sans-Serif" font-size="10.00">Math/GenVector/Translation3D.h</text>
</g>
<!-- Node3&#45;&gt;Node8 -->
<g id="edge7" class="edge"><title>Node3&#45;&gt;Node8</title>
<path fill="none" stroke="midnightblue" d="M784,-136.403C784,-127.938 784,-114.728 784,-103.82"/>
<polygon fill="midnightblue" stroke="midnightblue" points="787.5,-103.581 784,-93.5806 780.5,-103.581 787.5,-103.581"/>
</g>
<!-- Node9 -->
<g id="node9" class="node"><title>Node9</title>
<polygon fill="none" stroke="#bfbfbf" points="882,-74.5 882,-93.5 938,-93.5 938,-74.5 882,-74.5"/>
<text text-anchor="middle" x="910" y="-81.5" font-family="Helvetica,sans-Serif" font-size="10.00">Rtypes.h</text>
</g>
<!-- Node3&#45;&gt;Node9 -->
<g id="edge8" class="edge"><title>Node3&#45;&gt;Node9</title>
<path fill="none" stroke="midnightblue" d="M802.053,-136.403C823.198,-126.334 858.44,-109.552 882.878,-97.9151"/>
<polygon fill="midnightblue" stroke="midnightblue" points="884.457,-101.04 891.981,-93.5806 881.447,-94.72 884.457,-101.04"/>
</g>
<!-- Node10 -->
<g id="node10" class="node"><title>Node10</title>
<polygon fill="none" stroke="#bfbfbf" points="956,-74.5 956,-93.5 1032,-93.5 1032,-74.5 956,-74.5"/>
<text text-anchor="middle" x="994" y="-81.5" font-family="Helvetica,sans-Serif" font-size="10.00">TGeoMatrix.h</text>
</g>
<!-- Node3&#45;&gt;Node10 -->
<g id="edge9" class="edge"><title>Node3&#45;&gt;Node10</title>
<path fill="none" stroke="midnightblue" d="M816.053,-136.42C848.797,-127.58 901.065,-113.258 946,-100 949.755,-98.892 953.668,-97.7119 957.567,-96.519"/>
<polygon fill="midnightblue" stroke="midnightblue" points="958.616,-99.8583 967.136,-93.561 956.548,-93.1705 958.616,-99.8583"/>
</g>
<!-- Node11 -->
<g id="node11" class="node"><title>Node11</title>
<polygon fill="none" stroke="#bfbfbf" points="1050.5,-74.5 1050.5,-93.5 1095.5,-93.5 1095.5,-74.5 1050.5,-74.5"/>
<text text-anchor="middle" x="1073" y="-81.5" font-family="Helvetica,sans-Serif" font-size="10.00">iosfwd</text>
</g>
<!-- Node3&#45;&gt;Node11 -->
<g id="edge10" class="edge"><title>Node3&#45;&gt;Node11</title>
<path fill="none" stroke="midnightblue" d="M846.636,-138.734C899.367,-132.351 976.316,-120.424 1041,-100 1043.14,-99.3245 1045.32,-98.5361 1047.49,-97.6806"/>
<polygon fill="midnightblue" stroke="midnightblue" points="1048.96,-100.855 1056.73,-93.6444 1046.16,-94.4403 1048.96,-100.855"/>
</g>
<!-- Node12 -->
<g id="node12" class="node"><title>Node12</title>
<g id="a_node12"><a xlink:href="../../d2/dd0/Cartesian2D_8h.html" target="_top" xlink:title="MathUtils/Cartesian2D.h">
<polygon fill="none" stroke="black" points="1113.5,-74.5 1113.5,-93.5 1238.5,-93.5 1238.5,-74.5 1113.5,-74.5"/>
<text text-anchor="middle" x="1176" y="-81.5" font-family="Helvetica,sans-Serif" font-size="10.00">MathUtils/Cartesian2D.h</text>
</a>
</g>
</g>
<!-- Node3&#45;&gt;Node12 -->
<g id="edge11" class="edge"><title>Node3&#45;&gt;Node12</title>
<path fill="none" stroke="midnightblue" d="M846.734,-137.415C911.39,-129.309 1015.02,-115.508 1104,-100 1111.52,-98.6891 1119.46,-97.1722 1127.2,-95.617"/>
<polygon fill="midnightblue" stroke="midnightblue" points="1128.13,-98.9995 1137.23,-93.5647 1126.73,-92.1417 1128.13,-98.9995"/>
</g>
<!-- Node13 -->
<g id="node13" class="node"><title>Node13</title>
<polygon fill="none" stroke="#bfbfbf" points="1009.5,-1 1009.5,-31 1160.5,-31 1160.5,-1 1009.5,-1"/>
<text text-anchor="start" x="1017.5" y="-19" font-family="Helvetica,sans-Serif" font-size="10.00">Math/GenVector/Displacement</text>
<text text-anchor="middle" x="1085" y="-8" font-family="Helvetica,sans-Serif" font-size="10.00">Vector2D.h</text>
</g>
<!-- Node12&#45;&gt;Node13 -->
<g id="edge12" class="edge"><title>Node12&#45;&gt;Node13</title>
<path fill="none" stroke="midnightblue" d="M1164.1,-74.3717C1151.22,-65.0286 1130.22,-49.7966 1113.09,-37.375"/>
<polygon fill="midnightblue" stroke="midnightblue" points="1114.7,-34.2194 1104.55,-31.1815 1110.59,-39.8859 1114.7,-34.2194"/>
</g>
<!-- Node14 -->
<g id="node14" class="node"><title>Node14</title>
<polygon fill="none" stroke="#bfbfbf" points="1179,-6.5 1179,-25.5 1355,-25.5 1355,-6.5 1179,-6.5"/>
<text text-anchor="middle" x="1267" y="-13.5" font-family="Helvetica,sans-Serif" font-size="10.00">Math/GenVector/PositionVector2D.h</text>
</g>
<!-- Node12&#45;&gt;Node14 -->
<g id="edge13" class="edge"><title>Node12&#45;&gt;Node14</title>
<path fill="none" stroke="midnightblue" d="M1187.9,-74.3717C1202.88,-63.5015 1228.86,-44.6602 1246.94,-31.5474"/>
<polygon fill="midnightblue" stroke="midnightblue" points="1249.06,-34.3349 1255.1,-25.6305 1244.95,-28.6684 1249.06,-34.3349"/>
</g>
</g>
</svg>
