<?xml version="1.0" encoding="UTF-8" standalone="no"?>
<!DOCTYPE svg PUBLIC "-//W3C//DTD SVG 1.1//EN"
 "http://www.w3.org/Graphics/SVG/1.1/DTD/svg11.dtd">
<!-- Generated by graphviz version 2.36.0 (20140111.2315)
 -->
<!-- Title: /home/travis/build/AliceO2Group/AliceO2/run/o2sim_parallel.cxx Pages: 1 -->
<svg width="1524pt" height="174pt"
 viewBox="0.00 0.00 1524.00 174.00" xmlns="http://www.w3.org/2000/svg" xmlns:xlink="http://www.w3.org/1999/xlink">
<g id="graph0" class="graph" transform="scale(1 1) rotate(0) translate(4 170)">
<title>/home/travis/build/AliceO2Group/AliceO2/run/o2sim_parallel.cxx</title>
<!-- Node1 -->
<g id="node1" class="node"><title>Node1</title>
<polygon fill="#bfbfbf" stroke="black" points="610,-124.5 610,-165.5 728,-165.5 728,-124.5 610,-124.5"/>
<text text-anchor="start" x="618" y="-153.5" font-family="Helvetica,sans-Serif" font-size="10.00">/home/travis/build</text>
<text text-anchor="start" x="618" y="-142.5" font-family="Helvetica,sans-Serif" font-size="10.00">/AliceO2Group/AliceO2</text>
<text text-anchor="middle" x="669" y="-131.5" font-family="Helvetica,sans-Serif" font-size="10.00">/run/o2sim_parallel.cxx</text>
</g>
<!-- Node2 -->
<g id="node2" class="node"><title>Node2</title>
<polygon fill="none" stroke="#bfbfbf" points="-0.5,-68.5 -0.5,-87.5 44.5,-87.5 44.5,-68.5 -0.5,-68.5"/>
<text text-anchor="middle" x="22" y="-75.5" font-family="Helvetica,sans-Serif" font-size="10.00">cstdlib</text>
</g>
<!-- Node1&#45;&gt;Node2 -->
<g id="edge1" class="edge"><title>Node1&#45;&gt;Node2</title>
<path fill="none" stroke="midnightblue" d="M609.876,-142.392C501.248,-138.621 262.679,-126.538 54.4573,-87.9518"/>
<polygon fill="midnightblue" stroke="midnightblue" points="55.0397,-84.5001 44.5655,-86.0943 53.7478,-91.3798 55.0397,-84.5001"/>
</g>
<!-- Node3 -->
<g id="node3" class="node"><title>Node3</title>
<polygon fill="none" stroke="#bfbfbf" points="62.5,-68.5 62.5,-87.5 113.5,-87.5 113.5,-68.5 62.5,-68.5"/>
<text text-anchor="middle" x="88" y="-75.5" font-family="Helvetica,sans-Serif" font-size="10.00">unistd.h</text>
</g>
<!-- Node1&#45;&gt;Node3 -->
<g id="edge2" class="edge"><title>Node1&#45;&gt;Node3</title>
<path fill="none" stroke="midnightblue" d="M609.615,-140.824C510.713,-134.898 305.978,-119.92 123.563,-87.8207"/>
<polygon fill="midnightblue" stroke="midnightblue" points="123.976,-84.3393 113.517,-86.0315 122.749,-91.2309 123.976,-84.3393"/>
</g>
<!-- Node4 -->
<g id="node4" class="node"><title>Node4</title>
<polygon fill="none" stroke="#bfbfbf" points="132,-68.5 132,-87.5 184,-87.5 184,-68.5 132,-68.5"/>
<text text-anchor="middle" x="158" y="-75.5" font-family="Helvetica,sans-Serif" font-size="10.00">sstream</text>
</g>
<!-- Node1&#45;&gt;Node4 -->
<g id="edge3" class="edge"><title>Node1&#45;&gt;Node4</title>
<path fill="none" stroke="midnightblue" d="M609.992,-139.628C521.594,-132.513 349.471,-116.476 194.472,-88.0544"/>
<polygon fill="midnightblue" stroke="midnightblue" points="194.759,-84.548 184.288,-86.1644 193.482,-91.4305 194.759,-84.548"/>
</g>
<!-- Node5 -->
<g id="node5" class="node"><title>Node5</title>
<polygon fill="none" stroke="#bfbfbf" points="202,-68.5 202,-87.5 256,-87.5 256,-68.5 202,-68.5"/>
<text text-anchor="middle" x="229" y="-75.5" font-family="Helvetica,sans-Serif" font-size="10.00">iostream</text>
</g>
<!-- Node1&#45;&gt;Node5 -->
<g id="edge4" class="edge"><title>Node1&#45;&gt;Node5</title>
<path fill="none" stroke="midnightblue" d="M609.965,-137.68C531.164,-128.815 387.43,-111.145 266,-88 265.899,-87.9807 265.797,-87.9612 265.695,-87.9417"/>
<polygon fill="midnightblue" stroke="midnightblue" points="266.516,-84.5379 256.01,-85.9019 265.074,-91.3876 266.516,-84.5379"/>
</g>
<!-- Node6 -->
<g id="node6" class="node"><title>Node6</title>
<polygon fill="none" stroke="#bfbfbf" points="274.5,-68.5 274.5,-87.5 317.5,-87.5 317.5,-68.5 274.5,-68.5"/>
<text text-anchor="middle" x="296" y="-75.5" font-family="Helvetica,sans-Serif" font-size="10.00">cstdio</text>
</g>
<!-- Node1&#45;&gt;Node6 -->
<g id="edge5" class="edge"><title>Node1&#45;&gt;Node6</title>
<path fill="none" stroke="midnightblue" d="M609.884,-136.52C543.447,-127.623 432.279,-111.26 327.397,-87.8426"/>
<polygon fill="midnightblue" stroke="midnightblue" points="328.119,-84.4177 317.594,-85.6288 326.577,-91.2457 328.119,-84.4177"/>
</g>
<!-- Node7 -->
<g id="node7" class="node"><title>Node7</title>
<polygon fill="none" stroke="#bfbfbf" points="336,-68.5 336,-87.5 380,-87.5 380,-68.5 336,-68.5"/>
<text text-anchor="middle" x="358" y="-75.5" font-family="Helvetica,sans-Serif" font-size="10.00">fcntl.h</text>
</g>
<!-- Node1&#45;&gt;Node7 -->
<g id="edge6" class="edge"><title>Node1&#45;&gt;Node7</title>
<path fill="none" stroke="midnightblue" d="M609.931,-133.494C555.475,-123.503 472.227,-107.459 390.305,-87.913"/>
<polygon fill="midnightblue" stroke="midnightblue" points="390.864,-84.4477 380.323,-85.5121 389.227,-91.2536 390.864,-84.4477"/>
</g>
<!-- Node8 -->
<g id="node8" class="node"><title>Node8</title>
<g id="a_node8"><a xlink:href="../../d4/dee/SimConfig_8h.html" target="_top" xlink:title="SimConfig/SimConfig.h">
<polygon fill="none" stroke="black" points="398.5,-68.5 398.5,-87.5 517.5,-87.5 517.5,-68.5 398.5,-68.5"/>
<text text-anchor="middle" x="458" y="-75.5" font-family="Helvetica,sans-Serif" font-size="10.00">SimConfig/SimConfig.h</text>
</a>
</g>
</g>
<!-- Node1&#45;&gt;Node8 -->
<g id="edge7" class="edge"><title>Node1&#45;&gt;Node8</title>
<path fill="none" stroke="midnightblue" d="M609.944,-125.807C573.311,-114.522 527.343,-100.361 495.614,-90.5873"/>
<polygon fill="midnightblue" stroke="midnightblue" points="496.43,-87.1764 485.843,-87.5771 494.369,-93.8661 496.43,-87.1764"/>
</g>
<!-- Node11 -->
<g id="node11" class="node"><title>Node11</title>
<polygon fill="none" stroke="#bfbfbf" points="536,-68.5 536,-87.5 598,-87.5 598,-68.5 536,-68.5"/>
<text text-anchor="middle" x="567" y="-75.5" font-family="Helvetica,sans-Serif" font-size="10.00">sys/wait.h</text>
</g>
<!-- Node1&#45;&gt;Node11 -->
<g id="edge10" class="edge"><title>Node1&#45;&gt;Node11</title>
<path fill="none" stroke="midnightblue" d="M638.397,-124.498C622.608,-114.436 603.696,-102.385 589.304,-93.2136"/>
<polygon fill="midnightblue" stroke="midnightblue" points="590.892,-90.075 580.578,-87.6525 587.13,-95.9783 590.892,-90.075"/>
</g>
<!-- Node12 -->
<g id="node12" class="node"><title>Node12</title>
<polygon fill="none" stroke="#bfbfbf" points="616,-68.5 616,-87.5 660,-87.5 660,-68.5 616,-68.5"/>
<text text-anchor="middle" x="638" y="-75.5" font-family="Helvetica,sans-Serif" font-size="10.00">vector</text>
</g>
<!-- Node1&#45;&gt;Node12 -->
<g id="edge11" class="edge"><title>Node1&#45;&gt;Node12</title>
<path fill="none" stroke="midnightblue" d="M659.699,-124.498C655.495,-115.682 650.561,-105.339 646.462,-96.7432"/>
<polygon fill="midnightblue" stroke="midnightblue" points="649.59,-95.1719 642.127,-87.6525 643.272,-98.1852 649.59,-95.1719"/>
</g>
<!-- Node13 -->
<g id="node13" class="node"><title>Node13</title>
<polygon fill="none" stroke="#bfbfbf" points="678,-68.5 678,-87.5 722,-87.5 722,-68.5 678,-68.5"/>
<text text-anchor="middle" x="700" y="-75.5" font-family="Helvetica,sans-Serif" font-size="10.00">thread</text>
</g>
<!-- Node1&#45;&gt;Node13 -->
<g id="edge12" class="edge"><title>Node1&#45;&gt;Node13</title>
<path fill="none" stroke="midnightblue" d="M678.301,-124.498C682.505,-115.682 687.439,-105.339 691.538,-96.7432"/>
<polygon fill="midnightblue" stroke="midnightblue" points="694.728,-98.1852 695.873,-87.6525 688.41,-95.1719 694.728,-98.1852"/>
</g>
<!-- Node14 -->
<g id="node14" class="node"><title>Node14</title>
<polygon fill="none" stroke="#bfbfbf" points="740.5,-68.5 740.5,-87.5 787.5,-87.5 787.5,-68.5 740.5,-68.5"/>
<text text-anchor="middle" x="764" y="-75.5" font-family="Helvetica,sans-Serif" font-size="10.00">csignal</text>
</g>
<!-- Node1&#45;&gt;Node14 -->
<g id="edge13" class="edge"><title>Node1&#45;&gt;Node14</title>
<path fill="none" stroke="midnightblue" d="M697.503,-124.498C712.068,-114.532 729.487,-102.614 742.842,-93.4764"/>
<polygon fill="midnightblue" stroke="midnightblue" points="745.077,-96.188 751.354,-87.6525 741.125,-90.4108 745.077,-96.188"/>
</g>
<!-- Node15 -->
<g id="node15" class="node"><title>Node15</title>
<polygon fill="none" stroke="#bfbfbf" points="805.5,-68.5 805.5,-87.5 882.5,-87.5 882.5,-68.5 805.5,-68.5"/>
<text text-anchor="middle" x="844" y="-75.5" font-family="Helvetica,sans-Serif" font-size="10.00">TStopwatch.h</text>
</g>
<!-- Node1&#45;&gt;Node15 -->
<g id="edge14" class="edge"><title>Node1&#45;&gt;Node15</title>
<path fill="none" stroke="midnightblue" d="M721.506,-124.498C750.658,-113.67 786.016,-100.537 811.236,-91.1696"/>
<polygon fill="midnightblue" stroke="midnightblue" points="812.549,-94.4154 820.705,-87.6525 810.112,-87.8534 812.549,-94.4154"/>
</g>
<!-- Node16 -->
<g id="node16" class="node"><title>Node16</title>
<polygon fill="none" stroke="#bfbfbf" points="900.5,-68.5 900.5,-87.5 971.5,-87.5 971.5,-68.5 900.5,-68.5"/>
<text text-anchor="middle" x="936" y="-75.5" font-family="Helvetica,sans-Serif" font-size="10.00">FairLogger.h</text>
</g>
<!-- Node1&#45;&gt;Node16 -->
<g id="edge15" class="edge"><title>Node1&#45;&gt;Node16</title>
<path fill="none" stroke="midnightblue" d="M728.256,-129.574C777.429,-117.603 846.307,-100.835 891.038,-89.9459"/>
<polygon fill="midnightblue" stroke="midnightblue" points="892.142,-93.2794 901.03,-87.5133 890.486,-86.478 892.142,-93.2794"/>
</g>
<!-- Node17 -->
<g id="node17" class="node"><title>Node17</title>
<g id="a_node17"><a xlink:href="../../de/d61/ShmManager_8h.html" target="_top" xlink:title="CommonUtils/ShmManager.h">
<polygon fill="none" stroke="black" points="990,-68.5 990,-87.5 1136,-87.5 1136,-68.5 990,-68.5"/>
<text text-anchor="middle" x="1063" y="-75.5" font-family="Helvetica,sans-Serif" font-size="10.00">CommonUtils/ShmManager.h</text>
</a>
</g>
</g>
<!-- Node1&#45;&gt;Node17 -->
<g id="edge16" class="edge"><title>Node1&#45;&gt;Node17</title>
<path fill="none" stroke="midnightblue" d="M728.412,-134.198C801.916,-122.072 926.463,-101.525 1001.1,-89.2123"/>
<polygon fill="midnightblue" stroke="midnightblue" points="1001.99,-92.6124 1011.29,-87.5313 1000.85,-85.7058 1001.99,-92.6124"/>
</g>
<!-- Node22 -->
<g id="node22" class="node"><title>Node22</title>
<polygon fill="none" stroke="#bfbfbf" points="1154.5,-68.5 1154.5,-87.5 1201.5,-87.5 1201.5,-68.5 1154.5,-68.5"/>
<text text-anchor="middle" x="1178" y="-75.5" font-family="Helvetica,sans-Serif" font-size="10.00">TFile.h</text>
</g>
<!-- Node1&#45;&gt;Node22 -->
<g id="edge21" class="edge"><title>Node1&#45;&gt;Node22</title>
<path fill="none" stroke="midnightblue" d="M728.059,-139.9C816.524,-133.132 988.731,-117.54 1144.1,-87.8895"/>
<polygon fill="midnightblue" stroke="midnightblue" points="1145.15,-91.2506 1154.31,-85.9161 1143.82,-84.3778 1145.15,-91.2506"/>
</g>
<!-- Node23 -->
<g id="node23" class="node"><title>Node23</title>
<polygon fill="none" stroke="#bfbfbf" points="1220,-68.5 1220,-87.5 1270,-87.5 1270,-68.5 1220,-68.5"/>
<text text-anchor="middle" x="1245" y="-75.5" font-family="Helvetica,sans-Serif" font-size="10.00">TTree.h</text>
</g>
<!-- Node1&#45;&gt;Node23 -->
<g id="edge22" class="edge"><title>Node1&#45;&gt;Node23</title>
<path fill="none" stroke="midnightblue" d="M728.242,-140.756C828.197,-134.638 1036.43,-119.122 1210,-88 1210.1,-87.982 1210.2,-87.9639 1210.3,-87.9456"/>
<polygon fill="midnightblue" stroke="midnightblue" points="1210.79,-91.4184 1219.86,-85.9399 1209.36,-84.5675 1210.79,-91.4184"/>
</g>
<!-- Node24 -->
<g id="node24" class="node"><title>Node24</title>
<g id="a_node24"><a xlink:href="../../d6/d2a/FreePortFinder_8h.html" target="_top" xlink:title="Framework/FreePortFinder.h">
<polygon fill="none" stroke="black" points="1288.5,-68.5 1288.5,-87.5 1429.5,-87.5 1429.5,-68.5 1288.5,-68.5"/>
<text text-anchor="middle" x="1359" y="-75.5" font-family="Helvetica,sans-Serif" font-size="10.00">Framework/FreePortFinder.h</text>
</a>
</g>
</g>
<!-- Node1&#45;&gt;Node24 -->
<g id="edge23" class="edge"><title>Node1&#45;&gt;Node24</title>
<path fill="none" stroke="midnightblue" d="M728.353,-138.958C835.695,-129.75 1069.5,-109.286 1278.11,-88.0717"/>
<polygon fill="midnightblue" stroke="midnightblue" points="1278.74,-91.5252 1288.34,-87.0289 1278.03,-84.5613 1278.74,-91.5252"/>
</g>
<!-- Node25 -->
<g id="node25" class="node"><title>Node25</title>
<polygon fill="none" stroke="#bfbfbf" points="1448,-68.5 1448,-87.5 1516,-87.5 1516,-68.5 1448,-68.5"/>
<text text-anchor="middle" x="1482" y="-75.5" font-family="Helvetica,sans-Serif" font-size="10.00">sys/types.h</text>
</g>
<!-- Node1&#45;&gt;Node25 -->
<g id="edge24" class="edge"><title>Node1&#45;&gt;Node25</title>
<path fill="none" stroke="midnightblue" d="M728.122,-142.295C857.413,-137.998 1174.78,-124.349 1438,-88 1438.1,-87.986 1438.2,-87.9719 1438.3,-87.9577"/>
<polygon fill="midnightblue" stroke="midnightblue" points="1438.64,-91.4482 1447.96,-86.4136 1437.54,-84.5359 1438.64,-91.4482"/>
</g>
<!-- Node9 -->
<g id="node9" class="node"><title>Node9</title>
<polygon fill="none" stroke="#bfbfbf" points="373,-6.5 373,-25.5 429,-25.5 429,-6.5 373,-6.5"/>
<text text-anchor="middle" x="401" y="-13.5" font-family="Helvetica,sans-Serif" font-size="10.00">Rtypes.h</text>
</g>
<!-- Node8&#45;&gt;Node9 -->
<g id="edge8" class="edge"><title>Node8&#45;&gt;Node9</title>
<path fill="none" stroke="midnightblue" d="M449.833,-68.4035C441.114,-59.2252 427.096,-44.4699 416.311,-33.1173"/>
<polygon fill="midnightblue" stroke="midnightblue" points="418.577,-30.42 409.152,-25.5806 413.502,-35.2412 418.577,-30.42"/>
</g>
<!-- Node10 -->
<g id="node10" class="node"><title>Node10</title>
<polygon fill="none" stroke="#bfbfbf" points="447,-6.5 447,-25.5 581,-25.5 581,-6.5 447,-6.5"/>
<text text-anchor="middle" x="514" y="-13.5" font-family="Helvetica,sans-Serif" font-size="10.00">boost/program_options.hpp</text>
</g>
<!-- Node8&#45;&gt;Node10 -->
<g id="edge9" class="edge"><title>Node8&#45;&gt;Node10</title>
<path fill="none" stroke="midnightblue" d="M466.023,-68.4035C474.59,-59.2252 488.361,-44.4699 498.957,-33.1173"/>
<polygon fill="midnightblue" stroke="midnightblue" points="501.727,-35.2793 505.991,-25.5806 496.61,-30.503 501.727,-35.2793"/>
</g>
<!-- Node18 -->
<g id="node18" class="node"><title>Node18</title>
<polygon fill="none" stroke="#bfbfbf" points="932.5,-6.5 932.5,-25.5 961.5,-25.5 961.5,-6.5 932.5,-6.5"/>
<text text-anchor="middle" x="947" y="-13.5" font-family="Helvetica,sans-Serif" font-size="10.00">list</text>
</g>
<!-- Node17&#45;&gt;Node18 -->
<g id="edge17" class="edge"><title>Node17&#45;&gt;Node18</title>
<path fill="none" stroke="midnightblue" d="M1044.03,-68.4239C1025.22,-59.7572 995.718,-45.7212 971,-32 970.323,-31.6244 969.639,-31.2382 968.951,-30.8442"/>
<polygon fill="midnightblue" stroke="midnightblue" points="970.431,-27.6507 960.057,-25.502 966.827,-33.6515 970.431,-27.6507"/>
</g>
<!-- Node19 -->
<g id="node19" class="node"><title>Node19</title>
<polygon fill="none" stroke="#bfbfbf" points="979.5,-6.5 979.5,-25.5 1028.5,-25.5 1028.5,-6.5 979.5,-6.5"/>
<text text-anchor="middle" x="1004" y="-13.5" font-family="Helvetica,sans-Serif" font-size="10.00">cstddef</text>
</g>
<!-- Node17&#45;&gt;Node19 -->
<g id="edge18" class="edge"><title>Node17&#45;&gt;Node19</title>
<path fill="none" stroke="midnightblue" d="M1054.55,-68.4035C1045.43,-59.1361 1030.73,-44.1828 1019.52,-32.7876"/>
<polygon fill="midnightblue" stroke="midnightblue" points="1021.94,-30.2569 1012.44,-25.5806 1016.95,-35.1649 1021.94,-30.2569"/>
</g>
<!-- Node20 -->
<g id="node20" class="node"><title>Node20</title>
<polygon fill="none" stroke="#bfbfbf" points="1047,-1 1047,-31 1195,-31 1195,-1 1047,-1"/>
<text text-anchor="start" x="1055" y="-19" font-family="Helvetica,sans-Serif" font-size="10.00">boost/interprocess</text>
<text text-anchor="middle" x="1121" y="-8" font-family="Helvetica,sans-Serif" font-size="10.00">/managed_external_buffer.hpp</text>
</g>
<!-- Node17&#45;&gt;Node20 -->
<g id="edge19" class="edge"><title>Node17&#45;&gt;Node20</title>
<path fill="none" stroke="midnightblue" d="M1071.31,-68.4035C1078.87,-60.5811 1090.35,-48.7077 1100.37,-38.3424"/>
<polygon fill="midnightblue" stroke="midnightblue" points="1102.9,-40.7633 1107.33,-31.1408 1097.86,-35.8981 1102.9,-40.7633"/>
</g>
<!-- Node21 -->
<g id="node21" class="node"><title>Node21</title>
<polygon fill="none" stroke="#bfbfbf" points="1213,-1 1213,-31 1333,-31 1333,-1 1213,-1"/>
<text text-anchor="start" x="1221" y="-19" font-family="Helvetica,sans-Serif" font-size="10.00">boost/interprocess</text>
<text text-anchor="middle" x="1273" y="-8" font-family="Helvetica,sans-Serif" font-size="10.00">/allocators/allocator.hpp</text>
</g>
<!-- Node17&#45;&gt;Node21 -->
<g id="edge20" class="edge"><title>Node17&#45;&gt;Node21</title>
<path fill="none" stroke="midnightblue" d="M1093.09,-68.4035C1124.56,-59.412 1174.76,-45.0683 1214.15,-33.8147"/>
<polygon fill="midnightblue" stroke="midnightblue" points="1215.26,-37.1379 1223.91,-31.0253 1213.33,-30.4073 1215.26,-37.1379"/>
</g>
</g>
</svg>
