<?xml version="1.0" encoding="UTF-8" standalone="no"?>
<!DOCTYPE svg PUBLIC "-//W3C//DTD SVG 1.1//EN"
 "http://www.w3.org/Graphics/SVG/1.1/DTD/svg11.dtd">
<!-- Generated by graphviz version 2.36.0 (20140111.2315)
 -->
<!-- Title: /home/travis/build/AliceO2Group/AliceO2/EventVisualisation/View/src/MultiView.cxx Pages: 1 -->
<!--zoomable 434 -->
<svg id="main" version="1.1" xmlns="http://www.w3.org/2000/svg" xmlns:xlink="http://www.w3.org/1999/xlink" xml:space="preserve" onload="init(evt)">
<style type="text/css"><![CDATA[
.edge:hover path { stroke: red; }
.edge:hover polygon { stroke: red; fill: red; }
]]></style>
<script type="text/javascript"><![CDATA[
var edges = document.getElementsByTagName('g');
if (edges && edges.length) {
  for (var i=0;i<edges.length;i++) {
    if (edges[i].id.substr(0,4)=='edge') {
      edges[i].setAttribute('class','edge');
    }
  }
}
]]></script>
        <defs>
                <circle id="rim" cx="0" cy="0" r="7"/>
                <circle id="rim2" cx="0" cy="0" r="3.5"/>
                <g id="zoomPlus">
                        <use xlink:href="#rim" fill="#404040">
                                <set attributeName="fill" to="#808080" begin="zoomplus.mouseover" end="zoomplus.mouseout"/>
                        </use>
                        <path d="M-4,0h8M0,-4v8" fill="none" stroke="white" stroke-width="1.5" pointer-events="none"/>
                </g>
                <g id="zoomMin">
                        <use xlink:href="#rim" fill="#404040">
                                <set attributeName="fill" to="#808080" begin="zoomminus.mouseover" end="zoomminus.mouseout"/>
                        </use>
                        <path d="M-4,0h8" fill="none" stroke="white" stroke-width="1.5" pointer-events="none"/>
                </g>
                <g id="dirArrow">
                        <path fill="none" stroke="white" stroke-width="1.5" d="M0,-3.0v7 M-2.5,-0.5L0,-3.0L2.5,-0.5"/>
                </g>
               <g id="resetDef">
                       <use xlink:href="#rim2" fill="#404040">
                               <set attributeName="fill" to="#808080" begin="reset.mouseover" end="reset.mouseout"/>
                       </use>
               </g>
        </defs>

<script type="text/javascript">
var viewWidth = 1506;
var viewHeight = 434;
var sectionId = 'dynsection-0';
</script>
<script xlink:href="../../svgpan.js"/>
<svg id="graph" class="graph">
<g id="viewport">
<title>/home/travis/build/AliceO2Group/AliceO2/EventVisualisation/View/src/MultiView.cxx</title>
<!-- Node1 -->
<g id="node1" class="node"><title>Node1</title>
<polygon fill="#bfbfbf" stroke="black" points="721.5,-373 721.5,-425 846.5,-425 846.5,-373 721.5,-373"/>
<text text-anchor="start" x="729.5" y="-413" font-family="Helvetica,sans-Serif" font-size="10.00">/home/travis/build</text>
<text text-anchor="start" x="729.5" y="-402" font-family="Helvetica,sans-Serif" font-size="10.00">/AliceO2Group/AliceO2</text>
<text text-anchor="start" x="729.5" y="-391" font-family="Helvetica,sans-Serif" font-size="10.00">/EventVisualisation/View</text>
<text text-anchor="middle" x="784" y="-380" font-family="Helvetica,sans-Serif" font-size="10.00">/src/MultiView.cxx</text>
</g>
<!-- Node2 -->
<g id="node2" class="node"><title>Node2</title>
<g id="a_node2"><a xlink:href="../../d7/d29/MultiView_8h.html" target="_top" xlink:title="EventVisualisationView\l/MultiView.h">
<polygon fill="none" stroke="black" points="176.5,-305 176.5,-335 295.5,-335 295.5,-305 176.5,-305"/>
<text text-anchor="start" x="184.5" y="-323" font-family="Helvetica,sans-Serif" font-size="10.00">EventVisualisationView</text>
<text text-anchor="middle" x="236" y="-312" font-family="Helvetica,sans-Serif" font-size="10.00">/MultiView.h</text>
</a>
</g>
</g>
<!-- Node1&#45;&gt;Node2 -->
<g id="edge1" class="edge"><title>Node1&#45;&gt;Node2</title>
<path fill="none" stroke="midnightblue" d="M721.443,-391.154C630.722,-380.918 457.467,-360.218 311,-336 309.289,-335.717 307.557,-335.424 305.811,-335.122"/>
<polygon fill="midnightblue" stroke="midnightblue" points="306.163,-331.63 295.703,-333.316 304.931,-338.521 306.163,-331.63"/>
</g>
<!-- Node8 -->
<g id="node8" class="node"><title>Node8</title>
<g id="a_node8"><a xlink:href="../../db/d9e/ConfigurationManager_8h.html" target="_top" xlink:title="EventVisualisationBase\l/ConfigurationManager.h">
<polygon fill="none" stroke="black" points="496.5,-305 496.5,-335 619.5,-335 619.5,-305 496.5,-305"/>
<text text-anchor="start" x="504.5" y="-323" font-family="Helvetica,sans-Serif" font-size="10.00">EventVisualisationBase</text>
<text text-anchor="middle" x="558" y="-312" font-family="Helvetica,sans-Serif" font-size="10.00">/ConfigurationManager.h</text>
</a>
</g>
</g>
<!-- Node1&#45;&gt;Node8 -->
<g id="edge7" class="edge"><title>Node1&#45;&gt;Node8</title>
<path fill="none" stroke="midnightblue" d="M721.347,-376.653C685.916,-364.582 642.184,-349.682 608.889,-338.338"/>
<polygon fill="midnightblue" stroke="midnightblue" points="609.947,-335.001 599.352,-335.089 607.689,-341.627 609.947,-335.001"/>
</g>
<!-- Node9 -->
<g id="node9" class="node"><title>Node9</title>
<polygon fill="none" stroke="#bfbfbf" points="515,-242.5 515,-261.5 563,-261.5 563,-242.5 515,-242.5"/>
<text text-anchor="middle" x="539" y="-249.5" font-family="Helvetica,sans-Serif" font-size="10.00">TEnv.h</text>
</g>
<!-- Node1&#45;&gt;Node9 -->
<g id="edge42" class="edge"><title>Node1&#45;&gt;Node9</title>
<path fill="none" stroke="midnightblue" d="M721.338,-393.965C643.088,-387.469 515.946,-371.612 487,-336 469.01,-313.867 496.919,-285.106 518.302,-267.903"/>
<polygon fill="midnightblue" stroke="midnightblue" points="520.562,-270.581 526.35,-261.707 516.291,-265.034 520.562,-270.581"/>
</g>
<!-- Node10 -->
<g id="node10" class="node"><title>Node10</title>
<g id="a_node10"><a xlink:href="../../d8/d25/EventManager_8h.html" target="_top" xlink:title="EventVisualisationBase\l/EventManager.h">
<polygon fill="none" stroke="black" points="723,-169 723,-199 843,-199 843,-169 723,-169"/>
<text text-anchor="start" x="731" y="-187" font-family="Helvetica,sans-Serif" font-size="10.00">EventVisualisationBase</text>
<text text-anchor="middle" x="783" y="-176" font-family="Helvetica,sans-Serif" font-size="10.00">/EventManager.h</text>
</a>
</g>
</g>
<!-- Node1&#45;&gt;Node10 -->
<g id="edge9" class="edge"><title>Node1&#45;&gt;Node10</title>
<path fill="none" stroke="midnightblue" d="M738.159,-372.951C724.991,-363.273 712.244,-350.895 705,-336 698.779,-323.21 700.932,-317.628 705,-304 716.265,-266.265 743.749,-229.379 762.882,-206.919"/>
<polygon fill="midnightblue" stroke="midnightblue" points="765.573,-209.159 769.508,-199.322 760.297,-204.558 765.573,-209.159"/>
</g>
<!-- Node29 -->
<g id="node29" class="node"><title>Node29</title>
<g id="a_node29"><a xlink:href="../../d7/d97/EventVisualisation_2Base_2include_2EventVisualisationBase_2GeometryManager_8h.html" target="_top" xlink:title="EventVisualisationBase\l/GeometryManager.h">
<polygon fill="none" stroke="black" points="320,-305 320,-335 440,-335 440,-305 320,-305"/>
<text text-anchor="start" x="328" y="-323" font-family="Helvetica,sans-Serif" font-size="10.00">EventVisualisationBase</text>
<text text-anchor="middle" x="380" y="-312" font-family="Helvetica,sans-Serif" font-size="10.00">/GeometryManager.h</text>
</a>
</g>
</g>
<!-- Node1&#45;&gt;Node29 -->
<g id="edge29" class="edge"><title>Node1&#45;&gt;Node29</title>
<path fill="none" stroke="midnightblue" d="M721.3,-386.495C654.879,-374.244 546.972,-354.156 454,-336 452.734,-335.753 451.455,-335.502 450.167,-335.249"/>
<polygon fill="midnightblue" stroke="midnightblue" points="450.65,-331.777 440.161,-333.27 449.292,-338.644 450.65,-331.777"/>
</g>
<!-- Node30 -->
<g id="node30" class="node"><title>Node30</title>
<g id="a_node30"><a xlink:href="../../d6/d7c/VisualisationConstants_8h.html" target="_top" xlink:title="EventVisualisationBase\l/VisualisationConstants.h">
<polygon fill="none" stroke="black" points="577,-169 577,-199 705,-199 705,-169 577,-169"/>
<text text-anchor="start" x="585" y="-187" font-family="Helvetica,sans-Serif" font-size="10.00">EventVisualisationBase</text>
<text text-anchor="middle" x="641" y="-176" font-family="Helvetica,sans-Serif" font-size="10.00">/VisualisationConstants.h</text>
</a>
</g>
</g>
<!-- Node1&#45;&gt;Node30 -->
<g id="edge32" class="edge"><title>Node1&#45;&gt;Node30</title>
<path fill="none" stroke="midnightblue" d="M739.138,-372.969C724.451,-363.017 709.079,-350.467 698,-336 668.282,-297.195 652.598,-241.165 645.621,-209.401"/>
<polygon fill="midnightblue" stroke="midnightblue" points="648.972,-208.322 643.508,-199.245 642.119,-209.749 648.972,-208.322"/>
</g>
<!-- Node31 -->
<g id="node31" class="node"><title>Node31</title>
<g id="a_node31"><a xlink:href="../../d0/d5f/DataInterpreterRND_8h.html" target="_top" xlink:title="EventVisualisationDetectors\l/DataInterpreterRND.h">
<polygon fill="none" stroke="black" points="714,-305 714,-335 854,-335 854,-305 714,-305"/>
<text text-anchor="start" x="722" y="-323" font-family="Helvetica,sans-Serif" font-size="10.00">EventVisualisationDetectors</text>
<text text-anchor="middle" x="784" y="-312" font-family="Helvetica,sans-Serif" font-size="10.00">/DataInterpreterRND.h</text>
</a>
</g>
</g>
<!-- Node1&#45;&gt;Node31 -->
<g id="edge34" class="edge"><title>Node1&#45;&gt;Node31</title>
<path fill="none" stroke="midnightblue" d="M784,-372.787C784,-364.029 784,-354.225 784,-345.523"/>
<polygon fill="midnightblue" stroke="midnightblue" points="787.5,-345.252 784,-335.252 780.5,-345.252 787.5,-345.252"/>
</g>
<!-- Node33 -->
<g id="node33" class="node"><title>Node33</title>
<polygon fill="none" stroke="#bfbfbf" points="872.5,-310.5 872.5,-329.5 939.5,-329.5 939.5,-310.5 872.5,-310.5"/>
<text text-anchor="middle" x="906" y="-317.5" font-family="Helvetica,sans-Serif" font-size="10.00">TBrowser.h</text>
</g>
<!-- Node1&#45;&gt;Node33 -->
<g id="edge41" class="edge"><title>Node1&#45;&gt;Node33</title>
<path fill="none" stroke="midnightblue" d="M823.947,-372.787C843.883,-360.205 867.238,-345.464 883.922,-334.934"/>
<polygon fill="midnightblue" stroke="midnightblue" points="885.853,-337.855 892.441,-329.558 882.116,-331.935 885.853,-337.855"/>
</g>
<!-- Node34 -->
<g id="node34" class="node"><title>Node34</title>
<polygon fill="none" stroke="#bfbfbf" points="958,-310.5 958,-329.5 1042,-329.5 1042,-310.5 958,-310.5"/>
<text text-anchor="middle" x="1000" y="-317.5" font-family="Helvetica,sans-Serif" font-size="10.00">TEveBrowser.h</text>
</g>
<!-- Node1&#45;&gt;Node34 -->
<g id="edge43" class="edge"><title>Node1&#45;&gt;Node34</title>
<path fill="none" stroke="midnightblue" d="M846.766,-375.625C885.768,-361.722 934.375,-344.394 966.253,-333.03"/>
<polygon fill="midnightblue" stroke="midnightblue" points="967.737,-336.217 975.981,-329.562 965.387,-329.623 967.737,-336.217"/>
</g>
<!-- Node35 -->
<g id="node35" class="node"><title>Node35</title>
<polygon fill="none" stroke="#bfbfbf" points="1060,-310.5 1060,-329.5 1146,-329.5 1146,-310.5 1060,-310.5"/>
<text text-anchor="middle" x="1103" y="-317.5" font-family="Helvetica,sans-Serif" font-size="10.00">TEveManager.h</text>
</g>
<!-- Node1&#45;&gt;Node35 -->
<g id="edge44" class="edge"><title>Node1&#45;&gt;Node35</title>
<path fill="none" stroke="midnightblue" d="M846.547,-384.29C900.58,-372.239 980.667,-353.881 1050,-336 1054.44,-334.854 1059.08,-333.611 1063.69,-332.347"/>
<polygon fill="midnightblue" stroke="midnightblue" points="1064.94,-335.632 1073.63,-329.577 1063.06,-328.889 1064.94,-335.632"/>
</g>
<!-- Node36 -->
<g id="node36" class="node"><title>Node36</title>
<polygon fill="none" stroke="#bfbfbf" points="1164,-310.5 1164,-329.5 1278,-329.5 1278,-310.5 1164,-310.5"/>
<text text-anchor="middle" x="1221" y="-317.5" font-family="Helvetica,sans-Serif" font-size="10.00">TEveProjectionAxes.h</text>
</g>
<!-- Node1&#45;&gt;Node36 -->
<g id="edge45" class="edge"><title>Node1&#45;&gt;Node36</title>
<path fill="none" stroke="midnightblue" d="M846.561,-388.677C920.47,-377.401 1047.04,-357.271 1155,-336 1161.58,-334.703 1168.52,-333.238 1175.31,-331.745"/>
<polygon fill="midnightblue" stroke="midnightblue" points="1176.12,-335.15 1185.11,-329.553 1174.59,-328.319 1176.12,-335.15"/>
</g>
<!-- Node37 -->
<g id="node37" class="node"><title>Node37</title>
<polygon fill="none" stroke="#bfbfbf" points="1296.5,-310.5 1296.5,-329.5 1425.5,-329.5 1425.5,-310.5 1296.5,-310.5"/>
<text text-anchor="middle" x="1361" y="-317.5" font-family="Helvetica,sans-Serif" font-size="10.00">TEveProjectionManager.h</text>
</g>
<!-- Node1&#45;&gt;Node37 -->
<g id="edge46" class="edge"><title>Node1&#45;&gt;Node37</title>
<path fill="none" stroke="midnightblue" d="M846.562,-391.861C941.906,-382.15 1129.16,-361.686 1287,-336 1295.09,-334.683 1303.65,-333.113 1311.96,-331.494"/>
<polygon fill="midnightblue" stroke="midnightblue" points="1312.81,-334.895 1321.93,-329.507 1311.44,-328.03 1312.81,-334.895"/>
</g>
<!-- Node38 -->
<g id="node38" class="node"><title>Node38</title>
<polygon fill="none" stroke="#bfbfbf" points="1444,-310.5 1444,-329.5 1498,-329.5 1498,-310.5 1444,-310.5"/>
<text text-anchor="middle" x="1471" y="-317.5" font-family="Helvetica,sans-Serif" font-size="10.00">iostream</text>
</g>
<!-- Node1&#45;&gt;Node38 -->
<g id="edge47" class="edge"><title>Node1&#45;&gt;Node38</title>
<path fill="none" stroke="midnightblue" d="M846.839,-398.008C964.026,-396.709 1223.15,-387.628 1434,-336 1437.07,-335.249 1440.21,-334.291 1443.31,-333.223"/>
<polygon fill="midnightblue" stroke="midnightblue" points="1444.81,-336.396 1452.91,-329.556 1442.31,-329.857 1444.81,-336.396"/>
</g>
<!-- Node3 -->
<g id="node3" class="node"><title>Node3</title>
<polygon fill="none" stroke="#bfbfbf" points="0,-242.5 0,-261.5 74,-261.5 74,-242.5 0,-242.5"/>
<text text-anchor="middle" x="37" y="-249.5" font-family="Helvetica,sans-Serif" font-size="10.00">TGLViewer.h</text>
</g>
<!-- Node2&#45;&gt;Node3 -->
<g id="edge2" class="edge"><title>Node2&#45;&gt;Node3</title>
<path fill="none" stroke="midnightblue" d="M193.31,-304.841C157.396,-292.93 106.632,-276.094 72.8086,-264.876"/>
<polygon fill="midnightblue" stroke="midnightblue" points="73.484,-261.413 62.8906,-261.587 71.2804,-268.057 73.484,-261.413"/>
</g>
<!-- Node4 -->
<g id="node4" class="node"><title>Node4</title>
<polygon fill="none" stroke="#bfbfbf" points="344,-242.5 344,-261.5 438,-261.5 438,-242.5 344,-242.5"/>
<text text-anchor="middle" x="391" y="-249.5" font-family="Helvetica,sans-Serif" font-size="10.00">TEveGeoShape.h</text>
</g>
<!-- Node2&#45;&gt;Node4 -->
<g id="edge3" class="edge"><title>Node2&#45;&gt;Node4</title>
<path fill="none" stroke="midnightblue" d="M269.251,-304.841C296.543,-293.221 334.843,-276.912 361.16,-265.706"/>
<polygon fill="midnightblue" stroke="midnightblue" points="362.781,-268.82 370.611,-261.682 360.039,-262.379 362.781,-268.82"/>
</g>
<!-- Node5 -->
<g id="node5" class="node"><title>Node5</title>
<polygon fill="none" stroke="#bfbfbf" points="92,-242.5 92,-261.5 168,-261.5 168,-242.5 92,-242.5"/>
<text text-anchor="middle" x="130" y="-249.5" font-family="Helvetica,sans-Serif" font-size="10.00">TEveScene.h</text>
</g>
<!-- Node2&#45;&gt;Node5 -->
<g id="edge4" class="edge"><title>Node2&#45;&gt;Node5</title>
<path fill="none" stroke="midnightblue" d="M213.26,-304.841C195.337,-293.681 170.469,-278.198 152.585,-267.063"/>
<polygon fill="midnightblue" stroke="midnightblue" points="154.283,-263.996 143.944,-261.682 150.583,-269.939 154.283,-263.996"/>
</g>
<!-- Node6 -->
<g id="node6" class="node"><title>Node6</title>
<polygon fill="none" stroke="#bfbfbf" points="186,-242.5 186,-261.5 264,-261.5 264,-242.5 186,-242.5"/>
<text text-anchor="middle" x="225" y="-249.5" font-family="Helvetica,sans-Serif" font-size="10.00">TEveViewer.h</text>
</g>
<!-- Node2&#45;&gt;Node6 -->
<g id="edge5" class="edge"><title>Node2&#45;&gt;Node6</title>
<path fill="none" stroke="midnightblue" d="M233.613,-304.679C232.017,-295.101 229.899,-282.394 228.163,-271.977"/>
<polygon fill="midnightblue" stroke="midnightblue" points="231.568,-271.117 226.471,-261.828 224.663,-272.268 231.568,-271.117"/>
</g>
<!-- Node7 -->
<g id="node7" class="node"><title>Node7</title>
<polygon fill="none" stroke="#bfbfbf" points="282,-242.5 282,-261.5 326,-261.5 326,-242.5 282,-242.5"/>
<text text-anchor="middle" x="304" y="-249.5" font-family="Helvetica,sans-Serif" font-size="10.00">vector</text>
</g>
<!-- Node2&#45;&gt;Node7 -->
<g id="edge6" class="edge"><title>Node2&#45;&gt;Node7</title>
<path fill="none" stroke="midnightblue" d="M250.755,-304.679C261.568,-294.184 276.252,-279.932 287.461,-269.052"/>
<polygon fill="midnightblue" stroke="midnightblue" points="290.166,-271.305 294.904,-261.828 285.291,-266.282 290.166,-271.305"/>
</g>
<!-- Node8&#45;&gt;Node9 -->
<g id="edge8" class="edge"><title>Node8&#45;&gt;Node9</title>
<path fill="none" stroke="midnightblue" d="M553.877,-304.679C551.091,-294.999 547.384,-282.123 544.367,-271.645"/>
<polygon fill="midnightblue" stroke="midnightblue" points="547.671,-270.47 541.541,-261.828 540.945,-272.406 547.671,-270.47"/>
</g>
<!-- Node11 -->
<g id="node11" class="node"><title>Node11</title>
<g id="a_node11"><a xlink:href="../../d1/da0/Manager_8h.html" target="_top" xlink:title="Adapted to o2 from the original AliCDBManager.h in AliRoot. ">
<polygon fill="none" stroke="black" points="660.5,-112.5 660.5,-131.5 755.5,-131.5 755.5,-112.5 660.5,-112.5"/>
<text text-anchor="middle" x="708" y="-119.5" font-family="Helvetica,sans-Serif" font-size="10.00">CCDB/Manager.h</text>
</a>
</g>
</g>
<!-- Node10&#45;&gt;Node11 -->
<g id="edge10" class="edge"><title>Node10&#45;&gt;Node11</title>
<path fill="none" stroke="midnightblue" d="M765.226,-168.781C753.654,-159.523 738.577,-147.462 726.804,-138.044"/>
<polygon fill="midnightblue" stroke="midnightblue" points="728.908,-135.244 718.913,-131.731 724.535,-140.711 728.908,-135.244"/>
</g>
<!-- Node25 -->
<g id="node25" class="node"><title>Node25</title>
<polygon fill="none" stroke="#bfbfbf" points="902,-112.5 902,-131.5 986,-131.5 986,-112.5 902,-112.5"/>
<text text-anchor="middle" x="944" y="-119.5" font-family="Helvetica,sans-Serif" font-size="10.00">TEveElement.h</text>
</g>
<!-- Node10&#45;&gt;Node25 -->
<g id="edge25" class="edge"><title>Node10&#45;&gt;Node25</title>
<path fill="none" stroke="midnightblue" d="M820.747,-168.933C848.274,-158.674 885.195,-144.915 911.433,-135.137"/>
<polygon fill="midnightblue" stroke="midnightblue" points="912.775,-138.372 920.923,-131.6 910.331,-131.813 912.775,-138.372"/>
</g>
<!-- Node26 -->
<g id="node26" class="node"><title>Node26</title>
<polygon fill="none" stroke="#bfbfbf" points="773.5,-112.5 773.5,-131.5 884.5,-131.5 884.5,-112.5 773.5,-112.5"/>
<text text-anchor="middle" x="829" y="-119.5" font-family="Helvetica,sans-Serif" font-size="10.00">TEveEventManager.h</text>
</g>
<!-- Node10&#45;&gt;Node26 -->
<g id="edge26" class="edge"><title>Node10&#45;&gt;Node26</title>
<path fill="none" stroke="midnightblue" d="M793.901,-168.781C800.586,-160.062 809.176,-148.857 816.185,-139.715"/>
<polygon fill="midnightblue" stroke="midnightblue" points="819,-141.796 822.307,-131.731 813.445,-137.537 819,-141.796"/>
</g>
<!-- Node27 -->
<g id="node27" class="node"><title>Node27</title>
<polygon fill="none" stroke="#bfbfbf" points="575.5,-112.5 575.5,-131.5 642.5,-131.5 642.5,-112.5 575.5,-112.5"/>
<text text-anchor="middle" x="609" y="-119.5" font-family="Helvetica,sans-Serif" font-size="10.00">TQObject.h</text>
</g>
<!-- Node10&#45;&gt;Node27 -->
<g id="edge27" class="edge"><title>Node10&#45;&gt;Node27</title>
<path fill="none" stroke="midnightblue" d="M742.205,-168.933C712.104,-158.553 671.607,-144.589 643.196,-134.792"/>
<polygon fill="midnightblue" stroke="midnightblue" points="644.282,-131.464 633.687,-131.513 642,-138.081 644.282,-131.464"/>
</g>
<!-- Node28 -->
<g id="node28" class="node"><title>Node28</title>
<polygon fill="none" stroke="#bfbfbf" points="516.5,-112.5 516.5,-131.5 557.5,-131.5 557.5,-112.5 516.5,-112.5"/>
<text text-anchor="middle" x="537" y="-119.5" font-family="Helvetica,sans-Serif" font-size="10.00">string</text>
</g>
<!-- Node10&#45;&gt;Node28 -->
<g id="edge28" class="edge"><title>Node10&#45;&gt;Node28</title>
<path fill="none" stroke="midnightblue" d="M722.866,-169.365C673.621,-158.114 606.878,-142.655 567.247,-132.185"/>
<polygon fill="midnightblue" stroke="midnightblue" points="568.109,-128.793 557.543,-129.57 566.288,-135.552 568.109,-128.793"/>
</g>
<!-- Node12 -->
<g id="node12" class="node"><title>Node12</title>
<polygon fill="none" stroke="#bfbfbf" points="511.5,-56.5 511.5,-75.5 558.5,-75.5 558.5,-56.5 511.5,-56.5"/>
<text text-anchor="middle" x="535" y="-63.5" font-family="Helvetica,sans-Serif" font-size="10.00">TList.h</text>
</g>
<!-- Node11&#45;&gt;Node12 -->
<g id="edge11" class="edge"><title>Node11&#45;&gt;Node12</title>
<path fill="none" stroke="midnightblue" d="M680.588,-112.444C650.108,-102.93 600.88,-87.5637 568.231,-77.3728"/>
<polygon fill="midnightblue" stroke="midnightblue" points="569.259,-74.0271 558.67,-74.3884 567.173,-80.7091 569.259,-74.0271"/>
</g>
<!-- Node13 -->
<g id="node13" class="node"><title>Node13</title>
<polygon fill="none" stroke="#bfbfbf" points="577,-56.5 577,-75.5 627,-75.5 627,-56.5 577,-56.5"/>
<text text-anchor="middle" x="602" y="-63.5" font-family="Helvetica,sans-Serif" font-size="10.00">TMap.h</text>
</g>
<!-- Node11&#45;&gt;Node13 -->
<g id="edge12" class="edge"><title>Node11&#45;&gt;Node13</title>
<path fill="none" stroke="midnightblue" d="M690.969,-112.324C673.97,-103.664 647.624,-90.2424 628.007,-80.249"/>
<polygon fill="midnightblue" stroke="midnightblue" points="629.488,-77.0752 618.988,-75.6545 626.31,-83.3125 629.488,-77.0752"/>
</g>
<!-- Node14 -->
<g id="node14" class="node"><title>Node14</title>
<polygon fill="none" stroke="#bfbfbf" points="669.5,-0.5 669.5,-19.5 728.5,-19.5 728.5,-0.5 669.5,-0.5"/>
<text text-anchor="middle" x="699" y="-7.5" font-family="Helvetica,sans-Serif" font-size="10.00">TObject.h</text>
</g>
<!-- Node11&#45;&gt;Node14 -->
<g id="edge13" class="edge"><title>Node11&#45;&gt;Node14</title>
<path fill="none" stroke="midnightblue" d="M698.712,-112.395C690.419,-104.025 678.856,-90.4826 674,-76 668.494,-59.5805 676.976,-41.1864 685.516,-28.1675"/>
<polygon fill="midnightblue" stroke="midnightblue" points="688.572,-29.9116 691.546,-19.7428 682.88,-25.8375 688.572,-29.9116"/>
</g>
<!-- Node15 -->
<g id="node15" class="node"><title>Node15</title>
<polygon fill="none" stroke="#bfbfbf" points="683.5,-56.5 683.5,-75.5 732.5,-75.5 732.5,-56.5 683.5,-56.5"/>
<text text-anchor="middle" x="708" y="-63.5" font-family="Helvetica,sans-Serif" font-size="10.00">cstddef</text>
</g>
<!-- Node11&#45;&gt;Node15 -->
<g id="edge14" class="edge"><title>Node11&#45;&gt;Node15</title>
<path fill="none" stroke="midnightblue" d="M708,-112.083C708,-105.006 708,-94.8611 708,-85.9865"/>
<polygon fill="midnightblue" stroke="midnightblue" points="711.5,-85.751 708,-75.7511 704.5,-85.7511 711.5,-85.751"/>
</g>
<!-- Node16 -->
<g id="node16" class="node"><title>Node16</title>
<polygon fill="none" stroke="#bfbfbf" points="751,-56.5 751,-75.5 807,-75.5 807,-56.5 751,-56.5"/>
<text text-anchor="middle" x="779" y="-63.5" font-family="Helvetica,sans-Serif" font-size="10.00">Rtypes.h</text>
</g>
<!-- Node11&#45;&gt;Node16 -->
<g id="edge15" class="edge"><title>Node11&#45;&gt;Node16</title>
<path fill="none" stroke="midnightblue" d="M719.407,-112.324C730.109,-104.185 746.341,-91.8395 759.163,-82.0874"/>
<polygon fill="midnightblue" stroke="midnightblue" points="761.544,-84.6734 767.385,-75.8339 757.307,-79.1018 761.544,-84.6734"/>
</g>
<!-- Node17 -->
<g id="node17" class="node"><title>Node17</title>
<polygon fill="none" stroke="#bfbfbf" points="825,-56.5 825,-75.5 881,-75.5 881,-56.5 825,-56.5"/>
<text text-anchor="middle" x="853" y="-63.5" font-family="Helvetica,sans-Serif" font-size="10.00">TString.h</text>
</g>
<!-- Node11&#45;&gt;Node17 -->
<g id="edge16" class="edge"><title>Node11&#45;&gt;Node17</title>
<path fill="none" stroke="midnightblue" d="M730.976,-112.444C755.157,-103.438 793.418,-89.1891 820.646,-79.049"/>
<polygon fill="midnightblue" stroke="midnightblue" points="821.982,-82.2864 830.132,-75.5164 819.539,-75.7265 821.982,-82.2864"/>
</g>
<!-- Node18 -->
<g id="node18" class="node"><title>Node18</title>
<g id="a_node18"><a xlink:href="../../d7/d44/TObjectWrapper_8h.html" target="_top" xlink:title="CCDB/TObjectWrapper.h">
<polygon fill="none" stroke="black" points="899,-56.5 899,-75.5 1027,-75.5 1027,-56.5 899,-56.5"/>
<text text-anchor="middle" x="963" y="-63.5" font-family="Helvetica,sans-Serif" font-size="10.00">CCDB/TObjectWrapper.h</text>
</a>
</g>
</g>
<!-- Node11&#45;&gt;Node18 -->
<g id="edge17" class="edge"><title>Node11&#45;&gt;Node18</title>
<path fill="none" stroke="midnightblue" d="M748.406,-112.444C792.983,-103.004 864.768,-87.802 912.892,-77.6111"/>
<polygon fill="midnightblue" stroke="midnightblue" points="913.726,-81.0123 922.784,-75.5164 912.275,-74.1641 913.726,-81.0123"/>
</g>
<!-- Node18&#45;&gt;Node14 -->
<g id="edge19" class="edge"><title>Node18&#45;&gt;Node14</title>
<path fill="none" stroke="midnightblue" d="M921.168,-56.4435C871.081,-46.1985 787.816,-29.1669 738.695,-19.1195"/>
<polygon fill="midnightblue" stroke="midnightblue" points="739.255,-15.6615 728.756,-17.0865 737.852,-22.5195 739.255,-15.6615"/>
</g>
<!-- Node19 -->
<g id="node19" class="node"><title>Node19</title>
<polygon fill="none" stroke="#bfbfbf" points="971,-0.5 971,-19.5 1027,-19.5 1027,-0.5 971,-0.5"/>
<text text-anchor="middle" x="999" y="-7.5" font-family="Helvetica,sans-Serif" font-size="10.00">TClass.h</text>
</g>
<!-- Node18&#45;&gt;Node19 -->
<g id="edge18" class="edge"><title>Node18&#45;&gt;Node19</title>
<path fill="none" stroke="midnightblue" d="M968.945,-56.083C973.977,-48.5341 981.337,-37.4948 987.513,-28.2298"/>
<polygon fill="midnightblue" stroke="midnightblue" points="990.531,-30.0131 993.166,-19.7511 984.707,-26.1301 990.531,-30.0131"/>
</g>
<!-- Node20 -->
<g id="node20" class="node"><title>Node20</title>
<polygon fill="none" stroke="#bfbfbf" points="1045.5,-0.5 1045.5,-19.5 1098.5,-19.5 1098.5,-0.5 1045.5,-0.5"/>
<text text-anchor="middle" x="1072" y="-7.5" font-family="Helvetica,sans-Serif" font-size="10.00">cxxabi.h</text>
</g>
<!-- Node18&#45;&gt;Node20 -->
<g id="edge20" class="edge"><title>Node18&#45;&gt;Node20</title>
<path fill="none" stroke="midnightblue" d="M980.513,-56.324C998.072,-47.6247 1025.33,-34.1202 1045.53,-24.113"/>
<polygon fill="midnightblue" stroke="midnightblue" points="1047.12,-27.23 1054.53,-19.6545 1044.02,-20.9575 1047.12,-27.23"/>
</g>
<!-- Node21 -->
<g id="node21" class="node"><title>Node21</title>
<polygon fill="none" stroke="#bfbfbf" points="1116.5,-0.5 1116.5,-19.5 1161.5,-19.5 1161.5,-0.5 1116.5,-0.5"/>
<text text-anchor="middle" x="1139" y="-7.5" font-family="Helvetica,sans-Serif" font-size="10.00">iosfwd</text>
</g>
<!-- Node18&#45;&gt;Node21 -->
<g id="edge21" class="edge"><title>Node18&#45;&gt;Node21</title>
<path fill="none" stroke="midnightblue" d="M990.888,-56.4435C1022.33,-46.795 1073.4,-31.1273 1106.59,-20.9429"/>
<polygon fill="midnightblue" stroke="midnightblue" points="1107.75,-24.2503 1116.28,-17.971 1105.69,-17.5582 1107.75,-24.2503"/>
</g>
<!-- Node22 -->
<g id="node22" class="node"><title>Node22</title>
<polygon fill="none" stroke="#bfbfbf" points="754,-0.5 754,-19.5 806,-19.5 806,-0.5 754,-0.5"/>
<text text-anchor="middle" x="780" y="-7.5" font-family="Helvetica,sans-Serif" font-size="10.00">memory</text>
</g>
<!-- Node18&#45;&gt;Node22 -->
<g id="edge22" class="edge"><title>Node18&#45;&gt;Node22</title>
<path fill="none" stroke="midnightblue" d="M934.003,-56.4435C901.99,-46.997 850.424,-31.7807 815.887,-21.5897"/>
<polygon fill="midnightblue" stroke="midnightblue" points="816.775,-18.2024 806.193,-18.729 814.793,-24.9162 816.775,-18.2024"/>
</g>
<!-- Node23 -->
<g id="node23" class="node"><title>Node23</title>
<polygon fill="none" stroke="#bfbfbf" points="824.5,-0.5 824.5,-19.5 883.5,-19.5 883.5,-0.5 824.5,-0.5"/>
<text text-anchor="middle" x="854" y="-7.5" font-family="Helvetica,sans-Serif" font-size="10.00">stdexcept</text>
</g>
<!-- Node18&#45;&gt;Node23 -->
<g id="edge23" class="edge"><title>Node18&#45;&gt;Node23</title>
<path fill="none" stroke="midnightblue" d="M945.487,-56.324C927.928,-47.6247 900.669,-34.1202 880.469,-24.113"/>
<polygon fill="midnightblue" stroke="midnightblue" points="881.984,-20.9575 871.469,-19.6545 878.876,-27.23 881.984,-20.9575"/>
</g>
<!-- Node24 -->
<g id="node24" class="node"><title>Node24</title>
<polygon fill="none" stroke="#bfbfbf" points="901.5,-0.5 901.5,-19.5 952.5,-19.5 952.5,-0.5 901.5,-0.5"/>
<text text-anchor="middle" x="927" y="-7.5" font-family="Helvetica,sans-Serif" font-size="10.00">typeinfo</text>
</g>
<!-- Node18&#45;&gt;Node24 -->
<g id="edge24" class="edge"><title>Node18&#45;&gt;Node24</title>
<path fill="none" stroke="midnightblue" d="M957.055,-56.083C952.023,-48.5341 944.663,-37.4948 938.487,-28.2298"/>
<polygon fill="midnightblue" stroke="midnightblue" points="941.293,-26.1301 932.834,-19.7511 935.469,-30.0131 941.293,-26.1301"/>
</g>
<!-- Node29&#45;&gt;Node4 -->
<g id="edge30" class="edge"><title>Node29&#45;&gt;Node4</title>
<path fill="none" stroke="midnightblue" d="M382.387,-304.679C383.983,-295.101 386.101,-282.394 387.837,-271.977"/>
<polygon fill="midnightblue" stroke="midnightblue" points="391.337,-272.268 389.529,-261.828 384.432,-271.117 391.337,-272.268"/>
</g>
<!-- Node29&#45;&gt;Node28 -->
<g id="edge31" class="edge"><title>Node29&#45;&gt;Node28</title>
<path fill="none" stroke="midnightblue" d="M402.48,-304.956C416.348,-295.59 433.921,-282.386 447,-268 483.922,-227.388 514.536,-169.624 528.637,-140.798"/>
<polygon fill="midnightblue" stroke="midnightblue" points="531.894,-142.102 533.067,-131.572 525.583,-139.072 531.894,-142.102"/>
</g>
<!-- Node30&#45;&gt;Node28 -->
<g id="edge33" class="edge"><title>Node30&#45;&gt;Node28</title>
<path fill="none" stroke="midnightblue" d="M616.617,-168.933C599.854,-159.262 577.697,-146.479 561.015,-136.855"/>
<polygon fill="midnightblue" stroke="midnightblue" points="562.318,-133.566 551.907,-131.6 558.82,-139.629 562.318,-133.566"/>
</g>
<!-- Node31&#45;&gt;Node10 -->
<g id="edge39" class="edge"><title>Node31&#45;&gt;Node10</title>
<path fill="none" stroke="midnightblue" d="M783.893,-304.66C783.723,-281.891 783.39,-237.203 783.182,-209.349"/>
<polygon fill="midnightblue" stroke="midnightblue" points="786.681,-209.211 783.106,-199.237 779.681,-209.263 786.681,-209.211"/>
</g>
<!-- Node31&#45;&gt;Node30 -->
<g id="edge40" class="edge"><title>Node31&#45;&gt;Node30</title>
<path fill="none" stroke="midnightblue" d="M768.967,-304.913C743.821,-281.35 693.094,-233.815 663.621,-206.197"/>
<polygon fill="midnightblue" stroke="midnightblue" points="665.952,-203.585 656.262,-199.302 661.166,-208.693 665.952,-203.585"/>
</g>
<!-- Node32 -->
<g id="node32" class="node"><title>Node32</title>
<g id="a_node32"><a xlink:href="../../dd/dbf/DataInterpreter_8h.html" target="_top" xlink:title="EventVisualisationBase\l/DataInterpreter.h">
<polygon fill="none" stroke="black" points="805,-237 805,-267 925,-267 925,-237 805,-237"/>
<text text-anchor="start" x="813" y="-255" font-family="Helvetica,sans-Serif" font-size="10.00">EventVisualisationBase</text>
<text text-anchor="middle" x="865" y="-244" font-family="Helvetica,sans-Serif" font-size="10.00">/DataInterpreter.h</text>
</a>
</g>
</g>
<!-- Node31&#45;&gt;Node32 -->
<g id="edge35" class="edge"><title>Node31&#45;&gt;Node32</title>
<path fill="none" stroke="midnightblue" d="M801.576,-304.679C812.797,-295.536 827.52,-283.54 839.955,-273.407"/>
<polygon fill="midnightblue" stroke="midnightblue" points="842.195,-276.096 847.737,-267.066 837.774,-270.67 842.195,-276.096"/>
</g>
<!-- Node32&#45;&gt;Node10 -->
<g id="edge36" class="edge"><title>Node32&#45;&gt;Node10</title>
<path fill="none" stroke="midnightblue" d="M847.207,-236.679C835.847,-227.536 820.943,-215.54 808.354,-205.407"/>
<polygon fill="midnightblue" stroke="midnightblue" points="810.461,-202.61 800.476,-199.066 806.072,-208.063 810.461,-202.61"/>
</g>
<!-- Node32&#45;&gt;Node25 -->
<g id="edge38" class="edge"><title>Node32&#45;&gt;Node25</title>
<path fill="none" stroke="midnightblue" d="M873.756,-236.813C888.361,-213.149 917.642,-165.707 933.393,-140.186"/>
<polygon fill="midnightblue" stroke="midnightblue" points="936.435,-141.922 938.708,-131.574 930.478,-138.245 936.435,-141.922"/>
</g>
<!-- Node32&#45;&gt;Node30 -->
<g id="edge37" class="edge"><title>Node32&#45;&gt;Node30</title>
<path fill="none" stroke="midnightblue" d="M817.221,-236.922C782.426,-226.67 735.141,-212.738 698.312,-201.887"/>
<polygon fill="midnightblue" stroke="midnightblue" points="699.287,-198.525 688.705,-199.056 697.309,-205.24 699.287,-198.525"/>
</g>
</g>
</svg>
        <g id="navigator" transform="translate(0 0)" fill="#404254">
                <rect fill="#f2f5e9" fill-opacity="0.5" stroke="#606060" stroke-width=".5" x="0" y="0" width="60" height="60"/>
                <use id="zoomplus" xlink:href="#zoomPlus" x="17" y="9" onmousedown="handleZoom(evt,'in')"/>
                <use id="zoomminus" xlink:href="#zoomMin" x="42" y="9" onmousedown="handleZoom(evt,'out')"/>
                <use id="reset" xlink:href="#resetDef" x="30" y="36" onmousedown="handleReset()"/>
                <g id="arrowUp" xlink:href="#dirArrow" transform="translate(30 24)" onmousedown="handlePan(0,-1)">
                  <use xlink:href="#rim" fill="#404040">
                        <set attributeName="fill" to="#808080" begin="arrowUp.mouseover" end="arrowUp.mouseout"/>
                  </use>
                  <path fill="none" stroke="white" stroke-width="1.5" d="M0,-3.0v7 M-2.5,-0.5L0,-3.0L2.5,-0.5"/>
                </g>
                <g id="arrowRight" xlink:href="#dirArrow" transform="rotate(90) translate(36 -43)" onmousedown="handlePan(1,0)">
                  <use xlink:href="#rim" fill="#404040">
                        <set attributeName="fill" to="#808080" begin="arrowRight.mouseover" end="arrowRight.mouseout"/>
                  </use>
                  <path fill="none" stroke="white" stroke-width="1.5" d="M0,-3.0v7 M-2.5,-0.5L0,-3.0L2.5,-0.5"/>
                </g>
                <g id="arrowDown" xlink:href="#dirArrow" transform="rotate(180) translate(-30 -48)" onmousedown="handlePan(0,1)">
                  <use xlink:href="#rim" fill="#404040">
                        <set attributeName="fill" to="#808080" begin="arrowDown.mouseover" end="arrowDown.mouseout"/>
                  </use>
                  <path fill="none" stroke="white" stroke-width="1.5" d="M0,-3.0v7 M-2.5,-0.5L0,-3.0L2.5,-0.5"/>
                </g>
                <g id="arrowLeft" xlink:href="#dirArrow" transform="rotate(270) translate(-36 17)" onmousedown="handlePan(-1,0)">
                  <use xlink:href="#rim" fill="#404040">
                        <set attributeName="fill" to="#808080" begin="arrowLeft.mouseover" end="arrowLeft.mouseout"/>
                  </use>
                  <path fill="none" stroke="white" stroke-width="1.5" d="M0,-3.0v7 M-2.5,-0.5L0,-3.0L2.5,-0.5"/>
                </g>
        </g>
        <svg viewBox="0 0 15 15" width="100%" height="30px" preserveAspectRatio="xMaxYMin meet">
         <g id="arrow_out" transform="scale(0.3 0.3)">
          <a xlink:href="MultiView_8cxx__incl_org.svg" target="_base">
           <rect id="button" ry="5" rx="5" y="6" x="6" height="38" width="38"
                fill="#f2f5e9" fill-opacity="0.5" stroke="#606060" stroke-width="1.0"/>
           <path id="arrow"
             d="M 11.500037,31.436501 C 11.940474,20.09759 22.043105,11.32322 32.158766,21.979434 L 37.068811,17.246167 C 37.068811,17.246167 37.088388,32 37.088388,32 L 22.160133,31.978069 C 22.160133,31.978069 26.997745,27.140456 26.997745,27.140456 C 18.528582,18.264221 13.291696,25.230495 11.500037,31.436501 z"
             style="fill:#404040;"/>
          </a>
         </g>
        </svg>
</svg>
