<?xml version="1.0" encoding="UTF-8" standalone="no"?>
<!DOCTYPE svg PUBLIC "-//W3C//DTD SVG 1.1//EN"
 "http://www.w3.org/Graphics/SVG/1.1/DTD/svg11.dtd">
<!-- Generated by graphviz version 2.36.0 (20140111.2315)
 -->
<!-- Title: StbUndoState Pages: 1 -->
<svg width="419pt" height="300pt"
 viewBox="0.00 0.00 419.00 300.00" xmlns="http://www.w3.org/2000/svg" xmlns:xlink="http://www.w3.org/1999/xlink">
<g id="graph0" class="graph" transform="scale(1 1) rotate(0) translate(4 296)">
<title>StbUndoState</title>
<!-- Node1 -->
<g id="node1" class="node"><title>Node1</title>
<polygon fill="#bfbfbf" stroke="black" points="148,-0.5 148,-57.5 226,-57.5 226,-0.5 148,-0.5"/>
<text text-anchor="middle" x="187" y="-45.5" font-family="Helvetica,sans-Serif" font-size="10.00">StbUndoState</text>
<polyline fill="none" stroke="black" points="148,-38.5 226,-38.5 "/>
<text text-anchor="middle" x="187" y="-26.5" font-family="Helvetica,sans-Serif" font-size="10.00"> </text>
<polyline fill="none" stroke="black" points="148,-19.5 226,-19.5 "/>
<text text-anchor="middle" x="187" y="-7.5" font-family="Helvetica,sans-Serif" font-size="10.00"> </text>
</g>
<!-- Node2 -->
<g id="node2" class="node"><title>Node2</title>
<polygon fill="none" stroke="#bfbfbf" points="-0.5,-106.5 -0.5,-163.5 150.5,-163.5 150.5,-106.5 -0.5,-106.5"/>
<text text-anchor="middle" x="75" y="-151.5" font-family="Helvetica,sans-Serif" font-size="10.00">STB_TEXTEDIT_CHARTYPE</text>
<polyline fill="none" stroke="#bfbfbf" points="-0.5,-144.5 150.5,-144.5 "/>
<text text-anchor="middle" x="75" y="-132.5" font-family="Helvetica,sans-Serif" font-size="10.00"> </text>
<polyline fill="none" stroke="#bfbfbf" points="-0.5,-125.5 150.5,-125.5 "/>
<text text-anchor="middle" x="75" y="-113.5" font-family="Helvetica,sans-Serif" font-size="10.00"> </text>
</g>
<!-- Node2&#45;&gt;Node1 -->
<g id="edge1" class="edge"><title>Node2&#45;&gt;Node1</title>
<path fill="none" stroke="#404040" d="M92.4864,-106.442C99.6869,-96.2419 108.555,-84.985 118,-76 124.027,-70.2664 130.849,-64.7777 137.799,-59.7153"/>
<polygon fill="none" stroke="#404040" points="138.145,-59.4752 140.787,-52.7658 147.997,-52.6245 145.354,-59.334 138.145,-59.4752"/>
<text text-anchor="middle" x="145.5" y="-79.5" font-family="Helvetica,sans-Serif" font-size="10.00"> +undo_char</text>
</g>
<!-- Node3 -->
<g id="node3" class="node"><title>Node3</title>
<g id="a_node3"><a xlink:href="../../da/d11/structStbUndoRecord.html" target="_top" xlink:title="{StbUndoRecord\n||}">
<polygon fill="none" stroke="black" points="283,-106.5 283,-163.5 369,-163.5 369,-106.5 283,-106.5"/>
<text text-anchor="middle" x="326" y="-151.5" font-family="Helvetica,sans-Serif" font-size="10.00">StbUndoRecord</text>
<polyline fill="none" stroke="black" points="283,-144.5 369,-144.5 "/>
<text text-anchor="middle" x="326" y="-132.5" font-family="Helvetica,sans-Serif" font-size="10.00"> </text>
<polyline fill="none" stroke="black" points="283,-125.5 369,-125.5 "/>
<text text-anchor="middle" x="326" y="-113.5" font-family="Helvetica,sans-Serif" font-size="10.00"> </text>
</a>
</g>
</g>
<!-- Node3&#45;&gt;Node1 -->
<g id="edge2" class="edge"><title>Node3&#45;&gt;Node1</title>
<path fill="none" stroke="#404040" d="M289.115,-106.403C272.15,-93.7094 251.831,-78.5069 233.802,-65.0172"/>
<polygon fill="none" stroke="#404040" points="233.665,-64.915 226.465,-64.5233 224.057,-57.726 231.257,-58.1177 233.665,-64.915"/>
<text text-anchor="middle" x="285.5" y="-79.5" font-family="Helvetica,sans-Serif" font-size="10.00"> +undo_rec</text>
</g>
<!-- Node4 -->
<g id="node4" class="node"><title>Node4</title>
<g id="a_node4"><a xlink:href="../../dc/d10/classshort.html" target="_top" xlink:title="{short\n||}">
<polygon fill="none" stroke="black" points="177,-234.5 177,-291.5 215,-291.5 215,-234.5 177,-234.5"/>
<text text-anchor="middle" x="196" y="-279.5" font-family="Helvetica,sans-Serif" font-size="10.00">short</text>
<polyline fill="none" stroke="black" points="177,-272.5 215,-272.5 "/>
<text text-anchor="middle" x="196" y="-260.5" font-family="Helvetica,sans-Serif" font-size="10.00"> </text>
<polyline fill="none" stroke="black" points="177,-253.5 215,-253.5 "/>
<text text-anchor="middle" x="196" y="-241.5" font-family="Helvetica,sans-Serif" font-size="10.00"> </text>
</a>
</g>
</g>
<!-- Node4&#45;&gt;Node1 -->
<g id="edge5" class="edge"><title>Node4&#45;&gt;Node1</title>
<path fill="none" stroke="#404040" d="M194.932,-234.476C193.35,-193.685 190.373,-116.959 188.551,-69.9726"/>
<polygon fill="none" stroke="#404040" points="188.546,-69.8405 184.316,-64.0001 188.08,-57.8495 192.31,-63.6899 188.546,-69.8405"/>
<text text-anchor="middle" x="232" y="-149" font-family="Helvetica,sans-Serif" font-size="10.00"> +redo_point</text>
<text text-anchor="middle" x="232" y="-138" font-family="Helvetica,sans-Serif" font-size="10.00">+redo_char_point</text>
<text text-anchor="middle" x="232" y="-127" font-family="Helvetica,sans-Serif" font-size="10.00">+undo_char_point</text>
<text text-anchor="middle" x="232" y="-116" font-family="Helvetica,sans-Serif" font-size="10.00">+undo_point</text>
</g>
<!-- Node4&#45;&gt;Node3 -->
<g id="edge3" class="edge"><title>Node4&#45;&gt;Node3</title>
<path fill="none" stroke="#404040" d="M213.753,-234.23C224.972,-217.925 240.444,-197.538 257,-182 261.855,-177.443 267.209,-173.032 272.721,-168.861"/>
<polygon fill="none" stroke="#404040" points="273.009,-168.654 275.536,-161.901 282.743,-161.636 280.215,-168.39 273.009,-168.654"/>
<text text-anchor="middle" x="289.5" y="-207.5" font-family="Helvetica,sans-Serif" font-size="10.00"> +insert_length</text>
<text text-anchor="middle" x="289.5" y="-196.5" font-family="Helvetica,sans-Serif" font-size="10.00">+char_storage</text>
<text text-anchor="middle" x="289.5" y="-185.5" font-family="Helvetica,sans-Serif" font-size="10.00">+delete_length</text>
</g>
<!-- Node5 -->
<g id="node5" class="node"><title>Node5</title>
<polygon fill="none" stroke="#bfbfbf" points="241,-234.5 241,-291.5 411,-291.5 411,-234.5 241,-234.5"/>
<text text-anchor="middle" x="326" y="-279.5" font-family="Helvetica,sans-Serif" font-size="10.00">STB_TEXTEDIT_POSITIONTYPE</text>
<polyline fill="none" stroke="#bfbfbf" points="241,-272.5 411,-272.5 "/>
<text text-anchor="middle" x="326" y="-260.5" font-family="Helvetica,sans-Serif" font-size="10.00"> </text>
<polyline fill="none" stroke="#bfbfbf" points="241,-253.5 411,-253.5 "/>
<text text-anchor="middle" x="326" y="-241.5" font-family="Helvetica,sans-Serif" font-size="10.00"> </text>
</g>
<!-- Node5&#45;&gt;Node3 -->
<g id="edge4" class="edge"><title>Node5&#45;&gt;Node3</title>
<path fill="none" stroke="#404040" d="M326,-234.349C326,-217.198 326,-194.879 326,-175.838"/>
<polygon fill="none" stroke="#404040" points="326,-175.587 322,-169.587 326,-163.587 330,-169.587 326,-175.587"/>
<text text-anchor="middle" x="344" y="-196.5" font-family="Helvetica,sans-Serif" font-size="10.00"> +where</text>
</g>
</g>
</svg>
