<?xml version="1.0" encoding="UTF-8" standalone="no"?>
<!DOCTYPE svg PUBLIC "-//W3C//DTD SVG 1.1//EN"
 "http://www.w3.org/Graphics/SVG/1.1/DTD/svg11.dtd">
<!-- Generated by graphviz version 2.36.0 (20140111.2315)
 -->
<!-- Title: S::Foo Pages: 1 -->
<svg width="54pt" height="194pt"
 viewBox="0.00 0.00 54.00 194.00" xmlns="http://www.w3.org/2000/svg" xmlns:xlink="http://www.w3.org/1999/xlink">
<g id="graph0" class="graph" transform="scale(1 1) rotate(0) translate(4 190)">
<title>S::Foo</title>
<!-- Node1 -->
<g id="node1" class="node"><title>Node1</title>
<polygon fill="#bfbfbf" stroke="black" points="0,-0.5 0,-57.5 46,-57.5 46,-0.5 0,-0.5"/>
<text text-anchor="middle" x="23" y="-45.5" font-family="Helvetica,sans-Serif" font-size="10.00">S::Foo</text>
<polyline fill="none" stroke="black" points="0,-38.5 46,-38.5 "/>
<text text-anchor="middle" x="23" y="-26.5" font-family="Helvetica,sans-Serif" font-size="10.00"> </text>
<polyline fill="none" stroke="black" points="0,-19.5 46,-19.5 "/>
<text text-anchor="middle" x="23" y="-7.5" font-family="Helvetica,sans-Serif" font-size="10.00"> </text>
</g>
<!-- Node2 -->
<g id="node2" class="node"><title>Node2</title>
<g id="a_node2"><a xlink:href="../../d1/da0/classint.html" target="_top" xlink:title="{int\n||}">
<polygon fill="none" stroke="black" points="8.5,-128.5 8.5,-185.5 37.5,-185.5 37.5,-128.5 8.5,-128.5"/>
<text text-anchor="middle" x="23" y="-173.5" font-family="Helvetica,sans-Serif" font-size="10.00">int</text>
<polyline fill="none" stroke="black" points="8.5,-166.5 37.5,-166.5 "/>
<text text-anchor="middle" x="23" y="-154.5" font-family="Helvetica,sans-Serif" font-size="10.00"> </text>
<polyline fill="none" stroke="black" points="8.5,-147.5 37.5,-147.5 "/>
<text text-anchor="middle" x="23" y="-135.5" font-family="Helvetica,sans-Serif" font-size="10.00"> </text>
</a>
</g>
</g>
<!-- Node2&#45;&gt;Node1 -->
<g id="edge1" class="edge"><title>Node2&#45;&gt;Node1</title>
<path fill="none" stroke="#404040" d="M23,-128.349C23,-111.198 23,-88.8785 23,-69.8384"/>
<polygon fill="none" stroke="#404040" points="23.0001,-69.5867 19,-63.5868 23,-57.5867 27,-63.5867 23.0001,-69.5867"/>
<text text-anchor="middle" x="30.5" y="-101.5" font-family="Helvetica,sans-Serif" font-size="10.00"> +a</text>
<text text-anchor="middle" x="30.5" y="-90.5" font-family="Helvetica,sans-Serif" font-size="10.00">+i</text>
<text text-anchor="middle" x="30.5" y="-79.5" font-family="Helvetica,sans-Serif" font-size="10.00">+j</text>
</g>
</g>
</svg>
