<?xml version="1.0" encoding="UTF-8" standalone="no"?>
<!DOCTYPE svg PUBLIC "-//W3C//DTD SVG 1.1//EN"
 "http://www.w3.org/Graphics/SVG/1.1/DTD/svg11.dtd">
<!-- Generated by graphviz version 2.36.0 (20140111.2315)
 -->
<!-- Title: /home/travis/build/AliceO2Group/AliceO2/Detectors/MUON/MID/Base/src/ChamberEfficiency.cxx Pages: 1 -->
<svg width="564pt" height="230pt"
 viewBox="0.00 0.00 564.00 230.00" xmlns="http://www.w3.org/2000/svg" xmlns:xlink="http://www.w3.org/1999/xlink">
<g id="graph0" class="graph" transform="scale(1 1) rotate(0) translate(4 226)">
<title>/home/travis/build/AliceO2Group/AliceO2/Detectors/MUON/MID/Base/src/ChamberEfficiency.cxx</title>
<!-- Node1 -->
<g id="node1" class="node"><title>Node1</title>
<polygon fill="#bfbfbf" stroke="black" points="176.5,-169 176.5,-221 319.5,-221 319.5,-169 176.5,-169"/>
<text text-anchor="start" x="184.5" y="-209" font-family="Helvetica,sans-Serif" font-size="10.00">/home/travis/build</text>
<text text-anchor="start" x="184.5" y="-198" font-family="Helvetica,sans-Serif" font-size="10.00">/AliceO2Group/AliceO2</text>
<text text-anchor="start" x="184.5" y="-187" font-family="Helvetica,sans-Serif" font-size="10.00">/Detectors/MUON/MID/Base</text>
<text text-anchor="middle" x="248" y="-176" font-family="Helvetica,sans-Serif" font-size="10.00">/src/ChamberEfficiency.cxx</text>
</g>
<!-- Node2 -->
<g id="node2" class="node"><title>Node2</title>
<g id="a_node2"><a xlink:href="../../d3/dbe/ChamberEfficiency_8h.html" target="_top" xlink:title="Measured values of the RPC efficiency. ">
<polygon fill="none" stroke="black" points="0,-112.5 0,-131.5 152,-131.5 152,-112.5 0,-112.5"/>
<text text-anchor="middle" x="76" y="-119.5" font-family="Helvetica,sans-Serif" font-size="10.00">MIDBase/ChamberEfficiency.h</text>
</a>
</g>
</g>
<!-- Node1&#45;&gt;Node2 -->
<g id="edge1" class="edge"><title>Node1&#45;&gt;Node2</title>
<path fill="none" stroke="midnightblue" d="M187.359,-168.968C159.893,-157.63 128.638,-144.728 106.246,-135.485"/>
<polygon fill="midnightblue" stroke="midnightblue" points="107.507,-132.219 96.928,-131.639 104.836,-138.69 107.507,-132.219"/>
</g>
<!-- Node5 -->
<g id="node5" class="node"><title>Node5</title>
<polygon fill="none" stroke="#bfbfbf" points="170,-112.5 170,-131.5 224,-131.5 224,-112.5 170,-112.5"/>
<text text-anchor="middle" x="197" y="-119.5" font-family="Helvetica,sans-Serif" font-size="10.00">iostream</text>
</g>
<!-- Node1&#45;&gt;Node5 -->
<g id="edge4" class="edge"><title>Node1&#45;&gt;Node5</title>
<path fill="none" stroke="midnightblue" d="M229.876,-168.768C223.063,-159.284 215.483,-148.731 209.319,-140.15"/>
<polygon fill="midnightblue" stroke="midnightblue" points="211.967,-137.837 203.29,-131.757 206.282,-141.921 211.967,-137.837"/>
</g>
<!-- Node6 -->
<g id="node6" class="node"><title>Node6</title>
<g id="a_node6"><a xlink:href="../../dd/df0/Detectors_2MUON_2MID_2Base_2include_2MIDBase_2Constants_8h.html" target="_top" xlink:title="Useful constants for MID. ">
<polygon fill="none" stroke="black" points="242,-112.5 242,-131.5 356,-131.5 356,-112.5 242,-112.5"/>
<text text-anchor="middle" x="299" y="-119.5" font-family="Helvetica,sans-Serif" font-size="10.00">MIDBase/Constants.h</text>
</a>
</g>
</g>
<!-- Node1&#45;&gt;Node6 -->
<g id="edge5" class="edge"><title>Node1&#45;&gt;Node6</title>
<path fill="none" stroke="midnightblue" d="M266.124,-168.768C272.937,-159.284 280.517,-148.731 286.681,-140.15"/>
<polygon fill="midnightblue" stroke="midnightblue" points="289.718,-141.921 292.71,-131.757 284.033,-137.837 289.718,-141.921"/>
</g>
<!-- Node8 -->
<g id="node8" class="node"><title>Node8</title>
<g id="a_node8"><a xlink:href="../../d4/d73/MID_2Base_2include_2MIDBase_2Mapping_8h.html" target="_top" xlink:title="Mapping for MID. ">
<polygon fill="none" stroke="black" points="374,-112.5 374,-131.5 480,-131.5 480,-112.5 374,-112.5"/>
<text text-anchor="middle" x="427" y="-119.5" font-family="Helvetica,sans-Serif" font-size="10.00">MIDBase/Mapping.h</text>
</a>
</g>
</g>
<!-- Node1&#45;&gt;Node8 -->
<g id="edge8" class="edge"><title>Node1&#45;&gt;Node8</title>
<path fill="none" stroke="midnightblue" d="M311.109,-168.968C339.82,-157.58 372.512,-144.613 395.836,-135.361"/>
<polygon fill="midnightblue" stroke="midnightblue" points="397.215,-138.579 405.22,-131.639 394.634,-132.073 397.215,-138.579"/>
</g>
<!-- Node3 -->
<g id="node3" class="node"><title>Node3</title>
<polygon fill="none" stroke="#bfbfbf" points="58.5,-56.5 58.5,-75.5 93.5,-75.5 93.5,-56.5 58.5,-56.5"/>
<text text-anchor="middle" x="76" y="-63.5" font-family="Helvetica,sans-Serif" font-size="10.00">map</text>
</g>
<!-- Node2&#45;&gt;Node3 -->
<g id="edge2" class="edge"><title>Node2&#45;&gt;Node3</title>
<path fill="none" stroke="midnightblue" d="M76,-112.083C76,-105.006 76,-94.8611 76,-85.9865"/>
<polygon fill="midnightblue" stroke="midnightblue" points="79.5001,-85.751 76,-75.7511 72.5001,-85.7511 79.5001,-85.751"/>
</g>
<!-- Node4 -->
<g id="node4" class="node"><title>Node4</title>
<polygon fill="none" stroke="#bfbfbf" points="294,-0.5 294,-19.5 332,-19.5 332,-0.5 294,-0.5"/>
<text text-anchor="middle" x="313" y="-7.5" font-family="Helvetica,sans-Serif" font-size="10.00">array</text>
</g>
<!-- Node2&#45;&gt;Node4 -->
<g id="edge3" class="edge"><title>Node2&#45;&gt;Node4</title>
<path fill="none" stroke="midnightblue" d="M94.597,-112.368C136.045,-93.131 236.195,-46.6478 285.139,-23.9314"/>
<polygon fill="midnightblue" stroke="midnightblue" points="286.892,-26.9762 294.489,-19.5914 283.945,-20.6267 286.892,-26.9762"/>
</g>
<!-- Node6&#45;&gt;Node4 -->
<g id="edge6" class="edge"><title>Node6&#45;&gt;Node4</title>
<path fill="none" stroke="midnightblue" d="M293.78,-112.088C287.082,-99.4898 277.005,-75.7988 283,-56 286.117,-45.7048 292.452,-35.612 298.501,-27.6023"/>
<polygon fill="midnightblue" stroke="midnightblue" points="301.228,-29.7968 304.786,-19.8175 295.781,-25.3995 301.228,-29.7968"/>
</g>
<!-- Node7 -->
<g id="node7" class="node"><title>Node7</title>
<polygon fill="none" stroke="#bfbfbf" points="292.5,-56.5 292.5,-75.5 333.5,-75.5 333.5,-56.5 292.5,-56.5"/>
<text text-anchor="middle" x="313" y="-63.5" font-family="Helvetica,sans-Serif" font-size="10.00">string</text>
</g>
<!-- Node6&#45;&gt;Node7 -->
<g id="edge7" class="edge"><title>Node6&#45;&gt;Node7</title>
<path fill="none" stroke="midnightblue" d="M301.312,-112.083C303.167,-104.927 305.835,-94.6353 308.154,-85.6911"/>
<polygon fill="midnightblue" stroke="midnightblue" points="311.609,-86.3094 310.731,-75.7511 304.834,-84.5527 311.609,-86.3094"/>
</g>
<!-- Node8&#45;&gt;Node4 -->
<g id="edge9" class="edge"><title>Node8&#45;&gt;Node4</title>
<path fill="none" stroke="midnightblue" d="M418.055,-112.368C398.908,-93.8941 353.721,-50.2926 329.316,-26.7436"/>
<polygon fill="midnightblue" stroke="midnightblue" points="331.53,-24.0165 321.904,-19.5914 326.67,-29.0538 331.53,-24.0165"/>
</g>
<!-- Node9 -->
<g id="node9" class="node"><title>Node9</title>
<polygon fill="none" stroke="#bfbfbf" points="390,-56.5 390,-75.5 434,-75.5 434,-56.5 390,-56.5"/>
<text text-anchor="middle" x="412" y="-63.5" font-family="Helvetica,sans-Serif" font-size="10.00">vector</text>
</g>
<!-- Node8&#45;&gt;Node9 -->
<g id="edge10" class="edge"><title>Node8&#45;&gt;Node9</title>
<path fill="none" stroke="midnightblue" d="M424.523,-112.083C422.514,-104.849 419.614,-94.4087 417.11,-85.3968"/>
<polygon fill="midnightblue" stroke="midnightblue" points="420.48,-84.4495 414.431,-75.7511 413.735,-86.323 420.48,-84.4495"/>
</g>
<!-- Node10 -->
<g id="node10" class="node"><title>Node10</title>
<g id="a_node10"><a xlink:href="../../d7/d0a/MpArea_8h.html" target="_top" xlink:title="Mapping area for MID. ">
<polygon fill="none" stroke="black" points="452.5,-56.5 452.5,-75.5 555.5,-75.5 555.5,-56.5 452.5,-56.5"/>
<text text-anchor="middle" x="504" y="-63.5" font-family="Helvetica,sans-Serif" font-size="10.00">MIDBase/MpArea.h</text>
</a>
</g>
</g>
<!-- Node8&#45;&gt;Node10 -->
<g id="edge11" class="edge"><title>Node8&#45;&gt;Node10</title>
<path fill="none" stroke="midnightblue" d="M439.371,-112.324C451.158,-104.058 469.132,-91.4527 483.136,-81.6322"/>
<polygon fill="midnightblue" stroke="midnightblue" points="485.482,-84.2619 491.659,-75.6545 481.462,-78.5307 485.482,-84.2619"/>
</g>
<!-- Node10&#45;&gt;Node4 -->
<g id="edge12" class="edge"><title>Node10&#45;&gt;Node4</title>
<path fill="none" stroke="midnightblue" d="M473.735,-56.4435C437.546,-46.212 377.417,-29.2121 341.861,-19.1595"/>
<polygon fill="midnightblue" stroke="midnightblue" points="342.671,-15.7515 332.096,-16.3989 340.767,-22.4875 342.671,-15.7515"/>
</g>
</g>
</svg>
