<?xml version="1.0" encoding="UTF-8" standalone="no"?>
<!DOCTYPE svg PUBLIC "-//W3C//DTD SVG 1.1//EN"
 "http://www.w3.org/Graphics/SVG/1.1/DTD/svg11.dtd">
<!-- Generated by graphviz version 2.36.0 (20140111.2315)
 -->
<!-- Title: o2::framework::gui::NodeColor Pages: 1 -->
<svg width="121pt" height="410pt"
 viewBox="0.00 0.00 121.00 410.00" xmlns="http://www.w3.org/2000/svg" xmlns:xlink="http://www.w3.org/1999/xlink">
<g id="graph0" class="graph" transform="scale(1 1) rotate(0) translate(4 406)">
<title>o2::framework::gui::NodeColor</title>
<!-- Node1 -->
<g id="node1" class="node"><title>Node1</title>
<polygon fill="#bfbfbf" stroke="black" points="-1,-1 -1,-69 97,-69 97,-1 -1,-1"/>
<text text-anchor="start" x="7" y="-57" font-family="Helvetica,sans-Serif" font-size="10.00">o2::framework::gui</text>
<text text-anchor="middle" x="48" y="-46" font-family="Helvetica,sans-Serif" font-size="10.00">::NodeColor</text>
<polyline fill="none" stroke="black" points="-1,-39 97,-39 "/>
<text text-anchor="middle" x="48" y="-27" font-family="Helvetica,sans-Serif" font-size="10.00"> </text>
<polyline fill="none" stroke="black" points="-1,-20 97,-20 "/>
<text text-anchor="middle" x="48" y="-8" font-family="Helvetica,sans-Serif" font-size="10.00"> </text>
</g>
<!-- Node2 -->
<g id="node2" class="node"><title>Node2</title>
<g id="a_node2"><a xlink:href="../../dc/dee/structImVec4.html" target="_top" xlink:title="{ImVec4\n||+ ImVec4()\l+ ImVec4()\l+ ImVec4()\l+ ImVec4()\l+ ImVec4()\l+ ImVec4()\l}">
<polygon fill="none" stroke="black" points="15.5,-151 15.5,-263 80.5,-263 80.5,-151 15.5,-151"/>
<text text-anchor="middle" x="48" y="-251" font-family="Helvetica,sans-Serif" font-size="10.00">ImVec4</text>
<polyline fill="none" stroke="black" points="15.5,-244 80.5,-244 "/>
<text text-anchor="middle" x="48" y="-232" font-family="Helvetica,sans-Serif" font-size="10.00"> </text>
<polyline fill="none" stroke="black" points="15.5,-225 80.5,-225 "/>
<text text-anchor="start" x="23.5" y="-213" font-family="Helvetica,sans-Serif" font-size="10.00">+ ImVec4()</text>
<text text-anchor="start" x="23.5" y="-202" font-family="Helvetica,sans-Serif" font-size="10.00">+ ImVec4()</text>
<text text-anchor="start" x="23.5" y="-191" font-family="Helvetica,sans-Serif" font-size="10.00">+ ImVec4()</text>
<text text-anchor="start" x="23.5" y="-180" font-family="Helvetica,sans-Serif" font-size="10.00">+ ImVec4()</text>
<text text-anchor="start" x="23.5" y="-169" font-family="Helvetica,sans-Serif" font-size="10.00">+ ImVec4()</text>
<text text-anchor="start" x="23.5" y="-158" font-family="Helvetica,sans-Serif" font-size="10.00">+ ImVec4()</text>
</a>
</g>
</g>
<!-- Node2&#45;&gt;Node1 -->
<g id="edge1" class="edge"><title>Node2&#45;&gt;Node1</title>
<path fill="none" stroke="#404040" d="M48,-150.806C48,-128.275 48,-102.546 48,-81.1629"/>
<polygon fill="none" stroke="#404040" points="48.0001,-81.1323 44,-75.1323 48,-69.1323 52,-75.1323 48.0001,-81.1323"/>
<text text-anchor="middle" x="80.5" y="-124" font-family="Helvetica,sans-Serif" font-size="10.00"> +title_hovered</text>
<text text-anchor="middle" x="80.5" y="-113" font-family="Helvetica,sans-Serif" font-size="10.00">+normal</text>
<text text-anchor="middle" x="80.5" y="-102" font-family="Helvetica,sans-Serif" font-size="10.00">+title</text>
<text text-anchor="middle" x="80.5" y="-91" font-family="Helvetica,sans-Serif" font-size="10.00">+hovered</text>
</g>
<!-- Node3 -->
<g id="node3" class="node"><title>Node3</title>
<g id="a_node3"><a xlink:href="../../d4/dc3/classfloat.html" target="_top" xlink:title="{float\n||}">
<polygon fill="none" stroke="black" points="30.5,-344.5 30.5,-401.5 65.5,-401.5 65.5,-344.5 30.5,-344.5"/>
<text text-anchor="middle" x="48" y="-389.5" font-family="Helvetica,sans-Serif" font-size="10.00">float</text>
<polyline fill="none" stroke="black" points="30.5,-382.5 65.5,-382.5 "/>
<text text-anchor="middle" x="48" y="-370.5" font-family="Helvetica,sans-Serif" font-size="10.00"> </text>
<polyline fill="none" stroke="black" points="30.5,-363.5 65.5,-363.5 "/>
<text text-anchor="middle" x="48" y="-351.5" font-family="Helvetica,sans-Serif" font-size="10.00"> </text>
</a>
</g>
</g>
<!-- Node3&#45;&gt;Node2 -->
<g id="edge2" class="edge"><title>Node3&#45;&gt;Node2</title>
<path fill="none" stroke="#404040" d="M48,-344.18C48,-325.26 48,-299.377 48,-275.253"/>
<polygon fill="none" stroke="#404040" points="48.0001,-275.219 44,-269.219 48,-263.219 52,-269.219 48.0001,-275.219"/>
<text text-anchor="middle" x="56.5" y="-318" font-family="Helvetica,sans-Serif" font-size="10.00"> +w</text>
<text text-anchor="middle" x="56.5" y="-307" font-family="Helvetica,sans-Serif" font-size="10.00">+x</text>
<text text-anchor="middle" x="56.5" y="-296" font-family="Helvetica,sans-Serif" font-size="10.00">+y</text>
<text text-anchor="middle" x="56.5" y="-285" font-family="Helvetica,sans-Serif" font-size="10.00">+z</text>
</g>
</g>
</svg>
