<?xml version="1.0" encoding="UTF-8" standalone="no"?>
<!DOCTYPE svg PUBLIC "-//W3C//DTD SVG 1.1//EN"
 "http://www.w3.org/Graphics/SVG/1.1/DTD/svg11.dtd">
<!-- Generated by graphviz version 2.36.0 (20140111.2315)
 -->
<!-- Title: ImGuiMenuColumns Pages: 1 -->
<svg width="135pt" height="250pt"
 viewBox="0.00 0.00 135.00 250.00" xmlns="http://www.w3.org/2000/svg" xmlns:xlink="http://www.w3.org/1999/xlink">
<g id="graph0" class="graph" transform="scale(1 1) rotate(0) translate(4 246)">
<title>ImGuiMenuColumns</title>
<!-- Node1 -->
<g id="node1" class="node"><title>Node1</title>
<polygon fill="#bfbfbf" stroke="black" points="-0.5,-1 -0.5,-91 120.5,-91 120.5,-1 -0.5,-1"/>
<text text-anchor="middle" x="60" y="-79" font-family="Helvetica,sans-Serif" font-size="10.00">ImGuiMenuColumns</text>
<polyline fill="none" stroke="black" points="-0.5,-72 120.5,-72 "/>
<text text-anchor="middle" x="60" y="-60" font-family="Helvetica,sans-Serif" font-size="10.00"> </text>
<polyline fill="none" stroke="black" points="-0.5,-53 120.5,-53 "/>
<text text-anchor="start" x="7.5" y="-41" font-family="Helvetica,sans-Serif" font-size="10.00">+ ImGuiMenuColumns()</text>
<text text-anchor="start" x="7.5" y="-30" font-family="Helvetica,sans-Serif" font-size="10.00">+ Update()</text>
<text text-anchor="start" x="7.5" y="-19" font-family="Helvetica,sans-Serif" font-size="10.00">+ DeclColumns()</text>
<text text-anchor="start" x="7.5" y="-8" font-family="Helvetica,sans-Serif" font-size="10.00">+ CalcExtraSpace()</text>
</g>
<!-- Node2 -->
<g id="node2" class="node"><title>Node2</title>
<g id="a_node2"><a xlink:href="../../d4/dc3/classfloat.html" target="_top" xlink:title="{float\n||}">
<polygon fill="none" stroke="black" points="2.5,-184.5 2.5,-241.5 37.5,-241.5 37.5,-184.5 2.5,-184.5"/>
<text text-anchor="middle" x="20" y="-229.5" font-family="Helvetica,sans-Serif" font-size="10.00">float</text>
<polyline fill="none" stroke="black" points="2.5,-222.5 37.5,-222.5 "/>
<text text-anchor="middle" x="20" y="-210.5" font-family="Helvetica,sans-Serif" font-size="10.00"> </text>
<polyline fill="none" stroke="black" points="2.5,-203.5 37.5,-203.5 "/>
<text text-anchor="middle" x="20" y="-191.5" font-family="Helvetica,sans-Serif" font-size="10.00"> </text>
</a>
</g>
</g>
<!-- Node2&#45;&gt;Node1 -->
<g id="edge1" class="edge"><title>Node2&#45;&gt;Node1</title>
<path fill="none" stroke="#404040" d="M16.2925,-184.141C14.4655,-163.3 13.9515,-134.323 21,-110 21.7563,-107.39 22.6534,-104.782 23.6629,-102.193"/>
<polygon fill="none" stroke="#404040" points="23.7722,-101.951 22.6022,-94.8353 28.7204,-91.0185 29.8905,-98.1341 23.7722,-101.951"/>
<text text-anchor="middle" x="50" y="-157.5" font-family="Helvetica,sans-Serif" font-size="10.00"> +Spacing</text>
<text text-anchor="middle" x="50" y="-146.5" font-family="Helvetica,sans-Serif" font-size="10.00">+NextWidths</text>
<text text-anchor="middle" x="50" y="-135.5" font-family="Helvetica,sans-Serif" font-size="10.00">+NextWidth</text>
<text text-anchor="middle" x="50" y="-124.5" font-family="Helvetica,sans-Serif" font-size="10.00">+Pos</text>
<text text-anchor="middle" x="50" y="-113.5" font-family="Helvetica,sans-Serif" font-size="10.00">+Width</text>
</g>
<!-- Node3 -->
<g id="node3" class="node"><title>Node3</title>
<g id="a_node3"><a xlink:href="../../d1/da0/classint.html" target="_top" xlink:title="{int\n||}">
<polygon fill="none" stroke="black" points="86.5,-184.5 86.5,-241.5 115.5,-241.5 115.5,-184.5 86.5,-184.5"/>
<text text-anchor="middle" x="101" y="-229.5" font-family="Helvetica,sans-Serif" font-size="10.00">int</text>
<polyline fill="none" stroke="black" points="86.5,-222.5 115.5,-222.5 "/>
<text text-anchor="middle" x="101" y="-210.5" font-family="Helvetica,sans-Serif" font-size="10.00"> </text>
<polyline fill="none" stroke="black" points="86.5,-203.5 115.5,-203.5 "/>
<text text-anchor="middle" x="101" y="-191.5" font-family="Helvetica,sans-Serif" font-size="10.00"> </text>
</a>
</g>
</g>
<!-- Node3&#45;&gt;Node1 -->
<g id="edge2" class="edge"><title>Node3&#45;&gt;Node1</title>
<path fill="none" stroke="#404040" d="M95.6232,-184.151C91.4964,-163.566 85.4308,-134.907 79,-110 78.411,-107.719 77.7935,-105.396 77.156,-103.053"/>
<polygon fill="none" stroke="#404040" points="77.092,-102.826 71.616,-98.1337 73.8409,-91.2743 79.3168,-95.9662 77.092,-102.826"/>
<text text-anchor="middle" x="109" y="-135.5" font-family="Helvetica,sans-Serif" font-size="10.00"> +Count</text>
</g>
</g>
</svg>
