<?xml version="1.0" encoding="UTF-8" standalone="no"?>
<!DOCTYPE svg PUBLIC "-//W3C//DTD SVG 1.1//EN"
 "http://www.w3.org/Graphics/SVG/1.1/DTD/svg11.dtd">
<!-- Generated by graphviz version 2.36.0 (20140111.2315)
 -->
<!-- Title: /home/travis/build/AliceO2Group/AliceO2/Detectors/ITSMFT/MFT/base/include/MFTBase/HalfSegmentation.h Pages: 1 -->
<svg width="431pt" height="174pt"
 viewBox="0.00 0.00 431.00 174.00" xmlns="http://www.w3.org/2000/svg" xmlns:xlink="http://www.w3.org/1999/xlink">
<g id="graph0" class="graph" transform="scale(1 1) rotate(0) translate(4 170)">
<title>/home/travis/build/AliceO2Group/AliceO2/Detectors/ITSMFT/MFT/base/include/MFTBase/HalfSegmentation.h</title>
<!-- Node1 -->
<g id="node1" class="node"><title>Node1</title>
<polygon fill="#bfbfbf" stroke="black" points="118.5,-113 118.5,-165 327.5,-165 327.5,-113 118.5,-113"/>
<text text-anchor="start" x="126.5" y="-153" font-family="Helvetica,sans-Serif" font-size="10.00">/home/travis/build</text>
<text text-anchor="start" x="126.5" y="-142" font-family="Helvetica,sans-Serif" font-size="10.00">/AliceO2Group/AliceO2</text>
<text text-anchor="start" x="126.5" y="-131" font-family="Helvetica,sans-Serif" font-size="10.00">/Detectors/ITSMFT/MFT</text>
<text text-anchor="middle" x="223" y="-120" font-family="Helvetica,sans-Serif" font-size="10.00">/base/include/MFTBase/HalfSegmentation.h</text>
</g>
<!-- Node2 -->
<g id="node2" class="node"><title>Node2</title>
<polygon fill="none" stroke="#bfbfbf" points="227,-0.5 227,-19.5 289,-19.5 289,-0.5 227,-0.5"/>
<text text-anchor="middle" x="258" y="-7.5" font-family="Helvetica,sans-Serif" font-size="10.00">TNamed.h</text>
</g>
<!-- Node1&#45;&gt;Node2 -->
<g id="edge1" class="edge"><title>Node1&#45;&gt;Node2</title>
<path fill="none" stroke="midnightblue" d="M229.915,-112.909C236.698,-88.2964 246.879,-51.3524 252.94,-29.3617"/>
<polygon fill="midnightblue" stroke="midnightblue" points="256.34,-30.1983 255.622,-19.6278 249.591,-28.3385 256.34,-30.1983"/>
</g>
<!-- Node3 -->
<g id="node3" class="node"><title>Node3</title>
<polygon fill="none" stroke="#bfbfbf" points="148.5,-56.5 148.5,-75.5 229.5,-75.5 229.5,-56.5 148.5,-56.5"/>
<text text-anchor="middle" x="189" y="-63.5" font-family="Helvetica,sans-Serif" font-size="10.00">TXMLEngine.h</text>
</g>
<!-- Node1&#45;&gt;Node3 -->
<g id="edge2" class="edge"><title>Node1&#45;&gt;Node3</title>
<path fill="none" stroke="midnightblue" d="M210.917,-112.768C206.521,-103.587 201.644,-93.4034 197.609,-84.9775"/>
<polygon fill="midnightblue" stroke="midnightblue" points="200.669,-83.2647 193.194,-75.7572 194.356,-86.288 200.669,-83.2647"/>
</g>
<!-- Node4 -->
<g id="node4" class="node"><title>Node4</title>
<g id="a_node4"><a xlink:href="../../dd/d83/ITSMFT_2MFT_2base_2include_2MFTBase_2Segmentation_8h.html" target="_top" xlink:title="MFTBase/Segmentation.h">
<polygon fill="none" stroke="black" points="-0.5,-56.5 -0.5,-75.5 130.5,-75.5 130.5,-56.5 -0.5,-56.5"/>
<text text-anchor="middle" x="65" y="-63.5" font-family="Helvetica,sans-Serif" font-size="10.00">MFTBase/Segmentation.h</text>
</a>
</g>
</g>
<!-- Node1&#45;&gt;Node4 -->
<g id="edge3" class="edge"><title>Node1&#45;&gt;Node4</title>
<path fill="none" stroke="midnightblue" d="M167.295,-112.968C142.404,-101.783 114.125,-89.0753 93.6184,-79.8601"/>
<polygon fill="midnightblue" stroke="midnightblue" points="94.7806,-76.5453 84.2246,-75.6389 91.9113,-82.9303 94.7806,-76.5453"/>
</g>
<!-- Node6 -->
<g id="node6" class="node"><title>Node6</title>
<g id="a_node6"><a xlink:href="../../d3/de7/VSegmentation_8h.html" target="_top" xlink:title="Abstract base class for MFT Segmentation description. ">
<polygon fill="none" stroke="black" points="286.5,-56.5 286.5,-75.5 423.5,-75.5 423.5,-56.5 286.5,-56.5"/>
<text text-anchor="middle" x="355" y="-63.5" font-family="Helvetica,sans-Serif" font-size="10.00">MFTBase/VSegmentation.h</text>
</a>
</g>
</g>
<!-- Node1&#45;&gt;Node6 -->
<g id="edge6" class="edge"><title>Node1&#45;&gt;Node6</title>
<path fill="none" stroke="midnightblue" d="M269.538,-112.968C289.766,-102.088 312.672,-89.7673 329.675,-80.6218"/>
<polygon fill="midnightblue" stroke="midnightblue" points="331.79,-83.4584 338.939,-75.6389 328.474,-77.2936 331.79,-83.4584"/>
</g>
<!-- Node4&#45;&gt;Node2 -->
<g id="edge4" class="edge"><title>Node4&#45;&gt;Node2</title>
<path fill="none" stroke="midnightblue" d="M95.5814,-56.4435C128.615,-47.2011 181.388,-32.4356 217.766,-22.2572"/>
<polygon fill="midnightblue" stroke="midnightblue" points="218.875,-25.5815 227.562,-19.5164 216.988,-18.8404 218.875,-25.5815"/>
</g>
<!-- Node5 -->
<g id="node5" class="node"><title>Node5</title>
<polygon fill="none" stroke="#bfbfbf" points="22.5,-0.5 22.5,-19.5 107.5,-19.5 107.5,-0.5 22.5,-0.5"/>
<text text-anchor="middle" x="65" y="-7.5" font-family="Helvetica,sans-Serif" font-size="10.00">TClonesArray.h</text>
</g>
<!-- Node4&#45;&gt;Node5 -->
<g id="edge5" class="edge"><title>Node4&#45;&gt;Node5</title>
<path fill="none" stroke="midnightblue" d="M65,-56.083C65,-49.0059 65,-38.8611 65,-29.9865"/>
<polygon fill="midnightblue" stroke="midnightblue" points="68.5001,-29.751 65,-19.7511 61.5001,-29.7511 68.5001,-29.751"/>
</g>
<!-- Node6&#45;&gt;Node2 -->
<g id="edge7" class="edge"><title>Node6&#45;&gt;Node2</title>
<path fill="none" stroke="midnightblue" d="M339.415,-56.324C324.001,-47.7428 300.188,-34.486 282.29,-24.5224"/>
<polygon fill="midnightblue" stroke="midnightblue" points="283.986,-21.4606 273.546,-19.6545 280.581,-27.5767 283.986,-21.4606"/>
</g>
<!-- Node7 -->
<g id="node7" class="node"><title>Node7</title>
<polygon fill="none" stroke="#bfbfbf" points="317,-0.5 317,-19.5 393,-19.5 393,-0.5 317,-0.5"/>
<text text-anchor="middle" x="355" y="-7.5" font-family="Helvetica,sans-Serif" font-size="10.00">TGeoMatrix.h</text>
</g>
<!-- Node6&#45;&gt;Node7 -->
<g id="edge8" class="edge"><title>Node6&#45;&gt;Node7</title>
<path fill="none" stroke="midnightblue" d="M355,-56.083C355,-49.0059 355,-38.8611 355,-29.9865"/>
<polygon fill="midnightblue" stroke="midnightblue" points="358.5,-29.751 355,-19.7511 351.5,-29.7511 358.5,-29.751"/>
</g>
</g>
</svg>
