<?xml version="1.0" encoding="UTF-8" standalone="no"?>
<!DOCTYPE svg PUBLIC "-//W3C//DTD SVG 1.1//EN"
 "http://www.w3.org/Graphics/SVG/1.1/DTD/svg11.dtd">
<!-- Generated by graphviz version 2.36.0 (20140111.2315)
 -->
<!-- Title: o2::framework::StringMetric Pages: 1 -->
<svg width="185pt" height="172pt"
 viewBox="0.00 0.00 185.00 172.00" xmlns="http://www.w3.org/2000/svg" xmlns:xlink="http://www.w3.org/1999/xlink">
<g id="graph0" class="graph" transform="scale(1 1) rotate(0) translate(4 168)">
<title>o2::framework::StringMetric</title>
<!-- Node1 -->
<g id="node1" class="node"><title>Node1</title>
<polygon fill="#bfbfbf" stroke="black" points="40.5,-0.5 40.5,-57.5 177.5,-57.5 177.5,-0.5 40.5,-0.5"/>
<text text-anchor="middle" x="109" y="-45.5" font-family="Helvetica,sans-Serif" font-size="10.00">o2::framework::StringMetric</text>
<polyline fill="none" stroke="black" points="40.5,-38.5 177.5,-38.5 "/>
<text text-anchor="middle" x="109" y="-26.5" font-family="Helvetica,sans-Serif" font-size="10.00"> </text>
<polyline fill="none" stroke="black" points="40.5,-19.5 177.5,-19.5 "/>
<text text-anchor="middle" x="109" y="-7.5" font-family="Helvetica,sans-Serif" font-size="10.00"> </text>
</g>
<!-- Node2 -->
<g id="node2" class="node"><title>Node2</title>
<polygon fill="none" stroke="#bfbfbf" points="0,-106.5 0,-163.5 122,-163.5 122,-106.5 0,-106.5"/>
<text text-anchor="middle" x="61" y="-151.5" font-family="Helvetica,sans-Serif" font-size="10.00">static constexpr ptrdiff_t</text>
<polyline fill="none" stroke="#bfbfbf" points="0,-144.5 122,-144.5 "/>
<text text-anchor="middle" x="61" y="-132.5" font-family="Helvetica,sans-Serif" font-size="10.00"> </text>
<polyline fill="none" stroke="#bfbfbf" points="0,-125.5 122,-125.5 "/>
<text text-anchor="middle" x="61" y="-113.5" font-family="Helvetica,sans-Serif" font-size="10.00"> </text>
</g>
<!-- Node2&#45;&gt;Node1 -->
<g id="edge1" class="edge"><title>Node2&#45;&gt;Node1</title>
<path fill="none" stroke="#404040" d="M66.5676,-106.465C69.0855,-96.5948 72.5208,-85.5519 77,-76 78.2198,-73.3989 79.5839,-70.7857 81.043,-68.1979"/>
<polygon fill="none" stroke="#404040" points="81.155,-68.016 80.8957,-60.8095 87.4481,-57.7985 87.7074,-65.0049 81.155,-68.016"/>
<text text-anchor="middle" x="106.5" y="-79.5" font-family="Helvetica,sans-Serif" font-size="10.00"> +MAX_SIZE</text>
</g>
<!-- Node3 -->
<g id="node3" class="node"><title>Node3</title>
<polygon fill="none" stroke="#bfbfbf" points="140.5,-106.5 140.5,-163.5 175.5,-163.5 175.5,-106.5 140.5,-106.5"/>
<text text-anchor="middle" x="158" y="-151.5" font-family="Helvetica,sans-Serif" font-size="10.00">char</text>
<polyline fill="none" stroke="#bfbfbf" points="140.5,-144.5 175.5,-144.5 "/>
<text text-anchor="middle" x="158" y="-132.5" font-family="Helvetica,sans-Serif" font-size="10.00"> </text>
<polyline fill="none" stroke="#bfbfbf" points="140.5,-125.5 175.5,-125.5 "/>
<text text-anchor="middle" x="158" y="-113.5" font-family="Helvetica,sans-Serif" font-size="10.00"> </text>
</g>
<!-- Node3&#45;&gt;Node1 -->
<g id="edge2" class="edge"><title>Node3&#45;&gt;Node1</title>
<path fill="none" stroke="#404040" d="M148.631,-106.457C145.026,-96.6878 140.652,-85.713 136,-76 134.83,-73.5571 133.575,-71.072 132.269,-68.5861"/>
<polygon fill="none" stroke="#404040" points="132.123,-68.3208 125.724,-64.997 126.331,-57.8114 132.73,-61.1353 132.123,-68.3208"/>
<text text-anchor="middle" x="155" y="-79.5" font-family="Helvetica,sans-Serif" font-size="10.00"> +data</text>
</g>
</g>
</svg>
