<?xml version="1.0" encoding="UTF-8" standalone="no"?>
<!DOCTYPE svg PUBLIC "-//W3C//DTD SVG 1.1//EN"
 "http://www.w3.org/Graphics/SVG/1.1/DTD/svg11.dtd">
<!-- Generated by graphviz version 2.36.0 (20140111.2315)
 -->
<!-- Title: /home/travis/build/AliceO2Group/AliceO2/Detectors/TRD/base/src/TRDArrayADC.cxx Pages: 1 -->
<svg width="920pt" height="230pt"
 viewBox="0.00 0.00 920.00 230.00" xmlns="http://www.w3.org/2000/svg" xmlns:xlink="http://www.w3.org/1999/xlink">
<g id="graph0" class="graph" transform="scale(1 1) rotate(0) translate(4 226)">
<title>/home/travis/build/AliceO2Group/AliceO2/Detectors/TRD/base/src/TRDArrayADC.cxx</title>
<!-- Node1 -->
<g id="node1" class="node"><title>Node1</title>
<polygon fill="#bfbfbf" stroke="black" points="340.5,-169 340.5,-221 467.5,-221 467.5,-169 340.5,-169"/>
<text text-anchor="start" x="348.5" y="-209" font-family="Helvetica,sans-Serif" font-size="10.00">/home/travis/build</text>
<text text-anchor="start" x="348.5" y="-198" font-family="Helvetica,sans-Serif" font-size="10.00">/AliceO2Group/AliceO2</text>
<text text-anchor="start" x="348.5" y="-187" font-family="Helvetica,sans-Serif" font-size="10.00">/Detectors/TRD/base/src</text>
<text text-anchor="middle" x="404" y="-176" font-family="Helvetica,sans-Serif" font-size="10.00">/TRDArrayADC.cxx</text>
</g>
<!-- Node2 -->
<g id="node2" class="node"><title>Node2</title>
<polygon fill="none" stroke="#bfbfbf" points="-0.5,-112.5 -0.5,-131.5 52.5,-131.5 52.5,-112.5 -0.5,-112.5"/>
<text text-anchor="middle" x="26" y="-119.5" font-family="Helvetica,sans-Serif" font-size="10.00">TMath.h</text>
</g>
<!-- Node1&#45;&gt;Node2 -->
<g id="edge1" class="edge"><title>Node1&#45;&gt;Node2</title>
<path fill="none" stroke="midnightblue" d="M340.192,-183.895C273.264,-172.974 164.842,-154.374 62.5806,-132.234"/>
<polygon fill="midnightblue" stroke="midnightblue" points="63.2212,-128.792 52.7051,-130.081 61.7298,-135.631 63.2212,-128.792"/>
</g>
<!-- Node3 -->
<g id="node3" class="node"><title>Node3</title>
<polygon fill="none" stroke="#bfbfbf" points="323,-56.5 323,-75.5 379,-75.5 379,-56.5 323,-56.5"/>
<text text-anchor="middle" x="351" y="-63.5" font-family="Helvetica,sans-Serif" font-size="10.00">Rtypes.h</text>
</g>
<!-- Node1&#45;&gt;Node3 -->
<g id="edge2" class="edge"><title>Node1&#45;&gt;Node3</title>
<path fill="none" stroke="midnightblue" d="M340.313,-177.572C317.2,-168.198 293.476,-153.805 280,-132 266.6,-110.319 294.367,-91.4004 319.005,-79.6485"/>
<polygon fill="midnightblue" stroke="midnightblue" points="320.523,-82.8035 328.203,-75.5045 317.648,-76.4214 320.523,-82.8035"/>
</g>
<!-- Node4 -->
<g id="node4" class="node"><title>Node4</title>
<g id="a_node4"><a xlink:href="../../da/d32/TRDCommonParam_8h.html" target="_top" xlink:title="TRDBase/TRDCommonParam.h">
<polygon fill="none" stroke="black" points="70.5,-112.5 70.5,-131.5 231.5,-131.5 231.5,-112.5 70.5,-112.5"/>
<text text-anchor="middle" x="151" y="-119.5" font-family="Helvetica,sans-Serif" font-size="10.00">TRDBase/TRDCommonParam.h</text>
</a>
</g>
</g>
<!-- Node1&#45;&gt;Node4 -->
<g id="edge3" class="edge"><title>Node1&#45;&gt;Node4</title>
<path fill="none" stroke="midnightblue" d="M340.484,-176.175C293.66,-163.035 231.38,-145.557 191.235,-134.291"/>
<polygon fill="midnightblue" stroke="midnightblue" points="192.102,-130.899 181.528,-131.567 190.21,-137.639 192.102,-130.899"/>
</g>
<!-- Node7 -->
<g id="node7" class="node"><title>Node7</title>
<polygon fill="none" stroke="#bfbfbf" points="288.5,-112.5 288.5,-131.5 385.5,-131.5 385.5,-112.5 288.5,-112.5"/>
<text text-anchor="middle" x="337" y="-119.5" font-family="Helvetica,sans-Serif" font-size="10.00">fairlogger/Logger.h</text>
</g>
<!-- Node1&#45;&gt;Node7 -->
<g id="edge6" class="edge"><title>Node1&#45;&gt;Node7</title>
<path fill="none" stroke="midnightblue" d="M380.19,-168.768C370.859,-158.881 360.432,-147.831 352.16,-139.066"/>
<polygon fill="midnightblue" stroke="midnightblue" points="354.673,-136.628 345.264,-131.757 349.582,-141.432 354.673,-136.628"/>
</g>
<!-- Node8 -->
<g id="node8" class="node"><title>Node8</title>
<g id="a_node8"><a xlink:href="../../db/dad/TRDArrayADC_8h.html" target="_top" xlink:title="TRDBase/TRDArrayADC.h">
<polygon fill="none" stroke="black" points="403.5,-112.5 403.5,-131.5 540.5,-131.5 540.5,-112.5 403.5,-112.5"/>
<text text-anchor="middle" x="472" y="-119.5" font-family="Helvetica,sans-Serif" font-size="10.00">TRDBase/TRDArrayADC.h</text>
</a>
</g>
</g>
<!-- Node1&#45;&gt;Node8 -->
<g id="edge7" class="edge"><title>Node1&#45;&gt;Node8</title>
<path fill="none" stroke="midnightblue" d="M428.166,-168.768C437.635,-158.881 448.218,-147.831 456.613,-139.066"/>
<polygon fill="midnightblue" stroke="midnightblue" points="459.224,-141.4 463.613,-131.757 454.168,-136.558 459.224,-141.4"/>
</g>
<!-- Node9 -->
<g id="node9" class="node"><title>Node9</title>
<g id="a_node9"><a xlink:href="../../d6/d2b/TRDCalPadStatus_8h.html" target="_top" xlink:title="TRDBase/TRDCalPadStatus.h">
<polygon fill="none" stroke="black" points="558.5,-112.5 558.5,-131.5 711.5,-131.5 711.5,-112.5 558.5,-112.5"/>
<text text-anchor="middle" x="635" y="-119.5" font-family="Helvetica,sans-Serif" font-size="10.00">TRDBase/TRDCalPadStatus.h</text>
</a>
</g>
</g>
<!-- Node1&#45;&gt;Node9 -->
<g id="edge9" class="edge"><title>Node1&#45;&gt;Node9</title>
<path fill="none" stroke="midnightblue" d="M467.733,-174.411C509.424,-161.597 562.46,-145.296 597.506,-134.524"/>
<polygon fill="midnightblue" stroke="midnightblue" points="598.8,-137.788 607.331,-131.504 596.744,-131.097 598.8,-137.788"/>
</g>
<!-- Node13 -->
<g id="node13" class="node"><title>Node13</title>
<g id="a_node13"><a xlink:href="../../d2/dc4/TRDFeeParam_8h.html" target="_top" xlink:title="TRDBase/TRDFeeParam.h">
<polygon fill="none" stroke="black" points="677.5,-56.5 677.5,-75.5 814.5,-75.5 814.5,-56.5 677.5,-56.5"/>
<text text-anchor="middle" x="746" y="-63.5" font-family="Helvetica,sans-Serif" font-size="10.00">TRDBase/TRDFeeParam.h</text>
</a>
</g>
</g>
<!-- Node1&#45;&gt;Node13 -->
<g id="edge13" class="edge"><title>Node1&#45;&gt;Node13</title>
<path fill="none" stroke="midnightblue" d="M467.575,-188.682C548.498,-180.726 682.334,-163.215 720,-132 733.87,-120.505 740.395,-100.532 743.431,-85.7508"/>
<polygon fill="midnightblue" stroke="midnightblue" points="746.916,-86.1306 745.135,-75.6864 740.014,-84.9614 746.916,-86.1306"/>
</g>
<!-- Node14 -->
<g id="node14" class="node"><title>Node14</title>
<g id="a_node14"><a xlink:href="../../dd/d9d/TRDSignalIndex_8h.html" target="_top" xlink:title="TRDBase/TRDSignalIndex.h">
<polygon fill="none" stroke="black" points="769.5,-112.5 769.5,-131.5 912.5,-131.5 912.5,-112.5 769.5,-112.5"/>
<text text-anchor="middle" x="841" y="-119.5" font-family="Helvetica,sans-Serif" font-size="10.00">TRDBase/TRDSignalIndex.h</text>
</a>
</g>
</g>
<!-- Node1&#45;&gt;Node14 -->
<g id="edge15" class="edge"><title>Node1&#45;&gt;Node14</title>
<path fill="none" stroke="midnightblue" d="M467.544,-183.676C550.828,-170.145 695.995,-146.559 778.672,-133.127"/>
<polygon fill="midnightblue" stroke="midnightblue" points="779.373,-136.559 788.682,-131.5 778.25,-129.649 779.373,-136.559"/>
</g>
<!-- Node5 -->
<g id="node5" class="node"><title>Node5</title>
<g id="a_node5"><a xlink:href="../../d9/df4/TRDSimParam_8h.html" target="_top" xlink:title="TRDBase/TRDSimParam.h">
<polygon fill="none" stroke="black" points="125,-56.5 125,-75.5 263,-75.5 263,-56.5 125,-56.5"/>
<text text-anchor="middle" x="194" y="-63.5" font-family="Helvetica,sans-Serif" font-size="10.00">TRDBase/TRDSimParam.h</text>
</a>
</g>
</g>
<!-- Node4&#45;&gt;Node5 -->
<g id="edge4" class="edge"><title>Node4&#45;&gt;Node5</title>
<path fill="none" stroke="midnightblue" d="M158.101,-112.083C164.237,-104.377 173.27,-93.0333 180.739,-83.6531"/>
<polygon fill="midnightblue" stroke="midnightblue" points="183.54,-85.7542 187.032,-75.7511 178.064,-81.3936 183.54,-85.7542"/>
</g>
<!-- Node6 -->
<g id="node6" class="node"><title>Node6</title>
<polygon fill="none" stroke="#bfbfbf" points="682,-0.5 682,-19.5 810,-19.5 810,-0.5 682,-0.5"/>
<text text-anchor="middle" x="746" y="-7.5" font-family="Helvetica,sans-Serif" font-size="10.00">AliTPCCommonRtypes.h</text>
</g>
<!-- Node5&#45;&gt;Node6 -->
<g id="edge5" class="edge"><title>Node5&#45;&gt;Node6</title>
<path fill="none" stroke="midnightblue" d="M263.073,-58.2428C367.465,-48.0306 564.598,-28.7458 671.888,-18.2501"/>
<polygon fill="midnightblue" stroke="midnightblue" points="672.372,-21.7195 681.984,-17.2624 671.691,-14.7528 672.372,-21.7195"/>
</g>
<!-- Node8&#45;&gt;Node3 -->
<g id="edge8" class="edge"><title>Node8&#45;&gt;Node3</title>
<path fill="none" stroke="midnightblue" d="M452.827,-112.444C433.091,-103.636 402.115,-89.8116 379.507,-79.722"/>
<polygon fill="midnightblue" stroke="midnightblue" points="380.641,-76.3957 370.083,-75.5164 377.789,-82.788 380.641,-76.3957"/>
</g>
<!-- Node10 -->
<g id="node10" class="node"><title>Node10</title>
<polygon fill="none" stroke="#bfbfbf" points="609,-56.5 609,-75.5 659,-75.5 659,-56.5 609,-56.5"/>
<text text-anchor="middle" x="634" y="-63.5" font-family="Helvetica,sans-Serif" font-size="10.00">TH1F.h</text>
</g>
<!-- Node9&#45;&gt;Node10 -->
<g id="edge10" class="edge"><title>Node9&#45;&gt;Node10</title>
<path fill="none" stroke="midnightblue" d="M634.835,-112.083C634.704,-105.006 634.516,-94.8611 634.352,-85.9865"/>
<polygon fill="midnightblue" stroke="midnightblue" points="637.847,-85.6845 634.162,-75.7511 630.848,-85.8142 637.847,-85.6845"/>
</g>
<!-- Node11 -->
<g id="node11" class="node"><title>Node11</title>
<polygon fill="none" stroke="#bfbfbf" points="481,-56.5 481,-75.5 531,-75.5 531,-56.5 481,-56.5"/>
<text text-anchor="middle" x="506" y="-63.5" font-family="Helvetica,sans-Serif" font-size="10.00">TH2F.h</text>
</g>
<!-- Node9&#45;&gt;Node11 -->
<g id="edge11" class="edge"><title>Node9&#45;&gt;Node11</title>
<path fill="none" stroke="midnightblue" d="M614.56,-112.444C593.33,-103.557 559.901,-89.5632 535.745,-79.4514"/>
<polygon fill="midnightblue" stroke="midnightblue" points="536.921,-76.1493 526.345,-75.5164 534.218,-82.6064 536.921,-76.1493"/>
</g>
<!-- Node12 -->
<g id="node12" class="node"><title>Node12</title>
<polygon fill="none" stroke="#bfbfbf" points="549.5,-56.5 549.5,-75.5 590.5,-75.5 590.5,-56.5 549.5,-56.5"/>
<text text-anchor="middle" x="570" y="-63.5" font-family="Helvetica,sans-Serif" font-size="10.00">string</text>
</g>
<!-- Node9&#45;&gt;Node12 -->
<g id="edge12" class="edge"><title>Node9&#45;&gt;Node12</title>
<path fill="none" stroke="midnightblue" d="M624.557,-112.324C614.854,-104.263 600.185,-92.0765 588.5,-82.3695"/>
<polygon fill="midnightblue" stroke="midnightblue" points="590.562,-79.532 580.633,-75.8339 586.089,-84.9163 590.562,-79.532"/>
</g>
<!-- Node13&#45;&gt;Node6 -->
<g id="edge14" class="edge"><title>Node13&#45;&gt;Node6</title>
<path fill="none" stroke="midnightblue" d="M746,-56.083C746,-49.0059 746,-38.8611 746,-29.9865"/>
<polygon fill="midnightblue" stroke="midnightblue" points="749.5,-29.751 746,-19.7511 742.5,-29.7511 749.5,-29.751"/>
</g>
<!-- Node14&#45;&gt;Node6 -->
<g id="edge16" class="edge"><title>Node14&#45;&gt;Node6</title>
<path fill="none" stroke="midnightblue" d="M840.616,-112.079C839.613,-98.6161 835.999,-72.8873 823,-56 811.972,-41.6735 794.985,-31.0542 779.769,-23.7408"/>
<polygon fill="midnightblue" stroke="midnightblue" points="781.148,-20.5236 770.593,-19.6108 778.275,-26.9068 781.148,-20.5236"/>
</g>
</g>
</svg>
