<?xml version="1.0" encoding="UTF-8" standalone="no"?>
<!DOCTYPE svg PUBLIC "-//W3C//DTD SVG 1.1//EN"
 "http://www.w3.org/Graphics/SVG/1.1/DTD/svg11.dtd">
<!-- Generated by graphviz version 2.36.0 (20140111.2315)
 -->
<!-- Title: /home/travis/build/AliceO2Group/AliceO2/DataFormats/Parameters/include/DataFormatsParameters/GRPObject.h Pages: 1 -->
<svg width="680pt" height="252pt"
 viewBox="0.00 0.00 680.00 252.00" xmlns="http://www.w3.org/2000/svg" xmlns:xlink="http://www.w3.org/1999/xlink">
<g id="graph0" class="graph" transform="scale(1 1) rotate(0) translate(4 248)">
<title>/home/travis/build/AliceO2Group/AliceO2/DataFormats/Parameters/include/DataFormatsParameters/GRPObject.h</title>
<!-- Node1 -->
<g id="node1" class="node"><title>Node1</title>
<polygon fill="#bfbfbf" stroke="black" points="180.5,-180.5 180.5,-243.5 341.5,-243.5 341.5,-180.5 180.5,-180.5"/>
<text text-anchor="start" x="188.5" y="-231.5" font-family="Helvetica,sans-Serif" font-size="10.00">/home/travis/build</text>
<text text-anchor="start" x="188.5" y="-220.5" font-family="Helvetica,sans-Serif" font-size="10.00">/AliceO2Group/AliceO2</text>
<text text-anchor="start" x="188.5" y="-209.5" font-family="Helvetica,sans-Serif" font-size="10.00">/DataFormats/Parameters</text>
<text text-anchor="start" x="188.5" y="-198.5" font-family="Helvetica,sans-Serif" font-size="10.00">/include/DataFormatsParameters</text>
<text text-anchor="middle" x="261" y="-187.5" font-family="Helvetica,sans-Serif" font-size="10.00">/GRPObject.h</text>
</g>
<!-- Node2 -->
<g id="node2" class="node"><title>Node2</title>
<polygon fill="none" stroke="#bfbfbf" points="0,-56.5 0,-75.5 56,-75.5 56,-56.5 0,-56.5"/>
<text text-anchor="middle" x="28" y="-63.5" font-family="Helvetica,sans-Serif" font-size="10.00">Rtypes.h</text>
</g>
<!-- Node1&#45;&gt;Node2 -->
<g id="edge1" class="edge"><title>Node1&#45;&gt;Node2</title>
<path fill="none" stroke="midnightblue" d="M180.261,-185.931C152.797,-175.349 122.801,-161.389 98,-144 74.2855,-127.373 52.8213,-101.375 40.0888,-84.2623"/>
<polygon fill="midnightblue" stroke="midnightblue" points="42.6527,-81.835 33.9547,-75.7855 36.9817,-85.9388 42.6527,-81.835"/>
</g>
<!-- Node3 -->
<g id="node3" class="node"><title>Node3</title>
<polygon fill="none" stroke="#bfbfbf" points="74,-56.5 74,-75.5 120,-75.5 120,-56.5 74,-56.5"/>
<text text-anchor="middle" x="97" y="-63.5" font-family="Helvetica,sans-Serif" font-size="10.00">cstdint</text>
</g>
<!-- Node1&#45;&gt;Node3 -->
<g id="edge2" class="edge"><title>Node1&#45;&gt;Node3</title>
<path fill="none" stroke="midnightblue" d="M180.225,-188.62C156.548,-178.479 132.591,-164.105 116,-144 102.471,-127.606 98.3494,-102.983 97.2092,-86.0181"/>
<polygon fill="midnightblue" stroke="midnightblue" points="100.694,-85.5515 96.8172,-75.6915 93.6992,-85.8171 100.694,-85.5515"/>
</g>
<!-- Node4 -->
<g id="node4" class="node"><title>Node4</title>
<polygon fill="none" stroke="#bfbfbf" points="299.5,-118.5 299.5,-137.5 340.5,-137.5 340.5,-118.5 299.5,-118.5"/>
<text text-anchor="middle" x="320" y="-125.5" font-family="Helvetica,sans-Serif" font-size="10.00">ctime</text>
</g>
<!-- Node1&#45;&gt;Node4 -->
<g id="edge3" class="edge"><title>Node1&#45;&gt;Node4</title>
<path fill="none" stroke="midnightblue" d="M282.969,-180.466C291.398,-168.752 300.705,-155.817 307.88,-145.845"/>
<polygon fill="midnightblue" stroke="midnightblue" points="310.784,-147.801 313.784,-137.64 305.102,-143.713 310.784,-147.801"/>
</g>
<!-- Node5 -->
<g id="node5" class="node"><title>Node5</title>
<g id="a_node5"><a xlink:href="../../d4/dc6/LHCConstants_8h.html" target="_top" xlink:title="Header to collect LHC related constants. ">
<polygon fill="none" stroke="black" points="358,-118.5 358,-137.5 536,-137.5 536,-118.5 358,-118.5"/>
<text text-anchor="middle" x="447" y="-125.5" font-family="Helvetica,sans-Serif" font-size="10.00">CommonConstants/LHCConstants.h</text>
</a>
</g>
</g>
<!-- Node1&#45;&gt;Node5 -->
<g id="edge4" class="edge"><title>Node1&#45;&gt;Node5</title>
<path fill="none" stroke="midnightblue" d="M330.26,-180.466C360.626,-167.079 394.611,-152.096 418.046,-141.765"/>
<polygon fill="midnightblue" stroke="midnightblue" points="419.664,-144.876 427.402,-137.64 416.84,-138.471 419.664,-144.876"/>
</g>
<!-- Node6 -->
<g id="node6" class="node"><title>Node6</title>
<g id="a_node6"><a xlink:href="../../da/d58/Units_8h.html" target="_top" xlink:title="Header to collect definitions for different units. ">
<polygon fill="none" stroke="black" points="554,-118.5 554,-137.5 672,-137.5 672,-118.5 554,-118.5"/>
<text text-anchor="middle" x="613" y="-125.5" font-family="Helvetica,sans-Serif" font-size="10.00">CommonTypes/Units.h</text>
</a>
</g>
</g>
<!-- Node1&#45;&gt;Node6 -->
<g id="edge5" class="edge"><title>Node1&#45;&gt;Node6</title>
<path fill="none" stroke="midnightblue" d="M341.756,-192.188C411.262,-175.996 509.129,-153.197 566.327,-139.873"/>
<polygon fill="midnightblue" stroke="midnightblue" points="567.23,-143.256 576.175,-137.579 565.642,-136.439 567.23,-143.256"/>
</g>
<!-- Node7 -->
<g id="node7" class="node"><title>Node7</title>
<g id="a_node7"><a xlink:href="../../d6/d31/DetID_8h.html" target="_top" xlink:title="DetectorsCommonDataFormats\l/DetID.h">
<polygon fill="none" stroke="black" points="125,-113 125,-143 281,-143 281,-113 125,-113"/>
<text text-anchor="start" x="133" y="-131" font-family="Helvetica,sans-Serif" font-size="10.00">DetectorsCommonDataFormats</text>
<text text-anchor="middle" x="203" y="-120" font-family="Helvetica,sans-Serif" font-size="10.00">/DetID.h</text>
</a>
</g>
</g>
<!-- Node1&#45;&gt;Node7 -->
<g id="edge6" class="edge"><title>Node1&#45;&gt;Node7</title>
<path fill="none" stroke="midnightblue" d="M239.403,-180.466C232.639,-170.904 225.3,-160.528 218.995,-151.614"/>
<polygon fill="midnightblue" stroke="midnightblue" points="221.727,-149.415 213.095,-143.272 216.012,-153.457 221.727,-149.415"/>
</g>
<!-- Node7&#45;&gt;Node2 -->
<g id="edge7" class="edge"><title>Node7&#45;&gt;Node2</title>
<path fill="none" stroke="midnightblue" d="M161.97,-112.933C131.696,-102.553 90.9671,-88.5887 62.3921,-78.7916"/>
<polygon fill="midnightblue" stroke="midnightblue" points="63.4233,-75.4452 52.8287,-75.5127 61.153,-82.0668 63.4233,-75.4452"/>
</g>
<!-- Node7&#45;&gt;Node3 -->
<g id="edge11" class="edge"><title>Node7&#45;&gt;Node3</title>
<path fill="none" stroke="midnightblue" d="M178.148,-112.933C160.903,-103.171 138.058,-90.2401 121.001,-80.5856"/>
<polygon fill="midnightblue" stroke="midnightblue" points="122.62,-77.4802 112.193,-75.6 119.172,-83.572 122.62,-77.4802"/>
</g>
<!-- Node8 -->
<g id="node8" class="node"><title>Node8</title>
<polygon fill="none" stroke="#bfbfbf" points="400,-0.5 400,-19.5 438,-19.5 438,-0.5 400,-0.5"/>
<text text-anchor="middle" x="419" y="-7.5" font-family="Helvetica,sans-Serif" font-size="10.00">array</text>
</g>
<!-- Node7&#45;&gt;Node8 -->
<g id="edge8" class="edge"><title>Node7&#45;&gt;Node8</title>
<path fill="none" stroke="midnightblue" d="M280.231,-112.993C348.38,-100.263 437.731,-82.5069 443,-76 454.41,-61.9102 444.066,-41.8807 433.628,-27.7892"/>
<polygon fill="midnightblue" stroke="midnightblue" points="436.289,-25.5129 427.311,-19.8888 430.822,-29.8847 436.289,-25.5129"/>
</g>
<!-- Node9 -->
<g id="node9" class="node"><title>Node9</title>
<polygon fill="none" stroke="#bfbfbf" points="246.5,-56.5 246.5,-75.5 287.5,-75.5 287.5,-56.5 246.5,-56.5"/>
<text text-anchor="middle" x="267" y="-63.5" font-family="Helvetica,sans-Serif" font-size="10.00">bitset</text>
</g>
<!-- Node7&#45;&gt;Node9 -->
<g id="edge9" class="edge"><title>Node7&#45;&gt;Node9</title>
<path fill="none" stroke="midnightblue" d="M218.167,-112.781C227.851,-103.703 240.409,-91.9291 250.365,-82.5951"/>
<polygon fill="midnightblue" stroke="midnightblue" points="252.786,-85.1234 257.687,-75.7305 247.998,-80.0166 252.786,-85.1234"/>
</g>
<!-- Node10 -->
<g id="node10" class="node"><title>Node10</title>
<polygon fill="none" stroke="#bfbfbf" points="305.5,-56.5 305.5,-75.5 354.5,-75.5 354.5,-56.5 305.5,-56.5"/>
<text text-anchor="middle" x="330" y="-63.5" font-family="Helvetica,sans-Serif" font-size="10.00">cassert</text>
</g>
<!-- Node7&#45;&gt;Node10 -->
<g id="edge10" class="edge"><title>Node7&#45;&gt;Node10</title>
<path fill="none" stroke="midnightblue" d="M232.776,-112.933C253.915,-102.946 282.079,-89.6397 302.652,-79.9205"/>
<polygon fill="midnightblue" stroke="midnightblue" points="304.25,-83.0364 311.797,-75.6 301.26,-76.7072 304.25,-83.0364"/>
</g>
<!-- Node11 -->
<g id="node11" class="node"><title>Node11</title>
<polygon fill="none" stroke="#bfbfbf" points="373,-56.5 373,-75.5 435,-75.5 435,-56.5 373,-56.5"/>
<text text-anchor="middle" x="404" y="-63.5" font-family="Helvetica,sans-Serif" font-size="10.00">type_traits</text>
</g>
<!-- Node7&#45;&gt;Node11 -->
<g id="edge12" class="edge"><title>Node7&#45;&gt;Node11</title>
<path fill="none" stroke="midnightblue" d="M250.126,-112.933C285.353,-102.417 332.905,-88.2222 365.781,-78.4087"/>
<polygon fill="midnightblue" stroke="midnightblue" points="366.901,-81.7269 375.482,-75.5127 364.899,-75.0194 366.901,-81.7269"/>
</g>
<!-- Node12 -->
<g id="node12" class="node"><title>Node12</title>
<g id="a_node12"><a xlink:href="../../d9/d52/Common_2MathUtils_2include_2MathUtils_2Utils_8h.html" target="_top" xlink:title="MathUtils/Utils.h">
<polygon fill="none" stroke="black" points="138,-56.5 138,-75.5 228,-75.5 228,-56.5 138,-56.5"/>
<text text-anchor="middle" x="183" y="-63.5" font-family="Helvetica,sans-Serif" font-size="10.00">MathUtils/Utils.h</text>
</a>
</g>
</g>
<!-- Node7&#45;&gt;Node12 -->
<g id="edge13" class="edge"><title>Node7&#45;&gt;Node12</title>
<path fill="none" stroke="midnightblue" d="M198.26,-112.781C195.534,-104.601 192.078,-94.2341 189.145,-85.4344"/>
<polygon fill="midnightblue" stroke="midnightblue" points="192.393,-84.1105 185.91,-75.7305 185.752,-86.3242 192.393,-84.1105"/>
</g>
<!-- Node12&#45;&gt;Node8 -->
<g id="edge14" class="edge"><title>Node12&#45;&gt;Node8</title>
<path fill="none" stroke="midnightblue" d="M220.395,-56.4435C267.463,-45.6737 347.306,-27.4044 390.014,-17.6325"/>
<polygon fill="midnightblue" stroke="midnightblue" points="390.814,-21.04 399.781,-15.3976 389.252,-14.2163 390.814,-21.04"/>
</g>
<!-- Node13 -->
<g id="node13" class="node"><title>Node13</title>
<polygon fill="none" stroke="#bfbfbf" points="96,-0.5 96,-19.5 140,-19.5 140,-0.5 96,-0.5"/>
<text text-anchor="middle" x="118" y="-7.5" font-family="Helvetica,sans-Serif" font-size="10.00">cmath</text>
</g>
<!-- Node12&#45;&gt;Node13 -->
<g id="edge15" class="edge"><title>Node12&#45;&gt;Node13</title>
<path fill="none" stroke="midnightblue" d="M172.557,-56.324C162.854,-48.2631 148.185,-36.0765 136.5,-26.3695"/>
<polygon fill="midnightblue" stroke="midnightblue" points="138.562,-23.532 128.633,-19.8339 134.089,-28.9163 138.562,-23.532"/>
</g>
<!-- Node14 -->
<g id="node14" class="node"><title>Node14</title>
<g id="a_node14"><a xlink:href="../../d6/d84/MathConstants_8h.html" target="_top" xlink:title="useful math constants ">
<polygon fill="none" stroke="black" points="158.5,-0.5 158.5,-19.5 337.5,-19.5 337.5,-0.5 158.5,-0.5"/>
<text text-anchor="middle" x="248" y="-7.5" font-family="Helvetica,sans-Serif" font-size="10.00">CommonConstants/MathConstants.h</text>
</a>
</g>
</g>
<!-- Node12&#45;&gt;Node14 -->
<g id="edge16" class="edge"><title>Node12&#45;&gt;Node14</title>
<path fill="none" stroke="midnightblue" d="M193.443,-56.324C203.146,-48.2631 217.815,-36.0765 229.5,-26.3695"/>
<polygon fill="midnightblue" stroke="midnightblue" points="231.911,-28.9163 237.367,-19.8339 227.438,-23.532 231.911,-28.9163"/>
</g>
</g>
</svg>
