<?xml version="1.0" encoding="UTF-8" standalone="no"?>
<!DOCTYPE svg PUBLIC "-//W3C//DTD SVG 1.1//EN"
 "http://www.w3.org/Graphics/SVG/1.1/DTD/svg11.dtd">
<!-- Generated by graphviz version 2.36.0 (20140111.2315)
 -->
<!-- Title: sg_stencil_state Pages: 1 -->
<svg width="216pt" height="194pt"
 viewBox="0.00 0.00 216.00 194.00" xmlns="http://www.w3.org/2000/svg" xmlns:xlink="http://www.w3.org/1999/xlink">
<g id="graph0" class="graph" transform="scale(1 1) rotate(0) translate(4 190)">
<title>sg_stencil_state</title>
<!-- Node1 -->
<g id="node1" class="node"><title>Node1</title>
<polygon fill="#bfbfbf" stroke="black" points="55,-0.5 55,-57.5 143,-57.5 143,-0.5 55,-0.5"/>
<text text-anchor="middle" x="99" y="-45.5" font-family="Helvetica,sans-Serif" font-size="10.00">sg_stencil_state</text>
<polyline fill="none" stroke="black" points="55,-38.5 143,-38.5 "/>
<text text-anchor="middle" x="99" y="-26.5" font-family="Helvetica,sans-Serif" font-size="10.00"> </text>
<polyline fill="none" stroke="black" points="55,-19.5 143,-19.5 "/>
<text text-anchor="middle" x="99" y="-7.5" font-family="Helvetica,sans-Serif" font-size="10.00"> </text>
</g>
<!-- Node2 -->
<g id="node2" class="node"><title>Node2</title>
<polygon fill="none" stroke="#bfbfbf" points="0,-128.5 0,-185.5 94,-185.5 94,-128.5 0,-128.5"/>
<text text-anchor="middle" x="47" y="-173.5" font-family="Helvetica,sans-Serif" font-size="10.00">sg_compare_func</text>
<polyline fill="none" stroke="#bfbfbf" points="0,-166.5 94,-166.5 "/>
<text text-anchor="middle" x="47" y="-154.5" font-family="Helvetica,sans-Serif" font-size="10.00"> </text>
<polyline fill="none" stroke="#bfbfbf" points="0,-147.5 94,-147.5 "/>
<text text-anchor="middle" x="47" y="-135.5" font-family="Helvetica,sans-Serif" font-size="10.00"> </text>
</g>
<!-- Node2&#45;&gt;Node1 -->
<g id="edge1" class="edge"><title>Node2&#45;&gt;Node1</title>
<path fill="none" stroke="#404040" d="M46.8611,-128.221C47.7315,-112.294 50.4815,-92.2941 58,-76 59.3608,-73.051 60.9754,-70.1545 62.7645,-67.3395"/>
<polygon fill="none" stroke="#404040" points="62.8173,-67.2667 63.1041,-60.0613 69.8656,-57.5548 69.5788,-64.7602 62.8173,-67.2667"/>
<text text-anchor="middle" x="93.5" y="-90.5" font-family="Helvetica,sans-Serif" font-size="10.00"> +compare_func</text>
</g>
<!-- Node3 -->
<g id="node3" class="node"><title>Node3</title>
<polygon fill="none" stroke="#bfbfbf" points="112.5,-128.5 112.5,-185.5 189.5,-185.5 189.5,-128.5 112.5,-128.5"/>
<text text-anchor="middle" x="151" y="-173.5" font-family="Helvetica,sans-Serif" font-size="10.00">sg_stencil_op</text>
<polyline fill="none" stroke="#bfbfbf" points="112.5,-166.5 189.5,-166.5 "/>
<text text-anchor="middle" x="151" y="-154.5" font-family="Helvetica,sans-Serif" font-size="10.00"> </text>
<polyline fill="none" stroke="#bfbfbf" points="112.5,-147.5 189.5,-147.5 "/>
<text text-anchor="middle" x="151" y="-135.5" font-family="Helvetica,sans-Serif" font-size="10.00"> </text>
</g>
<!-- Node3&#45;&gt;Node1 -->
<g id="edge2" class="edge"><title>Node3&#45;&gt;Node1</title>
<path fill="none" stroke="#404040" d="M145.593,-128.238C141.985,-112.499 136.512,-92.6803 129,-76 127.887,-73.5278 126.65,-71.0372 125.333,-68.5628"/>
<polygon fill="none" stroke="#404040" points="125.182,-68.3036 118.71,-65.1227 119.157,-57.9255 125.629,-61.1063 125.182,-68.3036"/>
<text text-anchor="middle" x="174.5" y="-101.5" font-family="Helvetica,sans-Serif" font-size="10.00"> +depth_fail_op</text>
<text text-anchor="middle" x="174.5" y="-90.5" font-family="Helvetica,sans-Serif" font-size="10.00">+pass_op</text>
<text text-anchor="middle" x="174.5" y="-79.5" font-family="Helvetica,sans-Serif" font-size="10.00">+fail_op</text>
</g>
</g>
</svg>
