<?xml version="1.0" encoding="UTF-8" standalone="no"?>
<!DOCTYPE svg PUBLIC "-//W3C//DTD SVG 1.1//EN"
 "http://www.w3.org/Graphics/SVG/1.1/DTD/svg11.dtd">
<!-- Generated by graphviz version 2.36.0 (20140111.2315)
 -->
<!-- Title: o2::Devices::FLPSyncSampler Pages: 1 -->
<svg width="632pt" height="326pt"
 viewBox="0.00 0.00 632.00 326.00" xmlns="http://www.w3.org/2000/svg" xmlns:xlink="http://www.w3.org/1999/xlink">
<g id="graph0" class="graph" transform="scale(1 1) rotate(0) translate(4 322)">
<title>o2::Devices::FLPSyncSampler</title>
<!-- Node1 -->
<g id="node1" class="node"><title>Node1</title>
<polygon fill="#bfbfbf" stroke="black" points="199,-1 199,-135 351,-135 351,-1 199,-1"/>
<text text-anchor="middle" x="275" y="-123" font-family="Helvetica,sans-Serif" font-size="10.00">o2::Devices::FLPSyncSampler</text>
<polyline fill="none" stroke="black" points="199,-116 351,-116 "/>
<text text-anchor="middle" x="275" y="-104" font-family="Helvetica,sans-Serif" font-size="10.00"> </text>
<polyline fill="none" stroke="black" points="199,-97 351,-97 "/>
<text text-anchor="start" x="207" y="-85" font-family="Helvetica,sans-Serif" font-size="10.00">+ FLPSyncSampler()</text>
<text text-anchor="start" x="207" y="-74" font-family="Helvetica,sans-Serif" font-size="10.00">+ ~FLPSyncSampler()</text>
<text text-anchor="start" x="207" y="-63" font-family="Helvetica,sans-Serif" font-size="10.00">+ ResetEventCounter()</text>
<text text-anchor="start" x="207" y="-52" font-family="Helvetica,sans-Serif" font-size="10.00">+ ListenForAcks()</text>
<text text-anchor="start" x="207" y="-41" font-family="Helvetica,sans-Serif" font-size="10.00"># InitTask()</text>
<text text-anchor="start" x="207" y="-30" font-family="Helvetica,sans-Serif" font-size="10.00"># ConditionalRun()</text>
<text text-anchor="start" x="207" y="-19" font-family="Helvetica,sans-Serif" font-size="10.00"># PreRun()</text>
<text text-anchor="start" x="207" y="-8" font-family="Helvetica,sans-Serif" font-size="10.00"># PostRun()</text>
</g>
<!-- Node2 -->
<g id="node2" class="node"><title>Node2</title>
<g id="a_node2"><a xlink:href="../../db/dfe/classFairMQDevice.html" target="_top" xlink:title="{FairMQDevice\n||}">
<polygon fill="none" stroke="black" points="0,-249.5 0,-306.5 80,-306.5 80,-249.5 0,-249.5"/>
<text text-anchor="middle" x="40" y="-294.5" font-family="Helvetica,sans-Serif" font-size="10.00">FairMQDevice</text>
<polyline fill="none" stroke="black" points="0,-287.5 80,-287.5 "/>
<text text-anchor="middle" x="40" y="-275.5" font-family="Helvetica,sans-Serif" font-size="10.00"> </text>
<polyline fill="none" stroke="black" points="0,-268.5 80,-268.5 "/>
<text text-anchor="middle" x="40" y="-256.5" font-family="Helvetica,sans-Serif" font-size="10.00"> </text>
</a>
</g>
</g>
<!-- Node2&#45;&gt;Node1 -->
<g id="edge1" class="edge"><title>Node2&#45;&gt;Node1</title>
<path fill="none" stroke="midnightblue" d="M56.482,-240.474C69.8518,-213.957 90.7609,-178.568 117,-154 140.533,-131.966 170.863,-113.855 198.648,-100.096"/>
<polygon fill="none" stroke="midnightblue" points="53.3398,-238.933 52.071,-249.451 59.6223,-242.02 53.3398,-238.933"/>
</g>
<!-- Node3 -->
<g id="node3" class="node"><title>Node3</title>
<polygon fill="none" stroke="#bfbfbf" points="98.5,-249.5 98.5,-306.5 149.5,-306.5 149.5,-249.5 98.5,-249.5"/>
<text text-anchor="middle" x="124" y="-294.5" font-family="Helvetica,sans-Serif" font-size="10.00">uint16_t</text>
<polyline fill="none" stroke="#bfbfbf" points="98.5,-287.5 149.5,-287.5 "/>
<text text-anchor="middle" x="124" y="-275.5" font-family="Helvetica,sans-Serif" font-size="10.00"> </text>
<polyline fill="none" stroke="#bfbfbf" points="98.5,-268.5 149.5,-268.5 "/>
<text text-anchor="middle" x="124" y="-256.5" font-family="Helvetica,sans-Serif" font-size="10.00"> </text>
</g>
<!-- Node3&#45;&gt;Node1 -->
<g id="edge2" class="edge"><title>Node3&#45;&gt;Node1</title>
<path fill="none" stroke="#404040" d="M120.598,-249.339C118.76,-222.82 119.836,-182.691 138,-154 150.368,-134.465 169.017,-118.687 188.608,-106.275"/>
<polygon fill="none" stroke="#404040" points="188.622,-106.267 191.706,-99.7491 198.909,-100.09 195.825,-106.608 188.622,-106.267"/>
<text text-anchor="middle" x="175.5" y="-184.5" font-family="Helvetica,sans-Serif" font-size="10.00"> #mTimeFrameId</text>
</g>
<!-- Node4 -->
<g id="node4" class="node"><title>Node4</title>
<polygon fill="none" stroke="#bfbfbf" points="169,-238.5 169,-317.5 275,-317.5 275,-238.5 169,-238.5"/>
<text text-anchor="start" x="177" y="-305.5" font-family="Helvetica,sans-Serif" font-size="10.00">array&lt; o2::Devices</text>
<text text-anchor="start" x="177" y="-294.5" font-family="Helvetica,sans-Serif" font-size="10.00">::timeframeDuration,</text>
<text text-anchor="middle" x="222" y="-283.5" font-family="Helvetica,sans-Serif" font-size="10.00"> UINT16_MAX &gt;</text>
<polyline fill="none" stroke="#bfbfbf" points="169,-276.5 275,-276.5 "/>
<text text-anchor="middle" x="222" y="-264.5" font-family="Helvetica,sans-Serif" font-size="10.00"> </text>
<polyline fill="none" stroke="#bfbfbf" points="169,-257.5 275,-257.5 "/>
<text text-anchor="middle" x="222" y="-245.5" font-family="Helvetica,sans-Serif" font-size="10.00"> </text>
</g>
<!-- Node4&#45;&gt;Node1 -->
<g id="edge3" class="edge"><title>Node4&#45;&gt;Node1</title>
<path fill="none" stroke="#404040" d="M217.083,-238.29C215.225,-213.681 215.16,-181.41 223,-154 223.734,-151.432 224.569,-148.865 225.49,-146.308"/>
<polygon fill="none" stroke="#404040" points="225.494,-146.298 224.059,-139.231 230.03,-135.188 231.465,-142.254 225.494,-146.298"/>
<text text-anchor="middle" x="264.5" y="-184.5" font-family="Helvetica,sans-Serif" font-size="10.00"> #mTimeframeRTT</text>
</g>
<!-- Node5 -->
<g id="node5" class="node"><title>Node5</title>
<g id="a_node5"><a xlink:href="../../d1/da0/classint.html" target="_top" xlink:title="{int\n||}">
<polygon fill="none" stroke="black" points="313.5,-249.5 313.5,-306.5 342.5,-306.5 342.5,-249.5 313.5,-249.5"/>
<text text-anchor="middle" x="328" y="-294.5" font-family="Helvetica,sans-Serif" font-size="10.00">int</text>
<polyline fill="none" stroke="black" points="313.5,-287.5 342.5,-287.5 "/>
<text text-anchor="middle" x="328" y="-275.5" font-family="Helvetica,sans-Serif" font-size="10.00"> </text>
<polyline fill="none" stroke="black" points="313.5,-268.5 342.5,-268.5 "/>
<text text-anchor="middle" x="328" y="-256.5" font-family="Helvetica,sans-Serif" font-size="10.00"> </text>
</a>
</g>
</g>
<!-- Node5&#45;&gt;Node1 -->
<g id="edge4" class="edge"><title>Node5&#45;&gt;Node1</title>
<path fill="none" stroke="#404040" d="M324.447,-249.342C320.891,-224.215 314.697,-186.256 306,-154 305.387,-151.725 304.739,-149.425 304.062,-147.11"/>
<polygon fill="none" stroke="#404040" points="304.008,-146.934 298.418,-142.379 300.473,-135.467 306.063,-140.022 304.008,-146.934"/>
<text text-anchor="middle" x="367" y="-212" font-family="Helvetica,sans-Serif" font-size="10.00"> #mMaxEvents</text>
<text text-anchor="middle" x="367" y="-201" font-family="Helvetica,sans-Serif" font-size="10.00">#mAckChannelName</text>
<text text-anchor="middle" x="367" y="-190" font-family="Helvetica,sans-Serif" font-size="10.00">#mStoreRTTinFile</text>
<text text-anchor="middle" x="367" y="-179" font-family="Helvetica,sans-Serif" font-size="10.00">#mEventRate</text>
<text text-anchor="middle" x="367" y="-168" font-family="Helvetica,sans-Serif" font-size="10.00">#mOutChannelName</text>
<text text-anchor="middle" x="367" y="-157" font-family="Helvetica,sans-Serif" font-size="10.00">#mEventCounter</text>
</g>
<!-- Node6 -->
<g id="node6" class="node"><title>Node6</title>
<polygon fill="none" stroke="#bfbfbf" points="404,-249.5 404,-306.5 486,-306.5 486,-249.5 404,-249.5"/>
<text text-anchor="middle" x="445" y="-294.5" font-family="Helvetica,sans-Serif" font-size="10.00">atomic&lt; bool &gt;</text>
<polyline fill="none" stroke="#bfbfbf" points="404,-287.5 486,-287.5 "/>
<text text-anchor="middle" x="445" y="-275.5" font-family="Helvetica,sans-Serif" font-size="10.00"> </text>
<polyline fill="none" stroke="#bfbfbf" points="404,-268.5 486,-268.5 "/>
<text text-anchor="middle" x="445" y="-256.5" font-family="Helvetica,sans-Serif" font-size="10.00"> </text>
</g>
<!-- Node6&#45;&gt;Node1 -->
<g id="edge5" class="edge"><title>Node6&#45;&gt;Node1</title>
<path fill="none" stroke="#404040" d="M445.06,-249.292C443.8,-222.551 438.283,-182.096 418,-154 403.611,-134.068 382.981,-117.994 361.851,-105.415"/>
<polygon fill="none" stroke="#404040" points="361.567,-105.254 354.374,-105.776 351.127,-99.3372 358.319,-98.8155 361.567,-105.254"/>
<text text-anchor="middle" x="467.5" y="-184.5" font-family="Helvetica,sans-Serif" font-size="10.00"> #mLeaving</text>
</g>
<!-- Node7 -->
<g id="node7" class="node"><title>Node7</title>
<polygon fill="none" stroke="#bfbfbf" points="504,-249.5 504,-306.5 548,-306.5 548,-249.5 504,-249.5"/>
<text text-anchor="middle" x="526" y="-294.5" font-family="Helvetica,sans-Serif" font-size="10.00">thread</text>
<polyline fill="none" stroke="#bfbfbf" points="504,-287.5 548,-287.5 "/>
<text text-anchor="middle" x="526" y="-275.5" font-family="Helvetica,sans-Serif" font-size="10.00"> </text>
<polyline fill="none" stroke="#bfbfbf" points="504,-268.5 548,-268.5 "/>
<text text-anchor="middle" x="526" y="-256.5" font-family="Helvetica,sans-Serif" font-size="10.00"> </text>
</g>
<!-- Node7&#45;&gt;Node1 -->
<g id="edge6" class="edge"><title>Node7&#45;&gt;Node1</title>
<path fill="none" stroke="#404040" d="M526.579,-249.488C525.69,-222.128 520.175,-180.512 497,-154 463.019,-115.126 409.23,-93.9466 363.109,-82.4519"/>
<polygon fill="none" stroke="#404040" points="362.939,-82.4119 356.183,-84.9322 351.258,-79.665 358.014,-77.1446 362.939,-82.4119"/>
<text text-anchor="middle" x="574" y="-190" font-family="Helvetica,sans-Serif" font-size="10.00"> #mAckListener</text>
<text text-anchor="middle" x="574" y="-179" font-family="Helvetica,sans-Serif" font-size="10.00">#mResetEventCounter</text>
</g>
</g>
</svg>
