<?xml version="1.0" encoding="UTF-8" standalone="no"?>
<!DOCTYPE svg PUBLIC "-//W3C//DTD SVG 1.1//EN"
 "http://www.w3.org/Graphics/SVG/1.1/DTD/svg11.dtd">
<!-- Generated by graphviz version 2.36.0 (20140111.2315)
 -->
<!-- Title: /home/travis/build/AliceO2Group/AliceO2/Detectors/EMCAL/base/src/Digit.cxx Pages: 1 -->
<svg width="602pt" height="242pt"
 viewBox="0.00 0.00 602.00 242.00" xmlns="http://www.w3.org/2000/svg" xmlns:xlink="http://www.w3.org/1999/xlink">
<g id="graph0" class="graph" transform="scale(1 1) rotate(0) translate(4 238)">
<title>/home/travis/build/AliceO2Group/AliceO2/Detectors/EMCAL/base/src/Digit.cxx</title>
<!-- Node1 -->
<g id="node1" class="node"><title>Node1</title>
<polygon fill="#bfbfbf" stroke="black" points="178,-181 178,-233 302,-233 302,-181 178,-181"/>
<text text-anchor="start" x="186" y="-221" font-family="Helvetica,sans-Serif" font-size="10.00">/home/travis/build</text>
<text text-anchor="start" x="186" y="-210" font-family="Helvetica,sans-Serif" font-size="10.00">/AliceO2Group/AliceO2</text>
<text text-anchor="start" x="186" y="-199" font-family="Helvetica,sans-Serif" font-size="10.00">/Detectors/EMCAL/base</text>
<text text-anchor="middle" x="240" y="-188" font-family="Helvetica,sans-Serif" font-size="10.00">/src/Digit.cxx</text>
</g>
<!-- Node2 -->
<g id="node2" class="node"><title>Node2</title>
<g id="a_node2"><a xlink:href="../../dd/dc7/EMCAL_2base_2include_2EMCALBase_2Digit_8h.html" target="_top" xlink:title="EMCALBase/Digit.h">
<polygon fill="none" stroke="black" points="138.5,-124.5 138.5,-143.5 243.5,-143.5 243.5,-124.5 138.5,-124.5"/>
<text text-anchor="middle" x="191" y="-131.5" font-family="Helvetica,sans-Serif" font-size="10.00">EMCALBase/Digit.h</text>
</a>
</g>
</g>
<!-- Node1&#45;&gt;Node2 -->
<g id="edge1" class="edge"><title>Node1&#45;&gt;Node2</title>
<path fill="none" stroke="midnightblue" d="M222.586,-180.768C216.041,-171.284 208.758,-160.731 202.836,-152.15"/>
<polygon fill="midnightblue" stroke="midnightblue" points="205.604,-149.999 197.044,-143.757 199.843,-153.975 205.604,-149.999"/>
</g>
<!-- Node9 -->
<g id="node9" class="node"><title>Node9</title>
<polygon fill="none" stroke="#bfbfbf" points="262,-124.5 262,-143.5 316,-143.5 316,-124.5 262,-124.5"/>
<text text-anchor="middle" x="289" y="-131.5" font-family="Helvetica,sans-Serif" font-size="10.00">iostream</text>
</g>
<!-- Node1&#45;&gt;Node9 -->
<g id="edge10" class="edge"><title>Node1&#45;&gt;Node9</title>
<path fill="none" stroke="midnightblue" d="M257.414,-180.768C263.959,-171.284 271.242,-160.731 277.164,-152.15"/>
<polygon fill="midnightblue" stroke="midnightblue" points="280.157,-153.975 282.956,-143.757 274.396,-149.999 280.157,-153.975"/>
</g>
<!-- Node3 -->
<g id="node3" class="node"><title>Node3</title>
<polygon fill="none" stroke="#bfbfbf" points="-0.5,-62.5 -0.5,-81.5 44.5,-81.5 44.5,-62.5 -0.5,-62.5"/>
<text text-anchor="middle" x="22" y="-69.5" font-family="Helvetica,sans-Serif" font-size="10.00">iosfwd</text>
</g>
<!-- Node2&#45;&gt;Node3 -->
<g id="edge2" class="edge"><title>Node2&#45;&gt;Node3</title>
<path fill="none" stroke="midnightblue" d="M161.503,-124.441C133.508,-116.053 90.4159,-102.454 54,-88 52.3533,-87.3464 50.671,-86.6494 48.982,-85.9271"/>
<polygon fill="midnightblue" stroke="midnightblue" points="49.9938,-82.5448 39.4377,-81.6399 47.1255,-88.9302 49.9938,-82.5448"/>
</g>
<!-- Node4 -->
<g id="node4" class="node"><title>Node4</title>
<polygon fill="none" stroke="#bfbfbf" points="63,-62.5 63,-81.5 107,-81.5 107,-62.5 63,-62.5"/>
<text text-anchor="middle" x="85" y="-69.5" font-family="Helvetica,sans-Serif" font-size="10.00">cmath</text>
</g>
<!-- Node2&#45;&gt;Node4 -->
<g id="edge3" class="edge"><title>Node2&#45;&gt;Node4</title>
<path fill="none" stroke="midnightblue" d="M175.813,-124.403C158.338,-114.512 129.421,-98.1442 108.917,-86.5378"/>
<polygon fill="midnightblue" stroke="midnightblue" points="110.586,-83.4607 100.159,-81.5806 107.138,-89.5525 110.586,-83.4607"/>
</g>
<!-- Node5 -->
<g id="node5" class="node"><title>Node5</title>
<polygon fill="none" stroke="#bfbfbf" points="220,-0.5 220,-19.5 276,-19.5 276,-0.5 220,-0.5"/>
<text text-anchor="middle" x="248" y="-7.5" font-family="Helvetica,sans-Serif" font-size="10.00">Rtypes.h</text>
</g>
<!-- Node2&#45;&gt;Node5 -->
<g id="edge4" class="edge"><title>Node2&#45;&gt;Node5</title>
<path fill="none" stroke="midnightblue" d="M180.916,-124.112C165.491,-109.412 139.296,-79.3409 154,-56 166.349,-36.3977 189.861,-25.1466 210.281,-18.7967"/>
<polygon fill="midnightblue" stroke="midnightblue" points="211.319,-22.1405 219.993,-16.058 209.419,-15.4032 211.319,-22.1405"/>
</g>
<!-- Node6 -->
<g id="node6" class="node"><title>Node6</title>
<g id="a_node6"><a xlink:href="../../df/d5d/common_2include_2CommonDataFormat_2TimeStamp_8h.html" target="_top" xlink:title="CommonDataFormat/TimeStamp.h">
<polygon fill="none" stroke="black" points="163,-62.5 163,-81.5 333,-81.5 333,-62.5 163,-62.5"/>
<text text-anchor="middle" x="248" y="-69.5" font-family="Helvetica,sans-Serif" font-size="10.00">CommonDataFormat/TimeStamp.h</text>
</a>
</g>
</g>
<!-- Node2&#45;&gt;Node6 -->
<g id="edge5" class="edge"><title>Node2&#45;&gt;Node6</title>
<path fill="none" stroke="midnightblue" d="M199.167,-124.403C207.886,-115.225 221.904,-100.47 232.689,-89.1173"/>
<polygon fill="midnightblue" stroke="midnightblue" points="235.498,-91.2412 239.848,-81.5806 230.423,-86.42 235.498,-91.2412"/>
</g>
<!-- Node7 -->
<g id="node7" class="node"><title>Node7</title>
<g id="a_node7"><a xlink:href="../../d4/d82/Detectors_2EMCAL_2base_2include_2EMCALBase_2Constants_8h.html" target="_top" xlink:title="EMCALBase/Constants.h">
<polygon fill="none" stroke="black" points="351,-62.5 351,-81.5 481,-81.5 481,-62.5 351,-62.5"/>
<text text-anchor="middle" x="416" y="-69.5" font-family="Helvetica,sans-Serif" font-size="10.00">EMCALBase/Constants.h</text>
</a>
</g>
</g>
<!-- Node2&#45;&gt;Node7 -->
<g id="edge7" class="edge"><title>Node2&#45;&gt;Node7</title>
<path fill="none" stroke="midnightblue" d="M223.237,-124.403C262.919,-113.822 330.399,-95.8269 374.074,-84.1802"/>
<polygon fill="midnightblue" stroke="midnightblue" points="375.062,-87.5391 383.823,-81.5806 373.259,-80.7755 375.062,-87.5391"/>
</g>
<!-- Node8 -->
<g id="node8" class="node"><title>Node8</title>
<polygon fill="none" stroke="#bfbfbf" points="499.5,-57 499.5,-87 594.5,-87 594.5,-57 499.5,-57"/>
<text text-anchor="start" x="507.5" y="-75" font-family="Helvetica,sans-Serif" font-size="10.00">boost/serialization</text>
<text text-anchor="middle" x="547" y="-64" font-family="Helvetica,sans-Serif" font-size="10.00">/base_object.hpp</text>
</g>
<!-- Node2&#45;&gt;Node8 -->
<g id="edge9" class="edge"><title>Node2&#45;&gt;Node8</title>
<path fill="none" stroke="midnightblue" d="M243.827,-125.201C318.212,-114.199 448.555,-94.843 489.197,-87.8279"/>
<polygon fill="midnightblue" stroke="midnightblue" points="489.997,-91.2394 499.194,-85.9808 488.725,-84.3559 489.997,-91.2394"/>
</g>
<!-- Node6&#45;&gt;Node5 -->
<g id="edge6" class="edge"><title>Node6&#45;&gt;Node5</title>
<path fill="none" stroke="midnightblue" d="M248,-62.4035C248,-53.9381 248,-40.7283 248,-29.8199"/>
<polygon fill="midnightblue" stroke="midnightblue" points="251.5,-29.5806 248,-19.5806 244.5,-29.5806 251.5,-29.5806"/>
</g>
<!-- Node7&#45;&gt;Node5 -->
<g id="edge8" class="edge"><title>Node7&#45;&gt;Node5</title>
<path fill="none" stroke="midnightblue" d="M391.93,-62.4035C362.987,-52.0668 314.238,-34.6564 281.598,-22.9994"/>
<polygon fill="midnightblue" stroke="midnightblue" points="282.62,-19.6479 272.026,-19.5806 280.266,-26.2401 282.62,-19.6479"/>
</g>
</g>
</svg>
