<?xml version="1.0" encoding="UTF-8" standalone="no"?>
<!DOCTYPE svg PUBLIC "-//W3C//DTD SVG 1.1//EN"
 "http://www.w3.org/Graphics/SVG/1.1/DTD/svg11.dtd">
<!-- Generated by graphviz version 2.36.0 (20140111.2315)
 -->
<!-- Title: /home/travis/build/AliceO2Group/AliceO2/DataFormats/simulation/test/testMCCompLabel.cxx Pages: 1 -->
<svg width="556pt" height="186pt"
 viewBox="0.00 0.00 556.00 186.00" xmlns="http://www.w3.org/2000/svg" xmlns:xlink="http://www.w3.org/1999/xlink">
<g id="graph0" class="graph" transform="scale(1 1) rotate(0) translate(4 182)">
<title>/home/travis/build/AliceO2Group/AliceO2/DataFormats/simulation/test/testMCCompLabel.cxx</title>
<!-- Node1 -->
<g id="node1" class="node"><title>Node1</title>
<polygon fill="#bfbfbf" stroke="black" points="180,-125 180,-177 320,-177 320,-125 180,-125"/>
<text text-anchor="start" x="188" y="-165" font-family="Helvetica,sans-Serif" font-size="10.00">/home/travis/build</text>
<text text-anchor="start" x="188" y="-154" font-family="Helvetica,sans-Serif" font-size="10.00">/AliceO2Group/AliceO2</text>
<text text-anchor="start" x="188" y="-143" font-family="Helvetica,sans-Serif" font-size="10.00">/DataFormats/simulation</text>
<text text-anchor="middle" x="250" y="-132" font-family="Helvetica,sans-Serif" font-size="10.00">/test/testMCCompLabel.cxx</text>
</g>
<!-- Node2 -->
<g id="node2" class="node"><title>Node2</title>
<polygon fill="none" stroke="#bfbfbf" points="-0.5,-62.5 -0.5,-81.5 118.5,-81.5 118.5,-62.5 -0.5,-62.5"/>
<text text-anchor="middle" x="59" y="-69.5" font-family="Helvetica,sans-Serif" font-size="10.00">boost/test/unit_test.hpp</text>
</g>
<!-- Node1&#45;&gt;Node2 -->
<g id="edge1" class="edge"><title>Node1&#45;&gt;Node2</title>
<path fill="none" stroke="midnightblue" d="M187.724,-124.894C154.903,-111.663 116.103,-96.0204 89.7439,-85.3942"/>
<polygon fill="midnightblue" stroke="midnightblue" points="90.8728,-82.0756 80.2894,-81.5826 88.2554,-88.5678 90.8728,-82.0756"/>
</g>
<!-- Node3 -->
<g id="node3" class="node"><title>Node3</title>
<polygon fill="none" stroke="#bfbfbf" points="137,-62.5 137,-81.5 187,-81.5 187,-62.5 137,-62.5"/>
<text text-anchor="middle" x="162" y="-69.5" font-family="Helvetica,sans-Serif" font-size="10.00">iomanip</text>
</g>
<!-- Node1&#45;&gt;Node3 -->
<g id="edge2" class="edge"><title>Node1&#45;&gt;Node3</title>
<path fill="none" stroke="midnightblue" d="M221.186,-124.787C207.471,-112.787 191.514,-98.8246 179.626,-88.4232"/>
<polygon fill="midnightblue" stroke="midnightblue" points="181.611,-85.5088 171.78,-81.5577 177.001,-90.7768 181.611,-85.5088"/>
</g>
<!-- Node4 -->
<g id="node4" class="node"><title>Node4</title>
<polygon fill="none" stroke="#bfbfbf" points="205.5,-62.5 205.5,-81.5 234.5,-81.5 234.5,-62.5 205.5,-62.5"/>
<text text-anchor="middle" x="220" y="-69.5" font-family="Helvetica,sans-Serif" font-size="10.00">ios</text>
</g>
<!-- Node1&#45;&gt;Node4 -->
<g id="edge3" class="edge"><title>Node1&#45;&gt;Node4</title>
<path fill="none" stroke="midnightblue" d="M240.177,-124.787C235.865,-113.719 230.902,-100.982 226.977,-90.9087"/>
<polygon fill="midnightblue" stroke="midnightblue" points="230.226,-89.6049 223.334,-81.5577 223.703,-92.1461 230.226,-89.6049"/>
</g>
<!-- Node5 -->
<g id="node5" class="node"><title>Node5</title>
<polygon fill="none" stroke="#bfbfbf" points="253,-62.5 253,-81.5 307,-81.5 307,-62.5 253,-62.5"/>
<text text-anchor="middle" x="280" y="-69.5" font-family="Helvetica,sans-Serif" font-size="10.00">iostream</text>
</g>
<!-- Node1&#45;&gt;Node5 -->
<g id="edge4" class="edge"><title>Node1&#45;&gt;Node5</title>
<path fill="none" stroke="midnightblue" d="M259.823,-124.787C264.135,-113.719 269.098,-100.982 273.023,-90.9087"/>
<polygon fill="midnightblue" stroke="midnightblue" points="276.297,-92.1461 276.666,-81.5577 269.774,-89.6049 276.297,-92.1461"/>
</g>
<!-- Node6 -->
<g id="node6" class="node"><title>Node6</title>
<polygon fill="none" stroke="#bfbfbf" points="325.5,-62.5 325.5,-81.5 408.5,-81.5 408.5,-62.5 325.5,-62.5"/>
<text text-anchor="middle" x="367" y="-69.5" font-family="Helvetica,sans-Serif" font-size="10.00">unordered_map</text>
</g>
<!-- Node1&#45;&gt;Node6 -->
<g id="edge5" class="edge"><title>Node1&#45;&gt;Node6</title>
<path fill="none" stroke="midnightblue" d="M288.31,-124.787C307.252,-112.321 329.412,-97.7371 345.381,-87.2278"/>
<polygon fill="midnightblue" stroke="midnightblue" points="347.568,-89.9789 353.997,-81.5577 343.719,-84.1316 347.568,-89.9789"/>
</g>
<!-- Node7 -->
<g id="node7" class="node"><title>Node7</title>
<g id="a_node7"><a xlink:href="../../d7/dcd/MCCompLabel_8h.html" target="_top" xlink:title="SimulationDataFormat\l/MCCompLabel.h">
<polygon fill="none" stroke="black" points="427,-57 427,-87 541,-87 541,-57 427,-57"/>
<text text-anchor="start" x="435" y="-75" font-family="Helvetica,sans-Serif" font-size="10.00">SimulationDataFormat</text>
<text text-anchor="middle" x="484" y="-64" font-family="Helvetica,sans-Serif" font-size="10.00">/MCCompLabel.h</text>
</a>
</g>
</g>
<!-- Node1&#45;&gt;Node7 -->
<g id="edge6" class="edge"><title>Node1&#45;&gt;Node7</title>
<path fill="none" stroke="midnightblue" d="M320.208,-126.897C355.954,-115.135 398.677,-101.076 431.526,-90.2671"/>
<polygon fill="midnightblue" stroke="midnightblue" points="432.98,-93.4734 441.385,-87.023 430.792,-86.8241 432.98,-93.4734"/>
</g>
<!-- Node8 -->
<g id="node8" class="node"><title>Node8</title>
<polygon fill="none" stroke="#bfbfbf" points="420,-0.5 420,-19.5 548,-19.5 548,-0.5 420,-0.5"/>
<text text-anchor="middle" x="484" y="-7.5" font-family="Helvetica,sans-Serif" font-size="10.00">AliTPCCommonRtypes.h</text>
</g>
<!-- Node7&#45;&gt;Node8 -->
<g id="edge7" class="edge"><title>Node7&#45;&gt;Node8</title>
<path fill="none" stroke="midnightblue" d="M484,-56.7808C484,-48.7812 484,-38.6887 484,-30.0168"/>
<polygon fill="midnightblue" stroke="midnightblue" points="487.5,-29.7305 484,-19.7305 480.5,-29.7306 487.5,-29.7305"/>
</g>
</g>
</svg>
