<?xml version="1.0" encoding="UTF-8" standalone="no"?>
<!DOCTYPE svg PUBLIC "-//W3C//DTD SVG 1.1//EN"
 "http://www.w3.org/Graphics/SVG/1.1/DTD/svg11.dtd">
<!-- Generated by graphviz version 2.36.0 (20140111.2315)
 -->
<!-- Title: /home/travis/build/AliceO2Group/AliceO2/Detectors/EMCAL/base/src/ShishKebabTrd1Module.cxx Pages: 1 -->
<!--zoomable 322 -->
<svg id="main" version="1.1" xmlns="http://www.w3.org/2000/svg" xmlns:xlink="http://www.w3.org/1999/xlink" xml:space="preserve" onload="init(evt)">
<style type="text/css"><![CDATA[
.edge:hover path { stroke: red; }
.edge:hover polygon { stroke: red; fill: red; }
]]></style>
<script type="text/javascript"><![CDATA[
var edges = document.getElementsByTagName('g');
if (edges && edges.length) {
  for (var i=0;i<edges.length;i++) {
    if (edges[i].id.substr(0,4)=='edge') {
      edges[i].setAttribute('class','edge');
    }
  }
}
]]></script>
        <defs>
                <circle id="rim" cx="0" cy="0" r="7"/>
                <circle id="rim2" cx="0" cy="0" r="3.5"/>
                <g id="zoomPlus">
                        <use xlink:href="#rim" fill="#404040">
                                <set attributeName="fill" to="#808080" begin="zoomplus.mouseover" end="zoomplus.mouseout"/>
                        </use>
                        <path d="M-4,0h8M0,-4v8" fill="none" stroke="white" stroke-width="1.5" pointer-events="none"/>
                </g>
                <g id="zoomMin">
                        <use xlink:href="#rim" fill="#404040">
                                <set attributeName="fill" to="#808080" begin="zoomminus.mouseover" end="zoomminus.mouseout"/>
                        </use>
                        <path d="M-4,0h8" fill="none" stroke="white" stroke-width="1.5" pointer-events="none"/>
                </g>
                <g id="dirArrow">
                        <path fill="none" stroke="white" stroke-width="1.5" d="M0,-3.0v7 M-2.5,-0.5L0,-3.0L2.5,-0.5"/>
                </g>
               <g id="resetDef">
                       <use xlink:href="#rim2" fill="#404040">
                               <set attributeName="fill" to="#808080" begin="reset.mouseover" end="reset.mouseout"/>
                       </use>
               </g>
        </defs>

<script type="text/javascript">
var viewWidth = 1698;
var viewHeight = 322;
var sectionId = 'dynsection-0';
</script>
<script xlink:href="../../svgpan.js"/>
<svg id="graph" class="graph">
<g id="viewport">
<title>/home/travis/build/AliceO2Group/AliceO2/Detectors/EMCAL/base/src/ShishKebabTrd1Module.cxx</title>
<!-- Node1 -->
<g id="node1" class="node"><title>Node1</title>
<polygon fill="#bfbfbf" stroke="black" points="709,-261 709,-313 867,-313 867,-261 709,-261"/>
<text text-anchor="start" x="717" y="-301" font-family="Helvetica,sans-Serif" font-size="10.00">/home/travis/build</text>
<text text-anchor="start" x="717" y="-290" font-family="Helvetica,sans-Serif" font-size="10.00">/AliceO2Group/AliceO2</text>
<text text-anchor="start" x="717" y="-279" font-family="Helvetica,sans-Serif" font-size="10.00">/Detectors/EMCAL/base</text>
<text text-anchor="middle" x="788" y="-268" font-family="Helvetica,sans-Serif" font-size="10.00">/src/ShishKebabTrd1Module.cxx</text>
</g>
<!-- Node2 -->
<g id="node2" class="node"><title>Node2</title>
<polygon fill="none" stroke="#bfbfbf" points="664.5,-198.5 664.5,-217.5 713.5,-217.5 713.5,-198.5 664.5,-198.5"/>
<text text-anchor="middle" x="689" y="-205.5" font-family="Helvetica,sans-Serif" font-size="10.00">cassert</text>
</g>
<!-- Node1&#45;&gt;Node2 -->
<g id="edge1" class="edge"><title>Node1&#45;&gt;Node2</title>
<path fill="none" stroke="midnightblue" d="M755.584,-260.787C739.856,-248.554 721.505,-234.282 708.056,-223.821"/>
<polygon fill="midnightblue" stroke="midnightblue" points="710.045,-220.934 700.003,-217.558 705.748,-226.46 710.045,-220.934"/>
</g>
<!-- Node3 -->
<g id="node3" class="node"><title>Node3</title>
<polygon fill="none" stroke="#bfbfbf" points="252,-136.5 252,-155.5 332,-155.5 332,-136.5 252,-136.5"/>
<text text-anchor="middle" x="292" y="-143.5" font-family="Helvetica,sans-Serif" font-size="10.00">RStringView.h</text>
</g>
<!-- Node1&#45;&gt;Node3 -->
<g id="edge2" class="edge"><title>Node1&#45;&gt;Node3</title>
<path fill="none" stroke="midnightblue" d="M777.765,-260.902C767.281,-238.713 748.723,-207.529 722,-192 650.984,-150.731 440.321,-166.505 342.064,-155.884"/>
<polygon fill="midnightblue" stroke="midnightblue" points="342.418,-152.401 332.065,-154.654 341.563,-159.349 342.418,-152.401"/>
</g>
<!-- Node4 -->
<g id="node4" class="node"><title>Node4</title>
<g id="a_node4"><a xlink:href="../../dd/da8/EMCAL_2base_2include_2EMCALBase_2Geometry_8h.html" target="_top" xlink:title="EMCALBase/Geometry.h">
<polygon fill="none" stroke="black" points="770,-198.5 770,-217.5 898,-217.5 898,-198.5 770,-198.5"/>
<text text-anchor="middle" x="834" y="-205.5" font-family="Helvetica,sans-Serif" font-size="10.00">EMCALBase/Geometry.h</text>
</a>
</g>
</g>
<!-- Node1&#45;&gt;Node4 -->
<g id="edge3" class="edge"><title>Node1&#45;&gt;Node4</title>
<path fill="none" stroke="midnightblue" d="M803.062,-260.787C809.813,-249.486 817.604,-236.445 823.679,-226.276"/>
<polygon fill="midnightblue" stroke="midnightblue" points="826.764,-227.937 828.888,-217.558 820.754,-224.347 826.764,-227.937"/>
</g>
<!-- Node27 -->
<g id="node27" class="node"><title>Node27</title>
<g id="a_node27"><a xlink:href="../../d8/d00/ShishKebabTrd1Module_8h.html" target="_top" xlink:title="EMCALBase/ShishKebabTrd1\lModule.h">
<polygon fill="none" stroke="black" points="1366.5,-193 1366.5,-223 1515.5,-223 1515.5,-193 1366.5,-193"/>
<text text-anchor="start" x="1374.5" y="-211" font-family="Helvetica,sans-Serif" font-size="10.00">EMCALBase/ShishKebabTrd1</text>
<text text-anchor="middle" x="1441" y="-200" font-family="Helvetica,sans-Serif" font-size="10.00">Module.h</text>
</a>
</g>
</g>
<!-- Node1&#45;&gt;Node27 -->
<g id="edge30" class="edge"><title>Node1&#45;&gt;Node27</title>
<path fill="none" stroke="midnightblue" d="M867.092,-276.674C990.737,-262.094 1228.8,-234.022 1355.99,-219.024"/>
<polygon fill="midnightblue" stroke="midnightblue" points="1356.55,-222.482 1366.07,-217.835 1355.73,-215.53 1356.55,-222.482"/>
</g>
<!-- Node4&#45;&gt;Node3 -->
<g id="edge8" class="edge"><title>Node4&#45;&gt;Node3</title>
<path fill="none" stroke="midnightblue" d="M794.051,-198.494C781.878,-196.125 768.429,-193.729 756,-192 575.853,-166.933 526.21,-180.261 342.076,-156.017"/>
<polygon fill="midnightblue" stroke="midnightblue" points="342.437,-152.534 332.062,-154.679 341.51,-159.472 342.437,-152.534"/>
</g>
<!-- Node5 -->
<g id="node5" class="node"><title>Node5</title>
<polygon fill="none" stroke="#bfbfbf" points="926.5,-136.5 926.5,-155.5 985.5,-155.5 985.5,-136.5 926.5,-136.5"/>
<text text-anchor="middle" x="956" y="-143.5" font-family="Helvetica,sans-Serif" font-size="10.00">exception</text>
</g>
<!-- Node4&#45;&gt;Node5 -->
<g id="edge4" class="edge"><title>Node4&#45;&gt;Node5</title>
<path fill="none" stroke="midnightblue" d="M851.48,-198.403C871.863,-188.379 905.775,-171.701 929.425,-160.07"/>
<polygon fill="midnightblue" stroke="midnightblue" points="931.124,-163.135 938.553,-155.581 928.035,-156.853 931.124,-163.135"/>
</g>
<!-- Node6 -->
<g id="node6" class="node"><title>Node6</title>
<polygon fill="none" stroke="#bfbfbf" points="-0.5,-74.5 -0.5,-93.5 40.5,-93.5 40.5,-74.5 -0.5,-74.5"/>
<text text-anchor="middle" x="20" y="-81.5" font-family="Helvetica,sans-Serif" font-size="10.00">string</text>
</g>
<!-- Node4&#45;&gt;Node6 -->
<g id="edge5" class="edge"><title>Node4&#45;&gt;Node6</title>
<path fill="none" stroke="midnightblue" d="M790.794,-198.435C778.601,-196.171 765.305,-193.847 753,-192 614.96,-171.279 574.583,-196.498 441,-156 422.358,-150.348 420.678,-141.531 402,-136 251.211,-91.3499 201.015,-143.88 50,-100 48.0289,-99.4273 46.0318,-98.7278 44.0533,-97.9475"/>
<polygon fill="midnightblue" stroke="midnightblue" points="45.0707,-94.5639 34.5213,-93.5831 42.1565,-100.929 45.0707,-94.5639"/>
</g>
<!-- Node7 -->
<g id="node7" class="node"><title>Node7</title>
<polygon fill="none" stroke="#bfbfbf" points="1190,-136.5 1190,-155.5 1228,-155.5 1228,-136.5 1190,-136.5"/>
<text text-anchor="middle" x="1209" y="-143.5" font-family="Helvetica,sans-Serif" font-size="10.00">tuple</text>
</g>
<!-- Node4&#45;&gt;Node7 -->
<g id="edge6" class="edge"><title>Node4&#45;&gt;Node7</title>
<path fill="none" stroke="midnightblue" d="M898.229,-200.771C966.14,-193.466 1076.43,-179.555 1179.85,-155.936"/>
<polygon fill="midnightblue" stroke="midnightblue" points="1180.89,-159.289 1189.84,-153.62 1179.3,-152.47 1180.89,-159.289"/>
</g>
<!-- Node8 -->
<g id="node8" class="node"><title>Node8</title>
<polygon fill="none" stroke="#bfbfbf" points="350,-136.5 350,-155.5 394,-155.5 394,-136.5 350,-136.5"/>
<text text-anchor="middle" x="372" y="-143.5" font-family="Helvetica,sans-Serif" font-size="10.00">vector</text>
</g>
<!-- Node4&#45;&gt;Node8 -->
<g id="edge7" class="edge"><title>Node4&#45;&gt;Node8</title>
<path fill="none" stroke="midnightblue" d="M793.228,-198.466C781.268,-196.151 768.141,-193.792 756,-192 602.174,-169.296 561.143,-182.924 408,-156 406.751,-155.78 405.481,-155.541 404.201,-155.287"/>
<polygon fill="midnightblue" stroke="midnightblue" points="404.883,-151.853 394.363,-153.113 403.372,-158.688 404.883,-151.853"/>
</g>
<!-- Node9 -->
<g id="node9" class="node"><title>Node9</title>
<polygon fill="none" stroke="#bfbfbf" points="1218,-74.5 1218,-93.5 1294,-93.5 1294,-74.5 1218,-74.5"/>
<text text-anchor="middle" x="1256" y="-81.5" font-family="Helvetica,sans-Serif" font-size="10.00">TGeoMatrix.h</text>
</g>
<!-- Node4&#45;&gt;Node9 -->
<g id="edge9" class="edge"><title>Node4&#45;&gt;Node9</title>
<path fill="none" stroke="midnightblue" d="M866.126,-198.452C898.834,-189.359 950.742,-173.843 994,-156 1012.01,-148.572 1014.62,-142.456 1033,-136 1108.33,-109.539 1131.75,-120.167 1209,-100 1212.9,-98.9825 1216.95,-97.8326 1220.97,-96.6333"/>
<polygon fill="midnightblue" stroke="midnightblue" points="1222.26,-99.8974 1230.78,-93.5976 1220.19,-93.2103 1222.26,-99.8974"/>
</g>
<!-- Node10 -->
<g id="node10" class="node"><title>Node10</title>
<polygon fill="none" stroke="#bfbfbf" points="1246,-136.5 1246,-155.5 1308,-155.5 1308,-136.5 1246,-136.5"/>
<text text-anchor="middle" x="1277" y="-143.5" font-family="Helvetica,sans-Serif" font-size="10.00">TNamed.h</text>
</g>
<!-- Node4&#45;&gt;Node10 -->
<g id="edge10" class="edge"><title>Node4&#45;&gt;Node10</title>
<path fill="none" stroke="midnightblue" d="M898.147,-200.791C975.798,-192.849 1110.7,-177.687 1235.5,-156.125"/>
<polygon fill="midnightblue" stroke="midnightblue" points="1236.36,-159.527 1245.61,-154.359 1235.16,-152.631 1236.36,-159.527"/>
</g>
<!-- Node11 -->
<g id="node11" class="node"><title>Node11</title>
<polygon fill="none" stroke="#bfbfbf" points="761,-136.5 761,-155.5 825,-155.5 825,-136.5 761,-136.5"/>
<text text-anchor="middle" x="793" y="-143.5" font-family="Helvetica,sans-Serif" font-size="10.00">TParticle.h</text>
</g>
<!-- Node4&#45;&gt;Node11 -->
<g id="edge11" class="edge"><title>Node4&#45;&gt;Node11</title>
<path fill="none" stroke="midnightblue" d="M828.126,-198.403C822.037,-189.493 812.355,-175.325 804.697,-164.118"/>
<polygon fill="midnightblue" stroke="midnightblue" points="807.395,-161.862 798.863,-155.581 801.616,-165.812 807.395,-161.862"/>
</g>
<!-- Node12 -->
<g id="node12" class="node"><title>Node12</title>
<polygon fill="none" stroke="#bfbfbf" points="843.5,-136.5 843.5,-155.5 908.5,-155.5 908.5,-136.5 843.5,-136.5"/>
<text text-anchor="middle" x="876" y="-143.5" font-family="Helvetica,sans-Serif" font-size="10.00">TVector3.h</text>
</g>
<!-- Node4&#45;&gt;Node12 -->
<g id="edge12" class="edge"><title>Node4&#45;&gt;Node12</title>
<path fill="none" stroke="midnightblue" d="M840.018,-198.403C846.318,-189.403 856.371,-175.041 864.252,-163.782"/>
<polygon fill="midnightblue" stroke="midnightblue" points="867.126,-165.78 869.994,-155.581 861.392,-161.766 867.126,-165.78"/>
</g>
<!-- Node13 -->
<g id="node13" class="node"><title>Node13</title>
<g id="a_node13"><a xlink:href="../../d4/d82/Detectors_2EMCAL_2base_2include_2EMCALBase_2Constants_8h.html" target="_top" xlink:title="EMCALBase/Constants.h">
<polygon fill="none" stroke="black" points="1042,-136.5 1042,-155.5 1172,-155.5 1172,-136.5 1042,-136.5"/>
<text text-anchor="middle" x="1107" y="-143.5" font-family="Helvetica,sans-Serif" font-size="10.00">EMCALBase/Constants.h</text>
</a>
</g>
</g>
<!-- Node4&#45;&gt;Node13 -->
<g id="edge13" class="edge"><title>Node4&#45;&gt;Node13</title>
<path fill="none" stroke="midnightblue" d="M872.824,-198.467C921.642,-187.738 1005.46,-169.316 1058.46,-157.667"/>
<polygon fill="midnightblue" stroke="midnightblue" points="1059.29,-161.068 1068.31,-155.503 1057.79,-154.232 1059.29,-161.068"/>
</g>
<!-- Node15 -->
<g id="node15" class="node"><title>Node15</title>
<g id="a_node15"><a xlink:href="../../d5/d5e/GeometryBase_8h.html" target="_top" xlink:title="EMCALBase/GeometryBase.h">
<polygon fill="none" stroke="black" points="450,-136.5 450,-155.5 600,-155.5 600,-136.5 450,-136.5"/>
<text text-anchor="middle" x="525" y="-143.5" font-family="Helvetica,sans-Serif" font-size="10.00">EMCALBase/GeometryBase.h</text>
</a>
</g>
</g>
<!-- Node4&#45;&gt;Node15 -->
<g id="edge15" class="edge"><title>Node4&#45;&gt;Node15</title>
<path fill="none" stroke="midnightblue" d="M790.056,-198.467C734.456,-187.671 638.741,-169.086 578.818,-157.45"/>
<polygon fill="midnightblue" stroke="midnightblue" points="579.276,-153.974 568.792,-155.503 577.942,-160.845 579.276,-153.974"/>
</g>
<!-- Node17 -->
<g id="node17" class="node"><title>Node17</title>
<g id="a_node17"><a xlink:href="../../dd/d76/Cartesian3D_8h.html" target="_top" xlink:title="MathUtils/Cartesian3D.h">
<polygon fill="none" stroke="black" points="617.5,-136.5 617.5,-155.5 742.5,-155.5 742.5,-136.5 617.5,-136.5"/>
<text text-anchor="middle" x="680" y="-143.5" font-family="Helvetica,sans-Serif" font-size="10.00">MathUtils/Cartesian3D.h</text>
</a>
</g>
</g>
<!-- Node4&#45;&gt;Node17 -->
<g id="edge18" class="edge"><title>Node4&#45;&gt;Node17</title>
<path fill="none" stroke="midnightblue" d="M811.936,-198.403C785.633,-188.156 741.487,-170.956 711.575,-159.302"/>
<polygon fill="midnightblue" stroke="midnightblue" points="712.612,-155.95 702.024,-155.581 710.071,-162.472 712.612,-155.95"/>
</g>
<!-- Node14 -->
<g id="node14" class="node"><title>Node14</title>
<polygon fill="none" stroke="#bfbfbf" points="1312,-74.5 1312,-93.5 1368,-93.5 1368,-74.5 1312,-74.5"/>
<text text-anchor="middle" x="1340" y="-81.5" font-family="Helvetica,sans-Serif" font-size="10.00">Rtypes.h</text>
</g>
<!-- Node13&#45;&gt;Node14 -->
<g id="edge14" class="edge"><title>Node13&#45;&gt;Node14</title>
<path fill="none" stroke="midnightblue" d="M1153.5,-136.5C1193.56,-128.66 1252.72,-115.852 1303,-100 1305.64,-99.1689 1308.35,-98.2328 1311.05,-97.2446"/>
<polygon fill="midnightblue" stroke="midnightblue" points="1312.57,-100.41 1320.63,-93.5315 1310.04,-93.8832 1312.57,-100.41"/>
</g>
<!-- Node15&#45;&gt;Node6 -->
<g id="edge17" class="edge"><title>Node15&#45;&gt;Node6</title>
<path fill="none" stroke="midnightblue" d="M449.741,-137.348C445.092,-136.888 440.483,-136.436 436,-136 264.508,-119.332 215.67,-147.338 50,-100 48.0263,-99.4361 46.0274,-98.743 44.0476,-97.9671"/>
<polygon fill="midnightblue" stroke="midnightblue" points="45.0634,-94.5833 34.5132,-93.6113 42.1545,-100.95 45.0634,-94.5833"/>
</g>
<!-- Node16 -->
<g id="node16" class="node"><title>Node16</title>
<polygon fill="none" stroke="#bfbfbf" points="59,-74.5 59,-93.5 111,-93.5 111,-74.5 59,-74.5"/>
<text text-anchor="middle" x="85" y="-81.5" font-family="Helvetica,sans-Serif" font-size="10.00">sstream</text>
</g>
<!-- Node15&#45;&gt;Node16 -->
<g id="edge16" class="edge"><title>Node15&#45;&gt;Node16</title>
<path fill="none" stroke="midnightblue" d="M449.726,-137.212C336.976,-125.464 135.691,-104.137 120,-100 117.183,-99.2574 114.299,-98.3261 111.455,-97.293"/>
<polygon fill="midnightblue" stroke="midnightblue" points="112.673,-94.0104 102.09,-93.5148 110.054,-100.502 112.673,-94.0104"/>
</g>
<!-- Node17&#45;&gt;Node9 -->
<g id="edge25" class="edge"><title>Node17&#45;&gt;Node9</title>
<path fill="none" stroke="midnightblue" d="M742.809,-136.977C745.916,-136.634 748.992,-136.306 752,-136 954.692,-115.359 1009.07,-139.232 1209,-100 1213.57,-99.1037 1218.31,-97.912 1222.96,-96.5907"/>
<polygon fill="midnightblue" stroke="midnightblue" points="1224.32,-99.8351 1232.85,-93.5555 1222.26,-93.1431 1224.32,-99.8351"/>
</g>
<!-- Node17&#45;&gt;Node14 -->
<g id="edge24" class="edge"><title>Node17&#45;&gt;Node14</title>
<path fill="none" stroke="midnightblue" d="M742.805,-136.928C745.912,-136.598 748.99,-136.286 752,-136 996.309,-112.77 1063.79,-154.801 1303,-100 1306.24,-99.2571 1309.57,-98.2654 1312.84,-97.1443"/>
<polygon fill="midnightblue" stroke="midnightblue" points="1314.22,-100.361 1322.31,-93.5126 1311.72,-93.8252 1314.22,-100.361"/>
</g>
<!-- Node18 -->
<g id="node18" class="node"><title>Node18</title>
<polygon fill="none" stroke="#bfbfbf" points="513.5,-69 513.5,-99 664.5,-99 664.5,-69 513.5,-69"/>
<text text-anchor="start" x="521.5" y="-87" font-family="Helvetica,sans-Serif" font-size="10.00">Math/GenVector/Displacement</text>
<text text-anchor="middle" x="589" y="-76" font-family="Helvetica,sans-Serif" font-size="10.00">Vector3D.h</text>
</g>
<!-- Node17&#45;&gt;Node18 -->
<g id="edge19" class="edge"><title>Node17&#45;&gt;Node18</title>
<path fill="none" stroke="midnightblue" d="M666.962,-136.403C654.522,-128.201 635.327,-115.545 619.097,-104.844"/>
<polygon fill="midnightblue" stroke="midnightblue" points="620.722,-101.723 610.447,-99.1408 616.869,-107.567 620.722,-101.723"/>
</g>
<!-- Node19 -->
<g id="node19" class="node"><title>Node19</title>
<polygon fill="none" stroke="#bfbfbf" points="683,-74.5 683,-93.5 859,-93.5 859,-74.5 683,-74.5"/>
<text text-anchor="middle" x="771" y="-81.5" font-family="Helvetica,sans-Serif" font-size="10.00">Math/GenVector/PositionVector3D.h</text>
</g>
<!-- Node17&#45;&gt;Node19 -->
<g id="edge20" class="edge"><title>Node17&#45;&gt;Node19</title>
<path fill="none" stroke="midnightblue" d="M693.038,-136.403C707.769,-126.691 731.973,-110.732 749.509,-99.1697"/>
<polygon fill="midnightblue" stroke="midnightblue" points="751.564,-102.007 757.986,-93.5806 747.711,-96.1632 751.564,-102.007"/>
</g>
<!-- Node20 -->
<g id="node20" class="node"><title>Node20</title>
<polygon fill="none" stroke="#bfbfbf" points="876.5,-74.5 876.5,-93.5 1025.5,-93.5 1025.5,-74.5 876.5,-74.5"/>
<text text-anchor="middle" x="951" y="-81.5" font-family="Helvetica,sans-Serif" font-size="10.00">Math/GenVector/Rotation3D.h</text>
</g>
<!-- Node17&#45;&gt;Node20 -->
<g id="edge21" class="edge"><title>Node17&#45;&gt;Node20</title>
<path fill="none" stroke="midnightblue" d="M718.54,-136.467C767,-125.738 850.208,-107.316 902.819,-95.6673"/>
<polygon fill="midnightblue" stroke="midnightblue" points="903.586,-99.0824 912.593,-93.5034 902.073,-92.2479 903.586,-99.0824"/>
</g>
<!-- Node21 -->
<g id="node21" class="node"><title>Node21</title>
<polygon fill="none" stroke="#bfbfbf" points="1044,-74.5 1044,-93.5 1200,-93.5 1200,-74.5 1044,-74.5"/>
<text text-anchor="middle" x="1122" y="-81.5" font-family="Helvetica,sans-Serif" font-size="10.00">Math/GenVector/Transform3D.h</text>
</g>
<!-- Node17&#45;&gt;Node21 -->
<g id="edge22" class="edge"><title>Node17&#45;&gt;Node21</title>
<path fill="none" stroke="midnightblue" d="M742.522,-137.122C840.303,-124.792 1019.79,-102.113 1034,-100 1043.77,-98.5466 1054.14,-96.8869 1064.19,-95.2138"/>
<polygon fill="midnightblue" stroke="midnightblue" points="1064.82,-98.656 1074.1,-93.5433 1063.66,-91.7532 1064.82,-98.656"/>
</g>
<!-- Node22 -->
<g id="node22" class="node"><title>Node22</title>
<polygon fill="none" stroke="#bfbfbf" points="129,-74.5 129,-93.5 289,-93.5 289,-74.5 129,-74.5"/>
<text text-anchor="middle" x="209" y="-81.5" font-family="Helvetica,sans-Serif" font-size="10.00">Math/GenVector/Translation3D.h</text>
</g>
<!-- Node17&#45;&gt;Node22 -->
<g id="edge23" class="edge"><title>Node17&#45;&gt;Node22</title>
<path fill="none" stroke="midnightblue" d="M617.175,-137.114C614.073,-136.735 611.002,-136.362 608,-136 470.293,-119.398 435.322,-119.532 298,-100 287.994,-98.5768 277.38,-96.9185 267.1,-95.234"/>
<polygon fill="midnightblue" stroke="midnightblue" points="267.405,-91.7367 256.967,-93.5485 266.257,-98.6418 267.405,-91.7367"/>
</g>
<!-- Node23 -->
<g id="node23" class="node"><title>Node23</title>
<polygon fill="none" stroke="#bfbfbf" points="307.5,-74.5 307.5,-93.5 352.5,-93.5 352.5,-74.5 307.5,-74.5"/>
<text text-anchor="middle" x="330" y="-81.5" font-family="Helvetica,sans-Serif" font-size="10.00">iosfwd</text>
</g>
<!-- Node17&#45;&gt;Node23 -->
<g id="edge26" class="edge"><title>Node17&#45;&gt;Node23</title>
<path fill="none" stroke="midnightblue" d="M617.391,-136.674C527.986,-124.712 373.123,-103.689 361,-100 358.862,-99.3495 356.688,-98.5691 354.533,-97.7108"/>
<polygon fill="midnightblue" stroke="midnightblue" points="355.944,-94.5079 345.388,-93.6091 353.08,-100.895 355.944,-94.5079"/>
</g>
<!-- Node24 -->
<g id="node24" class="node"><title>Node24</title>
<g id="a_node24"><a xlink:href="../../d2/dd0/Cartesian2D_8h.html" target="_top" xlink:title="MathUtils/Cartesian2D.h">
<polygon fill="none" stroke="black" points="370.5,-74.5 370.5,-93.5 495.5,-93.5 495.5,-74.5 370.5,-74.5"/>
<text text-anchor="middle" x="433" y="-81.5" font-family="Helvetica,sans-Serif" font-size="10.00">MathUtils/Cartesian2D.h</text>
</a>
</g>
</g>
<!-- Node17&#45;&gt;Node24 -->
<g id="edge27" class="edge"><title>Node17&#45;&gt;Node24</title>
<path fill="none" stroke="midnightblue" d="M644.873,-136.467C600.98,-125.805 525.811,-107.545 477.814,-95.886"/>
<polygon fill="midnightblue" stroke="midnightblue" points="478.549,-92.4629 468.006,-93.5034 476.897,-99.2651 478.549,-92.4629"/>
</g>
<!-- Node25 -->
<g id="node25" class="node"><title>Node25</title>
<polygon fill="none" stroke="#bfbfbf" points="266.5,-1 266.5,-31 417.5,-31 417.5,-1 266.5,-1"/>
<text text-anchor="start" x="274.5" y="-19" font-family="Helvetica,sans-Serif" font-size="10.00">Math/GenVector/Displacement</text>
<text text-anchor="middle" x="342" y="-8" font-family="Helvetica,sans-Serif" font-size="10.00">Vector2D.h</text>
</g>
<!-- Node24&#45;&gt;Node25 -->
<g id="edge28" class="edge"><title>Node24&#45;&gt;Node25</title>
<path fill="none" stroke="midnightblue" d="M421.103,-74.3717C408.221,-65.0286 387.22,-49.7966 370.093,-37.375"/>
<polygon fill="midnightblue" stroke="midnightblue" points="371.703,-34.2194 361.553,-31.1815 367.593,-39.8859 371.703,-34.2194"/>
</g>
<!-- Node26 -->
<g id="node26" class="node"><title>Node26</title>
<polygon fill="none" stroke="#bfbfbf" points="436,-6.5 436,-25.5 612,-25.5 612,-6.5 436,-6.5"/>
<text text-anchor="middle" x="524" y="-13.5" font-family="Helvetica,sans-Serif" font-size="10.00">Math/GenVector/PositionVector2D.h</text>
</g>
<!-- Node24&#45;&gt;Node26 -->
<g id="edge29" class="edge"><title>Node24&#45;&gt;Node26</title>
<path fill="none" stroke="midnightblue" d="M444.897,-74.3717C459.884,-63.5015 485.862,-44.6602 503.942,-31.5474"/>
<polygon fill="midnightblue" stroke="midnightblue" points="506.06,-34.3349 512.1,-25.6305 501.95,-28.6684 506.06,-34.3349"/>
</g>
<!-- Node27&#45;&gt;Node10 -->
<g id="edge34" class="edge"><title>Node27&#45;&gt;Node10</title>
<path fill="none" stroke="midnightblue" d="M1402.55,-192.933C1374.51,-182.674 1336.9,-168.915 1310.17,-159.137"/>
<polygon fill="midnightblue" stroke="midnightblue" points="1311.1,-155.749 1300.51,-155.6 1308.7,-162.323 1311.1,-155.749"/>
</g>
<!-- Node28 -->
<g id="node28" class="node"><title>Node28</title>
<polygon fill="none" stroke="#bfbfbf" points="1416,-136.5 1416,-155.5 1466,-155.5 1466,-136.5 1416,-136.5"/>
<text text-anchor="middle" x="1441" y="-143.5" font-family="Helvetica,sans-Serif" font-size="10.00">iomanip</text>
</g>
<!-- Node27&#45;&gt;Node28 -->
<g id="edge31" class="edge"><title>Node27&#45;&gt;Node28</title>
<path fill="none" stroke="midnightblue" d="M1441,-192.781C1441,-184.781 1441,-174.689 1441,-166.017"/>
<polygon fill="midnightblue" stroke="midnightblue" points="1444.5,-165.73 1441,-155.731 1437.5,-165.731 1444.5,-165.73"/>
</g>
<!-- Node29 -->
<g id="node29" class="node"><title>Node29</title>
<polygon fill="none" stroke="#bfbfbf" points="1484,-136.5 1484,-155.5 1536,-155.5 1536,-136.5 1484,-136.5"/>
<text text-anchor="middle" x="1510" y="-143.5" font-family="Helvetica,sans-Serif" font-size="10.00">memory</text>
</g>
<!-- Node27&#45;&gt;Node29 -->
<g id="edge32" class="edge"><title>Node27&#45;&gt;Node29</title>
<path fill="none" stroke="midnightblue" d="M1457.35,-192.781C1467.9,-183.613 1481.6,-171.696 1492.38,-162.319"/>
<polygon fill="midnightblue" stroke="midnightblue" points="1494.71,-164.933 1499.96,-155.731 1490.12,-159.651 1494.71,-164.933"/>
</g>
<!-- Node30 -->
<g id="node30" class="node"><title>Node30</title>
<polygon fill="none" stroke="#bfbfbf" points="1554.5,-136.5 1554.5,-155.5 1607.5,-155.5 1607.5,-136.5 1554.5,-136.5"/>
<text text-anchor="middle" x="1581" y="-143.5" font-family="Helvetica,sans-Serif" font-size="10.00">TMath.h</text>
</g>
<!-- Node27&#45;&gt;Node30 -->
<g id="edge33" class="edge"><title>Node27&#45;&gt;Node30</title>
<path fill="none" stroke="midnightblue" d="M1473.82,-192.933C1497.34,-182.855 1528.74,-169.399 1551.47,-159.657"/>
<polygon fill="midnightblue" stroke="midnightblue" points="1553.12,-162.756 1560.93,-155.6 1550.36,-156.322 1553.12,-162.756"/>
</g>
<!-- Node31 -->
<g id="node31" class="node"><title>Node31</title>
<polygon fill="none" stroke="#bfbfbf" points="1625.5,-136.5 1625.5,-155.5 1690.5,-155.5 1690.5,-136.5 1625.5,-136.5"/>
<text text-anchor="middle" x="1658" y="-143.5" font-family="Helvetica,sans-Serif" font-size="10.00">TVector2.h</text>
</g>
<!-- Node27&#45;&gt;Node31 -->
<g id="edge35" class="edge"><title>Node27&#45;&gt;Node31</title>
<path fill="none" stroke="midnightblue" d="M1491.88,-192.933C1530.07,-182.372 1581.69,-168.1 1617.2,-158.282"/>
<polygon fill="midnightblue" stroke="midnightblue" points="1618.51,-161.551 1627.21,-155.513 1616.64,-154.804 1618.51,-161.551"/>
</g>
<!-- Node32 -->
<g id="node32" class="node"><title>Node32</title>
<polygon fill="none" stroke="#bfbfbf" points="1326.5,-136.5 1326.5,-155.5 1397.5,-155.5 1397.5,-136.5 1326.5,-136.5"/>
<text text-anchor="middle" x="1362" y="-143.5" font-family="Helvetica,sans-Serif" font-size="10.00">FairLogger.h</text>
</g>
<!-- Node27&#45;&gt;Node32 -->
<g id="edge36" class="edge"><title>Node27&#45;&gt;Node32</title>
<path fill="none" stroke="midnightblue" d="M1422.28,-192.781C1410.09,-183.523 1394.21,-171.462 1381.81,-162.044"/>
<polygon fill="midnightblue" stroke="midnightblue" points="1383.58,-158.992 1373.5,-155.731 1379.34,-164.566 1383.58,-158.992"/>
</g>
</g>
</svg>
        <g id="navigator" transform="translate(0 0)" fill="#404254">
                <rect fill="#f2f5e9" fill-opacity="0.5" stroke="#606060" stroke-width=".5" x="0" y="0" width="60" height="60"/>
                <use id="zoomplus" xlink:href="#zoomPlus" x="17" y="9" onmousedown="handleZoom(evt,'in')"/>
                <use id="zoomminus" xlink:href="#zoomMin" x="42" y="9" onmousedown="handleZoom(evt,'out')"/>
                <use id="reset" xlink:href="#resetDef" x="30" y="36" onmousedown="handleReset()"/>
                <g id="arrowUp" xlink:href="#dirArrow" transform="translate(30 24)" onmousedown="handlePan(0,-1)">
                  <use xlink:href="#rim" fill="#404040">
                        <set attributeName="fill" to="#808080" begin="arrowUp.mouseover" end="arrowUp.mouseout"/>
                  </use>
                  <path fill="none" stroke="white" stroke-width="1.5" d="M0,-3.0v7 M-2.5,-0.5L0,-3.0L2.5,-0.5"/>
                </g>
                <g id="arrowRight" xlink:href="#dirArrow" transform="rotate(90) translate(36 -43)" onmousedown="handlePan(1,0)">
                  <use xlink:href="#rim" fill="#404040">
                        <set attributeName="fill" to="#808080" begin="arrowRight.mouseover" end="arrowRight.mouseout"/>
                  </use>
                  <path fill="none" stroke="white" stroke-width="1.5" d="M0,-3.0v7 M-2.5,-0.5L0,-3.0L2.5,-0.5"/>
                </g>
                <g id="arrowDown" xlink:href="#dirArrow" transform="rotate(180) translate(-30 -48)" onmousedown="handlePan(0,1)">
                  <use xlink:href="#rim" fill="#404040">
                        <set attributeName="fill" to="#808080" begin="arrowDown.mouseover" end="arrowDown.mouseout"/>
                  </use>
                  <path fill="none" stroke="white" stroke-width="1.5" d="M0,-3.0v7 M-2.5,-0.5L0,-3.0L2.5,-0.5"/>
                </g>
                <g id="arrowLeft" xlink:href="#dirArrow" transform="rotate(270) translate(-36 17)" onmousedown="handlePan(-1,0)">
                  <use xlink:href="#rim" fill="#404040">
                        <set attributeName="fill" to="#808080" begin="arrowLeft.mouseover" end="arrowLeft.mouseout"/>
                  </use>
                  <path fill="none" stroke="white" stroke-width="1.5" d="M0,-3.0v7 M-2.5,-0.5L0,-3.0L2.5,-0.5"/>
                </g>
        </g>
        <svg viewBox="0 0 15 15" width="100%" height="30px" preserveAspectRatio="xMaxYMin meet">
         <g id="arrow_out" transform="scale(0.3 0.3)">
          <a xlink:href="ShishKebabTrd1Module_8cxx__incl_org.svg" target="_base">
           <rect id="button" ry="5" rx="5" y="6" x="6" height="38" width="38"
                fill="#f2f5e9" fill-opacity="0.5" stroke="#606060" stroke-width="1.0"/>
           <path id="arrow"
             d="M 11.500037,31.436501 C 11.940474,20.09759 22.043105,11.32322 32.158766,21.979434 L 37.068811,17.246167 C 37.068811,17.246167 37.088388,32 37.088388,32 L 22.160133,31.978069 C 22.160133,31.978069 26.997745,27.140456 26.997745,27.140456 C 18.528582,18.264221 13.291696,25.230495 11.500037,31.436501 z"
             style="fill:#404040;"/>
          </a>
         </g>
        </svg>
</svg>
