<?xml version="1.0" encoding="UTF-8" standalone="no"?>
<!DOCTYPE svg PUBLIC "-//W3C//DTD SVG 1.1//EN"
 "http://www.w3.org/Graphics/SVG/1.1/DTD/svg11.dtd">
<!-- Generated by graphviz version 2.36.0 (20140111.2315)
 -->
<!-- Title: o2::framework::is_boost_serializable&lt; Type, boost::archive::binary_oarchive, void_t&lt; typename Type::value_type &gt; &gt; Pages: 1 -->
<!--zoomable 754 -->
<svg id="main" version="1.1" xmlns="http://www.w3.org/2000/svg" xmlns:xlink="http://www.w3.org/1999/xlink" xml:space="preserve" onload="init(evt)">
<style type="text/css"><![CDATA[
.edge:hover path { stroke: red; }
.edge:hover polygon { stroke: red; fill: red; }
]]></style>
<script type="text/javascript"><![CDATA[
var edges = document.getElementsByTagName('g');
if (edges && edges.length) {
  for (var i=0;i<edges.length;i++) {
    if (edges[i].id.substr(0,4)=='edge') {
      edges[i].setAttribute('class','edge');
    }
  }
}
]]></script>
        <defs>
                <circle id="rim" cx="0" cy="0" r="7"/>
                <circle id="rim2" cx="0" cy="0" r="3.5"/>
                <g id="zoomPlus">
                        <use xlink:href="#rim" fill="#404040">
                                <set attributeName="fill" to="#808080" begin="zoomplus.mouseover" end="zoomplus.mouseout"/>
                        </use>
                        <path d="M-4,0h8M0,-4v8" fill="none" stroke="white" stroke-width="1.5" pointer-events="none"/>
                </g>
                <g id="zoomMin">
                        <use xlink:href="#rim" fill="#404040">
                                <set attributeName="fill" to="#808080" begin="zoomminus.mouseover" end="zoomminus.mouseout"/>
                        </use>
                        <path d="M-4,0h8" fill="none" stroke="white" stroke-width="1.5" pointer-events="none"/>
                </g>
                <g id="dirArrow">
                        <path fill="none" stroke="white" stroke-width="1.5" d="M0,-3.0v7 M-2.5,-0.5L0,-3.0L2.5,-0.5"/>
                </g>
               <g id="resetDef">
                       <use xlink:href="#rim2" fill="#404040">
                               <set attributeName="fill" to="#808080" begin="reset.mouseover" end="reset.mouseout"/>
                       </use>
               </g>
        </defs>

<script type="text/javascript">
var viewWidth = 306;
var viewHeight = 754;
var sectionId = 'dynsection-1';
</script>
<script xlink:href="../../svgpan.js"/>
<svg id="graph" class="graph">
<g id="viewport">
<title>o2::framework::is_boost_serializable&lt; Type, boost::archive::binary_oarchive, void_t&lt; typename Type::value_type &gt; &gt;</title>
<!-- Node1 -->
<g id="node1" class="node"><title>Node1</title>
<polygon fill="#bfbfbf" stroke="black" points="47,-0.5 47,-101.5 199,-101.5 199,-0.5 47,-0.5"/>
<text text-anchor="start" x="55" y="-89.5" font-family="Helvetica,sans-Serif" font-size="10.00">o2::framework::is_boost</text>
<text text-anchor="start" x="55" y="-78.5" font-family="Helvetica,sans-Serif" font-size="10.00">_serializable&lt; Type, boost</text>
<text text-anchor="start" x="55" y="-67.5" font-family="Helvetica,sans-Serif" font-size="10.00">::archive::binary_oarchive,</text>
<text text-anchor="start" x="55" y="-56.5" font-family="Helvetica,sans-Serif" font-size="10.00"> void_t&lt; typename Type::value</text>
<text text-anchor="middle" x="123" y="-45.5" font-family="Helvetica,sans-Serif" font-size="10.00">_type &gt; &gt;</text>
<polyline fill="none" stroke="black" points="47,-38.5 199,-38.5 "/>
<text text-anchor="middle" x="123" y="-26.5" font-family="Helvetica,sans-Serif" font-size="10.00"> </text>
<polyline fill="none" stroke="black" points="47,-19.5 199,-19.5 "/>
<text text-anchor="middle" x="123" y="-7.5" font-family="Helvetica,sans-Serif" font-size="10.00"> </text>
</g>
<!-- Node2 -->
<g id="node2" class="node"><title>Node2</title>
<g id="a_node2"><a xlink:href="../../d2/d70/structo2_1_1framework_1_1is__boost__serializable.html" target="_top" xlink:title="{o2::framework::is_boost\l_serializable\&lt; Type::value\l_type, boost::archive::binary\l_oarchive \&gt;\n||}">
<polygon fill="none" stroke="black" points="53,-141 53,-231 193,-231 193,-141 53,-141"/>
<text text-anchor="start" x="61" y="-219" font-family="Helvetica,sans-Serif" font-size="10.00">o2::framework::is_boost</text>
<text text-anchor="start" x="61" y="-208" font-family="Helvetica,sans-Serif" font-size="10.00">_serializable&lt; Type::value</text>
<text text-anchor="start" x="61" y="-197" font-family="Helvetica,sans-Serif" font-size="10.00">_type, boost::archive::binary</text>
<text text-anchor="middle" x="123" y="-186" font-family="Helvetica,sans-Serif" font-size="10.00">_oarchive &gt;</text>
<polyline fill="none" stroke="black" points="53,-179 193,-179 "/>
<text text-anchor="middle" x="123" y="-167" font-family="Helvetica,sans-Serif" font-size="10.00"> </text>
<polyline fill="none" stroke="black" points="53,-160 193,-160 "/>
<text text-anchor="middle" x="123" y="-148" font-family="Helvetica,sans-Serif" font-size="10.00"> </text>
</a>
</g>
</g>
<!-- Node2&#45;&gt;Node1 -->
<g id="edge1" class="edge"><title>Node2&#45;&gt;Node1</title>
<path fill="none" stroke="midnightblue" d="M123,-130.504C123,-120.936 123,-111.024 123,-101.598"/>
<polygon fill="none" stroke="midnightblue" points="119.5,-130.713 123,-140.713 126.5,-130.713 119.5,-130.713"/>
</g>
<!-- Node3 -->
<g id="node3" class="node"><title>Node3</title>
<g id="a_node3"><a xlink:href="../../d5/dbf/structo2_1_1framework_1_1is__boost__serializable__base.html" target="_top" xlink:title="{o2::framework::is_boost\l_serializable_base\&lt; Type,\l boost::archive::binary\l_oarchive \&gt;\n||}">
<polygon fill="none" stroke="black" points="-0.5,-421 -0.5,-511 130.5,-511 130.5,-421 -0.5,-421"/>
<text text-anchor="start" x="7.5" y="-499" font-family="Helvetica,sans-Serif" font-size="10.00">o2::framework::is_boost</text>
<text text-anchor="start" x="7.5" y="-488" font-family="Helvetica,sans-Serif" font-size="10.00">_serializable_base&lt; Type,</text>
<text text-anchor="start" x="7.5" y="-477" font-family="Helvetica,sans-Serif" font-size="10.00"> boost::archive::binary</text>
<text text-anchor="middle" x="65" y="-466" font-family="Helvetica,sans-Serif" font-size="10.00">_oarchive &gt;</text>
<polyline fill="none" stroke="black" points="-0.5,-459 130.5,-459 "/>
<text text-anchor="middle" x="65" y="-447" font-family="Helvetica,sans-Serif" font-size="10.00"> </text>
<polyline fill="none" stroke="black" points="-0.5,-440 130.5,-440 "/>
<text text-anchor="middle" x="65" y="-428" font-family="Helvetica,sans-Serif" font-size="10.00"> </text>
</a>
</g>
</g>
<!-- Node3&#45;&gt;Node2 -->
<g id="edge2" class="edge"><title>Node3&#45;&gt;Node2</title>
<path fill="none" stroke="midnightblue" d="M76.2999,-410.839C87.2271,-358.463 103.584,-280.064 113.757,-231.303"/>
<polygon fill="none" stroke="midnightblue" points="72.8065,-410.446 74.1903,-420.95 79.6589,-411.876 72.8065,-410.446"/>
</g>
<!-- Node4 -->
<g id="node4" class="node"><title>Node4</title>
<polygon fill="none" stroke="#bfbfbf" points="3.5,-581.5 3.5,-638.5 84.5,-638.5 84.5,-581.5 3.5,-581.5"/>
<text text-anchor="middle" x="44" y="-626.5" font-family="Helvetica,sans-Serif" font-size="10.00">std::false_type</text>
<polyline fill="none" stroke="#bfbfbf" points="3.5,-619.5 84.5,-619.5 "/>
<text text-anchor="middle" x="44" y="-607.5" font-family="Helvetica,sans-Serif" font-size="10.00"> </text>
<polyline fill="none" stroke="#bfbfbf" points="3.5,-600.5 84.5,-600.5 "/>
<text text-anchor="middle" x="44" y="-588.5" font-family="Helvetica,sans-Serif" font-size="10.00"> </text>
</g>
<!-- Node4&#45;&gt;Node3 -->
<g id="edge3" class="edge"><title>Node4&#45;&gt;Node3</title>
<path fill="none" stroke="midnightblue" d="M49.5921,-571.187C52.3236,-552.716 55.627,-530.379 58.4734,-511.132"/>
<polygon fill="none" stroke="midnightblue" points="46.0996,-570.879 48.0989,-581.284 53.0243,-571.904 46.0996,-570.879"/>
</g>
<!-- Node5 -->
<g id="node5" class="node"><title>Node5</title>
<g id="a_node5"><a xlink:href="../../d5/dbf/structo2_1_1framework_1_1is__boost__serializable__base.html" target="_top" xlink:title="{o2::framework::is_boost\l_serializable_base\&lt; Type,\l Archive, typename \&gt;\n||}">
<polygon fill="none" stroke="black" points="136.5,-570.5 136.5,-649.5 267.5,-649.5 267.5,-570.5 136.5,-570.5"/>
<text text-anchor="start" x="144.5" y="-637.5" font-family="Helvetica,sans-Serif" font-size="10.00">o2::framework::is_boost</text>
<text text-anchor="start" x="144.5" y="-626.5" font-family="Helvetica,sans-Serif" font-size="10.00">_serializable_base&lt; Type,</text>
<text text-anchor="middle" x="202" y="-615.5" font-family="Helvetica,sans-Serif" font-size="10.00"> Archive, typename &gt;</text>
<polyline fill="none" stroke="black" points="136.5,-608.5 267.5,-608.5 "/>
<text text-anchor="middle" x="202" y="-596.5" font-family="Helvetica,sans-Serif" font-size="10.00"> </text>
<polyline fill="none" stroke="black" points="136.5,-589.5 267.5,-589.5 "/>
<text text-anchor="middle" x="202" y="-577.5" font-family="Helvetica,sans-Serif" font-size="10.00"> </text>
</a>
</g>
</g>
<!-- Node5&#45;&gt;Node3 -->
<g id="edge4" class="edge"><title>Node5&#45;&gt;Node3</title>
<path fill="none" stroke="orange" d="M127.413,-578.017C115.805,-570.768 104.773,-562.134 96,-552 86.0272,-540.481 79.1612,-525.487 74.4795,-511.307"/>
<polygon fill="orange" stroke="orange" points="125.982,-581.236 136.375,-583.293 129.533,-575.204 125.982,-581.236"/>
<text text-anchor="start" x="96" y="-544" font-family="Helvetica,sans-Serif" font-size="10.00"> &lt; Type, boost::archive</text>
<text text-anchor="middle" x="147" y="-533" font-family="Helvetica,sans-Serif" font-size="10.00">::binary_oarchive &gt;</text>
</g>
<!-- Node8 -->
<g id="node8" class="node"><title>Node8</title>
<g id="a_node8"><a xlink:href="../../d5/dbf/structo2_1_1framework_1_1is__boost__serializable__base.html" target="_top" xlink:title="{o2::framework::is_boost\l_serializable_base\&lt; Type,\l Archive \&gt;\n||}">
<polygon fill="none" stroke="black" points="148.5,-426.5 148.5,-505.5 279.5,-505.5 279.5,-426.5 148.5,-426.5"/>
<text text-anchor="start" x="156.5" y="-493.5" font-family="Helvetica,sans-Serif" font-size="10.00">o2::framework::is_boost</text>
<text text-anchor="start" x="156.5" y="-482.5" font-family="Helvetica,sans-Serif" font-size="10.00">_serializable_base&lt; Type,</text>
<text text-anchor="middle" x="214" y="-471.5" font-family="Helvetica,sans-Serif" font-size="10.00"> Archive &gt;</text>
<polyline fill="none" stroke="black" points="148.5,-464.5 279.5,-464.5 "/>
<text text-anchor="middle" x="214" y="-452.5" font-family="Helvetica,sans-Serif" font-size="10.00"> </text>
<polyline fill="none" stroke="black" points="148.5,-445.5 279.5,-445.5 "/>
<text text-anchor="middle" x="214" y="-433.5" font-family="Helvetica,sans-Serif" font-size="10.00"> </text>
</a>
</g>
</g>
<!-- Node5&#45;&gt;Node8 -->
<g id="edge9" class="edge"><title>Node5&#45;&gt;Node8</title>
<path fill="none" stroke="orange" d="M201.396,-560.156C201.616,-550.165 202.095,-539.731 203,-530 203.74,-522.04 204.935,-513.574 206.268,-505.517"/>
<polygon fill="orange" stroke="orange" points="197.894,-560.313 201.254,-570.361 204.893,-560.41 197.894,-560.313"/>
<text text-anchor="middle" x="244" y="-538.5" font-family="Helvetica,sans-Serif" font-size="10.00"> &lt; Type, Archive &gt;</text>
</g>
<!-- Node6 -->
<g id="node6" class="node"><title>Node6</title>
<polygon fill="none" stroke="#bfbfbf" points="237,-688.5 237,-745.5 299,-745.5 299,-688.5 237,-688.5"/>
<text text-anchor="middle" x="268" y="-733.5" font-family="Helvetica,sans-Serif" font-size="10.00">false_type</text>
<polyline fill="none" stroke="#bfbfbf" points="237,-726.5 299,-726.5 "/>
<text text-anchor="middle" x="268" y="-714.5" font-family="Helvetica,sans-Serif" font-size="10.00"> </text>
<polyline fill="none" stroke="#bfbfbf" points="237,-707.5 299,-707.5 "/>
<text text-anchor="middle" x="268" y="-695.5" font-family="Helvetica,sans-Serif" font-size="10.00"> </text>
</g>
<!-- Node6&#45;&gt;Node5 -->
<g id="edge5" class="edge"><title>Node6&#45;&gt;Node5</title>
<path fill="none" stroke="midnightblue" d="M245.251,-679.808C239.174,-670.141 232.583,-659.655 226.421,-649.851"/>
<polygon fill="none" stroke="midnightblue" points="242.374,-681.809 250.659,-688.412 248.301,-678.083 242.374,-681.809"/>
</g>
<!-- Node6&#45;&gt;Node8 -->
<g id="edge8" class="edge"><title>Node6&#45;&gt;Node8</title>
<path fill="none" stroke="midnightblue" d="M281.901,-678.578C294.008,-639.685 306.543,-577.917 285,-530 281.013,-521.132 275.093,-513.006 268.342,-505.75"/>
<polygon fill="none" stroke="midnightblue" points="278.461,-677.838 278.69,-688.43 285.116,-680.007 278.461,-677.838"/>
</g>
<!-- Node7 -->
<g id="node7" class="node"><title>Node7</title>
<g id="a_node7"><a xlink:href="../../d2/d70/structo2_1_1framework_1_1is__boost__serializable.html" target="_top" xlink:title="{o2::framework::is_boost\l_serializable\&lt; Type, Archive,\l typename \&gt;\n||}">
<polygon fill="none" stroke="black" points="123.5,-302.5 123.5,-381.5 266.5,-381.5 266.5,-302.5 123.5,-302.5"/>
<text text-anchor="start" x="131.5" y="-369.5" font-family="Helvetica,sans-Serif" font-size="10.00">o2::framework::is_boost</text>
<text text-anchor="start" x="131.5" y="-358.5" font-family="Helvetica,sans-Serif" font-size="10.00">_serializable&lt; Type, Archive,</text>
<text text-anchor="middle" x="195" y="-347.5" font-family="Helvetica,sans-Serif" font-size="10.00"> typename &gt;</text>
<polyline fill="none" stroke="black" points="123.5,-340.5 266.5,-340.5 "/>
<text text-anchor="middle" x="195" y="-328.5" font-family="Helvetica,sans-Serif" font-size="10.00"> </text>
<polyline fill="none" stroke="black" points="123.5,-321.5 266.5,-321.5 "/>
<text text-anchor="middle" x="195" y="-309.5" font-family="Helvetica,sans-Serif" font-size="10.00"> </text>
</a>
</g>
</g>
<!-- Node7&#45;&gt;Node2 -->
<g id="edge6" class="edge"><title>Node7&#45;&gt;Node2</title>
<path fill="none" stroke="orange" d="M172.55,-292.982C163.292,-273.181 152.635,-250.385 143.581,-231.021"/>
<polygon fill="orange" stroke="orange" points="169.425,-294.563 176.831,-302.139 175.767,-291.598 169.425,-294.563"/>
<text text-anchor="start" x="168" y="-275.5" font-family="Helvetica,sans-Serif" font-size="10.00"> &lt; Type::value_type,</text>
<text text-anchor="start" x="168" y="-264.5" font-family="Helvetica,sans-Serif" font-size="10.00"> boost::archive::binary</text>
<text text-anchor="middle" x="216.5" y="-253.5" font-family="Helvetica,sans-Serif" font-size="10.00">_oarchive &gt;</text>
</g>
<!-- Node8&#45;&gt;Node7 -->
<g id="edge7" class="edge"><title>Node8&#45;&gt;Node7</title>
<path fill="none" stroke="midnightblue" d="M206.442,-416.472C204.647,-404.944 202.755,-392.795 201.038,-381.769"/>
<polygon fill="none" stroke="midnightblue" points="202.991,-417.056 207.988,-426.398 209.908,-415.979 202.991,-417.056"/>
</g>
</g>
</svg>
        <g id="navigator" transform="translate(0 0)" fill="#404254">
                <rect fill="#f2f5e9" fill-opacity="0.5" stroke="#606060" stroke-width=".5" x="0" y="0" width="60" height="60"/>
                <use id="zoomplus" xlink:href="#zoomPlus" x="17" y="9" onmousedown="handleZoom(evt,'in')"/>
                <use id="zoomminus" xlink:href="#zoomMin" x="42" y="9" onmousedown="handleZoom(evt,'out')"/>
                <use id="reset" xlink:href="#resetDef" x="30" y="36" onmousedown="handleReset()"/>
                <g id="arrowUp" xlink:href="#dirArrow" transform="translate(30 24)" onmousedown="handlePan(0,-1)">
                  <use xlink:href="#rim" fill="#404040">
                        <set attributeName="fill" to="#808080" begin="arrowUp.mouseover" end="arrowUp.mouseout"/>
                  </use>
                  <path fill="none" stroke="white" stroke-width="1.5" d="M0,-3.0v7 M-2.5,-0.5L0,-3.0L2.5,-0.5"/>
                </g>
                <g id="arrowRight" xlink:href="#dirArrow" transform="rotate(90) translate(36 -43)" onmousedown="handlePan(1,0)">
                  <use xlink:href="#rim" fill="#404040">
                        <set attributeName="fill" to="#808080" begin="arrowRight.mouseover" end="arrowRight.mouseout"/>
                  </use>
                  <path fill="none" stroke="white" stroke-width="1.5" d="M0,-3.0v7 M-2.5,-0.5L0,-3.0L2.5,-0.5"/>
                </g>
                <g id="arrowDown" xlink:href="#dirArrow" transform="rotate(180) translate(-30 -48)" onmousedown="handlePan(0,1)">
                  <use xlink:href="#rim" fill="#404040">
                        <set attributeName="fill" to="#808080" begin="arrowDown.mouseover" end="arrowDown.mouseout"/>
                  </use>
                  <path fill="none" stroke="white" stroke-width="1.5" d="M0,-3.0v7 M-2.5,-0.5L0,-3.0L2.5,-0.5"/>
                </g>
                <g id="arrowLeft" xlink:href="#dirArrow" transform="rotate(270) translate(-36 17)" onmousedown="handlePan(-1,0)">
                  <use xlink:href="#rim" fill="#404040">
                        <set attributeName="fill" to="#808080" begin="arrowLeft.mouseover" end="arrowLeft.mouseout"/>
                  </use>
                  <path fill="none" stroke="white" stroke-width="1.5" d="M0,-3.0v7 M-2.5,-0.5L0,-3.0L2.5,-0.5"/>
                </g>
        </g>
        <svg viewBox="0 0 15 15" width="100%" height="30px" preserveAspectRatio="xMaxYMin meet">
         <g id="arrow_out" transform="scale(0.3 0.3)">
          <a xlink:href="structo2_1_1framework_1_1is__boost__serializable_3_01Type_00_01boost_1_1archive_1_1binary__oarchb9e4d6a1eb3d27e4d34d34b8cb9aa37f_org.svg" target="_base">
           <rect id="button" ry="5" rx="5" y="6" x="6" height="38" width="38"
                fill="#f2f5e9" fill-opacity="0.5" stroke="#606060" stroke-width="1.0"/>
           <path id="arrow"
             d="M 11.500037,31.436501 C 11.940474,20.09759 22.043105,11.32322 32.158766,21.979434 L 37.068811,17.246167 C 37.068811,17.246167 37.088388,32 37.088388,32 L 22.160133,31.978069 C 22.160133,31.978069 26.997745,27.140456 26.997745,27.140456 C 18.528582,18.264221 13.291696,25.230495 11.500037,31.436501 z"
             style="fill:#404040;"/>
          </a>
         </g>
        </svg>
</svg>
