<?xml version="1.0" encoding="UTF-8" standalone="no"?>
<!DOCTYPE svg PUBLIC "-//W3C//DTD SVG 1.1//EN"
 "http://www.w3.org/Graphics/SVG/1.1/DTD/svg11.dtd">
<!-- Generated by graphviz version 2.36.0 (20140111.2315)
 -->
<!-- Title: /home/travis/build/AliceO2Group/AliceO2/Detectors/MUON/MCH/Tracking/src/Cluster.h Pages: 1 -->
<svg width="629pt" height="332pt"
 viewBox="0.00 0.00 629.00 332.00" xmlns="http://www.w3.org/2000/svg" xmlns:xlink="http://www.w3.org/1999/xlink">
<g id="graph0" class="graph" transform="scale(1 1) rotate(0) translate(4 328)">
<title>/home/travis/build/AliceO2Group/AliceO2/Detectors/MUON/MCH/Tracking/src/Cluster.h</title>
<!-- Node1 -->
<g id="node1" class="node"><title>Node1</title>
<polygon fill="#bfbfbf" stroke="black" points="219.5,-271 219.5,-323 382.5,-323 382.5,-271 219.5,-271"/>
<text text-anchor="start" x="227.5" y="-311" font-family="Helvetica,sans-Serif" font-size="10.00">/home/travis/build</text>
<text text-anchor="start" x="227.5" y="-300" font-family="Helvetica,sans-Serif" font-size="10.00">/AliceO2Group/AliceO2</text>
<text text-anchor="start" x="227.5" y="-289" font-family="Helvetica,sans-Serif" font-size="10.00">/Detectors/MUON/MCH/Tracking</text>
<text text-anchor="middle" x="301" y="-278" font-family="Helvetica,sans-Serif" font-size="10.00">/src/Cluster.h</text>
</g>
<!-- Node2 -->
<g id="node2" class="node"><title>Node2</title>
<g id="a_node2"><a xlink:href="../../d6/d5f/Detectors_2MUON_2MCH_2Tracking_2src_2Cluster_8cxx.html" target="_top" xlink:title="/home/travis/build\l/AliceO2Group/AliceO2\l/Detectors/MUON/MCH/Tracking\l/src/Cluster.cxx">
<polygon fill="none" stroke="black" points="-0.5,-181 -0.5,-233 162.5,-233 162.5,-181 -0.5,-181"/>
<text text-anchor="start" x="7.5" y="-221" font-family="Helvetica,sans-Serif" font-size="10.00">/home/travis/build</text>
<text text-anchor="start" x="7.5" y="-210" font-family="Helvetica,sans-Serif" font-size="10.00">/AliceO2Group/AliceO2</text>
<text text-anchor="start" x="7.5" y="-199" font-family="Helvetica,sans-Serif" font-size="10.00">/Detectors/MUON/MCH/Tracking</text>
<text text-anchor="middle" x="81" y="-188" font-family="Helvetica,sans-Serif" font-size="10.00">/src/Cluster.cxx</text>
</a>
</g>
</g>
<!-- Node1&#45;&gt;Node2 -->
<g id="edge1" class="edge"><title>Node1&#45;&gt;Node2</title>
<path fill="none" stroke="midnightblue" d="M228.713,-267.085C201.292,-256.117 170.312,-243.725 143.832,-233.133"/>
<polygon fill="midnightblue" stroke="midnightblue" points="227.667,-270.436 238.251,-270.901 230.266,-263.937 227.667,-270.436"/>
</g>
<!-- Node3 -->
<g id="node3" class="node"><title>Node3</title>
<g id="a_node3"><a xlink:href="../../d8/d80/Detectors_2MUON_2MCH_2Tracking_2src_2Track_8h.html" target="_top" xlink:title="/home/travis/build\l/AliceO2Group/AliceO2\l/Detectors/MUON/MCH/Tracking\l/src/Track.h">
<polygon fill="none" stroke="black" points="219.5,-181 219.5,-233 382.5,-233 382.5,-181 219.5,-181"/>
<text text-anchor="start" x="227.5" y="-221" font-family="Helvetica,sans-Serif" font-size="10.00">/home/travis/build</text>
<text text-anchor="start" x="227.5" y="-210" font-family="Helvetica,sans-Serif" font-size="10.00">/AliceO2Group/AliceO2</text>
<text text-anchor="start" x="227.5" y="-199" font-family="Helvetica,sans-Serif" font-size="10.00">/Detectors/MUON/MCH/Tracking</text>
<text text-anchor="middle" x="301" y="-188" font-family="Helvetica,sans-Serif" font-size="10.00">/src/Track.h</text>
</a>
</g>
</g>
<!-- Node1&#45;&gt;Node3 -->
<g id="edge2" class="edge"><title>Node1&#45;&gt;Node3</title>
<path fill="none" stroke="midnightblue" d="M301,-260.489C301,-251.309 301,-241.616 301,-233.092"/>
<polygon fill="midnightblue" stroke="midnightblue" points="297.5,-260.547 301,-270.547 304.5,-260.547 297.5,-260.547"/>
</g>
<!-- Node5 -->
<g id="node5" class="node"><title>Node5</title>
<g id="a_node5"><a xlink:href="../../d4/d9c/TrackFitter_8h.html" target="_top" xlink:title="Definition of a class to fit a track to a set of clusters. ">
<polygon fill="none" stroke="black" points="19.5,-91 19.5,-143 182.5,-143 182.5,-91 19.5,-91"/>
<text text-anchor="start" x="27.5" y="-131" font-family="Helvetica,sans-Serif" font-size="10.00">/home/travis/build</text>
<text text-anchor="start" x="27.5" y="-120" font-family="Helvetica,sans-Serif" font-size="10.00">/AliceO2Group/AliceO2</text>
<text text-anchor="start" x="27.5" y="-109" font-family="Helvetica,sans-Serif" font-size="10.00">/Detectors/MUON/MCH/Tracking</text>
<text text-anchor="middle" x="101" y="-98" font-family="Helvetica,sans-Serif" font-size="10.00">/src/TrackFitter.h</text>
</a>
</g>
</g>
<!-- Node1&#45;&gt;Node5 -->
<g id="edge8" class="edge"><title>Node1&#45;&gt;Node5</title>
<path fill="none" stroke="midnightblue" d="M248.783,-264.97C235.425,-255.846 221.577,-245.264 210,-234 188.781,-213.355 190.868,-201.948 171,-180 159.233,-167.002 144.936,-153.936 132.338,-143.173"/>
<polygon fill="midnightblue" stroke="midnightblue" points="247.199,-268.12 257.462,-270.747 251.077,-262.293 247.199,-268.12"/>
</g>
<!-- Node7 -->
<g id="node7" class="node"><title>Node7</title>
<g id="a_node7"><a xlink:href="../../db/d54/TrackFitterSpec_8cxx.html" target="_top" xlink:title="Implementation of a data processor to read, refit and send tracks with attached clusters. ">
<polygon fill="none" stroke="black" points="310.5,-1 310.5,-53 473.5,-53 473.5,-1 310.5,-1"/>
<text text-anchor="start" x="318.5" y="-41" font-family="Helvetica,sans-Serif" font-size="10.00">/home/travis/build</text>
<text text-anchor="start" x="318.5" y="-30" font-family="Helvetica,sans-Serif" font-size="10.00">/AliceO2Group/AliceO2</text>
<text text-anchor="start" x="318.5" y="-19" font-family="Helvetica,sans-Serif" font-size="10.00">/Detectors/MUON/MCH/Tracking</text>
<text text-anchor="middle" x="392" y="-8" font-family="Helvetica,sans-Serif" font-size="10.00">/src/TrackFitterSpec.cxx</text>
</a>
</g>
</g>
<!-- Node1&#45;&gt;Node7 -->
<g id="edge9" class="edge"><title>Node1&#45;&gt;Node7</title>
<path fill="none" stroke="midnightblue" d="M362.927,-264.957C374.117,-256.479 384.334,-246.19 391,-234 422.832,-175.793 409.058,-93.7785 399.057,-53.0209"/>
<polygon fill="midnightblue" stroke="midnightblue" points="360.79,-262.182 354.644,-270.812 364.83,-267.898 360.79,-262.182"/>
</g>
<!-- Node8 -->
<g id="node8" class="node"><title>Node8</title>
<g id="a_node8"><a xlink:href="../../dc/d16/TrackParam_8cxx.html" target="_top" xlink:title="Implementation of the MCH track parameters for internal use. ">
<polygon fill="none" stroke="black" points="458.5,-181 458.5,-233 621.5,-233 621.5,-181 458.5,-181"/>
<text text-anchor="start" x="466.5" y="-221" font-family="Helvetica,sans-Serif" font-size="10.00">/home/travis/build</text>
<text text-anchor="start" x="466.5" y="-210" font-family="Helvetica,sans-Serif" font-size="10.00">/AliceO2Group/AliceO2</text>
<text text-anchor="start" x="466.5" y="-199" font-family="Helvetica,sans-Serif" font-size="10.00">/Detectors/MUON/MCH/Tracking</text>
<text text-anchor="middle" x="540" y="-188" font-family="Helvetica,sans-Serif" font-size="10.00">/src/TrackParam.cxx</text>
</a>
</g>
</g>
<!-- Node1&#45;&gt;Node8 -->
<g id="edge10" class="edge"><title>Node1&#45;&gt;Node8</title>
<path fill="none" stroke="midnightblue" d="M378.75,-267.372C408.731,-256.333 442.723,-243.817 471.741,-233.133"/>
<polygon fill="midnightblue" stroke="midnightblue" points="377.343,-264.161 369.168,-270.901 379.761,-270.73 377.343,-264.161"/>
</g>
<!-- Node4 -->
<g id="node4" class="node"><title>Node4</title>
<g id="a_node4"><a xlink:href="../../d9/da9/Detectors_2MUON_2MCH_2Tracking_2src_2Track_8cxx.html" target="_top" xlink:title="/home/travis/build\l/AliceO2Group/AliceO2\l/Detectors/MUON/MCH/Tracking\l/src/Track.cxx">
<polygon fill="none" stroke="black" points="200.5,-91 200.5,-143 363.5,-143 363.5,-91 200.5,-91"/>
<text text-anchor="start" x="208.5" y="-131" font-family="Helvetica,sans-Serif" font-size="10.00">/home/travis/build</text>
<text text-anchor="start" x="208.5" y="-120" font-family="Helvetica,sans-Serif" font-size="10.00">/AliceO2Group/AliceO2</text>
<text text-anchor="start" x="208.5" y="-109" font-family="Helvetica,sans-Serif" font-size="10.00">/Detectors/MUON/MCH/Tracking</text>
<text text-anchor="middle" x="282" y="-98" font-family="Helvetica,sans-Serif" font-size="10.00">/src/Track.cxx</text>
</a>
</g>
</g>
<!-- Node3&#45;&gt;Node4 -->
<g id="edge3" class="edge"><title>Node3&#45;&gt;Node4</title>
<path fill="none" stroke="midnightblue" d="M293.333,-170.489C291.351,-161.309 289.258,-151.616 287.418,-143.092"/>
<polygon fill="midnightblue" stroke="midnightblue" points="289.973,-171.511 295.504,-180.547 296.815,-170.033 289.973,-171.511"/>
</g>
<!-- Node3&#45;&gt;Node5 -->
<g id="edge4" class="edge"><title>Node3&#45;&gt;Node5</title>
<path fill="none" stroke="midnightblue" d="M234.631,-176.798C209.864,-165.9 181.983,-153.632 158.12,-143.133"/>
<polygon fill="midnightblue" stroke="midnightblue" points="233.393,-180.077 243.956,-180.901 236.212,-173.669 233.393,-180.077"/>
</g>
<!-- Node3&#45;&gt;Node7 -->
<g id="edge7" class="edge"><title>Node3&#45;&gt;Node7</title>
<path fill="none" stroke="midnightblue" d="M346.842,-174.202C356.504,-165.466 365.675,-155.258 372,-144 387.915,-115.671 391.776,-77.7841 392.416,-53.1401"/>
<polygon fill="midnightblue" stroke="midnightblue" points="344.356,-171.723 339.034,-180.884 348.907,-177.042 344.356,-171.723"/>
</g>
<!-- Node6 -->
<g id="node6" class="node"><title>Node6</title>
<g id="a_node6"><a xlink:href="../../d9/d47/TrackFitter_8cxx.html" target="_top" xlink:title="Implementation of a class to fit a track to a set of clusters. ">
<polygon fill="none" stroke="black" points="19.5,-1 19.5,-53 182.5,-53 182.5,-1 19.5,-1"/>
<text text-anchor="start" x="27.5" y="-41" font-family="Helvetica,sans-Serif" font-size="10.00">/home/travis/build</text>
<text text-anchor="start" x="27.5" y="-30" font-family="Helvetica,sans-Serif" font-size="10.00">/AliceO2Group/AliceO2</text>
<text text-anchor="start" x="27.5" y="-19" font-family="Helvetica,sans-Serif" font-size="10.00">/Detectors/MUON/MCH/Tracking</text>
<text text-anchor="middle" x="101" y="-8" font-family="Helvetica,sans-Serif" font-size="10.00">/src/TrackFitter.cxx</text>
</a>
</g>
</g>
<!-- Node5&#45;&gt;Node6 -->
<g id="edge5" class="edge"><title>Node5&#45;&gt;Node6</title>
<path fill="none" stroke="midnightblue" d="M101,-80.4892C101,-71.3088 101,-61.616 101,-53.0921"/>
<polygon fill="midnightblue" stroke="midnightblue" points="97.5001,-80.5467 101,-90.5468 104.5,-80.5468 97.5001,-80.5467"/>
</g>
<!-- Node5&#45;&gt;Node7 -->
<g id="edge6" class="edge"><title>Node5&#45;&gt;Node7</title>
<path fill="none" stroke="midnightblue" d="M192.79,-88.2421C230.46,-76.8506 273.717,-63.7695 310.276,-52.7137"/>
<polygon fill="midnightblue" stroke="midnightblue" points="191.393,-85.0081 182.834,-91.2529 193.419,-91.7084 191.393,-85.0081"/>
</g>
</g>
</svg>
