<?xml version="1.0" encoding="UTF-8" standalone="no"?>
<!DOCTYPE svg PUBLIC "-//W3C//DTD SVG 1.1//EN"
 "http://www.w3.org/Graphics/SVG/1.1/DTD/svg11.dtd">
<!-- Generated by graphviz version 2.36.0 (20140111.2315)
 -->
<!-- Title: o2::Data::SubEventInfo Pages: 1 -->
<!--zoomable 388 -->
<svg id="main" version="1.1" xmlns="http://www.w3.org/2000/svg" xmlns:xlink="http://www.w3.org/1999/xlink" xml:space="preserve" onload="init(evt)">
<style type="text/css"><![CDATA[
.edge:hover path { stroke: red; }
.edge:hover polygon { stroke: red; fill: red; }
]]></style>
<script type="text/javascript"><![CDATA[
var edges = document.getElementsByTagName('g');
if (edges && edges.length) {
  for (var i=0;i<edges.length;i++) {
    if (edges[i].id.substr(0,4)=='edge') {
      edges[i].setAttribute('class','edge');
    }
  }
}
]]></script>
        <defs>
                <circle id="rim" cx="0" cy="0" r="7"/>
                <circle id="rim2" cx="0" cy="0" r="3.5"/>
                <g id="zoomPlus">
                        <use xlink:href="#rim" fill="#404040">
                                <set attributeName="fill" to="#808080" begin="zoomplus.mouseover" end="zoomplus.mouseout"/>
                        </use>
                        <path d="M-4,0h8M0,-4v8" fill="none" stroke="white" stroke-width="1.5" pointer-events="none"/>
                </g>
                <g id="zoomMin">
                        <use xlink:href="#rim" fill="#404040">
                                <set attributeName="fill" to="#808080" begin="zoomminus.mouseover" end="zoomminus.mouseout"/>
                        </use>
                        <path d="M-4,0h8" fill="none" stroke="white" stroke-width="1.5" pointer-events="none"/>
                </g>
                <g id="dirArrow">
                        <path fill="none" stroke="white" stroke-width="1.5" d="M0,-3.0v7 M-2.5,-0.5L0,-3.0L2.5,-0.5"/>
                </g>
               <g id="resetDef">
                       <use xlink:href="#rim2" fill="#404040">
                               <set attributeName="fill" to="#808080" begin="reset.mouseover" end="reset.mouseout"/>
                       </use>
               </g>
        </defs>

<script type="text/javascript">
var viewWidth = 532;
var viewHeight = 388;
var sectionId = 'dynsection-0';
</script>
<script xlink:href="../../svgpan.js"/>
<svg id="graph" class="graph">
<g id="viewport">
<title>o2::Data::SubEventInfo</title>
<!-- Node1 -->
<g id="node1" class="node"><title>Node1</title>
<polygon fill="#bfbfbf" stroke="black" points="252.5,-0.5 252.5,-57.5 371.5,-57.5 371.5,-0.5 252.5,-0.5"/>
<text text-anchor="middle" x="312" y="-45.5" font-family="Helvetica,sans-Serif" font-size="10.00">o2::Data::SubEventInfo</text>
<polyline fill="none" stroke="black" points="252.5,-38.5 371.5,-38.5 "/>
<text text-anchor="middle" x="312" y="-26.5" font-family="Helvetica,sans-Serif" font-size="10.00"> </text>
<polyline fill="none" stroke="black" points="252.5,-19.5 371.5,-19.5 "/>
<text text-anchor="start" x="260.5" y="-7.5" font-family="Helvetica,sans-Serif" font-size="10.00">+ ClassDefNV()</text>
</g>
<!-- Node2 -->
<g id="node2" class="node"><title>Node2</title>
<g id="a_node2"><a xlink:href="../../d4/db1/classo2_1_1dataformats_1_1MCEventHeader.html" target="_top" xlink:title="{o2::dataformats::MCEvent\lHeader\n||+ MCEventHeader()\l+ MCEventHeader()\l+ operator=()\l+ ~MCEventHeader()\l+ setEmbeddingFileName()\l+ setEmbeddingEventIndex()\l+ Reset()\l# ClassDefOverride()\l}">
<polygon fill="none" stroke="black" points="66.5,-128.5 66.5,-273.5 209.5,-273.5 209.5,-128.5 66.5,-128.5"/>
<text text-anchor="start" x="74.5" y="-261.5" font-family="Helvetica,sans-Serif" font-size="10.00">o2::dataformats::MCEvent</text>
<text text-anchor="middle" x="138" y="-250.5" font-family="Helvetica,sans-Serif" font-size="10.00">Header</text>
<polyline fill="none" stroke="black" points="66.5,-243.5 209.5,-243.5 "/>
<text text-anchor="middle" x="138" y="-231.5" font-family="Helvetica,sans-Serif" font-size="10.00"> </text>
<polyline fill="none" stroke="black" points="66.5,-224.5 209.5,-224.5 "/>
<text text-anchor="start" x="74.5" y="-212.5" font-family="Helvetica,sans-Serif" font-size="10.00">+ MCEventHeader()</text>
<text text-anchor="start" x="74.5" y="-201.5" font-family="Helvetica,sans-Serif" font-size="10.00">+ MCEventHeader()</text>
<text text-anchor="start" x="74.5" y="-190.5" font-family="Helvetica,sans-Serif" font-size="10.00">+ operator=()</text>
<text text-anchor="start" x="74.5" y="-179.5" font-family="Helvetica,sans-Serif" font-size="10.00">+ ~MCEventHeader()</text>
<text text-anchor="start" x="74.5" y="-168.5" font-family="Helvetica,sans-Serif" font-size="10.00">+ setEmbeddingFileName()</text>
<text text-anchor="start" x="74.5" y="-157.5" font-family="Helvetica,sans-Serif" font-size="10.00">+ setEmbeddingEventIndex()</text>
<text text-anchor="start" x="74.5" y="-146.5" font-family="Helvetica,sans-Serif" font-size="10.00">+ Reset()</text>
<text text-anchor="start" x="74.5" y="-135.5" font-family="Helvetica,sans-Serif" font-size="10.00"># ClassDefOverride()</text>
</a>
</g>
</g>
<!-- Node2&#45;&gt;Node1 -->
<g id="edge1" class="edge"><title>Node2&#45;&gt;Node1</title>
<path fill="none" stroke="#404040" d="M143.29,-128.304C147.824,-109.366 155.657,-90.2577 169,-76 187.537,-56.1921 214.622,-44.8865 240.246,-38.4442"/>
<polygon fill="none" stroke="#404040" points="240.564,-38.3725 245.538,-33.1515 252.27,-35.7348 247.296,-40.9558 240.564,-38.3725"/>
<text text-anchor="middle" x="214.5" y="-90.5" font-family="Helvetica,sans-Serif" font-size="10.00"> +mMCEventHeader</text>
</g>
<!-- Node3 -->
<g id="node3" class="node"><title>Node3</title>
<g id="a_node3"><a xlink:href="../../dd/d8f/classFairMCEventHeader.html" target="_top" xlink:title="{FairMCEventHeader\n||}">
<polygon fill="none" stroke="black" points="0,-322.5 0,-379.5 106,-379.5 106,-322.5 0,-322.5"/>
<text text-anchor="middle" x="53" y="-367.5" font-family="Helvetica,sans-Serif" font-size="10.00">FairMCEventHeader</text>
<polyline fill="none" stroke="black" points="0,-360.5 106,-360.5 "/>
<text text-anchor="middle" x="53" y="-348.5" font-family="Helvetica,sans-Serif" font-size="10.00"> </text>
<polyline fill="none" stroke="black" points="0,-341.5 106,-341.5 "/>
<text text-anchor="middle" x="53" y="-329.5" font-family="Helvetica,sans-Serif" font-size="10.00"> </text>
</a>
</g>
</g>
<!-- Node3&#45;&gt;Node2 -->
<g id="edge2" class="edge"><title>Node3&#45;&gt;Node2</title>
<path fill="none" stroke="midnightblue" d="M74.0593,-313.332C80.9765,-301.288 88.9203,-287.456 96.8043,-273.729"/>
<polygon fill="none" stroke="midnightblue" points="70.9331,-311.748 68.9878,-322.162 77.0033,-315.234 70.9331,-311.748"/>
</g>
<!-- Node4 -->
<g id="node4" class="node"><title>Node4</title>
<g id="a_node4"><a xlink:href="../../d1/da0/classint.html" target="_top" xlink:title="{int\n||}">
<polygon fill="none" stroke="black" points="123.5,-322.5 123.5,-379.5 152.5,-379.5 152.5,-322.5 123.5,-322.5"/>
<text text-anchor="middle" x="138" y="-367.5" font-family="Helvetica,sans-Serif" font-size="10.00">int</text>
<polyline fill="none" stroke="black" points="123.5,-360.5 152.5,-360.5 "/>
<text text-anchor="middle" x="138" y="-348.5" font-family="Helvetica,sans-Serif" font-size="10.00"> </text>
<polyline fill="none" stroke="black" points="123.5,-341.5 152.5,-341.5 "/>
<text text-anchor="middle" x="138" y="-329.5" font-family="Helvetica,sans-Serif" font-size="10.00"> </text>
</a>
</g>
</g>
<!-- Node4&#45;&gt;Node2 -->
<g id="edge3" class="edge"><title>Node4&#45;&gt;Node2</title>
<path fill="none" stroke="#404040" d="M138,-322.162C138,-311.584 138,-298.911 138,-285.82"/>
<polygon fill="none" stroke="#404040" points="138,-285.729 134,-279.729 138,-273.729 142,-279.729 138,-285.729"/>
<text text-anchor="middle" x="192" y="-295.5" font-family="Helvetica,sans-Serif" font-size="10.00"> #mEmbeddingFileName</text>
</g>
<!-- Node5 -->
<g id="node5" class="node"><title>Node5</title>
<polygon fill="none" stroke="#bfbfbf" points="251,-322.5 251,-379.5 287,-379.5 287,-322.5 251,-322.5"/>
<text text-anchor="middle" x="269" y="-367.5" font-family="Helvetica,sans-Serif" font-size="10.00">Int_t</text>
<polyline fill="none" stroke="#bfbfbf" points="251,-360.5 287,-360.5 "/>
<text text-anchor="middle" x="269" y="-348.5" font-family="Helvetica,sans-Serif" font-size="10.00"> </text>
<polyline fill="none" stroke="#bfbfbf" points="251,-341.5 287,-341.5 "/>
<text text-anchor="middle" x="269" y="-329.5" font-family="Helvetica,sans-Serif" font-size="10.00"> </text>
</g>
<!-- Node5&#45;&gt;Node2 -->
<g id="edge4" class="edge"><title>Node5&#45;&gt;Node2</title>
<path fill="none" stroke="#404040" d="M262.57,-322.379C259.181,-312.055 254.189,-300.729 247,-292 239.165,-282.486 232.925,-282.563 220.007,-274.685"/>
<polygon fill="none" stroke="#404040" points="219.789,-274.536 212.579,-274.438 209.896,-267.745 217.106,-267.843 219.789,-274.536"/>
<text text-anchor="middle" x="312.5" y="-295.5" font-family="Helvetica,sans-Serif" font-size="10.00"> #mEmbeddingEventIndex</text>
</g>
<!-- Node6 -->
<g id="node6" class="node"><title>Node6</title>
<polygon fill="none" stroke="#bfbfbf" points="227.5,-172.5 227.5,-229.5 278.5,-229.5 278.5,-172.5 227.5,-172.5"/>
<text text-anchor="middle" x="253" y="-217.5" font-family="Helvetica,sans-Serif" font-size="10.00">uint16_t</text>
<polyline fill="none" stroke="#bfbfbf" points="227.5,-210.5 278.5,-210.5 "/>
<text text-anchor="middle" x="253" y="-198.5" font-family="Helvetica,sans-Serif" font-size="10.00"> </text>
<polyline fill="none" stroke="#bfbfbf" points="227.5,-191.5 278.5,-191.5 "/>
<text text-anchor="middle" x="253" y="-179.5" font-family="Helvetica,sans-Serif" font-size="10.00"> </text>
</g>
<!-- Node6&#45;&gt;Node1 -->
<g id="edge5" class="edge"><title>Node6&#45;&gt;Node1</title>
<path fill="none" stroke="#404040" d="M253.989,-172.234C255.807,-146.306 260.89,-107.053 275,-76 276.261,-73.2241 277.729,-70.4721 279.339,-67.776"/>
<polygon fill="none" stroke="#404040" points="279.406,-67.6751 279.44,-60.4641 286.109,-57.7217 286.076,-64.9328 279.406,-67.6751"/>
<text text-anchor="middle" x="292" y="-96" font-family="Helvetica,sans-Serif" font-size="10.00"> +part</text>
<text text-anchor="middle" x="292" y="-85" font-family="Helvetica,sans-Serif" font-size="10.00">+nparts</text>
</g>
<!-- Node7 -->
<g id="node7" class="node"><title>Node7</title>
<g id="a_node7"><a xlink:href="../../d4/dc3/classfloat.html" target="_top" xlink:title="{float\n||}">
<polygon fill="none" stroke="black" points="296.5,-172.5 296.5,-229.5 331.5,-229.5 331.5,-172.5 296.5,-172.5"/>
<text text-anchor="middle" x="314" y="-217.5" font-family="Helvetica,sans-Serif" font-size="10.00">float</text>
<polyline fill="none" stroke="black" points="296.5,-210.5 331.5,-210.5 "/>
<text text-anchor="middle" x="314" y="-198.5" font-family="Helvetica,sans-Serif" font-size="10.00"> </text>
<polyline fill="none" stroke="black" points="296.5,-191.5 331.5,-191.5 "/>
<text text-anchor="middle" x="314" y="-179.5" font-family="Helvetica,sans-Serif" font-size="10.00"> </text>
</a>
</g>
</g>
<!-- Node7&#45;&gt;Node1 -->
<g id="edge6" class="edge"><title>Node7&#45;&gt;Node1</title>
<path fill="none" stroke="#404040" d="M313.674,-172.308C313.347,-144.524 312.841,-101.448 312.47,-69.9631"/>
<polygon fill="none" stroke="#404040" points="312.467,-69.6791 308.397,-63.7266 312.326,-57.6799 316.396,-63.6324 312.467,-69.6791"/>
<text text-anchor="middle" x="339" y="-90.5" font-family="Helvetica,sans-Serif" font-size="10.00"> +eventtime</text>
</g>
<!-- Node8 -->
<g id="node8" class="node"><title>Node8</title>
<polygon fill="none" stroke="#bfbfbf" points="364,-172.5 364,-229.5 410,-229.5 410,-172.5 364,-172.5"/>
<text text-anchor="middle" x="387" y="-217.5" font-family="Helvetica,sans-Serif" font-size="10.00">int32_t</text>
<polyline fill="none" stroke="#bfbfbf" points="364,-210.5 410,-210.5 "/>
<text text-anchor="middle" x="387" y="-198.5" font-family="Helvetica,sans-Serif" font-size="10.00"> </text>
<polyline fill="none" stroke="#bfbfbf" points="364,-191.5 410,-191.5 "/>
<text text-anchor="middle" x="387" y="-179.5" font-family="Helvetica,sans-Serif" font-size="10.00"> </text>
</g>
<!-- Node8&#45;&gt;Node1 -->
<g id="edge7" class="edge"><title>Node8&#45;&gt;Node1</title>
<path fill="none" stroke="#404040" d="M387.279,-172.358C386.397,-145.988 381.984,-105.956 365,-76 363.166,-72.7657 361.017,-69.6489 358.652,-66.6675"/>
<polygon fill="none" stroke="#404040" points="358.535,-66.537 351.545,-64.7624 350.495,-57.6282 357.484,-59.4028 358.535,-66.537"/>
<text text-anchor="middle" x="419" y="-101.5" font-family="Helvetica,sans-Serif" font-size="10.00"> +runID</text>
<text text-anchor="middle" x="419" y="-90.5" font-family="Helvetica,sans-Serif" font-size="10.00">+maxEvents</text>
<text text-anchor="middle" x="419" y="-79.5" font-family="Helvetica,sans-Serif" font-size="10.00">+npersistenttracks</text>
</g>
<!-- Node9 -->
<g id="node9" class="node"><title>Node9</title>
<polygon fill="none" stroke="#bfbfbf" points="466.5,-172.5 466.5,-229.5 517.5,-229.5 517.5,-172.5 466.5,-172.5"/>
<text text-anchor="middle" x="492" y="-217.5" font-family="Helvetica,sans-Serif" font-size="10.00">uint32_t</text>
<polyline fill="none" stroke="#bfbfbf" points="466.5,-210.5 517.5,-210.5 "/>
<text text-anchor="middle" x="492" y="-198.5" font-family="Helvetica,sans-Serif" font-size="10.00"> </text>
<polyline fill="none" stroke="#bfbfbf" points="466.5,-191.5 517.5,-191.5 "/>
<text text-anchor="middle" x="492" y="-179.5" font-family="Helvetica,sans-Serif" font-size="10.00"> </text>
</g>
<!-- Node9&#45;&gt;Node1 -->
<g id="edge8" class="edge"><title>Node9&#45;&gt;Node1</title>
<path fill="none" stroke="#404040" d="M493.297,-172.45C493.071,-144.613 488.283,-102.091 464,-76 443.374,-53.837 412.474,-42.2237 383.911,-36.1876"/>
<polygon fill="none" stroke="#404040" points="383.644,-36.1376 377.01,-38.9642 371.849,-33.9276 378.483,-31.101 383.644,-36.1376"/>
<text text-anchor="middle" x="503.5" y="-101.5" font-family="Helvetica,sans-Serif" font-size="10.00"> +index</text>
<text text-anchor="middle" x="503.5" y="-90.5" font-family="Helvetica,sans-Serif" font-size="10.00">+eventID</text>
<text text-anchor="middle" x="503.5" y="-79.5" font-family="Helvetica,sans-Serif" font-size="10.00">+seed</text>
</g>
</g>
</svg>
        <g id="navigator" transform="translate(0 0)" fill="#404254">
                <rect fill="#f2f5e9" fill-opacity="0.5" stroke="#606060" stroke-width=".5" x="0" y="0" width="60" height="60"/>
                <use id="zoomplus" xlink:href="#zoomPlus" x="17" y="9" onmousedown="handleZoom(evt,'in')"/>
                <use id="zoomminus" xlink:href="#zoomMin" x="42" y="9" onmousedown="handleZoom(evt,'out')"/>
                <use id="reset" xlink:href="#resetDef" x="30" y="36" onmousedown="handleReset()"/>
                <g id="arrowUp" xlink:href="#dirArrow" transform="translate(30 24)" onmousedown="handlePan(0,-1)">
                  <use xlink:href="#rim" fill="#404040">
                        <set attributeName="fill" to="#808080" begin="arrowUp.mouseover" end="arrowUp.mouseout"/>
                  </use>
                  <path fill="none" stroke="white" stroke-width="1.5" d="M0,-3.0v7 M-2.5,-0.5L0,-3.0L2.5,-0.5"/>
                </g>
                <g id="arrowRight" xlink:href="#dirArrow" transform="rotate(90) translate(36 -43)" onmousedown="handlePan(1,0)">
                  <use xlink:href="#rim" fill="#404040">
                        <set attributeName="fill" to="#808080" begin="arrowRight.mouseover" end="arrowRight.mouseout"/>
                  </use>
                  <path fill="none" stroke="white" stroke-width="1.5" d="M0,-3.0v7 M-2.5,-0.5L0,-3.0L2.5,-0.5"/>
                </g>
                <g id="arrowDown" xlink:href="#dirArrow" transform="rotate(180) translate(-30 -48)" onmousedown="handlePan(0,1)">
                  <use xlink:href="#rim" fill="#404040">
                        <set attributeName="fill" to="#808080" begin="arrowDown.mouseover" end="arrowDown.mouseout"/>
                  </use>
                  <path fill="none" stroke="white" stroke-width="1.5" d="M0,-3.0v7 M-2.5,-0.5L0,-3.0L2.5,-0.5"/>
                </g>
                <g id="arrowLeft" xlink:href="#dirArrow" transform="rotate(270) translate(-36 17)" onmousedown="handlePan(-1,0)">
                  <use xlink:href="#rim" fill="#404040">
                        <set attributeName="fill" to="#808080" begin="arrowLeft.mouseover" end="arrowLeft.mouseout"/>
                  </use>
                  <path fill="none" stroke="white" stroke-width="1.5" d="M0,-3.0v7 M-2.5,-0.5L0,-3.0L2.5,-0.5"/>
                </g>
        </g>
        <svg viewBox="0 0 15 15" width="100%" height="30px" preserveAspectRatio="xMaxYMin meet">
         <g id="arrow_out" transform="scale(0.3 0.3)">
          <a xlink:href="structo2_1_1Data_1_1SubEventInfo__coll__graph_org.svg" target="_base">
           <rect id="button" ry="5" rx="5" y="6" x="6" height="38" width="38"
                fill="#f2f5e9" fill-opacity="0.5" stroke="#606060" stroke-width="1.0"/>
           <path id="arrow"
             d="M 11.500037,31.436501 C 11.940474,20.09759 22.043105,11.32322 32.158766,21.979434 L 37.068811,17.246167 C 37.068811,17.246167 37.088388,32 37.088388,32 L 22.160133,31.978069 C 22.160133,31.978069 26.997745,27.140456 26.997745,27.140456 C 18.528582,18.264221 13.291696,25.230495 11.500037,31.436501 z"
             style="fill:#404040;"/>
          </a>
         </g>
        </svg>
</svg>
