<?xml version="1.0" encoding="UTF-8" standalone="no"?>
<!DOCTYPE svg PUBLIC "-//W3C//DTD SVG 1.1//EN"
 "http://www.w3.org/Graphics/SVG/1.1/DTD/svg11.dtd">
<!-- Generated by graphviz version 2.36.0 (20140111.2315)
 -->
<!-- Title: o2::InteractionTimeRecord Pages: 1 -->
<svg width="205pt" height="456pt"
 viewBox="0.00 0.00 205.00 456.00" xmlns="http://www.w3.org/2000/svg" xmlns:xlink="http://www.w3.org/1999/xlink">
<g id="graph0" class="graph" transform="scale(1 1) rotate(0) translate(4 452)">
<title>o2::InteractionTimeRecord</title>
<!-- Node1 -->
<g id="node1" class="node"><title>Node1</title>
<polygon fill="#bfbfbf" stroke="black" points="65,-1 65,-113 197,-113 197,-1 65,-1"/>
<text text-anchor="middle" x="131" y="-101" font-family="Helvetica,sans-Serif" font-size="10.00">o2::InteractionTimeRecord</text>
<polyline fill="none" stroke="black" points="65,-94 197,-94 "/>
<text text-anchor="middle" x="131" y="-82" font-family="Helvetica,sans-Serif" font-size="10.00"> </text>
<polyline fill="none" stroke="black" points="65,-75 197,-75 "/>
<text text-anchor="start" x="73" y="-63" font-family="Helvetica,sans-Serif" font-size="10.00">+ InteractionTimeRecord()</text>
<text text-anchor="start" x="73" y="-52" font-family="Helvetica,sans-Serif" font-size="10.00">+ InteractionTimeRecord()</text>
<text text-anchor="start" x="73" y="-41" font-family="Helvetica,sans-Serif" font-size="10.00">+ setFromNS()</text>
<text text-anchor="start" x="73" y="-30" font-family="Helvetica,sans-Serif" font-size="10.00">+ clear()</text>
<text text-anchor="start" x="73" y="-19" font-family="Helvetica,sans-Serif" font-size="10.00">+ print()</text>
<text text-anchor="start" x="73" y="-8" font-family="Helvetica,sans-Serif" font-size="10.00">+ ClassDefNV()</text>
</g>
<!-- Node2 -->
<g id="node2" class="node"><title>Node2</title>
<g id="a_node2"><a xlink:href="../../d1/d21/structo2_1_1InteractionRecord.html" target="_top" xlink:title="{o2::InteractionRecord\n||+ InteractionRecord()\l+ InteractionRecord()\l+ InteractionRecord()\l+ clear()\l+ isDummy()\l+ setFromNS()\l+ operator==()\l+ differenceInBC()\l+ print()\l+ ClassDefNV()\l+ bc2ns()\l+ ns2bc()\l}">
<polygon fill="none" stroke="black" points="4,-163 4,-341 114,-341 114,-163 4,-163"/>
<text text-anchor="middle" x="59" y="-329" font-family="Helvetica,sans-Serif" font-size="10.00">o2::InteractionRecord</text>
<polyline fill="none" stroke="black" points="4,-322 114,-322 "/>
<text text-anchor="middle" x="59" y="-310" font-family="Helvetica,sans-Serif" font-size="10.00"> </text>
<polyline fill="none" stroke="black" points="4,-303 114,-303 "/>
<text text-anchor="start" x="12" y="-291" font-family="Helvetica,sans-Serif" font-size="10.00">+ InteractionRecord()</text>
<text text-anchor="start" x="12" y="-280" font-family="Helvetica,sans-Serif" font-size="10.00">+ InteractionRecord()</text>
<text text-anchor="start" x="12" y="-269" font-family="Helvetica,sans-Serif" font-size="10.00">+ InteractionRecord()</text>
<text text-anchor="start" x="12" y="-258" font-family="Helvetica,sans-Serif" font-size="10.00">+ clear()</text>
<text text-anchor="start" x="12" y="-247" font-family="Helvetica,sans-Serif" font-size="10.00">+ isDummy()</text>
<text text-anchor="start" x="12" y="-236" font-family="Helvetica,sans-Serif" font-size="10.00">+ setFromNS()</text>
<text text-anchor="start" x="12" y="-225" font-family="Helvetica,sans-Serif" font-size="10.00">+ operator==()</text>
<text text-anchor="start" x="12" y="-214" font-family="Helvetica,sans-Serif" font-size="10.00">+ differenceInBC()</text>
<text text-anchor="start" x="12" y="-203" font-family="Helvetica,sans-Serif" font-size="10.00">+ print()</text>
<text text-anchor="start" x="12" y="-192" font-family="Helvetica,sans-Serif" font-size="10.00">+ ClassDefNV()</text>
<text text-anchor="start" x="12" y="-181" font-family="Helvetica,sans-Serif" font-size="10.00">+ bc2ns()</text>
<text text-anchor="start" x="12" y="-170" font-family="Helvetica,sans-Serif" font-size="10.00">+ ns2bc()</text>
</a>
</g>
</g>
<!-- Node2&#45;&gt;Node1 -->
<g id="edge1" class="edge"><title>Node2&#45;&gt;Node1</title>
<path fill="none" stroke="midnightblue" d="M95.4157,-153.386C100.586,-139.526 105.745,-125.697 110.466,-113.043"/>
<polygon fill="none" stroke="midnightblue" points="92.0556,-152.379 91.8396,-162.972 98.6141,-154.826 92.0556,-152.379"/>
</g>
<!-- Node3 -->
<g id="node3" class="node"><title>Node3</title>
<polygon fill="none" stroke="#bfbfbf" points="-0.5,-390.5 -0.5,-447.5 50.5,-447.5 50.5,-390.5 -0.5,-390.5"/>
<text text-anchor="middle" x="25" y="-435.5" font-family="Helvetica,sans-Serif" font-size="10.00">uint16_t</text>
<polyline fill="none" stroke="#bfbfbf" points="-0.5,-428.5 50.5,-428.5 "/>
<text text-anchor="middle" x="25" y="-416.5" font-family="Helvetica,sans-Serif" font-size="10.00"> </text>
<polyline fill="none" stroke="#bfbfbf" points="-0.5,-409.5 50.5,-409.5 "/>
<text text-anchor="middle" x="25" y="-397.5" font-family="Helvetica,sans-Serif" font-size="10.00"> </text>
</g>
<!-- Node3&#45;&gt;Node2 -->
<g id="edge2" class="edge"><title>Node3&#45;&gt;Node2</title>
<path fill="none" stroke="#404040" d="M30.6908,-390.383C32.884,-379.739 35.5368,-366.866 38.3283,-353.319"/>
<polygon fill="none" stroke="#404040" points="38.3871,-353.033 35.6804,-346.349 40.8091,-341.28 43.5158,-347.963 38.3871,-353.033"/>
<text text-anchor="middle" x="46" y="-363.5" font-family="Helvetica,sans-Serif" font-size="10.00"> +bc</text>
</g>
<!-- Node4 -->
<g id="node4" class="node"><title>Node4</title>
<polygon fill="none" stroke="#bfbfbf" points="68.5,-390.5 68.5,-447.5 119.5,-447.5 119.5,-390.5 68.5,-390.5"/>
<text text-anchor="middle" x="94" y="-435.5" font-family="Helvetica,sans-Serif" font-size="10.00">uint32_t</text>
<polyline fill="none" stroke="#bfbfbf" points="68.5,-428.5 119.5,-428.5 "/>
<text text-anchor="middle" x="94" y="-416.5" font-family="Helvetica,sans-Serif" font-size="10.00"> </text>
<polyline fill="none" stroke="#bfbfbf" points="68.5,-409.5 119.5,-409.5 "/>
<text text-anchor="middle" x="94" y="-397.5" font-family="Helvetica,sans-Serif" font-size="10.00"> </text>
</g>
<!-- Node4&#45;&gt;Node2 -->
<g id="edge3" class="edge"><title>Node4&#45;&gt;Node2</title>
<path fill="none" stroke="#404040" d="M88.1418,-390.383C85.8841,-379.739 83.1533,-366.866 80.2797,-353.319"/>
<polygon fill="none" stroke="#404040" points="80.2161,-353.018 75.0581,-347.979 77.726,-341.28 82.884,-346.319 80.2161,-353.018"/>
<text text-anchor="middle" x="98" y="-363.5" font-family="Helvetica,sans-Serif" font-size="10.00"> +orbit</text>
</g>
<!-- Node5 -->
<g id="node5" class="node"><title>Node5</title>
<polygon fill="none" stroke="#bfbfbf" points="132.5,-223.5 132.5,-280.5 177.5,-280.5 177.5,-223.5 132.5,-223.5"/>
<text text-anchor="middle" x="155" y="-268.5" font-family="Helvetica,sans-Serif" font-size="10.00">double</text>
<polyline fill="none" stroke="#bfbfbf" points="132.5,-261.5 177.5,-261.5 "/>
<text text-anchor="middle" x="155" y="-249.5" font-family="Helvetica,sans-Serif" font-size="10.00"> </text>
<polyline fill="none" stroke="#bfbfbf" points="132.5,-242.5 177.5,-242.5 "/>
<text text-anchor="middle" x="155" y="-230.5" font-family="Helvetica,sans-Serif" font-size="10.00"> </text>
</g>
<!-- Node5&#45;&gt;Node1 -->
<g id="edge4" class="edge"><title>Node5&#45;&gt;Node1</title>
<path fill="none" stroke="#404040" d="M151.561,-223.348C148.387,-197.819 143.544,-158.878 139.356,-125.198"/>
<polygon fill="none" stroke="#404040" points="139.328,-124.97 134.618,-119.51 137.847,-113.062 142.557,-118.522 139.328,-124.97"/>
<text text-anchor="middle" x="163.5" y="-135.5" font-family="Helvetica,sans-Serif" font-size="10.00"> +timeNS</text>
</g>
</g>
</svg>
