<?xml version="1.0" encoding="UTF-8" standalone="no"?>
<!DOCTYPE svg PUBLIC "-//W3C//DTD SVG 1.1//EN"
 "http://www.w3.org/Graphics/SVG/1.1/DTD/svg11.dtd">
<!-- Generated by graphviz version 2.36.0 (20140111.2315)
 -->
<!-- Title: Primitive data format definitions for ALICE O2 Pages: 1 -->
<svg width="284pt" height="66pt"
 viewBox="0.00 0.00 284.00 66.00" xmlns="http://www.w3.org/2000/svg" xmlns:xlink="http://www.w3.org/1999/xlink">
<g id="graph0" class="graph" transform="scale(1 1) rotate(0) translate(4 62)">
<title>Primitive data format definitions for ALICE O2</title>
<!-- Node1 -->
<g id="node1" class="node"><title>Node1</title>
<g id="a_node1"><a xlink:href="../../da/dbc/group__aliceo2__dataformats__dataheader.html" target="_top" xlink:title="A descriptive information for payload blocks. ">
<polygon fill="none" stroke="black" points="173,-38.5 173,-57.5 265,-57.5 265,-38.5 173,-38.5"/>
<text text-anchor="middle" x="219" y="-45.5" font-family="Helvetica,sans-Serif" font-size="10.00">The Data Header</text>
</a>
</g>
</g>
<!-- Node0 -->
<g id="node2" class="node"><title>Node0</title>
<polygon fill="#bfbfbf" stroke="black" points="0,-14 0,-44 126,-44 126,-14 0,-14"/>
<text text-anchor="start" x="8" y="-32" font-family="Helvetica,sans-Serif" font-size="10.00">Primitive data format</text>
<text text-anchor="middle" x="63" y="-21" font-family="Helvetica,sans-Serif" font-size="10.00"> definitions for ALICE O2</text>
</g>
<!-- Node0&#45;&gt;Node1 -->
<g id="edge1" class="edge"><title>Node0&#45;&gt;Node1</title>
<path fill="none" stroke="midnightblue" d="M136.475,-37.9418C148.792,-39.4613 161.263,-41 172.623,-42.4015"/>
<polygon fill="midnightblue" stroke="midnightblue" points="136.547,-34.4242 126.194,-36.6733 135.69,-41.3715 136.547,-34.4242"/>
</g>
<!-- Node2 -->
<g id="node3" class="node"><title>Node2</title>
<g id="a_node3"><a xlink:href="../../db/dee/group__o2__dataflow__header.html" target="_top" xlink:title="A descriptive information for data blocks handled by O2 Data Processing layer. ">
<polygon fill="none" stroke="black" points="162.5,-0.5 162.5,-19.5 275.5,-19.5 275.5,-0.5 162.5,-0.5"/>
<text text-anchor="middle" x="219" y="-7.5" font-family="Helvetica,sans-Serif" font-size="10.00">The DataFlow Header</text>
</a>
</g>
</g>
<!-- Node0&#45;&gt;Node2 -->
<g id="edge2" class="edge"><title>Node0&#45;&gt;Node2</title>
<path fill="none" stroke="midnightblue" d="M136.285,-20.0818C144.934,-19.0146 153.663,-17.9377 162.033,-16.905"/>
<polygon fill="midnightblue" stroke="midnightblue" points="135.69,-16.6285 126.194,-21.3267 136.547,-23.5758 135.69,-16.6285"/>
</g>
</g>
</svg>
