<?xml version="1.0" encoding="UTF-8" standalone="no"?>
<!DOCTYPE svg PUBLIC "-//W3C//DTD SVG 1.1//EN"
 "http://www.w3.org/Graphics/SVG/1.1/DTD/svg11.dtd">
<!-- Generated by graphviz version 2.36.0 (20140111.2315)
 -->
<!-- Title: FairFieldFactory Pages: 1 -->
<svg width="122pt" height="194pt"
 viewBox="0.00 0.00 122.00 194.00" xmlns="http://www.w3.org/2000/svg" xmlns:xlink="http://www.w3.org/1999/xlink">
<g id="graph0" class="graph" transform="scale(1 1) rotate(0) translate(4 190)">
<title>FairFieldFactory</title>
<!-- Node1 -->
<g id="node1" class="node"><title>Node1</title>
<polygon fill="#bfbfbf" stroke="black" points="13.5,-128.5 13.5,-185.5 100.5,-185.5 100.5,-128.5 13.5,-128.5"/>
<text text-anchor="middle" x="57" y="-173.5" font-family="Helvetica,sans-Serif" font-size="10.00">FairFieldFactory</text>
<polyline fill="none" stroke="black" points="13.5,-166.5 100.5,-166.5 "/>
<text text-anchor="middle" x="57" y="-154.5" font-family="Helvetica,sans-Serif" font-size="10.00"> </text>
<polyline fill="none" stroke="black" points="13.5,-147.5 100.5,-147.5 "/>
<text text-anchor="middle" x="57" y="-135.5" font-family="Helvetica,sans-Serif" font-size="10.00"> </text>
</g>
<!-- Node2 -->
<g id="node2" class="node"><title>Node2</title>
<g id="a_node2"><a xlink:href="../../d6/daa/classo2_1_1field_1_1MagFieldFact.html" target="_top" xlink:title="{o2::field::MagFieldFact\n||+ MagFieldFact()\l+ ~MagFieldFact()\l+ createFairField()\l+ SetParm()\l}">
<polygon fill="none" stroke="black" points="-1,-1 -1,-91 115,-91 115,-1 -1,-1"/>
<text text-anchor="middle" x="57" y="-79" font-family="Helvetica,sans-Serif" font-size="10.00">o2::field::MagFieldFact</text>
<polyline fill="none" stroke="black" points="-1,-72 115,-72 "/>
<text text-anchor="middle" x="57" y="-60" font-family="Helvetica,sans-Serif" font-size="10.00"> </text>
<polyline fill="none" stroke="black" points="-1,-53 115,-53 "/>
<text text-anchor="start" x="7" y="-41" font-family="Helvetica,sans-Serif" font-size="10.00">+ MagFieldFact()</text>
<text text-anchor="start" x="7" y="-30" font-family="Helvetica,sans-Serif" font-size="10.00">+ ~MagFieldFact()</text>
<text text-anchor="start" x="7" y="-19" font-family="Helvetica,sans-Serif" font-size="10.00">+ createFairField()</text>
<text text-anchor="start" x="7" y="-8" font-family="Helvetica,sans-Serif" font-size="10.00">+ SetParm()</text>
</a>
</g>
</g>
<!-- Node1&#45;&gt;Node2 -->
<g id="edge1" class="edge"><title>Node1&#45;&gt;Node2</title>
<path fill="none" stroke="midnightblue" d="M57,-118.484C57,-109.643 57,-100.139 57,-91.0399"/>
<polygon fill="none" stroke="midnightblue" points="53.5001,-118.495 57,-128.495 60.5001,-118.495 53.5001,-118.495"/>
</g>
</g>
</svg>
