<?xml version="1.0" encoding="UTF-8" standalone="no"?>
<!DOCTYPE svg PUBLIC "-//W3C//DTD SVG 1.1//EN"
 "http://www.w3.org/Graphics/SVG/1.1/DTD/svg11.dtd">
<!-- Generated by graphviz version 2.36.0 (20140111.2315)
 -->
<!-- Title: /home/travis/build/AliceO2Group/AliceO2/Detectors/PHOS/testsimulation/run_digi_phos.C Pages: 1 -->
<!--zoomable 570 -->
<svg id="main" version="1.1" xmlns="http://www.w3.org/2000/svg" xmlns:xlink="http://www.w3.org/1999/xlink" xml:space="preserve" onload="init(evt)">
<style type="text/css"><![CDATA[
.edge:hover path { stroke: red; }
.edge:hover polygon { stroke: red; fill: red; }
]]></style>
<script type="text/javascript"><![CDATA[
var edges = document.getElementsByTagName('g');
if (edges && edges.length) {
  for (var i=0;i<edges.length;i++) {
    if (edges[i].id.substr(0,4)=='edge') {
      edges[i].setAttribute('class','edge');
    }
  }
}
]]></script>
        <defs>
                <circle id="rim" cx="0" cy="0" r="7"/>
                <circle id="rim2" cx="0" cy="0" r="3.5"/>
                <g id="zoomPlus">
                        <use xlink:href="#rim" fill="#404040">
                                <set attributeName="fill" to="#808080" begin="zoomplus.mouseover" end="zoomplus.mouseout"/>
                        </use>
                        <path d="M-4,0h8M0,-4v8" fill="none" stroke="white" stroke-width="1.5" pointer-events="none"/>
                </g>
                <g id="zoomMin">
                        <use xlink:href="#rim" fill="#404040">
                                <set attributeName="fill" to="#808080" begin="zoomminus.mouseover" end="zoomminus.mouseout"/>
                        </use>
                        <path d="M-4,0h8" fill="none" stroke="white" stroke-width="1.5" pointer-events="none"/>
                </g>
                <g id="dirArrow">
                        <path fill="none" stroke="white" stroke-width="1.5" d="M0,-3.0v7 M-2.5,-0.5L0,-3.0L2.5,-0.5"/>
                </g>
               <g id="resetDef">
                       <use xlink:href="#rim2" fill="#404040">
                               <set attributeName="fill" to="#808080" begin="reset.mouseover" end="reset.mouseout"/>
                       </use>
               </g>
        </defs>

<script type="text/javascript">
var viewWidth = 1837;
var viewHeight = 570;
var sectionId = 'dynsection-0';
</script>
<script xlink:href="../../svgpan.js"/>
<svg id="graph" class="graph">
<g id="viewport">
<title>/home/travis/build/AliceO2Group/AliceO2/Detectors/PHOS/testsimulation/run_digi_phos.C</title>
<!-- Node1 -->
<g id="node1" class="node"><title>Node1</title>
<polygon fill="#bfbfbf" stroke="black" points="275,-509 275,-561 433,-561 433,-509 275,-509"/>
<text text-anchor="start" x="283" y="-549" font-family="Helvetica,sans-Serif" font-size="10.00">/home/travis/build</text>
<text text-anchor="start" x="283" y="-538" font-family="Helvetica,sans-Serif" font-size="10.00">/AliceO2Group/AliceO2</text>
<text text-anchor="start" x="283" y="-527" font-family="Helvetica,sans-Serif" font-size="10.00">/Detectors/PHOS/testsimulation</text>
<text text-anchor="middle" x="354" y="-516" font-family="Helvetica,sans-Serif" font-size="10.00">/run_digi_phos.C</text>
</g>
<!-- Node2 -->
<g id="node2" class="node"><title>Node2</title>
<polygon fill="none" stroke="#bfbfbf" points="0,-446.5 0,-465.5 52,-465.5 52,-446.5 0,-446.5"/>
<text text-anchor="middle" x="26" y="-453.5" font-family="Helvetica,sans-Serif" font-size="10.00">sstream</text>
</g>
<!-- Node1&#45;&gt;Node2 -->
<g id="edge1" class="edge"><title>Node1&#45;&gt;Node2</title>
<path fill="none" stroke="midnightblue" d="M274.878,-521.6C215.29,-511.222 132.006,-494.488 61,-472 58.5736,-471.232 56.0854,-470.355 53.6088,-469.42"/>
<polygon fill="midnightblue" stroke="midnightblue" points="54.8528,-466.148 44.2706,-465.632 52.2213,-472.634 54.8528,-466.148"/>
</g>
<!-- Node3 -->
<g id="node3" class="node"><title>Node3</title>
<polygon fill="none" stroke="#bfbfbf" points="70.5,-446.5 70.5,-465.5 147.5,-465.5 147.5,-446.5 70.5,-446.5"/>
<text text-anchor="middle" x="109" y="-453.5" font-family="Helvetica,sans-Serif" font-size="10.00">TStopwatch.h</text>
</g>
<!-- Node1&#45;&gt;Node3 -->
<g id="edge2" class="edge"><title>Node1&#45;&gt;Node3</title>
<path fill="none" stroke="midnightblue" d="M274.794,-509.107C231.59,-495.528 180.14,-479.358 146.138,-468.672"/>
<polygon fill="midnightblue" stroke="midnightblue" points="146.764,-465.2 136.174,-465.54 144.665,-471.878 146.764,-465.2"/>
</g>
<!-- Node4 -->
<g id="node4" class="node"><title>Node4</title>
<polygon fill="none" stroke="#bfbfbf" points="166,-446.5 166,-465.5 254,-465.5 254,-446.5 166,-446.5"/>
<text text-anchor="middle" x="210" y="-453.5" font-family="Helvetica,sans-Serif" font-size="10.00">FairFileSource.h</text>
</g>
<!-- Node1&#45;&gt;Node4 -->
<g id="edge3" class="edge"><title>Node1&#45;&gt;Node4</title>
<path fill="none" stroke="midnightblue" d="M306.849,-508.787C282.883,-495.972 254.729,-480.918 234.973,-470.354"/>
<polygon fill="midnightblue" stroke="midnightblue" points="236.473,-467.187 226.004,-465.558 233.172,-473.36 236.473,-467.187"/>
</g>
<!-- Node5 -->
<g id="node5" class="node"><title>Node5</title>
<polygon fill="none" stroke="#bfbfbf" points="272.5,-446.5 272.5,-465.5 343.5,-465.5 343.5,-446.5 272.5,-446.5"/>
<text text-anchor="middle" x="308" y="-453.5" font-family="Helvetica,sans-Serif" font-size="10.00">FairLogger.h</text>
</g>
<!-- Node1&#45;&gt;Node5 -->
<g id="edge4" class="edge"><title>Node1&#45;&gt;Node5</title>
<path fill="none" stroke="midnightblue" d="M338.938,-508.787C332.187,-497.486 324.396,-484.445 318.321,-474.276"/>
<polygon fill="midnightblue" stroke="midnightblue" points="321.246,-472.347 313.112,-465.558 315.236,-475.937 321.246,-472.347"/>
</g>
<!-- Node6 -->
<g id="node6" class="node"><title>Node6</title>
<polygon fill="none" stroke="#bfbfbf" points="361.5,-446.5 361.5,-465.5 438.5,-465.5 438.5,-446.5 361.5,-446.5"/>
<text text-anchor="middle" x="400" y="-453.5" font-family="Helvetica,sans-Serif" font-size="10.00">FairRunAna.h</text>
</g>
<!-- Node1&#45;&gt;Node6 -->
<g id="edge5" class="edge"><title>Node1&#45;&gt;Node6</title>
<path fill="none" stroke="midnightblue" d="M369.062,-508.787C375.813,-497.486 383.604,-484.445 389.679,-474.276"/>
<polygon fill="midnightblue" stroke="midnightblue" points="392.764,-475.937 394.888,-465.558 386.754,-472.347 392.764,-475.937"/>
</g>
<!-- Node7 -->
<g id="node7" class="node"><title>Node7</title>
<polygon fill="none" stroke="#bfbfbf" points="456.5,-446.5 456.5,-465.5 557.5,-465.5 557.5,-446.5 456.5,-446.5"/>
<text text-anchor="middle" x="507" y="-453.5" font-family="Helvetica,sans-Serif" font-size="10.00">FairParRootFileIo.h</text>
</g>
<!-- Node1&#45;&gt;Node7 -->
<g id="edge6" class="edge"><title>Node1&#45;&gt;Node7</title>
<path fill="none" stroke="midnightblue" d="M404.098,-508.787C429.794,-495.855 460.02,-480.644 481.037,-470.067"/>
<polygon fill="midnightblue" stroke="midnightblue" points="482.637,-473.18 489.996,-465.558 479.49,-466.927 482.637,-473.18"/>
</g>
<!-- Node8 -->
<g id="node8" class="node"><title>Node8</title>
<polygon fill="none" stroke="#bfbfbf" points="576,-446.5 576,-465.5 668,-465.5 668,-446.5 576,-446.5"/>
<text text-anchor="middle" x="622" y="-453.5" font-family="Helvetica,sans-Serif" font-size="10.00">FairSystemInfo.h</text>
</g>
<!-- Node1&#45;&gt;Node8 -->
<g id="edge7" class="edge"><title>Node1&#45;&gt;Node8</title>
<path fill="none" stroke="midnightblue" d="M433.321,-511.21C482.449,-497.095 543.413,-479.579 582.511,-468.346"/>
<polygon fill="midnightblue" stroke="midnightblue" points="583.557,-471.687 592.202,-465.561 581.624,-464.959 583.557,-471.687"/>
</g>
<!-- Node9 -->
<g id="node9" class="node"><title>Node9</title>
<g id="a_node9"><a xlink:href="../../d2/d43/PHOS_2simulation_2include_2PHOSSimulation_2DigitizerTask_8h.html" target="_top" xlink:title="PHOSSimulation/Digitizer\lTask.h">
<polygon fill="none" stroke="black" points="686,-441 686,-471 816,-471 816,-441 686,-441"/>
<text text-anchor="start" x="694" y="-459" font-family="Helvetica,sans-Serif" font-size="10.00">PHOSSimulation/Digitizer</text>
<text text-anchor="middle" x="751" y="-448" font-family="Helvetica,sans-Serif" font-size="10.00">Task.h</text>
</a>
</g>
</g>
<!-- Node1&#45;&gt;Node9 -->
<g id="edge8" class="edge"><title>Node1&#45;&gt;Node9</title>
<path fill="none" stroke="midnightblue" d="M433.026,-519.067C496.083,-507.097 586.958,-489.725 675.671,-472.252"/>
<polygon fill="midnightblue" stroke="midnightblue" points="676.503,-475.656 685.637,-470.287 675.149,-468.788 676.503,-475.656"/>
</g>
<!-- Node10 -->
<g id="node10" class="node"><title>Node10</title>
<polygon fill="none" stroke="#bfbfbf" points="633.5,-384.5 633.5,-403.5 696.5,-403.5 696.5,-384.5 633.5,-384.5"/>
<text text-anchor="middle" x="665" y="-391.5" font-family="Helvetica,sans-Serif" font-size="10.00">FairTask.h</text>
</g>
<!-- Node9&#45;&gt;Node10 -->
<g id="edge9" class="edge"><title>Node9&#45;&gt;Node10</title>
<path fill="none" stroke="midnightblue" d="M730.619,-440.781C717.01,-431.286 699.176,-418.843 685.535,-409.327"/>
<polygon fill="midnightblue" stroke="midnightblue" points="687.467,-406.407 677.263,-403.556 683.462,-412.148 687.467,-406.407"/>
</g>
<!-- Node11 -->
<g id="node11" class="node"><title>Node11</title>
<polygon fill="none" stroke="#bfbfbf" points="171,-74.5 171,-93.5 227,-93.5 227,-74.5 171,-74.5"/>
<text text-anchor="middle" x="199" y="-81.5" font-family="Helvetica,sans-Serif" font-size="10.00">Rtypes.h</text>
</g>
<!-- Node9&#45;&gt;Node11 -->
<g id="edge10" class="edge"><title>Node9&#45;&gt;Node11</title>
<path fill="none" stroke="midnightblue" d="M745.739,-440.941C738.141,-419.346 725,-376.562 725,-339 725,-339 725,-339 725,-207 725,-95.7623 342.26,-132.904 236,-100 233.36,-99.1825 230.644,-98.2557 227.941,-97.2735"/>
<polygon fill="midnightblue" stroke="midnightblue" points="228.951,-93.9114 218.362,-93.5701 226.427,-100.441 228.951,-93.9114"/>
</g>
<!-- Node12 -->
<g id="node12" class="node"><title>Node12</title>
<g id="a_node12"><a xlink:href="../../d1/def/PHOS_2base_2include_2PHOSBase_2Hit_8h.html" target="_top" xlink:title="PHOSBase/Hit.h">
<polygon fill="none" stroke="black" points="789,-266.5 789,-285.5 881,-285.5 881,-266.5 789,-266.5"/>
<text text-anchor="middle" x="835" y="-273.5" font-family="Helvetica,sans-Serif" font-size="10.00">PHOSBase/Hit.h</text>
</a>
</g>
</g>
<!-- Node9&#45;&gt;Node12 -->
<g id="edge11" class="edge"><title>Node9&#45;&gt;Node12</title>
<path fill="none" stroke="midnightblue" d="M757.732,-440.734C772.969,-408.448 810.059,-329.852 826.691,-294.608"/>
<polygon fill="midnightblue" stroke="midnightblue" points="829.875,-296.062 830.977,-285.524 823.544,-293.074 829.875,-296.062"/>
</g>
<!-- Node32 -->
<g id="node32" class="node"><title>Node32</title>
<g id="a_node32"><a xlink:href="../../d6/d4b/PHOS_2simulation_2include_2PHOSSimulation_2Digitizer_8h.html" target="_top" xlink:title="PHOSSimulation/Digitizer.h">
<polygon fill="none" stroke="black" points="830,-384.5 830,-403.5 968,-403.5 968,-384.5 830,-384.5"/>
<text text-anchor="middle" x="899" y="-391.5" font-family="Helvetica,sans-Serif" font-size="10.00">PHOSSimulation/Digitizer.h</text>
</a>
</g>
</g>
<!-- Node9&#45;&gt;Node32 -->
<g id="edge32" class="edge"><title>Node9&#45;&gt;Node32</title>
<path fill="none" stroke="midnightblue" d="M785.699,-440.933C810.78,-430.765 844.346,-417.157 868.422,-407.396"/>
<polygon fill="midnightblue" stroke="midnightblue" points="869.834,-410.601 877.787,-403.6 867.204,-404.114 869.834,-410.601"/>
</g>
<!-- Node13 -->
<g id="node13" class="node"><title>Node13</title>
<g id="a_node13"><a xlink:href="../../d4/d25/BaseHits_8h.html" target="_top" xlink:title="SimulationDataFormat\l/BaseHits.h">
<polygon fill="none" stroke="black" points="775,-193 775,-223 889,-223 889,-193 775,-193"/>
<text text-anchor="start" x="783" y="-211" font-family="Helvetica,sans-Serif" font-size="10.00">SimulationDataFormat</text>
<text text-anchor="middle" x="832" y="-200" font-family="Helvetica,sans-Serif" font-size="10.00">/BaseHits.h</text>
</a>
</g>
</g>
<!-- Node12&#45;&gt;Node13 -->
<g id="edge12" class="edge"><title>Node12&#45;&gt;Node13</title>
<path fill="none" stroke="midnightblue" d="M834.608,-266.372C834.226,-257.971 833.628,-244.811 833.101,-233.213"/>
<polygon fill="midnightblue" stroke="midnightblue" points="836.595,-233.012 832.645,-223.181 829.602,-233.33 836.595,-233.012"/>
</g>
<!-- Node25 -->
<g id="node25" class="node"><title>Node25</title>
<g id="a_node25"><a xlink:href="../../d0/d91/ShmAllocator_8h.html" target="_top" xlink:title="CommonUtils/ShmAllocator.h">
<polygon fill="none" stroke="black" points="1261,-198.5 1261,-217.5 1407,-217.5 1407,-198.5 1261,-198.5"/>
<text text-anchor="middle" x="1334" y="-205.5" font-family="Helvetica,sans-Serif" font-size="10.00">CommonUtils/ShmAllocator.h</text>
</a>
</g>
</g>
<!-- Node12&#45;&gt;Node25 -->
<g id="edge25" class="edge"><title>Node12&#45;&gt;Node25</title>
<path fill="none" stroke="midnightblue" d="M881.341,-267.571C897.373,-265.071 915.463,-262.327 932,-260 1042.57,-244.44 1170.55,-228.571 1251.86,-218.757"/>
<polygon fill="midnightblue" stroke="midnightblue" points="1252.52,-222.203 1262.03,-217.531 1251.68,-215.253 1252.52,-222.203"/>
</g>
<!-- Node14 -->
<g id="node14" class="node"><title>Node14</title>
<g id="a_node14"><a xlink:href="../../dd/d76/Cartesian3D_8h.html" target="_top" xlink:title="MathUtils/Cartesian3D.h">
<polygon fill="none" stroke="black" points="791.5,-136.5 791.5,-155.5 916.5,-155.5 916.5,-136.5 791.5,-136.5"/>
<text text-anchor="middle" x="854" y="-143.5" font-family="Helvetica,sans-Serif" font-size="10.00">MathUtils/Cartesian3D.h</text>
</a>
</g>
</g>
<!-- Node13&#45;&gt;Node14 -->
<g id="edge13" class="edge"><title>Node13&#45;&gt;Node14</title>
<path fill="none" stroke="midnightblue" d="M837.214,-192.781C840.246,-184.512 844.098,-174.006 847.347,-165.145"/>
<polygon fill="midnightblue" stroke="midnightblue" points="850.642,-166.324 850.799,-155.731 844.07,-163.914 850.642,-166.324"/>
</g>
<!-- Node14&#45;&gt;Node11 -->
<g id="edge19" class="edge"><title>Node14&#45;&gt;Node11</title>
<path fill="none" stroke="midnightblue" d="M791.412,-137.42C786.539,-136.911 781.691,-136.43 777,-136 537.03,-114.005 470.859,-153.952 236,-100 232.757,-99.2551 229.43,-98.2622 226.164,-97.1405"/>
<polygon fill="midnightblue" stroke="midnightblue" points="227.283,-93.8214 216.693,-93.5081 224.776,-100.357 227.283,-93.8214"/>
</g>
<!-- Node15 -->
<g id="node15" class="node"><title>Node15</title>
<polygon fill="none" stroke="#bfbfbf" points="245.5,-69 245.5,-99 396.5,-99 396.5,-69 245.5,-69"/>
<text text-anchor="start" x="253.5" y="-87" font-family="Helvetica,sans-Serif" font-size="10.00">Math/GenVector/Displacement</text>
<text text-anchor="middle" x="321" y="-76" font-family="Helvetica,sans-Serif" font-size="10.00">Vector3D.h</text>
</g>
<!-- Node14&#45;&gt;Node15 -->
<g id="edge14" class="edge"><title>Node14&#45;&gt;Node15</title>
<path fill="none" stroke="midnightblue" d="M791.397,-137.579C786.526,-137.033 781.684,-136.501 777,-136 615.493,-118.727 571.833,-122.263 406.953,-100.064"/>
<polygon fill="midnightblue" stroke="midnightblue" points="407.334,-96.5832 396.954,-98.7059 406.392,-103.52 407.334,-96.5832"/>
</g>
<!-- Node16 -->
<g id="node16" class="node"><title>Node16</title>
<polygon fill="none" stroke="#bfbfbf" points="415,-74.5 415,-93.5 591,-93.5 591,-74.5 415,-74.5"/>
<text text-anchor="middle" x="503" y="-81.5" font-family="Helvetica,sans-Serif" font-size="10.00">Math/GenVector/PositionVector3D.h</text>
</g>
<!-- Node14&#45;&gt;Node16 -->
<g id="edge15" class="edge"><title>Node14&#45;&gt;Node16</title>
<path fill="none" stroke="midnightblue" d="M804.083,-136.467C740.534,-125.604 630.851,-106.855 562.872,-95.2346"/>
<polygon fill="midnightblue" stroke="midnightblue" points="563.192,-91.7385 552.745,-93.5034 562.012,-98.6384 563.192,-91.7385"/>
</g>
<!-- Node17 -->
<g id="node17" class="node"><title>Node17</title>
<polygon fill="none" stroke="#bfbfbf" points="608.5,-74.5 608.5,-93.5 757.5,-93.5 757.5,-74.5 608.5,-74.5"/>
<text text-anchor="middle" x="683" y="-81.5" font-family="Helvetica,sans-Serif" font-size="10.00">Math/GenVector/Rotation3D.h</text>
</g>
<!-- Node14&#45;&gt;Node17 -->
<g id="edge16" class="edge"><title>Node14&#45;&gt;Node17</title>
<path fill="none" stroke="midnightblue" d="M829.5,-136.403C800.04,-126.067 750.421,-108.656 717.198,-96.9994"/>
<polygon fill="midnightblue" stroke="midnightblue" points="718.05,-93.5889 707.455,-93.5806 715.732,-100.194 718.05,-93.5889"/>
</g>
<!-- Node18 -->
<g id="node18" class="node"><title>Node18</title>
<polygon fill="none" stroke="#bfbfbf" points="776,-74.5 776,-93.5 932,-93.5 932,-74.5 776,-74.5"/>
<text text-anchor="middle" x="854" y="-81.5" font-family="Helvetica,sans-Serif" font-size="10.00">Math/GenVector/Transform3D.h</text>
</g>
<!-- Node14&#45;&gt;Node18 -->
<g id="edge17" class="edge"><title>Node14&#45;&gt;Node18</title>
<path fill="none" stroke="midnightblue" d="M854,-136.403C854,-127.938 854,-114.728 854,-103.82"/>
<polygon fill="midnightblue" stroke="midnightblue" points="857.5,-103.581 854,-93.5806 850.5,-103.581 857.5,-103.581"/>
</g>
<!-- Node19 -->
<g id="node19" class="node"><title>Node19</title>
<polygon fill="none" stroke="#bfbfbf" points="950,-74.5 950,-93.5 1110,-93.5 1110,-74.5 950,-74.5"/>
<text text-anchor="middle" x="1030" y="-81.5" font-family="Helvetica,sans-Serif" font-size="10.00">Math/GenVector/Translation3D.h</text>
</g>
<!-- Node14&#45;&gt;Node19 -->
<g id="edge18" class="edge"><title>Node14&#45;&gt;Node19</title>
<path fill="none" stroke="midnightblue" d="M879.217,-136.403C909.668,-126.022 961.049,-108.506 995.243,-96.849"/>
<polygon fill="midnightblue" stroke="midnightblue" points="996.495,-100.12 1004.83,-93.5806 994.236,-93.4946 996.495,-100.12"/>
</g>
<!-- Node20 -->
<g id="node20" class="node"><title>Node20</title>
<polygon fill="none" stroke="#bfbfbf" points="1128,-74.5 1128,-93.5 1204,-93.5 1204,-74.5 1128,-74.5"/>
<text text-anchor="middle" x="1166" y="-81.5" font-family="Helvetica,sans-Serif" font-size="10.00">TGeoMatrix.h</text>
</g>
<!-- Node14&#45;&gt;Node20 -->
<g id="edge20" class="edge"><title>Node14&#45;&gt;Node20</title>
<path fill="none" stroke="midnightblue" d="M916.616,-136.903C970.636,-129.316 1050.53,-116.652 1119,-100 1123.12,-98.9981 1127.4,-97.8228 1131.63,-96.5787"/>
<polygon fill="midnightblue" stroke="midnightblue" points="1132.78,-99.8884 1141.31,-93.5999 1130.72,-93.1985 1132.78,-99.8884"/>
</g>
<!-- Node21 -->
<g id="node21" class="node"><title>Node21</title>
<polygon fill="none" stroke="#bfbfbf" points="1222.5,-74.5 1222.5,-93.5 1267.5,-93.5 1267.5,-74.5 1222.5,-74.5"/>
<text text-anchor="middle" x="1245" y="-81.5" font-family="Helvetica,sans-Serif" font-size="10.00">iosfwd</text>
</g>
<!-- Node14&#45;&gt;Node21 -->
<g id="edge21" class="edge"><title>Node14&#45;&gt;Node21</title>
<path fill="none" stroke="midnightblue" d="M916.811,-143.064C989.429,-139.474 1111.93,-129.23 1213,-100 1215.29,-99.3384 1217.62,-98.5327 1219.92,-97.6416"/>
<polygon fill="midnightblue" stroke="midnightblue" points="1221.33,-100.847 1229.1,-93.6499 1218.54,-94.4275 1221.33,-100.847"/>
</g>
<!-- Node22 -->
<g id="node22" class="node"><title>Node22</title>
<g id="a_node22"><a xlink:href="../../d2/dd0/Cartesian2D_8h.html" target="_top" xlink:title="MathUtils/Cartesian2D.h">
<polygon fill="none" stroke="black" points="1285.5,-74.5 1285.5,-93.5 1410.5,-93.5 1410.5,-74.5 1285.5,-74.5"/>
<text text-anchor="middle" x="1348" y="-81.5" font-family="Helvetica,sans-Serif" font-size="10.00">MathUtils/Cartesian2D.h</text>
</a>
</g>
</g>
<!-- Node14&#45;&gt;Node22 -->
<g id="edge22" class="edge"><title>Node14&#45;&gt;Node22</title>
<path fill="none" stroke="midnightblue" d="M916.816,-140.259C999.483,-133.573 1149.17,-119.924 1276,-100 1283.89,-98.76 1292.23,-97.23 1300.32,-95.6257"/>
<polygon fill="midnightblue" stroke="midnightblue" points="1301.29,-99.0002 1310.39,-93.5703 1299.89,-92.1417 1301.29,-99.0002"/>
</g>
<!-- Node23 -->
<g id="node23" class="node"><title>Node23</title>
<polygon fill="none" stroke="#bfbfbf" points="1181.5,-1 1181.5,-31 1332.5,-31 1332.5,-1 1181.5,-1"/>
<text text-anchor="start" x="1189.5" y="-19" font-family="Helvetica,sans-Serif" font-size="10.00">Math/GenVector/Displacement</text>
<text text-anchor="middle" x="1257" y="-8" font-family="Helvetica,sans-Serif" font-size="10.00">Vector2D.h</text>
</g>
<!-- Node22&#45;&gt;Node23 -->
<g id="edge23" class="edge"><title>Node22&#45;&gt;Node23</title>
<path fill="none" stroke="midnightblue" d="M1336.1,-74.3717C1323.22,-65.0286 1302.22,-49.7966 1285.09,-37.375"/>
<polygon fill="midnightblue" stroke="midnightblue" points="1286.7,-34.2194 1276.55,-31.1815 1282.59,-39.8859 1286.7,-34.2194"/>
</g>
<!-- Node24 -->
<g id="node24" class="node"><title>Node24</title>
<polygon fill="none" stroke="#bfbfbf" points="1351,-6.5 1351,-25.5 1527,-25.5 1527,-6.5 1351,-6.5"/>
<text text-anchor="middle" x="1439" y="-13.5" font-family="Helvetica,sans-Serif" font-size="10.00">Math/GenVector/PositionVector2D.h</text>
</g>
<!-- Node22&#45;&gt;Node24 -->
<g id="edge24" class="edge"><title>Node22&#45;&gt;Node24</title>
<path fill="none" stroke="midnightblue" d="M1359.9,-74.3717C1374.88,-63.5015 1400.86,-44.6602 1418.94,-31.5474"/>
<polygon fill="midnightblue" stroke="midnightblue" points="1421.06,-34.3349 1427.1,-25.6305 1416.95,-28.6684 1421.06,-34.3349"/>
</g>
<!-- Node26 -->
<g id="node26" class="node"><title>Node26</title>
<g id="a_node26"><a xlink:href="../../de/d61/ShmManager_8h.html" target="_top" xlink:title="CommonUtils/ShmManager.h">
<polygon fill="none" stroke="black" points="1398,-136.5 1398,-155.5 1544,-155.5 1544,-136.5 1398,-136.5"/>
<text text-anchor="middle" x="1471" y="-143.5" font-family="Helvetica,sans-Serif" font-size="10.00">CommonUtils/ShmManager.h</text>
</a>
</g>
</g>
<!-- Node25&#45;&gt;Node26 -->
<g id="edge26" class="edge"><title>Node25&#45;&gt;Node26</title>
<path fill="none" stroke="midnightblue" d="M1353.63,-198.403C1376.82,-188.245 1415.62,-171.255 1442.21,-159.607"/>
<polygon fill="midnightblue" stroke="midnightblue" points="1443.65,-162.798 1451.41,-155.581 1440.84,-156.386 1443.65,-162.798"/>
</g>
<!-- Node31 -->
<g id="node31" class="node"><title>Node31</title>
<polygon fill="none" stroke="#bfbfbf" points="1562.5,-136.5 1562.5,-155.5 1611.5,-155.5 1611.5,-136.5 1562.5,-136.5"/>
<text text-anchor="middle" x="1587" y="-143.5" font-family="Helvetica,sans-Serif" font-size="10.00">cassert</text>
</g>
<!-- Node25&#45;&gt;Node31 -->
<g id="edge31" class="edge"><title>Node25&#45;&gt;Node31</title>
<path fill="none" stroke="midnightblue" d="M1372.06,-198.5C1413.85,-189.088 1483.15,-173.241 1552.38,-156.099"/>
<polygon fill="midnightblue" stroke="midnightblue" points="1553.28,-159.481 1562.14,-153.673 1551.59,-152.688 1553.28,-159.481"/>
</g>
<!-- Node27 -->
<g id="node27" class="node"><title>Node27</title>
<polygon fill="none" stroke="#bfbfbf" points="1428.5,-74.5 1428.5,-93.5 1457.5,-93.5 1457.5,-74.5 1428.5,-74.5"/>
<text text-anchor="middle" x="1443" y="-81.5" font-family="Helvetica,sans-Serif" font-size="10.00">list</text>
</g>
<!-- Node26&#45;&gt;Node27 -->
<g id="edge27" class="edge"><title>Node26&#45;&gt;Node27</title>
<path fill="none" stroke="midnightblue" d="M1466.99,-136.403C1462.91,-127.671 1456.48,-113.889 1451.3,-102.794"/>
<polygon fill="midnightblue" stroke="midnightblue" points="1454.4,-101.162 1447,-93.5806 1448.06,-104.123 1454.4,-101.162"/>
</g>
<!-- Node28 -->
<g id="node28" class="node"><title>Node28</title>
<polygon fill="none" stroke="#bfbfbf" points="1475.5,-74.5 1475.5,-93.5 1524.5,-93.5 1524.5,-74.5 1475.5,-74.5"/>
<text text-anchor="middle" x="1500" y="-81.5" font-family="Helvetica,sans-Serif" font-size="10.00">cstddef</text>
</g>
<!-- Node26&#45;&gt;Node28 -->
<g id="edge28" class="edge"><title>Node26&#45;&gt;Node28</title>
<path fill="none" stroke="midnightblue" d="M1475.15,-136.403C1479.38,-127.671 1486.04,-113.889 1491.4,-102.794"/>
<polygon fill="midnightblue" stroke="midnightblue" points="1494.65,-104.107 1495.85,-93.5806 1488.35,-101.061 1494.65,-104.107"/>
</g>
<!-- Node29 -->
<g id="node29" class="node"><title>Node29</title>
<polygon fill="none" stroke="#bfbfbf" points="1543,-69 1543,-99 1691,-99 1691,-69 1543,-69"/>
<text text-anchor="start" x="1551" y="-87" font-family="Helvetica,sans-Serif" font-size="10.00">boost/interprocess</text>
<text text-anchor="middle" x="1617" y="-76" font-family="Helvetica,sans-Serif" font-size="10.00">/managed_external_buffer.hpp</text>
</g>
<!-- Node26&#45;&gt;Node29 -->
<g id="edge29" class="edge"><title>Node26&#45;&gt;Node29</title>
<path fill="none" stroke="midnightblue" d="M1491.92,-136.403C1513.06,-127.717 1546.35,-114.035 1573.27,-102.969"/>
<polygon fill="midnightblue" stroke="midnightblue" points="1574.95,-106.064 1582.87,-99.0253 1572.29,-99.5892 1574.95,-106.064"/>
</g>
<!-- Node30 -->
<g id="node30" class="node"><title>Node30</title>
<polygon fill="none" stroke="#bfbfbf" points="1709,-69 1709,-99 1829,-99 1829,-69 1709,-69"/>
<text text-anchor="start" x="1717" y="-87" font-family="Helvetica,sans-Serif" font-size="10.00">boost/interprocess</text>
<text text-anchor="middle" x="1769" y="-76" font-family="Helvetica,sans-Serif" font-size="10.00">/allocators/allocator.hpp</text>
</g>
<!-- Node26&#45;&gt;Node30 -->
<g id="edge30" class="edge"><title>Node26&#45;&gt;Node30</title>
<path fill="none" stroke="midnightblue" d="M1515.81,-136.469C1559.94,-128.007 1629.52,-114.5 1699,-100.185"/>
<polygon fill="midnightblue" stroke="midnightblue" points="1699.72,-103.611 1708.8,-98.1603 1698.3,-96.7559 1699.72,-103.611"/>
</g>
<!-- Node32&#45;&gt;Node12 -->
<g id="edge43" class="edge"><title>Node32&#45;&gt;Node12</title>
<path fill="none" stroke="midnightblue" d="M887.312,-384.28C877.062,-376.028 862.505,-362.737 854,-348 844.648,-331.796 839.776,-310.862 837.32,-295.933"/>
<polygon fill="midnightblue" stroke="midnightblue" points="840.76,-295.267 835.878,-285.864 833.831,-296.259 840.76,-295.267"/>
</g>
<!-- Node33 -->
<g id="node33" class="node"><title>Node33</title>
<g id="a_node33"><a xlink:href="../../d8/de9/PHOS_2base_2include_2PHOSBase_2Digit_8h.html" target="_top" xlink:title="PHOSBase/Digit.h">
<polygon fill="none" stroke="black" points="863.5,-328.5 863.5,-347.5 962.5,-347.5 962.5,-328.5 863.5,-328.5"/>
<text text-anchor="middle" x="913" y="-335.5" font-family="Helvetica,sans-Serif" font-size="10.00">PHOSBase/Digit.h</text>
</a>
</g>
</g>
<!-- Node32&#45;&gt;Node33 -->
<g id="edge33" class="edge"><title>Node32&#45;&gt;Node33</title>
<path fill="none" stroke="midnightblue" d="M901.312,-384.083C903.167,-376.927 905.835,-366.635 908.154,-357.691"/>
<polygon fill="midnightblue" stroke="midnightblue" points="911.609,-358.309 910.731,-347.751 904.834,-356.553 911.609,-358.309"/>
</g>
<!-- Node37 -->
<g id="node37" class="node"><title>Node37</title>
<g id="a_node37"><a xlink:href="../../d7/d7f/PHOS_2base_2include_2PHOSBase_2Geometry_8h.html" target="_top" xlink:title="PHOSBase/Geometry.h">
<polygon fill="none" stroke="black" points="1072,-328.5 1072,-347.5 1194,-347.5 1194,-328.5 1072,-328.5"/>
<text text-anchor="middle" x="1133" y="-335.5" font-family="Helvetica,sans-Serif" font-size="10.00">PHOSBase/Geometry.h</text>
</a>
</g>
</g>
<!-- Node32&#45;&gt;Node37 -->
<g id="edge39" class="edge"><title>Node32&#45;&gt;Node37</title>
<path fill="none" stroke="midnightblue" d="M936.078,-384.444C976.728,-375.063 1042.03,-359.993 1086.18,-349.804"/>
<polygon fill="midnightblue" stroke="midnightblue" points="1087.14,-353.175 1096.1,-347.516 1085.56,-346.355 1087.14,-353.175"/>
</g>
<!-- Node33&#45;&gt;Node12 -->
<g id="edge38" class="edge"><title>Node33&#45;&gt;Node12</title>
<path fill="none" stroke="midnightblue" d="M901.825,-328.403C889.429,-318.869 869.21,-303.315 854.254,-291.811"/>
<polygon fill="midnightblue" stroke="midnightblue" points="856.215,-288.904 846.155,-285.581 851.947,-294.452 856.215,-288.904"/>
</g>
<!-- Node34 -->
<g id="node34" class="node"><title>Node34</title>
<g id="a_node34"><a xlink:href="../../df/d5d/common_2include_2CommonDataFormat_2TimeStamp_8h.html" target="_top" xlink:title="CommonDataFormat/TimeStamp.h">
<polygon fill="none" stroke="black" points="907,-198.5 907,-217.5 1077,-217.5 1077,-198.5 907,-198.5"/>
<text text-anchor="middle" x="992" y="-205.5" font-family="Helvetica,sans-Serif" font-size="10.00">CommonDataFormat/TimeStamp.h</text>
</a>
</g>
</g>
<!-- Node33&#45;&gt;Node34 -->
<g id="edge34" class="edge"><title>Node33&#45;&gt;Node34</title>
<path fill="none" stroke="midnightblue" d="M913.426,-328.247C914.517,-313.221 918.379,-282.012 932,-260 941.235,-245.076 956.296,-232.295 969.017,-223.26"/>
<polygon fill="midnightblue" stroke="midnightblue" points="971.028,-226.126 977.351,-217.624 967.107,-220.327 971.028,-226.126"/>
</g>
<!-- Node35 -->
<g id="node35" class="node"><title>Node35</title>
<g id="a_node35"><a xlink:href="../../d7/dcd/MCCompLabel_8h.html" target="_top" xlink:title="SimulationDataFormat\l/MCCompLabel.h">
<polygon fill="none" stroke="black" points="941,-261 941,-291 1055,-291 1055,-261 941,-261"/>
<text text-anchor="start" x="949" y="-279" font-family="Helvetica,sans-Serif" font-size="10.00">SimulationDataFormat</text>
<text text-anchor="middle" x="998" y="-268" font-family="Helvetica,sans-Serif" font-size="10.00">/MCCompLabel.h</text>
</a>
</g>
</g>
<!-- Node33&#45;&gt;Node35 -->
<g id="edge36" class="edge"><title>Node33&#45;&gt;Node35</title>
<path fill="none" stroke="midnightblue" d="M925.178,-328.403C936.69,-320.277 954.396,-307.779 969.466,-297.142"/>
<polygon fill="midnightblue" stroke="midnightblue" points="971.816,-299.767 977.967,-291.141 967.779,-294.048 971.816,-299.767"/>
</g>
<!-- Node34&#45;&gt;Node11 -->
<g id="edge35" class="edge"><title>Node34&#45;&gt;Node11</title>
<path fill="none" stroke="midnightblue" d="M945.36,-198.423C902.293,-189.86 836.886,-175.218 782,-156 762.107,-149.035 759.404,-141.284 739,-136 522.03,-79.8118 454.312,-150.726 236,-100 232.926,-99.2857 229.775,-98.351 226.672,-97.2969"/>
<polygon fill="midnightblue" stroke="midnightblue" points="227.664,-93.93 217.073,-93.6465 225.176,-100.473 227.664,-93.93"/>
</g>
<!-- Node36 -->
<g id="node36" class="node"><title>Node36</title>
<polygon fill="none" stroke="#bfbfbf" points="1425,-198.5 1425,-217.5 1553,-217.5 1553,-198.5 1425,-198.5"/>
<text text-anchor="middle" x="1489" y="-205.5" font-family="Helvetica,sans-Serif" font-size="10.00">AliTPCCommonRtypes.h</text>
</g>
<!-- Node35&#45;&gt;Node36 -->
<g id="edge37" class="edge"><title>Node35&#45;&gt;Node36</title>
<path fill="none" stroke="midnightblue" d="M1055.15,-261.564C1058.14,-261.002 1061.1,-260.476 1064,-260 1219.18,-234.527 1260.56,-247.857 1416,-224 1424.18,-222.744 1432.84,-221.179 1441.21,-219.538"/>
<polygon fill="midnightblue" stroke="midnightblue" points="1442.13,-222.923 1451.24,-217.513 1440.75,-216.061 1442.13,-222.923"/>
</g>
<!-- Node38 -->
<g id="node38" class="node"><title>Node38</title>
<polygon fill="none" stroke="#bfbfbf" points="1073.5,-266.5 1073.5,-285.5 1114.5,-285.5 1114.5,-266.5 1073.5,-266.5"/>
<text text-anchor="middle" x="1094" y="-273.5" font-family="Helvetica,sans-Serif" font-size="10.00">string</text>
</g>
<!-- Node37&#45;&gt;Node38 -->
<g id="edge40" class="edge"><title>Node37&#45;&gt;Node38</title>
<path fill="none" stroke="midnightblue" d="M1127.41,-328.403C1121.62,-319.493 1112.41,-305.325 1105.13,-294.118"/>
<polygon fill="midnightblue" stroke="midnightblue" points="1107.96,-292.058 1099.58,-285.581 1102.09,-295.873 1107.96,-292.058"/>
</g>
<!-- Node39 -->
<g id="node39" class="node"><title>Node39</title>
<polygon fill="none" stroke="#bfbfbf" points="1133,-266.5 1133,-285.5 1213,-285.5 1213,-266.5 1133,-266.5"/>
<text text-anchor="middle" x="1173" y="-273.5" font-family="Helvetica,sans-Serif" font-size="10.00">RStringView.h</text>
</g>
<!-- Node37&#45;&gt;Node39 -->
<g id="edge41" class="edge"><title>Node37&#45;&gt;Node39</title>
<path fill="none" stroke="midnightblue" d="M1138.73,-328.403C1144.67,-319.493 1154.12,-305.325 1161.59,-294.118"/>
<polygon fill="midnightblue" stroke="midnightblue" points="1164.64,-295.843 1167.28,-285.581 1158.82,-291.96 1164.64,-295.843"/>
</g>
<!-- Node40 -->
<g id="node40" class="node"><title>Node40</title>
<polygon fill="none" stroke="#bfbfbf" points="1231.5,-266.5 1231.5,-285.5 1284.5,-285.5 1284.5,-266.5 1231.5,-266.5"/>
<text text-anchor="middle" x="1258" y="-273.5" font-family="Helvetica,sans-Serif" font-size="10.00">TMath.h</text>
</g>
<!-- Node37&#45;&gt;Node40 -->
<g id="edge42" class="edge"><title>Node37&#45;&gt;Node40</title>
<path fill="none" stroke="midnightblue" d="M1150.91,-328.403C1171.89,-318.334 1206.85,-301.552 1231.09,-289.915"/>
<polygon fill="midnightblue" stroke="midnightblue" points="1232.62,-293.063 1240.12,-285.581 1229.59,-286.753 1232.62,-293.063"/>
</g>
</g>
</svg>
        <g id="navigator" transform="translate(0 0)" fill="#404254">
                <rect fill="#f2f5e9" fill-opacity="0.5" stroke="#606060" stroke-width=".5" x="0" y="0" width="60" height="60"/>
                <use id="zoomplus" xlink:href="#zoomPlus" x="17" y="9" onmousedown="handleZoom(evt,'in')"/>
                <use id="zoomminus" xlink:href="#zoomMin" x="42" y="9" onmousedown="handleZoom(evt,'out')"/>
                <use id="reset" xlink:href="#resetDef" x="30" y="36" onmousedown="handleReset()"/>
                <g id="arrowUp" xlink:href="#dirArrow" transform="translate(30 24)" onmousedown="handlePan(0,-1)">
                  <use xlink:href="#rim" fill="#404040">
                        <set attributeName="fill" to="#808080" begin="arrowUp.mouseover" end="arrowUp.mouseout"/>
                  </use>
                  <path fill="none" stroke="white" stroke-width="1.5" d="M0,-3.0v7 M-2.5,-0.5L0,-3.0L2.5,-0.5"/>
                </g>
                <g id="arrowRight" xlink:href="#dirArrow" transform="rotate(90) translate(36 -43)" onmousedown="handlePan(1,0)">
                  <use xlink:href="#rim" fill="#404040">
                        <set attributeName="fill" to="#808080" begin="arrowRight.mouseover" end="arrowRight.mouseout"/>
                  </use>
                  <path fill="none" stroke="white" stroke-width="1.5" d="M0,-3.0v7 M-2.5,-0.5L0,-3.0L2.5,-0.5"/>
                </g>
                <g id="arrowDown" xlink:href="#dirArrow" transform="rotate(180) translate(-30 -48)" onmousedown="handlePan(0,1)">
                  <use xlink:href="#rim" fill="#404040">
                        <set attributeName="fill" to="#808080" begin="arrowDown.mouseover" end="arrowDown.mouseout"/>
                  </use>
                  <path fill="none" stroke="white" stroke-width="1.5" d="M0,-3.0v7 M-2.5,-0.5L0,-3.0L2.5,-0.5"/>
                </g>
                <g id="arrowLeft" xlink:href="#dirArrow" transform="rotate(270) translate(-36 17)" onmousedown="handlePan(-1,0)">
                  <use xlink:href="#rim" fill="#404040">
                        <set attributeName="fill" to="#808080" begin="arrowLeft.mouseover" end="arrowLeft.mouseout"/>
                  </use>
                  <path fill="none" stroke="white" stroke-width="1.5" d="M0,-3.0v7 M-2.5,-0.5L0,-3.0L2.5,-0.5"/>
                </g>
        </g>
        <svg viewBox="0 0 15 15" width="100%" height="30px" preserveAspectRatio="xMaxYMin meet">
         <g id="arrow_out" transform="scale(0.3 0.3)">
          <a xlink:href="run__digi__phos_8C__incl_org.svg" target="_base">
           <rect id="button" ry="5" rx="5" y="6" x="6" height="38" width="38"
                fill="#f2f5e9" fill-opacity="0.5" stroke="#606060" stroke-width="1.0"/>
           <path id="arrow"
             d="M 11.500037,31.436501 C 11.940474,20.09759 22.043105,11.32322 32.158766,21.979434 L 37.068811,17.246167 C 37.068811,17.246167 37.088388,32 37.088388,32 L 22.160133,31.978069 C 22.160133,31.978069 26.997745,27.140456 26.997745,27.140456 C 18.528582,18.264221 13.291696,25.230495 11.500037,31.436501 z"
             style="fill:#404040;"/>
          </a>
         </g>
        </svg>
</svg>
