<?xml version="1.0" encoding="UTF-8" standalone="no"?>
<!DOCTYPE svg PUBLIC "-//W3C//DTD SVG 1.1//EN"
 "http://www.w3.org/Graphics/SVG/1.1/DTD/svg11.dtd">
<!-- Generated by graphviz version 2.36.0 (20140111.2315)
 -->
<!-- Title: /home/travis/build/AliceO2Group/AliceO2/Detectors/EMCAL/base/include/EMCALBase/ShishKebabTrd1Module.h Pages: 1 -->
<svg width="452pt" height="128pt"
 viewBox="0.00 0.00 452.00 128.00" xmlns="http://www.w3.org/2000/svg" xmlns:xlink="http://www.w3.org/1999/xlink">
<g id="graph0" class="graph" transform="scale(1 1) rotate(0) translate(4 124)">
<title>/home/travis/build/AliceO2Group/AliceO2/Detectors/EMCAL/base/include/EMCALBase/ShishKebabTrd1Module.h</title>
<!-- Node1 -->
<g id="node1" class="node"><title>Node1</title>
<polygon fill="#bfbfbf" stroke="black" points="110.5,-56.5 110.5,-119.5 295.5,-119.5 295.5,-56.5 110.5,-56.5"/>
<text text-anchor="start" x="118.5" y="-107.5" font-family="Helvetica,sans-Serif" font-size="10.00">/home/travis/build</text>
<text text-anchor="start" x="118.5" y="-96.5" font-family="Helvetica,sans-Serif" font-size="10.00">/AliceO2Group/AliceO2</text>
<text text-anchor="start" x="118.5" y="-85.5" font-family="Helvetica,sans-Serif" font-size="10.00">/Detectors/EMCAL/base</text>
<text text-anchor="start" x="118.5" y="-74.5" font-family="Helvetica,sans-Serif" font-size="10.00">/include/EMCALBase/ShishKebabTrd1</text>
<text text-anchor="middle" x="203" y="-63.5" font-family="Helvetica,sans-Serif" font-size="10.00">Module.h</text>
</g>
<!-- Node2 -->
<g id="node2" class="node"><title>Node2</title>
<polygon fill="none" stroke="#bfbfbf" points="0,-0.5 0,-19.5 50,-19.5 50,-0.5 0,-0.5"/>
<text text-anchor="middle" x="25" y="-7.5" font-family="Helvetica,sans-Serif" font-size="10.00">iomanip</text>
</g>
<!-- Node1&#45;&gt;Node2 -->
<g id="edge1" class="edge"><title>Node1&#45;&gt;Node2</title>
<path fill="none" stroke="midnightblue" d="M131.37,-56.4164C104.516,-44.9507 75.4673,-32.5478 54.5224,-23.6051"/>
<polygon fill="midnightblue" stroke="midnightblue" points="55.7931,-20.342 45.2219,-19.6341 53.0443,-26.7797 55.7931,-20.342"/>
</g>
<!-- Node3 -->
<g id="node3" class="node"><title>Node3</title>
<polygon fill="none" stroke="#bfbfbf" points="68,-0.5 68,-19.5 120,-19.5 120,-0.5 68,-0.5"/>
<text text-anchor="middle" x="94" y="-7.5" font-family="Helvetica,sans-Serif" font-size="10.00">memory</text>
</g>
<!-- Node1&#45;&gt;Node3 -->
<g id="edge2" class="edge"><title>Node1&#45;&gt;Node3</title>
<path fill="none" stroke="midnightblue" d="M158.98,-56.307C143.765,-45.6988 127.419,-34.3011 114.927,-25.5912"/>
<polygon fill="midnightblue" stroke="midnightblue" points="116.788,-22.6223 106.584,-19.7738 112.785,-28.3644 116.788,-22.6223"/>
</g>
<!-- Node4 -->
<g id="node4" class="node"><title>Node4</title>
<polygon fill="none" stroke="#bfbfbf" points="138.5,-0.5 138.5,-19.5 191.5,-19.5 191.5,-0.5 138.5,-0.5"/>
<text text-anchor="middle" x="165" y="-7.5" font-family="Helvetica,sans-Serif" font-size="10.00">TMath.h</text>
</g>
<!-- Node1&#45;&gt;Node4 -->
<g id="edge3" class="edge"><title>Node1&#45;&gt;Node4</title>
<path fill="none" stroke="midnightblue" d="M187.544,-56.0879C182.921,-46.8414 178.007,-37.0143 173.951,-28.9027"/>
<polygon fill="midnightblue" stroke="midnightblue" points="176.962,-27.0972 169.359,-19.7182 170.701,-30.2277 176.962,-27.0972"/>
</g>
<!-- Node5 -->
<g id="node5" class="node"><title>Node5</title>
<polygon fill="none" stroke="#bfbfbf" points="210,-0.5 210,-19.5 272,-19.5 272,-0.5 210,-0.5"/>
<text text-anchor="middle" x="241" y="-7.5" font-family="Helvetica,sans-Serif" font-size="10.00">TNamed.h</text>
</g>
<!-- Node1&#45;&gt;Node5 -->
<g id="edge4" class="edge"><title>Node1&#45;&gt;Node5</title>
<path fill="none" stroke="midnightblue" d="M218.456,-56.0879C223.079,-46.8414 227.993,-37.0143 232.049,-28.9027"/>
<polygon fill="midnightblue" stroke="midnightblue" points="235.299,-30.2277 236.641,-19.7182 229.038,-27.0972 235.299,-30.2277"/>
</g>
<!-- Node6 -->
<g id="node6" class="node"><title>Node6</title>
<polygon fill="none" stroke="#bfbfbf" points="290.5,-0.5 290.5,-19.5 355.5,-19.5 355.5,-0.5 290.5,-0.5"/>
<text text-anchor="middle" x="323" y="-7.5" font-family="Helvetica,sans-Serif" font-size="10.00">TVector2.h</text>
</g>
<!-- Node1&#45;&gt;Node6 -->
<g id="edge5" class="edge"><title>Node1&#45;&gt;Node6</title>
<path fill="none" stroke="midnightblue" d="M251.463,-56.307C268.481,-45.5288 286.786,-33.9357 300.619,-25.1747"/>
<polygon fill="midnightblue" stroke="midnightblue" points="302.835,-27.9141 309.41,-19.6067 299.09,-22.0004 302.835,-27.9141"/>
</g>
<!-- Node7 -->
<g id="node7" class="node"><title>Node7</title>
<polygon fill="none" stroke="#bfbfbf" points="373.5,-0.5 373.5,-19.5 444.5,-19.5 444.5,-0.5 373.5,-0.5"/>
<text text-anchor="middle" x="409" y="-7.5" font-family="Helvetica,sans-Serif" font-size="10.00">FairLogger.h</text>
</g>
<!-- Node1&#45;&gt;Node7 -->
<g id="edge6" class="edge"><title>Node1&#45;&gt;Node7</title>
<path fill="none" stroke="midnightblue" d="M285.898,-56.4164C317.538,-44.7432 351.812,-32.0986 376.14,-23.1229"/>
<polygon fill="midnightblue" stroke="midnightblue" points="377.427,-26.3791 385.597,-19.6341 375.004,-19.8118 377.427,-26.3791"/>
</g>
</g>
</svg>
