<?xml version="1.0" encoding="UTF-8" standalone="no"?>
<!DOCTYPE svg PUBLIC "-//W3C//DTD SVG 1.1//EN"
 "http://www.w3.org/Graphics/SVG/1.1/DTD/svg11.dtd">
<!-- Generated by graphviz version 2.36.0 (20140111.2315)
 -->
<!-- Title: /home/travis/build/AliceO2Group/AliceO2/Detectors/MUON/MID/Simulation/include/MIDSimulation/ChamberResponseParams.h Pages: 1 -->
<!--zoomable 342 -->
<svg id="main" version="1.1" xmlns="http://www.w3.org/2000/svg" xmlns:xlink="http://www.w3.org/1999/xlink" xml:space="preserve" onload="init(evt)">
<style type="text/css"><![CDATA[
.edge:hover path { stroke: red; }
.edge:hover polygon { stroke: red; fill: red; }
]]></style>
<script type="text/javascript"><![CDATA[
var edges = document.getElementsByTagName('g');
if (edges && edges.length) {
  for (var i=0;i<edges.length;i++) {
    if (edges[i].id.substr(0,4)=='edge') {
      edges[i].setAttribute('class','edge');
    }
  }
}
]]></script>
        <defs>
                <circle id="rim" cx="0" cy="0" r="7"/>
                <circle id="rim2" cx="0" cy="0" r="3.5"/>
                <g id="zoomPlus">
                        <use xlink:href="#rim" fill="#404040">
                                <set attributeName="fill" to="#808080" begin="zoomplus.mouseover" end="zoomplus.mouseout"/>
                        </use>
                        <path d="M-4,0h8M0,-4v8" fill="none" stroke="white" stroke-width="1.5" pointer-events="none"/>
                </g>
                <g id="zoomMin">
                        <use xlink:href="#rim" fill="#404040">
                                <set attributeName="fill" to="#808080" begin="zoomminus.mouseover" end="zoomminus.mouseout"/>
                        </use>
                        <path d="M-4,0h8" fill="none" stroke="white" stroke-width="1.5" pointer-events="none"/>
                </g>
                <g id="dirArrow">
                        <path fill="none" stroke="white" stroke-width="1.5" d="M0,-3.0v7 M-2.5,-0.5L0,-3.0L2.5,-0.5"/>
                </g>
               <g id="resetDef">
                       <use xlink:href="#rim2" fill="#404040">
                               <set attributeName="fill" to="#808080" begin="reset.mouseover" end="reset.mouseout"/>
                       </use>
               </g>
        </defs>

<script type="text/javascript">
var viewWidth = 655;
var viewHeight = 342;
var sectionId = 'dynsection-1';
</script>
<script xlink:href="../../svgpan.js"/>
<svg id="graph" class="graph">
<g id="viewport">
<title>/home/travis/build/AliceO2Group/AliceO2/Detectors/MUON/MID/Simulation/include/MIDSimulation/ChamberResponseParams.h</title>
<!-- Node1 -->
<g id="node1" class="node"><title>Node1</title>
<polygon fill="#bfbfbf" stroke="black" points="343.5,-270.5 343.5,-333.5 548.5,-333.5 548.5,-270.5 343.5,-270.5"/>
<text text-anchor="start" x="351.5" y="-321.5" font-family="Helvetica,sans-Serif" font-size="10.00">/home/travis/build</text>
<text text-anchor="start" x="351.5" y="-310.5" font-family="Helvetica,sans-Serif" font-size="10.00">/AliceO2Group/AliceO2</text>
<text text-anchor="start" x="351.5" y="-299.5" font-family="Helvetica,sans-Serif" font-size="10.00">/Detectors/MUON/MID/Simulation</text>
<text text-anchor="start" x="351.5" y="-288.5" font-family="Helvetica,sans-Serif" font-size="10.00">/include/MIDSimulation/ChamberResponse</text>
<text text-anchor="middle" x="446" y="-277.5" font-family="Helvetica,sans-Serif" font-size="10.00">Params.h</text>
</g>
<!-- Node2 -->
<g id="node2" class="node"><title>Node2</title>
<g id="a_node2"><a xlink:href="../../d5/d62/ChamberResponse_8h.html" target="_top" xlink:title="MID RPC response. ">
<polygon fill="none" stroke="black" points="124.5,-181 124.5,-233 337.5,-233 337.5,-181 124.5,-181"/>
<text text-anchor="start" x="132.5" y="-221" font-family="Helvetica,sans-Serif" font-size="10.00">/home/travis/build</text>
<text text-anchor="start" x="132.5" y="-210" font-family="Helvetica,sans-Serif" font-size="10.00">/AliceO2Group/AliceO2</text>
<text text-anchor="start" x="132.5" y="-199" font-family="Helvetica,sans-Serif" font-size="10.00">/Detectors/MUON/MID/Simulation</text>
<text text-anchor="middle" x="231" y="-188" font-family="Helvetica,sans-Serif" font-size="10.00">/include/MIDSimulation/ChamberResponse.h</text>
</a>
</g>
</g>
<!-- Node1&#45;&gt;Node2 -->
<g id="edge1" class="edge"><title>Node1&#45;&gt;Node2</title>
<path fill="none" stroke="midnightblue" d="M365.982,-266.388C340.377,-255.312 312.541,-243.271 288.835,-233.017"/>
<polygon fill="midnightblue" stroke="midnightblue" points="364.735,-269.662 375.303,-270.42 367.515,-263.237 364.735,-269.662"/>
</g>
<!-- Node5 -->
<g id="node5" class="node"><title>Node5</title>
<g id="a_node5"><a xlink:href="../../d6/d45/testSimulation_8cxx.html" target="_top" xlink:title="/home/travis/build\l/AliceO2Group/AliceO2\l/Detectors/MUON/MID/Simulation\l/test/testSimulation.cxx">
<polygon fill="none" stroke="black" points="362.5,-1 362.5,-53 529.5,-53 529.5,-1 362.5,-1"/>
<text text-anchor="start" x="370.5" y="-41" font-family="Helvetica,sans-Serif" font-size="10.00">/home/travis/build</text>
<text text-anchor="start" x="370.5" y="-30" font-family="Helvetica,sans-Serif" font-size="10.00">/AliceO2Group/AliceO2</text>
<text text-anchor="start" x="370.5" y="-19" font-family="Helvetica,sans-Serif" font-size="10.00">/Detectors/MUON/MID/Simulation</text>
<text text-anchor="middle" x="446" y="-8" font-family="Helvetica,sans-Serif" font-size="10.00">/test/testSimulation.cxx</text>
</a>
</g>
</g>
<!-- Node1&#45;&gt;Node5 -->
<g id="edge9" class="edge"><title>Node1&#45;&gt;Node5</title>
<path fill="none" stroke="midnightblue" d="M446,-260.339C446,-203.08 446,-100.409 446,-53.1116"/>
<polygon fill="midnightblue" stroke="midnightblue" points="442.5,-260.478 446,-270.478 449.5,-260.478 442.5,-260.478"/>
</g>
<!-- Node8 -->
<g id="node8" class="node"><title>Node8</title>
<g id="a_node8"><a xlink:href="../../d5/d0a/ChamberResponseParams_8cxx.html" target="_top" xlink:title="Implementation of the parameters for MID RPC response. ">
<polygon fill="none" stroke="black" points="474.5,-181 474.5,-233 647.5,-233 647.5,-181 474.5,-181"/>
<text text-anchor="start" x="482.5" y="-221" font-family="Helvetica,sans-Serif" font-size="10.00">/home/travis/build</text>
<text text-anchor="start" x="482.5" y="-210" font-family="Helvetica,sans-Serif" font-size="10.00">/AliceO2Group/AliceO2</text>
<text text-anchor="start" x="482.5" y="-199" font-family="Helvetica,sans-Serif" font-size="10.00">/Detectors/MUON/MID/Simulation</text>
<text text-anchor="middle" x="561" y="-188" font-family="Helvetica,sans-Serif" font-size="10.00">/src/ChamberResponseParams.cxx</text>
</a>
</g>
</g>
<!-- Node1&#45;&gt;Node8 -->
<g id="edge8" class="edge"><title>Node1&#45;&gt;Node8</title>
<path fill="none" stroke="midnightblue" d="M491.818,-263.947C504.621,-253.593 518.231,-242.587 529.962,-233.1"/>
<polygon fill="midnightblue" stroke="midnightblue" points="489.549,-261.281 483.974,-270.291 493.95,-266.724 489.549,-261.281"/>
</g>
<!-- Node3 -->
<g id="node3" class="node"><title>Node3</title>
<g id="a_node3"><a xlink:href="../../da/de1/MUON_2MID_2Simulation_2include_2MIDSimulation_2Digitizer_8h.html" target="_top" xlink:title="Digitizer for MID. ">
<polygon fill="none" stroke="black" points="251.5,-91 251.5,-143 418.5,-143 418.5,-91 251.5,-91"/>
<text text-anchor="start" x="259.5" y="-131" font-family="Helvetica,sans-Serif" font-size="10.00">/home/travis/build</text>
<text text-anchor="start" x="259.5" y="-120" font-family="Helvetica,sans-Serif" font-size="10.00">/AliceO2Group/AliceO2</text>
<text text-anchor="start" x="259.5" y="-109" font-family="Helvetica,sans-Serif" font-size="10.00">/Detectors/MUON/MID/Simulation</text>
<text text-anchor="middle" x="335" y="-98" font-family="Helvetica,sans-Serif" font-size="10.00">/include/MIDSimulation/Digitizer.h</text>
</a>
</g>
</g>
<!-- Node2&#45;&gt;Node3 -->
<g id="edge2" class="edge"><title>Node2&#45;&gt;Node3</title>
<path fill="none" stroke="midnightblue" d="M268.532,-174.242C280.587,-164.042 293.77,-152.887 305.193,-143.221"/>
<polygon fill="midnightblue" stroke="midnightblue" points="266.175,-171.651 260.802,-180.783 270.697,-176.995 266.175,-171.651"/>
</g>
<!-- Node6 -->
<g id="node6" class="node"><title>Node6</title>
<g id="a_node6"><a xlink:href="../../d4/dd3/MIDDigitizerSpec_8cxx.html" target="_top" xlink:title="/home/travis/build\l/AliceO2Group/AliceO2\l/Steer/DigitizerWorkflow\l/src/MIDDigitizerSpec.cxx">
<polygon fill="none" stroke="black" points="0,-1 0,-53 132,-53 132,-1 0,-1"/>
<text text-anchor="start" x="8" y="-41" font-family="Helvetica,sans-Serif" font-size="10.00">/home/travis/build</text>
<text text-anchor="start" x="8" y="-30" font-family="Helvetica,sans-Serif" font-size="10.00">/AliceO2Group/AliceO2</text>
<text text-anchor="start" x="8" y="-19" font-family="Helvetica,sans-Serif" font-size="10.00">/Steer/DigitizerWorkflow</text>
<text text-anchor="middle" x="66" y="-8" font-family="Helvetica,sans-Serif" font-size="10.00">/src/MIDDigitizerSpec.cxx</text>
</a>
</g>
</g>
<!-- Node2&#45;&gt;Node6 -->
<g id="edge7" class="edge"><title>Node2&#45;&gt;Node6</title>
<path fill="none" stroke="midnightblue" d="M114.757,-186.698C92.1029,-177.482 71.0515,-163.924 57,-144 38.2566,-117.424 46.6486,-78.3947 55.4582,-53.0877"/>
<polygon fill="midnightblue" stroke="midnightblue" points="113.607,-190.005 124.198,-190.265 116.081,-183.457 113.607,-190.005"/>
</g>
<!-- Node7 -->
<g id="node7" class="node"><title>Node7</title>
<g id="a_node7"><a xlink:href="../../de/dc3/ChamberResponse_8cxx.html" target="_top" xlink:title="Implementation MID RPC response. ">
<polygon fill="none" stroke="black" points="66.5,-91 66.5,-143 233.5,-143 233.5,-91 66.5,-91"/>
<text text-anchor="start" x="74.5" y="-131" font-family="Helvetica,sans-Serif" font-size="10.00">/home/travis/build</text>
<text text-anchor="start" x="74.5" y="-120" font-family="Helvetica,sans-Serif" font-size="10.00">/AliceO2Group/AliceO2</text>
<text text-anchor="start" x="74.5" y="-109" font-family="Helvetica,sans-Serif" font-size="10.00">/Detectors/MUON/MID/Simulation</text>
<text text-anchor="middle" x="150" y="-98" font-family="Helvetica,sans-Serif" font-size="10.00">/src/ChamberResponse.cxx</text>
</a>
</g>
</g>
<!-- Node2&#45;&gt;Node7 -->
<g id="edge6" class="edge"><title>Node2&#45;&gt;Node7</title>
<path fill="none" stroke="midnightblue" d="M200.753,-173.139C191.601,-163.196 181.701,-152.441 173.096,-143.092"/>
<polygon fill="midnightblue" stroke="midnightblue" points="198.224,-175.559 207.571,-180.547 203.374,-170.819 198.224,-175.559"/>
</g>
<!-- Node4 -->
<g id="node4" class="node"><title>Node4</title>
<g id="a_node4"><a xlink:href="../../d6/df9/MUON_2MID_2Simulation_2src_2Digitizer_8cxx.html" target="_top" xlink:title="Implementation of the digitizer for MID. ">
<polygon fill="none" stroke="black" points="177.5,-1 177.5,-53 344.5,-53 344.5,-1 177.5,-1"/>
<text text-anchor="start" x="185.5" y="-41" font-family="Helvetica,sans-Serif" font-size="10.00">/home/travis/build</text>
<text text-anchor="start" x="185.5" y="-30" font-family="Helvetica,sans-Serif" font-size="10.00">/AliceO2Group/AliceO2</text>
<text text-anchor="start" x="185.5" y="-19" font-family="Helvetica,sans-Serif" font-size="10.00">/Detectors/MUON/MID/Simulation</text>
<text text-anchor="middle" x="261" y="-8" font-family="Helvetica,sans-Serif" font-size="10.00">/src/Digitizer.cxx</text>
</a>
</g>
</g>
<!-- Node3&#45;&gt;Node4 -->
<g id="edge3" class="edge"><title>Node3&#45;&gt;Node4</title>
<path fill="none" stroke="midnightblue" d="M307.12,-82.8459C298.828,-72.9851 289.885,-62.3492 282.1,-53.0921"/>
<polygon fill="midnightblue" stroke="midnightblue" points="304.481,-85.1457 313.596,-90.5468 309.839,-80.6405 304.481,-85.1457"/>
</g>
<!-- Node3&#45;&gt;Node5 -->
<g id="edge4" class="edge"><title>Node3&#45;&gt;Node5</title>
<path fill="none" stroke="midnightblue" d="M374.691,-84.5335C387.657,-74.2542 401.879,-62.9791 414.187,-53.221"/>
<polygon fill="midnightblue" stroke="midnightblue" points="372.47,-81.8276 366.808,-90.7827 376.819,-87.3129 372.47,-81.8276"/>
</g>
<!-- Node3&#45;&gt;Node6 -->
<g id="edge5" class="edge"><title>Node3&#45;&gt;Node6</title>
<path fill="none" stroke="midnightblue" d="M248.334,-87.6484C210.701,-75.3373 167.324,-61.1469 132.322,-49.6963"/>
<polygon fill="midnightblue" stroke="midnightblue" points="247.683,-91.1177 258.275,-90.9005 249.859,-84.4647 247.683,-91.1177"/>
</g>
</g>
</svg>
        <g id="navigator" transform="translate(0 0)" fill="#404254">
                <rect fill="#f2f5e9" fill-opacity="0.5" stroke="#606060" stroke-width=".5" x="0" y="0" width="60" height="60"/>
                <use id="zoomplus" xlink:href="#zoomPlus" x="17" y="9" onmousedown="handleZoom(evt,'in')"/>
                <use id="zoomminus" xlink:href="#zoomMin" x="42" y="9" onmousedown="handleZoom(evt,'out')"/>
                <use id="reset" xlink:href="#resetDef" x="30" y="36" onmousedown="handleReset()"/>
                <g id="arrowUp" xlink:href="#dirArrow" transform="translate(30 24)" onmousedown="handlePan(0,-1)">
                  <use xlink:href="#rim" fill="#404040">
                        <set attributeName="fill" to="#808080" begin="arrowUp.mouseover" end="arrowUp.mouseout"/>
                  </use>
                  <path fill="none" stroke="white" stroke-width="1.5" d="M0,-3.0v7 M-2.5,-0.5L0,-3.0L2.5,-0.5"/>
                </g>
                <g id="arrowRight" xlink:href="#dirArrow" transform="rotate(90) translate(36 -43)" onmousedown="handlePan(1,0)">
                  <use xlink:href="#rim" fill="#404040">
                        <set attributeName="fill" to="#808080" begin="arrowRight.mouseover" end="arrowRight.mouseout"/>
                  </use>
                  <path fill="none" stroke="white" stroke-width="1.5" d="M0,-3.0v7 M-2.5,-0.5L0,-3.0L2.5,-0.5"/>
                </g>
                <g id="arrowDown" xlink:href="#dirArrow" transform="rotate(180) translate(-30 -48)" onmousedown="handlePan(0,1)">
                  <use xlink:href="#rim" fill="#404040">
                        <set attributeName="fill" to="#808080" begin="arrowDown.mouseover" end="arrowDown.mouseout"/>
                  </use>
                  <path fill="none" stroke="white" stroke-width="1.5" d="M0,-3.0v7 M-2.5,-0.5L0,-3.0L2.5,-0.5"/>
                </g>
                <g id="arrowLeft" xlink:href="#dirArrow" transform="rotate(270) translate(-36 17)" onmousedown="handlePan(-1,0)">
                  <use xlink:href="#rim" fill="#404040">
                        <set attributeName="fill" to="#808080" begin="arrowLeft.mouseover" end="arrowLeft.mouseout"/>
                  </use>
                  <path fill="none" stroke="white" stroke-width="1.5" d="M0,-3.0v7 M-2.5,-0.5L0,-3.0L2.5,-0.5"/>
                </g>
        </g>
        <svg viewBox="0 0 15 15" width="100%" height="30px" preserveAspectRatio="xMaxYMin meet">
         <g id="arrow_out" transform="scale(0.3 0.3)">
          <a xlink:href="ChamberResponseParams_8h__dep__incl_org.svg" target="_base">
           <rect id="button" ry="5" rx="5" y="6" x="6" height="38" width="38"
                fill="#f2f5e9" fill-opacity="0.5" stroke="#606060" stroke-width="1.0"/>
           <path id="arrow"
             d="M 11.500037,31.436501 C 11.940474,20.09759 22.043105,11.32322 32.158766,21.979434 L 37.068811,17.246167 C 37.068811,17.246167 37.088388,32 37.088388,32 L 22.160133,31.978069 C 22.160133,31.978069 26.997745,27.140456 26.997745,27.140456 C 18.528582,18.264221 13.291696,25.230495 11.500037,31.436501 z"
             style="fill:#404040;"/>
          </a>
         </g>
        </svg>
</svg>
