<?xml version="1.0" encoding="UTF-8" standalone="no"?>
<!DOCTYPE svg PUBLIC "-//W3C//DTD SVG 1.1//EN"
 "http://www.w3.org/Graphics/SVG/1.1/DTD/svg11.dtd">
<!-- Generated by graphviz version 2.36.0 (20140111.2315)
 -->
<!-- Title: sg_vertex_attr_desc Pages: 1 -->
<svg width="230pt" height="194pt"
 viewBox="0.00 0.00 230.00 194.00" xmlns="http://www.w3.org/2000/svg" xmlns:xlink="http://www.w3.org/1999/xlink">
<g id="graph0" class="graph" transform="scale(1 1) rotate(0) translate(4 190)">
<title>sg_vertex_attr_desc</title>
<!-- Node1 -->
<g id="node1" class="node"><title>Node1</title>
<polygon fill="#bfbfbf" stroke="black" points="46.5,-0.5 46.5,-57.5 151.5,-57.5 151.5,-0.5 46.5,-0.5"/>
<text text-anchor="middle" x="99" y="-45.5" font-family="Helvetica,sans-Serif" font-size="10.00">sg_vertex_attr_desc</text>
<polyline fill="none" stroke="black" points="46.5,-38.5 151.5,-38.5 "/>
<text text-anchor="middle" x="99" y="-26.5" font-family="Helvetica,sans-Serif" font-size="10.00"> </text>
<polyline fill="none" stroke="black" points="46.5,-19.5 151.5,-19.5 "/>
<text text-anchor="middle" x="99" y="-7.5" font-family="Helvetica,sans-Serif" font-size="10.00"> </text>
</g>
<!-- Node2 -->
<g id="node2" class="node"><title>Node2</title>
<polygon fill="none" stroke="#bfbfbf" points="-0.5,-128.5 -0.5,-185.5 34.5,-185.5 34.5,-128.5 -0.5,-128.5"/>
<text text-anchor="middle" x="17" y="-173.5" font-family="Helvetica,sans-Serif" font-size="10.00">char</text>
<polyline fill="none" stroke="#bfbfbf" points="-0.5,-166.5 34.5,-166.5 "/>
<text text-anchor="middle" x="17" y="-154.5" font-family="Helvetica,sans-Serif" font-size="10.00"> </text>
<polyline fill="none" stroke="#bfbfbf" points="-0.5,-147.5 34.5,-147.5 "/>
<text text-anchor="middle" x="17" y="-135.5" font-family="Helvetica,sans-Serif" font-size="10.00"> </text>
</g>
<!-- Node2&#45;&gt;Node1 -->
<g id="edge1" class="edge"><title>Node2&#45;&gt;Node1</title>
<path fill="none" stroke="#404040" d="M20.586,-128.25C23.7145,-111.953 29.4812,-91.5661 40,-76 42.3248,-72.5596 44.9891,-69.2612 47.8718,-66.1228"/>
<polygon fill="none" stroke="#404040" points="47.8909,-66.1042 49.3866,-59.0499 56.4735,-57.7174 54.9778,-64.7717 47.8909,-66.1042"/>
<text text-anchor="middle" x="67.5" y="-96" font-family="Helvetica,sans-Serif" font-size="10.00"> +name</text>
<text text-anchor="middle" x="67.5" y="-85" font-family="Helvetica,sans-Serif" font-size="10.00">+sem_name</text>
</g>
<!-- Node3 -->
<g id="node3" class="node"><title>Node3</title>
<polygon fill="none" stroke="#bfbfbf" points="53,-128.5 53,-185.5 145,-185.5 145,-128.5 53,-128.5"/>
<text text-anchor="middle" x="99" y="-173.5" font-family="Helvetica,sans-Serif" font-size="10.00">sg_vertex_format</text>
<polyline fill="none" stroke="#bfbfbf" points="53,-166.5 145,-166.5 "/>
<text text-anchor="middle" x="99" y="-154.5" font-family="Helvetica,sans-Serif" font-size="10.00"> </text>
<polyline fill="none" stroke="#bfbfbf" points="53,-147.5 145,-147.5 "/>
<text text-anchor="middle" x="99" y="-135.5" font-family="Helvetica,sans-Serif" font-size="10.00"> </text>
</g>
<!-- Node3&#45;&gt;Node1 -->
<g id="edge2" class="edge"><title>Node3&#45;&gt;Node1</title>
<path fill="none" stroke="#404040" d="M99,-128.349C99,-111.198 99,-88.8785 99,-69.8384"/>
<polygon fill="none" stroke="#404040" points="99.0001,-69.5867 95,-63.5868 99,-57.5867 103,-63.5867 99.0001,-69.5867"/>
<text text-anchor="middle" x="117.5" y="-90.5" font-family="Helvetica,sans-Serif" font-size="10.00"> +format</text>
</g>
<!-- Node4 -->
<g id="node4" class="node"><title>Node4</title>
<g id="a_node4"><a xlink:href="../../d1/da0/classint.html" target="_top" xlink:title="{int\n||}">
<polygon fill="none" stroke="black" points="163.5,-128.5 163.5,-185.5 192.5,-185.5 192.5,-128.5 163.5,-128.5"/>
<text text-anchor="middle" x="178" y="-173.5" font-family="Helvetica,sans-Serif" font-size="10.00">int</text>
<polyline fill="none" stroke="black" points="163.5,-166.5 192.5,-166.5 "/>
<text text-anchor="middle" x="178" y="-154.5" font-family="Helvetica,sans-Serif" font-size="10.00"> </text>
<polyline fill="none" stroke="black" points="163.5,-147.5 192.5,-147.5 "/>
<text text-anchor="middle" x="178" y="-135.5" font-family="Helvetica,sans-Serif" font-size="10.00"> </text>
</a>
</g>
</g>
<!-- Node4&#45;&gt;Node1 -->
<g id="edge3" class="edge"><title>Node4&#45;&gt;Node1</title>
<path fill="none" stroke="#404040" d="M167.16,-128.301C160.38,-112.401 150.88,-92.4008 140,-76 138.06,-73.0749 135.943,-70.1439 133.727,-67.2566"/>
<polygon fill="none" stroke="#404040" points="133.504,-66.983 126.613,-64.8584 125.924,-57.6803 132.815,-59.8049 133.504,-66.983"/>
<text text-anchor="middle" x="190.5" y="-101.5" font-family="Helvetica,sans-Serif" font-size="10.00"> +buffer_index</text>
<text text-anchor="middle" x="190.5" y="-90.5" font-family="Helvetica,sans-Serif" font-size="10.00">+offset</text>
<text text-anchor="middle" x="190.5" y="-79.5" font-family="Helvetica,sans-Serif" font-size="10.00">+sem_index</text>
</g>
</g>
</svg>
