<?xml version="1.0" encoding="UTF-8" standalone="no"?>
<!DOCTYPE svg PUBLIC "-//W3C//DTD SVG 1.1//EN"
 "http://www.w3.org/Graphics/SVG/1.1/DTD/svg11.dtd">
<!-- Generated by graphviz version 2.36.0 (20140111.2315)
 -->
<!-- Title: /home/travis/build/AliceO2Group/AliceO2/Detectors/ITSMFT/ITS/reconstruction/include/ITSReconstruction/CookedTracker.h Pages: 1 -->
<svg width="2793pt" height="536pt"
 viewBox="0.00 0.00 2793.00 536.00" xmlns="http://www.w3.org/2000/svg" xmlns:xlink="http://www.w3.org/1999/xlink">
<g id="graph0" class="graph" transform="scale(1 1) rotate(0) translate(4 532)">
<title>/home/travis/build/AliceO2Group/AliceO2/Detectors/ITSMFT/ITS/reconstruction/include/ITSReconstruction/CookedTracker.h</title>
<!-- Node1 -->
<g id="node1" class="node"><title>Node1</title>
<polygon fill="#bfbfbf" stroke="black" points="207.5,-464.5 207.5,-527.5 386.5,-527.5 386.5,-464.5 207.5,-464.5"/>
<text text-anchor="start" x="215.5" y="-515.5" font-family="Helvetica,sans-Serif" font-size="10.00">/home/travis/build</text>
<text text-anchor="start" x="215.5" y="-504.5" font-family="Helvetica,sans-Serif" font-size="10.00">/AliceO2Group/AliceO2</text>
<text text-anchor="start" x="215.5" y="-493.5" font-family="Helvetica,sans-Serif" font-size="10.00">/Detectors/ITSMFT/ITS</text>
<text text-anchor="start" x="215.5" y="-482.5" font-family="Helvetica,sans-Serif" font-size="10.00">/reconstruction/include</text>
<text text-anchor="middle" x="297" y="-471.5" font-family="Helvetica,sans-Serif" font-size="10.00">/ITSReconstruction/CookedTracker.h</text>
</g>
<!-- Node2 -->
<g id="node2" class="node"><title>Node2</title>
<polygon fill="none" stroke="#bfbfbf" points="54,-142.5 54,-161.5 98,-161.5 98,-142.5 54,-142.5"/>
<text text-anchor="middle" x="76" y="-149.5" font-family="Helvetica,sans-Serif" font-size="10.00">vector</text>
</g>
<!-- Node1&#45;&gt;Node2 -->
<g id="edge1" class="edge"><title>Node1&#45;&gt;Node2</title>
<path fill="none" stroke="midnightblue" d="M207.487,-490.242C120.038,-480.188 0,-449.534 0,-357 0,-357 0,-357 0,-287 0,-239.151 37.118,-192.736 59.474,-169.12"/>
<polygon fill="midnightblue" stroke="midnightblue" points="62.1902,-171.348 66.6809,-161.752 57.1862,-166.453 62.1902,-171.348"/>
</g>
<!-- Node3 -->
<g id="node3" class="node"><title>Node3</title>
<g id="a_node3"><a xlink:href="../../df/d9a/ITS_2base_2include_2ITSBase_2GeometryTGeo_8h.html" target="_top" xlink:title="ITSBase/GeometryTGeo.h">
<polygon fill="none" stroke="black" points="280.5,-346.5 280.5,-365.5 413.5,-365.5 413.5,-346.5 280.5,-346.5"/>
<text text-anchor="middle" x="347" y="-353.5" font-family="Helvetica,sans-Serif" font-size="10.00">ITSBase/GeometryTGeo.h</text>
</a>
</g>
</g>
<!-- Node1&#45;&gt;Node3 -->
<g id="edge2" class="edge"><title>Node1&#45;&gt;Node3</title>
<path fill="none" stroke="midnightblue" d="M311.851,-464.367C317.018,-453.083 322.613,-440.102 327,-428 333.33,-410.539 338.907,-390.075 342.552,-375.614"/>
<polygon fill="midnightblue" stroke="midnightblue" points="345.958,-376.421 344.944,-365.875 339.16,-374.752 345.958,-376.421"/>
</g>
<!-- Node24 -->
<g id="node24" class="node"><title>Node24</title>
<g id="a_node24"><a xlink:href="../../dd/d76/Cartesian3D_8h.html" target="_top" xlink:title="MathUtils/Cartesian3D.h">
<polygon fill="none" stroke="black" points="1742.5,-142.5 1742.5,-161.5 1867.5,-161.5 1867.5,-142.5 1742.5,-142.5"/>
<text text-anchor="middle" x="1805" y="-149.5" font-family="Helvetica,sans-Serif" font-size="10.00">MathUtils/Cartesian3D.h</text>
</a>
</g>
</g>
<!-- Node1&#45;&gt;Node24 -->
<g id="edge53" class="edge"><title>Node1&#45;&gt;Node24</title>
<path fill="none" stroke="midnightblue" d="M386.775,-494.5C816.427,-491.532 2642,-472.146 2642,-357 2642,-357 2642,-357 2642,-287 2642,-209.891 2080.99,-169.224 1877.56,-157.013"/>
<polygon fill="midnightblue" stroke="midnightblue" points="1877.76,-153.519 1867.57,-156.419 1877.34,-160.506 1877.76,-153.519"/>
</g>
<!-- Node39 -->
<g id="node39" class="node"><title>Node39</title>
<g id="a_node39"><a xlink:href="../../d1/d71/TrackITS_8h.html" target="_top" xlink:title="Definition of the ITS track. ">
<polygon fill="none" stroke="black" points="177.5,-408.5 177.5,-427.5 318.5,-427.5 318.5,-408.5 177.5,-408.5"/>
<text text-anchor="middle" x="248" y="-415.5" font-family="Helvetica,sans-Serif" font-size="10.00">DataFormatsITS/TrackITS.h</text>
</a>
</g>
</g>
<!-- Node1&#45;&gt;Node39 -->
<g id="edge54" class="edge"><title>Node1&#45;&gt;Node39</title>
<path fill="none" stroke="midnightblue" d="M277.07,-464.088C270.976,-454.636 264.491,-444.577 259.196,-436.364"/>
<polygon fill="midnightblue" stroke="midnightblue" points="261.981,-434.226 253.621,-427.718 256.098,-438.019 261.981,-434.226"/>
</g>
<!-- Node3&#45;&gt;Node2 -->
<g id="edge7" class="edge"><title>Node3&#45;&gt;Node2</title>
<path fill="none" stroke="midnightblue" d="M280.117,-353.947C235.177,-349.89 177.22,-337.729 138,-304 97.6224,-269.276 83.1155,-204.164 78.2554,-171.989"/>
<polygon fill="midnightblue" stroke="midnightblue" points="81.6785,-171.184 76.8712,-161.743 74.7415,-172.121 81.6785,-171.184"/>
</g>
<!-- Node4 -->
<g id="node4" class="node"><title>Node4</title>
<polygon fill="none" stroke="#bfbfbf" points="1541,-74.5 1541,-93.5 1617,-93.5 1617,-74.5 1541,-74.5"/>
<text text-anchor="middle" x="1579" y="-81.5" font-family="Helvetica,sans-Serif" font-size="10.00">TGeoMatrix.h</text>
</g>
<!-- Node3&#45;&gt;Node4 -->
<g id="edge3" class="edge"><title>Node3&#45;&gt;Node4</title>
<path fill="none" stroke="midnightblue" d="M289.228,-346.447C259.46,-339.43 224.392,-326.76 200,-304 166.166,-272.429 139.27,-237.684 171,-204 216.946,-155.224 706.561,-176.713 773,-168 843.608,-158.74 859.411,-145.401 930,-136 1178.98,-102.84 1244.61,-129.871 1494,-100 1505.85,-98.5803 1518.56,-96.5916 1530.44,-94.5256"/>
<polygon fill="midnightblue" stroke="midnightblue" points="1531.4,-97.9094 1540.63,-92.7024 1530.17,-91.0189 1531.4,-97.9094"/>
</g>
<!-- Node5 -->
<g id="node5" class="node"><title>Node5</title>
<polygon fill="none" stroke="#bfbfbf" points="993.5,-210.5 993.5,-229.5 1052.5,-229.5 1052.5,-210.5 993.5,-210.5"/>
<text text-anchor="middle" x="1023" y="-217.5" font-family="Helvetica,sans-Serif" font-size="10.00">TObject.h</text>
</g>
<!-- Node3&#45;&gt;Node5 -->
<g id="edge4" class="edge"><title>Node3&#45;&gt;Node5</title>
<path fill="none" stroke="midnightblue" d="M413.655,-350.632C496.842,-344.325 643.132,-330.412 766,-304 849.452,-286.061 944.181,-251.662 991.945,-233.285"/>
<polygon fill="midnightblue" stroke="midnightblue" points="993.345,-236.497 1001.4,-229.619 990.815,-229.97 993.345,-236.497"/>
</g>
<!-- Node6 -->
<g id="node6" class="node"><title>Node6</title>
<polygon fill="none" stroke="#bfbfbf" points="1236,-6.5 1236,-25.5 1274,-25.5 1274,-6.5 1236,-6.5"/>
<text text-anchor="middle" x="1255" y="-13.5" font-family="Helvetica,sans-Serif" font-size="10.00">array</text>
</g>
<!-- Node3&#45;&gt;Node6 -->
<g id="edge5" class="edge"><title>Node3&#45;&gt;Node6</title>
<path fill="none" stroke="midnightblue" d="M280.275,-347.388C219.409,-339.273 135.104,-324.725 109,-304 46.4225,-254.318 -7.85836,-195.918 45,-136 125.784,-44.4261 1049.19,-21.1715 1225.88,-17.5484"/>
<polygon fill="midnightblue" stroke="midnightblue" points="1226.05,-21.0457 1235.98,-17.3462 1225.91,-14.0471 1226.05,-21.0457"/>
</g>
<!-- Node7 -->
<g id="node7" class="node"><title>Node7</title>
<polygon fill="none" stroke="#bfbfbf" points="267.5,-210.5 267.5,-229.5 308.5,-229.5 308.5,-210.5 267.5,-210.5"/>
<text text-anchor="middle" x="288" y="-217.5" font-family="Helvetica,sans-Serif" font-size="10.00">string</text>
</g>
<!-- Node3&#45;&gt;Node7 -->
<g id="edge6" class="edge"><title>Node3&#45;&gt;Node7</title>
<path fill="none" stroke="midnightblue" d="M280.291,-346.933C253.555,-340.056 225.278,-327.369 209,-304 200.871,-292.33 202.197,-284.49 209,-272 214.892,-261.184 241.283,-245.4 261.962,-234.263"/>
<polygon fill="midnightblue" stroke="midnightblue" points="263.759,-237.272 270.967,-229.507 260.49,-231.082 263.759,-237.272"/>
</g>
<!-- Node8 -->
<g id="node8" class="node"><title>Node8</title>
<g id="a_node8"><a xlink:href="../../db/dcc/Detectors_2Base_2include_2DetectorsBase_2GeometryManager_8h.html" target="_top" xlink:title="DetectorsBase/GeometryManager.h">
<polygon fill="none" stroke="black" points="584.5,-278.5 584.5,-297.5 757.5,-297.5 757.5,-278.5 584.5,-278.5"/>
<text text-anchor="middle" x="671" y="-285.5" font-family="Helvetica,sans-Serif" font-size="10.00">DetectorsBase/GeometryManager.h</text>
</a>
</g>
</g>
<!-- Node3&#45;&gt;Node8 -->
<g id="edge8" class="edge"><title>Node3&#45;&gt;Node8</title>
<path fill="none" stroke="midnightblue" d="M389.025,-346.439C448.023,-334.421 555.319,-312.565 619.186,-299.555"/>
<polygon fill="midnightblue" stroke="midnightblue" points="619.949,-302.971 629.049,-297.546 618.552,-296.112 619.949,-302.971"/>
</g>
<!-- Node14 -->
<g id="node14" class="node"><title>Node14</title>
<g id="a_node14"><a xlink:href="../../d6/d31/DetID_8h.html" target="_top" xlink:title="DetectorsCommonDataFormats\l/DetID.h">
<polygon fill="none" stroke="black" points="608,-137 608,-167 764,-167 764,-137 608,-137"/>
<text text-anchor="start" x="616" y="-155" font-family="Helvetica,sans-Serif" font-size="10.00">DetectorsCommonDataFormats</text>
<text text-anchor="middle" x="686" y="-144" font-family="Helvetica,sans-Serif" font-size="10.00">/DetID.h</text>
</a>
</g>
</g>
<!-- Node3&#45;&gt;Node14 -->
<g id="edge40" class="edge"><title>Node3&#45;&gt;Node14</title>
<path fill="none" stroke="midnightblue" d="M354.825,-346.401C362.936,-336.853 375.102,-320.587 380,-304 384.028,-290.36 384.121,-285.612 380,-272 374.428,-253.595 361.572,-254.405 356,-236 351.879,-222.388 346.743,-214.797 356,-204 386.579,-168.333 510.72,-157.386 597.691,-154.154"/>
<polygon fill="midnightblue" stroke="midnightblue" points="597.965,-157.647 607.839,-153.806 597.724,-150.651 597.965,-157.647"/>
</g>
<!-- Node15 -->
<g id="node15" class="node"><title>Node15</title>
<polygon fill="none" stroke="#bfbfbf" points="1283,-74.5 1283,-93.5 1339,-93.5 1339,-74.5 1283,-74.5"/>
<text text-anchor="middle" x="1311" y="-81.5" font-family="Helvetica,sans-Serif" font-size="10.00">Rtypes.h</text>
</g>
<!-- Node3&#45;&gt;Node15 -->
<g id="edge52" class="edge"><title>Node3&#45;&gt;Node15</title>
<path fill="none" stroke="midnightblue" d="M413.768,-350.839C615.793,-337.65 1210.61,-294.186 1274,-236 1293.29,-218.296 1304.59,-140.705 1308.93,-104.163"/>
<polygon fill="midnightblue" stroke="midnightblue" points="1312.45,-104.2 1310.1,-93.8691 1305.5,-103.411 1312.45,-104.2"/>
</g>
<!-- Node20 -->
<g id="node20" class="node"><title>Node20</title>
<g id="a_node20"><a xlink:href="../../d9/d52/Common_2MathUtils_2include_2MathUtils_2Utils_8h.html" target="_top" xlink:title="MathUtils/Utils.h">
<polygon fill="none" stroke="black" points="1395,-74.5 1395,-93.5 1485,-93.5 1485,-74.5 1395,-74.5"/>
<text text-anchor="middle" x="1440" y="-81.5" font-family="Helvetica,sans-Serif" font-size="10.00">MathUtils/Utils.h</text>
</a>
</g>
</g>
<!-- Node3&#45;&gt;Node20 -->
<g id="edge51" class="edge"><title>Node3&#45;&gt;Node20</title>
<path fill="none" stroke="midnightblue" d="M413.698,-355.319C542.341,-354.836 833.214,-348.391 1073,-304 1174.89,-285.138 1204.08,-283.82 1296,-236 1339.54,-213.351 1349.38,-203.755 1383,-168 1402.12,-147.666 1419.56,-120.41 1429.98,-102.776"/>
<polygon fill="midnightblue" stroke="midnightblue" points="1433.29,-104.041 1435.27,-93.6308 1427.23,-100.539 1433.29,-104.041"/>
</g>
<!-- Node34 -->
<g id="node34" class="node"><title>Node34</title>
<g id="a_node34"><a xlink:href="../../d0/d2d/common_2base_2include_2ITSMFTBase_2GeometryTGeo_8h.html" target="_top" xlink:title="ITSMFTBase/GeometryTGeo.h">
<polygon fill="none" stroke="black" points="218.5,-278.5 218.5,-297.5 371.5,-297.5 371.5,-278.5 218.5,-278.5"/>
<text text-anchor="middle" x="295" y="-285.5" font-family="Helvetica,sans-Serif" font-size="10.00">ITSMFTBase/GeometryTGeo.h</text>
</a>
</g>
</g>
<!-- Node3&#45;&gt;Node34 -->
<g id="edge41" class="edge"><title>Node3&#45;&gt;Node34</title>
<path fill="none" stroke="midnightblue" d="M340.202,-346.372C332.149,-336.151 318.545,-318.884 308.36,-305.957"/>
<polygon fill="midnightblue" stroke="midnightblue" points="310.904,-303.53 301.966,-297.841 305.405,-307.862 310.904,-303.53"/>
</g>
<!-- Node8&#45;&gt;Node5 -->
<g id="edge14" class="edge"><title>Node8&#45;&gt;Node5</title>
<path fill="none" stroke="midnightblue" d="M751.729,-278.477C815.515,-270.637 906.409,-257.002 984,-236 987.151,-235.147 990.399,-234.131 993.613,-233.034"/>
<polygon fill="midnightblue" stroke="midnightblue" points="994.834,-236.315 1003.02,-229.59 992.427,-229.741 994.834,-236.315"/>
</g>
<!-- Node8&#45;&gt;Node7 -->
<g id="edge15" class="edge"><title>Node8&#45;&gt;Node7</title>
<path fill="none" stroke="midnightblue" d="M612.189,-278.495C548.783,-269.089 444.969,-253.001 356,-236 343.817,-233.672 330.478,-230.801 318.866,-228.196"/>
<polygon fill="midnightblue" stroke="midnightblue" points="319.297,-224.705 308.77,-225.901 317.746,-231.531 319.297,-224.705"/>
</g>
<!-- Node9 -->
<g id="node9" class="node"><title>Node9</title>
<polygon fill="none" stroke="#bfbfbf" points="455,-210.5 455,-229.5 541,-229.5 541,-210.5 455,-210.5"/>
<text text-anchor="middle" x="498" y="-217.5" font-family="Helvetica,sans-Serif" font-size="10.00">TGeoManager.h</text>
</g>
<!-- Node8&#45;&gt;Node9 -->
<g id="edge9" class="edge"><title>Node8&#45;&gt;Node9</title>
<path fill="none" stroke="midnightblue" d="M648.383,-278.372C618.123,-266.827 564.297,-246.293 529.919,-233.177"/>
<polygon fill="midnightblue" stroke="midnightblue" points="530.939,-229.82 520.348,-229.526 528.444,-236.36 530.939,-229.82"/>
</g>
<!-- Node10 -->
<g id="node10" class="node"><title>Node10</title>
<polygon fill="none" stroke="#bfbfbf" points="559.5,-210.5 559.5,-229.5 642.5,-229.5 642.5,-210.5 559.5,-210.5"/>
<text text-anchor="middle" x="601" y="-217.5" font-family="Helvetica,sans-Serif" font-size="10.00">TGeoMaterial.h</text>
</g>
<!-- Node8&#45;&gt;Node10 -->
<g id="edge10" class="edge"><title>Node8&#45;&gt;Node10</title>
<path fill="none" stroke="midnightblue" d="M661.849,-278.372C650.696,-267.856 631.632,-249.882 617.81,-236.85"/>
<polygon fill="midnightblue" stroke="midnightblue" points="620.054,-234.155 610.377,-229.841 615.252,-239.248 620.054,-234.155"/>
</g>
<!-- Node11 -->
<g id="node11" class="node"><title>Node11</title>
<polygon fill="none" stroke="#bfbfbf" points="699,-210.5 699,-229.5 809,-229.5 809,-210.5 699,-210.5"/>
<text text-anchor="middle" x="754" y="-217.5" font-family="Helvetica,sans-Serif" font-size="10.00">TGeoPhysicalNode.h</text>
</g>
<!-- Node8&#45;&gt;Node11 -->
<g id="edge11" class="edge"><title>Node8&#45;&gt;Node11</title>
<path fill="none" stroke="midnightblue" d="M681.851,-278.372C695.397,-267.6 718.785,-249.002 735.254,-235.906"/>
<polygon fill="midnightblue" stroke="midnightblue" points="737.498,-238.594 743.147,-229.63 733.141,-233.115 737.498,-238.594"/>
</g>
<!-- Node12 -->
<g id="node12" class="node"><title>Node12</title>
<polygon fill="none" stroke="#bfbfbf" points="827.5,-210.5 827.5,-229.5 904.5,-229.5 904.5,-210.5 827.5,-210.5"/>
<text text-anchor="middle" x="866" y="-217.5" font-family="Helvetica,sans-Serif" font-size="10.00">TGeoShape.h</text>
</g>
<!-- Node8&#45;&gt;Node12 -->
<g id="edge12" class="edge"><title>Node8&#45;&gt;Node12</title>
<path fill="none" stroke="midnightblue" d="M696.493,-278.372C730.894,-266.728 792.315,-245.939 831.015,-232.841"/>
<polygon fill="midnightblue" stroke="midnightblue" points="832.46,-236.047 840.81,-229.526 830.216,-229.417 832.46,-236.047"/>
</g>
<!-- Node13 -->
<g id="node13" class="node"><title>Node13</title>
<polygon fill="none" stroke="#bfbfbf" points="922.5,-210.5 922.5,-229.5 975.5,-229.5 975.5,-210.5 922.5,-210.5"/>
<text text-anchor="middle" x="949" y="-217.5" font-family="Helvetica,sans-Serif" font-size="10.00">TMath.h</text>
</g>
<!-- Node8&#45;&gt;Node13 -->
<g id="edge13" class="edge"><title>Node8&#45;&gt;Node13</title>
<path fill="none" stroke="midnightblue" d="M726.05,-278.424C775.592,-269.996 850.06,-255.556 913,-236 915.578,-235.199 918.227,-234.283 920.861,-233.309"/>
<polygon fill="midnightblue" stroke="midnightblue" points="922.178,-236.552 930.189,-229.617 919.602,-230.043 922.178,-236.552"/>
</g>
<!-- Node8&#45;&gt;Node14 -->
<g id="edge16" class="edge"><title>Node8&#45;&gt;Node14</title>
<path fill="none" stroke="midnightblue" d="M671.984,-278.208C674.248,-257.984 679.891,-207.575 683.286,-177.244"/>
<polygon fill="midnightblue" stroke="midnightblue" points="686.791,-177.399 684.425,-167.071 679.834,-176.62 686.791,-177.399"/>
</g>
<!-- Node23 -->
<g id="node23" class="node"><title>Node23</title>
<polygon fill="none" stroke="#bfbfbf" points="365.5,-210.5 365.5,-229.5 436.5,-229.5 436.5,-210.5 365.5,-210.5"/>
<text text-anchor="middle" x="401" y="-217.5" font-family="Helvetica,sans-Serif" font-size="10.00">FairLogger.h</text>
</g>
<!-- Node8&#45;&gt;Node23 -->
<g id="edge27" class="edge"><title>Node8&#45;&gt;Node23</title>
<path fill="none" stroke="midnightblue" d="M627.548,-278.48C581.997,-269.24 508.495,-253.453 446,-236 442.376,-234.988 438.613,-233.859 434.875,-232.688"/>
<polygon fill="midnightblue" stroke="midnightblue" points="435.745,-229.291 425.153,-229.539 433.587,-235.95 435.745,-229.291"/>
</g>
<!-- Node8&#45;&gt;Node24 -->
<g id="edge28" class="edge"><title>Node8&#45;&gt;Node24</title>
<path fill="none" stroke="midnightblue" d="M757.571,-281.608C874.862,-273.863 1090.68,-258.052 1274,-236 1447.35,-215.147 1651,-180.432 1748.02,-163.262"/>
<polygon fill="midnightblue" stroke="midnightblue" points="1748.68,-166.7 1757.92,-161.506 1747.46,-159.807 1748.68,-166.7"/>
</g>
<!-- Node14&#45;&gt;Node6 -->
<g id="edge18" class="edge"><title>Node14&#45;&gt;Node6</title>
<path fill="none" stroke="midnightblue" d="M718.975,-136.929C741.287,-127.147 771.267,-113.489 797,-100 821.708,-87.0477 824.61,-77.047 851,-68 985.298,-21.9598 1157.5,-16.7687 1225.5,-16.6698"/>
<polygon fill="midnightblue" stroke="midnightblue" points="1225.85,-20.1706 1235.86,-16.6945 1225.87,-13.1706 1225.85,-20.1706"/>
</g>
<!-- Node14&#45;&gt;Node15 -->
<g id="edge17" class="edge"><title>Node14&#45;&gt;Node15</title>
<path fill="none" stroke="midnightblue" d="M764.245,-137.881C768.895,-137.214 773.506,-136.581 778,-136 962.931,-112.103 1185.3,-94.3427 1272.9,-87.7745"/>
<polygon fill="midnightblue" stroke="midnightblue" points="1273.19,-91.2627 1282.9,-87.0293 1272.67,-84.282 1273.19,-91.2627"/>
</g>
<!-- Node16 -->
<g id="node16" class="node"><title>Node16</title>
<polygon fill="none" stroke="#bfbfbf" points="860.5,-74.5 860.5,-93.5 901.5,-93.5 901.5,-74.5 860.5,-74.5"/>
<text text-anchor="middle" x="881" y="-81.5" font-family="Helvetica,sans-Serif" font-size="10.00">bitset</text>
</g>
<!-- Node14&#45;&gt;Node16 -->
<g id="edge19" class="edge"><title>Node14&#45;&gt;Node16</title>
<path fill="none" stroke="midnightblue" d="M728.307,-136.955C758.828,-126.786 800.998,-112.661 838,-100 842.124,-98.589 846.465,-97.0901 850.74,-95.6067"/>
<polygon fill="midnightblue" stroke="midnightblue" points="852.165,-98.8165 860.457,-92.2219 849.863,-92.206 852.165,-98.8165"/>
</g>
<!-- Node17 -->
<g id="node17" class="node"><title>Node17</title>
<polygon fill="none" stroke="#bfbfbf" points="595.5,-74.5 595.5,-93.5 644.5,-93.5 644.5,-74.5 595.5,-74.5"/>
<text text-anchor="middle" x="620" y="-81.5" font-family="Helvetica,sans-Serif" font-size="10.00">cassert</text>
</g>
<!-- Node14&#45;&gt;Node17 -->
<g id="edge20" class="edge"><title>Node14&#45;&gt;Node17</title>
<path fill="none" stroke="midnightblue" d="M671.679,-136.679C661.184,-126.184 646.932,-111.932 636.052,-101.052"/>
<polygon fill="midnightblue" stroke="midnightblue" points="638.374,-98.4245 628.828,-93.8283 633.425,-103.374 638.374,-98.4245"/>
</g>
<!-- Node18 -->
<g id="node18" class="node"><title>Node18</title>
<polygon fill="none" stroke="#bfbfbf" points="663,-74.5 663,-93.5 709,-93.5 709,-74.5 663,-74.5"/>
<text text-anchor="middle" x="686" y="-81.5" font-family="Helvetica,sans-Serif" font-size="10.00">cstdint</text>
</g>
<!-- Node14&#45;&gt;Node18 -->
<g id="edge21" class="edge"><title>Node14&#45;&gt;Node18</title>
<path fill="none" stroke="midnightblue" d="M686,-136.679C686,-127.101 686,-114.394 686,-103.977"/>
<polygon fill="midnightblue" stroke="midnightblue" points="689.5,-103.828 686,-93.8283 682.5,-103.828 689.5,-103.828"/>
</g>
<!-- Node19 -->
<g id="node19" class="node"><title>Node19</title>
<polygon fill="none" stroke="#bfbfbf" points="727,-74.5 727,-93.5 789,-93.5 789,-74.5 727,-74.5"/>
<text text-anchor="middle" x="758" y="-81.5" font-family="Helvetica,sans-Serif" font-size="10.00">type_traits</text>
</g>
<!-- Node14&#45;&gt;Node19 -->
<g id="edge22" class="edge"><title>Node14&#45;&gt;Node19</title>
<path fill="none" stroke="midnightblue" d="M701.623,-136.679C713.183,-126.082 728.922,-111.655 740.833,-100.736"/>
<polygon fill="midnightblue" stroke="midnightblue" points="743.363,-103.166 748.369,-93.8283 738.633,-98.0055 743.363,-103.166"/>
</g>
<!-- Node14&#45;&gt;Node20 -->
<g id="edge23" class="edge"><title>Node14&#45;&gt;Node20</title>
<path fill="none" stroke="midnightblue" d="M764.224,-137.709C768.879,-137.085 773.497,-136.508 778,-136 1029.8,-107.578 1095.18,-128.207 1347,-100 1359.19,-98.6346 1372.22,-96.7818 1384.55,-94.8443"/>
<polygon fill="midnightblue" stroke="midnightblue" points="1385.4,-98.2534 1394.71,-93.2058 1384.28,-91.3427 1385.4,-98.2534"/>
</g>
<!-- Node20&#45;&gt;Node6 -->
<g id="edge24" class="edge"><title>Node20&#45;&gt;Node6</title>
<path fill="none" stroke="midnightblue" d="M1415.81,-74.3717C1381.79,-62.2349 1319.92,-40.161 1283.64,-27.2186"/>
<polygon fill="midnightblue" stroke="midnightblue" points="1284.73,-23.8898 1274.13,-23.8261 1282.38,-30.4829 1284.73,-23.8898"/>
</g>
<!-- Node21 -->
<g id="node21" class="node"><title>Node21</title>
<polygon fill="none" stroke="#bfbfbf" points="1454,-6.5 1454,-25.5 1498,-25.5 1498,-6.5 1454,-6.5"/>
<text text-anchor="middle" x="1476" y="-13.5" font-family="Helvetica,sans-Serif" font-size="10.00">cmath</text>
</g>
<!-- Node20&#45;&gt;Node21 -->
<g id="edge25" class="edge"><title>Node20&#45;&gt;Node21</title>
<path fill="none" stroke="midnightblue" d="M1444.71,-74.3717C1450.17,-64.3478 1459.34,-47.5455 1466.34,-34.7076"/>
<polygon fill="midnightblue" stroke="midnightblue" points="1469.46,-36.2961 1471.18,-25.8411 1463.32,-32.9441 1469.46,-36.2961"/>
</g>
<!-- Node22 -->
<g id="node22" class="node"><title>Node22</title>
<g id="a_node22"><a xlink:href="../../d6/d84/MathConstants_8h.html" target="_top" xlink:title="useful math constants ">
<polygon fill="none" stroke="black" points="1907.5,-6.5 1907.5,-25.5 2086.5,-25.5 2086.5,-6.5 1907.5,-6.5"/>
<text text-anchor="middle" x="1997" y="-13.5" font-family="Helvetica,sans-Serif" font-size="10.00">CommonConstants/MathConstants.h</text>
</a>
</g>
</g>
<!-- Node20&#45;&gt;Node22 -->
<g id="edge26" class="edge"><title>Node20&#45;&gt;Node22</title>
<path fill="none" stroke="midnightblue" d="M1485.32,-75.1269C1500.17,-72.6766 1516.77,-70.0758 1532,-68 1657.58,-50.8873 1802.86,-35.6856 1897.15,-26.4246"/>
<polygon fill="midnightblue" stroke="midnightblue" points="1897.64,-29.8936 1907.25,-25.4361 1896.96,-22.9268 1897.64,-29.8936"/>
</g>
<!-- Node24&#45;&gt;Node4 -->
<g id="edge35" class="edge"><title>Node24&#45;&gt;Node4</title>
<path fill="none" stroke="midnightblue" d="M1773.87,-142.45C1738.09,-132.549 1677.66,-115.599 1626,-100 1622.43,-98.9214 1618.71,-97.7756 1615,-96.6166"/>
<polygon fill="midnightblue" stroke="midnightblue" points="1615.89,-93.2283 1605.3,-93.5552 1613.79,-99.9035 1615.89,-93.2283"/>
</g>
<!-- Node24&#45;&gt;Node15 -->
<g id="edge34" class="edge"><title>Node24&#45;&gt;Node15</title>
<path fill="none" stroke="midnightblue" d="M1742.32,-144.878C1660.22,-136.515 1511.89,-120.221 1386,-100 1373.93,-98.0618 1360.85,-95.5784 1349.04,-93.1923"/>
<polygon fill="midnightblue" stroke="midnightblue" points="1349.54,-89.7233 1339.04,-91.1367 1348.13,-96.5797 1349.54,-89.7233"/>
</g>
<!-- Node25 -->
<g id="node25" class="node"><title>Node25</title>
<polygon fill="none" stroke="#bfbfbf" points="1635.5,-69 1635.5,-99 1786.5,-99 1786.5,-69 1635.5,-69"/>
<text text-anchor="start" x="1643.5" y="-87" font-family="Helvetica,sans-Serif" font-size="10.00">Math/GenVector/Displacement</text>
<text text-anchor="middle" x="1711" y="-76" font-family="Helvetica,sans-Serif" font-size="10.00">Vector3D.h</text>
</g>
<!-- Node24&#45;&gt;Node25 -->
<g id="edge29" class="edge"><title>Node24&#45;&gt;Node25</title>
<path fill="none" stroke="midnightblue" d="M1792.71,-142.372C1779.28,-132.943 1757.31,-117.517 1739.53,-105.034"/>
<polygon fill="midnightblue" stroke="midnightblue" points="1741.39,-102.063 1731.2,-99.1815 1737.37,-107.792 1741.39,-102.063"/>
</g>
<!-- Node26 -->
<g id="node26" class="node"><title>Node26</title>
<polygon fill="none" stroke="#bfbfbf" points="1805,-74.5 1805,-93.5 1981,-93.5 1981,-74.5 1805,-74.5"/>
<text text-anchor="middle" x="1893" y="-81.5" font-family="Helvetica,sans-Serif" font-size="10.00">Math/GenVector/PositionVector3D.h</text>
</g>
<!-- Node24&#45;&gt;Node26 -->
<g id="edge30" class="edge"><title>Node24&#45;&gt;Node26</title>
<path fill="none" stroke="midnightblue" d="M1816.5,-142.372C1830.87,-131.6 1855.66,-113.002 1873.12,-99.9065"/>
<polygon fill="midnightblue" stroke="midnightblue" points="1875.59,-102.431 1881.49,-93.6305 1871.39,-96.8305 1875.59,-102.431"/>
</g>
<!-- Node27 -->
<g id="node27" class="node"><title>Node27</title>
<polygon fill="none" stroke="#bfbfbf" points="1998.5,-74.5 1998.5,-93.5 2147.5,-93.5 2147.5,-74.5 1998.5,-74.5"/>
<text text-anchor="middle" x="2073" y="-81.5" font-family="Helvetica,sans-Serif" font-size="10.00">Math/GenVector/Rotation3D.h</text>
</g>
<!-- Node24&#45;&gt;Node27 -->
<g id="edge31" class="edge"><title>Node24&#45;&gt;Node27</title>
<path fill="none" stroke="midnightblue" d="M1839.76,-142.439C1888.06,-130.545 1975.49,-109.013 2028.5,-95.959"/>
<polygon fill="midnightblue" stroke="midnightblue" points="2029.43,-99.3353 2038.3,-93.5455 2027.75,-92.5384 2029.43,-99.3353"/>
</g>
<!-- Node28 -->
<g id="node28" class="node"><title>Node28</title>
<polygon fill="none" stroke="#bfbfbf" points="2166,-74.5 2166,-93.5 2322,-93.5 2322,-74.5 2166,-74.5"/>
<text text-anchor="middle" x="2244" y="-81.5" font-family="Helvetica,sans-Serif" font-size="10.00">Math/GenVector/Transform3D.h</text>
</g>
<!-- Node24&#45;&gt;Node28 -->
<g id="edge32" class="edge"><title>Node24&#45;&gt;Node28</title>
<path fill="none" stroke="midnightblue" d="M1866.89,-142.476C1937.07,-132.701 2054.88,-115.962 2156,-100 2165.43,-98.5114 2175.42,-96.8707 2185.15,-95.2372"/>
<polygon fill="midnightblue" stroke="midnightblue" points="2185.88,-98.6625 2195.16,-93.5443 2184.72,-91.7604 2185.88,-98.6625"/>
</g>
<!-- Node29 -->
<g id="node29" class="node"><title>Node29</title>
<polygon fill="none" stroke="#bfbfbf" points="2340,-74.5 2340,-93.5 2500,-93.5 2500,-74.5 2340,-74.5"/>
<text text-anchor="middle" x="2420" y="-81.5" font-family="Helvetica,sans-Serif" font-size="10.00">Math/GenVector/Translation3D.h</text>
</g>
<!-- Node24&#45;&gt;Node29 -->
<g id="edge33" class="edge"><title>Node24&#45;&gt;Node29</title>
<path fill="none" stroke="midnightblue" d="M1867.51,-146.37C1966.21,-138.737 2164.1,-122.127 2331,-100 2341.36,-98.6266 2352.36,-96.9509 2362.97,-95.2235"/>
<polygon fill="midnightblue" stroke="midnightblue" points="2363.69,-98.6514 2372.98,-93.5597 2362.54,-91.7461 2363.69,-98.6514"/>
</g>
<!-- Node30 -->
<g id="node30" class="node"><title>Node30</title>
<polygon fill="none" stroke="#bfbfbf" points="2699.5,-74.5 2699.5,-93.5 2744.5,-93.5 2744.5,-74.5 2699.5,-74.5"/>
<text text-anchor="middle" x="2722" y="-81.5" font-family="Helvetica,sans-Serif" font-size="10.00">iosfwd</text>
</g>
<!-- Node24&#45;&gt;Node30 -->
<g id="edge36" class="edge"><title>Node24&#45;&gt;Node30</title>
<path fill="none" stroke="midnightblue" d="M1867.77,-150.465C2042.88,-148.485 2534.09,-139.47 2690,-100 2692.5,-99.3676 2695.04,-98.5389 2697.54,-97.5954"/>
<polygon fill="midnightblue" stroke="midnightblue" points="2699.04,-100.758 2706.82,-93.5599 2696.25,-94.339 2699.04,-100.758"/>
</g>
<!-- Node31 -->
<g id="node31" class="node"><title>Node31</title>
<g id="a_node31"><a xlink:href="../../d2/dd0/Cartesian2D_8h.html" target="_top" xlink:title="MathUtils/Cartesian2D.h">
<polygon fill="none" stroke="black" points="2556.5,-74.5 2556.5,-93.5 2681.5,-93.5 2681.5,-74.5 2556.5,-74.5"/>
<text text-anchor="middle" x="2619" y="-81.5" font-family="Helvetica,sans-Serif" font-size="10.00">MathUtils/Cartesian2D.h</text>
</a>
</g>
</g>
<!-- Node24&#45;&gt;Node31 -->
<g id="edge37" class="edge"><title>Node24&#45;&gt;Node31</title>
<path fill="none" stroke="midnightblue" d="M1867.75,-147.789C1990.9,-141.191 2272.85,-124.629 2509,-100 2522.81,-98.56 2537.55,-96.7431 2551.61,-94.8753"/>
<polygon fill="midnightblue" stroke="midnightblue" points="2552.27,-98.3188 2561.71,-93.5109 2551.33,-91.3819 2552.27,-98.3188"/>
</g>
<!-- Node32 -->
<g id="node32" class="node"><title>Node32</title>
<polygon fill="none" stroke="#bfbfbf" points="2634.5,-1 2634.5,-31 2785.5,-31 2785.5,-1 2634.5,-1"/>
<text text-anchor="start" x="2642.5" y="-19" font-family="Helvetica,sans-Serif" font-size="10.00">Math/GenVector/Displacement</text>
<text text-anchor="middle" x="2710" y="-8" font-family="Helvetica,sans-Serif" font-size="10.00">Vector2D.h</text>
</g>
<!-- Node31&#45;&gt;Node32 -->
<g id="edge38" class="edge"><title>Node31&#45;&gt;Node32</title>
<path fill="none" stroke="midnightblue" d="M2630.9,-74.3717C2643.78,-65.0286 2664.78,-49.7966 2681.91,-37.375"/>
<polygon fill="midnightblue" stroke="midnightblue" points="2684.41,-39.8859 2690.45,-31.1815 2680.3,-34.2194 2684.41,-39.8859"/>
</g>
<!-- Node33 -->
<g id="node33" class="node"><title>Node33</title>
<polygon fill="none" stroke="#bfbfbf" points="2440,-6.5 2440,-25.5 2616,-25.5 2616,-6.5 2440,-6.5"/>
<text text-anchor="middle" x="2528" y="-13.5" font-family="Helvetica,sans-Serif" font-size="10.00">Math/GenVector/PositionVector2D.h</text>
</g>
<!-- Node31&#45;&gt;Node33 -->
<g id="edge39" class="edge"><title>Node31&#45;&gt;Node33</title>
<path fill="none" stroke="midnightblue" d="M2607.1,-74.3717C2592.12,-63.5015 2566.14,-44.6602 2548.06,-31.5474"/>
<polygon fill="midnightblue" stroke="midnightblue" points="2550.05,-28.6684 2539.9,-25.6305 2545.94,-34.3349 2550.05,-28.6684"/>
</g>
<!-- Node34&#45;&gt;Node7 -->
<g id="edge43" class="edge"><title>Node34&#45;&gt;Node7</title>
<path fill="none" stroke="midnightblue" d="M294.085,-278.372C293.053,-268.643 291.344,-252.528 289.999,-239.85"/>
<polygon fill="midnightblue" stroke="midnightblue" points="293.473,-239.416 288.938,-229.841 286.512,-240.155 293.473,-239.416"/>
</g>
<!-- Node35 -->
<g id="node35" class="node"><title>Node35</title>
<polygon fill="none" stroke="#bfbfbf" points="180.5,-210.5 180.5,-229.5 249.5,-229.5 249.5,-210.5 180.5,-210.5"/>
<text text-anchor="middle" x="215" y="-217.5" font-family="Helvetica,sans-Serif" font-size="10.00">TObjArray.h</text>
</g>
<!-- Node34&#45;&gt;Node35 -->
<g id="edge42" class="edge"><title>Node34&#45;&gt;Node35</title>
<path fill="none" stroke="midnightblue" d="M284.541,-278.372C271.605,-267.699 249.355,-249.343 233.507,-236.268"/>
<polygon fill="midnightblue" stroke="midnightblue" points="235.402,-233.295 225.461,-229.63 230.948,-238.694 235.402,-233.295"/>
</g>
<!-- Node36 -->
<g id="node36" class="node"><title>Node36</title>
<g id="a_node36"><a xlink:href="../../d4/d20/DetMatrixCache_8h.html" target="_top" xlink:title="DetectorsCommonDataFormats\l/DetMatrixCache.h">
<polygon fill="none" stroke="black" points="1109,-205 1109,-235 1265,-235 1265,-205 1109,-205"/>
<text text-anchor="start" x="1117" y="-223" font-family="Helvetica,sans-Serif" font-size="10.00">DetectorsCommonDataFormats</text>
<text text-anchor="middle" x="1187" y="-212" font-family="Helvetica,sans-Serif" font-size="10.00">/DetMatrixCache.h</text>
</a>
</g>
</g>
<!-- Node34&#45;&gt;Node36 -->
<g id="edge44" class="edge"><title>Node34&#45;&gt;Node36</title>
<path fill="none" stroke="midnightblue" d="M371.755,-283.214C509.828,-276.108 809.181,-259.356 1061,-236 1073.2,-234.868 1086.05,-233.52 1098.69,-232.103"/>
<polygon fill="midnightblue" stroke="midnightblue" points="1099.22,-235.565 1108.76,-230.954 1098.43,-228.61 1099.22,-235.565"/>
</g>
<!-- Node36&#45;&gt;Node2 -->
<g id="edge48" class="edge"><title>Node36&#45;&gt;Node2</title>
<path fill="none" stroke="midnightblue" d="M1108.78,-208.866C1092.98,-207.051 1076.47,-205.32 1061,-204 687.532,-172.137 232.585,-157.476 108.545,-153.896"/>
<polygon fill="midnightblue" stroke="midnightblue" points="108.325,-150.388 98.2296,-153.601 108.126,-157.385 108.325,-150.388"/>
</g>
<!-- Node36&#45;&gt;Node6 -->
<g id="edge47" class="edge"><title>Node36&#45;&gt;Node6</title>
<path fill="none" stroke="midnightblue" d="M1205.44,-204.99C1216.21,-195.73 1229.02,-182.627 1236,-168 1256.9,-124.214 1257.59,-65.5527 1256.31,-35.8838"/>
<polygon fill="midnightblue" stroke="midnightblue" points="1259.8,-35.4924 1255.74,-25.7039 1252.81,-35.8841 1259.8,-35.4924"/>
</g>
<!-- Node36&#45;&gt;Node14 -->
<g id="edge49" class="edge"><title>Node36&#45;&gt;Node14</title>
<path fill="none" stroke="midnightblue" d="M1108.99,-208.724C1018.37,-196.786 869.208,-177.135 774.379,-164.643"/>
<polygon fill="midnightblue" stroke="midnightblue" points="774.607,-161.143 764.235,-163.306 773.692,-168.083 774.607,-161.143"/>
</g>
<!-- Node36&#45;&gt;Node24 -->
<g id="edge50" class="edge"><title>Node36&#45;&gt;Node24</title>
<path fill="none" stroke="midnightblue" d="M1265.27,-210.641C1385.83,-197.766 1615.25,-173.264 1732.33,-160.76"/>
<polygon fill="midnightblue" stroke="midnightblue" points="1732.71,-164.241 1742.28,-159.698 1731.96,-157.28 1732.71,-164.241"/>
</g>
<!-- Node37 -->
<g id="node37" class="node"><title>Node37</title>
<polygon fill="none" stroke="#bfbfbf" points="939,-142.5 939,-161.5 1081,-161.5 1081,-142.5 939,-142.5"/>
<text text-anchor="middle" x="1010" y="-149.5" font-family="Helvetica,sans-Serif" font-size="10.00">AliTPCCommonFairLogger.h</text>
</g>
<!-- Node36&#45;&gt;Node37 -->
<g id="edge45" class="edge"><title>Node36&#45;&gt;Node37</title>
<path fill="none" stroke="midnightblue" d="M1149.03,-204.841C1117.36,-193.033 1072.71,-176.384 1042.63,-165.168"/>
<polygon fill="midnightblue" stroke="midnightblue" points="1043.62,-161.801 1033.03,-161.587 1041.18,-168.36 1043.62,-161.801"/>
</g>
<!-- Node38 -->
<g id="node38" class="node"><title>Node38</title>
<polygon fill="none" stroke="#bfbfbf" points="1099,-142.5 1099,-161.5 1227,-161.5 1227,-142.5 1099,-142.5"/>
<text text-anchor="middle" x="1163" y="-149.5" font-family="Helvetica,sans-Serif" font-size="10.00">AliTPCCommonRtypes.h</text>
</g>
<!-- Node36&#45;&gt;Node38 -->
<g id="edge46" class="edge"><title>Node36&#45;&gt;Node38</title>
<path fill="none" stroke="midnightblue" d="M1181.79,-204.679C1178.24,-194.898 1173.49,-181.852 1169.66,-171.315"/>
<polygon fill="midnightblue" stroke="midnightblue" points="1172.92,-170.03 1166.21,-161.828 1166.34,-172.422 1172.92,-170.03"/>
</g>
<!-- Node39&#45;&gt;Node2 -->
<g id="edge55" class="edge"><title>Node39&#45;&gt;Node2</title>
<path fill="none" stroke="midnightblue" d="M232.962,-408.328C205.003,-391.521 144.632,-351.916 109,-304 89.4968,-277.773 88.3044,-267.857 81,-236 76.072,-214.507 75.2447,-189.113 75.3791,-172.125"/>
<polygon fill="midnightblue" stroke="midnightblue" points="78.8837,-171.927 75.5871,-161.858 71.8851,-171.785 78.8837,-171.927"/>
</g>
<!-- Node40 -->
<g id="node40" class="node"><title>Node40</title>
<g id="a_node40"><a xlink:href="../../d7/d8b/DataFormats_2Reconstruction_2include_2ReconstructionDataFormats_2Track_8h.html" target="_top" xlink:title="ReconstructionDataFormats\l/Track.h">
<polygon fill="none" stroke="black" points="1675,-341 1675,-371 1815,-371 1815,-341 1675,-341"/>
<text text-anchor="start" x="1683" y="-359" font-family="Helvetica,sans-Serif" font-size="10.00">ReconstructionDataFormats</text>
<text text-anchor="middle" x="1745" y="-348" font-family="Helvetica,sans-Serif" font-size="10.00">/Track.h</text>
</a>
</g>
</g>
<!-- Node39&#45;&gt;Node40 -->
<g id="edge56" class="edge"><title>Node39&#45;&gt;Node40</title>
<path fill="none" stroke="midnightblue" d="M318.695,-414.167C567.336,-404.201 1400.73,-370.798 1664.34,-360.233"/>
<polygon fill="midnightblue" stroke="midnightblue" points="1664.75,-363.719 1674.6,-359.822 1664.47,-356.725 1664.75,-363.719"/>
</g>
<!-- Node40&#45;&gt;Node6 -->
<g id="edge59" class="edge"><title>Node40&#45;&gt;Node6</title>
<path fill="none" stroke="midnightblue" d="M1674.81,-347.541C1607.22,-339.305 1510.71,-324.451 1479,-304 1416.82,-263.901 1417.17,-233.622 1383,-168 1361.18,-126.104 1377.61,-103.973 1347,-68 1330.22,-48.2794 1303.8,-34.7583 1283.57,-26.6192"/>
<polygon fill="midnightblue" stroke="midnightblue" points="1284.8,-23.3412 1274.21,-23.0525 1282.31,-29.8827 1284.8,-23.3412"/>
</g>
<!-- Node40&#45;&gt;Node15 -->
<g id="edge57" class="edge"><title>Node40&#45;&gt;Node15</title>
<path fill="none" stroke="midnightblue" d="M1675,-355.285C1575.45,-354.166 1400.04,-346.065 1355,-304 1325.81,-276.733 1315.1,-151.526 1312.04,-103.669"/>
<polygon fill="midnightblue" stroke="midnightblue" points="1315.52,-103.28 1311.43,-93.5077 1308.53,-103.699 1315.52,-103.28"/>
</g>
<!-- Node40&#45;&gt;Node20 -->
<g id="edge68" class="edge"><title>Node40&#45;&gt;Node20</title>
<path fill="none" stroke="midnightblue" d="M1674.86,-347.966C1613.66,-340.435 1531,-326.438 1507,-304 1450.28,-250.966 1483.24,-209.774 1459,-136 1455.36,-124.925 1450.82,-112.68 1447.08,-102.964"/>
<polygon fill="midnightblue" stroke="midnightblue" points="1450.32,-101.639 1443.44,-93.59 1443.8,-104.179 1450.32,-101.639"/>
</g>
<!-- Node40&#45;&gt;Node21 -->
<g id="edge61" class="edge"><title>Node40&#45;&gt;Node21</title>
<path fill="none" stroke="midnightblue" d="M1674.99,-345.723C1623.18,-337.411 1558.53,-323.511 1540,-304 1466.4,-226.522 1522.08,-171.107 1494,-68 1490.96,-56.8229 1486.67,-44.5737 1483.04,-34.8819"/>
<polygon fill="midnightblue" stroke="midnightblue" points="1486.3,-33.6211 1479.45,-25.5406 1479.77,-36.1307 1486.3,-33.6211"/>
</g>
<!-- Node40&#45;&gt;Node22 -->
<g id="edge66" class="edge"><title>Node40&#45;&gt;Node22</title>
<path fill="none" stroke="midnightblue" d="M1815.18,-350.346C2007.36,-336.668 2528,-292.974 2528,-221 2528,-221 2528,-221 2528,-151 2528,-113.157 2537.39,-93.0248 2509,-68 2478.81,-41.3826 2237.33,-26.965 2097.05,-20.7626"/>
<polygon fill="midnightblue" stroke="midnightblue" points="2096.86,-17.251 2086.71,-20.3124 2096.55,-24.2443 2096.86,-17.251"/>
</g>
<!-- Node40&#45;&gt;Node24 -->
<g id="edge67" class="edge"><title>Node40&#45;&gt;Node24</title>
<path fill="none" stroke="midnightblue" d="M1740.38,-340.953C1735.6,-324.25 1729.64,-295.655 1736,-272 1746.79,-231.867 1774.8,-191.307 1791.63,-169.446"/>
<polygon fill="midnightblue" stroke="midnightblue" points="1794.43,-171.545 1797.87,-161.525 1788.93,-167.211 1794.43,-171.545"/>
</g>
<!-- Node40&#45;&gt;Node30 -->
<g id="edge63" class="edge"><title>Node40&#45;&gt;Node30</title>
<path fill="none" stroke="midnightblue" d="M1815.06,-353.691C1997.62,-349.835 2478.22,-336.671 2542,-304 2631.22,-258.303 2692.41,-146.698 2713.7,-102.982"/>
<polygon fill="midnightblue" stroke="midnightblue" points="2716.91,-104.38 2718.04,-93.846 2710.58,-101.374 2716.91,-104.38"/>
</g>
<!-- Node41 -->
<g id="node41" class="node"><title>Node41</title>
<polygon fill="none" stroke="#bfbfbf" points="1745,-278.5 1745,-297.5 1801,-297.5 1801,-278.5 1745,-278.5"/>
<text text-anchor="middle" x="1773" y="-285.5" font-family="Helvetica,sans-Serif" font-size="10.00">algorithm</text>
</g>
<!-- Node40&#45;&gt;Node41 -->
<g id="edge58" class="edge"><title>Node40&#45;&gt;Node41</title>
<path fill="none" stroke="midnightblue" d="M1751.08,-340.679C1755.23,-330.898 1760.76,-317.852 1765.23,-307.315"/>
<polygon fill="midnightblue" stroke="midnightblue" points="1768.57,-308.401 1769.25,-297.828 1762.13,-305.667 1768.57,-308.401"/>
</g>
<!-- Node42 -->
<g id="node42" class="node"><title>Node42</title>
<polygon fill="none" stroke="#bfbfbf" points="1819.5,-278.5 1819.5,-297.5 1860.5,-297.5 1860.5,-278.5 1819.5,-278.5"/>
<text text-anchor="middle" x="1840" y="-285.5" font-family="Helvetica,sans-Serif" font-size="10.00">cfloat</text>
</g>
<!-- Node40&#45;&gt;Node42 -->
<g id="edge60" class="edge"><title>Node40&#45;&gt;Node42</title>
<path fill="none" stroke="midnightblue" d="M1765.61,-340.679C1781.4,-329.713 1803.09,-314.645 1818.97,-303.609"/>
<polygon fill="midnightblue" stroke="midnightblue" points="1821.35,-306.218 1827.57,-297.638 1817.36,-300.469 1821.35,-306.218"/>
</g>
<!-- Node43 -->
<g id="node43" class="node"><title>Node43</title>
<polygon fill="none" stroke="#bfbfbf" points="1879,-278.5 1879,-297.5 1925,-297.5 1925,-278.5 1879,-278.5"/>
<text text-anchor="middle" x="1902" y="-285.5" font-family="Helvetica,sans-Serif" font-size="10.00">cstring</text>
</g>
<!-- Node40&#45;&gt;Node43 -->
<g id="edge62" class="edge"><title>Node40&#45;&gt;Node43</title>
<path fill="none" stroke="midnightblue" d="M1780.15,-340.94C1805.06,-330.882 1839.2,-316.896 1869,-304 1870.63,-303.295 1872.3,-302.564 1873.98,-301.821"/>
<polygon fill="midnightblue" stroke="midnightblue" points="1875.86,-304.814 1883.55,-297.528 1873,-298.426 1875.86,-304.814"/>
</g>
<!-- Node44 -->
<g id="node44" class="node"><title>Node44</title>
<polygon fill="none" stroke="#bfbfbf" points="1943.5,-278.5 1943.5,-297.5 2026.5,-297.5 2026.5,-278.5 1943.5,-278.5"/>
<text text-anchor="middle" x="1985" y="-285.5" font-family="Helvetica,sans-Serif" font-size="10.00">Math/SMatrix.h</text>
</g>
<!-- Node40&#45;&gt;Node44 -->
<g id="edge64" class="edge"><title>Node40&#45;&gt;Node44</title>
<path fill="none" stroke="midnightblue" d="M1798.45,-340.92C1836.35,-330.853 1888.37,-316.865 1934,-304 1938.1,-302.845 1942.37,-301.619 1946.63,-300.385"/>
<polygon fill="midnightblue" stroke="midnightblue" points="1947.82,-303.684 1956.44,-297.523 1945.86,-296.964 1947.82,-303.684"/>
</g>
<!-- Node45 -->
<g id="node45" class="node"><title>Node45</title>
<polygon fill="none" stroke="#bfbfbf" points="2044.5,-278.5 2044.5,-297.5 2129.5,-297.5 2129.5,-278.5 2044.5,-278.5"/>
<text text-anchor="middle" x="2087" y="-285.5" font-family="Helvetica,sans-Serif" font-size="10.00">Math/SVector.h</text>
</g>
<!-- Node40&#45;&gt;Node45 -->
<g id="edge65" class="edge"><title>Node40&#45;&gt;Node45</title>
<path fill="none" stroke="midnightblue" d="M1815.15,-344.812C1874.15,-335.732 1960.54,-321.234 2035,-304 2039.73,-302.906 2044.67,-301.642 2049.54,-300.322"/>
<polygon fill="midnightblue" stroke="midnightblue" points="2050.66,-303.641 2059.35,-297.57 2048.77,-296.901 2050.66,-303.641"/>
</g>
<!-- Node46 -->
<g id="node46" class="node"><title>Node46</title>
<g id="a_node46"><a xlink:href="../../d4/de2/BaseCluster_8h.html" target="_top" xlink:title="ReconstructionDataFormats\l/BaseCluster.h">
<polygon fill="none" stroke="black" points="1549,-273 1549,-303 1689,-303 1689,-273 1549,-273"/>
<text text-anchor="start" x="1557" y="-291" font-family="Helvetica,sans-Serif" font-size="10.00">ReconstructionDataFormats</text>
<text text-anchor="middle" x="1619" y="-280" font-family="Helvetica,sans-Serif" font-size="10.00">/BaseCluster.h</text>
</a>
</g>
</g>
<!-- Node40&#45;&gt;Node46 -->
<g id="edge69" class="edge"><title>Node40&#45;&gt;Node46</title>
<path fill="none" stroke="midnightblue" d="M1717.97,-340.841C1699.53,-331.185 1674.92,-318.29 1654.85,-307.778"/>
<polygon fill="midnightblue" stroke="midnightblue" points="1656.47,-304.675 1645.99,-303.135 1653.22,-310.876 1656.47,-304.675"/>
</g>
<!-- Node46&#45;&gt;Node5 -->
<g id="edge70" class="edge"><title>Node46&#45;&gt;Node5</title>
<path fill="none" stroke="midnightblue" d="M1548.93,-285.81C1443.33,-282.835 1237.59,-272.422 1067,-236 1062.83,-235.109 1058.5,-233.946 1054.26,-232.662"/>
<polygon fill="midnightblue" stroke="midnightblue" points="1055.24,-229.299 1044.65,-229.515 1053.06,-235.952 1055.24,-229.299"/>
</g>
<!-- Node46&#45;&gt;Node16 -->
<g id="edge71" class="edge"><title>Node46&#45;&gt;Node16</title>
<path fill="none" stroke="midnightblue" d="M1548.66,-285.123C1426.21,-281.026 1179.36,-268.859 1100,-236 1079.28,-227.423 1080.91,-214.307 1061,-204 1007.38,-176.243 977.964,-204.678 930,-168 908.231,-151.353 894.261,-122.038 887.021,-103.075"/>
<polygon fill="midnightblue" stroke="midnightblue" points="890.266,-101.755 883.605,-93.5157 883.674,-104.11 890.266,-101.755"/>
</g>
<!-- Node46&#45;&gt;Node24 -->
<g id="edge76" class="edge"><title>Node46&#45;&gt;Node24</title>
<path fill="none" stroke="midnightblue" d="M1630.67,-272.996C1645.94,-255.296 1674.17,-224.652 1703,-204 1725.09,-188.176 1752.82,-174.659 1773.78,-165.525"/>
<polygon fill="midnightblue" stroke="midnightblue" points="1775.36,-168.659 1783.19,-161.523 1772.62,-162.218 1775.36,-168.659"/>
</g>
<!-- Node46&#45;&gt;Node30 -->
<g id="edge74" class="edge"><title>Node46&#45;&gt;Node30</title>
<path fill="none" stroke="midnightblue" d="M1689.04,-277.251C1895.67,-248.099 2500.09,-159.912 2690,-100 2692.14,-99.3251 2694.32,-98.5369 2696.49,-97.6817"/>
<polygon fill="midnightblue" stroke="midnightblue" points="2697.96,-100.856 2705.73,-93.646 2695.16,-94.4414 2697.96,-100.856"/>
</g>
<!-- Node46&#45;&gt;Node36 -->
<g id="edge75" class="edge"><title>Node46&#45;&gt;Node36</title>
<path fill="none" stroke="midnightblue" d="M1548.63,-276.249C1474,-264.847 1355.95,-246.812 1275.17,-234.47"/>
<polygon fill="midnightblue" stroke="midnightblue" points="1275.43,-230.969 1265.01,-232.919 1274.37,-237.889 1275.43,-230.969"/>
</g>
<!-- Node47 -->
<g id="node47" class="node"><title>Node47</title>
<polygon fill="none" stroke="#bfbfbf" points="1550,-210.5 1550,-229.5 1600,-229.5 1600,-210.5 1550,-210.5"/>
<text text-anchor="middle" x="1575" y="-217.5" font-family="Helvetica,sans-Serif" font-size="10.00">iomanip</text>
</g>
<!-- Node46&#45;&gt;Node47 -->
<g id="edge72" class="edge"><title>Node46&#45;&gt;Node47</title>
<path fill="none" stroke="midnightblue" d="M1609.45,-272.679C1602.73,-262.592 1593.69,-249.033 1586.56,-238.335"/>
<polygon fill="midnightblue" stroke="midnightblue" points="1589.34,-236.207 1580.89,-229.828 1583.52,-240.09 1589.34,-236.207"/>
</g>
<!-- Node48 -->
<g id="node48" class="node"><title>Node48</title>
<polygon fill="none" stroke="#bfbfbf" points="1618.5,-210.5 1618.5,-229.5 1647.5,-229.5 1647.5,-210.5 1618.5,-210.5"/>
<text text-anchor="middle" x="1633" y="-217.5" font-family="Helvetica,sans-Serif" font-size="10.00">ios</text>
</g>
<!-- Node46&#45;&gt;Node48 -->
<g id="edge73" class="edge"><title>Node46&#45;&gt;Node48</title>
<path fill="none" stroke="midnightblue" d="M1622.04,-272.679C1624.09,-262.999 1626.82,-250.123 1629.05,-239.645"/>
<polygon fill="midnightblue" stroke="midnightblue" points="1632.48,-240.337 1631.13,-229.828 1625.63,-238.884 1632.48,-240.337"/>
</g>
</g>
</svg>
