<?xml version="1.0" encoding="UTF-8" standalone="no"?>
<!DOCTYPE svg PUBLIC "-//W3C//DTD SVG 1.1//EN"
 "http://www.w3.org/Graphics/SVG/1.1/DTD/svg11.dtd">
<!-- Generated by graphviz version 2.36.0 (20140111.2315)
 -->
<!-- Title: o2::framework::gui::DeviceGUIState Pages: 1 -->
<svg width="104pt" height="184pt"
 viewBox="0.00 0.00 104.00 184.00" xmlns="http://www.w3.org/2000/svg" xmlns:xlink="http://www.w3.org/1999/xlink">
<g id="graph0" class="graph" transform="scale(1 1) rotate(0) translate(4 180)">
<title>o2::framework::gui::DeviceGUIState</title>
<!-- Node1 -->
<g id="node1" class="node"><title>Node1</title>
<polygon fill="#bfbfbf" stroke="black" points="-1,-1 -1,-69 97,-69 97,-1 -1,-1"/>
<text text-anchor="start" x="7" y="-57" font-family="Helvetica,sans-Serif" font-size="10.00">o2::framework::gui</text>
<text text-anchor="middle" x="48" y="-46" font-family="Helvetica,sans-Serif" font-size="10.00">::DeviceGUIState</text>
<polyline fill="none" stroke="black" points="-1,-39 97,-39 "/>
<text text-anchor="middle" x="48" y="-27" font-family="Helvetica,sans-Serif" font-size="10.00"> </text>
<polyline fill="none" stroke="black" points="-1,-20 97,-20 "/>
<text text-anchor="middle" x="48" y="-8" font-family="Helvetica,sans-Serif" font-size="10.00"> </text>
</g>
<!-- Node2 -->
<g id="node2" class="node"><title>Node2</title>
<g id="a_node2"><a xlink:href="../../d1/da0/classint.html" target="_top" xlink:title="{int\n||}">
<polygon fill="none" stroke="black" points="33.5,-118.5 33.5,-175.5 62.5,-175.5 62.5,-118.5 33.5,-118.5"/>
<text text-anchor="middle" x="48" y="-163.5" font-family="Helvetica,sans-Serif" font-size="10.00">int</text>
<polyline fill="none" stroke="black" points="33.5,-156.5 62.5,-156.5 "/>
<text text-anchor="middle" x="48" y="-144.5" font-family="Helvetica,sans-Serif" font-size="10.00"> </text>
<polyline fill="none" stroke="black" points="33.5,-137.5 62.5,-137.5 "/>
<text text-anchor="middle" x="48" y="-125.5" font-family="Helvetica,sans-Serif" font-size="10.00"> </text>
</a>
</g>
</g>
<!-- Node2&#45;&gt;Node1 -->
<g id="edge1" class="edge"><title>Node2&#45;&gt;Node1</title>
<path fill="none" stroke="#404040" d="M48,-118.242C48,-107.073 48,-93.8972 48,-81.4036"/>
<polygon fill="none" stroke="#404040" points="48.0001,-81.2368 44,-75.2368 48,-69.2368 52,-75.2367 48.0001,-81.2368"/>
<text text-anchor="middle" x="63" y="-91.5" font-family="Helvetica,sans-Serif" font-size="10.00"> +label</text>
</g>
</g>
</svg>
