<?xml version="1.0" encoding="UTF-8" standalone="no"?>
<!DOCTYPE svg PUBLIC "-//W3C//DTD SVG 1.1//EN"
 "http://www.w3.org/Graphics/SVG/1.1/DTD/svg11.dtd">
<!-- Generated by graphviz version 2.36.0 (20140111.2315)
 -->
<!-- Title: o2::framework::AlgorithmSpec Pages: 1 -->
<svg width="463pt" height="262pt"
 viewBox="0.00 0.00 463.00 262.00" xmlns="http://www.w3.org/2000/svg" xmlns:xlink="http://www.w3.org/1999/xlink">
<g id="graph0" class="graph" transform="scale(1 1) rotate(0) translate(4 258)">
<title>o2::framework::AlgorithmSpec</title>
<!-- Node1 -->
<g id="node1" class="node"><title>Node1</title>
<polygon fill="#bfbfbf" stroke="black" points="163.5,-1 163.5,-135 312.5,-135 312.5,-1 163.5,-1"/>
<text text-anchor="middle" x="238" y="-123" font-family="Helvetica,sans-Serif" font-size="10.00">o2::framework::AlgorithmSpec</text>
<polyline fill="none" stroke="black" points="163.5,-116 312.5,-116 "/>
<text text-anchor="middle" x="238" y="-104" font-family="Helvetica,sans-Serif" font-size="10.00"> </text>
<polyline fill="none" stroke="black" points="163.5,-97 312.5,-97 "/>
<text text-anchor="start" x="171.5" y="-85" font-family="Helvetica,sans-Serif" font-size="10.00">+ AlgorithmSpec()</text>
<text text-anchor="start" x="171.5" y="-74" font-family="Helvetica,sans-Serif" font-size="10.00">+ AlgorithmSpec()</text>
<text text-anchor="start" x="171.5" y="-63" font-family="Helvetica,sans-Serif" font-size="10.00">+ AlgorithmSpec()</text>
<text text-anchor="start" x="171.5" y="-52" font-family="Helvetica,sans-Serif" font-size="10.00">+ AlgorithmSpec()</text>
<text text-anchor="start" x="171.5" y="-41" font-family="Helvetica,sans-Serif" font-size="10.00">+ operator=()</text>
<text text-anchor="start" x="171.5" y="-30" font-family="Helvetica,sans-Serif" font-size="10.00">+ AlgorithmSpec()</text>
<text text-anchor="start" x="171.5" y="-19" font-family="Helvetica,sans-Serif" font-size="10.00">+ AlgorithmSpec()</text>
<text text-anchor="start" x="171.5" y="-8" font-family="Helvetica,sans-Serif" font-size="10.00">+ emptyErrorCallback()</text>
</g>
<!-- Node2 -->
<g id="node2" class="node"><title>Node2</title>
<polygon fill="none" stroke="#bfbfbf" points="-0.5,-190.5 -0.5,-247.5 154.5,-247.5 154.5,-190.5 -0.5,-190.5"/>
<text text-anchor="middle" x="77" y="-235.5" font-family="Helvetica,sans-Serif" font-size="10.00">function&lt; void(ErrorContext &amp;)&gt;</text>
<polyline fill="none" stroke="#bfbfbf" points="-0.5,-228.5 154.5,-228.5 "/>
<text text-anchor="middle" x="77" y="-216.5" font-family="Helvetica,sans-Serif" font-size="10.00"> </text>
<polyline fill="none" stroke="#bfbfbf" points="-0.5,-209.5 154.5,-209.5 "/>
<text text-anchor="middle" x="77" y="-197.5" font-family="Helvetica,sans-Serif" font-size="10.00"> </text>
</g>
<!-- Node2&#45;&gt;Node1 -->
<g id="edge1" class="edge"><title>Node2&#45;&gt;Node1</title>
<path fill="none" stroke="#404040" d="M106.906,-190.323C121.363,-176.943 139.482,-160.175 157.595,-143.412"/>
<polygon fill="none" stroke="#404040" points="157.663,-143.349 159.35,-136.338 166.47,-135.198 164.784,-142.209 157.663,-143.349"/>
<text text-anchor="middle" x="164.5" y="-157.5" font-family="Helvetica,sans-Serif" font-size="10.00"> +onError</text>
</g>
<!-- Node3 -->
<g id="node3" class="node"><title>Node3</title>
<polygon fill="none" stroke="#bfbfbf" points="173,-185 173,-253 303,-253 303,-185 173,-185"/>
<text text-anchor="start" x="181" y="-241" font-family="Helvetica,sans-Serif" font-size="10.00">function&lt; void(Processing</text>
<text text-anchor="middle" x="238" y="-230" font-family="Helvetica,sans-Serif" font-size="10.00">Context &amp;)&gt;</text>
<polyline fill="none" stroke="#bfbfbf" points="173,-223 303,-223 "/>
<text text-anchor="middle" x="238" y="-211" font-family="Helvetica,sans-Serif" font-size="10.00"> </text>
<polyline fill="none" stroke="#bfbfbf" points="173,-204 303,-204 "/>
<text text-anchor="middle" x="238" y="-192" font-family="Helvetica,sans-Serif" font-size="10.00"> </text>
</g>
<!-- Node3&#45;&gt;Node1 -->
<g id="edge2" class="edge"><title>Node3&#45;&gt;Node1</title>
<path fill="none" stroke="#404040" d="M238,-184.932C238,-173.707 238,-160.643 238,-147.413"/>
<polygon fill="none" stroke="#404040" points="238,-147.265 234,-141.265 238,-135.265 242,-141.265 238,-147.265"/>
<text text-anchor="middle" x="266" y="-157.5" font-family="Helvetica,sans-Serif" font-size="10.00"> +onProcess</text>
</g>
<!-- Node4 -->
<g id="node4" class="node"><title>Node4</title>
<polygon fill="none" stroke="#bfbfbf" points="321,-185 321,-253 455,-253 455,-185 321,-185"/>
<text text-anchor="start" x="329" y="-241" font-family="Helvetica,sans-Serif" font-size="10.00">function&lt; ProcessCallback</text>
<text text-anchor="middle" x="388" y="-230" font-family="Helvetica,sans-Serif" font-size="10.00">(InitContext &amp;)&gt;</text>
<polyline fill="none" stroke="#bfbfbf" points="321,-223 455,-223 "/>
<text text-anchor="middle" x="388" y="-211" font-family="Helvetica,sans-Serif" font-size="10.00"> </text>
<polyline fill="none" stroke="#bfbfbf" points="321,-204 455,-204 "/>
<text text-anchor="middle" x="388" y="-192" font-family="Helvetica,sans-Serif" font-size="10.00"> </text>
</g>
<!-- Node4&#45;&gt;Node1 -->
<g id="edge3" class="edge"><title>Node4&#45;&gt;Node1</title>
<path fill="none" stroke="#404040" d="M354.71,-184.932C342.372,-172.677 327.827,-158.228 313.267,-143.766"/>
<polygon fill="none" stroke="#404040" points="313.224,-143.722 306.148,-142.332 304.71,-135.265 311.786,-136.656 313.224,-143.722"/>
<text text-anchor="middle" x="353" y="-157.5" font-family="Helvetica,sans-Serif" font-size="10.00"> +onInit</text>
</g>
</g>
</svg>
