<?xml version="1.0" encoding="UTF-8" standalone="no"?>
<!DOCTYPE svg PUBLIC "-//W3C//DTD SVG 1.1//EN"
 "http://www.w3.org/Graphics/SVG/1.1/DTD/svg11.dtd">
<!-- Generated by graphviz version 2.36.0 (20140111.2315)
 -->
<!-- Title: o2::framework::data_matcher::StartTimeValueMatcher Pages: 1 -->
<svg width="174pt" height="390pt"
 viewBox="0.00 0.00 174.00 390.00" xmlns="http://www.w3.org/2000/svg" xmlns:xlink="http://www.w3.org/1999/xlink">
<g id="graph0" class="graph" transform="scale(1 1) rotate(0) translate(4 386)">
<title>o2::framework::data_matcher::StartTimeValueMatcher</title>
<!-- Node1 -->
<g id="node1" class="node"><title>Node1</title>
<polygon fill="#bfbfbf" stroke="black" points="0,-0.5 0,-101.5 166,-101.5 166,-0.5 0,-0.5"/>
<text text-anchor="start" x="8" y="-89.5" font-family="Helvetica,sans-Serif" font-size="10.00">o2::framework::data</text>
<text text-anchor="middle" x="83" y="-78.5" font-family="Helvetica,sans-Serif" font-size="10.00">_matcher::StartTimeValueMatcher</text>
<polyline fill="none" stroke="black" points="0,-71.5 166,-71.5 "/>
<text text-anchor="middle" x="83" y="-59.5" font-family="Helvetica,sans-Serif" font-size="10.00"> </text>
<polyline fill="none" stroke="black" points="0,-52.5 166,-52.5 "/>
<text text-anchor="start" x="8" y="-40.5" font-family="Helvetica,sans-Serif" font-size="10.00">+ StartTimeValueMatcher()</text>
<text text-anchor="start" x="8" y="-29.5" font-family="Helvetica,sans-Serif" font-size="10.00">+ StartTimeValueMatcher()</text>
<text text-anchor="start" x="8" y="-18.5" font-family="Helvetica,sans-Serif" font-size="10.00">+ StartTimeValueMatcher()</text>
<text text-anchor="start" x="8" y="-7.5" font-family="Helvetica,sans-Serif" font-size="10.00">+ match()</text>
</g>
<!-- Node2 -->
<g id="node2" class="node"><title>Node2</title>
<g id="a_node2"><a xlink:href="../../dc/d72/classo2_1_1framework_1_1data__matcher_1_1ValueHolder.html" target="_top" xlink:title="{o2::framework::data\l_matcher::ValueHolder\l\&lt; uint64_t \&gt;\n|# mValue\l|+ ValueHolder()\l+ ValueHolder()\l+ operator==()\l}">
<polygon fill="none" stroke="black" points="25,-140.5 25,-241.5 141,-241.5 141,-140.5 25,-140.5"/>
<text text-anchor="start" x="33" y="-229.5" font-family="Helvetica,sans-Serif" font-size="10.00">o2::framework::data</text>
<text text-anchor="start" x="33" y="-218.5" font-family="Helvetica,sans-Serif" font-size="10.00">_matcher::ValueHolder</text>
<text text-anchor="middle" x="83" y="-207.5" font-family="Helvetica,sans-Serif" font-size="10.00">&lt; uint64_t &gt;</text>
<polyline fill="none" stroke="black" points="25,-200.5 141,-200.5 "/>
<text text-anchor="start" x="33" y="-188.5" font-family="Helvetica,sans-Serif" font-size="10.00"># mValue</text>
<polyline fill="none" stroke="black" points="25,-181.5 141,-181.5 "/>
<text text-anchor="start" x="33" y="-169.5" font-family="Helvetica,sans-Serif" font-size="10.00">+ ValueHolder()</text>
<text text-anchor="start" x="33" y="-158.5" font-family="Helvetica,sans-Serif" font-size="10.00">+ ValueHolder()</text>
<text text-anchor="start" x="33" y="-147.5" font-family="Helvetica,sans-Serif" font-size="10.00">+ operator==()</text>
</a>
</g>
</g>
<!-- Node2&#45;&gt;Node1 -->
<g id="edge1" class="edge"><title>Node2&#45;&gt;Node1</title>
<path fill="none" stroke="midnightblue" d="M83,-130.053C83,-120.607 83,-110.93 83,-101.748"/>
<polygon fill="none" stroke="midnightblue" points="79.5001,-130.179 83,-140.179 86.5001,-130.179 79.5001,-130.179"/>
</g>
<!-- Node3 -->
<g id="node3" class="node"><title>Node3</title>
<g id="a_node3"><a xlink:href="../../dc/d72/classo2_1_1framework_1_1data__matcher_1_1ValueHolder.html" target="_top" xlink:title="{o2::framework::data\l_matcher::ValueHolder\&lt; T \&gt;\n|# mValue\l|+ ValueHolder()\l+ ValueHolder()\l+ operator==()\l}">
<polygon fill="none" stroke="black" points="13,-291 13,-381 153,-381 153,-291 13,-291"/>
<text text-anchor="start" x="21" y="-369" font-family="Helvetica,sans-Serif" font-size="10.00">o2::framework::data</text>
<text text-anchor="middle" x="83" y="-358" font-family="Helvetica,sans-Serif" font-size="10.00">_matcher::ValueHolder&lt; T &gt;</text>
<polyline fill="none" stroke="black" points="13,-351 153,-351 "/>
<text text-anchor="start" x="21" y="-339" font-family="Helvetica,sans-Serif" font-size="10.00"># mValue</text>
<polyline fill="none" stroke="black" points="13,-332 153,-332 "/>
<text text-anchor="start" x="21" y="-320" font-family="Helvetica,sans-Serif" font-size="10.00">+ ValueHolder()</text>
<text text-anchor="start" x="21" y="-309" font-family="Helvetica,sans-Serif" font-size="10.00">+ ValueHolder()</text>
<text text-anchor="start" x="21" y="-298" font-family="Helvetica,sans-Serif" font-size="10.00">+ operator==()</text>
</a>
</g>
</g>
<!-- Node3&#45;&gt;Node2 -->
<g id="edge2" class="edge"><title>Node3&#45;&gt;Node2</title>
<path fill="none" stroke="orange" d="M83,-280.822C83,-267.965 83,-254.313 83,-241.668"/>
<polygon fill="orange" stroke="orange" points="79.5001,-280.928 83,-290.928 86.5001,-280.928 79.5001,-280.928"/>
<text text-anchor="middle" x="111" y="-263.5" font-family="Helvetica,sans-Serif" font-size="10.00"> &lt; uint64_t &gt;</text>
</g>
</g>
</svg>
