<?xml version="1.0" encoding="UTF-8" standalone="no"?>
<!DOCTYPE svg PUBLIC "-//W3C//DTD SVG 1.1//EN"
 "http://www.w3.org/Graphics/SVG/1.1/DTD/svg11.dtd">
<!-- Generated by graphviz version 2.36.0 (20140111.2315)
 -->
<!-- Title: /home/travis/build/AliceO2Group/AliceO2/Detectors/FIT/reconstruction/include/FITReconstruction/CollisionTimeRecoTask.h Pages: 1 -->
<svg width="336pt" height="296pt"
 viewBox="0.00 0.00 336.00 296.00" xmlns="http://www.w3.org/2000/svg" xmlns:xlink="http://www.w3.org/1999/xlink">
<g id="graph0" class="graph" transform="scale(1 1) rotate(0) translate(4 292)">
<title>/home/travis/build/AliceO2Group/AliceO2/Detectors/FIT/reconstruction/include/FITReconstruction/CollisionTimeRecoTask.h</title>
<!-- Node1 -->
<g id="node1" class="node"><title>Node1</title>
<polygon fill="#bfbfbf" stroke="black" points="67.5,-224.5 67.5,-287.5 212.5,-287.5 212.5,-224.5 67.5,-224.5"/>
<text text-anchor="start" x="75.5" y="-275.5" font-family="Helvetica,sans-Serif" font-size="10.00">/home/travis/build</text>
<text text-anchor="start" x="75.5" y="-264.5" font-family="Helvetica,sans-Serif" font-size="10.00">/AliceO2Group/AliceO2</text>
<text text-anchor="start" x="75.5" y="-253.5" font-family="Helvetica,sans-Serif" font-size="10.00">/Detectors/FIT/reconstruction</text>
<text text-anchor="start" x="75.5" y="-242.5" font-family="Helvetica,sans-Serif" font-size="10.00">/include/FITReconstruction</text>
<text text-anchor="middle" x="140" y="-231.5" font-family="Helvetica,sans-Serif" font-size="10.00">/CollisionTimeRecoTask.h</text>
</g>
<!-- Node2 -->
<g id="node2" class="node"><title>Node2</title>
<polygon fill="none" stroke="#bfbfbf" points="0,-168.5 0,-187.5 44,-187.5 44,-168.5 0,-168.5"/>
<text text-anchor="middle" x="22" y="-175.5" font-family="Helvetica,sans-Serif" font-size="10.00">vector</text>
</g>
<!-- Node1&#45;&gt;Node2 -->
<g id="edge1" class="edge"><title>Node1&#45;&gt;Node2</title>
<path fill="none" stroke="midnightblue" d="M92.345,-224.307C75.6105,-213.529 57.6107,-201.936 44.0081,-193.175"/>
<polygon fill="midnightblue" stroke="midnightblue" points="45.6654,-190.079 35.363,-187.607 41.875,-195.964 45.6654,-190.079"/>
</g>
<!-- Node3 -->
<g id="node3" class="node"><title>Node3</title>
<g id="a_node3"><a xlink:href="../../d1/dde/FIT_2base_2include_2FITBase_2Digit_8h.html" target="_top" xlink:title="FITBase/Digit.h">
<polygon fill="none" stroke="black" points="242,-112.5 242,-131.5 328,-131.5 328,-112.5 242,-112.5"/>
<text text-anchor="middle" x="285" y="-119.5" font-family="Helvetica,sans-Serif" font-size="10.00">FITBase/Digit.h</text>
</a>
</g>
</g>
<!-- Node1&#45;&gt;Node3 -->
<g id="edge2" class="edge"><title>Node1&#45;&gt;Node3</title>
<path fill="none" stroke="midnightblue" d="M182.3,-224.352C196.61,-213.388 212.401,-200.613 226,-188 242.499,-172.697 259.593,-153.423 271.107,-139.85"/>
<polygon fill="midnightblue" stroke="midnightblue" points="274.068,-141.766 277.806,-131.852 268.701,-137.271 274.068,-141.766"/>
</g>
<!-- Node7 -->
<g id="node7" class="node"><title>Node7</title>
<g id="a_node7"><a xlink:href="../../d4/d57/RecPoints_8h.html" target="_top" xlink:title="Definition of the FIT RecPoints class. ">
<polygon fill="none" stroke="black" points="62.5,-168.5 62.5,-187.5 217.5,-187.5 217.5,-168.5 62.5,-168.5"/>
<text text-anchor="middle" x="140" y="-175.5" font-family="Helvetica,sans-Serif" font-size="10.00">FITReconstruction/RecPoints.h</text>
</a>
</g>
</g>
<!-- Node1&#45;&gt;Node7 -->
<g id="edge7" class="edge"><title>Node1&#45;&gt;Node7</title>
<path fill="none" stroke="midnightblue" d="M140,-224.088C140,-215.15 140,-205.669 140,-197.719"/>
<polygon fill="midnightblue" stroke="midnightblue" points="143.5,-197.718 140,-187.718 136.5,-197.718 143.5,-197.718"/>
</g>
<!-- Node4 -->
<g id="node4" class="node"><title>Node4</title>
<g id="a_node4"><a xlink:href="../../df/d5d/common_2include_2CommonDataFormat_2TimeStamp_8h.html" target="_top" xlink:title="CommonDataFormat/TimeStamp.h">
<polygon fill="none" stroke="black" points="70,-56.5 70,-75.5 240,-75.5 240,-56.5 70,-56.5"/>
<text text-anchor="middle" x="155" y="-63.5" font-family="Helvetica,sans-Serif" font-size="10.00">CommonDataFormat/TimeStamp.h</text>
</a>
</g>
</g>
<!-- Node3&#45;&gt;Node4 -->
<g id="edge3" class="edge"><title>Node3&#45;&gt;Node4</title>
<path fill="none" stroke="midnightblue" d="M264.401,-112.444C243.007,-103.557 209.319,-89.5632 184.976,-79.4514"/>
<polygon fill="midnightblue" stroke="midnightblue" points="186.08,-76.1203 175.503,-75.5164 183.395,-82.5848 186.08,-76.1203"/>
</g>
<!-- Node5 -->
<g id="node5" class="node"><title>Node5</title>
<polygon fill="none" stroke="#bfbfbf" points="127,-0.5 127,-19.5 183,-19.5 183,-0.5 127,-0.5"/>
<text text-anchor="middle" x="155" y="-7.5" font-family="Helvetica,sans-Serif" font-size="10.00">Rtypes.h</text>
</g>
<!-- Node3&#45;&gt;Node5 -->
<g id="edge6" class="edge"><title>Node3&#45;&gt;Node5</title>
<path fill="none" stroke="midnightblue" d="M293.819,-112.298C306.092,-99.1209 325.385,-73.7606 312,-56 297.723,-37.056 235.041,-23.6521 193.327,-16.6388"/>
<polygon fill="midnightblue" stroke="midnightblue" points="193.648,-13.1451 183.215,-14.994 192.524,-20.0543 193.648,-13.1451"/>
</g>
<!-- Node6 -->
<g id="node6" class="node"><title>Node6</title>
<polygon fill="none" stroke="#bfbfbf" points="258.5,-56.5 258.5,-75.5 303.5,-75.5 303.5,-56.5 258.5,-56.5"/>
<text text-anchor="middle" x="281" y="-63.5" font-family="Helvetica,sans-Serif" font-size="10.00">iosfwd</text>
</g>
<!-- Node3&#45;&gt;Node6 -->
<g id="edge5" class="edge"><title>Node3&#45;&gt;Node6</title>
<path fill="none" stroke="midnightblue" d="M284.339,-112.083C283.815,-105.006 283.064,-94.8611 282.406,-85.9865"/>
<polygon fill="midnightblue" stroke="midnightblue" points="285.877,-85.4652 281.648,-75.7511 278.897,-85.9823 285.877,-85.4652"/>
</g>
<!-- Node4&#45;&gt;Node5 -->
<g id="edge4" class="edge"><title>Node4&#45;&gt;Node5</title>
<path fill="none" stroke="midnightblue" d="M155,-56.083C155,-49.0059 155,-38.8611 155,-29.9865"/>
<polygon fill="midnightblue" stroke="midnightblue" points="158.5,-29.751 155,-19.7511 151.5,-29.7511 158.5,-29.751"/>
</g>
<!-- Node7&#45;&gt;Node3 -->
<g id="edge12" class="edge"><title>Node7&#45;&gt;Node3</title>
<path fill="none" stroke="midnightblue" d="M162.976,-168.444C187.157,-159.438 225.418,-145.189 252.646,-135.049"/>
<polygon fill="midnightblue" stroke="midnightblue" points="253.982,-138.286 262.132,-131.516 251.539,-131.727 253.982,-138.286"/>
</g>
<!-- Node7&#45;&gt;Node4 -->
<g id="edge8" class="edge"><title>Node7&#45;&gt;Node4</title>
<path fill="none" stroke="midnightblue" d="M127.78,-168.335C112.3,-156.216 88.7932,-133.296 99,-112 105.253,-98.9542 117.336,-88.4921 128.682,-80.9506"/>
<polygon fill="midnightblue" stroke="midnightblue" points="130.809,-83.7515 137.498,-75.5351 127.146,-77.7869 130.809,-83.7515"/>
</g>
<!-- Node7&#45;&gt;Node5 -->
<g id="edge10" class="edge"><title>Node7&#45;&gt;Node5</title>
<path fill="none" stroke="midnightblue" d="M126.474,-168.258C97.5171,-148.426 34.2557,-98.454 61,-56 73.3486,-36.3977 96.8613,-25.1466 117.281,-18.7967"/>
<polygon fill="midnightblue" stroke="midnightblue" points="118.319,-22.1405 126.993,-16.058 116.419,-15.4032 118.319,-22.1405"/>
</g>
<!-- Node8 -->
<g id="node8" class="node"><title>Node8</title>
<polygon fill="none" stroke="#bfbfbf" points="108,-112.5 108,-131.5 146,-131.5 146,-112.5 108,-112.5"/>
<text text-anchor="middle" x="127" y="-119.5" font-family="Helvetica,sans-Serif" font-size="10.00">array</text>
</g>
<!-- Node7&#45;&gt;Node8 -->
<g id="edge9" class="edge"><title>Node7&#45;&gt;Node8</title>
<path fill="none" stroke="midnightblue" d="M137.853,-168.083C136.131,-160.927 133.653,-150.635 131.5,-141.691"/>
<polygon fill="midnightblue" stroke="midnightblue" points="134.85,-140.654 129.107,-131.751 128.045,-142.293 134.85,-140.654"/>
</g>
<!-- Node9 -->
<g id="node9" class="node"><title>Node9</title>
<polygon fill="none" stroke="#bfbfbf" points="164.5,-112.5 164.5,-131.5 223.5,-131.5 223.5,-112.5 164.5,-112.5"/>
<text text-anchor="middle" x="194" y="-119.5" font-family="Helvetica,sans-Serif" font-size="10.00">TObject.h</text>
</g>
<!-- Node7&#45;&gt;Node9 -->
<g id="edge11" class="edge"><title>Node7&#45;&gt;Node9</title>
<path fill="none" stroke="midnightblue" d="M148.917,-168.083C156.78,-160.22 168.431,-148.569 177.919,-139.081"/>
<polygon fill="midnightblue" stroke="midnightblue" points="180.653,-141.297 185.249,-131.751 175.703,-136.347 180.653,-141.297"/>
</g>
</g>
</svg>
