<?xml version="1.0" encoding="UTF-8" standalone="no"?>
<!DOCTYPE svg PUBLIC "-//W3C//DTD SVG 1.1//EN"
 "http://www.w3.org/Graphics/SVG/1.1/DTD/svg11.dtd">
<!-- Generated by graphviz version 2.36.0 (20140111.2315)
 -->
<!-- Title: ImGuiTextEditCallbackData Pages: 1 -->
<svg width="371pt" height="336pt"
 viewBox="0.00 0.00 371.00 336.00" xmlns="http://www.w3.org/2000/svg" xmlns:xlink="http://www.w3.org/1999/xlink">
<g id="graph0" class="graph" transform="scale(1 1) rotate(0) translate(4 332)">
<title>ImGuiTextEditCallbackData</title>
<!-- Node1 -->
<g id="node1" class="node"><title>Node1</title>
<polygon fill="#bfbfbf" stroke="black" points="88.5,-0.5 88.5,-145.5 227.5,-145.5 227.5,-0.5 88.5,-0.5"/>
<text text-anchor="middle" x="158" y="-133.5" font-family="Helvetica,sans-Serif" font-size="10.00">ImGuiTextEditCallbackData</text>
<polyline fill="none" stroke="black" points="88.5,-126.5 227.5,-126.5 "/>
<text text-anchor="middle" x="158" y="-114.5" font-family="Helvetica,sans-Serif" font-size="10.00"> </text>
<polyline fill="none" stroke="black" points="88.5,-107.5 227.5,-107.5 "/>
<text text-anchor="start" x="96.5" y="-95.5" font-family="Helvetica,sans-Serif" font-size="10.00">+ DeleteChars()</text>
<text text-anchor="start" x="96.5" y="-84.5" font-family="Helvetica,sans-Serif" font-size="10.00">+ InsertChars()</text>
<text text-anchor="start" x="96.5" y="-73.5" font-family="Helvetica,sans-Serif" font-size="10.00">+ HasSelection()</text>
<text text-anchor="start" x="96.5" y="-62.5" font-family="Helvetica,sans-Serif" font-size="10.00">+ DeleteChars()</text>
<text text-anchor="start" x="96.5" y="-51.5" font-family="Helvetica,sans-Serif" font-size="10.00">+ InsertChars()</text>
<text text-anchor="start" x="96.5" y="-40.5" font-family="Helvetica,sans-Serif" font-size="10.00">+ HasSelection()</text>
<text text-anchor="start" x="96.5" y="-29.5" font-family="Helvetica,sans-Serif" font-size="10.00">+ DeleteChars()</text>
<text text-anchor="start" x="96.5" y="-18.5" font-family="Helvetica,sans-Serif" font-size="10.00">+ InsertChars()</text>
<text text-anchor="start" x="96.5" y="-7.5" font-family="Helvetica,sans-Serif" font-size="10.00">+ HasSelection()</text>
</g>
<!-- Node2 -->
<g id="node2" class="node"><title>Node2</title>
<polygon fill="none" stroke="#bfbfbf" points="-0.5,-270.5 -0.5,-327.5 34.5,-327.5 34.5,-270.5 -0.5,-270.5"/>
<text text-anchor="middle" x="17" y="-315.5" font-family="Helvetica,sans-Serif" font-size="10.00">char</text>
<polyline fill="none" stroke="#bfbfbf" points="-0.5,-308.5 34.5,-308.5 "/>
<text text-anchor="middle" x="17" y="-296.5" font-family="Helvetica,sans-Serif" font-size="10.00"> </text>
<polyline fill="none" stroke="#bfbfbf" points="-0.5,-289.5 34.5,-289.5 "/>
<text text-anchor="middle" x="17" y="-277.5" font-family="Helvetica,sans-Serif" font-size="10.00"> </text>
</g>
<!-- Node2&#45;&gt;Node1 -->
<g id="edge1" class="edge"><title>Node2&#45;&gt;Node1</title>
<path fill="none" stroke="#404040" d="M15.7382,-270.293C15.6978,-241.674 19.2659,-196.699 39,-164 49.0309,-147.379 63.3875,-132.777 78.6775,-120.435"/>
<polygon fill="none" stroke="#404040" points="78.7752,-120.36 81.0932,-113.531 88.2879,-113.045 85.9699,-119.873 78.7752,-120.36"/>
<text text-anchor="middle" x="51.5" y="-205.5" font-family="Helvetica,sans-Serif" font-size="10.00"> +Buf</text>
</g>
<!-- Node3 -->
<g id="node3" class="node"><title>Node3</title>
<g id="a_node3"><a xlink:href="../../d1/da0/classint.html" target="_top" xlink:title="{int\n||}">
<polygon fill="none" stroke="black" points="52.5,-270.5 52.5,-327.5 81.5,-327.5 81.5,-270.5 52.5,-270.5"/>
<text text-anchor="middle" x="67" y="-315.5" font-family="Helvetica,sans-Serif" font-size="10.00">int</text>
<polyline fill="none" stroke="black" points="52.5,-308.5 81.5,-308.5 "/>
<text text-anchor="middle" x="67" y="-296.5" font-family="Helvetica,sans-Serif" font-size="10.00"> </text>
<polyline fill="none" stroke="black" points="52.5,-289.5 81.5,-289.5 "/>
<text text-anchor="middle" x="67" y="-277.5" font-family="Helvetica,sans-Serif" font-size="10.00"> </text>
</a>
</g>
</g>
<!-- Node3&#45;&gt;Node1 -->
<g id="edge2" class="edge"><title>Node3&#45;&gt;Node1</title>
<path fill="none" stroke="#404040" d="M66.7155,-270.423C67.373,-242.501 71.0439,-198.62 86,-164 87.1383,-161.365 88.375,-158.743 89.6956,-156.141"/>
<polygon fill="none" stroke="#404040" points="89.7387,-156.063 89.1514,-148.876 95.5598,-145.569 96.1471,-152.756 89.7387,-156.063"/>
<text text-anchor="middle" x="120" y="-244" font-family="Helvetica,sans-Serif" font-size="10.00"> +BufTextLen</text>
<text text-anchor="middle" x="120" y="-233" font-family="Helvetica,sans-Serif" font-size="10.00">+EventKey</text>
<text text-anchor="middle" x="120" y="-222" font-family="Helvetica,sans-Serif" font-size="10.00">+CursorPos</text>
<text text-anchor="middle" x="120" y="-211" font-family="Helvetica,sans-Serif" font-size="10.00">+SelectionEnd</text>
<text text-anchor="middle" x="120" y="-200" font-family="Helvetica,sans-Serif" font-size="10.00">+EventFlag</text>
<text text-anchor="middle" x="120" y="-189" font-family="Helvetica,sans-Serif" font-size="10.00">+BufSize</text>
<text text-anchor="middle" x="120" y="-178" font-family="Helvetica,sans-Serif" font-size="10.00">+Flags</text>
<text text-anchor="middle" x="120" y="-167" font-family="Helvetica,sans-Serif" font-size="10.00">+SelectionStart</text>
</g>
<!-- Node4 -->
<g id="node4" class="node"><title>Node4</title>
<polygon fill="none" stroke="#bfbfbf" points="140.5,-270.5 140.5,-327.5 175.5,-327.5 175.5,-270.5 140.5,-270.5"/>
<text text-anchor="middle" x="158" y="-315.5" font-family="Helvetica,sans-Serif" font-size="10.00">bool</text>
<polyline fill="none" stroke="#bfbfbf" points="140.5,-308.5 175.5,-308.5 "/>
<text text-anchor="middle" x="158" y="-296.5" font-family="Helvetica,sans-Serif" font-size="10.00"> </text>
<polyline fill="none" stroke="#bfbfbf" points="140.5,-289.5 175.5,-289.5 "/>
<text text-anchor="middle" x="158" y="-277.5" font-family="Helvetica,sans-Serif" font-size="10.00"> </text>
</g>
<!-- Node4&#45;&gt;Node1 -->
<g id="edge3" class="edge"><title>Node4&#45;&gt;Node1</title>
<path fill="none" stroke="#404040" d="M158,-270.083C158,-242.024 158,-197.372 158,-157.762"/>
<polygon fill="none" stroke="#404040" points="158,-157.655 154,-151.655 158,-145.655 162,-151.655 158,-157.655"/>
<text text-anchor="middle" x="183" y="-211" font-family="Helvetica,sans-Serif" font-size="10.00"> +BufDirty</text>
<text text-anchor="middle" x="183" y="-200" font-family="Helvetica,sans-Serif" font-size="10.00">+ReadOnly</text>
</g>
<!-- Node5 -->
<g id="node5" class="node"><title>Node5</title>
<polygon fill="none" stroke="#bfbfbf" points="203,-270.5 203,-327.5 259,-327.5 259,-270.5 203,-270.5"/>
<text text-anchor="middle" x="231" y="-315.5" font-family="Helvetica,sans-Serif" font-size="10.00">unsigned</text>
<polyline fill="none" stroke="#bfbfbf" points="203,-308.5 259,-308.5 "/>
<text text-anchor="middle" x="231" y="-296.5" font-family="Helvetica,sans-Serif" font-size="10.00"> </text>
<polyline fill="none" stroke="#bfbfbf" points="203,-289.5 259,-289.5 "/>
<text text-anchor="middle" x="231" y="-277.5" font-family="Helvetica,sans-Serif" font-size="10.00"> </text>
</g>
<!-- Node5&#45;&gt;Node1 -->
<g id="edge4" class="edge"><title>Node5&#45;&gt;Node1</title>
<path fill="none" stroke="#404040" d="M229.311,-270.349C226.971,-242.751 221.509,-199.461 209,-164 208.16,-161.618 207.258,-159.227 206.304,-156.833"/>
<polygon fill="none" stroke="#404040" points="206.236,-156.675 200.19,-152.745 201.493,-145.653 207.539,-149.583 206.236,-156.675"/>
<text text-anchor="middle" x="256" y="-205.5" font-family="Helvetica,sans-Serif" font-size="10.00"> +EventChar</text>
</g>
<!-- Node6 -->
<g id="node6" class="node"><title>Node6</title>
<polygon fill="none" stroke="#bfbfbf" points="289.5,-270.5 289.5,-327.5 330.5,-327.5 330.5,-270.5 289.5,-270.5"/>
<text text-anchor="middle" x="310" y="-315.5" font-family="Helvetica,sans-Serif" font-size="10.00">void *</text>
<polyline fill="none" stroke="#bfbfbf" points="289.5,-308.5 330.5,-308.5 "/>
<text text-anchor="middle" x="310" y="-296.5" font-family="Helvetica,sans-Serif" font-size="10.00"> </text>
<polyline fill="none" stroke="#bfbfbf" points="289.5,-289.5 330.5,-289.5 "/>
<text text-anchor="middle" x="310" y="-277.5" font-family="Helvetica,sans-Serif" font-size="10.00"> </text>
</g>
<!-- Node6&#45;&gt;Node1 -->
<g id="edge5" class="edge"><title>Node6&#45;&gt;Node1</title>
<path fill="none" stroke="#404040" d="M311.535,-270.389C311.824,-241.643 308.479,-196.377 288,-164 275.504,-144.245 256.937,-127.674 237.721,-114.354"/>
<polygon fill="none" stroke="#404040" points="237.649,-114.307 230.438,-114.333 227.641,-107.686 234.852,-107.661 237.649,-114.307"/>
<text text-anchor="middle" x="337" y="-205.5" font-family="Helvetica,sans-Serif" font-size="10.00"> +UserData</text>
</g>
</g>
</svg>
