<?xml version="1.0" encoding="UTF-8" standalone="no"?>
<!DOCTYPE svg PUBLIC "-//W3C//DTD SVG 1.1//EN"
 "http://www.w3.org/Graphics/SVG/1.1/DTD/svg11.dtd">
<!-- Generated by graphviz version 2.36.0 (20140111.2315)
 -->
<!-- Title: /home/travis/build/AliceO2Group/AliceO2/Detectors/MUON/MCH/Mapping/Impl3/src/PadGroupType.h Pages: 1 -->
<!--zoomable 342 -->
<svg id="main" version="1.1" xmlns="http://www.w3.org/2000/svg" xmlns:xlink="http://www.w3.org/1999/xlink" xml:space="preserve" onload="init(evt)">
<style type="text/css"><![CDATA[
.edge:hover path { stroke: red; }
.edge:hover polygon { stroke: red; fill: red; }
]]></style>
<script type="text/javascript"><![CDATA[
var edges = document.getElementsByTagName('g');
if (edges && edges.length) {
  for (var i=0;i<edges.length;i++) {
    if (edges[i].id.substr(0,4)=='edge') {
      edges[i].setAttribute('class','edge');
    }
  }
}
]]></script>
        <defs>
                <circle id="rim" cx="0" cy="0" r="7"/>
                <circle id="rim2" cx="0" cy="0" r="3.5"/>
                <g id="zoomPlus">
                        <use xlink:href="#rim" fill="#404040">
                                <set attributeName="fill" to="#808080" begin="zoomplus.mouseover" end="zoomplus.mouseout"/>
                        </use>
                        <path d="M-4,0h8M0,-4v8" fill="none" stroke="white" stroke-width="1.5" pointer-events="none"/>
                </g>
                <g id="zoomMin">
                        <use xlink:href="#rim" fill="#404040">
                                <set attributeName="fill" to="#808080" begin="zoomminus.mouseover" end="zoomminus.mouseout"/>
                        </use>
                        <path d="M-4,0h8" fill="none" stroke="white" stroke-width="1.5" pointer-events="none"/>
                </g>
                <g id="dirArrow">
                        <path fill="none" stroke="white" stroke-width="1.5" d="M0,-3.0v7 M-2.5,-0.5L0,-3.0L2.5,-0.5"/>
                </g>
               <g id="resetDef">
                       <use xlink:href="#rim2" fill="#404040">
                               <set attributeName="fill" to="#808080" begin="reset.mouseover" end="reset.mouseout"/>
                       </use>
               </g>
        </defs>

<script type="text/javascript">
var viewWidth = 5228;
var viewHeight = 342;
var sectionId = 'dynsection-1';
</script>
<script xlink:href="../../svgpan.js"/>
<svg id="graph" class="graph">
<g id="viewport">
<title>/home/travis/build/AliceO2Group/AliceO2/Detectors/MUON/MCH/Mapping/Impl3/src/PadGroupType.h</title>
<!-- Node1 -->
<g id="node1" class="node"><title>Node1</title>
<polygon fill="#bfbfbf" stroke="black" points="1306,-281 1306,-333 1468,-333 1468,-281 1306,-281"/>
<text text-anchor="start" x="1314" y="-321" font-family="Helvetica,sans-Serif" font-size="10.00">/home/travis/build</text>
<text text-anchor="start" x="1314" y="-310" font-family="Helvetica,sans-Serif" font-size="10.00">/AliceO2Group/AliceO2</text>
<text text-anchor="start" x="1314" y="-299" font-family="Helvetica,sans-Serif" font-size="10.00">/Detectors/MUON/MCH/Mapping</text>
<text text-anchor="middle" x="1387" y="-288" font-family="Helvetica,sans-Serif" font-size="10.00">/Impl3/src/PadGroupType.h</text>
</g>
<!-- Node2 -->
<g id="node2" class="node"><title>Node2</title>
<g id="a_node2"><a xlink:href="../../d2/db3/CathodeSegmentationImpl3_8h.html" target="_top" xlink:title="/home/travis/build\l/AliceO2Group/AliceO2\l/Detectors/MUON/MCH/Mapping\l/Impl3/src/CathodeSegmentationImpl3.h">
<polygon fill="none" stroke="black" points="1194,-191 1194,-243 1386,-243 1386,-191 1194,-191"/>
<text text-anchor="start" x="1202" y="-231" font-family="Helvetica,sans-Serif" font-size="10.00">/home/travis/build</text>
<text text-anchor="start" x="1202" y="-220" font-family="Helvetica,sans-Serif" font-size="10.00">/AliceO2Group/AliceO2</text>
<text text-anchor="start" x="1202" y="-209" font-family="Helvetica,sans-Serif" font-size="10.00">/Detectors/MUON/MCH/Mapping</text>
<text text-anchor="middle" x="1290" y="-198" font-family="Helvetica,sans-Serif" font-size="10.00">/Impl3/src/CathodeSegmentationImpl3.h</text>
</a>
</g>
</g>
<!-- Node1&#45;&gt;Node2 -->
<g id="edge1" class="edge"><title>Node1&#45;&gt;Node2</title>
<path fill="none" stroke="midnightblue" d="M1351.67,-273.951C1340.52,-263.829 1328.35,-252.795 1317.8,-243.221"/>
<polygon fill="midnightblue" stroke="midnightblue" points="1349.45,-276.656 1359.2,-280.783 1354.15,-271.471 1349.45,-276.656"/>
</g>
<!-- Node28 -->
<g id="node28" class="node"><title>Node28</title>
<g id="a_node28"><a xlink:href="../../dc/d36/PadGroupType_8cxx.html" target="_top" xlink:title="/home/travis/build\l/AliceO2Group/AliceO2\l/Detectors/MUON/MCH/Mapping\l/Impl3/src/PadGroupType.cxx">
<polygon fill="none" stroke="black" points="1404,-191 1404,-243 1566,-243 1566,-191 1404,-191"/>
<text text-anchor="start" x="1412" y="-231" font-family="Helvetica,sans-Serif" font-size="10.00">/home/travis/build</text>
<text text-anchor="start" x="1412" y="-220" font-family="Helvetica,sans-Serif" font-size="10.00">/AliceO2Group/AliceO2</text>
<text text-anchor="start" x="1412" y="-209" font-family="Helvetica,sans-Serif" font-size="10.00">/Detectors/MUON/MCH/Mapping</text>
<text text-anchor="middle" x="1485" y="-198" font-family="Helvetica,sans-Serif" font-size="10.00">/Impl3/src/PadGroupType.cxx</text>
</a>
</g>
</g>
<!-- Node1&#45;&gt;Node28 -->
<g id="edge28" class="edge"><title>Node1&#45;&gt;Node28</title>
<path fill="none" stroke="midnightblue" d="M1422.69,-273.951C1433.96,-263.829 1446.25,-252.795 1456.91,-243.221"/>
<polygon fill="midnightblue" stroke="midnightblue" points="1420.18,-271.497 1415.08,-280.783 1424.86,-276.706 1420.18,-271.497"/>
</g>
<!-- Node3 -->
<g id="node3" class="node"><title>Node3</title>
<g id="a_node3"><a xlink:href="../../d7/d08/CathodeSegmentationCImpl3_8cxx.html" target="_top" xlink:title="/home/travis/build\l/AliceO2Group/AliceO2\l/Detectors/MUON/MCH/Mapping\l/Impl3/src/CathodeSegmentationCImpl3.cxx">
<polygon fill="none" stroke="black" points="1052,-101 1052,-153 1262,-153 1262,-101 1052,-101"/>
<text text-anchor="start" x="1060" y="-141" font-family="Helvetica,sans-Serif" font-size="10.00">/home/travis/build</text>
<text text-anchor="start" x="1060" y="-130" font-family="Helvetica,sans-Serif" font-size="10.00">/AliceO2Group/AliceO2</text>
<text text-anchor="start" x="1060" y="-119" font-family="Helvetica,sans-Serif" font-size="10.00">/Detectors/MUON/MCH/Mapping</text>
<text text-anchor="middle" x="1157" y="-108" font-family="Helvetica,sans-Serif" font-size="10.00">/Impl3/src/CathodeSegmentationCImpl3.cxx</text>
</a>
</g>
</g>
<!-- Node2&#45;&gt;Node3 -->
<g id="edge2" class="edge"><title>Node2&#45;&gt;Node3</title>
<path fill="none" stroke="midnightblue" d="M1243.32,-185.114C1227.55,-174.68 1210.14,-163.163 1195.12,-153.221"/>
<polygon fill="midnightblue" stroke="midnightblue" points="1241.62,-188.184 1251.89,-190.783 1245.48,-182.346 1241.62,-188.184"/>
</g>
<!-- Node4 -->
<g id="node4" class="node"><title>Node4</title>
<g id="a_node4"><a xlink:href="../../d4/d1d/CathodeSegmentationCreator_8h.html" target="_top" xlink:title="/home/travis/build\l/AliceO2Group/AliceO2\l/Detectors/MUON/MCH/Mapping\l/Impl3/src/CathodeSegmentationCreator.h">
<polygon fill="none" stroke="black" points="2393,-101 2393,-153 2593,-153 2593,-101 2393,-101"/>
<text text-anchor="start" x="2401" y="-141" font-family="Helvetica,sans-Serif" font-size="10.00">/home/travis/build</text>
<text text-anchor="start" x="2401" y="-130" font-family="Helvetica,sans-Serif" font-size="10.00">/AliceO2Group/AliceO2</text>
<text text-anchor="start" x="2401" y="-119" font-family="Helvetica,sans-Serif" font-size="10.00">/Detectors/MUON/MCH/Mapping</text>
<text text-anchor="middle" x="2493" y="-108" font-family="Helvetica,sans-Serif" font-size="10.00">/Impl3/src/CathodeSegmentationCreator.h</text>
</a>
</g>
</g>
<!-- Node2&#45;&gt;Node4 -->
<g id="edge3" class="edge"><title>Node2&#45;&gt;Node4</title>
<path fill="none" stroke="midnightblue" d="M1396.4,-189.907C1767.53,-134.922 2200.74,-127.722 2392.82,-127.439"/>
<polygon fill="midnightblue" stroke="midnightblue" points="1395.64,-186.482 1386.27,-191.423 1396.68,-193.405 1395.64,-186.482"/>
</g>
<!-- Node6 -->
<g id="node6" class="node"><title>Node6</title>
<g id="a_node6"><a xlink:href="../../d7/d47/CathodeSegmentationImpl3_8cxx.html" target="_top" xlink:title="/home/travis/build\l/AliceO2Group/AliceO2\l/Detectors/MUON/MCH/Mapping\l/Impl3/src/CathodeSegmentationImpl3.cxx">
<polygon fill="none" stroke="black" points="-0.5,-6 -0.5,-58 202.5,-58 202.5,-6 -0.5,-6"/>
<text text-anchor="start" x="7.5" y="-46" font-family="Helvetica,sans-Serif" font-size="10.00">/home/travis/build</text>
<text text-anchor="start" x="7.5" y="-35" font-family="Helvetica,sans-Serif" font-size="10.00">/AliceO2Group/AliceO2</text>
<text text-anchor="start" x="7.5" y="-24" font-family="Helvetica,sans-Serif" font-size="10.00">/Detectors/MUON/MCH/Mapping</text>
<text text-anchor="middle" x="101" y="-13" font-family="Helvetica,sans-Serif" font-size="10.00">/Impl3/src/CathodeSegmentationImpl3.cxx</text>
</a>
</g>
</g>
<!-- Node2&#45;&gt;Node6 -->
<g id="edge27" class="edge"><title>Node2&#45;&gt;Node6</title>
<path fill="none" stroke="midnightblue" d="M1294.9,-180.868C1296.4,-154.475 1293.32,-119.628 1271,-100 1226.75,-61.0942 269.223,-73.057 211,-64 201.295,-62.4904 191.231,-60.4055 181.309,-58.0243"/>
<polygon fill="midnightblue" stroke="midnightblue" points="1291.4,-180.628 1294.09,-190.876 1298.38,-181.189 1291.4,-180.628"/>
</g>
<!-- Node5 -->
<g id="node5" class="node"><title>Node5</title>
<g id="a_node5"><a xlink:href="../../d2/d3d/CathodeSegmentationCreator_8cxx.html" target="_top" xlink:title="/home/travis/build\l/AliceO2Group/AliceO2\l/Detectors/MUON/MCH/Mapping\l/Impl3/src/CathodeSegmentationCreator.cxx">
<polygon fill="none" stroke="black" points="220.5,-6 220.5,-58 431.5,-58 431.5,-6 220.5,-6"/>
<text text-anchor="start" x="228.5" y="-46" font-family="Helvetica,sans-Serif" font-size="10.00">/home/travis/build</text>
<text text-anchor="start" x="228.5" y="-35" font-family="Helvetica,sans-Serif" font-size="10.00">/AliceO2Group/AliceO2</text>
<text text-anchor="start" x="228.5" y="-24" font-family="Helvetica,sans-Serif" font-size="10.00">/Detectors/MUON/MCH/Mapping</text>
<text text-anchor="middle" x="326" y="-13" font-family="Helvetica,sans-Serif" font-size="10.00">/Impl3/src/CathodeSegmentationCreator.cxx</text>
</a>
</g>
</g>
<!-- Node4&#45;&gt;Node5 -->
<g id="edge4" class="edge"><title>Node4&#45;&gt;Node5</title>
<path fill="none" stroke="midnightblue" d="M2382.73,-123.38C1970.34,-113.491 537.51,-78.266 441,-64 430.874,-62.5033 420.365,-60.4263 409.999,-58.0495"/>
<polygon fill="midnightblue" stroke="midnightblue" points="2382.79,-126.883 2392.87,-123.623 2382.96,-119.885 2382.79,-126.883"/>
</g>
<!-- Node4&#45;&gt;Node6 -->
<g id="edge5" class="edge"><title>Node4&#45;&gt;Node6</title>
<path fill="none" stroke="midnightblue" d="M2382.45,-123.757C1940.5,-114.691 319.215,-80.4579 211,-64 201.192,-62.5084 191.019,-60.4169 180.998,-58.0167"/>
<polygon fill="midnightblue" stroke="midnightblue" points="2382.6,-127.261 2392.67,-123.966 2382.75,-120.262 2382.6,-127.261"/>
</g>
<!-- Node7 -->
<g id="node7" class="node"><title>Node7</title>
<g id="a_node7"><a xlink:href="../../d1/d7d/GenCathodeSegmentationCreatorForSegType0_8cxx.html" target="_top" xlink:title="/home/travis/build\l/AliceO2Group/AliceO2\l/Detectors/MUON/MCH/Mapping\l/Impl3/src/GenCathodeSegmentationCreator\lForSegType0.cxx">
<polygon fill="none" stroke="black" points="450,-0.5 450,-63.5 660,-63.5 660,-0.5 450,-0.5"/>
<text text-anchor="start" x="458" y="-51.5" font-family="Helvetica,sans-Serif" font-size="10.00">/home/travis/build</text>
<text text-anchor="start" x="458" y="-40.5" font-family="Helvetica,sans-Serif" font-size="10.00">/AliceO2Group/AliceO2</text>
<text text-anchor="start" x="458" y="-29.5" font-family="Helvetica,sans-Serif" font-size="10.00">/Detectors/MUON/MCH/Mapping</text>
<text text-anchor="start" x="458" y="-18.5" font-family="Helvetica,sans-Serif" font-size="10.00">/Impl3/src/GenCathodeSegmentationCreator</text>
<text text-anchor="middle" x="555" y="-7.5" font-family="Helvetica,sans-Serif" font-size="10.00">ForSegType0.cxx</text>
</a>
</g>
</g>
<!-- Node4&#45;&gt;Node7 -->
<g id="edge6" class="edge"><title>Node4&#45;&gt;Node7</title>
<path fill="none" stroke="midnightblue" d="M2382.75,-123.739C2014.06,-115.973 837.73,-89.4568 669,-64 666.059,-63.5563 663.086,-63.0635 660.093,-62.5284"/>
<polygon fill="midnightblue" stroke="midnightblue" points="2382.83,-127.241 2392.9,-123.952 2382.97,-120.243 2382.83,-127.241"/>
</g>
<!-- Node8 -->
<g id="node8" class="node"><title>Node8</title>
<g id="a_node8"><a xlink:href="../../d8/def/GenCathodeSegmentationCreatorForSegType1_8cxx.html" target="_top" xlink:title="/home/travis/build\l/AliceO2Group/AliceO2\l/Detectors/MUON/MCH/Mapping\l/Impl3/src/GenCathodeSegmentationCreator\lForSegType1.cxx">
<polygon fill="none" stroke="black" points="678,-0.5 678,-63.5 888,-63.5 888,-0.5 678,-0.5"/>
<text text-anchor="start" x="686" y="-51.5" font-family="Helvetica,sans-Serif" font-size="10.00">/home/travis/build</text>
<text text-anchor="start" x="686" y="-40.5" font-family="Helvetica,sans-Serif" font-size="10.00">/AliceO2Group/AliceO2</text>
<text text-anchor="start" x="686" y="-29.5" font-family="Helvetica,sans-Serif" font-size="10.00">/Detectors/MUON/MCH/Mapping</text>
<text text-anchor="start" x="686" y="-18.5" font-family="Helvetica,sans-Serif" font-size="10.00">/Impl3/src/GenCathodeSegmentationCreator</text>
<text text-anchor="middle" x="783" y="-7.5" font-family="Helvetica,sans-Serif" font-size="10.00">ForSegType1.cxx</text>
</a>
</g>
</g>
<!-- Node4&#45;&gt;Node8 -->
<g id="edge7" class="edge"><title>Node4&#45;&gt;Node8</title>
<path fill="none" stroke="midnightblue" d="M2382.56,-124.964C2070.12,-121.517 1184.1,-108.028 897,-64 894.06,-63.5492 891.088,-63.05 888.096,-62.5094"/>
<polygon fill="midnightblue" stroke="midnightblue" points="2382.94,-128.468 2392.98,-125.078 2383.02,-121.469 2382.94,-128.468"/>
</g>
<!-- Node9 -->
<g id="node9" class="node"><title>Node9</title>
<g id="a_node9"><a xlink:href="../../d2/d13/GenCathodeSegmentationCreatorForSegType10_8cxx.html" target="_top" xlink:title="/home/travis/build\l/AliceO2Group/AliceO2\l/Detectors/MUON/MCH/Mapping\l/Impl3/src/GenCathodeSegmentationCreator\lForSegType10.cxx">
<polygon fill="none" stroke="black" points="906,-0.5 906,-63.5 1116,-63.5 1116,-0.5 906,-0.5"/>
<text text-anchor="start" x="914" y="-51.5" font-family="Helvetica,sans-Serif" font-size="10.00">/home/travis/build</text>
<text text-anchor="start" x="914" y="-40.5" font-family="Helvetica,sans-Serif" font-size="10.00">/AliceO2Group/AliceO2</text>
<text text-anchor="start" x="914" y="-29.5" font-family="Helvetica,sans-Serif" font-size="10.00">/Detectors/MUON/MCH/Mapping</text>
<text text-anchor="start" x="914" y="-18.5" font-family="Helvetica,sans-Serif" font-size="10.00">/Impl3/src/GenCathodeSegmentationCreator</text>
<text text-anchor="middle" x="1011" y="-7.5" font-family="Helvetica,sans-Serif" font-size="10.00">ForSegType10.cxx</text>
</a>
</g>
</g>
<!-- Node4&#45;&gt;Node9 -->
<g id="edge8" class="edge"><title>Node4&#45;&gt;Node9</title>
<path fill="none" stroke="midnightblue" d="M2382.31,-124.125C2101.45,-118.862 1366.29,-101.802 1125,-64 1122.06,-63.5397 1119.09,-63.0321 1116.1,-62.484"/>
<polygon fill="midnightblue" stroke="midnightblue" points="2382.45,-127.628 2392.52,-124.314 2382.58,-120.629 2382.45,-127.628"/>
</g>
<!-- Node10 -->
<g id="node10" class="node"><title>Node10</title>
<g id="a_node10"><a xlink:href="../../d1/dcc/GenCathodeSegmentationCreatorForSegType11_8cxx.html" target="_top" xlink:title="/home/travis/build\l/AliceO2Group/AliceO2\l/Detectors/MUON/MCH/Mapping\l/Impl3/src/GenCathodeSegmentationCreator\lForSegType11.cxx">
<polygon fill="none" stroke="black" points="1134,-0.5 1134,-63.5 1344,-63.5 1344,-0.5 1134,-0.5"/>
<text text-anchor="start" x="1142" y="-51.5" font-family="Helvetica,sans-Serif" font-size="10.00">/home/travis/build</text>
<text text-anchor="start" x="1142" y="-40.5" font-family="Helvetica,sans-Serif" font-size="10.00">/AliceO2Group/AliceO2</text>
<text text-anchor="start" x="1142" y="-29.5" font-family="Helvetica,sans-Serif" font-size="10.00">/Detectors/MUON/MCH/Mapping</text>
<text text-anchor="start" x="1142" y="-18.5" font-family="Helvetica,sans-Serif" font-size="10.00">/Impl3/src/GenCathodeSegmentationCreator</text>
<text text-anchor="middle" x="1239" y="-7.5" font-family="Helvetica,sans-Serif" font-size="10.00">ForSegType11.cxx</text>
</a>
</g>
</g>
<!-- Node4&#45;&gt;Node10 -->
<g id="edge9" class="edge"><title>Node4&#45;&gt;Node10</title>
<path fill="none" stroke="midnightblue" d="M2382.59,-122.966C2136.45,-115.72 1549.02,-95.6178 1353,-64 1350.06,-63.5264 1347.09,-63.007 1344.11,-62.4485"/>
<polygon fill="midnightblue" stroke="midnightblue" points="2382.53,-126.466 2392.63,-123.26 2382.73,-119.469 2382.53,-126.466"/>
</g>
<!-- Node11 -->
<g id="node11" class="node"><title>Node11</title>
<g id="a_node11"><a xlink:href="../../d9/de8/GenCathodeSegmentationCreatorForSegType12_8cxx.html" target="_top" xlink:title="/home/travis/build\l/AliceO2Group/AliceO2\l/Detectors/MUON/MCH/Mapping\l/Impl3/src/GenCathodeSegmentationCreator\lForSegType12.cxx">
<polygon fill="none" stroke="black" points="1362,-0.5 1362,-63.5 1572,-63.5 1572,-0.5 1362,-0.5"/>
<text text-anchor="start" x="1370" y="-51.5" font-family="Helvetica,sans-Serif" font-size="10.00">/home/travis/build</text>
<text text-anchor="start" x="1370" y="-40.5" font-family="Helvetica,sans-Serif" font-size="10.00">/AliceO2Group/AliceO2</text>
<text text-anchor="start" x="1370" y="-29.5" font-family="Helvetica,sans-Serif" font-size="10.00">/Detectors/MUON/MCH/Mapping</text>
<text text-anchor="start" x="1370" y="-18.5" font-family="Helvetica,sans-Serif" font-size="10.00">/Impl3/src/GenCathodeSegmentationCreator</text>
<text text-anchor="middle" x="1467" y="-7.5" font-family="Helvetica,sans-Serif" font-size="10.00">ForSegType12.cxx</text>
</a>
</g>
</g>
<!-- Node4&#45;&gt;Node11 -->
<g id="edge10" class="edge"><title>Node4&#45;&gt;Node11</title>
<path fill="none" stroke="midnightblue" d="M2382.62,-125.505C2210.29,-123.161 1867.36,-112.182 1581,-64 1578.07,-63.5065 1575.1,-62.9695 1572.11,-62.3955"/>
<polygon fill="midnightblue" stroke="midnightblue" points="2382.67,-129.006 2392.72,-125.635 2382.76,-122.006 2382.67,-129.006"/>
</g>
<!-- Node12 -->
<g id="node12" class="node"><title>Node12</title>
<g id="a_node12"><a xlink:href="../../d1/d7b/GenCathodeSegmentationCreatorForSegType13_8cxx.html" target="_top" xlink:title="/home/travis/build\l/AliceO2Group/AliceO2\l/Detectors/MUON/MCH/Mapping\l/Impl3/src/GenCathodeSegmentationCreator\lForSegType13.cxx">
<polygon fill="none" stroke="black" points="1590,-0.5 1590,-63.5 1800,-63.5 1800,-0.5 1590,-0.5"/>
<text text-anchor="start" x="1598" y="-51.5" font-family="Helvetica,sans-Serif" font-size="10.00">/home/travis/build</text>
<text text-anchor="start" x="1598" y="-40.5" font-family="Helvetica,sans-Serif" font-size="10.00">/AliceO2Group/AliceO2</text>
<text text-anchor="start" x="1598" y="-29.5" font-family="Helvetica,sans-Serif" font-size="10.00">/Detectors/MUON/MCH/Mapping</text>
<text text-anchor="start" x="1598" y="-18.5" font-family="Helvetica,sans-Serif" font-size="10.00">/Impl3/src/GenCathodeSegmentationCreator</text>
<text text-anchor="middle" x="1695" y="-7.5" font-family="Helvetica,sans-Serif" font-size="10.00">ForSegType13.cxx</text>
</a>
</g>
</g>
<!-- Node4&#45;&gt;Node12 -->
<g id="edge11" class="edge"><title>Node4&#45;&gt;Node12</title>
<path fill="none" stroke="midnightblue" d="M2382.86,-121.954C2247.03,-115.604 2009.5,-100.061 1809,-64 1806.07,-63.4736 1803.11,-62.9073 1800.13,-62.3074"/>
<polygon fill="midnightblue" stroke="midnightblue" points="2382.72,-125.451 2392.87,-122.413 2383.04,-118.458 2382.72,-125.451"/>
</g>
<!-- Node13 -->
<g id="node13" class="node"><title>Node13</title>
<g id="a_node13"><a xlink:href="../../da/d91/GenCathodeSegmentationCreatorForSegType14_8cxx.html" target="_top" xlink:title="/home/travis/build\l/AliceO2Group/AliceO2\l/Detectors/MUON/MCH/Mapping\l/Impl3/src/GenCathodeSegmentationCreator\lForSegType14.cxx">
<polygon fill="none" stroke="black" points="1818,-0.5 1818,-63.5 2028,-63.5 2028,-0.5 1818,-0.5"/>
<text text-anchor="start" x="1826" y="-51.5" font-family="Helvetica,sans-Serif" font-size="10.00">/home/travis/build</text>
<text text-anchor="start" x="1826" y="-40.5" font-family="Helvetica,sans-Serif" font-size="10.00">/AliceO2Group/AliceO2</text>
<text text-anchor="start" x="1826" y="-29.5" font-family="Helvetica,sans-Serif" font-size="10.00">/Detectors/MUON/MCH/Mapping</text>
<text text-anchor="start" x="1826" y="-18.5" font-family="Helvetica,sans-Serif" font-size="10.00">/Impl3/src/GenCathodeSegmentationCreator</text>
<text text-anchor="middle" x="1923" y="-7.5" font-family="Helvetica,sans-Serif" font-size="10.00">ForSegType14.cxx</text>
</a>
</g>
</g>
<!-- Node4&#45;&gt;Node13 -->
<g id="edge12" class="edge"><title>Node4&#45;&gt;Node13</title>
<path fill="none" stroke="midnightblue" d="M2382.78,-115.088C2290,-104.931 2154.09,-87.7756 2037,-64 2034.09,-63.4082 2031.14,-62.784 2028.16,-62.133"/>
<polygon fill="midnightblue" stroke="midnightblue" points="2382.42,-118.57 2392.74,-116.17 2383.18,-111.611 2382.42,-118.57"/>
</g>
<!-- Node14 -->
<g id="node14" class="node"><title>Node14</title>
<g id="a_node14"><a xlink:href="../../db/d75/GenCathodeSegmentationCreatorForSegType15_8cxx.html" target="_top" xlink:title="/home/travis/build\l/AliceO2Group/AliceO2\l/Detectors/MUON/MCH/Mapping\l/Impl3/src/GenCathodeSegmentationCreator\lForSegType15.cxx">
<polygon fill="none" stroke="black" points="2046,-0.5 2046,-63.5 2256,-63.5 2256,-0.5 2046,-0.5"/>
<text text-anchor="start" x="2054" y="-51.5" font-family="Helvetica,sans-Serif" font-size="10.00">/home/travis/build</text>
<text text-anchor="start" x="2054" y="-40.5" font-family="Helvetica,sans-Serif" font-size="10.00">/AliceO2Group/AliceO2</text>
<text text-anchor="start" x="2054" y="-29.5" font-family="Helvetica,sans-Serif" font-size="10.00">/Detectors/MUON/MCH/Mapping</text>
<text text-anchor="start" x="2054" y="-18.5" font-family="Helvetica,sans-Serif" font-size="10.00">/Impl3/src/GenCathodeSegmentationCreator</text>
<text text-anchor="middle" x="2151" y="-7.5" font-family="Helvetica,sans-Serif" font-size="10.00">ForSegType15.cxx</text>
</a>
</g>
</g>
<!-- Node4&#45;&gt;Node14 -->
<g id="edge13" class="edge"><title>Node4&#45;&gt;Node14</title>
<path fill="none" stroke="midnightblue" d="M2391.09,-98.2879C2348.55,-86.7203 2299.16,-73.2879 2256.27,-61.6251"/>
<polygon fill="midnightblue" stroke="midnightblue" points="2390.33,-101.709 2400.9,-100.955 2392.17,-94.9539 2390.33,-101.709"/>
</g>
<!-- Node15 -->
<g id="node15" class="node"><title>Node15</title>
<g id="a_node15"><a xlink:href="../../dd/dae/GenCathodeSegmentationCreatorForSegType16_8cxx.html" target="_top" xlink:title="/home/travis/build\l/AliceO2Group/AliceO2\l/Detectors/MUON/MCH/Mapping\l/Impl3/src/GenCathodeSegmentationCreator\lForSegType16.cxx">
<polygon fill="none" stroke="black" points="2274,-0.5 2274,-63.5 2484,-63.5 2484,-0.5 2274,-0.5"/>
<text text-anchor="start" x="2282" y="-51.5" font-family="Helvetica,sans-Serif" font-size="10.00">/home/travis/build</text>
<text text-anchor="start" x="2282" y="-40.5" font-family="Helvetica,sans-Serif" font-size="10.00">/AliceO2Group/AliceO2</text>
<text text-anchor="start" x="2282" y="-29.5" font-family="Helvetica,sans-Serif" font-size="10.00">/Detectors/MUON/MCH/Mapping</text>
<text text-anchor="start" x="2282" y="-18.5" font-family="Helvetica,sans-Serif" font-size="10.00">/Impl3/src/GenCathodeSegmentationCreator</text>
<text text-anchor="middle" x="2379" y="-7.5" font-family="Helvetica,sans-Serif" font-size="10.00">ForSegType16.cxx</text>
</a>
</g>
</g>
<!-- Node4&#45;&gt;Node15 -->
<g id="edge14" class="edge"><title>Node4&#45;&gt;Node15</title>
<path fill="none" stroke="midnightblue" d="M2454.38,-94.4954C2442.25,-84.5957 2428.87,-73.6806 2416.79,-63.8284"/>
<polygon fill="midnightblue" stroke="midnightblue" points="2452.19,-97.2236 2462.15,-100.833 2456.61,-91.7995 2452.19,-97.2236"/>
</g>
<!-- Node16 -->
<g id="node16" class="node"><title>Node16</title>
<g id="a_node16"><a xlink:href="../../da/d34/GenCathodeSegmentationCreatorForSegType17_8cxx.html" target="_top" xlink:title="/home/travis/build\l/AliceO2Group/AliceO2\l/Detectors/MUON/MCH/Mapping\l/Impl3/src/GenCathodeSegmentationCreator\lForSegType17.cxx">
<polygon fill="none" stroke="black" points="2502,-0.5 2502,-63.5 2712,-63.5 2712,-0.5 2502,-0.5"/>
<text text-anchor="start" x="2510" y="-51.5" font-family="Helvetica,sans-Serif" font-size="10.00">/home/travis/build</text>
<text text-anchor="start" x="2510" y="-40.5" font-family="Helvetica,sans-Serif" font-size="10.00">/AliceO2Group/AliceO2</text>
<text text-anchor="start" x="2510" y="-29.5" font-family="Helvetica,sans-Serif" font-size="10.00">/Detectors/MUON/MCH/Mapping</text>
<text text-anchor="start" x="2510" y="-18.5" font-family="Helvetica,sans-Serif" font-size="10.00">/Impl3/src/GenCathodeSegmentationCreator</text>
<text text-anchor="middle" x="2607" y="-7.5" font-family="Helvetica,sans-Serif" font-size="10.00">ForSegType17.cxx</text>
</a>
</g>
</g>
<!-- Node4&#45;&gt;Node16 -->
<g id="edge15" class="edge"><title>Node4&#45;&gt;Node16</title>
<path fill="none" stroke="midnightblue" d="M2531.62,-94.4954C2543.75,-84.5957 2557.13,-73.6806 2569.21,-63.8284"/>
<polygon fill="midnightblue" stroke="midnightblue" points="2529.39,-91.7995 2523.85,-100.833 2533.81,-97.2236 2529.39,-91.7995"/>
</g>
<!-- Node17 -->
<g id="node17" class="node"><title>Node17</title>
<g id="a_node17"><a xlink:href="../../d5/d23/GenCathodeSegmentationCreatorForSegType18_8cxx.html" target="_top" xlink:title="/home/travis/build\l/AliceO2Group/AliceO2\l/Detectors/MUON/MCH/Mapping\l/Impl3/src/GenCathodeSegmentationCreator\lForSegType18.cxx">
<polygon fill="none" stroke="black" points="2730,-0.5 2730,-63.5 2940,-63.5 2940,-0.5 2730,-0.5"/>
<text text-anchor="start" x="2738" y="-51.5" font-family="Helvetica,sans-Serif" font-size="10.00">/home/travis/build</text>
<text text-anchor="start" x="2738" y="-40.5" font-family="Helvetica,sans-Serif" font-size="10.00">/AliceO2Group/AliceO2</text>
<text text-anchor="start" x="2738" y="-29.5" font-family="Helvetica,sans-Serif" font-size="10.00">/Detectors/MUON/MCH/Mapping</text>
<text text-anchor="start" x="2738" y="-18.5" font-family="Helvetica,sans-Serif" font-size="10.00">/Impl3/src/GenCathodeSegmentationCreator</text>
<text text-anchor="middle" x="2835" y="-7.5" font-family="Helvetica,sans-Serif" font-size="10.00">ForSegType18.cxx</text>
</a>
</g>
</g>
<!-- Node4&#45;&gt;Node17 -->
<g id="edge16" class="edge"><title>Node4&#45;&gt;Node17</title>
<path fill="none" stroke="midnightblue" d="M2594.91,-98.2879C2637.45,-86.7203 2686.84,-73.2879 2729.73,-61.6251"/>
<polygon fill="midnightblue" stroke="midnightblue" points="2593.83,-94.9539 2585.1,-100.955 2595.67,-101.709 2593.83,-94.9539"/>
</g>
<!-- Node18 -->
<g id="node18" class="node"><title>Node18</title>
<g id="a_node18"><a xlink:href="../../d8/d63/GenCathodeSegmentationCreatorForSegType19_8cxx.html" target="_top" xlink:title="/home/travis/build\l/AliceO2Group/AliceO2\l/Detectors/MUON/MCH/Mapping\l/Impl3/src/GenCathodeSegmentationCreator\lForSegType19.cxx">
<polygon fill="none" stroke="black" points="2958,-0.5 2958,-63.5 3168,-63.5 3168,-0.5 2958,-0.5"/>
<text text-anchor="start" x="2966" y="-51.5" font-family="Helvetica,sans-Serif" font-size="10.00">/home/travis/build</text>
<text text-anchor="start" x="2966" y="-40.5" font-family="Helvetica,sans-Serif" font-size="10.00">/AliceO2Group/AliceO2</text>
<text text-anchor="start" x="2966" y="-29.5" font-family="Helvetica,sans-Serif" font-size="10.00">/Detectors/MUON/MCH/Mapping</text>
<text text-anchor="start" x="2966" y="-18.5" font-family="Helvetica,sans-Serif" font-size="10.00">/Impl3/src/GenCathodeSegmentationCreator</text>
<text text-anchor="middle" x="3063" y="-7.5" font-family="Helvetica,sans-Serif" font-size="10.00">ForSegType19.cxx</text>
</a>
</g>
</g>
<!-- Node4&#45;&gt;Node18 -->
<g id="edge17" class="edge"><title>Node4&#45;&gt;Node18</title>
<path fill="none" stroke="midnightblue" d="M2603.22,-115.088C2696,-104.931 2831.91,-87.7756 2949,-64 2951.91,-63.4082 2954.86,-62.784 2957.84,-62.133"/>
<polygon fill="midnightblue" stroke="midnightblue" points="2602.82,-111.611 2593.26,-116.17 2603.58,-118.57 2602.82,-111.611"/>
</g>
<!-- Node19 -->
<g id="node19" class="node"><title>Node19</title>
<g id="a_node19"><a xlink:href="../../da/d28/GenCathodeSegmentationCreatorForSegType2_8cxx.html" target="_top" xlink:title="/home/travis/build\l/AliceO2Group/AliceO2\l/Detectors/MUON/MCH/Mapping\l/Impl3/src/GenCathodeSegmentationCreator\lForSegType2.cxx">
<polygon fill="none" stroke="black" points="3186,-0.5 3186,-63.5 3396,-63.5 3396,-0.5 3186,-0.5"/>
<text text-anchor="start" x="3194" y="-51.5" font-family="Helvetica,sans-Serif" font-size="10.00">/home/travis/build</text>
<text text-anchor="start" x="3194" y="-40.5" font-family="Helvetica,sans-Serif" font-size="10.00">/AliceO2Group/AliceO2</text>
<text text-anchor="start" x="3194" y="-29.5" font-family="Helvetica,sans-Serif" font-size="10.00">/Detectors/MUON/MCH/Mapping</text>
<text text-anchor="start" x="3194" y="-18.5" font-family="Helvetica,sans-Serif" font-size="10.00">/Impl3/src/GenCathodeSegmentationCreator</text>
<text text-anchor="middle" x="3291" y="-7.5" font-family="Helvetica,sans-Serif" font-size="10.00">ForSegType2.cxx</text>
</a>
</g>
</g>
<!-- Node4&#45;&gt;Node19 -->
<g id="edge18" class="edge"><title>Node4&#45;&gt;Node19</title>
<path fill="none" stroke="midnightblue" d="M2603.14,-121.954C2738.97,-115.604 2976.5,-100.061 3177,-64 3179.93,-63.4736 3182.89,-62.9073 3185.87,-62.3074"/>
<polygon fill="midnightblue" stroke="midnightblue" points="2602.96,-118.458 2593.13,-122.413 2603.28,-125.451 2602.96,-118.458"/>
</g>
<!-- Node20 -->
<g id="node20" class="node"><title>Node20</title>
<g id="a_node20"><a xlink:href="../../d1/d5c/GenCathodeSegmentationCreatorForSegType20_8cxx.html" target="_top" xlink:title="/home/travis/build\l/AliceO2Group/AliceO2\l/Detectors/MUON/MCH/Mapping\l/Impl3/src/GenCathodeSegmentationCreator\lForSegType20.cxx">
<polygon fill="none" stroke="black" points="3414,-0.5 3414,-63.5 3624,-63.5 3624,-0.5 3414,-0.5"/>
<text text-anchor="start" x="3422" y="-51.5" font-family="Helvetica,sans-Serif" font-size="10.00">/home/travis/build</text>
<text text-anchor="start" x="3422" y="-40.5" font-family="Helvetica,sans-Serif" font-size="10.00">/AliceO2Group/AliceO2</text>
<text text-anchor="start" x="3422" y="-29.5" font-family="Helvetica,sans-Serif" font-size="10.00">/Detectors/MUON/MCH/Mapping</text>
<text text-anchor="start" x="3422" y="-18.5" font-family="Helvetica,sans-Serif" font-size="10.00">/Impl3/src/GenCathodeSegmentationCreator</text>
<text text-anchor="middle" x="3519" y="-7.5" font-family="Helvetica,sans-Serif" font-size="10.00">ForSegType20.cxx</text>
</a>
</g>
</g>
<!-- Node4&#45;&gt;Node20 -->
<g id="edge19" class="edge"><title>Node4&#45;&gt;Node20</title>
<path fill="none" stroke="midnightblue" d="M2603.38,-125.505C2775.71,-123.161 3118.64,-112.182 3405,-64 3407.93,-63.5065 3410.9,-62.9695 3413.89,-62.3955"/>
<polygon fill="midnightblue" stroke="midnightblue" points="2603.24,-122.006 2593.28,-125.635 2603.33,-129.006 2603.24,-122.006"/>
</g>
<!-- Node21 -->
<g id="node21" class="node"><title>Node21</title>
<g id="a_node21"><a xlink:href="../../d0/dbc/GenCathodeSegmentationCreatorForSegType3_8cxx.html" target="_top" xlink:title="/home/travis/build\l/AliceO2Group/AliceO2\l/Detectors/MUON/MCH/Mapping\l/Impl3/src/GenCathodeSegmentationCreator\lForSegType3.cxx">
<polygon fill="none" stroke="black" points="3642,-0.5 3642,-63.5 3852,-63.5 3852,-0.5 3642,-0.5"/>
<text text-anchor="start" x="3650" y="-51.5" font-family="Helvetica,sans-Serif" font-size="10.00">/home/travis/build</text>
<text text-anchor="start" x="3650" y="-40.5" font-family="Helvetica,sans-Serif" font-size="10.00">/AliceO2Group/AliceO2</text>
<text text-anchor="start" x="3650" y="-29.5" font-family="Helvetica,sans-Serif" font-size="10.00">/Detectors/MUON/MCH/Mapping</text>
<text text-anchor="start" x="3650" y="-18.5" font-family="Helvetica,sans-Serif" font-size="10.00">/Impl3/src/GenCathodeSegmentationCreator</text>
<text text-anchor="middle" x="3747" y="-7.5" font-family="Helvetica,sans-Serif" font-size="10.00">ForSegType3.cxx</text>
</a>
</g>
</g>
<!-- Node4&#45;&gt;Node21 -->
<g id="edge20" class="edge"><title>Node4&#45;&gt;Node21</title>
<path fill="none" stroke="midnightblue" d="M2603.41,-122.966C2849.55,-115.72 3436.98,-95.6178 3633,-64 3635.94,-63.5264 3638.91,-63.007 3641.89,-62.4485"/>
<polygon fill="midnightblue" stroke="midnightblue" points="2603.27,-119.469 2593.37,-123.26 2603.47,-126.466 2603.27,-119.469"/>
</g>
<!-- Node22 -->
<g id="node22" class="node"><title>Node22</title>
<g id="a_node22"><a xlink:href="../../d1/da9/GenCathodeSegmentationCreatorForSegType4_8cxx.html" target="_top" xlink:title="/home/travis/build\l/AliceO2Group/AliceO2\l/Detectors/MUON/MCH/Mapping\l/Impl3/src/GenCathodeSegmentationCreator\lForSegType4.cxx">
<polygon fill="none" stroke="black" points="3870,-0.5 3870,-63.5 4080,-63.5 4080,-0.5 3870,-0.5"/>
<text text-anchor="start" x="3878" y="-51.5" font-family="Helvetica,sans-Serif" font-size="10.00">/home/travis/build</text>
<text text-anchor="start" x="3878" y="-40.5" font-family="Helvetica,sans-Serif" font-size="10.00">/AliceO2Group/AliceO2</text>
<text text-anchor="start" x="3878" y="-29.5" font-family="Helvetica,sans-Serif" font-size="10.00">/Detectors/MUON/MCH/Mapping</text>
<text text-anchor="start" x="3878" y="-18.5" font-family="Helvetica,sans-Serif" font-size="10.00">/Impl3/src/GenCathodeSegmentationCreator</text>
<text text-anchor="middle" x="3975" y="-7.5" font-family="Helvetica,sans-Serif" font-size="10.00">ForSegType4.cxx</text>
</a>
</g>
</g>
<!-- Node4&#45;&gt;Node22 -->
<g id="edge21" class="edge"><title>Node4&#45;&gt;Node22</title>
<path fill="none" stroke="midnightblue" d="M2603.69,-124.125C2884.55,-118.862 3619.71,-101.802 3861,-64 3863.94,-63.5397 3866.91,-63.0321 3869.9,-62.484"/>
<polygon fill="midnightblue" stroke="midnightblue" points="2603.42,-120.629 2593.48,-124.314 2603.55,-127.628 2603.42,-120.629"/>
</g>
<!-- Node23 -->
<g id="node23" class="node"><title>Node23</title>
<g id="a_node23"><a xlink:href="../../de/dfe/GenCathodeSegmentationCreatorForSegType5_8cxx.html" target="_top" xlink:title="/home/travis/build\l/AliceO2Group/AliceO2\l/Detectors/MUON/MCH/Mapping\l/Impl3/src/GenCathodeSegmentationCreator\lForSegType5.cxx">
<polygon fill="none" stroke="black" points="4098,-0.5 4098,-63.5 4308,-63.5 4308,-0.5 4098,-0.5"/>
<text text-anchor="start" x="4106" y="-51.5" font-family="Helvetica,sans-Serif" font-size="10.00">/home/travis/build</text>
<text text-anchor="start" x="4106" y="-40.5" font-family="Helvetica,sans-Serif" font-size="10.00">/AliceO2Group/AliceO2</text>
<text text-anchor="start" x="4106" y="-29.5" font-family="Helvetica,sans-Serif" font-size="10.00">/Detectors/MUON/MCH/Mapping</text>
<text text-anchor="start" x="4106" y="-18.5" font-family="Helvetica,sans-Serif" font-size="10.00">/Impl3/src/GenCathodeSegmentationCreator</text>
<text text-anchor="middle" x="4203" y="-7.5" font-family="Helvetica,sans-Serif" font-size="10.00">ForSegType5.cxx</text>
</a>
</g>
</g>
<!-- Node4&#45;&gt;Node23 -->
<g id="edge22" class="edge"><title>Node4&#45;&gt;Node23</title>
<path fill="none" stroke="midnightblue" d="M2603.44,-124.964C2915.88,-121.517 3801.9,-108.028 4089,-64 4091.94,-63.5492 4094.91,-63.05 4097.9,-62.5094"/>
<polygon fill="midnightblue" stroke="midnightblue" points="2602.98,-121.469 2593.02,-125.078 2603.06,-128.468 2602.98,-121.469"/>
</g>
<!-- Node24 -->
<g id="node24" class="node"><title>Node24</title>
<g id="a_node24"><a xlink:href="../../d4/dfb/GenCathodeSegmentationCreatorForSegType6_8cxx.html" target="_top" xlink:title="/home/travis/build\l/AliceO2Group/AliceO2\l/Detectors/MUON/MCH/Mapping\l/Impl3/src/GenCathodeSegmentationCreator\lForSegType6.cxx">
<polygon fill="none" stroke="black" points="4326,-0.5 4326,-63.5 4536,-63.5 4536,-0.5 4326,-0.5"/>
<text text-anchor="start" x="4334" y="-51.5" font-family="Helvetica,sans-Serif" font-size="10.00">/home/travis/build</text>
<text text-anchor="start" x="4334" y="-40.5" font-family="Helvetica,sans-Serif" font-size="10.00">/AliceO2Group/AliceO2</text>
<text text-anchor="start" x="4334" y="-29.5" font-family="Helvetica,sans-Serif" font-size="10.00">/Detectors/MUON/MCH/Mapping</text>
<text text-anchor="start" x="4334" y="-18.5" font-family="Helvetica,sans-Serif" font-size="10.00">/Impl3/src/GenCathodeSegmentationCreator</text>
<text text-anchor="middle" x="4431" y="-7.5" font-family="Helvetica,sans-Serif" font-size="10.00">ForSegType6.cxx</text>
</a>
</g>
</g>
<!-- Node4&#45;&gt;Node24 -->
<g id="edge23" class="edge"><title>Node4&#45;&gt;Node24</title>
<path fill="none" stroke="midnightblue" d="M2603.18,-125.594C2944.89,-123.808 3983.76,-114.276 4317,-64 4319.94,-63.5563 4322.91,-63.0635 4325.91,-62.5284"/>
<polygon fill="midnightblue" stroke="midnightblue" points="2603.01,-122.095 2593.03,-125.646 2603.05,-129.095 2603.01,-122.095"/>
</g>
<!-- Node25 -->
<g id="node25" class="node"><title>Node25</title>
<g id="a_node25"><a xlink:href="../../d8/d47/GenCathodeSegmentationCreatorForSegType7_8cxx.html" target="_top" xlink:title="/home/travis/build\l/AliceO2Group/AliceO2\l/Detectors/MUON/MCH/Mapping\l/Impl3/src/GenCathodeSegmentationCreator\lForSegType7.cxx">
<polygon fill="none" stroke="black" points="4554,-0.5 4554,-63.5 4764,-63.5 4764,-0.5 4554,-0.5"/>
<text text-anchor="start" x="4562" y="-51.5" font-family="Helvetica,sans-Serif" font-size="10.00">/home/travis/build</text>
<text text-anchor="start" x="4562" y="-40.5" font-family="Helvetica,sans-Serif" font-size="10.00">/AliceO2Group/AliceO2</text>
<text text-anchor="start" x="4562" y="-29.5" font-family="Helvetica,sans-Serif" font-size="10.00">/Detectors/MUON/MCH/Mapping</text>
<text text-anchor="start" x="4562" y="-18.5" font-family="Helvetica,sans-Serif" font-size="10.00">/Impl3/src/GenCathodeSegmentationCreator</text>
<text text-anchor="middle" x="4659" y="-7.5" font-family="Helvetica,sans-Serif" font-size="10.00">ForSegType7.cxx</text>
</a>
</g>
</g>
<!-- Node4&#45;&gt;Node25 -->
<g id="edge24" class="edge"><title>Node4&#45;&gt;Node25</title>
<path fill="none" stroke="midnightblue" d="M2603.35,-126.083C2972.98,-125.825 4165.51,-120.522 4545,-64 4547.94,-63.5619 4550.92,-63.0739 4553.91,-62.5432"/>
<polygon fill="midnightblue" stroke="midnightblue" points="2603.18,-122.583 2593.18,-126.089 2603.19,-129.583 2603.18,-122.583"/>
</g>
<!-- Node26 -->
<g id="node26" class="node"><title>Node26</title>
<g id="a_node26"><a xlink:href="../../df/dac/GenCathodeSegmentationCreatorForSegType8_8cxx.html" target="_top" xlink:title="/home/travis/build\l/AliceO2Group/AliceO2\l/Detectors/MUON/MCH/Mapping\l/Impl3/src/GenCathodeSegmentationCreator\lForSegType8.cxx">
<polygon fill="none" stroke="black" points="4782,-0.5 4782,-63.5 4992,-63.5 4992,-0.5 4782,-0.5"/>
<text text-anchor="start" x="4790" y="-51.5" font-family="Helvetica,sans-Serif" font-size="10.00">/home/travis/build</text>
<text text-anchor="start" x="4790" y="-40.5" font-family="Helvetica,sans-Serif" font-size="10.00">/AliceO2Group/AliceO2</text>
<text text-anchor="start" x="4790" y="-29.5" font-family="Helvetica,sans-Serif" font-size="10.00">/Detectors/MUON/MCH/Mapping</text>
<text text-anchor="start" x="4790" y="-18.5" font-family="Helvetica,sans-Serif" font-size="10.00">/Impl3/src/GenCathodeSegmentationCreator</text>
<text text-anchor="middle" x="4887" y="-7.5" font-family="Helvetica,sans-Serif" font-size="10.00">ForSegType8.cxx</text>
</a>
</g>
</g>
<!-- Node4&#45;&gt;Node26 -->
<g id="edge25" class="edge"><title>Node4&#45;&gt;Node26</title>
<path fill="none" stroke="midnightblue" d="M2603.28,-126.476C2999.07,-127.642 4346.97,-126.797 4773,-64 4775.94,-63.5663 4778.92,-63.0823 4781.91,-62.5551"/>
<polygon fill="midnightblue" stroke="midnightblue" points="2603.27,-122.976 2593.26,-126.445 2603.25,-129.976 2603.27,-122.976"/>
</g>
<!-- Node27 -->
<g id="node27" class="node"><title>Node27</title>
<g id="a_node27"><a xlink:href="../../db/d1e/GenCathodeSegmentationCreatorForSegType9_8cxx.html" target="_top" xlink:title="/home/travis/build\l/AliceO2Group/AliceO2\l/Detectors/MUON/MCH/Mapping\l/Impl3/src/GenCathodeSegmentationCreator\lForSegType9.cxx">
<polygon fill="none" stroke="black" points="5010,-0.5 5010,-63.5 5220,-63.5 5220,-0.5 5010,-0.5"/>
<text text-anchor="start" x="5018" y="-51.5" font-family="Helvetica,sans-Serif" font-size="10.00">/home/travis/build</text>
<text text-anchor="start" x="5018" y="-40.5" font-family="Helvetica,sans-Serif" font-size="10.00">/AliceO2Group/AliceO2</text>
<text text-anchor="start" x="5018" y="-29.5" font-family="Helvetica,sans-Serif" font-size="10.00">/Detectors/MUON/MCH/Mapping</text>
<text text-anchor="start" x="5018" y="-18.5" font-family="Helvetica,sans-Serif" font-size="10.00">/Impl3/src/GenCathodeSegmentationCreator</text>
<text text-anchor="middle" x="5115" y="-7.5" font-family="Helvetica,sans-Serif" font-size="10.00">ForSegType9.cxx</text>
</a>
</g>
</g>
<!-- Node4&#45;&gt;Node27 -->
<g id="edge26" class="edge"><title>Node4&#45;&gt;Node27</title>
<path fill="none" stroke="midnightblue" d="M2603.24,-124.838C3056.27,-119.85 4762.15,-98.9054 5001,-64 5003.94,-63.5699 5006.92,-63.0892 5009.91,-62.5648"/>
<polygon fill="midnightblue" stroke="midnightblue" points="2603.05,-121.34 2593.09,-124.949 2603.13,-128.339 2603.05,-121.34"/>
</g>
</g>
</svg>
        <g id="navigator" transform="translate(0 0)" fill="#404254">
                <rect fill="#f2f5e9" fill-opacity="0.5" stroke="#606060" stroke-width=".5" x="0" y="0" width="60" height="60"/>
                <use id="zoomplus" xlink:href="#zoomPlus" x="17" y="9" onmousedown="handleZoom(evt,'in')"/>
                <use id="zoomminus" xlink:href="#zoomMin" x="42" y="9" onmousedown="handleZoom(evt,'out')"/>
                <use id="reset" xlink:href="#resetDef" x="30" y="36" onmousedown="handleReset()"/>
                <g id="arrowUp" xlink:href="#dirArrow" transform="translate(30 24)" onmousedown="handlePan(0,-1)">
                  <use xlink:href="#rim" fill="#404040">
                        <set attributeName="fill" to="#808080" begin="arrowUp.mouseover" end="arrowUp.mouseout"/>
                  </use>
                  <path fill="none" stroke="white" stroke-width="1.5" d="M0,-3.0v7 M-2.5,-0.5L0,-3.0L2.5,-0.5"/>
                </g>
                <g id="arrowRight" xlink:href="#dirArrow" transform="rotate(90) translate(36 -43)" onmousedown="handlePan(1,0)">
                  <use xlink:href="#rim" fill="#404040">
                        <set attributeName="fill" to="#808080" begin="arrowRight.mouseover" end="arrowRight.mouseout"/>
                  </use>
                  <path fill="none" stroke="white" stroke-width="1.5" d="M0,-3.0v7 M-2.5,-0.5L0,-3.0L2.5,-0.5"/>
                </g>
                <g id="arrowDown" xlink:href="#dirArrow" transform="rotate(180) translate(-30 -48)" onmousedown="handlePan(0,1)">
                  <use xlink:href="#rim" fill="#404040">
                        <set attributeName="fill" to="#808080" begin="arrowDown.mouseover" end="arrowDown.mouseout"/>
                  </use>
                  <path fill="none" stroke="white" stroke-width="1.5" d="M0,-3.0v7 M-2.5,-0.5L0,-3.0L2.5,-0.5"/>
                </g>
                <g id="arrowLeft" xlink:href="#dirArrow" transform="rotate(270) translate(-36 17)" onmousedown="handlePan(-1,0)">
                  <use xlink:href="#rim" fill="#404040">
                        <set attributeName="fill" to="#808080" begin="arrowLeft.mouseover" end="arrowLeft.mouseout"/>
                  </use>
                  <path fill="none" stroke="white" stroke-width="1.5" d="M0,-3.0v7 M-2.5,-0.5L0,-3.0L2.5,-0.5"/>
                </g>
        </g>
        <svg viewBox="0 0 15 15" width="100%" height="30px" preserveAspectRatio="xMaxYMin meet">
         <g id="arrow_out" transform="scale(0.3 0.3)">
          <a xlink:href="PadGroupType_8h__dep__incl_org.svg" target="_base">
           <rect id="button" ry="5" rx="5" y="6" x="6" height="38" width="38"
                fill="#f2f5e9" fill-opacity="0.5" stroke="#606060" stroke-width="1.0"/>
           <path id="arrow"
             d="M 11.500037,31.436501 C 11.940474,20.09759 22.043105,11.32322 32.158766,21.979434 L 37.068811,17.246167 C 37.068811,17.246167 37.088388,32 37.088388,32 L 22.160133,31.978069 C 22.160133,31.978069 26.997745,27.140456 26.997745,27.140456 C 18.528582,18.264221 13.291696,25.230495 11.500037,31.436501 z"
             style="fill:#404040;"/>
          </a>
         </g>
        </svg>
</svg>
