<?xml version="1.0" encoding="UTF-8" standalone="no"?>
<!DOCTYPE svg PUBLIC "-//W3C//DTD SVG 1.1//EN"
 "http://www.w3.org/Graphics/SVG/1.1/DTD/svg11.dtd">
<!-- Generated by graphviz version 2.36.0 (20140111.2315)
 -->
<!-- Title: o2::framework::has_root_dictionary&lt; T, _ &gt; Pages: 1 -->
<svg width="149pt" height="442pt"
 viewBox="0.00 0.00 149.00 442.00" xmlns="http://www.w3.org/2000/svg" xmlns:xlink="http://www.w3.org/1999/xlink">
<g id="graph0" class="graph" transform="scale(1 1) rotate(0) translate(4 438)">
<title>o2::framework::has_root_dictionary&lt; T, _ &gt;</title>
<!-- Node1 -->
<g id="node1" class="node"><title>Node1</title>
<polygon fill="#bfbfbf" stroke="black" points="-0.5,-269 -0.5,-337 120.5,-337 120.5,-269 -0.5,-269"/>
<text text-anchor="start" x="7.5" y="-325" font-family="Helvetica,sans-Serif" font-size="10.00">o2::framework::has</text>
<text text-anchor="middle" x="60" y="-314" font-family="Helvetica,sans-Serif" font-size="10.00">_root_dictionary&lt; T, _ &gt;</text>
<polyline fill="none" stroke="black" points="-0.5,-307 120.5,-307 "/>
<text text-anchor="middle" x="60" y="-295" font-family="Helvetica,sans-Serif" font-size="10.00"> </text>
<polyline fill="none" stroke="black" points="-0.5,-288 120.5,-288 "/>
<text text-anchor="middle" x="60" y="-276" font-family="Helvetica,sans-Serif" font-size="10.00"> </text>
</g>
<!-- Node3 -->
<g id="node3" class="node"><title>Node3</title>
<g id="a_node3"><a xlink:href="../../d3/de1/structo2_1_1framework_1_1has__root__dictionary.html" target="_top" xlink:title="{o2::framework::has\l_root_dictionary\&lt; T\l::value_type \&gt;\n||}">
<polygon fill="none" stroke="black" points="9.5,-140.5 9.5,-219.5 110.5,-219.5 110.5,-140.5 9.5,-140.5"/>
<text text-anchor="start" x="17.5" y="-207.5" font-family="Helvetica,sans-Serif" font-size="10.00">o2::framework::has</text>
<text text-anchor="start" x="17.5" y="-196.5" font-family="Helvetica,sans-Serif" font-size="10.00">_root_dictionary&lt; T</text>
<text text-anchor="middle" x="60" y="-185.5" font-family="Helvetica,sans-Serif" font-size="10.00">::value_type &gt;</text>
<polyline fill="none" stroke="black" points="9.5,-178.5 110.5,-178.5 "/>
<text text-anchor="middle" x="60" y="-166.5" font-family="Helvetica,sans-Serif" font-size="10.00"> </text>
<polyline fill="none" stroke="black" points="9.5,-159.5 110.5,-159.5 "/>
<text text-anchor="middle" x="60" y="-147.5" font-family="Helvetica,sans-Serif" font-size="10.00"> </text>
</a>
</g>
</g>
<!-- Node1&#45;&gt;Node3 -->
<g id="edge2" class="edge"><title>Node1&#45;&gt;Node3</title>
<path fill="none" stroke="orange" d="M60,-258.557C60,-245.828 60,-232.003 60,-219.597"/>
<polygon fill="orange" stroke="orange" points="56.5001,-258.936 60,-268.936 63.5001,-258.936 56.5001,-258.936"/>
<text text-anchor="middle" x="100.5" y="-241.5" font-family="Helvetica,sans-Serif" font-size="10.00"> &lt; T::value_type &gt;</text>
</g>
<!-- Node2 -->
<g id="node2" class="node"><title>Node2</title>
<polygon fill="none" stroke="#bfbfbf" points="29,-376.5 29,-433.5 91,-433.5 91,-376.5 29,-376.5"/>
<text text-anchor="middle" x="60" y="-421.5" font-family="Helvetica,sans-Serif" font-size="10.00">false_type</text>
<polyline fill="none" stroke="#bfbfbf" points="29,-414.5 91,-414.5 "/>
<text text-anchor="middle" x="60" y="-402.5" font-family="Helvetica,sans-Serif" font-size="10.00"> </text>
<polyline fill="none" stroke="#bfbfbf" points="29,-395.5 91,-395.5 "/>
<text text-anchor="middle" x="60" y="-383.5" font-family="Helvetica,sans-Serif" font-size="10.00"> </text>
</g>
<!-- Node2&#45;&gt;Node1 -->
<g id="edge1" class="edge"><title>Node2&#45;&gt;Node1</title>
<path fill="none" stroke="midnightblue" d="M60,-366.337C60,-356.755 60,-346.528 60,-337.187"/>
<polygon fill="none" stroke="midnightblue" points="56.5001,-366.41 60,-376.41 63.5001,-366.41 56.5001,-366.41"/>
</g>
<!-- Node4 -->
<g id="node4" class="node"><title>Node4</title>
<g id="a_node4"><a xlink:href="../../d5/d6d/classo2_1_1framework_1_1has__root__dictionary_3_01T_00_01typename_01std_1_1enable__if_3_01is__co3a14f09bcf42c805e484bfdd1c1dadfb.html" target="_top" xlink:title="{o2::framework::has\l_root_dictionary\&lt; T,\l typename std::enable\l_if\&lt; is_container\&lt; T \&gt;\l::value \&gt;::type \&gt;\n||}">
<polygon fill="none" stroke="black" points="3.5,-0.5 3.5,-101.5 116.5,-101.5 116.5,-0.5 3.5,-0.5"/>
<text text-anchor="start" x="11.5" y="-89.5" font-family="Helvetica,sans-Serif" font-size="10.00">o2::framework::has</text>
<text text-anchor="start" x="11.5" y="-78.5" font-family="Helvetica,sans-Serif" font-size="10.00">_root_dictionary&lt; T,</text>
<text text-anchor="start" x="11.5" y="-67.5" font-family="Helvetica,sans-Serif" font-size="10.00"> typename std::enable</text>
<text text-anchor="start" x="11.5" y="-56.5" font-family="Helvetica,sans-Serif" font-size="10.00">_if&lt; is_container&lt; T &gt;</text>
<text text-anchor="middle" x="60" y="-45.5" font-family="Helvetica,sans-Serif" font-size="10.00">::value &gt;::type &gt;</text>
<polyline fill="none" stroke="black" points="3.5,-38.5 116.5,-38.5 "/>
<text text-anchor="middle" x="60" y="-26.5" font-family="Helvetica,sans-Serif" font-size="10.00"> </text>
<polyline fill="none" stroke="black" points="3.5,-19.5 116.5,-19.5 "/>
<text text-anchor="middle" x="60" y="-7.5" font-family="Helvetica,sans-Serif" font-size="10.00"> </text>
</a>
</g>
</g>
<!-- Node3&#45;&gt;Node4 -->
<g id="edge3" class="edge"><title>Node3&#45;&gt;Node4</title>
<path fill="none" stroke="midnightblue" d="M60,-129.999C60,-120.756 60,-111.08 60,-101.812"/>
<polygon fill="none" stroke="midnightblue" points="56.5001,-130.206 60,-140.206 63.5001,-130.206 56.5001,-130.206"/>
</g>
</g>
</svg>
