<?xml version="1.0" encoding="UTF-8" standalone="no"?>
<!DOCTYPE svg PUBLIC "-//W3C//DTD SVG 1.1//EN"
 "http://www.w3.org/Graphics/SVG/1.1/DTD/svg11.dtd">
<!-- Generated by graphviz version 2.36.0 (20140111.2315)
 -->
<!-- Title: /home/travis/build/AliceO2Group/AliceO2/Detectors/ITSMFT/common/reconstruction/src/ChipMappingMFT.cxx Pages: 1 -->
<svg width="243pt" height="264pt"
 viewBox="0.00 0.00 243.00 264.00" xmlns="http://www.w3.org/2000/svg" xmlns:xlink="http://www.w3.org/1999/xlink">
<g id="graph0" class="graph" transform="scale(1 1) rotate(0) translate(4 260)">
<title>/home/travis/build/AliceO2Group/AliceO2/Detectors/ITSMFT/common/reconstruction/src/ChipMappingMFT.cxx</title>
<!-- Node1 -->
<g id="node1" class="node"><title>Node1</title>
<polygon fill="#bfbfbf" stroke="black" points="0,-192.5 0,-255.5 158,-255.5 158,-192.5 0,-192.5"/>
<text text-anchor="start" x="8" y="-243.5" font-family="Helvetica,sans-Serif" font-size="10.00">/home/travis/build</text>
<text text-anchor="start" x="8" y="-232.5" font-family="Helvetica,sans-Serif" font-size="10.00">/AliceO2Group/AliceO2</text>
<text text-anchor="start" x="8" y="-221.5" font-family="Helvetica,sans-Serif" font-size="10.00">/Detectors/ITSMFT/common</text>
<text text-anchor="start" x="8" y="-210.5" font-family="Helvetica,sans-Serif" font-size="10.00">/reconstruction/src/ChipMapping</text>
<text text-anchor="middle" x="79" y="-199.5" font-family="Helvetica,sans-Serif" font-size="10.00">MFT.cxx</text>
</g>
<!-- Node2 -->
<g id="node2" class="node"><title>Node2</title>
<g id="a_node2"><a xlink:href="../../d0/d6b/ChipMappingMFT_8h.html" target="_top" xlink:title="ITSMFTReconstruction\l/ChipMappingMFT.h">
<polygon fill="none" stroke="black" points="19.5,-125 19.5,-155 138.5,-155 138.5,-125 19.5,-125"/>
<text text-anchor="start" x="27.5" y="-143" font-family="Helvetica,sans-Serif" font-size="10.00">ITSMFTReconstruction</text>
<text text-anchor="middle" x="79" y="-132" font-family="Helvetica,sans-Serif" font-size="10.00">/ChipMappingMFT.h</text>
</a>
</g>
</g>
<!-- Node1&#45;&gt;Node2 -->
<g id="edge1" class="edge"><title>Node1&#45;&gt;Node2</title>
<path fill="none" stroke="midnightblue" d="M79,-192.466C79,-183.502 79,-173.822 79,-165.302"/>
<polygon fill="midnightblue" stroke="midnightblue" points="82.5001,-165.272 79,-155.272 75.5001,-165.272 82.5001,-165.272"/>
</g>
<!-- Node3 -->
<g id="node3" class="node"><title>Node3</title>
<polygon fill="none" stroke="#bfbfbf" points="41,-0.5 41,-19.5 97,-19.5 97,-0.5 41,-0.5"/>
<text text-anchor="middle" x="69" y="-7.5" font-family="Helvetica,sans-Serif" font-size="10.00">Rtypes.h</text>
</g>
<!-- Node2&#45;&gt;Node3 -->
<g id="edge2" class="edge"><title>Node2&#45;&gt;Node3</title>
<path fill="none" stroke="midnightblue" d="M68.5603,-124.659C62.1016,-114.868 54.4125,-101.307 51,-88 47.467,-74.2236 48.3105,-69.9656 51,-56 52.7901,-46.7047 56.483,-36.8887 60.0607,-28.8048"/>
<polygon fill="midnightblue" stroke="midnightblue" points="63.2733,-30.1981 64.3788,-19.6611 56.9436,-27.2089 63.2733,-30.1981"/>
</g>
<!-- Node4 -->
<g id="node4" class="node"><title>Node4</title>
<polygon fill="none" stroke="#bfbfbf" points="60,-62.5 60,-81.5 98,-81.5 98,-62.5 60,-62.5"/>
<text text-anchor="middle" x="79" y="-69.5" font-family="Helvetica,sans-Serif" font-size="10.00">array</text>
</g>
<!-- Node2&#45;&gt;Node4 -->
<g id="edge3" class="edge"><title>Node2&#45;&gt;Node4</title>
<path fill="none" stroke="midnightblue" d="M79,-124.679C79,-115.101 79,-102.394 79,-91.9766"/>
<polygon fill="midnightblue" stroke="midnightblue" points="82.5001,-91.8283 79,-81.8283 75.5001,-91.8283 82.5001,-91.8283"/>
</g>
<!-- Node5 -->
<g id="node5" class="node"><title>Node5</title>
<g id="a_node5"><a xlink:href="../../dc/dd8/RUInfo_8h.html" target="_top" xlink:title="ITSMFTReconstruction\l/RUInfo.h">
<polygon fill="none" stroke="black" points="116.5,-57 116.5,-87 235.5,-87 235.5,-57 116.5,-57"/>
<text text-anchor="start" x="124.5" y="-75" font-family="Helvetica,sans-Serif" font-size="10.00">ITSMFTReconstruction</text>
<text text-anchor="middle" x="176" y="-64" font-family="Helvetica,sans-Serif" font-size="10.00">/RUInfo.h</text>
</a>
</g>
</g>
<!-- Node2&#45;&gt;Node5 -->
<g id="edge4" class="edge"><title>Node2&#45;&gt;Node5</title>
<path fill="none" stroke="midnightblue" d="M100.048,-124.679C113.742,-115.361 131.789,-103.082 146.856,-92.8301"/>
<polygon fill="midnightblue" stroke="midnightblue" points="149.028,-95.5855 155.327,-87.0663 145.09,-89.7981 149.028,-95.5855"/>
</g>
<!-- Node5&#45;&gt;Node3 -->
<g id="edge5" class="edge"><title>Node5&#45;&gt;Node3</title>
<path fill="none" stroke="midnightblue" d="M150.913,-56.9327C133.506,-47.1715 110.445,-34.2401 93.2276,-24.5856"/>
<polygon fill="midnightblue" stroke="midnightblue" points="94.7709,-21.4383 84.3367,-19.6 91.3471,-27.5439 94.7709,-21.4383"/>
</g>
<!-- Node6 -->
<g id="node6" class="node"><title>Node6</title>
<polygon fill="none" stroke="#bfbfbf" points="153,-0.5 153,-19.5 199,-19.5 199,-0.5 153,-0.5"/>
<text text-anchor="middle" x="176" y="-7.5" font-family="Helvetica,sans-Serif" font-size="10.00">cstdint</text>
</g>
<!-- Node5&#45;&gt;Node6 -->
<g id="edge6" class="edge"><title>Node5&#45;&gt;Node6</title>
<path fill="none" stroke="midnightblue" d="M176,-56.7808C176,-48.7812 176,-38.6887 176,-30.0168"/>
<polygon fill="midnightblue" stroke="midnightblue" points="179.5,-29.7305 176,-19.7305 172.5,-29.7306 179.5,-29.7305"/>
</g>
</g>
</svg>
