<?xml version="1.0" encoding="UTF-8" standalone="no"?>
<!DOCTYPE svg PUBLIC "-//W3C//DTD SVG 1.1//EN"
 "http://www.w3.org/Graphics/SVG/1.1/DTD/svg11.dtd">
<!-- Generated by graphviz version 2.36.0 (20140111.2315)
 -->
<!-- Title: o2::framework::data_matcher::SubSpecificationTypeValueMatcher Pages: 1 -->
<svg width="154pt" height="434pt"
 viewBox="0.00 0.00 154.00 434.00" xmlns="http://www.w3.org/2000/svg" xmlns:xlink="http://www.w3.org/1999/xlink">
<g id="graph0" class="graph" transform="scale(1 1) rotate(0) translate(4 430)">
<title>o2::framework::data_matcher::SubSpecificationTypeValueMatcher</title>
<!-- Node1 -->
<g id="node1" class="node"><title>Node1</title>
<polygon fill="#bfbfbf" stroke="black" points="0,-0.5 0,-145.5 146,-145.5 146,-0.5 0,-0.5"/>
<text text-anchor="start" x="8" y="-133.5" font-family="Helvetica,sans-Serif" font-size="10.00">o2::framework::data</text>
<text text-anchor="start" x="8" y="-122.5" font-family="Helvetica,sans-Serif" font-size="10.00">_matcher::SubSpecification</text>
<text text-anchor="middle" x="73" y="-111.5" font-family="Helvetica,sans-Serif" font-size="10.00">TypeValueMatcher</text>
<polyline fill="none" stroke="black" points="0,-104.5 146,-104.5 "/>
<text text-anchor="middle" x="73" y="-92.5" font-family="Helvetica,sans-Serif" font-size="10.00"> </text>
<polyline fill="none" stroke="black" points="0,-85.5 146,-85.5 "/>
<text text-anchor="start" x="8" y="-73.5" font-family="Helvetica,sans-Serif" font-size="10.00">+ SubSpecificationTypeValue</text>
<text text-anchor="start" x="8" y="-62.5" font-family="Helvetica,sans-Serif" font-size="10.00">Matcher()</text>
<text text-anchor="start" x="8" y="-51.5" font-family="Helvetica,sans-Serif" font-size="10.00">+ SubSpecificationTypeValue</text>
<text text-anchor="start" x="8" y="-40.5" font-family="Helvetica,sans-Serif" font-size="10.00">Matcher()</text>
<text text-anchor="start" x="8" y="-29.5" font-family="Helvetica,sans-Serif" font-size="10.00">+ SubSpecificationTypeValue</text>
<text text-anchor="start" x="8" y="-18.5" font-family="Helvetica,sans-Serif" font-size="10.00">Matcher()</text>
<text text-anchor="start" x="8" y="-7.5" font-family="Helvetica,sans-Serif" font-size="10.00">+ match()</text>
</g>
<!-- Node2 -->
<g id="node2" class="node"><title>Node2</title>
<g id="a_node2"><a xlink:href="../../dc/d72/classo2_1_1framework_1_1data__matcher_1_1ValueHolder.html" target="_top" xlink:title="{o2::framework::data\l_matcher::ValueHolder\l\&lt; uint64_t \&gt;\n|# mValue\l|+ ValueHolder()\l+ ValueHolder()\l+ operator==()\l}">
<polygon fill="none" stroke="black" points="15,-184.5 15,-285.5 131,-285.5 131,-184.5 15,-184.5"/>
<text text-anchor="start" x="23" y="-273.5" font-family="Helvetica,sans-Serif" font-size="10.00">o2::framework::data</text>
<text text-anchor="start" x="23" y="-262.5" font-family="Helvetica,sans-Serif" font-size="10.00">_matcher::ValueHolder</text>
<text text-anchor="middle" x="73" y="-251.5" font-family="Helvetica,sans-Serif" font-size="10.00">&lt; uint64_t &gt;</text>
<polyline fill="none" stroke="black" points="15,-244.5 131,-244.5 "/>
<text text-anchor="start" x="23" y="-232.5" font-family="Helvetica,sans-Serif" font-size="10.00"># mValue</text>
<polyline fill="none" stroke="black" points="15,-225.5 131,-225.5 "/>
<text text-anchor="start" x="23" y="-213.5" font-family="Helvetica,sans-Serif" font-size="10.00">+ ValueHolder()</text>
<text text-anchor="start" x="23" y="-202.5" font-family="Helvetica,sans-Serif" font-size="10.00">+ ValueHolder()</text>
<text text-anchor="start" x="23" y="-191.5" font-family="Helvetica,sans-Serif" font-size="10.00">+ operator==()</text>
</a>
</g>
</g>
<!-- Node2&#45;&gt;Node1 -->
<g id="edge1" class="edge"><title>Node2&#45;&gt;Node1</title>
<path fill="none" stroke="midnightblue" d="M73,-174.025C73,-164.799 73,-155.193 73,-145.742"/>
<polygon fill="none" stroke="midnightblue" points="69.5001,-174.252 73,-184.252 76.5001,-174.252 69.5001,-174.252"/>
</g>
<!-- Node3 -->
<g id="node3" class="node"><title>Node3</title>
<g id="a_node3"><a xlink:href="../../dc/d72/classo2_1_1framework_1_1data__matcher_1_1ValueHolder.html" target="_top" xlink:title="{o2::framework::data\l_matcher::ValueHolder\&lt; T \&gt;\n|# mValue\l|+ ValueHolder()\l+ ValueHolder()\l+ operator==()\l}">
<polygon fill="none" stroke="black" points="3,-335 3,-425 143,-425 143,-335 3,-335"/>
<text text-anchor="start" x="11" y="-413" font-family="Helvetica,sans-Serif" font-size="10.00">o2::framework::data</text>
<text text-anchor="middle" x="73" y="-402" font-family="Helvetica,sans-Serif" font-size="10.00">_matcher::ValueHolder&lt; T &gt;</text>
<polyline fill="none" stroke="black" points="3,-395 143,-395 "/>
<text text-anchor="start" x="11" y="-383" font-family="Helvetica,sans-Serif" font-size="10.00"># mValue</text>
<polyline fill="none" stroke="black" points="3,-376 143,-376 "/>
<text text-anchor="start" x="11" y="-364" font-family="Helvetica,sans-Serif" font-size="10.00">+ ValueHolder()</text>
<text text-anchor="start" x="11" y="-353" font-family="Helvetica,sans-Serif" font-size="10.00">+ ValueHolder()</text>
<text text-anchor="start" x="11" y="-342" font-family="Helvetica,sans-Serif" font-size="10.00">+ operator==()</text>
</a>
</g>
</g>
<!-- Node3&#45;&gt;Node2 -->
<g id="edge2" class="edge"><title>Node3&#45;&gt;Node2</title>
<path fill="none" stroke="orange" d="M73,-324.822C73,-311.965 73,-298.313 73,-285.668"/>
<polygon fill="orange" stroke="orange" points="69.5001,-324.928 73,-334.928 76.5001,-324.928 69.5001,-324.928"/>
<text text-anchor="middle" x="101" y="-307.5" font-family="Helvetica,sans-Serif" font-size="10.00"> &lt; uint64_t &gt;</text>
</g>
</g>
</svg>
