<?xml version="1.0" encoding="UTF-8" standalone="no"?>
<!DOCTYPE svg PUBLIC "-//W3C//DTD SVG 1.1//EN"
 "http://www.w3.org/Graphics/SVG/1.1/DTD/svg11.dtd">
<!-- Generated by graphviz version 2.36.0 (20140111.2315)
 -->
<!-- Title: o2::ITSMFT::DPLDigitizerParam&lt; N &gt; Pages: 1 -->
<svg width="639pt" height="996pt"
 viewBox="0.00 0.00 639.00 996.00" xmlns="http://www.w3.org/2000/svg" xmlns:xlink="http://www.w3.org/1999/xlink">
<g id="graph0" class="graph" transform="scale(1 1) rotate(0) translate(4 992)">
<title>o2::ITSMFT::DPLDigitizerParam&lt; N &gt;</title>
<!-- Node1 -->
<g id="node1" class="node"><title>Node1</title>
<polygon fill="#bfbfbf" stroke="black" points="258.5,-0.5 258.5,-79.5 389.5,-79.5 389.5,-0.5 258.5,-0.5"/>
<text text-anchor="start" x="266.5" y="-67.5" font-family="Helvetica,sans-Serif" font-size="10.00">o2::ITSMFT::DPLDigitizer</text>
<text text-anchor="middle" x="324" y="-56.5" font-family="Helvetica,sans-Serif" font-size="10.00">Param&lt; N &gt;</text>
<polyline fill="none" stroke="black" points="258.5,-49.5 389.5,-49.5 "/>
<text text-anchor="middle" x="324" y="-37.5" font-family="Helvetica,sans-Serif" font-size="10.00"> </text>
<polyline fill="none" stroke="black" points="258.5,-30.5 389.5,-30.5 "/>
<text text-anchor="start" x="266.5" y="-18.5" font-family="Helvetica,sans-Serif" font-size="10.00">+ O2ParamDef()</text>
<text text-anchor="start" x="266.5" y="-7.5" font-family="Helvetica,sans-Serif" font-size="10.00">+ getParamName()</text>
</g>
<!-- Node2 -->
<g id="node2" class="node"><title>Node2</title>
<g id="a_node2"><a xlink:href="../../d7/d50/classo2_1_1conf_1_1ConfigurableParamHelper.html" target="_top" xlink:title="{o2::conf::ConfigurableParam\lHelper\&lt; DPLDigitizerParam\&lt; N \&gt; \&gt;\n||+ getName()\l+ printKeyValues()\l+ putKeyValues()\l+ initFrom()\l+ serializeTo()\l+ Instance()\l}">
<polygon fill="none" stroke="black" points="32.5,-204.5 32.5,-327.5 205.5,-327.5 205.5,-204.5 32.5,-204.5"/>
<text text-anchor="start" x="40.5" y="-315.5" font-family="Helvetica,sans-Serif" font-size="10.00">o2::conf::ConfigurableParam</text>
<text text-anchor="middle" x="119" y="-304.5" font-family="Helvetica,sans-Serif" font-size="10.00">Helper&lt; DPLDigitizerParam&lt; N &gt; &gt;</text>
<polyline fill="none" stroke="black" points="32.5,-297.5 205.5,-297.5 "/>
<text text-anchor="middle" x="119" y="-285.5" font-family="Helvetica,sans-Serif" font-size="10.00"> </text>
<polyline fill="none" stroke="black" points="32.5,-278.5 205.5,-278.5 "/>
<text text-anchor="start" x="40.5" y="-266.5" font-family="Helvetica,sans-Serif" font-size="10.00">+ getName()</text>
<text text-anchor="start" x="40.5" y="-255.5" font-family="Helvetica,sans-Serif" font-size="10.00">+ printKeyValues()</text>
<text text-anchor="start" x="40.5" y="-244.5" font-family="Helvetica,sans-Serif" font-size="10.00">+ putKeyValues()</text>
<text text-anchor="start" x="40.5" y="-233.5" font-family="Helvetica,sans-Serif" font-size="10.00">+ initFrom()</text>
<text text-anchor="start" x="40.5" y="-222.5" font-family="Helvetica,sans-Serif" font-size="10.00">+ serializeTo()</text>
<text text-anchor="start" x="40.5" y="-211.5" font-family="Helvetica,sans-Serif" font-size="10.00">+ Instance()</text>
</a>
</g>
</g>
<!-- Node2&#45;&gt;Node1 -->
<g id="edge1" class="edge"><title>Node2&#45;&gt;Node1</title>
<path fill="none" stroke="midnightblue" d="M161.678,-195.93C183.213,-164.107 211.091,-127.05 241,-98 247.646,-91.5451 255.098,-85.3198 262.736,-79.5057"/>
<polygon fill="none" stroke="midnightblue" points="158.712,-194.069 156.06,-204.326 164.53,-197.961 158.712,-194.069"/>
</g>
<!-- Node3 -->
<g id="node3" class="node"><title>Node3</title>
<g id="a_node3"><a xlink:href="../../d6/d14/classo2_1_1conf_1_1ConfigurableParam.html" target="_top" xlink:title="{o2::conf::ConfigurableParam\n||+ getName()\l+ printKeyValues()\l+ toString()\l+ printAllRegisteredParamNames()\l+ printAllKeyValuePairs()\l+ writeJSON()\l+ writeINI()\l+ getValueAs()\l+ setValue()\l+ setValue()\l+ initialize()\l+ toCCDB()\l+ fromCCDB()\l+ updateFromString()\l# ConfigurableParam()\l# ~ConfigurableParam()\l# putKeyValues()\l# serializeTo()\l# initFrom()\l# setRegisterMode()\l# initPropertyTree()\l# updateThroughStorageMap()\l# updateThroughStorageMapWith\lConversion()\l}">
<polygon fill="none" stroke="black" points="49.5,-549 49.5,-859 218.5,-859 218.5,-549 49.5,-549"/>
<text text-anchor="middle" x="134" y="-847" font-family="Helvetica,sans-Serif" font-size="10.00">o2::conf::ConfigurableParam</text>
<polyline fill="none" stroke="black" points="49.5,-840 218.5,-840 "/>
<text text-anchor="middle" x="134" y="-828" font-family="Helvetica,sans-Serif" font-size="10.00"> </text>
<polyline fill="none" stroke="black" points="49.5,-821 218.5,-821 "/>
<text text-anchor="start" x="57.5" y="-809" font-family="Helvetica,sans-Serif" font-size="10.00">+ getName()</text>
<text text-anchor="start" x="57.5" y="-798" font-family="Helvetica,sans-Serif" font-size="10.00">+ printKeyValues()</text>
<text text-anchor="start" x="57.5" y="-787" font-family="Helvetica,sans-Serif" font-size="10.00">+ toString()</text>
<text text-anchor="start" x="57.5" y="-776" font-family="Helvetica,sans-Serif" font-size="10.00">+ printAllRegisteredParamNames()</text>
<text text-anchor="start" x="57.5" y="-765" font-family="Helvetica,sans-Serif" font-size="10.00">+ printAllKeyValuePairs()</text>
<text text-anchor="start" x="57.5" y="-754" font-family="Helvetica,sans-Serif" font-size="10.00">+ writeJSON()</text>
<text text-anchor="start" x="57.5" y="-743" font-family="Helvetica,sans-Serif" font-size="10.00">+ writeINI()</text>
<text text-anchor="start" x="57.5" y="-732" font-family="Helvetica,sans-Serif" font-size="10.00">+ getValueAs()</text>
<text text-anchor="start" x="57.5" y="-721" font-family="Helvetica,sans-Serif" font-size="10.00">+ setValue()</text>
<text text-anchor="start" x="57.5" y="-710" font-family="Helvetica,sans-Serif" font-size="10.00">+ setValue()</text>
<text text-anchor="start" x="57.5" y="-699" font-family="Helvetica,sans-Serif" font-size="10.00">+ initialize()</text>
<text text-anchor="start" x="57.5" y="-688" font-family="Helvetica,sans-Serif" font-size="10.00">+ toCCDB()</text>
<text text-anchor="start" x="57.5" y="-677" font-family="Helvetica,sans-Serif" font-size="10.00">+ fromCCDB()</text>
<text text-anchor="start" x="57.5" y="-666" font-family="Helvetica,sans-Serif" font-size="10.00">+ updateFromString()</text>
<text text-anchor="start" x="57.5" y="-655" font-family="Helvetica,sans-Serif" font-size="10.00"># ConfigurableParam()</text>
<text text-anchor="start" x="57.5" y="-644" font-family="Helvetica,sans-Serif" font-size="10.00"># ~ConfigurableParam()</text>
<text text-anchor="start" x="57.5" y="-633" font-family="Helvetica,sans-Serif" font-size="10.00"># putKeyValues()</text>
<text text-anchor="start" x="57.5" y="-622" font-family="Helvetica,sans-Serif" font-size="10.00"># serializeTo()</text>
<text text-anchor="start" x="57.5" y="-611" font-family="Helvetica,sans-Serif" font-size="10.00"># initFrom()</text>
<text text-anchor="start" x="57.5" y="-600" font-family="Helvetica,sans-Serif" font-size="10.00"># setRegisterMode()</text>
<text text-anchor="start" x="57.5" y="-589" font-family="Helvetica,sans-Serif" font-size="10.00"># initPropertyTree()</text>
<text text-anchor="start" x="57.5" y="-578" font-family="Helvetica,sans-Serif" font-size="10.00"># updateThroughStorageMap()</text>
<text text-anchor="start" x="57.5" y="-567" font-family="Helvetica,sans-Serif" font-size="10.00"># updateThroughStorageMapWith</text>
<text text-anchor="start" x="57.5" y="-556" font-family="Helvetica,sans-Serif" font-size="10.00">Conversion()</text>
</a>
</g>
</g>
<!-- Node3&#45;&gt;Node2 -->
<g id="edge2" class="edge"><title>Node3&#45;&gt;Node2</title>
<path fill="none" stroke="midnightblue" d="M123.233,-538.793C122.767,-529.053 122.35,-519.399 122,-510 119.688,-447.917 119.043,-376.857 118.913,-327.688"/>
<polygon fill="none" stroke="midnightblue" points="119.746,-539.152 123.734,-548.967 126.737,-538.807 119.746,-539.152"/>
</g>
<!-- Node6 -->
<g id="node6" class="node"><title>Node6</title>
<g id="a_node6"><a xlink:href="../../d7/d50/classo2_1_1conf_1_1ConfigurableParamHelper.html" target="_top" xlink:title="{o2::conf::ConfigurableParam\lHelper\&lt; P \&gt;\n||+ getName()\l+ printKeyValues()\l+ putKeyValues()\l+ initFrom()\l+ serializeTo()\l+ Instance()\l}">
<polygon fill="none" stroke="black" points="131.5,-386.5 131.5,-509.5 272.5,-509.5 272.5,-386.5 131.5,-386.5"/>
<text text-anchor="start" x="139.5" y="-497.5" font-family="Helvetica,sans-Serif" font-size="10.00">o2::conf::ConfigurableParam</text>
<text text-anchor="middle" x="202" y="-486.5" font-family="Helvetica,sans-Serif" font-size="10.00">Helper&lt; P &gt;</text>
<polyline fill="none" stroke="black" points="131.5,-479.5 272.5,-479.5 "/>
<text text-anchor="middle" x="202" y="-467.5" font-family="Helvetica,sans-Serif" font-size="10.00"> </text>
<polyline fill="none" stroke="black" points="131.5,-460.5 272.5,-460.5 "/>
<text text-anchor="start" x="139.5" y="-448.5" font-family="Helvetica,sans-Serif" font-size="10.00">+ getName()</text>
<text text-anchor="start" x="139.5" y="-437.5" font-family="Helvetica,sans-Serif" font-size="10.00">+ printKeyValues()</text>
<text text-anchor="start" x="139.5" y="-426.5" font-family="Helvetica,sans-Serif" font-size="10.00">+ putKeyValues()</text>
<text text-anchor="start" x="139.5" y="-415.5" font-family="Helvetica,sans-Serif" font-size="10.00">+ initFrom()</text>
<text text-anchor="start" x="139.5" y="-404.5" font-family="Helvetica,sans-Serif" font-size="10.00">+ serializeTo()</text>
<text text-anchor="start" x="139.5" y="-393.5" font-family="Helvetica,sans-Serif" font-size="10.00">+ Instance()</text>
</a>
</g>
</g>
<!-- Node3&#45;&gt;Node6 -->
<g id="edge6" class="edge"><title>Node3&#45;&gt;Node6</title>
<path fill="none" stroke="midnightblue" d="M177.963,-538.784C180.693,-528.587 183.329,-518.74 185.792,-509.542"/>
<polygon fill="none" stroke="midnightblue" points="174.525,-538.094 175.32,-548.659 181.287,-539.904 174.525,-538.094"/>
</g>
<!-- Node4 -->
<g id="node4" class="node"><title>Node4</title>
<polygon fill="none" stroke="#bfbfbf" points="-0.5,-908.5 -0.5,-987.5 130.5,-987.5 130.5,-908.5 -0.5,-908.5"/>
<text text-anchor="start" x="7.5" y="-975.5" font-family="Helvetica,sans-Serif" font-size="10.00">map&lt; std::string, o2</text>
<text text-anchor="start" x="7.5" y="-964.5" font-family="Helvetica,sans-Serif" font-size="10.00">::conf::ConfigurableParam</text>
<text text-anchor="middle" x="65" y="-953.5" font-family="Helvetica,sans-Serif" font-size="10.00">::EParamProvenance &gt; *</text>
<polyline fill="none" stroke="#bfbfbf" points="-0.5,-946.5 130.5,-946.5 "/>
<text text-anchor="middle" x="65" y="-934.5" font-family="Helvetica,sans-Serif" font-size="10.00"> </text>
<polyline fill="none" stroke="#bfbfbf" points="-0.5,-927.5 130.5,-927.5 "/>
<text text-anchor="middle" x="65" y="-915.5" font-family="Helvetica,sans-Serif" font-size="10.00"> </text>
</g>
<!-- Node4&#45;&gt;Node3 -->
<g id="edge3" class="edge"><title>Node4&#45;&gt;Node3</title>
<path fill="none" stroke="#404040" d="M67.2468,-908.41C68.2821,-898.427 69.7936,-887.747 72,-878 72.5283,-875.666 73.0789,-873.321 73.6499,-870.966"/>
<polygon fill="none" stroke="#404040" points="73.7029,-870.758 71.3095,-863.955 76.6679,-859.13 79.0614,-865.932 73.7029,-870.758"/>
<text text-anchor="middle" x="126.5" y="-881.5" font-family="Helvetica,sans-Serif" font-size="10.00"> #sValueProvenanceMap</text>
</g>
<!-- Node5 -->
<g id="node5" class="node"><title>Node5</title>
<polygon fill="none" stroke="#bfbfbf" points="148.5,-908.5 148.5,-987.5 257.5,-987.5 257.5,-908.5 148.5,-908.5"/>
<text text-anchor="start" x="156.5" y="-975.5" font-family="Helvetica,sans-Serif" font-size="10.00">map&lt; std::string, std</text>
<text text-anchor="start" x="156.5" y="-964.5" font-family="Helvetica,sans-Serif" font-size="10.00">::pair&lt; std::type_info</text>
<text text-anchor="middle" x="203" y="-953.5" font-family="Helvetica,sans-Serif" font-size="10.00"> const &amp;, void * &gt; &gt; *</text>
<polyline fill="none" stroke="#bfbfbf" points="148.5,-946.5 257.5,-946.5 "/>
<text text-anchor="middle" x="203" y="-934.5" font-family="Helvetica,sans-Serif" font-size="10.00"> </text>
<polyline fill="none" stroke="#bfbfbf" points="148.5,-927.5 257.5,-927.5 "/>
<text text-anchor="middle" x="203" y="-915.5" font-family="Helvetica,sans-Serif" font-size="10.00"> </text>
</g>
<!-- Node5&#45;&gt;Node3 -->
<g id="edge4" class="edge"><title>Node5&#45;&gt;Node3</title>
<path fill="none" stroke="#404040" d="M191.99,-908.387C188.84,-897.336 185.191,-884.539 181.288,-870.85"/>
<polygon fill="none" stroke="#404040" points="181.245,-870.701 175.753,-866.027 177.955,-859.161 183.447,-863.834 181.245,-870.701"/>
<text text-anchor="middle" x="234.5" y="-881.5" font-family="Helvetica,sans-Serif" font-size="10.00"> #sKeyToStorageMap</text>
</g>
<!-- Node6&#45;&gt;Node2 -->
<g id="edge5" class="edge"><title>Node6&#45;&gt;Node2</title>
<path fill="none" stroke="orange" d="M169.666,-376.879C162.184,-360.652 154.283,-343.518 147.004,-327.731"/>
<polygon fill="orange" stroke="orange" points="166.65,-378.696 174.016,-386.311 173.007,-375.764 166.65,-378.696"/>
<text text-anchor="start" x="166" y="-360" font-family="Helvetica,sans-Serif" font-size="10.00"> &lt; DPLDigitizerParam</text>
<text text-anchor="middle" x="214.5" y="-349" font-family="Helvetica,sans-Serif" font-size="10.00">&lt; N &gt; &gt;</text>
</g>
<!-- Node7 -->
<g id="node7" class="node"><title>Node7</title>
<polygon fill="none" stroke="#bfbfbf" points="223.5,-237.5 223.5,-294.5 268.5,-294.5 268.5,-237.5 223.5,-237.5"/>
<text text-anchor="middle" x="246" y="-282.5" font-family="Helvetica,sans-Serif" font-size="10.00">double</text>
<polyline fill="none" stroke="#bfbfbf" points="223.5,-275.5 268.5,-275.5 "/>
<text text-anchor="middle" x="246" y="-263.5" font-family="Helvetica,sans-Serif" font-size="10.00"> </text>
<polyline fill="none" stroke="#bfbfbf" points="223.5,-256.5 268.5,-256.5 "/>
<text text-anchor="middle" x="246" y="-244.5" font-family="Helvetica,sans-Serif" font-size="10.00"> </text>
</g>
<!-- Node7&#45;&gt;Node1 -->
<g id="edge7" class="edge"><title>Node7&#45;&gt;Node1</title>
<path fill="none" stroke="#404040" d="M243.627,-237.4C241.861,-202.93 242.81,-143.018 265,-98 266.455,-95.0478 268.128,-92.1641 269.968,-89.3606"/>
<polygon fill="none" stroke="#404040" points="270.091,-89.1968 270.475,-81.996 277.27,-79.5811 276.886,-86.782 270.091,-89.1968"/>
<text text-anchor="middle" x="292.5" y="-139.5" font-family="Helvetica,sans-Serif" font-size="10.00"> +timeOffset</text>
</g>
<!-- Node8 -->
<g id="node8" class="node"><title>Node8</title>
<g id="a_node8"><a xlink:href="../../d4/dc3/classfloat.html" target="_top" xlink:title="{float\n||}">
<polygon fill="none" stroke="black" points="306.5,-237.5 306.5,-294.5 341.5,-294.5 341.5,-237.5 306.5,-237.5"/>
<text text-anchor="middle" x="324" y="-282.5" font-family="Helvetica,sans-Serif" font-size="10.00">float</text>
<polyline fill="none" stroke="black" points="306.5,-275.5 341.5,-275.5 "/>
<text text-anchor="middle" x="324" y="-263.5" font-family="Helvetica,sans-Serif" font-size="10.00"> </text>
<polyline fill="none" stroke="black" points="306.5,-256.5 341.5,-256.5 "/>
<text text-anchor="middle" x="324" y="-244.5" font-family="Helvetica,sans-Serif" font-size="10.00"> </text>
</a>
</g>
</g>
<!-- Node8&#45;&gt;Node1 -->
<g id="edge8" class="edge"><title>Node8&#45;&gt;Node1</title>
<path fill="none" stroke="#404040" d="M324,-237.083C324,-200.849 324,-136.946 324,-91.9601"/>
<polygon fill="none" stroke="#404040" points="324,-91.812 320,-85.812 324,-79.812 328,-85.812 324,-91.812"/>
<text text-anchor="middle" x="372" y="-178" font-family="Helvetica,sans-Serif" font-size="10.00"> +roFrameLength</text>
<text text-anchor="middle" x="372" y="-167" font-family="Helvetica,sans-Serif" font-size="10.00">+strobeMaxRiseTime</text>
<text text-anchor="middle" x="372" y="-156" font-family="Helvetica,sans-Serif" font-size="10.00">+strobeDelay</text>
<text text-anchor="middle" x="372" y="-145" font-family="Helvetica,sans-Serif" font-size="10.00">+strobeFlatTop</text>
<text text-anchor="middle" x="372" y="-134" font-family="Helvetica,sans-Serif" font-size="10.00">+strobeLength</text>
<text text-anchor="middle" x="372" y="-123" font-family="Helvetica,sans-Serif" font-size="10.00">+noisePerPixel</text>
<text text-anchor="middle" x="372" y="-112" font-family="Helvetica,sans-Serif" font-size="10.00">+strobeQRiseTime0</text>
<text text-anchor="middle" x="372" y="-101" font-family="Helvetica,sans-Serif" font-size="10.00">+energyToNElectrons</text>
</g>
<!-- Node9 -->
<g id="node9" class="node"><title>Node9</title>
<g id="a_node9"><a xlink:href="../../d1/da0/classint.html" target="_top" xlink:title="{int\n||}">
<polygon fill="none" stroke="black" points="428.5,-237.5 428.5,-294.5 457.5,-294.5 457.5,-237.5 428.5,-237.5"/>
<text text-anchor="middle" x="443" y="-282.5" font-family="Helvetica,sans-Serif" font-size="10.00">int</text>
<polyline fill="none" stroke="black" points="428.5,-275.5 457.5,-275.5 "/>
<text text-anchor="middle" x="443" y="-263.5" font-family="Helvetica,sans-Serif" font-size="10.00"> </text>
<polyline fill="none" stroke="black" points="428.5,-256.5 457.5,-256.5 "/>
<text text-anchor="middle" x="443" y="-244.5" font-family="Helvetica,sans-Serif" font-size="10.00"> </text>
</a>
</g>
</g>
<!-- Node9&#45;&gt;Node1 -->
<g id="edge9" class="edge"><title>Node9&#45;&gt;Node1</title>
<path fill="none" stroke="#404040" d="M442.259,-237.447C440.672,-196.058 435.781,-120.305 421,-98 415.339,-89.4571 407.923,-82.0217 399.711,-75.5986"/>
<polygon fill="none" stroke="#404040" points="399.538,-75.4756 392.33,-75.2557 389.761,-68.5177 396.969,-68.7377 399.538,-75.4756"/>
<text text-anchor="middle" x="490.5" y="-150.5" font-family="Helvetica,sans-Serif" font-size="10.00"> +nSimSteps</text>
<text text-anchor="middle" x="490.5" y="-139.5" font-family="Helvetica,sans-Serif" font-size="10.00">+chargeThreshold</text>
<text text-anchor="middle" x="490.5" y="-128.5" font-family="Helvetica,sans-Serif" font-size="10.00">+minChargeToAccount</text>
</g>
<!-- Node10 -->
<g id="node10" class="node"><title>Node10</title>
<polygon fill="none" stroke="#bfbfbf" points="549.5,-237.5 549.5,-294.5 584.5,-294.5 584.5,-237.5 549.5,-237.5"/>
<text text-anchor="middle" x="567" y="-282.5" font-family="Helvetica,sans-Serif" font-size="10.00">bool</text>
<polyline fill="none" stroke="#bfbfbf" points="549.5,-275.5 584.5,-275.5 "/>
<text text-anchor="middle" x="567" y="-263.5" font-family="Helvetica,sans-Serif" font-size="10.00"> </text>
<polyline fill="none" stroke="#bfbfbf" points="549.5,-256.5 584.5,-256.5 "/>
<text text-anchor="middle" x="567" y="-244.5" font-family="Helvetica,sans-Serif" font-size="10.00"> </text>
</g>
<!-- Node10&#45;&gt;Node1 -->
<g id="edge10" class="edge"><title>Node10&#45;&gt;Node1</title>
<path fill="none" stroke="#404040" d="M571.934,-237.245C576.736,-200.652 579.021,-136.426 545,-98 525.943,-76.4764 457.489,-61.0398 401.757,-51.7048"/>
<polygon fill="none" stroke="#404040" points="401.563,-51.6735 394.999,-54.6592 389.718,-49.7485 396.282,-46.7628 401.563,-51.6735"/>
<text text-anchor="middle" x="602.5" y="-139.5" font-family="Helvetica,sans-Serif" font-size="10.00"> +continuous</text>
</g>
</g>
</svg>
