<?xml version="1.0" encoding="UTF-8" standalone="no"?>
<!DOCTYPE svg PUBLIC "-//W3C//DTD SVG 1.1//EN"
 "http://www.w3.org/Graphics/SVG/1.1/DTD/svg11.dtd">
<!-- Generated by graphviz version 2.36.0 (20140111.2315)
 -->
<!-- Title: /home/travis/build/AliceO2Group/AliceO2/CCDB/src/LocalStorage.cxx Pages: 1 -->
<svg width="1429pt" height="274pt"
 viewBox="0.00 0.00 1428.69 274.00" xmlns="http://www.w3.org/2000/svg" xmlns:xlink="http://www.w3.org/1999/xlink">
<g id="graph0" class="graph" transform="scale(1 1) rotate(0) translate(4 270)">
<title>/home/travis/build/AliceO2Group/AliceO2/CCDB/src/LocalStorage.cxx</title>
<!-- Node1 -->
<g id="node1" class="node"><title>Node1</title>
<polygon fill="#bfbfbf" stroke="black" points="668,-224.5 668,-265.5 812,-265.5 812,-224.5 668,-224.5"/>
<text text-anchor="start" x="676" y="-253.5" font-family="Helvetica,sans-Serif" font-size="10.00">/home/travis/build</text>
<text text-anchor="start" x="676" y="-242.5" font-family="Helvetica,sans-Serif" font-size="10.00">/AliceO2Group/AliceO2</text>
<text text-anchor="middle" x="740" y="-231.5" font-family="Helvetica,sans-Serif" font-size="10.00">/CCDB/src/LocalStorage.cxx</text>
</g>
<!-- Node2 -->
<g id="node2" class="node"><title>Node2</title>
<g id="a_node2"><a xlink:href="../../d8/d9b/LocalStorage_8h.html" target="_top" xlink:title="CCDB/LocalStorage.h">
<polygon fill="none" stroke="black" points="392,-168.5 392,-187.5 506,-187.5 506,-168.5 392,-168.5"/>
<text text-anchor="middle" x="449" y="-175.5" font-family="Helvetica,sans-Serif" font-size="10.00">CCDB/LocalStorage.h</text>
</a>
</g>
</g>
<!-- Node1&#45;&gt;Node2 -->
<g id="edge1" class="edge"><title>Node1&#45;&gt;Node2</title>
<path fill="none" stroke="midnightblue" d="M667.694,-227.849C614.375,-215.939 543.324,-200.069 496.89,-189.697"/>
<polygon fill="midnightblue" stroke="midnightblue" points="497.605,-186.271 487.083,-187.506 496.079,-193.102 497.605,-186.271"/>
</g>
<!-- Node20 -->
<g id="node20" class="node"><title>Node20</title>
<polygon fill="none" stroke="#bfbfbf" points="524.5,-168.5 524.5,-187.5 621.5,-187.5 621.5,-168.5 524.5,-168.5"/>
<text text-anchor="middle" x="573" y="-175.5" font-family="Helvetica,sans-Serif" font-size="10.00">fairlogger/Logger.h</text>
</g>
<!-- Node1&#45;&gt;Node20 -->
<g id="edge29" class="edge"><title>Node1&#45;&gt;Node20</title>
<path fill="none" stroke="midnightblue" d="M689.894,-224.498C662.198,-213.718 628.632,-200.653 604.586,-191.294"/>
<polygon fill="midnightblue" stroke="midnightblue" points="605.819,-188.018 595.23,-187.652 603.28,-194.541 605.819,-188.018"/>
</g>
<!-- Node21 -->
<g id="node21" class="node"><title>Node21</title>
<polygon fill="none" stroke="#bfbfbf" points="639.5,-168.5 639.5,-187.5 686.5,-187.5 686.5,-168.5 639.5,-168.5"/>
<text text-anchor="middle" x="663" y="-175.5" font-family="Helvetica,sans-Serif" font-size="10.00">TFile.h</text>
</g>
<!-- Node1&#45;&gt;Node21 -->
<g id="edge30" class="edge"><title>Node1&#45;&gt;Node21</title>
<path fill="none" stroke="midnightblue" d="M716.897,-224.498C705.432,-214.82 691.786,-203.3 681.094,-194.274"/>
<polygon fill="midnightblue" stroke="midnightblue" points="683.149,-191.429 673.25,-187.652 678.634,-196.778 683.149,-191.429"/>
</g>
<!-- Node22 -->
<g id="node22" class="node"><title>Node22</title>
<polygon fill="none" stroke="#bfbfbf" points="704.5,-168.5 704.5,-187.5 775.5,-187.5 775.5,-168.5 704.5,-168.5"/>
<text text-anchor="middle" x="740" y="-175.5" font-family="Helvetica,sans-Serif" font-size="10.00">TObjString.h</text>
</g>
<!-- Node1&#45;&gt;Node22 -->
<g id="edge31" class="edge"><title>Node1&#45;&gt;Node22</title>
<path fill="none" stroke="midnightblue" d="M740,-224.498C740,-216.065 740,-206.235 740,-197.874"/>
<polygon fill="midnightblue" stroke="midnightblue" points="743.5,-197.652 740,-187.652 736.5,-197.653 743.5,-197.652"/>
</g>
<!-- Node23 -->
<g id="node23" class="node"><title>Node23</title>
<polygon fill="none" stroke="#bfbfbf" points="793.5,-168.5 793.5,-187.5 858.5,-187.5 858.5,-168.5 793.5,-168.5"/>
<text text-anchor="middle" x="826" y="-175.5" font-family="Helvetica,sans-Serif" font-size="10.00">TRegexp.h</text>
</g>
<!-- Node1&#45;&gt;Node23 -->
<g id="edge32" class="edge"><title>Node1&#45;&gt;Node23</title>
<path fill="none" stroke="midnightblue" d="M765.803,-224.498C778.861,-214.628 794.454,-202.843 806.497,-193.741"/>
<polygon fill="midnightblue" stroke="midnightblue" points="808.685,-196.474 814.552,-187.652 804.464,-190.89 808.685,-196.474"/>
</g>
<!-- Node24 -->
<g id="node24" class="node"><title>Node24</title>
<polygon fill="none" stroke="#bfbfbf" points="876.5,-168.5 876.5,-187.5 941.5,-187.5 941.5,-168.5 876.5,-168.5"/>
<text text-anchor="middle" x="909" y="-175.5" font-family="Helvetica,sans-Serif" font-size="10.00">TSystem.h</text>
</g>
<!-- Node1&#45;&gt;Node24 -->
<g id="edge33" class="edge"><title>Node1&#45;&gt;Node24</title>
<path fill="none" stroke="midnightblue" d="M790.706,-224.498C818.734,-213.718 852.702,-200.653 877.035,-191.294"/>
<polygon fill="midnightblue" stroke="midnightblue" points="878.427,-194.509 886.504,-187.652 875.914,-187.976 878.427,-194.509"/>
</g>
<!-- Node25 -->
<g id="node25" class="node"><title>Node25</title>
<g id="a_node25"><a xlink:href="../../da/d6a/Condition_8h.html" target="_top" xlink:title="Definition of the Condition class (CDB object) containing the condition and its metadata. ">
<polygon fill="none" stroke="black" points="960,-168.5 960,-187.5 1058,-187.5 1058,-168.5 960,-168.5"/>
<text text-anchor="middle" x="1009" y="-175.5" font-family="Helvetica,sans-Serif" font-size="10.00">CCDB/Condition.h</text>
</a>
</g>
</g>
<!-- Node1&#45;&gt;Node25 -->
<g id="edge34" class="edge"><title>Node1&#45;&gt;Node25</title>
<path fill="none" stroke="midnightblue" d="M812.087,-226.581C860.395,-214.908 922.504,-199.9 963.925,-189.892"/>
<polygon fill="midnightblue" stroke="midnightblue" points="964.831,-193.274 973.729,-187.523 963.187,-186.469 964.831,-193.274"/>
</g>
<!-- Node3 -->
<g id="node3" class="node"><title>Node3</title>
<g id="a_node3"><a xlink:href="../../d1/da0/Manager_8h.html" target="_top" xlink:title="Adapted to o2 from the original AliCDBManager.h in AliRoot. ">
<polygon fill="none" stroke="black" points="394.5,-112.5 394.5,-131.5 489.5,-131.5 489.5,-112.5 394.5,-112.5"/>
<text text-anchor="middle" x="442" y="-119.5" font-family="Helvetica,sans-Serif" font-size="10.00">CCDB/Manager.h</text>
</a>
</g>
</g>
<!-- Node2&#45;&gt;Node3 -->
<g id="edge2" class="edge"><title>Node2&#45;&gt;Node3</title>
<path fill="none" stroke="midnightblue" d="M447.844,-168.083C446.916,-160.927 445.582,-150.635 444.423,-141.691"/>
<polygon fill="midnightblue" stroke="midnightblue" points="447.891,-141.218 443.134,-131.751 440.949,-142.118 447.891,-141.218"/>
</g>
<!-- Node8 -->
<g id="node8" class="node"><title>Node8</title>
<polygon fill="none" stroke="#bfbfbf" points="1216,-0.5 1216,-19.5 1272,-19.5 1272,-0.5 1216,-0.5"/>
<text text-anchor="middle" x="1244" y="-7.5" font-family="Helvetica,sans-Serif" font-size="10.00">Rtypes.h</text>
</g>
<!-- Node2&#45;&gt;Node8 -->
<g id="edge17" class="edge"><title>Node2&#45;&gt;Node8</title>
<path fill="none" stroke="midnightblue" d="M506.205,-168.913C509.177,-168.583 512.122,-168.275 515,-168 803.901,-140.371 882.996,-191.742 1167,-132 1236.23,-117.437 1275.73,-134.162 1316,-76 1330.77,-54.6679 1301.68,-35.4681 1276.17,-23.5613"/>
<polygon fill="midnightblue" stroke="midnightblue" points="1277.59,-20.3598 1267.03,-19.5141 1274.76,-26.7612 1277.59,-20.3598"/>
</g>
<!-- Node9 -->
<g id="node9" class="node"><title>Node9</title>
<polygon fill="none" stroke="#bfbfbf" points="587,-0.5 587,-19.5 643,-19.5 643,-0.5 587,-0.5"/>
<text text-anchor="middle" x="615" y="-7.5" font-family="Helvetica,sans-Serif" font-size="10.00">TString.h</text>
</g>
<!-- Node2&#45;&gt;Node9 -->
<g id="edge28" class="edge"><title>Node2&#45;&gt;Node9</title>
<path fill="none" stroke="midnightblue" d="M432.1,-168.46C395.004,-148.639 312.487,-97.9989 348,-56 351.688,-51.6378 503.799,-27.9427 576.744,-16.7986"/>
<polygon fill="midnightblue" stroke="midnightblue" points="577.547,-20.2168 586.905,-15.2493 576.492,-13.2967 577.547,-20.2168"/>
</g>
<!-- Node17 -->
<g id="node17" class="node"><title>Node17</title>
<g id="a_node17"><a xlink:href="../../db/d6f/Storage_8h.html" target="_top" xlink:title="CCDB/Storage.h">
<polygon fill="none" stroke="black" points="632.5,-112.5 632.5,-131.5 723.5,-131.5 723.5,-112.5 632.5,-112.5"/>
<text text-anchor="middle" x="678" y="-119.5" font-family="Helvetica,sans-Serif" font-size="10.00">CCDB/Storage.h</text>
</a>
</g>
</g>
<!-- Node2&#45;&gt;Node17 -->
<g id="edge18" class="edge"><title>Node2&#45;&gt;Node17</title>
<path fill="none" stroke="midnightblue" d="M485.286,-168.444C524.983,-159.083 588.707,-144.056 631.912,-133.868"/>
<polygon fill="midnightblue" stroke="midnightblue" points="632.954,-137.218 641.884,-131.516 631.348,-130.405 632.954,-137.218"/>
</g>
<!-- Node4 -->
<g id="node4" class="node"><title>Node4</title>
<polygon fill="none" stroke="#bfbfbf" points="501.5,-56.5 501.5,-75.5 548.5,-75.5 548.5,-56.5 501.5,-56.5"/>
<text text-anchor="middle" x="525" y="-63.5" font-family="Helvetica,sans-Serif" font-size="10.00">TList.h</text>
</g>
<!-- Node3&#45;&gt;Node4 -->
<g id="edge3" class="edge"><title>Node3&#45;&gt;Node4</title>
<path fill="none" stroke="midnightblue" d="M455.335,-112.324C468.162,-103.979 487.785,-91.2122 502.94,-81.3524"/>
<polygon fill="midnightblue" stroke="midnightblue" points="505.224,-84.0417 511.698,-75.6545 501.407,-78.1742 505.224,-84.0417"/>
</g>
<!-- Node5 -->
<g id="node5" class="node"><title>Node5</title>
<polygon fill="none" stroke="#bfbfbf" points="491,-0.5 491,-19.5 541,-19.5 541,-0.5 491,-0.5"/>
<text text-anchor="middle" x="516" y="-7.5" font-family="Helvetica,sans-Serif" font-size="10.00">TMap.h</text>
</g>
<!-- Node3&#45;&gt;Node5 -->
<g id="edge4" class="edge"><title>Node3&#45;&gt;Node5</title>
<path fill="none" stroke="midnightblue" d="M408.501,-112.425C373.976,-101.938 327.828,-82.2866 348,-56 364.04,-35.0986 436.279,-21.7824 480.644,-15.4227"/>
<polygon fill="midnightblue" stroke="midnightblue" points="481.307,-18.8643 490.733,-14.0269 480.348,-11.9304 481.307,-18.8643"/>
</g>
<!-- Node6 -->
<g id="node6" class="node"><title>Node6</title>
<polygon fill="none" stroke="#bfbfbf" points="943.5,-0.5 943.5,-19.5 1002.5,-19.5 1002.5,-0.5 943.5,-0.5"/>
<text text-anchor="middle" x="973" y="-7.5" font-family="Helvetica,sans-Serif" font-size="10.00">TObject.h</text>
</g>
<!-- Node3&#45;&gt;Node6 -->
<g id="edge5" class="edge"><title>Node3&#45;&gt;Node6</title>
<path fill="none" stroke="midnightblue" d="M445.749,-112.415C452.585,-97.9243 468.565,-68.9306 492,-56 567.535,-14.3228 832.282,-10.5693 933.365,-10.7027"/>
<polygon fill="midnightblue" stroke="midnightblue" points="933.457,-14.2028 943.466,-10.7299 933.476,-7.20284 933.457,-14.2028"/>
</g>
<!-- Node7 -->
<g id="node7" class="node"><title>Node7</title>
<polygon fill="none" stroke="#bfbfbf" points="357.5,-56.5 357.5,-75.5 406.5,-75.5 406.5,-56.5 357.5,-56.5"/>
<text text-anchor="middle" x="382" y="-63.5" font-family="Helvetica,sans-Serif" font-size="10.00">cstddef</text>
</g>
<!-- Node3&#45;&gt;Node7 -->
<g id="edge6" class="edge"><title>Node3&#45;&gt;Node7</title>
<path fill="none" stroke="midnightblue" d="M432.36,-112.324C423.49,-104.341 410.125,-92.3128 399.392,-82.6529"/>
<polygon fill="midnightblue" stroke="midnightblue" points="401.59,-79.922 391.815,-75.8339 396.907,-85.1251 401.59,-79.922"/>
</g>
<!-- Node3&#45;&gt;Node8 -->
<g id="edge7" class="edge"><title>Node3&#45;&gt;Node8</title>
<path fill="none" stroke="midnightblue" d="M489.645,-118.479C570.454,-113.674 739.319,-101.346 880,-76 914.798,-69.7307 922.381,-63.1917 957,-56 1045.37,-37.641 1150.45,-22.9586 1205.68,-15.7847"/>
<polygon fill="midnightblue" stroke="midnightblue" points="1206.25,-19.2404 1215.72,-14.4922 1205.36,-12.2977 1206.25,-19.2404"/>
</g>
<!-- Node3&#45;&gt;Node9 -->
<g id="edge8" class="edge"><title>Node3&#45;&gt;Node9</title>
<path fill="none" stroke="midnightblue" d="M441.722,-112.114C441.789,-98.2218 444.015,-71.3649 459,-56 475.374,-39.2108 536.371,-25.2352 577.063,-17.5089"/>
<polygon fill="midnightblue" stroke="midnightblue" points="577.737,-20.9438 586.932,-15.6813 576.462,-14.0608 577.737,-20.9438"/>
</g>
<!-- Node10 -->
<g id="node10" class="node"><title>Node10</title>
<g id="a_node10"><a xlink:href="../../d7/d44/TObjectWrapper_8h.html" target="_top" xlink:title="CCDB/TObjectWrapper.h">
<polygon fill="none" stroke="black" points="135,-56.5 135,-75.5 263,-75.5 263,-56.5 135,-56.5"/>
<text text-anchor="middle" x="199" y="-63.5" font-family="Helvetica,sans-Serif" font-size="10.00">CCDB/TObjectWrapper.h</text>
</a>
</g>
</g>
<!-- Node3&#45;&gt;Node10 -->
<g id="edge9" class="edge"><title>Node3&#45;&gt;Node10</title>
<path fill="none" stroke="midnightblue" d="M403.496,-112.444C361.194,-103.043 293.181,-87.9291 247.327,-77.7393"/>
<polygon fill="midnightblue" stroke="midnightblue" points="247.845,-74.2692 237.324,-75.5164 246.327,-81.1025 247.845,-74.2692"/>
</g>
<!-- Node10&#45;&gt;Node6 -->
<g id="edge11" class="edge"><title>Node10&#45;&gt;Node6</title>
<path fill="none" stroke="midnightblue" d="M263.328,-60.512C417.893,-49.7284 806.68,-22.6037 932.812,-13.8038"/>
<polygon fill="midnightblue" stroke="midnightblue" points="933.426,-17.2695 943.159,-13.082 932.939,-10.2865 933.426,-17.2695"/>
</g>
<!-- Node11 -->
<g id="node11" class="node"><title>Node11</title>
<polygon fill="none" stroke="#bfbfbf" points="280,-0.5 280,-19.5 336,-19.5 336,-0.5 280,-0.5"/>
<text text-anchor="middle" x="308" y="-7.5" font-family="Helvetica,sans-Serif" font-size="10.00">TClass.h</text>
</g>
<!-- Node10&#45;&gt;Node11 -->
<g id="edge10" class="edge"><title>Node10&#45;&gt;Node11</title>
<path fill="none" stroke="midnightblue" d="M216.513,-56.324C234.072,-47.6247 261.331,-34.1202 281.531,-24.113"/>
<polygon fill="midnightblue" stroke="midnightblue" points="283.124,-27.23 290.531,-19.6545 280.016,-20.9575 283.124,-27.23"/>
</g>
<!-- Node12 -->
<g id="node12" class="node"><title>Node12</title>
<polygon fill="none" stroke="#bfbfbf" points="354.5,-0.5 354.5,-19.5 407.5,-19.5 407.5,-0.5 354.5,-0.5"/>
<text text-anchor="middle" x="381" y="-7.5" font-family="Helvetica,sans-Serif" font-size="10.00">cxxabi.h</text>
</g>
<!-- Node10&#45;&gt;Node12 -->
<g id="edge12" class="edge"><title>Node10&#45;&gt;Node12</title>
<path fill="none" stroke="midnightblue" d="M227.838,-56.4435C259.494,-47.0511 310.374,-31.9549 344.717,-21.7654"/>
<polygon fill="midnightblue" stroke="midnightblue" points="345.778,-25.1015 354.369,-18.9015 343.786,-18.3906 345.778,-25.1015"/>
</g>
<!-- Node13 -->
<g id="node13" class="node"><title>Node13</title>
<polygon fill="none" stroke="#bfbfbf" points="-0.5,-0.5 -0.5,-19.5 44.5,-19.5 44.5,-0.5 -0.5,-0.5"/>
<text text-anchor="middle" x="22" y="-7.5" font-family="Helvetica,sans-Serif" font-size="10.00">iosfwd</text>
</g>
<!-- Node10&#45;&gt;Node13 -->
<g id="edge13" class="edge"><title>Node10&#45;&gt;Node13</title>
<path fill="none" stroke="midnightblue" d="M170.954,-56.4435C139.24,-46.768 87.6856,-31.0397 54.3112,-20.8577"/>
<polygon fill="midnightblue" stroke="midnightblue" points="55.1655,-17.4591 44.5794,-17.8886 53.1228,-24.1544 55.1655,-17.4591"/>
</g>
<!-- Node14 -->
<g id="node14" class="node"><title>Node14</title>
<polygon fill="none" stroke="#bfbfbf" points="63,-0.5 63,-19.5 115,-19.5 115,-0.5 63,-0.5"/>
<text text-anchor="middle" x="89" y="-7.5" font-family="Helvetica,sans-Serif" font-size="10.00">memory</text>
</g>
<!-- Node10&#45;&gt;Node14 -->
<g id="edge14" class="edge"><title>Node10&#45;&gt;Node14</title>
<path fill="none" stroke="midnightblue" d="M181.327,-56.324C163.606,-47.6247 136.097,-34.1202 115.712,-24.113"/>
<polygon fill="midnightblue" stroke="midnightblue" points="117.149,-20.9195 106.63,-19.6545 114.064,-27.2031 117.149,-20.9195"/>
</g>
<!-- Node15 -->
<g id="node15" class="node"><title>Node15</title>
<polygon fill="none" stroke="#bfbfbf" points="133.5,-0.5 133.5,-19.5 192.5,-19.5 192.5,-0.5 133.5,-0.5"/>
<text text-anchor="middle" x="163" y="-7.5" font-family="Helvetica,sans-Serif" font-size="10.00">stdexcept</text>
</g>
<!-- Node10&#45;&gt;Node15 -->
<g id="edge15" class="edge"><title>Node10&#45;&gt;Node15</title>
<path fill="none" stroke="midnightblue" d="M193.055,-56.083C188.023,-48.5341 180.663,-37.4948 174.487,-28.2298"/>
<polygon fill="midnightblue" stroke="midnightblue" points="177.293,-26.1301 168.834,-19.7511 171.469,-30.0131 177.293,-26.1301"/>
</g>
<!-- Node16 -->
<g id="node16" class="node"><title>Node16</title>
<polygon fill="none" stroke="#bfbfbf" points="210.5,-0.5 210.5,-19.5 261.5,-19.5 261.5,-0.5 210.5,-0.5"/>
<text text-anchor="middle" x="236" y="-7.5" font-family="Helvetica,sans-Serif" font-size="10.00">typeinfo</text>
</g>
<!-- Node10&#45;&gt;Node16 -->
<g id="edge16" class="edge"><title>Node10&#45;&gt;Node16</title>
<path fill="none" stroke="midnightblue" d="M205.11,-56.083C210.282,-48.5341 217.846,-37.4948 224.194,-28.2298"/>
<polygon fill="midnightblue" stroke="midnightblue" points="227.239,-29.9787 230.004,-19.7511 221.464,-26.0221 227.239,-29.9787"/>
</g>
<!-- Node17&#45;&gt;Node4 -->
<g id="edge19" class="edge"><title>Node17&#45;&gt;Node4</title>
<path fill="none" stroke="midnightblue" d="M653.757,-112.444C627.979,-103.345 587.036,-88.8952 558.255,-78.7372"/>
<polygon fill="midnightblue" stroke="midnightblue" points="559.222,-75.3668 548.627,-75.339 556.892,-81.9677 559.222,-75.3668"/>
</g>
<!-- Node17&#45;&gt;Node6 -->
<g id="edge26" class="edge"><title>Node17&#45;&gt;Node6</title>
<path fill="none" stroke="midnightblue" d="M723.715,-115.989C765.728,-110.198 829.028,-98.4332 880,-76 908.819,-63.3164 937.907,-41.1307 955.692,-26.2539"/>
<polygon fill="midnightblue" stroke="midnightblue" points="958.136,-28.7691 963.464,-19.6115 953.588,-23.4476 958.136,-28.7691"/>
</g>
<!-- Node17&#45;&gt;Node8 -->
<g id="edge25" class="edge"><title>Node17&#45;&gt;Node8</title>
<path fill="none" stroke="midnightblue" d="M723.936,-119.174C859.18,-113.576 1247.63,-95.8327 1266,-76 1278.34,-62.6829 1268.19,-42.1906 1257.96,-27.7827"/>
<polygon fill="midnightblue" stroke="midnightblue" points="1260.64,-25.5238 1251.78,-19.7166 1255.08,-29.7824 1260.64,-25.5238"/>
</g>
<!-- Node17&#45;&gt;Node9 -->
<g id="edge27" class="edge"><title>Node17&#45;&gt;Node9</title>
<path fill="none" stroke="midnightblue" d="M666.657,-112.179C656.693,-103.859 642.496,-90.5244 634,-76 625.56,-61.5704 620.634,-43.1178 617.922,-29.5626"/>
<polygon fill="midnightblue" stroke="midnightblue" points="621.334,-28.7564 616.137,-19.5238 614.442,-29.9822 621.334,-28.7564"/>
</g>
<!-- Node18 -->
<g id="node18" class="node"><title>Node18</title>
<polygon fill="none" stroke="#bfbfbf" points="643.5,-56.5 643.5,-75.5 712.5,-75.5 712.5,-56.5 643.5,-56.5"/>
<text text-anchor="middle" x="678" y="-63.5" font-family="Helvetica,sans-Serif" font-size="10.00">TObjArray.h</text>
</g>
<!-- Node17&#45;&gt;Node18 -->
<g id="edge20" class="edge"><title>Node17&#45;&gt;Node18</title>
<path fill="none" stroke="midnightblue" d="M678,-112.083C678,-105.006 678,-94.8611 678,-85.9865"/>
<polygon fill="midnightblue" stroke="midnightblue" points="681.5,-85.751 678,-75.7511 674.5,-85.7511 681.5,-85.751"/>
</g>
<!-- Node19 -->
<g id="node19" class="node"><title>Node19</title>
<g id="a_node19"><a xlink:href="../../d4/dd1/IdPath_8h.html" target="_top" xlink:title="CCDB/IdPath.h">
<polygon fill="none" stroke="black" points="966,-56.5 966,-75.5 1052,-75.5 1052,-56.5 966,-56.5"/>
<text text-anchor="middle" x="1009" y="-63.5" font-family="Helvetica,sans-Serif" font-size="10.00">CCDB/IdPath.h</text>
</a>
</g>
</g>
<!-- Node17&#45;&gt;Node19 -->
<g id="edge21" class="edge"><title>Node17&#45;&gt;Node19</title>
<path fill="none" stroke="midnightblue" d="M723.677,-113.548C784.448,-103.634 891.678,-86.1401 955.959,-75.6533"/>
<polygon fill="midnightblue" stroke="midnightblue" points="956.587,-79.0972 965.893,-74.0326 955.46,-72.1885 956.587,-79.0972"/>
</g>
<!-- Node19&#45;&gt;Node6 -->
<g id="edge22" class="edge"><title>Node19&#45;&gt;Node6</title>
<path fill="none" stroke="midnightblue" d="M1003.06,-56.083C998.023,-48.5341 990.663,-37.4948 984.487,-28.2298"/>
<polygon fill="midnightblue" stroke="midnightblue" points="987.293,-26.1301 978.834,-19.7511 981.469,-30.0131 987.293,-26.1301"/>
</g>
<!-- Node19&#45;&gt;Node8 -->
<g id="edge24" class="edge"><title>Node19&#45;&gt;Node8</title>
<path fill="none" stroke="midnightblue" d="M1046.24,-56.4435C1089.94,-46.4007 1162.03,-29.8367 1206.04,-19.7226"/>
<polygon fill="midnightblue" stroke="midnightblue" points="1206.83,-23.1333 1215.79,-17.4826 1205.26,-16.3111 1206.83,-23.1333"/>
</g>
<!-- Node19&#45;&gt;Node9 -->
<g id="edge23" class="edge"><title>Node19&#45;&gt;Node9</title>
<path fill="none" stroke="midnightblue" d="M965.708,-59.0666C888.256,-48.4514 727.196,-26.3771 653.416,-16.2652"/>
<polygon fill="midnightblue" stroke="midnightblue" points="653.567,-12.7532 643.184,-14.8628 652.617,-19.6884 653.567,-12.7532"/>
</g>
<!-- Node25&#45;&gt;Node6 -->
<g id="edge51" class="edge"><title>Node25&#45;&gt;Node6</title>
<path fill="none" stroke="midnightblue" d="M1058.24,-171.878C1149.05,-160.573 1328.22,-128.511 1266,-56 1233.82,-18.4961 1085.02,-11.9371 1012.69,-11.0005"/>
<polygon fill="midnightblue" stroke="midnightblue" points="1012.63,-7.4998 1002.59,-10.9 1012.56,-14.4995 1012.63,-7.4998"/>
</g>
<!-- Node25&#45;&gt;Node8 -->
<g id="edge50" class="edge"><title>Node25&#45;&gt;Node8</title>
<path fill="none" stroke="midnightblue" d="M1058.24,-172.595C1157.01,-162.583 1373.33,-134.328 1414,-76 1447.67,-27.7097 1342.29,-15.2807 1282.42,-12.0923"/>
<polygon fill="midnightblue" stroke="midnightblue" points="1282.32,-8.58397 1272.17,-11.6122 1281.99,-15.5763 1282.32,-8.58397"/>
</g>
<!-- Node25&#45;&gt;Node9 -->
<g id="edge52" class="edge"><title>Node25&#45;&gt;Node9</title>
<path fill="none" stroke="midnightblue" d="M959.766,-169.333C956.463,-168.867 953.185,-168.418 950,-168 877.516,-158.486 673.554,-184.809 623,-132 596.886,-104.721 603.44,-56.2641 609.702,-29.7001"/>
<polygon fill="midnightblue" stroke="midnightblue" points="613.152,-30.3397 612.273,-19.7814 606.376,-28.5838 613.152,-30.3397"/>
</g>
<!-- Node25&#45;&gt;Node10 -->
<g id="edge49" class="edge"><title>Node25&#45;&gt;Node10</title>
<path fill="none" stroke="midnightblue" d="M959.787,-169.163C956.479,-168.738 953.194,-168.345 950,-168 699.832,-141.002 631.609,-181.968 385,-132 327.235,-120.296 262.97,-94.9018 227.122,-79.5479"/>
<polygon fill="midnightblue" stroke="midnightblue" points="228.361,-76.2702 217.794,-75.5033 225.576,-82.6925 228.361,-76.2702"/>
</g>
<!-- Node25&#45;&gt;Node19 -->
<g id="edge48" class="edge"><title>Node25&#45;&gt;Node19</title>
<path fill="none" stroke="midnightblue" d="M1009,-168.368C1009,-150.617 1009,-109.666 1009,-85.5974"/>
<polygon fill="midnightblue" stroke="midnightblue" points="1012.5,-85.5914 1009,-75.5914 1005.5,-85.5915 1012.5,-85.5914"/>
</g>
<!-- Node26 -->
<g id="node26" class="node"><title>Node26</title>
<g id="a_node26"><a xlink:href="../../da/d53/ConditionId_8h.html" target="_top" xlink:title="CCDB/ConditionId.h">
<polygon fill="none" stroke="black" points="1051.5,-112.5 1051.5,-131.5 1158.5,-131.5 1158.5,-112.5 1051.5,-112.5"/>
<text text-anchor="middle" x="1105" y="-119.5" font-family="Helvetica,sans-Serif" font-size="10.00">CCDB/ConditionId.h</text>
</a>
</g>
</g>
<!-- Node25&#45;&gt;Node26 -->
<g id="edge35" class="edge"><title>Node25&#45;&gt;Node26</title>
<path fill="none" stroke="midnightblue" d="M1024.42,-168.324C1039.54,-159.822 1062.82,-146.729 1080.47,-136.797"/>
<polygon fill="midnightblue" stroke="midnightblue" points="1082.61,-139.608 1089.61,-131.655 1079.18,-133.507 1082.61,-139.608"/>
</g>
<!-- Node28 -->
<g id="node28" class="node"><title>Node28</title>
<g id="a_node28"><a xlink:href="../../d1/d3f/ConditionMetaData_8h.html" target="_top" xlink:title="CCDB/ConditionMetaData.h">
<polygon fill="none" stroke="black" points="730.5,-56.5 730.5,-75.5 871.5,-75.5 871.5,-56.5 730.5,-56.5"/>
<text text-anchor="middle" x="801" y="-63.5" font-family="Helvetica,sans-Serif" font-size="10.00">CCDB/ConditionMetaData.h</text>
</a>
</g>
</g>
<!-- Node25&#45;&gt;Node28 -->
<g id="edge43" class="edge"><title>Node25&#45;&gt;Node28</title>
<path fill="none" stroke="midnightblue" d="M992.679,-168.368C956.53,-149.251 869.506,-103.229 826.264,-80.361"/>
<polygon fill="midnightblue" stroke="midnightblue" points="827.722,-77.1725 817.246,-75.5914 824.449,-83.3604 827.722,-77.1725"/>
</g>
<!-- Node26&#45;&gt;Node6 -->
<g id="edge36" class="edge"><title>Node26&#45;&gt;Node6</title>
<path fill="none" stroke="midnightblue" d="M1106.06,-112.318C1107.23,-98.7061 1107.42,-72.2257 1094,-56 1073.98,-31.8064 1039.64,-20.616 1012.64,-15.4423"/>
<polygon fill="midnightblue" stroke="midnightblue" points="1013.14,-11.9779 1002.7,-13.7395 1011.96,-18.8775 1013.14,-11.9779"/>
</g>
<!-- Node26&#45;&gt;Node8 -->
<g id="edge41" class="edge"><title>Node26&#45;&gt;Node8</title>
<path fill="none" stroke="midnightblue" d="M1158.92,-115.995C1210.4,-109.968 1282.64,-97.8199 1300,-76 1314.44,-57.8448 1290.58,-37.7211 1269.68,-24.7443"/>
<polygon fill="midnightblue" stroke="midnightblue" points="1271.42,-21.7052 1261.03,-19.647 1267.87,-27.7371 1271.42,-21.7052"/>
</g>
<!-- Node26&#45;&gt;Node9 -->
<g id="edge42" class="edge"><title>Node26&#45;&gt;Node9</title>
<path fill="none" stroke="midnightblue" d="M1101.99,-112.457C1096.42,-98.0306 1083,-69.1308 1061,-56 992.565,-15.1505 748.137,-10.861 653.142,-10.7786"/>
<polygon fill="midnightblue" stroke="midnightblue" points="653.104,-7.27848 643.106,-10.7853 653.109,-14.2785 653.104,-7.27848"/>
</g>
<!-- Node26&#45;&gt;Node19 -->
<g id="edge37" class="edge"><title>Node26&#45;&gt;Node19</title>
<path fill="none" stroke="midnightblue" d="M1089.58,-112.324C1074.46,-103.822 1051.18,-90.7288 1033.53,-80.7975"/>
<polygon fill="midnightblue" stroke="midnightblue" points="1034.82,-77.5066 1024.39,-75.6545 1031.39,-83.6077 1034.82,-77.5066"/>
</g>
<!-- Node27 -->
<g id="node27" class="node"><title>Node27</title>
<g id="a_node27"><a xlink:href="../../dd/d18/IdRunRange_8h.html" target="_top" xlink:title="CCDB/IdRunRange.h">
<polygon fill="none" stroke="black" points="1146,-56.5 1146,-75.5 1258,-75.5 1258,-56.5 1146,-56.5"/>
<text text-anchor="middle" x="1202" y="-63.5" font-family="Helvetica,sans-Serif" font-size="10.00">CCDB/IdRunRange.h</text>
</a>
</g>
</g>
<!-- Node26&#45;&gt;Node27 -->
<g id="edge38" class="edge"><title>Node26&#45;&gt;Node27</title>
<path fill="none" stroke="midnightblue" d="M1120.58,-112.324C1136,-103.743 1159.81,-90.486 1177.71,-80.5224"/>
<polygon fill="midnightblue" stroke="midnightblue" points="1179.42,-83.5767 1186.45,-75.6545 1176.01,-77.4606 1179.42,-83.5767"/>
</g>
<!-- Node27&#45;&gt;Node6 -->
<g id="edge39" class="edge"><title>Node27&#45;&gt;Node6</title>
<path fill="none" stroke="midnightblue" d="M1165.71,-56.4435C1123.92,-46.587 1055.48,-30.4491 1012.41,-20.2922"/>
<polygon fill="midnightblue" stroke="midnightblue" points="1013.1,-16.8596 1002.56,-17.971 1011.49,-23.6728 1013.1,-16.8596"/>
</g>
<!-- Node27&#45;&gt;Node8 -->
<g id="edge40" class="edge"><title>Node27&#45;&gt;Node8</title>
<path fill="none" stroke="midnightblue" d="M1208.94,-56.083C1214.93,-48.3768 1223.75,-37.0333 1231.05,-27.6531"/>
<polygon fill="midnightblue" stroke="midnightblue" points="1233.82,-29.7934 1237.19,-19.7511 1228.29,-25.4958 1233.82,-29.7934"/>
</g>
<!-- Node28&#45;&gt;Node5 -->
<g id="edge44" class="edge"><title>Node28&#45;&gt;Node5</title>
<path fill="none" stroke="midnightblue" d="M755.841,-56.4435C699.013,-45.6762 602.624,-27.4129 551.041,-17.6393"/>
<polygon fill="midnightblue" stroke="midnightblue" points="551.522,-14.1682 541.045,-15.7454 550.219,-21.0459 551.522,-14.1682"/>
</g>
<!-- Node28&#45;&gt;Node6 -->
<g id="edge45" class="edge"><title>Node28&#45;&gt;Node6</title>
<path fill="none" stroke="midnightblue" d="M828.254,-56.4435C857.441,-47.2801 903.921,-32.6876 936.309,-22.5192"/>
<polygon fill="midnightblue" stroke="midnightblue" points="937.381,-25.8512 945.874,-19.5164 935.284,-19.1726 937.381,-25.8512"/>
</g>
<!-- Node28&#45;&gt;Node8 -->
<g id="edge46" class="edge"><title>Node28&#45;&gt;Node8</title>
<path fill="none" stroke="midnightblue" d="M871.195,-56.4435C965.837,-44.907 1131.07,-24.7652 1205.6,-15.6804"/>
<polygon fill="midnightblue" stroke="midnightblue" points="1206.42,-19.107 1215.92,-14.4226 1205.57,-12.1584 1206.42,-19.107"/>
</g>
<!-- Node28&#45;&gt;Node9 -->
<g id="edge47" class="edge"><title>Node28&#45;&gt;Node9</title>
<path fill="none" stroke="midnightblue" d="M771.528,-56.4435C739.456,-47.1323 688.076,-32.2155 652.995,-22.0308"/>
<polygon fill="midnightblue" stroke="midnightblue" points="653.696,-18.5899 643.117,-19.1629 651.744,-25.3123 653.696,-18.5899"/>
</g>
</g>
</svg>
