<?xml version="1.0" encoding="UTF-8" standalone="no"?>
<!DOCTYPE svg PUBLIC "-//W3C//DTD SVG 1.1//EN"
 "http://www.w3.org/Graphics/SVG/1.1/DTD/svg11.dtd">
<!-- Generated by graphviz version 2.36.0 (20140111.2315)
 -->
<!-- Title: o2::framework::RegistryPair&lt; KeyT, _id, CallbackT &gt; Pages: 1 -->
<svg width="146pt" height="184pt"
 viewBox="0.00 0.00 146.00 184.00" xmlns="http://www.w3.org/2000/svg" xmlns:xlink="http://www.w3.org/1999/xlink">
<g id="graph0" class="graph" transform="scale(1 1) rotate(0) translate(4 180)">
<title>o2::framework::RegistryPair&lt; KeyT, _id, CallbackT &gt;</title>
<!-- Node1 -->
<g id="node1" class="node"><title>Node1</title>
<polygon fill="#bfbfbf" stroke="black" points="-0.5,-1 -0.5,-69 138.5,-69 138.5,-1 -0.5,-1"/>
<text text-anchor="start" x="7.5" y="-57" font-family="Helvetica,sans-Serif" font-size="10.00">o2::framework::RegistryPair</text>
<text text-anchor="middle" x="69" y="-46" font-family="Helvetica,sans-Serif" font-size="10.00">&lt; KeyT, _id, CallbackT &gt;</text>
<polyline fill="none" stroke="black" points="-0.5,-39 138.5,-39 "/>
<text text-anchor="middle" x="69" y="-27" font-family="Helvetica,sans-Serif" font-size="10.00"> </text>
<polyline fill="none" stroke="black" points="-0.5,-20 138.5,-20 "/>
<text text-anchor="middle" x="69" y="-8" font-family="Helvetica,sans-Serif" font-size="10.00"> </text>
</g>
<!-- Node2 -->
<g id="node2" class="node"><title>Node2</title>
<polygon fill="none" stroke="#bfbfbf" points="38.5,-118.5 38.5,-175.5 99.5,-175.5 99.5,-118.5 38.5,-118.5"/>
<text text-anchor="middle" x="69" y="-163.5" font-family="Helvetica,sans-Serif" font-size="10.00">CallbackT</text>
<polyline fill="none" stroke="#bfbfbf" points="38.5,-156.5 99.5,-156.5 "/>
<text text-anchor="middle" x="69" y="-144.5" font-family="Helvetica,sans-Serif" font-size="10.00"> </text>
<polyline fill="none" stroke="#bfbfbf" points="38.5,-137.5 99.5,-137.5 "/>
<text text-anchor="middle" x="69" y="-125.5" font-family="Helvetica,sans-Serif" font-size="10.00"> </text>
</g>
<!-- Node2&#45;&gt;Node1 -->
<g id="edge1" class="edge"><title>Node2&#45;&gt;Node1</title>
<path fill="none" stroke="#404040" d="M69,-118.242C69,-107.073 69,-93.8972 69,-81.4036"/>
<polygon fill="none" stroke="#404040" points="69.0001,-81.2368 65,-75.2368 69,-69.2368 73,-75.2367 69.0001,-81.2368"/>
<text text-anchor="middle" x="92" y="-91.5" font-family="Helvetica,sans-Serif" font-size="10.00"> +callback</text>
</g>
</g>
</svg>
