<?xml version="1.0" encoding="UTF-8" standalone="no"?>
<!DOCTYPE svg PUBLIC "-//W3C//DTD SVG 1.1//EN"
 "http://www.w3.org/Graphics/SVG/1.1/DTD/svg11.dtd">
<!-- Generated by graphviz version 2.36.0 (20140111.2315)
 -->
<!-- Title: o2::ITSMFT::RUInfo Pages: 1 -->
<svg width="293pt" height="194pt"
 viewBox="0.00 0.00 292.68 194.00" xmlns="http://www.w3.org/2000/svg" xmlns:xlink="http://www.w3.org/1999/xlink">
<g id="graph0" class="graph" transform="scale(1 1) rotate(0) translate(4 190)">
<title>o2::ITSMFT::RUInfo</title>
<!-- Node1 -->
<g id="node1" class="node"><title>Node1</title>
<polygon fill="#bfbfbf" stroke="black" points="87.1783,-0.5 87.1783,-57.5 194.178,-57.5 194.178,-0.5 87.1783,-0.5"/>
<text text-anchor="middle" x="140.678" y="-45.5" font-family="Helvetica,sans-Serif" font-size="10.00">o2::ITSMFT::RUInfo</text>
<polyline fill="none" stroke="black" points="87.1783,-38.5 194.178,-38.5 "/>
<text text-anchor="middle" x="140.678" y="-26.5" font-family="Helvetica,sans-Serif" font-size="10.00"> </text>
<polyline fill="none" stroke="black" points="87.1783,-19.5 194.178,-19.5 "/>
<text text-anchor="middle" x="140.678" y="-7.5" font-family="Helvetica,sans-Serif" font-size="10.00"> </text>
</g>
<!-- Node2 -->
<g id="node2" class="node"><title>Node2</title>
<polygon fill="none" stroke="#bfbfbf" points="27.1783,-128.5 27.1783,-185.5 78.1783,-185.5 78.1783,-128.5 27.1783,-128.5"/>
<text text-anchor="middle" x="52.6783" y="-173.5" font-family="Helvetica,sans-Serif" font-size="10.00">uint16_t</text>
<polyline fill="none" stroke="#bfbfbf" points="27.1783,-166.5 78.1783,-166.5 "/>
<text text-anchor="middle" x="52.6783" y="-154.5" font-family="Helvetica,sans-Serif" font-size="10.00"> </text>
<polyline fill="none" stroke="#bfbfbf" points="27.1783,-147.5 78.1783,-147.5 "/>
<text text-anchor="middle" x="52.6783" y="-135.5" font-family="Helvetica,sans-Serif" font-size="10.00"> </text>
</g>
<!-- Node2&#45;&gt;Node1 -->
<g id="edge1" class="edge"><title>Node2&#45;&gt;Node1</title>
<path fill="none" stroke="#404040" d="M27.0176,-137.743C18.5711,-130.218 10.1927,-120.735 5.67827,-110 -0.179473,-96.0704 -3.11653,-88.2881 5.67827,-76 21.6745,-53.6502 49.1794,-42.0336 75.2056,-36.0445"/>
<polygon fill="none" stroke="#404040" points="75.2483,-36.036 80.342,-30.9317 87.0128,-33.6704 81.9191,-38.7747 75.2483,-36.036"/>
<text text-anchor="middle" x="42.1783" y="-101.5" font-family="Helvetica,sans-Serif" font-size="10.00"> +firstChipIDSW</text>
<text text-anchor="middle" x="42.1783" y="-90.5" font-family="Helvetica,sans-Serif" font-size="10.00">+idHW</text>
<text text-anchor="middle" x="42.1783" y="-79.5" font-family="Helvetica,sans-Serif" font-size="10.00">+idSW</text>
</g>
<!-- Node2&#45;&gt;Node1 -->
<g id="edge3" class="edge"><title>Node2&#45;&gt;Node1</title>
<path fill="none" stroke="#404040" d="M68.7064,-128.386C78.1155,-112.695 90.5159,-92.8743 102.678,-76 104.722,-73.1639 106.888,-70.276 109.108,-67.3994"/>
<polygon fill="none" stroke="#404040" points="109.303,-67.1529 109.9,-59.9666 116.764,-57.7538 116.166,-64.9401 109.303,-67.1529"/>
<text text-anchor="middle" x="131.678" y="-90.5" font-family="Helvetica,sans-Serif" font-size="10.00"> +DUMMY16</text>
</g>
<!-- Node3 -->
<g id="node3" class="node"><title>Node3</title>
<polygon fill="none" stroke="#bfbfbf" points="191.678,-128.5 191.678,-185.5 237.678,-185.5 237.678,-128.5 191.678,-128.5"/>
<text text-anchor="middle" x="214.678" y="-173.5" font-family="Helvetica,sans-Serif" font-size="10.00">uint8_t</text>
<polyline fill="none" stroke="#bfbfbf" points="191.678,-166.5 237.678,-166.5 "/>
<text text-anchor="middle" x="214.678" y="-154.5" font-family="Helvetica,sans-Serif" font-size="10.00"> </text>
<polyline fill="none" stroke="#bfbfbf" points="191.678,-147.5 237.678,-147.5 "/>
<text text-anchor="middle" x="214.678" y="-135.5" font-family="Helvetica,sans-Serif" font-size="10.00"> </text>
</g>
<!-- Node3&#45;&gt;Node1 -->
<g id="edge2" class="edge"><title>Node3&#45;&gt;Node1</title>
<path fill="none" stroke="#404040" d="M194.482,-128.149C190.435,-122.246 186.313,-115.987 182.678,-110 174.665,-96.8006 166.604,-81.9235 159.717,-68.6106"/>
<polygon fill="none" stroke="#404040" points="159.689,-68.5558 153.399,-65.0294 154.235,-57.8669 160.525,-61.3933 159.689,-68.5558"/>
<text text-anchor="middle" x="204.178" y="-101.5" font-family="Helvetica,sans-Serif" font-size="10.00"> +layer</text>
<text text-anchor="middle" x="204.178" y="-90.5" font-family="Helvetica,sans-Serif" font-size="10.00">+ruType</text>
<text text-anchor="middle" x="204.178" y="-79.5" font-family="Helvetica,sans-Serif" font-size="10.00">+nCables</text>
</g>
<!-- Node3&#45;&gt;Node1 -->
<g id="edge4" class="edge"><title>Node3&#45;&gt;Node1</title>
<path fill="none" stroke="#404040" d="M226.829,-128.316C232.025,-112.042 235.008,-91.6566 225.678,-76 220.549,-67.3919 213.187,-60.2968 204.914,-54.4771"/>
<polygon fill="none" stroke="#404040" points="204.657,-54.3182 197.45,-54.5562 194.459,-47.995 201.666,-47.7569 204.657,-54.3182"/>
<text text-anchor="middle" x="258.178" y="-90.5" font-family="Helvetica,sans-Serif" font-size="10.00"> +DUMMY8</text>
</g>
</g>
</svg>
