<?xml version="1.0" encoding="UTF-8" standalone="no"?>
<!DOCTYPE svg PUBLIC "-//W3C//DTD SVG 1.1//EN"
 "http://www.w3.org/Graphics/SVG/1.1/DTD/svg11.dtd">
<!-- Generated by graphviz version 2.36.0 (20140111.2315)
 -->
<!-- Title: ROOT::RDF::RCombinedDSBlockJoinIndex&lt; INDEX_TYPE &gt; Pages: 1 -->
<svg width="176pt" height="216pt"
 viewBox="0.00 0.00 176.00 216.00" xmlns="http://www.w3.org/2000/svg" xmlns:xlink="http://www.w3.org/1999/xlink">
<g id="graph0" class="graph" transform="scale(1 1) rotate(0) translate(4 212)">
<title>ROOT::RDF::RCombinedDSBlockJoinIndex&lt; INDEX_TYPE &gt;</title>
<!-- Node1 -->
<g id="node1" class="node"><title>Node1</title>
<polygon fill="#bfbfbf" stroke="black" points="-0.5,-1 -0.5,-91 168.5,-91 168.5,-1 -0.5,-1"/>
<text text-anchor="start" x="7.5" y="-79" font-family="Helvetica,sans-Serif" font-size="10.00">ROOT::RDF::RCombinedDSBlock</text>
<text text-anchor="middle" x="84" y="-68" font-family="Helvetica,sans-Serif" font-size="10.00">JoinIndex&lt; INDEX_TYPE &gt;</text>
<polyline fill="none" stroke="black" points="-0.5,-61 168.5,-61 "/>
<text text-anchor="middle" x="84" y="-49" font-family="Helvetica,sans-Serif" font-size="10.00"> </text>
<polyline fill="none" stroke="black" points="-0.5,-42 168.5,-42 "/>
<text text-anchor="start" x="7.5" y="-30" font-family="Helvetica,sans-Serif" font-size="10.00">+ RCombinedDSBlockJoinIndex()</text>
<text text-anchor="start" x="7.5" y="-19" font-family="Helvetica,sans-Serif" font-size="10.00">+ GetAssociatedEntries()</text>
<text text-anchor="start" x="7.5" y="-8" font-family="Helvetica,sans-Serif" font-size="10.00">+ BuildIndex()</text>
</g>
<!-- Node2 -->
<g id="node2" class="node"><title>Node2</title>
<g id="a_node2"><a xlink:href="../../d9/d7d/classROOT_1_1RDF_1_1RCombinedDSIndex.html" target="_top" xlink:title="{ROOT::RDF::RCombinedDSIndex\n||+ ~RCombinedDSIndex()\l+ BuildIndex()\l+ GetAssociatedEntries()\l}">
<polygon fill="none" stroke="black" points="0,-128.5 0,-207.5 168,-207.5 168,-128.5 0,-128.5"/>
<text text-anchor="middle" x="84" y="-195.5" font-family="Helvetica,sans-Serif" font-size="10.00">ROOT::RDF::RCombinedDSIndex</text>
<polyline fill="none" stroke="black" points="0,-188.5 168,-188.5 "/>
<text text-anchor="middle" x="84" y="-176.5" font-family="Helvetica,sans-Serif" font-size="10.00"> </text>
<polyline fill="none" stroke="black" points="0,-169.5 168,-169.5 "/>
<text text-anchor="start" x="8" y="-157.5" font-family="Helvetica,sans-Serif" font-size="10.00">+ ~RCombinedDSIndex()</text>
<text text-anchor="start" x="8" y="-146.5" font-family="Helvetica,sans-Serif" font-size="10.00">+ BuildIndex()</text>
<text text-anchor="start" x="8" y="-135.5" font-family="Helvetica,sans-Serif" font-size="10.00">+ GetAssociatedEntries()</text>
</a>
</g>
</g>
<!-- Node2&#45;&gt;Node1 -->
<g id="edge1" class="edge"><title>Node2&#45;&gt;Node1</title>
<path fill="none" stroke="midnightblue" d="M84,-118.176C84,-109.318 84,-100.123 84,-91.4012"/>
<polygon fill="none" stroke="midnightblue" points="80.5001,-118.371 84,-128.371 87.5001,-118.371 80.5001,-118.371"/>
</g>
</g>
</svg>
