<?xml version="1.0" encoding="UTF-8" standalone="no"?>
<!DOCTYPE svg PUBLIC "-//W3C//DTD SVG 1.1//EN"
 "http://www.w3.org/Graphics/SVG/1.1/DTD/svg11.dtd">
<!-- Generated by graphviz version 2.36.0 (20140111.2315)
 -->
<!-- Title: /home/travis/build/AliceO2Group/AliceO2/Framework/DebugGUI/include/DebugGUI/imgui_extras.h Pages: 1 -->
<svg width="410pt" height="174pt"
 viewBox="0.00 0.00 410.00 174.00" xmlns="http://www.w3.org/2000/svg" xmlns:xlink="http://www.w3.org/1999/xlink">
<g id="graph0" class="graph" transform="scale(1 1) rotate(0) translate(4 170)">
<title>/home/travis/build/AliceO2Group/AliceO2/Framework/DebugGUI/include/DebugGUI/imgui_extras.h</title>
<!-- Node1 -->
<g id="node1" class="node"><title>Node1</title>
<polygon fill="#bfbfbf" stroke="black" points="127,-113 127,-165 279,-165 279,-113 127,-113"/>
<text text-anchor="start" x="135" y="-153" font-family="Helvetica,sans-Serif" font-size="10.00">/home/travis/build</text>
<text text-anchor="start" x="135" y="-142" font-family="Helvetica,sans-Serif" font-size="10.00">/AliceO2Group/AliceO2</text>
<text text-anchor="start" x="135" y="-131" font-family="Helvetica,sans-Serif" font-size="10.00">/Framework/DebugGUI/include</text>
<text text-anchor="middle" x="203" y="-120" font-family="Helvetica,sans-Serif" font-size="10.00">/DebugGUI/imgui_extras.h</text>
</g>
<!-- Node2 -->
<g id="node2" class="node"><title>Node2</title>
<g id="a_node2"><a xlink:href="../../d2/d35/include_2DebugGUI_2imgui_8h.html" target="_top" xlink:title="imgui.h">
<polygon fill="none" stroke="black" points="179,-56.5 179,-75.5 227,-75.5 227,-56.5 179,-56.5"/>
<text text-anchor="middle" x="203" y="-63.5" font-family="Helvetica,sans-Serif" font-size="10.00">imgui.h</text>
</a>
</g>
</g>
<!-- Node1&#45;&gt;Node2 -->
<g id="edge1" class="edge"><title>Node1&#45;&gt;Node2</title>
<path fill="none" stroke="midnightblue" d="M203,-112.768C203,-103.89 203,-94.0737 203,-85.8165"/>
<polygon fill="midnightblue" stroke="midnightblue" points="206.5,-85.7571 203,-75.7572 199.5,-85.7572 206.5,-85.7571"/>
</g>
<!-- Node3 -->
<g id="node3" class="node"><title>Node3</title>
<g id="a_node3"><a xlink:href="../../d2/d26/include_2DebugGUI_2imconfig_8h.html" target="_top" xlink:title="imconfig.h">
<polygon fill="none" stroke="black" points="0,-0.5 0,-19.5 62,-19.5 62,-0.5 0,-0.5"/>
<text text-anchor="middle" x="31" y="-7.5" font-family="Helvetica,sans-Serif" font-size="10.00">imconfig.h</text>
</a>
</g>
</g>
<!-- Node2&#45;&gt;Node3 -->
<g id="edge2" class="edge"><title>Node2&#45;&gt;Node3</title>
<path fill="none" stroke="midnightblue" d="M178.721,-57.3776C149.937,-48.3406 101.655,-33.1823 68.1594,-22.6663"/>
<polygon fill="midnightblue" stroke="midnightblue" points="68.8662,-19.2198 58.2769,-19.5637 66.7694,-25.8984 68.8662,-19.2198"/>
</g>
<!-- Node4 -->
<g id="node4" class="node"><title>Node4</title>
<polygon fill="none" stroke="#bfbfbf" points="80,-0.5 80,-19.5 124,-19.5 124,-0.5 80,-0.5"/>
<text text-anchor="middle" x="102" y="-7.5" font-family="Helvetica,sans-Serif" font-size="10.00">float.h</text>
</g>
<!-- Node2&#45;&gt;Node4 -->
<g id="edge3" class="edge"><title>Node2&#45;&gt;Node4</title>
<path fill="none" stroke="midnightblue" d="M186.773,-56.324C170.649,-47.7034 145.7,-34.3643 127.036,-24.3855"/>
<polygon fill="midnightblue" stroke="midnightblue" points="128.656,-21.283 118.187,-19.6545 125.356,-27.456 128.656,-21.283"/>
</g>
<!-- Node5 -->
<g id="node5" class="node"><title>Node5</title>
<polygon fill="none" stroke="#bfbfbf" points="142,-0.5 142,-19.5 194,-19.5 194,-0.5 142,-0.5"/>
<text text-anchor="middle" x="168" y="-7.5" font-family="Helvetica,sans-Serif" font-size="10.00">stdarg.h</text>
</g>
<!-- Node2&#45;&gt;Node5 -->
<g id="edge4" class="edge"><title>Node2&#45;&gt;Node5</title>
<path fill="none" stroke="midnightblue" d="M197.22,-56.083C192.328,-48.5341 185.173,-37.4948 179.167,-28.2298"/>
<polygon fill="midnightblue" stroke="midnightblue" points="182.048,-26.239 173.672,-19.7511 176.174,-30.0463 182.048,-26.239"/>
</g>
<!-- Node6 -->
<g id="node6" class="node"><title>Node6</title>
<polygon fill="none" stroke="#bfbfbf" points="212,-0.5 212,-19.5 264,-19.5 264,-0.5 212,-0.5"/>
<text text-anchor="middle" x="238" y="-7.5" font-family="Helvetica,sans-Serif" font-size="10.00">stddef.h</text>
</g>
<!-- Node2&#45;&gt;Node6 -->
<g id="edge5" class="edge"><title>Node2&#45;&gt;Node6</title>
<path fill="none" stroke="midnightblue" d="M208.78,-56.083C213.672,-48.5341 220.827,-37.4948 226.833,-28.2298"/>
<polygon fill="midnightblue" stroke="midnightblue" points="229.826,-30.0463 232.328,-19.7511 223.952,-26.239 229.826,-30.0463"/>
</g>
<!-- Node7 -->
<g id="node7" class="node"><title>Node7</title>
<polygon fill="none" stroke="#bfbfbf" points="282.5,-0.5 282.5,-19.5 331.5,-19.5 331.5,-0.5 282.5,-0.5"/>
<text text-anchor="middle" x="307" y="-7.5" font-family="Helvetica,sans-Serif" font-size="10.00">string.h</text>
</g>
<!-- Node2&#45;&gt;Node7 -->
<g id="edge6" class="edge"><title>Node2&#45;&gt;Node7</title>
<path fill="none" stroke="midnightblue" d="M219.709,-56.324C236.312,-47.7034 262.002,-34.3643 281.22,-24.3855"/>
<polygon fill="midnightblue" stroke="midnightblue" points="283.07,-27.3689 290.332,-19.6545 279.844,-21.1565 283.07,-27.3689"/>
</g>
<!-- Node8 -->
<g id="node8" class="node"><title>Node8</title>
<polygon fill="none" stroke="#bfbfbf" points="350,-0.5 350,-19.5 402,-19.5 402,-0.5 350,-0.5"/>
<text text-anchor="middle" x="376" y="-7.5" font-family="Helvetica,sans-Serif" font-size="10.00">assert.h</text>
</g>
<!-- Node2&#45;&gt;Node8 -->
<g id="edge7" class="edge"><title>Node2&#45;&gt;Node8</title>
<path fill="none" stroke="midnightblue" d="M227.055,-57.4915C256.335,-48.352 306.056,-32.8322 339.927,-22.2598"/>
<polygon fill="midnightblue" stroke="midnightblue" points="341.386,-25.4708 349.889,-19.1501 339.301,-18.7888 341.386,-25.4708"/>
</g>
</g>
</svg>
