<?xml version="1.0" encoding="UTF-8" standalone="no"?>
<!DOCTYPE svg PUBLIC "-//W3C//DTD SVG 1.1//EN"
 "http://www.w3.org/Graphics/SVG/1.1/DTD/svg11.dtd">
<!-- Generated by graphviz version 2.36.0 (20140111.2315)
 -->
<!-- Title: o2::trd::TRDArraySignal Pages: 1 -->
<svg width="185pt" height="446pt"
 viewBox="0.00 0.00 185.00 446.00" xmlns="http://www.w3.org/2000/svg" xmlns:xlink="http://www.w3.org/1999/xlink">
<g id="graph0" class="graph" transform="scale(1 1) rotate(0) translate(4 442)">
<title>o2::trd::TRDArraySignal</title>
<!-- Node1 -->
<g id="node1" class="node"><title>Node1</title>
<polygon fill="#bfbfbf" stroke="black" points="14,-0.5 14,-277.5 136,-277.5 136,-0.5 14,-0.5"/>
<text text-anchor="middle" x="75" y="-265.5" font-family="Helvetica,sans-Serif" font-size="10.00">o2::trd::TRDArraySignal</text>
<polyline fill="none" stroke="black" points="14,-258.5 136,-258.5 "/>
<text text-anchor="middle" x="75" y="-246.5" font-family="Helvetica,sans-Serif" font-size="10.00"> </text>
<polyline fill="none" stroke="black" points="14,-239.5 136,-239.5 "/>
<text text-anchor="start" x="22" y="-227.5" font-family="Helvetica,sans-Serif" font-size="10.00">+ TRDArraySignal()</text>
<text text-anchor="start" x="22" y="-216.5" font-family="Helvetica,sans-Serif" font-size="10.00">+ TRDArraySignal()</text>
<text text-anchor="start" x="22" y="-205.5" font-family="Helvetica,sans-Serif" font-size="10.00">+ TRDArraySignal()</text>
<text text-anchor="start" x="22" y="-194.5" font-family="Helvetica,sans-Serif" font-size="10.00">+ ~TRDArraySignal()</text>
<text text-anchor="start" x="22" y="-183.5" font-family="Helvetica,sans-Serif" font-size="10.00">+ operator=()</text>
<text text-anchor="start" x="22" y="-172.5" font-family="Helvetica,sans-Serif" font-size="10.00">+ allocate()</text>
<text text-anchor="start" x="22" y="-161.5" font-family="Helvetica,sans-Serif" font-size="10.00">+ setNdet()</text>
<text text-anchor="start" x="22" y="-150.5" font-family="Helvetica,sans-Serif" font-size="10.00">+ getNdet()</text>
<text text-anchor="start" x="22" y="-139.5" font-family="Helvetica,sans-Serif" font-size="10.00">+ getNrow()</text>
<text text-anchor="start" x="22" y="-128.5" font-family="Helvetica,sans-Serif" font-size="10.00">+ getNcol()</text>
<text text-anchor="start" x="22" y="-117.5" font-family="Helvetica,sans-Serif" font-size="10.00">+ getNtime()</text>
<text text-anchor="start" x="22" y="-106.5" font-family="Helvetica,sans-Serif" font-size="10.00">+ getDataByAdcCol()</text>
<text text-anchor="start" x="22" y="-95.5" font-family="Helvetica,sans-Serif" font-size="10.00">+ setDataByAdcCol()</text>
<text text-anchor="start" x="22" y="-84.5" font-family="Helvetica,sans-Serif" font-size="10.00">+ hasData()</text>
<text text-anchor="start" x="22" y="-73.5" font-family="Helvetica,sans-Serif" font-size="10.00">+ getDim()</text>
<text text-anchor="start" x="22" y="-62.5" font-family="Helvetica,sans-Serif" font-size="10.00">+ getOverThreshold()</text>
<text text-anchor="start" x="22" y="-51.5" font-family="Helvetica,sans-Serif" font-size="10.00">+ compress()</text>
<text text-anchor="start" x="22" y="-40.5" font-family="Helvetica,sans-Serif" font-size="10.00">+ expand()</text>
<text text-anchor="start" x="22" y="-29.5" font-family="Helvetica,sans-Serif" font-size="10.00">+ reset()</text>
<text text-anchor="start" x="22" y="-18.5" font-family="Helvetica,sans-Serif" font-size="10.00">+ getData()</text>
<text text-anchor="start" x="22" y="-7.5" font-family="Helvetica,sans-Serif" font-size="10.00">+ setData()</text>
</g>
<!-- Node2 -->
<g id="node2" class="node"><title>Node2</title>
<g id="a_node2"><a xlink:href="../../d1/da0/classint.html" target="_top" xlink:title="{int\n||}">
<polygon fill="none" stroke="black" points="-0.5,-380.5 -0.5,-437.5 28.5,-437.5 28.5,-380.5 -0.5,-380.5"/>
<text text-anchor="middle" x="14" y="-425.5" font-family="Helvetica,sans-Serif" font-size="10.00">int</text>
<polyline fill="none" stroke="black" points="-0.5,-418.5 28.5,-418.5 "/>
<text text-anchor="middle" x="14" y="-406.5" font-family="Helvetica,sans-Serif" font-size="10.00"> </text>
<polyline fill="none" stroke="black" points="-0.5,-399.5 28.5,-399.5 "/>
<text text-anchor="middle" x="14" y="-387.5" font-family="Helvetica,sans-Serif" font-size="10.00"> </text>
</a>
</g>
</g>
<!-- Node2&#45;&gt;Node1 -->
<g id="edge1" class="edge"><title>Node2&#45;&gt;Node1</title>
<path fill="none" stroke="#404040" d="M11.5112,-380.113C10.1263,-357.288 9.61993,-324.272 15,-296 15.3916,-293.942 15.8088,-291.876 16.2499,-289.805"/>
<polygon fill="none" stroke="#404040" points="16.3029,-289.577 13.7681,-282.826 19.0248,-277.89 21.5596,-284.641 16.3029,-289.577"/>
<text text-anchor="middle" x="65" y="-354" font-family="Helvetica,sans-Serif" font-size="10.00"> #mNtime</text>
<text text-anchor="middle" x="65" y="-343" font-family="Helvetica,sans-Serif" font-size="10.00">#mNcol</text>
<text text-anchor="middle" x="65" y="-332" font-family="Helvetica,sans-Serif" font-size="10.00">#mNumberOfChannels</text>
<text text-anchor="middle" x="65" y="-321" font-family="Helvetica,sans-Serif" font-size="10.00">#mNdet</text>
<text text-anchor="middle" x="65" y="-310" font-family="Helvetica,sans-Serif" font-size="10.00">#mNdim</text>
<text text-anchor="middle" x="65" y="-299" font-family="Helvetica,sans-Serif" font-size="10.00">#mNrow</text>
</g>
<!-- Node3 -->
<g id="node3" class="node"><title>Node3</title>
<polygon fill="none" stroke="#bfbfbf" points="97,-380.5 97,-437.5 177,-437.5 177,-380.5 97,-380.5"/>
<text text-anchor="middle" x="137" y="-425.5" font-family="Helvetica,sans-Serif" font-size="10.00">vector&lt; float &gt;</text>
<polyline fill="none" stroke="#bfbfbf" points="97,-418.5 177,-418.5 "/>
<text text-anchor="middle" x="137" y="-406.5" font-family="Helvetica,sans-Serif" font-size="10.00"> </text>
<polyline fill="none" stroke="#bfbfbf" points="97,-399.5 177,-399.5 "/>
<text text-anchor="middle" x="137" y="-387.5" font-family="Helvetica,sans-Serif" font-size="10.00"> </text>
</g>
<!-- Node3&#45;&gt;Node1 -->
<g id="edge2" class="edge"><title>Node3&#45;&gt;Node1</title>
<path fill="none" stroke="#404040" d="M132.012,-380.291C127.813,-357.569 121.471,-324.605 115,-296 114.512,-293.844 114.016,-291.672 113.514,-289.488"/>
<polygon fill="none" stroke="#404040" points="113.491,-289.39 108.231,-284.456 110.763,-277.704 116.022,-282.637 113.491,-289.39"/>
<text text-anchor="middle" x="151" y="-326.5" font-family="Helvetica,sans-Serif" font-size="10.00"> #mSignal</text>
</g>
</g>
</svg>
