<?xml version="1.0" encoding="UTF-8" standalone="no"?>
<!DOCTYPE svg PUBLIC "-//W3C//DTD SVG 1.1//EN"
 "http://www.w3.org/Graphics/SVG/1.1/DTD/svg11.dtd">
<!-- Generated by graphviz version 2.36.0 (20140111.2315)
 -->
<!-- Title: /home/travis/build/AliceO2Group/AliceO2/Detectors/MUON/MCH/Simulation/src/Materials.h Pages: 1 -->
<svg width="934pt" height="152pt"
 viewBox="0.00 0.00 934.00 152.00" xmlns="http://www.w3.org/2000/svg" xmlns:xlink="http://www.w3.org/1999/xlink">
<g id="graph0" class="graph" transform="scale(1 1) rotate(0) translate(4 148)">
<title>/home/travis/build/AliceO2Group/AliceO2/Detectors/MUON/MCH/Simulation/src/Materials.h</title>
<!-- Node1 -->
<g id="node1" class="node"><title>Node1</title>
<polygon fill="#bfbfbf" stroke="black" points="377.5,-91 377.5,-143 548.5,-143 548.5,-91 377.5,-91"/>
<text text-anchor="start" x="385.5" y="-131" font-family="Helvetica,sans-Serif" font-size="10.00">/home/travis/build</text>
<text text-anchor="start" x="385.5" y="-120" font-family="Helvetica,sans-Serif" font-size="10.00">/AliceO2Group/AliceO2</text>
<text text-anchor="start" x="385.5" y="-109" font-family="Helvetica,sans-Serif" font-size="10.00">/Detectors/MUON/MCH/Simulation</text>
<text text-anchor="middle" x="463" y="-98" font-family="Helvetica,sans-Serif" font-size="10.00">/src/Materials.h</text>
</g>
<!-- Node2 -->
<g id="node2" class="node"><title>Node2</title>
<g id="a_node2"><a xlink:href="../../d5/d51/MUON_2MCH_2Simulation_2src_2Geometry_8cxx.html" target="_top" xlink:title="/home/travis/build\l/AliceO2Group/AliceO2\l/Detectors/MUON/MCH/Simulation\l/src/Geometry.cxx">
<polygon fill="none" stroke="black" points="-0.5,-1 -0.5,-53 170.5,-53 170.5,-1 -0.5,-1"/>
<text text-anchor="start" x="7.5" y="-41" font-family="Helvetica,sans-Serif" font-size="10.00">/home/travis/build</text>
<text text-anchor="start" x="7.5" y="-30" font-family="Helvetica,sans-Serif" font-size="10.00">/AliceO2Group/AliceO2</text>
<text text-anchor="start" x="7.5" y="-19" font-family="Helvetica,sans-Serif" font-size="10.00">/Detectors/MUON/MCH/Simulation</text>
<text text-anchor="middle" x="85" y="-8" font-family="Helvetica,sans-Serif" font-size="10.00">/src/Geometry.cxx</text>
</a>
</g>
</g>
<!-- Node1&#45;&gt;Node2 -->
<g id="edge1" class="edge"><title>Node1&#45;&gt;Node2</title>
<path fill="none" stroke="midnightblue" d="M367.156,-96.4447C311.961,-84.8417 241.378,-69.4234 179,-54 176.206,-53.3091 173.368,-52.5953 170.505,-51.8647"/>
<polygon fill="midnightblue" stroke="midnightblue" points="366.772,-99.9402 377.277,-98.566 368.208,-93.0891 366.772,-99.9402"/>
</g>
<!-- Node3 -->
<g id="node3" class="node"><title>Node3</title>
<g id="a_node3"><a xlink:href="../../df/deb/MCH_2Simulation_2src_2Materials_8cxx.html" target="_top" xlink:title="/home/travis/build\l/AliceO2Group/AliceO2\l/Detectors/MUON/MCH/Simulation\l/src/Materials.cxx">
<polygon fill="none" stroke="black" points="188.5,-1 188.5,-53 359.5,-53 359.5,-1 188.5,-1"/>
<text text-anchor="start" x="196.5" y="-41" font-family="Helvetica,sans-Serif" font-size="10.00">/home/travis/build</text>
<text text-anchor="start" x="196.5" y="-30" font-family="Helvetica,sans-Serif" font-size="10.00">/AliceO2Group/AliceO2</text>
<text text-anchor="start" x="196.5" y="-19" font-family="Helvetica,sans-Serif" font-size="10.00">/Detectors/MUON/MCH/Simulation</text>
<text text-anchor="middle" x="274" y="-8" font-family="Helvetica,sans-Serif" font-size="10.00">/src/Materials.cxx</text>
</a>
</g>
</g>
<!-- Node1&#45;&gt;Node3 -->
<g id="edge2" class="edge"><title>Node1&#45;&gt;Node3</title>
<path fill="none" stroke="midnightblue" d="M399.972,-86.6536C376.645,-75.7923 350.429,-63.5862 327.978,-53.1328"/>
<polygon fill="midnightblue" stroke="midnightblue" points="398.55,-89.8524 409.093,-90.9005 401.505,-83.5065 398.55,-89.8524"/>
</g>
<!-- Node4 -->
<g id="node4" class="node"><title>Node4</title>
<g id="a_node4"><a xlink:href="../../df/db6/Station1Geometry_8cxx.html" target="_top" xlink:title="Implementation of the station 1 geometry (copied and adapted from AliMUONSt1GeometryBuilder) ...">
<polygon fill="none" stroke="black" points="377.5,-1 377.5,-53 548.5,-53 548.5,-1 377.5,-1"/>
<text text-anchor="start" x="385.5" y="-41" font-family="Helvetica,sans-Serif" font-size="10.00">/home/travis/build</text>
<text text-anchor="start" x="385.5" y="-30" font-family="Helvetica,sans-Serif" font-size="10.00">/AliceO2Group/AliceO2</text>
<text text-anchor="start" x="385.5" y="-19" font-family="Helvetica,sans-Serif" font-size="10.00">/Detectors/MUON/MCH/Simulation</text>
<text text-anchor="middle" x="463" y="-8" font-family="Helvetica,sans-Serif" font-size="10.00">/src/Station1Geometry.cxx</text>
</a>
</g>
</g>
<!-- Node1&#45;&gt;Node4 -->
<g id="edge3" class="edge"><title>Node1&#45;&gt;Node4</title>
<path fill="none" stroke="midnightblue" d="M463,-80.4892C463,-71.3088 463,-61.616 463,-53.0921"/>
<polygon fill="midnightblue" stroke="midnightblue" points="459.5,-80.5467 463,-90.5468 466.5,-80.5468 459.5,-80.5467"/>
</g>
<!-- Node5 -->
<g id="node5" class="node"><title>Node5</title>
<g id="a_node5"><a xlink:href="../../d4/d0d/Station2Geometry_8cxx.html" target="_top" xlink:title="Implementation of the station 2 geometry (copied and adapted from AliMUONSt2GeometryBuilderv2) ...">
<polygon fill="none" stroke="black" points="566.5,-1 566.5,-53 737.5,-53 737.5,-1 566.5,-1"/>
<text text-anchor="start" x="574.5" y="-41" font-family="Helvetica,sans-Serif" font-size="10.00">/home/travis/build</text>
<text text-anchor="start" x="574.5" y="-30" font-family="Helvetica,sans-Serif" font-size="10.00">/AliceO2Group/AliceO2</text>
<text text-anchor="start" x="574.5" y="-19" font-family="Helvetica,sans-Serif" font-size="10.00">/Detectors/MUON/MCH/Simulation</text>
<text text-anchor="middle" x="652" y="-8" font-family="Helvetica,sans-Serif" font-size="10.00">/src/Station2Geometry.cxx</text>
</a>
</g>
</g>
<!-- Node1&#45;&gt;Node5 -->
<g id="edge4" class="edge"><title>Node1&#45;&gt;Node5</title>
<path fill="none" stroke="midnightblue" d="M526.028,-86.6536C549.355,-75.7923 575.571,-63.5862 598.022,-53.1328"/>
<polygon fill="midnightblue" stroke="midnightblue" points="524.495,-83.5065 516.907,-90.9005 527.45,-89.8524 524.495,-83.5065"/>
</g>
<!-- Node6 -->
<g id="node6" class="node"><title>Node6</title>
<g id="a_node6"><a xlink:href="../../dc/d6b/Station345Geometry_8cxx.html" target="_top" xlink:title="Implementation of the slat&#45;stations geometry. ">
<polygon fill="none" stroke="black" points="755.5,-1 755.5,-53 926.5,-53 926.5,-1 755.5,-1"/>
<text text-anchor="start" x="763.5" y="-41" font-family="Helvetica,sans-Serif" font-size="10.00">/home/travis/build</text>
<text text-anchor="start" x="763.5" y="-30" font-family="Helvetica,sans-Serif" font-size="10.00">/AliceO2Group/AliceO2</text>
<text text-anchor="start" x="763.5" y="-19" font-family="Helvetica,sans-Serif" font-size="10.00">/Detectors/MUON/MCH/Simulation</text>
<text text-anchor="middle" x="841" y="-8" font-family="Helvetica,sans-Serif" font-size="10.00">/src/Station345Geometry.cxx</text>
</a>
</g>
</g>
<!-- Node1&#45;&gt;Node6 -->
<g id="edge5" class="edge"><title>Node1&#45;&gt;Node6</title>
<path fill="none" stroke="midnightblue" d="M558.793,-96.2944C613.742,-84.671 683.931,-69.282 746,-54 749.072,-53.2437 752.196,-52.461 755.348,-51.6595"/>
<polygon fill="midnightblue" stroke="midnightblue" points="557.778,-92.9315 548.716,-98.4201 559.223,-99.7808 557.778,-92.9315"/>
</g>
</g>
</svg>
