<?xml version="1.0" encoding="UTF-8" standalone="no"?>
<!DOCTYPE svg PUBLIC "-//W3C//DTD SVG 1.1//EN"
 "http://www.w3.org/Graphics/SVG/1.1/DTD/svg11.dtd">
<!-- Generated by graphviz version 2.36.0 (20140111.2315)
 -->
<!-- Title: /home/travis/build/AliceO2Group/AliceO2/Steer/include/Steer/O2MCApplicationBase.h Pages: 1 -->
<svg width="620pt" height="310pt"
 viewBox="0.00 0.00 620.00 310.00" xmlns="http://www.w3.org/2000/svg" xmlns:xlink="http://www.w3.org/1999/xlink">
<g id="graph0" class="graph" transform="scale(1 1) rotate(0) translate(4 306)">
<title>/home/travis/build/AliceO2Group/AliceO2/Steer/include/Steer/O2MCApplicationBase.h</title>
<!-- Node1 -->
<g id="node1" class="node"><title>Node1</title>
<polygon fill="#bfbfbf" stroke="black" points="101,-249 101,-301 283,-301 283,-249 101,-249"/>
<text text-anchor="start" x="109" y="-289" font-family="Helvetica,sans-Serif" font-size="10.00">/home/travis/build</text>
<text text-anchor="start" x="109" y="-278" font-family="Helvetica,sans-Serif" font-size="10.00">/AliceO2Group/AliceO2</text>
<text text-anchor="start" x="109" y="-267" font-family="Helvetica,sans-Serif" font-size="10.00">/Steer/include/Steer/O2MCApplication</text>
<text text-anchor="middle" x="192" y="-256" font-family="Helvetica,sans-Serif" font-size="10.00">Base.h</text>
</g>
<!-- Node2 -->
<g id="node2" class="node"><title>Node2</title>
<polygon fill="none" stroke="#bfbfbf" points="-0.5,-192.5 -0.5,-211.5 104.5,-211.5 104.5,-192.5 -0.5,-192.5"/>
<text text-anchor="middle" x="52" y="-199.5" font-family="Helvetica,sans-Serif" font-size="10.00">FairMCApplication.h</text>
</g>
<!-- Node1&#45;&gt;Node2 -->
<g id="edge1" class="edge"><title>Node1&#45;&gt;Node2</title>
<path fill="none" stroke="midnightblue" d="M142.641,-248.968C120.987,-237.986 96.4389,-225.537 78.3559,-216.366"/>
<polygon fill="midnightblue" stroke="midnightblue" points="79.5362,-213.04 69.0344,-211.639 76.37,-219.283 79.5362,-213.04"/>
</g>
<!-- Node3 -->
<g id="node3" class="node"><title>Node3</title>
<polygon fill="none" stroke="#bfbfbf" points="123,-192.5 123,-211.5 179,-211.5 179,-192.5 123,-192.5"/>
<text text-anchor="middle" x="151" y="-199.5" font-family="Helvetica,sans-Serif" font-size="10.00">Rtypes.h</text>
</g>
<!-- Node1&#45;&gt;Node3 -->
<g id="edge2" class="edge"><title>Node1&#45;&gt;Node3</title>
<path fill="none" stroke="midnightblue" d="M177.429,-248.768C172.011,-239.385 165.988,-228.955 161.062,-220.425"/>
<polygon fill="midnightblue" stroke="midnightblue" points="164.089,-218.667 156.057,-211.757 158.027,-222.167 164.089,-218.667"/>
</g>
<!-- Node4 -->
<g id="node4" class="node"><title>Node4</title>
<polygon fill="none" stroke="#bfbfbf" points="197,-192.5 197,-211.5 271,-211.5 271,-192.5 197,-192.5"/>
<text text-anchor="middle" x="234" y="-199.5" font-family="Helvetica,sans-Serif" font-size="10.00">TVirtualMC.h</text>
</g>
<!-- Node1&#45;&gt;Node4 -->
<g id="edge3" class="edge"><title>Node1&#45;&gt;Node4</title>
<path fill="none" stroke="midnightblue" d="M206.926,-248.768C212.476,-239.385 218.646,-228.955 223.693,-220.425"/>
<polygon fill="midnightblue" stroke="midnightblue" points="226.741,-222.146 228.82,-211.757 220.716,-218.582 226.741,-222.146"/>
</g>
<!-- Node5 -->
<g id="node5" class="node"><title>Node5</title>
<g id="a_node5"><a xlink:href="../../d3/da9/SimCutParams_8h.html" target="_top" xlink:title="SimConfig/SimCutParams.h">
<polygon fill="none" stroke="black" points="289,-192.5 289,-211.5 429,-211.5 429,-192.5 289,-192.5"/>
<text text-anchor="middle" x="359" y="-199.5" font-family="Helvetica,sans-Serif" font-size="10.00">SimConfig/SimCutParams.h</text>
</a>
</g>
</g>
<!-- Node1&#45;&gt;Node5 -->
<g id="edge4" class="edge"><title>Node1&#45;&gt;Node5</title>
<path fill="none" stroke="midnightblue" d="M250.878,-248.968C277.426,-237.681 307.62,-224.844 329.341,-215.61"/>
<polygon fill="midnightblue" stroke="midnightblue" points="330.847,-218.773 338.68,-211.639 328.108,-212.331 330.847,-218.773"/>
</g>
<!-- Node6 -->
<g id="node6" class="node"><title>Node6</title>
<g id="a_node6"><a xlink:href="../../db/d2c/ConfigurableParam_8h.html" target="_top" xlink:title="SimConfig/ConfigurableParam.h">
<polygon fill="none" stroke="black" points="197.5,-68.5 197.5,-87.5 354.5,-87.5 354.5,-68.5 197.5,-68.5"/>
<text text-anchor="middle" x="276" y="-75.5" font-family="Helvetica,sans-Serif" font-size="10.00">SimConfig/ConfigurableParam.h</text>
</a>
</g>
</g>
<!-- Node5&#45;&gt;Node6 -->
<g id="edge5" class="edge"><title>Node5&#45;&gt;Node6</title>
<path fill="none" stroke="midnightblue" d="M353.033,-192.389C346.774,-183.344 336.66,-168.696 328,-156 313.999,-135.474 298.021,-111.772 287.514,-96.1475"/>
<polygon fill="midnightblue" stroke="midnightblue" points="290.228,-93.9111 281.745,-87.5632 284.418,-97.8154 290.228,-93.9111"/>
</g>
<!-- Node11 -->
<g id="node11" class="node"><title>Node11</title>
<g id="a_node11"><a xlink:href="../../da/d6b/ConfigurableParamHelper_8h.html" target="_top" xlink:title="SimConfig/ConfigurableParam\lHelper.h">
<polygon fill="none" stroke="black" points="336.5,-125 336.5,-155 485.5,-155 485.5,-125 336.5,-125"/>
<text text-anchor="start" x="344.5" y="-143" font-family="Helvetica,sans-Serif" font-size="10.00">SimConfig/ConfigurableParam</text>
<text text-anchor="middle" x="411" y="-132" font-family="Helvetica,sans-Serif" font-size="10.00">Helper.h</text>
</a>
</g>
</g>
<!-- Node5&#45;&gt;Node11 -->
<g id="edge10" class="edge"><title>Node5&#45;&gt;Node11</title>
<path fill="none" stroke="midnightblue" d="M366.45,-192.403C373.098,-184.733 383.122,-173.167 391.979,-162.948"/>
<polygon fill="midnightblue" stroke="midnightblue" points="394.84,-164.99 398.745,-155.141 389.55,-160.405 394.84,-164.99"/>
</g>
<!-- Node7 -->
<g id="node7" class="node"><title>Node7</title>
<polygon fill="none" stroke="#bfbfbf" points="123,-6.5 123,-25.5 167,-25.5 167,-6.5 123,-6.5"/>
<text text-anchor="middle" x="145" y="-13.5" font-family="Helvetica,sans-Serif" font-size="10.00">vector</text>
</g>
<!-- Node6&#45;&gt;Node7 -->
<g id="edge6" class="edge"><title>Node6&#45;&gt;Node7</title>
<path fill="none" stroke="midnightblue" d="M256.991,-68.439C237.038,-59.4343 204.769,-44.819 177,-32 175.607,-31.3571 174.181,-30.6967 172.742,-30.0284"/>
<polygon fill="midnightblue" stroke="midnightblue" points="173.801,-26.6602 163.259,-25.6038 170.841,-33.0037 173.801,-26.6602"/>
</g>
<!-- Node8 -->
<g id="node8" class="node"><title>Node8</title>
<polygon fill="none" stroke="#bfbfbf" points="185.5,-6.5 185.5,-25.5 220.5,-25.5 220.5,-6.5 185.5,-6.5"/>
<text text-anchor="middle" x="203" y="-13.5" font-family="Helvetica,sans-Serif" font-size="10.00">map</text>
</g>
<!-- Node6&#45;&gt;Node8 -->
<g id="edge7" class="edge"><title>Node6&#45;&gt;Node8</title>
<path fill="none" stroke="midnightblue" d="M265.541,-68.4035C254.049,-58.9579 235.37,-43.6056 221.413,-32.1342"/>
<polygon fill="midnightblue" stroke="midnightblue" points="223.388,-29.2264 213.44,-25.5806 218.943,-34.6342 223.388,-29.2264"/>
</g>
<!-- Node9 -->
<g id="node9" class="node"><title>Node9</title>
<polygon fill="none" stroke="#bfbfbf" points="238.5,-1 238.5,-31 339.5,-31 339.5,-1 238.5,-1"/>
<text text-anchor="start" x="246.5" y="-19" font-family="Helvetica,sans-Serif" font-size="10.00">boost/property_tree</text>
<text text-anchor="middle" x="289" y="-8" font-family="Helvetica,sans-Serif" font-size="10.00">/ptree.hpp</text>
</g>
<!-- Node6&#45;&gt;Node9 -->
<g id="edge8" class="edge"><title>Node6&#45;&gt;Node9</title>
<path fill="none" stroke="midnightblue" d="M277.863,-68.4035C279.409,-61.2646 281.687,-50.7517 283.78,-41.0903"/>
<polygon fill="midnightblue" stroke="midnightblue" points="287.239,-41.6552 285.936,-31.1408 280.398,-40.1729 287.239,-41.6552"/>
</g>
<!-- Node10 -->
<g id="node10" class="node"><title>Node10</title>
<polygon fill="none" stroke="#bfbfbf" points="357.5,-6.5 357.5,-25.5 408.5,-25.5 408.5,-6.5 357.5,-6.5"/>
<text text-anchor="middle" x="383" y="-13.5" font-family="Helvetica,sans-Serif" font-size="10.00">typeinfo</text>
</g>
<!-- Node6&#45;&gt;Node10 -->
<g id="edge9" class="edge"><title>Node6&#45;&gt;Node10</title>
<path fill="none" stroke="midnightblue" d="M291.33,-68.4035C308.97,-58.5123 338.16,-42.1442 358.858,-30.5378"/>
<polygon fill="midnightblue" stroke="midnightblue" points="360.688,-33.5244 367.698,-25.5806 357.264,-27.4188 360.688,-33.5244"/>
</g>
<!-- Node11&#45;&gt;Node6 -->
<g id="edge11" class="edge"><title>Node11&#45;&gt;Node6</title>
<path fill="none" stroke="midnightblue" d="M379.348,-124.933C356.776,-114.9 326.668,-101.519 304.775,-91.7888"/>
<polygon fill="midnightblue" stroke="midnightblue" points="305.91,-88.4631 295.35,-87.6 303.067,-94.8598 305.91,-88.4631"/>
</g>
<!-- Node11&#45;&gt;Node10 -->
<g id="edge14" class="edge"><title>Node11&#45;&gt;Node10</title>
<path fill="none" stroke="midnightblue" d="M407.678,-124.526C402.578,-102.303 392.823,-59.7982 387.226,-35.4136"/>
<polygon fill="midnightblue" stroke="midnightblue" points="390.627,-34.5865 384.979,-25.6228 383.805,-36.1524 390.627,-34.5865"/>
</g>
<!-- Node12 -->
<g id="node12" class="node"><title>Node12</title>
<polygon fill="none" stroke="#bfbfbf" points="411,-68.5 411,-87.5 467,-87.5 467,-68.5 411,-68.5"/>
<text text-anchor="middle" x="439" y="-75.5" font-family="Helvetica,sans-Serif" font-size="10.00">TClass.h</text>
</g>
<!-- Node11&#45;&gt;Node12 -->
<g id="edge12" class="edge"><title>Node11&#45;&gt;Node12</title>
<path fill="none" stroke="midnightblue" d="M417.636,-124.781C421.537,-116.422 426.504,-105.777 430.667,-96.8565"/>
<polygon fill="midnightblue" stroke="midnightblue" points="433.868,-98.2725 434.926,-87.7305 427.525,-95.3123 433.868,-98.2725"/>
</g>
<!-- Node13 -->
<g id="node13" class="node"><title>Node13</title>
<polygon fill="none" stroke="#bfbfbf" points="485,-68.5 485,-87.5 547,-87.5 547,-68.5 485,-68.5"/>
<text text-anchor="middle" x="516" y="-75.5" font-family="Helvetica,sans-Serif" font-size="10.00">type_traits</text>
</g>
<!-- Node11&#45;&gt;Node13 -->
<g id="edge13" class="edge"><title>Node11&#45;&gt;Node13</title>
<path fill="none" stroke="midnightblue" d="M435.618,-124.933C452.7,-115.171 475.33,-102.24 492.225,-92.5856"/>
<polygon fill="midnightblue" stroke="midnightblue" points="494.004,-95.6003 500.95,-87.6 490.531,-89.5226 494.004,-95.6003"/>
</g>
<!-- Node14 -->
<g id="node14" class="node"><title>Node14</title>
<polygon fill="none" stroke="#bfbfbf" points="565.5,-68.5 565.5,-87.5 612.5,-87.5 612.5,-68.5 565.5,-68.5"/>
<text text-anchor="middle" x="589" y="-75.5" font-family="Helvetica,sans-Serif" font-size="10.00">TFile.h</text>
</g>
<!-- Node11&#45;&gt;Node14 -->
<g id="edge15" class="edge"><title>Node11&#45;&gt;Node14</title>
<path fill="none" stroke="midnightblue" d="M452.733,-124.933C484.078,-114.367 526.441,-100.087 555.568,-90.2692"/>
<polygon fill="midnightblue" stroke="midnightblue" points="556.921,-93.5068 565.279,-86.9959 554.685,-86.8735 556.921,-93.5068"/>
</g>
</g>
</svg>
