<?xml version="1.0" encoding="UTF-8" standalone="no"?>
<!DOCTYPE svg PUBLIC "-//W3C//DTD SVG 1.1//EN"
 "http://www.w3.org/Graphics/SVG/1.1/DTD/svg11.dtd">
<!-- Generated by graphviz version 2.36.0 (20140111.2315)
 -->
<!-- Title: /home/travis/build/AliceO2Group/AliceO2/Framework/DebugGUI/src/imgui.cpp Pages: 1 -->
<!--zoomable 230 -->
<svg id="main" version="1.1" xmlns="http://www.w3.org/2000/svg" xmlns:xlink="http://www.w3.org/1999/xlink" xml:space="preserve" onload="init(evt)">
<style type="text/css"><![CDATA[
.edge:hover path { stroke: red; }
.edge:hover polygon { stroke: red; fill: red; }
]]></style>
<script type="text/javascript"><![CDATA[
var edges = document.getElementsByTagName('g');
if (edges && edges.length) {
  for (var i=0;i<edges.length;i++) {
    if (edges[i].id.substr(0,4)=='edge') {
      edges[i].setAttribute('class','edge');
    }
  }
}
]]></script>
        <defs>
                <circle id="rim" cx="0" cy="0" r="7"/>
                <circle id="rim2" cx="0" cy="0" r="3.5"/>
                <g id="zoomPlus">
                        <use xlink:href="#rim" fill="#404040">
                                <set attributeName="fill" to="#808080" begin="zoomplus.mouseover" end="zoomplus.mouseout"/>
                        </use>
                        <path d="M-4,0h8M0,-4v8" fill="none" stroke="white" stroke-width="1.5" pointer-events="none"/>
                </g>
                <g id="zoomMin">
                        <use xlink:href="#rim" fill="#404040">
                                <set attributeName="fill" to="#808080" begin="zoomminus.mouseover" end="zoomminus.mouseout"/>
                        </use>
                        <path d="M-4,0h8" fill="none" stroke="white" stroke-width="1.5" pointer-events="none"/>
                </g>
                <g id="dirArrow">
                        <path fill="none" stroke="white" stroke-width="1.5" d="M0,-3.0v7 M-2.5,-0.5L0,-3.0L2.5,-0.5"/>
                </g>
               <g id="resetDef">
                       <use xlink:href="#rim2" fill="#404040">
                               <set attributeName="fill" to="#808080" begin="reset.mouseover" end="reset.mouseout"/>
                       </use>
               </g>
        </defs>

<script type="text/javascript">
var viewWidth = 752;
var viewHeight = 230;
var sectionId = 'dynsection-0';
</script>
<script xlink:href="../../svgpan.js"/>
<svg id="graph" class="graph">
<g id="viewport">
<title>/home/travis/build/AliceO2Group/AliceO2/Framework/DebugGUI/src/imgui.cpp</title>
<!-- Node1 -->
<g id="node1" class="node"><title>Node1</title>
<polygon fill="#bfbfbf" stroke="black" points="497,-169 497,-221 631,-221 631,-169 497,-169"/>
<text text-anchor="start" x="505" y="-209" font-family="Helvetica,sans-Serif" font-size="10.00">/home/travis/build</text>
<text text-anchor="start" x="505" y="-198" font-family="Helvetica,sans-Serif" font-size="10.00">/AliceO2Group/AliceO2</text>
<text text-anchor="start" x="505" y="-187" font-family="Helvetica,sans-Serif" font-size="10.00">/Framework/DebugGUI/src</text>
<text text-anchor="middle" x="564" y="-176" font-family="Helvetica,sans-Serif" font-size="10.00">/imgui.cpp</text>
</g>
<!-- Node2 -->
<g id="node2" class="node"><title>Node2</title>
<g id="a_node2"><a xlink:href="../../d4/de4/src_2imgui_8h.html" target="_top" xlink:title="imgui.h">
<polygon fill="none" stroke="black" points="214,-112.5 214,-131.5 262,-131.5 262,-112.5 214,-112.5"/>
<text text-anchor="middle" x="238" y="-119.5" font-family="Helvetica,sans-Serif" font-size="10.00">imgui.h</text>
</a>
</g>
</g>
<!-- Node1&#45;&gt;Node2 -->
<g id="edge1" class="edge"><title>Node1&#45;&gt;Node2</title>
<path fill="none" stroke="midnightblue" d="M496.848,-179.375C428.524,-164.494 325.353,-142.025 272.254,-130.46"/>
<polygon fill="midnightblue" stroke="midnightblue" points="272.842,-127.006 262.327,-128.298 271.353,-133.846 272.842,-127.006"/>
</g>
<!-- Node9 -->
<g id="node9" class="node"><title>Node9</title>
<g id="a_node9"><a xlink:href="../../d1/da2/imgui__internal_8h.html" target="_top" xlink:title="imgui_internal.h">
<polygon fill="none" stroke="black" points="486.5,-112.5 486.5,-131.5 571.5,-131.5 571.5,-112.5 486.5,-112.5"/>
<text text-anchor="middle" x="529" y="-119.5" font-family="Helvetica,sans-Serif" font-size="10.00">imgui_internal.h</text>
</a>
</g>
</g>
<!-- Node1&#45;&gt;Node9 -->
<g id="edge8" class="edge"><title>Node1&#45;&gt;Node9</title>
<path fill="none" stroke="midnightblue" d="M551.562,-168.768C547.036,-159.587 542.016,-149.403 537.862,-140.978"/>
<polygon fill="midnightblue" stroke="midnightblue" points="540.878,-139.179 533.317,-131.757 534.599,-142.274 540.878,-139.179"/>
</g>
<!-- Node10 -->
<g id="node10" class="node"><title>Node10</title>
<polygon fill="none" stroke="#bfbfbf" points="390,-56.5 390,-75.5 436,-75.5 436,-56.5 390,-56.5"/>
<text text-anchor="middle" x="413" y="-63.5" font-family="Helvetica,sans-Serif" font-size="10.00">stdio.h</text>
</g>
<!-- Node1&#45;&gt;Node10 -->
<g id="edge16" class="edge"><title>Node1&#45;&gt;Node10</title>
<path fill="none" stroke="midnightblue" d="M525.669,-168.827C510.106,-158.064 492.241,-144.998 477,-132 459.039,-116.681 440.295,-97.1641 427.77,-83.5315"/>
<polygon fill="midnightblue" stroke="midnightblue" points="430.151,-80.9463 420.838,-75.8939 424.967,-85.6509 430.151,-80.9463"/>
</g>
<!-- Node14 -->
<g id="node14" class="node"><title>Node14</title>
<g id="a_node14"><a xlink:href="../../d4/dfd/stb__textedit_8h.html" target="_top" xlink:title="stb_textedit.h">
<polygon fill="none" stroke="black" points="652,-56.5 652,-75.5 728,-75.5 728,-56.5 652,-56.5"/>
<text text-anchor="middle" x="690" y="-63.5" font-family="Helvetica,sans-Serif" font-size="10.00">stb_textedit.h</text>
</a>
</g>
</g>
<!-- Node1&#45;&gt;Node14 -->
<g id="edge18" class="edge"><title>Node1&#45;&gt;Node14</title>
<path fill="none" stroke="midnightblue" d="M577.635,-168.741C587.788,-151.446 602.822,-128.707 620,-112 632.875,-99.4785 649.752,-88.5066 663.709,-80.532"/>
<polygon fill="midnightblue" stroke="midnightblue" points="665.753,-83.4018 672.819,-75.5077 662.372,-77.2721 665.753,-83.4018"/>
</g>
<!-- Node15 -->
<g id="node15" class="node"><title>Node15</title>
<polygon fill="none" stroke="#bfbfbf" points="628.5,-112.5 628.5,-131.5 677.5,-131.5 677.5,-112.5 628.5,-112.5"/>
<text text-anchor="middle" x="653" y="-119.5" font-family="Helvetica,sans-Serif" font-size="10.00">ctype.h</text>
</g>
<!-- Node1&#45;&gt;Node15 -->
<g id="edge15" class="edge"><title>Node1&#45;&gt;Node15</title>
<path fill="none" stroke="midnightblue" d="M595.378,-168.968C608.299,-158.66 622.842,-147.059 634.084,-138.09"/>
<polygon fill="midnightblue" stroke="midnightblue" points="636.322,-140.782 641.957,-131.81 631.957,-135.31 636.322,-140.782"/>
</g>
<!-- Node16 -->
<g id="node16" class="node"><title>Node16</title>
<polygon fill="none" stroke="#bfbfbf" points="695.5,-112.5 695.5,-131.5 744.5,-131.5 744.5,-112.5 695.5,-112.5"/>
<text text-anchor="middle" x="720" y="-119.5" font-family="Helvetica,sans-Serif" font-size="10.00">stdint.h</text>
</g>
<!-- Node1&#45;&gt;Node16 -->
<g id="edge17" class="edge"><title>Node1&#45;&gt;Node16</title>
<path fill="none" stroke="midnightblue" d="M619,-168.968C643.575,-157.783 671.497,-145.075 691.744,-135.86"/>
<polygon fill="midnightblue" stroke="midnightblue" points="693.367,-138.967 701.019,-131.639 690.467,-132.596 693.367,-138.967"/>
</g>
<!-- Node3 -->
<g id="node3" class="node"><title>Node3</title>
<g id="a_node3"><a xlink:href="../../d7/d2a/src_2imconfig_8h.html" target="_top" xlink:title="imconfig.h">
<polygon fill="none" stroke="black" points="0,-56.5 0,-75.5 62,-75.5 62,-56.5 0,-56.5"/>
<text text-anchor="middle" x="31" y="-63.5" font-family="Helvetica,sans-Serif" font-size="10.00">imconfig.h</text>
</a>
</g>
</g>
<!-- Node2&#45;&gt;Node3 -->
<g id="edge2" class="edge"><title>Node2&#45;&gt;Node3</title>
<path fill="none" stroke="midnightblue" d="M213.849,-114.7C178.996,-105.608 114.142,-88.6892 71.7839,-77.6393"/>
<polygon fill="midnightblue" stroke="midnightblue" points="72.617,-74.2395 62.0573,-75.1019 70.85,-81.0129 72.617,-74.2395"/>
</g>
<!-- Node4 -->
<g id="node4" class="node"><title>Node4</title>
<polygon fill="none" stroke="#bfbfbf" points="80,-56.5 80,-75.5 124,-75.5 124,-56.5 80,-56.5"/>
<text text-anchor="middle" x="102" y="-63.5" font-family="Helvetica,sans-Serif" font-size="10.00">float.h</text>
</g>
<!-- Node2&#45;&gt;Node4 -->
<g id="edge3" class="edge"><title>Node2&#45;&gt;Node4</title>
<path fill="none" stroke="midnightblue" d="M216.45,-112.444C193.969,-103.517 158.512,-89.4387 133.02,-79.3168"/>
<polygon fill="midnightblue" stroke="midnightblue" points="134.035,-75.9539 123.449,-75.5164 131.451,-82.4598 134.035,-75.9539"/>
</g>
<!-- Node5 -->
<g id="node5" class="node"><title>Node5</title>
<polygon fill="none" stroke="#bfbfbf" points="142,-56.5 142,-75.5 194,-75.5 194,-56.5 142,-56.5"/>
<text text-anchor="middle" x="168" y="-63.5" font-family="Helvetica,sans-Serif" font-size="10.00">stdarg.h</text>
</g>
<!-- Node2&#45;&gt;Node5 -->
<g id="edge4" class="edge"><title>Node2&#45;&gt;Node5</title>
<path fill="none" stroke="midnightblue" d="M226.753,-112.324C216.203,-104.185 200.199,-91.8395 187.558,-82.0874"/>
<polygon fill="midnightblue" stroke="midnightblue" points="189.507,-79.1707 179.451,-75.8339 185.231,-84.7132 189.507,-79.1707"/>
</g>
<!-- Node6 -->
<g id="node6" class="node"><title>Node6</title>
<polygon fill="none" stroke="#bfbfbf" points="212,-56.5 212,-75.5 264,-75.5 264,-56.5 212,-56.5"/>
<text text-anchor="middle" x="238" y="-63.5" font-family="Helvetica,sans-Serif" font-size="10.00">stddef.h</text>
</g>
<!-- Node2&#45;&gt;Node6 -->
<g id="edge5" class="edge"><title>Node2&#45;&gt;Node6</title>
<path fill="none" stroke="midnightblue" d="M238,-112.083C238,-105.006 238,-94.8611 238,-85.9865"/>
<polygon fill="midnightblue" stroke="midnightblue" points="241.5,-85.751 238,-75.7511 234.5,-85.7511 241.5,-85.751"/>
</g>
<!-- Node7 -->
<g id="node7" class="node"><title>Node7</title>
<polygon fill="none" stroke="#bfbfbf" points="466.5,-0.5 466.5,-19.5 515.5,-19.5 515.5,-0.5 466.5,-0.5"/>
<text text-anchor="middle" x="491" y="-7.5" font-family="Helvetica,sans-Serif" font-size="10.00">string.h</text>
</g>
<!-- Node2&#45;&gt;Node7 -->
<g id="edge6" class="edge"><title>Node2&#45;&gt;Node7</title>
<path fill="none" stroke="midnightblue" d="M245.13,-112.386C257.203,-98.3792 283.095,-70.7496 311,-56 357.856,-31.2338 418.835,-19.7142 456.428,-14.6441"/>
<polygon fill="midnightblue" stroke="midnightblue" points="456.901,-18.1122 466.38,-13.3794 456.019,-11.168 456.901,-18.1122"/>
</g>
<!-- Node8 -->
<g id="node8" class="node"><title>Node8</title>
<polygon fill="none" stroke="#bfbfbf" points="320,-56.5 320,-75.5 372,-75.5 372,-56.5 320,-56.5"/>
<text text-anchor="middle" x="346" y="-63.5" font-family="Helvetica,sans-Serif" font-size="10.00">assert.h</text>
</g>
<!-- Node2&#45;&gt;Node8 -->
<g id="edge7" class="edge"><title>Node2&#45;&gt;Node8</title>
<path fill="none" stroke="midnightblue" d="M255.352,-112.324C272.672,-103.664 299.515,-90.2424 319.502,-80.249"/>
<polygon fill="midnightblue" stroke="midnightblue" points="321.312,-83.2572 328.691,-75.6545 318.181,-76.9962 321.312,-83.2572"/>
</g>
<!-- Node9&#45;&gt;Node10 -->
<g id="edge9" class="edge"><title>Node9&#45;&gt;Node10</title>
<path fill="none" stroke="midnightblue" d="M510.619,-112.444C491.784,-103.675 462.269,-89.9355 440.621,-79.8579"/>
<polygon fill="midnightblue" stroke="midnightblue" points="441.838,-76.5637 431.295,-75.5164 438.883,-82.9098 441.838,-76.5637"/>
</g>
<!-- Node11 -->
<g id="node11" class="node"><title>Node11</title>
<polygon fill="none" stroke="#bfbfbf" points="454,-56.5 454,-75.5 502,-75.5 502,-56.5 454,-56.5"/>
<text text-anchor="middle" x="478" y="-63.5" font-family="Helvetica,sans-Serif" font-size="10.00">stdlib.h</text>
</g>
<!-- Node9&#45;&gt;Node11 -->
<g id="edge10" class="edge"><title>Node9&#45;&gt;Node11</title>
<path fill="none" stroke="midnightblue" d="M520.578,-112.083C513.152,-104.22 502.148,-92.5688 493.188,-83.0813"/>
<polygon fill="midnightblue" stroke="midnightblue" points="495.676,-80.618 486.265,-75.7511 490.587,-85.4244 495.676,-80.618"/>
</g>
<!-- Node12 -->
<g id="node12" class="node"><title>Node12</title>
<polygon fill="none" stroke="#bfbfbf" points="520.5,-56.5 520.5,-75.5 567.5,-75.5 567.5,-56.5 520.5,-56.5"/>
<text text-anchor="middle" x="544" y="-63.5" font-family="Helvetica,sans-Serif" font-size="10.00">math.h</text>
</g>
<!-- Node9&#45;&gt;Node12 -->
<g id="edge11" class="edge"><title>Node9&#45;&gt;Node12</title>
<path fill="none" stroke="midnightblue" d="M531.477,-112.083C533.486,-104.849 536.386,-94.4087 538.89,-85.3968"/>
<polygon fill="midnightblue" stroke="midnightblue" points="542.265,-86.323 541.569,-75.7511 535.52,-84.4495 542.265,-86.323"/>
</g>
<!-- Node13 -->
<g id="node13" class="node"><title>Node13</title>
<polygon fill="none" stroke="#bfbfbf" points="586,-56.5 586,-75.5 634,-75.5 634,-56.5 586,-56.5"/>
<text text-anchor="middle" x="610" y="-63.5" font-family="Helvetica,sans-Serif" font-size="10.00">limits.h</text>
</g>
<!-- Node9&#45;&gt;Node13 -->
<g id="edge12" class="edge"><title>Node9&#45;&gt;Node13</title>
<path fill="none" stroke="midnightblue" d="M542.014,-112.324C554.532,-103.979 573.682,-91.2122 588.471,-81.3524"/>
<polygon fill="midnightblue" stroke="midnightblue" points="590.639,-84.1137 597.018,-75.6545 586.756,-78.2894 590.639,-84.1137"/>
</g>
<!-- Node9&#45;&gt;Node14 -->
<g id="edge13" class="edge"><title>Node9&#45;&gt;Node14</title>
<path fill="none" stroke="midnightblue" d="M554.511,-112.444C581.596,-103.359 624.59,-88.9388 654.869,-78.7831"/>
<polygon fill="midnightblue" stroke="midnightblue" points="656.24,-82.0148 664.608,-75.5164 654.014,-75.3781 656.24,-82.0148"/>
</g>
<!-- Node14&#45;&gt;Node7 -->
<g id="edge14" class="edge"><title>Node14&#45;&gt;Node7</title>
<path fill="none" stroke="midnightblue" d="M658.468,-56.4435C622.304,-46.6303 563.195,-30.5905 525.737,-20.4261"/>
<polygon fill="midnightblue" stroke="midnightblue" points="526.351,-16.9662 515.783,-17.7251 524.517,-23.7218 526.351,-16.9662"/>
</g>
</g>
</svg>
        <g id="navigator" transform="translate(0 0)" fill="#404254">
                <rect fill="#f2f5e9" fill-opacity="0.5" stroke="#606060" stroke-width=".5" x="0" y="0" width="60" height="60"/>
                <use id="zoomplus" xlink:href="#zoomPlus" x="17" y="9" onmousedown="handleZoom(evt,'in')"/>
                <use id="zoomminus" xlink:href="#zoomMin" x="42" y="9" onmousedown="handleZoom(evt,'out')"/>
                <use id="reset" xlink:href="#resetDef" x="30" y="36" onmousedown="handleReset()"/>
                <g id="arrowUp" xlink:href="#dirArrow" transform="translate(30 24)" onmousedown="handlePan(0,-1)">
                  <use xlink:href="#rim" fill="#404040">
                        <set attributeName="fill" to="#808080" begin="arrowUp.mouseover" end="arrowUp.mouseout"/>
                  </use>
                  <path fill="none" stroke="white" stroke-width="1.5" d="M0,-3.0v7 M-2.5,-0.5L0,-3.0L2.5,-0.5"/>
                </g>
                <g id="arrowRight" xlink:href="#dirArrow" transform="rotate(90) translate(36 -43)" onmousedown="handlePan(1,0)">
                  <use xlink:href="#rim" fill="#404040">
                        <set attributeName="fill" to="#808080" begin="arrowRight.mouseover" end="arrowRight.mouseout"/>
                  </use>
                  <path fill="none" stroke="white" stroke-width="1.5" d="M0,-3.0v7 M-2.5,-0.5L0,-3.0L2.5,-0.5"/>
                </g>
                <g id="arrowDown" xlink:href="#dirArrow" transform="rotate(180) translate(-30 -48)" onmousedown="handlePan(0,1)">
                  <use xlink:href="#rim" fill="#404040">
                        <set attributeName="fill" to="#808080" begin="arrowDown.mouseover" end="arrowDown.mouseout"/>
                  </use>
                  <path fill="none" stroke="white" stroke-width="1.5" d="M0,-3.0v7 M-2.5,-0.5L0,-3.0L2.5,-0.5"/>
                </g>
                <g id="arrowLeft" xlink:href="#dirArrow" transform="rotate(270) translate(-36 17)" onmousedown="handlePan(-1,0)">
                  <use xlink:href="#rim" fill="#404040">
                        <set attributeName="fill" to="#808080" begin="arrowLeft.mouseover" end="arrowLeft.mouseout"/>
                  </use>
                  <path fill="none" stroke="white" stroke-width="1.5" d="M0,-3.0v7 M-2.5,-0.5L0,-3.0L2.5,-0.5"/>
                </g>
        </g>
        <svg viewBox="0 0 15 15" width="100%" height="30px" preserveAspectRatio="xMaxYMin meet">
         <g id="arrow_out" transform="scale(0.3 0.3)">
          <a xlink:href="imgui_8cpp__incl_org.svg" target="_base">
           <rect id="button" ry="5" rx="5" y="6" x="6" height="38" width="38"
                fill="#f2f5e9" fill-opacity="0.5" stroke="#606060" stroke-width="1.0"/>
           <path id="arrow"
             d="M 11.500037,31.436501 C 11.940474,20.09759 22.043105,11.32322 32.158766,21.979434 L 37.068811,17.246167 C 37.068811,17.246167 37.088388,32 37.088388,32 L 22.160133,31.978069 C 22.160133,31.978069 26.997745,27.140456 26.997745,27.140456 C 18.528582,18.264221 13.291696,25.230495 11.500037,31.436501 z"
             style="fill:#404040;"/>
          </a>
         </g>
        </svg>
</svg>
