<?xml version="1.0" encoding="UTF-8" standalone="no"?>
<!DOCTYPE svg PUBLIC "-//W3C//DTD SVG 1.1//EN"
 "http://www.w3.org/Graphics/SVG/1.1/DTD/svg11.dtd">
<!-- Generated by graphviz version 2.36.0 (20140111.2315)
 -->
<!-- Title: /home/travis/build/AliceO2Group/AliceO2/Common/Utils/src/ShmManager.cxx Pages: 1 -->
<!--zoomable 174 -->
<svg id="main" version="1.1" xmlns="http://www.w3.org/2000/svg" xmlns:xlink="http://www.w3.org/1999/xlink" xml:space="preserve" onload="init(evt)">
<style type="text/css"><![CDATA[
.edge:hover path { stroke: red; }
.edge:hover polygon { stroke: red; fill: red; }
]]></style>
<script type="text/javascript"><![CDATA[
var edges = document.getElementsByTagName('g');
if (edges && edges.length) {
  for (var i=0;i<edges.length;i++) {
    if (edges[i].id.substr(0,4)=='edge') {
      edges[i].setAttribute('class','edge');
    }
  }
}
]]></script>
        <defs>
                <circle id="rim" cx="0" cy="0" r="7"/>
                <circle id="rim2" cx="0" cy="0" r="3.5"/>
                <g id="zoomPlus">
                        <use xlink:href="#rim" fill="#404040">
                                <set attributeName="fill" to="#808080" begin="zoomplus.mouseover" end="zoomplus.mouseout"/>
                        </use>
                        <path d="M-4,0h8M0,-4v8" fill="none" stroke="white" stroke-width="1.5" pointer-events="none"/>
                </g>
                <g id="zoomMin">
                        <use xlink:href="#rim" fill="#404040">
                                <set attributeName="fill" to="#808080" begin="zoomminus.mouseover" end="zoomminus.mouseout"/>
                        </use>
                        <path d="M-4,0h8" fill="none" stroke="white" stroke-width="1.5" pointer-events="none"/>
                </g>
                <g id="dirArrow">
                        <path fill="none" stroke="white" stroke-width="1.5" d="M0,-3.0v7 M-2.5,-0.5L0,-3.0L2.5,-0.5"/>
                </g>
               <g id="resetDef">
                       <use xlink:href="#rim2" fill="#404040">
                               <set attributeName="fill" to="#808080" begin="reset.mouseover" end="reset.mouseout"/>
                       </use>
               </g>
        </defs>

<script type="text/javascript">
var viewWidth = 837;
var viewHeight = 174;
var sectionId = 'dynsection-0';
</script>
<script xlink:href="../../svgpan.js"/>
<svg id="graph" class="graph">
<g id="viewport">
<title>/home/travis/build/AliceO2Group/AliceO2/Common/Utils/src/ShmManager.cxx</title>
<!-- Node1 -->
<g id="node1" class="node"><title>Node1</title>
<polygon fill="#bfbfbf" stroke="black" points="398.5,-124.5 398.5,-165.5 577.5,-165.5 577.5,-124.5 398.5,-124.5"/>
<text text-anchor="start" x="406.5" y="-153.5" font-family="Helvetica,sans-Serif" font-size="10.00">/home/travis/build</text>
<text text-anchor="start" x="406.5" y="-142.5" font-family="Helvetica,sans-Serif" font-size="10.00">/AliceO2Group/AliceO2</text>
<text text-anchor="middle" x="488" y="-131.5" font-family="Helvetica,sans-Serif" font-size="10.00">/Common/Utils/src/ShmManager.cxx</text>
</g>
<!-- Node2 -->
<g id="node2" class="node"><title>Node2</title>
<g id="a_node2"><a xlink:href="../../de/d61/ShmManager_8h.html" target="_top" xlink:title="CommonUtils/ShmManager.h">
<polygon fill="none" stroke="black" points="64,-68.5 64,-87.5 210,-87.5 210,-68.5 64,-68.5"/>
<text text-anchor="middle" x="137" y="-75.5" font-family="Helvetica,sans-Serif" font-size="10.00">CommonUtils/ShmManager.h</text>
</a>
</g>
</g>
<!-- Node1&#45;&gt;Node2 -->
<g id="edge1" class="edge"><title>Node1&#45;&gt;Node2</title>
<path fill="none" stroke="midnightblue" d="M398.065,-127.345C333.433,-115.377 248.304,-99.6119 193.118,-89.3922"/>
<polygon fill="midnightblue" stroke="midnightblue" points="193.643,-85.9301 183.173,-87.5506 192.369,-92.8131 193.643,-85.9301"/>
</g>
<!-- Node5 -->
<g id="node5" class="node"><title>Node5</title>
<polygon fill="none" stroke="#bfbfbf" points="114,-1 114,-31 262,-31 262,-1 114,-1"/>
<text text-anchor="start" x="122" y="-19" font-family="Helvetica,sans-Serif" font-size="10.00">boost/interprocess</text>
<text text-anchor="middle" x="188" y="-8" font-family="Helvetica,sans-Serif" font-size="10.00">/managed_external_buffer.hpp</text>
</g>
<!-- Node1&#45;&gt;Node5 -->
<g id="edge10" class="edge"><title>Node1&#45;&gt;Node5</title>
<path fill="none" stroke="midnightblue" d="M398.262,-126.134C362.611,-117.226 321.872,-104.713 287,-88 259.254,-74.7017 231.073,-53.5903 211.911,-37.8396"/>
<polygon fill="midnightblue" stroke="midnightblue" points="213.943,-34.9758 204.028,-31.242 209.45,-40.344 213.943,-34.9758"/>
</g>
<!-- Node6 -->
<g id="node6" class="node"><title>Node6</title>
<polygon fill="none" stroke="#bfbfbf" points="280,-1 280,-31 400,-31 400,-1 280,-1"/>
<text text-anchor="start" x="288" y="-19" font-family="Helvetica,sans-Serif" font-size="10.00">boost/interprocess</text>
<text text-anchor="middle" x="340" y="-8" font-family="Helvetica,sans-Serif" font-size="10.00">/allocators/allocator.hpp</text>
</g>
<!-- Node1&#45;&gt;Node6 -->
<g id="edge11" class="edge"><title>Node1&#45;&gt;Node6</title>
<path fill="none" stroke="midnightblue" d="M398.329,-128.54C354.734,-119.009 308.969,-105.292 296,-88 283.887,-71.849 297.961,-52.2668 313.323,-37.7618"/>
<polygon fill="midnightblue" stroke="midnightblue" points="315.694,-40.3373 320.858,-31.0864 311.052,-35.0976 315.694,-40.3373"/>
</g>
<!-- Node7 -->
<g id="node7" class="node"><title>Node7</title>
<polygon fill="none" stroke="#bfbfbf" points="304.5,-68.5 304.5,-87.5 401.5,-87.5 401.5,-68.5 304.5,-68.5"/>
<text text-anchor="middle" x="353" y="-75.5" font-family="Helvetica,sans-Serif" font-size="10.00">fairlogger/Logger.h</text>
</g>
<!-- Node1&#45;&gt;Node7 -->
<g id="edge6" class="edge"><title>Node1&#45;&gt;Node7</title>
<path fill="none" stroke="midnightblue" d="M447.496,-124.498C425.703,-114.005 399.416,-101.348 380.105,-92.0507"/>
<polygon fill="midnightblue" stroke="midnightblue" points="381.499,-88.8372 370.971,-87.6525 378.462,-95.1442 381.499,-88.8372"/>
</g>
<!-- Node8 -->
<g id="node8" class="node"><title>Node8</title>
<polygon fill="none" stroke="#bfbfbf" points="419,-68.5 419,-87.5 481,-87.5 481,-68.5 419,-68.5"/>
<text text-anchor="middle" x="450" y="-75.5" font-family="Helvetica,sans-Serif" font-size="10.00">sys/shm.h</text>
</g>
<!-- Node1&#45;&gt;Node8 -->
<g id="edge7" class="edge"><title>Node1&#45;&gt;Node8</title>
<path fill="none" stroke="midnightblue" d="M476.599,-124.498C471.389,-115.586 465.266,-105.113 460.209,-96.4636"/>
<polygon fill="midnightblue" stroke="midnightblue" points="463.127,-94.519 455.058,-87.6525 457.084,-98.0519 463.127,-94.519"/>
</g>
<!-- Node9 -->
<g id="node9" class="node"><title>Node9</title>
<polygon fill="none" stroke="#bfbfbf" points="499,-68.5 499,-87.5 555,-87.5 555,-68.5 499,-68.5"/>
<text text-anchor="middle" x="527" y="-75.5" font-family="Helvetica,sans-Serif" font-size="10.00">sys/ipc.h</text>
</g>
<!-- Node1&#45;&gt;Node9 -->
<g id="edge8" class="edge"><title>Node1&#45;&gt;Node9</title>
<path fill="none" stroke="midnightblue" d="M499.701,-124.498C505.048,-115.586 511.332,-105.113 516.522,-96.4636"/>
<polygon fill="midnightblue" stroke="midnightblue" points="519.665,-98.0282 521.809,-87.6525 513.662,-94.4267 519.665,-98.0282"/>
</g>
<!-- Node10 -->
<g id="node10" class="node"><title>Node10</title>
<polygon fill="none" stroke="#bfbfbf" points="573,-68.5 573,-87.5 629,-87.5 629,-68.5 573,-68.5"/>
<text text-anchor="middle" x="601" y="-75.5" font-family="Helvetica,sans-Serif" font-size="10.00">algorithm</text>
</g>
<!-- Node1&#45;&gt;Node10 -->
<g id="edge9" class="edge"><title>Node1&#45;&gt;Node10</title>
<path fill="none" stroke="midnightblue" d="M521.904,-124.498C539.729,-114.245 561.146,-101.925 577.196,-92.6927"/>
<polygon fill="midnightblue" stroke="midnightblue" points="579.035,-95.6726 585.958,-87.6525 575.545,-89.6048 579.035,-95.6726"/>
</g>
<!-- Node11 -->
<g id="node11" class="node"><title>Node11</title>
<polygon fill="none" stroke="#bfbfbf" points="647,-68.5 647,-87.5 699,-87.5 699,-68.5 647,-68.5"/>
<text text-anchor="middle" x="673" y="-75.5" font-family="Helvetica,sans-Serif" font-size="10.00">sstream</text>
</g>
<!-- Node1&#45;&gt;Node11 -->
<g id="edge12" class="edge"><title>Node1&#45;&gt;Node11</title>
<path fill="none" stroke="midnightblue" d="M543.506,-124.498C574.461,-113.622 612.034,-100.421 638.717,-91.0455"/>
<polygon fill="midnightblue" stroke="midnightblue" points="640.099,-94.2695 648.374,-87.6525 637.779,-87.6653 640.099,-94.2695"/>
</g>
<!-- Node12 -->
<g id="node12" class="node"><title>Node12</title>
<polygon fill="none" stroke="#bfbfbf" points="717.5,-68.5 717.5,-87.5 762.5,-87.5 762.5,-68.5 717.5,-68.5"/>
<text text-anchor="middle" x="740" y="-75.5" font-family="Helvetica,sans-Serif" font-size="10.00">cstdlib</text>
</g>
<!-- Node1&#45;&gt;Node12 -->
<g id="edge13" class="edge"><title>Node1&#45;&gt;Node12</title>
<path fill="none" stroke="midnightblue" d="M566.781,-124.452C606.311,-114.524 655.153,-102.076 707.483,-88.0906"/>
<polygon fill="midnightblue" stroke="midnightblue" points="708.54,-91.4308 717.294,-85.4615 706.728,-84.6694 708.54,-91.4308"/>
</g>
<!-- Node13 -->
<g id="node13" class="node"><title>Node13</title>
<polygon fill="none" stroke="#bfbfbf" points="780.5,-68.5 780.5,-87.5 829.5,-87.5 829.5,-68.5 780.5,-68.5"/>
<text text-anchor="middle" x="805" y="-75.5" font-family="Helvetica,sans-Serif" font-size="10.00">cassert</text>
</g>
<!-- Node1&#45;&gt;Node13 -->
<g id="edge14" class="edge"><title>Node1&#45;&gt;Node13</title>
<path fill="none" stroke="midnightblue" d="M577.531,-127.788C630.849,-117.777 700.041,-104.171 770.251,-88.059"/>
<polygon fill="midnightblue" stroke="midnightblue" points="771.207,-91.4303 780.163,-85.769 769.632,-84.6099 771.207,-91.4303"/>
</g>
<!-- Node3 -->
<g id="node3" class="node"><title>Node3</title>
<polygon fill="none" stroke="#bfbfbf" points="-0.5,-6.5 -0.5,-25.5 28.5,-25.5 28.5,-6.5 -0.5,-6.5"/>
<text text-anchor="middle" x="14" y="-13.5" font-family="Helvetica,sans-Serif" font-size="10.00">list</text>
</g>
<!-- Node2&#45;&gt;Node3 -->
<g id="edge2" class="edge"><title>Node2&#45;&gt;Node3</title>
<path fill="none" stroke="midnightblue" d="M115.467,-68.4492C94.8949,-60.016 63.2252,-46.3397 37,-32 36.3412,-31.6398 35.6764,-31.2671 35.0089,-30.8849"/>
<polygon fill="midnightblue" stroke="midnightblue" points="36.7894,-27.871 26.438,-25.6131 33.1221,-33.8335 36.7894,-27.871"/>
</g>
<!-- Node4 -->
<g id="node4" class="node"><title>Node4</title>
<polygon fill="none" stroke="#bfbfbf" points="46.5,-6.5 46.5,-25.5 95.5,-25.5 95.5,-6.5 46.5,-6.5"/>
<text text-anchor="middle" x="71" y="-13.5" font-family="Helvetica,sans-Serif" font-size="10.00">cstddef</text>
</g>
<!-- Node2&#45;&gt;Node4 -->
<g id="edge3" class="edge"><title>Node2&#45;&gt;Node4</title>
<path fill="none" stroke="midnightblue" d="M127.544,-68.4035C117.252,-59.047 100.584,-43.8948 88.0059,-32.4599"/>
<polygon fill="midnightblue" stroke="midnightblue" points="90.1924,-29.7176 80.4386,-25.5806 85.4837,-34.8971 90.1924,-29.7176"/>
</g>
<!-- Node2&#45;&gt;Node5 -->
<g id="edge4" class="edge"><title>Node2&#45;&gt;Node5</title>
<path fill="none" stroke="midnightblue" d="M144.307,-68.4035C150.827,-60.733 160.658,-49.1673 169.344,-38.9478"/>
<polygon fill="midnightblue" stroke="midnightblue" points="172.171,-41.027 175.98,-31.1408 166.837,-36.4934 172.171,-41.027"/>
</g>
<!-- Node2&#45;&gt;Node6 -->
<g id="edge5" class="edge"><title>Node2&#45;&gt;Node6</title>
<path fill="none" stroke="midnightblue" d="M166.085,-68.4035C196.377,-59.4501 244.625,-45.1897 282.626,-33.9579"/>
<polygon fill="midnightblue" stroke="midnightblue" points="283.95,-37.2163 292.548,-31.0253 281.966,-30.5034 283.95,-37.2163"/>
</g>
</g>
</svg>
        <g id="navigator" transform="translate(0 0)" fill="#404254">
                <rect fill="#f2f5e9" fill-opacity="0.5" stroke="#606060" stroke-width=".5" x="0" y="0" width="60" height="60"/>
                <use id="zoomplus" xlink:href="#zoomPlus" x="17" y="9" onmousedown="handleZoom(evt,'in')"/>
                <use id="zoomminus" xlink:href="#zoomMin" x="42" y="9" onmousedown="handleZoom(evt,'out')"/>
                <use id="reset" xlink:href="#resetDef" x="30" y="36" onmousedown="handleReset()"/>
                <g id="arrowUp" xlink:href="#dirArrow" transform="translate(30 24)" onmousedown="handlePan(0,-1)">
                  <use xlink:href="#rim" fill="#404040">
                        <set attributeName="fill" to="#808080" begin="arrowUp.mouseover" end="arrowUp.mouseout"/>
                  </use>
                  <path fill="none" stroke="white" stroke-width="1.5" d="M0,-3.0v7 M-2.5,-0.5L0,-3.0L2.5,-0.5"/>
                </g>
                <g id="arrowRight" xlink:href="#dirArrow" transform="rotate(90) translate(36 -43)" onmousedown="handlePan(1,0)">
                  <use xlink:href="#rim" fill="#404040">
                        <set attributeName="fill" to="#808080" begin="arrowRight.mouseover" end="arrowRight.mouseout"/>
                  </use>
                  <path fill="none" stroke="white" stroke-width="1.5" d="M0,-3.0v7 M-2.5,-0.5L0,-3.0L2.5,-0.5"/>
                </g>
                <g id="arrowDown" xlink:href="#dirArrow" transform="rotate(180) translate(-30 -48)" onmousedown="handlePan(0,1)">
                  <use xlink:href="#rim" fill="#404040">
                        <set attributeName="fill" to="#808080" begin="arrowDown.mouseover" end="arrowDown.mouseout"/>
                  </use>
                  <path fill="none" stroke="white" stroke-width="1.5" d="M0,-3.0v7 M-2.5,-0.5L0,-3.0L2.5,-0.5"/>
                </g>
                <g id="arrowLeft" xlink:href="#dirArrow" transform="rotate(270) translate(-36 17)" onmousedown="handlePan(-1,0)">
                  <use xlink:href="#rim" fill="#404040">
                        <set attributeName="fill" to="#808080" begin="arrowLeft.mouseover" end="arrowLeft.mouseout"/>
                  </use>
                  <path fill="none" stroke="white" stroke-width="1.5" d="M0,-3.0v7 M-2.5,-0.5L0,-3.0L2.5,-0.5"/>
                </g>
        </g>
        <svg viewBox="0 0 15 15" width="100%" height="30px" preserveAspectRatio="xMaxYMin meet">
         <g id="arrow_out" transform="scale(0.3 0.3)">
          <a xlink:href="ShmManager_8cxx__incl_org.svg" target="_base">
           <rect id="button" ry="5" rx="5" y="6" x="6" height="38" width="38"
                fill="#f2f5e9" fill-opacity="0.5" stroke="#606060" stroke-width="1.0"/>
           <path id="arrow"
             d="M 11.500037,31.436501 C 11.940474,20.09759 22.043105,11.32322 32.158766,21.979434 L 37.068811,17.246167 C 37.068811,17.246167 37.088388,32 37.088388,32 L 22.160133,31.978069 C 22.160133,31.978069 26.997745,27.140456 26.997745,27.140456 C 18.528582,18.264221 13.291696,25.230495 11.500037,31.436501 z"
             style="fill:#404040;"/>
          </a>
         </g>
        </svg>
</svg>
