<?xml version="1.0" encoding="UTF-8" standalone="no"?>
<!DOCTYPE svg PUBLIC "-//W3C//DTD SVG 1.1//EN"
 "http://www.w3.org/Graphics/SVG/1.1/DTD/svg11.dtd">
<!-- Generated by graphviz version 2.36.0 (20140111.2315)
 -->
<!-- Title: o2::TPC::TPCHitGroupID Pages: 1 -->
<svg width="136pt" height="228pt"
 viewBox="0.00 0.00 136.00 228.00" xmlns="http://www.w3.org/2000/svg" xmlns:xlink="http://www.w3.org/1999/xlink">
<g id="graph0" class="graph" transform="scale(1 1) rotate(0) translate(4 224)">
<title>o2::TPC::TPCHitGroupID</title>
<!-- Node1 -->
<g id="node1" class="node"><title>Node1</title>
<polygon fill="#bfbfbf" stroke="black" points="-0.5,-1 -0.5,-69 128.5,-69 128.5,-1 -0.5,-1"/>
<text text-anchor="middle" x="64" y="-57" font-family="Helvetica,sans-Serif" font-size="10.00">o2::TPC::TPCHitGroupID</text>
<polyline fill="none" stroke="black" points="-0.5,-50 128.5,-50 "/>
<text text-anchor="middle" x="64" y="-38" font-family="Helvetica,sans-Serif" font-size="10.00"> </text>
<polyline fill="none" stroke="black" points="-0.5,-31 128.5,-31 "/>
<text text-anchor="start" x="7.5" y="-19" font-family="Helvetica,sans-Serif" font-size="10.00">+ TPCHitGroupID()</text>
<text text-anchor="start" x="7.5" y="-8" font-family="Helvetica,sans-Serif" font-size="10.00">+ TPCHitGroupID()</text>
</g>
<!-- Node2 -->
<g id="node2" class="node"><title>Node2</title>
<g id="a_node2"><a xlink:href="../../d1/da0/classint.html" target="_top" xlink:title="{int\n||}">
<polygon fill="none" stroke="black" points="49.5,-162.5 49.5,-219.5 78.5,-219.5 78.5,-162.5 49.5,-162.5"/>
<text text-anchor="middle" x="64" y="-207.5" font-family="Helvetica,sans-Serif" font-size="10.00">int</text>
<polyline fill="none" stroke="black" points="49.5,-200.5 78.5,-200.5 "/>
<text text-anchor="middle" x="64" y="-188.5" font-family="Helvetica,sans-Serif" font-size="10.00"> </text>
<polyline fill="none" stroke="black" points="49.5,-181.5 78.5,-181.5 "/>
<text text-anchor="middle" x="64" y="-169.5" font-family="Helvetica,sans-Serif" font-size="10.00"> </text>
</a>
</g>
</g>
<!-- Node2&#45;&gt;Node1 -->
<g id="edge1" class="edge"><title>Node2&#45;&gt;Node1</title>
<path fill="none" stroke="#404040" d="M64,-162.468C64,-139.912 64,-107.536 64,-81.1889"/>
<polygon fill="none" stroke="#404040" points="64.0001,-81.1876 60,-75.1877 64,-69.1876 68,-75.1876 64.0001,-81.1876"/>
<text text-anchor="middle" x="90" y="-135.5" font-family="Helvetica,sans-Serif" font-size="10.00"> +sourceID</text>
<text text-anchor="middle" x="90" y="-124.5" font-family="Helvetica,sans-Serif" font-size="10.00">+entry</text>
<text text-anchor="middle" x="90" y="-113.5" font-family="Helvetica,sans-Serif" font-size="10.00">+collision</text>
<text text-anchor="middle" x="90" y="-102.5" font-family="Helvetica,sans-Serif" font-size="10.00">+groupID</text>
<text text-anchor="middle" x="90" y="-91.5" font-family="Helvetica,sans-Serif" font-size="10.00">+storeindex</text>
</g>
</g>
</svg>
