<?xml version="1.0" encoding="UTF-8" standalone="no"?>
<!DOCTYPE svg PUBLIC "-//W3C//DTD SVG 1.1//EN"
 "http://www.w3.org/Graphics/SVG/1.1/DTD/svg11.dtd">
<!-- Generated by graphviz version 2.36.0 (20140111.2315)
 -->
<!-- Title: /home/travis/build/AliceO2Group/AliceO2/Detectors/MUON/MCH/Contour/test/BBox.cxx Pages: 1 -->
<svg width="495pt" height="242pt"
 viewBox="0.00 0.00 495.00 242.00" xmlns="http://www.w3.org/2000/svg" xmlns:xlink="http://www.w3.org/1999/xlink">
<g id="graph0" class="graph" transform="scale(1 1) rotate(0) translate(4 238)">
<title>/home/travis/build/AliceO2Group/AliceO2/Detectors/MUON/MCH/Contour/test/BBox.cxx</title>
<!-- Node1 -->
<g id="node1" class="node"><title>Node1</title>
<polygon fill="#bfbfbf" stroke="black" points="155,-181 155,-233 315,-233 315,-181 155,-181"/>
<text text-anchor="start" x="163" y="-221" font-family="Helvetica,sans-Serif" font-size="10.00">/home/travis/build</text>
<text text-anchor="start" x="163" y="-210" font-family="Helvetica,sans-Serif" font-size="10.00">/AliceO2Group/AliceO2</text>
<text text-anchor="start" x="163" y="-199" font-family="Helvetica,sans-Serif" font-size="10.00">/Detectors/MUON/MCH/Contour</text>
<text text-anchor="middle" x="235" y="-188" font-family="Helvetica,sans-Serif" font-size="10.00">/test/BBox.cxx</text>
</g>
<!-- Node2 -->
<g id="node2" class="node"><title>Node2</title>
<polygon fill="none" stroke="#bfbfbf" points="-0.5,-118.5 -0.5,-137.5 118.5,-137.5 118.5,-118.5 -0.5,-118.5"/>
<text text-anchor="middle" x="59" y="-125.5" font-family="Helvetica,sans-Serif" font-size="10.00">boost/test/unit_test.hpp</text>
</g>
<!-- Node1&#45;&gt;Node2 -->
<g id="edge1" class="edge"><title>Node1&#45;&gt;Node2</title>
<path fill="none" stroke="midnightblue" d="M177.371,-180.787C147.413,-167.681 112.102,-152.232 87.8921,-141.64"/>
<polygon fill="midnightblue" stroke="midnightblue" points="89.1249,-138.359 78.5605,-137.558 86.3192,-144.773 89.1249,-138.359"/>
</g>
<!-- Node3 -->
<g id="node3" class="node"><title>Node3</title>
<polygon fill="none" stroke="#bfbfbf" points="136.5,-113 136.5,-143 237.5,-143 237.5,-113 136.5,-113"/>
<text text-anchor="start" x="144.5" y="-131" font-family="Helvetica,sans-Serif" font-size="10.00">boost/test/data/test</text>
<text text-anchor="middle" x="187" y="-120" font-family="Helvetica,sans-Serif" font-size="10.00">_case.hpp</text>
</g>
<!-- Node1&#45;&gt;Node3 -->
<g id="edge2" class="edge"><title>Node1&#45;&gt;Node3</title>
<path fill="none" stroke="midnightblue" d="M219.283,-180.787C213.459,-171.445 206.894,-160.913 201.212,-151.798"/>
<polygon fill="midnightblue" stroke="midnightblue" points="204.145,-149.887 195.884,-143.252 198.204,-153.59 204.145,-149.887"/>
</g>
<!-- Node4 -->
<g id="node4" class="node"><title>Node4</title>
<polygon fill="none" stroke="#bfbfbf" points="256,-118.5 256,-137.5 310,-137.5 310,-118.5 256,-118.5"/>
<text text-anchor="middle" x="283" y="-125.5" font-family="Helvetica,sans-Serif" font-size="10.00">iostream</text>
</g>
<!-- Node1&#45;&gt;Node4 -->
<g id="edge3" class="edge"><title>Node1&#45;&gt;Node4</title>
<path fill="none" stroke="midnightblue" d="M250.717,-180.787C257.762,-169.486 265.892,-156.445 272.231,-146.276"/>
<polygon fill="midnightblue" stroke="midnightblue" points="275.345,-147.895 277.665,-137.558 269.405,-144.192 275.345,-147.895"/>
</g>
<!-- Node5 -->
<g id="node5" class="node"><title>Node5</title>
<g id="a_node5"><a xlink:href="../../d0/ddc/BBox_8h.html" target="_top" xlink:title="../include/MCHContour\l/BBox.h">
<polygon fill="none" stroke="black" points="328.5,-113 328.5,-143 445.5,-143 445.5,-113 328.5,-113"/>
<text text-anchor="start" x="336.5" y="-131" font-family="Helvetica,sans-Serif" font-size="10.00">../include/MCHContour</text>
<text text-anchor="middle" x="387" y="-120" font-family="Helvetica,sans-Serif" font-size="10.00">/BBox.h</text>
</a>
</g>
</g>
<!-- Node1&#45;&gt;Node5 -->
<g id="edge4" class="edge"><title>Node1&#45;&gt;Node5</title>
<path fill="none" stroke="midnightblue" d="M284.77,-180.787C306.147,-169.958 330.68,-157.531 350.353,-147.564"/>
<polygon fill="midnightblue" stroke="midnightblue" points="351.964,-150.672 359.303,-143.031 348.801,-144.427 351.964,-150.672"/>
</g>
<!-- Node6 -->
<g id="node6" class="node"><title>Node6</title>
<g id="a_node6"><a xlink:href="../../d2/dc4/Helper_8h.html" target="_top" xlink:title="Helper.h">
<polygon fill="none" stroke="black" points="286.5,-56.5 286.5,-75.5 339.5,-75.5 339.5,-56.5 286.5,-56.5"/>
<text text-anchor="middle" x="313" y="-63.5" font-family="Helvetica,sans-Serif" font-size="10.00">Helper.h</text>
</a>
</g>
</g>
<!-- Node5&#45;&gt;Node6 -->
<g id="edge5" class="edge"><title>Node5&#45;&gt;Node6</title>
<path fill="none" stroke="midnightblue" d="M369.463,-112.781C358.045,-103.523 343.17,-91.4618 331.554,-82.0435"/>
<polygon fill="midnightblue" stroke="midnightblue" points="333.74,-79.3099 323.768,-75.7305 329.331,-84.7472 333.74,-79.3099"/>
</g>
<!-- Node10 -->
<g id="node10" class="node"><title>Node10</title>
<polygon fill="none" stroke="#bfbfbf" points="357.5,-56.5 357.5,-75.5 416.5,-75.5 416.5,-56.5 357.5,-56.5"/>
<text text-anchor="middle" x="387" y="-63.5" font-family="Helvetica,sans-Serif" font-size="10.00">stdexcept</text>
</g>
<!-- Node5&#45;&gt;Node10 -->
<g id="edge9" class="edge"><title>Node5&#45;&gt;Node10</title>
<path fill="none" stroke="midnightblue" d="M387,-112.781C387,-104.781 387,-94.6887 387,-86.0168"/>
<polygon fill="midnightblue" stroke="midnightblue" points="390.5,-85.7305 387,-75.7305 383.5,-85.7306 390.5,-85.7305"/>
</g>
<!-- Node11 -->
<g id="node11" class="node"><title>Node11</title>
<polygon fill="none" stroke="#bfbfbf" points="435,-56.5 435,-75.5 487,-75.5 487,-56.5 435,-56.5"/>
<text text-anchor="middle" x="461" y="-63.5" font-family="Helvetica,sans-Serif" font-size="10.00">ostream</text>
</g>
<!-- Node5&#45;&gt;Node11 -->
<g id="edge10" class="edge"><title>Node5&#45;&gt;Node11</title>
<path fill="none" stroke="midnightblue" d="M404.537,-112.781C415.955,-103.523 430.83,-91.4618 442.446,-82.0435"/>
<polygon fill="midnightblue" stroke="midnightblue" points="444.669,-84.7472 450.232,-75.7305 440.26,-79.3099 444.669,-84.7472"/>
</g>
<!-- Node7 -->
<g id="node7" class="node"><title>Node7</title>
<polygon fill="none" stroke="#bfbfbf" points="231,-0.5 231,-19.5 275,-19.5 275,-0.5 231,-0.5"/>
<text text-anchor="middle" x="253" y="-7.5" font-family="Helvetica,sans-Serif" font-size="10.00">cmath</text>
</g>
<!-- Node6&#45;&gt;Node7 -->
<g id="edge6" class="edge"><title>Node6&#45;&gt;Node7</title>
<path fill="none" stroke="midnightblue" d="M303.36,-56.324C294.49,-48.3414 281.125,-36.3128 270.392,-26.6529"/>
<polygon fill="midnightblue" stroke="midnightblue" points="272.59,-23.922 262.815,-19.8339 267.907,-29.1251 272.59,-23.922"/>
</g>
<!-- Node8 -->
<g id="node8" class="node"><title>Node8</title>
<polygon fill="none" stroke="#bfbfbf" points="293,-0.5 293,-19.5 333,-19.5 333,-0.5 293,-0.5"/>
<text text-anchor="middle" x="313" y="-7.5" font-family="Helvetica,sans-Serif" font-size="10.00">limits</text>
</g>
<!-- Node6&#45;&gt;Node8 -->
<g id="edge7" class="edge"><title>Node6&#45;&gt;Node8</title>
<path fill="none" stroke="midnightblue" d="M313,-56.083C313,-49.0059 313,-38.8611 313,-29.9865"/>
<polygon fill="midnightblue" stroke="midnightblue" points="316.5,-29.751 313,-19.7511 309.5,-29.7511 316.5,-29.751"/>
</g>
<!-- Node9 -->
<g id="node9" class="node"><title>Node9</title>
<polygon fill="none" stroke="#bfbfbf" points="351,-0.5 351,-19.5 397,-19.5 397,-0.5 351,-0.5"/>
<text text-anchor="middle" x="374" y="-7.5" font-family="Helvetica,sans-Serif" font-size="10.00">cstdint</text>
</g>
<!-- Node6&#45;&gt;Node9 -->
<g id="edge8" class="edge"><title>Node6&#45;&gt;Node9</title>
<path fill="none" stroke="midnightblue" d="M322.801,-56.324C331.818,-48.3414 345.406,-36.3128 356.318,-26.6529"/>
<polygon fill="midnightblue" stroke="midnightblue" points="358.853,-29.083 364.021,-19.8339 354.213,-23.8416 358.853,-29.083"/>
</g>
</g>
</svg>
