<?xml version="1.0" encoding="UTF-8" standalone="no"?>
<!DOCTYPE svg PUBLIC "-//W3C//DTD SVG 1.1//EN"
 "http://www.w3.org/Graphics/SVG/1.1/DTD/svg11.dtd">
<!-- Generated by graphviz version 2.36.0 (20140111.2315)
 -->
<!-- Title: nlohmann::detail::internal_iterator&lt; BasicJsonType &gt; Pages: 1 -->
<svg width="264pt" height="316pt"
 viewBox="0.00 0.00 263.63 316.00" xmlns="http://www.w3.org/2000/svg" xmlns:xlink="http://www.w3.org/1999/xlink">
<g id="graph0" class="graph" transform="scale(1 1) rotate(0) translate(4 312)">
<title>nlohmann::detail::internal_iterator&lt; BasicJsonType &gt;</title>
<!-- Node1 -->
<g id="node1" class="node"><title>Node1</title>
<polygon fill="#bfbfbf" stroke="black" points="28.1307,-1 28.1307,-69 165.131,-69 165.131,-1 28.1307,-1"/>
<text text-anchor="start" x="36.1307" y="-57" font-family="Helvetica,sans-Serif" font-size="10.00">nlohmann::detail::internal</text>
<text text-anchor="middle" x="96.6307" y="-46" font-family="Helvetica,sans-Serif" font-size="10.00">_iterator&lt; BasicJsonType &gt;</text>
<polyline fill="none" stroke="black" points="28.1307,-39 165.131,-39 "/>
<text text-anchor="middle" x="96.6307" y="-27" font-family="Helvetica,sans-Serif" font-size="10.00"> </text>
<polyline fill="none" stroke="black" points="28.1307,-20 165.131,-20 "/>
<text text-anchor="middle" x="96.6307" y="-8" font-family="Helvetica,sans-Serif" font-size="10.00"> </text>
</g>
<!-- Node2 -->
<g id="node2" class="node"><title>Node2</title>
<polygon fill="none" stroke="#bfbfbf" points="21.1307,-184.5 21.1307,-241.5 68.1307,-241.5 68.1307,-184.5 21.1307,-184.5"/>
<text text-anchor="middle" x="44.6307" y="-229.5" font-family="Helvetica,sans-Serif" font-size="10.00">iterator</text>
<polyline fill="none" stroke="#bfbfbf" points="21.1307,-222.5 68.1307,-222.5 "/>
<text text-anchor="middle" x="44.6307" y="-210.5" font-family="Helvetica,sans-Serif" font-size="10.00"> </text>
<polyline fill="none" stroke="#bfbfbf" points="21.1307,-203.5 68.1307,-203.5 "/>
<text text-anchor="middle" x="44.6307" y="-191.5" font-family="Helvetica,sans-Serif" font-size="10.00"> </text>
</g>
<!-- Node2&#45;&gt;Node1 -->
<g id="edge1" class="edge"><title>Node2&#45;&gt;Node1</title>
<path fill="none" stroke="#404040" d="M24.4335,-184.435C7.96809,-158.299 -9.92577,-118.591 7.63073,-88 10.7247,-82.6089 14.6176,-77.7234 19.0355,-73.3057"/>
<polygon fill="none" stroke="#404040" points="19.0718,-73.274 20.9568,-66.3136 28.1068,-65.3765 26.2218,-72.3369 19.0718,-73.274"/>
<text text-anchor="middle" x="41.1307" y="-91.5" font-family="Helvetica,sans-Serif" font-size="10.00"> +array_iterator</text>
</g>
<!-- Node2&#45;&gt;Node1 -->
<g id="edge2" class="edge"><title>Node2&#45;&gt;Node1</title>
<path fill="none" stroke="#404040" d="M52.8703,-184.112C61.0471,-156.437 73.713,-113.568 83.3184,-81.057"/>
<polygon fill="none" stroke="#404040" points="83.434,-80.6658 81.298,-73.7783 86.8342,-69.1576 88.9701,-76.0451 83.434,-80.6658"/>
<text text-anchor="middle" x="117.131" y="-91.5" font-family="Helvetica,sans-Serif" font-size="10.00"> +object_iterator</text>
</g>
<!-- Node3 -->
<g id="node3" class="node"><title>Node3</title>
<g id="a_node3"><a xlink:href="../../d2/d2c/classnlohmann_1_1detail_1_1primitive__iterator__t.html" target="_top" xlink:title="{nlohmann::detail::primitive\l_iterator_t\n||+ get_value()\l+ set_begin()\l+ set_end()\l+ is_begin()\l+ is_end()\l+ operator+()\l+ operator++()\l+ operator++()\l+ operator&#45;&#45;()\l+ operator&#45;&#45;()\l+ operator+=()\l+ operator&#45;=()\l}">
<polygon fill="none" stroke="black" points="125.131,-118.5 125.131,-307.5 256.131,-307.5 256.131,-118.5 125.131,-118.5"/>
<text text-anchor="start" x="133.131" y="-295.5" font-family="Helvetica,sans-Serif" font-size="10.00">nlohmann::detail::primitive</text>
<text text-anchor="middle" x="190.631" y="-284.5" font-family="Helvetica,sans-Serif" font-size="10.00">_iterator_t</text>
<polyline fill="none" stroke="black" points="125.131,-277.5 256.131,-277.5 "/>
<text text-anchor="middle" x="190.631" y="-265.5" font-family="Helvetica,sans-Serif" font-size="10.00"> </text>
<polyline fill="none" stroke="black" points="125.131,-258.5 256.131,-258.5 "/>
<text text-anchor="start" x="133.131" y="-246.5" font-family="Helvetica,sans-Serif" font-size="10.00">+ get_value()</text>
<text text-anchor="start" x="133.131" y="-235.5" font-family="Helvetica,sans-Serif" font-size="10.00">+ set_begin()</text>
<text text-anchor="start" x="133.131" y="-224.5" font-family="Helvetica,sans-Serif" font-size="10.00">+ set_end()</text>
<text text-anchor="start" x="133.131" y="-213.5" font-family="Helvetica,sans-Serif" font-size="10.00">+ is_begin()</text>
<text text-anchor="start" x="133.131" y="-202.5" font-family="Helvetica,sans-Serif" font-size="10.00">+ is_end()</text>
<text text-anchor="start" x="133.131" y="-191.5" font-family="Helvetica,sans-Serif" font-size="10.00">+ operator+()</text>
<text text-anchor="start" x="133.131" y="-180.5" font-family="Helvetica,sans-Serif" font-size="10.00">+ operator++()</text>
<text text-anchor="start" x="133.131" y="-169.5" font-family="Helvetica,sans-Serif" font-size="10.00">+ operator++()</text>
<text text-anchor="start" x="133.131" y="-158.5" font-family="Helvetica,sans-Serif" font-size="10.00">+ operator&#45;&#45;()</text>
<text text-anchor="start" x="133.131" y="-147.5" font-family="Helvetica,sans-Serif" font-size="10.00">+ operator&#45;&#45;()</text>
<text text-anchor="start" x="133.131" y="-136.5" font-family="Helvetica,sans-Serif" font-size="10.00">+ operator+=()</text>
<text text-anchor="start" x="133.131" y="-125.5" font-family="Helvetica,sans-Serif" font-size="10.00">+ operator&#45;=()</text>
</a>
</g>
</g>
<!-- Node3&#45;&gt;Node1 -->
<g id="edge3" class="edge"><title>Node3&#45;&gt;Node1</title>
<path fill="none" stroke="#404040" d="M171.449,-118.365C167.403,-107.719 162.52,-97.3491 156.631,-88 154.5,-84.6177 152.082,-81.3345 149.469,-78.1712"/>
<polygon fill="none" stroke="#404040" points="149.237,-77.9176 142.237,-76.1893 141.139,-69.0622 148.14,-70.7904 149.237,-77.9176"/>
<text text-anchor="middle" x="202.631" y="-91.5" font-family="Helvetica,sans-Serif" font-size="10.00"> +primitive_iterator</text>
</g>
</g>
</svg>
