<?xml version="1.0" encoding="UTF-8" standalone="no"?>
<!DOCTYPE svg PUBLIC "-//W3C//DTD SVG 1.1//EN"
 "http://www.w3.org/Graphics/SVG/1.1/DTD/svg11.dtd">
<!-- Generated by graphviz version 2.36.0 (20140111.2315)
 -->
<!-- Title: /home/travis/build/AliceO2Group/AliceO2/Common/Utils/include/CommonUtils/ShmAllocator.h Pages: 1 -->
<svg width="408pt" height="186pt"
 viewBox="0.00 0.00 408.00 186.00" xmlns="http://www.w3.org/2000/svg" xmlns:xlink="http://www.w3.org/1999/xlink">
<g id="graph0" class="graph" transform="scale(1 1) rotate(0) translate(4 182)">
<title>/home/travis/build/AliceO2Group/AliceO2/Common/Utils/include/CommonUtils/ShmAllocator.h</title>
<!-- Node1 -->
<g id="node1" class="node"><title>Node1</title>
<polygon fill="#bfbfbf" stroke="black" points="112.5,-125 112.5,-177 261.5,-177 261.5,-125 112.5,-125"/>
<text text-anchor="start" x="120.5" y="-165" font-family="Helvetica,sans-Serif" font-size="10.00">/home/travis/build</text>
<text text-anchor="start" x="120.5" y="-154" font-family="Helvetica,sans-Serif" font-size="10.00">/AliceO2Group/AliceO2</text>
<text text-anchor="start" x="120.5" y="-143" font-family="Helvetica,sans-Serif" font-size="10.00">/Common/Utils/include</text>
<text text-anchor="middle" x="187" y="-132" font-family="Helvetica,sans-Serif" font-size="10.00">/CommonUtils/ShmAllocator.h</text>
</g>
<!-- Node2 -->
<g id="node2" class="node"><title>Node2</title>
<g id="a_node2"><a xlink:href="../../de/d61/ShmManager_8h.html" target="_top" xlink:title="CommonUtils/ShmManager.h">
<polygon fill="none" stroke="black" points="56,-68.5 56,-87.5 202,-87.5 202,-68.5 56,-68.5"/>
<text text-anchor="middle" x="129" y="-75.5" font-family="Helvetica,sans-Serif" font-size="10.00">CommonUtils/ShmManager.h</text>
</a>
</g>
</g>
<!-- Node1&#45;&gt;Node2 -->
<g id="edge1" class="edge"><title>Node1&#45;&gt;Node2</title>
<path fill="none" stroke="midnightblue" d="M166.388,-124.768C158.476,-115.083 149.652,-104.281 142.565,-95.605"/>
<polygon fill="midnightblue" stroke="midnightblue" points="145.191,-93.2873 136.154,-87.7572 139.77,-97.7159 145.191,-93.2873"/>
</g>
<!-- Node7 -->
<g id="node7" class="node"><title>Node7</title>
<polygon fill="none" stroke="#bfbfbf" points="220.5,-68.5 220.5,-87.5 269.5,-87.5 269.5,-68.5 220.5,-68.5"/>
<text text-anchor="middle" x="245" y="-75.5" font-family="Helvetica,sans-Serif" font-size="10.00">cassert</text>
</g>
<!-- Node1&#45;&gt;Node7 -->
<g id="edge6" class="edge"><title>Node1&#45;&gt;Node7</title>
<path fill="none" stroke="midnightblue" d="M207.612,-124.768C215.524,-115.083 224.348,-104.281 231.435,-95.605"/>
<polygon fill="midnightblue" stroke="midnightblue" points="234.23,-97.7159 237.846,-87.7572 228.809,-93.2873 234.23,-97.7159"/>
</g>
<!-- Node3 -->
<g id="node3" class="node"><title>Node3</title>
<polygon fill="none" stroke="#bfbfbf" points="-0.5,-6.5 -0.5,-25.5 28.5,-25.5 28.5,-6.5 -0.5,-6.5"/>
<text text-anchor="middle" x="14" y="-13.5" font-family="Helvetica,sans-Serif" font-size="10.00">list</text>
</g>
<!-- Node2&#45;&gt;Node3 -->
<g id="edge2" class="edge"><title>Node2&#45;&gt;Node3</title>
<path fill="none" stroke="midnightblue" d="M109.616,-68.3636C90.7488,-59.7616 61.4298,-45.8713 37,-32 36.3471,-31.6293 35.6874,-31.2474 35.0244,-30.8571"/>
<polygon fill="midnightblue" stroke="midnightblue" points="36.8192,-27.8517 26.4803,-25.5372 33.1193,-33.794 36.8192,-27.8517"/>
</g>
<!-- Node4 -->
<g id="node4" class="node"><title>Node4</title>
<polygon fill="none" stroke="#bfbfbf" points="46.5,-6.5 46.5,-25.5 95.5,-25.5 95.5,-6.5 46.5,-6.5"/>
<text text-anchor="middle" x="71" y="-13.5" font-family="Helvetica,sans-Serif" font-size="10.00">cstddef</text>
</g>
<!-- Node2&#45;&gt;Node4 -->
<g id="edge3" class="edge"><title>Node2&#45;&gt;Node4</title>
<path fill="none" stroke="midnightblue" d="M120.69,-68.4035C111.732,-59.1361 97.2768,-44.1828 86.2613,-32.7876"/>
<polygon fill="midnightblue" stroke="midnightblue" points="88.7613,-30.3379 79.2946,-25.5806 83.7284,-35.2031 88.7613,-30.3379"/>
</g>
<!-- Node5 -->
<g id="node5" class="node"><title>Node5</title>
<polygon fill="none" stroke="#bfbfbf" points="114,-1 114,-31 262,-31 262,-1 114,-1"/>
<text text-anchor="start" x="122" y="-19" font-family="Helvetica,sans-Serif" font-size="10.00">boost/interprocess</text>
<text text-anchor="middle" x="188" y="-8" font-family="Helvetica,sans-Serif" font-size="10.00">/managed_external_buffer.hpp</text>
</g>
<!-- Node2&#45;&gt;Node5 -->
<g id="edge4" class="edge"><title>Node2&#45;&gt;Node5</title>
<path fill="none" stroke="midnightblue" d="M137.453,-68.4035C145.145,-60.5811 156.821,-48.7077 167.013,-38.3424"/>
<polygon fill="midnightblue" stroke="midnightblue" points="169.579,-40.7251 174.095,-31.1408 164.588,-35.8171 169.579,-40.7251"/>
</g>
<!-- Node6 -->
<g id="node6" class="node"><title>Node6</title>
<polygon fill="none" stroke="#bfbfbf" points="280,-1 280,-31 400,-31 400,-1 280,-1"/>
<text text-anchor="start" x="288" y="-19" font-family="Helvetica,sans-Serif" font-size="10.00">boost/interprocess</text>
<text text-anchor="middle" x="340" y="-8" font-family="Helvetica,sans-Serif" font-size="10.00">/allocators/allocator.hpp</text>
</g>
<!-- Node2&#45;&gt;Node6 -->
<g id="edge5" class="edge"><title>Node2&#45;&gt;Node6</title>
<path fill="none" stroke="midnightblue" d="M159.231,-68.4035C190.851,-59.412 241.293,-45.0683 280.868,-33.8147"/>
<polygon fill="midnightblue" stroke="midnightblue" points="282.016,-37.1271 290.678,-31.0253 280.102,-30.394 282.016,-37.1271"/>
</g>
</g>
</svg>
