<?xml version="1.0" encoding="UTF-8" standalone="no"?>
<!DOCTYPE svg PUBLIC "-//W3C//DTD SVG 1.1//EN"
 "http://www.w3.org/Graphics/SVG/1.1/DTD/svg11.dtd">
<!-- Generated by graphviz version 2.36.0 (20140111.2315)
 -->
<!-- Title: /home/travis/build/AliceO2Group/AliceO2/CCDB/test/testCcdbApi.cxx Pages: 1 -->
<svg width="821pt" height="162pt"
 viewBox="0.00 0.00 821.00 162.00" xmlns="http://www.w3.org/2000/svg" xmlns:xlink="http://www.w3.org/1999/xlink">
<g id="graph0" class="graph" transform="scale(1 1) rotate(0) translate(4 158)">
<title>/home/travis/build/AliceO2Group/AliceO2/CCDB/test/testCcdbApi.cxx</title>
<!-- Node1 -->
<g id="node1" class="node"><title>Node1</title>
<polygon fill="#bfbfbf" stroke="black" points="415,-112.5 415,-153.5 559,-153.5 559,-112.5 415,-112.5"/>
<text text-anchor="start" x="423" y="-141.5" font-family="Helvetica,sans-Serif" font-size="10.00">/home/travis/build</text>
<text text-anchor="start" x="423" y="-130.5" font-family="Helvetica,sans-Serif" font-size="10.00">/AliceO2Group/AliceO2</text>
<text text-anchor="middle" x="487" y="-119.5" font-family="Helvetica,sans-Serif" font-size="10.00">/CCDB/test/testCcdbApi.cxx</text>
</g>
<!-- Node2 -->
<g id="node2" class="node"><title>Node2</title>
<g id="a_node2"><a xlink:href="../../dd/d3e/CcdbApi_8h.html" target="_top" xlink:title="CCDB/CcdbApi.h">
<polygon fill="none" stroke="black" points="141.5,-56.5 141.5,-75.5 236.5,-75.5 236.5,-56.5 141.5,-56.5"/>
<text text-anchor="middle" x="189" y="-63.5" font-family="Helvetica,sans-Serif" font-size="10.00">CCDB/CcdbApi.h</text>
</a>
</g>
</g>
<!-- Node1&#45;&gt;Node2 -->
<g id="edge1" class="edge"><title>Node1&#45;&gt;Node2</title>
<path fill="none" stroke="midnightblue" d="M414.863,-116.265C360.025,-104.304 286.059,-88.1705 237.953,-77.6778"/>
<polygon fill="midnightblue" stroke="midnightblue" points="238.613,-74.2395 228.097,-75.5279 237.121,-81.0787 238.613,-74.2395"/>
</g>
<!-- Node5 -->
<g id="node5" class="node"><title>Node5</title>
<polygon fill="none" stroke="#bfbfbf" points="0,-0.5 0,-19.5 54,-19.5 54,-0.5 0,-0.5"/>
<text text-anchor="middle" x="27" y="-7.5" font-family="Helvetica,sans-Serif" font-size="10.00">iostream</text>
</g>
<!-- Node1&#45;&gt;Node5 -->
<g id="edge10" class="edge"><title>Node1&#45;&gt;Node5</title>
<path fill="none" stroke="midnightblue" d="M414.846,-128.982C341.587,-124.009 225.885,-110.844 132,-76 99.2587,-63.8484 65.6713,-40.8435 45.5711,-25.7173"/>
<polygon fill="midnightblue" stroke="midnightblue" points="47.6431,-22.8955 37.5803,-19.5804 43.3795,-28.4472 47.6431,-22.8955"/>
</g>
<!-- Node7 -->
<g id="node7" class="node"><title>Node7</title>
<polygon fill="none" stroke="#bfbfbf" points="332.5,-0.5 332.5,-19.5 391.5,-19.5 391.5,-0.5 332.5,-0.5"/>
<text text-anchor="middle" x="362" y="-7.5" font-family="Helvetica,sans-Serif" font-size="10.00">curl/curl.h</text>
</g>
<!-- Node1&#45;&gt;Node7 -->
<g id="edge12" class="edge"><title>Node1&#45;&gt;Node7</title>
<path fill="none" stroke="midnightblue" d="M414.745,-121.343C363.439,-112.125 300.944,-96.965 285,-76 268.707,-54.5751 299.812,-35.4244 327.227,-23.5533"/>
<polygon fill="midnightblue" stroke="midnightblue" points="328.767,-26.7044 336.686,-19.6661 326.107,-20.2298 328.767,-26.7044"/>
</g>
<!-- Node9 -->
<g id="node9" class="node"><title>Node9</title>
<polygon fill="none" stroke="#bfbfbf" points="293.5,-56.5 293.5,-75.5 412.5,-75.5 412.5,-56.5 293.5,-56.5"/>
<text text-anchor="middle" x="353" y="-63.5" font-family="Helvetica,sans-Serif" font-size="10.00">boost/test/unit_test.hpp</text>
</g>
<!-- Node1&#45;&gt;Node9 -->
<g id="edge8" class="edge"><title>Node1&#45;&gt;Node9</title>
<path fill="none" stroke="midnightblue" d="M446.796,-112.498C425.164,-102.005 399.072,-89.3482 379.904,-80.0507"/>
<polygon fill="midnightblue" stroke="midnightblue" points="381.362,-76.8679 370.837,-75.6525 378.307,-83.166 381.362,-76.8679"/>
</g>
<!-- Node10 -->
<g id="node10" class="node"><title>Node10</title>
<polygon fill="none" stroke="#bfbfbf" points="430.5,-56.5 430.5,-75.5 479.5,-75.5 479.5,-56.5 430.5,-56.5"/>
<text text-anchor="middle" x="455" y="-63.5" font-family="Helvetica,sans-Serif" font-size="10.00">cassert</text>
</g>
<!-- Node1&#45;&gt;Node10 -->
<g id="edge9" class="edge"><title>Node1&#45;&gt;Node10</title>
<path fill="none" stroke="midnightblue" d="M477.399,-112.498C473.059,-103.682 467.967,-93.3385 463.735,-84.7432"/>
<polygon fill="midnightblue" stroke="midnightblue" points="466.817,-83.0783 459.26,-75.6525 460.536,-86.1701 466.817,-83.0783"/>
</g>
<!-- Node11 -->
<g id="node11" class="node"><title>Node11</title>
<polygon fill="none" stroke="#bfbfbf" points="497.5,-56.5 497.5,-75.5 540.5,-75.5 540.5,-56.5 497.5,-56.5"/>
<text text-anchor="middle" x="519" y="-63.5" font-family="Helvetica,sans-Serif" font-size="10.00">cstdio</text>
</g>
<!-- Node1&#45;&gt;Node11 -->
<g id="edge11" class="edge"><title>Node1&#45;&gt;Node11</title>
<path fill="none" stroke="midnightblue" d="M496.601,-112.498C500.941,-103.682 506.033,-93.3385 510.265,-84.7432"/>
<polygon fill="midnightblue" stroke="midnightblue" points="513.464,-86.1701 514.74,-75.6525 507.183,-83.0783 513.464,-86.1701"/>
</g>
<!-- Node12 -->
<g id="node12" class="node"><title>Node12</title>
<polygon fill="none" stroke="#bfbfbf" points="559,-56.5 559,-75.5 619,-75.5 619,-56.5 559,-56.5"/>
<text text-anchor="middle" x="589" y="-63.5" font-family="Helvetica,sans-Serif" font-size="10.00">sys/stat.h</text>
</g>
<!-- Node1&#45;&gt;Node12 -->
<g id="edge13" class="edge"><title>Node1&#45;&gt;Node12</title>
<path fill="none" stroke="midnightblue" d="M517.603,-112.498C533.392,-102.436 552.304,-90.3849 566.696,-81.2136"/>
<polygon fill="midnightblue" stroke="midnightblue" points="568.87,-83.9783 575.422,-75.6525 565.108,-78.075 568.87,-83.9783"/>
</g>
<!-- Node13 -->
<g id="node13" class="node"><title>Node13</title>
<polygon fill="none" stroke="#bfbfbf" points="637,-56.5 637,-75.5 681,-75.5 681,-56.5 637,-56.5"/>
<text text-anchor="middle" x="659" y="-63.5" font-family="Helvetica,sans-Serif" font-size="10.00">fcntl.h</text>
</g>
<!-- Node1&#45;&gt;Node13 -->
<g id="edge14" class="edge"><title>Node1&#45;&gt;Node13</title>
<path fill="none" stroke="midnightblue" d="M538.606,-112.498C567.306,-101.652 602.124,-88.4937 626.92,-79.1234"/>
<polygon fill="midnightblue" stroke="midnightblue" points="628.438,-82.2911 636.555,-75.482 625.964,-75.7431 628.438,-82.2911"/>
</g>
<!-- Node14 -->
<g id="node14" class="node"><title>Node14</title>
<polygon fill="none" stroke="#bfbfbf" points="699,-56.5 699,-75.5 749,-75.5 749,-56.5 699,-56.5"/>
<text text-anchor="middle" x="724" y="-63.5" font-family="Helvetica,sans-Serif" font-size="10.00">TH1F.h</text>
</g>
<!-- Node1&#45;&gt;Node14 -->
<g id="edge15" class="edge"><title>Node1&#45;&gt;Node14</title>
<path fill="none" stroke="midnightblue" d="M558.108,-112.498C601.232,-100.671 654.382,-86.0937 688.714,-76.6775"/>
<polygon fill="midnightblue" stroke="midnightblue" points="690.015,-79.95 698.733,-73.9297 688.164,-73.1993 690.015,-79.95"/>
</g>
<!-- Node15 -->
<g id="node15" class="node"><title>Node15</title>
<polygon fill="none" stroke="#bfbfbf" points="767,-56.5 767,-75.5 813,-75.5 813,-56.5 767,-56.5"/>
<text text-anchor="middle" x="790" y="-63.5" font-family="Helvetica,sans-Serif" font-size="10.00">chrono</text>
</g>
<!-- Node1&#45;&gt;Node15 -->
<g id="edge16" class="edge"><title>Node1&#45;&gt;Node15</title>
<path fill="none" stroke="midnightblue" d="M559.201,-118.515C611.624,-108.393 684.438,-93.6516 757.183,-76.0689"/>
<polygon fill="midnightblue" stroke="midnightblue" points="758.091,-79.4502 766.979,-73.6836 756.435,-72.6489 758.091,-79.4502"/>
</g>
<!-- Node3 -->
<g id="node3" class="node"><title>Node3</title>
<polygon fill="none" stroke="#bfbfbf" points="72.5,-0.5 72.5,-19.5 113.5,-19.5 113.5,-0.5 72.5,-0.5"/>
<text text-anchor="middle" x="93" y="-7.5" font-family="Helvetica,sans-Serif" font-size="10.00">string</text>
</g>
<!-- Node2&#45;&gt;Node3 -->
<g id="edge2" class="edge"><title>Node2&#45;&gt;Node3</title>
<path fill="none" stroke="midnightblue" d="M173.576,-56.324C158.46,-47.8215 135.185,-34.7288 117.529,-24.7975"/>
<polygon fill="midnightblue" stroke="midnightblue" points="118.817,-21.5066 108.386,-19.6545 115.386,-27.6077 118.817,-21.5066"/>
</g>
<!-- Node4 -->
<g id="node4" class="node"><title>Node4</title>
<polygon fill="none" stroke="#bfbfbf" points="132,-0.5 132,-19.5 184,-19.5 184,-0.5 132,-0.5"/>
<text text-anchor="middle" x="158" y="-7.5" font-family="Helvetica,sans-Serif" font-size="10.00">memory</text>
</g>
<!-- Node2&#45;&gt;Node4 -->
<g id="edge3" class="edge"><title>Node2&#45;&gt;Node4</title>
<path fill="none" stroke="midnightblue" d="M183.881,-56.083C179.592,-48.6127 173.342,-37.7244 168.058,-28.5199"/>
<polygon fill="midnightblue" stroke="midnightblue" points="171.038,-26.6811 163.024,-19.7511 164.967,-30.1662 171.038,-26.6811"/>
</g>
<!-- Node2&#45;&gt;Node5 -->
<g id="edge4" class="edge"><title>Node2&#45;&gt;Node5</title>
<path fill="none" stroke="midnightblue" d="M163.331,-56.4435C136.077,-47.3591 92.8163,-32.9388 62.3494,-22.7831"/>
<polygon fill="midnightblue" stroke="midnightblue" points="63.1429,-19.3584 52.5493,-19.5164 60.9293,-25.9992 63.1429,-19.3584"/>
</g>
<!-- Node6 -->
<g id="node6" class="node"><title>Node6</title>
<polygon fill="none" stroke="#bfbfbf" points="202.5,-0.5 202.5,-19.5 237.5,-19.5 237.5,-0.5 202.5,-0.5"/>
<text text-anchor="middle" x="220" y="-7.5" font-family="Helvetica,sans-Serif" font-size="10.00">map</text>
</g>
<!-- Node2&#45;&gt;Node6 -->
<g id="edge5" class="edge"><title>Node2&#45;&gt;Node6</title>
<path fill="none" stroke="midnightblue" d="M194.119,-56.083C198.408,-48.6127 204.658,-37.7244 209.942,-28.5199"/>
<polygon fill="midnightblue" stroke="midnightblue" points="213.033,-30.1662 214.976,-19.7511 206.962,-26.6811 213.033,-30.1662"/>
</g>
<!-- Node2&#45;&gt;Node7 -->
<g id="edge6" class="edge"><title>Node2&#45;&gt;Node7</title>
<path fill="none" stroke="midnightblue" d="M216.412,-56.4435C245.769,-47.2801 292.519,-32.6876 325.096,-22.5192"/>
<polygon fill="midnightblue" stroke="midnightblue" points="326.213,-25.8371 334.716,-19.5164 324.127,-19.1551 326.213,-25.8371"/>
</g>
<!-- Node8 -->
<g id="node8" class="node"><title>Node8</title>
<polygon fill="none" stroke="#bfbfbf" points="255.5,-0.5 255.5,-19.5 314.5,-19.5 314.5,-0.5 255.5,-0.5"/>
<text text-anchor="middle" x="285" y="-7.5" font-family="Helvetica,sans-Serif" font-size="10.00">TObject.h</text>
</g>
<!-- Node2&#45;&gt;Node8 -->
<g id="edge7" class="edge"><title>Node2&#45;&gt;Node8</title>
<path fill="none" stroke="midnightblue" d="M204.424,-56.324C219.54,-47.8215 242.815,-34.7288 260.471,-24.7975"/>
<polygon fill="midnightblue" stroke="midnightblue" points="262.614,-27.6077 269.614,-19.6545 259.183,-21.5066 262.614,-27.6077"/>
</g>
</g>
</svg>
