<?xml version="1.0" encoding="UTF-8" standalone="no"?>
<!DOCTYPE svg PUBLIC "-//W3C//DTD SVG 1.1//EN"
 "http://www.w3.org/Graphics/SVG/1.1/DTD/svg11.dtd">
<!-- Generated by graphviz version 2.36.0 (20140111.2315)
 -->
<!-- Title: o2::ccdb::LocalStorageParameters Pages: 1 -->
<svg width="174pt" height="398pt"
 viewBox="0.00 0.00 174.00 398.00" xmlns="http://www.w3.org/2000/svg" xmlns:xlink="http://www.w3.org/1999/xlink">
<g id="graph0" class="graph" transform="scale(1 1) rotate(0) translate(4 394)">
<title>o2::ccdb::LocalStorageParameters</title>
<!-- Node1 -->
<g id="node1" class="node"><title>Node1</title>
<polygon fill="#bfbfbf" stroke="black" points="-0.5,-1 -0.5,-135 166.5,-135 166.5,-1 -0.5,-1"/>
<text text-anchor="middle" x="83" y="-123" font-family="Helvetica,sans-Serif" font-size="10.00">o2::ccdb::LocalStorageParameters</text>
<polyline fill="none" stroke="black" points="-0.5,-116 166.5,-116 "/>
<text text-anchor="middle" x="83" y="-104" font-family="Helvetica,sans-Serif" font-size="10.00"> </text>
<polyline fill="none" stroke="black" points="-0.5,-97 166.5,-97 "/>
<text text-anchor="start" x="7.5" y="-85" font-family="Helvetica,sans-Serif" font-size="10.00">+ LocalStorageParameters()</text>
<text text-anchor="start" x="7.5" y="-74" font-family="Helvetica,sans-Serif" font-size="10.00">+ LocalStorageParameters()</text>
<text text-anchor="start" x="7.5" y="-63" font-family="Helvetica,sans-Serif" font-size="10.00">+ LocalStorageParameters()</text>
<text text-anchor="start" x="7.5" y="-52" font-family="Helvetica,sans-Serif" font-size="10.00">+ ~LocalStorageParameters()</text>
<text text-anchor="start" x="7.5" y="-41" font-family="Helvetica,sans-Serif" font-size="10.00">+ getPathString()</text>
<text text-anchor="start" x="7.5" y="-30" font-family="Helvetica,sans-Serif" font-size="10.00">+ cloneParam()</text>
<text text-anchor="start" x="7.5" y="-19" font-family="Helvetica,sans-Serif" font-size="10.00">+ getHash()</text>
<text text-anchor="start" x="7.5" y="-8" font-family="Helvetica,sans-Serif" font-size="10.00">+ isEqual()</text>
</g>
<!-- Node2 -->
<g id="node2" class="node"><title>Node2</title>
<g id="a_node2"><a xlink:href="../../d8/daa/classo2_1_1ccdb_1_1StorageParameters.html" target="_top" xlink:title="{o2::ccdb::StorageParameters\n||+ StorageParameters()\l+ ~StorageParameters()\l+ getStorageType()\l+ getUri()\l+ cloneParam()\l# setType()\l# setUri()\l}">
<polygon fill="none" stroke="black" points="11,-172.5 11,-295.5 155,-295.5 155,-172.5 11,-172.5"/>
<text text-anchor="middle" x="83" y="-283.5" font-family="Helvetica,sans-Serif" font-size="10.00">o2::ccdb::StorageParameters</text>
<polyline fill="none" stroke="black" points="11,-276.5 155,-276.5 "/>
<text text-anchor="middle" x="83" y="-264.5" font-family="Helvetica,sans-Serif" font-size="10.00"> </text>
<polyline fill="none" stroke="black" points="11,-257.5 155,-257.5 "/>
<text text-anchor="start" x="19" y="-245.5" font-family="Helvetica,sans-Serif" font-size="10.00">+ StorageParameters()</text>
<text text-anchor="start" x="19" y="-234.5" font-family="Helvetica,sans-Serif" font-size="10.00">+ ~StorageParameters()</text>
<text text-anchor="start" x="19" y="-223.5" font-family="Helvetica,sans-Serif" font-size="10.00">+ getStorageType()</text>
<text text-anchor="start" x="19" y="-212.5" font-family="Helvetica,sans-Serif" font-size="10.00">+ getUri()</text>
<text text-anchor="start" x="19" y="-201.5" font-family="Helvetica,sans-Serif" font-size="10.00">+ cloneParam()</text>
<text text-anchor="start" x="19" y="-190.5" font-family="Helvetica,sans-Serif" font-size="10.00"># setType()</text>
<text text-anchor="start" x="19" y="-179.5" font-family="Helvetica,sans-Serif" font-size="10.00"># setUri()</text>
</a>
</g>
</g>
<!-- Node2&#45;&gt;Node1 -->
<g id="edge1" class="edge"><title>Node2&#45;&gt;Node1</title>
<path fill="none" stroke="midnightblue" d="M83,-162.317C83,-153.296 83,-144.088 83,-135.143"/>
<polygon fill="none" stroke="midnightblue" points="79.5001,-162.398 83,-172.398 86.5001,-162.398 79.5001,-162.398"/>
</g>
<!-- Node3 -->
<g id="node3" class="node"><title>Node3</title>
<g id="a_node3"><a xlink:href="../../d5/d0f/classTObject.html" target="_top" xlink:title="{TObject\n||}">
<polygon fill="none" stroke="black" points="57.5,-332.5 57.5,-389.5 108.5,-389.5 108.5,-332.5 57.5,-332.5"/>
<text text-anchor="middle" x="83" y="-377.5" font-family="Helvetica,sans-Serif" font-size="10.00">TObject</text>
<polyline fill="none" stroke="black" points="57.5,-370.5 108.5,-370.5 "/>
<text text-anchor="middle" x="83" y="-358.5" font-family="Helvetica,sans-Serif" font-size="10.00"> </text>
<polyline fill="none" stroke="black" points="57.5,-351.5 108.5,-351.5 "/>
<text text-anchor="middle" x="83" y="-339.5" font-family="Helvetica,sans-Serif" font-size="10.00"> </text>
</a>
</g>
</g>
<!-- Node3&#45;&gt;Node2 -->
<g id="edge2" class="edge"><title>Node3&#45;&gt;Node2</title>
<path fill="none" stroke="midnightblue" d="M83,-322.099C83,-313.739 83,-304.68 83,-295.672"/>
<polygon fill="none" stroke="midnightblue" points="79.5001,-322.258 83,-332.258 86.5001,-322.258 79.5001,-322.258"/>
</g>
</g>
</svg>
