<?xml version="1.0" encoding="UTF-8" standalone="no"?>
<!DOCTYPE svg PUBLIC "-//W3C//DTD SVG 1.1//EN"
 "http://www.w3.org/Graphics/SVG/1.1/DTD/svg11.dtd">
<!-- Generated by graphviz version 2.36.0 (20140111.2315)
 -->
<!-- Title: /home/travis/build/AliceO2Group/AliceO2/Detectors/MUON/MID/Base/include/MIDBase/GeometryTransformer.h Pages: 1 -->
<svg width="1756pt" height="242pt"
 viewBox="0.00 0.00 1756.00 242.00" xmlns="http://www.w3.org/2000/svg" xmlns:xlink="http://www.w3.org/1999/xlink">
<g id="graph0" class="graph" transform="scale(1 1) rotate(0) translate(4 238)">
<title>/home/travis/build/AliceO2Group/AliceO2/Detectors/MUON/MID/Base/include/MIDBase/GeometryTransformer.h</title>
<!-- Node1 -->
<g id="node1" class="node"><title>Node1</title>
<polygon fill="#bfbfbf" stroke="black" points="700.5,-181 700.5,-233 901.5,-233 901.5,-181 700.5,-181"/>
<text text-anchor="start" x="708.5" y="-221" font-family="Helvetica,sans-Serif" font-size="10.00">/home/travis/build</text>
<text text-anchor="start" x="708.5" y="-210" font-family="Helvetica,sans-Serif" font-size="10.00">/AliceO2Group/AliceO2</text>
<text text-anchor="start" x="708.5" y="-199" font-family="Helvetica,sans-Serif" font-size="10.00">/Detectors/MUON/MID/Base</text>
<text text-anchor="middle" x="801" y="-188" font-family="Helvetica,sans-Serif" font-size="10.00">/include/MIDBase/GeometryTransformer.h</text>
</g>
<!-- Node2 -->
<g id="node2" class="node"><title>Node2</title>
<g id="a_node2"><a xlink:href="../../d7/d40/HitFinder_8h.html" target="_top" xlink:title="Hit finder for MID. ">
<polygon fill="none" stroke="black" points="168,-91 168,-143 314,-143 314,-91 168,-91"/>
<text text-anchor="start" x="176" y="-131" font-family="Helvetica,sans-Serif" font-size="10.00">/home/travis/build</text>
<text text-anchor="start" x="176" y="-120" font-family="Helvetica,sans-Serif" font-size="10.00">/AliceO2Group/AliceO2</text>
<text text-anchor="start" x="176" y="-109" font-family="Helvetica,sans-Serif" font-size="10.00">/Detectors/MUON/MID/Base</text>
<text text-anchor="middle" x="241" y="-98" font-family="Helvetica,sans-Serif" font-size="10.00">/include/MIDBase/HitFinder.h</text>
</a>
</g>
</g>
<!-- Node1&#45;&gt;Node2 -->
<g id="edge1" class="edge"><title>Node1&#45;&gt;Node2</title>
<path fill="none" stroke="midnightblue" d="M689.983,-196.8C593.141,-187.52 449.248,-170.697 326,-144 322.079,-143.151 318.077,-142.206 314.052,-141.193"/>
<polygon fill="midnightblue" stroke="midnightblue" points="689.799,-200.298 700.084,-197.757 690.459,-193.329 689.799,-200.298"/>
</g>
<!-- Node6 -->
<g id="node6" class="node"><title>Node6</title>
<g id="a_node6"><a xlink:href="../../dc/d25/GeometryTransformer_8cxx.html" target="_top" xlink:title="Geometry transformer for MID. ">
<polygon fill="none" stroke="black" points="511,-91 511,-143 661,-143 661,-91 511,-91"/>
<text text-anchor="start" x="519" y="-131" font-family="Helvetica,sans-Serif" font-size="10.00">/home/travis/build</text>
<text text-anchor="start" x="519" y="-120" font-family="Helvetica,sans-Serif" font-size="10.00">/AliceO2Group/AliceO2</text>
<text text-anchor="start" x="519" y="-109" font-family="Helvetica,sans-Serif" font-size="10.00">/Detectors/MUON/MID/Base</text>
<text text-anchor="middle" x="586" y="-98" font-family="Helvetica,sans-Serif" font-size="10.00">/src/GeometryTransformer.cxx</text>
</a>
</g>
</g>
<!-- Node1&#45;&gt;Node6 -->
<g id="edge5" class="edge"><title>Node1&#45;&gt;Node6</title>
<path fill="none" stroke="midnightblue" d="M730.356,-177.085C703.558,-166.117 673.283,-153.725 647.404,-143.133"/>
<polygon fill="midnightblue" stroke="midnightblue" points="729.097,-180.352 739.677,-180.901 731.748,-173.873 729.097,-180.352"/>
</g>
<!-- Node7 -->
<g id="node7" class="node"><title>Node7</title>
<g id="a_node7"><a xlink:href="../../d3/d9d/Positions_8cxx.html" target="_top" xlink:title="/home/travis/build\l/AliceO2Group/AliceO2\l/Detectors/MUON/MID/Base\l/test/src/Positions.cxx">
<polygon fill="none" stroke="black" points="679.5,-91 679.5,-143 822.5,-143 822.5,-91 679.5,-91"/>
<text text-anchor="start" x="687.5" y="-131" font-family="Helvetica,sans-Serif" font-size="10.00">/home/travis/build</text>
<text text-anchor="start" x="687.5" y="-120" font-family="Helvetica,sans-Serif" font-size="10.00">/AliceO2Group/AliceO2</text>
<text text-anchor="start" x="687.5" y="-109" font-family="Helvetica,sans-Serif" font-size="10.00">/Detectors/MUON/MID/Base</text>
<text text-anchor="middle" x="751" y="-98" font-family="Helvetica,sans-Serif" font-size="10.00">/test/src/Positions.cxx</text>
</a>
</g>
</g>
<!-- Node1&#45;&gt;Node7 -->
<g id="edge6" class="edge"><title>Node1&#45;&gt;Node7</title>
<path fill="none" stroke="midnightblue" d="M781.495,-171.671C776.082,-162.145 770.308,-151.983 765.257,-143.092"/>
<polygon fill="midnightblue" stroke="midnightblue" points="778.555,-173.581 786.538,-180.547 784.641,-170.123 778.555,-173.581"/>
</g>
<!-- Node8 -->
<g id="node8" class="node"><title>Node8</title>
<g id="a_node8"><a xlink:href="../../da/de1/MUON_2MID_2Simulation_2include_2MIDSimulation_2Digitizer_8h.html" target="_top" xlink:title="Digitizer for MID. ">
<polygon fill="none" stroke="black" points="878.5,-91 878.5,-143 1045.5,-143 1045.5,-91 878.5,-91"/>
<text text-anchor="start" x="886.5" y="-131" font-family="Helvetica,sans-Serif" font-size="10.00">/home/travis/build</text>
<text text-anchor="start" x="886.5" y="-120" font-family="Helvetica,sans-Serif" font-size="10.00">/AliceO2Group/AliceO2</text>
<text text-anchor="start" x="886.5" y="-109" font-family="Helvetica,sans-Serif" font-size="10.00">/Detectors/MUON/MID/Simulation</text>
<text text-anchor="middle" x="962" y="-98" font-family="Helvetica,sans-Serif" font-size="10.00">/include/MIDSimulation/Digitizer.h</text>
</a>
</g>
</g>
<!-- Node1&#45;&gt;Node8 -->
<g id="edge7" class="edge"><title>Node1&#45;&gt;Node8</title>
<path fill="none" stroke="midnightblue" d="M855.959,-175.96C875.549,-165.253 897.39,-153.315 916.136,-143.069"/>
<polygon fill="midnightblue" stroke="midnightblue" points="854.232,-172.915 847.136,-180.783 857.59,-179.058 854.232,-172.915"/>
</g>
<!-- Node10 -->
<g id="node10" class="node"><title>Node10</title>
<g id="a_node10"><a xlink:href="../../d6/d45/testSimulation_8cxx.html" target="_top" xlink:title="/home/travis/build\l/AliceO2Group/AliceO2\l/Detectors/MUON/MID/Simulation\l/test/testSimulation.cxx">
<polygon fill="none" stroke="black" points="690.5,-1 690.5,-53 857.5,-53 857.5,-1 690.5,-1"/>
<text text-anchor="start" x="698.5" y="-41" font-family="Helvetica,sans-Serif" font-size="10.00">/home/travis/build</text>
<text text-anchor="start" x="698.5" y="-30" font-family="Helvetica,sans-Serif" font-size="10.00">/AliceO2Group/AliceO2</text>
<text text-anchor="start" x="698.5" y="-19" font-family="Helvetica,sans-Serif" font-size="10.00">/Detectors/MUON/MID/Simulation</text>
<text text-anchor="middle" x="774" y="-8" font-family="Helvetica,sans-Serif" font-size="10.00">/test/testSimulation.cxx</text>
</a>
</g>
</g>
<!-- Node1&#45;&gt;Node10 -->
<g id="edge17" class="edge"><title>Node1&#45;&gt;Node10</title>
<path fill="none" stroke="midnightblue" d="M821.104,-171.375C832.016,-147.957 841.359,-116.573 831,-90 825.583,-76.1045 815.434,-63.4394 805.184,-53.23"/>
<polygon fill="midnightblue" stroke="midnightblue" points="817.853,-170.053 816.552,-180.568 824.126,-173.16 817.853,-170.053"/>
</g>
<!-- Node12 -->
<g id="node12" class="node"><title>Node12</title>
<g id="a_node12"><a xlink:href="../../d1/db4/MUON_2MID_2Simulation_2include_2MIDSimulation_2Geometry_8h.html" target="_top" xlink:title="Implementation of the trigger&#45;stations geometry. ">
<polygon fill="none" stroke="black" points="1209,-91 1209,-143 1381,-143 1381,-91 1209,-91"/>
<text text-anchor="start" x="1217" y="-131" font-family="Helvetica,sans-Serif" font-size="10.00">/home/travis/build</text>
<text text-anchor="start" x="1217" y="-120" font-family="Helvetica,sans-Serif" font-size="10.00">/AliceO2Group/AliceO2</text>
<text text-anchor="start" x="1217" y="-109" font-family="Helvetica,sans-Serif" font-size="10.00">/Detectors/MUON/MID/Simulation</text>
<text text-anchor="middle" x="1295" y="-98" font-family="Helvetica,sans-Serif" font-size="10.00">/include/MIDSimulation/Geometry.h</text>
</a>
</g>
</g>
<!-- Node1&#45;&gt;Node12 -->
<g id="edge11" class="edge"><title>Node1&#45;&gt;Node12</title>
<path fill="none" stroke="midnightblue" d="M911.521,-186.312C1001.41,-170.299 1126.46,-148.023 1209,-133.32"/>
<polygon fill="midnightblue" stroke="midnightblue" points="910.795,-182.886 901.564,-188.086 912.023,-189.778 910.795,-182.886"/>
</g>
<!-- Node15 -->
<g id="node15" class="node"><title>Node15</title>
<g id="a_node15"><a xlink:href="../../d1/d58/MID_2Simulation_2test_2testGeometry_8cxx.html" target="_top" xlink:title="/home/travis/build\l/AliceO2Group/AliceO2\l/Detectors/MUON/MID/Simulation\l/test/testGeometry.cxx">
<polygon fill="none" stroke="black" points="1581.5,-1 1581.5,-53 1748.5,-53 1748.5,-1 1581.5,-1"/>
<text text-anchor="start" x="1589.5" y="-41" font-family="Helvetica,sans-Serif" font-size="10.00">/home/travis/build</text>
<text text-anchor="start" x="1589.5" y="-30" font-family="Helvetica,sans-Serif" font-size="10.00">/AliceO2Group/AliceO2</text>
<text text-anchor="start" x="1589.5" y="-19" font-family="Helvetica,sans-Serif" font-size="10.00">/Detectors/MUON/MID/Simulation</text>
<text text-anchor="middle" x="1665" y="-8" font-family="Helvetica,sans-Serif" font-size="10.00">/test/testGeometry.cxx</text>
</a>
</g>
</g>
<!-- Node1&#45;&gt;Node15 -->
<g id="edge16" class="edge"><title>Node1&#45;&gt;Node15</title>
<path fill="none" stroke="midnightblue" d="M911.858,-204.004C1031.55,-199.623 1226.97,-185.98 1390,-144 1473.05,-122.615 1563.65,-80.399 1617.33,-53.2234"/>
<polygon fill="midnightblue" stroke="midnightblue" points="911.46,-200.516 901.589,-204.364 911.705,-207.511 911.46,-200.516"/>
</g>
<!-- Node16 -->
<g id="node16" class="node"><title>Node16</title>
<g id="a_node16"><a xlink:href="../../db/d8e/MUON_2MID_2Tracking_2include_2MIDTracking_2Tracker_8h.html" target="_top" xlink:title="Track reconstruction algorithm for MID. ">
<polygon fill="none" stroke="black" points="335,-91 335,-143 493,-143 493,-91 335,-91"/>
<text text-anchor="start" x="343" y="-131" font-family="Helvetica,sans-Serif" font-size="10.00">/home/travis/build</text>
<text text-anchor="start" x="343" y="-120" font-family="Helvetica,sans-Serif" font-size="10.00">/AliceO2Group/AliceO2</text>
<text text-anchor="start" x="343" y="-109" font-family="Helvetica,sans-Serif" font-size="10.00">/Detectors/MUON/MID/Tracking</text>
<text text-anchor="middle" x="414" y="-98" font-family="Helvetica,sans-Serif" font-size="10.00">/include/MIDTracking/Tracker.h</text>
</a>
</g>
</g>
<!-- Node1&#45;&gt;Node16 -->
<g id="edge18" class="edge"><title>Node1&#45;&gt;Node16</title>
<path fill="none" stroke="midnightblue" d="M690.139,-185.285C633.581,-174.143 563.847,-159.52 502,-144 499.064,-143.263 496.079,-142.493 493.069,-141.697"/>
<polygon fill="midnightblue" stroke="midnightblue" points="689.692,-188.764 700.179,-187.254 691.039,-181.895 689.692,-188.764"/>
</g>
<!-- Node3 -->
<g id="node3" class="node"><title>Node3</title>
<g id="a_node3"><a xlink:href="../../d4/dc0/HitFinder_8cxx.html" target="_top" xlink:title="Implementation of the hit finder for MID. ">
<polygon fill="none" stroke="black" points="-0.5,-1 -0.5,-53 142.5,-53 142.5,-1 -0.5,-1"/>
<text text-anchor="start" x="7.5" y="-41" font-family="Helvetica,sans-Serif" font-size="10.00">/home/travis/build</text>
<text text-anchor="start" x="7.5" y="-30" font-family="Helvetica,sans-Serif" font-size="10.00">/AliceO2Group/AliceO2</text>
<text text-anchor="start" x="7.5" y="-19" font-family="Helvetica,sans-Serif" font-size="10.00">/Detectors/MUON/MID/Base</text>
<text text-anchor="middle" x="71" y="-8" font-family="Helvetica,sans-Serif" font-size="10.00">/src/HitFinder.cxx</text>
</a>
</g>
</g>
<!-- Node2&#45;&gt;Node3 -->
<g id="edge2" class="edge"><title>Node2&#45;&gt;Node3</title>
<path fill="none" stroke="midnightblue" d="M183.248,-86.1047C162.491,-75.3602 139.31,-63.3607 119.428,-53.0687"/>
<polygon fill="midnightblue" stroke="midnightblue" points="181.795,-89.2939 192.285,-90.7827 185.013,-83.0774 181.795,-89.2939"/>
</g>
<!-- Node4 -->
<g id="node4" class="node"><title>Node4</title>
<g id="a_node4"><a xlink:href="../../d0/db9/bench__Tracker_8cxx.html" target="_top" xlink:title="Benchmark tracker device for MID. ">
<polygon fill="none" stroke="black" points="337,-1 337,-53 495,-53 495,-1 337,-1"/>
<text text-anchor="start" x="345" y="-41" font-family="Helvetica,sans-Serif" font-size="10.00">/home/travis/build</text>
<text text-anchor="start" x="345" y="-30" font-family="Helvetica,sans-Serif" font-size="10.00">/AliceO2Group/AliceO2</text>
<text text-anchor="start" x="345" y="-19" font-family="Helvetica,sans-Serif" font-size="10.00">/Detectors/MUON/MID/Tracking</text>
<text text-anchor="middle" x="416" y="-8" font-family="Helvetica,sans-Serif" font-size="10.00">/test/bench_Tracker.cxx</text>
</a>
</g>
</g>
<!-- Node2&#45;&gt;Node4 -->
<g id="edge3" class="edge"><title>Node2&#45;&gt;Node4</title>
<path fill="none" stroke="midnightblue" d="M300.163,-86.2492C321.604,-75.4678 345.589,-63.4068 366.147,-53.0687"/>
<polygon fill="midnightblue" stroke="midnightblue" points="298.51,-83.1632 291.148,-90.7827 301.654,-89.417 298.51,-83.1632"/>
</g>
<!-- Node5 -->
<g id="node5" class="node"><title>Node5</title>
<g id="a_node5"><a xlink:href="../../da/de0/testTracker_8cxx.html" target="_top" xlink:title="Test tracking device for MID. ">
<polygon fill="none" stroke="black" points="161,-1 161,-53 319,-53 319,-1 161,-1"/>
<text text-anchor="start" x="169" y="-41" font-family="Helvetica,sans-Serif" font-size="10.00">/home/travis/build</text>
<text text-anchor="start" x="169" y="-30" font-family="Helvetica,sans-Serif" font-size="10.00">/AliceO2Group/AliceO2</text>
<text text-anchor="start" x="169" y="-19" font-family="Helvetica,sans-Serif" font-size="10.00">/Detectors/MUON/MID/Tracking</text>
<text text-anchor="middle" x="240" y="-8" font-family="Helvetica,sans-Serif" font-size="10.00">/test/testTracker.cxx</text>
</a>
</g>
</g>
<!-- Node2&#45;&gt;Node5 -->
<g id="edge4" class="edge"><title>Node2&#45;&gt;Node5</title>
<path fill="none" stroke="midnightblue" d="M240.596,-80.4892C240.492,-71.3088 240.382,-61.616 240.285,-53.0921"/>
<polygon fill="midnightblue" stroke="midnightblue" points="237.097,-80.5872 240.711,-90.5468 244.097,-80.5076 237.097,-80.5872"/>
</g>
<!-- Node9 -->
<g id="node9" class="node"><title>Node9</title>
<g id="a_node9"><a xlink:href="../../d6/df9/MUON_2MID_2Simulation_2src_2Digitizer_8cxx.html" target="_top" xlink:title="Implementation of the digitizer for MID. ">
<polygon fill="none" stroke="black" points="875.5,-1 875.5,-53 1042.5,-53 1042.5,-1 875.5,-1"/>
<text text-anchor="start" x="883.5" y="-41" font-family="Helvetica,sans-Serif" font-size="10.00">/home/travis/build</text>
<text text-anchor="start" x="883.5" y="-30" font-family="Helvetica,sans-Serif" font-size="10.00">/AliceO2Group/AliceO2</text>
<text text-anchor="start" x="883.5" y="-19" font-family="Helvetica,sans-Serif" font-size="10.00">/Detectors/MUON/MID/Simulation</text>
<text text-anchor="middle" x="959" y="-8" font-family="Helvetica,sans-Serif" font-size="10.00">/src/Digitizer.cxx</text>
</a>
</g>
</g>
<!-- Node8&#45;&gt;Node9 -->
<g id="edge8" class="edge"><title>Node8&#45;&gt;Node9</title>
<path fill="none" stroke="midnightblue" d="M960.789,-80.4892C960.476,-71.3088 960.146,-61.616 959.855,-53.0921"/>
<polygon fill="midnightblue" stroke="midnightblue" points="957.294,-80.6718 961.132,-90.5468 964.289,-80.4333 957.294,-80.6718"/>
</g>
<!-- Node8&#45;&gt;Node10 -->
<g id="edge9" class="edge"><title>Node8&#45;&gt;Node10</title>
<path fill="none" stroke="midnightblue" d="M899.305,-86.6536C876.102,-75.7923 850.025,-63.5862 827.693,-53.1328"/>
<polygon fill="midnightblue" stroke="midnightblue" points="897.838,-89.831 908.378,-90.9005 900.805,-83.4911 897.838,-89.831"/>
</g>
<!-- Node11 -->
<g id="node11" class="node"><title>Node11</title>
<g id="a_node11"><a xlink:href="../../d4/dd3/MIDDigitizerSpec_8cxx.html" target="_top" xlink:title="/home/travis/build\l/AliceO2Group/AliceO2\l/Steer/DigitizerWorkflow\l/src/MIDDigitizerSpec.cxx">
<polygon fill="none" stroke="black" points="1061,-1 1061,-53 1193,-53 1193,-1 1061,-1"/>
<text text-anchor="start" x="1069" y="-41" font-family="Helvetica,sans-Serif" font-size="10.00">/home/travis/build</text>
<text text-anchor="start" x="1069" y="-30" font-family="Helvetica,sans-Serif" font-size="10.00">/AliceO2Group/AliceO2</text>
<text text-anchor="start" x="1069" y="-19" font-family="Helvetica,sans-Serif" font-size="10.00">/Steer/DigitizerWorkflow</text>
<text text-anchor="middle" x="1127" y="-8" font-family="Helvetica,sans-Serif" font-size="10.00">/src/MIDDigitizerSpec.cxx</text>
</a>
</g>
</g>
<!-- Node8&#45;&gt;Node11 -->
<g id="edge10" class="edge"><title>Node8&#45;&gt;Node11</title>
<path fill="none" stroke="midnightblue" d="M1018.32,-85.9601C1038.4,-75.2526 1060.79,-63.3145 1080,-53.0687"/>
<polygon fill="midnightblue" stroke="midnightblue" points="1016.46,-82.9886 1009.28,-90.7827 1019.75,-89.165 1016.46,-82.9886"/>
</g>
<!-- Node12&#45;&gt;Node11 -->
<g id="edge15" class="edge"><title>Node12&#45;&gt;Node11</title>
<path fill="none" stroke="midnightblue" d="M1237.93,-86.1047C1217.41,-75.3602 1194.51,-63.3607 1174.86,-53.0687"/>
<polygon fill="midnightblue" stroke="midnightblue" points="1236.38,-89.243 1246.86,-90.7827 1239.62,-83.0422 1236.38,-89.243"/>
</g>
<!-- Node13 -->
<g id="node13" class="node"><title>Node13</title>
<g id="a_node13"><a xlink:href="../../db/dac/MUON_2MID_2Simulation_2src_2Detector_8cxx.html" target="_top" xlink:title="/home/travis/build\l/AliceO2Group/AliceO2\l/Detectors/MUON/MID/Simulation\l/src/Detector.cxx">
<polygon fill="none" stroke="black" points="1211.5,-1 1211.5,-53 1378.5,-53 1378.5,-1 1211.5,-1"/>
<text text-anchor="start" x="1219.5" y="-41" font-family="Helvetica,sans-Serif" font-size="10.00">/home/travis/build</text>
<text text-anchor="start" x="1219.5" y="-30" font-family="Helvetica,sans-Serif" font-size="10.00">/AliceO2Group/AliceO2</text>
<text text-anchor="start" x="1219.5" y="-19" font-family="Helvetica,sans-Serif" font-size="10.00">/Detectors/MUON/MID/Simulation</text>
<text text-anchor="middle" x="1295" y="-8" font-family="Helvetica,sans-Serif" font-size="10.00">/src/Detector.cxx</text>
</a>
</g>
</g>
<!-- Node12&#45;&gt;Node13 -->
<g id="edge12" class="edge"><title>Node12&#45;&gt;Node13</title>
<path fill="none" stroke="midnightblue" d="M1295,-80.4892C1295,-71.3088 1295,-61.616 1295,-53.0921"/>
<polygon fill="midnightblue" stroke="midnightblue" points="1291.5,-80.5467 1295,-90.5468 1298.5,-80.5468 1291.5,-80.5467"/>
</g>
<!-- Node14 -->
<g id="node14" class="node"><title>Node14</title>
<g id="a_node14"><a xlink:href="../../d7/de7/MUON_2MID_2Simulation_2src_2Geometry_8cxx.html" target="_top" xlink:title="Implementation of the trigger&#45;stations geometry. ">
<polygon fill="none" stroke="black" points="1396.5,-1 1396.5,-53 1563.5,-53 1563.5,-1 1396.5,-1"/>
<text text-anchor="start" x="1404.5" y="-41" font-family="Helvetica,sans-Serif" font-size="10.00">/home/travis/build</text>
<text text-anchor="start" x="1404.5" y="-30" font-family="Helvetica,sans-Serif" font-size="10.00">/AliceO2Group/AliceO2</text>
<text text-anchor="start" x="1404.5" y="-19" font-family="Helvetica,sans-Serif" font-size="10.00">/Detectors/MUON/MID/Simulation</text>
<text text-anchor="middle" x="1480" y="-8" font-family="Helvetica,sans-Serif" font-size="10.00">/src/Geometry.cxx</text>
</a>
</g>
</g>
<!-- Node12&#45;&gt;Node14 -->
<g id="edge13" class="edge"><title>Node12&#45;&gt;Node14</title>
<path fill="none" stroke="midnightblue" d="M1357.24,-86.3935C1379.98,-75.5755 1405.47,-63.453 1427.3,-53.0687"/>
<polygon fill="midnightblue" stroke="midnightblue" points="1355.54,-83.3265 1348.01,-90.7827 1358.55,-89.6478 1355.54,-83.3265"/>
</g>
<!-- Node12&#45;&gt;Node15 -->
<g id="edge14" class="edge"><title>Node12&#45;&gt;Node15</title>
<path fill="none" stroke="midnightblue" d="M1390.87,-95.8364C1444.34,-84.2666 1512.05,-69.0786 1572,-54 1575.09,-53.223 1578.23,-52.4182 1581.4,-51.5939"/>
<polygon fill="midnightblue" stroke="midnightblue" points="1390.1,-92.4232 1381.06,-97.9537 1391.57,-99.2657 1390.1,-92.4232"/>
</g>
<!-- Node16&#45;&gt;Node4 -->
<g id="edge20" class="edge"><title>Node16&#45;&gt;Node4</title>
<path fill="none" stroke="midnightblue" d="M414.807,-80.4892C415.016,-71.3088 415.236,-61.616 415.43,-53.0921"/>
<polygon fill="midnightblue" stroke="midnightblue" points="411.307,-80.4698 414.578,-90.5468 418.305,-80.6289 411.307,-80.4698"/>
</g>
<!-- Node16&#45;&gt;Node5 -->
<g id="edge21" class="edge"><title>Node16&#45;&gt;Node5</title>
<path fill="none" stroke="midnightblue" d="M355.175,-86.2492C333.857,-75.4678 310.009,-63.4068 289.568,-53.0687"/>
<polygon fill="midnightblue" stroke="midnightblue" points="353.635,-89.3928 364.139,-90.7827 356.795,-83.1463 353.635,-89.3928"/>
</g>
<!-- Node17 -->
<g id="node17" class="node"><title>Node17</title>
<g id="a_node17"><a xlink:href="../../de/dbc/MUON_2MID_2Tracking_2src_2Tracker_8cxx.html" target="_top" xlink:title="Implementation of the tracker algorithm for the MID. ">
<polygon fill="none" stroke="black" points="513,-1 513,-53 671,-53 671,-1 513,-1"/>
<text text-anchor="start" x="521" y="-41" font-family="Helvetica,sans-Serif" font-size="10.00">/home/travis/build</text>
<text text-anchor="start" x="521" y="-30" font-family="Helvetica,sans-Serif" font-size="10.00">/AliceO2Group/AliceO2</text>
<text text-anchor="start" x="521" y="-19" font-family="Helvetica,sans-Serif" font-size="10.00">/Detectors/MUON/MID/Tracking</text>
<text text-anchor="middle" x="592" y="-8" font-family="Helvetica,sans-Serif" font-size="10.00">/src/Tracker.cxx</text>
</a>
</g>
</g>
<!-- Node16&#45;&gt;Node17 -->
<g id="edge19" class="edge"><title>Node16&#45;&gt;Node17</title>
<path fill="none" stroke="midnightblue" d="M474.178,-86.2492C495.986,-75.4678 520.382,-63.4068 541.293,-53.0687"/>
<polygon fill="midnightblue" stroke="midnightblue" points="472.421,-83.2134 465.008,-90.7827 475.523,-89.4884 472.421,-83.2134"/>
</g>
</g>
</svg>
