<?xml version="1.0" encoding="UTF-8" standalone="no"?>
<!DOCTYPE svg PUBLIC "-//W3C//DTD SVG 1.1//EN"
 "http://www.w3.org/Graphics/SVG/1.1/DTD/svg11.dtd">
<!-- Generated by graphviz version 2.36.0 (20140111.2315)
 -->
<!-- Title: /home/travis/build/AliceO2Group/AliceO2/Detectors/EMCAL/simulation/include/EMCALSimulation/Digitizer.h Pages: 1 -->
<svg width="2582pt" height="390pt"
 viewBox="0.00 0.00 2582.00 390.00" xmlns="http://www.w3.org/2000/svg" xmlns:xlink="http://www.w3.org/1999/xlink">
<g id="graph0" class="graph" transform="scale(1 1) rotate(0) translate(4 386)">
<title>/home/travis/build/AliceO2Group/AliceO2/Detectors/EMCAL/simulation/include/EMCALSimulation/Digitizer.h</title>
<!-- Node1 -->
<g id="node1" class="node"><title>Node1</title>
<polygon fill="#bfbfbf" stroke="black" points="800.5,-329 800.5,-381 981.5,-381 981.5,-329 800.5,-329"/>
<text text-anchor="start" x="808.5" y="-369" font-family="Helvetica,sans-Serif" font-size="10.00">/home/travis/build</text>
<text text-anchor="start" x="808.5" y="-358" font-family="Helvetica,sans-Serif" font-size="10.00">/AliceO2Group/AliceO2</text>
<text text-anchor="start" x="808.5" y="-347" font-family="Helvetica,sans-Serif" font-size="10.00">/Detectors/EMCAL/simulation</text>
<text text-anchor="middle" x="891" y="-336" font-family="Helvetica,sans-Serif" font-size="10.00">/include/EMCALSimulation/Digitizer.h</text>
</g>
<!-- Node2 -->
<g id="node2" class="node"><title>Node2</title>
<polygon fill="none" stroke="#bfbfbf" points="0,-272.5 0,-291.5 52,-291.5 52,-272.5 0,-272.5"/>
<text text-anchor="middle" x="26" y="-279.5" font-family="Helvetica,sans-Serif" font-size="10.00">memory</text>
</g>
<!-- Node1&#45;&gt;Node2 -->
<g id="edge1" class="edge"><title>Node1&#45;&gt;Node2</title>
<path fill="none" stroke="midnightblue" d="M800.414,-352.472C649.046,-348.767 335.228,-336.167 62.364,-291.941"/>
<polygon fill="midnightblue" stroke="midnightblue" points="62.7014,-288.449 52.267,-290.286 61.5696,-295.357 62.7014,-288.449"/>
</g>
<!-- Node3 -->
<g id="node3" class="node"><title>Node3</title>
<polygon fill="none" stroke="#bfbfbf" points="70.5,-272.5 70.5,-291.5 153.5,-291.5 153.5,-272.5 70.5,-272.5"/>
<text text-anchor="middle" x="112" y="-279.5" font-family="Helvetica,sans-Serif" font-size="10.00">unordered_map</text>
</g>
<!-- Node1&#45;&gt;Node3 -->
<g id="edge2" class="edge"><title>Node1&#45;&gt;Node3</title>
<path fill="none" stroke="midnightblue" d="M800.322,-348.381C663.141,-339.393 394.788,-319.909 168,-292 166.534,-291.82 165.048,-291.629 163.548,-291.431"/>
<polygon fill="midnightblue" stroke="midnightblue" points="163.931,-287.951 153.541,-290.026 162.957,-294.883 163.931,-287.951"/>
</g>
<!-- Node4 -->
<g id="node4" class="node"><title>Node4</title>
<polygon fill="none" stroke="#bfbfbf" points="798,-142.5 798,-161.5 842,-161.5 842,-142.5 798,-142.5"/>
<text text-anchor="middle" x="820" y="-149.5" font-family="Helvetica,sans-Serif" font-size="10.00">vector</text>
</g>
<!-- Node1&#45;&gt;Node4 -->
<g id="edge3" class="edge"><title>Node1&#45;&gt;Node4</title>
<path fill="none" stroke="midnightblue" d="M898.91,-328.755C902.827,-312.286 905.639,-290.494 900,-272 887.374,-230.587 854.981,-190.521 835.506,-169.085"/>
<polygon fill="midnightblue" stroke="midnightblue" points="837.887,-166.506 828.51,-161.574 832.765,-171.277 837.887,-166.506"/>
</g>
<!-- Node5 -->
<g id="node5" class="node"><title>Node5</title>
<polygon fill="none" stroke="#bfbfbf" points="732.5,-272.5 732.5,-291.5 775.5,-291.5 775.5,-272.5 732.5,-272.5"/>
<text text-anchor="middle" x="754" y="-279.5" font-family="Helvetica,sans-Serif" font-size="10.00">deque</text>
</g>
<!-- Node1&#45;&gt;Node5 -->
<g id="edge4" class="edge"><title>Node1&#45;&gt;Node5</title>
<path fill="none" stroke="midnightblue" d="M842.699,-328.968C821.509,-317.986 797.487,-305.537 779.791,-296.366"/>
<polygon fill="midnightblue" stroke="midnightblue" points="781.158,-293.133 770.669,-291.639 777.937,-299.348 781.158,-293.133"/>
</g>
<!-- Node6 -->
<g id="node6" class="node"><title>Node6</title>
<polygon fill="none" stroke="#bfbfbf" points="481,-74.5 481,-93.5 537,-93.5 537,-74.5 481,-74.5"/>
<text text-anchor="middle" x="509" y="-81.5" font-family="Helvetica,sans-Serif" font-size="10.00">Rtypes.h</text>
</g>
<!-- Node1&#45;&gt;Node6 -->
<g id="edge5" class="edge"><title>Node1&#45;&gt;Node6</title>
<path fill="none" stroke="midnightblue" d="M800.37,-343.191C630.248,-320.832 273.65,-263.456 201,-168 192.387,-156.683 191.801,-146.847 201,-136 235.164,-95.7137 395.853,-87.2091 470.594,-85.4442"/>
<polygon fill="midnightblue" stroke="midnightblue" points="471.047,-88.9357 480.973,-85.2298 470.902,-81.9372 471.047,-88.9357"/>
</g>
<!-- Node7 -->
<g id="node7" class="node"><title>Node7</title>
<polygon fill="none" stroke="#bfbfbf" points="832.5,-272.5 832.5,-291.5 891.5,-291.5 891.5,-272.5 832.5,-272.5"/>
<text text-anchor="middle" x="862" y="-279.5" font-family="Helvetica,sans-Serif" font-size="10.00">TObject.h</text>
</g>
<!-- Node1&#45;&gt;Node7 -->
<g id="edge6" class="edge"><title>Node1&#45;&gt;Node7</title>
<path fill="none" stroke="midnightblue" d="M880.694,-328.768C876.985,-319.688 872.876,-309.627 869.457,-301.256"/>
<polygon fill="midnightblue" stroke="midnightblue" points="872.598,-299.691 865.577,-291.757 866.118,-302.338 872.598,-299.691"/>
</g>
<!-- Node8 -->
<g id="node8" class="node"><title>Node8</title>
<g id="a_node8"><a xlink:href="../../dd/dc7/EMCAL_2base_2include_2EMCALBase_2Digit_8h.html" target="_top" xlink:title="EMCALBase/Digit.h">
<polygon fill="none" stroke="black" points="456.5,-210.5 456.5,-229.5 561.5,-229.5 561.5,-210.5 456.5,-210.5"/>
<text text-anchor="middle" x="509" y="-217.5" font-family="Helvetica,sans-Serif" font-size="10.00">EMCALBase/Digit.h</text>
</a>
</g>
</g>
<!-- Node1&#45;&gt;Node8 -->
<g id="edge7" class="edge"><title>Node1&#45;&gt;Node8</title>
<path fill="none" stroke="midnightblue" d="M865.583,-328.901C845.215,-310.27 815.005,-285.795 784,-272 715.259,-241.415 628.987,-229.171 571.588,-224.269"/>
<polygon fill="midnightblue" stroke="midnightblue" points="571.82,-220.777 561.571,-223.464 571.258,-227.754 571.82,-220.777"/>
</g>
<!-- Node14 -->
<g id="node14" class="node"><title>Node14</title>
<g id="a_node14"><a xlink:href="../../dd/da8/EMCAL_2base_2include_2EMCALBase_2Geometry_8h.html" target="_top" xlink:title="EMCALBase/Geometry.h">
<polygon fill="none" stroke="black" points="1047,-210.5 1047,-229.5 1175,-229.5 1175,-210.5 1047,-210.5"/>
<text text-anchor="middle" x="1111" y="-217.5" font-family="Helvetica,sans-Serif" font-size="10.00">EMCALBase/Geometry.h</text>
</a>
</g>
</g>
<!-- Node1&#45;&gt;Node14 -->
<g id="edge16" class="edge"><title>Node1&#45;&gt;Node14</title>
<path fill="none" stroke="midnightblue" d="M932.38,-328.984C978.313,-301.216 1050.82,-257.38 1087.74,-235.063"/>
<polygon fill="midnightblue" stroke="midnightblue" points="1089.99,-237.791 1096.74,-229.622 1086.37,-231.801 1089.99,-237.791"/>
</g>
<!-- Node23 -->
<g id="node23" class="node"><title>Node23</title>
<g id="a_node23"><a xlink:href="../../d5/d5e/GeometryBase_8h.html" target="_top" xlink:title="EMCALBase/GeometryBase.h">
<polygon fill="none" stroke="black" points="1295,-142.5 1295,-161.5 1445,-161.5 1445,-142.5 1295,-142.5"/>
<text text-anchor="middle" x="1370" y="-149.5" font-family="Helvetica,sans-Serif" font-size="10.00">EMCALBase/GeometryBase.h</text>
</a>
</g>
</g>
<!-- Node1&#45;&gt;Node23 -->
<g id="edge42" class="edge"><title>Node1&#45;&gt;Node23</title>
<path fill="none" stroke="midnightblue" d="M955.295,-328.895C1014.85,-305.456 1105.75,-269.201 1184,-236 1240.38,-212.075 1305.62,-182.528 1341.92,-165.92"/>
<polygon fill="midnightblue" stroke="midnightblue" points="1343.72,-168.942 1351.36,-161.594 1340.81,-162.579 1343.72,-168.942"/>
</g>
<!-- Node34 -->
<g id="node34" class="node"><title>Node34</title>
<g id="a_node34"><a xlink:href="../../d5/d8b/EMCAL_2base_2include_2EMCALBase_2Hit_8h.html" target="_top" xlink:title="EMCALBase/Hit.h">
<polygon fill="none" stroke="black" points="1515,-272.5 1515,-291.5 1613,-291.5 1613,-272.5 1515,-272.5"/>
<text text-anchor="middle" x="1564" y="-279.5" font-family="Helvetica,sans-Serif" font-size="10.00">EMCALBase/Hit.h</text>
</a>
</g>
</g>
<!-- Node1&#45;&gt;Node34 -->
<g id="edge43" class="edge"><title>Node1&#45;&gt;Node34</title>
<path fill="none" stroke="midnightblue" d="M981.764,-344.425C1121.77,-329.654 1386.57,-301.718 1504.62,-289.265"/>
<polygon fill="midnightblue" stroke="midnightblue" points="1505.32,-292.71 1514.9,-288.18 1504.58,-285.749 1505.32,-292.71"/>
</g>
<!-- Node43 -->
<g id="node43" class="node"><title>Node43</title>
<g id="a_node43"><a xlink:href="../../d2/d7a/EMCAL_2simulation_2include_2EMCALSimulation_2MCLabel_8h.html" target="_top" xlink:title="EMCALSimulation/MCLabel.h">
<polygon fill="none" stroke="black" points="1857.5,-272.5 1857.5,-291.5 2004.5,-291.5 2004.5,-272.5 1857.5,-272.5"/>
<text text-anchor="middle" x="1931" y="-279.5" font-family="Helvetica,sans-Serif" font-size="10.00">EMCALSimulation/MCLabel.h</text>
</a>
</g>
</g>
<!-- Node1&#45;&gt;Node43 -->
<g id="edge53" class="edge"><title>Node1&#45;&gt;Node43</title>
<path fill="none" stroke="midnightblue" d="M981.927,-347.792C1181.28,-334.183 1654.36,-301.886 1847.09,-288.728"/>
<polygon fill="midnightblue" stroke="midnightblue" points="1847.43,-292.214 1857.17,-288.04 1846.95,-285.23 1847.43,-292.214"/>
</g>
<!-- Node46 -->
<g id="node46" class="node"><title>Node46</title>
<g id="a_node46"><a xlink:href="../../db/d14/MCTruthContainer_8h.html" target="_top" xlink:title="Definition of a container to keep Monte Carlo truth external to simulation objects. ">
<polygon fill="none" stroke="black" points="2297,-205 2297,-235 2411,-235 2411,-205 2297,-205"/>
<text text-anchor="start" x="2305" y="-223" font-family="Helvetica,sans-Serif" font-size="10.00">SimulationDataFormat</text>
<text text-anchor="middle" x="2354" y="-212" font-family="Helvetica,sans-Serif" font-size="10.00">/MCTruthContainer.h</text>
</a>
</g>
</g>
<!-- Node1&#45;&gt;Node46 -->
<g id="edge56" class="edge"><title>Node1&#45;&gt;Node46</title>
<path fill="none" stroke="midnightblue" d="M981.595,-353.592C1172.93,-351.722 1631.93,-341.913 2013,-292 2110.29,-279.256 2221.25,-254.141 2289.46,-237.459"/>
<polygon fill="midnightblue" stroke="midnightblue" points="2290.34,-240.849 2299.21,-235.061 2288.66,-234.051 2290.34,-240.849"/>
</g>
<!-- Node8&#45;&gt;Node6 -->
<g id="edge10" class="edge"><title>Node8&#45;&gt;Node6</title>
<path fill="none" stroke="midnightblue" d="M456.399,-211.253C400.069,-200.632 322.609,-177.91 353,-136 379.643,-99.2591 433.521,-88.4946 470.43,-85.6052"/>
<polygon fill="midnightblue" stroke="midnightblue" points="471.057,-89.0732 480.822,-84.9623 470.625,-82.0865 471.057,-89.0732"/>
</g>
<!-- Node9 -->
<g id="node9" class="node"><title>Node9</title>
<polygon fill="none" stroke="#bfbfbf" points="921.5,-74.5 921.5,-93.5 966.5,-93.5 966.5,-74.5 921.5,-74.5"/>
<text text-anchor="middle" x="944" y="-81.5" font-family="Helvetica,sans-Serif" font-size="10.00">iosfwd</text>
</g>
<!-- Node8&#45;&gt;Node9 -->
<g id="edge8" class="edge"><title>Node8&#45;&gt;Node9</title>
<path fill="none" stroke="midnightblue" d="M527.304,-210.449C546.725,-201.064 577.997,-185.051 603,-168 621.242,-155.56 620.803,-144.922 641,-136 752.141,-86.9024 795.406,-134.185 912,-100 914.285,-99.33 916.613,-98.5184 918.918,-97.6234"/>
<polygon fill="midnightblue" stroke="midnightblue" points="920.327,-100.828 928.097,-93.6253 917.531,-94.4099 920.327,-100.828"/>
</g>
<!-- Node10 -->
<g id="node10" class="node"><title>Node10</title>
<polygon fill="none" stroke="#bfbfbf" points="362,-142.5 362,-161.5 406,-161.5 406,-142.5 362,-142.5"/>
<text text-anchor="middle" x="384" y="-149.5" font-family="Helvetica,sans-Serif" font-size="10.00">cmath</text>
</g>
<!-- Node8&#45;&gt;Node10 -->
<g id="edge9" class="edge"><title>Node8&#45;&gt;Node10</title>
<path fill="none" stroke="midnightblue" d="M492.658,-210.372C471.416,-199.156 434.101,-179.453 409.215,-166.314"/>
<polygon fill="midnightblue" stroke="midnightblue" points="410.823,-163.205 400.346,-161.63 407.554,-169.395 410.823,-163.205"/>
</g>
<!-- Node11 -->
<g id="node11" class="node"><title>Node11</title>
<g id="a_node11"><a xlink:href="../../df/d5d/common_2include_2CommonDataFormat_2TimeStamp_8h.html" target="_top" xlink:title="CommonDataFormat/TimeStamp.h">
<polygon fill="none" stroke="black" points="424,-142.5 424,-161.5 594,-161.5 594,-142.5 424,-142.5"/>
<text text-anchor="middle" x="509" y="-149.5" font-family="Helvetica,sans-Serif" font-size="10.00">CommonDataFormat/TimeStamp.h</text>
</a>
</g>
</g>
<!-- Node8&#45;&gt;Node11 -->
<g id="edge11" class="edge"><title>Node8&#45;&gt;Node11</title>
<path fill="none" stroke="midnightblue" d="M509,-210.372C509,-200.643 509,-184.528 509,-171.85"/>
<polygon fill="midnightblue" stroke="midnightblue" points="512.5,-171.841 509,-161.841 505.5,-171.841 512.5,-171.841"/>
</g>
<!-- Node12 -->
<g id="node12" class="node"><title>Node12</title>
<g id="a_node12"><a xlink:href="../../d4/d82/Detectors_2EMCAL_2base_2include_2EMCALBase_2Constants_8h.html" target="_top" xlink:title="EMCALBase/Constants.h">
<polygon fill="none" stroke="black" points="650,-142.5 650,-161.5 780,-161.5 780,-142.5 650,-142.5"/>
<text text-anchor="middle" x="715" y="-149.5" font-family="Helvetica,sans-Serif" font-size="10.00">EMCALBase/Constants.h</text>
</a>
</g>
</g>
<!-- Node8&#45;&gt;Node12 -->
<g id="edge13" class="edge"><title>Node8&#45;&gt;Node12</title>
<path fill="none" stroke="midnightblue" d="M535.931,-210.372C572.504,-198.654 637.988,-177.674 678.821,-164.591"/>
<polygon fill="midnightblue" stroke="midnightblue" points="679.934,-167.91 688.389,-161.526 677.798,-161.244 679.934,-167.91"/>
</g>
<!-- Node13 -->
<g id="node13" class="node"><title>Node13</title>
<polygon fill="none" stroke="#bfbfbf" points="210.5,-137 210.5,-167 305.5,-167 305.5,-137 210.5,-137"/>
<text text-anchor="start" x="218.5" y="-155" font-family="Helvetica,sans-Serif" font-size="10.00">boost/serialization</text>
<text text-anchor="middle" x="258" y="-144" font-family="Helvetica,sans-Serif" font-size="10.00">/base_object.hpp</text>
</g>
<!-- Node8&#45;&gt;Node13 -->
<g id="edge15" class="edge"><title>Node8&#45;&gt;Node13</title>
<path fill="none" stroke="midnightblue" d="M476.443,-210.439C435.655,-199.714 365.067,-181.153 315.187,-168.037"/>
<polygon fill="midnightblue" stroke="midnightblue" points="316.063,-164.649 305.502,-165.49 314.283,-171.419 316.063,-164.649"/>
</g>
<!-- Node11&#45;&gt;Node6 -->
<g id="edge12" class="edge"><title>Node11&#45;&gt;Node6</title>
<path fill="none" stroke="midnightblue" d="M509,-142.372C509,-132.643 509,-116.528 509,-103.85"/>
<polygon fill="midnightblue" stroke="midnightblue" points="512.5,-103.841 509,-93.8411 505.5,-103.841 512.5,-103.841"/>
</g>
<!-- Node12&#45;&gt;Node6 -->
<g id="edge14" class="edge"><title>Node12&#45;&gt;Node6</title>
<path fill="none" stroke="midnightblue" d="M688.069,-142.372C651.496,-130.654 586.012,-109.674 545.179,-96.5912"/>
<polygon fill="midnightblue" stroke="midnightblue" points="546.202,-93.2439 535.611,-93.5259 544.066,-99.9102 546.202,-93.2439"/>
</g>
<!-- Node14&#45;&gt;Node4 -->
<g id="edge20" class="edge"><title>Node14&#45;&gt;Node4</title>
<path fill="none" stroke="midnightblue" d="M1046.78,-211.093C993.424,-203.418 916.012,-189.702 851,-168 849.086,-167.361 847.138,-166.63 845.198,-165.842"/>
<polygon fill="midnightblue" stroke="midnightblue" points="846.316,-162.507 835.761,-161.593 843.442,-168.89 846.316,-162.507"/>
</g>
<!-- Node14&#45;&gt;Node12 -->
<g id="edge26" class="edge"><title>Node14&#45;&gt;Node12</title>
<path fill="none" stroke="midnightblue" d="M1052.41,-210.492C987.779,-200.928 880.766,-184.56 789,-168 781.381,-166.625 773.338,-165.086 765.474,-163.532"/>
<polygon fill="midnightblue" stroke="midnightblue" points="766.144,-160.097 755.652,-161.567 764.771,-166.961 766.144,-160.097"/>
</g>
<!-- Node15 -->
<g id="node15" class="node"><title>Node15</title>
<polygon fill="none" stroke="#bfbfbf" points="1161.5,-142.5 1161.5,-161.5 1220.5,-161.5 1220.5,-142.5 1161.5,-142.5"/>
<text text-anchor="middle" x="1191" y="-149.5" font-family="Helvetica,sans-Serif" font-size="10.00">exception</text>
</g>
<!-- Node14&#45;&gt;Node15 -->
<g id="edge17" class="edge"><title>Node14&#45;&gt;Node15</title>
<path fill="none" stroke="midnightblue" d="M1121.46,-210.372C1134.39,-199.699 1156.65,-181.343 1172.49,-168.268"/>
<polygon fill="midnightblue" stroke="midnightblue" points="1175.05,-170.694 1180.54,-161.63 1170.6,-165.295 1175.05,-170.694"/>
</g>
<!-- Node16 -->
<g id="node16" class="node"><title>Node16</title>
<polygon fill="none" stroke="#bfbfbf" points="862.5,-74.5 862.5,-93.5 903.5,-93.5 903.5,-74.5 862.5,-74.5"/>
<text text-anchor="middle" x="883" y="-81.5" font-family="Helvetica,sans-Serif" font-size="10.00">string</text>
</g>
<!-- Node14&#45;&gt;Node16 -->
<g id="edge18" class="edge"><title>Node14&#45;&gt;Node16</title>
<path fill="none" stroke="midnightblue" d="M1083.23,-210.352C1057.3,-201.647 1018.05,-186.827 987,-168 968.12,-156.553 966.184,-149.864 949,-136 933.617,-123.588 915.874,-109.913 902.662,-99.8502"/>
<polygon fill="midnightblue" stroke="midnightblue" points="904.404,-96.779 894.323,-93.5208 900.172,-102.355 904.404,-96.779"/>
</g>
<!-- Node17 -->
<g id="node17" class="node"><title>Node17</title>
<polygon fill="none" stroke="#bfbfbf" points="1239,-142.5 1239,-161.5 1277,-161.5 1277,-142.5 1239,-142.5"/>
<text text-anchor="middle" x="1258" y="-149.5" font-family="Helvetica,sans-Serif" font-size="10.00">tuple</text>
</g>
<!-- Node14&#45;&gt;Node17 -->
<g id="edge19" class="edge"><title>Node14&#45;&gt;Node17</title>
<path fill="none" stroke="midnightblue" d="M1132.09,-210.406C1155.85,-200.602 1195.52,-183.869 1229,-168 1230.18,-167.44 1231.39,-166.859 1232.6,-166.266"/>
<polygon fill="midnightblue" stroke="midnightblue" points="1234.48,-169.234 1241.84,-161.61 1231.34,-162.983 1234.48,-169.234"/>
</g>
<!-- Node18 -->
<g id="node18" class="node"><title>Node18</title>
<polygon fill="none" stroke="#bfbfbf" points="860,-142.5 860,-161.5 940,-161.5 940,-142.5 860,-142.5"/>
<text text-anchor="middle" x="900" y="-149.5" font-family="Helvetica,sans-Serif" font-size="10.00">RStringView.h</text>
</g>
<!-- Node14&#45;&gt;Node18 -->
<g id="edge21" class="edge"><title>Node14&#45;&gt;Node18</title>
<path fill="none" stroke="midnightblue" d="M1083.42,-210.372C1045.95,-198.654 978.881,-177.674 937.057,-164.591"/>
<polygon fill="midnightblue" stroke="midnightblue" points="937.846,-161.171 927.257,-161.526 935.756,-167.852 937.846,-161.171"/>
</g>
<!-- Node19 -->
<g id="node19" class="node"><title>Node19</title>
<polygon fill="none" stroke="#bfbfbf" points="1055,-74.5 1055,-93.5 1131,-93.5 1131,-74.5 1055,-74.5"/>
<text text-anchor="middle" x="1093" y="-81.5" font-family="Helvetica,sans-Serif" font-size="10.00">TGeoMatrix.h</text>
</g>
<!-- Node14&#45;&gt;Node19 -->
<g id="edge22" class="edge"><title>Node14&#45;&gt;Node19</title>
<path fill="none" stroke="midnightblue" d="M1175.32,-218.986C1264.26,-217.44 1417.87,-208.754 1453,-168 1462.29,-157.227 1462.46,-146.616 1453,-136 1406.41,-83.7406 1208.45,-114.713 1140,-100 1135.55,-99.0427 1130.91,-97.8356 1126.37,-96.524"/>
<polygon fill="midnightblue" stroke="midnightblue" points="1127.25,-93.1342 1116.67,-93.5419 1125.2,-99.8253 1127.25,-93.1342"/>
</g>
<!-- Node20 -->
<g id="node20" class="node"><title>Node20</title>
<polygon fill="none" stroke="#bfbfbf" points="2067,-142.5 2067,-161.5 2129,-161.5 2129,-142.5 2067,-142.5"/>
<text text-anchor="middle" x="2098" y="-149.5" font-family="Helvetica,sans-Serif" font-size="10.00">TNamed.h</text>
</g>
<!-- Node14&#45;&gt;Node20 -->
<g id="edge23" class="edge"><title>Node14&#45;&gt;Node20</title>
<path fill="none" stroke="midnightblue" d="M1175.27,-216.674C1374.29,-209.311 1972.23,-185.948 2058,-168 2061.7,-167.225 2065.52,-166.164 2069.25,-164.961"/>
<polygon fill="midnightblue" stroke="midnightblue" points="2070.58,-168.203 2078.82,-161.545 2068.23,-161.61 2070.58,-168.203"/>
</g>
<!-- Node21 -->
<g id="node21" class="node"><title>Node21</title>
<polygon fill="none" stroke="#bfbfbf" points="996,-142.5 996,-161.5 1060,-161.5 1060,-142.5 996,-142.5"/>
<text text-anchor="middle" x="1028" y="-149.5" font-family="Helvetica,sans-Serif" font-size="10.00">TParticle.h</text>
</g>
<!-- Node14&#45;&gt;Node21 -->
<g id="edge24" class="edge"><title>Node14&#45;&gt;Node21</title>
<path fill="none" stroke="midnightblue" d="M1100.15,-210.372C1086.6,-199.6 1063.21,-181.002 1046.75,-167.906"/>
<polygon fill="midnightblue" stroke="midnightblue" points="1048.86,-165.115 1038.85,-161.63 1044.5,-170.594 1048.86,-165.115"/>
</g>
<!-- Node22 -->
<g id="node22" class="node"><title>Node22</title>
<polygon fill="none" stroke="#bfbfbf" points="1078.5,-142.5 1078.5,-161.5 1143.5,-161.5 1143.5,-142.5 1078.5,-142.5"/>
<text text-anchor="middle" x="1111" y="-149.5" font-family="Helvetica,sans-Serif" font-size="10.00">TVector3.h</text>
</g>
<!-- Node14&#45;&gt;Node22 -->
<g id="edge25" class="edge"><title>Node14&#45;&gt;Node22</title>
<path fill="none" stroke="midnightblue" d="M1111,-210.372C1111,-200.643 1111,-184.528 1111,-171.85"/>
<polygon fill="midnightblue" stroke="midnightblue" points="1114.5,-171.841 1111,-161.841 1107.5,-171.841 1114.5,-171.841"/>
</g>
<!-- Node14&#45;&gt;Node23 -->
<g id="edge27" class="edge"><title>Node14&#45;&gt;Node23</title>
<path fill="none" stroke="midnightblue" d="M1144.59,-210.439C1191.17,-198.57 1275.42,-177.103 1326.67,-164.041"/>
<polygon fill="midnightblue" stroke="midnightblue" points="1327.64,-167.407 1336.47,-161.546 1325.91,-160.623 1327.64,-167.407"/>
</g>
<!-- Node25 -->
<g id="node25" class="node"><title>Node25</title>
<g id="a_node25"><a xlink:href="../../dd/d76/Cartesian3D_8h.html" target="_top" xlink:title="MathUtils/Cartesian3D.h">
<polygon fill="none" stroke="black" points="1501.5,-142.5 1501.5,-161.5 1626.5,-161.5 1626.5,-142.5 1501.5,-142.5"/>
<text text-anchor="middle" x="1564" y="-149.5" font-family="Helvetica,sans-Serif" font-size="10.00">MathUtils/Cartesian3D.h</text>
</a>
</g>
</g>
<!-- Node14&#45;&gt;Node25 -->
<g id="edge30" class="edge"><title>Node14&#45;&gt;Node25</title>
<path fill="none" stroke="midnightblue" d="M1175.04,-211.454C1250,-202.357 1377.81,-186.026 1487,-168 1495.31,-166.629 1504.09,-165.045 1512.64,-163.432"/>
<polygon fill="midnightblue" stroke="midnightblue" points="1513.36,-166.858 1522.52,-161.535 1512.04,-159.983 1513.36,-166.858"/>
</g>
<!-- Node23&#45;&gt;Node16 -->
<g id="edge29" class="edge"><title>Node23&#45;&gt;Node16</title>
<path fill="none" stroke="midnightblue" d="M1326.07,-142.466C1313.19,-140.151 1299.06,-137.792 1286,-136 1120.56,-113.304 1072.18,-147.215 912,-100 910.083,-99.4351 908.145,-98.7413 906.227,-97.9649"/>
<polygon fill="midnightblue" stroke="midnightblue" points="907.539,-94.7138 897.002,-93.6081 904.549,-101.043 907.539,-94.7138"/>
</g>
<!-- Node24 -->
<g id="node24" class="node"><title>Node24</title>
<polygon fill="none" stroke="#bfbfbf" points="985,-74.5 985,-93.5 1037,-93.5 1037,-74.5 985,-74.5"/>
<text text-anchor="middle" x="1011" y="-81.5" font-family="Helvetica,sans-Serif" font-size="10.00">sstream</text>
</g>
<!-- Node23&#45;&gt;Node24 -->
<g id="edge28" class="edge"><title>Node23&#45;&gt;Node24</title>
<path fill="none" stroke="midnightblue" d="M1323.39,-142.438C1311.23,-140.27 1298.13,-137.993 1286,-136 1179.57,-118.518 1149.75,-129.485 1046,-100 1043.35,-99.2466 1040.63,-98.3408 1037.94,-97.3523"/>
<polygon fill="midnightblue" stroke="midnightblue" points="1039.07,-94.0316 1028.49,-93.5336 1036.45,-100.523 1039.07,-94.0316"/>
</g>
<!-- Node25&#45;&gt;Node6 -->
<g id="edge36" class="edge"><title>Node25&#45;&gt;Node6</title>
<path fill="none" stroke="midnightblue" d="M1507.63,-142.49C1490.16,-140.092 1470.81,-137.682 1453,-136 1272.68,-118.973 701.645,-93.3989 547.605,-86.6702"/>
<polygon fill="midnightblue" stroke="midnightblue" points="547.389,-83.1575 537.246,-86.2187 547.084,-90.1509 547.389,-83.1575"/>
</g>
<!-- Node25&#45;&gt;Node9 -->
<g id="edge38" class="edge"><title>Node25&#45;&gt;Node9</title>
<path fill="none" stroke="midnightblue" d="M1505.89,-142.49C1488.87,-140.176 1470.21,-137.811 1453,-136 1241.56,-113.755 1181.63,-154.005 976,-100 973.508,-99.3454 970.972,-98.5018 968.474,-97.549"/>
<polygon fill="midnightblue" stroke="midnightblue" points="969.764,-94.2934 959.199,-93.5005 966.964,-100.709 969.764,-94.2934"/>
</g>
<!-- Node25&#45;&gt;Node19 -->
<g id="edge37" class="edge"><title>Node25&#45;&gt;Node19</title>
<path fill="none" stroke="midnightblue" d="M1523.75,-142.458C1511.95,-140.143 1498.99,-137.786 1487,-136 1333.64,-113.154 1291.77,-131.738 1140,-100 1135.54,-99.0675 1130.91,-97.875 1126.36,-96.5707"/>
<polygon fill="midnightblue" stroke="midnightblue" points="1127.24,-93.1806 1116.66,-93.5947 1125.19,-99.8729 1127.24,-93.1806"/>
</g>
<!-- Node26 -->
<g id="node26" class="node"><title>Node26</title>
<polygon fill="none" stroke="#bfbfbf" points="1644.5,-69 1644.5,-99 1795.5,-99 1795.5,-69 1644.5,-69"/>
<text text-anchor="start" x="1652.5" y="-87" font-family="Helvetica,sans-Serif" font-size="10.00">Math/GenVector/Displacement</text>
<text text-anchor="middle" x="1720" y="-76" font-family="Helvetica,sans-Serif" font-size="10.00">Vector3D.h</text>
</g>
<!-- Node25&#45;&gt;Node26 -->
<g id="edge31" class="edge"><title>Node25&#45;&gt;Node26</title>
<path fill="none" stroke="midnightblue" d="M1584.39,-142.372C1607.87,-132.44 1647.07,-115.854 1677.31,-103.063"/>
<polygon fill="midnightblue" stroke="midnightblue" points="1678.93,-106.176 1686.78,-99.0562 1676.2,-99.7293 1678.93,-106.176"/>
</g>
<!-- Node27 -->
<g id="node27" class="node"><title>Node27</title>
<polygon fill="none" stroke="#bfbfbf" points="1814,-74.5 1814,-93.5 1990,-93.5 1990,-74.5 1814,-74.5"/>
<text text-anchor="middle" x="1902" y="-81.5" font-family="Helvetica,sans-Serif" font-size="10.00">Math/GenVector/PositionVector3D.h</text>
</g>
<!-- Node25&#45;&gt;Node27 -->
<g id="edge32" class="edge"><title>Node25&#45;&gt;Node27</title>
<path fill="none" stroke="midnightblue" d="M1607.84,-142.439C1669.51,-130.396 1781.78,-108.475 1848.36,-95.4745"/>
<polygon fill="midnightblue" stroke="midnightblue" points="1849.09,-98.8972 1858.24,-93.5455 1847.75,-92.0269 1849.09,-98.8972"/>
</g>
<!-- Node28 -->
<g id="node28" class="node"><title>Node28</title>
<polygon fill="none" stroke="#bfbfbf" points="2007.5,-74.5 2007.5,-93.5 2156.5,-93.5 2156.5,-74.5 2007.5,-74.5"/>
<text text-anchor="middle" x="2082" y="-81.5" font-family="Helvetica,sans-Serif" font-size="10.00">Math/GenVector/Rotation3D.h</text>
</g>
<!-- Node25&#45;&gt;Node28 -->
<g id="edge33" class="edge"><title>Node25&#45;&gt;Node28</title>
<path fill="none" stroke="midnightblue" d="M1626.68,-144.822C1711.2,-136.22 1866.29,-119.481 1998,-100 2007.46,-98.6004 2017.5,-96.9526 2027.21,-95.2708"/>
<polygon fill="midnightblue" stroke="midnightblue" points="2027.94,-98.6964 2037.18,-93.5148 2026.72,-91.8025 2027.94,-98.6964"/>
</g>
<!-- Node29 -->
<g id="node29" class="node"><title>Node29</title>
<polygon fill="none" stroke="#bfbfbf" points="1149,-74.5 1149,-93.5 1305,-93.5 1305,-74.5 1149,-74.5"/>
<text text-anchor="middle" x="1227" y="-81.5" font-family="Helvetica,sans-Serif" font-size="10.00">Math/GenVector/Transform3D.h</text>
</g>
<!-- Node25&#45;&gt;Node29 -->
<g id="edge34" class="edge"><title>Node25&#45;&gt;Node29</title>
<path fill="none" stroke="midnightblue" d="M1520.29,-142.439C1458.8,-130.396 1346.86,-108.475 1280.48,-95.4745"/>
<polygon fill="midnightblue" stroke="midnightblue" points="1281.12,-92.0328 1270.63,-93.5455 1279.77,-98.9023 1281.12,-92.0328"/>
</g>
<!-- Node30 -->
<g id="node30" class="node"><title>Node30</title>
<polygon fill="none" stroke="#bfbfbf" points="1323,-74.5 1323,-93.5 1483,-93.5 1483,-74.5 1323,-74.5"/>
<text text-anchor="middle" x="1403" y="-81.5" font-family="Helvetica,sans-Serif" font-size="10.00">Math/GenVector/Translation3D.h</text>
</g>
<!-- Node25&#45;&gt;Node30 -->
<g id="edge35" class="edge"><title>Node25&#45;&gt;Node30</title>
<path fill="none" stroke="midnightblue" d="M1542.95,-142.372C1514.91,-130.877 1465.13,-110.469 1433.12,-97.3465"/>
<polygon fill="midnightblue" stroke="midnightblue" points="1434.38,-94.0805 1423.8,-93.5259 1431.72,-100.557 1434.38,-94.0805"/>
</g>
<!-- Node31 -->
<g id="node31" class="node"><title>Node31</title>
<g id="a_node31"><a xlink:href="../../d2/dd0/Cartesian2D_8h.html" target="_top" xlink:title="MathUtils/Cartesian2D.h">
<polygon fill="none" stroke="black" points="1501.5,-74.5 1501.5,-93.5 1626.5,-93.5 1626.5,-74.5 1501.5,-74.5"/>
<text text-anchor="middle" x="1564" y="-81.5" font-family="Helvetica,sans-Serif" font-size="10.00">MathUtils/Cartesian2D.h</text>
</a>
</g>
</g>
<!-- Node25&#45;&gt;Node31 -->
<g id="edge39" class="edge"><title>Node25&#45;&gt;Node31</title>
<path fill="none" stroke="midnightblue" d="M1564,-142.372C1564,-132.643 1564,-116.528 1564,-103.85"/>
<polygon fill="midnightblue" stroke="midnightblue" points="1567.5,-103.841 1564,-93.8411 1560.5,-103.841 1567.5,-103.841"/>
</g>
<!-- Node32 -->
<g id="node32" class="node"><title>Node32</title>
<polygon fill="none" stroke="#bfbfbf" points="1397.5,-1 1397.5,-31 1548.5,-31 1548.5,-1 1397.5,-1"/>
<text text-anchor="start" x="1405.5" y="-19" font-family="Helvetica,sans-Serif" font-size="10.00">Math/GenVector/Displacement</text>
<text text-anchor="middle" x="1473" y="-8" font-family="Helvetica,sans-Serif" font-size="10.00">Vector2D.h</text>
</g>
<!-- Node31&#45;&gt;Node32 -->
<g id="edge40" class="edge"><title>Node31&#45;&gt;Node32</title>
<path fill="none" stroke="midnightblue" d="M1552.1,-74.3717C1539.22,-65.0286 1518.22,-49.7966 1501.09,-37.375"/>
<polygon fill="midnightblue" stroke="midnightblue" points="1502.7,-34.2194 1492.55,-31.1815 1498.59,-39.8859 1502.7,-34.2194"/>
</g>
<!-- Node33 -->
<g id="node33" class="node"><title>Node33</title>
<polygon fill="none" stroke="#bfbfbf" points="1567,-6.5 1567,-25.5 1743,-25.5 1743,-6.5 1567,-6.5"/>
<text text-anchor="middle" x="1655" y="-13.5" font-family="Helvetica,sans-Serif" font-size="10.00">Math/GenVector/PositionVector2D.h</text>
</g>
<!-- Node31&#45;&gt;Node33 -->
<g id="edge41" class="edge"><title>Node31&#45;&gt;Node33</title>
<path fill="none" stroke="midnightblue" d="M1575.9,-74.3717C1590.88,-63.5015 1616.86,-44.6602 1634.94,-31.5474"/>
<polygon fill="midnightblue" stroke="midnightblue" points="1637.06,-34.3349 1643.1,-25.6305 1632.95,-28.6684 1637.06,-34.3349"/>
</g>
<!-- Node35 -->
<g id="node35" class="node"><title>Node35</title>
<g id="a_node35"><a xlink:href="../../d4/d25/BaseHits_8h.html" target="_top" xlink:title="SimulationDataFormat\l/BaseHits.h">
<polygon fill="none" stroke="black" points="1507,-205 1507,-235 1621,-235 1621,-205 1507,-205"/>
<text text-anchor="start" x="1515" y="-223" font-family="Helvetica,sans-Serif" font-size="10.00">SimulationDataFormat</text>
<text text-anchor="middle" x="1564" y="-212" font-family="Helvetica,sans-Serif" font-size="10.00">/BaseHits.h</text>
</a>
</g>
</g>
<!-- Node34&#45;&gt;Node35 -->
<g id="edge44" class="edge"><title>Node34&#45;&gt;Node35</title>
<path fill="none" stroke="midnightblue" d="M1564,-272.403C1564,-265.341 1564,-254.975 1564,-245.399"/>
<polygon fill="midnightblue" stroke="midnightblue" points="1567.5,-245.141 1564,-235.141 1560.5,-245.141 1567.5,-245.141"/>
</g>
<!-- Node36 -->
<g id="node36" class="node"><title>Node36</title>
<g id="a_node36"><a xlink:href="../../d0/d91/ShmAllocator_8h.html" target="_top" xlink:title="CommonUtils/ShmAllocator.h">
<polygon fill="none" stroke="black" points="1903,-210.5 1903,-229.5 2049,-229.5 2049,-210.5 1903,-210.5"/>
<text text-anchor="middle" x="1976" y="-217.5" font-family="Helvetica,sans-Serif" font-size="10.00">CommonUtils/ShmAllocator.h</text>
</a>
</g>
</g>
<!-- Node34&#45;&gt;Node36 -->
<g id="edge46" class="edge"><title>Node34&#45;&gt;Node36</title>
<path fill="none" stroke="midnightblue" d="M1613.29,-273.822C1686.49,-263.162 1824.2,-243.107 1907.27,-231.01"/>
<polygon fill="midnightblue" stroke="midnightblue" points="1907.97,-234.444 1917.37,-229.539 1906.97,-227.517 1907.97,-234.444"/>
</g>
<!-- Node35&#45;&gt;Node25 -->
<g id="edge45" class="edge"><title>Node35&#45;&gt;Node25</title>
<path fill="none" stroke="midnightblue" d="M1564,-204.679C1564,-195.101 1564,-182.394 1564,-171.977"/>
<polygon fill="midnightblue" stroke="midnightblue" points="1567.5,-171.828 1564,-161.828 1560.5,-171.828 1567.5,-171.828"/>
</g>
<!-- Node37 -->
<g id="node37" class="node"><title>Node37</title>
<g id="a_node37"><a xlink:href="../../de/d61/ShmManager_8h.html" target="_top" xlink:title="CommonUtils/ShmManager.h">
<polygon fill="none" stroke="black" points="1903,-142.5 1903,-161.5 2049,-161.5 2049,-142.5 1903,-142.5"/>
<text text-anchor="middle" x="1976" y="-149.5" font-family="Helvetica,sans-Serif" font-size="10.00">CommonUtils/ShmManager.h</text>
</a>
</g>
</g>
<!-- Node36&#45;&gt;Node37 -->
<g id="edge47" class="edge"><title>Node36&#45;&gt;Node37</title>
<path fill="none" stroke="midnightblue" d="M1976,-210.372C1976,-200.643 1976,-184.528 1976,-171.85"/>
<polygon fill="midnightblue" stroke="midnightblue" points="1979.5,-171.841 1976,-161.841 1972.5,-171.841 1979.5,-171.841"/>
</g>
<!-- Node42 -->
<g id="node42" class="node"><title>Node42</title>
<polygon fill="none" stroke="#bfbfbf" points="2293.5,-142.5 2293.5,-161.5 2342.5,-161.5 2342.5,-142.5 2293.5,-142.5"/>
<text text-anchor="middle" x="2318" y="-149.5" font-family="Helvetica,sans-Serif" font-size="10.00">cassert</text>
</g>
<!-- Node36&#45;&gt;Node42 -->
<g id="edge52" class="edge"><title>Node36&#45;&gt;Node42</title>
<path fill="none" stroke="midnightblue" d="M2038.96,-210.479C2115.29,-199.817 2239.27,-181.339 2284,-168 2286.43,-167.274 2288.92,-166.417 2291.4,-165.485"/>
<polygon fill="midnightblue" stroke="midnightblue" points="2292.77,-168.705 2300.67,-161.649 2290.09,-162.236 2292.77,-168.705"/>
</g>
<!-- Node38 -->
<g id="node38" class="node"><title>Node38</title>
<polygon fill="none" stroke="#bfbfbf" points="2311.5,-74.5 2311.5,-93.5 2340.5,-93.5 2340.5,-74.5 2311.5,-74.5"/>
<text text-anchor="middle" x="2326" y="-81.5" font-family="Helvetica,sans-Serif" font-size="10.00">list</text>
</g>
<!-- Node37&#45;&gt;Node38 -->
<g id="edge48" class="edge"><title>Node37&#45;&gt;Node38</title>
<path fill="none" stroke="midnightblue" d="M2021.06,-142.468C2033.05,-140.277 2046.01,-137.981 2058,-136 2166.15,-118.135 2199.12,-137.85 2302,-100 2303.06,-99.6098 2304.12,-99.1686 2305.18,-98.6888"/>
<polygon fill="midnightblue" stroke="midnightblue" points="2307.23,-101.556 2314.29,-93.6589 2303.85,-95.4274 2307.23,-101.556"/>
</g>
<!-- Node39 -->
<g id="node39" class="node"><title>Node39</title>
<polygon fill="none" stroke="#bfbfbf" points="2358.5,-74.5 2358.5,-93.5 2407.5,-93.5 2407.5,-74.5 2358.5,-74.5"/>
<text text-anchor="middle" x="2383" y="-81.5" font-family="Helvetica,sans-Serif" font-size="10.00">cstddef</text>
</g>
<!-- Node37&#45;&gt;Node39 -->
<g id="edge49" class="edge"><title>Node37&#45;&gt;Node39</title>
<path fill="none" stroke="midnightblue" d="M2020.18,-142.434C2032.41,-140.196 2045.7,-137.885 2058,-136 2186.82,-116.267 2223.38,-134.671 2349,-100 2351.5,-99.3091 2354.06,-98.4647 2356.59,-97.5321"/>
<polygon fill="midnightblue" stroke="midnightblue" points="2358.15,-100.677 2366.06,-93.6364 2355.48,-94.2037 2358.15,-100.677"/>
</g>
<!-- Node40 -->
<g id="node40" class="node"><title>Node40</title>
<polygon fill="none" stroke="#bfbfbf" points="2426,-69 2426,-99 2574,-99 2574,-69 2426,-69"/>
<text text-anchor="start" x="2434" y="-87" font-family="Helvetica,sans-Serif" font-size="10.00">boost/interprocess</text>
<text text-anchor="middle" x="2500" y="-76" font-family="Helvetica,sans-Serif" font-size="10.00">/managed_external_buffer.hpp</text>
</g>
<!-- Node37&#45;&gt;Node40 -->
<g id="edge50" class="edge"><title>Node37&#45;&gt;Node40</title>
<path fill="none" stroke="midnightblue" d="M2018.88,-142.482C2031.45,-140.168 2045.25,-137.805 2058,-136 2213.09,-114.054 2255.87,-121.737 2415.65,-99.9659"/>
<polygon fill="midnightblue" stroke="midnightblue" points="2416.42,-103.394 2425.85,-98.5592 2415.46,-96.4594 2416.42,-103.394"/>
</g>
<!-- Node41 -->
<g id="node41" class="node"><title>Node41</title>
<polygon fill="none" stroke="#bfbfbf" points="2174,-69 2174,-99 2294,-99 2294,-69 2174,-69"/>
<text text-anchor="start" x="2182" y="-87" font-family="Helvetica,sans-Serif" font-size="10.00">boost/interprocess</text>
<text text-anchor="middle" x="2234" y="-76" font-family="Helvetica,sans-Serif" font-size="10.00">/allocators/allocator.hpp</text>
</g>
<!-- Node37&#45;&gt;Node41 -->
<g id="edge51" class="edge"><title>Node37&#45;&gt;Node41</title>
<path fill="none" stroke="midnightblue" d="M2009.46,-142.439C2049.73,-132.139 2118.24,-114.612 2169.03,-101.621"/>
<polygon fill="midnightblue" stroke="midnightblue" points="2170.11,-104.957 2178.93,-99.0873 2168.38,-98.1749 2170.11,-104.957"/>
</g>
<!-- Node44 -->
<g id="node44" class="node"><title>Node44</title>
<g id="a_node44"><a xlink:href="../../d7/dcd/MCCompLabel_8h.html" target="_top" xlink:title="SimulationDataFormat\l/MCCompLabel.h">
<polygon fill="none" stroke="black" points="2099,-205 2099,-235 2213,-235 2213,-205 2099,-205"/>
<text text-anchor="start" x="2107" y="-223" font-family="Helvetica,sans-Serif" font-size="10.00">SimulationDataFormat</text>
<text text-anchor="middle" x="2156" y="-212" font-family="Helvetica,sans-Serif" font-size="10.00">/MCCompLabel.h</text>
</a>
</g>
</g>
<!-- Node43&#45;&gt;Node44 -->
<g id="edge54" class="edge"><title>Node43&#45;&gt;Node44</title>
<path fill="none" stroke="midnightblue" d="M1963.24,-272.403C1997.1,-263.374 2051.2,-248.947 2093.48,-237.672"/>
<polygon fill="midnightblue" stroke="midnightblue" points="2094.64,-240.984 2103.41,-235.025 2092.84,-234.22 2094.64,-240.984"/>
</g>
<!-- Node45 -->
<g id="node45" class="node"><title>Node45</title>
<polygon fill="none" stroke="#bfbfbf" points="2147,-142.5 2147,-161.5 2275,-161.5 2275,-142.5 2147,-142.5"/>
<text text-anchor="middle" x="2211" y="-149.5" font-family="Helvetica,sans-Serif" font-size="10.00">AliTPCCommonRtypes.h</text>
</g>
<!-- Node44&#45;&gt;Node45 -->
<g id="edge55" class="edge"><title>Node44&#45;&gt;Node45</title>
<path fill="none" stroke="midnightblue" d="M2167.93,-204.679C2176.51,-194.388 2188.1,-180.484 2197.09,-169.69"/>
<polygon fill="midnightblue" stroke="midnightblue" points="2199.93,-171.751 2203.64,-161.828 2194.55,-167.27 2199.93,-171.751"/>
</g>
<!-- Node46&#45;&gt;Node20 -->
<g id="edge57" class="edge"><title>Node46&#45;&gt;Node20</title>
<path fill="none" stroke="midnightblue" d="M2296.63,-207.529C2252.79,-198.267 2191.08,-184.149 2138,-168 2135.04,-167.101 2131.99,-166.097 2128.95,-165.047"/>
<polygon fill="midnightblue" stroke="midnightblue" points="2130.01,-161.709 2119.42,-161.603 2127.63,-168.292 2130.01,-161.709"/>
</g>
<!-- Node46&#45;&gt;Node42 -->
<g id="edge58" class="edge"><title>Node46&#45;&gt;Node42</title>
<path fill="none" stroke="midnightblue" d="M2346.19,-204.679C2340.74,-194.694 2333.44,-181.307 2327.63,-170.66"/>
<polygon fill="midnightblue" stroke="midnightblue" points="2330.68,-168.931 2322.82,-161.828 2324.53,-172.283 2330.68,-168.931"/>
</g>
<!-- Node47 -->
<g id="node47" class="node"><title>Node47</title>
<polygon fill="none" stroke="#bfbfbf" points="2360.5,-142.5 2360.5,-161.5 2419.5,-161.5 2419.5,-142.5 2360.5,-142.5"/>
<text text-anchor="middle" x="2390" y="-149.5" font-family="Helvetica,sans-Serif" font-size="10.00">stdexcept</text>
</g>
<!-- Node46&#45;&gt;Node47 -->
<g id="edge59" class="edge"><title>Node46&#45;&gt;Node47</title>
<path fill="none" stroke="midnightblue" d="M2361.81,-204.679C2367.26,-194.694 2374.56,-181.307 2380.37,-170.66"/>
<polygon fill="midnightblue" stroke="midnightblue" points="2383.47,-172.283 2385.18,-161.828 2377.32,-168.931 2383.47,-172.283"/>
</g>
<!-- Node48 -->
<g id="node48" class="node"><title>Node48</title>
<polygon fill="none" stroke="#bfbfbf" points="2437.5,-142.5 2437.5,-161.5 2482.5,-161.5 2482.5,-142.5 2437.5,-142.5"/>
<text text-anchor="middle" x="2460" y="-149.5" font-family="Helvetica,sans-Serif" font-size="10.00">gsl/gsl</text>
</g>
<!-- Node46&#45;&gt;Node48 -->
<g id="edge60" class="edge"><title>Node46&#45;&gt;Node48</title>
<path fill="none" stroke="midnightblue" d="M2376.74,-204.841C2394.66,-193.681 2419.53,-178.198 2437.41,-167.063"/>
<polygon fill="midnightblue" stroke="midnightblue" points="2439.42,-169.939 2446.06,-161.682 2435.72,-163.996 2439.42,-169.939"/>
</g>
<!-- Node49 -->
<g id="node49" class="node"><title>Node49</title>
<polygon fill="none" stroke="#bfbfbf" points="2501,-142.5 2501,-161.5 2563,-161.5 2563,-142.5 2501,-142.5"/>
<text text-anchor="middle" x="2532" y="-149.5" font-family="Helvetica,sans-Serif" font-size="10.00">type_traits</text>
</g>
<!-- Node46&#45;&gt;Node49 -->
<g id="edge61" class="edge"><title>Node46&#45;&gt;Node49</title>
<path fill="none" stroke="midnightblue" d="M2392.19,-204.841C2424.03,-193.033 2468.93,-176.384 2499.18,-165.168"/>
<polygon fill="midnightblue" stroke="midnightblue" points="2500.68,-168.345 2508.84,-161.587 2498.25,-161.782 2500.68,-168.345"/>
</g>
</g>
</svg>
