<?xml version="1.0" encoding="UTF-8" standalone="no"?>
<!DOCTYPE svg PUBLIC "-//W3C//DTD SVG 1.1//EN"
 "http://www.w3.org/Graphics/SVG/1.1/DTD/svg11.dtd">
<!-- Generated by graphviz version 2.36.0 (20140111.2315)
 -->
<!-- Title: /home/travis/build/AliceO2Group/AliceO2/Detectors/ZDC/base/src/Geometry.cxx Pages: 1 -->
<svg width="213pt" height="174pt"
 viewBox="0.00 0.00 213.00 174.00" xmlns="http://www.w3.org/2000/svg" xmlns:xlink="http://www.w3.org/1999/xlink">
<g id="graph0" class="graph" transform="scale(1 1) rotate(0) translate(4 170)">
<title>/home/travis/build/AliceO2Group/AliceO2/Detectors/ZDC/base/src/Geometry.cxx</title>
<!-- Node1 -->
<g id="node1" class="node"><title>Node1</title>
<polygon fill="#bfbfbf" stroke="black" points="50.5,-113 50.5,-165 177.5,-165 177.5,-113 50.5,-113"/>
<text text-anchor="start" x="58.5" y="-153" font-family="Helvetica,sans-Serif" font-size="10.00">/home/travis/build</text>
<text text-anchor="start" x="58.5" y="-142" font-family="Helvetica,sans-Serif" font-size="10.00">/AliceO2Group/AliceO2</text>
<text text-anchor="start" x="58.5" y="-131" font-family="Helvetica,sans-Serif" font-size="10.00">/Detectors/ZDC/base/src</text>
<text text-anchor="middle" x="114" y="-120" font-family="Helvetica,sans-Serif" font-size="10.00">/Geometry.cxx</text>
</g>
<!-- Node2 -->
<g id="node2" class="node"><title>Node2</title>
<g id="a_node2"><a xlink:href="../../db/d64/ZDC_2base_2include_2ZDCBase_2Geometry_8h.html" target="_top" xlink:title="ZDCBase/Geometry.h">
<polygon fill="none" stroke="black" points="2,-56.5 2,-75.5 116,-75.5 116,-56.5 2,-56.5"/>
<text text-anchor="middle" x="59" y="-63.5" font-family="Helvetica,sans-Serif" font-size="10.00">ZDCBase/Geometry.h</text>
</a>
</g>
</g>
<!-- Node1&#45;&gt;Node2 -->
<g id="edge1" class="edge"><title>Node1&#45;&gt;Node2</title>
<path fill="none" stroke="midnightblue" d="M94.4542,-112.768C87.0294,-103.183 78.7583,-92.5062 72.0736,-83.8768"/>
<polygon fill="midnightblue" stroke="midnightblue" points="74.6747,-81.5193 65.7837,-75.7572 69.1408,-85.8061 74.6747,-81.5193"/>
</g>
<!-- Node5 -->
<g id="node5" class="node"><title>Node5</title>
<polygon fill="none" stroke="#bfbfbf" points="134.5,-56.5 134.5,-75.5 205.5,-75.5 205.5,-56.5 134.5,-56.5"/>
<text text-anchor="middle" x="170" y="-63.5" font-family="Helvetica,sans-Serif" font-size="10.00">FairLogger.h</text>
</g>
<!-- Node1&#45;&gt;Node5 -->
<g id="edge4" class="edge"><title>Node1&#45;&gt;Node5</title>
<path fill="none" stroke="midnightblue" d="M133.901,-112.768C141.461,-103.183 149.882,-92.5062 156.689,-83.8768"/>
<polygon fill="midnightblue" stroke="midnightblue" points="159.648,-85.7763 163.093,-75.7572 154.152,-81.4413 159.648,-85.7763"/>
</g>
<!-- Node3 -->
<g id="node3" class="node"><title>Node3</title>
<polygon fill="none" stroke="#bfbfbf" points="-0.5,-0.5 -0.5,-19.5 52.5,-19.5 52.5,-0.5 -0.5,-0.5"/>
<text text-anchor="middle" x="26" y="-7.5" font-family="Helvetica,sans-Serif" font-size="10.00">TMath.h</text>
</g>
<!-- Node2&#45;&gt;Node3 -->
<g id="edge2" class="edge"><title>Node2&#45;&gt;Node3</title>
<path fill="none" stroke="midnightblue" d="M53.5507,-56.083C48.9855,-48.6127 42.3316,-37.7244 36.7066,-28.5199"/>
<polygon fill="midnightblue" stroke="midnightblue" points="39.5489,-26.4588 31.3479,-19.7511 33.5759,-30.109 39.5489,-26.4588"/>
</g>
<!-- Node4 -->
<g id="node4" class="node"><title>Node4</title>
<polygon fill="none" stroke="#bfbfbf" points="71,-0.5 71,-19.5 115,-19.5 115,-0.5 71,-0.5"/>
<text text-anchor="middle" x="93" y="-7.5" font-family="Helvetica,sans-Serif" font-size="10.00">cmath</text>
</g>
<!-- Node2&#45;&gt;Node4 -->
<g id="edge3" class="edge"><title>Node2&#45;&gt;Node4</title>
<path fill="none" stroke="midnightblue" d="M64.6144,-56.083C69.3674,-48.5341 76.3181,-37.4948 82.1516,-28.2298"/>
<polygon fill="midnightblue" stroke="midnightblue" points="85.1237,-30.0783 87.4901,-19.7511 79.2001,-26.3486 85.1237,-30.0783"/>
</g>
</g>
</svg>
