<?xml version="1.0" encoding="UTF-8" standalone="no"?>
<!DOCTYPE svg PUBLIC "-//W3C//DTD SVG 1.1//EN"
 "http://www.w3.org/Graphics/SVG/1.1/DTD/svg11.dtd">
<!-- Generated by graphviz version 2.36.0 (20140111.2315)
 -->
<!-- Title: /home/travis/build/AliceO2Group/AliceO2/Detectors/ITSMFT/ITS/tracking/src/ROframe.cxx Pages: 1 -->
<svg width="1062pt" height="410pt"
 viewBox="0.00 0.00 1062.00 410.00" xmlns="http://www.w3.org/2000/svg" xmlns:xlink="http://www.w3.org/1999/xlink">
<g id="graph0" class="graph" transform="scale(1 1) rotate(0) translate(4 406)">
<title>/home/travis/build/AliceO2Group/AliceO2/Detectors/ITSMFT/ITS/tracking/src/ROframe.cxx</title>
<!-- Node1 -->
<g id="node1" class="node"><title>Node1</title>
<polygon fill="#bfbfbf" stroke="black" points="515,-349 515,-401 647,-401 647,-349 515,-349"/>
<text text-anchor="start" x="523" y="-389" font-family="Helvetica,sans-Serif" font-size="10.00">/home/travis/build</text>
<text text-anchor="start" x="523" y="-378" font-family="Helvetica,sans-Serif" font-size="10.00">/AliceO2Group/AliceO2</text>
<text text-anchor="start" x="523" y="-367" font-family="Helvetica,sans-Serif" font-size="10.00">/Detectors/ITSMFT/ITS</text>
<text text-anchor="middle" x="581" y="-356" font-family="Helvetica,sans-Serif" font-size="10.00">/tracking/src/ROframe.cxx</text>
</g>
<!-- Node2 -->
<g id="node2" class="node"><title>Node2</title>
<g id="a_node2"><a xlink:href="../../dc/d42/ROframe_8h.html" target="_top" xlink:title="ITStracking/ROframe.h">
<polygon fill="none" stroke="black" points="470,-292.5 470,-311.5 588,-311.5 588,-292.5 470,-292.5"/>
<text text-anchor="middle" x="529" y="-299.5" font-family="Helvetica,sans-Serif" font-size="10.00">ITStracking/ROframe.h</text>
</a>
</g>
</g>
<!-- Node1&#45;&gt;Node2 -->
<g id="edge1" class="edge"><title>Node1&#45;&gt;Node2</title>
<path fill="none" stroke="midnightblue" d="M562.52,-348.768C555.501,-339.183 547.681,-328.506 541.361,-319.877"/>
<polygon fill="midnightblue" stroke="midnightblue" points="544.146,-317.757 535.414,-311.757 538.499,-321.893 544.146,-317.757"/>
</g>
<!-- Node22 -->
<g id="node22" class="node"><title>Node22</title>
<polygon fill="none" stroke="#bfbfbf" points="606,-292.5 606,-311.5 660,-311.5 660,-292.5 606,-292.5"/>
<text text-anchor="middle" x="633" y="-299.5" font-family="Helvetica,sans-Serif" font-size="10.00">iostream</text>
</g>
<!-- Node1&#45;&gt;Node22 -->
<g id="edge34" class="edge"><title>Node1&#45;&gt;Node22</title>
<path fill="none" stroke="midnightblue" d="M599.48,-348.768C606.499,-339.183 614.319,-328.506 620.639,-319.877"/>
<polygon fill="midnightblue" stroke="midnightblue" points="623.501,-321.893 626.586,-311.757 617.854,-317.757 623.501,-321.893"/>
</g>
<!-- Node3 -->
<g id="node3" class="node"><title>Node3</title>
<polygon fill="none" stroke="#bfbfbf" points="50,-0.5 50,-19.5 88,-19.5 88,-0.5 50,-0.5"/>
<text text-anchor="middle" x="69" y="-7.5" font-family="Helvetica,sans-Serif" font-size="10.00">array</text>
</g>
<!-- Node2&#45;&gt;Node3 -->
<g id="edge2" class="edge"><title>Node2&#45;&gt;Node3</title>
<path fill="none" stroke="midnightblue" d="M469.857,-299.762C331.816,-295.274 0,-274.547 0,-179 0,-179 0,-179 0,-121 0,-82.3909 30.8823,-46.2086 51.326,-26.4863"/>
<polygon fill="midnightblue" stroke="midnightblue" points="53.868,-28.9022 58.8188,-19.5352 49.1073,-23.7704 53.868,-28.9022"/>
</g>
<!-- Node4 -->
<g id="node4" class="node"><title>Node4</title>
<polygon fill="none" stroke="#bfbfbf" points="348,-56.5 348,-75.5 392,-75.5 392,-56.5 348,-56.5"/>
<text text-anchor="middle" x="370" y="-63.5" font-family="Helvetica,sans-Serif" font-size="10.00">vector</text>
</g>
<!-- Node2&#45;&gt;Node4 -->
<g id="edge3" class="edge"><title>Node2&#45;&gt;Node4</title>
<path fill="none" stroke="midnightblue" d="M529.358,-292.084C530.057,-261.421 527.852,-159.583 471,-112 450.667,-94.9821 422.873,-83.2281 401.588,-76.0118"/>
<polygon fill="midnightblue" stroke="midnightblue" points="402.612,-72.6647 392.02,-72.9218 400.461,-79.3259 402.612,-72.6647"/>
</g>
<!-- Node5 -->
<g id="node5" class="node"><title>Node5</title>
<polygon fill="none" stroke="#bfbfbf" points="219,-112.5 219,-131.5 259,-131.5 259,-112.5 219,-112.5"/>
<text text-anchor="middle" x="239" y="-119.5" font-family="Helvetica,sans-Serif" font-size="10.00">utility</text>
</g>
<!-- Node2&#45;&gt;Node5 -->
<g id="edge4" class="edge"><title>Node2&#45;&gt;Node5</title>
<path fill="none" stroke="midnightblue" d="M497.195,-292.468C471.607,-284.885 435.226,-272.453 406,-256 351.443,-225.287 345.015,-206.953 296,-168 283.383,-157.973 269.154,-146.739 258.069,-138.005"/>
<polygon fill="midnightblue" stroke="midnightblue" points="259.966,-135.043 249.944,-131.606 255.635,-140.543 259.966,-135.043"/>
</g>
<!-- Node6 -->
<g id="node6" class="node"><title>Node6</title>
<polygon fill="none" stroke="#bfbfbf" points="557.5,-168.5 557.5,-187.5 606.5,-187.5 606.5,-168.5 557.5,-168.5"/>
<text text-anchor="middle" x="582" y="-175.5" font-family="Helvetica,sans-Serif" font-size="10.00">cassert</text>
</g>
<!-- Node2&#45;&gt;Node6 -->
<g id="edge5" class="edge"><title>Node2&#45;&gt;Node6</title>
<path fill="none" stroke="midnightblue" d="M532.812,-292.226C541.445,-272.354 562.635,-223.576 574.185,-196.989"/>
<polygon fill="midnightblue" stroke="midnightblue" points="577.449,-198.261 578.223,-187.694 571.028,-195.472 577.449,-198.261"/>
</g>
<!-- Node7 -->
<g id="node7" class="node"><title>Node7</title>
<polygon fill="none" stroke="#bfbfbf" points="624.5,-168.5 624.5,-187.5 669.5,-187.5 669.5,-168.5 624.5,-168.5"/>
<text text-anchor="middle" x="647" y="-175.5" font-family="Helvetica,sans-Serif" font-size="10.00">gsl/gsl</text>
</g>
<!-- Node2&#45;&gt;Node7 -->
<g id="edge6" class="edge"><title>Node2&#45;&gt;Node7</title>
<path fill="none" stroke="midnightblue" d="M537.486,-292.226C557.217,-271.826 606.41,-220.966 631.602,-194.92"/>
<polygon fill="midnightblue" stroke="midnightblue" points="634.154,-197.316 638.591,-187.694 629.123,-192.449 634.154,-197.316"/>
</g>
<!-- Node8 -->
<g id="node8" class="node"><title>Node8</title>
<g id="a_node8"><a xlink:href="../../da/d7f/Detectors_2ITSMFT_2ITS_2tracking_2include_2ITStracking_2Cluster_8h.html" target="_top" xlink:title="ITStracking/Cluster.h">
<polygon fill="none" stroke="black" points="159,-230.5 159,-249.5 269,-249.5 269,-230.5 159,-230.5"/>
<text text-anchor="middle" x="214" y="-237.5" font-family="Helvetica,sans-Serif" font-size="10.00">ITStracking/Cluster.h</text>
</a>
</g>
</g>
<!-- Node2&#45;&gt;Node8 -->
<g id="edge7" class="edge"><title>Node2&#45;&gt;Node8</title>
<path fill="none" stroke="midnightblue" d="M484.203,-292.467C427.406,-281.649 329.546,-263.009 268.485,-251.378"/>
<polygon fill="midnightblue" stroke="midnightblue" points="269.121,-247.936 258.643,-249.503 267.811,-254.813 269.121,-247.936"/>
</g>
<!-- Node13 -->
<g id="node13" class="node"><title>Node13</title>
<g id="a_node13"><a xlink:href="../../d0/d86/Detectors_2ITSMFT_2ITS_2tracking_2include_2ITStracking_2Constants_8h.html" target="_top" xlink:title="ITStracking/Constants.h">
<polygon fill="none" stroke="black" points="277.5,-112.5 277.5,-131.5 400.5,-131.5 400.5,-112.5 277.5,-112.5"/>
<text text-anchor="middle" x="339" y="-119.5" font-family="Helvetica,sans-Serif" font-size="10.00">ITStracking/Constants.h</text>
</a>
</g>
</g>
<!-- Node2&#45;&gt;Node13 -->
<g id="edge25" class="edge"><title>Node2&#45;&gt;Node13</title>
<path fill="none" stroke="midnightblue" d="M511.846,-292.266C480.587,-275.639 413.731,-236.712 372,-188 360.059,-174.061 351.056,-155.053 345.495,-141.194"/>
<polygon fill="midnightblue" stroke="midnightblue" points="348.739,-139.879 341.922,-131.769 342.194,-142.36 348.739,-139.879"/>
</g>
<!-- Node16 -->
<g id="node16" class="node"><title>Node16</title>
<g id="a_node16"><a xlink:href="../../d7/dcd/MCCompLabel_8h.html" target="_top" xlink:title="SimulationDataFormat\l/MCCompLabel.h">
<polygon fill="none" stroke="black" points="874,-225 874,-255 988,-255 988,-225 874,-225"/>
<text text-anchor="start" x="882" y="-243" font-family="Helvetica,sans-Serif" font-size="10.00">SimulationDataFormat</text>
<text text-anchor="middle" x="931" y="-232" font-family="Helvetica,sans-Serif" font-size="10.00">/MCCompLabel.h</text>
</a>
</g>
</g>
<!-- Node2&#45;&gt;Node16 -->
<g id="edge26" class="edge"><title>Node2&#45;&gt;Node16</title>
<path fill="none" stroke="midnightblue" d="M586.17,-292.467C659.297,-281.553 785.763,-262.677 863.531,-251.07"/>
<polygon fill="midnightblue" stroke="midnightblue" points="864.329,-254.49 873.702,-249.552 863.295,-247.567 864.329,-254.49"/>
</g>
<!-- Node18 -->
<g id="node18" class="node"><title>Node18</title>
<g id="a_node18"><a xlink:href="../../db/d14/MCTruthContainer_8h.html" target="_top" xlink:title="Definition of a container to keep Monte Carlo truth external to simulation objects. ">
<polygon fill="none" stroke="black" points="658,-225 658,-255 772,-255 772,-225 658,-225"/>
<text text-anchor="start" x="666" y="-243" font-family="Helvetica,sans-Serif" font-size="10.00">SimulationDataFormat</text>
<text text-anchor="middle" x="715" y="-232" font-family="Helvetica,sans-Serif" font-size="10.00">/MCTruthContainer.h</text>
</a>
</g>
</g>
<!-- Node2&#45;&gt;Node18 -->
<g id="edge28" class="edge"><title>Node2&#45;&gt;Node18</title>
<path fill="none" stroke="midnightblue" d="M555.649,-292.403C583.286,-283.488 627.236,-269.311 661.986,-258.101"/>
<polygon fill="midnightblue" stroke="midnightblue" points="663.079,-261.426 671.522,-255.025 660.93,-254.764 663.079,-261.426"/>
</g>
<!-- Node8&#45;&gt;Node3 -->
<g id="edge8" class="edge"><title>Node8&#45;&gt;Node3</title>
<path fill="none" stroke="midnightblue" d="M188.076,-230.393C167.575,-222.373 139.572,-208.536 122,-188 81.9035,-141.14 72.1399,-64.8289 69.7637,-29.7364"/>
<polygon fill="midnightblue" stroke="midnightblue" points="73.2459,-29.3128 69.2079,-19.5177 66.2562,-29.6931 73.2459,-29.3128"/>
</g>
<!-- Node9 -->
<g id="node9" class="node"><title>Node9</title>
<g id="a_node9"><a xlink:href="../../df/d3d/Definitions_8h.html" target="_top" xlink:title="ITStracking/Definitions.h">
<polygon fill="none" stroke="black" points="104.5,-56.5 104.5,-75.5 229.5,-75.5 229.5,-56.5 104.5,-56.5"/>
<text text-anchor="middle" x="167" y="-63.5" font-family="Helvetica,sans-Serif" font-size="10.00">ITStracking/Definitions.h</text>
</a>
</g>
</g>
<!-- Node8&#45;&gt;Node9 -->
<g id="edge9" class="edge"><title>Node8&#45;&gt;Node9</title>
<path fill="none" stroke="midnightblue" d="M187.381,-230.374C168.206,-222.601 143.726,-209.102 132,-188 112.974,-153.762 137.706,-108.2 154.278,-83.921"/>
<polygon fill="midnightblue" stroke="midnightblue" points="157.165,-85.9002 160.121,-75.7261 151.466,-81.8362 157.165,-85.9002"/>
</g>
<!-- Node11 -->
<g id="node11" class="node"><title>Node11</title>
<g id="a_node11"><a xlink:href="../../dc/d3e/MathUtils_8h.html" target="_top" xlink:title="ITStracking/MathUtils.h">
<polygon fill="none" stroke="black" points="381,-168.5 381,-187.5 501,-187.5 501,-168.5 381,-168.5"/>
<text text-anchor="middle" x="441" y="-175.5" font-family="Helvetica,sans-Serif" font-size="10.00">ITStracking/MathUtils.h</text>
</a>
</g>
</g>
<!-- Node8&#45;&gt;Node11 -->
<g id="edge12" class="edge"><title>Node8&#45;&gt;Node11</title>
<path fill="none" stroke="midnightblue" d="M246.524,-230.403C286.558,-219.822 354.638,-201.827 398.702,-190.18"/>
<polygon fill="midnightblue" stroke="midnightblue" points="399.763,-193.52 408.537,-187.581 397.974,-186.752 399.763,-193.52"/>
</g>
<!-- Node15 -->
<g id="node15" class="node"><title>Node15</title>
<g id="a_node15"><a xlink:href="../../d2/d0c/IndexTableUtils_8h.html" target="_top" xlink:title="ITStracking/IndexTableUtils.h">
<polygon fill="none" stroke="black" points="141,-168.5 141,-187.5 287,-187.5 287,-168.5 141,-168.5"/>
<text text-anchor="middle" x="214" y="-175.5" font-family="Helvetica,sans-Serif" font-size="10.00">ITStracking/IndexTableUtils.h</text>
</a>
</g>
</g>
<!-- Node8&#45;&gt;Node15 -->
<g id="edge19" class="edge"><title>Node8&#45;&gt;Node15</title>
<path fill="none" stroke="midnightblue" d="M214,-230.403C214,-221.938 214,-208.728 214,-197.82"/>
<polygon fill="midnightblue" stroke="midnightblue" points="217.5,-197.581 214,-187.581 210.5,-197.581 217.5,-197.581"/>
</g>
<!-- Node9&#45;&gt;Node3 -->
<g id="edge10" class="edge"><title>Node9&#45;&gt;Node3</title>
<path fill="none" stroke="midnightblue" d="M151.255,-56.324C135.681,-47.7428 111.623,-34.486 93.5407,-24.5224"/>
<polygon fill="midnightblue" stroke="midnightblue" points="95.1539,-21.4152 84.7063,-19.6545 91.7756,-27.546 95.1539,-21.4152"/>
</g>
<!-- Node10 -->
<g id="node10" class="node"><title>Node10</title>
<polygon fill="none" stroke="#bfbfbf" points="106,-0.5 106,-19.5 240,-19.5 240,-0.5 106,-0.5"/>
<text text-anchor="middle" x="173" y="-7.5" font-family="Helvetica,sans-Serif" font-size="10.00">AliTPCCommonDefGPU.h</text>
</g>
<!-- Node9&#45;&gt;Node10 -->
<g id="edge11" class="edge"><title>Node9&#45;&gt;Node10</title>
<path fill="none" stroke="midnightblue" d="M167.991,-56.083C168.786,-48.9272 169.929,-38.6353 170.923,-29.6911"/>
<polygon fill="midnightblue" stroke="midnightblue" points="174.402,-30.0765 172.028,-19.7511 167.445,-29.3034 174.402,-30.0765"/>
</g>
<!-- Node11&#45;&gt;Node3 -->
<g id="edge13" class="edge"><title>Node11&#45;&gt;Node3</title>
<path fill="none" stroke="midnightblue" d="M450.346,-168.118C462.378,-155.555 480.652,-131.906 471,-112 453.465,-75.8373 437.125,-71.3928 400,-56 277.786,-5.32757 231.758,-46.7526 98.3305,-19.8426"/>
<polygon fill="midnightblue" stroke="midnightblue" points="98.6541,-16.3338 88.1467,-17.6914 97.2074,-23.1827 98.6541,-16.3338"/>
</g>
<!-- Node12 -->
<g id="node12" class="node"><title>Node12</title>
<polygon fill="none" stroke="#bfbfbf" points="419,-112.5 419,-131.5 463,-131.5 463,-112.5 419,-112.5"/>
<text text-anchor="middle" x="441" y="-119.5" font-family="Helvetica,sans-Serif" font-size="10.00">cmath</text>
</g>
<!-- Node11&#45;&gt;Node12 -->
<g id="edge14" class="edge"><title>Node11&#45;&gt;Node12</title>
<path fill="none" stroke="midnightblue" d="M441,-168.083C441,-161.006 441,-150.861 441,-141.986"/>
<polygon fill="midnightblue" stroke="midnightblue" points="444.5,-141.751 441,-131.751 437.5,-141.751 444.5,-141.751"/>
</g>
<!-- Node11&#45;&gt;Node13 -->
<g id="edge15" class="edge"><title>Node11&#45;&gt;Node13</title>
<path fill="none" stroke="midnightblue" d="M424.612,-168.324C408.329,-159.703 383.133,-146.364 364.284,-136.386"/>
<polygon fill="midnightblue" stroke="midnightblue" points="365.823,-133.24 355.347,-131.655 362.548,-139.427 365.823,-133.24"/>
</g>
<!-- Node13&#45;&gt;Node4 -->
<g id="edge17" class="edge"><title>Node13&#45;&gt;Node4</title>
<path fill="none" stroke="midnightblue" d="M344.119,-112.083C348.408,-104.613 354.658,-93.7244 359.942,-84.5199"/>
<polygon fill="midnightblue" stroke="midnightblue" points="363.033,-86.1662 364.976,-75.7511 356.962,-82.6811 363.033,-86.1662"/>
</g>
<!-- Node13&#45;&gt;Node9 -->
<g id="edge18" class="edge"><title>Node13&#45;&gt;Node9</title>
<path fill="none" stroke="midnightblue" d="M311.746,-112.444C282.559,-103.28 236.079,-88.6876 203.691,-78.5192"/>
<polygon fill="midnightblue" stroke="midnightblue" points="204.716,-75.1726 194.126,-75.5164 202.619,-81.8512 204.716,-75.1726"/>
</g>
<!-- Node14 -->
<g id="node14" class="node"><title>Node14</title>
<polygon fill="none" stroke="#bfbfbf" points="284.5,-56.5 284.5,-75.5 329.5,-75.5 329.5,-56.5 284.5,-56.5"/>
<text text-anchor="middle" x="307" y="-63.5" font-family="Helvetica,sans-Serif" font-size="10.00">climits</text>
</g>
<!-- Node13&#45;&gt;Node14 -->
<g id="edge16" class="edge"><title>Node13&#45;&gt;Node14</title>
<path fill="none" stroke="midnightblue" d="M333.716,-112.083C329.289,-104.613 322.837,-93.7244 317.382,-84.5199"/>
<polygon fill="midnightblue" stroke="midnightblue" points="320.295,-82.5697 312.186,-75.7511 314.273,-86.1383 320.295,-82.5697"/>
</g>
<!-- Node15&#45;&gt;Node3 -->
<g id="edge20" class="edge"><title>Node15&#45;&gt;Node3</title>
<path fill="none" stroke="midnightblue" d="M199.96,-168.409C175.52,-152.81 124.915,-117.57 95,-76 84.8049,-61.8327 77.8662,-43.1054 73.7387,-29.3925"/>
<polygon fill="midnightblue" stroke="midnightblue" points="77.0803,-28.3453 71.0227,-19.653 70.3376,-30.2257 77.0803,-28.3453"/>
</g>
<!-- Node15&#45;&gt;Node4 -->
<g id="edge22" class="edge"><title>Node15&#45;&gt;Node4</title>
<path fill="none" stroke="midnightblue" d="M210.248,-168.402C205,-154.907 197.438,-128.582 210,-112 210,-112 291.405,-89.105 338.084,-75.9764"/>
<polygon fill="midnightblue" stroke="midnightblue" points="339.074,-79.3339 347.753,-73.2571 337.179,-72.5953 339.074,-79.3339"/>
</g>
<!-- Node15&#45;&gt;Node5 -->
<g id="edge21" class="edge"><title>Node15&#45;&gt;Node5</title>
<path fill="none" stroke="midnightblue" d="M218.128,-168.083C221.514,-160.77 226.416,-150.181 230.619,-141.103"/>
<polygon fill="midnightblue" stroke="midnightblue" points="233.923,-142.296 234.949,-131.751 227.571,-139.355 233.923,-142.296"/>
</g>
<!-- Node15&#45;&gt;Node9 -->
<g id="edge24" class="edge"><title>Node15&#45;&gt;Node9</title>
<path fill="none" stroke="midnightblue" d="M204.421,-168.359C195.77,-159.964 183.439,-146.404 177,-132 170.513,-117.489 168.124,-99.5373 167.294,-86.1789"/>
<polygon fill="midnightblue" stroke="midnightblue" points="170.778,-85.6847 166.903,-75.8241 163.783,-85.9492 170.778,-85.6847"/>
</g>
<!-- Node15&#45;&gt;Node13 -->
<g id="edge23" class="edge"><title>Node15&#45;&gt;Node13</title>
<path fill="none" stroke="midnightblue" d="M233.807,-168.444C254.287,-159.596 286.483,-145.687 309.865,-135.586"/>
<polygon fill="midnightblue" stroke="midnightblue" points="311.494,-138.695 319.286,-131.516 308.718,-132.269 311.494,-138.695"/>
</g>
<!-- Node17 -->
<g id="node17" class="node"><title>Node17</title>
<polygon fill="none" stroke="#bfbfbf" points="926,-168.5 926,-187.5 1054,-187.5 1054,-168.5 926,-168.5"/>
<text text-anchor="middle" x="990" y="-175.5" font-family="Helvetica,sans-Serif" font-size="10.00">AliTPCCommonRtypes.h</text>
</g>
<!-- Node16&#45;&gt;Node17 -->
<g id="edge27" class="edge"><title>Node16&#45;&gt;Node17</title>
<path fill="none" stroke="midnightblue" d="M944.982,-224.781C953.821,-215.792 965.257,-204.162 974.391,-194.873"/>
<polygon fill="midnightblue" stroke="midnightblue" points="976.899,-197.315 981.415,-187.731 971.908,-192.407 976.899,-197.315"/>
</g>
<!-- Node18&#45;&gt;Node6 -->
<g id="edge30" class="edge"><title>Node18&#45;&gt;Node6</title>
<path fill="none" stroke="midnightblue" d="M683.817,-224.933C661.579,-214.9 631.918,-201.519 610.348,-191.789"/>
<polygon fill="midnightblue" stroke="midnightblue" points="611.618,-188.522 601.063,-187.6 608.739,-194.903 611.618,-188.522"/>
</g>
<!-- Node18&#45;&gt;Node7 -->
<g id="edge32" class="edge"><title>Node18&#45;&gt;Node7</title>
<path fill="none" stroke="midnightblue" d="M698.885,-224.781C688.596,-215.703 675.253,-203.929 664.674,-194.595"/>
<polygon fill="midnightblue" stroke="midnightblue" points="666.709,-191.722 656.895,-187.731 662.077,-196.971 666.709,-191.722"/>
</g>
<!-- Node19 -->
<g id="node19" class="node"><title>Node19</title>
<polygon fill="none" stroke="#bfbfbf" points="688,-168.5 688,-187.5 750,-187.5 750,-168.5 688,-168.5"/>
<text text-anchor="middle" x="719" y="-175.5" font-family="Helvetica,sans-Serif" font-size="10.00">TNamed.h</text>
</g>
<!-- Node18&#45;&gt;Node19 -->
<g id="edge29" class="edge"><title>Node18&#45;&gt;Node19</title>
<path fill="none" stroke="midnightblue" d="M715.948,-224.781C716.487,-216.691 717.169,-206.462 717.752,-197.725"/>
<polygon fill="midnightblue" stroke="midnightblue" points="721.245,-197.941 718.418,-187.731 714.26,-197.476 721.245,-197.941"/>
</g>
<!-- Node20 -->
<g id="node20" class="node"><title>Node20</title>
<polygon fill="none" stroke="#bfbfbf" points="768.5,-168.5 768.5,-187.5 827.5,-187.5 827.5,-168.5 768.5,-168.5"/>
<text text-anchor="middle" x="798" y="-175.5" font-family="Helvetica,sans-Serif" font-size="10.00">stdexcept</text>
</g>
<!-- Node18&#45;&gt;Node20 -->
<g id="edge31" class="edge"><title>Node18&#45;&gt;Node20</title>
<path fill="none" stroke="midnightblue" d="M734.67,-224.781C747.601,-215.433 764.486,-203.227 777.568,-193.77"/>
<polygon fill="midnightblue" stroke="midnightblue" points="779.869,-196.426 785.923,-187.731 775.768,-190.753 779.869,-196.426"/>
</g>
<!-- Node21 -->
<g id="node21" class="node"><title>Node21</title>
<polygon fill="none" stroke="#bfbfbf" points="846,-168.5 846,-187.5 908,-187.5 908,-168.5 846,-168.5"/>
<text text-anchor="middle" x="877" y="-175.5" font-family="Helvetica,sans-Serif" font-size="10.00">type_traits</text>
</g>
<!-- Node18&#45;&gt;Node21 -->
<g id="edge33" class="edge"><title>Node18&#45;&gt;Node21</title>
<path fill="none" stroke="midnightblue" d="M752.982,-224.933C780.679,-214.674 817.83,-200.915 844.23,-191.137"/>
<polygon fill="midnightblue" stroke="midnightblue" points="845.618,-194.355 853.78,-187.6 843.187,-187.791 845.618,-194.355"/>
</g>
</g>
</svg>
