<?xml version="1.0" encoding="UTF-8" standalone="no"?>
<!DOCTYPE svg PUBLIC "-//W3C//DTD SVG 1.1//EN"
 "http://www.w3.org/Graphics/SVG/1.1/DTD/svg11.dtd">
<!-- Generated by graphviz version 2.36.0 (20140111.2315)
 -->
<!-- Title: stbtt__bitmap Pages: 1 -->
<svg width="110pt" height="194pt"
 viewBox="0.00 0.00 110.00 194.00" xmlns="http://www.w3.org/2000/svg" xmlns:xlink="http://www.w3.org/1999/xlink">
<g id="graph0" class="graph" transform="scale(1 1) rotate(0) translate(4 190)">
<title>stbtt__bitmap</title>
<!-- Node1 -->
<g id="node1" class="node"><title>Node1</title>
<polygon fill="#bfbfbf" stroke="black" points="6,-0.5 6,-57.5 82,-57.5 82,-0.5 6,-0.5"/>
<text text-anchor="middle" x="44" y="-45.5" font-family="Helvetica,sans-Serif" font-size="10.00">stbtt__bitmap</text>
<polyline fill="none" stroke="black" points="6,-38.5 82,-38.5 "/>
<text text-anchor="middle" x="44" y="-26.5" font-family="Helvetica,sans-Serif" font-size="10.00"> </text>
<polyline fill="none" stroke="black" points="6,-19.5 82,-19.5 "/>
<text text-anchor="middle" x="44" y="-7.5" font-family="Helvetica,sans-Serif" font-size="10.00"> </text>
</g>
<!-- Node2 -->
<g id="node2" class="node"><title>Node2</title>
<g id="a_node2"><a xlink:href="../../d1/da0/classint.html" target="_top" xlink:title="{int\n||}">
<polygon fill="none" stroke="black" points="-0.5,-128.5 -0.5,-185.5 28.5,-185.5 28.5,-128.5 -0.5,-128.5"/>
<text text-anchor="middle" x="14" y="-173.5" font-family="Helvetica,sans-Serif" font-size="10.00">int</text>
<polyline fill="none" stroke="black" points="-0.5,-166.5 28.5,-166.5 "/>
<text text-anchor="middle" x="14" y="-154.5" font-family="Helvetica,sans-Serif" font-size="10.00"> </text>
<polyline fill="none" stroke="black" points="-0.5,-147.5 28.5,-147.5 "/>
<text text-anchor="middle" x="14" y="-135.5" font-family="Helvetica,sans-Serif" font-size="10.00"> </text>
</a>
</g>
</g>
<!-- Node2&#45;&gt;Node1 -->
<g id="edge1" class="edge"><title>Node2&#45;&gt;Node1</title>
<path fill="none" stroke="#404040" d="M12.277,-128.453C12.059,-112.784 13.0819,-92.9623 18,-76 18.6985,-73.5908 19.5444,-71.1715 20.4983,-68.7717"/>
<polygon fill="none" stroke="#404040" points="20.5421,-68.6773 19.4442,-61.5503 25.6007,-57.7956 26.6987,-64.9227 20.5421,-68.6773"/>
<text text-anchor="middle" x="35" y="-101.5" font-family="Helvetica,sans-Serif" font-size="10.00"> +stride</text>
<text text-anchor="middle" x="35" y="-90.5" font-family="Helvetica,sans-Serif" font-size="10.00">+w</text>
<text text-anchor="middle" x="35" y="-79.5" font-family="Helvetica,sans-Serif" font-size="10.00">+h</text>
</g>
<!-- Node3 -->
<g id="node3" class="node"><title>Node3</title>
<polygon fill="none" stroke="#bfbfbf" points="46,-128.5 46,-185.5 102,-185.5 102,-128.5 46,-128.5"/>
<text text-anchor="middle" x="74" y="-173.5" font-family="Helvetica,sans-Serif" font-size="10.00">unsigned</text>
<polyline fill="none" stroke="#bfbfbf" points="46,-166.5 102,-166.5 "/>
<text text-anchor="middle" x="74" y="-154.5" font-family="Helvetica,sans-Serif" font-size="10.00"> </text>
<polyline fill="none" stroke="#bfbfbf" points="46,-147.5 102,-147.5 "/>
<text text-anchor="middle" x="74" y="-135.5" font-family="Helvetica,sans-Serif" font-size="10.00"> </text>
</g>
<!-- Node3&#45;&gt;Node1 -->
<g id="edge2" class="edge"><title>Node3&#45;&gt;Node1</title>
<path fill="none" stroke="#404040" d="M67.4164,-128.349C63.2937,-111.033 57.9169,-88.4509 53.3554,-69.2927"/>
<polygon fill="none" stroke="#404040" points="53.3478,-69.2604 48.0668,-64.3501 50.5683,-57.5867 55.8493,-62.4971 53.3478,-69.2604"/>
<text text-anchor="middle" x="79.5" y="-90.5" font-family="Helvetica,sans-Serif" font-size="10.00"> +pixels</text>
</g>
</g>
</svg>
