<?xml version="1.0" encoding="UTF-8" standalone="no"?>
<!DOCTYPE svg PUBLIC "-//W3C//DTD SVG 1.1//EN"
 "http://www.w3.org/Graphics/SVG/1.1/DTD/svg11.dtd">
<!-- Generated by graphviz version 2.36.0 (20140111.2315)
 -->
<!-- Title: /home/travis/build/AliceO2Group/AliceO2/EventVisualisation/DataConverter/include/EventVisualisationDataConverter/MinimalisticEvent.h Pages: 1 -->
<svg width="426pt" height="252pt"
 viewBox="0.00 0.00 426.00 252.00" xmlns="http://www.w3.org/2000/svg" xmlns:xlink="http://www.w3.org/1999/xlink">
<g id="graph0" class="graph" transform="scale(1 1) rotate(0) translate(4 248)">
<title>/home/travis/build/AliceO2Group/AliceO2/EventVisualisation/DataConverter/include/EventVisualisationDataConverter/MinimalisticEvent.h</title>
<!-- Node1 -->
<g id="node1" class="node"><title>Node1</title>
<polygon fill="#bfbfbf" stroke="black" points="220,-180.5 220,-243.5 418,-243.5 418,-180.5 220,-180.5"/>
<text text-anchor="start" x="228" y="-231.5" font-family="Helvetica,sans-Serif" font-size="10.00">/home/travis/build</text>
<text text-anchor="start" x="228" y="-220.5" font-family="Helvetica,sans-Serif" font-size="10.00">/AliceO2Group/AliceO2</text>
<text text-anchor="start" x="228" y="-209.5" font-family="Helvetica,sans-Serif" font-size="10.00">/EventVisualisation/DataConverter</text>
<text text-anchor="start" x="228" y="-198.5" font-family="Helvetica,sans-Serif" font-size="10.00">/include/EventVisualisationDataConverter</text>
<text text-anchor="middle" x="319" y="-187.5" font-family="Helvetica,sans-Serif" font-size="10.00">/MinimalisticEvent.h</text>
</g>
<!-- Node2 -->
<g id="node2" class="node"><title>Node2</title>
<g id="a_node2"><a xlink:href="../../d9/d72/MinimalisticTrack_8h.html" target="_top" xlink:title="EventVisualisationDataConverter\l/MinimalisticTrack.h">
<polygon fill="none" stroke="black" points="121.5,-113 121.5,-143 282.5,-143 282.5,-113 121.5,-113"/>
<text text-anchor="start" x="129.5" y="-131" font-family="Helvetica,sans-Serif" font-size="10.00">EventVisualisationDataConverter</text>
<text text-anchor="middle" x="202" y="-120" font-family="Helvetica,sans-Serif" font-size="10.00">/MinimalisticTrack.h</text>
</a>
</g>
</g>
<!-- Node1&#45;&gt;Node2 -->
<g id="edge1" class="edge"><title>Node1&#45;&gt;Node2</title>
<path fill="none" stroke="midnightblue" d="M275.434,-180.466C260.404,-169.933 243.965,-158.412 230.459,-148.945"/>
<polygon fill="midnightblue" stroke="midnightblue" points="232.248,-145.926 222.051,-143.053 228.231,-151.658 232.248,-145.926"/>
</g>
<!-- Node6 -->
<g id="node6" class="node"><title>Node6</title>
<polygon fill="none" stroke="#bfbfbf" points="301,-56.5 301,-75.5 345,-75.5 345,-56.5 301,-56.5"/>
<text text-anchor="middle" x="323" y="-63.5" font-family="Helvetica,sans-Serif" font-size="10.00">vector</text>
</g>
<!-- Node1&#45;&gt;Node6 -->
<g id="edge8" class="edge"><title>Node1&#45;&gt;Node6</title>
<path fill="none" stroke="midnightblue" d="M319.848,-180.461C320.644,-151.798 321.81,-109.836 322.478,-85.7911"/>
<polygon fill="midnightblue" stroke="midnightblue" points="325.983,-85.6566 322.762,-75.5633 318.986,-85.4622 325.983,-85.6566"/>
</g>
<!-- Node8 -->
<g id="node8" class="node"><title>Node8</title>
<polygon fill="none" stroke="#bfbfbf" points="347.5,-118.5 347.5,-137.5 388.5,-137.5 388.5,-118.5 347.5,-118.5"/>
<text text-anchor="middle" x="368" y="-125.5" font-family="Helvetica,sans-Serif" font-size="10.00">ctime</text>
</g>
<!-- Node1&#45;&gt;Node8 -->
<g id="edge9" class="edge"><title>Node1&#45;&gt;Node8</title>
<path fill="none" stroke="midnightblue" d="M337.246,-180.466C344.103,-168.991 351.66,-156.345 357.567,-146.459"/>
<polygon fill="midnightblue" stroke="midnightblue" points="360.712,-148.019 362.837,-137.64 354.703,-144.429 360.712,-148.019"/>
</g>
<!-- Node3 -->
<g id="node3" class="node"><title>Node3</title>
<g id="a_node3"><a xlink:href="../../de/ddf/ConversionConstants_8h.html" target="_top" xlink:title="ConversionConstants.h">
<polygon fill="none" stroke="black" points="-0.5,-56.5 -0.5,-75.5 118.5,-75.5 118.5,-56.5 -0.5,-56.5"/>
<text text-anchor="middle" x="59" y="-63.5" font-family="Helvetica,sans-Serif" font-size="10.00">ConversionConstants.h</text>
</a>
</g>
</g>
<!-- Node2&#45;&gt;Node3 -->
<g id="edge2" class="edge"><title>Node2&#45;&gt;Node3</title>
<path fill="none" stroke="midnightblue" d="M168.473,-112.933C144.347,-102.81 112.096,-89.2779 88.8552,-79.5267"/>
<polygon fill="midnightblue" stroke="midnightblue" points="90.0721,-76.2417 79.4967,-75.6 87.3638,-82.6965 90.0721,-76.2417"/>
</g>
<!-- Node4 -->
<g id="node4" class="node"><title>Node4</title>
<polygon fill="none" stroke="#bfbfbf" points="82.5,-0.5 82.5,-19.5 123.5,-19.5 123.5,-0.5 82.5,-0.5"/>
<text text-anchor="middle" x="103" y="-7.5" font-family="Helvetica,sans-Serif" font-size="10.00">string</text>
</g>
<!-- Node2&#45;&gt;Node4 -->
<g id="edge5" class="edge"><title>Node2&#45;&gt;Node4</title>
<path fill="none" stroke="midnightblue" d="M189.861,-112.776C171.456,-91.2107 136.576,-50.3414 117.082,-27.5004"/>
<polygon fill="midnightblue" stroke="midnightblue" points="119.585,-25.0413 110.431,-19.707 114.26,-29.5855 119.585,-25.0413"/>
</g>
<!-- Node5 -->
<g id="node5" class="node"><title>Node5</title>
<polygon fill="none" stroke="#bfbfbf" points="175.5,-56.5 175.5,-75.5 220.5,-75.5 220.5,-56.5 175.5,-56.5"/>
<text text-anchor="middle" x="198" y="-63.5" font-family="Helvetica,sans-Serif" font-size="10.00">iosfwd</text>
</g>
<!-- Node2&#45;&gt;Node5 -->
<g id="edge4" class="edge"><title>Node2&#45;&gt;Node5</title>
<path fill="none" stroke="midnightblue" d="M201.052,-112.781C200.513,-104.691 199.831,-94.4617 199.248,-85.725"/>
<polygon fill="midnightblue" stroke="midnightblue" points="202.74,-85.4755 198.582,-75.7305 195.755,-85.9412 202.74,-85.4755"/>
</g>
<!-- Node2&#45;&gt;Node6 -->
<g id="edge6" class="edge"><title>Node2&#45;&gt;Node6</title>
<path fill="none" stroke="midnightblue" d="M230.369,-112.933C250.419,-102.991 277.101,-89.7601 296.677,-80.0526"/>
<polygon fill="midnightblue" stroke="midnightblue" points="298.252,-83.1782 305.657,-75.6 295.143,-76.9069 298.252,-83.1782"/>
</g>
<!-- Node7 -->
<g id="node7" class="node"><title>Node7</title>
<polygon fill="none" stroke="#bfbfbf" points="239,-56.5 239,-75.5 283,-75.5 283,-56.5 239,-56.5"/>
<text text-anchor="middle" x="261" y="-63.5" font-family="Helvetica,sans-Serif" font-size="10.00">cmath</text>
</g>
<!-- Node2&#45;&gt;Node7 -->
<g id="edge7" class="edge"><title>Node2&#45;&gt;Node7</title>
<path fill="none" stroke="midnightblue" d="M215.982,-112.781C224.821,-103.792 236.257,-92.162 245.391,-82.8731"/>
<polygon fill="midnightblue" stroke="midnightblue" points="247.899,-85.3148 252.415,-75.7305 242.908,-80.4068 247.899,-85.3148"/>
</g>
<!-- Node3&#45;&gt;Node4 -->
<g id="edge3" class="edge"><title>Node3&#45;&gt;Node4</title>
<path fill="none" stroke="midnightblue" d="M66.2657,-56.083C72.5448,-48.3768 81.7876,-37.0333 89.4308,-27.6531"/>
<polygon fill="midnightblue" stroke="midnightblue" points="92.2661,-29.7143 95.8695,-19.7511 86.8394,-25.2926 92.2661,-29.7143"/>
</g>
</g>
</svg>
