<?xml version="1.0" encoding="UTF-8" standalone="no"?>
<!DOCTYPE svg PUBLIC "-//W3C//DTD SVG 1.1//EN"
 "http://www.w3.org/Graphics/SVG/1.1/DTD/svg11.dtd">
<!-- Generated by graphviz version 2.36.0 (20140111.2315)
 -->
<!-- Title: o2::framework::OutputRoute Pages: 1 -->
<svg width="901pt" height="934pt"
 viewBox="0.00 0.00 900.79 934.00" xmlns="http://www.w3.org/2000/svg" xmlns:xlink="http://www.w3.org/1999/xlink">
<g id="graph0" class="graph" transform="scale(1 1) rotate(0) translate(4 930)">
<title>o2::framework::OutputRoute</title>
<!-- Node1 -->
<g id="node1" class="node"><title>Node1</title>
<polygon fill="#bfbfbf" stroke="black" points="721.786,-0.5 721.786,-57.5 861.786,-57.5 861.786,-0.5 721.786,-0.5"/>
<text text-anchor="middle" x="791.786" y="-45.5" font-family="Helvetica,sans-Serif" font-size="10.00">o2::framework::OutputRoute</text>
<polyline fill="none" stroke="black" points="721.786,-38.5 861.786,-38.5 "/>
<text text-anchor="middle" x="791.786" y="-26.5" font-family="Helvetica,sans-Serif" font-size="10.00"> </text>
<polyline fill="none" stroke="black" points="721.786,-19.5 861.786,-19.5 "/>
<text text-anchor="middle" x="791.786" y="-7.5" font-family="Helvetica,sans-Serif" font-size="10.00"> </text>
</g>
<!-- Node2 -->
<g id="node2" class="node"><title>Node2</title>
<g id="a_node2"><a xlink:href="../../d8/dc3/structo2_1_1framework_1_1OutputSpec.html" target="_top" xlink:title="{o2::framework::OutputSpec\n||+ OutputSpec()\l+ OutputSpec()\l+ OutputSpec()\l+ OutputSpec()\l+ operator==()\l}">
<polygon fill="none" stroke="black" points="515.286,-116.5 515.286,-217.5 652.286,-217.5 652.286,-116.5 515.286,-116.5"/>
<text text-anchor="middle" x="583.786" y="-205.5" font-family="Helvetica,sans-Serif" font-size="10.00">o2::framework::OutputSpec</text>
<polyline fill="none" stroke="black" points="515.286,-198.5 652.286,-198.5 "/>
<text text-anchor="middle" x="583.786" y="-186.5" font-family="Helvetica,sans-Serif" font-size="10.00"> </text>
<polyline fill="none" stroke="black" points="515.286,-179.5 652.286,-179.5 "/>
<text text-anchor="start" x="523.286" y="-167.5" font-family="Helvetica,sans-Serif" font-size="10.00">+ OutputSpec()</text>
<text text-anchor="start" x="523.286" y="-156.5" font-family="Helvetica,sans-Serif" font-size="10.00">+ OutputSpec()</text>
<text text-anchor="start" x="523.286" y="-145.5" font-family="Helvetica,sans-Serif" font-size="10.00">+ OutputSpec()</text>
<text text-anchor="start" x="523.286" y="-134.5" font-family="Helvetica,sans-Serif" font-size="10.00">+ OutputSpec()</text>
<text text-anchor="start" x="523.286" y="-123.5" font-family="Helvetica,sans-Serif" font-size="10.00">+ operator==()</text>
</a>
</g>
</g>
<!-- Node2&#45;&gt;Node1 -->
<g id="edge1" class="edge"><title>Node2&#45;&gt;Node1</title>
<path fill="none" stroke="#404040" d="M652.469,-121.092C680.779,-102.581 713.051,-81.4805 739.401,-64.2518"/>
<polygon fill="none" stroke="#404040" points="739.514,-64.1776 742.347,-57.5462 749.558,-57.6106 746.725,-64.242 739.514,-64.1776"/>
<text text-anchor="middle" x="741.286" y="-84.5" font-family="Helvetica,sans-Serif" font-size="10.00"> +matcher</text>
</g>
<!-- Node3 -->
<g id="node3" class="node"><title>Node3</title>
<polygon fill="none" stroke="#bfbfbf" points="361.286,-349.5 361.286,-406.5 412.286,-406.5 412.286,-349.5 361.286,-349.5"/>
<text text-anchor="middle" x="386.786" y="-394.5" font-family="Helvetica,sans-Serif" font-size="10.00">uint64_t</text>
<polyline fill="none" stroke="#bfbfbf" points="361.286,-387.5 412.286,-387.5 "/>
<text text-anchor="middle" x="386.786" y="-375.5" font-family="Helvetica,sans-Serif" font-size="10.00"> </text>
<polyline fill="none" stroke="#bfbfbf" points="361.286,-368.5 412.286,-368.5 "/>
<text text-anchor="middle" x="386.786" y="-356.5" font-family="Helvetica,sans-Serif" font-size="10.00"> </text>
</g>
<!-- Node3&#45;&gt;Node2 -->
<g id="edge2" class="edge"><title>Node3&#45;&gt;Node2</title>
<path fill="none" stroke="#404040" d="M389.647,-349.353C393.362,-325.2 401.798,-290.297 420.786,-266 442.425,-238.31 474.245,-216.706 504.04,-200.912"/>
<polygon fill="none" stroke="#404040" points="504.219,-200.821 507.74,-194.527 514.903,-195.356 511.383,-201.65 504.219,-200.821"/>
<text text-anchor="middle" x="473.786" y="-239.5" font-family="Helvetica,sans-Serif" font-size="10.00"> +subSpec</text>
</g>
<!-- Node4 -->
<g id="node4" class="node"><title>Node4</title>
<g id="a_node4"><a xlink:href="../../d9/db3/structo2_1_1header_1_1Descriptor.html" target="_top" xlink:title="{o2::header::Descriptor\l\&lt; gSizeDataOriginString,\l printDataOrigin \&gt;\n||+ Descriptor()\l+ Descriptor()\l+ Descriptor()\l+ Descriptor()\l+ operator=()\l+ operator ItgType()\l+ runtimeInit()\l+ operator==()\l+ operator==()\l+ operator\&lt;()\l+ operator!=()\l+ operator!=()\l+ as()\l+ print()\l}">
<polygon fill="none" stroke="black" points="143.286,-267 143.286,-489 268.286,-489 268.286,-267 143.286,-267"/>
<text text-anchor="start" x="151.286" y="-477" font-family="Helvetica,sans-Serif" font-size="10.00">o2::header::Descriptor</text>
<text text-anchor="start" x="151.286" y="-466" font-family="Helvetica,sans-Serif" font-size="10.00">&lt; gSizeDataOriginString,</text>
<text text-anchor="middle" x="205.786" y="-455" font-family="Helvetica,sans-Serif" font-size="10.00"> printDataOrigin &gt;</text>
<polyline fill="none" stroke="black" points="143.286,-448 268.286,-448 "/>
<text text-anchor="middle" x="205.786" y="-436" font-family="Helvetica,sans-Serif" font-size="10.00"> </text>
<polyline fill="none" stroke="black" points="143.286,-429 268.286,-429 "/>
<text text-anchor="start" x="151.286" y="-417" font-family="Helvetica,sans-Serif" font-size="10.00">+ Descriptor()</text>
<text text-anchor="start" x="151.286" y="-406" font-family="Helvetica,sans-Serif" font-size="10.00">+ Descriptor()</text>
<text text-anchor="start" x="151.286" y="-395" font-family="Helvetica,sans-Serif" font-size="10.00">+ Descriptor()</text>
<text text-anchor="start" x="151.286" y="-384" font-family="Helvetica,sans-Serif" font-size="10.00">+ Descriptor()</text>
<text text-anchor="start" x="151.286" y="-373" font-family="Helvetica,sans-Serif" font-size="10.00">+ operator=()</text>
<text text-anchor="start" x="151.286" y="-362" font-family="Helvetica,sans-Serif" font-size="10.00">+ operator ItgType()</text>
<text text-anchor="start" x="151.286" y="-351" font-family="Helvetica,sans-Serif" font-size="10.00">+ runtimeInit()</text>
<text text-anchor="start" x="151.286" y="-340" font-family="Helvetica,sans-Serif" font-size="10.00">+ operator==()</text>
<text text-anchor="start" x="151.286" y="-329" font-family="Helvetica,sans-Serif" font-size="10.00">+ operator==()</text>
<text text-anchor="start" x="151.286" y="-318" font-family="Helvetica,sans-Serif" font-size="10.00">+ operator&lt;()</text>
<text text-anchor="start" x="151.286" y="-307" font-family="Helvetica,sans-Serif" font-size="10.00">+ operator!=()</text>
<text text-anchor="start" x="151.286" y="-296" font-family="Helvetica,sans-Serif" font-size="10.00">+ operator!=()</text>
<text text-anchor="start" x="151.286" y="-285" font-family="Helvetica,sans-Serif" font-size="10.00">+ as()</text>
<text text-anchor="start" x="151.286" y="-274" font-family="Helvetica,sans-Serif" font-size="10.00">+ print()</text>
</a>
</g>
</g>
<!-- Node4&#45;&gt;Node2 -->
<g id="edge3" class="edge"><title>Node4&#45;&gt;Node2</title>
<path fill="none" stroke="#404040" d="M268.637,-326.824C294.004,-307.208 323.839,-284.924 351.786,-266 373.244,-251.469 378.439,-247.249 401.786,-236 434.262,-220.352 471.343,-205.918 503.523,-194.411"/>
<polygon fill="none" stroke="#404040" points="503.825,-194.305 508.15,-188.535 515.14,-190.308 510.815,-196.078 503.825,-194.305"/>
<text text-anchor="middle" x="418.286" y="-239.5" font-family="Helvetica,sans-Serif" font-size="10.00"> +origin</text>
</g>
<!-- Node5 -->
<g id="node5" class="node"><title>Node5</title>
<polygon fill="none" stroke="#bfbfbf" points="337.786,-867.5 337.786,-924.5 375.786,-924.5 375.786,-867.5 337.786,-867.5"/>
<text text-anchor="middle" x="356.786" y="-912.5" font-family="Helvetica,sans-Serif" font-size="10.00">Type</text>
<polyline fill="none" stroke="#bfbfbf" points="337.786,-905.5 375.786,-905.5 "/>
<text text-anchor="middle" x="356.786" y="-893.5" font-family="Helvetica,sans-Serif" font-size="10.00"> </text>
<polyline fill="none" stroke="#bfbfbf" points="337.786,-886.5 375.786,-886.5 "/>
<text text-anchor="middle" x="356.786" y="-874.5" font-family="Helvetica,sans-Serif" font-size="10.00"> </text>
</g>
<!-- Node5&#45;&gt;Node4 -->
<g id="edge4" class="edge"><title>Node5&#45;&gt;Node4</title>
<path fill="none" stroke="#404040" d="M356.011,-867.403C353.254,-802.04 340.714,-633.834 283.786,-508 280.742,-501.271 277.421,-494.459 273.922,-487.662"/>
<polygon fill="none" stroke="#404040" points="273.898,-487.618 267.558,-484.184 268.29,-477.01 274.63,-480.444 273.898,-487.618"/>
<text text-anchor="middle" x="361.786" y="-687.5" font-family="Helvetica,sans-Serif" font-size="10.00"> +itg</text>
</g>
<!-- Node9 -->
<g id="node9" class="node"><title>Node9</title>
<g id="a_node9"><a xlink:href="../../d9/db3/structo2_1_1header_1_1Descriptor.html" target="_top" xlink:title="{o2::header::Descriptor\l\&lt; N, PrinterPolicy \&gt;\n||+ Descriptor()\l+ Descriptor()\l+ Descriptor()\l+ operator=()\l+ operator ItgType()\l+ Descriptor()\l+ runtimeInit()\l+ operator==()\l+ operator\&lt;()\l+ operator!=()\l+ operator==()\l+ operator!=()\l+ as()\l+ print()\l}">
<polygon fill="none" stroke="black" points="186.286,-584.5 186.286,-795.5 299.286,-795.5 299.286,-584.5 186.286,-584.5"/>
<text text-anchor="start" x="194.286" y="-783.5" font-family="Helvetica,sans-Serif" font-size="10.00">o2::header::Descriptor</text>
<text text-anchor="middle" x="242.786" y="-772.5" font-family="Helvetica,sans-Serif" font-size="10.00">&lt; N, PrinterPolicy &gt;</text>
<polyline fill="none" stroke="black" points="186.286,-765.5 299.286,-765.5 "/>
<text text-anchor="middle" x="242.786" y="-753.5" font-family="Helvetica,sans-Serif" font-size="10.00"> </text>
<polyline fill="none" stroke="black" points="186.286,-746.5 299.286,-746.5 "/>
<text text-anchor="start" x="194.286" y="-734.5" font-family="Helvetica,sans-Serif" font-size="10.00">+ Descriptor()</text>
<text text-anchor="start" x="194.286" y="-723.5" font-family="Helvetica,sans-Serif" font-size="10.00">+ Descriptor()</text>
<text text-anchor="start" x="194.286" y="-712.5" font-family="Helvetica,sans-Serif" font-size="10.00">+ Descriptor()</text>
<text text-anchor="start" x="194.286" y="-701.5" font-family="Helvetica,sans-Serif" font-size="10.00">+ operator=()</text>
<text text-anchor="start" x="194.286" y="-690.5" font-family="Helvetica,sans-Serif" font-size="10.00">+ operator ItgType()</text>
<text text-anchor="start" x="194.286" y="-679.5" font-family="Helvetica,sans-Serif" font-size="10.00">+ Descriptor()</text>
<text text-anchor="start" x="194.286" y="-668.5" font-family="Helvetica,sans-Serif" font-size="10.00">+ runtimeInit()</text>
<text text-anchor="start" x="194.286" y="-657.5" font-family="Helvetica,sans-Serif" font-size="10.00">+ operator==()</text>
<text text-anchor="start" x="194.286" y="-646.5" font-family="Helvetica,sans-Serif" font-size="10.00">+ operator&lt;()</text>
<text text-anchor="start" x="194.286" y="-635.5" font-family="Helvetica,sans-Serif" font-size="10.00">+ operator!=()</text>
<text text-anchor="start" x="194.286" y="-624.5" font-family="Helvetica,sans-Serif" font-size="10.00">+ operator==()</text>
<text text-anchor="start" x="194.286" y="-613.5" font-family="Helvetica,sans-Serif" font-size="10.00">+ operator!=()</text>
<text text-anchor="start" x="194.286" y="-602.5" font-family="Helvetica,sans-Serif" font-size="10.00">+ as()</text>
<text text-anchor="start" x="194.286" y="-591.5" font-family="Helvetica,sans-Serif" font-size="10.00">+ print()</text>
</a>
</g>
</g>
<!-- Node5&#45;&gt;Node9 -->
<g id="edge9" class="edge"><title>Node5&#45;&gt;Node9</title>
<path fill="none" stroke="#404040" d="M337.696,-870.124C332.623,-863.118 327.304,-855.389 322.786,-848 314.711,-834.793 306.703,-820.673 299.05,-806.517"/>
<polygon fill="none" stroke="#404040" points="298.926,-806.284 292.571,-802.876 293.273,-795.699 299.628,-799.107 298.926,-806.284"/>
<text text-anchor="middle" x="332.786" y="-828.5" font-family="Helvetica,sans-Serif" font-size="10.00"> +itg</text>
</g>
<!-- Node11 -->
<g id="node11" class="node"><title>Node11</title>
<g id="a_node11"><a xlink:href="../../d9/db3/structo2_1_1header_1_1Descriptor.html" target="_top" xlink:title="{o2::header::Descriptor\l\&lt; gSizeDataDescriptionString,\l printDataDescription \&gt;\n||+ Descriptor()\l+ Descriptor()\l+ Descriptor()\l+ Descriptor()\l+ operator=()\l+ operator ItgType()\l+ runtimeInit()\l+ operator==()\l+ operator==()\l+ operator\&lt;()\l+ operator!=()\l+ operator!=()\l+ as()\l+ print()\l}">
<polygon fill="none" stroke="black" points="430.286,-267 430.286,-489 579.286,-489 579.286,-267 430.286,-267"/>
<text text-anchor="start" x="438.286" y="-477" font-family="Helvetica,sans-Serif" font-size="10.00">o2::header::Descriptor</text>
<text text-anchor="start" x="438.286" y="-466" font-family="Helvetica,sans-Serif" font-size="10.00">&lt; gSizeDataDescriptionString,</text>
<text text-anchor="middle" x="504.786" y="-455" font-family="Helvetica,sans-Serif" font-size="10.00"> printDataDescription &gt;</text>
<polyline fill="none" stroke="black" points="430.286,-448 579.286,-448 "/>
<text text-anchor="middle" x="504.786" y="-436" font-family="Helvetica,sans-Serif" font-size="10.00"> </text>
<polyline fill="none" stroke="black" points="430.286,-429 579.286,-429 "/>
<text text-anchor="start" x="438.286" y="-417" font-family="Helvetica,sans-Serif" font-size="10.00">+ Descriptor()</text>
<text text-anchor="start" x="438.286" y="-406" font-family="Helvetica,sans-Serif" font-size="10.00">+ Descriptor()</text>
<text text-anchor="start" x="438.286" y="-395" font-family="Helvetica,sans-Serif" font-size="10.00">+ Descriptor()</text>
<text text-anchor="start" x="438.286" y="-384" font-family="Helvetica,sans-Serif" font-size="10.00">+ Descriptor()</text>
<text text-anchor="start" x="438.286" y="-373" font-family="Helvetica,sans-Serif" font-size="10.00">+ operator=()</text>
<text text-anchor="start" x="438.286" y="-362" font-family="Helvetica,sans-Serif" font-size="10.00">+ operator ItgType()</text>
<text text-anchor="start" x="438.286" y="-351" font-family="Helvetica,sans-Serif" font-size="10.00">+ runtimeInit()</text>
<text text-anchor="start" x="438.286" y="-340" font-family="Helvetica,sans-Serif" font-size="10.00">+ operator==()</text>
<text text-anchor="start" x="438.286" y="-329" font-family="Helvetica,sans-Serif" font-size="10.00">+ operator==()</text>
<text text-anchor="start" x="438.286" y="-318" font-family="Helvetica,sans-Serif" font-size="10.00">+ operator&lt;()</text>
<text text-anchor="start" x="438.286" y="-307" font-family="Helvetica,sans-Serif" font-size="10.00">+ operator!=()</text>
<text text-anchor="start" x="438.286" y="-296" font-family="Helvetica,sans-Serif" font-size="10.00">+ operator!=()</text>
<text text-anchor="start" x="438.286" y="-285" font-family="Helvetica,sans-Serif" font-size="10.00">+ as()</text>
<text text-anchor="start" x="438.286" y="-274" font-family="Helvetica,sans-Serif" font-size="10.00">+ print()</text>
</a>
</g>
</g>
<!-- Node5&#45;&gt;Node11 -->
<g id="edge15" class="edge"><title>Node5&#45;&gt;Node11</title>
<path fill="none" stroke="#404040" d="M376.076,-891.886C416.178,-884.193 507.19,-860.043 535.786,-796 577.241,-703.156 564.055,-587.081 543.609,-500.988"/>
<polygon fill="none" stroke="#404040" points="543.604,-500.966 538.291,-496.09 540.749,-489.311 546.061,-494.187 543.604,-500.966"/>
<text text-anchor="middle" x="573.786" y="-687.5" font-family="Helvetica,sans-Serif" font-size="10.00"> +itg</text>
</g>
<!-- Node6 -->
<g id="node6" class="node"><title>Node6</title>
<polygon fill="none" stroke="#bfbfbf" points="121.286,-867.5 121.286,-924.5 156.286,-924.5 156.286,-867.5 121.286,-867.5"/>
<text text-anchor="middle" x="138.786" y="-912.5" font-family="Helvetica,sans-Serif" font-size="10.00">char</text>
<polyline fill="none" stroke="#bfbfbf" points="121.286,-905.5 156.286,-905.5 "/>
<text text-anchor="middle" x="138.786" y="-893.5" font-family="Helvetica,sans-Serif" font-size="10.00"> </text>
<polyline fill="none" stroke="#bfbfbf" points="121.286,-886.5 156.286,-886.5 "/>
<text text-anchor="middle" x="138.786" y="-874.5" font-family="Helvetica,sans-Serif" font-size="10.00"> </text>
</g>
<!-- Node6&#45;&gt;Node4 -->
<g id="edge5" class="edge"><title>Node6&#45;&gt;Node4</title>
<path fill="none" stroke="#404040" d="M121.269,-886.045C94.7696,-871.381 45.4953,-839.471 25.7859,-796 -13.1213,-710.186 -3.24637,-673.638 25.7859,-584 45.1197,-524.306 92.6485,-471.495 134.012,-434.43"/>
<polygon fill="none" stroke="#404040" points="134.26,-434.212 136.129,-427.247 143.277,-426.294 141.408,-433.259 134.26,-434.212"/>
<text text-anchor="middle" x="36.2859" y="-687.5" font-family="Helvetica,sans-Serif" font-size="10.00"> +str</text>
</g>
<!-- Node6&#45;&gt;Node9 -->
<g id="edge10" class="edge"><title>Node6&#45;&gt;Node9</title>
<path fill="none" stroke="#404040" d="M152.812,-867.488C161.092,-851.245 172.198,-829.462 183.775,-806.752"/>
<polygon fill="none" stroke="#404040" points="183.852,-806.602 183.013,-799.44 189.302,-795.911 190.14,-803.073 183.852,-806.602"/>
<text text-anchor="middle" x="189.286" y="-828.5" font-family="Helvetica,sans-Serif" font-size="10.00"> +str</text>
</g>
<!-- Node6&#45;&gt;Node11 -->
<g id="edge16" class="edge"><title>Node6&#45;&gt;Node11</title>
<path fill="none" stroke="#404040" d="M135.991,-867.365C128.554,-787.269 112.134,-557.54 162.786,-508 201.546,-470.09 351.803,-512.042 418.94,-489.165"/>
<polygon fill="none" stroke="#404040" points="419.089,-489.1 422.995,-483.038 430.092,-484.312 426.187,-490.374 419.089,-489.1"/>
<text text-anchor="middle" x="145.286" y="-687.5" font-family="Helvetica,sans-Serif" font-size="10.00"> +str</text>
</g>
<!-- Node7 -->
<g id="node7" class="node"><title>Node7</title>
<g id="a_node7"><a xlink:href="../../d1/da0/classint.html" target="_top" xlink:title="{int\n||}">
<polygon fill="none" stroke="black" points="609.286,-867.5 609.286,-924.5 638.286,-924.5 638.286,-867.5 609.286,-867.5"/>
<text text-anchor="middle" x="623.786" y="-912.5" font-family="Helvetica,sans-Serif" font-size="10.00">int</text>
<polyline fill="none" stroke="black" points="609.286,-905.5 638.286,-905.5 "/>
<text text-anchor="middle" x="623.786" y="-893.5" font-family="Helvetica,sans-Serif" font-size="10.00"> </text>
<polyline fill="none" stroke="black" points="609.286,-886.5 638.286,-886.5 "/>
<text text-anchor="middle" x="623.786" y="-874.5" font-family="Helvetica,sans-Serif" font-size="10.00"> </text>
</a>
</g>
</g>
<!-- Node7&#45;&gt;Node1 -->
<g id="edge23" class="edge"><title>Node7&#45;&gt;Node1</title>
<path fill="none" stroke="#404040" d="M638.543,-890.007C657.143,-883.087 689.169,-869.009 709.786,-848 764.924,-791.813 791.786,-769.722 791.786,-691 791.786,-691 791.786,-691 791.786,-166 791.786,-133.591 791.786,-96.8377 791.786,-69.716"/>
<polygon fill="none" stroke="#404040" points="791.786,-69.6103 787.786,-63.6103 791.786,-57.6103 795.786,-63.6103 791.786,-69.6103"/>
<text text-anchor="middle" x="813.286" y="-375.5" font-family="Helvetica,sans-Serif" font-size="10.00"> +channel</text>
</g>
<!-- Node7&#45;&gt;Node4 -->
<g id="edge6" class="edge"><title>Node7&#45;&gt;Node4</title>
<path fill="none" stroke="#404040" d="M609.088,-889.943C578.737,-878.62 509.575,-848.054 480.786,-796 465.283,-767.969 489.171,-531.849 467.786,-508 432.956,-469.156 399.799,-510.413 351.786,-490 325.878,-478.985 300.45,-462.338 278.262,-445.264"/>
<polygon fill="none" stroke="#404040" points="278.056,-445.102 270.868,-444.528 268.633,-437.672 275.821,-438.246 278.056,-445.102"/>
<text text-anchor="middle" x="506.286" y="-698.5" font-family="Helvetica,sans-Serif" font-size="10.00"> +arraySize</text>
<text text-anchor="middle" x="506.286" y="-687.5" font-family="Helvetica,sans-Serif" font-size="10.00">+size</text>
<text text-anchor="middle" x="506.286" y="-676.5" font-family="Helvetica,sans-Serif" font-size="10.00">+bitcount</text>
</g>
<!-- Node7&#45;&gt;Node9 -->
<g id="edge11" class="edge"><title>Node7&#45;&gt;Node9</title>
<path fill="none" stroke="#404040" d="M609.251,-893.351C563.277,-887.523 418.47,-864.428 323.786,-796 318.363,-792.081 313.127,-787.698 308.106,-783.008"/>
<polygon fill="none" stroke="#404040" points="307.82,-782.724 300.744,-781.333 299.306,-774.267 306.382,-775.657 307.82,-782.724"/>
<text text-anchor="middle" x="448.286" y="-839.5" font-family="Helvetica,sans-Serif" font-size="10.00"> +arraySize</text>
<text text-anchor="middle" x="448.286" y="-828.5" font-family="Helvetica,sans-Serif" font-size="10.00">+size</text>
<text text-anchor="middle" x="448.286" y="-817.5" font-family="Helvetica,sans-Serif" font-size="10.00">+bitcount</text>
</g>
<!-- Node7&#45;&gt;Node11 -->
<g id="edge17" class="edge"><title>Node7&#45;&gt;Node11</title>
<path fill="none" stroke="#404040" d="M622.403,-867.402C618.293,-790.438 604.97,-574.709 581.786,-508 580.899,-505.448 579.958,-502.891 578.968,-500.334"/>
<polygon fill="none" stroke="#404040" points="578.923,-500.225 572.933,-496.209 574.336,-489.136 580.326,-493.151 578.923,-500.225"/>
<text text-anchor="middle" x="644.286" y="-698.5" font-family="Helvetica,sans-Serif" font-size="10.00"> +arraySize</text>
<text text-anchor="middle" x="644.286" y="-687.5" font-family="Helvetica,sans-Serif" font-size="10.00">+size</text>
<text text-anchor="middle" x="644.286" y="-676.5" font-family="Helvetica,sans-Serif" font-size="10.00">+bitcount</text>
</g>
<!-- Node12 -->
<g id="node12" class="node"><title>Node12</title>
<g id="a_node12"><a xlink:href="../../de/d1b/structo2_1_1framework_1_1OutputLabel.html" target="_top" xlink:title="{o2::framework::OutputLabel\n||}">
<polygon fill="none" stroke="black" points="639.286,-508.5 639.286,-565.5 776.286,-565.5 776.286,-508.5 639.286,-508.5"/>
<text text-anchor="middle" x="707.786" y="-553.5" font-family="Helvetica,sans-Serif" font-size="10.00">o2::framework::OutputLabel</text>
<polyline fill="none" stroke="black" points="639.286,-546.5 776.286,-546.5 "/>
<text text-anchor="middle" x="707.786" y="-534.5" font-family="Helvetica,sans-Serif" font-size="10.00"> </text>
<polyline fill="none" stroke="black" points="639.286,-527.5 776.286,-527.5 "/>
<text text-anchor="middle" x="707.786" y="-515.5" font-family="Helvetica,sans-Serif" font-size="10.00"> </text>
</a>
</g>
</g>
<!-- Node7&#45;&gt;Node12 -->
<g id="edge21" class="edge"><title>Node7&#45;&gt;Node12</title>
<path fill="none" stroke="#404040" d="M638.379,-874.485C651.299,-855.197 669.503,-825.028 678.786,-796 702.581,-721.594 707.449,-629.684 708.111,-578.074"/>
<polygon fill="none" stroke="#404040" points="708.113,-577.856 704.155,-571.827 708.198,-565.856 712.155,-571.884 708.113,-577.856"/>
<text text-anchor="middle" x="689.286" y="-828.5" font-family="Helvetica,sans-Serif" font-size="10.00"> +value</text>
</g>
<!-- Node8 -->
<g id="node8" class="node"><title>Node8</title>
<polygon fill="none" stroke="#bfbfbf" points="228.286,-867 228.286,-925 257.286,-925 257.286,-867 228.286,-867"/>
<polyline fill="none" stroke="#bfbfbf" points="228.286,-905 257.286,-905 "/>
<text text-anchor="middle" x="242.786" y="-893" font-family="Helvetica,sans-Serif" font-size="10.00"> </text>
<polyline fill="none" stroke="#bfbfbf" points="228.286,-886 257.286,-886 "/>
<text text-anchor="middle" x="242.786" y="-874" font-family="Helvetica,sans-Serif" font-size="10.00"> </text>
</g>
<!-- Node8&#45;&gt;Node4 -->
<g id="edge7" class="edge"><title>Node8&#45;&gt;Node4</title>
<path fill="none" stroke="#404040" d="M232.946,-866.957C225.144,-848.948 212.421,-826.638 193.786,-814 153.512,-786.686 117.24,-833.13 85.7859,-796 7.28809,-703.336 75.2374,-562.019 136.322,-470.068"/>
<polygon fill="none" stroke="#404040" points="136.443,-469.888 136.483,-462.677 143.154,-459.941 143.115,-467.152 136.443,-469.888"/>
<text text-anchor="middle" x="101.286" y="-687.5" font-family="Helvetica,sans-Serif" font-size="10.00"> +@14</text>
</g>
<!-- Node8&#45;&gt;Node9 -->
<g id="edge12" class="edge"><title>Node8&#45;&gt;Node9</title>
<path fill="none" stroke="#404040" d="M242.786,-866.635C242.786,-850.746 242.786,-829.754 242.786,-807.828"/>
<polygon fill="none" stroke="#404040" points="242.786,-807.577 238.786,-801.577 242.786,-795.577 246.786,-801.577 242.786,-807.577"/>
<text text-anchor="middle" x="258.286" y="-828.5" font-family="Helvetica,sans-Serif" font-size="10.00"> +@14</text>
</g>
<!-- Node8&#45;&gt;Node11 -->
<g id="edge18" class="edge"><title>Node8&#45;&gt;Node11</title>
<path fill="none" stroke="#404040" d="M257.294,-873.905C273.024,-851.286 296.705,-818.05 302.786,-814 330.599,-795.478 352.172,-819.643 375.786,-796 444.344,-727.358 360.209,-653.608 427.786,-584 448.666,-562.492 473.882,-589.264 492.786,-566 507.704,-547.641 515.115,-524.625 518.081,-501.077"/>
<polygon fill="none" stroke="#404040" points="518.082,-501.063 514.668,-494.711 519.218,-489.117 522.632,-495.469 518.082,-501.063"/>
<text text-anchor="middle" x="443.286" y="-687.5" font-family="Helvetica,sans-Serif" font-size="10.00"> +@14</text>
</g>
<!-- Node9&#45;&gt;Node4 -->
<g id="edge8" class="edge"><title>Node9&#45;&gt;Node4</title>
<path fill="none" stroke="orange" d="M181.933,-594.504C177.848,-585.139 174.346,-575.556 171.786,-566 165.211,-541.457 165.667,-514.761 169.52,-489.427"/>
<polygon fill="orange" stroke="orange" points="178.844,-596.164 186.2,-603.789 185.205,-593.241 178.844,-596.164"/>
<text text-anchor="start" x="171.786" y="-540" font-family="Helvetica,sans-Serif" font-size="10.00"> &lt; gSizeDataOriginString,</text>
<text text-anchor="middle" x="227.786" y="-529" font-family="Helvetica,sans-Serif" font-size="10.00"> printDataOrigin &gt;</text>
</g>
<!-- Node9&#45;&gt;Node11 -->
<g id="edge19" class="edge"><title>Node9&#45;&gt;Node11</title>
<path fill="none" stroke="orange" d="M296.341,-575.573C312.717,-550.369 332.86,-525.868 356.786,-508 380.461,-490.32 396.375,-506.649 420.786,-490 423.98,-487.821 427.104,-485.481 430.152,-483.009"/>
<polygon fill="orange" stroke="orange" points="293.312,-573.814 290.932,-584.138 299.231,-577.552 293.312,-573.814"/>
<text text-anchor="start" x="356.786" y="-540" font-family="Helvetica,sans-Serif" font-size="10.00"> &lt; gSizeDataDescriptionString,</text>
<text text-anchor="middle" x="424.786" y="-529" font-family="Helvetica,sans-Serif" font-size="10.00"> printDataDescription &gt;</text>
</g>
<!-- Node10 -->
<g id="node10" class="node"><title>Node10</title>
<polygon fill="none" stroke="#bfbfbf" points="597.786,-349.5 597.786,-406.5 675.786,-406.5 675.786,-349.5 597.786,-349.5"/>
<text text-anchor="middle" x="636.786" y="-394.5" font-family="Helvetica,sans-Serif" font-size="10.00">enum Lifetime</text>
<polyline fill="none" stroke="#bfbfbf" points="597.786,-387.5 675.786,-387.5 "/>
<text text-anchor="middle" x="636.786" y="-375.5" font-family="Helvetica,sans-Serif" font-size="10.00"> </text>
<polyline fill="none" stroke="#bfbfbf" points="597.786,-368.5 675.786,-368.5 "/>
<text text-anchor="middle" x="636.786" y="-356.5" font-family="Helvetica,sans-Serif" font-size="10.00"> </text>
</g>
<!-- Node10&#45;&gt;Node2 -->
<g id="edge13" class="edge"><title>Node10&#45;&gt;Node2</title>
<path fill="none" stroke="#404040" d="M629.748,-349.246C622.025,-318.791 609.386,-268.953 599.315,-229.238"/>
<polygon fill="none" stroke="#404040" points="599.298,-229.168 593.945,-224.335 596.348,-217.536 601.7,-222.369 599.298,-229.168"/>
<text text-anchor="middle" x="625.286" y="-239.5" font-family="Helvetica,sans-Serif" font-size="10.00"> +lifetime</text>
</g>
<!-- Node11&#45;&gt;Node2 -->
<g id="edge14" class="edge"><title>Node11&#45;&gt;Node2</title>
<path fill="none" stroke="#404040" d="M530.223,-266.996C533.698,-256.376 537.548,-245.886 541.786,-236 542.852,-233.513 543.999,-231.01 545.209,-228.509"/>
<polygon fill="none" stroke="#404040" points="545.34,-228.256 544.548,-221.089 550.859,-217.601 551.651,-224.768 545.34,-228.256"/>
<text text-anchor="middle" x="570.286" y="-239.5" font-family="Helvetica,sans-Serif" font-size="10.00"> +description</text>
</g>
<!-- Node12&#45;&gt;Node2 -->
<g id="edge20" class="edge"><title>Node12&#45;&gt;Node2</title>
<path fill="none" stroke="#404040" d="M711.536,-508.323C717.137,-457.528 723.28,-347.192 684.786,-266 678.03,-251.75 668.26,-238.456 657.425,-226.541"/>
<polygon fill="none" stroke="#404040" points="657.264,-226.373 650.226,-224.806 648.965,-217.706 656.004,-219.273 657.264,-226.373"/>
<text text-anchor="middle" x="735.786" y="-375.5" font-family="Helvetica,sans-Serif" font-size="10.00"> +binding</text>
</g>
<!-- Node13 -->
<g id="node13" class="node"><title>Node13</title>
<g id="a_node13"><a xlink:href="../../dd/de2/classsize__t.html" target="_top" xlink:title="{size_t\n||}">
<polygon fill="none" stroke="black" points="820.286,-138.5 820.286,-195.5 863.286,-195.5 863.286,-138.5 820.286,-138.5"/>
<text text-anchor="middle" x="841.786" y="-183.5" font-family="Helvetica,sans-Serif" font-size="10.00">size_t</text>
<polyline fill="none" stroke="black" points="820.286,-176.5 863.286,-176.5 "/>
<text text-anchor="middle" x="841.786" y="-164.5" font-family="Helvetica,sans-Serif" font-size="10.00"> </text>
<polyline fill="none" stroke="black" points="820.286,-157.5 863.286,-157.5 "/>
<text text-anchor="middle" x="841.786" y="-145.5" font-family="Helvetica,sans-Serif" font-size="10.00"> </text>
</a>
</g>
</g>
<!-- Node13&#45;&gt;Node1 -->
<g id="edge22" class="edge"><title>Node13&#45;&gt;Node1</title>
<path fill="none" stroke="#404040" d="M831.668,-138.478C824.363,-118.609 814.393,-91.4906 806.249,-69.3389"/>
<polygon fill="none" stroke="#404040" points="806.202,-69.2104 800.377,-64.9592 802.061,-57.9475 807.886,-62.1987 806.202,-69.2104"/>
<text text-anchor="middle" x="854.786" y="-90" font-family="Helvetica,sans-Serif" font-size="10.00"> +maxTimeslices</text>
<text text-anchor="middle" x="854.786" y="-79" font-family="Helvetica,sans-Serif" font-size="10.00">+timeslice</text>
</g>
</g>
</svg>
