<?xml version="1.0" encoding="UTF-8" standalone="no"?>
<!DOCTYPE svg PUBLIC "-//W3C//DTD SVG 1.1//EN"
 "http://www.w3.org/Graphics/SVG/1.1/DTD/svg11.dtd">
<!-- Generated by graphviz version 2.36.0 (20140111.2315)
 -->
<!-- Title: nlohmann::detail::is_basic_json&lt; typename &gt; Pages: 1 -->
<svg width="136pt" height="172pt"
 viewBox="0.00 0.00 136.00 172.00" xmlns="http://www.w3.org/2000/svg" xmlns:xlink="http://www.w3.org/1999/xlink">
<g id="graph0" class="graph" transform="scale(1 1) rotate(0) translate(4 168)">
<title>nlohmann::detail::is_basic_json&lt; typename &gt;</title>
<!-- Node1 -->
<g id="node1" class="node"><title>Node1</title>
<polygon fill="#bfbfbf" stroke="black" points="-0.5,-1 -0.5,-69 128.5,-69 128.5,-1 -0.5,-1"/>
<text text-anchor="start" x="7.5" y="-57" font-family="Helvetica,sans-Serif" font-size="10.00">nlohmann::detail::is</text>
<text text-anchor="middle" x="64" y="-46" font-family="Helvetica,sans-Serif" font-size="10.00">_basic_json&lt; typename &gt;</text>
<polyline fill="none" stroke="black" points="-0.5,-39 128.5,-39 "/>
<text text-anchor="middle" x="64" y="-27" font-family="Helvetica,sans-Serif" font-size="10.00"> </text>
<polyline fill="none" stroke="black" points="-0.5,-20 128.5,-20 "/>
<text text-anchor="middle" x="64" y="-8" font-family="Helvetica,sans-Serif" font-size="10.00"> </text>
</g>
<!-- Node2 -->
<g id="node2" class="node"><title>Node2</title>
<polygon fill="none" stroke="#bfbfbf" points="33,-106.5 33,-163.5 95,-163.5 95,-106.5 33,-106.5"/>
<text text-anchor="middle" x="64" y="-151.5" font-family="Helvetica,sans-Serif" font-size="10.00">false_type</text>
<polyline fill="none" stroke="#bfbfbf" points="33,-144.5 95,-144.5 "/>
<text text-anchor="middle" x="64" y="-132.5" font-family="Helvetica,sans-Serif" font-size="10.00"> </text>
<polyline fill="none" stroke="#bfbfbf" points="33,-125.5 95,-125.5 "/>
<text text-anchor="middle" x="64" y="-113.5" font-family="Helvetica,sans-Serif" font-size="10.00"> </text>
</g>
<!-- Node2&#45;&gt;Node1 -->
<g id="edge1" class="edge"><title>Node2&#45;&gt;Node1</title>
<path fill="none" stroke="midnightblue" d="M64,-96.3023C64,-87.3951 64,-77.9608 64,-69.2659"/>
<polygon fill="none" stroke="midnightblue" points="60.5001,-96.4407 64,-106.441 67.5001,-96.4408 60.5001,-96.4407"/>
</g>
</g>
</svg>
