<?xml version="1.0" encoding="UTF-8" standalone="no"?>
<!DOCTYPE svg PUBLIC "-//W3C//DTD SVG 1.1//EN"
 "http://www.w3.org/Graphics/SVG/1.1/DTD/svg11.dtd">
<!-- Generated by graphviz version 2.36.0 (20140111.2315)
 -->
<!-- Title: o2::framework::is_boost_serializable&lt; Type, Archive, void_t&lt; typename Type::value_type &gt; &gt; Pages: 1 -->
<!--zoomable 698 -->
<svg id="main" version="1.1" xmlns="http://www.w3.org/2000/svg" xmlns:xlink="http://www.w3.org/1999/xlink" xml:space="preserve" onload="init(evt)">
<style type="text/css"><![CDATA[
.edge:hover path { stroke: red; }
.edge:hover polygon { stroke: red; fill: red; }
]]></style>
<script type="text/javascript"><![CDATA[
var edges = document.getElementsByTagName('g');
if (edges && edges.length) {
  for (var i=0;i<edges.length;i++) {
    if (edges[i].id.substr(0,4)=='edge') {
      edges[i].setAttribute('class','edge');
    }
  }
}
]]></script>
        <defs>
                <circle id="rim" cx="0" cy="0" r="7"/>
                <circle id="rim2" cx="0" cy="0" r="3.5"/>
                <g id="zoomPlus">
                        <use xlink:href="#rim" fill="#404040">
                                <set attributeName="fill" to="#808080" begin="zoomplus.mouseover" end="zoomplus.mouseout"/>
                        </use>
                        <path d="M-4,0h8M0,-4v8" fill="none" stroke="white" stroke-width="1.5" pointer-events="none"/>
                </g>
                <g id="zoomMin">
                        <use xlink:href="#rim" fill="#404040">
                                <set attributeName="fill" to="#808080" begin="zoomminus.mouseover" end="zoomminus.mouseout"/>
                        </use>
                        <path d="M-4,0h8" fill="none" stroke="white" stroke-width="1.5" pointer-events="none"/>
                </g>
                <g id="dirArrow">
                        <path fill="none" stroke="white" stroke-width="1.5" d="M0,-3.0v7 M-2.5,-0.5L0,-3.0L2.5,-0.5"/>
                </g>
               <g id="resetDef">
                       <use xlink:href="#rim2" fill="#404040">
                               <set attributeName="fill" to="#808080" begin="reset.mouseover" end="reset.mouseout"/>
                       </use>
               </g>
        </defs>

<script type="text/javascript">
var viewWidth = 232;
var viewHeight = 698;
var sectionId = 'dynsection-1';
</script>
<script xlink:href="../../svgpan.js"/>
<svg id="graph" class="graph">
<g id="viewport">
<title>o2::framework::is_boost_serializable&lt; Type, Archive, void_t&lt; typename Type::value_type &gt; &gt;</title>
<!-- Node1 -->
<g id="node1" class="node"><title>Node1</title>
<polygon fill="#bfbfbf" stroke="black" points="10,-1 10,-91 162,-91 162,-1 10,-1"/>
<text text-anchor="start" x="18" y="-79" font-family="Helvetica,sans-Serif" font-size="10.00">o2::framework::is_boost</text>
<text text-anchor="start" x="18" y="-68" font-family="Helvetica,sans-Serif" font-size="10.00">_serializable&lt; Type, Archive,</text>
<text text-anchor="start" x="18" y="-57" font-family="Helvetica,sans-Serif" font-size="10.00"> void_t&lt; typename Type::value</text>
<text text-anchor="middle" x="86" y="-46" font-family="Helvetica,sans-Serif" font-size="10.00">_type &gt; &gt;</text>
<polyline fill="none" stroke="black" points="10,-39 162,-39 "/>
<text text-anchor="middle" x="86" y="-27" font-family="Helvetica,sans-Serif" font-size="10.00"> </text>
<polyline fill="none" stroke="black" points="10,-20 162,-20 "/>
<text text-anchor="middle" x="86" y="-8" font-family="Helvetica,sans-Serif" font-size="10.00"> </text>
</g>
<!-- Node2 -->
<g id="node2" class="node"><title>Node2</title>
<g id="a_node2"><a xlink:href="../../d2/d70/structo2_1_1framework_1_1is__boost__serializable.html" target="_top" xlink:title="{o2::framework::is_boost\l_serializable\&lt; Type::value\l_type, Archive \&gt;\n||}">
<polygon fill="none" stroke="black" points="20.5,-130.5 20.5,-209.5 151.5,-209.5 151.5,-130.5 20.5,-130.5"/>
<text text-anchor="start" x="28.5" y="-197.5" font-family="Helvetica,sans-Serif" font-size="10.00">o2::framework::is_boost</text>
<text text-anchor="start" x="28.5" y="-186.5" font-family="Helvetica,sans-Serif" font-size="10.00">_serializable&lt; Type::value</text>
<text text-anchor="middle" x="86" y="-175.5" font-family="Helvetica,sans-Serif" font-size="10.00">_type, Archive &gt;</text>
<polyline fill="none" stroke="black" points="20.5,-168.5 151.5,-168.5 "/>
<text text-anchor="middle" x="86" y="-156.5" font-family="Helvetica,sans-Serif" font-size="10.00"> </text>
<polyline fill="none" stroke="black" points="20.5,-149.5 151.5,-149.5 "/>
<text text-anchor="middle" x="86" y="-137.5" font-family="Helvetica,sans-Serif" font-size="10.00"> </text>
</a>
</g>
</g>
<!-- Node2&#45;&gt;Node1 -->
<g id="edge1" class="edge"><title>Node2&#45;&gt;Node1</title>
<path fill="none" stroke="midnightblue" d="M86,-120.239C86,-110.681 86,-100.706 86,-91.3036"/>
<polygon fill="none" stroke="midnightblue" points="82.5001,-120.398 86,-130.398 89.5001,-120.398 82.5001,-120.398"/>
</g>
<!-- Node3 -->
<g id="node3" class="node"><title>Node3</title>
<g id="a_node3"><a xlink:href="../../d5/dbf/structo2_1_1framework_1_1is__boost__serializable__base.html" target="_top" xlink:title="{o2::framework::is_boost\l_serializable_base\&lt; Type,\l Archive \&gt;\n||}">
<polygon fill="none" stroke="black" points="-0.5,-386.5 -0.5,-465.5 130.5,-465.5 130.5,-386.5 -0.5,-386.5"/>
<text text-anchor="start" x="7.5" y="-453.5" font-family="Helvetica,sans-Serif" font-size="10.00">o2::framework::is_boost</text>
<text text-anchor="start" x="7.5" y="-442.5" font-family="Helvetica,sans-Serif" font-size="10.00">_serializable_base&lt; Type,</text>
<text text-anchor="middle" x="65" y="-431.5" font-family="Helvetica,sans-Serif" font-size="10.00"> Archive &gt;</text>
<polyline fill="none" stroke="black" points="-0.5,-424.5 130.5,-424.5 "/>
<text text-anchor="middle" x="65" y="-412.5" font-family="Helvetica,sans-Serif" font-size="10.00"> </text>
<polyline fill="none" stroke="black" points="-0.5,-405.5 130.5,-405.5 "/>
<text text-anchor="middle" x="65" y="-393.5" font-family="Helvetica,sans-Serif" font-size="10.00"> </text>
</a>
</g>
</g>
<!-- Node3&#45;&gt;Node2 -->
<g id="edge2" class="edge"><title>Node3&#45;&gt;Node2</title>
<path fill="none" stroke="midnightblue" d="M65.9381,-376.096C66.8403,-345.074 68.5966,-304.119 72,-268 73.8196,-248.689 76.7949,-227.341 79.5357,-209.6"/>
<polygon fill="none" stroke="midnightblue" points="62.4362,-376.123 65.6638,-386.214 69.4336,-376.313 62.4362,-376.123"/>
</g>
<!-- Node6 -->
<g id="node6" class="node"><title>Node6</title>
<g id="a_node6"><a xlink:href="../../d2/d70/structo2_1_1framework_1_1is__boost__serializable.html" target="_top" xlink:title="{o2::framework::is_boost\l_serializable\&lt; Type, Archive,\l typename \&gt;\n||}">
<polygon fill="none" stroke="black" points="81.5,-268.5 81.5,-347.5 224.5,-347.5 224.5,-268.5 81.5,-268.5"/>
<text text-anchor="start" x="89.5" y="-335.5" font-family="Helvetica,sans-Serif" font-size="10.00">o2::framework::is_boost</text>
<text text-anchor="start" x="89.5" y="-324.5" font-family="Helvetica,sans-Serif" font-size="10.00">_serializable&lt; Type, Archive,</text>
<text text-anchor="middle" x="153" y="-313.5" font-family="Helvetica,sans-Serif" font-size="10.00"> typename &gt;</text>
<polyline fill="none" stroke="black" points="81.5,-306.5 224.5,-306.5 "/>
<text text-anchor="middle" x="153" y="-294.5" font-family="Helvetica,sans-Serif" font-size="10.00"> </text>
<polyline fill="none" stroke="black" points="81.5,-287.5 224.5,-287.5 "/>
<text text-anchor="middle" x="153" y="-275.5" font-family="Helvetica,sans-Serif" font-size="10.00"> </text>
</a>
</g>
</g>
<!-- Node3&#45;&gt;Node6 -->
<g id="edge7" class="edge"><title>Node3&#45;&gt;Node6</title>
<path fill="none" stroke="midnightblue" d="M100.367,-378.38C108.05,-368.252 116.099,-357.643 123.525,-347.853"/>
<polygon fill="none" stroke="midnightblue" points="97.5582,-376.291 94.3027,-386.374 103.135,-380.522 97.5582,-376.291"/>
</g>
<!-- Node4 -->
<g id="node4" class="node"><title>Node4</title>
<polygon fill="none" stroke="#bfbfbf" points="47,-632.5 47,-689.5 109,-689.5 109,-632.5 47,-632.5"/>
<text text-anchor="middle" x="78" y="-677.5" font-family="Helvetica,sans-Serif" font-size="10.00">false_type</text>
<polyline fill="none" stroke="#bfbfbf" points="47,-670.5 109,-670.5 "/>
<text text-anchor="middle" x="78" y="-658.5" font-family="Helvetica,sans-Serif" font-size="10.00"> </text>
<polyline fill="none" stroke="#bfbfbf" points="47,-651.5 109,-651.5 "/>
<text text-anchor="middle" x="78" y="-639.5" font-family="Helvetica,sans-Serif" font-size="10.00"> </text>
</g>
<!-- Node4&#45;&gt;Node3 -->
<g id="edge3" class="edge"><title>Node4&#45;&gt;Node3</title>
<path fill="none" stroke="midnightblue" d="M71.4205,-622.38C70.0458,-613.129 68.7787,-603.229 68,-594 64.2946,-550.079 63.9317,-499.441 64.2485,-465.545"/>
<polygon fill="none" stroke="midnightblue" points="67.9966,-623.14 72.998,-632.48 74.9128,-622.06 67.9966,-623.14"/>
</g>
<!-- Node5 -->
<g id="node5" class="node"><title>Node5</title>
<g id="a_node5"><a xlink:href="../../d5/dbf/structo2_1_1framework_1_1is__boost__serializable__base.html" target="_top" xlink:title="{o2::framework::is_boost\l_serializable_base\&lt; Type,\l Archive, typename \&gt;\n||}">
<polygon fill="none" stroke="black" points="77.5,-514.5 77.5,-593.5 208.5,-593.5 208.5,-514.5 77.5,-514.5"/>
<text text-anchor="start" x="85.5" y="-581.5" font-family="Helvetica,sans-Serif" font-size="10.00">o2::framework::is_boost</text>
<text text-anchor="start" x="85.5" y="-570.5" font-family="Helvetica,sans-Serif" font-size="10.00">_serializable_base&lt; Type,</text>
<text text-anchor="middle" x="143" y="-559.5" font-family="Helvetica,sans-Serif" font-size="10.00"> Archive, typename &gt;</text>
<polyline fill="none" stroke="black" points="77.5,-552.5 208.5,-552.5 "/>
<text text-anchor="middle" x="143" y="-540.5" font-family="Helvetica,sans-Serif" font-size="10.00"> </text>
<polyline fill="none" stroke="black" points="77.5,-533.5 208.5,-533.5 "/>
<text text-anchor="middle" x="143" y="-521.5" font-family="Helvetica,sans-Serif" font-size="10.00"> </text>
</a>
</g>
</g>
<!-- Node4&#45;&gt;Node5 -->
<g id="edge5" class="edge"><title>Node4&#45;&gt;Node5</title>
<path fill="none" stroke="midnightblue" d="M100.405,-623.808C106.389,-614.141 112.88,-603.655 118.949,-593.851"/>
<polygon fill="none" stroke="midnightblue" points="97.3656,-622.068 95.078,-632.412 103.318,-625.752 97.3656,-622.068"/>
</g>
<!-- Node5&#45;&gt;Node3 -->
<g id="edge4" class="edge"><title>Node5&#45;&gt;Node3</title>
<path fill="none" stroke="orange" d="M113.494,-505.337C105.439,-492.325 96.8086,-478.383 89.0939,-465.921"/>
<polygon fill="orange" stroke="orange" points="110.721,-507.507 118.961,-514.168 116.673,-503.823 110.721,-507.507"/>
<text text-anchor="middle" x="147" y="-487.5" font-family="Helvetica,sans-Serif" font-size="10.00"> &lt; Type, Archive &gt;</text>
</g>
<!-- Node6&#45;&gt;Node2 -->
<g id="edge6" class="edge"><title>Node6&#45;&gt;Node2</title>
<path fill="none" stroke="orange" d="M129.398,-259.092C121.43,-242.917 112.641,-225.077 105.068,-209.705"/>
<polygon fill="orange" stroke="orange" points="126.421,-260.968 133.98,-268.392 132.7,-257.874 126.421,-260.968"/>
<text text-anchor="start" x="123" y="-242" font-family="Helvetica,sans-Serif" font-size="10.00"> &lt; Type::value_type,</text>
<text text-anchor="middle" x="168.5" y="-231" font-family="Helvetica,sans-Serif" font-size="10.00"> Archive &gt;</text>
</g>
</g>
</svg>
        <g id="navigator" transform="translate(0 0)" fill="#404254">
                <rect fill="#f2f5e9" fill-opacity="0.5" stroke="#606060" stroke-width=".5" x="0" y="0" width="60" height="60"/>
                <use id="zoomplus" xlink:href="#zoomPlus" x="17" y="9" onmousedown="handleZoom(evt,'in')"/>
                <use id="zoomminus" xlink:href="#zoomMin" x="42" y="9" onmousedown="handleZoom(evt,'out')"/>
                <use id="reset" xlink:href="#resetDef" x="30" y="36" onmousedown="handleReset()"/>
                <g id="arrowUp" xlink:href="#dirArrow" transform="translate(30 24)" onmousedown="handlePan(0,-1)">
                  <use xlink:href="#rim" fill="#404040">
                        <set attributeName="fill" to="#808080" begin="arrowUp.mouseover" end="arrowUp.mouseout"/>
                  </use>
                  <path fill="none" stroke="white" stroke-width="1.5" d="M0,-3.0v7 M-2.5,-0.5L0,-3.0L2.5,-0.5"/>
                </g>
                <g id="arrowRight" xlink:href="#dirArrow" transform="rotate(90) translate(36 -43)" onmousedown="handlePan(1,0)">
                  <use xlink:href="#rim" fill="#404040">
                        <set attributeName="fill" to="#808080" begin="arrowRight.mouseover" end="arrowRight.mouseout"/>
                  </use>
                  <path fill="none" stroke="white" stroke-width="1.5" d="M0,-3.0v7 M-2.5,-0.5L0,-3.0L2.5,-0.5"/>
                </g>
                <g id="arrowDown" xlink:href="#dirArrow" transform="rotate(180) translate(-30 -48)" onmousedown="handlePan(0,1)">
                  <use xlink:href="#rim" fill="#404040">
                        <set attributeName="fill" to="#808080" begin="arrowDown.mouseover" end="arrowDown.mouseout"/>
                  </use>
                  <path fill="none" stroke="white" stroke-width="1.5" d="M0,-3.0v7 M-2.5,-0.5L0,-3.0L2.5,-0.5"/>
                </g>
                <g id="arrowLeft" xlink:href="#dirArrow" transform="rotate(270) translate(-36 17)" onmousedown="handlePan(-1,0)">
                  <use xlink:href="#rim" fill="#404040">
                        <set attributeName="fill" to="#808080" begin="arrowLeft.mouseover" end="arrowLeft.mouseout"/>
                  </use>
                  <path fill="none" stroke="white" stroke-width="1.5" d="M0,-3.0v7 M-2.5,-0.5L0,-3.0L2.5,-0.5"/>
                </g>
        </g>
        <svg viewBox="0 0 15 15" width="100%" height="30px" preserveAspectRatio="xMaxYMin meet">
         <g id="arrow_out" transform="scale(0.3 0.3)">
          <a xlink:href="structo2_1_1framework_1_1is__boost__serializable_3_01Type_00_01Archive_00_01void__t_3_01typename286c5abb49ebe15675f094f3a531dd6e_org.svg" target="_base">
           <rect id="button" ry="5" rx="5" y="6" x="6" height="38" width="38"
                fill="#f2f5e9" fill-opacity="0.5" stroke="#606060" stroke-width="1.0"/>
           <path id="arrow"
             d="M 11.500037,31.436501 C 11.940474,20.09759 22.043105,11.32322 32.158766,21.979434 L 37.068811,17.246167 C 37.068811,17.246167 37.088388,32 37.088388,32 L 22.160133,31.978069 C 22.160133,31.978069 26.997745,27.140456 26.997745,27.140456 C 18.528582,18.264221 13.291696,25.230495 11.500037,31.436501 z"
             style="fill:#404040;"/>
          </a>
         </g>
        </svg>
</svg>
