<?xml version="1.0" encoding="UTF-8" standalone="no"?>
<!DOCTYPE svg PUBLIC "-//W3C//DTD SVG 1.1//EN"
 "http://www.w3.org/Graphics/SVG/1.1/DTD/svg11.dtd">
<!-- Generated by graphviz version 2.36.0 (20140111.2315)
 -->
<!-- Title: o2::ITSMFT::DigitPixelReader Pages: 1 -->
<svg width="206pt" height="750pt"
 viewBox="0.00 0.00 206.00 750.00" xmlns="http://www.w3.org/2000/svg" xmlns:xlink="http://www.w3.org/1999/xlink">
<g id="graph0" class="graph" transform="scale(1 1) rotate(0) translate(4 746)">
<title>o2::ITSMFT::DigitPixelReader</title>
<!-- Node1 -->
<g id="node1" class="node"><title>Node1</title>
<polygon fill="#bfbfbf" stroke="black" points="25.5,-1 25.5,-201 174.5,-201 174.5,-1 25.5,-1"/>
<text text-anchor="middle" x="100" y="-189" font-family="Helvetica,sans-Serif" font-size="10.00">o2::ITSMFT::DigitPixelReader</text>
<polyline fill="none" stroke="black" points="25.5,-182 174.5,-182 "/>
<text text-anchor="middle" x="100" y="-170" font-family="Helvetica,sans-Serif" font-size="10.00"> </text>
<polyline fill="none" stroke="black" points="25.5,-163 174.5,-163 "/>
<text text-anchor="start" x="33.5" y="-151" font-family="Helvetica,sans-Serif" font-size="10.00">+ DigitPixelReader()</text>
<text text-anchor="start" x="33.5" y="-140" font-family="Helvetica,sans-Serif" font-size="10.00">+ ~DigitPixelReader()</text>
<text text-anchor="start" x="33.5" y="-129" font-family="Helvetica,sans-Serif" font-size="10.00">+ getMC2ROFRecords()</text>
<text text-anchor="start" x="33.5" y="-118" font-family="Helvetica,sans-Serif" font-size="10.00">+ setMC2ROFRecords()</text>
<text text-anchor="start" x="33.5" y="-107" font-family="Helvetica,sans-Serif" font-size="10.00">+ setROFRecords()</text>
<text text-anchor="start" x="33.5" y="-96" font-family="Helvetica,sans-Serif" font-size="10.00">+ setDigits()</text>
<text text-anchor="start" x="33.5" y="-85" font-family="Helvetica,sans-Serif" font-size="10.00">+ setDigitsMCTruth()</text>
<text text-anchor="start" x="33.5" y="-74" font-family="Helvetica,sans-Serif" font-size="10.00">+ getDigitsMCTruth()</text>
<text text-anchor="start" x="33.5" y="-63" font-family="Helvetica,sans-Serif" font-size="10.00">+ getNextChipData()</text>
<text text-anchor="start" x="33.5" y="-52" font-family="Helvetica,sans-Serif" font-size="10.00">+ getNextChipData()</text>
<text text-anchor="start" x="33.5" y="-41" font-family="Helvetica,sans-Serif" font-size="10.00">+ init()</text>
<text text-anchor="start" x="33.5" y="-30" font-family="Helvetica,sans-Serif" font-size="10.00">+ openInput()</text>
<text text-anchor="start" x="33.5" y="-19" font-family="Helvetica,sans-Serif" font-size="10.00">+ readNextEntry()</text>
<text text-anchor="start" x="33.5" y="-8" font-family="Helvetica,sans-Serif" font-size="10.00">+ clear()</text>
</g>
<!-- Node2 -->
<g id="node2" class="node"><title>Node2</title>
<g id="a_node2"><a xlink:href="../../de/d6d/classo2_1_1ITSMFT_1_1PixelReader.html" target="_top" xlink:title="PixelReader class for the ITSMFT. ">
<polygon fill="none" stroke="black" points="36,-240.5 36,-407.5 164,-407.5 164,-240.5 36,-240.5"/>
<text text-anchor="middle" x="100" y="-395.5" font-family="Helvetica,sans-Serif" font-size="10.00">o2::ITSMFT::PixelReader</text>
<polyline fill="none" stroke="black" points="36,-388.5 164,-388.5 "/>
<text text-anchor="middle" x="100" y="-376.5" font-family="Helvetica,sans-Serif" font-size="10.00"> </text>
<polyline fill="none" stroke="black" points="36,-369.5 164,-369.5 "/>
<text text-anchor="start" x="44" y="-357.5" font-family="Helvetica,sans-Serif" font-size="10.00">+ PixelReader()</text>
<text text-anchor="start" x="44" y="-346.5" font-family="Helvetica,sans-Serif" font-size="10.00">+ ~PixelReader()</text>
<text text-anchor="start" x="44" y="-335.5" font-family="Helvetica,sans-Serif" font-size="10.00">+ PixelReader()</text>
<text text-anchor="start" x="44" y="-324.5" font-family="Helvetica,sans-Serif" font-size="10.00">+ operator=()</text>
<text text-anchor="start" x="44" y="-313.5" font-family="Helvetica,sans-Serif" font-size="10.00">+ init()</text>
<text text-anchor="start" x="44" y="-302.5" font-family="Helvetica,sans-Serif" font-size="10.00">+ getNextChipData()</text>
<text text-anchor="start" x="44" y="-291.5" font-family="Helvetica,sans-Serif" font-size="10.00">+ getNextChipData()</text>
<text text-anchor="start" x="44" y="-280.5" font-family="Helvetica,sans-Serif" font-size="10.00">+ getDigitsMCTruth()</text>
<text text-anchor="start" x="44" y="-269.5" font-family="Helvetica,sans-Serif" font-size="10.00">+ getInteractionRecord()</text>
<text text-anchor="start" x="44" y="-258.5" font-family="Helvetica,sans-Serif" font-size="10.00">+ getTrigger()</text>
<text text-anchor="start" x="44" y="-247.5" font-family="Helvetica,sans-Serif" font-size="10.00"># ClassDef()</text>
</a>
</g>
</g>
<!-- Node2&#45;&gt;Node1 -->
<g id="edge1" class="edge"><title>Node2&#45;&gt;Node1</title>
<path fill="none" stroke="midnightblue" d="M100,-230.135C100,-220.602 100,-210.891 100,-201.293"/>
<polygon fill="none" stroke="midnightblue" points="96.5001,-230.393 100,-240.393 103.5,-230.394 96.5001,-230.393"/>
</g>
<!-- Node3 -->
<g id="node3" class="node"><title>Node3</title>
<g id="a_node3"><a xlink:href="../../d1/d21/structo2_1_1InteractionRecord.html" target="_top" xlink:title="{o2::InteractionRecord\n||+ InteractionRecord()\l+ InteractionRecord()\l+ InteractionRecord()\l+ clear()\l+ isDummy()\l+ setFromNS()\l+ operator==()\l+ differenceInBC()\l+ print()\l+ ClassDefNV()\l+ bc2ns()\l+ ns2bc()\l}">
<polygon fill="none" stroke="black" points="0,-457 0,-635 110,-635 110,-457 0,-457"/>
<text text-anchor="middle" x="55" y="-623" font-family="Helvetica,sans-Serif" font-size="10.00">o2::InteractionRecord</text>
<polyline fill="none" stroke="black" points="0,-616 110,-616 "/>
<text text-anchor="middle" x="55" y="-604" font-family="Helvetica,sans-Serif" font-size="10.00"> </text>
<polyline fill="none" stroke="black" points="0,-597 110,-597 "/>
<text text-anchor="start" x="8" y="-585" font-family="Helvetica,sans-Serif" font-size="10.00">+ InteractionRecord()</text>
<text text-anchor="start" x="8" y="-574" font-family="Helvetica,sans-Serif" font-size="10.00">+ InteractionRecord()</text>
<text text-anchor="start" x="8" y="-563" font-family="Helvetica,sans-Serif" font-size="10.00">+ InteractionRecord()</text>
<text text-anchor="start" x="8" y="-552" font-family="Helvetica,sans-Serif" font-size="10.00">+ clear()</text>
<text text-anchor="start" x="8" y="-541" font-family="Helvetica,sans-Serif" font-size="10.00">+ isDummy()</text>
<text text-anchor="start" x="8" y="-530" font-family="Helvetica,sans-Serif" font-size="10.00">+ setFromNS()</text>
<text text-anchor="start" x="8" y="-519" font-family="Helvetica,sans-Serif" font-size="10.00">+ operator==()</text>
<text text-anchor="start" x="8" y="-508" font-family="Helvetica,sans-Serif" font-size="10.00">+ differenceInBC()</text>
<text text-anchor="start" x="8" y="-497" font-family="Helvetica,sans-Serif" font-size="10.00">+ print()</text>
<text text-anchor="start" x="8" y="-486" font-family="Helvetica,sans-Serif" font-size="10.00">+ ClassDefNV()</text>
<text text-anchor="start" x="8" y="-475" font-family="Helvetica,sans-Serif" font-size="10.00">+ bc2ns()</text>
<text text-anchor="start" x="8" y="-464" font-family="Helvetica,sans-Serif" font-size="10.00">+ ns2bc()</text>
</a>
</g>
</g>
<!-- Node3&#45;&gt;Node2 -->
<g id="edge2" class="edge"><title>Node3&#45;&gt;Node2</title>
<path fill="none" stroke="#404040" d="M43.005,-456.733C43.3669,-446.291 44.5722,-435.851 47,-426 47.5686,-423.693 48.2004,-421.38 48.8881,-419.067"/>
<polygon fill="none" stroke="#404040" points="48.9424,-418.905 47.059,-411.944 52.76,-407.528 54.6434,-414.489 48.9424,-418.905"/>
<text text-anchor="middle" x="94" y="-429.5" font-family="Helvetica,sans-Serif" font-size="10.00"> #mInteractionRecord</text>
</g>
<!-- Node4 -->
<g id="node4" class="node"><title>Node4</title>
<polygon fill="none" stroke="#bfbfbf" points="29.5,-684.5 29.5,-741.5 80.5,-741.5 80.5,-684.5 29.5,-684.5"/>
<text text-anchor="middle" x="55" y="-729.5" font-family="Helvetica,sans-Serif" font-size="10.00">uint16_t</text>
<polyline fill="none" stroke="#bfbfbf" points="29.5,-722.5 80.5,-722.5 "/>
<text text-anchor="middle" x="55" y="-710.5" font-family="Helvetica,sans-Serif" font-size="10.00"> </text>
<polyline fill="none" stroke="#bfbfbf" points="29.5,-703.5 80.5,-703.5 "/>
<text text-anchor="middle" x="55" y="-691.5" font-family="Helvetica,sans-Serif" font-size="10.00"> </text>
</g>
<!-- Node4&#45;&gt;Node3 -->
<g id="edge3" class="edge"><title>Node4&#45;&gt;Node3</title>
<path fill="none" stroke="#404040" d="M55,-684.383C55,-673.739 55,-660.866 55,-647.319"/>
<polygon fill="none" stroke="#404040" points="55.0001,-647.28 51,-641.28 55,-635.28 59,-641.28 55.0001,-647.28"/>
<text text-anchor="middle" x="65" y="-657.5" font-family="Helvetica,sans-Serif" font-size="10.00"> +bc</text>
</g>
<!-- Node5 -->
<g id="node5" class="node"><title>Node5</title>
<polygon fill="none" stroke="#bfbfbf" points="113.5,-684.5 113.5,-741.5 164.5,-741.5 164.5,-684.5 113.5,-684.5"/>
<text text-anchor="middle" x="139" y="-729.5" font-family="Helvetica,sans-Serif" font-size="10.00">uint32_t</text>
<polyline fill="none" stroke="#bfbfbf" points="113.5,-722.5 164.5,-722.5 "/>
<text text-anchor="middle" x="139" y="-710.5" font-family="Helvetica,sans-Serif" font-size="10.00"> </text>
<polyline fill="none" stroke="#bfbfbf" points="113.5,-703.5 164.5,-703.5 "/>
<text text-anchor="middle" x="139" y="-691.5" font-family="Helvetica,sans-Serif" font-size="10.00"> </text>
</g>
<!-- Node5&#45;&gt;Node2 -->
<g id="edge5" class="edge"><title>Node5&#45;&gt;Node2</title>
<path fill="none" stroke="#404040" d="M142.787,-684.455C149.062,-633.065 159.22,-519.325 141,-426 140.576,-423.831 140.106,-421.649 139.594,-419.461"/>
<polygon fill="none" stroke="#404040" points="139.559,-419.328 134.158,-414.55 136.491,-407.727 141.892,-412.504 139.559,-419.328"/>
<text text-anchor="middle" x="174.5" y="-543.5" font-family="Helvetica,sans-Serif" font-size="10.00"> #mTrigger</text>
</g>
<!-- Node5&#45;&gt;Node3 -->
<g id="edge4" class="edge"><title>Node5&#45;&gt;Node3</title>
<path fill="none" stroke="#404040" d="M123.051,-684.42C119.664,-678.387 116.159,-672.009 113,-666 109.561,-659.458 106.071,-652.682 102.597,-645.835"/>
<polygon fill="none" stroke="#404040" points="102.557,-645.755 96.2861,-642.195 97.1603,-635.037 103.431,-638.597 102.557,-645.755"/>
<text text-anchor="middle" x="127" y="-657.5" font-family="Helvetica,sans-Serif" font-size="10.00"> +orbit</text>
</g>
</g>
</svg>
