<?xml version="1.0" encoding="UTF-8" standalone="no"?>
<!DOCTYPE svg PUBLIC "-//W3C//DTD SVG 1.1//EN"
 "http://www.w3.org/Graphics/SVG/1.1/DTD/svg11.dtd">
<!-- Generated by graphviz version 2.36.0 (20140111.2315)
 -->
<!-- Title: o2::mch::PreClusterStruct Pages: 1 -->
<svg width="200pt" height="300pt"
 viewBox="0.00 0.00 200.00 300.00" xmlns="http://www.w3.org/2000/svg" xmlns:xlink="http://www.w3.org/1999/xlink">
<g id="graph0" class="graph" transform="scale(1 1) rotate(0) translate(4 296)">
<title>o2::mch::PreClusterStruct</title>
<!-- Node1 -->
<g id="node1" class="node"><title>Node1</title>
<polygon fill="#bfbfbf" stroke="black" points="-0.5,-0.5 -0.5,-57.5 130.5,-57.5 130.5,-0.5 -0.5,-0.5"/>
<text text-anchor="middle" x="65" y="-45.5" font-family="Helvetica,sans-Serif" font-size="10.00">o2::mch::PreClusterStruct</text>
<polyline fill="none" stroke="black" points="-0.5,-38.5 130.5,-38.5 "/>
<text text-anchor="middle" x="65" y="-26.5" font-family="Helvetica,sans-Serif" font-size="10.00"> </text>
<polyline fill="none" stroke="black" points="-0.5,-19.5 130.5,-19.5 "/>
<text text-anchor="middle" x="65" y="-7.5" font-family="Helvetica,sans-Serif" font-size="10.00"> </text>
</g>
<!-- Node2 -->
<g id="node2" class="node"><title>Node2</title>
<g id="a_node2"><a xlink:href="../../d5/d86/structo2_1_1mch_1_1DigitStruct.html" target="_top" xlink:title="{o2::mch::DigitStruct\n||+ operator==()\l+ operator!=()\l}">
<polygon fill="none" stroke="black" points="88,-107 88,-175 192,-175 192,-107 88,-107"/>
<text text-anchor="middle" x="140" y="-163" font-family="Helvetica,sans-Serif" font-size="10.00">o2::mch::DigitStruct</text>
<polyline fill="none" stroke="black" points="88,-156 192,-156 "/>
<text text-anchor="middle" x="140" y="-144" font-family="Helvetica,sans-Serif" font-size="10.00"> </text>
<polyline fill="none" stroke="black" points="88,-137 192,-137 "/>
<text text-anchor="start" x="96" y="-125" font-family="Helvetica,sans-Serif" font-size="10.00">+ operator==()</text>
<text text-anchor="start" x="96" y="-114" font-family="Helvetica,sans-Serif" font-size="10.00">+ operator!=()</text>
</a>
</g>
</g>
<!-- Node2&#45;&gt;Node1 -->
<g id="edge1" class="edge"><title>Node2&#45;&gt;Node1</title>
<path fill="none" stroke="#404040" d="M117.498,-106.996C109.138,-94.7352 99.5871,-80.7278 90.9443,-68.0516"/>
<polygon fill="none" stroke="#404040" points="90.7039,-67.699 84.019,-64.995 83.9438,-57.7843 90.6288,-60.4883 90.7039,-67.699"/>
<text text-anchor="middle" x="118.5" y="-79.5" font-family="Helvetica,sans-Serif" font-size="10.00"> +digits</text>
</g>
<!-- Node3 -->
<g id="node3" class="node"><title>Node3</title>
<polygon fill="none" stroke="#bfbfbf" points="24.5,-234.5 24.5,-291.5 75.5,-291.5 75.5,-234.5 24.5,-234.5"/>
<text text-anchor="middle" x="50" y="-279.5" font-family="Helvetica,sans-Serif" font-size="10.00">uint16_t</text>
<polyline fill="none" stroke="#bfbfbf" points="24.5,-272.5 75.5,-272.5 "/>
<text text-anchor="middle" x="50" y="-260.5" font-family="Helvetica,sans-Serif" font-size="10.00"> </text>
<polyline fill="none" stroke="#bfbfbf" points="24.5,-253.5 75.5,-253.5 "/>
<text text-anchor="middle" x="50" y="-241.5" font-family="Helvetica,sans-Serif" font-size="10.00"> </text>
</g>
<!-- Node3&#45;&gt;Node1 -->
<g id="edge4" class="edge"><title>Node3&#45;&gt;Node1</title>
<path fill="none" stroke="#404040" d="M44.187,-234.482C38.4671,-203.17 31.5832,-150.593 39,-106 41.0377,-93.7484 44.8045,-80.8228 48.8506,-69.1751"/>
<polygon fill="none" stroke="#404040" points="48.9713,-68.846 47.2845,-61.835 53.1074,-57.5813 54.7943,-64.5924 48.9713,-68.846"/>
<text text-anchor="middle" x="59" y="-138.5" font-family="Helvetica,sans-Serif" font-size="10.00"> +nDigits</text>
</g>
<!-- Node3&#45;&gt;Node2 -->
<g id="edge2" class="edge"><title>Node3&#45;&gt;Node2</title>
<path fill="none" stroke="#404040" d="M70.6478,-234.47C81.564,-219.915 95.216,-201.712 107.514,-185.315"/>
<polygon fill="none" stroke="#404040" points="107.759,-184.988 108.159,-177.788 114.959,-175.388 114.559,-182.588 107.759,-184.988"/>
<text text-anchor="middle" x="115" y="-208" font-family="Helvetica,sans-Serif" font-size="10.00"> +adc</text>
<text text-anchor="middle" x="115" y="-197" font-family="Helvetica,sans-Serif" font-size="10.00">+index</text>
</g>
<!-- Node4 -->
<g id="node4" class="node"><title>Node4</title>
<polygon fill="none" stroke="#bfbfbf" points="114.5,-234.5 114.5,-291.5 165.5,-291.5 165.5,-234.5 114.5,-234.5"/>
<text text-anchor="middle" x="140" y="-279.5" font-family="Helvetica,sans-Serif" font-size="10.00">uint32_t</text>
<polyline fill="none" stroke="#bfbfbf" points="114.5,-272.5 165.5,-272.5 "/>
<text text-anchor="middle" x="140" y="-260.5" font-family="Helvetica,sans-Serif" font-size="10.00"> </text>
<polyline fill="none" stroke="#bfbfbf" points="114.5,-253.5 165.5,-253.5 "/>
<text text-anchor="middle" x="140" y="-241.5" font-family="Helvetica,sans-Serif" font-size="10.00"> </text>
</g>
<!-- Node4&#45;&gt;Node2 -->
<g id="edge3" class="edge"><title>Node4&#45;&gt;Node2</title>
<path fill="none" stroke="#404040" d="M140,-234.47C140,-220.601 140,-203.421 140,-187.647"/>
<polygon fill="none" stroke="#404040" points="140,-187.388 136,-181.388 140,-175.388 144,-181.388 140,-187.388"/>
<text text-anchor="middle" x="151" y="-202.5" font-family="Helvetica,sans-Serif" font-size="10.00"> +uid</text>
</g>
</g>
</svg>
