<?xml version="1.0" encoding="UTF-8" standalone="no"?>
<!DOCTYPE svg PUBLIC "-//W3C//DTD SVG 1.1//EN"
 "http://www.w3.org/Graphics/SVG/1.1/DTD/svg11.dtd">
<!-- Generated by graphviz version 2.36.0 (20140111.2315)
 -->
<!-- Title: o2::tof::RawDataReader Pages: 1 -->
<svg width="130pt" height="216pt"
 viewBox="0.00 0.00 130.00 216.00" xmlns="http://www.w3.org/2000/svg" xmlns:xlink="http://www.w3.org/1999/xlink">
<g id="graph0" class="graph" transform="scale(1 1) rotate(0) translate(4 212)">
<title>o2::tof::RawDataReader</title>
<!-- Node1 -->
<g id="node1" class="node"><title>Node1</title>
<polygon fill="#bfbfbf" stroke="black" points="-0.5,-0.5 -0.5,-57.5 122.5,-57.5 122.5,-0.5 -0.5,-0.5"/>
<text text-anchor="middle" x="61" y="-45.5" font-family="Helvetica,sans-Serif" font-size="10.00">o2::tof::RawDataReader</text>
<polyline fill="none" stroke="black" points="-0.5,-38.5 122.5,-38.5 "/>
<text text-anchor="middle" x="61" y="-26.5" font-family="Helvetica,sans-Serif" font-size="10.00"> </text>
<polyline fill="none" stroke="black" points="-0.5,-19.5 122.5,-19.5 "/>
<text text-anchor="start" x="7.5" y="-7.5" font-family="Helvetica,sans-Serif" font-size="10.00">+ getNextStripData()</text>
</g>
<!-- Node2 -->
<g id="node2" class="node"><title>Node2</title>
<g id="a_node2"><a xlink:href="../../d8/de2/classo2_1_1tof_1_1DataReader.html" target="_top" xlink:title="DataReader class for TOF. ">
<polygon fill="none" stroke="black" points="7.5,-95 7.5,-207 114.5,-207 114.5,-95 7.5,-95"/>
<text text-anchor="middle" x="61" y="-195" font-family="Helvetica,sans-Serif" font-size="10.00">o2::tof::DataReader</text>
<polyline fill="none" stroke="black" points="7.5,-188 114.5,-188 "/>
<text text-anchor="middle" x="61" y="-176" font-family="Helvetica,sans-Serif" font-size="10.00"> </text>
<polyline fill="none" stroke="black" points="7.5,-169 114.5,-169 "/>
<text text-anchor="start" x="15.5" y="-157" font-family="Helvetica,sans-Serif" font-size="10.00">+ DataReader()</text>
<text text-anchor="start" x="15.5" y="-146" font-family="Helvetica,sans-Serif" font-size="10.00">+ DataReader()</text>
<text text-anchor="start" x="15.5" y="-135" font-family="Helvetica,sans-Serif" font-size="10.00">+ ~DataReader()</text>
<text text-anchor="start" x="15.5" y="-124" font-family="Helvetica,sans-Serif" font-size="10.00">+ operator=()</text>
<text text-anchor="start" x="15.5" y="-113" font-family="Helvetica,sans-Serif" font-size="10.00">+ init()</text>
<text text-anchor="start" x="15.5" y="-102" font-family="Helvetica,sans-Serif" font-size="10.00">+ getNextStripData()</text>
</a>
</g>
</g>
<!-- Node2&#45;&gt;Node1 -->
<g id="edge1" class="edge"><title>Node2&#45;&gt;Node1</title>
<path fill="none" stroke="midnightblue" d="M61,-84.89C61,-75.2893 61,-65.8644 61,-57.6081"/>
<polygon fill="none" stroke="midnightblue" points="57.5001,-84.9169 61,-94.917 64.5001,-84.917 57.5001,-84.9169"/>
</g>
</g>
</svg>
