<?xml version="1.0" encoding="UTF-8" standalone="no"?>
<!DOCTYPE svg PUBLIC "-//W3C//DTD SVG 1.1//EN"
 "http://www.w3.org/Graphics/SVG/1.1/DTD/svg11.dtd">
<!-- Generated by graphviz version 2.36.0 (20140111.2315)
 -->
<!-- Title: nlohmann::detail::out_of_range Pages: 1 -->
<svg width="144pt" height="288pt"
 viewBox="0.00 0.00 144.00 288.00" xmlns="http://www.w3.org/2000/svg" xmlns:xlink="http://www.w3.org/1999/xlink">
<g id="graph0" class="graph" transform="scale(1 1) rotate(0) translate(4 284)">
<title>nlohmann::detail::out_of_range</title>
<!-- Node1 -->
<g id="node1" class="node"><title>Node1</title>
<polygon fill="#bfbfbf" stroke="black" points="14.5,-1 14.5,-69 121.5,-69 121.5,-1 14.5,-1"/>
<text text-anchor="start" x="22.5" y="-57" font-family="Helvetica,sans-Serif" font-size="10.00">nlohmann::detail::out</text>
<text text-anchor="middle" x="68" y="-46" font-family="Helvetica,sans-Serif" font-size="10.00">_of_range</text>
<polyline fill="none" stroke="black" points="14.5,-39 121.5,-39 "/>
<text text-anchor="middle" x="68" y="-27" font-family="Helvetica,sans-Serif" font-size="10.00"> </text>
<polyline fill="none" stroke="black" points="14.5,-20 121.5,-20 "/>
<text text-anchor="start" x="22.5" y="-8" font-family="Helvetica,sans-Serif" font-size="10.00">+ create()</text>
</g>
<!-- Node2 -->
<g id="node2" class="node"><title>Node2</title>
<g id="a_node2"><a xlink:href="../../de/df2/classnlohmann_1_1detail_1_1exception.html" target="_top" xlink:title="general exception of the basic_json class ">
<polygon fill="none" stroke="black" points="0,-106.5 0,-185.5 136,-185.5 136,-106.5 0,-106.5"/>
<text text-anchor="middle" x="68" y="-173.5" font-family="Helvetica,sans-Serif" font-size="10.00">nlohmann::detail::exception</text>
<polyline fill="none" stroke="black" points="0,-166.5 136,-166.5 "/>
<text text-anchor="start" x="8" y="-154.5" font-family="Helvetica,sans-Serif" font-size="10.00">+ id</text>
<polyline fill="none" stroke="black" points="0,-147.5 136,-147.5 "/>
<text text-anchor="start" x="8" y="-135.5" font-family="Helvetica,sans-Serif" font-size="10.00">+ what()</text>
<text text-anchor="start" x="8" y="-124.5" font-family="Helvetica,sans-Serif" font-size="10.00"># exception()</text>
<text text-anchor="start" x="8" y="-113.5" font-family="Helvetica,sans-Serif" font-size="10.00"># name()</text>
</a>
</g>
</g>
<!-- Node2&#45;&gt;Node1 -->
<g id="edge1" class="edge"><title>Node2&#45;&gt;Node1</title>
<path fill="none" stroke="midnightblue" d="M68,-96.125C68,-87.0164 68,-77.6961 68,-69.1962"/>
<polygon fill="none" stroke="midnightblue" points="64.5001,-96.2637 68,-106.264 71.5001,-96.2638 64.5001,-96.2637"/>
</g>
<!-- Node3 -->
<g id="node3" class="node"><title>Node3</title>
<polygon fill="none" stroke="#bfbfbf" points="38.5,-222.5 38.5,-279.5 97.5,-279.5 97.5,-222.5 38.5,-222.5"/>
<text text-anchor="middle" x="68" y="-267.5" font-family="Helvetica,sans-Serif" font-size="10.00">exception</text>
<polyline fill="none" stroke="#bfbfbf" points="38.5,-260.5 97.5,-260.5 "/>
<text text-anchor="middle" x="68" y="-248.5" font-family="Helvetica,sans-Serif" font-size="10.00"> </text>
<polyline fill="none" stroke="#bfbfbf" points="38.5,-241.5 97.5,-241.5 "/>
<text text-anchor="middle" x="68" y="-229.5" font-family="Helvetica,sans-Serif" font-size="10.00"> </text>
</g>
<!-- Node3&#45;&gt;Node2 -->
<g id="edge2" class="edge"><title>Node3&#45;&gt;Node2</title>
<path fill="none" stroke="midnightblue" d="M68,-212.156C68,-203.473 68,-194.232 68,-185.52"/>
<polygon fill="none" stroke="midnightblue" points="64.5001,-212.398 68,-222.398 71.5001,-212.398 64.5001,-212.398"/>
</g>
</g>
</svg>
