<?xml version="1.0" encoding="UTF-8" standalone="no"?>
<!DOCTYPE svg PUBLIC "-//W3C//DTD SVG 1.1//EN"
 "http://www.w3.org/Graphics/SVG/1.1/DTD/svg11.dtd">
<!-- Generated by graphviz version 2.36.0 (20140111.2315)
 -->
<!-- Title: MchCathodeSegmentation Pages: 1 -->
<svg width="208pt" height="184pt"
 viewBox="0.00 0.00 208.00 184.00" xmlns="http://www.w3.org/2000/svg" xmlns:xlink="http://www.w3.org/1999/xlink">
<g id="graph0" class="graph" transform="scale(1 1) rotate(0) translate(4 180)">
<title>MchCathodeSegmentation</title>
<!-- Node1 -->
<g id="node1" class="node"><title>Node1</title>
<polygon fill="#bfbfbf" stroke="black" points="26.5,-0.5 26.5,-57.5 173.5,-57.5 173.5,-0.5 26.5,-0.5"/>
<text text-anchor="middle" x="100" y="-45.5" font-family="Helvetica,sans-Serif" font-size="10.00">MchCathodeSegmentation</text>
<polyline fill="none" stroke="black" points="26.5,-38.5 173.5,-38.5 "/>
<text text-anchor="middle" x="100" y="-26.5" font-family="Helvetica,sans-Serif" font-size="10.00"> </text>
<polyline fill="none" stroke="black" points="26.5,-19.5 173.5,-19.5 "/>
<text text-anchor="start" x="34.5" y="-7.5" font-family="Helvetica,sans-Serif" font-size="10.00">+ MchCathodeSegmentation()</text>
</g>
<!-- Node2 -->
<g id="node2" class="node"><title>Node2</title>
<polygon fill="none" stroke="#bfbfbf" points="0,-107 0,-175 200,-175 200,-107 0,-107"/>
<text text-anchor="start" x="8" y="-163" font-family="Helvetica,sans-Serif" font-size="10.00">unique_ptr&lt; o2::mch</text>
<text text-anchor="middle" x="100" y="-152" font-family="Helvetica,sans-Serif" font-size="10.00">::mapping::impl3::CathodeSegmentation &gt;</text>
<polyline fill="none" stroke="#bfbfbf" points="0,-145 200,-145 "/>
<text text-anchor="middle" x="100" y="-133" font-family="Helvetica,sans-Serif" font-size="10.00"> </text>
<polyline fill="none" stroke="#bfbfbf" points="0,-126 200,-126 "/>
<text text-anchor="middle" x="100" y="-114" font-family="Helvetica,sans-Serif" font-size="10.00"> </text>
</g>
<!-- Node2&#45;&gt;Node1 -->
<g id="edge1" class="edge"><title>Node2&#45;&gt;Node1</title>
<path fill="none" stroke="#404040" d="M100,-106.996C100,-95.3482 100,-82.1242 100,-69.9627"/>
<polygon fill="none" stroke="#404040" points="100,-69.7843 96,-63.7843 100,-57.7843 104,-63.7843 100,-69.7843"/>
<text text-anchor="middle" x="114" y="-79.5" font-family="Helvetica,sans-Serif" font-size="10.00"> +impl</text>
</g>
</g>
</svg>
