<?xml version="1.0" encoding="UTF-8" standalone="no"?>
<!DOCTYPE svg PUBLIC "-//W3C//DTD SVG 1.1//EN"
 "http://www.w3.org/Graphics/SVG/1.1/DTD/svg11.dtd">
<!-- Generated by graphviz version 2.36.0 (20140111.2315)
 -->
<!-- Title: /home/travis/build/AliceO2Group/AliceO2/Framework/Core/include/Framework/RootTableBuilderHelpers.h Pages: 1 -->
<svg width="989pt" height="174pt"
 viewBox="0.00 0.00 989.00 174.00" xmlns="http://www.w3.org/2000/svg" xmlns:xlink="http://www.w3.org/1999/xlink">
<g id="graph0" class="graph" transform="scale(1 1) rotate(0) translate(4 170)">
<title>/home/travis/build/AliceO2Group/AliceO2/Framework/Core/include/Framework/RootTableBuilderHelpers.h</title>
<!-- Node1 -->
<g id="node1" class="node"><title>Node1</title>
<polygon fill="#bfbfbf" stroke="black" points="434,-113 434,-165 622,-165 622,-113 434,-113"/>
<text text-anchor="start" x="442" y="-153" font-family="Helvetica,sans-Serif" font-size="10.00">/home/travis/build</text>
<text text-anchor="start" x="442" y="-142" font-family="Helvetica,sans-Serif" font-size="10.00">/AliceO2Group/AliceO2</text>
<text text-anchor="start" x="442" y="-131" font-family="Helvetica,sans-Serif" font-size="10.00">/Framework/Core/include</text>
<text text-anchor="middle" x="528" y="-120" font-family="Helvetica,sans-Serif" font-size="10.00">/Framework/RootTableBuilderHelpers.h</text>
</g>
<!-- Node2 -->
<g id="node2" class="node"><title>Node2</title>
<g id="a_node2"><a xlink:href="../../d5/d98/TableBuilder_8h.html" target="_top" xlink:title="Framework/TableBuilder.h">
<polygon fill="none" stroke="black" points="349.5,-56.5 349.5,-75.5 480.5,-75.5 480.5,-56.5 349.5,-56.5"/>
<text text-anchor="middle" x="415" y="-63.5" font-family="Helvetica,sans-Serif" font-size="10.00">Framework/TableBuilder.h</text>
</a>
</g>
</g>
<!-- Node1&#45;&gt;Node2 -->
<g id="edge1" class="edge"><title>Node1&#45;&gt;Node2</title>
<path fill="none" stroke="midnightblue" d="M488.16,-112.968C471.168,-102.291 451.968,-90.2274 437.501,-81.1379"/>
<polygon fill="midnightblue" stroke="midnightblue" points="439.079,-77.9955 428.749,-75.6389 435.354,-83.9227 439.079,-77.9955"/>
</g>
<!-- Node3 -->
<g id="node3" class="node"><title>Node3</title>
<polygon fill="none" stroke="#bfbfbf" points="0,-0.5 0,-19.5 62,-19.5 62,-0.5 0,-0.5"/>
<text text-anchor="middle" x="31" y="-7.5" font-family="Helvetica,sans-Serif" font-size="10.00">arrow/stl.h</text>
</g>
<!-- Node1&#45;&gt;Node3 -->
<g id="edge11" class="edge"><title>Node1&#45;&gt;Node3</title>
<path fill="none" stroke="midnightblue" d="M433.747,-120.789C375.539,-109.518 299.52,-93.6414 233,-76 172.762,-60.0246 103.93,-36.7797 64.1653,-22.8484"/>
<polygon fill="midnightblue" stroke="midnightblue" points="65.2996,-19.5372 54.7048,-19.5173 62.9748,-26.1399 65.2996,-19.5372"/>
</g>
<!-- Node4 -->
<g id="node4" class="node"><title>Node4</title>
<polygon fill="none" stroke="#bfbfbf" points="80,-0.5 80,-19.5 178,-19.5 178,-0.5 80,-0.5"/>
<text text-anchor="middle" x="129" y="-7.5" font-family="Helvetica,sans-Serif" font-size="10.00">arrow/type_traits.h</text>
</g>
<!-- Node1&#45;&gt;Node4 -->
<g id="edge12" class="edge"><title>Node1&#45;&gt;Node4</title>
<path fill="none" stroke="midnightblue" d="M433.78,-116.241C389.99,-105.394 337.447,-91.326 291,-76 243.273,-60.2516 189.396,-37.6285 157.367,-23.6472"/>
<polygon fill="midnightblue" stroke="midnightblue" points="158.722,-20.4199 148.159,-19.6028 155.907,-26.8289 158.722,-20.4199"/>
</g>
<!-- Node5 -->
<g id="node5" class="node"><title>Node5</title>
<polygon fill="none" stroke="#bfbfbf" points="196.5,-0.5 196.5,-19.5 269.5,-19.5 269.5,-0.5 196.5,-0.5"/>
<text text-anchor="middle" x="233" y="-7.5" font-family="Helvetica,sans-Serif" font-size="10.00">arrow/table.h</text>
</g>
<!-- Node1&#45;&gt;Node5 -->
<g id="edge13" class="edge"><title>Node1&#45;&gt;Node5</title>
<path fill="none" stroke="midnightblue" d="M433.929,-115.423C399.411,-105.484 360.588,-92.312 327,-76 298.625,-62.2199 269.239,-40.4863 251.042,-25.9927"/>
<polygon fill="midnightblue" stroke="midnightblue" points="253.034,-23.1021 243.061,-19.5258 248.627,-28.5407 253.034,-23.1021"/>
</g>
<!-- Node6 -->
<g id="node6" class="node"><title>Node6</title>
<polygon fill="none" stroke="#bfbfbf" points="288,-0.5 288,-19.5 368,-19.5 368,-0.5 288,-0.5"/>
<text text-anchor="middle" x="328" y="-7.5" font-family="Helvetica,sans-Serif" font-size="10.00">arrow/builder.h</text>
</g>
<!-- Node1&#45;&gt;Node6 -->
<g id="edge14" class="edge"><title>Node1&#45;&gt;Node6</title>
<path fill="none" stroke="midnightblue" d="M433.699,-127.116C399.614,-118.508 363.724,-103.192 340,-76 329.047,-63.4457 326.658,-44.2245 326.642,-29.9365"/>
<polygon fill="midnightblue" stroke="midnightblue" points="330.146,-29.88 327.02,-19.7571 323.151,-29.6203 330.146,-29.88"/>
</g>
<!-- Node8 -->
<g id="node8" class="node"><title>Node8</title>
<polygon fill="none" stroke="#bfbfbf" points="464,-0.5 464,-19.5 508,-19.5 508,-0.5 464,-0.5"/>
<text text-anchor="middle" x="486" y="-7.5" font-family="Helvetica,sans-Serif" font-size="10.00">vector</text>
</g>
<!-- Node1&#45;&gt;Node8 -->
<g id="edge18" class="edge"><title>Node1&#45;&gt;Node8</title>
<path fill="none" stroke="midnightblue" d="M519.702,-112.909C511.563,-88.2964 499.345,-51.3524 492.072,-29.3617"/>
<polygon fill="midnightblue" stroke="midnightblue" points="495.316,-28.0231 488.853,-19.6278 488.67,-30.2211 495.316,-28.0231"/>
</g>
<!-- Node9 -->
<g id="node9" class="node"><title>Node9</title>
<polygon fill="none" stroke="#bfbfbf" points="526.5,-0.5 526.5,-19.5 567.5,-19.5 567.5,-0.5 526.5,-0.5"/>
<text text-anchor="middle" x="547" y="-7.5" font-family="Helvetica,sans-Serif" font-size="10.00">string</text>
</g>
<!-- Node1&#45;&gt;Node9 -->
<g id="edge19" class="edge"><title>Node1&#45;&gt;Node9</title>
<path fill="none" stroke="midnightblue" d="M531.754,-112.909C535.419,-88.4088 540.913,-51.6895 544.208,-29.6639"/>
<polygon fill="midnightblue" stroke="midnightblue" points="547.691,-30.0356 545.709,-19.6278 540.768,-28.9999 547.691,-30.0356"/>
</g>
<!-- Node10 -->
<g id="node10" class="node"><title>Node10</title>
<polygon fill="none" stroke="#bfbfbf" points="586,-0.5 586,-19.5 638,-19.5 638,-0.5 586,-0.5"/>
<text text-anchor="middle" x="612" y="-7.5" font-family="Helvetica,sans-Serif" font-size="10.00">memory</text>
</g>
<!-- Node1&#45;&gt;Node10 -->
<g id="edge20" class="edge"><title>Node1&#45;&gt;Node10</title>
<path fill="none" stroke="midnightblue" d="M544.596,-112.909C561.172,-87.8468 586.206,-49.9988 600.642,-28.1719"/>
<polygon fill="midnightblue" stroke="midnightblue" points="603.696,-29.8993 606.293,-19.6278 597.857,-26.0377 603.696,-29.8993"/>
</g>
<!-- Node11 -->
<g id="node11" class="node"><title>Node11</title>
<polygon fill="none" stroke="#bfbfbf" points="656,-0.5 656,-19.5 694,-19.5 694,-0.5 656,-0.5"/>
<text text-anchor="middle" x="675" y="-7.5" font-family="Helvetica,sans-Serif" font-size="10.00">tuple</text>
</g>
<!-- Node1&#45;&gt;Node11 -->
<g id="edge21" class="edge"><title>Node1&#45;&gt;Node11</title>
<path fill="none" stroke="midnightblue" d="M557.042,-112.909C586.832,-87.1725 632.228,-47.9528 657.122,-26.4454"/>
<polygon fill="midnightblue" stroke="midnightblue" points="659.735,-28.8139 665.013,-19.6278 655.158,-23.5169 659.735,-28.8139"/>
</g>
<!-- Node12 -->
<g id="node12" class="node"><title>Node12</title>
<polygon fill="none" stroke="#bfbfbf" points="651,-56.5 651,-75.5 733,-75.5 733,-56.5 651,-56.5"/>
<text text-anchor="middle" x="692" y="-63.5" font-family="Helvetica,sans-Serif" font-size="10.00">TTreeReader.h</text>
</g>
<!-- Node1&#45;&gt;Node12 -->
<g id="edge15" class="edge"><title>Node1&#45;&gt;Node12</title>
<path fill="none" stroke="midnightblue" d="M585.82,-112.968C611.774,-101.732 641.276,-88.9597 662.585,-79.7347"/>
<polygon fill="midnightblue" stroke="midnightblue" points="664.259,-82.8238 672.045,-75.6389 661.478,-76.4 664.259,-82.8238"/>
</g>
<!-- Node13 -->
<g id="node13" class="node"><title>Node13</title>
<polygon fill="none" stroke="#bfbfbf" points="751.5,-56.5 751.5,-75.5 858.5,-75.5 858.5,-56.5 751.5,-56.5"/>
<text text-anchor="middle" x="805" y="-63.5" font-family="Helvetica,sans-Serif" font-size="10.00">TTreeReaderValue.h</text>
</g>
<!-- Node1&#45;&gt;Node13 -->
<g id="edge16" class="edge"><title>Node1&#45;&gt;Node13</title>
<path fill="none" stroke="midnightblue" d="M622.166,-113.864C669.476,-101.737 724.501,-87.6334 761.73,-78.091"/>
<polygon fill="midnightblue" stroke="midnightblue" points="762.919,-81.3993 771.737,-75.5259 761.181,-74.6185 762.919,-81.3993"/>
</g>
<!-- Node14 -->
<g id="node14" class="node"><title>Node14</title>
<polygon fill="none" stroke="#bfbfbf" points="876.5,-56.5 876.5,-75.5 981.5,-75.5 981.5,-56.5 876.5,-56.5"/>
<text text-anchor="middle" x="929" y="-63.5" font-family="Helvetica,sans-Serif" font-size="10.00">TTreeReaderArray.h</text>
</g>
<!-- Node1&#45;&gt;Node14 -->
<g id="edge17" class="edge"><title>Node1&#45;&gt;Node14</title>
<path fill="none" stroke="midnightblue" d="M622.017,-121.354C699.034,-107.717 805.582,-88.8521 870.762,-77.3115"/>
<polygon fill="midnightblue" stroke="midnightblue" points="871.62,-80.7141 880.857,-75.5241 870.399,-73.8213 871.62,-80.7141"/>
</g>
<!-- Node2&#45;&gt;Node3 -->
<g id="edge2" class="edge"><title>Node2&#45;&gt;Node3</title>
<path fill="none" stroke="midnightblue" d="M349.421,-58.2228C282.171,-50.8658 174.366,-37.9471 72.251,-20.0901"/>
<polygon fill="midnightblue" stroke="midnightblue" points="72.8448,-16.6409 62.3882,-18.3466 71.6262,-23.534 72.8448,-16.6409"/>
</g>
<!-- Node2&#45;&gt;Node4 -->
<g id="edge3" class="edge"><title>Node2&#45;&gt;Node4</title>
<path fill="none" stroke="midnightblue" d="M369.682,-56.4435C319.372,-46.9444 238.162,-31.611 184.187,-21.4198"/>
<polygon fill="midnightblue" stroke="midnightblue" points="184.581,-17.9326 174.106,-19.5164 183.283,-24.8111 184.581,-17.9326"/>
</g>
<!-- Node2&#45;&gt;Node5 -->
<g id="edge4" class="edge"><title>Node2&#45;&gt;Node5</title>
<path fill="none" stroke="midnightblue" d="M386.162,-56.4435C355.144,-47.2406 305.671,-32.5617 271.382,-22.3879"/>
<polygon fill="midnightblue" stroke="midnightblue" points="272.286,-19.0055 261.704,-19.5164 270.295,-25.7164 272.286,-19.0055"/>
</g>
<!-- Node2&#45;&gt;Node6 -->
<g id="edge5" class="edge"><title>Node2&#45;&gt;Node6</title>
<path fill="none" stroke="midnightblue" d="M401.022,-56.324C387.45,-47.9002 366.62,-34.9709 350.675,-25.0741"/>
<polygon fill="midnightblue" stroke="midnightblue" points="352.286,-21.9544 341.943,-19.6545 348.594,-27.9019 352.286,-21.9544"/>
</g>
<!-- Node7 -->
<g id="node7" class="node"><title>Node7</title>
<polygon fill="none" stroke="#bfbfbf" points="386.5,-0.5 386.5,-19.5 445.5,-19.5 445.5,-0.5 386.5,-0.5"/>
<text text-anchor="middle" x="416" y="-7.5" font-family="Helvetica,sans-Serif" font-size="10.00">functional</text>
</g>
<!-- Node2&#45;&gt;Node7 -->
<g id="edge6" class="edge"><title>Node2&#45;&gt;Node7</title>
<path fill="none" stroke="midnightblue" d="M415.165,-56.083C415.296,-49.0059 415.484,-38.8611 415.648,-29.9865"/>
<polygon fill="midnightblue" stroke="midnightblue" points="419.152,-29.8142 415.838,-19.7511 412.153,-29.6845 419.152,-29.8142"/>
</g>
<!-- Node2&#45;&gt;Node8 -->
<g id="edge7" class="edge"><title>Node2&#45;&gt;Node8</title>
<path fill="none" stroke="midnightblue" d="M426.407,-56.324C437.109,-48.1849 453.341,-35.8395 466.163,-26.0874"/>
<polygon fill="midnightblue" stroke="midnightblue" points="468.544,-28.6734 474.385,-19.8339 464.307,-23.1018 468.544,-28.6734"/>
</g>
<!-- Node2&#45;&gt;Node9 -->
<g id="edge8" class="edge"><title>Node2&#45;&gt;Node9</title>
<path fill="none" stroke="midnightblue" d="M435.916,-56.4435C457.736,-47.5171 492.15,-33.4387 516.892,-23.3168"/>
<polygon fill="midnightblue" stroke="midnightblue" points="518.252,-26.5422 526.182,-19.5164 515.601,-20.0634 518.252,-26.5422"/>
</g>
<!-- Node2&#45;&gt;Node10 -->
<g id="edge9" class="edge"><title>Node2&#45;&gt;Node10</title>
<path fill="none" stroke="midnightblue" d="M446.215,-56.4435C481.52,-46.7662 538.914,-31.0336 576.059,-20.8518"/>
<polygon fill="midnightblue" stroke="midnightblue" points="577.245,-24.156 585.964,-18.1368 575.394,-17.405 577.245,-24.156"/>
</g>
<!-- Node2&#45;&gt;Node11 -->
<g id="edge10" class="edge"><title>Node2&#45;&gt;Node11</title>
<path fill="none" stroke="midnightblue" d="M468.85,-56.4317C513.916,-48.8372 580.04,-36.7107 646.07,-20.0006"/>
<polygon fill="midnightblue" stroke="midnightblue" points="646.992,-23.3773 655.808,-17.5019 645.252,-16.597 646.992,-23.3773"/>
</g>
</g>
</svg>
