<?xml version="1.0" encoding="UTF-8" standalone="no"?>
<!DOCTYPE svg PUBLIC "-//W3C//DTD SVG 1.1//EN"
 "http://www.w3.org/Graphics/SVG/1.1/DTD/svg11.dtd">
<!-- Generated by graphviz version 2.36.0 (20140111.2315)
 -->
<!-- Title: /home/travis/build/AliceO2Group/AliceO2/Detectors/ITSMFT/ITS/tracking/src/Cluster.cxx Pages: 1 -->
<svg width="441pt" height="342pt"
 viewBox="0.00 0.00 441.00 342.00" xmlns="http://www.w3.org/2000/svg" xmlns:xlink="http://www.w3.org/1999/xlink">
<g id="graph0" class="graph" transform="scale(1 1) rotate(0) translate(4 338)">
<title>/home/travis/build/AliceO2Group/AliceO2/Detectors/ITSMFT/ITS/tracking/src/Cluster.cxx</title>
<!-- Node1 -->
<g id="node1" class="node"><title>Node1</title>
<polygon fill="#bfbfbf" stroke="black" points="76,-281 76,-333 200,-333 200,-281 76,-281"/>
<text text-anchor="start" x="84" y="-321" font-family="Helvetica,sans-Serif" font-size="10.00">/home/travis/build</text>
<text text-anchor="start" x="84" y="-310" font-family="Helvetica,sans-Serif" font-size="10.00">/AliceO2Group/AliceO2</text>
<text text-anchor="start" x="84" y="-299" font-family="Helvetica,sans-Serif" font-size="10.00">/Detectors/ITSMFT/ITS</text>
<text text-anchor="middle" x="138" y="-288" font-family="Helvetica,sans-Serif" font-size="10.00">/tracking/src/Cluster.cxx</text>
</g>
<!-- Node2 -->
<g id="node2" class="node"><title>Node2</title>
<g id="a_node2"><a xlink:href="../../da/d7f/Detectors_2ITSMFT_2ITS_2tracking_2include_2ITStracking_2Cluster_8h.html" target="_top" xlink:title="ITStracking/Cluster.h">
<polygon fill="none" stroke="black" points="0,-224.5 0,-243.5 110,-243.5 110,-224.5 0,-224.5"/>
<text text-anchor="middle" x="55" y="-231.5" font-family="Helvetica,sans-Serif" font-size="10.00">ITStracking/Cluster.h</text>
</a>
</g>
</g>
<!-- Node1&#45;&gt;Node2 -->
<g id="edge1" class="edge"><title>Node1&#45;&gt;Node2</title>
<path fill="none" stroke="midnightblue" d="M108.504,-280.768C96.5913,-270.578 83.2353,-259.153 72.8475,-250.267"/>
<polygon fill="midnightblue" stroke="midnightblue" points="75.1114,-247.598 65.2372,-243.757 70.5611,-252.917 75.1114,-247.598"/>
</g>
<!-- Node6 -->
<g id="node6" class="node"><title>Node6</title>
<g id="a_node6"><a xlink:href="../../dc/d3e/MathUtils_8h.html" target="_top" xlink:title="ITStracking/MathUtils.h">
<polygon fill="none" stroke="black" points="37,-168.5 37,-187.5 157,-187.5 157,-168.5 37,-168.5"/>
<text text-anchor="middle" x="97" y="-175.5" font-family="Helvetica,sans-Serif" font-size="10.00">ITStracking/MathUtils.h</text>
</a>
</g>
</g>
<!-- Node1&#45;&gt;Node6 -->
<g id="edge20" class="edge"><title>Node1&#45;&gt;Node6</title>
<path fill="none" stroke="midnightblue" d="M133.703,-280.82C130.524,-264.377 125.601,-242.591 119,-224 115.69,-214.678 110.978,-204.756 106.763,-196.607"/>
<polygon fill="midnightblue" stroke="midnightblue" points="109.803,-194.87 101.997,-187.707 103.632,-198.175 109.803,-194.87"/>
</g>
<!-- Node11 -->
<g id="node11" class="node"><title>Node11</title>
<g id="a_node11"><a xlink:href="../../d2/d0c/IndexTableUtils_8h.html" target="_top" xlink:title="ITStracking/IndexTableUtils.h">
<polygon fill="none" stroke="black" points="175,-168.5 175,-187.5 321,-187.5 321,-168.5 175,-168.5"/>
<text text-anchor="middle" x="248" y="-175.5" font-family="Helvetica,sans-Serif" font-size="10.00">ITStracking/IndexTableUtils.h</text>
</a>
</g>
</g>
<!-- Node1&#45;&gt;Node11 -->
<g id="edge19" class="edge"><title>Node1&#45;&gt;Node11</title>
<path fill="none" stroke="midnightblue" d="M159.732,-280.909C181.732,-255.51 215.106,-216.978 233.882,-195.3"/>
<polygon fill="midnightblue" stroke="midnightblue" points="236.626,-197.478 240.527,-187.628 231.334,-192.895 236.626,-197.478"/>
</g>
<!-- Node3 -->
<g id="node3" class="node"><title>Node3</title>
<polygon fill="none" stroke="#bfbfbf" points="28,-0.5 28,-19.5 66,-19.5 66,-0.5 28,-0.5"/>
<text text-anchor="middle" x="47" y="-7.5" font-family="Helvetica,sans-Serif" font-size="10.00">array</text>
</g>
<!-- Node2&#45;&gt;Node3 -->
<g id="edge2" class="edge"><title>Node2&#45;&gt;Node3</title>
<path fill="none" stroke="midnightblue" d="M46.2486,-224.286C38.4366,-215.84 27.5489,-202.246 23,-188 5.11864,-131.999 26.8804,-61.8779 39.3784,-29.2572"/>
<polygon fill="midnightblue" stroke="midnightblue" points="42.734,-30.2917 43.1911,-19.7067 36.2328,-27.6963 42.734,-30.2917"/>
</g>
<!-- Node4 -->
<g id="node4" class="node"><title>Node4</title>
<g id="a_node4"><a xlink:href="../../df/d3d/Definitions_8h.html" target="_top" xlink:title="ITStracking/Definitions.h">
<polygon fill="none" stroke="black" points="80.5,-56.5 80.5,-75.5 205.5,-75.5 205.5,-56.5 80.5,-56.5"/>
<text text-anchor="middle" x="143" y="-63.5" font-family="Helvetica,sans-Serif" font-size="10.00">ITStracking/Definitions.h</text>
</a>
</g>
</g>
<!-- Node2&#45;&gt;Node4 -->
<g id="edge3" class="edge"><title>Node2&#45;&gt;Node4</title>
<path fill="none" stroke="midnightblue" d="M47.2287,-224.365C37.1605,-212.095 21.6117,-188.792 28,-168 36.8341,-139.248 44.0279,-132.541 66,-112 80.0501,-98.8653 98.5946,-87.8821 113.964,-80.0551"/>
<polygon fill="midnightblue" stroke="midnightblue" points="115.616,-83.1431 123.054,-75.5984 112.535,-76.8577 115.616,-83.1431"/>
</g>
<!-- Node2&#45;&gt;Node6 -->
<g id="edge6" class="edge"><title>Node2&#45;&gt;Node6</title>
<path fill="none" stroke="midnightblue" d="M61.9354,-224.083C67.9292,-216.377 76.7518,-205.033 84.0476,-195.653"/>
<polygon fill="midnightblue" stroke="midnightblue" points="86.8169,-197.793 90.1936,-187.751 81.2914,-193.496 86.8169,-197.793"/>
</g>
<!-- Node2&#45;&gt;Node11 -->
<g id="edge13" class="edge"><title>Node2&#45;&gt;Node11</title>
<path fill="none" stroke="midnightblue" d="M85.5814,-224.444C118.615,-215.201 171.388,-200.436 207.766,-190.257"/>
<polygon fill="midnightblue" stroke="midnightblue" points="208.875,-193.582 217.562,-187.516 206.988,-186.84 208.875,-193.582"/>
</g>
<!-- Node4&#45;&gt;Node3 -->
<g id="edge4" class="edge"><title>Node4&#45;&gt;Node3</title>
<path fill="none" stroke="midnightblue" d="M127.576,-56.324C112.46,-47.8215 89.1846,-34.7288 71.5288,-24.7975"/>
<polygon fill="midnightblue" stroke="midnightblue" points="72.8175,-21.5066 62.3858,-19.6545 69.3856,-27.6077 72.8175,-21.5066"/>
</g>
<!-- Node5 -->
<g id="node5" class="node"><title>Node5</title>
<polygon fill="none" stroke="#bfbfbf" points="84,-0.5 84,-19.5 218,-19.5 218,-0.5 84,-0.5"/>
<text text-anchor="middle" x="151" y="-7.5" font-family="Helvetica,sans-Serif" font-size="10.00">AliTPCCommonDefGPU.h</text>
</g>
<!-- Node4&#45;&gt;Node5 -->
<g id="edge5" class="edge"><title>Node4&#45;&gt;Node5</title>
<path fill="none" stroke="midnightblue" d="M144.321,-56.083C145.381,-48.9272 146.906,-38.6353 148.231,-29.6911"/>
<polygon fill="midnightblue" stroke="midnightblue" points="151.7,-30.1561 149.704,-19.7511 144.776,-29.1302 151.7,-30.1561"/>
</g>
<!-- Node6&#45;&gt;Node3 -->
<g id="edge7" class="edge"><title>Node6&#45;&gt;Node3</title>
<path fill="none" stroke="midnightblue" d="M89.2906,-168.386C82.0598,-159.801 71.5527,-145.923 66,-132 52.2633,-97.5569 48.4248,-53.8926 47.3735,-29.5518"/>
<polygon fill="midnightblue" stroke="midnightblue" points="50.8718,-29.4381 47.0555,-19.5545 43.8753,-29.6608 50.8718,-29.4381"/>
</g>
<!-- Node7 -->
<g id="node7" class="node"><title>Node7</title>
<polygon fill="none" stroke="#bfbfbf" points="75,-112.5 75,-131.5 119,-131.5 119,-112.5 75,-112.5"/>
<text text-anchor="middle" x="97" y="-119.5" font-family="Helvetica,sans-Serif" font-size="10.00">cmath</text>
</g>
<!-- Node6&#45;&gt;Node7 -->
<g id="edge8" class="edge"><title>Node6&#45;&gt;Node7</title>
<path fill="none" stroke="midnightblue" d="M97,-168.083C97,-161.006 97,-150.861 97,-141.986"/>
<polygon fill="midnightblue" stroke="midnightblue" points="100.5,-141.751 97,-131.751 93.5001,-141.751 100.5,-141.751"/>
</g>
<!-- Node8 -->
<g id="node8" class="node"><title>Node8</title>
<g id="a_node8"><a xlink:href="../../d0/d86/Detectors_2ITSMFT_2ITS_2tracking_2include_2ITStracking_2Constants_8h.html" target="_top" xlink:title="ITStracking/Constants.h">
<polygon fill="none" stroke="black" points="175.5,-112.5 175.5,-131.5 298.5,-131.5 298.5,-112.5 175.5,-112.5"/>
<text text-anchor="middle" x="237" y="-119.5" font-family="Helvetica,sans-Serif" font-size="10.00">ITStracking/Constants.h</text>
</a>
</g>
</g>
<!-- Node6&#45;&gt;Node8 -->
<g id="edge9" class="edge"><title>Node6&#45;&gt;Node8</title>
<path fill="none" stroke="midnightblue" d="M119.183,-168.444C142.428,-159.478 179.149,-145.314 205.415,-135.183"/>
<polygon fill="midnightblue" stroke="midnightblue" points="206.85,-138.381 214.92,-131.516 204.331,-131.85 206.85,-138.381"/>
</g>
<!-- Node8&#45;&gt;Node4 -->
<g id="edge12" class="edge"><title>Node8&#45;&gt;Node4</title>
<path fill="none" stroke="midnightblue" d="M221.897,-112.324C207.097,-103.822 184.306,-90.7288 167.018,-80.7975"/>
<polygon fill="midnightblue" stroke="midnightblue" points="168.48,-77.6009 158.065,-75.6545 164.993,-83.6707 168.48,-77.6009"/>
</g>
<!-- Node9 -->
<g id="node9" class="node"><title>Node9</title>
<polygon fill="none" stroke="#bfbfbf" points="223.5,-56.5 223.5,-75.5 268.5,-75.5 268.5,-56.5 223.5,-56.5"/>
<text text-anchor="middle" x="246" y="-63.5" font-family="Helvetica,sans-Serif" font-size="10.00">climits</text>
</g>
<!-- Node8&#45;&gt;Node9 -->
<g id="edge10" class="edge"><title>Node8&#45;&gt;Node9</title>
<path fill="none" stroke="midnightblue" d="M238.486,-112.083C239.679,-104.927 241.394,-94.6353 242.885,-85.6911"/>
<polygon fill="midnightblue" stroke="midnightblue" points="246.35,-86.1904 244.541,-75.7511 239.445,-85.0396 246.35,-86.1904"/>
</g>
<!-- Node10 -->
<g id="node10" class="node"><title>Node10</title>
<polygon fill="none" stroke="#bfbfbf" points="290,-56.5 290,-75.5 334,-75.5 334,-56.5 290,-56.5"/>
<text text-anchor="middle" x="312" y="-63.5" font-family="Helvetica,sans-Serif" font-size="10.00">vector</text>
</g>
<!-- Node8&#45;&gt;Node10 -->
<g id="edge11" class="edge"><title>Node8&#45;&gt;Node10</title>
<path fill="none" stroke="midnightblue" d="M249.05,-112.324C260.463,-104.107 277.831,-91.6017 291.435,-81.8069"/>
<polygon fill="midnightblue" stroke="midnightblue" points="293.66,-84.5174 299.731,-75.8339 289.57,-78.8366 293.66,-84.5174"/>
</g>
<!-- Node11&#45;&gt;Node3 -->
<g id="edge14" class="edge"><title>Node11&#45;&gt;Node3</title>
<path fill="none" stroke="midnightblue" d="M272.103,-168.443C289.174,-161.215 311.376,-149.256 325,-132 346.448,-104.834 364.781,-82.0587 342,-56 304.442,-13.0384 148.972,-31.2708 76.2594,-19.6002"/>
<polygon fill="midnightblue" stroke="midnightblue" points="76.6378,-16.1088 66.1557,-17.6505 75.3114,-22.982 76.6378,-16.1088"/>
</g>
<!-- Node11&#45;&gt;Node4 -->
<g id="edge18" class="edge"><title>Node11&#45;&gt;Node4</title>
<path fill="none" stroke="midnightblue" d="M222.202,-168.478C204.199,-161.325 180.829,-149.446 166,-132 154.744,-118.758 148.858,-99.629 145.871,-85.5498"/>
<polygon fill="midnightblue" stroke="midnightblue" points="149.285,-84.7612 144.05,-75.5502 142.398,-86.0155 149.285,-84.7612"/>
</g>
<!-- Node11&#45;&gt;Node8 -->
<g id="edge17" class="edge"><title>Node11&#45;&gt;Node8</title>
<path fill="none" stroke="midnightblue" d="M246.184,-168.083C244.726,-160.927 242.629,-150.635 240.807,-141.691"/>
<polygon fill="midnightblue" stroke="midnightblue" points="244.208,-140.851 238.783,-131.751 237.349,-142.248 244.208,-140.851"/>
</g>
<!-- Node11&#45;&gt;Node10 -->
<g id="edge16" class="edge"><title>Node11&#45;&gt;Node10</title>
<path fill="none" stroke="midnightblue" d="M266.342,-168.367C280.089,-160.837 298.016,-148.524 307,-132 314.687,-117.862 315.377,-99.3769 314.472,-85.7353"/>
<polygon fill="midnightblue" stroke="midnightblue" points="317.938,-85.217 313.455,-75.6173 310.973,-85.9173 317.938,-85.217"/>
</g>
<!-- Node12 -->
<g id="node12" class="node"><title>Node12</title>
<polygon fill="none" stroke="#bfbfbf" points="393,-112.5 393,-131.5 433,-131.5 433,-112.5 393,-112.5"/>
<text text-anchor="middle" x="413" y="-119.5" font-family="Helvetica,sans-Serif" font-size="10.00">utility</text>
</g>
<!-- Node11&#45;&gt;Node12 -->
<g id="edge15" class="edge"><title>Node11&#45;&gt;Node12</title>
<path fill="none" stroke="midnightblue" d="M274.145,-168.444C303.699,-158.771 351.735,-143.05 382.848,-132.868"/>
<polygon fill="midnightblue" stroke="midnightblue" points="384.284,-136.081 392.699,-129.644 382.107,-129.428 384.284,-136.081"/>
</g>
</g>
</svg>
