<?xml version="1.0" encoding="UTF-8" standalone="no"?>
<!DOCTYPE svg PUBLIC "-//W3C//DTD SVG 1.1//EN"
 "http://www.w3.org/Graphics/SVG/1.1/DTD/svg11.dtd">
<!-- Generated by graphviz version 2.36.0 (20140111.2315)
 -->
<!-- Title: /home/travis/build/AliceO2Group/AliceO2/Examples/flp2epn&#45;distributed/include/FLP2EPNex_distributed/FLPSyncSampler.h Pages: 1 -->
<svg width="409pt" height="128pt"
 viewBox="0.00 0.00 409.00 128.00" xmlns="http://www.w3.org/2000/svg" xmlns:xlink="http://www.w3.org/1999/xlink">
<g id="graph0" class="graph" transform="scale(1 1) rotate(0) translate(4 124)">
<title>/home/travis/build/AliceO2Group/AliceO2/Examples/flp2epn&#45;distributed/include/FLP2EPNex_distributed/FLPSyncSampler.h</title>
<!-- Node1 -->
<g id="node1" class="node"><title>Node1</title>
<polygon fill="#bfbfbf" stroke="black" points="97,-56.5 97,-119.5 255,-119.5 255,-56.5 97,-56.5"/>
<text text-anchor="start" x="105" y="-107.5" font-family="Helvetica,sans-Serif" font-size="10.00">/home/travis/build</text>
<text text-anchor="start" x="105" y="-96.5" font-family="Helvetica,sans-Serif" font-size="10.00">/AliceO2Group/AliceO2</text>
<text text-anchor="start" x="105" y="-85.5" font-family="Helvetica,sans-Serif" font-size="10.00">/Examples/flp2epn&#45;distributed</text>
<text text-anchor="start" x="105" y="-74.5" font-family="Helvetica,sans-Serif" font-size="10.00">/include/FLP2EPNex_distributed</text>
<text text-anchor="middle" x="176" y="-63.5" font-family="Helvetica,sans-Serif" font-size="10.00">/FLPSyncSampler.h</text>
</g>
<!-- Node2 -->
<g id="node2" class="node"><title>Node2</title>
<polygon fill="none" stroke="#bfbfbf" points="-0.5,-0.5 -0.5,-19.5 40.5,-19.5 40.5,-0.5 -0.5,-0.5"/>
<text text-anchor="middle" x="20" y="-7.5" font-family="Helvetica,sans-Serif" font-size="10.00">string</text>
</g>
<!-- Node1&#45;&gt;Node2 -->
<g id="edge1" class="edge"><title>Node1&#45;&gt;Node2</title>
<path fill="none" stroke="midnightblue" d="M112.998,-56.307C89.9177,-45.0625 65.0161,-32.9309 46.7943,-24.0537"/>
<polygon fill="midnightblue" stroke="midnightblue" points="48.1892,-20.84 37.6664,-19.6067 45.1234,-27.1329 48.1892,-20.84"/>
</g>
<!-- Node3 -->
<g id="node3" class="node"><title>Node3</title>
<polygon fill="none" stroke="#bfbfbf" points="59,-0.5 59,-19.5 105,-19.5 105,-0.5 59,-0.5"/>
<text text-anchor="middle" x="82" y="-7.5" font-family="Helvetica,sans-Serif" font-size="10.00">cstdint</text>
</g>
<!-- Node1&#45;&gt;Node3 -->
<g id="edge2" class="edge"><title>Node1&#45;&gt;Node3</title>
<path fill="none" stroke="midnightblue" d="M138.038,-56.307C125.172,-45.9047 111.367,-34.7434 100.678,-26.1016"/>
<polygon fill="midnightblue" stroke="midnightblue" points="102.829,-23.3394 92.8518,-19.7738 98.4276,-28.7828 102.829,-23.3394"/>
</g>
<!-- Node4 -->
<g id="node4" class="node"><title>Node4</title>
<polygon fill="none" stroke="#bfbfbf" points="123,-0.5 123,-19.5 167,-19.5 167,-0.5 123,-0.5"/>
<text text-anchor="middle" x="145" y="-7.5" font-family="Helvetica,sans-Serif" font-size="10.00">thread</text>
</g>
<!-- Node1&#45;&gt;Node4 -->
<g id="edge3" class="edge"><title>Node1&#45;&gt;Node4</title>
<path fill="none" stroke="midnightblue" d="M163.391,-56.0879C159.661,-46.9441 155.7,-37.2326 152.413,-29.1737"/>
<polygon fill="midnightblue" stroke="midnightblue" points="155.574,-27.6556 148.556,-19.7182 149.092,-30.2994 155.574,-27.6556"/>
</g>
<!-- Node5 -->
<g id="node5" class="node"><title>Node5</title>
<polygon fill="none" stroke="#bfbfbf" points="185,-0.5 185,-19.5 231,-19.5 231,-0.5 185,-0.5"/>
<text text-anchor="middle" x="208" y="-7.5" font-family="Helvetica,sans-Serif" font-size="10.00">atomic</text>
</g>
<!-- Node1&#45;&gt;Node5 -->
<g id="edge4" class="edge"><title>Node1&#45;&gt;Node5</title>
<path fill="none" stroke="midnightblue" d="M189.016,-56.0879C192.866,-46.9441 196.955,-37.2326 200.348,-29.1737"/>
<polygon fill="midnightblue" stroke="midnightblue" points="203.674,-30.2927 204.329,-19.7182 197.223,-27.5763 203.674,-30.2927"/>
</g>
<!-- Node6 -->
<g id="node6" class="node"><title>Node6</title>
<polygon fill="none" stroke="#bfbfbf" points="249,-0.5 249,-19.5 295,-19.5 295,-0.5 249,-0.5"/>
<text text-anchor="middle" x="272" y="-7.5" font-family="Helvetica,sans-Serif" font-size="10.00">chrono</text>
</g>
<!-- Node1&#45;&gt;Node6 -->
<g id="edge5" class="edge"><title>Node1&#45;&gt;Node6</title>
<path fill="none" stroke="midnightblue" d="M214.77,-56.307C227.91,-45.9047 242.008,-34.7434 252.924,-26.1016"/>
<polygon fill="midnightblue" stroke="midnightblue" points="255.249,-28.7251 260.917,-19.7738 250.904,-23.2367 255.249,-28.7251"/>
</g>
<!-- Node7 -->
<g id="node7" class="node"><title>Node7</title>
<polygon fill="none" stroke="#bfbfbf" points="313,-0.5 313,-19.5 401,-19.5 401,-0.5 313,-0.5"/>
<text text-anchor="middle" x="357" y="-7.5" font-family="Helvetica,sans-Serif" font-size="10.00">FairMQDevice.h</text>
</g>
<!-- Node1&#45;&gt;Node7 -->
<g id="edge6" class="edge"><title>Node1&#45;&gt;Node7</title>
<path fill="none" stroke="midnightblue" d="M248.837,-56.4164C276.144,-44.9507 305.682,-32.5478 326.98,-23.6051"/>
<polygon fill="midnightblue" stroke="midnightblue" points="328.572,-26.7327 336.437,-19.6341 325.862,-20.2785 328.572,-26.7327"/>
</g>
</g>
</svg>
