<?xml version="1.0" encoding="UTF-8" standalone="no"?>
<!DOCTYPE svg PUBLIC "-//W3C//DTD SVG 1.1//EN"
 "http://www.w3.org/Graphics/SVG/1.1/DTD/svg11.dtd">
<!-- Generated by graphviz version 2.36.0 (20140111.2315)
 -->
<!-- Title: /home/travis/build/AliceO2Group/AliceO2/Utilities/aliceHLTwrapper/src/HOMERFactory.cxx Pages: 1 -->
<svg width="941pt" height="230pt"
 viewBox="0.00 0.00 941.00 230.00" xmlns="http://www.w3.org/2000/svg" xmlns:xlink="http://www.w3.org/1999/xlink">
<g id="graph0" class="graph" transform="scale(1 1) rotate(0) translate(4 226)">
<title>/home/travis/build/AliceO2Group/AliceO2/Utilities/aliceHLTwrapper/src/HOMERFactory.cxx</title>
<!-- Node1 -->
<g id="node1" class="node"><title>Node1</title>
<polygon fill="#bfbfbf" stroke="black" points="190.5,-169 190.5,-221 319.5,-221 319.5,-169 190.5,-169"/>
<text text-anchor="start" x="198.5" y="-209" font-family="Helvetica,sans-Serif" font-size="10.00">/home/travis/build</text>
<text text-anchor="start" x="198.5" y="-198" font-family="Helvetica,sans-Serif" font-size="10.00">/AliceO2Group/AliceO2</text>
<text text-anchor="start" x="198.5" y="-187" font-family="Helvetica,sans-Serif" font-size="10.00">/Utilities/aliceHLTwrapper</text>
<text text-anchor="middle" x="255" y="-176" font-family="Helvetica,sans-Serif" font-size="10.00">/src/HOMERFactory.cxx</text>
</g>
<!-- Node2 -->
<g id="node2" class="node"><title>Node2</title>
<polygon fill="none" stroke="#bfbfbf" points="0,-112.5 0,-131.5 44,-131.5 44,-112.5 0,-112.5"/>
<text text-anchor="middle" x="22" y="-119.5" font-family="Helvetica,sans-Serif" font-size="10.00">cerrno</text>
</g>
<!-- Node1&#45;&gt;Node2 -->
<g id="edge1" class="edge"><title>Node1&#45;&gt;Node2</title>
<path fill="none" stroke="midnightblue" d="M190.406,-174.317C145.91,-160.758 88.7161,-143.33 53.7396,-132.672"/>
<polygon fill="midnightblue" stroke="midnightblue" points="54.6508,-129.291 44.0648,-129.724 52.6103,-135.987 54.6508,-129.291"/>
</g>
<!-- Node3 -->
<g id="node3" class="node"><title>Node3</title>
<polygon fill="none" stroke="#bfbfbf" points="62.5,-112.5 62.5,-131.5 111.5,-131.5 111.5,-112.5 62.5,-112.5"/>
<text text-anchor="middle" x="87" y="-119.5" font-family="Helvetica,sans-Serif" font-size="10.00">cassert</text>
</g>
<!-- Node1&#45;&gt;Node3 -->
<g id="edge2" class="edge"><title>Node1&#45;&gt;Node3</title>
<path fill="none" stroke="midnightblue" d="M195.769,-168.968C169.063,-157.681 138.687,-144.844 116.837,-135.61"/>
<polygon fill="midnightblue" stroke="midnightblue" points="118.015,-132.308 107.441,-131.639 115.29,-138.756 118.015,-132.308"/>
</g>
<!-- Node4 -->
<g id="node4" class="node"><title>Node4</title>
<polygon fill="none" stroke="#bfbfbf" points="130,-112.5 130,-131.5 176,-131.5 176,-112.5 130,-112.5"/>
<text text-anchor="middle" x="153" y="-119.5" font-family="Helvetica,sans-Serif" font-size="10.00">cstring</text>
</g>
<!-- Node1&#45;&gt;Node4 -->
<g id="edge3" class="edge"><title>Node1&#45;&gt;Node4</title>
<path fill="none" stroke="midnightblue" d="M219.039,-168.968C203.94,-158.458 186.909,-146.603 173.925,-137.565"/>
<polygon fill="midnightblue" stroke="midnightblue" points="175.863,-134.65 165.656,-131.81 171.864,-140.395 175.863,-134.65"/>
</g>
<!-- Node5 -->
<g id="node5" class="node"><title>Node5</title>
<polygon fill="none" stroke="#bfbfbf" points="194,-112.5 194,-131.5 248,-131.5 248,-112.5 194,-112.5"/>
<text text-anchor="middle" x="221" y="-119.5" font-family="Helvetica,sans-Serif" font-size="10.00">iostream</text>
</g>
<!-- Node1&#45;&gt;Node5 -->
<g id="edge4" class="edge"><title>Node1&#45;&gt;Node5</title>
<path fill="none" stroke="midnightblue" d="M242.917,-168.768C238.521,-159.587 233.644,-149.403 229.609,-140.978"/>
<polygon fill="midnightblue" stroke="midnightblue" points="232.669,-139.265 225.194,-131.757 226.356,-142.288 232.669,-139.265"/>
</g>
<!-- Node6 -->
<g id="node6" class="node"><title>Node6</title>
<polygon fill="none" stroke="#bfbfbf" points="266,-112.5 266,-131.5 312,-131.5 312,-112.5 266,-112.5"/>
<text text-anchor="middle" x="289" y="-119.5" font-family="Helvetica,sans-Serif" font-size="10.00">dlfcn.h</text>
</g>
<!-- Node1&#45;&gt;Node6 -->
<g id="edge5" class="edge"><title>Node1&#45;&gt;Node6</title>
<path fill="none" stroke="midnightblue" d="M267.083,-168.768C271.479,-159.587 276.356,-149.403 280.391,-140.978"/>
<polygon fill="midnightblue" stroke="midnightblue" points="283.644,-142.288 284.806,-131.757 277.331,-139.265 283.644,-142.288"/>
</g>
<!-- Node7 -->
<g id="node7" class="node"><title>Node7</title>
<g id="a_node7"><a xlink:href="../../d2/de6/HOMERFactory_8h.html" target="_top" xlink:title="aliceHLTwrapper/HOMERFactory.h">
<polygon fill="none" stroke="black" points="330,-112.5 330,-131.5 502,-131.5 502,-112.5 330,-112.5"/>
<text text-anchor="middle" x="416" y="-119.5" font-family="Helvetica,sans-Serif" font-size="10.00">aliceHLTwrapper/HOMERFactory.h</text>
</a>
</g>
</g>
<!-- Node1&#45;&gt;Node7 -->
<g id="edge6" class="edge"><title>Node1&#45;&gt;Node7</title>
<path fill="none" stroke="midnightblue" d="M311.763,-168.968C337.241,-157.732 366.204,-144.96 387.123,-135.735"/>
<polygon fill="midnightblue" stroke="midnightblue" points="388.673,-138.876 396.41,-131.639 385.848,-132.472 388.673,-138.876"/>
</g>
<!-- Node9 -->
<g id="node9" class="node"><title>Node9</title>
<g id="a_node9"><a xlink:href="../../d6/de3/AliHLTHOMERReader_8h.html" target="_top" xlink:title="HLT Online Monitoring Environment including ROOT &#45; Reader. ">
<polygon fill="none" stroke="black" points="520,-112.5 520,-131.5 720,-131.5 720,-112.5 520,-112.5"/>
<text text-anchor="middle" x="620" y="-119.5" font-family="Helvetica,sans-Serif" font-size="10.00">aliceHLTwrapper/AliHLTHOMERReader.h</text>
</a>
</g>
</g>
<!-- Node1&#45;&gt;Node9 -->
<g id="edge8" class="edge"><title>Node1&#45;&gt;Node9</title>
<path fill="none" stroke="midnightblue" d="M319.834,-181.388C389.935,-167.752 500.412,-146.262 565.983,-133.508"/>
<polygon fill="midnightblue" stroke="midnightblue" points="566.96,-136.883 576.108,-131.538 565.623,-130.012 566.96,-136.883"/>
</g>
<!-- Node14 -->
<g id="node14" class="node"><title>Node14</title>
<g id="a_node14"><a xlink:href="../../d0/d3f/AliHLTHOMERWriter_8h.html" target="_top" xlink:title="HLT Online Monitoring Environment including ROOT &#45; Writer. ">
<polygon fill="none" stroke="black" points="738.5,-112.5 738.5,-131.5 933.5,-131.5 933.5,-112.5 738.5,-112.5"/>
<text text-anchor="middle" x="836" y="-119.5" font-family="Helvetica,sans-Serif" font-size="10.00">aliceHLTwrapper/AliHLTHOMERWriter.h</text>
</a>
</g>
</g>
<!-- Node1&#45;&gt;Node14 -->
<g id="edge14" class="edge"><title>Node1&#45;&gt;Node14</title>
<path fill="none" stroke="midnightblue" d="M319.677,-186.096C426.628,-173.027 640.034,-146.948 756.19,-132.753"/>
<polygon fill="midnightblue" stroke="midnightblue" points="756.935,-136.188 766.436,-131.501 756.085,-129.24 756.935,-136.188"/>
</g>
<!-- Node8 -->
<g id="node8" class="node"><title>Node8</title>
<g id="a_node8"><a xlink:href="../../d6/d34/AliHLTDataTypes_8h.html" target="_top" xlink:title="Data type declaration for the HLT module. ">
<polygon fill="none" stroke="black" points="364.5,-56.5 364.5,-75.5 467.5,-75.5 467.5,-56.5 364.5,-56.5"/>
<text text-anchor="middle" x="416" y="-63.5" font-family="Helvetica,sans-Serif" font-size="10.00">AliHLTDataTypes.h</text>
</a>
</g>
</g>
<!-- Node7&#45;&gt;Node8 -->
<g id="edge7" class="edge"><title>Node7&#45;&gt;Node8</title>
<path fill="none" stroke="midnightblue" d="M416,-112.083C416,-105.006 416,-94.8611 416,-85.9865"/>
<polygon fill="midnightblue" stroke="midnightblue" points="419.5,-85.751 416,-75.7511 412.5,-85.7511 419.5,-85.751"/>
</g>
<!-- Node10 -->
<g id="node10" class="node"><title>Node10</title>
<polygon fill="none" stroke="#bfbfbf" points="628.5,-0.5 628.5,-19.5 673.5,-19.5 673.5,-0.5 628.5,-0.5"/>
<text text-anchor="middle" x="651" y="-7.5" font-family="Helvetica,sans-Serif" font-size="10.00">climits</text>
</g>
<!-- Node9&#45;&gt;Node10 -->
<g id="edge9" class="edge"><title>Node9&#45;&gt;Node10</title>
<path fill="none" stroke="midnightblue" d="M598.069,-112.472C572.487,-101.188 535.541,-79.9088 551,-56 565.767,-33.1609 595.194,-21.7986 618.321,-16.2165"/>
<polygon fill="midnightblue" stroke="midnightblue" points="619.072,-19.635 628.106,-14.0995 617.592,-12.7933 619.072,-19.635"/>
</g>
<!-- Node11 -->
<g id="node11" class="node"><title>Node11</title>
<polygon fill="none" stroke="#bfbfbf" points="560,-56.5 560,-75.5 616,-75.5 616,-56.5 560,-56.5"/>
<text text-anchor="middle" x="588" y="-63.5" font-family="Helvetica,sans-Serif" font-size="10.00">sys/ipc.h</text>
</g>
<!-- Node9&#45;&gt;Node11 -->
<g id="edge10" class="edge"><title>Node9&#45;&gt;Node11</title>
<path fill="none" stroke="midnightblue" d="M614.716,-112.083C610.289,-104.613 603.837,-93.7244 598.382,-84.5199"/>
<polygon fill="midnightblue" stroke="midnightblue" points="601.295,-82.5697 593.186,-75.7511 595.273,-86.1383 601.295,-82.5697"/>
</g>
<!-- Node12 -->
<g id="node12" class="node"><title>Node12</title>
<polygon fill="none" stroke="#bfbfbf" points="634,-56.5 634,-75.5 696,-75.5 696,-56.5 634,-56.5"/>
<text text-anchor="middle" x="665" y="-63.5" font-family="Helvetica,sans-Serif" font-size="10.00">sys/shm.h</text>
</g>
<!-- Node9&#45;&gt;Node12 -->
<g id="edge11" class="edge"><title>Node9&#45;&gt;Node12</title>
<path fill="none" stroke="midnightblue" d="M627.431,-112.083C633.853,-104.377 643.306,-93.0333 651.122,-83.6531"/>
<polygon fill="midnightblue" stroke="midnightblue" points="653.994,-85.674 657.707,-75.7511 648.617,-81.1927 653.994,-85.674"/>
</g>
<!-- Node13 -->
<g id="node13" class="node"><title>Node13</title>
<g id="a_node13"><a xlink:href="../../d8/d1e/AliHLTHOMERData_8h.html" target="_top" xlink:title="AliHLTHOMERData.h">
<polygon fill="none" stroke="black" points="714.5,-56.5 714.5,-75.5 827.5,-75.5 827.5,-56.5 714.5,-56.5"/>
<text text-anchor="middle" x="771" y="-63.5" font-family="Helvetica,sans-Serif" font-size="10.00">AliHLTHOMERData.h</text>
</a>
</g>
</g>
<!-- Node9&#45;&gt;Node13 -->
<g id="edge12" class="edge"><title>Node9&#45;&gt;Node13</title>
<path fill="none" stroke="midnightblue" d="M643.926,-112.444C669.219,-103.399 709.302,-89.064 737.68,-78.9158"/>
<polygon fill="midnightblue" stroke="midnightblue" points="738.948,-82.1794 747.186,-75.5164 736.591,-75.5882 738.948,-82.1794"/>
</g>
<!-- Node13&#45;&gt;Node10 -->
<g id="edge13" class="edge"><title>Node13&#45;&gt;Node10</title>
<path fill="none" stroke="midnightblue" d="M751.986,-56.4435C732.412,-47.6356 701.692,-33.8116 679.271,-23.722"/>
<polygon fill="midnightblue" stroke="midnightblue" points="680.481,-20.4284 669.925,-19.5164 677.608,-26.8119 680.481,-20.4284"/>
</g>
<!-- Node14&#45;&gt;Node13 -->
<g id="edge15" class="edge"><title>Node14&#45;&gt;Node13</title>
<path fill="none" stroke="midnightblue" d="M825.557,-112.324C815.854,-104.263 801.185,-92.0765 789.5,-82.3695"/>
<polygon fill="midnightblue" stroke="midnightblue" points="791.562,-79.532 781.633,-75.8339 787.089,-84.9163 791.562,-79.532"/>
</g>
<!-- Node15 -->
<g id="node15" class="node"><title>Node15</title>
<polygon fill="none" stroke="#bfbfbf" points="846,-56.5 846,-75.5 890,-75.5 890,-56.5 846,-56.5"/>
<text text-anchor="middle" x="868" y="-63.5" font-family="Helvetica,sans-Serif" font-size="10.00">vector</text>
</g>
<!-- Node14&#45;&gt;Node15 -->
<g id="edge16" class="edge"><title>Node14&#45;&gt;Node15</title>
<path fill="none" stroke="midnightblue" d="M841.284,-112.083C845.711,-104.613 852.163,-93.7244 857.618,-84.5199"/>
<polygon fill="midnightblue" stroke="midnightblue" points="860.727,-86.1383 862.814,-75.7511 854.705,-82.5697 860.727,-86.1383"/>
</g>
</g>
</svg>
