<?xml version="1.0" encoding="UTF-8" standalone="no"?>
<!DOCTYPE svg PUBLIC "-//W3C//DTD SVG 1.1//EN"
 "http://www.w3.org/Graphics/SVG/1.1/DTD/svg11.dtd">
<!-- Generated by graphviz version 2.36.0 (20140111.2315)
 -->
<!-- Title: /home/travis/build/AliceO2Group/AliceO2/Detectors/MUON/MCH/Contour/include/MCHContour/Contour.h Pages: 1 -->
<svg width="1691pt" height="542pt"
 viewBox="0.00 0.00 1691.00 542.00" xmlns="http://www.w3.org/2000/svg" xmlns:xlink="http://www.w3.org/1999/xlink">
<g id="graph0" class="graph" transform="scale(1 1) rotate(0) translate(4 538)">
<title>/home/travis/build/AliceO2Group/AliceO2/Detectors/MUON/MCH/Contour/include/MCHContour/Contour.h</title>
<!-- Node1 -->
<g id="node1" class="node"><title>Node1</title>
<polygon fill="#bfbfbf" stroke="black" points="999,-481 999,-533 1159,-533 1159,-481 999,-481"/>
<text text-anchor="start" x="1007" y="-521" font-family="Helvetica,sans-Serif" font-size="10.00">/home/travis/build</text>
<text text-anchor="start" x="1007" y="-510" font-family="Helvetica,sans-Serif" font-size="10.00">/AliceO2Group/AliceO2</text>
<text text-anchor="start" x="1007" y="-499" font-family="Helvetica,sans-Serif" font-size="10.00">/Detectors/MUON/MCH/Contour</text>
<text text-anchor="middle" x="1079" y="-488" font-family="Helvetica,sans-Serif" font-size="10.00">/include/MCHContour/Contour.h</text>
</g>
<!-- Node2 -->
<g id="node2" class="node"><title>Node2</title>
<g id="a_node2"><a xlink:href="../../dc/d15/ContourCreator_8inl.html" target="_top" xlink:title="/home/travis/build\l/AliceO2Group/AliceO2\l/Detectors/MUON/MCH/Contour\l/include/MCHContour/ContourCreator.inl">
<polygon fill="none" stroke="black" points="982,-386 982,-438 1176,-438 1176,-386 982,-386"/>
<text text-anchor="start" x="990" y="-426" font-family="Helvetica,sans-Serif" font-size="10.00">/home/travis/build</text>
<text text-anchor="start" x="990" y="-415" font-family="Helvetica,sans-Serif" font-size="10.00">/AliceO2Group/AliceO2</text>
<text text-anchor="start" x="990" y="-404" font-family="Helvetica,sans-Serif" font-size="10.00">/Detectors/MUON/MCH/Contour</text>
<text text-anchor="middle" x="1079" y="-393" font-family="Helvetica,sans-Serif" font-size="10.00">/include/MCHContour/ContourCreator.inl</text>
</a>
</g>
</g>
<!-- Node1&#45;&gt;Node2 -->
<g id="edge1" class="edge"><title>Node1&#45;&gt;Node2</title>
<path fill="none" stroke="midnightblue" d="M1079,-470.549C1079,-459.722 1079,-448.046 1079,-438.06"/>
<polygon fill="midnightblue" stroke="midnightblue" points="1075.5,-470.587 1079,-480.587 1082.5,-470.587 1075.5,-470.587"/>
</g>
<!-- Node4 -->
<g id="node4" class="node"><title>Node4</title>
<g id="a_node4"><a xlink:href="../../de/d51/SVGWriter_8h.html" target="_top" xlink:title="/home/travis/build\l/AliceO2Group/AliceO2\l/Detectors/MUON/MCH/Contour\l/include/MCHContour/SVGWriter.h">
<polygon fill="none" stroke="black" points="570,-201 570,-253 740,-253 740,-201 570,-201"/>
<text text-anchor="start" x="578" y="-241" font-family="Helvetica,sans-Serif" font-size="10.00">/home/travis/build</text>
<text text-anchor="start" x="578" y="-230" font-family="Helvetica,sans-Serif" font-size="10.00">/AliceO2Group/AliceO2</text>
<text text-anchor="start" x="578" y="-219" font-family="Helvetica,sans-Serif" font-size="10.00">/Detectors/MUON/MCH/Contour</text>
<text text-anchor="middle" x="655" y="-208" font-family="Helvetica,sans-Serif" font-size="10.00">/include/MCHContour/SVGWriter.h</text>
</a>
</g>
</g>
<!-- Node1&#45;&gt;Node4 -->
<g id="edge18" class="edge"><title>Node1&#45;&gt;Node4</title>
<path fill="none" stroke="midnightblue" d="M998.454,-477.153C975.709,-467.772 951.352,-456.512 930,-444 831.266,-386.142 728.834,-296.378 681.681,-253.064"/>
<polygon fill="midnightblue" stroke="midnightblue" points="997.169,-480.408 1007.75,-480.922 999.799,-473.921 997.169,-480.408"/>
</g>
<!-- Node14 -->
<g id="node14" class="node"><title>Node14</title>
<g id="a_node14"><a xlink:href="../../d8/d3b/Contour_8cxx.html" target="_top" xlink:title="/home/travis/build\l/AliceO2Group/AliceO2\l/Detectors/MUON/MCH/Contour\l/test/Contour.cxx">
<polygon fill="none" stroke="black" points="1432,-386 1432,-438 1592,-438 1592,-386 1432,-386"/>
<text text-anchor="start" x="1440" y="-426" font-family="Helvetica,sans-Serif" font-size="10.00">/home/travis/build</text>
<text text-anchor="start" x="1440" y="-415" font-family="Helvetica,sans-Serif" font-size="10.00">/AliceO2Group/AliceO2</text>
<text text-anchor="start" x="1440" y="-404" font-family="Helvetica,sans-Serif" font-size="10.00">/Detectors/MUON/MCH/Contour</text>
<text text-anchor="middle" x="1512" y="-393" font-family="Helvetica,sans-Serif" font-size="10.00">/test/Contour.cxx</text>
</a>
</g>
</g>
<!-- Node1&#45;&gt;Node14 -->
<g id="edge19" class="edge"><title>Node1&#45;&gt;Node14</title>
<path fill="none" stroke="midnightblue" d="M1169.11,-493.715C1239.01,-483.238 1337.97,-466.325 1423,-444 1429.65,-442.255 1436.51,-440.248 1443.33,-438.112"/>
<polygon fill="midnightblue" stroke="midnightblue" points="1168.4,-490.283 1159.02,-495.214 1169.42,-497.207 1168.4,-490.283"/>
</g>
<!-- Node15 -->
<g id="node15" class="node"><title>Node15</title>
<g id="a_node15"><a xlink:href="../../d2/d32/CathodeSegmentationContours_8h.html" target="_top" xlink:title="/home/travis/build\l/AliceO2Group/AliceO2\l/Detectors/MUON/MCH/Mapping\l/SegContour/include/MCHMappingSegContour\l/CathodeSegmentationContours.h">
<polygon fill="none" stroke="black" points="754,-100.5 754,-163.5 974,-163.5 974,-100.5 754,-100.5"/>
<text text-anchor="start" x="762" y="-151.5" font-family="Helvetica,sans-Serif" font-size="10.00">/home/travis/build</text>
<text text-anchor="start" x="762" y="-140.5" font-family="Helvetica,sans-Serif" font-size="10.00">/AliceO2Group/AliceO2</text>
<text text-anchor="start" x="762" y="-129.5" font-family="Helvetica,sans-Serif" font-size="10.00">/Detectors/MUON/MCH/Mapping</text>
<text text-anchor="start" x="762" y="-118.5" font-family="Helvetica,sans-Serif" font-size="10.00">/SegContour/include/MCHMappingSegContour</text>
<text text-anchor="middle" x="864" y="-107.5" font-family="Helvetica,sans-Serif" font-size="10.00">/CathodeSegmentationContours.h</text>
</a>
</g>
</g>
<!-- Node1&#45;&gt;Node15 -->
<g id="edge20" class="edge"><title>Node1&#45;&gt;Node15</title>
<path fill="none" stroke="midnightblue" d="M1010.87,-475.757C996.901,-467.099 983.331,-456.534 973,-444 902.406,-358.349 876.21,-223.912 867.661,-163.818"/>
<polygon fill="midnightblue" stroke="midnightblue" points="1009.2,-478.836 1019.59,-480.902 1012.75,-472.806 1009.2,-478.836"/>
</g>
<!-- Node17 -->
<g id="node17" class="node"><title>Node17</title>
<g id="a_node17"><a xlink:href="../../dd/d1c/SegmentationContours_8h.html" target="_top" xlink:title="/home/travis/build\l/AliceO2Group/AliceO2\l/Detectors/MUON/MCH/Mapping\l/SegContour/include/MCHMappingSegContour\l/SegmentationContours.h">
<polygon fill="none" stroke="black" points="1194,-380.5 1194,-443.5 1414,-443.5 1414,-380.5 1194,-380.5"/>
<text text-anchor="start" x="1202" y="-431.5" font-family="Helvetica,sans-Serif" font-size="10.00">/home/travis/build</text>
<text text-anchor="start" x="1202" y="-420.5" font-family="Helvetica,sans-Serif" font-size="10.00">/AliceO2Group/AliceO2</text>
<text text-anchor="start" x="1202" y="-409.5" font-family="Helvetica,sans-Serif" font-size="10.00">/Detectors/MUON/MCH/Mapping</text>
<text text-anchor="start" x="1202" y="-398.5" font-family="Helvetica,sans-Serif" font-size="10.00">/SegContour/include/MCHMappingSegContour</text>
<text text-anchor="middle" x="1304" y="-387.5" font-family="Helvetica,sans-Serif" font-size="10.00">/SegmentationContours.h</text>
</a>
</g>
</g>
<!-- Node1&#45;&gt;Node17 -->
<g id="edge29" class="edge"><title>Node1&#45;&gt;Node17</title>
<path fill="none" stroke="midnightblue" d="M1148.91,-477.102C1174.68,-466.452 1203.94,-454.356 1230.06,-443.564"/>
<polygon fill="midnightblue" stroke="midnightblue" points="1147.5,-473.901 1139.59,-480.955 1150.17,-480.37 1147.5,-473.901"/>
</g>
<!-- Node3 -->
<g id="node3" class="node"><title>Node3</title>
<g id="a_node3"><a xlink:href="../../d4/d84/ContourCreator_8h.html" target="_top" xlink:title="/home/travis/build\l/AliceO2Group/AliceO2\l/Detectors/MUON/MCH/Contour\l/include/MCHContour/ContourCreator.h">
<polygon fill="none" stroke="black" points="1000.5,-291 1000.5,-343 1189.5,-343 1189.5,-291 1000.5,-291"/>
<text text-anchor="start" x="1008.5" y="-331" font-family="Helvetica,sans-Serif" font-size="10.00">/home/travis/build</text>
<text text-anchor="start" x="1008.5" y="-320" font-family="Helvetica,sans-Serif" font-size="10.00">/AliceO2Group/AliceO2</text>
<text text-anchor="start" x="1008.5" y="-309" font-family="Helvetica,sans-Serif" font-size="10.00">/Detectors/MUON/MCH/Contour</text>
<text text-anchor="middle" x="1095" y="-298" font-family="Helvetica,sans-Serif" font-size="10.00">/include/MCHContour/ContourCreator.h</text>
</a>
</g>
</g>
<!-- Node2&#45;&gt;Node3 -->
<g id="edge2" class="edge"><title>Node2&#45;&gt;Node3</title>
<path fill="none" stroke="midnightblue" d="M1085.1,-375.549C1086.96,-364.722 1088.97,-353.046 1090.69,-343.06"/>
<polygon fill="midnightblue" stroke="midnightblue" points="1081.62,-375.139 1083.37,-385.587 1088.52,-376.326 1081.62,-375.139"/>
</g>
<!-- Node3&#45;&gt;Node4 -->
<g id="edge3" class="edge"><title>Node3&#45;&gt;Node4</title>
<path fill="none" stroke="midnightblue" d="M990.209,-295.042C913.81,-279.762 811.588,-259.318 740.192,-245.038"/>
<polygon fill="midnightblue" stroke="midnightblue" points="989.846,-298.539 1000.34,-297.068 991.219,-291.674 989.846,-298.539"/>
</g>
<!-- Node11 -->
<g id="node11" class="node"><title>Node11</title>
<g id="a_node11"><a xlink:href="../../d3/d4a/ContourCreator_8cxx.html" target="_top" xlink:title="/home/travis/build\l/AliceO2Group/AliceO2\l/Detectors/MUON/MCH/Contour\l/test/ContourCreator.cxx">
<polygon fill="none" stroke="black" points="1161,-201 1161,-253 1321,-253 1321,-201 1161,-201"/>
<text text-anchor="start" x="1169" y="-241" font-family="Helvetica,sans-Serif" font-size="10.00">/home/travis/build</text>
<text text-anchor="start" x="1169" y="-230" font-family="Helvetica,sans-Serif" font-size="10.00">/AliceO2Group/AliceO2</text>
<text text-anchor="start" x="1169" y="-219" font-family="Helvetica,sans-Serif" font-size="10.00">/Detectors/MUON/MCH/Contour</text>
<text text-anchor="middle" x="1241" y="-208" font-family="Helvetica,sans-Serif" font-size="10.00">/test/ContourCreator.cxx</text>
</a>
</g>
</g>
<!-- Node3&#45;&gt;Node11 -->
<g id="edge15" class="edge"><title>Node3&#45;&gt;Node11</title>
<path fill="none" stroke="midnightblue" d="M1145.8,-285.38C1163.32,-274.823 1182.72,-263.13 1199.41,-253.069"/>
<polygon fill="midnightblue" stroke="midnightblue" points="1143.6,-282.623 1136.84,-290.783 1147.21,-288.618 1143.6,-282.623"/>
</g>
<!-- Node12 -->
<g id="node12" class="node"><title>Node12</title>
<g id="a_node12"><a xlink:href="../../da/d65/CathodeSegmentationContours_8cxx.html" target="_top" xlink:title="/home/travis/build\l/AliceO2Group/AliceO2\l/Detectors/MUON/MCH/Mapping\l/SegContour/src/CathodeSegmentation\lContours.cxx">
<polygon fill="none" stroke="black" points="1268,-0.5 1268,-63.5 1456,-63.5 1456,-0.5 1268,-0.5"/>
<text text-anchor="start" x="1276" y="-51.5" font-family="Helvetica,sans-Serif" font-size="10.00">/home/travis/build</text>
<text text-anchor="start" x="1276" y="-40.5" font-family="Helvetica,sans-Serif" font-size="10.00">/AliceO2Group/AliceO2</text>
<text text-anchor="start" x="1276" y="-29.5" font-family="Helvetica,sans-Serif" font-size="10.00">/Detectors/MUON/MCH/Mapping</text>
<text text-anchor="start" x="1276" y="-18.5" font-family="Helvetica,sans-Serif" font-size="10.00">/SegContour/src/CathodeSegmentation</text>
<text text-anchor="middle" x="1362" y="-7.5" font-family="Helvetica,sans-Serif" font-size="10.00">Contours.cxx</text>
</a>
</g>
</g>
<!-- Node3&#45;&gt;Node12 -->
<g id="edge16" class="edge"><title>Node3&#45;&gt;Node12</title>
<path fill="none" stroke="midnightblue" d="M1087.85,-280.746C1080.49,-233.626 1075.47,-150.236 1119,-100 1160.79,-51.7717 1196.52,-81.1176 1258,-64 1261.27,-63.0903 1264.59,-62.1553 1267.94,-61.2031"/>
<polygon fill="midnightblue" stroke="midnightblue" points="1084.43,-281.505 1089.54,-290.785 1091.33,-280.343 1084.43,-281.505"/>
</g>
<!-- Node13 -->
<g id="node13" class="node"><title>Node13</title>
<g id="a_node13"><a xlink:href="../../de/de2/SegmentationContours_8cxx.html" target="_top" xlink:title="/home/travis/build\l/AliceO2Group/AliceO2\l/Detectors/MUON/MCH/Mapping\l/SegContour/src/SegmentationContours.cxx">
<polygon fill="none" stroke="black" points="1474.5,-6 1474.5,-58 1683.5,-58 1683.5,-6 1474.5,-6"/>
<text text-anchor="start" x="1482.5" y="-46" font-family="Helvetica,sans-Serif" font-size="10.00">/home/travis/build</text>
<text text-anchor="start" x="1482.5" y="-35" font-family="Helvetica,sans-Serif" font-size="10.00">/AliceO2Group/AliceO2</text>
<text text-anchor="start" x="1482.5" y="-24" font-family="Helvetica,sans-Serif" font-size="10.00">/Detectors/MUON/MCH/Mapping</text>
<text text-anchor="middle" x="1579" y="-13" font-family="Helvetica,sans-Serif" font-size="10.00">/SegContour/src/SegmentationContours.cxx</text>
</a>
</g>
</g>
<!-- Node3&#45;&gt;Node13 -->
<g id="edge17" class="edge"><title>Node3&#45;&gt;Node13</title>
<path fill="none" stroke="midnightblue" d="M1104.54,-281.322C1113.17,-255.791 1128.23,-221.854 1152,-200 1203.42,-152.725 1385.02,-91.7824 1494.14,-58.1302"/>
<polygon fill="midnightblue" stroke="midnightblue" points="1101.16,-280.406 1101.44,-290.997 1107.83,-282.543 1101.16,-280.406"/>
</g>
<!-- Node5 -->
<g id="node5" class="node"><title>Node5</title>
<g id="a_node5"><a xlink:href="../../d0/db8/CathodeSegmentationSVGWriter_8h.html" target="_top" xlink:title="/home/travis/build\l/AliceO2Group/AliceO2\l/Detectors/MUON/MCH/Mapping\l/SegContour/include/MCHMappingSegContour\l/CathodeSegmentationSVGWriter.h">
<polygon fill="none" stroke="black" points="478,-100.5 478,-163.5 698,-163.5 698,-100.5 478,-100.5"/>
<text text-anchor="start" x="486" y="-151.5" font-family="Helvetica,sans-Serif" font-size="10.00">/home/travis/build</text>
<text text-anchor="start" x="486" y="-140.5" font-family="Helvetica,sans-Serif" font-size="10.00">/AliceO2Group/AliceO2</text>
<text text-anchor="start" x="486" y="-129.5" font-family="Helvetica,sans-Serif" font-size="10.00">/Detectors/MUON/MCH/Mapping</text>
<text text-anchor="start" x="486" y="-118.5" font-family="Helvetica,sans-Serif" font-size="10.00">/SegContour/include/MCHMappingSegContour</text>
<text text-anchor="middle" x="588" y="-107.5" font-family="Helvetica,sans-Serif" font-size="10.00">/CathodeSegmentationSVGWriter.h</text>
</a>
</g>
</g>
<!-- Node4&#45;&gt;Node5 -->
<g id="edge4" class="edge"><title>Node4&#45;&gt;Node5</title>
<path fill="none" stroke="midnightblue" d="M630.696,-192.265C623.966,-182.923 616.698,-172.835 610.101,-163.677"/>
<polygon fill="midnightblue" stroke="midnightblue" points="628.007,-194.52 636.692,-200.587 633.686,-190.428 628.007,-194.52"/>
</g>
<!-- Node6 -->
<g id="node6" class="node"><title>Node6</title>
<g id="a_node6"><a xlink:href="../../de/d54/CathodeSegmentationSVGWriter_8cxx.html" target="_top" xlink:title="/home/travis/build\l/AliceO2Group/AliceO2\l/Detectors/MUON/MCH/Mapping\l/SegContour/src/CathodeSegmentation\lSVGWriter.cxx">
<polygon fill="none" stroke="black" points="0,-0.5 0,-63.5 188,-63.5 188,-0.5 0,-0.5"/>
<text text-anchor="start" x="8" y="-51.5" font-family="Helvetica,sans-Serif" font-size="10.00">/home/travis/build</text>
<text text-anchor="start" x="8" y="-40.5" font-family="Helvetica,sans-Serif" font-size="10.00">/AliceO2Group/AliceO2</text>
<text text-anchor="start" x="8" y="-29.5" font-family="Helvetica,sans-Serif" font-size="10.00">/Detectors/MUON/MCH/Mapping</text>
<text text-anchor="start" x="8" y="-18.5" font-family="Helvetica,sans-Serif" font-size="10.00">/SegContour/src/CathodeSegmentation</text>
<text text-anchor="middle" x="94" y="-7.5" font-family="Helvetica,sans-Serif" font-size="10.00">SVGWriter.cxx</text>
</a>
</g>
</g>
<!-- Node4&#45;&gt;Node6 -->
<g id="edge10" class="edge"><title>Node4&#45;&gt;Node6</title>
<path fill="none" stroke="midnightblue" d="M559.649,-210.373C504.576,-200.014 434.453,-184.53 374,-164 293.454,-136.646 205.313,-92.9472 149.857,-63.6286"/>
<polygon fill="midnightblue" stroke="midnightblue" points="559.28,-213.864 569.751,-212.247 560.558,-206.981 559.28,-213.864"/>
</g>
<!-- Node7 -->
<g id="node7" class="node"><title>Node7</title>
<g id="a_node7"><a xlink:href="../../de/d56/SegmentationSVGWriter_8cxx.html" target="_top" xlink:title="/home/travis/build\l/AliceO2Group/AliceO2\l/Detectors/MUON/MCH/Mapping\l/SegContour/src/SegmentationSVGWriter.cxx">
<polygon fill="none" stroke="black" points="206.5,-6 206.5,-58 423.5,-58 423.5,-6 206.5,-6"/>
<text text-anchor="start" x="214.5" y="-46" font-family="Helvetica,sans-Serif" font-size="10.00">/home/travis/build</text>
<text text-anchor="start" x="214.5" y="-35" font-family="Helvetica,sans-Serif" font-size="10.00">/AliceO2Group/AliceO2</text>
<text text-anchor="start" x="214.5" y="-24" font-family="Helvetica,sans-Serif" font-size="10.00">/Detectors/MUON/MCH/Mapping</text>
<text text-anchor="middle" x="315" y="-13" font-family="Helvetica,sans-Serif" font-size="10.00">/SegContour/src/SegmentationSVGWriter.cxx</text>
</a>
</g>
</g>
<!-- Node4&#45;&gt;Node7 -->
<g id="edge11" class="edge"><title>Node4&#45;&gt;Node7</title>
<path fill="none" stroke="midnightblue" d="M559.692,-205.892C525.275,-196.24 487.04,-182.618 455,-164 406.217,-135.653 360.659,-87.4144 335.441,-58.0524"/>
<polygon fill="midnightblue" stroke="midnightblue" points="559.194,-209.384 569.763,-208.635 561.034,-202.63 559.194,-209.384"/>
</g>
<!-- Node8 -->
<g id="node8" class="node"><title>Node8</title>
<g id="a_node8"><a xlink:href="../../d2/d0f/SVGSegmentation_8cxx.html" target="_top" xlink:title="/home/travis/build\l/AliceO2Group/AliceO2\l/Detectors/MUON/MCH/Mapping\l/SegContour/src/SVGSegmentation.cxx">
<polygon fill="none" stroke="black" points="630.5,-6 630.5,-58 821.5,-58 821.5,-6 630.5,-6"/>
<text text-anchor="start" x="638.5" y="-46" font-family="Helvetica,sans-Serif" font-size="10.00">/home/travis/build</text>
<text text-anchor="start" x="638.5" y="-35" font-family="Helvetica,sans-Serif" font-size="10.00">/AliceO2Group/AliceO2</text>
<text text-anchor="start" x="638.5" y="-24" font-family="Helvetica,sans-Serif" font-size="10.00">/Detectors/MUON/MCH/Mapping</text>
<text text-anchor="middle" x="726" y="-13" font-family="Helvetica,sans-Serif" font-size="10.00">/SegContour/src/SVGSegmentation.cxx</text>
</a>
</g>
</g>
<!-- Node4&#45;&gt;Node8 -->
<g id="edge12" class="edge"><title>Node4&#45;&gt;Node8</title>
<path fill="none" stroke="midnightblue" d="M688.322,-193.053C695.54,-184.256 702.385,-174.308 707,-164 722.401,-129.602 725.867,-85.5137 726.369,-58.2681"/>
<polygon fill="midnightblue" stroke="midnightblue" points="685.53,-190.931 681.641,-200.787 690.827,-195.508 685.53,-190.931"/>
</g>
<!-- Node9 -->
<g id="node9" class="node"><title>Node9</title>
<g id="a_node9"><a xlink:href="../../df/dc1/CathodeSegmentation_8cxx.html" target="_top" xlink:title="/home/travis/build\l/AliceO2Group/AliceO2\l/Detectors/MUON/MCH/Mapping\l/test/src/CathodeSegmentation.cxx">
<polygon fill="none" stroke="black" points="441.5,-6 441.5,-58 612.5,-58 612.5,-6 441.5,-6"/>
<text text-anchor="start" x="449.5" y="-46" font-family="Helvetica,sans-Serif" font-size="10.00">/home/travis/build</text>
<text text-anchor="start" x="449.5" y="-35" font-family="Helvetica,sans-Serif" font-size="10.00">/AliceO2Group/AliceO2</text>
<text text-anchor="start" x="449.5" y="-24" font-family="Helvetica,sans-Serif" font-size="10.00">/Detectors/MUON/MCH/Mapping</text>
<text text-anchor="middle" x="527" y="-13" font-family="Helvetica,sans-Serif" font-size="10.00">/test/src/CathodeSegmentation.cxx</text>
</a>
</g>
</g>
<!-- Node4&#45;&gt;Node9 -->
<g id="edge13" class="edge"><title>Node4&#45;&gt;Node9</title>
<path fill="none" stroke="midnightblue" d="M559.578,-217.134C525.33,-208.806 490.013,-193.154 469,-164 452.368,-140.925 459.066,-126.653 469,-100 474.91,-84.1422 486.45,-69.5419 497.69,-58.0463"/>
<polygon fill="midnightblue" stroke="midnightblue" points="559.151,-220.625 569.674,-219.393 560.679,-213.794 559.151,-220.625"/>
</g>
<!-- Node10 -->
<g id="node10" class="node"><title>Node10</title>
<g id="a_node10"><a xlink:href="../../d2/dba/CathodeSegmentationLong_8cxx.html" target="_top" xlink:title="/home/travis/build\l/AliceO2Group/AliceO2\l/Detectors/MUON/MCH/Mapping\l/test/src/CathodeSegmentationLong.cxx">
<polygon fill="none" stroke="black" points="840,-6 840,-58 1032,-58 1032,-6 840,-6"/>
<text text-anchor="start" x="848" y="-46" font-family="Helvetica,sans-Serif" font-size="10.00">/home/travis/build</text>
<text text-anchor="start" x="848" y="-35" font-family="Helvetica,sans-Serif" font-size="10.00">/AliceO2Group/AliceO2</text>
<text text-anchor="start" x="848" y="-24" font-family="Helvetica,sans-Serif" font-size="10.00">/Detectors/MUON/MCH/Mapping</text>
<text text-anchor="middle" x="936" y="-13" font-family="Helvetica,sans-Serif" font-size="10.00">/test/src/CathodeSegmentationLong.cxx</text>
</a>
</g>
</g>
<!-- Node4&#45;&gt;Node10 -->
<g id="edge14" class="edge"><title>Node4&#45;&gt;Node10</title>
<path fill="none" stroke="midnightblue" d="M750.353,-221.136C836.419,-214.512 953.877,-199.143 983,-164 1008.75,-132.93 980.901,-86.6495 958.428,-58.2251"/>
<polygon fill="midnightblue" stroke="midnightblue" points="749.999,-217.652 740.285,-221.882 750.517,-224.633 749.999,-217.652"/>
</g>
<!-- Node5&#45;&gt;Node6 -->
<g id="edge5" class="edge"><title>Node5&#45;&gt;Node6</title>
<path fill="none" stroke="midnightblue" d="M467.417,-114.247C389.729,-102.494 286.825,-85.1293 197,-64 194.091,-63.3158 191.144,-62.5961 188.174,-61.8479"/>
<polygon fill="midnightblue" stroke="midnightblue" points="467.316,-117.772 477.725,-115.796 468.356,-110.849 467.316,-117.772"/>
</g>
<!-- Node5&#45;&gt;Node7 -->
<g id="edge6" class="edge"><title>Node5&#45;&gt;Node7</title>
<path fill="none" stroke="midnightblue" d="M493.311,-97.0089C457.717,-84.2319 417.926,-69.9479 384.979,-58.1206"/>
<polygon fill="midnightblue" stroke="midnightblue" points="492.15,-100.311 502.744,-100.395 494.515,-93.7224 492.15,-100.311"/>
</g>
<!-- Node5&#45;&gt;Node8 -->
<g id="edge7" class="edge"><title>Node5&#45;&gt;Node8</title>
<path fill="none" stroke="midnightblue" d="M639.518,-94.4148C656.578,-82.2994 675.165,-69.1 690.72,-58.0536"/>
<polygon fill="midnightblue" stroke="midnightblue" points="637.412,-91.6174 631.285,-100.261 641.465,-97.3247 637.412,-91.6174"/>
</g>
<!-- Node5&#45;&gt;Node9 -->
<g id="edge8" class="edge"><title>Node5&#45;&gt;Node9</title>
<path fill="none" stroke="midnightblue" d="M563.572,-91.7555C556.498,-80.3909 548.97,-68.2966 542.595,-58.0536"/>
<polygon fill="midnightblue" stroke="midnightblue" points="560.611,-93.6209 568.867,-100.261 566.554,-89.9218 560.611,-93.6209"/>
</g>
<!-- Node5&#45;&gt;Node10 -->
<g id="edge9" class="edge"><title>Node5&#45;&gt;Node10</title>
<path fill="none" stroke="midnightblue" d="M707.835,-98.1906C746.827,-87.4167 790.284,-75.3048 830,-64 836.731,-62.0841 843.697,-60.0843 850.695,-58.0636"/>
<polygon fill="midnightblue" stroke="midnightblue" points="706.73,-94.8644 698.023,-100.9 708.593,-101.612 706.73,-94.8644"/>
</g>
<!-- Node15&#45;&gt;Node6 -->
<g id="edge22" class="edge"><title>Node15&#45;&gt;Node6</title>
<path fill="none" stroke="midnightblue" d="M743.735,-105.672C731.363,-103.541 718.951,-101.595 707,-100 481.767,-69.9331 420.502,-104.996 197,-64 194.061,-63.4609 191.087,-62.8682 188.094,-62.2305"/>
<polygon fill="midnightblue" stroke="midnightblue" points="743.183,-109.128 753.638,-107.417 744.398,-102.235 743.183,-109.128"/>
</g>
<!-- Node15&#45;&gt;Node7 -->
<g id="edge24" class="edge"><title>Node15&#45;&gt;Node7</title>
<path fill="none" stroke="midnightblue" d="M743.962,-106.47C731.5,-104.172 719.007,-101.969 707,-100 585.36,-80.0506 552.939,-87.8347 432,-64 423.135,-62.2528 413.947,-60.218 404.794,-58.0414"/>
<polygon fill="midnightblue" stroke="midnightblue" points="743.467,-109.938 753.939,-108.332 744.751,-103.057 743.467,-109.938"/>
</g>
<!-- Node15&#45;&gt;Node8 -->
<g id="edge25" class="edge"><title>Node15&#45;&gt;Node8</title>
<path fill="none" stroke="midnightblue" d="M812.482,-94.4148C795.422,-82.2994 776.835,-69.1 761.28,-58.0536"/>
<polygon fill="midnightblue" stroke="midnightblue" points="810.535,-97.3247 820.715,-100.261 814.588,-91.6174 810.535,-97.3247"/>
</g>
<!-- Node15&#45;&gt;Node9 -->
<g id="edge27" class="edge"><title>Node15&#45;&gt;Node9</title>
<path fill="none" stroke="midnightblue" d="M743.999,-99.1796C704.684,-88.4173 660.869,-76.0625 621,-64 614.75,-62.109 608.284,-60.0964 601.804,-58.0399"/>
<polygon fill="midnightblue" stroke="midnightblue" points="743.323,-102.623 753.892,-101.88 745.166,-95.8703 743.323,-102.623"/>
</g>
<!-- Node15&#45;&gt;Node10 -->
<g id="edge28" class="edge"><title>Node15&#45;&gt;Node10</title>
<path fill="none" stroke="midnightblue" d="M892.587,-92.0895C901.008,-80.6282 909.994,-68.397 917.593,-58.0536"/>
<polygon fill="midnightblue" stroke="midnightblue" points="889.684,-90.13 886.584,-100.261 895.325,-94.2745 889.684,-90.13"/>
</g>
<!-- Node15&#45;&gt;Node12 -->
<g id="edge21" class="edge"><title>Node15&#45;&gt;Node12</title>
<path fill="none" stroke="midnightblue" d="M984.176,-114.432C1062.61,-102.67 1166.95,-85.2279 1258,-64 1261.21,-63.2513 1264.47,-62.4602 1267.75,-61.6358"/>
<polygon fill="midnightblue" stroke="midnightblue" points="983.633,-110.974 974.258,-115.909 984.665,-117.897 983.633,-110.974"/>
</g>
<!-- Node15&#45;&gt;Node13 -->
<g id="edge23" class="edge"><title>Node15&#45;&gt;Node13</title>
<path fill="none" stroke="midnightblue" d="M984.212,-115.952C1026.77,-110.74 1075,-104.963 1119,-100 1272.63,-82.6703 1313.02,-92.3775 1465,-64 1474.07,-62.3059 1483.48,-60.2496 1492.82,-58.0106"/>
<polygon fill="midnightblue" stroke="midnightblue" points="983.591,-112.502 974.091,-117.194 984.443,-119.45 983.591,-112.502"/>
</g>
<!-- Node16 -->
<g id="node16" class="node"><title>Node16</title>
<g id="a_node16"><a xlink:href="../../d8/df7/BenchCathodeSegmentation_8cxx.html" target="_top" xlink:title="/home/travis/build\l/AliceO2Group/AliceO2\l/Detectors/MUON/MCH/Mapping\l/test/src/BenchCathodeSegmentation.cxx">
<polygon fill="none" stroke="black" points="1050.5,-6 1050.5,-58 1249.5,-58 1249.5,-6 1050.5,-6"/>
<text text-anchor="start" x="1058.5" y="-46" font-family="Helvetica,sans-Serif" font-size="10.00">/home/travis/build</text>
<text text-anchor="start" x="1058.5" y="-35" font-family="Helvetica,sans-Serif" font-size="10.00">/AliceO2Group/AliceO2</text>
<text text-anchor="start" x="1058.5" y="-24" font-family="Helvetica,sans-Serif" font-size="10.00">/Detectors/MUON/MCH/Mapping</text>
<text text-anchor="middle" x="1150" y="-13" font-family="Helvetica,sans-Serif" font-size="10.00">/test/src/BenchCathodeSegmentation.cxx</text>
</a>
</g>
</g>
<!-- Node15&#45;&gt;Node16 -->
<g id="edge26" class="edge"><title>Node15&#45;&gt;Node16</title>
<path fill="none" stroke="midnightblue" d="M963.199,-97.0089C1000.49,-84.2319 1042.17,-69.9479 1076.69,-58.1206"/>
<polygon fill="midnightblue" stroke="midnightblue" points="961.641,-93.8427 953.316,-100.395 963.91,-100.465 961.641,-93.8427"/>
</g>
<!-- Node17&#45;&gt;Node13 -->
<g id="edge30" class="edge"><title>Node17&#45;&gt;Node13</title>
<path fill="none" stroke="midnightblue" d="M1360.42,-374.358C1372.26,-365.247 1384.14,-354.931 1394,-344 1477.93,-250.918 1543.4,-114.042 1568.21,-58.1576"/>
<polygon fill="midnightblue" stroke="midnightblue" points="1358.16,-371.676 1352.24,-380.465 1362.35,-377.283 1358.16,-371.676"/>
</g>
<!-- Node18 -->
<g id="node18" class="node"><title>Node18</title>
<g id="a_node18"><a xlink:href="../../d5/d2d/MUON_2MCH_2Mapping_2test_2src_2Segmentation_8cxx.html" target="_top" xlink:title="/home/travis/build\l/AliceO2Group/AliceO2\l/Detectors/MUON/MCH/Mapping\l/test/src/Segmentation.cxx">
<polygon fill="none" stroke="black" points="1223,-291 1223,-343 1385,-343 1385,-291 1223,-291"/>
<text text-anchor="start" x="1231" y="-331" font-family="Helvetica,sans-Serif" font-size="10.00">/home/travis/build</text>
<text text-anchor="start" x="1231" y="-320" font-family="Helvetica,sans-Serif" font-size="10.00">/AliceO2Group/AliceO2</text>
<text text-anchor="start" x="1231" y="-309" font-family="Helvetica,sans-Serif" font-size="10.00">/Detectors/MUON/MCH/Mapping</text>
<text text-anchor="middle" x="1304" y="-298" font-family="Helvetica,sans-Serif" font-size="10.00">/test/src/Segmentation.cxx</text>
</a>
</g>
</g>
<!-- Node17&#45;&gt;Node18 -->
<g id="edge31" class="edge"><title>Node17&#45;&gt;Node18</title>
<path fill="none" stroke="midnightblue" d="M1304,-370.112C1304,-360.917 1304,-351.423 1304,-343.1"/>
<polygon fill="midnightblue" stroke="midnightblue" points="1300.5,-370.291 1304,-380.291 1307.5,-370.291 1300.5,-370.291"/>
</g>
</g>
</svg>
