<?xml version="1.0" encoding="UTF-8" standalone="no"?>
<!DOCTYPE svg PUBLIC "-//W3C//DTD SVG 1.1//EN"
 "http://www.w3.org/Graphics/SVG/1.1/DTD/svg11.dtd">
<!-- Generated by graphviz version 2.36.0 (20140111.2315)
 -->
<!-- Title: /home/travis/build/AliceO2Group/AliceO2/Detectors/ITSMFT/MFT/base/include/MFTBase/ChipSegmentation.h Pages: 1 -->
<svg width="955pt" height="342pt"
 viewBox="0.00 0.00 955.00 342.00" xmlns="http://www.w3.org/2000/svg" xmlns:xlink="http://www.w3.org/1999/xlink">
<g id="graph0" class="graph" transform="scale(1 1) rotate(0) translate(4 338)">
<title>/home/travis/build/AliceO2Group/AliceO2/Detectors/ITSMFT/MFT/base/include/MFTBase/ChipSegmentation.h</title>
<!-- Node1 -->
<g id="node1" class="node"><title>Node1</title>
<polygon fill="#bfbfbf" stroke="black" points="367,-281 367,-333 579,-333 579,-281 367,-281"/>
<text text-anchor="start" x="375" y="-321" font-family="Helvetica,sans-Serif" font-size="10.00">/home/travis/build</text>
<text text-anchor="start" x="375" y="-310" font-family="Helvetica,sans-Serif" font-size="10.00">/AliceO2Group/AliceO2</text>
<text text-anchor="start" x="375" y="-299" font-family="Helvetica,sans-Serif" font-size="10.00">/Detectors/ITSMFT/MFT</text>
<text text-anchor="middle" x="473" y="-288" font-family="Helvetica,sans-Serif" font-size="10.00">/base/include/MFTBase/ChipSegmentation.h</text>
</g>
<!-- Node2 -->
<g id="node2" class="node"><title>Node2</title>
<g id="a_node2"><a xlink:href="../../d9/de7/LadderSegmentation_8h.html" target="_top" xlink:title="Description of the virtual segmentation of a ladder. ">
<polygon fill="none" stroke="black" points="293.5,-191 293.5,-243 514.5,-243 514.5,-191 293.5,-191"/>
<text text-anchor="start" x="301.5" y="-231" font-family="Helvetica,sans-Serif" font-size="10.00">/home/travis/build</text>
<text text-anchor="start" x="301.5" y="-220" font-family="Helvetica,sans-Serif" font-size="10.00">/AliceO2Group/AliceO2</text>
<text text-anchor="start" x="301.5" y="-209" font-family="Helvetica,sans-Serif" font-size="10.00">/Detectors/ITSMFT/MFT</text>
<text text-anchor="middle" x="404" y="-198" font-family="Helvetica,sans-Serif" font-size="10.00">/base/include/MFTBase/LadderSegmentation.h</text>
</a>
</g>
</g>
<!-- Node1&#45;&gt;Node2 -->
<g id="edge1" class="edge"><title>Node1&#45;&gt;Node2</title>
<path fill="none" stroke="midnightblue" d="M446.774,-272.553C439.107,-262.775 430.861,-252.258 423.675,-243.092"/>
<polygon fill="midnightblue" stroke="midnightblue" points="444.118,-274.837 453.042,-280.547 449.626,-270.518 444.118,-274.837"/>
</g>
<!-- Node4 -->
<g id="node4" class="node"><title>Node4</title>
<g id="a_node4"><a xlink:href="../../de/d37/ITSMFT_2MFT_2base_2src_2Geometry_8cxx.html" target="_top" xlink:title="/home/travis/build\l/AliceO2Group/AliceO2\l/Detectors/ITSMFT/MFT\l/base/src/Geometry.cxx">
<polygon fill="none" stroke="black" points="-0.5,-1 -0.5,-53 124.5,-53 124.5,-1 -0.5,-1"/>
<text text-anchor="start" x="7.5" y="-41" font-family="Helvetica,sans-Serif" font-size="10.00">/home/travis/build</text>
<text text-anchor="start" x="7.5" y="-30" font-family="Helvetica,sans-Serif" font-size="10.00">/AliceO2Group/AliceO2</text>
<text text-anchor="start" x="7.5" y="-19" font-family="Helvetica,sans-Serif" font-size="10.00">/Detectors/ITSMFT/MFT</text>
<text text-anchor="middle" x="62" y="-8" font-family="Helvetica,sans-Serif" font-size="10.00">/base/src/Geometry.cxx</text>
</a>
</g>
</g>
<!-- Node1&#45;&gt;Node4 -->
<g id="edge16" class="edge"><title>Node1&#45;&gt;Node4</title>
<path fill="none" stroke="midnightblue" d="M356.88,-287.722C312.947,-278.187 263.357,-264.168 221,-244 161.129,-215.493 140.277,-208.149 102,-154 80.2733,-123.264 69.9679,-80.1984 65.3669,-53.2141"/>
<polygon fill="midnightblue" stroke="midnightblue" points="356.237,-291.164 366.745,-289.809 357.686,-284.315 356.237,-291.164"/>
</g>
<!-- Node10 -->
<g id="node10" class="node"><title>Node10</title>
<g id="a_node10"><a xlink:href="../../d7/d93/Flex_8cxx.html" target="_top" xlink:title="Flex class for ALICE MFT upgrade. ">
<polygon fill="none" stroke="black" points="111.5,-96 111.5,-148 236.5,-148 236.5,-96 111.5,-96"/>
<text text-anchor="start" x="119.5" y="-136" font-family="Helvetica,sans-Serif" font-size="10.00">/home/travis/build</text>
<text text-anchor="start" x="119.5" y="-125" font-family="Helvetica,sans-Serif" font-size="10.00">/AliceO2Group/AliceO2</text>
<text text-anchor="start" x="119.5" y="-114" font-family="Helvetica,sans-Serif" font-size="10.00">/Detectors/ITSMFT/MFT</text>
<text text-anchor="middle" x="174" y="-103" font-family="Helvetica,sans-Serif" font-size="10.00">/base/src/Flex.cxx</text>
</a>
</g>
</g>
<!-- Node1&#45;&gt;Node10 -->
<g id="edge15" class="edge"><title>Node1&#45;&gt;Node10</title>
<path fill="none" stroke="midnightblue" d="M357.004,-278.406C331.804,-269.611 306.1,-258.321 284,-244 244.689,-218.526 210.356,-175.623 190.915,-148.342"/>
<polygon fill="midnightblue" stroke="midnightblue" points="356.035,-281.773 366.629,-281.656 358.274,-275.141 356.035,-281.773"/>
</g>
<!-- Node11 -->
<g id="node11" class="node"><title>Node11</title>
<g id="a_node11"><a xlink:href="../../dc/d80/Ladder_8cxx.html" target="_top" xlink:title="Ladder builder. ">
<polygon fill="none" stroke="black" points="511.5,-96 511.5,-148 636.5,-148 636.5,-96 511.5,-96"/>
<text text-anchor="start" x="519.5" y="-136" font-family="Helvetica,sans-Serif" font-size="10.00">/home/travis/build</text>
<text text-anchor="start" x="519.5" y="-125" font-family="Helvetica,sans-Serif" font-size="10.00">/AliceO2Group/AliceO2</text>
<text text-anchor="start" x="519.5" y="-114" font-family="Helvetica,sans-Serif" font-size="10.00">/Detectors/ITSMFT/MFT</text>
<text text-anchor="middle" x="574" y="-103" font-family="Helvetica,sans-Serif" font-size="10.00">/base/src/Ladder.cxx</text>
</a>
</g>
</g>
<!-- Node1&#45;&gt;Node11 -->
<g id="edge17" class="edge"><title>Node1&#45;&gt;Node11</title>
<path fill="none" stroke="midnightblue" d="M502.454,-272.97C509.705,-263.941 517.079,-253.905 523,-244 541.715,-212.692 556.958,-173.254 565.759,-148.077"/>
<polygon fill="midnightblue" stroke="midnightblue" points="499.539,-271.004 495.876,-280.946 504.939,-275.458 499.539,-271.004"/>
</g>
<!-- Node12 -->
<g id="node12" class="node"><title>Node12</title>
<g id="a_node12"><a xlink:href="../../d6/dc0/LadderSegmentation_8cxx.html" target="_top" xlink:title="Description of the virtual segmentation of a ladder. ">
<polygon fill="none" stroke="black" points="654,-96 654,-148 822,-148 822,-96 654,-96"/>
<text text-anchor="start" x="662" y="-136" font-family="Helvetica,sans-Serif" font-size="10.00">/home/travis/build</text>
<text text-anchor="start" x="662" y="-125" font-family="Helvetica,sans-Serif" font-size="10.00">/AliceO2Group/AliceO2</text>
<text text-anchor="start" x="662" y="-114" font-family="Helvetica,sans-Serif" font-size="10.00">/Detectors/ITSMFT/MFT</text>
<text text-anchor="middle" x="738" y="-103" font-family="Helvetica,sans-Serif" font-size="10.00">/base/src/LadderSegmentation.cxx</text>
</a>
</g>
</g>
<!-- Node1&#45;&gt;Node12 -->
<g id="edge18" class="edge"><title>Node1&#45;&gt;Node12</title>
<path fill="none" stroke="midnightblue" d="M514.469,-274.436C526.248,-264.986 538.887,-254.371 550,-244 573.913,-221.684 573.724,-209.478 600,-190 622.465,-173.347 649.717,-159.083 674.05,-148.05"/>
<polygon fill="midnightblue" stroke="midnightblue" points="512.138,-271.817 506.48,-280.774 516.489,-277.3 512.138,-271.817"/>
</g>
<!-- Node13 -->
<g id="node13" class="node"><title>Node13</title>
<g id="a_node13"><a xlink:href="../../d5/d24/ChipSegmentation_8cxx.html" target="_top" xlink:title="Description of the virtual segmentation of the chips. ">
<polygon fill="none" stroke="black" points="608.5,-191 608.5,-243 767.5,-243 767.5,-191 608.5,-191"/>
<text text-anchor="start" x="616.5" y="-231" font-family="Helvetica,sans-Serif" font-size="10.00">/home/travis/build</text>
<text text-anchor="start" x="616.5" y="-220" font-family="Helvetica,sans-Serif" font-size="10.00">/AliceO2Group/AliceO2</text>
<text text-anchor="start" x="616.5" y="-209" font-family="Helvetica,sans-Serif" font-size="10.00">/Detectors/ITSMFT/MFT</text>
<text text-anchor="middle" x="688" y="-198" font-family="Helvetica,sans-Serif" font-size="10.00">/base/src/ChipSegmentation.cxx</text>
</a>
</g>
</g>
<!-- Node1&#45;&gt;Node13 -->
<g id="edge14" class="edge"><title>Node1&#45;&gt;Node13</title>
<path fill="none" stroke="midnightblue" d="M543.644,-277.085C570.442,-266.117 600.717,-253.725 626.596,-243.133"/>
<polygon fill="midnightblue" stroke="midnightblue" points="542.252,-273.873 534.323,-280.901 544.903,-280.352 542.252,-273.873"/>
</g>
<!-- Node3 -->
<g id="node3" class="node"><title>Node3</title>
<g id="a_node3"><a xlink:href="../../dc/d53/HalfDiskSegmentation_8h.html" target="_top" xlink:title="Class for the description of the structure of a half&#45;disk. ">
<polygon fill="none" stroke="black" points="293.5,-90.5 293.5,-153.5 454.5,-153.5 454.5,-90.5 293.5,-90.5"/>
<text text-anchor="start" x="301.5" y="-141.5" font-family="Helvetica,sans-Serif" font-size="10.00">/home/travis/build</text>
<text text-anchor="start" x="301.5" y="-130.5" font-family="Helvetica,sans-Serif" font-size="10.00">/AliceO2Group/AliceO2</text>
<text text-anchor="start" x="301.5" y="-119.5" font-family="Helvetica,sans-Serif" font-size="10.00">/Detectors/ITSMFT/MFT</text>
<text text-anchor="start" x="301.5" y="-108.5" font-family="Helvetica,sans-Serif" font-size="10.00">/base/include/MFTBase/HalfDisk</text>
<text text-anchor="middle" x="374" y="-97.5" font-family="Helvetica,sans-Serif" font-size="10.00">Segmentation.h</text>
</a>
</g>
</g>
<!-- Node2&#45;&gt;Node3 -->
<g id="edge2" class="edge"><title>Node2&#45;&gt;Node3</title>
<path fill="none" stroke="midnightblue" d="M392.655,-180.83C389.773,-171.896 386.699,-162.368 383.896,-153.677"/>
<polygon fill="midnightblue" stroke="midnightblue" points="389.401,-182.145 395.802,-190.587 396.063,-179.996 389.401,-182.145"/>
</g>
<!-- Node2&#45;&gt;Node4 -->
<g id="edge10" class="edge"><title>Node2&#45;&gt;Node4</title>
<path fill="none" stroke="midnightblue" d="M330.861,-186.287C314.299,-177.455 297.606,-166.68 284,-154 259.632,-131.29 271.165,-110.613 245,-90 203.928,-57.6437 182.448,-70.9931 133,-54 130.269,-53.0614 127.483,-52.0921 124.671,-51.1044"/>
<polygon fill="midnightblue" stroke="midnightblue" points="329.534,-189.539 340.028,-190.993 332.731,-183.312 329.534,-189.539"/>
</g>
<!-- Node9 -->
<g id="node9" class="node"><title>Node9</title>
<g id="a_node9"><a xlink:href="../../d7/d41/ITSMFT_2MFT_2base_2src_2Segmentation_8cxx.html" target="_top" xlink:title="/home/travis/build\l/AliceO2Group/AliceO2\l/Detectors/ITSMFT/MFT\l/base/src/Segmentation.cxx">
<polygon fill="none" stroke="black" points="808.5,-1 808.5,-53 947.5,-53 947.5,-1 808.5,-1"/>
<text text-anchor="start" x="816.5" y="-41" font-family="Helvetica,sans-Serif" font-size="10.00">/home/travis/build</text>
<text text-anchor="start" x="816.5" y="-30" font-family="Helvetica,sans-Serif" font-size="10.00">/AliceO2Group/AliceO2</text>
<text text-anchor="start" x="816.5" y="-19" font-family="Helvetica,sans-Serif" font-size="10.00">/Detectors/ITSMFT/MFT</text>
<text text-anchor="middle" x="878" y="-8" font-family="Helvetica,sans-Serif" font-size="10.00">/base/src/Segmentation.cxx</text>
</a>
</g>
</g>
<!-- Node2&#45;&gt;Node9 -->
<g id="edge13" class="edge"><title>Node2&#45;&gt;Node9</title>
<path fill="none" stroke="midnightblue" d="M437.474,-183.435C446.198,-174.264 455.303,-164.043 463,-154 483.263,-127.563 473.994,-108.033 502,-90 613.796,-18.0159 669.218,-82.9245 799,-54 802.101,-53.309 805.252,-52.5447 808.422,-51.7249"/>
<polygon fill="midnightblue" stroke="midnightblue" points="434.72,-181.247 430.274,-190.864 439.747,-186.119 434.72,-181.247"/>
</g>
<!-- Node2&#45;&gt;Node10 -->
<g id="edge9" class="edge"><title>Node2&#45;&gt;Node10</title>
<path fill="none" stroke="midnightblue" d="M332.636,-187.144C301.712,-174.64 265.847,-160.138 236.049,-148.089"/>
<polygon fill="midnightblue" stroke="midnightblue" points="331.479,-190.451 342.062,-190.955 334.103,-183.962 331.479,-190.451"/>
</g>
<!-- Node2&#45;&gt;Node11 -->
<g id="edge11" class="edge"><title>Node2&#45;&gt;Node11</title>
<path fill="none" stroke="midnightblue" d="M459.047,-185.886C481.408,-173.653 506.941,-159.685 528.254,-148.026"/>
<polygon fill="midnightblue" stroke="midnightblue" points="457.098,-182.963 450.004,-190.833 460.457,-189.104 457.098,-182.963"/>
</g>
<!-- Node2&#45;&gt;Node12 -->
<g id="edge12" class="edge"><title>Node2&#45;&gt;Node12</title>
<path fill="none" stroke="midnightblue" d="M517.801,-188.463C558.143,-178.243 603.751,-166.164 645,-154 651.366,-152.123 657.951,-150.098 664.541,-148.014"/>
<polygon fill="midnightblue" stroke="midnightblue" points="516.776,-185.112 507.936,-190.952 518.488,-191.9 516.776,-185.112"/>
</g>
<!-- Node3&#45;&gt;Node4 -->
<g id="edge3" class="edge"><title>Node3&#45;&gt;Node4</title>
<path fill="none" stroke="midnightblue" d="M283.41,-91.2744C281.93,-90.8426 280.46,-90.4175 279,-90 214.744,-71.6213 196.918,-73.5198 133,-54 130.238,-53.1565 127.426,-52.266 124.594,-51.3428"/>
<polygon fill="midnightblue" stroke="midnightblue" points="282.692,-94.7124 293.275,-94.2103 284.689,-88.0032 282.692,-94.7124"/>
</g>
<!-- Node5 -->
<g id="node5" class="node"><title>Node5</title>
<g id="a_node5"><a xlink:href="../../d3/d36/HalfDetector_8cxx.html" target="_top" xlink:title="Class Building the geometry of one half of the ALICE Muon Forward Tracker. ">
<polygon fill="none" stroke="black" points="656,-1 656,-53 790,-53 790,-1 656,-1"/>
<text text-anchor="start" x="664" y="-41" font-family="Helvetica,sans-Serif" font-size="10.00">/home/travis/build</text>
<text text-anchor="start" x="664" y="-30" font-family="Helvetica,sans-Serif" font-size="10.00">/AliceO2Group/AliceO2</text>
<text text-anchor="start" x="664" y="-19" font-family="Helvetica,sans-Serif" font-size="10.00">/Detectors/ITSMFT/MFT</text>
<text text-anchor="middle" x="723" y="-8" font-family="Helvetica,sans-Serif" font-size="10.00">/base/src/HalfDetector.cxx</text>
</a>
</g>
</g>
<!-- Node3&#45;&gt;Node5 -->
<g id="edge4" class="edge"><title>Node3&#45;&gt;Node5</title>
<path fill="none" stroke="midnightblue" d="M464.567,-91.1902C466.054,-90.7845 467.532,-90.3874 469,-90 546.62,-69.5146 568.486,-74.8818 646,-54 649.27,-53.1192 652.603,-52.175 655.96,-51.187"/>
<polygon fill="midnightblue" stroke="midnightblue" points="463.338,-87.9001 454.662,-93.9812 465.237,-94.6378 463.338,-87.9001"/>
</g>
<!-- Node6 -->
<g id="node6" class="node"><title>Node6</title>
<g id="a_node6"><a xlink:href="../../d6/d66/HalfDisk_8cxx.html" target="_top" xlink:title="Class describing geometry of one half of a MFT disk. ">
<polygon fill="none" stroke="black" points="142.5,-1 142.5,-53 267.5,-53 267.5,-1 142.5,-1"/>
<text text-anchor="start" x="150.5" y="-41" font-family="Helvetica,sans-Serif" font-size="10.00">/home/travis/build</text>
<text text-anchor="start" x="150.5" y="-30" font-family="Helvetica,sans-Serif" font-size="10.00">/AliceO2Group/AliceO2</text>
<text text-anchor="start" x="150.5" y="-19" font-family="Helvetica,sans-Serif" font-size="10.00">/Detectors/ITSMFT/MFT</text>
<text text-anchor="middle" x="205" y="-8" font-family="Helvetica,sans-Serif" font-size="10.00">/base/src/HalfDisk.cxx</text>
</a>
</g>
</g>
<!-- Node3&#45;&gt;Node6 -->
<g id="edge5" class="edge"><title>Node3&#45;&gt;Node6</title>
<path fill="none" stroke="midnightblue" d="M309.322,-85.4081C289.745,-74.6351 268.665,-63.0343 250.612,-53.1001"/>
<polygon fill="midnightblue" stroke="midnightblue" points="307.746,-88.5357 318.195,-90.2906 311.121,-82.403 307.746,-88.5357"/>
</g>
<!-- Node7 -->
<g id="node7" class="node"><title>Node7</title>
<g id="a_node7"><a xlink:href="../../d1/d8f/HalfDiskSegmentation_8cxx.html" target="_top" xlink:title="Class for the description of the structure of a half&#45;disk. ">
<polygon fill="none" stroke="black" points="285.5,-1 285.5,-53 462.5,-53 462.5,-1 285.5,-1"/>
<text text-anchor="start" x="293.5" y="-41" font-family="Helvetica,sans-Serif" font-size="10.00">/home/travis/build</text>
<text text-anchor="start" x="293.5" y="-30" font-family="Helvetica,sans-Serif" font-size="10.00">/AliceO2Group/AliceO2</text>
<text text-anchor="start" x="293.5" y="-19" font-family="Helvetica,sans-Serif" font-size="10.00">/Detectors/ITSMFT/MFT</text>
<text text-anchor="middle" x="374" y="-8" font-family="Helvetica,sans-Serif" font-size="10.00">/base/src/HalfDiskSegmentation.cxx</text>
</a>
</g>
</g>
<!-- Node3&#45;&gt;Node7 -->
<g id="edge6" class="edge"><title>Node3&#45;&gt;Node7</title>
<path fill="none" stroke="midnightblue" d="M374,-80.1125C374,-70.9165 374,-61.4234 374,-53.1001"/>
<polygon fill="midnightblue" stroke="midnightblue" points="370.5,-80.2905 374,-90.2906 377.5,-80.2906 370.5,-80.2905"/>
</g>
<!-- Node8 -->
<g id="node8" class="node"><title>Node8</title>
<g id="a_node8"><a xlink:href="../../d1/d7f/HalfSegmentation_8cxx.html" target="_top" xlink:title="Segmentation class for each half of the ALICE Muon Forward Tracker. ">
<polygon fill="none" stroke="black" points="480.5,-1 480.5,-53 637.5,-53 637.5,-1 480.5,-1"/>
<text text-anchor="start" x="488.5" y="-41" font-family="Helvetica,sans-Serif" font-size="10.00">/home/travis/build</text>
<text text-anchor="start" x="488.5" y="-30" font-family="Helvetica,sans-Serif" font-size="10.00">/AliceO2Group/AliceO2</text>
<text text-anchor="start" x="488.5" y="-19" font-family="Helvetica,sans-Serif" font-size="10.00">/Detectors/ITSMFT/MFT</text>
<text text-anchor="middle" x="559" y="-8" font-family="Helvetica,sans-Serif" font-size="10.00">/base/src/HalfSegmentation.cxx</text>
</a>
</g>
</g>
<!-- Node3&#45;&gt;Node8 -->
<g id="edge7" class="edge"><title>Node3&#45;&gt;Node8</title>
<path fill="none" stroke="midnightblue" d="M444.014,-85.8038C465.725,-74.8898 489.195,-63.0913 509.235,-53.0171"/>
<polygon fill="midnightblue" stroke="midnightblue" points="442.195,-82.8009 434.832,-90.4195 445.339,-89.0551 442.195,-82.8009"/>
</g>
<!-- Node3&#45;&gt;Node9 -->
<g id="edge8" class="edge"><title>Node3&#45;&gt;Node9</title>
<path fill="none" stroke="midnightblue" d="M464.522,-91.0002C466.022,-90.6533 467.516,-90.3195 469,-90 613.232,-58.95 654.807,-85.2322 799,-54 802.105,-53.3275 805.259,-52.5787 808.432,-51.7714"/>
<polygon fill="midnightblue" stroke="midnightblue" points="463.408,-87.6699 454.538,-93.4642 465.086,-94.4659 463.408,-87.6699"/>
</g>
</g>
</svg>
