<?xml version="1.0" encoding="UTF-8" standalone="no"?>
<!DOCTYPE svg PUBLIC "-//W3C//DTD SVG 1.1//EN"
 "http://www.w3.org/Graphics/SVG/1.1/DTD/svg11.dtd">
<!-- Generated by graphviz version 2.36.0 (20140111.2315)
 -->
<!-- Title: /home/travis/build/AliceO2Group/AliceO2/Detectors/MUON/MCH/Mapping/test/src/BenchSegmentation.cxx Pages: 1 -->
<svg width="564pt" height="254pt"
 viewBox="0.00 0.00 564.00 254.00" xmlns="http://www.w3.org/2000/svg" xmlns:xlink="http://www.w3.org/1999/xlink">
<g id="graph0" class="graph" transform="scale(1 1) rotate(0) translate(4 250)">
<title>/home/travis/build/AliceO2Group/AliceO2/Detectors/MUON/MCH/Mapping/test/src/BenchSegmentation.cxx</title>
<!-- Node1 -->
<g id="node1" class="node"><title>Node1</title>
<polygon fill="#bfbfbf" stroke="black" points="115,-193 115,-245 277,-245 277,-193 115,-193"/>
<text text-anchor="start" x="123" y="-233" font-family="Helvetica,sans-Serif" font-size="10.00">/home/travis/build</text>
<text text-anchor="start" x="123" y="-222" font-family="Helvetica,sans-Serif" font-size="10.00">/AliceO2Group/AliceO2</text>
<text text-anchor="start" x="123" y="-211" font-family="Helvetica,sans-Serif" font-size="10.00">/Detectors/MUON/MCH/Mapping</text>
<text text-anchor="middle" x="196" y="-200" font-family="Helvetica,sans-Serif" font-size="10.00">/test/src/BenchSegmentation.cxx</text>
</g>
<!-- Node2 -->
<g id="node2" class="node"><title>Node2</title>
<polygon fill="none" stroke="#bfbfbf" points="45,-130.5 45,-149.5 101,-149.5 101,-130.5 45,-130.5"/>
<text text-anchor="middle" x="73" y="-137.5" font-family="Helvetica,sans-Serif" font-size="10.00">algorithm</text>
</g>
<!-- Node1&#45;&gt;Node2 -->
<g id="edge1" class="edge"><title>Node1&#45;&gt;Node2</title>
<path fill="none" stroke="midnightblue" d="M155.725,-192.787C135.626,-180.205 112.079,-165.464 95.2585,-154.934"/>
<polygon fill="midnightblue" stroke="midnightblue" points="97.0034,-151.897 86.6701,-149.558 93.289,-157.831 97.0034,-151.897"/>
</g>
<!-- Node3 -->
<g id="node3" class="node"><title>Node3</title>
<polygon fill="none" stroke="#bfbfbf" points="119.5,-130.5 119.5,-149.5 168.5,-149.5 168.5,-130.5 119.5,-130.5"/>
<text text-anchor="middle" x="144" y="-137.5" font-family="Helvetica,sans-Serif" font-size="10.00">random</text>
</g>
<!-- Node1&#45;&gt;Node3 -->
<g id="edge2" class="edge"><title>Node1&#45;&gt;Node3</title>
<path fill="none" stroke="midnightblue" d="M178.973,-192.787C171.263,-181.37 162.352,-168.176 155.455,-157.962"/>
<polygon fill="midnightblue" stroke="midnightblue" points="158.276,-155.886 149.779,-149.558 152.475,-159.804 158.276,-155.886"/>
</g>
<!-- Node4 -->
<g id="node4" class="node"><title>Node4</title>
<polygon fill="none" stroke="#bfbfbf" points="186,-130.5 186,-149.5 310,-149.5 310,-130.5 186,-130.5"/>
<text text-anchor="middle" x="248" y="-137.5" font-family="Helvetica,sans-Serif" font-size="10.00">benchmark/benchmark.h</text>
</g>
<!-- Node1&#45;&gt;Node4 -->
<g id="edge3" class="edge"><title>Node1&#45;&gt;Node4</title>
<path fill="none" stroke="midnightblue" d="M213.027,-192.787C220.737,-181.37 229.648,-168.176 236.545,-157.962"/>
<polygon fill="midnightblue" stroke="midnightblue" points="239.525,-159.804 242.221,-149.558 233.724,-155.886 239.525,-159.804"/>
</g>
<!-- Node5 -->
<g id="node5" class="node"><title>Node5</title>
<g id="a_node5"><a xlink:href="../../d6/d1f/MUON_2MCH_2Mapping_2Interface_2include_2MCHMappingInterface_2Segmentation_8h.html" target="_top" xlink:title="MCHMappingInterface\l/Segmentation.h">
<polygon fill="none" stroke="black" points="328.5,-125 328.5,-155 443.5,-155 443.5,-125 328.5,-125"/>
<text text-anchor="start" x="336.5" y="-143" font-family="Helvetica,sans-Serif" font-size="10.00">MCHMappingInterface</text>
<text text-anchor="middle" x="386" y="-132" font-family="Helvetica,sans-Serif" font-size="10.00">/Segmentation.h</text>
</a>
</g>
</g>
<!-- Node1&#45;&gt;Node5 -->
<g id="edge4" class="edge"><title>Node1&#45;&gt;Node5</title>
<path fill="none" stroke="midnightblue" d="M257.95,-192.894C285.292,-181.813 316.807,-169.041 341.73,-158.941"/>
<polygon fill="midnightblue" stroke="midnightblue" points="343.328,-162.07 351.281,-155.07 340.699,-155.582 343.328,-162.07"/>
</g>
<!-- Node6 -->
<g id="node6" class="node"><title>Node6</title>
<g id="a_node6"><a xlink:href="../../df/db6/CathodeSegmentation_8h.html" target="_top" xlink:title="MCHMappingInterface\l/CathodeSegmentation.h">
<polygon fill="none" stroke="black" points="260.5,-57 260.5,-87 385.5,-87 385.5,-57 260.5,-57"/>
<text text-anchor="start" x="268.5" y="-75" font-family="Helvetica,sans-Serif" font-size="10.00">MCHMappingInterface</text>
<text text-anchor="middle" x="323" y="-64" font-family="Helvetica,sans-Serif" font-size="10.00">/CathodeSegmentation.h</text>
</a>
</g>
</g>
<!-- Node5&#45;&gt;Node6 -->
<g id="edge5" class="edge"><title>Node5&#45;&gt;Node6</title>
<path fill="none" stroke="midnightblue" d="M372.33,-124.679C363.992,-115.944 353.168,-104.605 343.785,-94.7747"/>
<polygon fill="midnightblue" stroke="midnightblue" points="346.08,-92.11 336.643,-87.2931 341.016,-96.9433 346.08,-92.11"/>
</g>
<!-- Node13 -->
<g id="node13" class="node"><title>Node13</title>
<g id="a_node13"><a xlink:href="../../d0/d5f/Segmentation_8inl.html" target="_top" xlink:title="Segmentation.inl">
<polygon fill="none" stroke="black" points="403.5,-62.5 403.5,-81.5 492.5,-81.5 492.5,-62.5 403.5,-62.5"/>
<text text-anchor="middle" x="448" y="-69.5" font-family="Helvetica,sans-Serif" font-size="10.00">Segmentation.inl</text>
</a>
</g>
</g>
<!-- Node5&#45;&gt;Node13 -->
<g id="edge12" class="edge"><title>Node5&#45;&gt;Node13</title>
<path fill="none" stroke="midnightblue" d="M399.453,-124.679C409.216,-114.286 422.441,-100.208 432.622,-89.37"/>
<polygon fill="midnightblue" stroke="midnightblue" points="435.411,-91.5132 439.707,-81.8283 430.309,-86.7204 435.411,-91.5132"/>
</g>
<!-- Node7 -->
<g id="node7" class="node"><title>Node7</title>
<g id="a_node7"><a xlink:href="../../d0/dc7/CathodeSegmentationCInterface_8h.html" target="_top" xlink:title="CathodeSegmentationCInterface.h">
<polygon fill="none" stroke="black" points="-0.5,-0.5 -0.5,-19.5 166.5,-19.5 166.5,-0.5 -0.5,-0.5"/>
<text text-anchor="middle" x="83" y="-7.5" font-family="Helvetica,sans-Serif" font-size="10.00">CathodeSegmentationCInterface.h</text>
</a>
</g>
</g>
<!-- Node6&#45;&gt;Node7 -->
<g id="edge6" class="edge"><title>Node6&#45;&gt;Node7</title>
<path fill="none" stroke="midnightblue" d="M266.731,-56.9327C224.034,-46.2584 166.172,-31.7931 126.87,-21.9676"/>
<polygon fill="midnightblue" stroke="midnightblue" points="127.601,-18.5426 117.051,-19.5127 125.903,-25.3336 127.601,-18.5426"/>
</g>
<!-- Node8 -->
<g id="node8" class="node"><title>Node8</title>
<polygon fill="none" stroke="#bfbfbf" points="184.5,-0.5 184.5,-19.5 243.5,-19.5 243.5,-0.5 184.5,-0.5"/>
<text text-anchor="middle" x="214" y="-7.5" font-family="Helvetica,sans-Serif" font-size="10.00">stdexcept</text>
</g>
<!-- Node6&#45;&gt;Node8 -->
<g id="edge7" class="edge"><title>Node6&#45;&gt;Node8</title>
<path fill="none" stroke="midnightblue" d="M297.444,-56.9327C279.712,-47.1715 256.22,-34.2401 238.68,-24.5856"/>
<polygon fill="midnightblue" stroke="midnightblue" points="240.072,-21.3562 229.623,-19.6 236.696,-27.4885 240.072,-21.3562"/>
</g>
<!-- Node9 -->
<g id="node9" class="node"><title>Node9</title>
<polygon fill="none" stroke="#bfbfbf" points="262,-0.5 262,-19.5 314,-19.5 314,-0.5 262,-0.5"/>
<text text-anchor="middle" x="288" y="-7.5" font-family="Helvetica,sans-Serif" font-size="10.00">memory</text>
</g>
<!-- Node6&#45;&gt;Node9 -->
<g id="edge8" class="edge"><title>Node6&#45;&gt;Node9</title>
<path fill="none" stroke="midnightblue" d="M314.705,-56.7808C309.777,-48.3318 303.486,-37.5481 298.249,-28.5693"/>
<polygon fill="midnightblue" stroke="midnightblue" points="301.155,-26.6048 293.093,-19.7305 295.108,-30.1319 301.155,-26.6048"/>
</g>
<!-- Node10 -->
<g id="node10" class="node"><title>Node10</title>
<polygon fill="none" stroke="#bfbfbf" points="332,-0.5 332,-19.5 386,-19.5 386,-0.5 332,-0.5"/>
<text text-anchor="middle" x="359" y="-7.5" font-family="Helvetica,sans-Serif" font-size="10.00">iostream</text>
</g>
<!-- Node6&#45;&gt;Node10 -->
<g id="edge9" class="edge"><title>Node6&#45;&gt;Node10</title>
<path fill="none" stroke="midnightblue" d="M331.531,-56.7808C336.601,-48.3318 343.071,-37.5481 348.458,-28.5693"/>
<polygon fill="midnightblue" stroke="midnightblue" points="351.618,-30.1062 353.762,-19.7305 345.615,-26.5047 351.618,-30.1062"/>
</g>
<!-- Node11 -->
<g id="node11" class="node"><title>Node11</title>
<polygon fill="none" stroke="#bfbfbf" points="404,-0.5 404,-19.5 448,-19.5 448,-0.5 404,-0.5"/>
<text text-anchor="middle" x="426" y="-7.5" font-family="Helvetica,sans-Serif" font-size="10.00">vector</text>
</g>
<!-- Node6&#45;&gt;Node11 -->
<g id="edge10" class="edge"><title>Node6&#45;&gt;Node11</title>
<path fill="none" stroke="midnightblue" d="M347.149,-56.9327C363.75,-47.2619 385.694,-34.4793 402.216,-24.8546"/>
<polygon fill="midnightblue" stroke="midnightblue" points="404.358,-27.6579 411.237,-19.6 400.834,-21.6093 404.358,-27.6579"/>
</g>
<!-- Node12 -->
<g id="node12" class="node"><title>Node12</title>
<polygon fill="none" stroke="#bfbfbf" points="466,-0.5 466,-19.5 556,-19.5 556,-0.5 466,-0.5"/>
<text text-anchor="middle" x="511" y="-7.5" font-family="Helvetica,sans-Serif" font-size="10.00">boost/format.hpp</text>
</g>
<!-- Node6&#45;&gt;Node12 -->
<g id="edge11" class="edge"><title>Node6&#45;&gt;Node12</title>
<path fill="none" stroke="midnightblue" d="M367.078,-56.9327C399.743,-46.5077 443.738,-32.4667 474.454,-22.6635"/>
<polygon fill="midnightblue" stroke="midnightblue" points="475.864,-25.8875 484.327,-19.5127 473.736,-19.2189 475.864,-25.8875"/>
</g>
</g>
</svg>
