<?xml version="1.0" encoding="UTF-8" standalone="no"?>
<!DOCTYPE svg PUBLIC "-//W3C//DTD SVG 1.1//EN"
 "http://www.w3.org/Graphics/SVG/1.1/DTD/svg11.dtd">
<!-- Generated by graphviz version 2.36.0 (20140111.2315)
 -->
<!-- Title: o2::ITSMFT::ITSMFTDPLDigitWriter Pages: 1 -->
<svg width="343pt" height="338pt"
 viewBox="0.00 0.00 343.00 338.00" xmlns="http://www.w3.org/2000/svg" xmlns:xlink="http://www.w3.org/1999/xlink">
<g id="graph0" class="graph" transform="scale(1 1) rotate(0) translate(4 334)">
<title>o2::ITSMFT::ITSMFTDPLDigitWriter</title>
<!-- Node1 -->
<g id="node1" class="node"><title>Node1</title>
<polygon fill="#bfbfbf" stroke="black" points="90.5,-107 90.5,-329 241.5,-329 241.5,-107 90.5,-107"/>
<text text-anchor="start" x="98.5" y="-317" font-family="Helvetica,sans-Serif" font-size="10.00">o2::ITSMFT::ITSMFTDPLDigit</text>
<text text-anchor="middle" x="166" y="-306" font-family="Helvetica,sans-Serif" font-size="10.00">Writer</text>
<polyline fill="none" stroke="black" points="90.5,-299 241.5,-299 "/>
<text text-anchor="start" x="98.5" y="-287" font-family="Helvetica,sans-Serif" font-size="10.00"># mFileName</text>
<text text-anchor="start" x="98.5" y="-276" font-family="Helvetica,sans-Serif" font-size="10.00"># mTreeNameDig</text>
<text text-anchor="start" x="98.5" y="-265" font-family="Helvetica,sans-Serif" font-size="10.00"># mTreeNameROF</text>
<text text-anchor="start" x="98.5" y="-254" font-family="Helvetica,sans-Serif" font-size="10.00"># mTreeNameMC2ROF</text>
<text text-anchor="start" x="98.5" y="-243" font-family="Helvetica,sans-Serif" font-size="10.00"># mFinished</text>
<text text-anchor="start" x="98.5" y="-232" font-family="Helvetica,sans-Serif" font-size="10.00"># mID</text>
<text text-anchor="start" x="98.5" y="-221" font-family="Helvetica,sans-Serif" font-size="10.00"># mOrigin</text>
<text text-anchor="start" x="98.5" y="-210" font-family="Helvetica,sans-Serif" font-size="10.00"># mDigits</text>
<text text-anchor="start" x="98.5" y="-199" font-family="Helvetica,sans-Serif" font-size="10.00"># mOutFile</text>
<text text-anchor="start" x="98.5" y="-188" font-family="Helvetica,sans-Serif" font-size="10.00"># mOutTreeDig</text>
<text text-anchor="start" x="98.5" y="-177" font-family="Helvetica,sans-Serif" font-size="10.00"># mOutTreeROF</text>
<text text-anchor="start" x="98.5" y="-166" font-family="Helvetica,sans-Serif" font-size="10.00"># mOutTreeMC2ROF</text>
<polyline fill="none" stroke="black" points="90.5,-159 241.5,-159 "/>
<text text-anchor="start" x="98.5" y="-147" font-family="Helvetica,sans-Serif" font-size="10.00">+ init()</text>
<text text-anchor="start" x="98.5" y="-136" font-family="Helvetica,sans-Serif" font-size="10.00">+ run()</text>
<text text-anchor="start" x="98.5" y="-125" font-family="Helvetica,sans-Serif" font-size="10.00"># ITSMFTDPLDigitWriter()</text>
<text text-anchor="start" x="98.5" y="-114" font-family="Helvetica,sans-Serif" font-size="10.00"># getOrMakeBranch()</text>
</g>
<!-- Node2 -->
<g id="node2" class="node"><title>Node2</title>
<g id="a_node2"><a xlink:href="../../dc/d7d/classo2_1_1ITSMFT_1_1ITSDPLDigitWriter.html" target="_top" xlink:title="{o2::ITSMFT::ITSDPLDigitWriter\n|+ DETID\l+ DETOR\l|+ ITSDPLDigitWriter()\l}">
<polygon fill="none" stroke="black" points="-0.5,-1 -0.5,-69 156.5,-69 156.5,-1 -0.5,-1"/>
<text text-anchor="middle" x="78" y="-57" font-family="Helvetica,sans-Serif" font-size="10.00">o2::ITSMFT::ITSDPLDigitWriter</text>
<polyline fill="none" stroke="black" points="-0.5,-50 156.5,-50 "/>
<text text-anchor="start" x="7.5" y="-38" font-family="Helvetica,sans-Serif" font-size="10.00">+ DETID</text>
<text text-anchor="start" x="7.5" y="-27" font-family="Helvetica,sans-Serif" font-size="10.00">+ DETOR</text>
<polyline fill="none" stroke="black" points="-0.5,-20 156.5,-20 "/>
<text text-anchor="start" x="7.5" y="-8" font-family="Helvetica,sans-Serif" font-size="10.00">+ ITSDPLDigitWriter()</text>
</a>
</g>
</g>
<!-- Node1&#45;&gt;Node2 -->
<g id="edge1" class="edge"><title>Node1&#45;&gt;Node2</title>
<path fill="none" stroke="midnightblue" d="M107.967,-97.6368C102.991,-87.4025 98.2829,-77.7183 94.1358,-69.1883"/>
<polygon fill="none" stroke="midnightblue" points="104.881,-99.2939 112.401,-106.757 111.176,-96.2332 104.881,-99.2939"/>
</g>
<!-- Node3 -->
<g id="node3" class="node"><title>Node3</title>
<g id="a_node3"><a xlink:href="../../dd/d22/classo2_1_1ITSMFT_1_1MFTDPLDigitWriter.html" target="_top" xlink:title="{o2::ITSMFT::MFTDPLDigitWriter\n|+ DETID\l+ DETOR\l|+ MFTDPLDigitWriter()\l}">
<polygon fill="none" stroke="black" points="174.5,-1 174.5,-69 335.5,-69 335.5,-1 174.5,-1"/>
<text text-anchor="middle" x="255" y="-57" font-family="Helvetica,sans-Serif" font-size="10.00">o2::ITSMFT::MFTDPLDigitWriter</text>
<polyline fill="none" stroke="black" points="174.5,-50 335.5,-50 "/>
<text text-anchor="start" x="182.5" y="-38" font-family="Helvetica,sans-Serif" font-size="10.00">+ DETID</text>
<text text-anchor="start" x="182.5" y="-27" font-family="Helvetica,sans-Serif" font-size="10.00">+ DETOR</text>
<polyline fill="none" stroke="black" points="174.5,-20 335.5,-20 "/>
<text text-anchor="start" x="182.5" y="-8" font-family="Helvetica,sans-Serif" font-size="10.00">+ MFTDPLDigitWriter()</text>
</a>
</g>
</g>
<!-- Node1&#45;&gt;Node3 -->
<g id="edge2" class="edge"><title>Node1&#45;&gt;Node3</title>
<path fill="none" stroke="midnightblue" d="M224.692,-97.6368C229.725,-87.4025 234.487,-77.7183 238.681,-69.1883"/>
<polygon fill="none" stroke="midnightblue" points="221.48,-96.2387 220.208,-106.757 227.761,-99.3276 221.48,-96.2387"/>
</g>
</g>
</svg>
