<?xml version="1.0" encoding="UTF-8" standalone="no"?>
<!DOCTYPE svg PUBLIC "-//W3C//DTD SVG 1.1//EN"
 "http://www.w3.org/Graphics/SVG/1.1/DTD/svg11.dtd">
<!-- Generated by graphviz version 2.36.0 (20140111.2315)
 -->
<!-- Title: /home/travis/build/AliceO2Group/AliceO2/Common/MathUtils/src/Chebyshev3D.cxx Pages: 1 -->
<svg width="1050pt" height="230pt"
 viewBox="0.00 0.00 1050.00 230.00" xmlns="http://www.w3.org/2000/svg" xmlns:xlink="http://www.w3.org/1999/xlink">
<g id="graph0" class="graph" transform="scale(1 1) rotate(0) translate(4 226)">
<title>/home/travis/build/AliceO2Group/AliceO2/Common/MathUtils/src/Chebyshev3D.cxx</title>
<!-- Node1 -->
<g id="node1" class="node"><title>Node1</title>
<polygon fill="#bfbfbf" stroke="black" points="393.5,-169 393.5,-221 514.5,-221 514.5,-169 393.5,-169"/>
<text text-anchor="start" x="401.5" y="-209" font-family="Helvetica,sans-Serif" font-size="10.00">/home/travis/build</text>
<text text-anchor="start" x="401.5" y="-198" font-family="Helvetica,sans-Serif" font-size="10.00">/AliceO2Group/AliceO2</text>
<text text-anchor="start" x="401.5" y="-187" font-family="Helvetica,sans-Serif" font-size="10.00">/Common/MathUtils/src</text>
<text text-anchor="middle" x="454" y="-176" font-family="Helvetica,sans-Serif" font-size="10.00">/Chebyshev3D.cxx</text>
</g>
<!-- Node2 -->
<g id="node2" class="node"><title>Node2</title>
<g id="a_node2"><a xlink:href="../../d8/d64/Chebyshev3D_8h.html" target="_top" xlink:title="MathUtils/Chebyshev3D.h">
<polygon fill="none" stroke="black" points="173,-112.5 173,-131.5 305,-131.5 305,-112.5 173,-112.5"/>
<text text-anchor="middle" x="239" y="-119.5" font-family="Helvetica,sans-Serif" font-size="10.00">MathUtils/Chebyshev3D.h</text>
</a>
</g>
</g>
<!-- Node1&#45;&gt;Node2 -->
<g id="edge1" class="edge"><title>Node1&#45;&gt;Node2</title>
<path fill="none" stroke="midnightblue" d="M393.252,-173.939C355.043,-161.321 307.048,-145.472 274.829,-134.832"/>
<polygon fill="midnightblue" stroke="midnightblue" points="275.549,-131.384 264.955,-131.571 273.353,-138.031 275.549,-131.384"/>
</g>
<!-- Node3 -->
<g id="node3" class="node"><title>Node3</title>
<polygon fill="none" stroke="#bfbfbf" points="0,-0.5 0,-19.5 62,-19.5 62,-0.5 0,-0.5"/>
<text text-anchor="middle" x="31" y="-7.5" font-family="Helvetica,sans-Serif" font-size="10.00">TNamed.h</text>
</g>
<!-- Node1&#45;&gt;Node3 -->
<g id="edge22" class="edge"><title>Node1&#45;&gt;Node3</title>
<path fill="none" stroke="midnightblue" d="M393.47,-188.369C304.774,-179.318 144.541,-159.698 94,-132 64.4788,-115.822 57.9639,-106.155 43,-76 35.8267,-61.5447 32.9133,-43.3568 31.7442,-29.8989"/>
<polygon fill="midnightblue" stroke="midnightblue" points="35.2358,-29.6541 31.1172,-19.8926 28.2495,-30.0919 35.2358,-29.6541"/>
</g>
<!-- Node4 -->
<g id="node4" class="node"><title>Node4</title>
<polygon fill="none" stroke="#bfbfbf" points="305.5,-56.5 305.5,-75.5 374.5,-75.5 374.5,-56.5 305.5,-56.5"/>
<text text-anchor="middle" x="340" y="-63.5" font-family="Helvetica,sans-Serif" font-size="10.00">TObjArray.h</text>
</g>
<!-- Node1&#45;&gt;Node4 -->
<g id="edge23" class="edge"><title>Node1&#45;&gt;Node4</title>
<path fill="none" stroke="midnightblue" d="M421.559,-168.833C408.824,-158.173 394.529,-145.179 383,-132 369.953,-117.085 357.761,-97.9625 349.716,-84.3274"/>
<polygon fill="midnightblue" stroke="midnightblue" points="352.66,-82.4273 344.637,-75.5076 346.594,-85.9202 352.66,-82.4273"/>
</g>
<!-- Node5 -->
<g id="node5" class="node"><title>Node5</title>
<polygon fill="none" stroke="#bfbfbf" points="113.5,-0.5 113.5,-19.5 156.5,-19.5 156.5,-0.5 113.5,-0.5"/>
<text text-anchor="middle" x="135" y="-7.5" font-family="Helvetica,sans-Serif" font-size="10.00">cstdio</text>
</g>
<!-- Node1&#45;&gt;Node5 -->
<g id="edge18" class="edge"><title>Node1&#45;&gt;Node5</title>
<path fill="none" stroke="midnightblue" d="M393.332,-186.419C289.214,-171.889 84.3451,-136.114 50,-76 34.9722,-49.6971 73.5772,-30.5298 103.586,-20.0798"/>
<polygon fill="midnightblue" stroke="midnightblue" points="104.937,-23.3201 113.344,-16.8723 102.751,-16.6702 104.937,-23.3201"/>
</g>
<!-- Node6 -->
<g id="node6" class="node"><title>Node6</title>
<g id="a_node6"><a xlink:href="../../d4/d08/Chebyshev3DCalc_8h.html" target="_top" xlink:title="MathUtils/Chebyshev3DCalc.h">
<polygon fill="none" stroke="black" points="59,-56.5 59,-75.5 211,-75.5 211,-56.5 59,-56.5"/>
<text text-anchor="middle" x="135" y="-63.5" font-family="Helvetica,sans-Serif" font-size="10.00">MathUtils/Chebyshev3DCalc.h</text>
</a>
</g>
</g>
<!-- Node1&#45;&gt;Node6 -->
<g id="edge19" class="edge"><title>Node1&#45;&gt;Node6</title>
<path fill="none" stroke="midnightblue" d="M393.227,-187.515C318.876,-178.492 198.604,-160.034 164,-132 149.769,-120.471 142.295,-100.503 138.525,-85.7327"/>
<polygon fill="midnightblue" stroke="midnightblue" points="141.88,-84.6914 136.313,-75.6768 135.043,-86.1952 141.88,-84.6914"/>
</g>
<!-- Node8 -->
<g id="node8" class="node"><title>Node8</title>
<polygon fill="none" stroke="#bfbfbf" points="393,-56.5 393,-75.5 449,-75.5 449,-56.5 393,-56.5"/>
<text text-anchor="middle" x="421" y="-63.5" font-family="Helvetica,sans-Serif" font-size="10.00">TString.h</text>
</g>
<!-- Node1&#45;&gt;Node8 -->
<g id="edge16" class="edge"><title>Node1&#45;&gt;Node8</title>
<path fill="none" stroke="midnightblue" d="M418.389,-168.859C407.119,-158.821 396.033,-146.245 390,-132 382.88,-115.19 393.967,-96.4099 404.808,-83.3756"/>
<polygon fill="midnightblue" stroke="midnightblue" points="407.613,-85.4919 411.703,-75.7185 402.411,-80.808 407.613,-85.4919"/>
</g>
<!-- Node9 -->
<g id="node9" class="node"><title>Node9</title>
<polygon fill="none" stroke="#bfbfbf" points="399,-112.5 399,-131.5 443,-131.5 443,-112.5 399,-112.5"/>
<text text-anchor="middle" x="421" y="-119.5" font-family="Helvetica,sans-Serif" font-size="10.00">TH1.h</text>
</g>
<!-- Node1&#45;&gt;Node9 -->
<g id="edge11" class="edge"><title>Node1&#45;&gt;Node9</title>
<path fill="none" stroke="midnightblue" d="M442.273,-168.768C438.005,-159.587 433.272,-149.403 429.356,-140.978"/>
<polygon fill="midnightblue" stroke="midnightblue" points="432.459,-139.35 425.07,-131.757 426.111,-142.301 432.459,-139.35"/>
</g>
<!-- Node10 -->
<g id="node10" class="node"><title>Node10</title>
<polygon fill="none" stroke="#bfbfbf" points="461.5,-112.5 461.5,-131.5 514.5,-131.5 514.5,-112.5 461.5,-112.5"/>
<text text-anchor="middle" x="488" y="-119.5" font-family="Helvetica,sans-Serif" font-size="10.00">TMath.h</text>
</g>
<!-- Node1&#45;&gt;Node10 -->
<g id="edge12" class="edge"><title>Node1&#45;&gt;Node10</title>
<path fill="none" stroke="midnightblue" d="M466.083,-168.768C470.479,-159.587 475.356,-149.403 479.391,-140.978"/>
<polygon fill="midnightblue" stroke="midnightblue" points="482.644,-142.288 483.806,-131.757 476.331,-139.265 482.644,-142.288"/>
</g>
<!-- Node11 -->
<g id="node11" class="node"><title>Node11</title>
<polygon fill="none" stroke="#bfbfbf" points="533,-112.5 533,-131.5 613,-131.5 613,-112.5 533,-112.5"/>
<text text-anchor="middle" x="573" y="-119.5" font-family="Helvetica,sans-Serif" font-size="10.00">TMethodCall.h</text>
</g>
<!-- Node1&#45;&gt;Node11 -->
<g id="edge13" class="edge"><title>Node1&#45;&gt;Node11</title>
<path fill="none" stroke="midnightblue" d="M495.955,-168.968C514.02,-158.19 534.455,-145.997 549.738,-136.879"/>
<polygon fill="midnightblue" stroke="midnightblue" points="551.726,-139.768 558.521,-131.639 548.14,-133.757 551.726,-139.768"/>
</g>
<!-- Node12 -->
<g id="node12" class="node"><title>Node12</title>
<polygon fill="none" stroke="#bfbfbf" points="631.5,-112.5 631.5,-131.5 690.5,-131.5 690.5,-112.5 631.5,-112.5"/>
<text text-anchor="middle" x="661" y="-119.5" font-family="Helvetica,sans-Serif" font-size="10.00">TROOT.h</text>
</g>
<!-- Node1&#45;&gt;Node12 -->
<g id="edge14" class="edge"><title>Node1&#45;&gt;Node12</title>
<path fill="none" stroke="midnightblue" d="M514.708,-173.177C551.042,-160.715 595.916,-145.324 626.312,-134.898"/>
<polygon fill="midnightblue" stroke="midnightblue" points="627.709,-138.119 636.032,-131.564 625.438,-131.498 627.709,-138.119"/>
</g>
<!-- Node13 -->
<g id="node13" class="node"><title>Node13</title>
<polygon fill="none" stroke="#bfbfbf" points="709,-112.5 709,-131.5 777,-131.5 777,-112.5 709,-112.5"/>
<text text-anchor="middle" x="743" y="-119.5" font-family="Helvetica,sans-Serif" font-size="10.00">TRandom.h</text>
</g>
<!-- Node1&#45;&gt;Node13 -->
<g id="edge15" class="edge"><title>Node1&#45;&gt;Node13</title>
<path fill="none" stroke="midnightblue" d="M514.584,-179.116C569.71,-165.573 649.771,-145.904 699,-133.81"/>
<polygon fill="midnightblue" stroke="midnightblue" points="699.841,-137.207 708.717,-131.422 698.171,-130.409 699.841,-137.207"/>
</g>
<!-- Node14 -->
<g id="node14" class="node"><title>Node14</title>
<polygon fill="none" stroke="#bfbfbf" points="795.5,-112.5 795.5,-131.5 860.5,-131.5 860.5,-112.5 795.5,-112.5"/>
<text text-anchor="middle" x="828" y="-119.5" font-family="Helvetica,sans-Serif" font-size="10.00">TSystem.h</text>
</g>
<!-- Node1&#45;&gt;Node14 -->
<g id="edge17" class="edge"><title>Node1&#45;&gt;Node14</title>
<path fill="none" stroke="midnightblue" d="M514.675,-183.167C579.162,-171.541 684.374,-152.253 785.383,-132.08"/>
<polygon fill="midnightblue" stroke="midnightblue" points="786.34,-135.458 795.458,-130.062 784.966,-128.594 786.34,-135.458"/>
</g>
<!-- Node15 -->
<g id="node15" class="node"><title>Node15</title>
<polygon fill="none" stroke="#bfbfbf" points="878.5,-112.5 878.5,-131.5 949.5,-131.5 949.5,-112.5 878.5,-112.5"/>
<text text-anchor="middle" x="914" y="-119.5" font-family="Helvetica,sans-Serif" font-size="10.00">FairLogger.h</text>
</g>
<!-- Node1&#45;&gt;Node15 -->
<g id="edge20" class="edge"><title>Node1&#45;&gt;Node15</title>
<path fill="none" stroke="midnightblue" d="M514.631,-185.892C593.622,-175.117 736.238,-154.942 868.277,-132.054"/>
<polygon fill="midnightblue" stroke="midnightblue" points="868.917,-135.496 878.168,-130.331 867.716,-128.599 868.917,-135.496"/>
</g>
<!-- Node16 -->
<g id="node16" class="node"><title>Node16</title>
<polygon fill="none" stroke="#bfbfbf" points="967.5,-112.5 967.5,-131.5 1042.5,-131.5 1042.5,-112.5 967.5,-112.5"/>
<text text-anchor="middle" x="1005" y="-119.5" font-family="Helvetica,sans-Serif" font-size="10.00">TMathBase.h</text>
</g>
<!-- Node1&#45;&gt;Node16 -->
<g id="edge21" class="edge"><title>Node1&#45;&gt;Node16</title>
<path fill="none" stroke="midnightblue" d="M514.695,-187.858C607.707,-178.153 791.273,-157.847 957.421,-131.995"/>
<polygon fill="midnightblue" stroke="midnightblue" points="957.991,-135.448 967.329,-130.443 956.908,-128.532 957.991,-135.448"/>
</g>
<!-- Node2&#45;&gt;Node3 -->
<g id="edge2" class="edge"><title>Node2&#45;&gt;Node3</title>
<path fill="none" stroke="midnightblue" d="M173.212,-112.459C126.004,-105.047 67.7239,-92.8483 50,-76 37.4938,-64.1116 33.0824,-44.4905 31.5948,-29.9106"/>
<polygon fill="midnightblue" stroke="midnightblue" points="35.0628,-29.298 30.9298,-19.5425 28.0771,-29.7461 35.0628,-29.298"/>
</g>
<!-- Node2&#45;&gt;Node4 -->
<g id="edge3" class="edge"><title>Node2&#45;&gt;Node4</title>
<path fill="none" stroke="midnightblue" d="M255.227,-112.324C271.351,-103.703 296.3,-90.3643 314.964,-80.3855"/>
<polygon fill="midnightblue" stroke="midnightblue" points="316.644,-83.456 323.813,-75.6545 313.344,-77.283 316.644,-83.456"/>
</g>
<!-- Node2&#45;&gt;Node5 -->
<g id="edge4" class="edge"><title>Node2&#45;&gt;Node5</title>
<path fill="none" stroke="midnightblue" d="M238.581,-112.446C237.506,-99.0092 233.672,-72.7646 220,-56 206.199,-39.0771 184.315,-27.7006 166.209,-20.6202"/>
<polygon fill="midnightblue" stroke="midnightblue" points="167.208,-17.259 156.614,-17.1207 164.809,-23.8353 167.208,-17.259"/>
</g>
<!-- Node2&#45;&gt;Node6 -->
<g id="edge5" class="edge"><title>Node2&#45;&gt;Node6</title>
<path fill="none" stroke="midnightblue" d="M222.291,-112.324C205.688,-103.703 179.998,-90.3643 160.78,-80.3855"/>
<polygon fill="midnightblue" stroke="midnightblue" points="162.156,-77.1565 151.668,-75.6545 158.93,-83.3689 162.156,-77.1565"/>
</g>
<!-- Node7 -->
<g id="node7" class="node"><title>Node7</title>
<polygon fill="none" stroke="#bfbfbf" points="212,-0.5 212,-19.5 268,-19.5 268,-0.5 212,-0.5"/>
<text text-anchor="middle" x="240" y="-7.5" font-family="Helvetica,sans-Serif" font-size="10.00">Rtypes.h</text>
</g>
<!-- Node2&#45;&gt;Node7 -->
<g id="edge9" class="edge"><title>Node2&#45;&gt;Node7</title>
<path fill="none" stroke="midnightblue" d="M242.6,-112.222C246.056,-103.285 251.033,-88.9424 253,-76 255.404,-60.178 251.361,-42.3653 247.164,-29.3933"/>
<polygon fill="midnightblue" stroke="midnightblue" points="250.395,-28.0312 243.742,-19.7853 243.801,-30.38 250.395,-28.0312"/>
</g>
<!-- Node2&#45;&gt;Node8 -->
<g id="edge10" class="edge"><title>Node2&#45;&gt;Node8</title>
<path fill="none" stroke="midnightblue" d="M267.838,-112.444C299.038,-103.186 348.912,-88.3888 383.222,-78.2089"/>
<polygon fill="midnightblue" stroke="midnightblue" points="384.303,-81.539 392.895,-75.339 382.312,-74.8281 384.303,-81.539"/>
</g>
<!-- Node6&#45;&gt;Node3 -->
<g id="edge6" class="edge"><title>Node6&#45;&gt;Node3</title>
<path fill="none" stroke="midnightblue" d="M118.291,-56.324C101.688,-47.7034 75.9979,-34.3643 56.7795,-24.3855"/>
<polygon fill="midnightblue" stroke="midnightblue" points="58.1558,-21.1565 47.6679,-19.6545 54.93,-27.3689 58.1558,-21.1565"/>
</g>
<!-- Node6&#45;&gt;Node5 -->
<g id="edge7" class="edge"><title>Node6&#45;&gt;Node5</title>
<path fill="none" stroke="midnightblue" d="M135,-56.083C135,-49.0059 135,-38.8611 135,-29.9865"/>
<polygon fill="midnightblue" stroke="midnightblue" points="138.5,-29.751 135,-19.7511 131.5,-29.7511 138.5,-29.751"/>
</g>
<!-- Node6&#45;&gt;Node7 -->
<g id="edge8" class="edge"><title>Node6&#45;&gt;Node7</title>
<path fill="none" stroke="midnightblue" d="M151.87,-56.324C168.709,-47.6641 194.807,-34.2424 214.238,-24.249"/>
<polygon fill="midnightblue" stroke="midnightblue" points="215.88,-27.3405 223.172,-19.6545 212.678,-21.1155 215.88,-27.3405"/>
</g>
</g>
</svg>
