<?xml version="1.0" encoding="UTF-8" standalone="no"?>
<!DOCTYPE svg PUBLIC "-//W3C//DTD SVG 1.1//EN"
 "http://www.w3.org/Graphics/SVG/1.1/DTD/svg11.dtd">
<!-- Generated by graphviz version 2.36.0 (20140111.2315)
 -->
<!-- Title: /home/travis/build/AliceO2Group/AliceO2/Steer/include/Steer/InteractionSampler.h Pages: 1 -->
<svg width="629pt" height="186pt"
 viewBox="0.00 0.00 629.40 186.00" xmlns="http://www.w3.org/2000/svg" xmlns:xlink="http://www.w3.org/1999/xlink">
<g id="graph0" class="graph" transform="scale(1 1) rotate(0) translate(4 182)">
<title>/home/travis/build/AliceO2Group/AliceO2/Steer/include/Steer/InteractionSampler.h</title>
<!-- Node1 -->
<g id="node1" class="node"><title>Node1</title>
<polygon fill="#bfbfbf" stroke="black" points="118.396,-125 118.396,-177 270.396,-177 270.396,-125 118.396,-125"/>
<text text-anchor="start" x="126.396" y="-165" font-family="Helvetica,sans-Serif" font-size="10.00">/home/travis/build</text>
<text text-anchor="start" x="126.396" y="-154" font-family="Helvetica,sans-Serif" font-size="10.00">/AliceO2Group/AliceO2</text>
<text text-anchor="start" x="126.396" y="-143" font-family="Helvetica,sans-Serif" font-size="10.00">/Steer/include/Steer/Interaction</text>
<text text-anchor="middle" x="194.396" y="-132" font-family="Helvetica,sans-Serif" font-size="10.00">Sampler.h</text>
</g>
<!-- Node2 -->
<g id="node2" class="node"><title>Node2</title>
<polygon fill="none" stroke="#bfbfbf" points="24.3956,-0.5 24.3956,-19.5 80.3956,-19.5 80.3956,-0.5 24.3956,-0.5"/>
<text text-anchor="middle" x="52.3956" y="-7.5" font-family="Helvetica,sans-Serif" font-size="10.00">Rtypes.h</text>
</g>
<!-- Node1&#45;&gt;Node2 -->
<g id="edge1" class="edge"><title>Node1&#45;&gt;Node2</title>
<path fill="none" stroke="midnightblue" d="M118.387,-145.692C77.8395,-139.053 31.1238,-123.517 5.39556,-88 -2.94781,-76.4822 -0.189521,-69.0797 5.39556,-56 10.5423,-43.9469 20.6769,-33.5764 30.2215,-25.8389"/>
<polygon fill="midnightblue" stroke="midnightblue" points="32.4354,-28.5532 38.3171,-19.7409 28.2237,-22.9619 32.4354,-28.5532"/>
</g>
<!-- Node3 -->
<g id="node3" class="node"><title>Node3</title>
<polygon fill="none" stroke="#bfbfbf" points="14.8956,-62.5 14.8956,-81.5 67.8956,-81.5 67.8956,-62.5 14.8956,-62.5"/>
<text text-anchor="middle" x="41.3956" y="-69.5" font-family="Helvetica,sans-Serif" font-size="10.00">TMath.h</text>
</g>
<!-- Node1&#45;&gt;Node3 -->
<g id="edge2" class="edge"><title>Node1&#45;&gt;Node3</title>
<path fill="none" stroke="midnightblue" d="M144.298,-124.787C118.602,-111.855 88.376,-96.6438 67.359,-86.0666"/>
<polygon fill="midnightblue" stroke="midnightblue" points="68.9058,-82.9268 58.3998,-81.5577 65.759,-89.1796 68.9058,-82.9268"/>
</g>
<!-- Node4 -->
<g id="node4" class="node"><title>Node4</title>
<polygon fill="none" stroke="#bfbfbf" points="86.3956,-62.5 86.3956,-81.5 154.396,-81.5 154.396,-62.5 86.3956,-62.5"/>
<text text-anchor="middle" x="120.396" y="-69.5" font-family="Helvetica,sans-Serif" font-size="10.00">TRandom.h</text>
</g>
<!-- Node1&#45;&gt;Node4 -->
<g id="edge3" class="edge"><title>Node1&#45;&gt;Node4</title>
<path fill="none" stroke="midnightblue" d="M170.165,-124.787C158.857,-113.02 145.734,-99.3661 135.804,-89.033"/>
<polygon fill="midnightblue" stroke="midnightblue" points="138.073,-86.3426 128.62,-81.5577 133.026,-91.1931 138.073,-86.3426"/>
</g>
<!-- Node5 -->
<g id="node5" class="node"><title>Node5</title>
<polygon fill="none" stroke="#bfbfbf" points="172.396,-62.5 172.396,-81.5 216.396,-81.5 216.396,-62.5 172.396,-62.5"/>
<text text-anchor="middle" x="194.396" y="-69.5" font-family="Helvetica,sans-Serif" font-size="10.00">vector</text>
</g>
<!-- Node1&#45;&gt;Node5 -->
<g id="edge4" class="edge"><title>Node1&#45;&gt;Node5</title>
<path fill="none" stroke="midnightblue" d="M194.396,-124.787C194.396,-114.069 194.396,-101.785 194.396,-91.8708"/>
<polygon fill="midnightblue" stroke="midnightblue" points="197.896,-91.5577 194.396,-81.5577 190.896,-91.5577 197.896,-91.5577"/>
</g>
<!-- Node6 -->
<g id="node6" class="node"><title>Node6</title>
<g id="a_node6"><a xlink:href="../../d9/d80/InteractionRecord_8h.html" target="_top" xlink:title="CommonDataFormat/Interaction\lRecord.h">
<polygon fill="none" stroke="black" points="234.896,-57 234.896,-87 391.896,-87 391.896,-57 234.896,-57"/>
<text text-anchor="start" x="242.896" y="-75" font-family="Helvetica,sans-Serif" font-size="10.00">CommonDataFormat/Interaction</text>
<text text-anchor="middle" x="313.396" y="-64" font-family="Helvetica,sans-Serif" font-size="10.00">Record.h</text>
</a>
</g>
</g>
<!-- Node1&#45;&gt;Node6 -->
<g id="edge5" class="edge"><title>Node1&#45;&gt;Node6</title>
<path fill="none" stroke="midnightblue" d="M233.361,-124.787C249.566,-114.301 268.088,-102.316 283.23,-92.5187"/>
<polygon fill="midnightblue" stroke="midnightblue" points="285.217,-95.4017 291.712,-87.0307 281.415,-89.5247 285.217,-95.4017"/>
</g>
<!-- Node10 -->
<g id="node10" class="node"><title>Node10</title>
<g id="a_node10"><a xlink:href="../../d4/dc6/LHCConstants_8h.html" target="_top" xlink:title="Header to collect LHC related constants. ">
<polygon fill="none" stroke="black" points="354.396,-0.5 354.396,-19.5 532.396,-19.5 532.396,-0.5 354.396,-0.5"/>
<text text-anchor="middle" x="443.396" y="-7.5" font-family="Helvetica,sans-Serif" font-size="10.00">CommonConstants/LHCConstants.h</text>
</a>
</g>
</g>
<!-- Node1&#45;&gt;Node10 -->
<g id="edge14" class="edge"><title>Node1&#45;&gt;Node10</title>
<path fill="none" stroke="midnightblue" d="M270.437,-141.27C312.434,-133.203 363.422,-117.712 400.396,-88 419.373,-72.7504 431.364,-46.7404 437.727,-29.219"/>
<polygon fill="midnightblue" stroke="midnightblue" points="441.099,-30.1726 440.973,-19.5785 434.465,-27.9385 441.099,-30.1726"/>
</g>
<!-- Node11 -->
<g id="node11" class="node"><title>Node11</title>
<g id="a_node11"><a xlink:href="../../d4/d5f/BunchFilling_8h.html" target="_top" xlink:title="CommonDataFormat/BunchFilling.h">
<polygon fill="none" stroke="black" points="448.896,-62.5 448.896,-81.5 621.896,-81.5 621.896,-62.5 448.896,-62.5"/>
<text text-anchor="middle" x="535.396" y="-69.5" font-family="Helvetica,sans-Serif" font-size="10.00">CommonDataFormat/BunchFilling.h</text>
</a>
</g>
</g>
<!-- Node1&#45;&gt;Node11 -->
<g id="edge11" class="edge"><title>Node1&#45;&gt;Node11</title>
<path fill="none" stroke="midnightblue" d="M270.498,-132.816C336.837,-117.836 431.017,-96.5693 487.378,-83.8427"/>
<polygon fill="midnightblue" stroke="midnightblue" points="488.463,-87.1859 497.446,-81.5692 486.921,-80.3578 488.463,-87.1859"/>
</g>
<!-- Node6&#45;&gt;Node2 -->
<g id="edge6" class="edge"><title>Node6&#45;&gt;Node2</title>
<path fill="none" stroke="midnightblue" d="M252.203,-56.9327C202.093,-45.4131 132.776,-29.4783 90.3484,-19.7248"/>
<polygon fill="midnightblue" stroke="midnightblue" points="90.9577,-16.2736 80.4278,-17.4442 89.3894,-23.0957 90.9577,-16.2736"/>
</g>
<!-- Node7 -->
<g id="node7" class="node"><title>Node7</title>
<polygon fill="none" stroke="#bfbfbf" points="164.896,-0.5 164.896,-19.5 209.896,-19.5 209.896,-0.5 164.896,-0.5"/>
<text text-anchor="middle" x="187.396" y="-7.5" font-family="Helvetica,sans-Serif" font-size="10.00">iosfwd</text>
</g>
<!-- Node6&#45;&gt;Node7 -->
<g id="edge7" class="edge"><title>Node6&#45;&gt;Node7</title>
<path fill="none" stroke="midnightblue" d="M283.854,-56.9327C262.881,-46.9455 234.939,-33.6397 214.529,-23.9205"/>
<polygon fill="midnightblue" stroke="midnightblue" points="215.989,-20.7394 205.456,-19.6 212.979,-27.0594 215.989,-20.7394"/>
</g>
<!-- Node8 -->
<g id="node8" class="node"><title>Node8</title>
<polygon fill="none" stroke="#bfbfbf" points="228.396,-0.5 228.396,-19.5 272.396,-19.5 272.396,-0.5 228.396,-0.5"/>
<text text-anchor="middle" x="250.396" y="-7.5" font-family="Helvetica,sans-Serif" font-size="10.00">cmath</text>
</g>
<!-- Node6&#45;&gt;Node8 -->
<g id="edge8" class="edge"><title>Node6&#45;&gt;Node8</title>
<path fill="none" stroke="midnightblue" d="M298.465,-56.7808C289.028,-47.7925 276.816,-36.162 267.062,-26.8731"/>
<polygon fill="midnightblue" stroke="midnightblue" points="269.218,-24.0926 259.563,-19.7305 264.39,-29.1616 269.218,-24.0926"/>
</g>
<!-- Node9 -->
<g id="node9" class="node"><title>Node9</title>
<polygon fill="none" stroke="#bfbfbf" points="290.396,-0.5 290.396,-19.5 336.396,-19.5 336.396,-0.5 290.396,-0.5"/>
<text text-anchor="middle" x="313.396" y="-7.5" font-family="Helvetica,sans-Serif" font-size="10.00">cstdint</text>
</g>
<!-- Node6&#45;&gt;Node9 -->
<g id="edge9" class="edge"><title>Node6&#45;&gt;Node9</title>
<path fill="none" stroke="midnightblue" d="M313.396,-56.7808C313.396,-48.7812 313.396,-38.6887 313.396,-30.0168"/>
<polygon fill="midnightblue" stroke="midnightblue" points="316.896,-29.7305 313.396,-19.7305 309.896,-29.7306 316.896,-29.7305"/>
</g>
<!-- Node6&#45;&gt;Node10 -->
<g id="edge10" class="edge"><title>Node6&#45;&gt;Node10</title>
<path fill="none" stroke="midnightblue" d="M343.875,-56.9327C365.514,-46.9455 394.343,-33.6397 415.401,-23.9205"/>
<polygon fill="midnightblue" stroke="midnightblue" points="417.149,-26.9685 424.762,-19.6 414.216,-20.6128 417.149,-26.9685"/>
</g>
<!-- Node11&#45;&gt;Node10 -->
<g id="edge12" class="edge"><title>Node11&#45;&gt;Node10</title>
<path fill="none" stroke="midnightblue" d="M522.214,-62.4035C507.321,-52.6905 482.851,-36.7319 465.122,-25.1697"/>
<polygon fill="midnightblue" stroke="midnightblue" points="466.841,-22.1117 456.552,-19.5806 463.017,-27.975 466.841,-22.1117"/>
</g>
<!-- Node12 -->
<g id="node12" class="node"><title>Node12</title>
<polygon fill="none" stroke="#bfbfbf" points="549.896,-0.5 549.896,-19.5 590.896,-19.5 590.896,-0.5 549.896,-0.5"/>
<text text-anchor="middle" x="570.396" y="-7.5" font-family="Helvetica,sans-Serif" font-size="10.00">bitset</text>
</g>
<!-- Node11&#45;&gt;Node12 -->
<g id="edge13" class="edge"><title>Node11&#45;&gt;Node12</title>
<path fill="none" stroke="midnightblue" d="M540.41,-62.4035C545.556,-53.5816 553.708,-39.6075 560.214,-28.4548"/>
<polygon fill="midnightblue" stroke="midnightblue" points="563.375,-29.982 565.39,-19.5806 557.328,-26.4548 563.375,-29.982"/>
</g>
</g>
</svg>
