<?xml version="1.0" encoding="UTF-8" standalone="no"?>
<!DOCTYPE svg PUBLIC "-//W3C//DTD SVG 1.1//EN"
 "http://www.w3.org/Graphics/SVG/1.1/DTD/svg11.dtd">
<!-- Generated by graphviz version 2.36.0 (20140111.2315)
 -->
<!-- Title: /home/travis/build/AliceO2Group/AliceO2/Examples/flp2epn&#45;distributed/run/runEPNReceiver.cxx Pages: 1 -->
<svg width="480pt" height="186pt"
 viewBox="0.00 0.00 480.00 186.00" xmlns="http://www.w3.org/2000/svg" xmlns:xlink="http://www.w3.org/1999/xlink">
<g id="graph0" class="graph" transform="scale(1 1) rotate(0) translate(4 182)">
<title>/home/travis/build/AliceO2Group/AliceO2/Examples/flp2epn&#45;distributed/run/runEPNReceiver.cxx</title>
<!-- Node1 -->
<g id="node1" class="node"><title>Node1</title>
<polygon fill="#bfbfbf" stroke="black" points="56,-125 56,-177 202,-177 202,-125 56,-125"/>
<text text-anchor="start" x="64" y="-165" font-family="Helvetica,sans-Serif" font-size="10.00">/home/travis/build</text>
<text text-anchor="start" x="64" y="-154" font-family="Helvetica,sans-Serif" font-size="10.00">/AliceO2Group/AliceO2</text>
<text text-anchor="start" x="64" y="-143" font-family="Helvetica,sans-Serif" font-size="10.00">/Examples/flp2epn&#45;distributed</text>
<text text-anchor="middle" x="129" y="-132" font-family="Helvetica,sans-Serif" font-size="10.00">/run/runEPNReceiver.cxx</text>
</g>
<!-- Node2 -->
<g id="node2" class="node"><title>Node2</title>
<polygon fill="none" stroke="#bfbfbf" points="-0.5,-62.5 -0.5,-81.5 100.5,-81.5 100.5,-62.5 -0.5,-62.5"/>
<text text-anchor="middle" x="50" y="-69.5" font-family="Helvetica,sans-Serif" font-size="10.00">runFairMQDevice.h</text>
</g>
<!-- Node1&#45;&gt;Node2 -->
<g id="edge1" class="edge"><title>Node1&#45;&gt;Node2</title>
<path fill="none" stroke="midnightblue" d="M103.132,-124.787C90.9404,-112.904 76.7733,-99.0955 66.1356,-88.7271"/>
<polygon fill="midnightblue" stroke="midnightblue" points="68.3841,-86.0312 58.78,-81.5577 63.4982,-91.044 68.3841,-86.0312"/>
</g>
<!-- Node3 -->
<g id="node3" class="node"><title>Node3</title>
<g id="a_node3"><a xlink:href="../../d5/dcc/EPNReceiver_8h.html" target="_top" xlink:title="FLP2EPNex_distributed\l/EPNReceiver.h">
<polygon fill="none" stroke="black" points="179,-57 179,-87 301,-87 301,-57 179,-57"/>
<text text-anchor="start" x="187" y="-75" font-family="Helvetica,sans-Serif" font-size="10.00">FLP2EPNex_distributed</text>
<text text-anchor="middle" x="240" y="-64" font-family="Helvetica,sans-Serif" font-size="10.00">/EPNReceiver.h</text>
</a>
</g>
</g>
<!-- Node1&#45;&gt;Node3 -->
<g id="edge2" class="edge"><title>Node1&#45;&gt;Node3</title>
<path fill="none" stroke="midnightblue" d="M165.346,-124.787C180.32,-114.399 197.416,-102.54 211.466,-92.794"/>
<polygon fill="midnightblue" stroke="midnightblue" points="213.552,-95.6063 219.774,-87.0307 209.562,-89.8547 213.552,-95.6063"/>
</g>
<!-- Node4 -->
<g id="node4" class="node"><title>Node4</title>
<polygon fill="none" stroke="#bfbfbf" points="63.5,-0.5 63.5,-19.5 104.5,-19.5 104.5,-0.5 63.5,-0.5"/>
<text text-anchor="middle" x="84" y="-7.5" font-family="Helvetica,sans-Serif" font-size="10.00">string</text>
</g>
<!-- Node1&#45;&gt;Node4 -->
<g id="edge8" class="edge"><title>Node1&#45;&gt;Node4</title>
<path fill="none" stroke="midnightblue" d="M125.704,-124.686C122.702,-105.429 117.427,-78.4997 109,-56 105.395,-46.3752 99.984,-36.3168 95.117,-28.1566"/>
<polygon fill="midnightblue" stroke="midnightblue" points="98.0444,-26.2362 89.7942,-19.5889 92.0984,-29.9302 98.0444,-26.2362"/>
</g>
<!-- Node3&#45;&gt;Node4 -->
<g id="edge3" class="edge"><title>Node3&#45;&gt;Node4</title>
<path fill="none" stroke="midnightblue" d="M203.425,-56.9327C176.235,-46.475 139.584,-32.3785 114.085,-22.5712"/>
<polygon fill="midnightblue" stroke="midnightblue" points="115.158,-19.2341 104.569,-18.911 112.646,-25.7675 115.158,-19.2341"/>
</g>
<!-- Node5 -->
<g id="node5" class="node"><title>Node5</title>
<polygon fill="none" stroke="#bfbfbf" points="122.5,-0.5 122.5,-19.5 205.5,-19.5 205.5,-0.5 122.5,-0.5"/>
<text text-anchor="middle" x="164" y="-7.5" font-family="Helvetica,sans-Serif" font-size="10.00">unordered_map</text>
</g>
<!-- Node3&#45;&gt;Node5 -->
<g id="edge4" class="edge"><title>Node3&#45;&gt;Node5</title>
<path fill="none" stroke="midnightblue" d="M221.989,-56.7808C210.262,-47.5228 194.985,-35.4618 183.055,-26.0435"/>
<polygon fill="midnightblue" stroke="midnightblue" points="185.076,-23.1799 175.059,-19.7305 180.739,-28.6741 185.076,-23.1799"/>
</g>
<!-- Node6 -->
<g id="node6" class="node"><title>Node6</title>
<polygon fill="none" stroke="#bfbfbf" points="224,-0.5 224,-19.5 302,-19.5 302,-0.5 224,-0.5"/>
<text text-anchor="middle" x="263" y="-7.5" font-family="Helvetica,sans-Serif" font-size="10.00">unordered_set</text>
</g>
<!-- Node3&#45;&gt;Node6 -->
<g id="edge5" class="edge"><title>Node3&#45;&gt;Node6</title>
<path fill="none" stroke="midnightblue" d="M245.451,-56.7808C248.621,-48.5115 252.648,-38.006 256.044,-29.1448"/>
<polygon fill="midnightblue" stroke="midnightblue" points="259.342,-30.3208 259.653,-19.7305 252.806,-27.8152 259.342,-30.3208"/>
</g>
<!-- Node7 -->
<g id="node7" class="node"><title>Node7</title>
<polygon fill="none" stroke="#bfbfbf" points="320,-0.5 320,-19.5 366,-19.5 366,-0.5 320,-0.5"/>
<text text-anchor="middle" x="343" y="-7.5" font-family="Helvetica,sans-Serif" font-size="10.00">chrono</text>
</g>
<!-- Node3&#45;&gt;Node7 -->
<g id="edge6" class="edge"><title>Node3&#45;&gt;Node7</title>
<path fill="none" stroke="midnightblue" d="M264.149,-56.9327C280.75,-47.2619 302.694,-34.4793 319.216,-24.8546"/>
<polygon fill="midnightblue" stroke="midnightblue" points="321.358,-27.6579 328.237,-19.6 317.834,-21.6093 321.358,-27.6579"/>
</g>
<!-- Node8 -->
<g id="node8" class="node"><title>Node8</title>
<polygon fill="none" stroke="#bfbfbf" points="384,-0.5 384,-19.5 472,-19.5 472,-0.5 384,-0.5"/>
<text text-anchor="middle" x="428" y="-7.5" font-family="Helvetica,sans-Serif" font-size="10.00">FairMQDevice.h</text>
</g>
<!-- Node3&#45;&gt;Node8 -->
<g id="edge7" class="edge"><title>Node3&#45;&gt;Node8</title>
<path fill="none" stroke="midnightblue" d="M284.078,-56.9327C316.743,-46.5077 360.738,-32.4667 391.454,-22.6635"/>
<polygon fill="midnightblue" stroke="midnightblue" points="392.864,-25.8875 401.327,-19.5127 390.736,-19.2189 392.864,-25.8875"/>
</g>
</g>
</svg>
