<?xml version="1.0" encoding="UTF-8" standalone="no"?>
<!DOCTYPE svg PUBLIC "-//W3C//DTD SVG 1.1//EN"
 "http://www.w3.org/Graphics/SVG/1.1/DTD/svg11.dtd">
<!-- Generated by graphviz version 2.36.0 (20140111.2315)
 -->
<!-- Title: o2::framework::gui::HistoData&lt; T &gt; Pages: 1 -->
<svg width="156pt" height="194pt"
 viewBox="0.00 0.00 156.00 194.00" xmlns="http://www.w3.org/2000/svg" xmlns:xlink="http://www.w3.org/1999/xlink">
<g id="graph0" class="graph" transform="scale(1 1) rotate(0) translate(4 190)">
<title>o2::framework::gui::HistoData&lt; T &gt;</title>
<!-- Node1 -->
<g id="node1" class="node"><title>Node1</title>
<polygon fill="#bfbfbf" stroke="black" points="26,-1 26,-69 124,-69 124,-1 26,-1"/>
<text text-anchor="start" x="34" y="-57" font-family="Helvetica,sans-Serif" font-size="10.00">o2::framework::gui</text>
<text text-anchor="middle" x="75" y="-46" font-family="Helvetica,sans-Serif" font-size="10.00">::HistoData&lt; T &gt;</text>
<polyline fill="none" stroke="black" points="26,-39 124,-39 "/>
<text text-anchor="middle" x="75" y="-27" font-family="Helvetica,sans-Serif" font-size="10.00"> </text>
<polyline fill="none" stroke="black" points="26,-20 124,-20 "/>
<text text-anchor="middle" x="75" y="-8" font-family="Helvetica,sans-Serif" font-size="10.00"> </text>
</g>
<!-- Node2 -->
<g id="node2" class="node"><title>Node2</title>
<polygon fill="none" stroke="#bfbfbf" points="-0.5,-128.5 -0.5,-185.5 42.5,-185.5 42.5,-128.5 -0.5,-128.5"/>
<text text-anchor="middle" x="21" y="-173.5" font-family="Helvetica,sans-Serif" font-size="10.00">size_t</text>
<polyline fill="none" stroke="#bfbfbf" points="-0.5,-166.5 42.5,-166.5 "/>
<text text-anchor="middle" x="21" y="-154.5" font-family="Helvetica,sans-Serif" font-size="10.00"> </text>
<polyline fill="none" stroke="#bfbfbf" points="-0.5,-147.5 42.5,-147.5 "/>
<text text-anchor="middle" x="21" y="-135.5" font-family="Helvetica,sans-Serif" font-size="10.00"> </text>
</g>
<!-- Node2&#45;&gt;Node1 -->
<g id="edge1" class="edge"><title>Node2&#45;&gt;Node1</title>
<path fill="none" stroke="#404040" d="M29.4539,-128.411C33.6219,-115.868 39.0338,-100.965 45,-88 46.2581,-85.2661 47.614,-82.4874 49.0297,-79.7087"/>
<polygon fill="none" stroke="#404040" points="49.0502,-79.6704 48.3502,-72.4933 54.7059,-69.0868 55.4059,-76.2638 49.0502,-79.6704"/>
<text text-anchor="middle" x="58" y="-102" font-family="Helvetica,sans-Serif" font-size="10.00"> +first</text>
<text text-anchor="middle" x="58" y="-91" font-family="Helvetica,sans-Serif" font-size="10.00">+size</text>
</g>
<!-- Node3 -->
<g id="node3" class="node"><title>Node3</title>
<g id="a_node3"><a xlink:href="../../d1/da0/classint.html" target="_top" xlink:title="{int\n||}">
<polygon fill="none" stroke="black" points="60.5,-128.5 60.5,-185.5 89.5,-185.5 89.5,-128.5 60.5,-128.5"/>
<text text-anchor="middle" x="75" y="-173.5" font-family="Helvetica,sans-Serif" font-size="10.00">int</text>
<polyline fill="none" stroke="black" points="60.5,-166.5 89.5,-166.5 "/>
<text text-anchor="middle" x="75" y="-154.5" font-family="Helvetica,sans-Serif" font-size="10.00"> </text>
<polyline fill="none" stroke="black" points="60.5,-147.5 89.5,-147.5 "/>
<text text-anchor="middle" x="75" y="-135.5" font-family="Helvetica,sans-Serif" font-size="10.00"> </text>
</a>
</g>
</g>
<!-- Node3&#45;&gt;Node1 -->
<g id="edge2" class="edge"><title>Node3&#45;&gt;Node1</title>
<path fill="none" stroke="#404040" d="M75,-128.47C75,-114.601 75,-97.4211 75,-81.647"/>
<polygon fill="none" stroke="#404040" points="75.0001,-81.3881 71,-75.3881 75,-69.3881 79,-75.388 75.0001,-81.3881"/>
<text text-anchor="middle" x="89" y="-96.5" font-family="Helvetica,sans-Serif" font-size="10.00"> +mod</text>
</g>
<!-- Node4 -->
<g id="node4" class="node"><title>Node4</title>
<polygon fill="none" stroke="#bfbfbf" points="111.5,-128.5 111.5,-185.5 140.5,-185.5 140.5,-128.5 111.5,-128.5"/>
<text text-anchor="middle" x="126" y="-173.5" font-family="Helvetica,sans-Serif" font-size="10.00">T</text>
<polyline fill="none" stroke="#bfbfbf" points="111.5,-166.5 140.5,-166.5 "/>
<text text-anchor="middle" x="126" y="-154.5" font-family="Helvetica,sans-Serif" font-size="10.00"> </text>
<polyline fill="none" stroke="#bfbfbf" points="111.5,-147.5 140.5,-147.5 "/>
<text text-anchor="middle" x="126" y="-135.5" font-family="Helvetica,sans-Serif" font-size="10.00"> </text>
</g>
<!-- Node4&#45;&gt;Node1 -->
<g id="edge3" class="edge"><title>Node4&#45;&gt;Node1</title>
<path fill="none" stroke="#404040" d="M118.417,-128.414C114.629,-115.871 109.649,-100.968 104,-88 102.851,-85.3613 101.608,-82.6815 100.307,-80.0007"/>
<polygon fill="none" stroke="#404040" points="100.182,-79.7568 93.8854,-76.2413 94.7089,-69.0773 101.005,-72.5928 100.182,-79.7568"/>
<text text-anchor="middle" x="130" y="-96.5" font-family="Helvetica,sans-Serif" font-size="10.00"> +points</text>
</g>
</g>
</svg>
