<?xml version="1.0" encoding="UTF-8" standalone="no"?>
<!DOCTYPE svg PUBLIC "-//W3C//DTD SVG 1.1//EN"
 "http://www.w3.org/Graphics/SVG/1.1/DTD/svg11.dtd">
<!-- Generated by graphviz version 2.36.0 (20140111.2315)
 -->
<!-- Title: o2::framework::MessageContext::ContextObject Pages: 1 -->
<svg width="343pt" height="260pt"
 viewBox="0.00 0.00 343.00 260.00" xmlns="http://www.w3.org/2000/svg" xmlns:xlink="http://www.w3.org/1999/xlink">
<g id="graph0" class="graph" transform="scale(1 1) rotate(0) translate(4 256)">
<title>o2::framework::MessageContext::ContextObject</title>
<!-- Node1 -->
<g id="node1" class="node"><title>Node1</title>
<polygon fill="#bfbfbf" stroke="black" points="87.5,-150.5 87.5,-251.5 246.5,-251.5 246.5,-150.5 87.5,-150.5"/>
<text text-anchor="start" x="95.5" y="-239.5" font-family="Helvetica,sans-Serif" font-size="10.00">o2::framework::MessageContext</text>
<text text-anchor="middle" x="167" y="-228.5" font-family="Helvetica,sans-Serif" font-size="10.00">::ContextObject</text>
<polyline fill="none" stroke="black" points="87.5,-221.5 246.5,-221.5 "/>
<text text-anchor="start" x="95.5" y="-209.5" font-family="Helvetica,sans-Serif" font-size="10.00">+ parts</text>
<text text-anchor="start" x="95.5" y="-198.5" font-family="Helvetica,sans-Serif" font-size="10.00">+ channel</text>
<polyline fill="none" stroke="black" points="87.5,-191.5 246.5,-191.5 "/>
<text text-anchor="start" x="95.5" y="-179.5" font-family="Helvetica,sans-Serif" font-size="10.00">+ ContextObject()</text>
<text text-anchor="start" x="95.5" y="-168.5" font-family="Helvetica,sans-Serif" font-size="10.00">+ ContextObject()</text>
<text text-anchor="start" x="95.5" y="-157.5" font-family="Helvetica,sans-Serif" font-size="10.00">+ ~ContextObject()</text>
</g>
<!-- Node2 -->
<g id="node2" class="node"><title>Node2</title>
<g id="a_node2"><a xlink:href="../../d7/df1/classo2_1_1framework_1_1MessageContext_1_1SpanObject.html" target="_top" xlink:title="{o2::framework::MessageContext\l::SpanObject\&lt; T \&gt;\n||+ SpanObject()\l+ SpanObject()\l+ ~SpanObject()\l+ operator value_type &amp;()\l+ get()\l}">
<polygon fill="none" stroke="black" points="-0.5,-1 -0.5,-113 158.5,-113 158.5,-1 -0.5,-1"/>
<text text-anchor="start" x="7.5" y="-101" font-family="Helvetica,sans-Serif" font-size="10.00">o2::framework::MessageContext</text>
<text text-anchor="middle" x="79" y="-90" font-family="Helvetica,sans-Serif" font-size="10.00">::SpanObject&lt; T &gt;</text>
<polyline fill="none" stroke="black" points="-0.5,-83 158.5,-83 "/>
<text text-anchor="middle" x="79" y="-71" font-family="Helvetica,sans-Serif" font-size="10.00"> </text>
<polyline fill="none" stroke="black" points="-0.5,-64 158.5,-64 "/>
<text text-anchor="start" x="7.5" y="-52" font-family="Helvetica,sans-Serif" font-size="10.00">+ SpanObject()</text>
<text text-anchor="start" x="7.5" y="-41" font-family="Helvetica,sans-Serif" font-size="10.00">+ SpanObject()</text>
<text text-anchor="start" x="7.5" y="-30" font-family="Helvetica,sans-Serif" font-size="10.00">+ ~SpanObject()</text>
<text text-anchor="start" x="7.5" y="-19" font-family="Helvetica,sans-Serif" font-size="10.00">+ operator value_type &amp;()</text>
<text text-anchor="start" x="7.5" y="-8" font-family="Helvetica,sans-Serif" font-size="10.00">+ get()</text>
</a>
</g>
</g>
<!-- Node1&#45;&gt;Node2 -->
<g id="edge1" class="edge"><title>Node1&#45;&gt;Node2</title>
<path fill="none" stroke="midnightblue" d="M130.915,-141.772C125.065,-132.331 119.021,-122.579 113.216,-113.212"/>
<polygon fill="none" stroke="midnightblue" points="127.979,-143.679 136.222,-150.335 133.929,-139.991 127.979,-143.679"/>
</g>
<!-- Node3 -->
<g id="node3" class="node"><title>Node3</title>
<g id="a_node3"><a xlink:href="../../d3/dfd/classo2_1_1framework_1_1MessageContext_1_1TrivialObject.html" target="_top" xlink:title="TrivialObject handles a message object. ">
<polygon fill="none" stroke="black" points="176.5,-1 176.5,-113 335.5,-113 335.5,-1 176.5,-1"/>
<text text-anchor="start" x="184.5" y="-101" font-family="Helvetica,sans-Serif" font-size="10.00">o2::framework::MessageContext</text>
<text text-anchor="middle" x="256" y="-90" font-family="Helvetica,sans-Serif" font-size="10.00">::TrivialObject</text>
<polyline fill="none" stroke="black" points="176.5,-83 335.5,-83 "/>
<text text-anchor="middle" x="256" y="-71" font-family="Helvetica,sans-Serif" font-size="10.00"> </text>
<polyline fill="none" stroke="black" points="176.5,-64 335.5,-64 "/>
<text text-anchor="start" x="184.5" y="-52" font-family="Helvetica,sans-Serif" font-size="10.00">+ TrivialObject()</text>
<text text-anchor="start" x="184.5" y="-41" font-family="Helvetica,sans-Serif" font-size="10.00">+ TrivialObject()</text>
<text text-anchor="start" x="184.5" y="-30" font-family="Helvetica,sans-Serif" font-size="10.00">+ TrivialObject()</text>
<text text-anchor="start" x="184.5" y="-19" font-family="Helvetica,sans-Serif" font-size="10.00">+ ~TrivialObject()</text>
<text text-anchor="start" x="184.5" y="-8" font-family="Helvetica,sans-Serif" font-size="10.00">+ data()</text>
</a>
</g>
</g>
<!-- Node1&#45;&gt;Node3 -->
<g id="edge2" class="edge"><title>Node1&#45;&gt;Node3</title>
<path fill="none" stroke="midnightblue" d="M203.495,-141.772C209.412,-132.331 215.525,-122.579 221.395,-113.212"/>
<polygon fill="none" stroke="midnightblue" points="200.473,-140.003 198.128,-150.335 206.404,-143.721 200.473,-140.003"/>
</g>
</g>
</svg>
