<?xml version="1.0" encoding="UTF-8" standalone="no"?>
<!DOCTYPE svg PUBLIC "-//W3C//DTD SVG 1.1//EN"
 "http://www.w3.org/Graphics/SVG/1.1/DTD/svg11.dtd">
<!-- Generated by graphviz version 2.36.0 (20140111.2315)
 -->
<!-- Title: o2::ITSMFT::PreDigit Pages: 1 -->
<!--zoomable 670 -->
<svg id="main" version="1.1" xmlns="http://www.w3.org/2000/svg" xmlns:xlink="http://www.w3.org/1999/xlink" xml:space="preserve" onload="init(evt)">
<style type="text/css"><![CDATA[
.edge:hover path { stroke: red; }
.edge:hover polygon { stroke: red; fill: red; }
]]></style>
<script type="text/javascript"><![CDATA[
var edges = document.getElementsByTagName('g');
if (edges && edges.length) {
  for (var i=0;i<edges.length;i++) {
    if (edges[i].id.substr(0,4)=='edge') {
      edges[i].setAttribute('class','edge');
    }
  }
}
]]></script>
        <defs>
                <circle id="rim" cx="0" cy="0" r="7"/>
                <circle id="rim2" cx="0" cy="0" r="3.5"/>
                <g id="zoomPlus">
                        <use xlink:href="#rim" fill="#404040">
                                <set attributeName="fill" to="#808080" begin="zoomplus.mouseover" end="zoomplus.mouseout"/>
                        </use>
                        <path d="M-4,0h8M0,-4v8" fill="none" stroke="white" stroke-width="1.5" pointer-events="none"/>
                </g>
                <g id="zoomMin">
                        <use xlink:href="#rim" fill="#404040">
                                <set attributeName="fill" to="#808080" begin="zoomminus.mouseover" end="zoomminus.mouseout"/>
                        </use>
                        <path d="M-4,0h8" fill="none" stroke="white" stroke-width="1.5" pointer-events="none"/>
                </g>
                <g id="dirArrow">
                        <path fill="none" stroke="white" stroke-width="1.5" d="M0,-3.0v7 M-2.5,-0.5L0,-3.0L2.5,-0.5"/>
                </g>
               <g id="resetDef">
                       <use xlink:href="#rim2" fill="#404040">
                               <set attributeName="fill" to="#808080" begin="reset.mouseover" end="reset.mouseout"/>
                       </use>
               </g>
        </defs>

<script type="text/javascript">
var viewWidth = 345;
var viewHeight = 670;
var sectionId = 'dynsection-0';
</script>
<script xlink:href="../../svgpan.js"/>
<svg id="graph" class="graph">
<g id="viewport">
<title>o2::ITSMFT::PreDigit</title>
<!-- Node1 -->
<g id="node1" class="node"><title>Node1</title>
<polygon fill="#bfbfbf" stroke="black" points="157.571,-1 157.571,-69 267.571,-69 267.571,-1 157.571,-1"/>
<text text-anchor="middle" x="212.571" y="-57" font-family="Helvetica,sans-Serif" font-size="10.00">o2::ITSMFT::PreDigit</text>
<polyline fill="none" stroke="black" points="157.571,-50 267.571,-50 "/>
<text text-anchor="middle" x="212.571" y="-38" font-family="Helvetica,sans-Serif" font-size="10.00"> </text>
<polyline fill="none" stroke="black" points="157.571,-31 267.571,-31 "/>
<text text-anchor="start" x="165.571" y="-19" font-family="Helvetica,sans-Serif" font-size="10.00">+ PreDigit()</text>
<text text-anchor="start" x="165.571" y="-8" font-family="Helvetica,sans-Serif" font-size="10.00">+ ClassDefNV()</text>
</g>
<!-- Node2 -->
<g id="node2" class="node"><title>Node2</title>
<g id="a_node2"><a xlink:href="../../d1/d67/structo2_1_1ITSMFT_1_1PreDigitLabelRef.html" target="_top" xlink:title="{o2::ITSMFT::PreDigitLabelRef\n||+ PreDigitLabelRef()\l+ ClassDefNV()\l}">
<polygon fill="none" stroke="black" points="53.0713,-129 53.0713,-197 202.071,-197 202.071,-129 53.0713,-129"/>
<text text-anchor="middle" x="127.571" y="-185" font-family="Helvetica,sans-Serif" font-size="10.00">o2::ITSMFT::PreDigitLabelRef</text>
<polyline fill="none" stroke="black" points="53.0713,-178 202.071,-178 "/>
<text text-anchor="middle" x="127.571" y="-166" font-family="Helvetica,sans-Serif" font-size="10.00"> </text>
<polyline fill="none" stroke="black" points="53.0713,-159 202.071,-159 "/>
<text text-anchor="start" x="61.0713" y="-147" font-family="Helvetica,sans-Serif" font-size="10.00">+ PreDigitLabelRef()</text>
<text text-anchor="start" x="61.0713" y="-136" font-family="Helvetica,sans-Serif" font-size="10.00">+ ClassDefNV()</text>
</a>
</g>
</g>
<!-- Node2&#45;&gt;Node1 -->
<g id="edge1" class="edge"><title>Node2&#45;&gt;Node1</title>
<path fill="none" stroke="#404040" d="M149.904,-128.895C160.072,-113.822 172.245,-95.7779 183.146,-79.6182"/>
<polygon fill="none" stroke="#404040" points="183.382,-79.2694 183.421,-72.0584 190.093,-69.3214 190.053,-76.5324 183.382,-79.2694"/>
<text text-anchor="middle" x="198.571" y="-96.5" font-family="Helvetica,sans-Serif" font-size="10.00"> +labelRef</text>
</g>
<!-- Node3 -->
<g id="node3" class="node"><title>Node3</title>
<g id="a_node3"><a xlink:href="../../d1/da0/classint.html" target="_top" xlink:title="{int\n||}">
<polygon fill="none" stroke="black" points="65.0713,-604.5 65.0713,-661.5 94.0713,-661.5 94.0713,-604.5 65.0713,-604.5"/>
<text text-anchor="middle" x="79.5713" y="-649.5" font-family="Helvetica,sans-Serif" font-size="10.00">int</text>
<polyline fill="none" stroke="black" points="65.0713,-642.5 94.0713,-642.5 "/>
<text text-anchor="middle" x="79.5713" y="-630.5" font-family="Helvetica,sans-Serif" font-size="10.00"> </text>
<polyline fill="none" stroke="black" points="65.0713,-623.5 94.0713,-623.5 "/>
<text text-anchor="middle" x="79.5713" y="-611.5" font-family="Helvetica,sans-Serif" font-size="10.00"> </text>
</a>
</g>
</g>
<!-- Node3&#45;&gt;Node1 -->
<g id="edge6" class="edge"><title>Node3&#45;&gt;Node1</title>
<path fill="none" stroke="#404040" d="M67.387,-604.369C33.9781,-524.062 -50.5312,-286.37 43.5713,-128 65.6675,-90.8132 108.648,-67.7077 145.733,-53.9526"/>
<polygon fill="none" stroke="#404040" points="146.21,-53.7851 150.546,-48.0231 157.532,-49.8093 153.196,-55.5713 146.21,-53.7851"/>
<text text-anchor="middle" x="29.0713" y="-219.5" font-family="Helvetica,sans-Serif" font-size="10.00"> +charge</text>
</g>
<!-- Node3&#45;&gt;Node2 -->
<g id="edge2" class="edge"><title>Node3&#45;&gt;Node2</title>
<path fill="none" stroke="#404040" d="M76.3198,-604.355C69.6202,-540.278 57.3791,-377.074 88.5713,-246 91.6136,-233.216 96.8098,-220.063 102.435,-208.137"/>
<polygon fill="none" stroke="#404040" points="102.563,-207.878 101.651,-200.724 107.902,-197.131 108.815,-204.284 102.563,-207.878"/>
<text text-anchor="middle" x="102.571" y="-382.5" font-family="Helvetica,sans-Serif" font-size="10.00"> +next</text>
</g>
<!-- Node4 -->
<g id="node4" class="node"><title>Node4</title>
<g id="a_node4"><a xlink:href="../../de/def/classo2_1_1MCCompLabel.html" target="_top" xlink:title="{o2::MCCompLabel\n||+ MCCompLabel()\l+ MCCompLabel()\l+ ~MCCompLabel()\l+ isSet()\l+ isEmpty()\l+ isPosTrackID()\l+ compare()\l+ operator ULong64_t()\l+ getRawValue()\l+ operator==()\l+ unset()\l+ set()\l+ getTrackID()\l+ getEventID()\l+ getSourceID()\l+ get()\l+ print()\l+ ClassDefNV()\l+ maxSourceID()\l+ maxEventID()\l+ maxTrackID()\l}">
<polygon fill="none" stroke="black" points="126.071,-246.5 126.071,-523.5 243.071,-523.5 243.071,-246.5 126.071,-246.5"/>
<text text-anchor="middle" x="184.571" y="-511.5" font-family="Helvetica,sans-Serif" font-size="10.00">o2::MCCompLabel</text>
<polyline fill="none" stroke="black" points="126.071,-504.5 243.071,-504.5 "/>
<text text-anchor="middle" x="184.571" y="-492.5" font-family="Helvetica,sans-Serif" font-size="10.00"> </text>
<polyline fill="none" stroke="black" points="126.071,-485.5 243.071,-485.5 "/>
<text text-anchor="start" x="134.071" y="-473.5" font-family="Helvetica,sans-Serif" font-size="10.00">+ MCCompLabel()</text>
<text text-anchor="start" x="134.071" y="-462.5" font-family="Helvetica,sans-Serif" font-size="10.00">+ MCCompLabel()</text>
<text text-anchor="start" x="134.071" y="-451.5" font-family="Helvetica,sans-Serif" font-size="10.00">+ ~MCCompLabel()</text>
<text text-anchor="start" x="134.071" y="-440.5" font-family="Helvetica,sans-Serif" font-size="10.00">+ isSet()</text>
<text text-anchor="start" x="134.071" y="-429.5" font-family="Helvetica,sans-Serif" font-size="10.00">+ isEmpty()</text>
<text text-anchor="start" x="134.071" y="-418.5" font-family="Helvetica,sans-Serif" font-size="10.00">+ isPosTrackID()</text>
<text text-anchor="start" x="134.071" y="-407.5" font-family="Helvetica,sans-Serif" font-size="10.00">+ compare()</text>
<text text-anchor="start" x="134.071" y="-396.5" font-family="Helvetica,sans-Serif" font-size="10.00">+ operator ULong64_t()</text>
<text text-anchor="start" x="134.071" y="-385.5" font-family="Helvetica,sans-Serif" font-size="10.00">+ getRawValue()</text>
<text text-anchor="start" x="134.071" y="-374.5" font-family="Helvetica,sans-Serif" font-size="10.00">+ operator==()</text>
<text text-anchor="start" x="134.071" y="-363.5" font-family="Helvetica,sans-Serif" font-size="10.00">+ unset()</text>
<text text-anchor="start" x="134.071" y="-352.5" font-family="Helvetica,sans-Serif" font-size="10.00">+ set()</text>
<text text-anchor="start" x="134.071" y="-341.5" font-family="Helvetica,sans-Serif" font-size="10.00">+ getTrackID()</text>
<text text-anchor="start" x="134.071" y="-330.5" font-family="Helvetica,sans-Serif" font-size="10.00">+ getEventID()</text>
<text text-anchor="start" x="134.071" y="-319.5" font-family="Helvetica,sans-Serif" font-size="10.00">+ getSourceID()</text>
<text text-anchor="start" x="134.071" y="-308.5" font-family="Helvetica,sans-Serif" font-size="10.00">+ get()</text>
<text text-anchor="start" x="134.071" y="-297.5" font-family="Helvetica,sans-Serif" font-size="10.00">+ print()</text>
<text text-anchor="start" x="134.071" y="-286.5" font-family="Helvetica,sans-Serif" font-size="10.00">+ ClassDefNV()</text>
<text text-anchor="start" x="134.071" y="-275.5" font-family="Helvetica,sans-Serif" font-size="10.00">+ maxSourceID()</text>
<text text-anchor="start" x="134.071" y="-264.5" font-family="Helvetica,sans-Serif" font-size="10.00">+ maxEventID()</text>
<text text-anchor="start" x="134.071" y="-253.5" font-family="Helvetica,sans-Serif" font-size="10.00">+ maxTrackID()</text>
</a>
</g>
</g>
<!-- Node3&#45;&gt;Node4 -->
<g id="edge5" class="edge"><title>Node3&#45;&gt;Node4</title>
<path fill="none" stroke="#404040" d="M91.4121,-604.259C99.1192,-586.202 109.839,-561.088 121.272,-534.301"/>
<polygon fill="none" stroke="#404040" points="121.322,-534.184 119.998,-527.096 126.033,-523.148 127.356,-530.236 121.322,-534.184"/>
<text text-anchor="middle" x="148.071" y="-572.5" font-family="Helvetica,sans-Serif" font-size="10.00"> +nbitsSrcID</text>
<text text-anchor="middle" x="148.071" y="-561.5" font-family="Helvetica,sans-Serif" font-size="10.00">+nbitsTrackID</text>
<text text-anchor="middle" x="148.071" y="-550.5" font-family="Helvetica,sans-Serif" font-size="10.00">+nbitsEvID</text>
</g>
<!-- Node4&#45;&gt;Node2 -->
<g id="edge3" class="edge"><title>Node4&#45;&gt;Node2</title>
<path fill="none" stroke="#404040" d="M148.877,-246.233C145.417,-232.878 142.108,-220.108 139.174,-208.782"/>
<polygon fill="none" stroke="#404040" points="139.157,-208.715 133.78,-203.91 136.147,-197.099 141.524,-201.904 139.157,-208.715"/>
<text text-anchor="middle" x="158.571" y="-219.5" font-family="Helvetica,sans-Serif" font-size="10.00"> +label</text>
</g>
<!-- Node5 -->
<g id="node5" class="node"><title>Node5</title>
<polygon fill="none" stroke="#bfbfbf" points="166.571,-604.5 166.571,-661.5 230.571,-661.5 230.571,-604.5 166.571,-604.5"/>
<text text-anchor="middle" x="198.571" y="-649.5" font-family="Helvetica,sans-Serif" font-size="10.00">ULong64_t</text>
<polyline fill="none" stroke="#bfbfbf" points="166.571,-642.5 230.571,-642.5 "/>
<text text-anchor="middle" x="198.571" y="-630.5" font-family="Helvetica,sans-Serif" font-size="10.00"> </text>
<polyline fill="none" stroke="#bfbfbf" points="166.571,-623.5 230.571,-623.5 "/>
<text text-anchor="middle" x="198.571" y="-611.5" font-family="Helvetica,sans-Serif" font-size="10.00"> </text>
</g>
<!-- Node5&#45;&gt;Node4 -->
<g id="edge4" class="edge"><title>Node5&#45;&gt;Node4</title>
<path fill="none" stroke="#404040" d="M196.993,-604.259C195.985,-586.552 194.591,-562.058 193.1,-535.855"/>
<polygon fill="none" stroke="#404040" points="193.091,-535.695 188.756,-529.932 192.409,-523.714 196.743,-529.477 193.091,-535.695"/>
<text text-anchor="middle" x="229.571" y="-578" font-family="Helvetica,sans-Serif" font-size="10.00"> +maskFull</text>
<text text-anchor="middle" x="229.571" y="-567" font-family="Helvetica,sans-Serif" font-size="10.00">+maskSrcID</text>
<text text-anchor="middle" x="229.571" y="-556" font-family="Helvetica,sans-Serif" font-size="10.00">+maskEvID</text>
<text text-anchor="middle" x="229.571" y="-545" font-family="Helvetica,sans-Serif" font-size="10.00">+maskTrackID</text>
</g>
<!-- Node6 -->
<g id="node6" class="node"><title>Node6</title>
<polygon fill="none" stroke="#bfbfbf" points="219.571,-134.5 219.571,-191.5 275.571,-191.5 275.571,-134.5 219.571,-134.5"/>
<text text-anchor="middle" x="247.571" y="-179.5" font-family="Helvetica,sans-Serif" font-size="10.00">UShort_t</text>
<polyline fill="none" stroke="#bfbfbf" points="219.571,-172.5 275.571,-172.5 "/>
<text text-anchor="middle" x="247.571" y="-160.5" font-family="Helvetica,sans-Serif" font-size="10.00"> </text>
<polyline fill="none" stroke="#bfbfbf" points="219.571,-153.5 275.571,-153.5 "/>
<text text-anchor="middle" x="247.571" y="-141.5" font-family="Helvetica,sans-Serif" font-size="10.00"> </text>
</g>
<!-- Node6&#45;&gt;Node1 -->
<g id="edge7" class="edge"><title>Node6&#45;&gt;Node1</title>
<path fill="none" stroke="#404040" d="M239.89,-134.349C235.553,-118.735 230.027,-98.839 225.08,-81.0325"/>
<polygon fill="none" stroke="#404040" points="225.063,-80.9713 219.603,-76.2608 221.852,-69.4091 227.312,-74.1196 225.063,-80.9713"/>
<text text-anchor="middle" x="243.571" y="-102" font-family="Helvetica,sans-Serif" font-size="10.00"> +col</text>
<text text-anchor="middle" x="243.571" y="-91" font-family="Helvetica,sans-Serif" font-size="10.00">+row</text>
</g>
<!-- Node7 -->
<g id="node7" class="node"><title>Node7</title>
<polygon fill="none" stroke="#bfbfbf" points="293.571,-134.5 293.571,-191.5 337.571,-191.5 337.571,-134.5 293.571,-134.5"/>
<text text-anchor="middle" x="315.571" y="-179.5" font-family="Helvetica,sans-Serif" font-size="10.00">UInt_t</text>
<polyline fill="none" stroke="#bfbfbf" points="293.571,-172.5 337.571,-172.5 "/>
<text text-anchor="middle" x="315.571" y="-160.5" font-family="Helvetica,sans-Serif" font-size="10.00"> </text>
<polyline fill="none" stroke="#bfbfbf" points="293.571,-153.5 337.571,-153.5 "/>
<text text-anchor="middle" x="315.571" y="-141.5" font-family="Helvetica,sans-Serif" font-size="10.00"> </text>
</g>
<!-- Node7&#45;&gt;Node1 -->
<g id="edge8" class="edge"><title>Node7&#45;&gt;Node1</title>
<path fill="none" stroke="#404040" d="M294.895,-134.24C284.262,-120.202 270.963,-103.005 258.571,-88 255.959,-84.8373 253.229,-81.5965 250.458,-78.3543"/>
<polygon fill="none" stroke="#404040" points="250.456,-78.352 243.505,-76.4316 242.604,-69.277 249.555,-71.1973 250.456,-78.352"/>
<text text-anchor="middle" x="298.571" y="-96.5" font-family="Helvetica,sans-Serif" font-size="10.00"> +roFrame</text>
</g>
</g>
</svg>
        <g id="navigator" transform="translate(0 0)" fill="#404254">
                <rect fill="#f2f5e9" fill-opacity="0.5" stroke="#606060" stroke-width=".5" x="0" y="0" width="60" height="60"/>
                <use id="zoomplus" xlink:href="#zoomPlus" x="17" y="9" onmousedown="handleZoom(evt,'in')"/>
                <use id="zoomminus" xlink:href="#zoomMin" x="42" y="9" onmousedown="handleZoom(evt,'out')"/>
                <use id="reset" xlink:href="#resetDef" x="30" y="36" onmousedown="handleReset()"/>
                <g id="arrowUp" xlink:href="#dirArrow" transform="translate(30 24)" onmousedown="handlePan(0,-1)">
                  <use xlink:href="#rim" fill="#404040">
                        <set attributeName="fill" to="#808080" begin="arrowUp.mouseover" end="arrowUp.mouseout"/>
                  </use>
                  <path fill="none" stroke="white" stroke-width="1.5" d="M0,-3.0v7 M-2.5,-0.5L0,-3.0L2.5,-0.5"/>
                </g>
                <g id="arrowRight" xlink:href="#dirArrow" transform="rotate(90) translate(36 -43)" onmousedown="handlePan(1,0)">
                  <use xlink:href="#rim" fill="#404040">
                        <set attributeName="fill" to="#808080" begin="arrowRight.mouseover" end="arrowRight.mouseout"/>
                  </use>
                  <path fill="none" stroke="white" stroke-width="1.5" d="M0,-3.0v7 M-2.5,-0.5L0,-3.0L2.5,-0.5"/>
                </g>
                <g id="arrowDown" xlink:href="#dirArrow" transform="rotate(180) translate(-30 -48)" onmousedown="handlePan(0,1)">
                  <use xlink:href="#rim" fill="#404040">
                        <set attributeName="fill" to="#808080" begin="arrowDown.mouseover" end="arrowDown.mouseout"/>
                  </use>
                  <path fill="none" stroke="white" stroke-width="1.5" d="M0,-3.0v7 M-2.5,-0.5L0,-3.0L2.5,-0.5"/>
                </g>
                <g id="arrowLeft" xlink:href="#dirArrow" transform="rotate(270) translate(-36 17)" onmousedown="handlePan(-1,0)">
                  <use xlink:href="#rim" fill="#404040">
                        <set attributeName="fill" to="#808080" begin="arrowLeft.mouseover" end="arrowLeft.mouseout"/>
                  </use>
                  <path fill="none" stroke="white" stroke-width="1.5" d="M0,-3.0v7 M-2.5,-0.5L0,-3.0L2.5,-0.5"/>
                </g>
        </g>
        <svg viewBox="0 0 15 15" width="100%" height="30px" preserveAspectRatio="xMaxYMin meet">
         <g id="arrow_out" transform="scale(0.3 0.3)">
          <a xlink:href="structo2_1_1ITSMFT_1_1PreDigit__coll__graph_org.svg" target="_base">
           <rect id="button" ry="5" rx="5" y="6" x="6" height="38" width="38"
                fill="#f2f5e9" fill-opacity="0.5" stroke="#606060" stroke-width="1.0"/>
           <path id="arrow"
             d="M 11.500037,31.436501 C 11.940474,20.09759 22.043105,11.32322 32.158766,21.979434 L 37.068811,17.246167 C 37.068811,17.246167 37.088388,32 37.088388,32 L 22.160133,31.978069 C 22.160133,31.978069 26.997745,27.140456 26.997745,27.140456 C 18.528582,18.264221 13.291696,25.230495 11.500037,31.436501 z"
             style="fill:#404040;"/>
          </a>
         </g>
        </svg>
</svg>
