<?xml version="1.0" encoding="UTF-8" standalone="no"?>
<!DOCTYPE svg PUBLIC "-//W3C//DTD SVG 1.1//EN"
 "http://www.w3.org/Graphics/SVG/1.1/DTD/svg11.dtd">
<!-- Generated by graphviz version 2.36.0 (20140111.2315)
 -->
<!-- Title: /home/travis/build/AliceO2Group/AliceO2/Framework/Core/include/Framework/ParallelContext.h Pages: 1 -->
<svg width="2109pt" height="152pt"
 viewBox="0.00 0.00 2109.00 152.00" xmlns="http://www.w3.org/2000/svg" xmlns:xlink="http://www.w3.org/1999/xlink">
<g id="graph0" class="graph" transform="scale(1 1) rotate(0) translate(4 148)">
<title>/home/travis/build/AliceO2Group/AliceO2/Framework/Core/include/Framework/ParallelContext.h</title>
<!-- Node1 -->
<g id="node1" class="node"><title>Node1</title>
<polygon fill="#bfbfbf" stroke="black" points="970,-91 970,-143 1116,-143 1116,-91 970,-91"/>
<text text-anchor="start" x="978" y="-131" font-family="Helvetica,sans-Serif" font-size="10.00">/home/travis/build</text>
<text text-anchor="start" x="978" y="-120" font-family="Helvetica,sans-Serif" font-size="10.00">/AliceO2Group/AliceO2</text>
<text text-anchor="start" x="978" y="-109" font-family="Helvetica,sans-Serif" font-size="10.00">/Framework/Core/include</text>
<text text-anchor="middle" x="1043" y="-98" font-family="Helvetica,sans-Serif" font-size="10.00">/Framework/ParallelContext.h</text>
</g>
<!-- Node2 -->
<g id="node2" class="node"><title>Node2</title>
<g id="a_node2"><a xlink:href="../../d7/d54/runDataProcessing_8cxx.html" target="_top" xlink:title="/home/travis/build\l/AliceO2Group/AliceO2\l/Framework/Core/src/runDataProcessing.cxx">
<polygon fill="none" stroke="black" points="0,-6.5 0,-47.5 214,-47.5 214,-6.5 0,-6.5"/>
<text text-anchor="start" x="8" y="-35.5" font-family="Helvetica,sans-Serif" font-size="10.00">/home/travis/build</text>
<text text-anchor="start" x="8" y="-24.5" font-family="Helvetica,sans-Serif" font-size="10.00">/AliceO2Group/AliceO2</text>
<text text-anchor="middle" x="107" y="-13.5" font-family="Helvetica,sans-Serif" font-size="10.00">/Framework/Core/src/runDataProcessing.cxx</text>
</a>
</g>
</g>
<!-- Node1&#45;&gt;Node2 -->
<g id="edge1" class="edge"><title>Node1&#45;&gt;Node2</title>
<path fill="none" stroke="midnightblue" d="M959.522,-113.684C810.765,-108.67 490.349,-93.8536 223,-54 211.365,-52.2655 199.16,-50.0144 187.216,-47.5628"/>
<polygon fill="midnightblue" stroke="midnightblue" points="959.822,-117.196 969.932,-114.028 960.054,-110.2 959.822,-117.196"/>
</g>
<!-- Node3 -->
<g id="node3" class="node"><title>Node3</title>
<g id="a_node3"><a xlink:href="../../db/d30/test__CallbackService_8cxx.html" target="_top" xlink:title="/home/travis/build\l/AliceO2Group/AliceO2\l/Framework/Core/test/test\l_CallbackService.cxx">
<polygon fill="none" stroke="black" points="232.5,-1 232.5,-53 363.5,-53 363.5,-1 232.5,-1"/>
<text text-anchor="start" x="240.5" y="-41" font-family="Helvetica,sans-Serif" font-size="10.00">/home/travis/build</text>
<text text-anchor="start" x="240.5" y="-30" font-family="Helvetica,sans-Serif" font-size="10.00">/AliceO2Group/AliceO2</text>
<text text-anchor="start" x="240.5" y="-19" font-family="Helvetica,sans-Serif" font-size="10.00">/Framework/Core/test/test</text>
<text text-anchor="middle" x="298" y="-8" font-family="Helvetica,sans-Serif" font-size="10.00">_CallbackService.cxx</text>
</a>
</g>
</g>
<!-- Node1&#45;&gt;Node3 -->
<g id="edge2" class="edge"><title>Node1&#45;&gt;Node3</title>
<path fill="none" stroke="midnightblue" d="M959.503,-114.845C831.597,-111.609 580.097,-99.445 372,-54 369.206,-53.3899 366.373,-52.7049 363.525,-51.9615"/>
<polygon fill="midnightblue" stroke="midnightblue" points="959.538,-118.346 969.62,-115.088 959.707,-111.348 959.538,-118.346"/>
</g>
<!-- Node4 -->
<g id="node4" class="node"><title>Node4</title>
<g id="a_node4"><a xlink:href="../../d5/d47/test__CustomGUIGL_8cxx.html" target="_top" xlink:title="/home/travis/build\l/AliceO2Group/AliceO2\l/Framework/Core/test/test\l_CustomGUIGL.cxx">
<polygon fill="none" stroke="black" points="381.5,-1 381.5,-53 512.5,-53 512.5,-1 381.5,-1"/>
<text text-anchor="start" x="389.5" y="-41" font-family="Helvetica,sans-Serif" font-size="10.00">/home/travis/build</text>
<text text-anchor="start" x="389.5" y="-30" font-family="Helvetica,sans-Serif" font-size="10.00">/AliceO2Group/AliceO2</text>
<text text-anchor="start" x="389.5" y="-19" font-family="Helvetica,sans-Serif" font-size="10.00">/Framework/Core/test/test</text>
<text text-anchor="middle" x="447" y="-8" font-family="Helvetica,sans-Serif" font-size="10.00">_CustomGUIGL.cxx</text>
</a>
</g>
</g>
<!-- Node1&#45;&gt;Node4 -->
<g id="edge3" class="edge"><title>Node1&#45;&gt;Node4</title>
<path fill="none" stroke="midnightblue" d="M959.828,-111.764C856,-105.192 673.496,-89.3922 521,-54 518.214,-53.3535 515.388,-52.6381 512.546,-51.8695"/>
<polygon fill="midnightblue" stroke="midnightblue" points="959.738,-115.265 969.935,-112.391 960.171,-108.279 959.738,-115.265"/>
</g>
<!-- Node5 -->
<g id="node5" class="node"><title>Node5</title>
<g id="a_node5"><a xlink:href="../../d6/dd1/test__CustomGUISokol_8cxx.html" target="_top" xlink:title="/home/travis/build\l/AliceO2Group/AliceO2\l/Framework/Core/test/test\l_CustomGUISokol.cxx">
<polygon fill="none" stroke="black" points="530.5,-1 530.5,-53 661.5,-53 661.5,-1 530.5,-1"/>
<text text-anchor="start" x="538.5" y="-41" font-family="Helvetica,sans-Serif" font-size="10.00">/home/travis/build</text>
<text text-anchor="start" x="538.5" y="-30" font-family="Helvetica,sans-Serif" font-size="10.00">/AliceO2Group/AliceO2</text>
<text text-anchor="start" x="538.5" y="-19" font-family="Helvetica,sans-Serif" font-size="10.00">/Framework/Core/test/test</text>
<text text-anchor="middle" x="596" y="-8" font-family="Helvetica,sans-Serif" font-size="10.00">_CustomGUISokol.cxx</text>
</a>
</g>
</g>
<!-- Node1&#45;&gt;Node5 -->
<g id="edge4" class="edge"><title>Node1&#45;&gt;Node5</title>
<path fill="none" stroke="midnightblue" d="M959.653,-106.349C883.49,-96.5405 768.123,-79.1904 670,-54 667.23,-53.2889 664.417,-52.5196 661.586,-51.7063"/>
<polygon fill="midnightblue" stroke="midnightblue" points="959.308,-109.833 969.67,-107.624 960.192,-102.889 959.308,-109.833"/>
</g>
<!-- Node6 -->
<g id="node6" class="node"><title>Node6</title>
<g id="a_node6"><a xlink:href="../../d3/d66/test__Parallel_8cxx.html" target="_top" xlink:title="/home/travis/build\l/AliceO2Group/AliceO2\l/Framework/Core/test/test\l_Parallel.cxx">
<polygon fill="none" stroke="black" points="679.5,-1 679.5,-53 810.5,-53 810.5,-1 679.5,-1"/>
<text text-anchor="start" x="687.5" y="-41" font-family="Helvetica,sans-Serif" font-size="10.00">/home/travis/build</text>
<text text-anchor="start" x="687.5" y="-30" font-family="Helvetica,sans-Serif" font-size="10.00">/AliceO2Group/AliceO2</text>
<text text-anchor="start" x="687.5" y="-19" font-family="Helvetica,sans-Serif" font-size="10.00">/Framework/Core/test/test</text>
<text text-anchor="middle" x="745" y="-8" font-family="Helvetica,sans-Serif" font-size="10.00">_Parallel.cxx</text>
</a>
</g>
</g>
<!-- Node1&#45;&gt;Node6 -->
<g id="edge5" class="edge"><title>Node1&#45;&gt;Node6</title>
<path fill="none" stroke="midnightblue" d="M960.272,-94.5393C917.834,-83.1676 865.435,-68.5653 819,-54 816.271,-53.1441 813.493,-52.2537 810.69,-51.3402"/>
<polygon fill="midnightblue" stroke="midnightblue" points="959.435,-97.9385 970,-97.1363 961.241,-91.1754 959.435,-97.9385"/>
</g>
<!-- Node7 -->
<g id="node7" class="node"><title>Node7</title>
<g id="a_node7"><a xlink:href="../../d8/d7e/test__ParallelPipeline_8cxx.html" target="_top" xlink:title="/home/travis/build\l/AliceO2Group/AliceO2\l/Framework/Core/test/test\l_ParallelPipeline.cxx">
<polygon fill="none" stroke="black" points="828.5,-1 828.5,-53 959.5,-53 959.5,-1 828.5,-1"/>
<text text-anchor="start" x="836.5" y="-41" font-family="Helvetica,sans-Serif" font-size="10.00">/home/travis/build</text>
<text text-anchor="start" x="836.5" y="-30" font-family="Helvetica,sans-Serif" font-size="10.00">/AliceO2Group/AliceO2</text>
<text text-anchor="start" x="836.5" y="-19" font-family="Helvetica,sans-Serif" font-size="10.00">/Framework/Core/test/test</text>
<text text-anchor="middle" x="894" y="-8" font-family="Helvetica,sans-Serif" font-size="10.00">_ParallelPipeline.cxx</text>
</a>
</g>
</g>
<!-- Node1&#45;&gt;Node7 -->
<g id="edge6" class="edge"><title>Node1&#45;&gt;Node7</title>
<path fill="none" stroke="midnightblue" d="M991.647,-85.6704C973.643,-75.0376 953.638,-63.2222 936.446,-53.0687"/>
<polygon fill="midnightblue" stroke="midnightblue" points="989.912,-88.711 1000.3,-90.7827 993.472,-82.6837 989.912,-88.711"/>
</g>
<!-- Node8 -->
<g id="node8" class="node"><title>Node8</title>
<g id="a_node8"><a xlink:href="../../d0/d0b/test__ParallelProducer_8cxx.html" target="_top" xlink:title="/home/travis/build\l/AliceO2Group/AliceO2\l/Framework/Core/test/test\l_ParallelProducer.cxx">
<polygon fill="none" stroke="black" points="977.5,-1 977.5,-53 1108.5,-53 1108.5,-1 977.5,-1"/>
<text text-anchor="start" x="985.5" y="-41" font-family="Helvetica,sans-Serif" font-size="10.00">/home/travis/build</text>
<text text-anchor="start" x="985.5" y="-30" font-family="Helvetica,sans-Serif" font-size="10.00">/AliceO2Group/AliceO2</text>
<text text-anchor="start" x="985.5" y="-19" font-family="Helvetica,sans-Serif" font-size="10.00">/Framework/Core/test/test</text>
<text text-anchor="middle" x="1043" y="-8" font-family="Helvetica,sans-Serif" font-size="10.00">_ParallelProducer.cxx</text>
</a>
</g>
</g>
<!-- Node1&#45;&gt;Node8 -->
<g id="edge7" class="edge"><title>Node1&#45;&gt;Node8</title>
<path fill="none" stroke="midnightblue" d="M1043,-80.4892C1043,-71.3088 1043,-61.616 1043,-53.0921"/>
<polygon fill="midnightblue" stroke="midnightblue" points="1039.5,-80.5467 1043,-90.5468 1046.5,-80.5468 1039.5,-80.5467"/>
</g>
<!-- Node9 -->
<g id="node9" class="node"><title>Node9</title>
<g id="a_node9"><a xlink:href="../../d1/d4f/test__TimePipeline_8cxx.html" target="_top" xlink:title="/home/travis/build\l/AliceO2Group/AliceO2\l/Framework/Core/test/test\l_TimePipeline.cxx">
<polygon fill="none" stroke="black" points="1126.5,-1 1126.5,-53 1257.5,-53 1257.5,-1 1126.5,-1"/>
<text text-anchor="start" x="1134.5" y="-41" font-family="Helvetica,sans-Serif" font-size="10.00">/home/travis/build</text>
<text text-anchor="start" x="1134.5" y="-30" font-family="Helvetica,sans-Serif" font-size="10.00">/AliceO2Group/AliceO2</text>
<text text-anchor="start" x="1134.5" y="-19" font-family="Helvetica,sans-Serif" font-size="10.00">/Framework/Core/test/test</text>
<text text-anchor="middle" x="1192" y="-8" font-family="Helvetica,sans-Serif" font-size="10.00">_TimePipeline.cxx</text>
</a>
</g>
</g>
<!-- Node1&#45;&gt;Node9 -->
<g id="edge8" class="edge"><title>Node1&#45;&gt;Node9</title>
<path fill="none" stroke="midnightblue" d="M1094.35,-85.6704C1112.36,-75.0376 1132.36,-63.2222 1149.55,-53.0687"/>
<polygon fill="midnightblue" stroke="midnightblue" points="1092.53,-82.6837 1085.7,-90.7827 1096.09,-88.711 1092.53,-82.6837"/>
</g>
<!-- Node10 -->
<g id="node10" class="node"><title>Node10</title>
<g id="a_node10"><a xlink:href="../../d3/dbe/dataSamplingParallel_8cxx.html" target="_top" xlink:title="/home/travis/build\l/AliceO2Group/AliceO2\l/Framework/TestWorkflows\l/src/dataSamplingParallel.cxx">
<polygon fill="none" stroke="black" points="1276,-1 1276,-53 1422,-53 1422,-1 1276,-1"/>
<text text-anchor="start" x="1284" y="-41" font-family="Helvetica,sans-Serif" font-size="10.00">/home/travis/build</text>
<text text-anchor="start" x="1284" y="-30" font-family="Helvetica,sans-Serif" font-size="10.00">/AliceO2Group/AliceO2</text>
<text text-anchor="start" x="1284" y="-19" font-family="Helvetica,sans-Serif" font-size="10.00">/Framework/TestWorkflows</text>
<text text-anchor="middle" x="1349" y="-8" font-family="Helvetica,sans-Serif" font-size="10.00">/src/dataSamplingParallel.cxx</text>
</a>
</g>
</g>
<!-- Node1&#45;&gt;Node10 -->
<g id="edge9" class="edge"><title>Node1&#45;&gt;Node10</title>
<path fill="none" stroke="midnightblue" d="M1126.15,-93.5706C1168.16,-82.062 1219.89,-67.6284 1266,-54 1269.19,-53.0584 1272.44,-52.0867 1275.72,-51.0968"/>
<polygon fill="midnightblue" stroke="midnightblue" points="1124.96,-90.2667 1116.24,-96.2802 1126.81,-97.0189 1124.96,-90.2667"/>
</g>
<!-- Node11 -->
<g id="node11" class="node"><title>Node11</title>
<g id="a_node11"><a xlink:href="../../db/d9e/dataSamplingTimePipeline_8cxx.html" target="_top" xlink:title="/home/travis/build\l/AliceO2Group/AliceO2\l/Framework/TestWorkflows\l/src/dataSamplingTimePipeline.cxx">
<polygon fill="none" stroke="black" points="1440,-1 1440,-53 1610,-53 1610,-1 1440,-1"/>
<text text-anchor="start" x="1448" y="-41" font-family="Helvetica,sans-Serif" font-size="10.00">/home/travis/build</text>
<text text-anchor="start" x="1448" y="-30" font-family="Helvetica,sans-Serif" font-size="10.00">/AliceO2Group/AliceO2</text>
<text text-anchor="start" x="1448" y="-19" font-family="Helvetica,sans-Serif" font-size="10.00">/Framework/TestWorkflows</text>
<text text-anchor="middle" x="1525" y="-8" font-family="Helvetica,sans-Serif" font-size="10.00">/src/dataSamplingTimePipeline.cxx</text>
</a>
</g>
</g>
<!-- Node1&#45;&gt;Node11 -->
<g id="edge10" class="edge"><title>Node1&#45;&gt;Node11</title>
<path fill="none" stroke="midnightblue" d="M1126.4,-105.41C1205.32,-94.7458 1326.86,-76.6496 1431,-54 1433.9,-53.3703 1436.83,-52.7052 1439.8,-52.0124"/>
<polygon fill="midnightblue" stroke="midnightblue" points="1125.48,-102.002 1116.04,-106.802 1126.41,-108.94 1125.48,-102.002"/>
</g>
<!-- Node12 -->
<g id="node12" class="node"><title>Node12</title>
<g id="a_node12"><a xlink:href="../../db/d1a/flpQualification_8cxx.html" target="_top" xlink:title="/home/travis/build\l/AliceO2Group/AliceO2\l/Framework/TestWorkflows\l/src/flpQualification.cxx">
<polygon fill="none" stroke="black" points="1628.5,-1 1628.5,-53 1765.5,-53 1765.5,-1 1628.5,-1"/>
<text text-anchor="start" x="1636.5" y="-41" font-family="Helvetica,sans-Serif" font-size="10.00">/home/travis/build</text>
<text text-anchor="start" x="1636.5" y="-30" font-family="Helvetica,sans-Serif" font-size="10.00">/AliceO2Group/AliceO2</text>
<text text-anchor="start" x="1636.5" y="-19" font-family="Helvetica,sans-Serif" font-size="10.00">/Framework/TestWorkflows</text>
<text text-anchor="middle" x="1697" y="-8" font-family="Helvetica,sans-Serif" font-size="10.00">/src/flpQualification.cxx</text>
</a>
</g>
</g>
<!-- Node1&#45;&gt;Node12 -->
<g id="edge11" class="edge"><title>Node1&#45;&gt;Node12</title>
<path fill="none" stroke="midnightblue" d="M1126.38,-112.635C1239.21,-106.812 1446.27,-91.6268 1619,-54 1622.07,-53.3316 1625.19,-52.586 1628.32,-51.7816"/>
<polygon fill="midnightblue" stroke="midnightblue" points="1125.9,-109.154 1116.09,-113.153 1126.25,-116.146 1125.9,-109.154"/>
</g>
<!-- Node13 -->
<g id="node13" class="node"><title>Node13</title>
<g id="a_node13"><a xlink:href="../../d3/d09/o2ParallelWorkflow_8cxx.html" target="_top" xlink:title="/home/travis/build\l/AliceO2Group/AliceO2\l/Framework/TestWorkflows\l/src/o2ParallelWorkflow.cxx">
<polygon fill="none" stroke="black" points="1783.5,-1 1783.5,-53 1922.5,-53 1922.5,-1 1783.5,-1"/>
<text text-anchor="start" x="1791.5" y="-41" font-family="Helvetica,sans-Serif" font-size="10.00">/home/travis/build</text>
<text text-anchor="start" x="1791.5" y="-30" font-family="Helvetica,sans-Serif" font-size="10.00">/AliceO2Group/AliceO2</text>
<text text-anchor="start" x="1791.5" y="-19" font-family="Helvetica,sans-Serif" font-size="10.00">/Framework/TestWorkflows</text>
<text text-anchor="middle" x="1853" y="-8" font-family="Helvetica,sans-Serif" font-size="10.00">/src/o2ParallelWorkflow.cxx</text>
</a>
</g>
</g>
<!-- Node1&#45;&gt;Node13 -->
<g id="edge12" class="edge"><title>Node1&#45;&gt;Node13</title>
<path fill="none" stroke="midnightblue" d="M1126.56,-115.222C1263.29,-112.545 1542.76,-101.183 1774,-54 1777.11,-53.3649 1780.27,-52.647 1783.45,-51.8651"/>
<polygon fill="midnightblue" stroke="midnightblue" points="1126.1,-111.729 1116.17,-115.414 1126.23,-118.728 1126.1,-111.729"/>
</g>
<!-- Node14 -->
<g id="node14" class="node"><title>Node14</title>
<g id="a_node14"><a xlink:href="../../d8/d33/test__CompletionPolicies_8cxx.html" target="_top" xlink:title="/home/travis/build\l/AliceO2Group/AliceO2\l/Framework/TestWorkflows\l/src/test_CompletionPolicies.cxx">
<polygon fill="none" stroke="black" points="1940.5,-1 1940.5,-53 2101.5,-53 2101.5,-1 1940.5,-1"/>
<text text-anchor="start" x="1948.5" y="-41" font-family="Helvetica,sans-Serif" font-size="10.00">/home/travis/build</text>
<text text-anchor="start" x="1948.5" y="-30" font-family="Helvetica,sans-Serif" font-size="10.00">/AliceO2Group/AliceO2</text>
<text text-anchor="start" x="1948.5" y="-19" font-family="Helvetica,sans-Serif" font-size="10.00">/Framework/TestWorkflows</text>
<text text-anchor="middle" x="2021" y="-8" font-family="Helvetica,sans-Serif" font-size="10.00">/src/test_CompletionPolicies.cxx</text>
</a>
</g>
</g>
<!-- Node1&#45;&gt;Node14 -->
<g id="edge13" class="edge"><title>Node1&#45;&gt;Node14</title>
<path fill="none" stroke="midnightblue" d="M1126.28,-116.03C1284.39,-114.8 1638.41,-105.874 1931,-54 1934.04,-53.4606 1937.13,-52.858 1940.24,-52.2046"/>
<polygon fill="midnightblue" stroke="midnightblue" points="1126.13,-112.531 1116.15,-116.1 1126.18,-119.531 1126.13,-112.531"/>
</g>
</g>
</svg>
