<?xml version="1.0" encoding="UTF-8" standalone="no"?>
<!DOCTYPE svg PUBLIC "-//W3C//DTD SVG 1.1//EN"
 "http://www.w3.org/Graphics/SVG/1.1/DTD/svg11.dtd">
<!-- Generated by graphviz version 2.36.0 (20140111.2315)
 -->
<!-- Title: /home/travis/build/AliceO2Group/AliceO2/Common/Utils/include/CommonUtils/TreeStream.h Pages: 1 -->
<!--zoomable 422 -->
<svg id="main" version="1.1" xmlns="http://www.w3.org/2000/svg" xmlns:xlink="http://www.w3.org/1999/xlink" xml:space="preserve" onload="init(evt)">
<style type="text/css"><![CDATA[
.edge:hover path { stroke: red; }
.edge:hover polygon { stroke: red; fill: red; }
]]></style>
<script type="text/javascript"><![CDATA[
var edges = document.getElementsByTagName('g');
if (edges && edges.length) {
  for (var i=0;i<edges.length;i++) {
    if (edges[i].id.substr(0,4)=='edge') {
      edges[i].setAttribute('class','edge');
    }
  }
}
]]></script>
        <defs>
                <circle id="rim" cx="0" cy="0" r="7"/>
                <circle id="rim2" cx="0" cy="0" r="3.5"/>
                <g id="zoomPlus">
                        <use xlink:href="#rim" fill="#404040">
                                <set attributeName="fill" to="#808080" begin="zoomplus.mouseover" end="zoomplus.mouseout"/>
                        </use>
                        <path d="M-4,0h8M0,-4v8" fill="none" stroke="white" stroke-width="1.5" pointer-events="none"/>
                </g>
                <g id="zoomMin">
                        <use xlink:href="#rim" fill="#404040">
                                <set attributeName="fill" to="#808080" begin="zoomminus.mouseover" end="zoomminus.mouseout"/>
                        </use>
                        <path d="M-4,0h8" fill="none" stroke="white" stroke-width="1.5" pointer-events="none"/>
                </g>
                <g id="dirArrow">
                        <path fill="none" stroke="white" stroke-width="1.5" d="M0,-3.0v7 M-2.5,-0.5L0,-3.0L2.5,-0.5"/>
                </g>
               <g id="resetDef">
                       <use xlink:href="#rim2" fill="#404040">
                               <set attributeName="fill" to="#808080" begin="reset.mouseover" end="reset.mouseout"/>
                       </use>
               </g>
        </defs>

<script type="text/javascript">
var viewWidth = 848;
var viewHeight = 422;
var sectionId = 'dynsection-1';
</script>
<script xlink:href="../../svgpan.js"/>
<svg id="graph" class="graph">
<g id="viewport">
<title>/home/travis/build/AliceO2Group/AliceO2/Common/Utils/include/CommonUtils/TreeStream.h</title>
<!-- Node1 -->
<g id="node1" class="node"><title>Node1</title>
<polygon fill="#bfbfbf" stroke="black" points="444,-361 444,-413 586,-413 586,-361 444,-361"/>
<text text-anchor="start" x="452" y="-401" font-family="Helvetica,sans-Serif" font-size="10.00">/home/travis/build</text>
<text text-anchor="start" x="452" y="-390" font-family="Helvetica,sans-Serif" font-size="10.00">/AliceO2Group/AliceO2</text>
<text text-anchor="start" x="452" y="-379" font-family="Helvetica,sans-Serif" font-size="10.00">/Common/Utils/include</text>
<text text-anchor="middle" x="515" y="-368" font-family="Helvetica,sans-Serif" font-size="10.00">/CommonUtils/TreeStream.h</text>
</g>
<!-- Node2 -->
<g id="node2" class="node"><title>Node2</title>
<g id="a_node2"><a xlink:href="../../d1/d22/TreeStreamRedirector_8h.html" target="_top" xlink:title="/home/travis/build\l/AliceO2Group/AliceO2\l/Common/Utils/include\l/CommonUtils/TreeStreamRedirector.h">
<polygon fill="none" stroke="black" points="296.5,-271 296.5,-323 483.5,-323 483.5,-271 296.5,-271"/>
<text text-anchor="start" x="304.5" y="-311" font-family="Helvetica,sans-Serif" font-size="10.00">/home/travis/build</text>
<text text-anchor="start" x="304.5" y="-300" font-family="Helvetica,sans-Serif" font-size="10.00">/AliceO2Group/AliceO2</text>
<text text-anchor="start" x="304.5" y="-289" font-family="Helvetica,sans-Serif" font-size="10.00">/Common/Utils/include</text>
<text text-anchor="middle" x="390" y="-278" font-family="Helvetica,sans-Serif" font-size="10.00">/CommonUtils/TreeStreamRedirector.h</text>
</a>
</g>
</g>
<!-- Node1&#45;&gt;Node2 -->
<g id="edge1" class="edge"><title>Node1&#45;&gt;Node2</title>
<path fill="none" stroke="midnightblue" d="M470.716,-354.824C456.004,-344.467 439.817,-333.071 425.825,-323.221"/>
<polygon fill="midnightblue" stroke="midnightblue" points="468.988,-357.888 479.18,-360.783 473.018,-352.164 468.988,-357.888"/>
</g>
<!-- Node4 -->
<g id="node4" class="node"><title>Node4</title>
<g id="a_node4"><a xlink:href="../../dd/d75/testTreeStream_8cxx.html" target="_top" xlink:title="/home/travis/build\l/AliceO2Group/AliceO2\l/Common/Utils/test/testTreeStream.cxx">
<polygon fill="none" stroke="black" points="-0.5,-186.5 -0.5,-227.5 190.5,-227.5 190.5,-186.5 -0.5,-186.5"/>
<text text-anchor="start" x="7.5" y="-215.5" font-family="Helvetica,sans-Serif" font-size="10.00">/home/travis/build</text>
<text text-anchor="start" x="7.5" y="-204.5" font-family="Helvetica,sans-Serif" font-size="10.00">/AliceO2Group/AliceO2</text>
<text text-anchor="middle" x="95" y="-193.5" font-family="Helvetica,sans-Serif" font-size="10.00">/Common/Utils/test/testTreeStream.cxx</text>
</a>
</g>
</g>
<!-- Node1&#45;&gt;Node4 -->
<g id="edge12" class="edge"><title>Node1&#45;&gt;Node4</title>
<path fill="none" stroke="midnightblue" d="M434.069,-369.774C389.64,-359.445 334.154,-344.187 287,-324 224.526,-297.255 158.012,-253.073 121.993,-227.653"/>
<polygon fill="midnightblue" stroke="midnightblue" points="433.423,-373.216 443.951,-372.032 434.982,-366.392 433.423,-373.216"/>
</g>
<!-- Node9 -->
<g id="node9" class="node"><title>Node9</title>
<g id="a_node9"><a xlink:href="../../dc/d59/MatchTPCITS_8cxx.html" target="_top" xlink:title="/home/travis/build\l/AliceO2Group/AliceO2\l/Detectors/GlobalTracking\l/src/MatchTPCITS.cxx">
<polygon fill="none" stroke="black" points="606.5,-91 606.5,-143 737.5,-143 737.5,-91 606.5,-91"/>
<text text-anchor="start" x="614.5" y="-131" font-family="Helvetica,sans-Serif" font-size="10.00">/home/travis/build</text>
<text text-anchor="start" x="614.5" y="-120" font-family="Helvetica,sans-Serif" font-size="10.00">/AliceO2Group/AliceO2</text>
<text text-anchor="start" x="614.5" y="-109" font-family="Helvetica,sans-Serif" font-size="10.00">/Detectors/GlobalTracking</text>
<text text-anchor="middle" x="672" y="-98" font-family="Helvetica,sans-Serif" font-size="10.00">/src/MatchTPCITS.cxx</text>
</a>
</g>
</g>
<!-- Node1&#45;&gt;Node9 -->
<g id="edge13" class="edge"><title>Node1&#45;&gt;Node9</title>
<path fill="none" stroke="midnightblue" d="M540.573,-352.809C563.07,-322.762 595.901,-276.785 620,-234 637.005,-203.81 652.71,-167.021 662.314,-143.082"/>
<polygon fill="midnightblue" stroke="midnightblue" points="537.74,-350.752 534.517,-360.845 543.33,-354.965 537.74,-350.752"/>
</g>
<!-- Node11 -->
<g id="node11" class="node"><title>Node11</title>
<g id="a_node11"><a xlink:href="../../dd/dc1/TreeStream_8cxx.html" target="_top" xlink:title="/home/travis/build\l/AliceO2Group/AliceO2\l/Common/Utils/src/TreeStream.cxx">
<polygon fill="none" stroke="black" points="668,-276.5 668,-317.5 840,-317.5 840,-276.5 668,-276.5"/>
<text text-anchor="start" x="676" y="-305.5" font-family="Helvetica,sans-Serif" font-size="10.00">/home/travis/build</text>
<text text-anchor="start" x="676" y="-294.5" font-family="Helvetica,sans-Serif" font-size="10.00">/AliceO2Group/AliceO2</text>
<text text-anchor="middle" x="754" y="-283.5" font-family="Helvetica,sans-Serif" font-size="10.00">/Common/Utils/src/TreeStream.cxx</text>
</a>
</g>
</g>
<!-- Node1&#45;&gt;Node11 -->
<g id="edge11" class="edge"><title>Node1&#45;&gt;Node11</title>
<path fill="none" stroke="midnightblue" d="M592.979,-357.288C628.327,-344.273 669.21,-329.22 700.936,-317.538"/>
<polygon fill="midnightblue" stroke="midnightblue" points="591.343,-354.161 583.168,-360.901 593.761,-360.73 591.343,-354.161"/>
</g>
<!-- Node3 -->
<g id="node3" class="node"><title>Node3</title>
<g id="a_node3"><a xlink:href="../../d8/dc3/TreeStreamRedirector_8cxx.html" target="_top" xlink:title="/home/travis/build\l/AliceO2Group/AliceO2\l/Common/Utils/src/TreeStream\lRedirector.cxx">
<polygon fill="none" stroke="black" points="208.5,-181 208.5,-233 361.5,-233 361.5,-181 208.5,-181"/>
<text text-anchor="start" x="216.5" y="-221" font-family="Helvetica,sans-Serif" font-size="10.00">/home/travis/build</text>
<text text-anchor="start" x="216.5" y="-210" font-family="Helvetica,sans-Serif" font-size="10.00">/AliceO2Group/AliceO2</text>
<text text-anchor="start" x="216.5" y="-199" font-family="Helvetica,sans-Serif" font-size="10.00">/Common/Utils/src/TreeStream</text>
<text text-anchor="middle" x="285" y="-188" font-family="Helvetica,sans-Serif" font-size="10.00">Redirector.cxx</text>
</a>
</g>
</g>
<!-- Node2&#45;&gt;Node3 -->
<g id="edge2" class="edge"><title>Node2&#45;&gt;Node3</title>
<path fill="none" stroke="midnightblue" d="M352.107,-264.242C339.936,-254.042 326.627,-242.887 315.093,-233.221"/>
<polygon fill="midnightblue" stroke="midnightblue" points="349.999,-267.042 359.911,-270.783 354.495,-261.677 349.999,-267.042"/>
</g>
<!-- Node2&#45;&gt;Node4 -->
<g id="edge3" class="edge"><title>Node2&#45;&gt;Node4</title>
<path fill="none" stroke="midnightblue" d="M296.259,-268.037C252.065,-254.853 200.41,-239.444 160.498,-227.538"/>
<polygon fill="midnightblue" stroke="midnightblue" points="295.276,-271.396 305.86,-270.901 297.277,-264.688 295.276,-271.396"/>
</g>
<!-- Node5 -->
<g id="node5" class="node"><title>Node5</title>
<g id="a_node5"><a xlink:href="../../d0/d74/MatchTOF_8h.html" target="_top" xlink:title="Class to perform TOF calibration. ">
<polygon fill="none" stroke="black" points="247,-91 247,-143 423,-143 423,-91 247,-91"/>
<text text-anchor="start" x="255" y="-131" font-family="Helvetica,sans-Serif" font-size="10.00">/home/travis/build</text>
<text text-anchor="start" x="255" y="-120" font-family="Helvetica,sans-Serif" font-size="10.00">/AliceO2Group/AliceO2</text>
<text text-anchor="start" x="255" y="-109" font-family="Helvetica,sans-Serif" font-size="10.00">/Detectors/GlobalTracking</text>
<text text-anchor="middle" x="335" y="-98" font-family="Helvetica,sans-Serif" font-size="10.00">/include/GlobalTracking/MatchTOF.h</text>
</a>
</g>
</g>
<!-- Node2&#45;&gt;Node5 -->
<g id="edge4" class="edge"><title>Node2&#45;&gt;Node5</title>
<path fill="none" stroke="midnightblue" d="M387.095,-260.765C384.402,-237.35 379.34,-206.209 370,-180 365.477,-167.309 358.461,-154.185 351.894,-143.298"/>
<polygon fill="midnightblue" stroke="midnightblue" points="383.638,-261.358 388.172,-270.933 390.599,-260.62 383.638,-261.358"/>
</g>
<!-- Node8 -->
<g id="node8" class="node"><title>Node8</title>
<g id="a_node8"><a xlink:href="../../d3/dac/MatchTPCITS_8h.html" target="_top" xlink:title="Class to perform TPC ITS matching. ">
<polygon fill="none" stroke="black" points="418.5,-181 418.5,-233 611.5,-233 611.5,-181 418.5,-181"/>
<text text-anchor="start" x="426.5" y="-221" font-family="Helvetica,sans-Serif" font-size="10.00">/home/travis/build</text>
<text text-anchor="start" x="426.5" y="-210" font-family="Helvetica,sans-Serif" font-size="10.00">/AliceO2Group/AliceO2</text>
<text text-anchor="start" x="426.5" y="-199" font-family="Helvetica,sans-Serif" font-size="10.00">/Detectors/GlobalTracking</text>
<text text-anchor="middle" x="515" y="-188" font-family="Helvetica,sans-Serif" font-size="10.00">/include/GlobalTracking/MatchTPCITS.h</text>
</a>
</g>
</g>
<!-- Node2&#45;&gt;Node8 -->
<g id="edge7" class="edge"><title>Node2&#45;&gt;Node8</title>
<path fill="none" stroke="midnightblue" d="M434.284,-264.824C448.996,-254.467 465.183,-243.071 479.175,-233.221"/>
<polygon fill="midnightblue" stroke="midnightblue" points="431.982,-262.164 425.82,-270.783 436.012,-267.888 431.982,-262.164"/>
</g>
<!-- Node6 -->
<g id="node6" class="node"><title>Node6</title>
<g id="a_node6"><a xlink:href="../../db/d6a/MatchTOF_8cxx.html" target="_top" xlink:title="/home/travis/build\l/AliceO2Group/AliceO2\l/Detectors/GlobalTracking\l/src/MatchTOF.cxx">
<polygon fill="none" stroke="black" points="197.5,-1 197.5,-53 328.5,-53 328.5,-1 197.5,-1"/>
<text text-anchor="start" x="205.5" y="-41" font-family="Helvetica,sans-Serif" font-size="10.00">/home/travis/build</text>
<text text-anchor="start" x="205.5" y="-30" font-family="Helvetica,sans-Serif" font-size="10.00">/AliceO2Group/AliceO2</text>
<text text-anchor="start" x="205.5" y="-19" font-family="Helvetica,sans-Serif" font-size="10.00">/Detectors/GlobalTracking</text>
<text text-anchor="middle" x="263" y="-8" font-family="Helvetica,sans-Serif" font-size="10.00">/src/MatchTOF.cxx</text>
</a>
</g>
</g>
<!-- Node5&#45;&gt;Node6 -->
<g id="edge5" class="edge"><title>Node5&#45;&gt;Node6</title>
<path fill="none" stroke="midnightblue" d="M307.634,-82.5528C299.634,-72.7746 291.029,-62.2575 283.53,-53.0921"/>
<polygon fill="midnightblue" stroke="midnightblue" points="305.133,-85.0235 314.175,-90.5468 310.551,-80.5908 305.133,-85.0235"/>
</g>
<!-- Node7 -->
<g id="node7" class="node"><title>Node7</title>
<g id="a_node7"><a xlink:href="../../dd/d7c/run__match__tof_8C.html" target="_top" xlink:title="/home/travis/build\l/AliceO2Group/AliceO2\l/macro/run_match_tof.C">
<polygon fill="none" stroke="black" points="347,-6.5 347,-47.5 469,-47.5 469,-6.5 347,-6.5"/>
<text text-anchor="start" x="355" y="-35.5" font-family="Helvetica,sans-Serif" font-size="10.00">/home/travis/build</text>
<text text-anchor="start" x="355" y="-24.5" font-family="Helvetica,sans-Serif" font-size="10.00">/AliceO2Group/AliceO2</text>
<text text-anchor="middle" x="408" y="-13.5" font-family="Helvetica,sans-Serif" font-size="10.00">/macro/run_match_tof.C</text>
</a>
</g>
</g>
<!-- Node5&#45;&gt;Node7 -->
<g id="edge6" class="edge"><title>Node5&#45;&gt;Node7</title>
<path fill="none" stroke="midnightblue" d="M362.729,-82.573C372.546,-70.7393 383.262,-57.821 391.803,-47.5249"/>
<polygon fill="midnightblue" stroke="midnightblue" points="359.805,-80.6156 356.115,-90.5468 365.193,-85.0848 359.805,-80.6156"/>
</g>
<!-- Node8&#45;&gt;Node5 -->
<g id="edge8" class="edge"><title>Node8&#45;&gt;Node5</title>
<path fill="none" stroke="midnightblue" d="M454.146,-176.249C432.093,-165.468 407.423,-153.407 386.277,-143.069"/>
<polygon fill="midnightblue" stroke="midnightblue" points="452.898,-179.535 463.419,-180.783 455.973,-173.246 452.898,-179.535"/>
</g>
<!-- Node8&#45;&gt;Node9 -->
<g id="edge9" class="edge"><title>Node8&#45;&gt;Node9</title>
<path fill="none" stroke="midnightblue" d="M568.852,-175.815C587.889,-165.145 609.078,-153.268 627.275,-143.069"/>
<polygon fill="midnightblue" stroke="midnightblue" points="567.002,-172.84 559.99,-180.783 570.424,-178.946 567.002,-172.84"/>
</g>
<!-- Node10 -->
<g id="node10" class="node"><title>Node10</title>
<g id="a_node10"><a xlink:href="../../d9/d84/run__match__TPCITS_8C.html" target="_top" xlink:title="/home/travis/build\l/AliceO2Group/AliceO2\l/macro/run_match_TPCITS.C">
<polygon fill="none" stroke="black" points="441.5,-96.5 441.5,-137.5 588.5,-137.5 588.5,-96.5 441.5,-96.5"/>
<text text-anchor="start" x="449.5" y="-125.5" font-family="Helvetica,sans-Serif" font-size="10.00">/home/travis/build</text>
<text text-anchor="start" x="449.5" y="-114.5" font-family="Helvetica,sans-Serif" font-size="10.00">/AliceO2Group/AliceO2</text>
<text text-anchor="middle" x="515" y="-103.5" font-family="Helvetica,sans-Serif" font-size="10.00">/macro/run_match_TPCITS.C</text>
</a>
</g>
</g>
<!-- Node8&#45;&gt;Node10 -->
<g id="edge10" class="edge"><title>Node8&#45;&gt;Node10</title>
<path fill="none" stroke="midnightblue" d="M515,-170.515C515,-159.257 515,-147.227 515,-137.525"/>
<polygon fill="midnightblue" stroke="midnightblue" points="511.5,-170.547 515,-180.547 518.5,-170.547 511.5,-170.547"/>
</g>
</g>
</svg>
        <g id="navigator" transform="translate(0 0)" fill="#404254">
                <rect fill="#f2f5e9" fill-opacity="0.5" stroke="#606060" stroke-width=".5" x="0" y="0" width="60" height="60"/>
                <use id="zoomplus" xlink:href="#zoomPlus" x="17" y="9" onmousedown="handleZoom(evt,'in')"/>
                <use id="zoomminus" xlink:href="#zoomMin" x="42" y="9" onmousedown="handleZoom(evt,'out')"/>
                <use id="reset" xlink:href="#resetDef" x="30" y="36" onmousedown="handleReset()"/>
                <g id="arrowUp" xlink:href="#dirArrow" transform="translate(30 24)" onmousedown="handlePan(0,-1)">
                  <use xlink:href="#rim" fill="#404040">
                        <set attributeName="fill" to="#808080" begin="arrowUp.mouseover" end="arrowUp.mouseout"/>
                  </use>
                  <path fill="none" stroke="white" stroke-width="1.5" d="M0,-3.0v7 M-2.5,-0.5L0,-3.0L2.5,-0.5"/>
                </g>
                <g id="arrowRight" xlink:href="#dirArrow" transform="rotate(90) translate(36 -43)" onmousedown="handlePan(1,0)">
                  <use xlink:href="#rim" fill="#404040">
                        <set attributeName="fill" to="#808080" begin="arrowRight.mouseover" end="arrowRight.mouseout"/>
                  </use>
                  <path fill="none" stroke="white" stroke-width="1.5" d="M0,-3.0v7 M-2.5,-0.5L0,-3.0L2.5,-0.5"/>
                </g>
                <g id="arrowDown" xlink:href="#dirArrow" transform="rotate(180) translate(-30 -48)" onmousedown="handlePan(0,1)">
                  <use xlink:href="#rim" fill="#404040">
                        <set attributeName="fill" to="#808080" begin="arrowDown.mouseover" end="arrowDown.mouseout"/>
                  </use>
                  <path fill="none" stroke="white" stroke-width="1.5" d="M0,-3.0v7 M-2.5,-0.5L0,-3.0L2.5,-0.5"/>
                </g>
                <g id="arrowLeft" xlink:href="#dirArrow" transform="rotate(270) translate(-36 17)" onmousedown="handlePan(-1,0)">
                  <use xlink:href="#rim" fill="#404040">
                        <set attributeName="fill" to="#808080" begin="arrowLeft.mouseover" end="arrowLeft.mouseout"/>
                  </use>
                  <path fill="none" stroke="white" stroke-width="1.5" d="M0,-3.0v7 M-2.5,-0.5L0,-3.0L2.5,-0.5"/>
                </g>
        </g>
        <svg viewBox="0 0 15 15" width="100%" height="30px" preserveAspectRatio="xMaxYMin meet">
         <g id="arrow_out" transform="scale(0.3 0.3)">
          <a xlink:href="TreeStream_8h__dep__incl_org.svg" target="_base">
           <rect id="button" ry="5" rx="5" y="6" x="6" height="38" width="38"
                fill="#f2f5e9" fill-opacity="0.5" stroke="#606060" stroke-width="1.0"/>
           <path id="arrow"
             d="M 11.500037,31.436501 C 11.940474,20.09759 22.043105,11.32322 32.158766,21.979434 L 37.068811,17.246167 C 37.068811,17.246167 37.088388,32 37.088388,32 L 22.160133,31.978069 C 22.160133,31.978069 26.997745,27.140456 26.997745,27.140456 C 18.528582,18.264221 13.291696,25.230495 11.500037,31.436501 z"
             style="fill:#404040;"/>
          </a>
         </g>
        </svg>
</svg>
