<?xml version="1.0" encoding="UTF-8" standalone="no"?>
<!DOCTYPE svg PUBLIC "-//W3C//DTD SVG 1.1//EN"
 "http://www.w3.org/Graphics/SVG/1.1/DTD/svg11.dtd">
<!-- Generated by graphviz version 2.36.0 (20140111.2315)
 -->
<!-- Title: o2::MFT::GeometryTGeo Pages: 1 -->
<svg width="920pt" height="1614pt"
 viewBox="0.00 0.00 920.00 1614.00" xmlns="http://www.w3.org/2000/svg" xmlns:xlink="http://www.w3.org/1999/xlink">
<g id="graph0" class="graph" transform="scale(1 1) rotate(0) translate(4 1610)">
<title>o2::MFT::GeometryTGeo</title>
<!-- Node1 -->
<g id="node1" class="node"><title>Node1</title>
<polygon fill="#bfbfbf" stroke="black" points="413,-1 413,-399 583,-399 583,-1 413,-1"/>
<text text-anchor="middle" x="498" y="-387" font-family="Helvetica,sans-Serif" font-size="10.00">o2::MFT::GeometryTGeo</text>
<polyline fill="none" stroke="black" points="413,-380 583,-380 "/>
<text text-anchor="middle" x="498" y="-368" font-family="Helvetica,sans-Serif" font-size="10.00"> </text>
<polyline fill="none" stroke="black" points="413,-361 583,-361 "/>
<text text-anchor="start" x="421" y="-349" font-family="Helvetica,sans-Serif" font-size="10.00">+ GeometryTGeo()</text>
<text text-anchor="start" x="421" y="-338" font-family="Helvetica,sans-Serif" font-size="10.00">+ ~GeometryTGeo()</text>
<text text-anchor="start" x="421" y="-327" font-family="Helvetica,sans-Serif" font-size="10.00">+ GeometryTGeo()</text>
<text text-anchor="start" x="421" y="-316" font-family="Helvetica,sans-Serif" font-size="10.00">+ operator=()</text>
<text text-anchor="start" x="421" y="-305" font-family="Helvetica,sans-Serif" font-size="10.00">+ fillMatrixCache()</text>
<text text-anchor="start" x="421" y="-294" font-family="Helvetica,sans-Serif" font-size="10.00">+ Build()</text>
<text text-anchor="start" x="421" y="-283" font-family="Helvetica,sans-Serif" font-size="10.00">+ getSensorIndex()</text>
<text text-anchor="start" x="421" y="-272" font-family="Helvetica,sans-Serif" font-size="10.00">+ getLayer()</text>
<text text-anchor="start" x="421" y="-261" font-family="Helvetica,sans-Serif" font-size="10.00">+ getSensorID()</text>
<text text-anchor="start" x="421" y="-250" font-family="Helvetica,sans-Serif" font-size="10.00">+ getNumberOfSensorsPerLadder()</text>
<text text-anchor="start" x="421" y="-239" font-family="Helvetica,sans-Serif" font-size="10.00">+ Instance()</text>
<text text-anchor="start" x="421" y="-228" font-family="Helvetica,sans-Serif" font-size="10.00">+ adopt()</text>
<text text-anchor="start" x="421" y="-217" font-family="Helvetica,sans-Serif" font-size="10.00">+ getMFTVolPattern()</text>
<text text-anchor="start" x="421" y="-206" font-family="Helvetica,sans-Serif" font-size="10.00">+ getMFTHalfPattern()</text>
<text text-anchor="start" x="421" y="-195" font-family="Helvetica,sans-Serif" font-size="10.00">+ getMFTDiskPattern()</text>
<text text-anchor="start" x="421" y="-184" font-family="Helvetica,sans-Serif" font-size="10.00">+ getMFTLadderPattern()</text>
<text text-anchor="start" x="421" y="-173" font-family="Helvetica,sans-Serif" font-size="10.00">+ getMFTChipPattern()</text>
<text text-anchor="start" x="421" y="-162" font-family="Helvetica,sans-Serif" font-size="10.00">+ getMFTSensorPattern()</text>
<text text-anchor="start" x="421" y="-151" font-family="Helvetica,sans-Serif" font-size="10.00"># extractNumberOfHalves()</text>
<text text-anchor="start" x="421" y="-140" font-family="Helvetica,sans-Serif" font-size="10.00"># extractNumberOfDisks()</text>
<text text-anchor="start" x="421" y="-129" font-family="Helvetica,sans-Serif" font-size="10.00"># extractNumberOfLadders()</text>
<text text-anchor="start" x="421" y="-118" font-family="Helvetica,sans-Serif" font-size="10.00"># extractNumberOfLadders()</text>
<text text-anchor="start" x="421" y="-107" font-family="Helvetica,sans-Serif" font-size="10.00"># extractNumberOfSensorsPer</text>
<text text-anchor="start" x="421" y="-96" font-family="Helvetica,sans-Serif" font-size="10.00">Ladder()</text>
<text text-anchor="start" x="421" y="-85" font-family="Helvetica,sans-Serif" font-size="10.00"># extractVolumeCopy()</text>
<text text-anchor="start" x="421" y="-74" font-family="Helvetica,sans-Serif" font-size="10.00"># extractMatrixSensor()</text>
<text text-anchor="start" x="421" y="-63" font-family="Helvetica,sans-Serif" font-size="10.00"># createT2LMatrix()</text>
<text text-anchor="start" x="421" y="-52" font-family="Helvetica,sans-Serif" font-size="10.00"># extractSensorXAlpha()</text>
<text text-anchor="start" x="421" y="-41" font-family="Helvetica,sans-Serif" font-size="10.00"># getHalf()</text>
<text text-anchor="start" x="421" y="-30" font-family="Helvetica,sans-Serif" font-size="10.00"># getDisk()</text>
<text text-anchor="start" x="421" y="-19" font-family="Helvetica,sans-Serif" font-size="10.00"># getLadder()</text>
<text text-anchor="start" x="421" y="-8" font-family="Helvetica,sans-Serif" font-size="10.00"># getFirstSensorIndex()</text>
</g>
<!-- Node2 -->
<g id="node2" class="node"><title>Node2</title>
<g id="a_node2"><a xlink:href="../../d7/d98/classo2_1_1ITSMFT_1_1GeometryTGeo.html" target="_top" xlink:title="{o2::ITSMFT::GeometryTGeo\n||+ GeometryTGeo()\l+ GeometryTGeo()\l+ operator=()\l+ GeometryTGeo()\l+ ~GeometryTGeo()\l+ getNumberOfChips()\l+ Build()\l# ClassDefOverride()\l}">
<polygon fill="none" stroke="black" points="145,-503 145,-637 287,-637 287,-503 145,-503"/>
<text text-anchor="middle" x="216" y="-625" font-family="Helvetica,sans-Serif" font-size="10.00">o2::ITSMFT::GeometryTGeo</text>
<polyline fill="none" stroke="black" points="145,-618 287,-618 "/>
<text text-anchor="middle" x="216" y="-606" font-family="Helvetica,sans-Serif" font-size="10.00"> </text>
<polyline fill="none" stroke="black" points="145,-599 287,-599 "/>
<text text-anchor="start" x="153" y="-587" font-family="Helvetica,sans-Serif" font-size="10.00">+ GeometryTGeo()</text>
<text text-anchor="start" x="153" y="-576" font-family="Helvetica,sans-Serif" font-size="10.00">+ GeometryTGeo()</text>
<text text-anchor="start" x="153" y="-565" font-family="Helvetica,sans-Serif" font-size="10.00">+ operator=()</text>
<text text-anchor="start" x="153" y="-554" font-family="Helvetica,sans-Serif" font-size="10.00">+ GeometryTGeo()</text>
<text text-anchor="start" x="153" y="-543" font-family="Helvetica,sans-Serif" font-size="10.00">+ ~GeometryTGeo()</text>
<text text-anchor="start" x="153" y="-532" font-family="Helvetica,sans-Serif" font-size="10.00">+ getNumberOfChips()</text>
<text text-anchor="start" x="153" y="-521" font-family="Helvetica,sans-Serif" font-size="10.00">+ Build()</text>
<text text-anchor="start" x="153" y="-510" font-family="Helvetica,sans-Serif" font-size="10.00"># ClassDefOverride()</text>
</a>
</g>
</g>
<!-- Node2&#45;&gt;Node1 -->
<g id="edge1" class="edge"><title>Node2&#45;&gt;Node1</title>
<path fill="none" stroke="midnightblue" d="M267.267,-494.708C284.64,-470.06 304.367,-442.634 323,-418 351.612,-380.172 383.964,-339.506 412.998,-303.718"/>
<polygon fill="none" stroke="midnightblue" points="264.359,-492.758 261.471,-502.952 270.086,-496.784 264.359,-492.758"/>
</g>
<!-- Node3 -->
<g id="node3" class="node"><title>Node3</title>
<g id="a_node3"><a xlink:href="../../df/d06/classo2_1_1detectors_1_1DetMatrixCache.html" target="_top" xlink:title="{o2::detectors::DetMatrix\lCache\n||+ DetMatrixCache()\l+ DetMatrixCache()\l+ ~DetMatrixCache()\l+ DetMatrixCache()\l+ operator=()\l+ getDetID()\l+ getName()\l+ getCacheT2L()\l+ getCacheT2G()\l+ getCacheL2G()\l+ getCacheT2GRot()\l+ getMatrixT2L()\l+ getMatrixT2G()\l+ getMatrixL2G()\l+ getMatrixT2GRot()\l+ isBuilt()\l+ getSize()\l+ fillMatrixCache()\l+ setSize()\l+ getCacheT2L()\l+ getCacheT2G()\l+ getCacheL2G()\l+ getCacheT2GRot()\l+ ClassDef()\l}">
<polygon fill="none" stroke="black" points="155,-676.5 155,-997.5 277,-997.5 277,-676.5 155,-676.5"/>
<text text-anchor="start" x="163" y="-985.5" font-family="Helvetica,sans-Serif" font-size="10.00">o2::detectors::DetMatrix</text>
<text text-anchor="middle" x="216" y="-974.5" font-family="Helvetica,sans-Serif" font-size="10.00">Cache</text>
<polyline fill="none" stroke="black" points="155,-967.5 277,-967.5 "/>
<text text-anchor="middle" x="216" y="-955.5" font-family="Helvetica,sans-Serif" font-size="10.00"> </text>
<polyline fill="none" stroke="black" points="155,-948.5 277,-948.5 "/>
<text text-anchor="start" x="163" y="-936.5" font-family="Helvetica,sans-Serif" font-size="10.00">+ DetMatrixCache()</text>
<text text-anchor="start" x="163" y="-925.5" font-family="Helvetica,sans-Serif" font-size="10.00">+ DetMatrixCache()</text>
<text text-anchor="start" x="163" y="-914.5" font-family="Helvetica,sans-Serif" font-size="10.00">+ ~DetMatrixCache()</text>
<text text-anchor="start" x="163" y="-903.5" font-family="Helvetica,sans-Serif" font-size="10.00">+ DetMatrixCache()</text>
<text text-anchor="start" x="163" y="-892.5" font-family="Helvetica,sans-Serif" font-size="10.00">+ operator=()</text>
<text text-anchor="start" x="163" y="-881.5" font-family="Helvetica,sans-Serif" font-size="10.00">+ getDetID()</text>
<text text-anchor="start" x="163" y="-870.5" font-family="Helvetica,sans-Serif" font-size="10.00">+ getName()</text>
<text text-anchor="start" x="163" y="-859.5" font-family="Helvetica,sans-Serif" font-size="10.00">+ getCacheT2L()</text>
<text text-anchor="start" x="163" y="-848.5" font-family="Helvetica,sans-Serif" font-size="10.00">+ getCacheT2G()</text>
<text text-anchor="start" x="163" y="-837.5" font-family="Helvetica,sans-Serif" font-size="10.00">+ getCacheL2G()</text>
<text text-anchor="start" x="163" y="-826.5" font-family="Helvetica,sans-Serif" font-size="10.00">+ getCacheT2GRot()</text>
<text text-anchor="start" x="163" y="-815.5" font-family="Helvetica,sans-Serif" font-size="10.00">+ getMatrixT2L()</text>
<text text-anchor="start" x="163" y="-804.5" font-family="Helvetica,sans-Serif" font-size="10.00">+ getMatrixT2G()</text>
<text text-anchor="start" x="163" y="-793.5" font-family="Helvetica,sans-Serif" font-size="10.00">+ getMatrixL2G()</text>
<text text-anchor="start" x="163" y="-782.5" font-family="Helvetica,sans-Serif" font-size="10.00">+ getMatrixT2GRot()</text>
<text text-anchor="start" x="163" y="-771.5" font-family="Helvetica,sans-Serif" font-size="10.00">+ isBuilt()</text>
<text text-anchor="start" x="163" y="-760.5" font-family="Helvetica,sans-Serif" font-size="10.00">+ getSize()</text>
<text text-anchor="start" x="163" y="-749.5" font-family="Helvetica,sans-Serif" font-size="10.00">+ fillMatrixCache()</text>
<text text-anchor="start" x="163" y="-738.5" font-family="Helvetica,sans-Serif" font-size="10.00">+ setSize()</text>
<text text-anchor="start" x="163" y="-727.5" font-family="Helvetica,sans-Serif" font-size="10.00">+ getCacheT2L()</text>
<text text-anchor="start" x="163" y="-716.5" font-family="Helvetica,sans-Serif" font-size="10.00">+ getCacheT2G()</text>
<text text-anchor="start" x="163" y="-705.5" font-family="Helvetica,sans-Serif" font-size="10.00">+ getCacheL2G()</text>
<text text-anchor="start" x="163" y="-694.5" font-family="Helvetica,sans-Serif" font-size="10.00">+ getCacheT2GRot()</text>
<text text-anchor="start" x="163" y="-683.5" font-family="Helvetica,sans-Serif" font-size="10.00">+ ClassDef()</text>
</a>
</g>
</g>
<!-- Node3&#45;&gt;Node2 -->
<g id="edge2" class="edge"><title>Node3&#45;&gt;Node2</title>
<path fill="none" stroke="midnightblue" d="M216,-666.305C216,-656.209 216,-646.426 216,-637.218"/>
<polygon fill="none" stroke="midnightblue" points="212.5,-666.496 216,-676.496 219.5,-666.496 212.5,-666.496"/>
</g>
<!-- Node4 -->
<g id="node4" class="node"><title>Node4</title>
<g id="a_node4"><a xlink:href="../../d6/dd5/classo2_1_1detectors_1_1DetID.html" target="_top" xlink:title="Static class with identifiers, bitmasks and names for ALICE detectors. ">
<polygon fill="none" stroke="black" points="35,-1068.5 35,-1301.5 141,-1301.5 141,-1068.5 35,-1068.5"/>
<text text-anchor="middle" x="88" y="-1289.5" font-family="Helvetica,sans-Serif" font-size="10.00">o2::detectors::DetID</text>
<polyline fill="none" stroke="black" points="35,-1282.5 141,-1282.5 "/>
<text text-anchor="start" x="43" y="-1270.5" font-family="Helvetica,sans-Serif" font-size="10.00">+ TOF</text>
<text text-anchor="start" x="43" y="-1259.5" font-family="Helvetica,sans-Serif" font-size="10.00">+ PHS</text>
<text text-anchor="start" x="43" y="-1248.5" font-family="Helvetica,sans-Serif" font-size="10.00">+ EMC</text>
<text text-anchor="start" x="43" y="-1237.5" font-family="Helvetica,sans-Serif" font-size="10.00">+ HMP</text>
<text text-anchor="start" x="43" y="-1226.5" font-family="Helvetica,sans-Serif" font-size="10.00">+ MFT</text>
<text text-anchor="start" x="43" y="-1215.5" font-family="Helvetica,sans-Serif" font-size="10.00">+ Last</text>
<polyline fill="none" stroke="black" points="35,-1208.5 141,-1208.5 "/>
<text text-anchor="start" x="43" y="-1196.5" font-family="Helvetica,sans-Serif" font-size="10.00">+ DetID()</text>
<text text-anchor="start" x="43" y="-1185.5" font-family="Helvetica,sans-Serif" font-size="10.00">+ DetID()</text>
<text text-anchor="start" x="43" y="-1174.5" font-family="Helvetica,sans-Serif" font-size="10.00">+ DetID()</text>
<text text-anchor="start" x="43" y="-1163.5" font-family="Helvetica,sans-Serif" font-size="10.00">+ operator=()</text>
<text text-anchor="start" x="43" y="-1152.5" font-family="Helvetica,sans-Serif" font-size="10.00">+ getID()</text>
<text text-anchor="start" x="43" y="-1141.5" font-family="Helvetica,sans-Serif" font-size="10.00">+ getMask()</text>
<text text-anchor="start" x="43" y="-1130.5" font-family="Helvetica,sans-Serif" font-size="10.00">+ getName()</text>
<text text-anchor="start" x="43" y="-1119.5" font-family="Helvetica,sans-Serif" font-size="10.00">+ operator int()</text>
<text text-anchor="start" x="43" y="-1108.5" font-family="Helvetica,sans-Serif" font-size="10.00">+ DetID()</text>
<text text-anchor="start" x="43" y="-1097.5" font-family="Helvetica,sans-Serif" font-size="10.00">+ getNDetectors()</text>
<text text-anchor="start" x="43" y="-1086.5" font-family="Helvetica,sans-Serif" font-size="10.00">+ getName()</text>
<text text-anchor="start" x="43" y="-1075.5" font-family="Helvetica,sans-Serif" font-size="10.00">+ getMask()</text>
</a>
</g>
</g>
<!-- Node4&#45;&gt;Node3 -->
<g id="edge3" class="edge"><title>Node4&#45;&gt;Node3</title>
<path fill="none" stroke="#404040" d="M104.332,-1068.41C108.273,-1050.61 113.103,-1032.63 119,-1016 127.085,-993.195 137.823,-969.802 149.207,-947.78"/>
<polygon fill="none" stroke="#404040" points="149.246,-947.706 148.503,-940.533 154.838,-937.088 155.581,-944.261 149.246,-947.706"/>
<text text-anchor="middle" x="141" y="-1030.5" font-family="Helvetica,sans-Serif" font-size="10.00"> +mDetID</text>
</g>
<!-- Node5 -->
<g id="node5" class="node"><title>Node5</title>
<polygon fill="none" stroke="#bfbfbf" points="0,-1504.5 0,-1561.5 100,-1561.5 100,-1504.5 0,-1504.5"/>
<text text-anchor="middle" x="50" y="-1549.5" font-family="Helvetica,sans-Serif" font-size="10.00">static constexpr ID</text>
<polyline fill="none" stroke="#bfbfbf" points="0,-1542.5 100,-1542.5 "/>
<text text-anchor="middle" x="50" y="-1530.5" font-family="Helvetica,sans-Serif" font-size="10.00"> </text>
<polyline fill="none" stroke="#bfbfbf" points="0,-1523.5 100,-1523.5 "/>
<text text-anchor="middle" x="50" y="-1511.5" font-family="Helvetica,sans-Serif" font-size="10.00"> </text>
</g>
<!-- Node5&#45;&gt;Node4 -->
<g id="edge4" class="edge"><title>Node5&#45;&gt;Node4</title>
<path fill="none" stroke="#404040" d="M47.8187,-1504.39C45.131,-1463.78 41.948,-1385.63 51,-1320 51.2834,-1317.95 51.5894,-1315.88 51.9163,-1313.8"/>
<polygon fill="none" stroke="#404040" points="51.9445,-1313.64 49.0332,-1307.04 54.0034,-1301.82 56.9146,-1308.41 51.9445,-1313.64"/>
<text text-anchor="middle" x="66.5" y="-1433.5" font-family="Helvetica,sans-Serif" font-size="10.00"> +ACO</text>
<text text-anchor="middle" x="66.5" y="-1422.5" font-family="Helvetica,sans-Serif" font-size="10.00">+First</text>
<text text-anchor="middle" x="66.5" y="-1411.5" font-family="Helvetica,sans-Serif" font-size="10.00">+FIT</text>
<text text-anchor="middle" x="66.5" y="-1400.5" font-family="Helvetica,sans-Serif" font-size="10.00">+MCH</text>
<text text-anchor="middle" x="66.5" y="-1389.5" font-family="Helvetica,sans-Serif" font-size="10.00">+TRD</text>
<text text-anchor="middle" x="66.5" y="-1378.5" font-family="Helvetica,sans-Serif" font-size="10.00">+TPC</text>
<text text-anchor="middle" x="66.5" y="-1367.5" font-family="Helvetica,sans-Serif" font-size="10.00">+ZDC</text>
<text text-anchor="middle" x="66.5" y="-1356.5" font-family="Helvetica,sans-Serif" font-size="10.00">+MID</text>
<text text-anchor="middle" x="66.5" y="-1345.5" font-family="Helvetica,sans-Serif" font-size="10.00">+ITS</text>
<text text-anchor="middle" x="66.5" y="-1334.5" font-family="Helvetica,sans-Serif" font-size="10.00">+CPV</text>
<text text-anchor="middle" x="66.5" y="-1323.5" font-family="Helvetica,sans-Serif" font-size="10.00">...</text>
</g>
<!-- Node6 -->
<g id="node6" class="node"><title>Node6</title>
<g id="a_node6"><a xlink:href="../../d1/da0/classint.html" target="_top" xlink:title="{int\n||}">
<polygon fill="none" stroke="black" points="140.5,-1504.5 140.5,-1561.5 169.5,-1561.5 169.5,-1504.5 140.5,-1504.5"/>
<text text-anchor="middle" x="155" y="-1549.5" font-family="Helvetica,sans-Serif" font-size="10.00">int</text>
<polyline fill="none" stroke="black" points="140.5,-1542.5 169.5,-1542.5 "/>
<text text-anchor="middle" x="155" y="-1530.5" font-family="Helvetica,sans-Serif" font-size="10.00"> </text>
<polyline fill="none" stroke="black" points="140.5,-1523.5 169.5,-1523.5 "/>
<text text-anchor="middle" x="155" y="-1511.5" font-family="Helvetica,sans-Serif" font-size="10.00"> </text>
</a>
</g>
</g>
<!-- Node6&#45;&gt;Node3 -->
<g id="edge8" class="edge"><title>Node6&#45;&gt;Node3</title>
<path fill="none" stroke="#404040" d="M157.645,-1504.44C159.306,-1486.64 161.424,-1462.96 163,-1442 175.485,-1275.93 170.11,-1233.78 186,-1068 187.806,-1049.16 189.959,-1029.49 192.273,-1009.92"/>
<polygon fill="none" stroke="#404040" points="192.302,-1009.68 189.045,-1003.24 193.732,-997.762 196.988,-1004.2 192.302,-1009.68"/>
<text text-anchor="middle" x="204.5" y="-1182.5" font-family="Helvetica,sans-Serif" font-size="10.00"> +mSize</text>
</g>
<!-- Node6&#45;&gt;Node4 -->
<g id="edge5" class="edge"><title>Node6&#45;&gt;Node4</title>
<path fill="none" stroke="#404040" d="M140.282,-1511.71C128.445,-1494.2 112.582,-1467.72 105,-1442 92.9909,-1401.27 87.5688,-1355.37 85.4931,-1313.8"/>
<polygon fill="none" stroke="#404040" points="85.4852,-1313.61 81.2328,-1307.79 84.9731,-1301.63 89.2255,-1307.45 85.4852,-1313.61"/>
<text text-anchor="middle" x="134" y="-1378.5" font-family="Helvetica,sans-Serif" font-size="10.00"> +nDetectors</text>
</g>
<!-- Node7 -->
<g id="node7" class="node"><title>Node7</title>
<g id="a_node7"><a xlink:href="../../d4/daa/classo2_1_1detectors_1_1MatrixCache.html" target="_top" xlink:title="{o2::detectors::MatrixCache\l\&lt; o2::Transform3D \&gt;\n||+ MatrixCache()\l+ MatrixCache()\l+ ~MatrixCache()\l+ operator=()\l+ setSize()\l+ getSize()\l+ setMatrix()\l+ getMatrix()\l+ isFilled()\l}">
<polygon fill="none" stroke="black" points="232.5,-1107 232.5,-1263 367.5,-1263 367.5,-1107 232.5,-1107"/>
<text text-anchor="start" x="240.5" y="-1251" font-family="Helvetica,sans-Serif" font-size="10.00">o2::detectors::MatrixCache</text>
<text text-anchor="middle" x="300" y="-1240" font-family="Helvetica,sans-Serif" font-size="10.00">&lt; o2::Transform3D &gt;</text>
<polyline fill="none" stroke="black" points="232.5,-1233 367.5,-1233 "/>
<text text-anchor="middle" x="300" y="-1221" font-family="Helvetica,sans-Serif" font-size="10.00"> </text>
<polyline fill="none" stroke="black" points="232.5,-1214 367.5,-1214 "/>
<text text-anchor="start" x="240.5" y="-1202" font-family="Helvetica,sans-Serif" font-size="10.00">+ MatrixCache()</text>
<text text-anchor="start" x="240.5" y="-1191" font-family="Helvetica,sans-Serif" font-size="10.00">+ MatrixCache()</text>
<text text-anchor="start" x="240.5" y="-1180" font-family="Helvetica,sans-Serif" font-size="10.00">+ ~MatrixCache()</text>
<text text-anchor="start" x="240.5" y="-1169" font-family="Helvetica,sans-Serif" font-size="10.00">+ operator=()</text>
<text text-anchor="start" x="240.5" y="-1158" font-family="Helvetica,sans-Serif" font-size="10.00">+ setSize()</text>
<text text-anchor="start" x="240.5" y="-1147" font-family="Helvetica,sans-Serif" font-size="10.00">+ getSize()</text>
<text text-anchor="start" x="240.5" y="-1136" font-family="Helvetica,sans-Serif" font-size="10.00">+ setMatrix()</text>
<text text-anchor="start" x="240.5" y="-1125" font-family="Helvetica,sans-Serif" font-size="10.00">+ getMatrix()</text>
<text text-anchor="start" x="240.5" y="-1114" font-family="Helvetica,sans-Serif" font-size="10.00">+ isFilled()</text>
</a>
</g>
</g>
<!-- Node7&#45;&gt;Node3 -->
<g id="edge6" class="edge"><title>Node7&#45;&gt;Node3</title>
<path fill="none" stroke="#404040" d="M281.253,-1106.78C274.225,-1077.83 265.927,-1043.65 257.648,-1009.55"/>
<polygon fill="none" stroke="#404040" points="257.554,-1009.16 252.251,-1004.27 254.723,-997.5 260.025,-1002.39 257.554,-1009.16"/>
<text text-anchor="middle" x="284.5" y="-1041.5" font-family="Helvetica,sans-Serif" font-size="10.00"> +mT2G</text>
<text text-anchor="middle" x="284.5" y="-1030.5" font-family="Helvetica,sans-Serif" font-size="10.00">+mT2L</text>
<text text-anchor="middle" x="284.5" y="-1019.5" font-family="Helvetica,sans-Serif" font-size="10.00">+mL2G</text>
</g>
<!-- Node8 -->
<g id="node8" class="node"><title>Node8</title>
<g id="a_node8"><a xlink:href="../../d4/daa/classo2_1_1detectors_1_1MatrixCache.html" target="_top" xlink:title="MatrixCache is a vector of cached transform matrices (per sensor) for specific Transformation type...">
<polygon fill="none" stroke="black" points="288.5,-1460.5 288.5,-1605.5 447.5,-1605.5 447.5,-1460.5 288.5,-1460.5"/>
<text text-anchor="middle" x="368" y="-1593.5" font-family="Helvetica,sans-Serif" font-size="10.00">o2::detectors::MatrixCache&lt; T &gt;</text>
<polyline fill="none" stroke="black" points="288.5,-1586.5 447.5,-1586.5 "/>
<text text-anchor="middle" x="368" y="-1574.5" font-family="Helvetica,sans-Serif" font-size="10.00"> </text>
<polyline fill="none" stroke="black" points="288.5,-1567.5 447.5,-1567.5 "/>
<text text-anchor="start" x="296.5" y="-1555.5" font-family="Helvetica,sans-Serif" font-size="10.00">+ MatrixCache()</text>
<text text-anchor="start" x="296.5" y="-1544.5" font-family="Helvetica,sans-Serif" font-size="10.00">+ ~MatrixCache()</text>
<text text-anchor="start" x="296.5" y="-1533.5" font-family="Helvetica,sans-Serif" font-size="10.00">+ MatrixCache()</text>
<text text-anchor="start" x="296.5" y="-1522.5" font-family="Helvetica,sans-Serif" font-size="10.00">+ operator=()</text>
<text text-anchor="start" x="296.5" y="-1511.5" font-family="Helvetica,sans-Serif" font-size="10.00">+ setSize()</text>
<text text-anchor="start" x="296.5" y="-1500.5" font-family="Helvetica,sans-Serif" font-size="10.00">+ getSize()</text>
<text text-anchor="start" x="296.5" y="-1489.5" font-family="Helvetica,sans-Serif" font-size="10.00">+ setMatrix()</text>
<text text-anchor="start" x="296.5" y="-1478.5" font-family="Helvetica,sans-Serif" font-size="10.00">+ getMatrix()</text>
<text text-anchor="start" x="296.5" y="-1467.5" font-family="Helvetica,sans-Serif" font-size="10.00">+ isFilled()</text>
</a>
</g>
</g>
<!-- Node8&#45;&gt;Node7 -->
<g id="edge7" class="edge"><title>Node8&#45;&gt;Node7</title>
<path fill="none" stroke="orange" d="M329.636,-1450.84C328.683,-1447.88 327.799,-1444.93 327,-1442 310.977,-1383.25 304.362,-1314.52 301.679,-1263.08"/>
<polygon fill="orange" stroke="orange" points="326.33,-1451.99 332.9,-1460.3 332.947,-1449.71 326.33,-1451.99"/>
<text text-anchor="middle" x="374.5" y="-1378.5" font-family="Helvetica,sans-Serif" font-size="10.00"> &lt; o2::Transform3D &gt;</text>
</g>
<!-- Node9 -->
<g id="node9" class="node"><title>Node9</title>
<g id="a_node9"><a xlink:href="../../d4/daa/classo2_1_1detectors_1_1MatrixCache.html" target="_top" xlink:title="{o2::detectors::MatrixCache\l\&lt; o2::Rotation2D \&gt;\n||+ MatrixCache()\l+ MatrixCache()\l+ ~MatrixCache()\l+ operator=()\l+ setSize()\l+ getSize()\l+ setMatrix()\l+ getMatrix()\l+ isFilled()\l}">
<polygon fill="none" stroke="black" points="385.5,-1107 385.5,-1263 520.5,-1263 520.5,-1107 385.5,-1107"/>
<text text-anchor="start" x="393.5" y="-1251" font-family="Helvetica,sans-Serif" font-size="10.00">o2::detectors::MatrixCache</text>
<text text-anchor="middle" x="453" y="-1240" font-family="Helvetica,sans-Serif" font-size="10.00">&lt; o2::Rotation2D &gt;</text>
<polyline fill="none" stroke="black" points="385.5,-1233 520.5,-1233 "/>
<text text-anchor="middle" x="453" y="-1221" font-family="Helvetica,sans-Serif" font-size="10.00"> </text>
<polyline fill="none" stroke="black" points="385.5,-1214 520.5,-1214 "/>
<text text-anchor="start" x="393.5" y="-1202" font-family="Helvetica,sans-Serif" font-size="10.00">+ MatrixCache()</text>
<text text-anchor="start" x="393.5" y="-1191" font-family="Helvetica,sans-Serif" font-size="10.00">+ MatrixCache()</text>
<text text-anchor="start" x="393.5" y="-1180" font-family="Helvetica,sans-Serif" font-size="10.00">+ ~MatrixCache()</text>
<text text-anchor="start" x="393.5" y="-1169" font-family="Helvetica,sans-Serif" font-size="10.00">+ operator=()</text>
<text text-anchor="start" x="393.5" y="-1158" font-family="Helvetica,sans-Serif" font-size="10.00">+ setSize()</text>
<text text-anchor="start" x="393.5" y="-1147" font-family="Helvetica,sans-Serif" font-size="10.00">+ getSize()</text>
<text text-anchor="start" x="393.5" y="-1136" font-family="Helvetica,sans-Serif" font-size="10.00">+ setMatrix()</text>
<text text-anchor="start" x="393.5" y="-1125" font-family="Helvetica,sans-Serif" font-size="10.00">+ getMatrix()</text>
<text text-anchor="start" x="393.5" y="-1114" font-family="Helvetica,sans-Serif" font-size="10.00">+ isFilled()</text>
</a>
</g>
</g>
<!-- Node8&#45;&gt;Node9 -->
<g id="edge10" class="edge"><title>Node8&#45;&gt;Node9</title>
<path fill="none" stroke="orange" d="M418.648,-1450.9C419.86,-1447.94 420.983,-1444.96 422,-1442 441.865,-1384.09 449.353,-1315 452.019,-1263.2"/>
<polygon fill="orange" stroke="orange" points="415.323,-1449.77 414.501,-1460.33 421.73,-1452.59 415.323,-1449.77"/>
<text text-anchor="middle" x="491" y="-1378.5" font-family="Helvetica,sans-Serif" font-size="10.00"> &lt; o2::Rotation2D &gt;</text>
</g>
<!-- Node9&#45;&gt;Node3 -->
<g id="edge9" class="edge"><title>Node9&#45;&gt;Node3</title>
<path fill="none" stroke="#404040" d="M402.082,-1106.78C393.427,-1093.8 384.492,-1080.5 376,-1068 346.132,-1024.05 312.619,-975.728 284.012,-934.767"/>
<polygon fill="none" stroke="#404040" points="283.914,-934.628 277.199,-932.001 277.04,-924.792 283.756,-927.418 283.914,-934.628"/>
<text text-anchor="middle" x="390" y="-1030.5" font-family="Helvetica,sans-Serif" font-size="10.00"> +mT2GRot</text>
</g>
<!-- Node10 -->
<g id="node10" class="node"><title>Node10</title>
<polygon fill="none" stroke="#bfbfbf" points="305.5,-541.5 305.5,-598.5 346.5,-598.5 346.5,-541.5 305.5,-541.5"/>
<text text-anchor="middle" x="326" y="-586.5" font-family="Helvetica,sans-Serif" font-size="10.00">string</text>
<polyline fill="none" stroke="#bfbfbf" points="305.5,-579.5 346.5,-579.5 "/>
<text text-anchor="middle" x="326" y="-567.5" font-family="Helvetica,sans-Serif" font-size="10.00"> </text>
<polyline fill="none" stroke="#bfbfbf" points="305.5,-560.5 346.5,-560.5 "/>
<text text-anchor="middle" x="326" y="-548.5" font-family="Helvetica,sans-Serif" font-size="10.00"> </text>
</g>
<!-- Node10&#45;&gt;Node1 -->
<g id="edge11" class="edge"><title>Node10&#45;&gt;Node1</title>
<path fill="none" stroke="#404040" d="M324.252,-541.294C323.262,-510.241 324.568,-458.889 340,-418 355.165,-377.821 379.885,-338.45 405.317,-304.511"/>
<polygon fill="none" stroke="#404040" points="405.582,-304.164 406.041,-296.968 412.861,-294.624 412.401,-301.821 405.582,-304.164"/>
<text text-anchor="middle" x="376.5" y="-476" font-family="Helvetica,sans-Serif" font-size="10.00"> #sVolumeName</text>
<text text-anchor="middle" x="376.5" y="-465" font-family="Helvetica,sans-Serif" font-size="10.00">#sChipName</text>
<text text-anchor="middle" x="376.5" y="-454" font-family="Helvetica,sans-Serif" font-size="10.00">#sDiskName</text>
<text text-anchor="middle" x="376.5" y="-443" font-family="Helvetica,sans-Serif" font-size="10.00">#sLadderName</text>
<text text-anchor="middle" x="376.5" y="-432" font-family="Helvetica,sans-Serif" font-size="10.00">#sHalfName</text>
<text text-anchor="middle" x="376.5" y="-421" font-family="Helvetica,sans-Serif" font-size="10.00">#sSensorName</text>
</g>
<!-- Node11 -->
<g id="node11" class="node"><title>Node11</title>
<polygon fill="none" stroke="#bfbfbf" points="381.5,-541.5 381.5,-598.5 462.5,-598.5 462.5,-541.5 381.5,-541.5"/>
<text text-anchor="middle" x="422" y="-586.5" font-family="Helvetica,sans-Serif" font-size="10.00">vector&lt; Int_t &gt;</text>
<polyline fill="none" stroke="#bfbfbf" points="381.5,-579.5 462.5,-579.5 "/>
<text text-anchor="middle" x="422" y="-567.5" font-family="Helvetica,sans-Serif" font-size="10.00"> </text>
<polyline fill="none" stroke="#bfbfbf" points="381.5,-560.5 462.5,-560.5 "/>
<text text-anchor="middle" x="422" y="-548.5" font-family="Helvetica,sans-Serif" font-size="10.00"> </text>
</g>
<!-- Node11&#45;&gt;Node1 -->
<g id="edge12" class="edge"><title>Node11&#45;&gt;Node1</title>
<path fill="none" stroke="#404040" d="M420.781,-541.444C420.107,-524.812 419.339,-503.193 419,-484 418.483,-454.671 413.905,-446.888 419,-418 419.411,-415.668 419.846,-413.328 420.302,-410.982"/>
<polygon fill="none" stroke="#404040" points="420.308,-410.953 417.617,-404.263 422.758,-399.206 425.449,-405.896 420.308,-410.953"/>
<text text-anchor="middle" x="484" y="-470.5" font-family="Helvetica,sans-Serif" font-size="10.00"> #mSensorIndexToLayer</text>
<text text-anchor="middle" x="484" y="-459.5" font-family="Helvetica,sans-Serif" font-size="10.00">#mNumberOfSensorsPerDisk</text>
<text text-anchor="middle" x="484" y="-448.5" font-family="Helvetica,sans-Serif" font-size="10.00">#mNumberOfLaddersPerDisk</text>
<text text-anchor="middle" x="484" y="-437.5" font-family="Helvetica,sans-Serif" font-size="10.00">#mLastSensorIndex</text>
<text text-anchor="middle" x="484" y="-426.5" font-family="Helvetica,sans-Serif" font-size="10.00">#mNumberOfDisks</text>
</g>
<!-- Node12 -->
<g id="node12" class="node"><title>Node12</title>
<polygon fill="none" stroke="#bfbfbf" points="526,-541.5 526,-598.5 618,-598.5 618,-541.5 526,-541.5"/>
<text text-anchor="middle" x="572" y="-586.5" font-family="Helvetica,sans-Serif" font-size="10.00">vector&lt; Float_t &gt;</text>
<polyline fill="none" stroke="#bfbfbf" points="526,-579.5 618,-579.5 "/>
<text text-anchor="middle" x="572" y="-567.5" font-family="Helvetica,sans-Serif" font-size="10.00"> </text>
<polyline fill="none" stroke="#bfbfbf" points="526,-560.5 618,-560.5 "/>
<text text-anchor="middle" x="572" y="-548.5" font-family="Helvetica,sans-Serif" font-size="10.00"> </text>
</g>
<!-- Node12&#45;&gt;Node1 -->
<g id="edge13" class="edge"><title>Node12&#45;&gt;Node1</title>
<path fill="none" stroke="#404040" d="M569.545,-541.287C566.612,-510.879 561.068,-460.709 553,-418 552.56,-415.673 552.111,-413.333 551.651,-410.984"/>
<polygon fill="none" stroke="#404040" points="551.639,-410.925 546.537,-405.829 549.279,-399.159 554.381,-404.255 551.639,-410.925"/>
<text text-anchor="middle" x="603.5" y="-448.5" font-family="Helvetica,sans-Serif" font-size="10.00"> #mLayerMedianZ</text>
</g>
<!-- Node13 -->
<g id="node13" class="node"><title>Node13</title>
<polygon fill="none" stroke="#bfbfbf" points="636.5,-536 636.5,-604 735.5,-604 735.5,-536 636.5,-536"/>
<text text-anchor="start" x="644.5" y="-592" font-family="Helvetica,sans-Serif" font-size="10.00">vector&lt; std::vector</text>
<text text-anchor="middle" x="686" y="-581" font-family="Helvetica,sans-Serif" font-size="10.00">&lt; Int_t &gt; &gt;</text>
<polyline fill="none" stroke="#bfbfbf" points="636.5,-574 735.5,-574 "/>
<text text-anchor="middle" x="686" y="-562" font-family="Helvetica,sans-Serif" font-size="10.00"> </text>
<polyline fill="none" stroke="#bfbfbf" points="636.5,-555 735.5,-555 "/>
<text text-anchor="middle" x="686" y="-543" font-family="Helvetica,sans-Serif" font-size="10.00"> </text>
</g>
<!-- Node13&#45;&gt;Node1 -->
<g id="edge14" class="edge"><title>Node13&#45;&gt;Node1</title>
<path fill="none" stroke="#404040" d="M680.862,-535.777C675.223,-504.41 664.557,-456.565 647,-418 631.58,-384.129 610.892,-349.848 589.849,-318.846"/>
<polygon fill="none" stroke="#404040" points="589.809,-318.788 583.113,-316.11 583.01,-308.9 589.706,-311.578 589.809,-318.788"/>
<text text-anchor="middle" x="718.5" y="-459.5" font-family="Helvetica,sans-Serif" font-size="10.00"> #mNumberOfLadders</text>
<text text-anchor="middle" x="718.5" y="-448.5" font-family="Helvetica,sans-Serif" font-size="10.00">#mLadderId2Index</text>
<text text-anchor="middle" x="718.5" y="-437.5" font-family="Helvetica,sans-Serif" font-size="10.00">#mLadderIndex2Id</text>
</g>
<!-- Node14 -->
<g id="node14" class="node"><title>Node14</title>
<polygon fill="none" stroke="#bfbfbf" points="785,-541.5 785,-598.5 821,-598.5 821,-541.5 785,-541.5"/>
<text text-anchor="middle" x="803" y="-586.5" font-family="Helvetica,sans-Serif" font-size="10.00">Int_t</text>
<polyline fill="none" stroke="#bfbfbf" points="785,-579.5 821,-579.5 "/>
<text text-anchor="middle" x="803" y="-567.5" font-family="Helvetica,sans-Serif" font-size="10.00"> </text>
<polyline fill="none" stroke="#bfbfbf" points="785,-560.5 821,-560.5 "/>
<text text-anchor="middle" x="803" y="-548.5" font-family="Helvetica,sans-Serif" font-size="10.00"> </text>
</g>
<!-- Node14&#45;&gt;Node1 -->
<g id="edge15" class="edge"><title>Node14&#45;&gt;Node1</title>
<path fill="none" stroke="#404040" d="M802.652,-541.311C801.065,-509.352 794.685,-456.286 771,-418 727.716,-348.033 653.462,-291.202 593.312,-253.276"/>
<polygon fill="none" stroke="#404040" points="593.217,-253.217 586.009,-253.448 583.023,-246.885 590.231,-246.653 593.217,-253.217"/>
<text text-anchor="middle" x="853.5" y="-465" font-family="Helvetica,sans-Serif" font-size="10.00"> #mNumberOfHalves</text>
<text text-anchor="middle" x="853.5" y="-454" font-family="Helvetica,sans-Serif" font-size="10.00">#MinSensorsPerLadder</text>
<text text-anchor="middle" x="853.5" y="-443" font-family="Helvetica,sans-Serif" font-size="10.00">#MaxSensorsPerLadder</text>
<text text-anchor="middle" x="853.5" y="-432" font-family="Helvetica,sans-Serif" font-size="10.00">#mTotalNumberOfSensors</text>
</g>
</g>
</svg>
