<?xml version="1.0" encoding="UTF-8" standalone="no"?>
<!DOCTYPE svg PUBLIC "-//W3C//DTD SVG 1.1//EN"
 "http://www.w3.org/Graphics/SVG/1.1/DTD/svg11.dtd">
<!-- Generated by graphviz version 2.36.0 (20140111.2315)
 -->
<!-- Title: /home/travis/build/AliceO2Group/AliceO2/Detectors/MUON/MID/Simulation/src/ChamberHV.cxx Pages: 1 -->
<svg width="191pt" height="230pt"
 viewBox="0.00 0.00 191.00 230.00" xmlns="http://www.w3.org/2000/svg" xmlns:xlink="http://www.w3.org/1999/xlink">
<g id="graph0" class="graph" transform="scale(1 1) rotate(0) translate(4 226)">
<title>/home/travis/build/AliceO2Group/AliceO2/Detectors/MUON/MID/Simulation/src/ChamberHV.cxx</title>
<!-- Node1 -->
<g id="node1" class="node"><title>Node1</title>
<polygon fill="#bfbfbf" stroke="black" points="-0.5,-169 -0.5,-221 166.5,-221 166.5,-169 -0.5,-169"/>
<text text-anchor="start" x="7.5" y="-209" font-family="Helvetica,sans-Serif" font-size="10.00">/home/travis/build</text>
<text text-anchor="start" x="7.5" y="-198" font-family="Helvetica,sans-Serif" font-size="10.00">/AliceO2Group/AliceO2</text>
<text text-anchor="start" x="7.5" y="-187" font-family="Helvetica,sans-Serif" font-size="10.00">/Detectors/MUON/MID/Simulation</text>
<text text-anchor="middle" x="83" y="-176" font-family="Helvetica,sans-Serif" font-size="10.00">/src/ChamberHV.cxx</text>
</g>
<!-- Node2 -->
<g id="node2" class="node"><title>Node2</title>
<g id="a_node2"><a xlink:href="../../d8/d82/ChamberHV_8h.html" target="_top" xlink:title="HV values for MID RPCs. ">
<polygon fill="none" stroke="black" points="10,-112.5 10,-131.5 156,-131.5 156,-112.5 10,-112.5"/>
<text text-anchor="middle" x="83" y="-119.5" font-family="Helvetica,sans-Serif" font-size="10.00">MIDSimulation/ChamberHV.h</text>
</a>
</g>
</g>
<!-- Node1&#45;&gt;Node2 -->
<g id="edge1" class="edge"><title>Node1&#45;&gt;Node2</title>
<path fill="none" stroke="midnightblue" d="M83,-168.768C83,-159.89 83,-150.074 83,-141.816"/>
<polygon fill="midnightblue" stroke="midnightblue" points="86.5001,-141.757 83,-131.757 79.5001,-141.757 86.5001,-141.757"/>
</g>
<!-- Node3 -->
<g id="node3" class="node"><title>Node3</title>
<polygon fill="none" stroke="#bfbfbf" points="35,-0.5 35,-19.5 73,-19.5 73,-0.5 35,-0.5"/>
<text text-anchor="middle" x="54" y="-7.5" font-family="Helvetica,sans-Serif" font-size="10.00">array</text>
</g>
<!-- Node2&#45;&gt;Node3 -->
<g id="edge2" class="edge"><title>Node2&#45;&gt;Node3</title>
<path fill="none" stroke="midnightblue" d="M77.3722,-112.45C71.917,-103.69 63.9101,-89.4825 60,-76 55.6054,-60.8471 54.2161,-42.9519 53.8631,-29.7784"/>
<polygon fill="midnightblue" stroke="midnightblue" points="57.3615,-29.5723 53.7701,-19.6047 50.3618,-29.6363 57.3615,-29.5723"/>
</g>
<!-- Node4 -->
<g id="node4" class="node"><title>Node4</title>
<g id="a_node4"><a xlink:href="../../dd/df0/Detectors_2MUON_2MID_2Base_2include_2MIDBase_2Constants_8h.html" target="_top" xlink:title="Useful constants for MID. ">
<polygon fill="none" stroke="black" points="69,-56.5 69,-75.5 183,-75.5 183,-56.5 69,-56.5"/>
<text text-anchor="middle" x="126" y="-63.5" font-family="Helvetica,sans-Serif" font-size="10.00">MIDBase/Constants.h</text>
</a>
</g>
</g>
<!-- Node2&#45;&gt;Node4 -->
<g id="edge3" class="edge"><title>Node2&#45;&gt;Node4</title>
<path fill="none" stroke="midnightblue" d="M90.1006,-112.083C96.237,-104.377 105.27,-93.0333 112.739,-83.6531"/>
<polygon fill="midnightblue" stroke="midnightblue" points="115.54,-85.7542 119.032,-75.7511 110.064,-81.3936 115.54,-85.7542"/>
</g>
<!-- Node4&#45;&gt;Node3 -->
<g id="edge4" class="edge"><title>Node4&#45;&gt;Node3</title>
<path fill="none" stroke="midnightblue" d="M114.432,-56.324C103.58,-48.1849 87.1193,-35.8395 74.1166,-26.0874"/>
<polygon fill="midnightblue" stroke="midnightblue" points="75.8786,-23.0339 65.7785,-19.8339 71.6785,-28.6339 75.8786,-23.0339"/>
</g>
<!-- Node5 -->
<g id="node5" class="node"><title>Node5</title>
<polygon fill="none" stroke="#bfbfbf" points="105.5,-0.5 105.5,-19.5 146.5,-19.5 146.5,-0.5 105.5,-0.5"/>
<text text-anchor="middle" x="126" y="-7.5" font-family="Helvetica,sans-Serif" font-size="10.00">string</text>
</g>
<!-- Node4&#45;&gt;Node5 -->
<g id="edge5" class="edge"><title>Node4&#45;&gt;Node5</title>
<path fill="none" stroke="midnightblue" d="M126,-56.083C126,-49.0059 126,-38.8611 126,-29.9865"/>
<polygon fill="midnightblue" stroke="midnightblue" points="129.5,-29.751 126,-19.7511 122.5,-29.7511 129.5,-29.751"/>
</g>
</g>
</svg>
