<?xml version="1.0" encoding="UTF-8" standalone="no"?>
<!DOCTYPE svg PUBLIC "-//W3C//DTD SVG 1.1//EN"
 "http://www.w3.org/Graphics/SVG/1.1/DTD/svg11.dtd">
<!-- Generated by graphviz version 2.36.0 (20140111.2315)
 -->
<!-- Title: /home/travis/build/AliceO2Group/AliceO2/Examples/flp2epn&#45;distributed/include/FLP2EPNex_distributed/FLPSender.h Pages: 1 -->
<svg width="381pt" height="128pt"
 viewBox="0.00 0.00 381.00 128.00" xmlns="http://www.w3.org/2000/svg" xmlns:xlink="http://www.w3.org/1999/xlink">
<g id="graph0" class="graph" transform="scale(1 1) rotate(0) translate(4 124)">
<title>/home/travis/build/AliceO2Group/AliceO2/Examples/flp2epn&#45;distributed/include/FLP2EPNex_distributed/FLPSender.h</title>
<!-- Node1 -->
<g id="node1" class="node"><title>Node1</title>
<polygon fill="#bfbfbf" stroke="black" points="82,-56.5 82,-119.5 240,-119.5 240,-56.5 82,-56.5"/>
<text text-anchor="start" x="90" y="-107.5" font-family="Helvetica,sans-Serif" font-size="10.00">/home/travis/build</text>
<text text-anchor="start" x="90" y="-96.5" font-family="Helvetica,sans-Serif" font-size="10.00">/AliceO2Group/AliceO2</text>
<text text-anchor="start" x="90" y="-85.5" font-family="Helvetica,sans-Serif" font-size="10.00">/Examples/flp2epn&#45;distributed</text>
<text text-anchor="start" x="90" y="-74.5" font-family="Helvetica,sans-Serif" font-size="10.00">/include/FLP2EPNex_distributed</text>
<text text-anchor="middle" x="161" y="-63.5" font-family="Helvetica,sans-Serif" font-size="10.00">/FLPSender.h</text>
</g>
<!-- Node2 -->
<g id="node2" class="node"><title>Node2</title>
<polygon fill="none" stroke="#bfbfbf" points="-0.5,-0.5 -0.5,-19.5 40.5,-19.5 40.5,-0.5 -0.5,-0.5"/>
<text text-anchor="middle" x="20" y="-7.5" font-family="Helvetica,sans-Serif" font-size="10.00">string</text>
</g>
<!-- Node1&#45;&gt;Node2 -->
<g id="edge1" class="edge"><title>Node1&#45;&gt;Node2</title>
<path fill="none" stroke="midnightblue" d="M104.056,-56.307C83.4832,-45.2179 61.3096,-33.2662 44.9045,-24.4237"/>
<polygon fill="midnightblue" stroke="midnightblue" points="46.4311,-21.2705 35.9677,-19.6067 43.1097,-27.4324 46.4311,-21.2705"/>
</g>
<!-- Node3 -->
<g id="node3" class="node"><title>Node3</title>
<polygon fill="none" stroke="#bfbfbf" points="58.5,-0.5 58.5,-19.5 101.5,-19.5 101.5,-0.5 58.5,-0.5"/>
<text text-anchor="middle" x="80" y="-7.5" font-family="Helvetica,sans-Serif" font-size="10.00">queue</text>
</g>
<!-- Node1&#45;&gt;Node3 -->
<g id="edge2" class="edge"><title>Node1&#45;&gt;Node3</title>
<path fill="none" stroke="midnightblue" d="M128.054,-56.0879C117.323,-46.0194 105.859,-35.2627 96.8201,-26.7819"/>
<polygon fill="midnightblue" stroke="midnightblue" points="98.9792,-24.0082 89.2917,-19.7182 94.1895,-29.113 98.9792,-24.0082"/>
</g>
<!-- Node4 -->
<g id="node4" class="node"><title>Node4</title>
<polygon fill="none" stroke="#bfbfbf" points="119.5,-0.5 119.5,-19.5 202.5,-19.5 202.5,-0.5 119.5,-0.5"/>
<text text-anchor="middle" x="161" y="-7.5" font-family="Helvetica,sans-Serif" font-size="10.00">unordered_map</text>
</g>
<!-- Node1&#45;&gt;Node4 -->
<g id="edge3" class="edge"><title>Node1&#45;&gt;Node4</title>
<path fill="none" stroke="midnightblue" d="M161,-56.0879C161,-47.1496 161,-37.6688 161,-29.7195"/>
<polygon fill="midnightblue" stroke="midnightblue" points="164.5,-29.7181 161,-19.7182 157.5,-29.7182 164.5,-29.7181"/>
</g>
<!-- Node5 -->
<g id="node5" class="node"><title>Node5</title>
<polygon fill="none" stroke="#bfbfbf" points="221,-0.5 221,-19.5 267,-19.5 267,-0.5 221,-0.5"/>
<text text-anchor="middle" x="244" y="-7.5" font-family="Helvetica,sans-Serif" font-size="10.00">chrono</text>
</g>
<!-- Node1&#45;&gt;Node5 -->
<g id="edge4" class="edge"><title>Node1&#45;&gt;Node5</title>
<path fill="none" stroke="midnightblue" d="M194.759,-56.0879C205.867,-45.9167 217.742,-35.0431 227.047,-26.5229"/>
<polygon fill="midnightblue" stroke="midnightblue" points="229.467,-29.0528 234.479,-19.7182 224.74,-23.8901 229.467,-29.0528"/>
</g>
<!-- Node6 -->
<g id="node6" class="node"><title>Node6</title>
<polygon fill="none" stroke="#bfbfbf" points="285,-0.5 285,-19.5 373,-19.5 373,-0.5 285,-0.5"/>
<text text-anchor="middle" x="329" y="-7.5" font-family="Helvetica,sans-Serif" font-size="10.00">FairMQDevice.h</text>
</g>
<!-- Node1&#45;&gt;Node6 -->
<g id="edge5" class="edge"><title>Node1&#45;&gt;Node6</title>
<path fill="none" stroke="midnightblue" d="M228.848,-56.307C253.933,-44.9588 281.016,-32.7072 300.685,-23.809"/>
<polygon fill="midnightblue" stroke="midnightblue" points="302.306,-26.9173 309.975,-19.6067 299.421,-20.5396 302.306,-26.9173"/>
</g>
</g>
</svg>
