<?xml version="1.0" encoding="UTF-8" standalone="no"?>
<!DOCTYPE svg PUBLIC "-//W3C//DTD SVG 1.1//EN"
 "http://www.w3.org/Graphics/SVG/1.1/DTD/svg11.dtd">
<!-- Generated by graphviz version 2.36.0 (20140111.2315)
 -->
<!-- Title: /home/travis/build/AliceO2Group/AliceO2/Framework/Core/src/ChannelConfigurationPolicyHelpers.cxx Pages: 1 -->
<svg width="261pt" height="242pt"
 viewBox="0.00 0.00 260.55 242.00" xmlns="http://www.w3.org/2000/svg" xmlns:xlink="http://www.w3.org/1999/xlink">
<g id="graph0" class="graph" transform="scale(1 1) rotate(0) translate(4 238)">
<title>/home/travis/build/AliceO2Group/AliceO2/Framework/Core/src/ChannelConfigurationPolicyHelpers.cxx</title>
<!-- Node1 -->
<g id="node1" class="node"><title>Node1</title>
<polygon fill="#bfbfbf" stroke="black" points="46.5483,-181 46.5483,-233 252.548,-233 252.548,-181 46.5483,-181"/>
<text text-anchor="start" x="54.5483" y="-221" font-family="Helvetica,sans-Serif" font-size="10.00">/home/travis/build</text>
<text text-anchor="start" x="54.5483" y="-210" font-family="Helvetica,sans-Serif" font-size="10.00">/AliceO2Group/AliceO2</text>
<text text-anchor="start" x="54.5483" y="-199" font-family="Helvetica,sans-Serif" font-size="10.00">/Framework/Core/src/ChannelConfiguration</text>
<text text-anchor="middle" x="149.548" y="-188" font-family="Helvetica,sans-Serif" font-size="10.00">PolicyHelpers.cxx</text>
</g>
<!-- Node2 -->
<g id="node2" class="node"><title>Node2</title>
<g id="a_node2"><a xlink:href="../../d6/d05/ChannelConfigurationPolicyHelpers_8h.html" target="_top" xlink:title="Framework/ChannelConfiguration\lPolicyHelpers.h">
<polygon fill="none" stroke="black" points="14.5483,-113 14.5483,-143 176.548,-143 176.548,-113 14.5483,-113"/>
<text text-anchor="start" x="22.5483" y="-131" font-family="Helvetica,sans-Serif" font-size="10.00">Framework/ChannelConfiguration</text>
<text text-anchor="middle" x="95.5483" y="-120" font-family="Helvetica,sans-Serif" font-size="10.00">PolicyHelpers.h</text>
</a>
</g>
</g>
<!-- Node1&#45;&gt;Node2 -->
<g id="edge1" class="edge"><title>Node1&#45;&gt;Node2</title>
<path fill="none" stroke="midnightblue" d="M131.867,-180.787C125.247,-171.348 117.775,-160.694 111.337,-151.514"/>
<polygon fill="midnightblue" stroke="midnightblue" points="114.151,-149.43 105.543,-143.252 108.419,-153.449 114.151,-149.43"/>
</g>
<!-- Node3 -->
<g id="node3" class="node"><title>Node3</title>
<g id="a_node3"><a xlink:href="../../d6/d72/ChannelSpec_8h.html" target="_top" xlink:title="Framework/ChannelSpec.h">
<polygon fill="none" stroke="black" points="2.04832,-56.5 2.04832,-75.5 137.048,-75.5 137.048,-56.5 2.04832,-56.5"/>
<text text-anchor="middle" x="69.5483" y="-63.5" font-family="Helvetica,sans-Serif" font-size="10.00">Framework/ChannelSpec.h</text>
</a>
</g>
</g>
<!-- Node1&#45;&gt;Node3 -->
<g id="edge7" class="edge"><title>Node1&#45;&gt;Node3</title>
<path fill="none" stroke="midnightblue" d="M49.2796,-180.952C31.981,-172.1 16.1732,-160.142 5.54832,-144 -2.27094,-132.12 -1.00644,-124.622 5.54832,-112 12.7014,-98.2262 26.2195,-87.783 38.9956,-80.4413"/>
<polygon fill="midnightblue" stroke="midnightblue" points="40.8649,-83.412 48.0657,-75.6403 37.5901,-77.2252 40.8649,-83.412"/>
</g>
<!-- Node4 -->
<g id="node4" class="node"><title>Node4</title>
<polygon fill="none" stroke="#bfbfbf" points="135.048,-0.5 135.048,-19.5 176.048,-19.5 176.048,-0.5 135.048,-0.5"/>
<text text-anchor="middle" x="155.548" y="-7.5" font-family="Helvetica,sans-Serif" font-size="10.00">string</text>
</g>
<!-- Node1&#45;&gt;Node4 -->
<g id="edge6" class="edge"><title>Node1&#45;&gt;Node4</title>
<path fill="none" stroke="midnightblue" d="M174.583,-180.855C184.095,-170.198 194.359,-157.201 201.548,-144 216.677,-116.222 217.829,-107.277 222.548,-76 223.875,-67.2106 226.729,-63.8443 222.548,-56 214.623,-41.1306 199.36,-30.3014 185.402,-22.9976"/>
<polygon fill="midnightblue" stroke="midnightblue" points="186.581,-19.681 176.053,-18.498 183.546,-25.9886 186.581,-19.681"/>
</g>
<!-- Node5 -->
<g id="node5" class="node"><title>Node5</title>
<polygon fill="none" stroke="#bfbfbf" points="155.048,-56.5 155.048,-75.5 214.048,-75.5 214.048,-56.5 155.048,-56.5"/>
<text text-anchor="middle" x="184.548" y="-63.5" font-family="Helvetica,sans-Serif" font-size="10.00">functional</text>
</g>
<!-- Node1&#45;&gt;Node5 -->
<g id="edge5" class="edge"><title>Node1&#45;&gt;Node5</title>
<path fill="none" stroke="midnightblue" d="M168.228,-180.809C175.1,-170.043 182.053,-156.98 185.548,-144 190.751,-124.678 189.528,-101.629 187.615,-85.8161"/>
<polygon fill="midnightblue" stroke="midnightblue" points="191.055,-85.1448 186.182,-75.7371 184.125,-86.1303 191.055,-85.1448"/>
</g>
<!-- Node2&#45;&gt;Node3 -->
<g id="edge2" class="edge"><title>Node2&#45;&gt;Node3</title>
<path fill="none" stroke="midnightblue" d="M89.3867,-112.781C85.8033,-104.512 81.2509,-94.006 77.4111,-85.1448"/>
<polygon fill="midnightblue" stroke="midnightblue" points="80.5191,-83.5144 73.3315,-75.7305 74.0962,-86.2977 80.5191,-83.5144"/>
</g>
<!-- Node2&#45;&gt;Node5 -->
<g id="edge4" class="edge"><title>Node2&#45;&gt;Node5</title>
<path fill="none" stroke="midnightblue" d="M116.64,-112.781C130.724,-103.286 149.181,-90.8434 163.297,-81.3267"/>
<polygon fill="midnightblue" stroke="midnightblue" points="165.522,-84.0478 171.857,-75.5557 161.609,-78.2436 165.522,-84.0478"/>
</g>
<!-- Node3&#45;&gt;Node4 -->
<g id="edge3" class="edge"><title>Node3&#45;&gt;Node4</title>
<path fill="none" stroke="midnightblue" d="M83.3657,-56.324C96.7813,-47.9002 117.372,-34.9709 133.134,-25.0741"/>
<polygon fill="midnightblue" stroke="midnightblue" points="135.158,-27.9364 141.765,-19.6545 131.435,-22.0081 135.158,-27.9364"/>
</g>
</g>
</svg>
