<?xml version="1.0" encoding="UTF-8" standalone="no"?>
<!DOCTYPE svg PUBLIC "-//W3C//DTD SVG 1.1//EN"
 "http://www.w3.org/Graphics/SVG/1.1/DTD/svg11.dtd">
<!-- Generated by graphviz version 2.36.0 (20140111.2315)
 -->
<!-- Title: /home/travis/build/AliceO2Group/AliceO2/Detectors/EMCAL/simulation/src/SpaceFrame.cxx Pages: 1 -->
<svg width="1163pt" height="174pt"
 viewBox="0.00 0.00 1163.00 174.00" xmlns="http://www.w3.org/2000/svg" xmlns:xlink="http://www.w3.org/1999/xlink">
<g id="graph0" class="graph" transform="scale(1 1) rotate(0) translate(4 170)">
<title>/home/travis/build/AliceO2Group/AliceO2/Detectors/EMCAL/simulation/src/SpaceFrame.cxx</title>
<!-- Node1 -->
<g id="node1" class="node"><title>Node1</title>
<polygon fill="#bfbfbf" stroke="black" points="487.5,-113 487.5,-165 634.5,-165 634.5,-113 487.5,-113"/>
<text text-anchor="start" x="495.5" y="-153" font-family="Helvetica,sans-Serif" font-size="10.00">/home/travis/build</text>
<text text-anchor="start" x="495.5" y="-142" font-family="Helvetica,sans-Serif" font-size="10.00">/AliceO2Group/AliceO2</text>
<text text-anchor="start" x="495.5" y="-131" font-family="Helvetica,sans-Serif" font-size="10.00">/Detectors/EMCAL/simulation</text>
<text text-anchor="middle" x="561" y="-120" font-family="Helvetica,sans-Serif" font-size="10.00">/src/SpaceFrame.cxx</text>
</g>
<!-- Node2 -->
<g id="node2" class="node"><title>Node2</title>
<polygon fill="none" stroke="#bfbfbf" points="-0.5,-56.5 -0.5,-75.5 70.5,-75.5 70.5,-56.5 -0.5,-56.5"/>
<text text-anchor="middle" x="35" y="-63.5" font-family="Helvetica,sans-Serif" font-size="10.00">FairLogger.h</text>
</g>
<!-- Node1&#45;&gt;Node2 -->
<g id="edge1" class="edge"><title>Node1&#45;&gt;Node2</title>
<path fill="none" stroke="midnightblue" d="M487.429,-130.119C394.899,-119.848 230.969,-100.464 80.698,-76.0142"/>
<polygon fill="midnightblue" stroke="midnightblue" points="81.2548,-72.5589 70.8205,-74.3965 80.1233,-79.4668 81.2548,-72.5589"/>
</g>
<!-- Node3 -->
<g id="node3" class="node"><title>Node3</title>
<polygon fill="none" stroke="#bfbfbf" points="89,-56.5 89,-75.5 213,-75.5 213,-56.5 89,-56.5"/>
<text text-anchor="middle" x="151" y="-63.5" font-family="Helvetica,sans-Serif" font-size="10.00">TGeoCompositeShape.h</text>
</g>
<!-- Node1&#45;&gt;Node3 -->
<g id="edge2" class="edge"><title>Node1&#45;&gt;Node3</title>
<path fill="none" stroke="midnightblue" d="M487.227,-125.225C407.957,-111.497 283.526,-89.9497 210.337,-77.2755"/>
<polygon fill="midnightblue" stroke="midnightblue" points="210.811,-73.8054 200.36,-75.5477 209.616,-80.7028 210.811,-73.8054"/>
</g>
<!-- Node4 -->
<g id="node4" class="node"><title>Node4</title>
<polygon fill="none" stroke="#bfbfbf" points="231,-56.5 231,-75.5 303,-75.5 303,-56.5 231,-56.5"/>
<text text-anchor="middle" x="267" y="-63.5" font-family="Helvetica,sans-Serif" font-size="10.00">TGeoCone.h</text>
</g>
<!-- Node1&#45;&gt;Node4 -->
<g id="edge3" class="edge"><title>Node1&#45;&gt;Node4</title>
<path fill="none" stroke="midnightblue" d="M487.191,-120.175C432.203,-106.896 358.87,-89.1863 312.281,-77.9352"/>
<polygon fill="midnightblue" stroke="midnightblue" points="313.017,-74.5125 302.475,-75.5672 311.374,-81.3169 313.017,-74.5125"/>
</g>
<!-- Node5 -->
<g id="node5" class="node"><title>Node5</title>
<polygon fill="none" stroke="#bfbfbf" points="321,-56.5 321,-75.5 407,-75.5 407,-56.5 321,-56.5"/>
<text text-anchor="middle" x="364" y="-63.5" font-family="Helvetica,sans-Serif" font-size="10.00">TGeoManager.h</text>
</g>
<!-- Node1&#45;&gt;Node5 -->
<g id="edge4" class="edge"><title>Node1&#45;&gt;Node5</title>
<path fill="none" stroke="midnightblue" d="M491.545,-112.968C459.664,-101.478 423.325,-88.381 397.612,-79.1141"/>
<polygon fill="midnightblue" stroke="midnightblue" points="398.564,-75.7368 387.97,-75.6389 396.191,-82.3222 398.564,-75.7368"/>
</g>
<!-- Node6 -->
<g id="node6" class="node"><title>Node6</title>
<polygon fill="none" stroke="#bfbfbf" points="425,-56.5 425,-75.5 501,-75.5 501,-56.5 425,-56.5"/>
<text text-anchor="middle" x="463" y="-63.5" font-family="Helvetica,sans-Serif" font-size="10.00">TGeoMatrix.h</text>
</g>
<!-- Node1&#45;&gt;Node6 -->
<g id="edge5" class="edge"><title>Node1&#45;&gt;Node6</title>
<path fill="none" stroke="midnightblue" d="M526.449,-112.968C512.081,-102.559 495.894,-90.8313 483.465,-81.827"/>
<polygon fill="midnightblue" stroke="midnightblue" points="485.311,-78.8422 475.16,-75.8095 481.204,-84.5109 485.311,-78.8422"/>
</g>
<!-- Node7 -->
<g id="node7" class="node"><title>Node7</title>
<polygon fill="none" stroke="#bfbfbf" points="519.5,-56.5 519.5,-75.5 602.5,-75.5 602.5,-56.5 519.5,-56.5"/>
<text text-anchor="middle" x="561" y="-63.5" font-family="Helvetica,sans-Serif" font-size="10.00">TGeoMedium.h</text>
</g>
<!-- Node1&#45;&gt;Node7 -->
<g id="edge6" class="edge"><title>Node1&#45;&gt;Node7</title>
<path fill="none" stroke="midnightblue" d="M561,-112.768C561,-103.89 561,-94.0737 561,-85.8165"/>
<polygon fill="midnightblue" stroke="midnightblue" points="564.5,-85.7571 561,-75.7572 557.5,-85.7572 564.5,-85.7571"/>
</g>
<!-- Node8 -->
<g id="node8" class="node"><title>Node8</title>
<polygon fill="none" stroke="#bfbfbf" points="620.5,-56.5 620.5,-75.5 691.5,-75.5 691.5,-56.5 620.5,-56.5"/>
<text text-anchor="middle" x="656" y="-63.5" font-family="Helvetica,sans-Serif" font-size="10.00">TGeoPcon.h</text>
</g>
<!-- Node1&#45;&gt;Node8 -->
<g id="edge7" class="edge"><title>Node1&#45;&gt;Node8</title>
<path fill="none" stroke="midnightblue" d="M594.493,-112.968C608.421,-102.559 624.113,-90.8313 636.161,-81.827"/>
<polygon fill="midnightblue" stroke="midnightblue" points="638.298,-84.5996 644.213,-75.8095 634.107,-78.9925 638.298,-84.5996"/>
</g>
<!-- Node9 -->
<g id="node9" class="node"><title>Node9</title>
<polygon fill="none" stroke="#bfbfbf" points="709.5,-56.5 709.5,-75.5 780.5,-75.5 780.5,-56.5 709.5,-56.5"/>
<text text-anchor="middle" x="745" y="-63.5" font-family="Helvetica,sans-Serif" font-size="10.00">TGeoTube.h</text>
</g>
<!-- Node1&#45;&gt;Node9 -->
<g id="edge8" class="edge"><title>Node1&#45;&gt;Node9</title>
<path fill="none" stroke="midnightblue" d="M625.872,-112.968C655.385,-101.58 688.99,-88.6127 712.966,-79.361"/>
<polygon fill="midnightblue" stroke="midnightblue" points="714.542,-82.5043 722.612,-75.6389 712.022,-75.9736 714.542,-82.5043"/>
</g>
<!-- Node10 -->
<g id="node10" class="node"><title>Node10</title>
<polygon fill="none" stroke="#bfbfbf" points="799,-56.5 799,-75.5 881,-75.5 881,-56.5 799,-56.5"/>
<text text-anchor="middle" x="840" y="-63.5" font-family="Helvetica,sans-Serif" font-size="10.00">TGeoVolume.h</text>
</g>
<!-- Node1&#45;&gt;Node10 -->
<g id="edge9" class="edge"><title>Node1&#45;&gt;Node10</title>
<path fill="none" stroke="midnightblue" d="M634.669,-119.253C686.233,-106.131 753.368,-89.046 796.581,-78.0492"/>
<polygon fill="midnightblue" stroke="midnightblue" points="797.665,-81.3851 806.493,-75.5269 795.939,-74.6013 797.665,-81.3851"/>
</g>
<!-- Node11 -->
<g id="node11" class="node"><title>Node11</title>
<polygon fill="none" stroke="#bfbfbf" points="899,-56.5 899,-75.5 973,-75.5 973,-56.5 899,-56.5"/>
<text text-anchor="middle" x="936" y="-63.5" font-family="Helvetica,sans-Serif" font-size="10.00">TVirtualMC.h</text>
</g>
<!-- Node1&#45;&gt;Node11 -->
<g id="edge10" class="edge"><title>Node1&#45;&gt;Node11</title>
<path fill="none" stroke="midnightblue" d="M634.529,-124.295C698.943,-112.253 795.374,-94.1438 888.927,-76.1965"/>
<polygon fill="midnightblue" stroke="midnightblue" points="889.687,-79.6147 898.847,-74.292 888.367,-72.7403 889.687,-79.6147"/>
</g>
<!-- Node12 -->
<g id="node12" class="node"><title>Node12</title>
<g id="a_node12"><a xlink:href="../../d0/d7b/SpaceFrame_8h.html" target="_top" xlink:title="EMCALSimulation/SpaceFrame.h">
<polygon fill="none" stroke="black" points="991,-56.5 991,-75.5 1155,-75.5 1155,-56.5 991,-56.5"/>
<text text-anchor="middle" x="1073" y="-63.5" font-family="Helvetica,sans-Serif" font-size="10.00">EMCALSimulation/SpaceFrame.h</text>
</a>
</g>
</g>
<!-- Node1&#45;&gt;Node12 -->
<g id="edge11" class="edge"><title>Node1&#45;&gt;Node12</title>
<path fill="none" stroke="midnightblue" d="M634.63,-127.79C732.581,-114.207 904.622,-90.3493 1001.49,-76.9163"/>
<polygon fill="midnightblue" stroke="midnightblue" points="1002.06,-80.3707 1011.49,-75.5302 1001.1,-73.4371 1002.06,-80.3707"/>
</g>
<!-- Node13 -->
<g id="node13" class="node"><title>Node13</title>
<polygon fill="none" stroke="#bfbfbf" points="1045,-0.5 1045,-19.5 1101,-19.5 1101,-0.5 1045,-0.5"/>
<text text-anchor="middle" x="1073" y="-7.5" font-family="Helvetica,sans-Serif" font-size="10.00">Rtypes.h</text>
</g>
<!-- Node12&#45;&gt;Node13 -->
<g id="edge12" class="edge"><title>Node12&#45;&gt;Node13</title>
<path fill="none" stroke="midnightblue" d="M1073,-56.083C1073,-49.0059 1073,-38.8611 1073,-29.9865"/>
<polygon fill="midnightblue" stroke="midnightblue" points="1076.5,-29.751 1073,-19.7511 1069.5,-29.7511 1076.5,-29.751"/>
</g>
</g>
</svg>
