<?xml version="1.0" encoding="UTF-8" standalone="no"?>
<!DOCTYPE svg PUBLIC "-//W3C//DTD SVG 1.1//EN"
 "http://www.w3.org/Graphics/SVG/1.1/DTD/svg11.dtd">
<!-- Generated by graphviz version 2.36.0 (20140111.2315)
 -->
<!-- Title: /home/travis/build/AliceO2Group/AliceO2/CCDB/src/FileStorage.cxx Pages: 1 -->
<svg width="1429pt" height="274pt"
 viewBox="0.00 0.00 1428.79 274.00" xmlns="http://www.w3.org/2000/svg" xmlns:xlink="http://www.w3.org/1999/xlink">
<g id="graph0" class="graph" transform="scale(1 1) rotate(0) translate(4 270)">
<title>/home/travis/build/AliceO2Group/AliceO2/CCDB/src/FileStorage.cxx</title>
<!-- Node1 -->
<g id="node1" class="node"><title>Node1</title>
<polygon fill="#bfbfbf" stroke="black" points="681.5,-224.5 681.5,-265.5 818.5,-265.5 818.5,-224.5 681.5,-224.5"/>
<text text-anchor="start" x="689.5" y="-253.5" font-family="Helvetica,sans-Serif" font-size="10.00">/home/travis/build</text>
<text text-anchor="start" x="689.5" y="-242.5" font-family="Helvetica,sans-Serif" font-size="10.00">/AliceO2Group/AliceO2</text>
<text text-anchor="middle" x="750" y="-231.5" font-family="Helvetica,sans-Serif" font-size="10.00">/CCDB/src/FileStorage.cxx</text>
</g>
<!-- Node2 -->
<g id="node2" class="node"><title>Node2</title>
<g id="a_node2"><a xlink:href="../../df/d0e/FileStorage_8h.html" target="_top" xlink:title="CCDB/FileStorage.h">
<polygon fill="none" stroke="black" points="381.5,-168.5 381.5,-187.5 488.5,-187.5 488.5,-168.5 381.5,-168.5"/>
<text text-anchor="middle" x="435" y="-175.5" font-family="Helvetica,sans-Serif" font-size="10.00">CCDB/FileStorage.h</text>
</a>
</g>
</g>
<!-- Node1&#45;&gt;Node2 -->
<g id="edge1" class="edge"><title>Node1&#45;&gt;Node2</title>
<path fill="none" stroke="midnightblue" d="M681.261,-229.816C622.589,-217.709 539.515,-200.567 486.446,-189.616"/>
<polygon fill="midnightblue" stroke="midnightblue" points="487.075,-186.172 476.574,-187.579 485.66,-193.027 487.075,-186.172"/>
</g>
<!-- Node20 -->
<g id="node20" class="node"><title>Node20</title>
<polygon fill="none" stroke="#bfbfbf" points="506.5,-168.5 506.5,-187.5 603.5,-187.5 603.5,-168.5 506.5,-168.5"/>
<text text-anchor="middle" x="555" y="-175.5" font-family="Helvetica,sans-Serif" font-size="10.00">fairlogger/Logger.h</text>
</g>
<!-- Node1&#45;&gt;Node20 -->
<g id="edge29" class="edge"><title>Node1&#45;&gt;Node20</title>
<path fill="none" stroke="midnightblue" d="M691.494,-224.498C658.622,-213.541 618.67,-200.223 590.508,-190.836"/>
<polygon fill="midnightblue" stroke="midnightblue" points="591.295,-187.409 580.701,-187.567 589.081,-194.05 591.295,-187.409"/>
</g>
<!-- Node21 -->
<g id="node21" class="node"><title>Node21</title>
<polygon fill="none" stroke="#bfbfbf" points="621.5,-168.5 621.5,-187.5 668.5,-187.5 668.5,-168.5 621.5,-168.5"/>
<text text-anchor="middle" x="645" y="-175.5" font-family="Helvetica,sans-Serif" font-size="10.00">TFile.h</text>
</g>
<!-- Node1&#45;&gt;Node21 -->
<g id="edge30" class="edge"><title>Node1&#45;&gt;Node21</title>
<path fill="none" stroke="midnightblue" d="M718.497,-224.498C702.088,-214.34 682.404,-202.155 667.538,-192.952"/>
<polygon fill="midnightblue" stroke="midnightblue" points="669.322,-189.94 658.977,-187.652 665.638,-195.892 669.322,-189.94"/>
</g>
<!-- Node22 -->
<g id="node22" class="node"><title>Node22</title>
<polygon fill="none" stroke="#bfbfbf" points="687,-168.5 687,-187.5 735,-187.5 735,-168.5 687,-168.5"/>
<text text-anchor="middle" x="711" y="-175.5" font-family="Helvetica,sans-Serif" font-size="10.00">TKey.h</text>
</g>
<!-- Node1&#45;&gt;Node22 -->
<g id="edge31" class="edge"><title>Node1&#45;&gt;Node22</title>
<path fill="none" stroke="midnightblue" d="M738.299,-224.498C732.952,-215.586 726.668,-205.113 721.478,-196.464"/>
<polygon fill="midnightblue" stroke="midnightblue" points="724.338,-194.427 716.191,-187.652 718.335,-198.028 724.338,-194.427"/>
</g>
<!-- Node23 -->
<g id="node23" class="node"><title>Node23</title>
<polygon fill="none" stroke="#bfbfbf" points="753.5,-168.5 753.5,-187.5 824.5,-187.5 824.5,-168.5 753.5,-168.5"/>
<text text-anchor="middle" x="789" y="-175.5" font-family="Helvetica,sans-Serif" font-size="10.00">TObjString.h</text>
</g>
<!-- Node1&#45;&gt;Node23 -->
<g id="edge32" class="edge"><title>Node1&#45;&gt;Node23</title>
<path fill="none" stroke="midnightblue" d="M761.701,-224.498C767.048,-215.586 773.332,-205.113 778.522,-196.464"/>
<polygon fill="midnightblue" stroke="midnightblue" points="781.665,-198.028 783.809,-187.652 775.662,-194.427 781.665,-198.028"/>
</g>
<!-- Node24 -->
<g id="node24" class="node"><title>Node24</title>
<polygon fill="none" stroke="#bfbfbf" points="842.5,-168.5 842.5,-187.5 907.5,-187.5 907.5,-168.5 842.5,-168.5"/>
<text text-anchor="middle" x="875" y="-175.5" font-family="Helvetica,sans-Serif" font-size="10.00">TRegexp.h</text>
</g>
<!-- Node1&#45;&gt;Node24 -->
<g id="edge33" class="edge"><title>Node1&#45;&gt;Node24</title>
<path fill="none" stroke="midnightblue" d="M787.504,-224.498C807.406,-214.149 831.357,-201.695 849.164,-192.435"/>
<polygon fill="midnightblue" stroke="midnightblue" points="851.103,-195.371 858.361,-187.652 847.874,-189.161 851.103,-195.371"/>
</g>
<!-- Node25 -->
<g id="node25" class="node"><title>Node25</title>
<polygon fill="none" stroke="#bfbfbf" points="925.5,-168.5 925.5,-187.5 990.5,-187.5 990.5,-168.5 925.5,-168.5"/>
<text text-anchor="middle" x="958" y="-175.5" font-family="Helvetica,sans-Serif" font-size="10.00">TSystem.h</text>
</g>
<!-- Node1&#45;&gt;Node25 -->
<g id="edge34" class="edge"><title>Node1&#45;&gt;Node25</title>
<path fill="none" stroke="midnightblue" d="M812.407,-224.498C847.778,-213.444 890.834,-199.99 920.912,-190.59"/>
<polygon fill="midnightblue" stroke="midnightblue" points="922.085,-193.891 930.585,-187.567 919.997,-187.209 922.085,-193.891"/>
</g>
<!-- Node26 -->
<g id="node26" class="node"><title>Node26</title>
<g id="a_node26"><a xlink:href="../../da/d6a/Condition_8h.html" target="_top" xlink:title="Definition of the Condition class (CDB object) containing the condition and its metadata. ">
<polygon fill="none" stroke="black" points="1009,-168.5 1009,-187.5 1107,-187.5 1107,-168.5 1009,-168.5"/>
<text text-anchor="middle" x="1058" y="-175.5" font-family="Helvetica,sans-Serif" font-size="10.00">CCDB/Condition.h</text>
</a>
</g>
</g>
<!-- Node1&#45;&gt;Node26 -->
<g id="edge35" class="edge"><title>Node1&#45;&gt;Node26</title>
<path fill="none" stroke="midnightblue" d="M818.738,-229.494C875.915,-217.427 955.99,-200.528 1007.43,-189.672"/>
<polygon fill="midnightblue" stroke="midnightblue" points="1008.26,-193.074 1017.32,-187.584 1006.82,-186.225 1008.26,-193.074"/>
</g>
<!-- Node3 -->
<g id="node3" class="node"><title>Node3</title>
<g id="a_node3"><a xlink:href="../../d1/da0/Manager_8h.html" target="_top" xlink:title="Adapted to o2 from the original AliCDBManager.h in AliRoot. ">
<polygon fill="none" stroke="black" points="387.5,-112.5 387.5,-131.5 482.5,-131.5 482.5,-112.5 387.5,-112.5"/>
<text text-anchor="middle" x="435" y="-119.5" font-family="Helvetica,sans-Serif" font-size="10.00">CCDB/Manager.h</text>
</a>
</g>
</g>
<!-- Node2&#45;&gt;Node3 -->
<g id="edge2" class="edge"><title>Node2&#45;&gt;Node3</title>
<path fill="none" stroke="midnightblue" d="M435,-168.083C435,-161.006 435,-150.861 435,-141.986"/>
<polygon fill="midnightblue" stroke="midnightblue" points="438.5,-141.751 435,-131.751 431.5,-141.751 438.5,-141.751"/>
</g>
<!-- Node8 -->
<g id="node8" class="node"><title>Node8</title>
<polygon fill="none" stroke="#bfbfbf" points="1216,-0.5 1216,-19.5 1272,-19.5 1272,-0.5 1216,-0.5"/>
<text text-anchor="middle" x="1244" y="-7.5" font-family="Helvetica,sans-Serif" font-size="10.00">Rtypes.h</text>
</g>
<!-- Node2&#45;&gt;Node8 -->
<g id="edge17" class="edge"><title>Node2&#45;&gt;Node8</title>
<path fill="none" stroke="midnightblue" d="M488.732,-168.897C491.525,-168.57 494.294,-168.269 497,-168 793.75,-138.55 875.134,-193.17 1167,-132 1236.24,-117.488 1275.73,-134.162 1316,-76 1330.77,-54.6679 1301.68,-35.4681 1276.17,-23.5613"/>
<polygon fill="midnightblue" stroke="midnightblue" points="1277.59,-20.3598 1267.03,-19.5141 1274.76,-26.7612 1277.59,-20.3598"/>
</g>
<!-- Node9 -->
<g id="node9" class="node"><title>Node9</title>
<polygon fill="none" stroke="#bfbfbf" points="587,-0.5 587,-19.5 643,-19.5 643,-0.5 587,-0.5"/>
<text text-anchor="middle" x="615" y="-7.5" font-family="Helvetica,sans-Serif" font-size="10.00">TString.h</text>
</g>
<!-- Node2&#45;&gt;Node9 -->
<g id="edge28" class="edge"><title>Node2&#45;&gt;Node9</title>
<path fill="none" stroke="midnightblue" d="M420.515,-168.447C387.931,-148.174 314.254,-95.9093 348,-56 351.688,-51.6378 503.799,-27.9427 576.744,-16.7986"/>
<polygon fill="midnightblue" stroke="midnightblue" points="577.547,-20.2168 586.905,-15.2493 576.492,-13.2967 577.547,-20.2168"/>
</g>
<!-- Node17 -->
<g id="node17" class="node"><title>Node17</title>
<g id="a_node17"><a xlink:href="../../db/d6f/Storage_8h.html" target="_top" xlink:title="CCDB/Storage.h">
<polygon fill="none" stroke="black" points="632.5,-112.5 632.5,-131.5 723.5,-131.5 723.5,-112.5 632.5,-112.5"/>
<text text-anchor="middle" x="678" y="-119.5" font-family="Helvetica,sans-Serif" font-size="10.00">CCDB/Storage.h</text>
</a>
</g>
</g>
<!-- Node2&#45;&gt;Node17 -->
<g id="edge18" class="edge"><title>Node2&#45;&gt;Node17</title>
<path fill="none" stroke="midnightblue" d="M473.504,-168.444C515.806,-159.043 583.819,-143.929 629.673,-133.739"/>
<polygon fill="midnightblue" stroke="midnightblue" points="630.673,-137.102 639.676,-131.516 629.155,-130.269 630.673,-137.102"/>
</g>
<!-- Node4 -->
<g id="node4" class="node"><title>Node4</title>
<polygon fill="none" stroke="#bfbfbf" points="501.5,-56.5 501.5,-75.5 548.5,-75.5 548.5,-56.5 501.5,-56.5"/>
<text text-anchor="middle" x="525" y="-63.5" font-family="Helvetica,sans-Serif" font-size="10.00">TList.h</text>
</g>
<!-- Node3&#45;&gt;Node4 -->
<g id="edge3" class="edge"><title>Node3&#45;&gt;Node4</title>
<path fill="none" stroke="midnightblue" d="M449.46,-112.324C463.5,-103.9 485.048,-90.9709 501.543,-81.0741"/>
<polygon fill="midnightblue" stroke="midnightblue" points="503.802,-83.8007 510.576,-75.6545 500.2,-77.7983 503.802,-83.8007"/>
</g>
<!-- Node5 -->
<g id="node5" class="node"><title>Node5</title>
<polygon fill="none" stroke="#bfbfbf" points="491,-0.5 491,-19.5 541,-19.5 541,-0.5 491,-0.5"/>
<text text-anchor="middle" x="516" y="-7.5" font-family="Helvetica,sans-Serif" font-size="10.00">TMap.h</text>
</g>
<!-- Node3&#45;&gt;Node5 -->
<g id="edge4" class="edge"><title>Node3&#45;&gt;Node5</title>
<path fill="none" stroke="midnightblue" d="M405.25,-112.436C372.992,-101.628 328.544,-81.353 348,-56 364.04,-35.0986 436.279,-21.7824 480.644,-15.4227"/>
<polygon fill="midnightblue" stroke="midnightblue" points="481.307,-18.8643 490.733,-14.0269 480.348,-11.9304 481.307,-18.8643"/>
</g>
<!-- Node6 -->
<g id="node6" class="node"><title>Node6</title>
<polygon fill="none" stroke="#bfbfbf" points="943.5,-0.5 943.5,-19.5 1002.5,-19.5 1002.5,-0.5 943.5,-0.5"/>
<text text-anchor="middle" x="973" y="-7.5" font-family="Helvetica,sans-Serif" font-size="10.00">TObject.h</text>
</g>
<!-- Node3&#45;&gt;Node6 -->
<g id="edge5" class="edge"><title>Node3&#45;&gt;Node6</title>
<path fill="none" stroke="midnightblue" d="M439.609,-112.394C447.909,-97.8716 466.869,-68.8314 492,-56 568.744,-16.8155 832.173,-11.5428 933.16,-10.9877"/>
<polygon fill="midnightblue" stroke="midnightblue" points="933.271,-14.4874 943.256,-10.9452 933.241,-7.48745 933.271,-14.4874"/>
</g>
<!-- Node7 -->
<g id="node7" class="node"><title>Node7</title>
<polygon fill="none" stroke="#bfbfbf" points="357.5,-56.5 357.5,-75.5 406.5,-75.5 406.5,-56.5 357.5,-56.5"/>
<text text-anchor="middle" x="382" y="-63.5" font-family="Helvetica,sans-Serif" font-size="10.00">cstddef</text>
</g>
<!-- Node3&#45;&gt;Node7 -->
<g id="edge6" class="edge"><title>Node3&#45;&gt;Node7</title>
<path fill="none" stroke="midnightblue" d="M426.248,-112.083C418.53,-104.22 407.095,-92.5688 397.783,-83.0813"/>
<polygon fill="midnightblue" stroke="midnightblue" points="400.092,-80.4363 390.589,-75.7511 395.096,-85.3396 400.092,-80.4363"/>
</g>
<!-- Node3&#45;&gt;Node8 -->
<g id="edge7" class="edge"><title>Node3&#45;&gt;Node8</title>
<path fill="none" stroke="midnightblue" d="M482.751,-118.579C564.591,-113.894 736.691,-101.701 880,-76 914.803,-69.7585 922.381,-63.1917 957,-56 1045.37,-37.641 1150.45,-22.9586 1205.68,-15.7847"/>
<polygon fill="midnightblue" stroke="midnightblue" points="1206.25,-19.2404 1215.72,-14.4922 1205.36,-12.2977 1206.25,-19.2404"/>
</g>
<!-- Node3&#45;&gt;Node9 -->
<g id="edge8" class="edge"><title>Node3&#45;&gt;Node9</title>
<path fill="none" stroke="midnightblue" d="M435.726,-112.495C437.369,-98.6444 442.613,-71.2345 459,-56 476.092,-40.11 536.34,-25.949 576.764,-17.9283"/>
<polygon fill="midnightblue" stroke="midnightblue" points="577.678,-21.3164 586.829,-15.9762 576.346,-14.4444 577.678,-21.3164"/>
</g>
<!-- Node10 -->
<g id="node10" class="node"><title>Node10</title>
<g id="a_node10"><a xlink:href="../../d7/d44/TObjectWrapper_8h.html" target="_top" xlink:title="CCDB/TObjectWrapper.h">
<polygon fill="none" stroke="black" points="135,-56.5 135,-75.5 263,-75.5 263,-56.5 135,-56.5"/>
<text text-anchor="middle" x="199" y="-63.5" font-family="Helvetica,sans-Serif" font-size="10.00">CCDB/TObjectWrapper.h</text>
</a>
</g>
</g>
<!-- Node3&#45;&gt;Node10 -->
<g id="edge9" class="edge"><title>Node3&#45;&gt;Node10</title>
<path fill="none" stroke="midnightblue" d="M397.605,-112.444C356.608,-103.063 290.746,-87.9926 246.216,-77.8036"/>
<polygon fill="midnightblue" stroke="midnightblue" points="246.749,-74.3352 236.22,-75.5164 245.187,-81.1588 246.749,-74.3352"/>
</g>
<!-- Node10&#45;&gt;Node6 -->
<g id="edge11" class="edge"><title>Node10&#45;&gt;Node6</title>
<path fill="none" stroke="midnightblue" d="M263.328,-60.512C417.893,-49.7284 806.68,-22.6037 932.812,-13.8038"/>
<polygon fill="midnightblue" stroke="midnightblue" points="933.426,-17.2695 943.159,-13.082 932.939,-10.2865 933.426,-17.2695"/>
</g>
<!-- Node11 -->
<g id="node11" class="node"><title>Node11</title>
<polygon fill="none" stroke="#bfbfbf" points="280,-0.5 280,-19.5 336,-19.5 336,-0.5 280,-0.5"/>
<text text-anchor="middle" x="308" y="-7.5" font-family="Helvetica,sans-Serif" font-size="10.00">TClass.h</text>
</g>
<!-- Node10&#45;&gt;Node11 -->
<g id="edge10" class="edge"><title>Node10&#45;&gt;Node11</title>
<path fill="none" stroke="midnightblue" d="M216.513,-56.324C234.072,-47.6247 261.331,-34.1202 281.531,-24.113"/>
<polygon fill="midnightblue" stroke="midnightblue" points="283.124,-27.23 290.531,-19.6545 280.016,-20.9575 283.124,-27.23"/>
</g>
<!-- Node12 -->
<g id="node12" class="node"><title>Node12</title>
<polygon fill="none" stroke="#bfbfbf" points="354.5,-0.5 354.5,-19.5 407.5,-19.5 407.5,-0.5 354.5,-0.5"/>
<text text-anchor="middle" x="381" y="-7.5" font-family="Helvetica,sans-Serif" font-size="10.00">cxxabi.h</text>
</g>
<!-- Node10&#45;&gt;Node12 -->
<g id="edge12" class="edge"><title>Node10&#45;&gt;Node12</title>
<path fill="none" stroke="midnightblue" d="M227.838,-56.4435C259.494,-47.0511 310.374,-31.9549 344.717,-21.7654"/>
<polygon fill="midnightblue" stroke="midnightblue" points="345.778,-25.1015 354.369,-18.9015 343.786,-18.3906 345.778,-25.1015"/>
</g>
<!-- Node13 -->
<g id="node13" class="node"><title>Node13</title>
<polygon fill="none" stroke="#bfbfbf" points="-0.5,-0.5 -0.5,-19.5 44.5,-19.5 44.5,-0.5 -0.5,-0.5"/>
<text text-anchor="middle" x="22" y="-7.5" font-family="Helvetica,sans-Serif" font-size="10.00">iosfwd</text>
</g>
<!-- Node10&#45;&gt;Node13 -->
<g id="edge13" class="edge"><title>Node10&#45;&gt;Node13</title>
<path fill="none" stroke="midnightblue" d="M170.954,-56.4435C139.24,-46.768 87.6856,-31.0397 54.3112,-20.8577"/>
<polygon fill="midnightblue" stroke="midnightblue" points="55.1655,-17.4591 44.5794,-17.8886 53.1228,-24.1544 55.1655,-17.4591"/>
</g>
<!-- Node14 -->
<g id="node14" class="node"><title>Node14</title>
<polygon fill="none" stroke="#bfbfbf" points="63,-0.5 63,-19.5 115,-19.5 115,-0.5 63,-0.5"/>
<text text-anchor="middle" x="89" y="-7.5" font-family="Helvetica,sans-Serif" font-size="10.00">memory</text>
</g>
<!-- Node10&#45;&gt;Node14 -->
<g id="edge14" class="edge"><title>Node10&#45;&gt;Node14</title>
<path fill="none" stroke="midnightblue" d="M181.327,-56.324C163.606,-47.6247 136.097,-34.1202 115.712,-24.113"/>
<polygon fill="midnightblue" stroke="midnightblue" points="117.149,-20.9195 106.63,-19.6545 114.064,-27.2031 117.149,-20.9195"/>
</g>
<!-- Node15 -->
<g id="node15" class="node"><title>Node15</title>
<polygon fill="none" stroke="#bfbfbf" points="133.5,-0.5 133.5,-19.5 192.5,-19.5 192.5,-0.5 133.5,-0.5"/>
<text text-anchor="middle" x="163" y="-7.5" font-family="Helvetica,sans-Serif" font-size="10.00">stdexcept</text>
</g>
<!-- Node10&#45;&gt;Node15 -->
<g id="edge15" class="edge"><title>Node10&#45;&gt;Node15</title>
<path fill="none" stroke="midnightblue" d="M193.055,-56.083C188.023,-48.5341 180.663,-37.4948 174.487,-28.2298"/>
<polygon fill="midnightblue" stroke="midnightblue" points="177.293,-26.1301 168.834,-19.7511 171.469,-30.0131 177.293,-26.1301"/>
</g>
<!-- Node16 -->
<g id="node16" class="node"><title>Node16</title>
<polygon fill="none" stroke="#bfbfbf" points="210.5,-0.5 210.5,-19.5 261.5,-19.5 261.5,-0.5 210.5,-0.5"/>
<text text-anchor="middle" x="236" y="-7.5" font-family="Helvetica,sans-Serif" font-size="10.00">typeinfo</text>
</g>
<!-- Node10&#45;&gt;Node16 -->
<g id="edge16" class="edge"><title>Node10&#45;&gt;Node16</title>
<path fill="none" stroke="midnightblue" d="M205.11,-56.083C210.282,-48.5341 217.846,-37.4948 224.194,-28.2298"/>
<polygon fill="midnightblue" stroke="midnightblue" points="227.239,-29.9787 230.004,-19.7511 221.464,-26.0221 227.239,-29.9787"/>
</g>
<!-- Node17&#45;&gt;Node4 -->
<g id="edge19" class="edge"><title>Node17&#45;&gt;Node4</title>
<path fill="none" stroke="midnightblue" d="M653.757,-112.444C627.979,-103.345 587.036,-88.8952 558.255,-78.7372"/>
<polygon fill="midnightblue" stroke="midnightblue" points="559.222,-75.3668 548.627,-75.339 556.892,-81.9677 559.222,-75.3668"/>
</g>
<!-- Node17&#45;&gt;Node6 -->
<g id="edge26" class="edge"><title>Node17&#45;&gt;Node6</title>
<path fill="none" stroke="midnightblue" d="M723.715,-115.989C765.728,-110.198 829.028,-98.4332 880,-76 908.819,-63.3164 937.907,-41.1307 955.692,-26.2539"/>
<polygon fill="midnightblue" stroke="midnightblue" points="958.136,-28.7691 963.464,-19.6115 953.588,-23.4476 958.136,-28.7691"/>
</g>
<!-- Node17&#45;&gt;Node8 -->
<g id="edge25" class="edge"><title>Node17&#45;&gt;Node8</title>
<path fill="none" stroke="midnightblue" d="M723.936,-119.174C859.18,-113.576 1247.63,-95.8327 1266,-76 1278.34,-62.6829 1268.19,-42.1906 1257.96,-27.7827"/>
<polygon fill="midnightblue" stroke="midnightblue" points="1260.64,-25.5238 1251.78,-19.7166 1255.08,-29.7824 1260.64,-25.5238"/>
</g>
<!-- Node17&#45;&gt;Node9 -->
<g id="edge27" class="edge"><title>Node17&#45;&gt;Node9</title>
<path fill="none" stroke="midnightblue" d="M666.657,-112.179C656.693,-103.859 642.496,-90.5244 634,-76 625.56,-61.5704 620.634,-43.1178 617.922,-29.5626"/>
<polygon fill="midnightblue" stroke="midnightblue" points="621.334,-28.7564 616.137,-19.5238 614.442,-29.9822 621.334,-28.7564"/>
</g>
<!-- Node18 -->
<g id="node18" class="node"><title>Node18</title>
<polygon fill="none" stroke="#bfbfbf" points="643.5,-56.5 643.5,-75.5 712.5,-75.5 712.5,-56.5 643.5,-56.5"/>
<text text-anchor="middle" x="678" y="-63.5" font-family="Helvetica,sans-Serif" font-size="10.00">TObjArray.h</text>
</g>
<!-- Node17&#45;&gt;Node18 -->
<g id="edge20" class="edge"><title>Node17&#45;&gt;Node18</title>
<path fill="none" stroke="midnightblue" d="M678,-112.083C678,-105.006 678,-94.8611 678,-85.9865"/>
<polygon fill="midnightblue" stroke="midnightblue" points="681.5,-85.751 678,-75.7511 674.5,-85.7511 681.5,-85.751"/>
</g>
<!-- Node19 -->
<g id="node19" class="node"><title>Node19</title>
<g id="a_node19"><a xlink:href="../../d4/dd1/IdPath_8h.html" target="_top" xlink:title="CCDB/IdPath.h">
<polygon fill="none" stroke="black" points="966,-56.5 966,-75.5 1052,-75.5 1052,-56.5 966,-56.5"/>
<text text-anchor="middle" x="1009" y="-63.5" font-family="Helvetica,sans-Serif" font-size="10.00">CCDB/IdPath.h</text>
</a>
</g>
</g>
<!-- Node17&#45;&gt;Node19 -->
<g id="edge21" class="edge"><title>Node17&#45;&gt;Node19</title>
<path fill="none" stroke="midnightblue" d="M723.677,-113.548C784.448,-103.634 891.678,-86.1401 955.959,-75.6533"/>
<polygon fill="midnightblue" stroke="midnightblue" points="956.587,-79.0972 965.893,-74.0326 955.46,-72.1885 956.587,-79.0972"/>
</g>
<!-- Node19&#45;&gt;Node6 -->
<g id="edge22" class="edge"><title>Node19&#45;&gt;Node6</title>
<path fill="none" stroke="midnightblue" d="M1003.06,-56.083C998.023,-48.5341 990.663,-37.4948 984.487,-28.2298"/>
<polygon fill="midnightblue" stroke="midnightblue" points="987.293,-26.1301 978.834,-19.7511 981.469,-30.0131 987.293,-26.1301"/>
</g>
<!-- Node19&#45;&gt;Node8 -->
<g id="edge24" class="edge"><title>Node19&#45;&gt;Node8</title>
<path fill="none" stroke="midnightblue" d="M1046.24,-56.4435C1089.94,-46.4007 1162.03,-29.8367 1206.04,-19.7226"/>
<polygon fill="midnightblue" stroke="midnightblue" points="1206.83,-23.1333 1215.79,-17.4826 1205.26,-16.3111 1206.83,-23.1333"/>
</g>
<!-- Node19&#45;&gt;Node9 -->
<g id="edge23" class="edge"><title>Node19&#45;&gt;Node9</title>
<path fill="none" stroke="midnightblue" d="M965.708,-59.0666C888.256,-48.4514 727.196,-26.3771 653.416,-16.2652"/>
<polygon fill="midnightblue" stroke="midnightblue" points="653.567,-12.7532 643.184,-14.8628 652.617,-19.6884 653.567,-12.7532"/>
</g>
<!-- Node26&#45;&gt;Node6 -->
<g id="edge52" class="edge"><title>Node26&#45;&gt;Node6</title>
<path fill="none" stroke="midnightblue" d="M1105.36,-168.477C1181.36,-152.821 1317.08,-115.524 1266,-56 1233.82,-18.4961 1085.02,-11.9371 1012.69,-11.0005"/>
<polygon fill="midnightblue" stroke="midnightblue" points="1012.63,-7.4998 1002.59,-10.9 1012.56,-14.4995 1012.63,-7.4998"/>
</g>
<!-- Node26&#45;&gt;Node8 -->
<g id="edge51" class="edge"><title>Node26&#45;&gt;Node8</title>
<path fill="none" stroke="midnightblue" d="M1107.31,-170.621C1196.46,-157.934 1378.51,-126.341 1414,-76 1447.92,-27.885 1342.42,-15.3761 1282.47,-12.1313"/>
<polygon fill="midnightblue" stroke="midnightblue" points="1282.36,-8.62214 1272.21,-11.6413 1282.03,-15.6142 1282.36,-8.62214"/>
</g>
<!-- Node26&#45;&gt;Node9 -->
<g id="edge53" class="edge"><title>Node26&#45;&gt;Node9</title>
<path fill="none" stroke="midnightblue" d="M1008.77,-169.28C1005.47,-168.827 1002.19,-168.395 999,-168 957.35,-162.834 652.236,-162.11 623,-132 596.693,-104.907 603.324,-56.3755 609.651,-29.7501"/>
<polygon fill="midnightblue" stroke="midnightblue" points="613.107,-30.3666 612.246,-19.8068 606.334,-28.5984 613.107,-30.3666"/>
</g>
<!-- Node26&#45;&gt;Node10 -->
<g id="edge50" class="edge"><title>Node26&#45;&gt;Node10</title>
<path fill="none" stroke="midnightblue" d="M1008.79,-169.141C1005.48,-168.722 1002.19,-168.336 999,-168 724.049,-139.123 648.78,-187.768 378,-132 322.591,-120.588 261.283,-95.3927 226.717,-79.9376"/>
<polygon fill="midnightblue" stroke="midnightblue" points="227.846,-76.607 217.293,-75.6682 224.958,-82.9832 227.846,-76.607"/>
</g>
<!-- Node26&#45;&gt;Node19 -->
<g id="edge49" class="edge"><title>Node26&#45;&gt;Node19</title>
<path fill="none" stroke="midnightblue" d="M1054.16,-168.368C1046.18,-150.456 1027.67,-108.923 1017,-84.9482"/>
<polygon fill="midnightblue" stroke="midnightblue" points="1020.09,-83.3019 1012.83,-75.5914 1013.7,-86.1503 1020.09,-83.3019"/>
</g>
<!-- Node27 -->
<g id="node27" class="node"><title>Node27</title>
<g id="a_node27"><a xlink:href="../../da/d53/ConditionId_8h.html" target="_top" xlink:title="CCDB/ConditionId.h">
<polygon fill="none" stroke="black" points="1051.5,-112.5 1051.5,-131.5 1158.5,-131.5 1158.5,-112.5 1051.5,-112.5"/>
<text text-anchor="middle" x="1105" y="-119.5" font-family="Helvetica,sans-Serif" font-size="10.00">CCDB/ConditionId.h</text>
</a>
</g>
</g>
<!-- Node26&#45;&gt;Node27 -->
<g id="edge36" class="edge"><title>Node26&#45;&gt;Node27</title>
<path fill="none" stroke="midnightblue" d="M1065.76,-168.083C1072.54,-160.298 1082.54,-148.801 1090.76,-139.367"/>
<polygon fill="midnightblue" stroke="midnightblue" points="1093.46,-141.592 1097.38,-131.751 1088.18,-136.996 1093.46,-141.592"/>
</g>
<!-- Node29 -->
<g id="node29" class="node"><title>Node29</title>
<g id="a_node29"><a xlink:href="../../d1/d3f/ConditionMetaData_8h.html" target="_top" xlink:title="CCDB/ConditionMetaData.h">
<polygon fill="none" stroke="black" points="730.5,-56.5 730.5,-75.5 871.5,-75.5 871.5,-56.5 730.5,-56.5"/>
<text text-anchor="middle" x="801" y="-63.5" font-family="Helvetica,sans-Serif" font-size="10.00">CCDB/ConditionMetaData.h</text>
</a>
</g>
</g>
<!-- Node26&#45;&gt;Node29 -->
<g id="edge44" class="edge"><title>Node26&#45;&gt;Node29</title>
<path fill="none" stroke="midnightblue" d="M1037.83,-168.368C992.7,-149.051 883.378,-102.259 830.55,-79.6481"/>
<polygon fill="midnightblue" stroke="midnightblue" points="831.643,-76.3087 821.073,-75.5914 828.889,-82.744 831.643,-76.3087"/>
</g>
<!-- Node27&#45;&gt;Node6 -->
<g id="edge37" class="edge"><title>Node27&#45;&gt;Node6</title>
<path fill="none" stroke="midnightblue" d="M1106.06,-112.318C1107.23,-98.7061 1107.42,-72.2257 1094,-56 1073.98,-31.8064 1039.64,-20.616 1012.64,-15.4423"/>
<polygon fill="midnightblue" stroke="midnightblue" points="1013.14,-11.9779 1002.7,-13.7395 1011.96,-18.8775 1013.14,-11.9779"/>
</g>
<!-- Node27&#45;&gt;Node8 -->
<g id="edge42" class="edge"><title>Node27&#45;&gt;Node8</title>
<path fill="none" stroke="midnightblue" d="M1158.92,-115.995C1210.4,-109.968 1282.64,-97.8199 1300,-76 1314.44,-57.8448 1290.58,-37.7211 1269.68,-24.7443"/>
<polygon fill="midnightblue" stroke="midnightblue" points="1271.42,-21.7052 1261.03,-19.647 1267.87,-27.7371 1271.42,-21.7052"/>
</g>
<!-- Node27&#45;&gt;Node9 -->
<g id="edge43" class="edge"><title>Node27&#45;&gt;Node9</title>
<path fill="none" stroke="midnightblue" d="M1101.99,-112.457C1096.42,-98.0306 1083,-69.1308 1061,-56 992.565,-15.1505 748.137,-10.861 653.142,-10.7786"/>
<polygon fill="midnightblue" stroke="midnightblue" points="653.104,-7.27848 643.106,-10.7853 653.109,-14.2785 653.104,-7.27848"/>
</g>
<!-- Node27&#45;&gt;Node19 -->
<g id="edge38" class="edge"><title>Node27&#45;&gt;Node19</title>
<path fill="none" stroke="midnightblue" d="M1089.58,-112.324C1074.46,-103.822 1051.18,-90.7288 1033.53,-80.7975"/>
<polygon fill="midnightblue" stroke="midnightblue" points="1034.82,-77.5066 1024.39,-75.6545 1031.39,-83.6077 1034.82,-77.5066"/>
</g>
<!-- Node28 -->
<g id="node28" class="node"><title>Node28</title>
<g id="a_node28"><a xlink:href="../../dd/d18/IdRunRange_8h.html" target="_top" xlink:title="CCDB/IdRunRange.h">
<polygon fill="none" stroke="black" points="1146,-56.5 1146,-75.5 1258,-75.5 1258,-56.5 1146,-56.5"/>
<text text-anchor="middle" x="1202" y="-63.5" font-family="Helvetica,sans-Serif" font-size="10.00">CCDB/IdRunRange.h</text>
</a>
</g>
</g>
<!-- Node27&#45;&gt;Node28 -->
<g id="edge39" class="edge"><title>Node27&#45;&gt;Node28</title>
<path fill="none" stroke="midnightblue" d="M1120.58,-112.324C1136,-103.743 1159.81,-90.486 1177.71,-80.5224"/>
<polygon fill="midnightblue" stroke="midnightblue" points="1179.42,-83.5767 1186.45,-75.6545 1176.01,-77.4606 1179.42,-83.5767"/>
</g>
<!-- Node28&#45;&gt;Node6 -->
<g id="edge40" class="edge"><title>Node28&#45;&gt;Node6</title>
<path fill="none" stroke="midnightblue" d="M1165.71,-56.4435C1123.92,-46.587 1055.48,-30.4491 1012.41,-20.2922"/>
<polygon fill="midnightblue" stroke="midnightblue" points="1013.1,-16.8596 1002.56,-17.971 1011.49,-23.6728 1013.1,-16.8596"/>
</g>
<!-- Node28&#45;&gt;Node8 -->
<g id="edge41" class="edge"><title>Node28&#45;&gt;Node8</title>
<path fill="none" stroke="midnightblue" d="M1208.94,-56.083C1214.93,-48.3768 1223.75,-37.0333 1231.05,-27.6531"/>
<polygon fill="midnightblue" stroke="midnightblue" points="1233.82,-29.7934 1237.19,-19.7511 1228.29,-25.4958 1233.82,-29.7934"/>
</g>
<!-- Node29&#45;&gt;Node5 -->
<g id="edge45" class="edge"><title>Node29&#45;&gt;Node5</title>
<path fill="none" stroke="midnightblue" d="M755.841,-56.4435C699.013,-45.6762 602.624,-27.4129 551.041,-17.6393"/>
<polygon fill="midnightblue" stroke="midnightblue" points="551.522,-14.1682 541.045,-15.7454 550.219,-21.0459 551.522,-14.1682"/>
</g>
<!-- Node29&#45;&gt;Node6 -->
<g id="edge46" class="edge"><title>Node29&#45;&gt;Node6</title>
<path fill="none" stroke="midnightblue" d="M828.254,-56.4435C857.441,-47.2801 903.921,-32.6876 936.309,-22.5192"/>
<polygon fill="midnightblue" stroke="midnightblue" points="937.381,-25.8512 945.874,-19.5164 935.284,-19.1726 937.381,-25.8512"/>
</g>
<!-- Node29&#45;&gt;Node8 -->
<g id="edge47" class="edge"><title>Node29&#45;&gt;Node8</title>
<path fill="none" stroke="midnightblue" d="M871.195,-56.4435C965.837,-44.907 1131.07,-24.7652 1205.6,-15.6804"/>
<polygon fill="midnightblue" stroke="midnightblue" points="1206.42,-19.107 1215.92,-14.4226 1205.57,-12.1584 1206.42,-19.107"/>
</g>
<!-- Node29&#45;&gt;Node9 -->
<g id="edge48" class="edge"><title>Node29&#45;&gt;Node9</title>
<path fill="none" stroke="midnightblue" d="M771.528,-56.4435C739.456,-47.1323 688.076,-32.2155 652.995,-22.0308"/>
<polygon fill="midnightblue" stroke="midnightblue" points="653.696,-18.5899 643.117,-19.1629 651.744,-25.3123 653.696,-18.5899"/>
</g>
</g>
</svg>
