<?xml version="1.0" encoding="UTF-8" standalone="no"?>
<!DOCTYPE svg PUBLIC "-//W3C//DTD SVG 1.1//EN"
 "http://www.w3.org/Graphics/SVG/1.1/DTD/svg11.dtd">
<!-- Generated by graphviz version 2.36.0 (20140111.2315)
 -->
<!-- Title: o2::dataformats::LabelContainer&lt; LabelType, isContiguousStorage &gt;::HeaderElementContinuous Pages: 1 -->
<svg width="174pt" height="216pt"
 viewBox="0.00 0.00 174.00 216.00" xmlns="http://www.w3.org/2000/svg" xmlns:xlink="http://www.w3.org/1999/xlink">
<g id="graph0" class="graph" transform="scale(1 1) rotate(0) translate(4 212)">
<title>o2::dataformats::LabelContainer&lt; LabelType, isContiguousStorage &gt;::HeaderElementContinuous</title>
<!-- Node1 -->
<g id="node1" class="node"><title>Node1</title>
<polygon fill="#bfbfbf" stroke="black" points="-0.5,-0.5 -0.5,-101.5 166.5,-101.5 166.5,-0.5 -0.5,-0.5"/>
<text text-anchor="start" x="7.5" y="-89.5" font-family="Helvetica,sans-Serif" font-size="10.00">o2::dataformats::LabelContainer</text>
<text text-anchor="start" x="7.5" y="-78.5" font-family="Helvetica,sans-Serif" font-size="10.00">&lt; LabelType, isContiguousStorage</text>
<text text-anchor="middle" x="83" y="-67.5" font-family="Helvetica,sans-Serif" font-size="10.00"> &gt;::HeaderElementContinuous</text>
<polyline fill="none" stroke="black" points="-0.5,-60.5 166.5,-60.5 "/>
<text text-anchor="middle" x="83" y="-48.5" font-family="Helvetica,sans-Serif" font-size="10.00"> </text>
<polyline fill="none" stroke="black" points="-0.5,-41.5 166.5,-41.5 "/>
<text text-anchor="start" x="7.5" y="-29.5" font-family="Helvetica,sans-Serif" font-size="10.00">+ HeaderElementContinuous()</text>
<text text-anchor="start" x="7.5" y="-18.5" font-family="Helvetica,sans-Serif" font-size="10.00">+ HeaderElementContinuous()</text>
<text text-anchor="start" x="7.5" y="-7.5" font-family="Helvetica,sans-Serif" font-size="10.00">+ ClassDefNV()</text>
</g>
<!-- Node2 -->
<g id="node2" class="node"><title>Node2</title>
<polygon fill="none" stroke="#bfbfbf" points="33,-150.5 33,-207.5 77,-207.5 77,-150.5 33,-150.5"/>
<text text-anchor="middle" x="55" y="-195.5" font-family="Helvetica,sans-Serif" font-size="10.00">ushort</text>
<polyline fill="none" stroke="#bfbfbf" points="33,-188.5 77,-188.5 "/>
<text text-anchor="middle" x="55" y="-176.5" font-family="Helvetica,sans-Serif" font-size="10.00"> </text>
<polyline fill="none" stroke="#bfbfbf" points="33,-169.5 77,-169.5 "/>
<text text-anchor="middle" x="55" y="-157.5" font-family="Helvetica,sans-Serif" font-size="10.00"> </text>
</g>
<!-- Node2&#45;&gt;Node1 -->
<g id="edge1" class="edge"><title>Node2&#45;&gt;Node1</title>
<path fill="none" stroke="#404040" d="M56.667,-150.378C57.5643,-140.702 58.9305,-129.806 61,-120 61.4512,-117.862 61.9444,-115.697 62.4717,-113.517"/>
<polygon fill="none" stroke="#404040" points="62.4997,-113.411 60.1692,-106.587 65.572,-101.811 67.9026,-108.635 62.4997,-113.411"/>
<text text-anchor="middle" x="75" y="-123.5" font-family="Helvetica,sans-Serif" font-size="10.00"> +size</text>
</g>
<!-- Node3 -->
<g id="node3" class="node"><title>Node3</title>
<polygon fill="none" stroke="#bfbfbf" points="95,-150.5 95,-207.5 127,-207.5 127,-150.5 95,-150.5"/>
<text text-anchor="middle" x="111" y="-195.5" font-family="Helvetica,sans-Serif" font-size="10.00">uint</text>
<polyline fill="none" stroke="#bfbfbf" points="95,-188.5 127,-188.5 "/>
<text text-anchor="middle" x="111" y="-176.5" font-family="Helvetica,sans-Serif" font-size="10.00"> </text>
<polyline fill="none" stroke="#bfbfbf" points="95,-169.5 127,-169.5 "/>
<text text-anchor="middle" x="111" y="-157.5" font-family="Helvetica,sans-Serif" font-size="10.00"> </text>
</g>
<!-- Node3&#45;&gt;Node1 -->
<g id="edge2" class="edge"><title>Node3&#45;&gt;Node1</title>
<path fill="none" stroke="#404040" d="M104.855,-150.349C102.427,-139.423 99.5331,-126.399 96.6582,-113.462"/>
<polygon fill="none" stroke="#404040" points="96.6405,-113.382 91.4342,-108.393 94.0373,-101.668 99.2437,-106.657 96.6405,-113.382"/>
<text text-anchor="middle" x="116.5" y="-123.5" font-family="Helvetica,sans-Serif" font-size="10.00"> +index</text>
</g>
</g>
</svg>
