<?xml version="1.0" encoding="UTF-8" standalone="no"?>
<!DOCTYPE svg PUBLIC "-//W3C//DTD SVG 1.1//EN"
 "http://www.w3.org/Graphics/SVG/1.1/DTD/svg11.dtd">
<!-- Generated by graphviz version 2.36.0 (20140111.2315)
 -->
<!-- Title: /home/travis/build/AliceO2Group/AliceO2/Framework/Core/include/Framework/DataDescriptorQueryBuilder.h Pages: 1 -->
<!--zoomable 378 -->
<svg id="main" version="1.1" xmlns="http://www.w3.org/2000/svg" xmlns:xlink="http://www.w3.org/1999/xlink" xml:space="preserve" onload="init(evt)">
<style type="text/css"><![CDATA[
.edge:hover path { stroke: red; }
.edge:hover polygon { stroke: red; fill: red; }
]]></style>
<script type="text/javascript"><![CDATA[
var edges = document.getElementsByTagName('g');
if (edges && edges.length) {
  for (var i=0;i<edges.length;i++) {
    if (edges[i].id.substr(0,4)=='edge') {
      edges[i].setAttribute('class','edge');
    }
  }
}
]]></script>
        <defs>
                <circle id="rim" cx="0" cy="0" r="7"/>
                <circle id="rim2" cx="0" cy="0" r="3.5"/>
                <g id="zoomPlus">
                        <use xlink:href="#rim" fill="#404040">
                                <set attributeName="fill" to="#808080" begin="zoomplus.mouseover" end="zoomplus.mouseout"/>
                        </use>
                        <path d="M-4,0h8M0,-4v8" fill="none" stroke="white" stroke-width="1.5" pointer-events="none"/>
                </g>
                <g id="zoomMin">
                        <use xlink:href="#rim" fill="#404040">
                                <set attributeName="fill" to="#808080" begin="zoomminus.mouseover" end="zoomminus.mouseout"/>
                        </use>
                        <path d="M-4,0h8" fill="none" stroke="white" stroke-width="1.5" pointer-events="none"/>
                </g>
                <g id="dirArrow">
                        <path fill="none" stroke="white" stroke-width="1.5" d="M0,-3.0v7 M-2.5,-0.5L0,-3.0L2.5,-0.5"/>
                </g>
               <g id="resetDef">
                       <use xlink:href="#rim2" fill="#404040">
                               <set attributeName="fill" to="#808080" begin="reset.mouseover" end="reset.mouseout"/>
                       </use>
               </g>
        </defs>

<script type="text/javascript">
var viewWidth = 2153;
var viewHeight = 378;
var sectionId = 'dynsection-0';
</script>
<script xlink:href="../../svgpan.js"/>
<svg id="graph" class="graph">
<g id="viewport">
<title>/home/travis/build/AliceO2Group/AliceO2/Framework/Core/include/Framework/DataDescriptorQueryBuilder.h</title>
<!-- Node1 -->
<g id="node1" class="node"><title>Node1</title>
<polygon fill="#bfbfbf" stroke="black" points="1120,-317 1120,-369 1322,-369 1322,-317 1120,-317"/>
<text text-anchor="start" x="1128" y="-357" font-family="Helvetica,sans-Serif" font-size="10.00">/home/travis/build</text>
<text text-anchor="start" x="1128" y="-346" font-family="Helvetica,sans-Serif" font-size="10.00">/AliceO2Group/AliceO2</text>
<text text-anchor="start" x="1128" y="-335" font-family="Helvetica,sans-Serif" font-size="10.00">/Framework/Core/include</text>
<text text-anchor="middle" x="1221" y="-324" font-family="Helvetica,sans-Serif" font-size="10.00">/Framework/DataDescriptorQueryBuilder.h</text>
</g>
<!-- Node2 -->
<g id="node2" class="node"><title>Node2</title>
<g id="a_node2"><a xlink:href="../../d5/d3f/InputSpec_8h.html" target="_top" xlink:title="Framework/InputSpec.h">
<polygon fill="none" stroke="black" points="1256.5,-260.5 1256.5,-279.5 1377.5,-279.5 1377.5,-260.5 1256.5,-260.5"/>
<text text-anchor="middle" x="1317" y="-267.5" font-family="Helvetica,sans-Serif" font-size="10.00">Framework/InputSpec.h</text>
</a>
</g>
</g>
<!-- Node1&#45;&gt;Node2 -->
<g id="edge1" class="edge"><title>Node1&#45;&gt;Node2</title>
<path fill="none" stroke="midnightblue" d="M1254.85,-316.968C1268.92,-306.559 1284.78,-294.831 1296.95,-285.827"/>
<polygon fill="midnightblue" stroke="midnightblue" points="1299.13,-288.57 1305.09,-279.81 1294.97,-282.942 1299.13,-288.57"/>
</g>
<!-- Node7 -->
<g id="node7" class="node"><title>Node7</title>
<polygon fill="none" stroke="#bfbfbf" points="2036,-6.5 2036,-25.5 2088,-25.5 2088,-6.5 2036,-6.5"/>
<text text-anchor="middle" x="2062" y="-13.5" font-family="Helvetica,sans-Serif" font-size="10.00">memory</text>
</g>
<!-- Node1&#45;&gt;Node7 -->
<g id="edge52" class="edge"><title>Node1&#45;&gt;Node7</title>
<path fill="none" stroke="midnightblue" d="M1322.08,-337.896C1561.84,-326.818 2145,-291.402 2145,-209 2145,-209 2145,-209 2145,-139 2145,-94.0853 2106.07,-53.4679 2081.53,-32.329"/>
<polygon fill="midnightblue" stroke="midnightblue" points="2083.47,-29.388 2073.54,-25.6892 2079,-34.772 2083.47,-29.388"/>
</g>
<!-- Node12 -->
<g id="node12" class="node"><title>Node12</title>
<polygon fill="none" stroke="#bfbfbf" points="1473.5,-6.5 1473.5,-25.5 1514.5,-25.5 1514.5,-6.5 1473.5,-6.5"/>
<text text-anchor="middle" x="1494" y="-13.5" font-family="Helvetica,sans-Serif" font-size="10.00">string</text>
</g>
<!-- Node1&#45;&gt;Node12 -->
<g id="edge50" class="edge"><title>Node1&#45;&gt;Node12</title>
<path fill="none" stroke="midnightblue" d="M1187.96,-316.84C1160.19,-292.585 1125,-253.139 1125,-209 1125,-209 1125,-209 1125,-139 1125,-52.5999 1452.76,-35.3346 1463,-32 1464.92,-31.3752 1466.87,-30.6544 1468.81,-29.8738"/>
<polygon fill="midnightblue" stroke="midnightblue" points="1470.56,-32.9253 1478.25,-25.64 1467.7,-26.5381 1470.56,-32.9253"/>
</g>
<!-- Node25 -->
<g id="node25" class="node"><title>Node25</title>
<polygon fill="none" stroke="#bfbfbf" points="0,-6.5 0,-25.5 44,-25.5 44,-6.5 0,-6.5"/>
<text text-anchor="middle" x="22" y="-13.5" font-family="Helvetica,sans-Serif" font-size="10.00">vector</text>
</g>
<!-- Node1&#45;&gt;Node25 -->
<g id="edge51" class="edge"><title>Node1&#45;&gt;Node25</title>
<path fill="none" stroke="midnightblue" d="M1119.61,-335.373C906.173,-320.06 430,-278.148 430,-209 430,-209 430,-209 430,-139 430,35.1735 215.786,-93.9439 53,-32 51.3481,-31.3714 49.6642,-30.6879 47.9779,-29.9707"/>
<polygon fill="midnightblue" stroke="midnightblue" points="49.0477,-26.6115 38.4975,-25.6397 46.139,-32.9786 49.0477,-26.6115"/>
</g>
<!-- Node3 -->
<g id="node3" class="node"><title>Node3</title>
<g id="a_node3"><a xlink:href="../../dc/dca/Lifetime_8h.html" target="_top" xlink:title="Framework/Lifetime.h">
<polygon fill="none" stroke="black" points="1261.5,-198.5 1261.5,-217.5 1372.5,-217.5 1372.5,-198.5 1261.5,-198.5"/>
<text text-anchor="middle" x="1317" y="-205.5" font-family="Helvetica,sans-Serif" font-size="10.00">Framework/Lifetime.h</text>
</a>
</g>
</g>
<!-- Node2&#45;&gt;Node3 -->
<g id="edge2" class="edge"><title>Node2&#45;&gt;Node3</title>
<path fill="none" stroke="midnightblue" d="M1317,-260.403C1317,-251.938 1317,-238.728 1317,-227.82"/>
<polygon fill="midnightblue" stroke="midnightblue" points="1320.5,-227.581 1317,-217.581 1313.5,-227.581 1320.5,-227.581"/>
</g>
<!-- Node4 -->
<g id="node4" class="node"><title>Node4</title>
<g id="a_node4"><a xlink:href="../../d0/d1b/ConcreteDataMatcher_8h.html" target="_top" xlink:title="Framework/ConcreteDataMatcher.h">
<polygon fill="none" stroke="black" points="1267.5,-130.5 1267.5,-149.5 1440.5,-149.5 1440.5,-130.5 1267.5,-130.5"/>
<text text-anchor="middle" x="1354" y="-137.5" font-family="Helvetica,sans-Serif" font-size="10.00">Framework/ConcreteDataMatcher.h</text>
</a>
</g>
</g>
<!-- Node2&#45;&gt;Node4 -->
<g id="edge3" class="edge"><title>Node2&#45;&gt;Node4</title>
<path fill="none" stroke="midnightblue" d="M1338.48,-260.36C1353.39,-253.09 1372.11,-241.117 1381,-224 1392.2,-202.442 1378.78,-175.335 1367.19,-158.084"/>
<polygon fill="midnightblue" stroke="midnightblue" points="1369.78,-155.692 1361.1,-149.611 1364.09,-159.775 1369.78,-155.692"/>
</g>
<!-- Node2&#45;&gt;Node12 -->
<g id="edge47" class="edge"><title>Node2&#45;&gt;Node12</title>
<path fill="none" stroke="midnightblue" d="M1256.47,-264.485C1229.06,-259.058 1199.05,-247.65 1182,-224 1173.68,-212.462 1178.34,-205.743 1182,-192 1190.97,-158.334 1195.85,-148.108 1221,-124 1304.07,-44.3784 1355.17,-72.164 1463,-32 1464.85,-31.3113 1466.74,-30.5509 1468.62,-29.7488"/>
<polygon fill="midnightblue" stroke="midnightblue" points="1470.21,-32.8731 1477.84,-25.5284 1467.29,-26.5083 1470.21,-32.8731"/>
</g>
<!-- Node14 -->
<g id="node14" class="node"><title>Node14</title>
<g id="a_node14"><a xlink:href="../../d3/da3/DataDescriptorMatcher_8h.html" target="_top" xlink:title="Framework/DataDescriptor\lMatcher.h">
<polygon fill="none" stroke="black" points="1533,-193 1533,-223 1667,-223 1667,-193 1533,-193"/>
<text text-anchor="start" x="1541" y="-211" font-family="Helvetica,sans-Serif" font-size="10.00">Framework/DataDescriptor</text>
<text text-anchor="middle" x="1600" y="-200" font-family="Helvetica,sans-Serif" font-size="10.00">Matcher.h</text>
</a>
</g>
</g>
<!-- Node2&#45;&gt;Node14 -->
<g id="edge13" class="edge"><title>Node2&#45;&gt;Node14</title>
<path fill="none" stroke="midnightblue" d="M1357.25,-260.467C1400.49,-251.299 1470.22,-236.515 1523.88,-225.139"/>
<polygon fill="midnightblue" stroke="midnightblue" points="1524.64,-228.555 1533.7,-223.057 1523.19,-221.707 1524.64,-228.555"/>
</g>
<!-- Node33 -->
<g id="node33" class="node"><title>Node33</title>
<polygon fill="none" stroke="#bfbfbf" points="2071,-130.5 2071,-149.5 2117,-149.5 2117,-130.5 2071,-130.5"/>
<text text-anchor="middle" x="2094" y="-137.5" font-family="Helvetica,sans-Serif" font-size="10.00">variant</text>
</g>
<!-- Node2&#45;&gt;Node33 -->
<g id="edge49" class="edge"><title>Node2&#45;&gt;Node33</title>
<path fill="none" stroke="midnightblue" d="M1377.6,-265.07C1505.4,-255.63 1811.01,-226.972 2057,-156 2059.81,-155.189 2062.7,-154.239 2065.56,-153.216"/>
<polygon fill="midnightblue" stroke="midnightblue" points="2066.99,-156.418 2075.06,-149.56 2064.47,-149.885 2066.99,-156.418"/>
</g>
<!-- Node35 -->
<g id="node35" class="node"><title>Node35</title>
<polygon fill="none" stroke="#bfbfbf" points="1191,-198.5 1191,-217.5 1243,-217.5 1243,-198.5 1191,-198.5"/>
<text text-anchor="middle" x="1217" y="-205.5" font-family="Helvetica,sans-Serif" font-size="10.00">ostream</text>
</g>
<!-- Node2&#45;&gt;Node35 -->
<g id="edge48" class="edge"><title>Node2&#45;&gt;Node35</title>
<path fill="none" stroke="midnightblue" d="M1302.67,-260.403C1286.34,-250.601 1259.4,-234.439 1240.09,-222.853"/>
<polygon fill="midnightblue" stroke="midnightblue" points="1241.68,-219.724 1231.3,-217.581 1238.08,-225.727 1241.68,-219.724"/>
</g>
<!-- Node5 -->
<g id="node5" class="node"><title>Node5</title>
<g id="a_node5"><a xlink:href="../../dc/dcd/DataHeader_8h.html" target="_top" xlink:title="Headers/DataHeader.h">
<polygon fill="none" stroke="black" points="1687.5,-68.5 1687.5,-87.5 1804.5,-87.5 1804.5,-68.5 1687.5,-68.5"/>
<text text-anchor="middle" x="1746" y="-75.5" font-family="Helvetica,sans-Serif" font-size="10.00">Headers/DataHeader.h</text>
</a>
</g>
</g>
<!-- Node4&#45;&gt;Node5 -->
<g id="edge4" class="edge"><title>Node4&#45;&gt;Node5</title>
<path fill="none" stroke="midnightblue" d="M1408.32,-130.473C1421.93,-128.348 1436.5,-126.082 1450,-124 1528.79,-111.855 1619.42,-98.1098 1679.42,-89.0414"/>
<polygon fill="midnightblue" stroke="midnightblue" points="1680.15,-92.4705 1689.52,-87.5157 1679.11,-85.5491 1680.15,-92.4705"/>
</g>
<!-- Node6 -->
<g id="node6" class="node"><title>Node6</title>
<polygon fill="none" stroke="#bfbfbf" points="1972,-6.5 1972,-25.5 2018,-25.5 2018,-6.5 1972,-6.5"/>
<text text-anchor="middle" x="1995" y="-13.5" font-family="Helvetica,sans-Serif" font-size="10.00">cstdint</text>
</g>
<!-- Node5&#45;&gt;Node6 -->
<g id="edge5" class="edge"><title>Node5&#45;&gt;Node6</title>
<path fill="none" stroke="midnightblue" d="M1804.21,-68.464C1848.21,-61.1538 1909.75,-49.0828 1962,-32 1964.27,-31.2574 1966.59,-30.4051 1968.9,-29.492"/>
<polygon fill="midnightblue" stroke="midnightblue" points="1970.35,-32.6809 1978.16,-25.5214 1967.59,-26.248 1970.35,-32.6809"/>
</g>
<!-- Node5&#45;&gt;Node7 -->
<g id="edge6" class="edge"><title>Node5&#45;&gt;Node7</title>
<path fill="none" stroke="midnightblue" d="M1804.5,-71.8675C1861.99,-65.8402 1951.78,-53.7798 2027,-32 2029.5,-31.276 2032.06,-30.4199 2034.6,-29.4894"/>
<polygon fill="midnightblue" stroke="midnightblue" points="2036.17,-32.6303 2044.15,-25.6543 2033.56,-26.135 2036.17,-32.6303"/>
</g>
<!-- Node8 -->
<g id="node8" class="node"><title>Node8</title>
<polygon fill="none" stroke="#bfbfbf" points="1904.5,-6.5 1904.5,-25.5 1953.5,-25.5 1953.5,-6.5 1904.5,-6.5"/>
<text text-anchor="middle" x="1929" y="-13.5" font-family="Helvetica,sans-Serif" font-size="10.00">cassert</text>
</g>
<!-- Node5&#45;&gt;Node8 -->
<g id="edge7" class="edge"><title>Node5&#45;&gt;Node8</title>
<path fill="none" stroke="midnightblue" d="M1777.8,-68.4224C1808,-60.0214 1854.52,-46.4131 1894,-32 1896.12,-31.2264 1898.3,-30.3924 1900.48,-29.5281"/>
<polygon fill="midnightblue" stroke="midnightblue" points="1901.99,-32.6892 1909.9,-25.6359 1899.32,-26.2196 1901.99,-32.6892"/>
</g>
<!-- Node9 -->
<g id="node9" class="node"><title>Node9</title>
<polygon fill="none" stroke="#bfbfbf" points="1688,-6.5 1688,-25.5 1734,-25.5 1734,-6.5 1688,-6.5"/>
<text text-anchor="middle" x="1711" y="-13.5" font-family="Helvetica,sans-Serif" font-size="10.00">cstring</text>
</g>
<!-- Node5&#45;&gt;Node9 -->
<g id="edge8" class="edge"><title>Node5&#45;&gt;Node9</title>
<path fill="none" stroke="midnightblue" d="M1740.99,-68.4035C1735.84,-59.5816 1727.69,-45.6075 1721.18,-34.4548"/>
<polygon fill="midnightblue" stroke="midnightblue" points="1724.07,-32.4548 1716.01,-25.5806 1718.02,-35.982 1724.07,-32.4548"/>
</g>
<!-- Node10 -->
<g id="node10" class="node"><title>Node10</title>
<polygon fill="none" stroke="#bfbfbf" points="1830,-6.5 1830,-25.5 1886,-25.5 1886,-6.5 1830,-6.5"/>
<text text-anchor="middle" x="1858" y="-13.5" font-family="Helvetica,sans-Serif" font-size="10.00">algorithm</text>
</g>
<!-- Node5&#45;&gt;Node10 -->
<g id="edge9" class="edge"><title>Node5&#45;&gt;Node10</title>
<path fill="none" stroke="midnightblue" d="M1762.05,-68.4035C1780.59,-58.4678 1811.34,-41.9966 1833.02,-30.3812"/>
<polygon fill="midnightblue" stroke="midnightblue" points="1834.82,-33.388 1841.98,-25.5806 1831.52,-27.2177 1834.82,-33.388"/>
</g>
<!-- Node11 -->
<g id="node11" class="node"><title>Node11</title>
<polygon fill="none" stroke="#bfbfbf" points="1752.5,-6.5 1752.5,-25.5 1811.5,-25.5 1811.5,-6.5 1752.5,-6.5"/>
<text text-anchor="middle" x="1782" y="-13.5" font-family="Helvetica,sans-Serif" font-size="10.00">stdexcept</text>
</g>
<!-- Node5&#45;&gt;Node11 -->
<g id="edge10" class="edge"><title>Node5&#45;&gt;Node11</title>
<path fill="none" stroke="midnightblue" d="M1751.16,-68.4035C1756.45,-59.5816 1764.84,-45.6075 1771.53,-34.4548"/>
<polygon fill="midnightblue" stroke="midnightblue" points="1774.71,-35.9563 1776.85,-25.5806 1768.71,-32.3548 1774.71,-35.9563"/>
</g>
<!-- Node5&#45;&gt;Node12 -->
<g id="edge11" class="edge"><title>Node5&#45;&gt;Node12</title>
<path fill="none" stroke="midnightblue" d="M1687.05,-69.6739C1641.39,-62.9158 1577.02,-51.0029 1523,-32 1521.35,-31.4181 1519.67,-30.7578 1518,-30.0465"/>
<polygon fill="midnightblue" stroke="midnightblue" points="1519.23,-26.7568 1508.7,-25.6064 1516.21,-33.0737 1519.23,-26.7568"/>
</g>
<!-- Node13 -->
<g id="node13" class="node"><title>Node13</title>
<g id="a_node13"><a xlink:href="../../d7/df8/Types_8h.html" target="_top" xlink:title="MemoryResources/Types.h">
<polygon fill="none" stroke="black" points="1532.5,-6.5 1532.5,-25.5 1669.5,-25.5 1669.5,-6.5 1532.5,-6.5"/>
<text text-anchor="middle" x="1601" y="-13.5" font-family="Helvetica,sans-Serif" font-size="10.00">MemoryResources/Types.h</text>
</a>
</g>
</g>
<!-- Node5&#45;&gt;Node13 -->
<g id="edge12" class="edge"><title>Node5&#45;&gt;Node13</title>
<path fill="none" stroke="midnightblue" d="M1725.23,-68.4035C1700.57,-58.2004 1659.25,-41.1055 1631.1,-29.4544"/>
<polygon fill="midnightblue" stroke="midnightblue" points="1632.31,-26.1701 1621.74,-25.5806 1629.64,-32.6382 1632.31,-26.1701"/>
</g>
<!-- Node14&#45;&gt;Node4 -->
<g id="edge14" class="edge"><title>Node14&#45;&gt;Node4</title>
<path fill="none" stroke="midnightblue" d="M1547.53,-192.922C1502.16,-180.751 1437.47,-163.393 1395.6,-152.161"/>
<polygon fill="midnightblue" stroke="midnightblue" points="1396.3,-148.725 1385.73,-149.514 1394.48,-155.486 1396.3,-148.725"/>
</g>
<!-- Node14&#45;&gt;Node5 -->
<g id="edge21" class="edge"><title>Node14&#45;&gt;Node5</title>
<path fill="none" stroke="midnightblue" d="M1594.31,-192.798C1588.17,-174.888 1581.1,-144.023 1596,-124 1614.81,-98.7191 1647.33,-87.1056 1677.3,-81.966"/>
<polygon fill="midnightblue" stroke="midnightblue" points="1677.97,-85.4048 1687.34,-80.4607 1676.93,-78.4822 1677.97,-85.4048"/>
</g>
<!-- Node14&#45;&gt;Node6 -->
<g id="edge41" class="edge"><title>Node14&#45;&gt;Node6</title>
<path fill="none" stroke="midnightblue" d="M1667.45,-200.038C1785.61,-187.686 2018.13,-162.613 2024,-156 2054.57,-121.535 2025.05,-63.3185 2006.89,-34.3921"/>
<polygon fill="midnightblue" stroke="midnightblue" points="2009.66,-32.2408 2001.26,-25.7818 2003.8,-36.0683 2009.66,-32.2408"/>
</g>
<!-- Node14&#45;&gt;Node12 -->
<g id="edge43" class="edge"><title>Node14&#45;&gt;Node12</title>
<path fill="none" stroke="midnightblue" d="M1532.92,-201.663C1438.45,-193.457 1275.69,-176.519 1258,-156 1169.93,-53.818 1130.87,-186.842 1463,-32 1464.35,-31.3684 1465.74,-30.7171 1467.14,-30.056"/>
<polygon fill="midnightblue" stroke="midnightblue" points="1468.83,-33.1282 1476.34,-25.6552 1465.81,-26.8137 1468.83,-33.1282"/>
</g>
<!-- Node15 -->
<g id="node15" class="node"><title>Node15</title>
<g id="a_node15"><a xlink:href="../../d6/dc9/DataProcessingHeader_8h.html" target="_top" xlink:title="Framework/DataProcessing\lHeader.h">
<polygon fill="none" stroke="black" points="1877,-125 1877,-155 2015,-155 2015,-125 1877,-125"/>
<text text-anchor="start" x="1885" y="-143" font-family="Helvetica,sans-Serif" font-size="10.00">Framework/DataProcessing</text>
<text text-anchor="middle" x="1946" y="-132" font-family="Helvetica,sans-Serif" font-size="10.00">Header.h</text>
</a>
</g>
</g>
<!-- Node14&#45;&gt;Node15 -->
<g id="edge15" class="edge"><title>Node14&#45;&gt;Node15</title>
<path fill="none" stroke="midnightblue" d="M1667.19,-194.251C1719.07,-184.398 1792.94,-170.352 1866.74,-156.239"/>
<polygon fill="midnightblue" stroke="midnightblue" points="1867.51,-159.655 1876.68,-154.338 1866.2,-152.779 1867.51,-159.655"/>
</g>
<!-- Node17 -->
<g id="node17" class="node"><title>Node17</title>
<g id="a_node17"><a xlink:href="../../d4/d00/Headers_2include_2Headers_2Stack_8h.html" target="_top" xlink:title="Headers/Stack.h">
<polygon fill="none" stroke="black" points="1459,-130.5 1459,-149.5 1549,-149.5 1549,-130.5 1459,-130.5"/>
<text text-anchor="middle" x="1504" y="-137.5" font-family="Helvetica,sans-Serif" font-size="10.00">Headers/Stack.h</text>
</a>
</g>
</g>
<!-- Node14&#45;&gt;Node17 -->
<g id="edge22" class="edge"><title>Node14&#45;&gt;Node17</title>
<path fill="none" stroke="midnightblue" d="M1579.17,-192.679C1563.22,-181.713 1541.3,-166.645 1525.25,-155.609"/>
<polygon fill="midnightblue" stroke="midnightblue" points="1526.79,-152.419 1516.56,-149.638 1522.82,-158.187 1526.79,-152.419"/>
</g>
<!-- Node14&#45;&gt;Node25 -->
<g id="edge45" class="edge"><title>Node14&#45;&gt;Node25</title>
<path fill="none" stroke="midnightblue" d="M1532.97,-198.277C1355.49,-175.327 858.585,-112.002 444,-68 270.462,-49.5813 221.133,-78.7561 53,-32 50.8003,-31.3883 48.567,-30.6253 46.3592,-29.7698"/>
<polygon fill="midnightblue" stroke="midnightblue" points="47.5842,-26.4839 37.0256,-25.609 44.7341,-32.8774 47.5842,-26.4839"/>
</g>
<!-- Node31 -->
<g id="node31" class="node"><title>Node31</title>
<polygon fill="none" stroke="#bfbfbf" points="1605,-130.5 1605,-149.5 1643,-149.5 1643,-130.5 1605,-130.5"/>
<text text-anchor="middle" x="1624" y="-137.5" font-family="Helvetica,sans-Serif" font-size="10.00">array</text>
</g>
<!-- Node14&#45;&gt;Node31 -->
<g id="edge40" class="edge"><title>Node14&#45;&gt;Node31</title>
<path fill="none" stroke="midnightblue" d="M1605.21,-192.679C1608.76,-182.898 1613.51,-169.852 1617.34,-159.315"/>
<polygon fill="midnightblue" stroke="midnightblue" points="1620.66,-160.422 1620.79,-149.828 1614.08,-158.03 1620.66,-160.422"/>
</g>
<!-- Node32 -->
<g id="node32" class="node"><title>Node32</title>
<polygon fill="none" stroke="#bfbfbf" points="1661.5,-130.5 1661.5,-149.5 1706.5,-149.5 1706.5,-130.5 1661.5,-130.5"/>
<text text-anchor="middle" x="1684" y="-137.5" font-family="Helvetica,sans-Serif" font-size="10.00">iosfwd</text>
</g>
<!-- Node14&#45;&gt;Node32 -->
<g id="edge42" class="edge"><title>Node14&#45;&gt;Node32</title>
<path fill="none" stroke="midnightblue" d="M1618.23,-192.679C1631.97,-181.879 1650.78,-167.098 1664.77,-156.11"/>
<polygon fill="midnightblue" stroke="midnightblue" points="1667.06,-158.759 1672.76,-149.828 1662.74,-153.254 1667.06,-158.759"/>
</g>
<!-- Node14&#45;&gt;Node33 -->
<g id="edge44" class="edge"><title>Node14&#45;&gt;Node33</title>
<path fill="none" stroke="midnightblue" d="M1667.24,-205.235C1757.28,-201.578 1921.38,-190.362 2057,-156 2059.99,-155.241 2063.07,-154.292 2066.1,-153.242"/>
<polygon fill="midnightblue" stroke="midnightblue" points="2067.42,-156.487 2075.51,-149.652 2064.92,-149.946 2067.42,-156.487"/>
</g>
<!-- Node34 -->
<g id="node34" class="node"><title>Node34</title>
<g id="a_node34"><a xlink:href="../../d4/de7/DataDescriptorMatcher_8inc.html" target="_top" xlink:title="DataDescriptorMatcher.inc">
<polygon fill="none" stroke="black" points="1725,-130.5 1725,-149.5 1859,-149.5 1859,-130.5 1725,-130.5"/>
<text text-anchor="middle" x="1792" y="-137.5" font-family="Helvetica,sans-Serif" font-size="10.00">DataDescriptorMatcher.inc</text>
</a>
</g>
</g>
<!-- Node14&#45;&gt;Node34 -->
<g id="edge46" class="edge"><title>Node14&#45;&gt;Node34</title>
<path fill="none" stroke="midnightblue" d="M1641.19,-192.841C1675.84,-180.93 1724.82,-164.094 1757.45,-152.876"/>
<polygon fill="midnightblue" stroke="midnightblue" points="1758.7,-156.148 1767.02,-149.587 1756.43,-149.528 1758.7,-156.148"/>
</g>
<!-- Node15&#45;&gt;Node5 -->
<g id="edge16" class="edge"><title>Node15&#45;&gt;Node5</title>
<path fill="none" stroke="midnightblue" d="M1899.11,-124.933C1864.06,-114.417 1816.74,-100.222 1784.03,-90.4087"/>
<polygon fill="midnightblue" stroke="midnightblue" points="1784.96,-87.0338 1774.38,-87.5127 1782.95,-93.7386 1784.96,-87.0338"/>
</g>
<!-- Node15&#45;&gt;Node6 -->
<g id="edge17" class="edge"><title>Node15&#45;&gt;Node6</title>
<path fill="none" stroke="midnightblue" d="M1951.81,-124.526C1960.78,-102.203 1977.96,-59.4149 1987.74,-35.0852"/>
<polygon fill="midnightblue" stroke="midnightblue" points="1991.06,-36.2068 1991.54,-25.6228 1984.56,-33.5979 1991.06,-36.2068"/>
</g>
<!-- Node15&#45;&gt;Node7 -->
<g id="edge19" class="edge"><title>Node15&#45;&gt;Node7</title>
<path fill="none" stroke="midnightblue" d="M1959.76,-124.526C1981.56,-101.603 2023.87,-57.0976 2046.63,-33.1622"/>
<polygon fill="midnightblue" stroke="midnightblue" points="2049.45,-35.2816 2053.8,-25.6228 2044.37,-30.4582 2049.45,-35.2816"/>
</g>
<!-- Node15&#45;&gt;Node8 -->
<g id="edge20" class="edge"><title>Node15&#45;&gt;Node8</title>
<path fill="none" stroke="midnightblue" d="M1943.98,-124.526C1940.9,-102.403 1935.02,-60.1808 1931.61,-35.7442"/>
<polygon fill="midnightblue" stroke="midnightblue" points="1935.05,-35.0441 1930.2,-25.6228 1928.12,-36.0102 1935.05,-35.0441"/>
</g>
<!-- Node16 -->
<g id="node16" class="node"><title>Node16</title>
<polygon fill="none" stroke="#bfbfbf" points="1857.5,-68.5 1857.5,-87.5 1900.5,-87.5 1900.5,-68.5 1857.5,-68.5"/>
<text text-anchor="middle" x="1879" y="-75.5" font-family="Helvetica,sans-Serif" font-size="10.00">cstdio</text>
</g>
<!-- Node15&#45;&gt;Node16 -->
<g id="edge18" class="edge"><title>Node15&#45;&gt;Node16</title>
<path fill="none" stroke="midnightblue" d="M1930.12,-124.781C1919.98,-115.703 1906.84,-103.929 1896.41,-94.5951"/>
<polygon fill="midnightblue" stroke="midnightblue" points="1898.53,-91.7944 1888.75,-87.7305 1893.86,-97.0091 1898.53,-91.7944"/>
</g>
<!-- Node17&#45;&gt;Node5 -->
<g id="edge39" class="edge"><title>Node17&#45;&gt;Node5</title>
<path fill="none" stroke="midnightblue" d="M1537.37,-130.466C1545.74,-128.341 1554.69,-126.077 1563,-124 1610,-112.247 1663.86,-99.0344 1700.91,-89.9831"/>
<polygon fill="midnightblue" stroke="midnightblue" points="1702.01,-93.317 1710.9,-87.5452 1700.35,-86.5167 1702.01,-93.317"/>
</g>
<!-- Node18 -->
<g id="node18" class="node"><title>Node18</title>
<g id="a_node18"><a xlink:href="../../dc/d03/MemoryResources_8h.html" target="_top" xlink:title="MemoryResources/MemoryResources.h">
<polygon fill="none" stroke="black" points="903.5,-68.5 903.5,-87.5 1096.5,-87.5 1096.5,-68.5 903.5,-68.5"/>
<text text-anchor="middle" x="1000" y="-75.5" font-family="Helvetica,sans-Serif" font-size="10.00">MemoryResources/MemoryResources.h</text>
</a>
</g>
</g>
<!-- Node17&#45;&gt;Node18 -->
<g id="edge23" class="edge"><title>Node17&#45;&gt;Node18</title>
<path fill="none" stroke="midnightblue" d="M1476.23,-130.46C1467.57,-128.061 1457.95,-125.658 1449,-124 1332.99,-102.521 1198.08,-90.7396 1106.66,-84.6797"/>
<polygon fill="midnightblue" stroke="midnightblue" points="1106.77,-81.1796 1096.56,-84.0221 1106.31,-88.1648 1106.77,-81.1796"/>
</g>
<!-- Node18&#45;&gt;Node9 -->
<g id="edge28" class="edge"><title>Node18&#45;&gt;Node9</title>
<path fill="none" stroke="midnightblue" d="M1096.61,-74.8539C1256.9,-70.5789 1570.75,-58.981 1678,-32 1680.65,-31.3321 1683.36,-30.4581 1686.02,-29.4673"/>
<polygon fill="midnightblue" stroke="midnightblue" points="1687.47,-32.6554 1695.31,-25.5267 1684.73,-26.2117 1687.47,-32.6554"/>
</g>
<!-- Node18&#45;&gt;Node12 -->
<g id="edge29" class="edge"><title>Node18&#45;&gt;Node12</title>
<path fill="none" stroke="midnightblue" d="M1096.56,-68.4885C1227.09,-56.8558 1445.64,-36.8754 1463,-32 1465.2,-31.3827 1467.43,-30.6158 1469.64,-29.7576"/>
<polygon fill="midnightblue" stroke="midnightblue" points="1471.26,-32.8643 1478.97,-25.5925 1468.41,-26.472 1471.26,-32.8643"/>
</g>
<!-- Node18&#45;&gt;Node13 -->
<g id="edge38" class="edge"><title>Node18&#45;&gt;Node13</title>
<path fill="none" stroke="midnightblue" d="M1096.73,-71.7027C1201.96,-65.2359 1374.96,-52.5467 1523,-32 1532.13,-30.7331 1541.81,-29.1055 1551.12,-27.3918"/>
<polygon fill="midnightblue" stroke="midnightblue" points="1551.88,-30.8114 1561.05,-25.5114 1550.57,-23.9337 1551.88,-30.8114"/>
</g>
<!-- Node19 -->
<g id="node19" class="node"><title>Node19</title>
<polygon fill="none" stroke="#bfbfbf" points="1221,-1 1221,-31 1321,-31 1321,-1 1221,-1"/>
<text text-anchor="start" x="1229" y="-19" font-family="Helvetica,sans-Serif" font-size="10.00">boost/container/flat</text>
<text text-anchor="middle" x="1271" y="-8" font-family="Helvetica,sans-Serif" font-size="10.00">_map.hpp</text>
</g>
<!-- Node18&#45;&gt;Node19 -->
<g id="edge24" class="edge"><title>Node18&#45;&gt;Node19</title>
<path fill="none" stroke="midnightblue" d="M1042.75,-68.4468C1083.55,-60.1667 1146.98,-46.9922 1210.97,-32.1934"/>
<polygon fill="midnightblue" stroke="midnightblue" points="1211.87,-35.5758 1220.82,-29.9019 1210.29,-28.7577 1211.87,-35.5758"/>
</g>
<!-- Node20 -->
<g id="node20" class="node"><title>Node20</title>
<polygon fill="none" stroke="#bfbfbf" points="1339,-1 1339,-31 1455,-31 1455,-1 1339,-1"/>
<text text-anchor="start" x="1347" y="-19" font-family="Helvetica,sans-Serif" font-size="10.00">boost/container/pmr</text>
<text text-anchor="middle" x="1397" y="-8" font-family="Helvetica,sans-Serif" font-size="10.00">/memory_resource.hpp</text>
</g>
<!-- Node18&#45;&gt;Node20 -->
<g id="edge25" class="edge"><title>Node18&#45;&gt;Node20</title>
<path fill="none" stroke="midnightblue" d="M1075.98,-68.4933C1140.69,-60.8225 1236.34,-48.4831 1328.86,-32.1159"/>
<polygon fill="midnightblue" stroke="midnightblue" points="1329.73,-35.5158 1338.96,-30.3107 1328.5,-28.625 1329.73,-35.5158"/>
</g>
<!-- Node21 -->
<g id="node21" class="node"><title>Node21</title>
<polygon fill="none" stroke="#bfbfbf" points="62,-1 62,-31 218,-31 218,-1 62,-1"/>
<text text-anchor="start" x="70" y="-19" font-family="Helvetica,sans-Serif" font-size="10.00">boost/container/pmr</text>
<text text-anchor="middle" x="140" y="-8" font-family="Helvetica,sans-Serif" font-size="10.00">/monotonic_buffer_resource.hpp</text>
</g>
<!-- Node18&#45;&gt;Node21 -->
<g id="edge26" class="edge"><title>Node18&#45;&gt;Node21</title>
<path fill="none" stroke="midnightblue" d="M903.45,-69.0167C898.564,-68.6613 893.726,-68.32 889,-68 598.318,-48.3153 521.51,-64.7111 228.269,-32.0554"/>
<polygon fill="midnightblue" stroke="midnightblue" points="228.521,-28.5618 218.193,-30.9236 227.74,-35.518 228.521,-28.5618"/>
</g>
<!-- Node22 -->
<g id="node22" class="node"><title>Node22</title>
<polygon fill="none" stroke="#bfbfbf" points="236.5,-1 236.5,-31 369.5,-31 369.5,-1 236.5,-1"/>
<text text-anchor="start" x="244.5" y="-19" font-family="Helvetica,sans-Serif" font-size="10.00">boost/container/pmr</text>
<text text-anchor="middle" x="303" y="-8" font-family="Helvetica,sans-Serif" font-size="10.00">/polymorphic_allocator.hpp</text>
</g>
<!-- Node18&#45;&gt;Node22 -->
<g id="edge27" class="edge"><title>Node18&#45;&gt;Node22</title>
<path fill="none" stroke="midnightblue" d="M903.443,-69.1102C898.559,-68.7302 893.723,-68.3582 889,-68 665.739,-51.0695 605.975,-61.7346 379.847,-31.995"/>
<polygon fill="midnightblue" stroke="midnightblue" points="380.024,-28.4879 369.65,-30.6417 379.103,-35.4271 380.024,-28.4879"/>
</g>
<!-- Node23 -->
<g id="node23" class="node"><title>Node23</title>
<polygon fill="none" stroke="#bfbfbf" points="388,-6.5 388,-25.5 450,-25.5 450,-6.5 388,-6.5"/>
<text text-anchor="middle" x="419" y="-13.5" font-family="Helvetica,sans-Serif" font-size="10.00">type_traits</text>
</g>
<!-- Node18&#45;&gt;Node23 -->
<g id="edge30" class="edge"><title>Node18&#45;&gt;Node23</title>
<path fill="none" stroke="midnightblue" d="M903.214,-69.1169C749.038,-56.5365 464.359,-33.2034 459,-32 455.493,-31.2124 451.879,-30.1854 448.326,-29.0378"/>
<polygon fill="midnightblue" stroke="midnightblue" points="449.204,-25.6353 438.609,-25.583 446.859,-32.2308 449.204,-25.6353"/>
</g>
<!-- Node24 -->
<g id="node24" class="node"><title>Node24</title>
<polygon fill="none" stroke="#bfbfbf" points="468,-6.5 468,-25.5 508,-25.5 508,-6.5 468,-6.5"/>
<text text-anchor="middle" x="488" y="-13.5" font-family="Helvetica,sans-Serif" font-size="10.00">utility</text>
</g>
<!-- Node18&#45;&gt;Node24 -->
<g id="edge31" class="edge"><title>Node18&#45;&gt;Node24</title>
<path fill="none" stroke="midnightblue" d="M903.223,-68.9374C767.55,-57.4957 535.222,-37.341 517,-32 515.083,-31.438 513.143,-30.7463 511.225,-29.9714"/>
<polygon fill="midnightblue" stroke="midnightblue" points="512.536,-26.7202 501.999,-25.6175 509.549,-33.0507 512.536,-26.7202"/>
</g>
<!-- Node18&#45;&gt;Node25 -->
<g id="edge32" class="edge"><title>Node18&#45;&gt;Node25</title>
<path fill="none" stroke="midnightblue" d="M903.454,-68.9512C898.567,-68.613 893.728,-68.2934 889,-68 703.407,-56.4841 233.313,-77.4367 53,-32 50.652,-31.4083 48.271,-30.6284 45.9262,-29.7347"/>
<polygon fill="midnightblue" stroke="midnightblue" points="47.2279,-26.483 36.6691,-25.6104 44.3791,-32.8771 47.2279,-26.483"/>
</g>
<!-- Node26 -->
<g id="node26" class="node"><title>Node26</title>
<polygon fill="none" stroke="#bfbfbf" points="526.5,-6.5 526.5,-25.5 609.5,-25.5 609.5,-6.5 526.5,-6.5"/>
<text text-anchor="middle" x="568" y="-13.5" font-family="Helvetica,sans-Serif" font-size="10.00">unordered_map</text>
</g>
<!-- Node18&#45;&gt;Node26 -->
<g id="edge33" class="edge"><title>Node18&#45;&gt;Node26</title>
<path fill="none" stroke="midnightblue" d="M912.536,-68.4821C817.652,-58.9239 672.436,-43.2819 618,-32 613.205,-31.0063 608.207,-29.7638 603.305,-28.4219"/>
<polygon fill="midnightblue" stroke="midnightblue" points="604.053,-24.9947 593.474,-25.5756 602.106,-31.7186 604.053,-24.9947"/>
</g>
<!-- Node27 -->
<g id="node27" class="node"><title>Node27</title>
<polygon fill="none" stroke="#bfbfbf" points="627.5,-6.5 627.5,-25.5 724.5,-25.5 724.5,-6.5 627.5,-6.5"/>
<text text-anchor="middle" x="676" y="-13.5" font-family="Helvetica,sans-Serif" font-size="10.00">FairMQMessage.h</text>
</g>
<!-- Node18&#45;&gt;Node27 -->
<g id="edge34" class="edge"><title>Node18&#45;&gt;Node27</title>
<path fill="none" stroke="midnightblue" d="M940.056,-68.4813C885.749,-60.3883 803.654,-47.2181 733,-32 727.561,-30.8284 721.86,-29.4778 716.256,-28.0771"/>
<polygon fill="midnightblue" stroke="midnightblue" points="716.903,-24.6299 706.347,-25.5295 715.16,-31.4094 716.903,-24.6299"/>
</g>
<!-- Node28 -->
<g id="node28" class="node"><title>Node28</title>
<polygon fill="none" stroke="#bfbfbf" points="742.5,-6.5 742.5,-25.5 873.5,-25.5 873.5,-6.5 742.5,-6.5"/>
<text text-anchor="middle" x="808" y="-13.5" font-family="Helvetica,sans-Serif" font-size="10.00">FairMQTransportFactory.h</text>
</g>
<!-- Node18&#45;&gt;Node28 -->
<g id="edge35" class="edge"><title>Node18&#45;&gt;Node28</title>
<path fill="none" stroke="midnightblue" d="M972.491,-68.4035C939.129,-57.9777 882.738,-40.3557 845.437,-28.6992"/>
<polygon fill="midnightblue" stroke="midnightblue" points="846.047,-25.2227 835.458,-25.5806 843.959,-31.9041 846.047,-25.2227"/>
</g>
<!-- Node29 -->
<g id="node29" class="node"><title>Node29</title>
<polygon fill="none" stroke="#bfbfbf" points="891.5,-6.5 891.5,-25.5 1028.5,-25.5 1028.5,-6.5 891.5,-6.5"/>
<text text-anchor="middle" x="960" y="-13.5" font-family="Helvetica,sans-Serif" font-size="10.00">fairmq/MemoryResources.h</text>
</g>
<!-- Node18&#45;&gt;Node29 -->
<g id="edge36" class="edge"><title>Node18&#45;&gt;Node29</title>
<path fill="none" stroke="midnightblue" d="M994.269,-68.4035C988.328,-59.4925 978.883,-45.3247 971.412,-34.1177"/>
<polygon fill="midnightblue" stroke="midnightblue" points="974.18,-31.9596 965.72,-25.5806 968.355,-35.8426 974.18,-31.9596"/>
</g>
<!-- Node30 -->
<g id="node30" class="node"><title>Node30</title>
<polygon fill="none" stroke="#bfbfbf" points="1047,-6.5 1047,-25.5 1203,-25.5 1203,-6.5 1047,-6.5"/>
<text text-anchor="middle" x="1125" y="-13.5" font-family="Helvetica,sans-Serif" font-size="10.00">fairmq/MemoryResourceTools.h</text>
</g>
<!-- Node18&#45;&gt;Node30 -->
<g id="edge37" class="edge"><title>Node18&#45;&gt;Node30</title>
<path fill="none" stroke="midnightblue" d="M1017.91,-68.4035C1038.89,-58.3341 1073.85,-41.5522 1098.09,-29.9151"/>
<polygon fill="midnightblue" stroke="midnightblue" points="1099.62,-33.0633 1107.12,-25.5806 1096.59,-26.7526 1099.62,-33.0633"/>
</g>
</g>
</svg>
        <g id="navigator" transform="translate(0 0)" fill="#404254">
                <rect fill="#f2f5e9" fill-opacity="0.5" stroke="#606060" stroke-width=".5" x="0" y="0" width="60" height="60"/>
                <use id="zoomplus" xlink:href="#zoomPlus" x="17" y="9" onmousedown="handleZoom(evt,'in')"/>
                <use id="zoomminus" xlink:href="#zoomMin" x="42" y="9" onmousedown="handleZoom(evt,'out')"/>
                <use id="reset" xlink:href="#resetDef" x="30" y="36" onmousedown="handleReset()"/>
                <g id="arrowUp" xlink:href="#dirArrow" transform="translate(30 24)" onmousedown="handlePan(0,-1)">
                  <use xlink:href="#rim" fill="#404040">
                        <set attributeName="fill" to="#808080" begin="arrowUp.mouseover" end="arrowUp.mouseout"/>
                  </use>
                  <path fill="none" stroke="white" stroke-width="1.5" d="M0,-3.0v7 M-2.5,-0.5L0,-3.0L2.5,-0.5"/>
                </g>
                <g id="arrowRight" xlink:href="#dirArrow" transform="rotate(90) translate(36 -43)" onmousedown="handlePan(1,0)">
                  <use xlink:href="#rim" fill="#404040">
                        <set attributeName="fill" to="#808080" begin="arrowRight.mouseover" end="arrowRight.mouseout"/>
                  </use>
                  <path fill="none" stroke="white" stroke-width="1.5" d="M0,-3.0v7 M-2.5,-0.5L0,-3.0L2.5,-0.5"/>
                </g>
                <g id="arrowDown" xlink:href="#dirArrow" transform="rotate(180) translate(-30 -48)" onmousedown="handlePan(0,1)">
                  <use xlink:href="#rim" fill="#404040">
                        <set attributeName="fill" to="#808080" begin="arrowDown.mouseover" end="arrowDown.mouseout"/>
                  </use>
                  <path fill="none" stroke="white" stroke-width="1.5" d="M0,-3.0v7 M-2.5,-0.5L0,-3.0L2.5,-0.5"/>
                </g>
                <g id="arrowLeft" xlink:href="#dirArrow" transform="rotate(270) translate(-36 17)" onmousedown="handlePan(-1,0)">
                  <use xlink:href="#rim" fill="#404040">
                        <set attributeName="fill" to="#808080" begin="arrowLeft.mouseover" end="arrowLeft.mouseout"/>
                  </use>
                  <path fill="none" stroke="white" stroke-width="1.5" d="M0,-3.0v7 M-2.5,-0.5L0,-3.0L2.5,-0.5"/>
                </g>
        </g>
        <svg viewBox="0 0 15 15" width="100%" height="30px" preserveAspectRatio="xMaxYMin meet">
         <g id="arrow_out" transform="scale(0.3 0.3)">
          <a xlink:href="DataDescriptorQueryBuilder_8h__incl_org.svg" target="_base">
           <rect id="button" ry="5" rx="5" y="6" x="6" height="38" width="38"
                fill="#f2f5e9" fill-opacity="0.5" stroke="#606060" stroke-width="1.0"/>
           <path id="arrow"
             d="M 11.500037,31.436501 C 11.940474,20.09759 22.043105,11.32322 32.158766,21.979434 L 37.068811,17.246167 C 37.068811,17.246167 37.088388,32 37.088388,32 L 22.160133,31.978069 C 22.160133,31.978069 26.997745,27.140456 26.997745,27.140456 C 18.528582,18.264221 13.291696,25.230495 11.500037,31.436501 z"
             style="fill:#404040;"/>
          </a>
         </g>
        </svg>
</svg>
