<?xml version="1.0" encoding="UTF-8" standalone="no"?>
<!DOCTYPE svg PUBLIC "-//W3C//DTD SVG 1.1//EN"
 "http://www.w3.org/Graphics/SVG/1.1/DTD/svg11.dtd">
<!-- Generated by graphviz version 2.36.0 (20140111.2315)
 -->
<!-- Title: o2::MFT::Ladder Pages: 1 -->
<svg width="102pt" height="204pt"
 viewBox="0.00 0.00 102.00 204.00" xmlns="http://www.w3.org/2000/svg" xmlns:xlink="http://www.w3.org/1999/xlink">
<g id="graph0" class="graph" transform="scale(1 1) rotate(0) translate(4 200)">
<title>o2::MFT::Ladder</title>
<!-- Node1 -->
<g id="node1" class="node"><title>Node1</title>
<polygon fill="#bfbfbf" stroke="black" points="-0.5,-0.5 -0.5,-101.5 94.5,-101.5 94.5,-0.5 -0.5,-0.5"/>
<text text-anchor="middle" x="47" y="-89.5" font-family="Helvetica,sans-Serif" font-size="10.00">o2::MFT::Ladder</text>
<polyline fill="none" stroke="black" points="-0.5,-82.5 94.5,-82.5 "/>
<text text-anchor="middle" x="47" y="-70.5" font-family="Helvetica,sans-Serif" font-size="10.00"> </text>
<polyline fill="none" stroke="black" points="-0.5,-63.5 94.5,-63.5 "/>
<text text-anchor="start" x="7.5" y="-51.5" font-family="Helvetica,sans-Serif" font-size="10.00">+ Ladder()</text>
<text text-anchor="start" x="7.5" y="-40.5" font-family="Helvetica,sans-Serif" font-size="10.00">+ Ladder()</text>
<text text-anchor="start" x="7.5" y="-29.5" font-family="Helvetica,sans-Serif" font-size="10.00">+ ~Ladder()</text>
<text text-anchor="start" x="7.5" y="-18.5" font-family="Helvetica,sans-Serif" font-size="10.00">+ createVolume()</text>
<text text-anchor="start" x="7.5" y="-7.5" font-family="Helvetica,sans-Serif" font-size="10.00">+ createSensors()</text>
</g>
<!-- Node2 -->
<g id="node2" class="node"><title>Node2</title>
<polygon fill="none" stroke="#bfbfbf" points="20,-138.5 20,-195.5 74,-195.5 74,-138.5 20,-138.5"/>
<text text-anchor="middle" x="47" y="-183.5" font-family="Helvetica,sans-Serif" font-size="10.00">TNamed</text>
<polyline fill="none" stroke="#bfbfbf" points="20,-176.5 74,-176.5 "/>
<text text-anchor="middle" x="47" y="-164.5" font-family="Helvetica,sans-Serif" font-size="10.00"> </text>
<polyline fill="none" stroke="#bfbfbf" points="20,-157.5 74,-157.5 "/>
<text text-anchor="middle" x="47" y="-145.5" font-family="Helvetica,sans-Serif" font-size="10.00"> </text>
</g>
<!-- Node2&#45;&gt;Node1 -->
<g id="edge1" class="edge"><title>Node2&#45;&gt;Node1</title>
<path fill="none" stroke="midnightblue" d="M47,-128.354C47,-119.796 47,-110.578 47,-101.608"/>
<polygon fill="none" stroke="midnightblue" points="43.5001,-128.404 47,-138.404 50.5001,-128.404 43.5001,-128.404"/>
</g>
</g>
</svg>
