<?xml version="1.0" encoding="UTF-8" standalone="no"?>
<!DOCTYPE svg PUBLIC "-//W3C//DTD SVG 1.1//EN"
 "http://www.w3.org/Graphics/SVG/1.1/DTD/svg11.dtd">
<!-- Generated by graphviz version 2.36.0 (20140111.2315)
 -->
<!-- Title: /home/travis/build/AliceO2Group/AliceO2/Framework/DebugGUI/src/imgui_internal.h Pages: 1 -->
<svg width="346pt" height="174pt"
 viewBox="0.00 0.00 346.00 174.00" xmlns="http://www.w3.org/2000/svg" xmlns:xlink="http://www.w3.org/1999/xlink">
<g id="graph0" class="graph" transform="scale(1 1) rotate(0) translate(4 170)">
<title>/home/travis/build/AliceO2Group/AliceO2/Framework/DebugGUI/src/imgui_internal.h</title>
<!-- Node1 -->
<g id="node1" class="node"><title>Node1</title>
<polygon fill="#bfbfbf" stroke="black" points="87,-113 87,-165 221,-165 221,-113 87,-113"/>
<text text-anchor="start" x="95" y="-153" font-family="Helvetica,sans-Serif" font-size="10.00">/home/travis/build</text>
<text text-anchor="start" x="95" y="-142" font-family="Helvetica,sans-Serif" font-size="10.00">/AliceO2Group/AliceO2</text>
<text text-anchor="start" x="95" y="-131" font-family="Helvetica,sans-Serif" font-size="10.00">/Framework/DebugGUI/src</text>
<text text-anchor="middle" x="154" y="-120" font-family="Helvetica,sans-Serif" font-size="10.00">/imgui_internal.h</text>
</g>
<!-- Node2 -->
<g id="node2" class="node"><title>Node2</title>
<polygon fill="none" stroke="#bfbfbf" points="0,-56.5 0,-75.5 46,-75.5 46,-56.5 0,-56.5"/>
<text text-anchor="middle" x="23" y="-63.5" font-family="Helvetica,sans-Serif" font-size="10.00">stdio.h</text>
</g>
<!-- Node1&#45;&gt;Node2 -->
<g id="edge1" class="edge"><title>Node1&#45;&gt;Node2</title>
<path fill="none" stroke="midnightblue" d="M107.814,-112.968C87.7399,-102.088 65.0073,-89.7673 48.1332,-80.6218"/>
<polygon fill="midnightblue" stroke="midnightblue" points="49.3989,-77.3268 38.9394,-75.6389 46.0634,-83.481 49.3989,-77.3268"/>
</g>
<!-- Node3 -->
<g id="node3" class="node"><title>Node3</title>
<polygon fill="none" stroke="#bfbfbf" points="64,-56.5 64,-75.5 112,-75.5 112,-56.5 64,-56.5"/>
<text text-anchor="middle" x="88" y="-63.5" font-family="Helvetica,sans-Serif" font-size="10.00">stdlib.h</text>
</g>
<!-- Node1&#45;&gt;Node3 -->
<g id="edge2" class="edge"><title>Node1&#45;&gt;Node3</title>
<path fill="none" stroke="midnightblue" d="M130.545,-112.768C121.448,-102.982 111.292,-92.0561 103.184,-83.3346"/>
<polygon fill="midnightblue" stroke="midnightblue" points="105.512,-80.6985 96.1405,-75.7572 100.385,-85.4644 105.512,-80.6985"/>
</g>
<!-- Node4 -->
<g id="node4" class="node"><title>Node4</title>
<polygon fill="none" stroke="#bfbfbf" points="130.5,-56.5 130.5,-75.5 177.5,-75.5 177.5,-56.5 130.5,-56.5"/>
<text text-anchor="middle" x="154" y="-63.5" font-family="Helvetica,sans-Serif" font-size="10.00">math.h</text>
</g>
<!-- Node1&#45;&gt;Node4 -->
<g id="edge3" class="edge"><title>Node1&#45;&gt;Node4</title>
<path fill="none" stroke="midnightblue" d="M154,-112.768C154,-103.89 154,-94.0737 154,-85.8165"/>
<polygon fill="midnightblue" stroke="midnightblue" points="157.5,-85.7571 154,-75.7572 150.5,-85.7572 157.5,-85.7571"/>
</g>
<!-- Node5 -->
<g id="node5" class="node"><title>Node5</title>
<polygon fill="none" stroke="#bfbfbf" points="196,-56.5 196,-75.5 244,-75.5 244,-56.5 196,-56.5"/>
<text text-anchor="middle" x="220" y="-63.5" font-family="Helvetica,sans-Serif" font-size="10.00">limits.h</text>
</g>
<!-- Node1&#45;&gt;Node5 -->
<g id="edge4" class="edge"><title>Node1&#45;&gt;Node5</title>
<path fill="none" stroke="midnightblue" d="M177.455,-112.768C186.552,-102.982 196.708,-92.0561 204.816,-83.3346"/>
<polygon fill="midnightblue" stroke="midnightblue" points="207.615,-85.4644 211.86,-75.7572 202.488,-80.6985 207.615,-85.4644"/>
</g>
<!-- Node6 -->
<g id="node6" class="node"><title>Node6</title>
<g id="a_node6"><a xlink:href="../../d4/dfd/stb__textedit_8h.html" target="_top" xlink:title="stb_textedit.h">
<polygon fill="none" stroke="black" points="262,-56.5 262,-75.5 338,-75.5 338,-56.5 262,-56.5"/>
<text text-anchor="middle" x="300" y="-63.5" font-family="Helvetica,sans-Serif" font-size="10.00">stb_textedit.h</text>
</a>
</g>
</g>
<!-- Node1&#45;&gt;Node6 -->
<g id="edge5" class="edge"><title>Node1&#45;&gt;Node6</title>
<path fill="none" stroke="midnightblue" d="M205.474,-112.968C228.265,-101.885 254.131,-89.3062 273.037,-80.1123"/>
<polygon fill="midnightblue" stroke="midnightblue" points="274.773,-83.1598 282.236,-75.6389 271.712,-76.8647 274.773,-83.1598"/>
</g>
<!-- Node7 -->
<g id="node7" class="node"><title>Node7</title>
<polygon fill="none" stroke="#bfbfbf" points="275.5,-0.5 275.5,-19.5 324.5,-19.5 324.5,-0.5 275.5,-0.5"/>
<text text-anchor="middle" x="300" y="-7.5" font-family="Helvetica,sans-Serif" font-size="10.00">string.h</text>
</g>
<!-- Node6&#45;&gt;Node7 -->
<g id="edge6" class="edge"><title>Node6&#45;&gt;Node7</title>
<path fill="none" stroke="midnightblue" d="M300,-56.083C300,-49.0059 300,-38.8611 300,-29.9865"/>
<polygon fill="midnightblue" stroke="midnightblue" points="303.5,-29.751 300,-19.7511 296.5,-29.7511 303.5,-29.751"/>
</g>
</g>
</svg>
