<?xml version="1.0" encoding="UTF-8" standalone="no"?>
<!DOCTYPE svg PUBLIC "-//W3C//DTD SVG 1.1//EN"
 "http://www.w3.org/Graphics/SVG/1.1/DTD/svg11.dtd">
<!-- Generated by graphviz version 2.36.0 (20140111.2315)
 -->
<!-- Title: /home/travis/build/AliceO2Group/AliceO2/DataFormats/TimeFrame/src/TimeFrame.cxx Pages: 1 -->
<svg width="620pt" height="286pt"
 viewBox="0.00 0.00 620.00 286.00" xmlns="http://www.w3.org/2000/svg" xmlns:xlink="http://www.w3.org/1999/xlink">
<g id="graph0" class="graph" transform="scale(1 1) rotate(0) translate(4 282)">
<title>/home/travis/build/AliceO2Group/AliceO2/DataFormats/TimeFrame/src/TimeFrame.cxx</title>
<!-- Node1 -->
<g id="node1" class="node"><title>Node1</title>
<polygon fill="#bfbfbf" stroke="black" points="104.5,-225 104.5,-277 233.5,-277 233.5,-225 104.5,-225"/>
<text text-anchor="start" x="112.5" y="-265" font-family="Helvetica,sans-Serif" font-size="10.00">/home/travis/build</text>
<text text-anchor="start" x="112.5" y="-254" font-family="Helvetica,sans-Serif" font-size="10.00">/AliceO2Group/AliceO2</text>
<text text-anchor="start" x="112.5" y="-243" font-family="Helvetica,sans-Serif" font-size="10.00">/DataFormats/TimeFrame</text>
<text text-anchor="middle" x="169" y="-232" font-family="Helvetica,sans-Serif" font-size="10.00">/src/TimeFrame.cxx</text>
</g>
<!-- Node2 -->
<g id="node2" class="node"><title>Node2</title>
<g id="a_node2"><a xlink:href="../../de/dfa/TimeFrame_8h.html" target="_top" xlink:title="TimeFrame/TimeFrame.h">
<polygon fill="none" stroke="black" points="105.5,-168.5 105.5,-187.5 232.5,-187.5 232.5,-168.5 105.5,-168.5"/>
<text text-anchor="middle" x="169" y="-175.5" font-family="Helvetica,sans-Serif" font-size="10.00">TimeFrame/TimeFrame.h</text>
</a>
</g>
</g>
<!-- Node1&#45;&gt;Node2 -->
<g id="edge1" class="edge"><title>Node1&#45;&gt;Node2</title>
<path fill="none" stroke="midnightblue" d="M169,-224.768C169,-215.89 169,-206.074 169,-197.816"/>
<polygon fill="midnightblue" stroke="midnightblue" points="172.5,-197.757 169,-187.757 165.5,-197.757 172.5,-197.757"/>
</g>
<!-- Node3 -->
<g id="node3" class="node"><title>Node3</title>
<polygon fill="none" stroke="#bfbfbf" points="41,-112.5 41,-131.5 121,-131.5 121,-112.5 41,-112.5"/>
<text text-anchor="middle" x="81" y="-119.5" font-family="Helvetica,sans-Serif" font-size="10.00">FairMQParts.h</text>
</g>
<!-- Node2&#45;&gt;Node3 -->
<g id="edge2" class="edge"><title>Node2&#45;&gt;Node3</title>
<path fill="none" stroke="midnightblue" d="M154.861,-168.324C141.134,-159.9 120.064,-146.971 103.936,-137.074"/>
<polygon fill="midnightblue" stroke="midnightblue" points="105.457,-133.902 95.1036,-131.655 101.796,-139.868 105.457,-133.902"/>
</g>
<!-- Node4 -->
<g id="node4" class="node"><title>Node4</title>
<polygon fill="none" stroke="#bfbfbf" points="139.5,-112.5 139.5,-131.5 198.5,-131.5 198.5,-112.5 139.5,-112.5"/>
<text text-anchor="middle" x="169" y="-119.5" font-family="Helvetica,sans-Serif" font-size="10.00">TObject.h</text>
</g>
<!-- Node2&#45;&gt;Node4 -->
<g id="edge3" class="edge"><title>Node2&#45;&gt;Node4</title>
<path fill="none" stroke="midnightblue" d="M169,-168.083C169,-161.006 169,-150.861 169,-141.986"/>
<polygon fill="midnightblue" stroke="midnightblue" points="172.5,-141.751 169,-131.751 165.5,-141.751 172.5,-141.751"/>
</g>
<!-- Node5 -->
<g id="node5" class="node"><title>Node5</title>
<g id="a_node5"><a xlink:href="../../d6/d90/Headers_2include_2Headers_2TimeStamp_8h.html" target="_top" xlink:title="Headers/TimeStamp.h">
<polygon fill="none" stroke="black" points="216.5,-112.5 216.5,-131.5 331.5,-131.5 331.5,-112.5 216.5,-112.5"/>
<text text-anchor="middle" x="274" y="-119.5" font-family="Helvetica,sans-Serif" font-size="10.00">Headers/TimeStamp.h</text>
</a>
</g>
</g>
<!-- Node2&#45;&gt;Node5 -->
<g id="edge4" class="edge"><title>Node2&#45;&gt;Node5</title>
<path fill="none" stroke="midnightblue" d="M185.87,-168.324C202.709,-159.664 228.807,-146.242 248.238,-136.249"/>
<polygon fill="midnightblue" stroke="midnightblue" points="249.88,-139.341 257.172,-131.655 246.678,-133.116 249.88,-139.341"/>
</g>
<!-- Node6 -->
<g id="node6" class="node"><title>Node6</title>
<g id="a_node6"><a xlink:href="../../dc/dcd/DataHeader_8h.html" target="_top" xlink:title="Headers/DataHeader.h">
<polygon fill="none" stroke="black" points="165.5,-56.5 165.5,-75.5 282.5,-75.5 282.5,-56.5 165.5,-56.5"/>
<text text-anchor="middle" x="224" y="-63.5" font-family="Helvetica,sans-Serif" font-size="10.00">Headers/DataHeader.h</text>
</a>
</g>
</g>
<!-- Node5&#45;&gt;Node6 -->
<g id="edge5" class="edge"><title>Node5&#45;&gt;Node6</title>
<path fill="none" stroke="midnightblue" d="M265.744,-112.083C258.535,-104.298 247.89,-92.8015 239.154,-83.3665"/>
<polygon fill="midnightblue" stroke="midnightblue" points="241.465,-80.7108 232.103,-75.7511 236.329,-85.4666 241.465,-80.7108"/>
</g>
<!-- Node9 -->
<g id="node9" class="node"><title>Node9</title>
<polygon fill="none" stroke="#bfbfbf" points="-0.5,-0.5 -0.5,-19.5 48.5,-19.5 48.5,-0.5 -0.5,-0.5"/>
<text text-anchor="middle" x="24" y="-7.5" font-family="Helvetica,sans-Serif" font-size="10.00">cassert</text>
</g>
<!-- Node5&#45;&gt;Node9 -->
<g id="edge15" class="edge"><title>Node5&#45;&gt;Node9</title>
<path fill="none" stroke="midnightblue" d="M250,-112.467C226.174,-103.833 188.723,-89.8211 157,-76 119.018,-59.4523 76.1335,-37.9709 49.5809,-24.3308"/>
<polygon fill="midnightblue" stroke="midnightblue" points="51.0683,-21.1598 40.5767,-19.6839 47.858,-27.3802 51.0683,-21.1598"/>
</g>
<!-- Node15 -->
<g id="node15" class="node"><title>Node15</title>
<polygon fill="none" stroke="#bfbfbf" points="301,-56.5 301,-75.5 347,-75.5 347,-56.5 301,-56.5"/>
<text text-anchor="middle" x="324" y="-63.5" font-family="Helvetica,sans-Serif" font-size="10.00">chrono</text>
</g>
<!-- Node5&#45;&gt;Node15 -->
<g id="edge14" class="edge"><title>Node5&#45;&gt;Node15</title>
<path fill="none" stroke="midnightblue" d="M282.256,-112.083C289.465,-104.298 300.11,-92.8015 308.846,-83.3665"/>
<polygon fill="midnightblue" stroke="midnightblue" points="311.671,-85.4666 315.897,-75.7511 306.535,-80.7108 311.671,-85.4666"/>
</g>
<!-- Node16 -->
<g id="node16" class="node"><title>Node16</title>
<polygon fill="none" stroke="#bfbfbf" points="365,-56.5 365,-75.5 427,-75.5 427,-56.5 365,-56.5"/>
<text text-anchor="middle" x="396" y="-63.5" font-family="Helvetica,sans-Serif" font-size="10.00">type_traits</text>
</g>
<!-- Node5&#45;&gt;Node16 -->
<g id="edge16" class="edge"><title>Node5&#45;&gt;Node16</title>
<path fill="none" stroke="midnightblue" d="M293.331,-112.444C313.32,-103.596 344.743,-89.6875 367.564,-79.5865"/>
<polygon fill="midnightblue" stroke="midnightblue" points="369.032,-82.7645 376.759,-75.5164 366.198,-76.3635 369.032,-82.7645"/>
</g>
<!-- Node7 -->
<g id="node7" class="node"><title>Node7</title>
<polygon fill="none" stroke="#bfbfbf" points="67,-0.5 67,-19.5 113,-19.5 113,-0.5 67,-0.5"/>
<text text-anchor="middle" x="90" y="-7.5" font-family="Helvetica,sans-Serif" font-size="10.00">cstdint</text>
</g>
<!-- Node6&#45;&gt;Node7 -->
<g id="edge6" class="edge"><title>Node6&#45;&gt;Node7</title>
<path fill="none" stroke="midnightblue" d="M202.767,-56.4435C180.616,-47.5171 145.681,-33.4387 120.564,-23.3168"/>
<polygon fill="midnightblue" stroke="midnightblue" points="121.717,-20.0079 111.133,-19.5164 119.1,-26.5006 121.717,-20.0079"/>
</g>
<!-- Node8 -->
<g id="node8" class="node"><title>Node8</title>
<polygon fill="none" stroke="#bfbfbf" points="131,-0.5 131,-19.5 183,-19.5 183,-0.5 131,-0.5"/>
<text text-anchor="middle" x="157" y="-7.5" font-family="Helvetica,sans-Serif" font-size="10.00">memory</text>
</g>
<!-- Node6&#45;&gt;Node8 -->
<g id="edge7" class="edge"><title>Node6&#45;&gt;Node8</title>
<path fill="none" stroke="midnightblue" d="M213.235,-56.324C203.234,-48.2631 188.113,-36.0765 176.07,-26.3695"/>
<polygon fill="midnightblue" stroke="midnightblue" points="177.943,-23.3841 167.961,-19.8339 173.55,-28.8343 177.943,-23.3841"/>
</g>
<!-- Node6&#45;&gt;Node9 -->
<g id="edge8" class="edge"><title>Node6&#45;&gt;Node9</title>
<path fill="none" stroke="midnightblue" d="M192.309,-56.4435C155.863,-46.6031 96.2282,-30.5016 58.5991,-20.3418"/>
<polygon fill="midnightblue" stroke="midnightblue" points="59.1736,-16.8716 48.6069,-17.6439 57.3488,-23.6296 59.1736,-16.8716"/>
</g>
<!-- Node10 -->
<g id="node10" class="node"><title>Node10</title>
<polygon fill="none" stroke="#bfbfbf" points="201,-0.5 201,-19.5 247,-19.5 247,-0.5 201,-0.5"/>
<text text-anchor="middle" x="224" y="-7.5" font-family="Helvetica,sans-Serif" font-size="10.00">cstring</text>
</g>
<!-- Node6&#45;&gt;Node10 -->
<g id="edge9" class="edge"><title>Node6&#45;&gt;Node10</title>
<path fill="none" stroke="midnightblue" d="M224,-56.083C224,-49.0059 224,-38.8611 224,-29.9865"/>
<polygon fill="midnightblue" stroke="midnightblue" points="227.5,-29.751 224,-19.7511 220.5,-29.7511 227.5,-29.751"/>
</g>
<!-- Node11 -->
<g id="node11" class="node"><title>Node11</title>
<polygon fill="none" stroke="#bfbfbf" points="265,-0.5 265,-19.5 321,-19.5 321,-0.5 265,-0.5"/>
<text text-anchor="middle" x="293" y="-7.5" font-family="Helvetica,sans-Serif" font-size="10.00">algorithm</text>
</g>
<!-- Node6&#45;&gt;Node11 -->
<g id="edge10" class="edge"><title>Node6&#45;&gt;Node11</title>
<path fill="none" stroke="midnightblue" d="M235.086,-56.324C245.486,-48.1849 261.261,-35.8395 273.722,-26.0874"/>
<polygon fill="midnightblue" stroke="midnightblue" points="275.994,-28.7533 281.712,-19.8339 271.68,-23.2407 275.994,-28.7533"/>
</g>
<!-- Node12 -->
<g id="node12" class="node"><title>Node12</title>
<polygon fill="none" stroke="#bfbfbf" points="339.5,-0.5 339.5,-19.5 398.5,-19.5 398.5,-0.5 339.5,-0.5"/>
<text text-anchor="middle" x="369" y="-7.5" font-family="Helvetica,sans-Serif" font-size="10.00">stdexcept</text>
</g>
<!-- Node6&#45;&gt;Node12 -->
<g id="edge11" class="edge"><title>Node6&#45;&gt;Node12</title>
<path fill="none" stroke="midnightblue" d="M246.976,-56.4435C271.157,-47.4381 309.418,-33.1891 336.646,-23.049"/>
<polygon fill="midnightblue" stroke="midnightblue" points="337.982,-26.2864 346.132,-19.5164 335.539,-19.7265 337.982,-26.2864"/>
</g>
<!-- Node13 -->
<g id="node13" class="node"><title>Node13</title>
<polygon fill="none" stroke="#bfbfbf" points="416.5,-0.5 416.5,-19.5 457.5,-19.5 457.5,-0.5 416.5,-0.5"/>
<text text-anchor="middle" x="437" y="-7.5" font-family="Helvetica,sans-Serif" font-size="10.00">string</text>
</g>
<!-- Node6&#45;&gt;Node13 -->
<g id="edge12" class="edge"><title>Node6&#45;&gt;Node13</title>
<path fill="none" stroke="midnightblue" d="M260.944,-56.4918C295.98,-48.2955 350.305,-35.2571 406.596,-20.0031"/>
<polygon fill="midnightblue" stroke="midnightblue" points="407.656,-23.3421 416.382,-17.334 405.814,-16.5888 407.656,-23.3421"/>
</g>
<!-- Node14 -->
<g id="node14" class="node"><title>Node14</title>
<g id="a_node14"><a xlink:href="../../d7/df8/Types_8h.html" target="_top" xlink:title="MemoryResources/Types.h">
<polygon fill="none" stroke="black" points="475.5,-0.5 475.5,-19.5 612.5,-19.5 612.5,-0.5 475.5,-0.5"/>
<text text-anchor="middle" x="544" y="-7.5" font-family="Helvetica,sans-Serif" font-size="10.00">MemoryResources/Types.h</text>
</a>
</g>
</g>
<!-- Node6&#45;&gt;Node14 -->
<g id="edge13" class="edge"><title>Node6&#45;&gt;Node14</title>
<path fill="none" stroke="midnightblue" d="M274.705,-56.4435C331.347,-46.8851 422.996,-31.4195 483.379,-21.2298"/>
<polygon fill="midnightblue" stroke="midnightblue" points="484.254,-24.6317 493.532,-19.5164 483.089,-17.7293 484.254,-24.6317"/>
</g>
</g>
</svg>
